<svg width="32" height="32" viewBox="0 0 32 32" fill="none" xmlns="http://www.w3.org/2000/svg">
<circle cx="16" cy="16" r="16" fill="black"/>
<g clip-path="url(#clip0_6899_21600)">
<path d="M12.1199 14.4038L16.0042 10.521L19.8902 14.4069L22.1491 12.1464L16.0042 6L9.85938 12.1449L12.1199 14.4038Z" fill="#F3BA2F"/>
<path d="M6.00195 16.001L8.26086 13.7405L10.5213 16.001L8.26086 18.2599L6.00195 16.001Z" fill="#F3BA2F"/>
<path d="M12.1199 17.5963L16.0042 21.4807L19.8902 17.5947L22.1507 19.8521L16.0058 25.9985L9.85938 19.8568L12.1199 17.5963Z" fill="#F3BA2F"/>
<path d="M21.4824 16.001L23.7413 13.7405L26.0018 15.9994L23.7413 18.2614L21.4824 16.001Z" fill="#F3BA2F"/>
<path d="M18.2951 15.9992L16.003 13.7056L14.308 15.4005L14.1122 15.5948L13.7109 15.9961L16.003 18.2866L18.2951 16.0008V15.9992Z" fill="#F3BA2F"/>
</g>
<defs>
<clipPath id="clip0_6899_21600">
<rect width="20" height="20" fill="white" transform="translate(6.00195 6)"/>
</clipPath>
</defs>
</svg>
