<svg width="32" height="32" viewBox="0 0 32 32" fill="none" xmlns="http://www.w3.org/2000/svg">
<circle cx="16" cy="16" r="16" fill="#021F31"/>
<path d="M16.0019 6C10.5161 6 6.00195 10.5142 6.00195 16C6.00195 21.4858 10.5161 26 16.0019 26C21.4878 26 26.0019 21.4858 26.0019 16V15.9956C26.0019 10.5122 21.4897 6 16.0064 6H16.0019ZM21.2614 16.4726C21.1924 16.5257 21.1186 16.5722 21.0409 16.6115C20.952 16.649 20.859 16.6759 20.7638 16.6916C20.5462 16.7269 20.3244 16.7269 20.1068 16.6916C19.6168 16.5881 19.1484 16.4009 18.7221 16.1382C18.2757 15.8664 17.8585 15.5494 17.477 15.1923C17.2808 15.0196 17.0963 14.8248 16.9119 14.6271C16.7274 14.4294 16.5539 14.2118 16.3922 14.0163C16.3733 13.9897 16.3483 13.968 16.3193 13.953C16.2903 13.938 16.2581 13.9301 16.2255 13.9301C16.1818 13.9301 16.1393 13.9441 16.1041 13.97C16.0042 14.0343 15.9734 14.1684 16.035 14.2699C16.185 14.5007 16.3464 14.7315 16.5194 14.9622C16.6921 15.1923 16.8655 15.4032 17.05 15.6193C17.4303 16.048 17.8556 16.4347 18.3186 16.7724C18.7934 17.1384 19.328 17.4194 19.8987 17.603C20.0948 17.6594 20.2955 17.698 20.4985 17.7184C20.5803 17.7257 20.6422 17.7981 20.6366 17.8801C20.6344 17.9045 20.6267 17.9282 20.6139 17.9491C20.28 18.5052 19.877 19.0167 19.4144 19.4713C18.1555 20.7911 16.4277 21.5661 14.6048 21.6284C13.925 21.6412 13.2513 21.4994 12.6343 21.2139L12.4954 21.1448C12.4724 21.134 12.4473 21.1284 12.4219 21.1284C12.3965 21.1284 12.3714 21.134 12.3484 21.1448L12.222 21.2256C12.0118 21.362 11.7683 21.4382 11.5179 21.4461C11.4165 21.4505 11.3152 21.4344 11.2201 21.3988C11.125 21.3632 11.0381 21.3088 10.9645 21.2389C10.6998 20.8798 10.6998 20.3867 10.9645 20.0276L11.0453 19.8887C11.0561 19.8657 11.0617 19.8406 11.0617 19.8152C11.0617 19.7898 11.0561 19.7647 11.0453 19.7417L10.9733 19.5969C10.2692 18.2821 10.3272 16.552 11.0424 14.949C11.0532 14.9215 11.072 14.8979 11.0964 14.8813C11.1208 14.8646 11.1497 14.8557 11.1792 14.8557C11.1996 14.8557 11.2199 14.8599 11.2386 14.8682C11.257 14.8753 11.2736 14.8861 11.2876 14.9C11.3015 14.9139 11.3123 14.9306 11.3194 14.949C11.4481 15.2831 11.6103 15.6032 11.8038 15.9045C12.1243 16.3746 12.4912 16.8114 12.8989 17.2083C13.0951 17.4038 13.3142 17.6 13.5222 17.7735C13.7302 17.9469 13.9631 18.1307 14.191 18.2924C14.2242 18.3113 14.2618 18.3212 14.3 18.3213C14.421 18.3213 14.5205 18.2217 14.5205 18.1008C14.5205 18.0484 14.5019 17.9978 14.4681 17.958C14.2718 17.7845 14.0756 17.6 13.8801 17.4155C13.6956 17.2193 13.5126 17.0238 13.3384 16.8276C13.0019 16.4244 12.708 15.9875 12.4616 15.5238C12.2205 15.0862 12.0566 14.6103 11.9773 14.117C11.9423 13.8979 11.9423 13.6746 11.9773 13.4555C11.9973 13.369 12.0243 13.2841 12.0581 13.202C12.0581 13.1792 12.0926 13.1446 12.1044 13.1211C12.2514 12.9484 12.4043 12.7757 12.5652 12.614C14.6415 10.5377 17.4792 9.86888 19.4857 10.953L19.6327 11.0338C19.6563 11.0507 19.6846 11.0597 19.7135 11.0597C19.7425 11.0597 19.7708 11.0507 19.7944 11.0338L19.9325 10.9412C20.3041 10.6419 20.8364 10.6349 21.2158 10.9243C21.5138 11.3178 21.4994 11.8698 21.1813 12.2472L21.0894 12.3854C21.073 12.4064 21.0641 12.4323 21.0641 12.4589C21.0641 12.4855 21.073 12.5114 21.0894 12.5324L21.1585 12.6794C21.6791 13.8831 21.716 15.2424 21.2614 16.4726H21.2614Z" fill="#00F068"/>
</svg>
