<svg width="101" height="32" viewBox="0 0 101 32" fill="none" xmlns="http://www.w3.org/2000/svg">
<path d="M90.8238 3.62363C89.967 1.08411 89.3611 0.511719 87.0991 0.511719L81.1953 0.538622L71.7593 31.03H76.5601L78.5736 24.4796H89.8045L91.8464 31.03H100.18L90.8238 3.62363ZM79.9527 19.8385L84.146 5.91732L88.4238 19.8385H79.9527Z" fill="black"/>
<path d="M38.2628 13.8888L40.8295 10.0949C41.4916 9.1402 41.6294 8.53893 41.6294 7.88393C41.6294 6.02828 39.9733 4.44349 38.0705 4.44349H34.1252V26.8822H36.3057C39.9752 26.8822 42.7614 24.9171 42.7614 20.3318C42.7323 16.5628 40.9383 14.5439 38.2628 13.8888ZM39.7792 30.9758H26.8384V0.484375H40.2471C46.5378 0.484375 48.7452 5.56145 45.5437 10.2294L44.0254 12.4404C54.6246 17.846 51.1744 30.9758 39.7792 30.9758Z" fill="black"/>
<path d="M12.189 13.8888L14.7558 10.0949C15.4179 9.1402 15.5558 8.53893 15.5558 7.88393C15.5558 6.02828 13.8996 4.44349 11.9968 4.44349H8.02233V26.8822H10.2028C13.8723 26.8822 16.6586 24.9171 16.6586 20.3318C16.6586 16.5628 14.8664 14.5439 12.189 13.8888ZM13.7074 30.9758H0.766602V0.484375H14.2025C20.4932 0.484375 22.7008 5.56145 19.4991 10.2294L17.9808 12.4404C28.5237 17.846 25.1026 30.9758 13.7074 30.9758Z" fill="black"/>
<path d="M70.4327 0.484375H75.2888L65.8796 30.9758H58.4862L48.415 0.484375H53.8494C55.9465 0.484375 56.498 1.02995 57.6025 4.47039L63.4235 23.6339L70.4327 0.484375Z" fill="black"/>
</svg>
