<svg width="142" height="30" viewBox="0 0 142 30" fill="none" xmlns="http://www.w3.org/2000/svg">
<mask id="mask0_10079_170540" style="mask-type:alpha" maskUnits="userSpaceOnUse" x="0" y="0" width="21" height="30">
<path d="M0.127441 0.351562H20.1483V29.1051H0.127441V0.351562Z" fill="white"/>
</mask>
<g mask="url(#mask0_10079_170540)">
<path fill-rule="evenodd" clip-rule="evenodd" d="M10.1288 23.4629C7.62338 23.4629 5.58545 21.3592 5.58545 18.7731C5.58545 16.1869 7.62338 14.0832 10.1296 14.0832C12.6351 14.0832 14.673 16.1869 14.673 18.7731C14.673 21.3592 12.6343 23.4629 10.1288 23.4629ZM10.1382 8.44181C8.63763 8.44181 7.19351 8.7768 5.84745 9.4367L5.59408 9.56077V3.17186C5.59408 1.61632 4.36802 0.351562 2.86115 0.351562C1.35349 0.351562 0.127441 1.61632 0.127441 3.17186V18.7832C0.132148 24.475 4.62375 29.1044 10.1382 29.1044C15.6583 29.1044 20.1483 24.4703 20.1483 18.7731C20.1483 13.0767 15.6575 8.44181 10.1382 8.44181Z" fill="black"/>
</g>
<mask id="mask1_10079_170540" style="mask-type:alpha" maskUnits="userSpaceOnUse" x="58" y="0" width="21" height="30">
<path d="M58.186 0.351562H78.2069V29.1051H58.186V0.351562Z" fill="white"/>
</mask>
<g mask="url(#mask1_10079_170540)">
<path fill-rule="evenodd" clip-rule="evenodd" d="M68.1874 23.4629C65.6819 23.4629 63.6441 21.3592 63.6441 18.7731C63.6441 16.1869 65.6819 14.0832 68.1874 14.0832C70.6937 14.0832 72.7308 16.1869 72.7308 18.7731C72.7308 21.3592 70.6937 23.4629 68.1874 23.4629ZM68.1968 8.44181C66.6955 8.44181 65.2521 8.7768 63.9061 9.4367L63.6519 9.56077V3.17186C63.6519 1.61632 62.4258 0.351562 60.9197 0.351562C59.4121 0.351562 58.186 1.61632 58.186 3.17186V18.7832C58.1907 24.475 62.6816 29.1044 68.1968 29.1044C73.716 29.1044 78.2069 24.4703 78.2069 18.7731C78.2069 13.0767 73.7153 8.44181 68.1968 8.44181Z" fill="black"/>
</g>
<path fill-rule="evenodd" clip-rule="evenodd" d="M52.764 8.44189C51.2579 8.44189 50.0311 9.70742 50.0311 11.263V19.2299H50.0389C50.0389 21.6989 48.205 23.7074 45.9505 23.7074C43.6962 23.7074 41.8621 21.6989 41.8621 19.2299H41.8699V11.263C41.8699 9.70742 40.6431 8.44189 39.137 8.44189C37.6294 8.44189 36.4033 9.70742 36.4033 11.263V19.2392C36.408 24.6688 40.6902 29.0874 45.9498 29.0921C51.2108 29.0866 55.493 24.6688 55.4977 19.2392V11.263C55.4977 9.70742 54.2716 8.44189 52.764 8.44189ZM111.524 8.44267C106.264 8.44732 101.981 12.865 101.977 18.2955V26.271C101.977 27.8265 103.203 29.0921 104.711 29.0921C106.217 29.0921 107.443 27.8265 107.443 26.271V18.3048H107.436C107.436 15.8358 109.27 13.8273 111.524 13.8273C113.779 13.8273 115.613 15.8358 115.613 18.3048H115.605V26.271C115.605 27.8265 116.831 29.0921 118.338 29.0921C119.845 29.0921 121.072 27.8265 121.072 26.271V18.2962C121.067 12.8658 116.785 8.44732 111.524 8.44267Z" fill="black"/>
<mask id="mask2_10079_170540" style="mask-type:alpha" maskUnits="userSpaceOnUse" x="79" y="8" width="21" height="22">
<path d="M79.6533 8.44238H99.6749V29.1437H79.6533V8.44238Z" fill="white"/>
</mask>
<g mask="url(#mask2_10079_170540)">
<path fill-rule="evenodd" clip-rule="evenodd" d="M89.5984 23.4644C87.0929 23.4644 85.055 21.3597 85.055 18.7736C85.055 16.1875 87.0929 14.0837 89.5984 14.0837C92.1038 14.0837 94.1417 16.1875 94.1417 18.7736C94.1417 21.3597 92.1038 23.4644 89.5984 23.4644ZM89.6635 8.44238C84.1443 8.44238 79.6543 13.0764 79.6543 18.7729C79.6543 24.2305 83.7748 28.7126 88.9732 29.0801C91.1829 29.2445 93.4091 28.1674 94.6532 26.0924L94.6572 26.5809C94.6626 27.3129 94.8956 27.9278 95.3498 28.4086C95.8094 28.8964 96.4205 29.1429 97.1665 29.1429C97.8866 29.1429 98.4922 28.8964 98.9636 28.4086C99.4358 27.9216 99.675 27.2973 99.675 26.5538V18.7651C99.6704 13.0726 95.1796 8.44238 89.6635 8.44238Z" fill="black"/>
</g>
<mask id="mask3_10079_170540" style="mask-type:alpha" maskUnits="userSpaceOnUse" x="123" y="0" width="19" height="30">
<path d="M123.563 0.359375H141.295V29.0997H123.563V0.359375Z" fill="white"/>
</mask>
<g mask="url(#mask3_10079_170540)">
<path fill-rule="evenodd" clip-rule="evenodd" d="M140.613 24.7611L134.6 18.2924L140.185 12.7603C141.165 11.791 141.197 10.1804 140.258 9.17C140.039 8.93092 139.774 8.73848 139.478 8.60453C139.181 8.47057 138.861 8.39791 138.535 8.39101C138.209 8.38411 137.886 8.44311 137.584 8.56441C137.282 8.6857 137.008 8.86671 136.779 9.09634L129.031 16.7701V3.18045C129.031 1.62491 127.805 0.359375 126.298 0.359375C124.79 0.359375 123.563 1.62491 123.563 3.18045V26.2795C123.563 27.8343 124.79 29.0997 126.298 29.0997C127.803 29.0997 129.031 27.8343 129.031 26.2795V19.6338L137.062 28.2763C137.28 28.5153 137.546 28.7077 137.841 28.8418C138.137 28.9759 138.459 29.0485 138.784 29.0557C139.11 29.0627 139.434 29.0038 139.736 28.8828C140.037 28.7616 140.311 28.5809 140.539 28.3514C141.519 27.3822 141.552 25.7716 140.613 24.7611Z" fill="black"/>
</g>
<path fill-rule="evenodd" clip-rule="evenodd" d="M33.4952 8.53882C31.018 8.18057 28.6498 9.40422 27.3885 11.4832V11.263C27.3885 9.70742 26.1624 8.44189 24.6556 8.44189C23.1479 8.44189 21.9219 9.70742 21.9219 11.263V26.1283C21.9219 27.6838 23.1479 28.9486 24.6556 28.9486C26.1617 28.9486 27.3885 27.6838 27.3885 26.1283V17.8961C27.514 15.5504 29.2962 13.6839 31.4691 13.6839C31.7781 13.6839 32.0793 13.7219 32.3688 13.7925C33.765 14.1701 35.192 13.3079 35.5566 11.867C35.6195 11.6189 35.6477 11.3684 35.6429 11.1226C35.6429 9.81443 34.7103 8.73114 33.4952 8.53882Z" fill="black"/>
</svg>
