<svg width="15" height="14" viewBox="0 0 15 14" fill="none" xmlns="http://www.w3.org/2000/svg">
<path d="M4.18942 1.32093C5.17042 0.897936 6.25716 0.726219 7.32081 0.820055C7.37872 0.825513 7.43704 0.823203 7.49515 0.817745C8.71826 0.714044 9.96968 0.965321 11.0556 1.53904C12.248 2.16356 13.2374 3.16803 13.8429 4.37089C14.2166 5.10562 14.4431 5.91277 14.5176 6.73314V7.89548C14.4404 8.70662 14.2178 9.50495 13.8498 10.2325C13.2714 11.3863 12.3418 12.3595 11.2165 12.9901C10.4249 13.4368 9.53792 13.7107 8.63329 13.7949H6.14345C6.02198 13.7802 5.90009 13.767 5.77924 13.7487C4.42502 13.5483 3.14339 12.9009 2.17372 11.9348C1.4172 11.186 0.847186 10.2493 0.534592 9.23122C0.275706 8.39468 0.191159 7.50545 0.280531 6.63469C0.393401 5.51769 0.804598 4.43323 1.45895 3.52154C2.14665 2.55779 3.10122 1.78675 4.18942 1.32093ZM6.52968 1.48215C5.59525 1.51637 4.67027 1.78066 3.85984 2.24752C2.92919 2.78031 2.15085 3.57528 1.63811 4.51762C1.14782 5.41147 0.902782 6.43673 0.930265 7.4559C0.951034 8.34031 1.17656 9.21967 1.58713 10.0035C1.98259 10.7624 2.54778 11.432 3.22877 11.9499C3.85312 12.4266 4.57523 12.7747 5.33742 12.9649C6.21793 13.1853 7.14983 13.1962 8.03537 12.9974C8.84287 12.8173 9.60988 12.4598 10.2691 11.9596C11.3996 11.1083 12.2032 9.83264 12.4719 8.4417C12.6624 7.47522 12.6055 6.46045 12.3036 5.52252C12.0978 4.88079 11.7785 4.27579 11.3659 3.74301C10.7621 2.96084 9.95709 2.33527 9.04847 1.94713C8.25755 1.60642 7.38984 1.44856 6.52968 1.48215ZM10.6958 2.12325C10.833 2.22989 10.9681 2.33968 11.0973 2.45598C12.1446 3.39097 12.8774 4.67255 13.1435 6.05236C13.3289 7.00457 13.3012 7.99813 13.0589 8.93774C12.8678 9.68234 12.5416 10.3919 12.1027 11.0229C11.7141 11.5838 11.2345 12.0796 10.6945 12.4959C11.6459 12.0074 12.4572 11.2511 13.0123 10.3365C13.4443 9.6286 13.7214 8.82669 13.8179 8.00275C13.9316 7.05117 13.8095 6.07147 13.4584 5.1793C12.9481 3.87064 11.9474 2.75995 10.6958 2.12325Z" fill="black"/>
<path d="M6.52968 1.48215C7.38984 1.44856 8.25755 1.60642 9.04847 1.94713C9.95709 2.33527 10.7621 2.96084 11.3659 3.74301C11.7785 4.27579 12.0978 4.88079 12.3036 5.52252C12.6055 6.46045 12.6624 7.47522 12.4719 8.4417C12.2032 9.83264 11.3996 11.1083 10.2691 11.9596C9.60988 12.4598 8.84287 12.8173 8.03537 12.9974C7.14983 13.1962 6.21793 13.1853 5.33742 12.9649C4.57523 12.7747 3.85312 12.4266 3.22877 11.9499C2.54778 11.432 1.98259 10.7624 1.58713 10.0035C1.17656 9.21967 0.951034 8.34031 0.930265 7.4559C0.902782 6.43673 1.14782 5.41147 1.63811 4.51762C2.15085 3.57528 2.92919 2.78031 3.85984 2.24752C4.67027 1.78066 5.59525 1.51637 6.52968 1.48215ZM6.5536 2.63735C6.40317 2.70683 6.29618 2.86176 6.28569 3.02739C6.27751 3.19238 6.28863 3.3578 6.28128 3.5228L6.27373 3.53267C6.02177 3.53939 5.76938 3.53141 5.51721 3.53645C5.25812 3.54316 5.00049 3.59858 4.76153 3.69893C4.29495 3.89247 3.90284 4.25963 3.67878 4.71285C3.46269 5.14067 3.40227 5.64344 3.50528 6.11114C3.60892 6.59165 3.88774 7.03102 4.27607 7.33205C4.63377 7.61292 5.08462 7.77268 5.53966 7.77897C5.78743 7.78023 6.03519 7.77792 6.28296 7.78002C6.28359 8.56513 6.28254 9.35045 6.28359 10.1356C6.03519 10.1387 5.7868 10.1362 5.5384 10.137C5.22287 10.1383 4.91091 9.9989 4.69943 9.76505C4.50055 9.55093 4.39187 9.2585 4.39859 8.9665C4.40614 8.75595 4.25383 8.5538 4.04949 8.50299C3.84263 8.44296 3.6041 8.54855 3.50906 8.74168C3.44276 8.86112 3.45325 9.00219 3.46081 9.13339C3.49269 9.64056 3.72011 10.1318 4.08515 10.4849C4.46195 10.8577 4.9858 11.0766 5.51595 11.0802C5.7698 11.0802 6.02366 11.081 6.27751 11.0796C6.29555 11.2633 6.26974 11.449 6.29093 11.6327C6.32513 11.8603 6.54646 12.0393 6.7764 12.0232C7.00633 12.0173 7.21214 11.8204 7.2241 11.5899C7.22851 11.4226 7.22494 11.2549 7.22494 11.0873C7.61935 11.0584 8.02237 11.1214 8.41091 11.0258C9.03588 10.8848 9.58135 10.4412 9.85219 9.86119C10.0473 9.4489 10.1029 8.97301 10.0098 8.52672C9.93297 8.15473 9.75317 7.805 9.49596 7.5256C9.11938 7.11142 8.57371 6.85553 8.01356 6.83789C7.7511 6.83306 7.48865 6.83789 7.2262 6.83558C7.22536 6.05026 7.2262 5.26516 7.22578 4.47984C7.48865 4.47669 7.75194 4.47858 8.01481 4.47879C8.33349 4.48005 8.64588 4.62993 8.85001 4.87407C9.03295 5.08693 9.12337 5.37075 9.11162 5.65036C9.10323 5.867 9.26603 6.0721 9.47687 6.11744C9.67492 6.16614 9.89562 6.06811 9.99339 5.88946C10.0628 5.77359 10.0578 5.6342 10.0521 5.50426C10.0339 4.99667 9.8159 4.50062 9.45652 4.14228C9.10554 3.78583 8.61986 3.56521 8.12013 3.53897C7.82201 3.52637 7.52285 3.54505 7.22515 3.5291C7.22557 3.36851 7.22683 3.20792 7.22557 3.04754C7.22326 2.8945 7.13766 2.74714 7.00864 2.66611C6.87521 2.57962 6.69689 2.56829 6.5536 2.63735Z" fill="#FFCA05"/>
<path d="M4.48188 5.22296C4.64447 4.80249 5.06552 4.49726 5.51679 4.48068C5.77085 4.47501 6.02512 4.48047 6.2794 4.47774C6.28758 5.26306 6.28191 6.04901 6.28212 6.83453C6.11869 6.83768 5.95526 6.83495 5.79162 6.83579C5.64645 6.8339 5.49959 6.84503 5.3563 6.81606C5.03133 6.75518 4.73762 6.54967 4.56789 6.26585C4.37866 5.95706 4.34614 5.55884 4.48188 5.22296Z" fill="#FFCA05"/>
<path d="M7.2262 7.77981C7.46138 7.77855 7.69635 7.77939 7.93153 7.77939C8.2072 7.77855 8.48161 7.87847 8.69161 8.05733C8.91819 8.24689 9.06924 8.52441 9.10302 8.8183C9.1412 9.12457 9.05141 9.44386 8.85987 9.68569C8.64483 9.96237 8.30181 10.1356 7.95104 10.1368C7.70935 10.1366 7.46767 10.1383 7.22599 10.136C7.22599 9.35066 7.22536 8.56513 7.2262 7.77981Z" fill="#FFCA05"/>
<path d="M10.6958 2.12325C11.9474 2.75995 12.9481 3.87064 13.4584 5.1793C13.8095 6.07147 13.9316 7.05117 13.8179 8.00275C13.7214 8.82669 13.4443 9.6286 13.0123 10.3365C12.4572 11.2511 11.6459 12.0074 10.6945 12.4959C11.2345 12.0796 11.7141 11.5838 12.1027 11.0229C12.5416 10.3919 12.8678 9.68234 13.0589 8.93774C13.3012 7.99813 13.3289 7.00457 13.1435 6.05236C12.8774 4.67255 12.1446 3.39097 11.0973 2.45598C10.9681 2.33968 10.833 2.22989 10.6958 2.12325Z" fill="#E08A00"/>
<path d="M6.5536 2.63735C6.69689 2.56829 6.87521 2.57962 7.00864 2.66611C7.13766 2.74714 7.22326 2.8945 7.22557 3.04754C7.22683 3.20792 7.22557 3.36851 7.22515 3.5291C7.52285 3.54505 7.82201 3.52637 8.12013 3.53897C8.61986 3.56521 9.10554 3.78583 9.45652 4.14228C9.8159 4.50062 10.0339 4.99667 10.0521 5.50426C10.0578 5.6342 10.0628 5.77359 9.99339 5.88946C9.89562 6.06811 9.67492 6.16614 9.47687 6.11744C9.26603 6.0721 9.10323 5.867 9.11162 5.65036C9.12337 5.37075 9.03295 5.08693 8.85001 4.87407C8.64588 4.62993 8.33349 4.48005 8.01481 4.47879C7.75194 4.47858 7.48865 4.47669 7.22578 4.47984C7.2262 5.26516 7.22536 6.05026 7.2262 6.83558C7.48865 6.83789 7.7511 6.83306 8.01356 6.83789C8.57371 6.85553 9.11938 7.11142 9.49596 7.5256C9.75317 7.805 9.93297 8.15473 10.0098 8.52672C10.1029 8.97301 10.0473 9.4489 9.85219 9.86119C9.58135 10.4412 9.03588 10.8848 8.41091 11.0258C8.02237 11.1214 7.61935 11.0584 7.22494 11.0873C7.22494 11.2549 7.22851 11.4226 7.2241 11.5899C7.21214 11.8204 7.00633 12.0173 6.7764 12.0232C6.54646 12.0393 6.32513 11.8603 6.29093 11.6327C6.26974 11.449 6.29555 11.2633 6.27751 11.0796C6.02366 11.081 5.7698 11.0802 5.51595 11.0802C4.9858 11.0766 4.46195 10.8577 4.08515 10.4849C3.72011 10.1318 3.49269 9.64056 3.46081 9.13339C3.45325 9.00219 3.44276 8.86112 3.50906 8.74168C3.6041 8.54855 3.84263 8.44296 4.04949 8.50299C4.25383 8.5538 4.40614 8.75595 4.39859 8.9665C4.39187 9.2585 4.50055 9.55093 4.69943 9.76505C4.91091 9.9989 5.22287 10.1383 5.5384 10.137C5.7868 10.1362 6.03519 10.1387 6.28359 10.1356C6.28254 9.35045 6.28359 8.56513 6.28296 7.78002C6.03519 7.77792 5.78743 7.78023 5.53966 7.77897C5.08462 7.77268 4.63377 7.61292 4.27607 7.33205C3.88774 7.03102 3.60892 6.59165 3.50528 6.11114C3.40227 5.64344 3.46269 5.14067 3.67878 4.71285C3.90284 4.25963 4.29495 3.89247 4.76153 3.69893C5.00049 3.59858 5.25812 3.54316 5.51721 3.53645C5.76938 3.53141 6.02177 3.53939 6.27373 3.53267L6.28128 3.5228C6.28863 3.3578 6.27751 3.19238 6.28569 3.02739C6.29618 2.86176 6.40317 2.70683 6.5536 2.63735ZM4.48188 5.22296C4.34614 5.55884 4.37866 5.95706 4.56789 6.26585C4.73762 6.54967 5.03133 6.75518 5.3563 6.81606C5.49959 6.84503 5.64645 6.8339 5.79162 6.83579C5.95526 6.83495 6.11869 6.83768 6.28212 6.83453C6.28191 6.04901 6.28758 5.26306 6.2794 4.47774C6.02512 4.48047 5.77085 4.47501 5.51679 4.48068C5.06552 4.49726 4.64447 4.80249 4.48188 5.22296ZM7.2262 7.77981C7.22536 8.56513 7.22599 9.35066 7.22599 10.136C7.46767 10.1383 7.70935 10.1366 7.95104 10.1368C8.30181 10.1356 8.64483 9.96237 8.85987 9.68569C9.05141 9.44386 9.1412 9.12457 9.10302 8.8183C9.06924 8.52441 8.91819 8.24689 8.69161 8.05733C8.48161 7.87847 8.2072 7.77855 7.93153 7.77939C7.69635 7.77939 7.46138 7.77855 7.2262 7.77981Z" fill="#E08A00"/>
</svg>
