<svg width="32" height="32" viewBox="0 0 32 32" fill="none" xmlns="http://www.w3.org/2000/svg">
<g clip-path="url(#clip0_14885_51426)">
<path d="M14.7921 0.0340105C24.4024 -0.544531 31.5174 6.54333 31.6654 16.0163C31.8627 28.6403 17.9024 36.3697 7.29762 29.3339C1.98028 25.8061 -0.498654 20.2256 0.0831317 13.8674C0.752875 6.54794 7.5484 0.470082 14.7921 0.0340105ZM17.2616 1.1395C10.6902 0.580847 4.20343 4.60169 1.9283 10.7915C-1.36678 19.7561 5.31466 30.3136 14.8688 30.8891C14.9391 30.8933 15.1916 30.9332 15.1585 30.8233C15.076 30.5488 14.5095 30.182 14.3103 29.9266C14.055 29.5994 13.958 29.2728 13.9965 28.8543C14.0151 28.6519 14.2675 28.047 14.0413 27.914C13.9422 27.8557 13.3402 27.9046 13.1005 27.8258C12.8588 27.7463 12.6888 27.4134 12.4952 27.4016C12.4315 27.3977 12.0431 27.4398 11.9705 27.4548C11.8231 27.4851 11.5487 27.6757 11.3485 27.7275C10.8404 27.859 10.3888 27.7495 9.90223 27.8023C9.3503 27.8622 9.12269 28.128 8.5409 27.7328C7.79924 27.2289 7.5043 26.7227 6.95046 26.1021C6.69222 25.8128 6.34368 25.6165 6.12965 25.2676C5.63585 24.4627 6.10969 23.8824 6.03245 23.0833C6.00007 22.7483 5.80353 22.4011 5.80754 22.0561C5.81535 21.3846 6.16286 20.4513 6.61322 19.9501C6.89931 19.6318 7.31476 19.4158 7.57237 19.075C7.90198 18.639 7.92726 18.0119 8.23223 17.5428C8.39948 17.2855 8.69658 17.0995 8.89561 16.8638C8.93674 16.7678 8.67938 16.7942 8.59096 16.7668C7.59554 16.4572 7.87797 15.4902 7.86917 14.6702C7.86317 14.1117 7.6572 13.5926 8.20274 13.1738C8.81022 12.7074 9.9265 13.1505 10.1751 12.9542C10.5156 12.6854 9.59754 12.3151 9.43223 12.1229C9.06769 11.6989 9.3511 11.2061 9.70126 10.8924C9.43801 10.8945 9.28031 10.7125 9.1951 10.4805C9.17312 10.4207 9.17061 10.2749 9.16287 10.2673C9.12377 10.2294 8.79351 10.3154 8.69513 10.314C7.64087 10.2989 7.50546 8.75099 8.22838 8.14409C8.38856 8.00962 9.00216 7.77444 9.0529 7.67117C9.10219 7.57086 9.00106 6.91179 9.04075 6.67485C9.19755 5.73862 10.4058 5.20722 11.0663 6.0151C11.5438 6.59914 11.1498 7.0113 11.3354 7.58021C11.501 8.08793 12.057 8.60346 12.2499 9.12659C12.2669 9.15219 12.2873 9.15129 12.3148 9.14489C12.3398 9.13907 12.6435 8.89231 12.7297 8.84278C12.899 8.74558 13.4371 8.53203 13.5285 8.43392C13.669 8.28325 13.5487 8.13274 13.5468 7.96353C13.5441 7.72934 13.5403 7.49995 13.5922 7.27046C12.3793 6.97083 12.3782 5.5906 12.8992 4.67276C13.2658 4.02704 14.5403 3.40182 15.1803 2.88279C15.5075 2.61751 15.7911 2.29306 16.122 2.03492C16.4082 1.8116 16.7884 1.63563 17.0596 1.40672C17.0949 1.37687 17.3143 1.18234 17.2616 1.1395ZM14.4434 7.84986V8.63276C14.4434 8.6458 14.3341 8.8229 14.3092 8.85643C14.0366 9.22342 13.4994 9.3533 13.1315 9.60245C12.6673 9.91679 12.3592 10.4776 11.9144 10.8459C11.4866 11.2002 10.9037 11.4715 10.4174 11.7426L10.8838 12.1029C11.2113 12.5822 11.1472 13.2762 10.6865 13.6444C10.0986 14.1142 9.3288 13.6117 8.69298 13.8877C8.68964 14.1423 8.68748 15.855 8.76034 15.9264C8.96087 16.1227 9.65367 16.0789 9.91608 16.0055C10.8466 15.7453 10.6795 15.2574 11.1339 14.6734C11.2713 14.4967 11.8153 14.0993 11.8511 14.0372C11.9122 13.9314 11.8796 13.7847 11.9143 13.6642C12.0585 13.1639 12.8094 13.1986 13.1913 13.0175C13.3507 12.942 13.4803 12.76 13.6627 12.7288C14.3915 12.6041 14.6534 13.3753 15.0679 13.7794C15.2948 14.0006 15.6373 14.183 15.8756 14.4032C15.9736 14.4937 16.3083 14.9284 16.3833 14.915C16.429 14.9069 16.5003 14.7966 16.5448 14.7618C16.026 14.1809 15.1317 13.7 15.0005 12.8628C14.93 12.413 15.1205 11.9999 15.6297 12.0539C16.0101 12.0942 16.3165 12.5628 16.5901 12.794C17.0746 13.2031 17.7185 13.5627 17.9991 14.1587C18.2177 14.6228 18.1781 15.2232 18.5822 15.589L18.806 14.8743C19.2366 13.9423 20.3789 13.7365 20.5222 14.991C20.5584 15.3081 20.4449 15.6164 20.7111 15.8757C21.1752 16.3278 22.1157 15.9415 22.6526 15.9565C24.0115 15.9945 23.7056 18.3229 22.386 18.7675C21.7695 18.9751 20.1816 18.9535 19.5432 18.7884C19.2748 18.719 18.2722 18.2014 18.1076 18.3476C17.8756 18.5537 17.957 19.0215 17.4081 19.2028C16.5465 19.4874 16.1502 18.7905 15.548 18.444C15.1788 18.2316 14.7648 18.2278 14.4509 17.8859C14.3812 17.8101 14.175 17.4831 14.175 17.4013V16.7526C13.3788 16.662 12.5028 16.676 11.7353 16.93C11.4129 17.0367 11.1512 17.2215 10.8118 17.3039C10.1716 17.4593 9.6865 17.226 9.16233 17.7571C8.70027 18.2252 8.70329 18.8595 8.38737 19.3979C7.86656 20.2856 6.85141 20.4754 6.70857 21.7455C6.6378 22.3747 6.93755 22.772 6.9312 23.3064C6.92696 23.6636 6.72428 24.1013 6.75225 24.4636C6.78535 24.8925 7.30866 25.2069 7.57678 25.5205C7.75425 25.7281 7.8881 25.9913 8.06781 26.1927C8.18262 26.3213 8.94631 26.9386 9.07237 26.9776C9.39339 27.0769 10.0436 26.9318 10.3995 26.9124C10.538 26.9048 10.6903 26.9635 10.8814 26.9468C11.6393 26.8806 11.9754 26.2495 12.9533 26.6756C13.1051 26.7418 13.3328 26.9679 13.4011 26.9884C13.5455 27.0316 13.7964 26.9827 13.9688 27.0022C14.7884 27.0951 15.0887 27.7846 14.9681 28.5287C14.9425 28.6869 14.8476 28.885 14.8441 29.0353C14.8349 29.4256 15.373 29.7052 15.6052 29.9738C15.7458 30.1363 16.1186 30.8067 16.2335 30.8645C16.3994 30.9479 17.3447 30.8695 17.597 30.8444C20.8197 30.5234 24.4039 28.7044 26.5902 26.327C26.6786 26.2308 27.2225 25.6599 26.9051 25.6551C26.8457 25.6542 26.16 25.977 25.975 26.0249C25.6467 26.1098 25.4454 26.1645 25.1214 26.005C24.6005 25.7487 24.7193 25.3928 24.4848 25.0311C24.3666 24.8488 24.1399 24.7694 23.9932 24.628C23.3715 24.0287 22.5111 22.1901 22.1747 21.3464C21.9228 20.7142 21.2403 18.8732 22.5605 19.0819C23.1265 19.1714 23.7573 20.6363 24.0704 21.1059C24.4863 21.7296 24.9209 22.1508 25.2569 22.8721C25.3798 23.1357 25.6749 24.2029 25.9599 24.22C26.0538 24.2256 26.4941 24.1056 26.6123 24.0675C27.4617 23.793 28.8278 23.0304 29.2591 22.2405C29.3813 22.0167 29.6325 21.5986 29.2858 21.438C29.0451 21.3264 28.4585 21.3368 28.1419 21.2397C27.9298 21.1747 27.7686 21.0734 27.6181 20.9136C27.1933 20.4625 26.2889 18.8909 27.1169 18.4878C27.9603 18.0773 28.3823 19.2508 28.9067 19.5354C29.2383 19.7154 29.7683 19.767 30.1403 19.7442C30.8854 16.5731 30.6048 13.1297 29.3753 10.1194C27.8639 6.41885 24.8614 3.46365 21.1204 2.04521C20.6766 1.87692 19.3185 1.38094 18.9165 1.47439C17.6738 1.7633 16.3025 3.20894 15.2628 3.94942C14.4577 4.52276 13.2942 4.85839 13.4569 6.08501C13.5445 6.74478 14.4476 5.93794 14.8823 6.0461C15.5605 6.21482 15.4143 6.88164 15.6628 7.12209C15.9078 7.35914 16.5975 6.65959 16.7485 6.4641C17.1407 5.9562 16.8163 5.71173 16.9142 5.24268C17.0456 4.61344 18.4962 3.4351 19.1203 3.41948C19.6408 3.40646 20.088 3.89415 19.7017 4.36199C19.4938 4.61373 19.1336 4.65298 18.9426 4.98975C18.6239 5.55161 18.9468 5.59099 19.4336 5.57005C19.8288 5.55304 21.4545 5.12001 21.0754 6.04898C20.8015 6.72017 19.0164 6.74549 18.7607 7.35787C18.638 7.65157 18.7085 7.93492 18.4893 8.24965C18.0687 8.85344 17.626 8.73434 17.0163 8.78979C16.2586 8.85867 15.3877 9.12464 14.7774 8.52244L14.4434 7.84986ZM16.3447 7.98407H17.3737C17.4858 7.98407 17.7813 7.79662 17.8381 7.68791C17.9833 7.40965 17.8876 7.04296 18.1371 6.68956C18.2041 6.59461 18.4459 6.41536 18.465 6.34218C18.4933 6.23392 18.2138 6.02045 18.1328 5.88285C18.0149 5.68249 17.994 5.46448 17.9105 5.25465C17.7006 5.58523 17.8712 5.90856 17.7862 6.29404C17.6256 7.02236 16.9028 7.56338 16.3225 7.96181L16.3447 7.98407ZM10.4171 7.55907C10.3801 7.28598 10.4171 6.86817 10.4171 6.57485C10.4171 6.36338 9.96808 6.55123 9.9002 6.77383C9.8105 7.06798 9.96072 7.45832 9.925 7.78297C9.81677 8.76675 8.46872 8.38649 8.62756 9.41586C9.31571 9.45014 9.34178 8.22701 10.0789 8.34449C10.5151 8.41401 10.4975 9.05352 10.4501 9.38164C10.414 9.63227 10.2605 9.84744 10.1936 10.0865C10.6366 9.96233 11.0508 9.78226 11.4436 9.54611C11.2516 8.85374 10.5157 8.28921 10.4171 7.55907ZM15.5169 15.3655L13.9061 13.6862C13.8088 13.6247 13.5562 13.805 13.4378 13.8456C13.3184 13.8865 12.7846 14.0077 12.7536 14.0336C12.731 14.0525 12.6511 14.3712 12.5642 14.4931C12.3693 14.7662 11.9807 14.9582 11.7844 15.2343C11.5957 15.4997 11.5219 15.8842 11.3128 16.1491C12.1658 15.9022 13.0804 15.7858 13.973 15.8585C14.4534 15.8977 15.112 16.096 15.114 16.6853C15.1149 16.9474 14.9168 17.1087 15.1792 17.3367C15.3381 17.4748 15.6514 17.5221 15.8612 17.6388C16.1495 17.7991 16.7555 18.406 17.0583 18.3643C17.2501 18.3378 17.3764 17.7893 17.5767 17.6267C18.2381 17.0898 19.2666 17.8644 19.9798 17.9939C20.5148 18.091 21.3423 18.0675 21.8872 18.0002C22.2769 17.9521 22.5254 17.7308 22.6277 17.3539C22.6571 17.2457 22.7463 16.8963 22.6015 16.8475C22.4665 16.802 21.7374 16.9806 21.4912 16.9771C20.8543 16.968 20.0711 16.6962 19.7896 16.0814C19.6422 15.7593 19.7024 15.4773 19.6324 15.1423C19.5665 15.15 19.5263 15.3026 19.5117 15.3564C19.4064 15.7435 19.5257 16.2788 19.1117 16.5221C18.3333 16.9796 17.562 15.874 17.3956 15.2316C17.1762 15.4163 16.9413 15.6514 16.7697 15.8802C16.6468 16.0441 16.5992 16.3073 16.4081 16.4134C16.1811 16.5394 15.7805 16.5086 15.5375 16.4415C14.9895 16.2903 14.83 15.4025 15.5169 15.3655ZM27.9085 19.7056C27.8815 19.6816 27.7912 19.6944 27.8204 19.7715C27.8491 19.8473 28.1906 20.2556 28.2694 20.307C28.4285 20.4108 28.6176 20.4362 28.8038 20.4206L28.2896 20.1526C28.1788 20.0391 28.062 19.9311 27.9529 19.816C27.9197 19.7811 27.9146 19.7111 27.9085 19.7056ZM22.8698 20.7625L22.8441 20.8112C23.3999 21.6999 23.7678 22.9976 24.4208 23.7977C24.5123 23.9098 24.682 24.0965 24.8222 24.134C24.9031 24.0456 24.2552 22.7763 24.1427 22.5995C23.948 22.2936 23.6941 22.0302 23.4886 21.7325C23.2707 21.4168 23.0938 21.0725 22.8698 20.7625ZM28.0433 24.4029C28.023 24.3831 27.5824 24.5788 27.5191 24.6166C27.4932 24.6321 27.4303 24.6186 27.4623 24.6928C27.4702 24.711 27.745 24.9608 27.7743 24.9392L28.0433 24.4029ZM25.9409 25.0741C25.7717 25.0847 25.6038 25.0512 25.4492 24.9842C25.4396 25.3526 25.7632 25.2808 25.9409 25.0741Z" fill="#040E0B"/>
<path d="M14.4429 7.84997L14.7769 8.52256C15.3873 9.12475 16.2582 8.85879 17.0158 8.7899C17.6255 8.73446 18.0682 8.85355 18.4888 8.24976C18.7081 7.93503 18.6375 7.65168 18.7602 7.35798C19.016 6.7456 20.801 6.72028 21.0749 6.0491C21.454 5.12013 19.8284 5.55316 19.4331 5.57017C18.9464 5.59111 18.6234 5.55172 18.9421 4.98987C19.1331 4.6531 19.4933 4.61385 19.7012 4.3621C20.0875 3.89427 19.6403 3.40658 19.1198 3.4196C18.4958 3.43521 17.0451 4.61355 16.9137 5.24279C16.8158 5.71185 17.1402 5.95631 16.748 6.46421C16.597 6.65971 15.9073 7.35926 15.6623 7.12221C15.4138 6.88176 15.56 6.21494 14.8818 6.04621C14.4471 5.93806 13.544 6.74489 13.4565 6.08513C13.2937 4.85851 14.4572 4.52287 15.2623 3.94954C16.302 3.20905 17.6733 1.76341 18.916 1.47451C19.318 1.38106 20.6761 1.87703 21.12 2.04533C24.8609 3.46377 27.8634 6.41897 29.3748 10.1196C30.6043 13.1298 30.885 16.5732 30.1398 19.7443C29.7678 19.7672 29.2378 19.7155 28.9063 19.5356C28.3818 19.2509 27.9598 18.0774 27.1165 18.4879C26.2884 18.891 27.1928 20.4626 27.6176 20.9137C27.7682 21.0735 27.9293 21.1748 28.1415 21.2398C28.458 21.3369 29.0446 21.3265 29.2853 21.4381C29.632 21.5987 29.3808 22.0168 29.2586 22.2407C28.8274 23.0305 27.4612 23.7931 26.6118 24.0676C26.4936 24.1058 26.0534 24.2257 25.9594 24.2201C25.6744 24.203 25.3793 23.1359 25.2565 22.8722C24.9205 22.1509 24.4858 21.7297 24.07 21.106C23.7568 20.6364 23.126 19.1715 22.56 19.082C21.2398 18.8733 21.9223 20.7143 22.1743 21.3465C22.5106 22.1902 23.371 24.0289 23.9927 24.6281C24.1394 24.7695 24.3661 24.8489 24.4843 25.0312C24.7188 25.3929 24.6 25.7488 25.1209 26.0051C25.4449 26.1646 25.6462 26.1099 25.9745 26.025C26.1595 25.9771 26.8452 25.6543 26.9046 25.6552C27.2221 25.66 26.6781 26.2309 26.5897 26.3271C24.4034 28.7045 20.8192 30.5236 17.5965 30.8445C17.3442 30.8696 16.399 30.948 16.2331 30.8646C16.1181 30.8068 15.7453 30.1364 15.6047 29.9739C15.3726 29.7053 14.8344 29.4257 14.8436 29.0354C14.8471 28.8851 14.942 28.687 14.9676 28.5288C15.0883 27.7847 14.7879 27.0952 13.9684 27.0023C13.796 26.9828 13.545 27.0317 13.4006 26.9885C13.3324 26.9681 13.1046 26.7419 12.9528 26.6758C11.9749 26.2496 11.6388 26.8808 10.8809 26.9469C10.6898 26.9636 10.5375 26.9049 10.399 26.9125C10.0431 26.9319 9.39291 27.077 9.07189 26.9777C8.94583 26.9387 8.18213 26.3214 8.06733 26.1928C7.88761 25.9915 7.75376 25.7283 7.57629 25.5207C7.30817 25.207 6.78487 24.8926 6.75176 24.4637C6.7238 24.1015 6.92648 23.6637 6.93072 23.3065C6.93707 22.7721 6.63732 22.3748 6.70809 21.7456C6.85093 20.4755 7.86608 20.2857 8.38689 19.398C8.70281 18.8596 8.69979 18.2253 9.16184 17.7572C9.68602 17.2261 10.1711 17.4594 10.8113 17.304C11.1507 17.2216 11.4124 17.0368 11.7348 16.9301C12.5023 16.6761 13.3783 16.6622 14.1745 16.7527V17.4014C14.1745 17.4832 14.3807 17.8102 14.4504 17.886C14.7643 18.2279 15.1783 18.2317 15.5475 18.4441C16.1497 18.7906 16.546 19.4875 17.4076 19.2029C17.9566 19.0216 17.8751 18.5538 18.1071 18.3477C18.2717 18.2015 19.2743 18.7191 19.5427 18.7885C20.1812 18.9536 21.769 18.9752 22.3855 18.7676C23.7051 18.3231 24.011 15.9946 22.6521 15.9566C22.1152 15.9416 21.1748 16.3279 20.7106 15.8758C20.4444 15.6165 20.5579 15.3083 20.5217 14.9911C20.3784 13.7367 19.2362 13.9424 18.8055 14.8745L18.5817 15.5891C18.1777 15.2233 18.2172 14.6229 17.9986 14.1588C17.718 13.5628 17.0741 13.2033 16.5897 12.7941C16.316 12.5629 16.0096 12.0944 15.6292 12.054C15.12 12 14.9295 12.4131 15 12.8629C15.1312 13.7001 16.0255 14.181 16.5444 14.7619C16.4998 14.7967 16.4285 14.907 16.3828 14.9151C16.3078 14.9285 15.9731 14.4939 15.8752 14.4033C15.6368 14.1831 15.2943 14.0007 15.0674 13.7795C14.6529 13.3754 14.391 12.6042 13.6622 12.7289C13.4798 12.7601 13.3502 12.9421 13.1908 13.0176C12.8089 13.1987 12.0581 13.164 11.9138 13.6644C11.8791 13.7849 11.9117 13.9315 11.8507 14.0373C11.8148 14.0994 11.2708 14.4968 11.1334 14.6735C10.679 15.2576 10.8461 15.7454 9.91559 16.0057C9.65318 16.079 8.96039 16.1229 8.75986 15.9265C8.687 15.8551 8.68915 14.1424 8.6925 13.8878C9.32831 13.6118 10.0981 14.1144 10.686 13.6445C11.1467 13.2763 11.2108 12.5823 10.8834 12.103L10.4169 11.7427C10.9032 11.4716 11.4861 11.2004 11.9139 10.846C12.3587 10.4777 12.6668 9.91691 13.131 9.60256C13.499 9.35341 14.0361 9.22353 14.3087 8.85654C14.3336 8.82302 14.4429 8.64592 14.4429 8.63288L14.4429 7.84997Z" fill="#167A3C"/>
<path d="M17.2619 1.13956C17.3145 1.18241 17.0952 1.37693 17.0598 1.40678C16.7886 1.6357 16.4085 1.81167 16.1222 2.03499C15.7914 2.29312 15.5077 2.61758 15.1806 2.88285C14.5406 3.40189 13.266 4.02711 12.8995 4.67283C12.3785 5.59066 12.3795 6.9709 13.5925 7.27053C13.5406 7.50002 13.5443 7.7294 13.5471 7.96359C13.549 8.13281 13.6693 8.28331 13.5288 8.43399C13.4373 8.5321 12.8992 8.74565 12.73 8.84284C12.6438 8.89238 12.34 9.13914 12.315 9.14496C12.2876 9.15135 12.2672 9.15225 12.2502 9.12665C12.0573 8.60352 11.5013 8.088 11.3357 7.58028C11.1501 7.01136 11.544 6.59921 11.0666 6.01516C10.4061 5.20729 9.19783 5.73869 9.04102 6.67492C9.00134 6.91185 9.10247 7.57092 9.05318 7.67123C9.00243 7.7745 8.38884 8.00968 8.22866 8.14416C7.50574 8.75106 7.64116 10.299 8.6954 10.3141C8.79378 10.3155 9.12404 10.2295 9.16315 10.2674C9.17088 10.2749 9.1734 10.4207 9.19537 10.4806C9.28059 10.7125 9.43829 10.8945 9.70153 10.8925C9.35138 11.2061 9.06797 11.699 9.43251 12.1229C9.59782 12.3152 10.5159 12.6855 10.1754 12.9543C9.92678 13.1506 8.8105 12.7074 8.20302 13.1738C7.65747 13.5927 7.86345 14.1118 7.86945 14.6702C7.87825 15.4903 7.59582 16.4573 8.59124 16.7668C8.67966 16.7943 8.93701 16.7679 8.89588 16.8639C8.69686 17.0996 8.39976 17.2855 8.23251 17.5428C7.92755 18.012 7.90226 18.6391 7.57265 19.0751C7.31504 19.4159 6.89959 19.6318 6.6135 19.9502C6.16313 20.4513 5.81563 21.3847 5.80782 22.0562C5.80381 22.4012 6.00035 22.7484 6.03273 23.0833C6.10997 23.8825 5.63613 24.4628 6.12992 25.2677C6.34396 25.6166 6.6925 25.8128 6.95074 26.1022C7.50458 26.7227 7.79952 27.229 8.54117 27.7328C9.12296 28.1281 9.35057 27.8623 9.90251 27.8024C10.3891 27.7496 10.8406 27.8591 11.3488 27.7276C11.549 27.6758 11.8234 27.4852 11.9708 27.4548C12.0434 27.4399 12.4318 27.3977 12.4954 27.4016C12.689 27.4134 12.8591 27.7463 13.1008 27.8258C13.3404 27.9047 13.9425 27.8558 14.0416 27.9141C14.2677 28.047 14.0154 28.652 13.9968 28.8544C13.9583 29.2729 14.0553 29.5995 14.3105 29.9267C14.5098 30.1821 15.0763 30.5488 15.1588 30.8234C15.1919 30.9333 14.9394 30.8934 14.8691 30.8892C5.31494 30.3136 -1.3665 19.7562 1.92858 10.7915C4.20371 4.60175 10.6905 0.580908 17.2619 1.13956Z" fill="#1E8ACB"/>
<path d="M15.5166 15.3658C14.8297 15.4028 14.9892 16.2906 15.5372 16.4418C15.7802 16.5089 16.1809 16.5397 16.4079 16.4137C16.599 16.3076 16.6465 16.0444 16.7695 15.8805C16.941 15.6517 17.176 15.4166 17.3953 15.2319C17.5618 15.8743 18.333 16.9799 19.1114 16.5224C19.5254 16.2791 19.4062 15.7438 19.5114 15.3567C19.5261 15.3029 19.5662 15.1503 19.6322 15.1426C19.7021 15.4776 19.642 15.7596 19.7894 16.0817C20.0709 16.6965 20.8541 16.9683 21.4909 16.9774C21.7372 16.9809 22.4662 16.8023 22.6012 16.8478C22.746 16.8966 22.6569 17.246 22.6275 17.3542C22.5251 17.7311 22.2766 17.9524 21.8869 18.0005C21.3421 18.0678 20.5145 18.0913 19.9795 17.9942C19.2663 17.8647 18.2378 17.0901 17.5765 17.627C17.3761 17.7896 17.2498 18.3381 17.0581 18.3646C16.7553 18.4063 16.1493 17.7994 15.8609 17.6391C15.6511 17.5224 15.3378 17.4751 15.1789 17.337C14.9165 17.109 15.1147 16.9477 15.1138 16.6856C15.1117 16.0963 14.4532 15.898 13.9727 15.8588C13.0802 15.7861 12.1655 15.9025 11.3125 16.1494C11.5217 15.8845 11.5955 15.5 11.7841 15.2346C11.9804 14.9585 12.3691 14.7665 12.5639 14.4934C12.6509 14.3715 12.7307 14.0528 12.7534 14.0339C12.7844 14.008 13.3182 13.8868 13.4375 13.8459C13.5559 13.8053 13.8085 13.625 13.9058 13.6865L15.5166 15.3658Z" fill="#1E8ACB"/>
<path d="M10.4167 7.55905C10.5154 8.28918 11.2513 8.85372 11.4433 9.54609C11.0505 9.78224 10.6363 9.96231 10.1933 10.0865C10.2601 9.84742 10.4137 9.63225 10.4498 9.38162C10.4972 9.0535 10.5148 8.41399 10.0786 8.34447C9.34146 8.22699 9.3154 9.45012 8.62725 9.41584C8.46841 8.38647 9.81645 8.76673 9.92469 7.78295C9.96041 7.4583 9.81019 7.06796 9.89989 6.77381C9.96777 6.55121 10.4167 6.36336 10.4167 6.57483C10.4167 6.86815 10.3798 7.28597 10.4167 7.55905Z" fill="#167A3C"/>
<path d="M22.8695 20.7627C23.0934 21.0727 23.2703 21.417 23.4883 21.7327C23.6938 22.0304 23.9477 22.2938 24.1423 22.5997C24.2549 22.7765 24.9028 24.0458 24.8219 24.1342C24.6817 24.0967 24.512 23.91 24.4204 23.7979C23.7674 22.9978 23.3995 21.7001 22.8438 20.8114L22.8695 20.7627Z" fill="#1E8ACB"/>
<path d="M28.043 24.4028L27.774 24.9391C27.7447 24.9607 27.4699 24.711 27.462 24.6927C27.43 24.6185 27.4929 24.632 27.5188 24.6165C27.5821 24.5787 28.0227 24.383 28.043 24.4028Z" fill="#1E8ACB"/>
<path d="M27.9083 19.7058C27.9144 19.7112 27.9195 19.7812 27.9527 19.8162C28.0618 19.9313 28.1786 20.0393 28.2894 20.1528L28.8036 20.4207C28.6174 20.4364 28.4283 20.411 28.2692 20.3072C28.1904 20.2557 27.8489 19.8475 27.8202 19.7717C27.791 19.6946 27.8813 19.6817 27.9083 19.7058Z" fill="#1E8ACB"/>
<path d="M25.9411 25.0743C25.7634 25.281 25.4398 25.3527 25.4494 24.9844C25.604 25.0514 25.772 25.0848 25.9411 25.0743Z" fill="#1E8ACB"/>
<path d="M16.3445 7.98431L16.3223 7.96204C16.9026 7.56361 17.6254 7.02259 17.786 6.29427C17.871 5.90878 17.7004 5.58546 17.9103 5.25488C17.9938 5.46471 18.0147 5.68272 18.1326 5.88307C18.2136 6.02068 18.4931 6.23415 18.4648 6.34241C18.4457 6.4156 18.2039 6.59484 18.1369 6.68978C17.8874 7.04319 17.9831 7.40988 17.8379 7.68814C17.7811 7.79685 17.4856 7.9843 17.3735 7.9843L16.3445 7.98431Z" fill="#1E8ACB"/>
</g>
<defs>
<clipPath id="clip0_14885_51426">
<rect width="31.6675" height="32" fill="white"/>
</clipPath>
</defs>
</svg>
