<svg width="97" height="97" viewBox="0 0 97 97" fill="none" xmlns="http://www.w3.org/2000/svg">
<g clip-path="url(#clip0_12591_1343)">
<path d="M48.21 0.144043C21.174 0.144043 0.209961 19.956 0.209961 46.704C0.209961 60.696 5.94596 72.792 15.282 81.144C16.062 81.84 16.542 82.824 16.566 83.88L16.83 92.424C16.8492 93.0527 17.0225 93.667 17.3348 94.213C17.647 94.759 18.0886 95.2199 18.6206 95.5552C19.1527 95.8906 19.759 96.0901 20.3863 96.1363C21.0135 96.1825 21.6425 96.0739 22.218 95.82L31.746 91.62C32.55 91.26 33.462 91.2001 34.314 91.428C38.694 92.6281 43.35 93.276 48.21 93.276C75.246 93.276 96.21 73.464 96.21 46.716C96.21 19.968 75.246 0.144043 48.21 0.144043Z" fill="url(#paint0_radial_12591_1343)"/>
<path d="M19.386 60.3239L33.486 37.9559C34.0164 37.1138 34.7157 36.3908 35.5396 35.8325C36.3636 35.2742 37.2943 34.8928 38.2731 34.7124C39.2519 34.532 40.2574 34.5565 41.2262 34.7843C42.1951 35.0121 43.1062 35.4383 43.902 36.0359L55.122 44.4479C55.6229 44.8229 56.2323 45.0246 56.858 45.0224C57.4837 45.0203 58.0917 44.8144 58.59 44.4359L73.734 32.9399C75.75 31.4039 78.39 33.8279 77.046 35.9759L62.934 58.3319C62.4036 59.1741 61.7043 59.8971 60.8804 60.4554C60.0564 61.0136 59.1257 61.395 58.1469 61.5754C57.1682 61.7559 56.1626 61.7314 55.1938 61.5036C54.2249 61.2758 53.3138 60.8496 52.518 60.2519L41.298 51.8399C40.7971 51.4649 40.1877 51.2632 39.562 51.2654C38.9363 51.2676 38.3283 51.4735 37.83 51.8519L22.686 63.3479C20.67 64.8839 18.03 62.4719 19.386 60.3239Z" fill="white"/>
</g>
<defs>
<radialGradient id="paint0_radial_12591_1343" cx="0" cy="0" r="1" gradientUnits="userSpaceOnUse" gradientTransform="translate(16.29 96.144) scale(105.6 105.6)">
<stop stop-color="#0099FF"/>
<stop offset="0.6" stop-color="#A033FF"/>
<stop offset="0.9" stop-color="#FF5280"/>
<stop offset="1" stop-color="#FF7061"/>
</radialGradient>
<clipPath id="clip0_12591_1343">
<rect width="96" height="96" fill="white" transform="translate(0.209961 0.144043)"/>
</clipPath>
</defs>
</svg>
