<svg width="96" height="97" viewBox="0 0 96 97" fill="none" xmlns="http://www.w3.org/2000/svg">
<g clip-path="url(#clip0_12587_8608)">
<path d="M74.8571 0.927246H21.1429C9.46598 0.927246 0 10.3932 0 22.0701V75.7844C0 87.4613 9.46598 96.9273 21.1429 96.9273H74.8571C86.534 96.9273 96 87.4613 96 75.7844V22.0701C96 10.3932 86.534 0.927246 74.8571 0.927246Z" fill="url(#paint0_linear_12587_8608)"/>
<path d="M47.9999 17.5459C38.6548 17.546 29.6925 20.6381 23.0845 26.1421C16.4766 31.6461 12.7642 39.1111 12.7642 46.8949C12.7727 51.9579 14.3535 56.9329 17.353 61.3365C20.3526 65.7401 24.6688 69.4226 29.8822 72.0259C28.4936 75.1344 26.4111 78.0494 23.7209 80.6501C28.9379 79.7343 33.8352 77.8104 38.0317 75.0282C41.2673 75.829 44.6244 76.2384 47.9999 76.2439C57.345 76.2438 66.3073 73.1517 72.9153 67.6477C79.5233 62.1437 83.2356 54.6787 83.2357 46.8949C83.2356 39.1111 79.5233 31.6461 72.9153 26.1421C66.3073 20.6381 57.345 17.546 47.9999 17.5459Z" fill="white"/>
</g>
<defs>
<linearGradient id="paint0_linear_12587_8608" x1="48.7619" y1="90.5547" x2="48.7619" y2="12.8413" gradientUnits="userSpaceOnUse">
<stop stop-color="#0CBD2A"/>
<stop offset="1" stop-color="#5BF675"/>
</linearGradient>
<clipPath id="clip0_12587_8608">
<rect width="96" height="96" fill="white" transform="translate(0 0.927246)"/>
</clipPath>
</defs>
</svg>
