<svg width="32" height="32" viewBox="0 0 32 32" fill="none" xmlns="http://www.w3.org/2000/svg">
<path d="M15.1198 0.0246149C22.7774 -0.375454 29.1479 4.1299 31.3094 11.448C33.9009 20.2221 29.0597 29.0289 20.2874 31.4317C11.8187 33.7513 2.89609 28.7587 0.590415 20.3083C-2.12345 10.3618 4.82661 0.562389 15.1198 0.0246149Z" fill="#070A08"/>
<path d="M15.806 30.9025C18.7316 30.8676 21.5634 30.1454 24.039 28.5896C30.5201 24.5167 32.602 16.4944 29.3787 9.58449C27.4831 5.5208 24.0317 2.46239 19.6004 1.4784C18.4648 1.22624 16.5048 0.907003 15.3752 1.04762C15.2919 1.05798 15.2184 1.07229 15.1921 1.16074C15.3448 2.31969 15.0524 3.17381 14.0413 3.77857C13.6746 3.99787 13.2775 4.09252 12.9215 4.28459C12.5226 4.49977 12.4002 4.67133 12.2951 5.10341C12.1858 5.55271 12.1926 5.82221 11.8761 6.21998C11.6211 6.54041 11.2569 6.67015 11.2894 7.16803C11.3183 7.60909 11.4939 7.81539 11.369 8.33225C11.1377 9.28921 9.66932 9.38675 9.28441 8.54248C9.1994 8.35603 9.10657 7.67777 8.91901 7.64351C8.45389 7.55853 7.50946 7.68765 7.20576 8.0982C6.9132 8.49368 6.88092 9.59862 7.20974 9.98819C7.40375 10.045 7.8392 9.37516 8.1991 9.31765C8.61871 9.25059 9.09618 9.46934 9.29057 9.84617C9.53359 10.3173 9.10121 10.7236 9.18736 10.8953C9.26865 11.0573 9.90445 10.9877 10.1804 11.3951C10.501 11.8684 10.1658 12.945 11.0391 13.02C11.9509 13.0983 12.2744 12.0987 13.1627 12.0227C14.0968 11.9428 14.2404 12.4149 14.8922 12.5094C15.7826 12.6385 16.439 12.3846 17.252 13.04C17.622 13.3383 17.8586 13.9534 18.2804 14.089C19.021 14.3271 19.9182 14.3079 20.2858 15.1999C20.3538 15.365 20.4165 15.9423 20.4571 15.977C20.5194 16.0303 21.0239 16.1295 21.1596 16.1777C21.8302 16.4156 21.9985 16.5095 22.7263 16.6434C23.9481 16.8681 25.3354 17.8516 24.8286 19.2627C24.5695 19.9841 23.7811 20.3737 23.5514 21.1018C23.3246 21.8205 23.3492 22.4734 22.8891 23.1493C22.3925 23.8788 21.8931 23.8512 21.1682 24.1381C20.4907 24.4062 20.6431 24.5644 20.3895 25.1207C20.0548 25.8549 19.1554 26.9874 18.3909 27.2404C18.3253 27.2621 18.0389 27.2748 18.0227 27.2927C18.0107 27.3058 18.0213 27.4493 17.9983 27.5164C17.7604 28.2112 17.3209 28.1958 16.7555 28.4418C16.2032 28.6821 16.4395 28.8609 16.2208 29.3071C16.1356 29.481 15.8408 29.721 15.8157 29.805C15.7602 29.9912 15.8557 30.2292 15.8549 30.4289C15.8543 30.5889 15.7856 30.7404 15.806 30.9025Z" fill="#070A08"/>
<path d="M14.1355 2.02073C14.1627 1.81685 14.1355 1.51669 14.1355 1.29813C14.1355 1.15821 13.6001 1.2811 13.5021 1.29704C10.483 1.78813 7.79589 3.17657 5.55392 5.22665C5.35558 5.40801 4.44331 6.2874 4.39142 6.45776C4.30299 6.74804 4.3021 7.65375 4.35532 7.96205C4.41188 8.28967 4.68518 8.6306 4.7875 8.97507C4.99345 9.66833 4.79228 10.3678 5.44274 10.8941C5.87649 11.245 6.41644 11.2128 6.89551 11.4285C7.09526 11.5184 7.25704 11.678 7.45053 11.7767C7.85476 11.9829 8.39844 12.1228 8.68934 12.4799C8.96802 12.822 9.02254 13.3272 9.34721 13.6285C9.57421 13.8392 10.1534 14.149 10.3869 13.8313C9.75857 13.6266 9.47143 13.0631 9.35287 12.4486C9.32379 12.2979 9.39454 12.1119 9.27927 11.9803C9.11555 11.7934 8.45455 11.8725 8.24504 11.5242C8.09675 11.2776 8.19318 10.8115 8.21891 10.5341L7.75389 10.9041C6.85212 11.2831 6.0943 10.531 6.00662 9.65278C5.84657 8.04952 6.2072 6.94449 7.93138 6.70085C8.41284 6.63282 9.32051 6.54874 9.68254 6.92528C9.97616 7.23068 9.95672 7.85003 10.206 8.11796C10.3533 8.27622 10.4299 8.04075 10.4334 7.89352C10.4387 7.67293 10.2797 7.31937 10.2571 7.0736C10.1645 6.06315 10.9747 6.04979 11.2135 5.28601C11.3935 4.71008 11.3281 4.32385 11.7859 3.82618C12.4218 3.13497 13.9928 3.08717 14.1355 2.02073Z" fill="#070A08"/>
<path d="M10.748 14.9602H10.0932C9.45799 14.9602 8.63073 14.4465 8.29059 13.9175C8.15899 13.7129 8.10441 13.4596 7.98581 13.2739C7.78516 12.9598 7.21637 12.793 6.87887 12.6195C6.72158 12.5386 6.57111 12.3844 6.41244 12.3182C6.11057 12.1922 5.7387 12.163 5.40267 12.0182C4.67365 11.7041 4.10236 11.0621 3.94093 10.2734C3.87521 9.95229 3.90424 9.62954 3.81433 9.31611C3.73948 9.05518 3.47463 8.58267 3.34572 8.2941C3.32184 8.24063 3.36654 8.21277 3.25188 8.23133C1.28829 11.4774 0.643802 15.4961 1.45855 19.2141C2.57472 24.3076 6.4294 28.49 11.3568 30.1357C12.037 30.3629 12.7447 30.5537 13.4576 30.6314C13.3563 30.2294 13.2318 29.8606 13.1874 29.4343C13.1664 29.2323 13.2047 29.0131 13.182 28.8073C13.1142 28.1913 12.8557 27.8073 12.927 27.0977C13.0205 26.1673 13.0222 25.4428 13.0494 24.5102C13.0648 23.9863 13.3343 22.6899 12.9575 22.3026C12.8017 22.1425 12.2959 21.948 12.0698 21.7902C11.3908 21.3164 11.4041 20.9346 11.011 20.32C10.6988 19.8319 10.3159 19.6591 10.0814 19.0366C9.89949 18.5538 9.97877 18.3402 9.9347 17.8736C9.86381 17.1229 9.65475 17.0126 10.0459 16.2227C10.2628 15.7848 10.7202 15.4677 10.748 14.9602Z" fill="#070A08"/>
<path d="M14.8581 30.3153C14.8561 29.9116 14.7231 29.6455 14.9741 29.2793C15.0756 29.1313 15.2802 29.0194 15.3642 28.8565C15.4534 28.6837 15.4486 28.4678 15.5144 28.284C15.7513 27.6219 16.236 27.6952 16.7672 27.4593C17.3792 27.1875 17.0684 27.1122 17.172 26.5996C17.2763 26.0831 17.8159 26.3032 18.1749 26.2476C18.451 26.2049 19.0172 25.5563 19.1863 25.3171C19.784 24.4719 19.5579 23.7345 20.7302 23.248C21.6437 22.8688 21.9933 23.1588 22.3561 22.0286C22.5814 21.3267 22.5941 20.595 23.0593 19.9768C23.487 19.4083 24.4701 18.8436 23.6204 18.0981C22.9883 17.5436 22.5419 17.7294 21.8384 17.5316C21.4513 17.4228 21.0749 17.1642 20.694 17.0502C20.1953 16.9008 19.5701 17.0901 19.3876 16.5051C19.2748 16.1437 19.5008 15.7158 19.2637 15.4546C18.9353 15.0928 18.0226 15.1498 17.5529 14.8621C16.9718 14.5061 16.9113 13.8044 16.2042 13.5914C15.6805 13.4336 15.1163 13.5678 14.5501 13.439C14.2051 13.3605 13.6475 13.0075 13.3921 13.0158C12.9525 13.03 12.5076 13.6402 12.089 13.839C12.0001 13.8812 11.5822 13.9938 11.5672 14.017C11.4977 14.1249 11.7498 14.5923 11.7755 14.7684C11.9437 15.9212 10.8359 16.2319 10.835 17.1503C10.8348 17.3502 10.9215 17.5382 10.9308 17.7358C10.9482 18.1074 10.8348 18.2356 10.9726 18.6423C11.1262 19.0956 11.4975 19.3104 11.7525 19.669C11.965 19.9678 12.1073 20.4938 12.3098 20.7375C12.6694 21.1702 13.4493 21.2965 13.7942 21.7822C14.3876 22.6181 14.0464 23.7615 13.9984 24.6905C13.9664 25.3085 14.0484 25.9773 13.9995 26.5885C13.9817 26.8112 13.8898 27.057 13.8704 27.272C13.8241 27.7862 14.0824 28.1739 14.1299 28.6725C14.1913 29.3167 14.0015 30.1514 14.8581 30.3153Z" fill="#070A08"/>
<path d="M15.806 30.9025C15.7856 30.7404 15.8543 30.5889 15.8549 30.4289C15.8557 30.2292 15.7602 29.9912 15.8157 29.805C15.8408 29.721 16.1356 29.481 16.2208 29.3071C16.4395 28.8609 16.2032 28.6821 16.7555 28.4418C17.3209 28.1958 17.7604 28.2112 17.9983 27.5164C18.0213 27.4493 18.0107 27.3058 18.0227 27.2927C18.0389 27.2748 18.3253 27.2621 18.3909 27.2404C19.1554 26.9874 20.0548 25.8549 20.3895 25.1207C20.6431 24.5644 20.4907 24.4062 21.1682 24.1381C21.8931 23.8512 22.3925 23.8788 22.8891 23.1493C23.3492 22.4734 23.3246 21.8205 23.5514 21.1018C23.7811 20.3737 24.5695 19.9841 24.8286 19.2627C25.3354 17.8516 23.9481 16.8681 22.7263 16.6434C21.9985 16.5095 21.8302 16.4156 21.1596 16.1777C21.0239 16.1295 20.5194 16.0303 20.4571 15.977C20.4165 15.9423 20.3538 15.365 20.2858 15.1999C19.9182 14.3079 19.021 14.3271 18.2804 14.089C17.8586 13.9534 17.622 13.3383 17.252 13.04C16.439 12.3846 15.7826 12.6385 14.8922 12.5094C14.2404 12.4149 14.0968 11.9428 13.1627 12.0227C12.2744 12.0987 11.9509 13.0983 11.0391 13.02C10.1658 12.945 10.501 11.8684 10.1804 11.3951C9.90445 10.9877 9.26865 11.0573 9.18736 10.8953C9.1012 10.7236 9.53359 10.3173 9.29057 9.84617C9.09618 9.46934 8.61871 9.25059 8.1991 9.31765C7.8392 9.37516 7.40375 10.045 7.20974 9.98819C6.88092 9.59863 6.9132 8.49368 7.20576 8.0982C7.50946 7.68765 8.45389 7.55853 8.91901 7.64351C9.10657 7.67778 9.1994 8.35603 9.28441 8.54248C9.66932 9.38675 11.1377 9.28921 11.369 8.33225C11.4939 7.81539 11.3183 7.60909 11.2894 7.16803C11.2569 6.67015 11.6212 6.54041 11.8761 6.21998C12.1926 5.82221 12.1858 5.55271 12.2951 5.10341C12.4002 4.67133 12.5226 4.49976 12.9215 4.28459C13.2775 4.09251 13.6746 3.99787 14.0413 3.77857C15.0524 3.17381 15.3448 2.31969 15.1921 1.16074C15.2184 1.07229 15.2919 1.05798 15.3752 1.04762C16.5048 0.907003 18.4648 1.22624 19.6004 1.4784C24.0317 2.46239 27.4831 5.52079 29.3787 9.58449C32.602 16.4944 30.5201 24.5167 24.039 28.5896C21.5634 30.1454 18.7316 30.8676 15.806 30.9025Z" fill="#1E8ACB"/>
<path d="M10.8283 9.14681C10.3815 9.19396 9.202 9.55025 9.57162 10.1979C9.83368 10.6572 10.4202 10.1974 10.7643 10.2211C11.1499 10.2477 11.4755 10.6295 11.945 10.6283C12.5719 10.6266 12.8789 10.0353 12.3166 9.62062C11.9231 9.33033 11.3181 9.09512 10.8283 9.14681Z" fill="#1E8ACB"/>
<path d="M13.4014 9.95756C12.8472 10.0513 12.5601 10.6658 13.1102 10.9948C13.3525 11.1397 14.2335 11.1987 14.5198 11.1664C14.9 11.1234 15.1955 10.8568 14.9235 10.4915C14.6377 10.1077 13.8614 9.87972 13.4014 9.95756Z" fill="#1E8ACB"/>
<path d="M15.6595 10.4989C15.0537 10.6215 15.2547 11.5234 15.9661 11.4855C16.7465 11.4439 16.4397 10.3409 15.6595 10.4989Z" fill="#1E8ACB"/>
<path d="M10.748 14.9602C10.7202 15.4677 10.2628 15.7848 10.0459 16.2227C9.65475 17.0126 9.86381 17.1229 9.9347 17.8736C9.97877 18.3402 9.89949 18.5538 10.0814 19.0366C10.3159 19.6591 10.6988 19.8319 11.011 20.32C11.4041 20.9346 11.3908 21.3164 12.0698 21.7902C12.2959 21.948 12.8017 22.1425 12.9575 22.3026C13.3343 22.6899 13.0648 23.9863 13.0494 24.5102C13.0222 25.4428 13.0205 26.1673 12.927 27.0977C12.8557 27.8073 13.1142 28.1913 13.182 28.8073C13.2047 29.0131 13.1663 29.2323 13.1874 29.4343C13.2318 29.8606 13.3563 30.2294 13.4576 30.6314C12.7447 30.5537 12.037 30.3629 11.3568 30.1357C6.4294 28.49 2.57472 24.3076 1.45855 19.2141C0.643802 15.4961 1.28829 11.4774 3.25188 8.23133C3.36654 8.21277 3.32184 8.24062 3.34572 8.2941C3.47463 8.58267 3.73948 9.05518 3.81433 9.31612C3.90425 9.62953 3.87521 9.95228 3.94093 10.2734C4.10236 11.0621 4.67365 11.7041 5.40267 12.0182C5.7387 12.163 6.11057 12.1922 6.41244 12.3182C6.57111 12.3844 6.72158 12.5386 6.87887 12.6195C7.21637 12.793 7.78516 12.9598 7.98581 13.2739C8.10441 13.4596 8.15899 13.7129 8.29059 13.9175C8.63073 14.4465 9.45799 14.9602 10.0932 14.9602L10.748 14.9602Z" fill="#1E8ACB"/>
<path d="M14.8581 30.3153C14.0015 30.1514 14.1913 29.3167 14.1299 28.6725C14.0824 28.1739 13.8241 27.7862 13.8704 27.272C13.8898 27.057 13.9817 26.8112 13.9995 26.5885C14.0484 25.9773 13.9664 25.3085 13.9984 24.6905C14.0464 23.7615 14.3876 22.6181 13.7942 21.7822C13.4493 21.2965 12.6694 21.1702 12.3098 20.7375C12.1073 20.4938 11.965 19.9678 11.7525 19.669C11.4975 19.3104 11.1262 19.0956 10.9726 18.6423C10.8348 18.2356 10.9482 18.1074 10.9308 17.7358C10.9215 17.5382 10.8348 17.3502 10.835 17.1503C10.8359 16.2319 11.9437 15.9212 11.7755 14.7684C11.7498 14.5923 11.4977 14.1249 11.5672 14.017C11.5822 13.9938 12.0001 13.8812 12.089 13.839C12.5076 13.6402 12.9525 13.03 13.3921 13.0158C13.6475 13.0075 14.2052 13.3605 14.5501 13.439C15.1163 13.5678 15.6805 13.4336 16.2042 13.5914C16.9113 13.8044 16.9718 14.5061 17.5529 14.8621C18.0226 15.1498 18.9354 15.0928 19.2637 15.4546C19.5008 15.7158 19.2748 16.1437 19.3876 16.5051C19.5701 17.0901 20.1953 16.9008 20.694 17.0502C21.0749 17.1642 21.4513 17.4228 21.8384 17.5316C22.5419 17.7294 22.9883 17.5436 23.6204 18.0981C24.4701 18.8436 23.487 19.4083 23.0593 19.9768C22.5941 20.595 22.5814 21.3267 22.3561 22.0286C21.9933 23.1588 21.6437 22.8688 20.7302 23.248C19.5579 23.7345 19.784 24.4719 19.1863 25.3171C19.0171 25.5563 18.451 26.2049 18.1749 26.2476C17.8159 26.3031 17.2763 26.0831 17.172 26.5996C17.0684 27.1122 17.3792 27.1875 16.7672 27.4593C16.236 27.6952 15.7513 27.6219 15.5144 28.284C15.4486 28.4678 15.4534 28.6837 15.3642 28.8565C15.2802 29.0194 15.0756 29.1313 14.9741 29.2793C14.7231 29.6455 14.8561 29.9116 14.8581 30.3153Z" fill="#167A3C"/>
<path d="M14.1355 2.02074C13.9928 3.08718 12.4218 3.13497 11.7859 3.82618C11.3281 4.32385 11.3935 4.71008 11.2135 5.28601C10.9747 6.04979 10.1645 6.06315 10.2571 7.0736C10.2797 7.31937 10.4387 7.67293 10.4334 7.89352C10.4299 8.04075 10.3533 8.27622 10.206 8.11796C9.95671 7.85003 9.97616 7.23068 9.68254 6.92528C9.32051 6.54874 8.41284 6.63281 7.93138 6.70085C6.20721 6.9445 5.84657 8.04952 6.00662 9.65278C6.0943 10.531 6.85212 11.2831 7.75389 10.9041L8.21891 10.5341C8.19318 10.8115 8.09675 11.2776 8.24504 11.5242C8.45455 11.8725 9.11555 11.7934 9.27927 11.9803C9.39453 12.1119 9.32379 12.2979 9.35287 12.4486C9.47143 13.0631 9.75857 13.6266 10.3869 13.8313C10.1534 14.149 9.57421 13.8392 9.34721 13.6285C9.02254 13.3272 8.96802 12.822 8.68934 12.4799C8.39844 12.1228 7.85475 11.9829 7.45053 11.7767C7.25704 11.678 7.09526 11.5184 6.89551 11.4285C6.41644 11.2128 5.87649 11.245 5.44274 10.8941C4.79229 10.3678 4.99345 9.66833 4.7875 8.97507C4.68517 8.6306 4.41188 8.28967 4.35532 7.96205C4.3021 7.65375 4.30299 6.74805 4.39142 6.45776C4.44332 6.2874 5.35558 5.40801 5.55392 5.22665C7.79589 3.17657 10.483 1.78813 13.5021 1.29704C13.6001 1.2811 14.1355 1.15821 14.1355 1.29813C14.1355 1.51669 14.1627 1.81685 14.1355 2.02074Z" fill="#167A3C"/>
<path d="M10.8283 9.14681C11.3181 9.09513 11.9231 9.33033 12.3166 9.62062C12.8789 10.0353 12.5719 10.6266 11.945 10.6283C11.4755 10.6295 11.1499 10.2477 10.7643 10.2211C10.4202 10.1974 9.83368 10.6572 9.57162 10.1979C9.202 9.55026 10.3815 9.19397 10.8283 9.14681Z" fill="#070A08"/>
<path d="M13.4014 9.95756C13.8613 9.87973 14.6377 10.1077 14.9235 10.4915C15.1955 10.8568 14.9 11.1234 14.5198 11.1664C14.2335 11.1987 13.3525 11.1397 13.1102 10.9948C12.5601 10.6658 12.8472 10.0514 13.4014 9.95756Z" fill="#070A08"/>
<path d="M15.6595 10.4989C16.4397 10.341 16.7465 11.4439 15.9661 11.4855C15.2547 11.5234 15.0537 10.6215 15.6595 10.4989Z" fill="#070A08"/>
</svg>
