<svg width="25" height="25" viewBox="0 0 25 25" fill="none" xmlns="http://www.w3.org/2000/svg">
<path fill-rule="evenodd" clip-rule="evenodd" d="M12.5 25C5.59644 25 0 19.4036 0 12.5C0 5.59644 5.59644 0 12.5 0C19.4036 0 25 5.59644 25 12.5C25 19.4036 19.4036 25 12.5 25ZM12.6742 11.7984C13.6977 11.7984 18.6742 9 18.6742 9L18.6822 8.5C18.6822 7.948 18.2342 7.5 17.6807 7.5H7.66767C7.11467 7.5 6.66667 7.948 6.66667 8.5V8.9455C6.66667 8.9455 11.6977 11.7984 12.6742 11.7984ZM6.67467 10.5C6.67417 10.5 11.6977 13.1735 12.6742 13.1735C13.7447 13.1735 18.6742 10.5 18.6742 10.5L18.6822 16.5C18.6822 17.052 18.2342 17.5 17.6807 17.5H7.66767C7.11517 17.5 6.66667 17.052 6.66667 16.5L6.67467 10.5Z" fill="black"/>
</svg>
