<svg width="125" height="34" viewBox="0 0 125 34" fill="none" xmlns="http://www.w3.org/2000/svg">
<path fill-rule="evenodd" clip-rule="evenodd" d="M45.7272 15.412C45.7272 7.03711 35.5276 0.209473 22.9448 0.209473C10.3633 0.209473 0.163731 7.03711 0.163731 15.412C0.163731 15.5485 0.162707 15.8353 0.16192 16.0484C0.161447 16.1743 0.161133 16.2746 0.161133 16.3028C0.161133 25.1878 9.07619 32.3843 22.9423 32.3843C36.8943 32.3843 45.7272 25.1904 45.7272 16.304V15.412ZM44.8551 15.4057C44.8551 23.3019 35.0478 29.7031 22.9495 29.7031C10.8514 29.7031 1.04403 23.3019 1.04403 15.4057C1.04403 7.50821 10.8514 1.10694 22.9495 1.10694C35.0478 1.10694 44.8551 7.50821 44.8551 15.4057Z" fill="black"/>
<path d="M21.2649 25.0798C20.3022 25.0785 19.5188 24.3146 19.483 23.3428C19.4817 23.2591 19.4727 23.0368 19.2894 23.0368C19.2125 23.0368 19.1471 23.0839 19.0714 23.1532C18.8599 23.3533 18.5907 23.5573 18.1971 23.5573C18.0176 23.5573 17.8241 23.5142 17.6203 23.4291C16.6023 23.0093 16.5882 22.2964 16.6292 22.01C16.6408 21.9328 16.6446 21.853 16.5933 21.7915L16.5306 21.7353H16.4677C16.4164 21.7353 16.3626 21.7562 16.2908 21.8085C15.9959 22.0191 15.7139 22.1212 15.4268 22.1212C15.269 22.1212 15.1075 22.0884 14.9447 22.0244C13.6063 21.4934 13.7127 20.2036 13.7781 19.8165C13.787 19.7367 13.7678 19.6765 13.7191 19.636L13.6243 19.5562L13.5357 19.6425C13.2755 19.8989 12.9332 20.0401 12.5756 20.0401C11.8077 20.0389 11.1833 19.4032 11.1846 18.621C11.1846 17.8376 11.8102 17.2031 12.5768 17.2031C13.2704 17.2031 13.8601 17.7355 13.9486 18.4418L13.996 18.8225L14.2011 18.5007C14.2242 18.4628 14.7857 17.5956 15.819 17.5969C16.0152 17.5969 16.2178 17.6282 16.4228 17.6937C17.2459 17.95 17.3857 18.7113 17.4074 19.0291C17.4215 19.2135 17.551 19.2227 17.5766 19.2227C17.6471 19.2227 17.6997 19.1769 17.7369 19.1364C17.892 18.9715 18.2304 18.6968 18.7599 18.6968C19.0022 18.6968 19.2612 18.7557 19.5266 18.8721C20.8355 19.4451 20.2419 21.1415 20.2355 21.1598C20.1227 21.441 20.1176 21.5653 20.224 21.6372L20.2753 21.662H20.3137C20.3727 21.662 20.4458 21.6359 20.5662 21.594C20.7445 21.5312 21.0136 21.437 21.2649 21.437H21.2662C22.2508 21.4489 23.0521 22.2663 23.0521 23.2604C23.0507 24.2636 22.2495 25.0798 21.2649 25.0798ZM35.131 16.9024C32.9696 14.9783 27.9749 10.5482 26.6224 9.51103C25.8494 8.91849 25.3224 8.60458 24.8597 8.46464C24.652 8.40053 24.3636 8.32729 23.993 8.32729C23.6495 8.32729 23.2802 8.39006 22.8943 8.51559C22.02 8.79816 21.1496 9.50449 20.306 10.1872L20.2624 10.2226C19.4778 10.8595 18.6676 11.5174 18.0536 11.6574C17.7856 11.7189 17.51 11.7502 17.2356 11.7502C16.5472 11.7502 15.9305 11.5475 15.6985 11.2467C15.66 11.1956 15.6844 11.1159 15.7741 10.9995L15.787 10.9838L17.6881 8.89361C19.1766 7.37375 20.5829 5.94022 23.8213 5.86438C23.8738 5.86304 23.9289 5.86178 23.9828 5.86178C25.9981 5.86304 28.0121 6.78389 28.2377 6.88982C30.1274 7.83028 32.0787 8.30768 34.0388 8.30894C36.0823 8.31028 38.1912 7.79366 40.4078 6.75247C40.1604 6.54063 39.9027 6.3339 39.6373 6.13119C37.69 6.99188 35.8349 7.42738 34.0452 7.42738C32.2158 7.42479 30.3902 6.97747 28.616 6.09457C28.5223 6.04881 26.2981 4.97888 23.9828 4.97754C23.9225 4.97754 23.861 4.97888 23.8008 4.98022C21.0816 5.04424 19.5496 6.03047 18.5189 6.89375C17.5176 6.91856 16.6523 7.16451 15.8844 7.38423C15.1973 7.5778 14.605 7.74657 14.0268 7.74657C13.7883 7.74657 13.3601 7.72428 13.3217 7.72302C12.6576 7.70208 9.30774 6.86493 6.64376 5.83563C6.37199 6.0318 6.11045 6.23451 5.85529 6.44116C8.63857 7.60529 12.0256 8.5052 13.0948 8.57576C13.3922 8.59671 13.7088 8.63073 14.0255 8.63073C14.7332 8.63073 15.4383 8.42928 16.1216 8.23444C16.5241 8.11797 16.969 7.99244 17.4382 7.90085C17.3126 8.02646 17.1882 8.15333 17.0625 8.2802L15.1318 10.4122C14.9793 10.5692 14.6485 10.9877 14.8665 11.5017C14.9537 11.7097 15.1293 11.9085 15.3754 12.0773C15.8344 12.3938 16.6587 12.607 17.4253 12.6083C17.7151 12.6083 17.9907 12.5782 18.2433 12.5206C19.0522 12.3349 19.9022 11.6443 20.8021 10.9145C21.5188 10.3337 22.5367 9.596 23.3174 9.37888C23.5354 9.31871 23.8033 9.28076 24.0174 9.28076C24.0815 9.28209 24.143 9.28343 24.1994 9.29257C24.7148 9.35793 25.2122 9.53717 26.1019 10.2186C27.6878 11.4337 34.7041 17.6963 34.7733 17.7591C34.7772 17.763 35.2247 18.1554 35.1939 18.8106C35.1772 19.1756 34.9785 19.5 34.6336 19.725C34.3337 19.9185 34.0247 20.0166 33.7132 20.0166C33.244 20.0166 32.9209 19.7917 32.8991 19.7772C32.8734 19.755 30.4697 17.5066 29.5851 16.7506C29.4441 16.6316 29.3069 16.5244 29.1685 16.5244C29.0954 16.5244 29.0301 16.5557 28.9852 16.6133C28.8467 16.7886 29.0018 17.0305 29.1865 17.1901L31.994 20.0689C31.9979 20.0729 32.344 20.4038 32.3811 20.8458C32.4042 21.3232 32.1799 21.7222 31.7145 22.0335C31.3837 22.2558 31.0479 22.3696 30.7197 22.3696C30.2889 22.3696 29.9851 22.1683 29.9185 22.1212L29.5159 21.7157C28.78 20.9767 28.0198 20.2128 27.4634 19.7393C27.3275 19.6242 27.1827 19.5183 27.0442 19.5183C26.9763 19.5183 26.9148 19.5431 26.8673 19.5942C26.8045 19.6661 26.7596 19.7956 26.9185 20.01C26.9826 20.0977 27.0596 20.1709 27.0596 20.1709L29.1095 22.5201C29.1262 22.541 29.5313 23.0328 29.1557 23.522L29.0826 23.6149C29.0223 23.6842 28.9556 23.7483 28.8929 23.8032C28.5429 24.0962 28.0762 24.1276 27.8916 24.1276C27.7929 24.1276 27.6968 24.1184 27.6147 24.1028C27.4122 24.0661 27.2762 24.0086 27.2096 23.9288L27.1852 23.9026C27.0737 23.7849 26.0404 22.7084 25.1853 21.9812C25.0737 21.8844 24.9328 21.7628 24.7879 21.7628C24.7161 21.7628 24.652 21.7915 24.602 21.8477C24.4328 22.0361 24.6866 22.3187 24.7943 22.4233L26.543 24.3892C26.5404 24.4062 26.5185 24.4467 26.4763 24.5095C26.4135 24.5972 26.202 24.8143 25.5674 24.8953C25.4917 24.9058 25.4135 24.9097 25.3353 24.9097C24.6815 24.9097 23.984 24.5854 23.6251 24.3918C23.7892 24.0387 23.8738 23.6502 23.8738 23.2617C23.8738 21.7929 22.7059 20.5986 21.2675 20.5986C21.2367 20.5986 21.2047 20.5986 21.1739 20.6C21.2201 19.9303 21.1278 18.6616 19.8509 18.103C19.483 17.9409 19.1163 17.8584 18.7612 17.8584C18.4817 17.8584 18.2138 17.9069 17.9625 18.005C17.6971 17.4804 17.2587 17.0986 16.6856 16.8997C16.369 16.7886 16.0536 16.731 15.7498 16.731C15.2177 16.731 14.7293 16.8906 14.2922 17.2071C13.8742 16.6774 13.2422 16.3621 12.5768 16.3621C11.9948 16.3621 11.4346 16.6002 11.0205 17.02C10.4756 16.5963 8.31805 15.1967 2.54137 13.8587C2.26187 13.7946 1.6209 13.6063 1.2273 13.4899C1.16193 13.8077 1.11193 14.1307 1.07861 14.4565C1.07861 14.4565 2.1439 14.7167 2.35417 14.7651C8.2552 16.1019 10.2039 17.4922 10.5346 17.7551C10.4218 18.0285 10.3641 18.3228 10.3641 18.621C10.3628 19.8636 11.3551 20.8773 12.5742 20.8786C12.7114 20.8786 12.8474 20.8655 12.9794 20.8407C13.164 21.7562 13.7511 22.4508 14.6473 22.8066C14.9101 22.9085 15.1755 22.9622 15.4357 22.9622C15.6036 22.9622 15.7741 22.9412 15.9395 22.8981C16.1049 23.3271 16.4779 23.8621 17.3112 24.2073C17.6036 24.3277 17.8959 24.3904 18.1792 24.3904C18.4113 24.3904 18.6381 24.3486 18.8548 24.2675C19.2535 25.2603 20.2048 25.9169 21.2637 25.9169C21.9662 25.9182 22.6405 25.6265 23.1328 25.1098C23.5533 25.3493 24.4418 25.7808 25.3391 25.7822C25.4558 25.7822 25.5648 25.773 25.6738 25.7599C26.566 25.6462 26.9801 25.2891 27.1711 25.0131C27.2057 24.9647 27.2365 24.9137 27.2634 24.86C27.4737 24.9228 27.7044 24.9725 27.9698 24.9738C28.457 24.9738 28.9249 24.8038 29.3966 24.4519C29.8607 24.1119 30.1902 23.6214 30.2377 23.2042C30.2389 23.1976 30.2402 23.1924 30.2415 23.1858C30.3967 23.2185 30.5582 23.2355 30.7184 23.2355C31.2197 23.2355 31.712 23.076 32.1837 22.7607C33.0927 22.1539 33.2503 21.3599 33.2362 20.8393C33.394 20.8733 33.5568 20.8903 33.7183 20.8903C34.1888 20.8903 34.6516 20.7465 35.0913 20.46C35.6554 20.0925 35.9939 19.53 36.0451 18.8747C36.081 18.43 35.9733 17.9815 35.7426 17.5956C37.2656 16.9258 40.7462 15.631 44.8447 14.6879C44.8204 14.3635 44.7743 14.0431 44.7179 13.724C39.7591 14.8475 36.058 16.4812 35.131 16.9024Z" fill="black"/>
<path d="M121.319 11.7571C120.921 12.2973 120.35 12.5667 119.604 12.5667C118.859 12.5667 118.285 12.2973 117.883 11.7571C117.481 11.2169 117.281 10.4478 117.281 9.45241C117.281 8.45705 117.481 7.69063 117.883 7.15306C118.285 6.61676 118.859 6.34735 119.604 6.34735C120.35 6.34735 120.921 6.61676 121.319 7.15306C121.718 7.69063 121.92 8.45705 121.92 9.45241C121.92 10.4478 121.718 11.2169 121.319 11.7571ZM123.358 5.72606C122.535 4.67574 121.287 4.1499 119.611 4.1499C117.939 4.1499 116.69 4.67574 115.868 5.72606C115.045 6.77765 114.633 8.01895 114.633 9.45241C114.633 10.9108 115.045 12.1573 115.868 13.1946C116.69 14.2278 117.939 14.7471 119.611 14.7471C121.287 14.7471 122.535 14.2278 123.358 13.1946C124.181 12.1573 124.591 10.9108 124.591 9.45241C124.591 8.01895 124.181 6.77765 123.358 5.72606Z" fill="black"/>
<path d="M101.045 10.5283C101.028 11.4007 100.783 12.0024 100.313 12.3307C99.8423 12.6603 99.3281 12.8264 98.7705 12.8264C98.4185 12.8264 98.1192 12.7257 97.8735 12.5282C97.627 12.3294 97.5057 12.0076 97.5057 11.5616C97.5057 11.0633 97.7058 10.6944 98.1082 10.4551C98.3476 10.3164 98.7374 10.196 99.284 10.1006L99.8659 9.99074C100.155 9.93451 100.383 9.87434 100.55 9.81024C100.72 9.74747 100.882 9.66375 101.045 9.55909V10.5283ZM102.341 4.84644C101.506 4.41614 100.553 4.19775 99.4785 4.19775C97.827 4.19775 96.6615 4.6372 95.9834 5.51482C95.5566 6.07727 95.318 6.79274 95.2621 7.66516H97.7286C97.79 7.28061 97.9105 6.97584 98.0924 6.75092C98.3476 6.44615 98.7799 6.29313 99.3911 6.29313C99.9376 6.29313 100.352 6.36897 100.634 6.52719C100.914 6.68154 101.055 6.96411 101.055 7.3722C101.055 7.70832 100.873 7.95419 100.504 8.11382C100.299 8.20533 99.9589 8.28125 99.4824 8.34268L98.6083 8.45254C97.616 8.57941 96.8607 8.79393 96.3504 9.09343C95.4156 9.64281 94.9502 10.5283 94.9502 11.7552C94.9502 12.6995 95.2392 13.4307 95.8196 13.946C96.3992 14.4614 97.1364 14.6772 98.0263 14.7203C103.604 14.9741 103.541 11.7212 103.593 11.0437V7.29896C103.593 6.09822 103.174 5.28076 102.341 4.84644Z" fill="black"/>
<path d="M89.621 6.42832C90.2596 6.42832 90.7274 6.62977 91.0298 7.03133C91.2377 7.32823 91.3677 7.66435 91.4173 8.03582H94.1697C94.0185 6.6193 93.5326 5.63048 92.712 5.06936C91.889 4.51219 90.8369 4.23096 89.5485 4.23096C88.0317 4.23096 86.8418 4.70576 85.9818 5.65402C85.1202 6.60363 84.6895 7.9299 84.6895 9.63545C84.6895 11.1449 85.0793 12.3757 85.8589 13.3253C86.6378 14.2723 87.8545 14.7471 89.5083 14.7471C91.1637 14.7471 92.412 14.1794 93.2546 13.0414C93.7815 12.3364 94.0776 11.5883 94.1406 10.7982H91.3984C91.3417 11.3201 91.1818 11.7466 90.9164 12.0748C90.6518 12.4019 90.2061 12.5666 89.5753 12.5666C88.6877 12.5666 88.0829 12.1547 87.7608 11.3254C87.5852 10.8846 87.497 10.3 87.497 9.57143C87.497 8.80752 87.5852 8.19538 87.7608 7.73373C88.0955 6.86524 88.7161 6.42832 89.621 6.42832Z" fill="black"/>
<path d="M83.9528 4.23096C78.3007 4.23096 78.6346 9.33729 78.6346 9.33729V14.5234H81.1988V9.659C81.1988 8.86249 81.2972 8.27129 81.4941 7.888C81.8453 7.20789 82.5336 6.8665 83.559 6.8665C83.6362 6.8665 83.737 6.87044 83.863 6.87698C83.9874 6.88217 84.1292 6.89399 84.2922 6.9136V4.25057C84.178 4.24269 84.1055 4.24009 84.0733 4.23616C84.0402 4.23356 84 4.23096 83.9528 4.23096Z" fill="black"/>
<path d="M71.083 6.94108C71.4445 6.56307 71.9509 6.37343 72.6037 6.37343C73.2062 6.37343 73.7086 6.55125 74.115 6.90966C74.5198 7.26546 74.7466 7.78996 74.7931 8.4792H70.4049C70.4955 7.83178 70.7223 7.32036 71.083 6.94108ZM74.53 11.8133C74.4221 11.9702 74.3071 12.1049 74.1788 12.2096C73.8173 12.5143 73.3251 12.6059 72.7455 12.6059C72.1974 12.6059 71.7689 12.5209 71.3807 12.2711C70.7404 11.8708 70.3805 11.192 70.3419 10.194H77.4392C77.4494 9.33595 77.421 8.67939 77.3533 8.2216C77.2352 7.44337 76.9761 6.75664 76.5776 6.16678C76.135 5.49707 75.5727 5.0066 74.8931 4.69529C74.215 4.38532 73.4519 4.23096 72.6037 4.23096C71.1736 4.23096 70.0135 4.69009 69.1189 5.60827C68.2243 6.52779 67.7754 7.84753 67.7754 9.56875C67.7754 11.4078 68.2715 12.7341 69.2638 13.5489C70.2545 14.3638 71.3996 14.7732 72.6959 14.7732C74.2662 14.7732 75.4877 14.2893 76.361 13.3227C76.8312 12.8138 77.1265 12.3103 77.2509 11.8133H74.53Z" fill="black"/>
<path d="M66.7465 14.5217H64.4028V8.50246C64.4028 7.95308 64.2256 6.64516 62.6797 6.64516C61.6488 6.64516 60.9038 7.40378 60.9038 8.50246V14.5217H58.5592V8.50246C58.5592 7.95308 58.399 6.64516 56.8542 6.64516C55.8056 6.64516 55.0773 7.40378 55.0773 8.50246V14.5217H52.7339V8.56003C52.7339 6.07483 54.3492 4.19531 56.8542 4.19531C58.0977 4.19531 59.1092 4.72894 59.7666 5.5831C60.4588 4.72894 61.4889 4.19531 62.6797 4.19531C65.2376 4.19531 66.7465 5.99899 66.7465 8.56003V14.5217Z" fill="black"/>
<path d="M110.794 11.7781C110.419 12.3262 109.869 12.5995 109.149 12.5995C108.426 12.5995 107.889 12.3235 107.536 11.7742C107.182 11.2222 107.005 10.4217 107.005 9.50352C107.005 8.65205 107.178 7.93918 107.527 7.36499C107.874 6.7908 108.42 6.50304 109.167 6.50304C109.655 6.50304 110.084 6.66 110.455 6.97658C111.056 7.49974 111.358 8.43753 111.358 9.65394C111.358 10.5224 111.169 11.2314 110.794 11.7781ZM113.87 1.08807C113.87 1.08807 111.286 0.806845 111.286 2.92443L111.284 5.7274C110.999 5.25914 110.627 4.8916 110.168 4.62872C109.71 4.36451 109.186 4.2311 108.593 4.2311C107.313 4.2311 106.291 4.71771 105.524 5.69078C104.757 6.66393 104.377 8.06605 104.377 9.76254C104.377 11.234 104.765 12.4399 105.543 13.3804C106.321 14.3182 107.846 14.7302 109.2 14.7302C113.923 14.7302 113.867 10.597 113.867 10.597L113.87 1.08807Z" fill="black"/>
<path d="M75.761 24.0503C75.761 23.0641 75.572 22.3054 75.1939 21.7731C74.8175 21.2434 74.2773 20.9752 73.5724 20.9752C72.8951 20.9752 72.3659 21.2434 71.9879 21.7731C71.6383 22.2545 71.4618 23.0157 71.4618 24.0503C71.4618 25.0156 71.6493 25.7336 72.0273 26.215C72.4029 26.7473 72.9456 27.0129 73.648 27.0129C74.3017 27.0129 74.8175 26.7473 75.1939 26.215C75.572 25.6839 75.761 24.9646 75.761 24.0503ZM71.4618 31.1317C71.4618 31.4848 71.3366 31.7896 71.083 32.042C70.8326 32.2957 70.5318 32.4227 70.179 32.4227H68.8984V23.3283C68.8984 21.5599 69.4812 20.4534 70.4428 19.7039C71.0791 19.2095 72.0249 18.7373 73.7992 18.7373C74.9971 18.7373 76.3989 19.2121 77.1572 20.1538C78.007 21.2133 78.3606 22.3944 78.3606 23.9365C78.3606 25.5323 77.9842 26.8192 77.2313 27.8094C76.4776 28.7721 75.5082 29.2508 74.3261 29.2508C73.6984 29.2508 73.1456 29.137 72.6683 28.9108C72.1635 28.657 71.7635 28.2646 71.4618 27.7322V31.1317Z" fill="black"/>
<path d="M91.1332 24.0513C91.1332 25.7962 91.6277 26.7628 92.6153 26.9537C93.6005 27.1407 94.3305 26.9066 94.7999 26.25C95.0227 25.9741 95.1818 25.5359 95.2818 24.9433C95.3787 24.3495 95.3866 23.7609 95.2992 23.1802C95.2149 22.5968 95.0101 22.0789 94.688 21.6237C94.3691 21.1698 93.8982 20.941 93.2815 20.941C92.442 20.941 91.875 21.2588 91.5781 21.8879C91.2804 22.521 91.1332 23.2416 91.1332 24.0513ZM95.3559 28.4121V27.7699C94.9125 28.4788 94.3108 28.9182 93.5587 29.0961C92.8059 29.2727 92.0585 29.2099 91.3206 28.9052C90.5779 28.6031 89.9424 28.0406 89.4116 27.2192C88.8808 26.3952 88.6162 25.3148 88.6162 23.9741C88.6162 22.4085 88.9674 21.1371 89.6699 20.164C90.374 19.1909 91.5049 18.7462 93.0602 18.703C94.592 18.6611 95.4827 19.0156 96.356 19.6892C97.3097 20.4282 97.8736 21.5609 97.8736 23.3306V28.6802C97.8775 30.3819 96.7136 33.5367 93.0602 33.2699C90.7961 33.1025 89.5392 32.1542 88.8383 30.0078H91.5419C91.7395 30.361 92.0404 30.6317 92.4499 30.82C92.8547 31.0124 93.265 31.062 93.669 30.9731C94.0761 30.8841 94.4471 30.6369 94.7825 30.2341C95.1149 29.83 95.3063 29.2217 95.3559 28.4121Z" fill="black"/>
<path d="M85.1254 25.1065C85.1089 25.9789 84.864 26.5793 84.3946 26.9088C83.9245 27.2372 83.4102 27.402 82.8526 27.402C82.499 27.402 82.2006 27.3025 81.9556 27.1051C81.7091 26.9076 81.5863 26.5845 81.5863 26.1385C81.5863 25.6401 81.7871 25.2713 82.1903 25.0333C82.4297 24.8932 82.8196 24.7729 83.3645 24.6775L83.9465 24.5676C84.2371 24.5114 84.4655 24.4512 84.6309 24.3871C84.8002 24.3243 84.9632 24.2419 85.1254 24.1373V25.1065ZM86.4217 19.4246C85.5869 18.9943 84.6332 18.7759 83.5606 18.7759C81.9076 18.7759 80.7436 19.2154 80.0648 20.093C79.6387 20.6541 79.3993 21.3696 79.3442 22.2434H81.8115C81.8722 21.8575 81.9927 21.5527 82.1746 21.3278C82.4297 21.023 82.8621 20.8713 83.4716 20.8713C84.0205 20.8713 84.4332 20.9471 84.7144 21.1041C84.9947 21.2597 85.1372 21.5422 85.1372 21.9503C85.1372 22.2852 84.9538 22.5324 84.586 22.6919C84.382 22.7835 84.041 22.8594 83.5646 22.9209L82.6896 23.0294C81.6973 23.1576 80.9429 23.3721 80.4326 23.6703C79.4978 24.2197 79.0308 25.1065 79.0308 26.3321C79.0308 27.2764 79.3206 28.0075 79.9018 28.5229C80.4814 29.0369 81.2185 29.2554 82.1076 29.2972C87.6833 29.551 87.6219 26.2967 87.6731 25.6205V21.8758C87.6731 20.6751 87.2565 19.8589 86.4217 19.4246Z" fill="black"/>
<path d="M105.537 26.2774C105.139 26.8189 104.567 27.0883 103.822 27.0883C103.076 27.0883 102.502 26.8189 102.102 26.2774C101.698 25.7385 101.498 24.9707 101.498 23.9754C101.498 22.98 101.698 22.2135 102.102 21.6759C102.502 21.1384 103.076 20.8716 103.822 20.8716C104.567 20.8716 105.139 21.1384 105.537 21.6759C105.936 22.2135 106.136 22.98 106.136 23.9754C106.136 24.9707 105.936 25.7385 105.537 26.2774ZM107.576 20.2489C106.753 19.1973 105.504 18.6729 103.828 18.6729C102.157 18.6729 100.907 19.1973 100.085 20.2489C99.262 21.2993 98.8501 22.5406 98.8501 23.9754C98.8501 25.4338 99.262 26.679 100.085 27.7162C100.907 28.7494 102.157 29.2687 103.828 29.2687C105.504 29.2687 106.753 28.7494 107.576 27.7162C108.397 26.679 108.807 25.4338 108.807 23.9754C108.807 22.5406 108.397 21.2993 107.576 20.2489Z" fill="black"/>
</svg>
