<svg width="73" height="50" viewBox="0 0 73 50" fill="none" xmlns="http://www.w3.org/2000/svg">
<path fill-rule="evenodd" clip-rule="evenodd" d="M0.129883 3.66446H22.5475V0.0644531H0.129883V3.66446ZM63.2499 35.5865C59.9671 35.5865 57.6946 32.5714 57.3014 28.5755C58.2983 25.1643 60.5089 23.4653 63.1229 23.4653C66.4831 23.4653 68.3794 25.9437 68.3794 29.4669C68.3794 33.2478 66.2192 35.5865 63.2499 35.5865ZM64.0723 20.1633C60.7576 20.1633 58.3866 21.6955 57.1897 23.964C57.1897 18.6051 59.0607 13.9367 63.5042 13.9367C66.3295 13.9367 67.4509 15.5606 68.0501 18.2218L72.1648 17.4C71.1967 12.8049 68.2724 10.5711 63.5339 10.5711C57.5795 10.5711 53.1241 15.1368 53.1241 25.3697C53.1241 34.4535 56.8386 38.9431 63.24 38.9431C68.529 38.9431 72.4901 35.3367 72.4901 29.3934C72.4901 24.7499 70.0117 20.1633 64.0723 20.1633ZM18.3439 10.8645V29.8723H18.3423C18.3423 31.555 18.3813 32.5723 18.4597 33.5508H18.3813C17.97 32.4303 17.4842 31.4486 16.7597 30.171L5.5041 10.8645H0.359227V38.6497H4.36799V19.6416H4.36997C4.36997 17.959 4.33065 16.9417 4.25257 15.9631H4.33065C4.74198 17.0834 5.22771 18.0648 5.95221 19.342L17.2087 38.6497H22.3V10.8645H18.3439ZM22.5475 49.4315H0.129883V45.8498H22.5475V49.4315ZM41.3613 29.8723C40.0288 31.2031 37.0262 33.6054 34.931 35.0499H47.5002V38.6497H29.0038V35.3625C31.147 33.8343 35.5984 30.5139 38.3844 27.7313C41.0509 25.0682 42.7967 22.6344 42.7967 19.0631C42.7967 15.5492 40.864 14.0878 38.252 14.0878C35.5738 14.0878 33.4345 15.6333 33.4345 18.8611C33.4345 19.5661 33.5126 20.348 33.7086 21.2485L29.5071 20.8417C29.3113 20.0589 29.2327 19.3548 29.2327 18.6504C29.2327 14.3399 32.2588 10.5714 38.3903 10.5714C43.4471 10.5714 47.187 13.1947 47.187 18.9259C47.187 24.1386 43.3764 27.8884 41.6617 29.5753C41.5525 29.6828 41.4521 29.7818 41.3613 29.8723Z" fill="black"/>
</svg>
