<svg width="32" height="32" viewBox="0 0 32 32" fill="none" xmlns="http://www.w3.org/2000/svg">
<g clip-path="url(#clip0_14885_51445)">
<path d="M26.8654 4.55012C31.8548 9.49168 33.478 17.1375 30.0724 23.4551C24.9889 32.8852 12.7339 34.9414 4.94555 27.4502C-2.30064 20.4804 -1.46406 8.95538 6.69777 3.11476C13.0882 -1.45825 21.2508 -1.0105 26.8654 4.55012ZM18.2243 30.549C18.2262 30.5526 18.2816 30.537 18.3024 30.5615C18.3482 30.6151 18.2467 30.7095 18.4237 30.6818C18.5071 30.6688 18.5678 30.5867 18.6572 30.558C18.7889 30.5157 18.9377 30.6092 19.0275 30.4151C19.1121 30.5833 19.3926 30.4662 19.5552 30.4297C21.2003 30.0607 22.7945 29.2133 24.2037 28.3179C24.313 28.5508 24.6592 28.1116 24.6839 28.0173C24.7047 27.9374 24.6794 27.7652 24.6989 27.7421C24.7158 27.7221 24.91 27.7088 24.9622 27.6932C25.2537 27.6061 25.6151 27.2649 25.8553 27.0468C32.6433 20.8838 32.1295 10.7221 25.3645 4.7793C14.7418 -4.55225 -1.30844 5.54472 1.45967 19.0458C2.97814 26.4519 10.6532 31.939 18.1943 30.7197L18.2243 30.549Z" fill="#030E0F"/>
<path d="M24.9619 27.6932C24.9669 27.6655 24.9545 27.6262 24.9619 27.6039C24.9645 27.596 24.9909 27.5611 25.0065 27.5147C25.1282 27.1541 25.2575 26.8665 24.9852 26.5321C24.7067 26.1902 24.1971 26.2388 23.8399 26.0263C23.5818 25.8727 23.369 25.5375 23.1329 25.35C22.4896 24.8387 22.2403 25.375 21.5522 25.2797C21.2337 25.2355 20.9485 24.922 20.6362 24.8571C19.9487 24.7142 19.2051 25.1043 19.0665 25.8137L18.2689 25.7296C18.4363 25.347 18.5571 24.9935 18.288 24.6172C18.066 24.3069 17.7244 24.3516 17.4219 24.1906C18.0068 23.2241 16.9123 22.5893 16.085 23.1669C15.8202 23.3518 15.6623 23.8076 15.2618 23.5828C15.0154 23.4445 14.9785 22.4929 15.0153 22.231C15.0926 21.6807 15.7949 21.8385 16.188 21.7973C16.479 21.7668 16.6908 21.6284 16.9181 21.5907C17.8734 21.4321 17.5515 22.9571 18.6936 22.8303C19.6113 22.7285 19.0696 21.377 19.2251 20.9078C19.2602 20.8019 19.6277 20.5499 19.7337 20.39C19.8851 20.1616 19.9625 19.833 20.0902 19.5863C20.2845 19.2107 20.5989 18.7747 20.8784 18.4558C21.0031 18.3134 21.6429 17.6516 21.7625 17.5966C21.9125 17.5277 21.9424 17.6803 22.0745 17.7518C22.6904 18.0852 23.2494 17.5623 23.178 16.9159C23.1447 16.6145 22.9118 16.5551 22.8203 16.3148C24.0008 16.0986 25.014 15.324 23.847 14.2391C23.5099 13.9257 23.1722 13.6725 22.8417 13.3256C22.5354 13.004 22.3525 12.53 21.8139 12.5202C21.5504 12.5154 21.2622 12.8352 21.2139 12.4327C22.2259 12.5307 22.3827 11.9015 22.2181 11.0488C21.9503 9.66111 21.4903 8.97981 20.3534 8.18357L19.0721 7.39061C19.8541 7.72836 20.7356 7.38303 21.459 7.92578C21.9127 8.26614 21.7319 8.75639 22.0421 9.1722C22.1809 9.35826 22.5571 9.50104 22.5764 9.53036C22.6307 9.61287 22.6551 10.2099 22.7183 10.4147C22.8291 10.7736 23.0656 11.0259 23.3344 11.2712C23.6628 11.5709 24.6249 12.386 25.0275 12.4335C25.8451 12.5299 26.2013 11.8694 26.0115 11.1375C25.9683 10.9709 25.8 10.6944 25.8106 10.5386C25.8189 10.4152 26.1015 10.0692 26.1745 9.9192C26.4293 9.39599 26.5535 8.61663 26.4752 8.04115C26.4253 7.67488 25.4221 6.28033 25.1192 6.00581C24.1173 5.09747 22.8303 4.48878 21.6502 3.8525C21.5137 3.81551 21.3835 3.77041 21.2384 3.77468C20.9373 3.78354 19.8467 4.03726 19.6101 4.20262C19.5233 4.26335 19.3767 4.4655 19.3166 4.48944C19.2236 4.52652 19.1716 4.1876 19.074 4.15297C18.5922 3.69761 17.4287 4.08571 17.089 4.58193C16.8032 4.99953 16.985 5.56769 16.9207 6.04264C16.5073 6.29278 15.9886 6.60918 15.9032 7.12224C15.8284 7.09971 15.8259 7.00533 15.7484 6.94309C15.6194 6.83945 15.3768 6.76728 15.2117 6.76168C15.0985 6.75784 14.9667 6.82817 14.8793 6.78955C14.7654 6.73919 14.4162 6.20418 14.2314 6.05053C13.6979 5.60685 13.2063 5.86132 12.735 6.25183C12.5867 6.37467 11.85 7.10295 11.795 7.23063C11.5328 7.83983 12.2743 8.39366 12.8435 8.32355C12.9977 8.30456 13.2142 8.21248 13.3598 8.14882L13.2709 8.63985C12.7291 8.56361 12.2414 8.23863 11.6862 8.19415C11.1555 8.15163 10.6999 8.38547 10.2141 8.375C9.8006 8.36609 9.24123 8.15166 8.81801 8.07269C8.06704 7.93257 6.59867 7.62133 5.89105 7.70756C5.20483 7.79118 4.59299 8.49417 4.41401 9.13093C4.35676 9.33462 4.32758 9.80268 4.23435 9.93295C4.09909 10.1219 3.56493 10.2253 3.4433 10.5252C3.27228 10.9468 3.58542 11.4173 3.53655 11.6859C3.48154 11.9883 2.88032 12.2643 2.82744 12.8094C2.72601 13.8549 3.5727 14.2647 4.46678 13.869C5.33121 13.4864 6.20576 12.1833 7.22655 13.1893C7.60426 13.5615 8.49345 15.466 8.57503 15.9906C8.69869 16.7857 8.42521 17.6867 8.49487 18.4804C8.60688 19.7567 9.65484 20.6084 10.169 21.7146C10.3527 22.1098 10.4376 22.4915 10.7093 22.8699C11.1048 23.4207 11.7298 23.6129 11.9544 22.8296C12.0755 23.0886 12.0876 23.3721 12.2206 23.6343C12.7636 24.7049 14.9782 25.2143 15.9938 25.7512C16.7065 26.1279 17.3079 26.8975 18.1911 26.7455C18.3518 26.7178 18.4964 26.5811 18.6485 26.5746C18.7103 26.572 19.0036 26.6449 19.0214 26.6724C19.1814 26.9202 18.2719 27.7581 18.1162 27.9646C17.9398 28.1988 17.9558 28.2678 17.867 28.4964C17.8639 28.5044 17.8075 28.5116 17.7778 28.6302C17.7714 28.6557 17.7834 28.6923 17.7778 28.7195C17.7096 29.0503 17.7443 29.0836 17.8224 29.3888C17.8384 29.4511 17.8448 29.4991 17.867 29.5673C17.8819 29.6129 17.9076 29.6443 17.9117 29.6565C17.9265 29.7016 17.941 29.7456 17.9563 29.7904C17.9695 29.8291 17.9923 29.8561 18.0009 29.8796C18.0151 29.9182 18.0362 29.9449 18.0455 29.9689C18.0506 29.9818 18.0404 30.0006 18.0455 30.0135C18.0623 30.0561 18.0826 30.084 18.0902 30.1027C18.1036 30.1362 18.1111 30.1786 18.1348 30.2366C18.1686 30.3194 18.1863 30.4781 18.224 30.549L18.1939 30.7197C10.6529 31.939 2.97781 26.4518 1.45934 19.0457C-1.30877 5.54467 14.7415 -4.5523 25.3641 4.77925C32.1292 10.722 32.643 20.8837 25.855 27.0468C25.6148 27.2648 25.2534 27.6061 24.9619 27.6932Z" fill="#1E8ACB"/>
<path d="M17.8672 28.4964C17.956 28.2678 17.94 28.1988 18.1164 27.9647C18.2721 27.7581 19.1816 26.9202 19.0216 26.6724C19.0038 26.6449 18.7104 26.572 18.6487 26.5746C18.4966 26.5811 18.352 26.7178 18.1913 26.7455C17.3081 26.8975 16.7066 26.1279 15.994 25.7512C14.9783 25.2143 12.7638 24.7049 12.2208 23.6343C12.0878 23.3721 12.0757 23.0886 11.9546 22.8296C11.73 23.6129 11.1049 23.4207 10.7095 22.8699C10.4378 22.4915 10.3529 22.1098 10.1692 21.7146C9.65501 20.6084 8.60706 19.7567 8.49505 18.4804C8.42539 17.6867 8.69887 16.7858 8.57521 15.9906C8.49363 15.4661 7.60444 13.5615 7.22673 13.1893C6.20594 12.1834 5.33139 13.4864 4.46696 13.869C3.57288 14.2647 2.72618 13.8549 2.82762 12.8094C2.8805 12.2643 3.48172 11.9883 3.53673 11.6859C3.5856 11.4173 3.27246 10.9468 3.44348 10.5252C3.56511 10.2253 4.09927 10.122 4.23453 9.93296C4.32776 9.8027 4.35694 9.33463 4.41419 9.13095C4.59317 8.49418 5.20501 7.7912 5.89123 7.70758C6.59884 7.62135 8.06722 7.93259 8.81819 8.07271C9.24141 8.15168 9.80078 8.36611 10.2142 8.37502C10.7001 8.38548 11.1556 8.15164 11.6864 8.19417C12.2416 8.23865 12.7292 8.56362 13.2711 8.63986L13.36 8.14884C13.2143 8.21249 12.9979 8.30458 12.8437 8.32357C12.2745 8.39368 11.5329 7.83985 11.7952 7.23065C11.8502 7.10297 12.5869 6.37468 12.7352 6.25184C13.2065 5.86134 13.6981 5.60687 14.2316 6.05055C14.4163 6.20419 14.7656 6.7392 14.8795 6.78957C14.9668 6.82818 15.0987 6.75785 15.2119 6.76169C15.377 6.7673 15.6196 6.83946 15.7486 6.94311C15.8261 7.00535 15.8286 7.09973 15.9034 7.12226C15.9888 6.6092 16.5075 6.29279 16.9209 6.04266C16.9852 5.5677 16.8034 4.99954 17.0892 4.58195C17.4289 4.08573 18.5924 3.69763 19.0742 4.15299C19.1717 4.18761 19.2238 4.52654 19.3168 4.48946C19.3769 4.46552 19.5235 4.26337 19.6103 4.20264C19.8468 4.03728 20.9375 3.78355 21.2386 3.7747C21.3837 3.77043 21.5138 3.81553 21.6504 3.85251C22.8305 4.48879 24.1175 5.09749 25.1194 6.00583C25.4222 6.28035 26.4255 7.6749 26.4753 8.04116C26.5537 8.61664 26.4294 9.39601 26.1747 9.91922C26.1017 10.0692 25.8191 10.4152 25.8107 10.5386C25.8002 10.6944 25.9685 10.9709 26.0117 11.1375C26.2015 11.8695 25.8452 12.5299 25.0277 12.4335C24.625 12.3861 23.663 11.571 23.3346 11.2712C23.0658 11.0259 22.8293 10.7736 22.7185 10.4147C22.6553 10.2099 22.6308 9.61289 22.5766 9.53037C22.5573 9.50106 22.1811 9.35828 22.0423 9.17222C21.7321 8.75641 21.9129 8.26616 21.4592 7.9258C20.7358 7.38304 19.8543 7.72838 19.0723 7.39063L20.3536 8.18358C21.4905 8.97982 21.9505 9.66113 22.2183 11.0488C22.3829 11.9015 22.2261 12.5307 21.2141 12.4328C21.2623 12.8352 21.5505 12.5154 21.8141 12.5202C22.3527 12.53 22.5356 13.004 22.8419 13.3256C23.1724 13.6725 23.5101 13.9257 23.8472 14.2391C25.0142 15.324 24.001 16.0987 22.8205 16.3149C22.912 16.5551 23.1449 16.6145 23.1782 16.916C23.2496 17.5623 22.6906 18.0852 22.0747 17.7518C21.9425 17.6803 21.9126 17.5277 21.7627 17.5967C21.6431 17.6516 21.0033 18.3135 20.8786 18.4558C20.5991 18.7747 20.2847 19.2107 20.0903 19.5863C19.9627 19.833 19.8852 20.1616 19.7339 20.39C19.6279 20.5499 19.2604 20.802 19.2253 20.9078C19.0698 21.377 19.6115 22.7285 18.6938 22.8304C17.5517 22.9571 17.8736 21.4321 16.9183 21.5907C16.691 21.6284 16.4792 21.7668 16.1881 21.7973C15.7951 21.8386 15.0927 21.6807 15.0155 22.2311C14.9787 22.4929 15.0156 23.4445 15.262 23.5828C15.6625 23.8076 15.8204 23.3518 16.0852 23.1669C16.9124 22.5893 18.007 23.2241 17.4221 24.1907C17.7246 24.3516 18.0662 24.3069 18.2881 24.6173C18.5573 24.9935 18.4365 25.3471 18.269 25.7296L19.0667 25.8137C19.2052 25.1044 19.9489 24.7142 20.6364 24.8571C20.9487 24.922 21.2339 25.2356 21.5524 25.2797C22.2405 25.3751 22.4898 24.8388 23.1331 25.35C23.3692 25.5376 23.582 25.8727 23.8401 26.0263C24.1972 26.2388 24.7069 26.1902 24.9853 26.5321C25.2577 26.8665 25.1284 27.1541 25.0067 27.5147L24.9621 27.6039C24.9547 27.6262 24.9671 27.6655 24.9621 27.6932C24.9098 27.7088 24.7157 27.722 24.6987 27.7421C24.6792 27.7652 24.7046 27.9374 24.6837 28.0173C24.6591 28.1116 24.3128 28.5507 24.2035 28.3179C24.2433 28.2639 24.238 28.201 24.2481 28.1394C24.2613 28.0594 24.3091 28.0059 24.2035 27.9163C24.1966 27.8201 24.1991 27.8325 24.2035 27.7378C24.2739 27.7084 24.2739 27.5441 24.2035 27.5147C24.2062 27.4932 24.2 27.4703 24.2039 27.4485C24.2123 27.4265 24.227 27.4233 24.2481 27.4254C24.2554 27.4262 24.2726 27.4639 24.2918 27.4707C24.332 27.3706 24.302 27.3159 24.2928 27.247C24.2834 27.1764 24.3089 27.1117 24.2524 27.0421C24.194 26.9702 24.1238 26.9981 24.0697 26.9792C24.0916 26.8285 23.9366 26.9087 23.8466 26.89C23.573 26.8331 23.4302 26.732 23.2071 26.5701C23.104 26.4952 22.7051 26.1068 22.6541 26.0933C22.5548 26.067 21.9053 26.2176 21.6947 26.2087C21.554 26.2027 21.3199 26.1441 21.1832 26.0951C20.5891 25.8824 20.4125 25.2976 19.8376 26.1179C19.9664 26.7467 19.8423 27.2134 19.4727 27.7146C19.1988 28.0862 18.5206 28.5817 18.5994 29.0772C18.6477 29.3812 18.9332 29.8513 19.0274 30.2366C19.0287 30.2419 19.0117 30.248 19.0274 30.3259C19.033 30.3536 19.0191 30.3985 19.0274 30.4151C18.9376 30.6092 18.7887 30.5157 18.6571 30.5579C18.5676 30.5867 18.507 30.6687 18.4235 30.6818C18.2466 30.7094 18.3481 30.615 18.3023 30.5615C18.2814 30.537 18.2261 30.5526 18.2242 30.549C18.1865 30.4781 18.1688 30.3194 18.135 30.2366C18.2063 30.1809 18.1655 30.1325 18.0903 30.1028C18.0828 30.084 18.0625 30.0561 18.0457 30.0135L18.0896 29.9909L18.0457 29.9689C18.0364 29.9449 18.0153 29.9182 18.0011 29.8796L17.9565 29.7904C17.9411 29.7456 17.9267 29.7016 17.9119 29.6565L17.8672 29.5673C17.845 29.4991 17.8386 29.4512 17.8226 29.3888L17.8568 29.3627C17.7772 29.1546 17.8824 28.9014 17.778 28.7195C17.7836 28.6923 17.7716 28.6557 17.778 28.6302C17.8973 28.6511 17.8691 28.602 17.8672 28.4964ZM25.2296 11.5399C25.1844 11.287 25.0124 11.1037 24.9737 10.8368C24.8523 10.0006 25.3249 9.7857 25.51 9.07608C25.6017 8.7247 25.6512 8.33715 25.4896 8.00063C24.9138 6.80137 23.7539 6.00496 22.6271 5.37461C22.4195 5.25845 21.4522 4.72053 21.3044 4.68852C21.192 4.66419 20.2269 4.85912 20.1196 4.93499C19.9506 5.05438 19.8906 5.45033 19.8076 5.6493C19.7375 5.81728 19.4368 6.36457 19.4946 6.49586C19.6355 6.81616 20.3234 6.69675 20.6107 6.72165C21.2888 6.78042 22.1654 7.15935 22.4873 7.79012C22.59 7.99131 22.6561 8.42202 22.7534 8.55038C22.8821 8.72025 23.2251 8.67749 23.3808 8.9939C23.5955 9.43025 23.3751 9.91886 23.6932 10.3771C23.8228 10.5638 24.703 11.2876 24.9206 11.4254C25.0137 11.4845 25.1132 11.549 25.2296 11.5399ZM17.9987 6.00604C18.0149 5.99447 18.1088 5.70067 18.1413 5.63404C18.2012 5.51091 18.5003 4.98243 18.4953 4.91445C18.4772 4.66792 17.8849 4.96425 17.8318 5.1461C17.8105 5.2193 17.8031 5.8591 17.8208 5.93225C17.831 5.97427 17.9787 6.02031 17.9987 6.00604ZM15.0025 7.80126C14.9081 7.74639 14.6967 7.83868 14.454 7.65766C14.2536 7.50819 13.8406 6.76159 13.732 6.72561C13.5644 6.67002 12.9685 7.19376 12.9146 7.32394C12.879 7.40996 12.9667 7.39423 13.0215 7.38645C13.4369 7.32739 13.7843 7.1088 14.1426 7.52279C14.4862 7.91972 14.2053 8.33611 14.0712 8.74684C14.7582 9.02537 15.5276 8.89283 16.2164 8.68381C16.2395 8.65245 15.968 7.97163 15.9262 7.97122C15.6325 8.25495 15.394 8.16018 15.102 7.9458C15.0424 7.90205 15.0192 7.81095 15.0025 7.80126ZM16.9744 7.92572C17.0433 7.50669 17.3173 7.17415 17.5993 6.87652C17.5583 6.65006 17.2859 6.85236 17.1568 6.92528C16.9804 7.02495 16.7069 7.18979 16.7054 7.4118C16.7049 7.48924 16.8749 8.01869 16.9744 7.92572ZM21.4365 11.5847C21.3381 10.9677 21.1436 10.1151 20.7459 9.62083C20.386 9.17362 18.7554 7.94181 18.2245 7.81325C17.8476 7.72199 17.6459 8.35338 17.7753 8.44179C17.8108 8.46607 18.4739 8.53258 18.6261 8.57246C19.3208 8.75451 20.4948 9.43734 20.1781 10.3035C20.0781 10.5769 19.8163 10.7335 19.6521 10.9595L21.4365 11.5847ZM17.3275 9.62564C16.9242 9.7109 16.5692 9.86956 16.1436 9.928C14.5687 10.1443 13.7543 9.71333 12.3573 9.26352C11.4761 8.97981 11.3869 9.15297 10.5709 9.21906C9.811 9.2806 8.87405 8.96262 8.1044 8.83112C7.698 8.76169 6.45309 8.52683 6.12197 8.56068C5.69925 8.6039 5.42543 8.91261 5.2961 9.29892C5.20249 9.57856 5.21937 9.89833 5.1372 10.1663C5.02727 10.5248 4.63506 10.741 4.30883 10.8772C4.36595 11.3755 4.55814 11.6405 4.30356 12.1438C4.21293 12.323 3.57339 12.9509 3.72201 13.1018C3.92161 13.3045 5.0517 12.4019 5.28303 12.2755C7.55287 11.0349 8.76049 13.5714 9.29708 15.358C9.62148 16.4381 9.24893 17.34 9.34518 18.3888C9.44718 19.5002 10.535 20.1908 10.8621 21.2229C11.6488 20.5985 12.2423 21.5416 12.5648 22.1748C12.7574 22.553 12.899 23.2043 13.1803 23.478C13.3966 23.6884 14.6988 24.3788 14.9889 24.4363C15.0388 24.4462 15.0849 24.4421 15.0342 24.391C14.8601 24.2153 14.658 24.1979 14.4843 23.9143C14.2186 23.4806 14.1201 22.2897 14.2882 21.8162C14.4747 21.2911 14.9522 21.0513 15.4807 21.0006C15.6688 20.9826 15.8658 21.0168 16.0552 20.9951C16.801 20.9096 17.2418 20.3794 18.0021 21.1105L18.4469 21.7583C18.4706 21.5361 18.3677 21.3301 18.3565 21.113C18.3258 20.5185 18.7229 20.3269 19.0015 19.8808C19.4564 19.1525 19.6983 18.5143 20.2985 17.8311C20.6767 17.4007 21.2953 16.7508 21.8832 16.7158C21.7681 16.5601 21.6462 16.5013 21.6193 16.288C21.4958 15.3082 22.9778 15.6173 23.4446 15.0864L22.2618 13.9949L21.8377 13.3699C21.6974 13.34 21.781 13.4818 21.6867 13.5971C21.5426 13.7734 21.233 13.7417 21.0488 13.6463C20.7836 13.5089 20.7229 13.2253 20.5639 13.0156C20.5031 12.9355 19.9367 12.4104 19.8754 12.4774C20.0494 13.1163 20.4329 13.3834 20.0447 14.0523C19.931 14.2483 19.6359 14.4834 19.5832 14.6617C19.5063 14.922 19.6186 15.1197 19.4536 15.4245C19.1222 16.0365 18.4646 15.8865 18.1262 15.364C17.8871 14.9948 17.8857 14.3734 17.4971 14.1636C17.1099 13.9546 16.6632 14.025 16.2648 13.7003C15.37 12.9709 16.1071 11.6968 16.7957 11.1156C16.9129 11.0168 17.4784 10.6885 17.5031 10.6179C17.5399 10.5123 17.3874 9.66808 17.3275 9.62564ZM19.2504 11.7191C18.707 11.6094 18.4485 11.0799 18.7857 10.6068C19.1547 10.0891 19.7893 10.0385 18.8498 9.50896C18.741 9.44767 18.1165 9.14697 18.0459 9.21999C18.0797 9.63305 18.4224 9.95826 18.5078 10.3864C18.711 11.4053 17.8572 11.3766 17.3084 11.8514C17.0673 12.0601 16.6594 12.6064 16.7605 12.9372C16.8314 13.1695 17.599 13.2671 17.8216 13.3482C18.4391 13.5733 18.5092 13.9771 18.7376 14.5295C18.688 14.1306 19.2552 13.8225 19.2945 13.522C19.3462 13.1265 18.7468 12.5927 19.0179 12.0437C19.0819 11.9142 19.2417 11.8608 19.2504 11.7191ZM16.7067 23.8102C16.711 23.8053 16.7232 23.7163 16.685 23.7221C16.1168 24.2363 16.094 24.5305 15.2438 24.4485C15.1947 24.4438 15.0919 24.3959 15.101 24.4799C15.6433 24.6633 16.1912 24.9106 16.6924 25.1867C16.8095 25.2512 17.2352 25.5635 17.3005 25.5467C17.3892 25.5239 17.6541 25.2258 17.5797 25.1047C17.4823 24.9461 16.65 25.0785 16.505 24.5264C16.4511 24.3213 16.4812 24.0337 16.5987 23.8569C16.6275 23.8136 16.7001 23.8176 16.7067 23.8102Z" fill="#01120E"/>
<path d="M23.8463 26.89C23.9027 26.9625 23.9945 26.9531 24.0694 26.9792C24.1235 26.9981 24.1938 26.9702 24.2521 27.0421C24.3086 27.1117 24.2831 27.1764 24.2925 27.247L24.2479 27.4254C24.2267 27.4233 24.212 27.4265 24.2036 27.4485C24.1997 27.4703 24.2059 27.4931 24.2033 27.5147C24.1948 27.584 24.2067 27.665 24.2033 27.7378C24.1988 27.8325 24.1963 27.8201 24.2033 27.9163C24.2084 27.9873 24.1738 28.101 24.2479 28.1394C24.2377 28.201 24.2431 28.2639 24.2033 28.3179C22.7941 29.2133 21.1999 30.0607 19.5548 30.4296C19.3922 30.4661 19.1117 30.5833 19.0271 30.4151C19.0188 30.3985 19.0327 30.3536 19.0271 30.3259V30.2366C18.9329 29.8512 18.6474 29.3812 18.5991 29.0772C18.5204 28.5817 19.1986 28.0862 19.4725 27.7146C19.842 27.2134 19.9661 26.7467 19.8373 26.1179C20.4123 25.2976 20.5888 25.8824 21.1829 26.0951C21.3196 26.1441 21.5537 26.2027 21.6944 26.2087C21.905 26.2176 22.5545 26.067 22.6538 26.0933C22.7048 26.1068 23.1037 26.4952 23.2068 26.57C23.4299 26.732 23.5728 26.8331 23.8463 26.89Z" fill="#167A3C"/>
<path d="M17.8223 29.3891C17.7442 29.0838 17.7095 29.0506 17.7777 28.7197C17.8821 28.9016 17.7769 29.1549 17.8565 29.363L17.8223 29.3891Z" fill="#030E0F"/>
<path d="M17.8666 28.4966C17.8684 28.6022 17.8966 28.6513 17.7773 28.6304C17.807 28.5118 17.8635 28.5046 17.8666 28.4966Z" fill="#030E0F"/>
<path d="M18.1345 30.2369C18.1108 30.1789 18.1033 30.1365 18.0898 30.103C18.165 30.1327 18.2058 30.1812 18.1345 30.2369Z" fill="#030E0F"/>
<path d="M24.9619 27.6039L25.0065 27.5146C24.9909 27.5611 24.9645 27.596 24.9619 27.6039Z" fill="#030E0F"/>
<path d="M17.9118 29.6566C17.9078 29.6444 17.8821 29.613 17.8672 29.5674L17.9118 29.6566Z" fill="#030E0F"/>
<path d="M18.0007 29.8798C17.992 29.8563 17.9693 29.8292 17.9561 29.7905L18.0007 29.8798Z" fill="#030E0F"/>
<path d="M18.0454 30.0134C18.0403 30.0005 18.0504 29.9817 18.0454 29.9688L18.0893 29.9908L18.0454 30.0134Z" fill="#030E0F"/>
<path d="M17.327 9.62589C17.3869 9.66833 17.5394 10.5125 17.5026 10.6181C17.478 10.6888 16.9124 11.017 16.7953 11.1159C16.1066 11.697 15.3695 12.9711 16.2643 13.7005C16.6627 14.0253 17.1094 13.9549 17.4966 14.1639C17.8852 14.3736 17.8866 14.9951 18.1257 15.3643C18.4641 15.8868 19.1217 16.0367 19.4531 15.4247C19.6181 15.1199 19.5058 14.9223 19.5827 14.6619C19.6354 14.4836 19.9305 14.2486 20.0443 14.0525C20.4325 13.3836 20.0489 13.1165 19.875 12.4776C19.9362 12.4106 20.5026 12.9357 20.5634 13.0158C20.7224 13.2255 20.7831 13.5092 21.0483 13.6465C21.2325 13.7419 21.5422 13.7736 21.6862 13.5974C21.7805 13.482 21.6969 13.3402 21.8372 13.3702L22.2613 13.9952L23.4441 15.0867C22.9773 15.6176 21.4953 15.3084 21.6188 16.2883C21.6457 16.5015 21.7676 16.5603 21.8827 16.716C21.2948 16.751 20.6762 17.4009 20.298 17.8314C19.6978 18.5145 19.4559 19.1528 19.001 19.8811C18.7224 20.3272 18.3253 20.5187 18.356 21.1133C18.3672 21.3303 18.4701 21.5364 18.4464 21.7585L18.0016 21.1107C17.2413 20.3796 16.8005 20.9099 16.0547 20.9953C15.8653 21.0171 15.6683 20.9828 15.4802 21.0009C14.9517 21.0516 14.4742 21.2913 14.2877 21.8164C14.1197 22.2899 14.2181 23.4809 14.4838 23.9146C14.6575 24.1981 14.8596 24.2156 15.0337 24.3912C15.0844 24.4424 15.0383 24.4464 14.9884 24.4365C14.6983 24.3791 13.3961 23.6887 13.1799 23.4783C12.8986 23.2045 12.7569 22.5532 12.5643 22.1751C12.2418 21.5419 11.6483 20.5988 10.8617 21.2232C10.5345 20.191 9.44669 19.5005 9.34469 18.3891C9.24844 17.3403 9.62099 16.4383 9.29659 15.3583C8.76 13.5717 7.55238 11.0352 5.28254 12.2758C5.05121 12.4022 3.92112 13.3047 3.72152 13.1021C3.5729 12.9512 4.21244 12.3233 4.30306 12.1441C4.55765 11.6407 4.36546 11.3757 4.30834 10.8774C4.63457 10.7412 5.02678 10.525 5.13671 10.1666C5.21889 9.89858 5.202 9.57881 5.29561 9.29917C5.42493 8.91286 5.69876 8.60414 6.12148 8.56093C6.45259 8.52708 7.69752 8.76194 8.10391 8.83137C8.87356 8.96287 9.81051 9.28085 10.5704 9.21931C11.3864 9.15322 11.4757 8.98006 12.3568 9.26377C13.7538 9.71358 14.5682 10.1445 16.1431 9.92825C16.5687 9.86981 16.9237 9.71116 17.327 9.62589Z" fill="#167A3C"/>
<path d="M25.2297 11.54C25.1132 11.5491 25.0138 11.4845 24.9206 11.4255C24.7031 11.2877 23.8228 10.5639 23.6932 10.3772C23.3752 9.91895 23.5955 9.43034 23.3808 8.99399C23.2251 8.67758 22.8821 8.72034 22.7534 8.55047C22.6562 8.42212 22.5901 7.99141 22.4874 7.79021C22.1654 7.15945 21.2889 6.78052 20.6108 6.72174C20.3234 6.69684 19.6356 6.81625 19.4946 6.49595C19.4369 6.36466 19.7375 5.81737 19.8076 5.64939C19.8906 5.45042 19.9507 5.05447 20.1196 4.93508C20.227 4.85921 21.192 4.66428 21.3044 4.68861C21.4523 4.72062 22.4196 5.25854 22.6272 5.3747C23.7539 6.00505 24.9138 6.80147 25.4896 8.00073C25.6512 8.33725 25.6018 8.72479 25.5101 9.07617C25.3249 9.78579 24.8524 10.0007 24.9737 10.8369C25.0125 11.1038 25.1844 11.2871 25.2297 11.54Z" fill="#167A3C"/>
<path d="M19.2499 11.719C19.2412 11.8606 19.0814 11.914 19.0174 12.0436C18.7463 12.5926 19.3457 13.1264 19.294 13.5218C19.2547 13.8224 18.6875 14.1305 18.737 14.5294C18.5087 13.977 18.4385 13.5732 17.8211 13.3481C17.5985 13.2669 16.8309 13.1693 16.7599 12.9371C16.6588 12.6063 17.0668 12.0599 17.3079 11.8513C17.8567 11.3765 18.7105 11.4051 18.5073 10.3863C18.4219 9.95812 18.0792 9.63291 18.0454 9.21985C18.1159 9.14683 18.7405 9.44753 18.8492 9.50882C19.7888 10.0384 19.1542 10.089 18.7852 10.6067C18.448 11.0798 18.7065 11.6093 19.2499 11.719Z" fill="#1E8ACB"/>
<path d="M21.4367 11.5846L19.6524 10.9595C19.8166 10.7334 20.0783 10.5769 20.1783 10.3035C20.4951 9.43728 19.321 8.75445 18.6263 8.57241C18.4741 8.53252 17.811 8.46601 17.7755 8.44173C17.6461 8.35333 17.8478 7.72193 18.2247 7.81319C18.7556 7.94175 20.3862 9.17357 20.7461 9.62078C21.1438 10.115 21.3383 10.9677 21.4367 11.5846Z" fill="#167A3C"/>
<path d="M15.0025 7.80145C15.0192 7.81115 15.0423 7.90224 15.1019 7.94599C15.3939 8.16037 15.6324 8.25514 15.9261 7.9714C15.9679 7.97181 16.2394 8.65264 16.2163 8.684C15.5276 8.89302 14.7581 9.02556 14.0711 8.74702C14.2053 8.3363 14.4861 7.91991 14.1426 7.52298C13.7843 7.10899 13.4368 7.32758 13.0214 7.38664C12.9667 7.39442 12.8789 7.41015 12.9145 7.32413C12.9684 7.19394 13.5643 6.6702 13.7319 6.72579C13.8405 6.76178 14.2535 7.50838 14.4539 7.65785C14.6966 7.83887 14.908 7.74658 15.0025 7.80145Z" fill="#167A3C"/>
<path d="M16.7068 23.8101C16.7003 23.8175 16.6276 23.8135 16.5988 23.8568C16.4814 24.0336 16.4513 24.3212 16.5051 24.5263C16.6501 25.0784 17.4824 24.946 17.5799 25.1046C17.6543 25.2257 17.3894 25.5238 17.3006 25.5466C17.2354 25.5634 16.8096 25.2511 16.6925 25.1866C16.1913 24.9105 15.6434 24.6632 15.1012 24.4797C15.092 24.3958 15.1948 24.4437 15.244 24.4484C16.0941 24.5304 16.1169 24.2362 16.6851 23.722C16.7234 23.7162 16.7112 23.8052 16.7068 23.8101Z" fill="#167A3C"/>
<path d="M17.9983 6.0063C17.9784 6.02057 17.8307 5.97453 17.8205 5.93251C17.8027 5.85936 17.8102 5.21955 17.8315 5.14636C17.8846 4.96451 18.4769 4.66818 18.495 4.91471C18.5 4.98269 18.2009 5.51117 18.141 5.6343C18.1085 5.70093 18.0146 5.99473 17.9983 6.0063Z" fill="#167A3C"/>
<path d="M16.9741 7.92589C16.8746 8.01885 16.7046 7.48942 16.7051 7.41198C16.7065 7.18996 16.9801 7.02512 17.1565 6.92545C17.2856 6.85254 17.5579 6.65023 17.599 6.87669C17.317 7.17432 17.043 7.50686 16.9741 7.92589Z" fill="#1E8ACB"/>
<path d="M23.8467 26.8902C23.9367 26.9089 24.0917 26.8287 24.0698 26.9794C23.9949 26.9533 23.9031 26.9628 23.8467 26.8902Z" fill="#030E0F"/>
<path d="M24.2927 27.2471C24.3019 27.316 24.3319 27.3707 24.2917 27.4708C24.2725 27.464 24.2553 27.4263 24.248 27.4256L24.2927 27.2471Z" fill="#030E0F"/>
<path d="M24.2475 28.1396C24.1734 28.1012 24.208 27.9875 24.2029 27.9165C24.3085 28.0061 24.2607 28.0597 24.2475 28.1396Z" fill="#030E0F"/>
<path d="M24.2033 27.7378C24.2068 27.665 24.1948 27.584 24.2033 27.5146C24.2737 27.544 24.2737 27.7084 24.2033 27.7378Z" fill="#030E0F"/>
<path d="M19.0272 30.3261C19.0115 30.2482 19.0285 30.2421 19.0272 30.2368V30.3261Z" fill="#030E0F"/>
</g>
<defs>
<clipPath id="clip0_14885_51445">
<rect width="31.8699" height="32" fill="white"/>
</clipPath>
</defs>
</svg>
