<svg width="88" height="38" viewBox="0 0 88 38" fill="none" xmlns="http://www.w3.org/2000/svg">
<path d="M27.1631 34.9882V13.5115C27.1631 11.6141 27.8858 9.79448 29.1722 8.45281C30.4586 7.1112 32.2034 6.35742 34.0226 6.35742L40.102 6.36625C41.9166 6.37007 43.655 7.12463 44.937 8.46419C46.2183 9.80381 46.9381 11.6191 46.9381 13.5115V18.0819C46.9381 19.9794 46.2156 21.7992 44.929 23.141C43.6429 24.4828 41.8977 25.2368 40.0784 25.2371H31.4859" stroke="black" stroke-width="2.43148" stroke-linecap="round" stroke-linejoin="round"/>
<path d="M48.6377 6.35645H51.2751C52.0218 6.35645 52.7375 6.66583 53.266 7.21649C53.7939 7.76722 54.0902 8.51408 54.0902 9.29287V25.3345" stroke="black" stroke-width="2.43148" stroke-linecap="round" stroke-linejoin="round"/>
<path d="M53.5241 3.87133L52.3283 2.6232C52.2576 2.54965 52.2017 2.4624 52.1634 2.36631C52.125 2.27022 52.1055 2.16721 52.1055 2.06321C52.1055 1.95921 52.125 1.8562 52.1634 1.76012C52.2017 1.66403 52.2576 1.57678 52.3283 1.50323L53.5241 0.256156C53.6662 0.107434 53.8601 0.0239258 54.0621 0.0239258C54.2634 0.0239258 54.4573 0.107434 54.5994 0.256156L55.7945 1.50323C55.8652 1.57678 55.9211 1.66403 55.9588 1.76012C55.9972 1.8562 56.0167 1.95921 56.0167 2.06321C56.0167 2.16721 55.9972 2.27022 55.9588 2.36631C55.9211 2.4624 55.8652 2.54965 55.7945 2.6232L54.5947 3.87133C54.524 3.94495 54.4398 4.00338 54.3476 4.04315C54.2553 4.083 54.1571 4.10356 54.0567 4.10356C53.9571 4.10356 53.8581 4.083 53.7659 4.04315C53.6736 4.00338 53.5901 3.94495 53.5194 3.87133" fill="black"/>
<path d="M59.1523 6.34229H61.7675C63.1128 6.34172 64.4035 6.89846 65.3549 7.89012L71.4726 14.2703C71.6605 14.4669 71.8847 14.6229 72.1304 14.7294C72.3769 14.8359 72.6408 14.8906 72.9074 14.8906C73.1734 14.8906 73.4373 14.8359 73.6838 14.7294C73.9302 14.6229 74.1537 14.4669 74.3416 14.2703L80.4371 7.91443C80.9077 7.4234 81.4672 7.03389 82.0826 6.76832C82.6981 6.50274 83.3572 6.36624 84.0231 6.36666H86.1495" stroke="black" stroke-width="2.43148" stroke-linecap="round" stroke-linejoin="round"/>
<path d="M59.1523 25.1943H61.7675C63.1128 25.1948 64.4035 24.6381 65.3549 23.6466L71.4726 17.2664C71.853 16.8697 72.3688 16.647 72.9074 16.647C73.4454 16.647 73.9612 16.8697 74.3416 17.2664L80.4371 23.6233C81.3885 24.6148 82.6785 25.1715 84.0231 25.1712H86.1495" stroke="black" stroke-width="2.43148" stroke-linecap="round" stroke-linejoin="round"/>
<path d="M11.571 29.2691C10.9258 29.2716 10.2865 29.1407 9.69009 28.8839C9.09367 28.6272 8.55193 28.2497 8.09623 27.7734L3.07696 22.5352C2.89941 22.3581 2.66328 22.2593 2.41765 22.2593C2.17196 22.2593 1.93583 22.3581 1.75828 22.5352L-3.27796 27.7877C-3.73339 28.2647 -4.27493 28.643 -4.87135 28.9005C-5.46777 29.158 -6.10722 29.2897 -6.75272 29.2879H-7.73535L-1.37518 35.9213C-0.421299 36.914 0.871257 37.4716 2.21889 37.4716C3.56646 37.4716 4.85901 36.914 5.8129 35.9213L12.1859 29.2736L11.571 29.2691Z" fill="black"/>
<path d="M-6.75164 10.7576C-6.10614 10.7558 -5.46669 10.8874 -4.87027 11.1449C-4.27385 11.4025 -3.73231 11.7807 -3.27688 12.2578L1.75935 17.5114C1.93442 17.6934 2.17149 17.7957 2.41866 17.7957C2.6659 17.7957 2.90297 17.6934 3.07804 17.5114L8.09623 12.2777C8.55125 11.7999 9.09273 11.4213 9.68922 11.1635C10.2857 10.9058 10.9254 10.7742 11.571 10.7763H12.1752L5.80232 4.12972C5.3304 3.63735 4.77007 3.24679 4.15345 2.98029C3.53676 2.7138 2.87577 2.57666 2.20825 2.57666C1.54073 2.57666 0.879808 2.7138 0.263122 2.98029C-0.353564 3.24679 -0.913828 3.63735 -1.38575 4.12972L-7.73535 10.7576H-6.75164Z" fill="black"/>
<path d="M17.4473 16.2759L13.5961 12.2594C13.5093 12.2964 13.4165 12.316 13.3226 12.3169H11.5715C10.6602 12.3193 9.78668 12.6967 9.14084 13.3672L4.12265 18.5976C3.67072 19.0681 3.05828 19.3323 2.41971 19.3323C1.78114 19.3323 1.1687 19.0681 0.71677 18.5976L-4.32054 13.3473C-4.96618 12.6764 -5.83974 12.2986 -6.7512 12.2959H-8.90095C-8.98949 12.2938 -9.07709 12.2755 -9.15957 12.2417L-13.035 16.2759C-13.9869 17.2708 -14.5215 18.6189 -14.5215 20.0243C-14.5215 21.4297 -13.9869 22.7778 -13.035 23.7727L-9.16805 27.8058C-9.0857 27.7714 -8.99804 27.7531 -8.90937 27.7516H-6.7512C-5.8398 27.7488 -4.96625 27.371 -4.32054 26.7002L0.715693 21.4477C1.62628 20.4991 3.21314 20.4991 4.12265 21.4477L9.14084 26.6803C9.78668 27.3508 10.6602 27.7283 11.5715 27.7306H13.3226C13.4165 27.7313 13.5094 27.7508 13.5961 27.7881L17.4473 23.7716C17.9193 23.2794 18.2938 22.695 18.5494 22.0519C18.8048 21.4088 18.9364 20.7194 18.9364 20.0232C18.9364 19.327 18.8048 18.6377 18.5494 17.9945C18.2938 17.3514 17.9193 16.7669 17.4473 16.2748" fill="black"/>
<path d="M32.3907 33.1625C32.0724 33.177 31.7565 33.2271 31.4484 33.3118V34.6207C31.684 34.7069 31.9321 34.7503 32.1819 34.749C32.8115 34.749 33.1094 34.5279 33.1094 33.9497C33.1094 33.4057 32.8656 33.1625 32.3907 33.1625ZM31.2363 35.5947V33.0044H31.4091L31.4271 33.1149C31.7482 33.026 32.0771 32.9708 32.4088 32.9502C32.6386 32.9334 32.8666 33.0024 33.0522 33.1448C33.2642 33.3284 33.3361 33.6246 33.3361 33.9474C33.3361 34.2703 33.2303 34.6041 32.9335 34.7799C32.707 34.8978 32.4562 34.9559 32.2031 34.9491C31.9472 34.9474 31.693 34.9068 31.4484 34.8286V35.5903L31.2363 35.5947Z" fill="black"/>
<path d="M34.9158 33.1559C34.287 33.1559 34.0062 33.3616 34.0062 33.9398C34.0062 34.4981 34.2829 34.7501 34.9158 34.7501C35.5488 34.7501 35.8221 34.5467 35.8221 33.9696C35.8221 33.4113 35.5454 33.1559 34.9158 33.1559ZM35.7258 34.7501C35.5137 34.9071 35.2363 34.9524 34.9158 34.9524C34.596 34.9524 34.3085 34.9038 34.1038 34.7501C33.8736 34.581 33.7793 34.3079 33.7793 33.9552C33.7793 33.6025 33.8736 33.3284 34.1038 33.1559C34.3085 33.0022 34.5893 32.9536 34.9158 32.9536C35.2424 32.9536 35.5171 33.0022 35.7258 33.1559C35.9588 33.3284 36.049 33.6092 36.049 33.9508C36.049 34.2924 35.9561 34.581 35.7258 34.7501Z" fill="black"/>
<path d="M38.7048 34.8992L38.0032 33.3282H37.989L37.2982 34.8992H37.1043L36.3623 33.0054H36.5953L37.2174 34.5952H37.2322L37.9089 33.0054H38.1028L38.7963 34.5952H38.8111L39.4185 33.0054H39.6481L38.9 34.8992H38.7048Z" fill="black"/>
<path d="M40.9999 33.1505C40.4169 33.1505 40.2196 33.4213 40.1839 33.8138H41.816C41.7985 33.3827 41.5864 33.1505 40.9999 33.1505ZM40.9925 34.9514C40.6438 34.9514 40.4169 34.8984 40.2371 34.7414C40.025 34.5501 39.9536 34.2726 39.9536 33.9542C39.9536 33.6358 40.0506 33.3274 40.2923 33.1439C40.503 33.0052 40.7508 32.9383 40.9999 32.9526C41.2545 32.9366 41.5069 33.0005 41.7264 33.1361C41.9884 33.3197 42.0389 33.6425 42.0389 34.0095H40.1785C40.1859 34.3998 40.3078 34.7447 41.0127 34.7447C41.3278 34.736 41.6416 34.6991 41.9507 34.6341V34.8332C41.6369 34.9006 41.3177 34.9394 40.9966 34.9492" fill="black"/>
<path d="M42.6484 34.8992V33.0054H42.8201L42.8383 33.1159C43.2228 33.0142 43.4032 32.9512 43.7412 32.9512H43.7668V33.1612H43.7156C43.4315 33.1612 43.2591 33.2021 42.8605 33.3105V34.897L42.6484 34.8992Z" fill="black"/>
<path d="M44.9985 33.1505C44.4161 33.1505 44.2181 33.4213 44.1817 33.8138H45.8145C45.7963 33.3827 45.5843 33.1505 44.9985 33.1505ZM44.9911 34.9514C44.6423 34.9514 44.4161 34.8984 44.2363 34.7414C44.0242 34.5501 43.9521 34.2726 43.9521 33.9542C43.9521 33.6358 44.0498 33.3274 44.2902 33.1439C44.5016 33.0055 44.7487 32.9387 44.9985 32.9526C45.2523 32.9366 45.5055 33.0005 45.7243 33.1361C45.9876 33.3197 46.0421 33.6425 46.0421 34.0095H44.1743C44.1817 34.3998 44.3036 34.7447 45.0086 34.7447C45.3244 34.7361 45.6388 34.6991 45.9478 34.6341V34.8332C45.6341 34.9005 45.3149 34.9393 44.9938 34.9492" fill="black"/>
<path d="M48.3616 33.2833C48.1259 33.1974 47.8782 33.1544 47.6284 33.1561C46.9988 33.1561 46.7005 33.3772 46.7005 33.9554C46.7005 34.5027 46.9456 34.7426 47.4196 34.7426C47.7374 34.7272 48.0532 34.6779 48.3616 34.5955V33.2833ZM48.402 34.8996L48.3831 34.789C48.062 34.879 47.7334 34.9345 47.4015 34.9549C47.1712 34.9729 46.9429 34.9034 46.7578 34.7592C46.5457 34.5756 46.4736 34.2794 46.4736 33.9576C46.4736 33.6194 46.58 33.3009 46.8769 33.1285C47.1039 33.0079 47.3557 32.9486 47.6102 32.956C47.8647 32.9597 48.1179 32.9998 48.3616 33.0754V32.2075H48.5737V34.8996H48.402Z" fill="black"/>
<path d="M51.6845 33.1639C51.366 33.1784 51.0503 33.2284 50.7419 33.3131V34.6188C50.9769 34.7074 51.2253 34.7519 51.4758 34.7503C52.1053 34.7503 52.4029 34.5292 52.4029 33.951C52.4029 33.407 52.1592 33.1639 51.6845 33.1639ZM52.2272 34.7835C52.001 34.9013 51.7505 34.9593 51.498 34.9526C51.2213 34.9509 50.9466 34.9027 50.6846 34.81L50.6739 34.8996H50.5298V32.2075H50.7419V33.1108C51.0563 33.0268 51.3782 32.9742 51.7027 32.9538C51.9323 32.937 52.1606 33.006 52.3457 33.1484C52.5578 33.3319 52.6298 33.6282 52.6298 33.951C52.6298 34.2738 52.5241 34.6077 52.2272 34.7835Z" fill="black"/>
<path d="M52.9121 35.6228V35.4171C53.0178 35.4282 53.1134 35.4359 53.1814 35.4359C53.444 35.4359 53.6056 35.3564 53.7497 35.0456L53.8183 34.8953L52.8643 33.0015H53.11L53.9234 34.6366H53.9368L54.7098 33.0015H54.9515L53.9294 35.1286C53.7429 35.5144 53.5416 35.6416 53.1706 35.6416C53.0831 35.6411 52.9956 35.6348 52.9087 35.6228" fill="black"/>
<path d="M57.8806 33.8186H57.1763V34.482H57.8806C58.3661 34.482 58.5492 34.4256 58.5492 34.1503C58.5492 33.854 58.2974 33.8186 57.8766 33.8186M57.7493 32.7485H57.1743V33.4228H57.7533C58.2314 33.4228 58.4219 33.3631 58.4219 33.0824C58.4219 32.7816 58.1802 32.7507 57.7493 32.7507M58.8428 34.7274C58.5835 34.8999 58.2705 34.9065 57.6995 34.9065H56.6235V32.3306H57.6739C58.1668 32.3306 58.4691 32.3372 58.7202 32.4953C58.8037 32.5472 58.8717 32.6225 58.9162 32.7125C58.9606 32.8026 58.9801 32.9039 58.972 33.0049C58.972 33.2748 58.8663 33.4549 58.5835 33.5754V33.5898C58.9013 33.665 59.1047 33.8341 59.1047 34.1979C59.1128 34.3017 59.0926 34.4058 59.0461 34.4982C58.9996 34.5905 58.9296 34.6673 58.8428 34.7197" fill="black"/>
<path d="M61.2559 34.1038C61.0438 34.085 60.8317 34.0739 60.6015 34.0739C60.2318 34.0739 60.1012 34.1524 60.1012 34.3293C60.1012 34.5062 60.2076 34.5836 60.4937 34.5836C60.7509 34.5748 61.0061 34.5377 61.2559 34.473V34.1038ZM61.3616 34.8987L61.3482 34.7881C61.0263 34.8826 60.6957 34.9383 60.3624 34.954C60.1692 34.9675 59.9773 34.9188 59.8117 34.8146C59.741 34.7525 59.6857 34.6728 59.6514 34.583C59.6171 34.4931 59.6043 34.3957 59.615 34.2996C59.6258 34.2035 59.6588 34.1116 59.7113 34.0321C59.7645 33.9525 59.8352 33.888 59.918 33.8439C60.1086 33.75 60.3644 33.7423 60.5988 33.7423C60.788 33.7423 61.0438 33.7533 61.2559 33.7688V33.7345C61.2559 33.4383 61.0694 33.341 60.5584 33.341C60.3611 33.341 60.1194 33.352 59.8891 33.3741V32.9916C60.1449 32.9695 60.4331 32.9551 60.6708 32.9551C60.9886 32.9551 61.3138 32.9805 61.5185 33.1309C61.7232 33.2813 61.7669 33.499 61.7669 33.7799V34.9009L61.3616 34.8987Z" fill="black"/>
<path d="M64.1352 34.8985V33.8537C64.1352 33.5088 63.9662 33.385 63.6645 33.385C63.4134 33.3966 63.1649 33.4366 62.9225 33.5044V34.8995H62.4155V33.0047H62.8289L62.8471 33.1251C63.1629 33.0281 63.4888 32.9703 63.818 32.9527C64.0416 32.9341 64.2638 33.0035 64.4402 33.1472C64.5836 33.2821 64.6374 33.4701 64.6374 33.7399V34.8985H64.1352Z" fill="black"/>
<path d="M66.07 34.9524C65.8356 34.9524 65.5805 34.9182 65.394 34.7535C65.1711 34.5655 65.1064 34.2703 65.1064 33.9508C65.1064 33.6512 65.2 33.324 65.4768 33.1404C65.7037 32.9868 65.9831 32.9536 66.2746 32.9536C66.4867 32.9536 66.688 32.968 66.9109 32.9901V33.3958C66.7271 33.377 66.5083 33.3626 66.3319 33.3626C65.8498 33.3626 65.6229 33.5196 65.6229 33.9552C65.6229 34.3632 65.7926 34.5401 66.1878 34.5401C66.4443 34.5313 66.6995 34.4988 66.95 34.4428V34.832C66.6598 34.9024 66.3635 34.9427 66.0659 34.9524" fill="black"/>
<path d="M68.4528 33.3505C67.9707 33.3505 67.7586 33.5086 67.7586 33.9398C67.7586 34.3709 67.9707 34.5544 68.4528 34.5544C68.9349 34.5544 69.1396 34.4008 69.1396 33.9696C69.1396 33.5384 68.9349 33.3505 68.4528 33.3505ZM69.3234 34.7535C69.1005 34.9105 68.809 34.9524 68.4528 34.9524C68.0966 34.9524 67.799 34.9071 67.5795 34.7535C67.327 34.581 67.2368 34.2957 67.2368 33.9552C67.2368 33.6147 67.327 33.324 67.5795 33.1515C67.799 32.9978 68.0892 32.9536 68.4528 32.9536C68.8164 32.9536 69.1005 32.9978 69.3234 33.1515C69.5746 33.324 69.6614 33.6136 69.6614 33.9508C69.6614 34.288 69.5712 34.581 69.3234 34.7535Z" fill="black"/>
<path d="M72.5875 34.9522C72.2819 34.9522 71.9513 34.8991 71.7035 34.6858C71.4086 34.4304 71.3184 34.0368 71.3184 33.6134C71.3184 33.2342 71.4342 32.7842 71.818 32.5221C72.1169 32.3199 72.4866 32.2778 72.8609 32.2778C73.1343 32.2778 73.415 32.2966 73.7207 32.3232V32.7842C73.4588 32.7621 73.1343 32.7433 72.8831 32.7433C72.1815 32.7433 71.8833 33.0208 71.8833 33.6134C71.8833 34.2059 72.16 34.4868 72.6778 34.4868C73.0474 34.4734 73.4144 34.422 73.7746 34.3331V34.7908C73.3847 34.8847 72.9875 34.9388 72.5875 34.9522Z" fill="black"/>
<path d="M75.2647 33.2902C74.8412 33.2902 74.6823 33.4484 74.6493 33.7325H75.8727C75.8579 33.4251 75.6848 33.2902 75.2647 33.2902ZM75.1886 34.9486C74.891 34.9486 74.6203 34.911 74.419 34.7385C74.2177 34.5661 74.1274 34.2698 74.1274 33.947C74.1274 33.6584 74.2177 33.3355 74.4702 33.1476C74.6924 32.9829 74.9765 32.9497 75.2647 32.9497C75.5239 32.9497 75.8289 32.9796 76.0518 33.141C76.3433 33.3543 76.3696 33.6849 76.3696 34.0741H74.6459C74.6567 34.3637 74.8041 34.5506 75.3145 34.5506C75.639 34.5432 75.9629 34.5107 76.2827 34.4533V34.8247C75.9218 34.8962 75.5562 34.9376 75.1886 34.9486Z" fill="black"/>
<path d="M78.6272 34.8985V33.8537C78.6272 33.5088 78.4588 33.385 78.1565 33.385C77.9061 33.3966 77.6569 33.4366 77.4145 33.5044V34.8995H76.9082V33.0047H77.3216L77.3391 33.1251C77.6556 33.0281 77.9815 32.9703 78.31 32.9527C78.5336 32.9341 78.7558 33.0035 78.9329 33.1472C79.0756 33.2821 79.1295 33.4701 79.1295 33.7399V34.8985H78.6272Z" fill="black"/>
<path d="M80.5748 34.9519C80.3297 34.9519 80.1075 34.88 79.9856 34.681C79.8853 34.5089 79.8388 34.309 79.8516 34.1083V33.3985H79.4854V33.005H79.8516L79.9062 32.4312H80.3533V33.005H81.069V33.3985H80.3533V34.0066C80.3465 34.129 80.3634 34.2516 80.4031 34.367C80.4569 34.4942 80.5761 34.5428 80.735 34.5428C80.8569 34.5405 80.9781 34.5279 81.0973 34.5052V34.8844C80.9249 34.9234 80.7492 34.9459 80.5728 34.9519" fill="black"/>
<path d="M81.5664 34.8994V33.0056H81.9798L81.9973 33.1261C82.2875 33.0234 82.5905 32.9652 82.8962 32.9536C82.9177 32.9523 82.9393 32.9523 82.9608 32.9536V33.4124C82.9036 33.4124 82.8349 33.4124 82.7851 33.4124C82.5447 33.4135 82.305 33.4461 82.0727 33.5097V34.9082L81.5664 34.8994Z" fill="black"/>
<path d="M84.8048 34.1038C84.5934 34.085 84.3813 34.0739 84.1503 34.0739C83.78 34.0739 83.6507 34.1524 83.6507 34.3293C83.6507 34.5062 83.7564 34.5836 84.0419 34.5836C84.2991 34.5748 84.555 34.5377 84.8048 34.473V34.1038ZM84.9112 34.8987L84.8964 34.7881C84.5745 34.8826 84.2439 34.9383 83.9106 34.954C83.7174 34.9675 83.5255 34.9188 83.3605 34.8146C83.2932 34.7613 83.24 34.6916 83.205 34.6119C83.17 34.5321 83.1538 34.4446 83.1592 34.3569C83.1538 34.2491 83.1808 34.1423 83.2353 34.0507C83.2898 33.959 83.37 33.887 83.4649 33.8439C83.6561 33.75 83.9106 33.7423 84.1449 33.7423C84.3355 33.7423 84.5907 33.7533 84.8028 33.7688V33.7345C84.8028 33.4383 84.6156 33.341 84.1052 33.341C83.9073 33.341 83.6669 33.352 83.4366 33.3741V32.9916C83.6918 32.9695 83.9793 32.9551 84.217 32.9551C84.5348 32.9551 84.86 32.9805 85.0647 33.1309C85.2694 33.2813 85.3131 33.499 85.3131 33.7799V34.9009L84.9112 34.8987Z" fill="black"/>
<path d="M85.9634 32.2075H86.4711V34.8996H85.9634V32.2075Z" fill="black"/>
</svg>
