<svg width="33" height="32" viewBox="0 0 33 32" fill="none" xmlns="http://www.w3.org/2000/svg">
<g clip-path="url(#clip0_14885_51478)">
<path d="M14.7775 0.0221616C25.5505 -0.518722 34.01 8.92078 31.7315 19.6131C29.2014 31.4857 14.9212 35.8218 5.71758 28.1965C-5.19305 19.1568 0.437907 0.742126 14.7775 0.0221616ZM14.8323 2.5094C14.2515 3.51523 13.5865 3.86513 12.65 4.46443C12.506 4.55657 12.2861 4.63756 12.1524 4.76256C11.8115 5.08137 12.0661 5.22466 12.1048 5.57799C12.1385 5.88646 12.0839 6.20463 12.0589 6.51039C12.0283 6.51468 11.8213 6.96641 11.7606 7.05311C11.5573 7.34359 11.1843 7.6078 10.8768 7.78343C10.1242 8.05111 9.36207 8.06922 8.649 8.46542C8.12195 8.75826 7.73418 9.18251 7.42143 9.69299C7.02641 10.3377 6.98096 10.6557 6.83037 11.3752C6.67654 12.1103 6.15932 12.4622 5.409 12.2811C5.37426 12.2727 5.37352 12.2112 5.36574 12.2082C5.33757 12.1971 5.28771 12.2448 5.23987 12.2176C5.22025 12.2064 4.95203 11.9335 4.92193 11.8969C4.73296 11.6669 4.64981 11.3898 4.42068 11.1934C4.11165 10.9285 4.01846 11.0919 3.78416 11.3298C3.76917 11.345 3.75278 11.3592 3.73869 11.3752C3.69169 11.4288 3.67937 11.4684 3.64776 11.5116C3.63291 11.5319 3.5919 11.5461 3.55683 11.6026C3.41391 11.8326 3.10163 12.3692 3.45273 12.5477C3.80354 12.7261 4.09715 12.5255 4.37675 13.0332C4.66102 13.5494 4.47001 13.9961 4.56759 14.4791C4.69662 15.1179 5.66724 14.6426 6.12545 14.6448C7.02076 14.6491 8.14215 15.137 8.83086 15.6945C9.59082 16.3096 9.65078 16.7237 10.0963 17.4979C10.4805 18.1655 11.2338 18.0528 11.8763 18.3096C12.5359 18.5732 13.0237 19.1136 13.241 19.7864V20.6048C13.0388 21.227 12.609 21.6789 12.369 22.2561C12.114 22.8693 12.1687 23.5673 11.627 24.0601C11.317 24.3421 10.8822 24.397 10.604 24.7422C10.4547 24.9275 10.3772 25.1368 10.3312 25.3787C10.1922 25.6376 10.0122 25.8934 9.78622 26.084C9.58637 26.2525 8.88605 26.5618 8.83825 26.7303C8.77817 26.9421 9.09974 27.7573 9.14913 28.0612C9.20349 28.3957 9.2416 28.6873 9.01273 28.9705C8.95595 29.0347 8.79971 29.1114 8.87676 29.1746C9.03673 29.3057 9.61089 29.5522 9.83111 29.6525C10.4858 29.9504 11.1762 30.2198 11.8771 30.3799C12.5647 30.6068 13.2464 30.7756 13.9685 30.88C15.038 31.0347 16.2053 31.058 17.2875 31.0164C17.4996 31.0083 17.7127 30.9889 17.924 30.971C18.2736 30.9413 18.624 30.8921 18.9697 30.8346C24.1043 29.9809 28.4056 26.2709 30.1998 21.4232C30.6611 20.1767 30.8399 19.1902 30.9727 17.8768C30.9742 17.8618 30.9713 17.8464 30.9727 17.8314C30.9734 17.8242 31.0102 17.7881 31.0182 17.695C31.0312 17.5421 31.0526 17.3933 31.0636 17.2403C31.0821 16.9845 31.0585 16.7234 31.1082 16.4684C30.663 16.3974 30.2146 16.3547 29.7906 16.1946C29.7834 16.1428 29.0442 15.6993 28.9267 15.6035C28.9105 15.5903 28.8977 15.5717 28.8813 15.5581C28.865 15.5446 28.8521 15.5264 28.8358 15.5126C28.7481 15.4383 28.4888 15.0658 28.3812 15.1493C28.4783 15.2608 28.5307 15.4065 28.608 15.5265C28.6357 15.5695 28.6968 15.554 28.6994 15.5581C28.8849 15.8466 28.9844 16.1459 29.2659 16.4238C29.5322 16.6866 29.8761 16.7968 30.1543 17.013C30.5869 17.3491 30.6514 17.7581 30.609 18.286C30.4313 18.7235 30.2739 18.9861 29.9276 19.3096C29.2271 19.9642 28.1698 20.5423 28.0629 21.605C28.054 21.6937 28.0698 21.7884 28.0629 21.8778C28.0606 21.9078 28.0655 21.9388 28.0629 21.9688C28.0235 22.4119 28.0081 22.8193 27.8356 23.2418C27.8006 23.2466 27.5319 23.733 27.4497 23.8334C27.1609 24.1862 26.7148 24.4171 26.4528 24.7461C26.0099 25.3021 25.7368 26.1195 25.244 26.7427C25.2199 26.7732 25.1548 26.8229 25.1076 26.8791C25.0543 26.9425 24.954 27.0239 24.8803 27.1064C24.7263 27.2122 24.5785 27.3676 24.4256 27.4701C24.4076 27.4822 24.3951 27.5059 24.3802 27.5156C23.6797 27.9694 22.3203 28.3023 21.5496 27.9137C20.8299 27.551 21.0307 26.582 20.9646 25.9526C20.8955 25.2945 20.6031 24.8733 20.6065 24.1056C20.6066 24.0754 20.6056 24.045 20.6065 24.0147C20.6101 23.8861 20.6359 23.8101 20.652 23.6965C20.6561 23.6675 20.6467 23.6332 20.652 23.6055C20.6598 23.5642 20.6426 23.5071 20.652 23.4691C20.7317 23.1472 20.9865 22.7761 21.0612 22.4234C21.109 22.1973 21.1284 21.9253 21.1066 21.696C21.0684 21.2926 20.8413 21.0017 20.6974 20.6502C20.6443 20.5074 20.6756 20.3254 20.652 20.1956C20.6466 20.166 20.6097 20.129 20.6065 20.1047C20.5795 19.8464 20.6631 19.4758 20.561 19.2408C20.5104 19.1242 20.3161 19.0024 20.1973 18.968C19.7289 18.8324 19.3387 18.9934 18.9033 19.0152C18.5637 19.0323 18.2179 18.9967 17.8785 19.0135C17.3408 18.9064 16.8433 18.777 16.3643 18.5045C16.2197 18.4222 15.9577 18.2522 15.8326 18.1496C15.8043 18.1264 15.7385 18.0532 15.6962 18.0132C15.6604 17.9793 15.5906 17.9108 15.5598 17.8768C15.5298 17.8438 15.4863 17.8072 15.4689 17.7859C15.0908 17.3257 14.8146 16.6724 14.6505 16.1037C14.5623 15.3392 14.6107 14.622 14.7869 13.8758C14.8085 13.8778 14.8225 13.8747 14.8315 13.8525C15.1079 12.8107 15.7299 12.0665 16.56 11.4207C17.7533 10.702 19.3143 10.4442 20.6974 10.5568C20.7006 10.5571 20.7082 10.5978 20.7429 10.6023C20.7988 10.6096 20.8784 10.5898 20.9248 10.6023C20.9392 10.6062 20.9568 10.598 20.9702 10.6023C20.9751 10.6039 21.0274 10.6337 21.0612 10.6478C21.6409 10.8906 21.8877 11.4765 22.607 11.739C23.4444 12.0445 23.6224 11.723 24.3802 11.6026C24.9143 11.5176 26.1782 11.7064 26.4718 11.2618C26.9736 10.5021 25.7015 10.1598 25.2432 9.89843C25.134 9.83615 25.0281 9.76491 24.9257 9.69299C24.891 9.66861 24.752 9.54716 24.7443 9.55661C24.7197 9.90297 24.6176 10.2247 24.4256 10.5114C24.1865 10.711 24.0206 10.8521 23.6982 10.9206C23.4605 10.9118 23.2469 10.9052 23.0162 10.8296C22.0965 10.3496 22.1308 9.9432 21.5989 9.22341C20.81 8.1559 19.8456 9.58748 19.1931 10.0755C18.961 10.2492 18.6901 10.3696 18.4696 10.5568C18.4215 10.5626 18.3852 10.6015 18.3787 10.6023C18.0024 10.6479 17.6921 10.8053 17.2875 10.8296C15.7004 10.9251 15.0745 9.85337 15.4086 8.38244C15.5921 7.57471 16.0052 7.14023 16.8328 7.01051C17.2134 6.95087 17.8874 7.05164 17.8219 6.49994C17.7532 5.92086 17.5615 5.75152 17.6967 5.05548C17.7955 4.54637 18.1092 4.25605 18.5151 3.9643C18.8876 3.78654 19.2655 3.77415 19.6517 3.69151C20.0642 3.60323 20.0354 3.29066 20.2237 2.96775C20.3332 2.78016 20.4678 2.60986 20.6282 2.4629L21.4246 1.96438C20.3614 1.62078 19.1553 1.18282 18.0342 1.09839C17.9447 1.09165 17.8529 1.14694 17.8331 1.14543C17.8583 1.00134 17.7607 1.06444 17.6745 1.05593C16.8186 0.971374 15.9663 0.941493 15.1049 0.963331C15.1418 1.49878 15.0043 2.01029 14.8323 2.5094ZM14.0596 1.05434C9.39687 1.43713 4.89632 4.59744 2.71474 8.69177C2.24838 9.56703 1.48754 11.4648 1.52774 12.4365C1.56369 13.3056 2.28501 13.661 2.7371 14.2182C2.97835 14.5155 3.10398 14.883 3.33059 15.1705C3.65117 15.5773 4.04463 15.6555 4.21615 16.24C4.4493 17.0345 3.82232 17.4862 3.74427 18.2234C3.5459 20.0972 5.33009 20.344 5.88378 21.7105C6.22744 22.5587 6.14885 23.5493 6.23966 24.4463C6.36766 25.7105 6.66814 27.1838 7.71805 28.0146C7.78588 28.0683 8.15371 28.3489 8.15053 28.174C8.13967 27.5762 7.68773 26.8176 7.92604 26.2243C8.11323 25.7583 8.93725 25.6492 9.26492 25.2899C9.50642 25.0251 9.50551 24.5897 9.66245 24.278C9.99589 23.6157 11.0077 23.5796 11.2185 22.8788C11.3222 22.5342 11.3118 22.2078 11.4597 21.8469C11.7657 21.1 13.0396 20.0411 11.8331 19.3529C11.1787 18.9796 10.3659 19.0212 9.71854 18.5123C9.2211 18.1212 9.20949 17.7318 8.94642 17.2384C8.54791 16.491 7.24394 15.6649 6.39775 15.6043C5.57598 15.5453 4.77433 16.0587 4.03524 15.4207C3.47553 14.9375 3.67396 14.4091 3.60314 13.8068C3.54962 13.3517 2.78191 13.4489 2.49139 13.0545C1.61979 11.8712 3.69321 8.9618 5.1483 10.4561C5.28472 10.5962 5.61283 11.2108 5.723 11.2312C5.97149 11.2774 5.94369 10.7342 5.98765 10.5552C6.33122 9.15642 7.413 7.85922 8.75447 7.32059C9.3568 7.07874 10.3593 7.03919 10.8082 6.60087C11.4378 5.98606 10.8601 5.37703 10.9786 4.67987C11.1135 3.88573 12.4349 3.43802 13.0288 3.00187C13.6683 2.53219 14.1007 1.87762 14.0596 1.05434ZM16.4236 8.46542C16.2976 8.91359 16.2155 9.509 16.6964 9.73846C17.0898 9.92614 17.6057 9.81761 18.0004 9.65574C19.1925 9.16695 19.8761 7.41487 21.45 7.91746C22.5476 8.26797 22.5153 9.32901 23.1558 9.75803C23.9327 10.2784 23.776 9.09645 24.2454 8.71706C24.9035 8.18506 25.4509 8.89365 25.9577 9.18392C26.5918 9.5471 27.2809 9.65481 27.5042 10.5017C27.7822 11.5558 27.0319 12.3036 26.0624 12.5119C25.62 12.5397 25.1351 12.474 24.6984 12.5119C24.3409 12.5429 24.0438 12.7196 23.6982 12.7847C23.1839 12.8814 22.7787 12.7943 22.2887 12.6483C21.9896 12.5187 21.6079 12.3492 21.3463 12.1586C21.1262 11.9982 20.8772 11.636 20.652 11.5571C20.4118 11.4729 19.7075 11.4941 19.4244 11.5116L19.3789 11.5571C19.2761 11.565 19.1597 11.5444 19.0607 11.5571C17.4024 11.7688 16.0833 12.64 15.6962 14.3305C15.6005 14.7486 15.568 15.2658 15.6053 15.6945C15.7093 16.8899 16.5578 17.7215 17.6967 17.9678C18.1915 18.0747 18.4399 18.0375 18.9243 18.0132C18.9545 18.0117 18.985 18.0145 19.0152 18.0132C19.2134 18.0047 19.3932 17.9705 19.6063 17.9678C20.2209 17.96 20.8019 17.9945 21.2163 18.5174C21.7445 19.1838 21.4742 19.8197 21.7209 20.5134C21.7792 20.6772 21.9023 20.856 21.9705 21.014C21.9518 21.1244 22.0614 21.3251 22.0614 21.4004V22.3552C22.0614 22.3886 21.9081 22.8742 21.8796 22.969C21.8754 22.9829 21.8837 23.0005 21.8796 23.0145C21.7904 23.0939 21.7437 23.2146 21.7432 23.3327C21.6623 23.5407 21.5834 23.6888 21.5613 23.9238C21.5352 24.2013 21.5617 24.5141 21.6068 24.7876C21.6625 25.1256 21.7862 25.4284 21.8341 25.7879C21.9068 26.3334 21.7355 27.4028 22.6525 27.1064C22.6826 27.1062 22.7134 27.1081 22.7434 27.1064C22.9842 27.0925 23.1567 27.0558 23.3799 26.97C24.1181 26.6861 24.6949 25.9906 25.0699 25.3183C25.2781 24.945 25.4305 24.4364 25.679 24.1087C26.0253 23.6518 26.6699 23.4736 26.9263 22.8781C26.998 22.7113 27.0042 22.6464 27.0172 22.4689C27.0183 22.4538 27.0164 22.4385 27.0172 22.4234C27.1726 21.9202 27.0597 21.3879 27.1991 20.8776C27.2029 20.8635 27.1949 20.846 27.1991 20.8321C27.2005 20.8272 27.2297 20.7778 27.2445 20.7412C27.4008 20.3542 27.8543 19.7884 28.152 19.489C28.5138 19.1252 29.0981 18.7673 29.4046 18.3774C29.9272 17.7125 29.3208 17.7382 28.8851 17.3956C28.1584 16.8243 26.9353 14.8121 26.9228 13.8984C26.9141 13.2649 27.4231 13.1713 27.9121 13.4128C28.8037 13.8533 29.6021 15.2449 30.5181 15.4217C30.6985 15.4565 30.882 15.4561 31.061 15.4191C31.0635 15.2846 31.0692 15.147 31.0636 15.0125C30.8667 10.2792 27.9523 5.71397 23.9671 3.26344C23.2269 2.80825 22.7648 2.51962 21.8628 2.87908C20.7903 3.30645 21.1066 4.30355 20.1767 4.64844C19.7052 4.82333 19.0104 4.66663 18.7328 5.15955C18.4278 5.70121 18.7915 5.98888 18.8352 6.48567C18.9112 7.34981 18.3373 7.84212 17.5321 7.95978C17.0415 8.03146 16.5986 7.84319 16.4236 8.46542ZM1.01075 14.3305C0.943228 15.1101 0.933594 16.0018 0.965283 16.7857C0.972681 16.9686 0.995868 17.1487 1.01075 17.3312C1.04808 17.7892 1.10959 18.244 1.19261 18.6952C1.22451 18.8686 1.26207 19.042 1.28434 19.2175C1.29317 19.24 1.3073 19.243 1.32901 19.2408C1.43491 20.021 1.71465 20.787 2.011 21.5141C2.12007 21.7817 2.25146 22.0279 2.37472 22.287C2.53593 22.6259 2.68956 22.9603 2.87485 23.2873C3.6063 24.5779 4.53938 25.8246 5.6716 26.7878C5.85221 26.8643 5.61398 26.4105 5.60279 26.3789C5.56091 26.0527 5.50942 25.6764 5.37546 25.3787C5.37378 25.3637 5.37715 25.3482 5.37546 25.3332C5.28615 24.5416 5.28863 23.713 5.1936 22.9235C5.1918 22.9086 5.19558 22.893 5.1936 22.8781C5.12974 22.3972 5.01365 21.9274 4.69348 21.5596C4.49914 21.3363 4.35269 21.2974 4.19335 21.1504C4.15123 21.1115 4.10971 21.0623 4.05696 21.014C4.02816 20.9876 3.9982 20.9533 3.96603 20.923C3.91651 20.8765 3.82975 20.7902 3.78416 20.7412C3.75378 20.7085 3.71546 20.6758 3.69323 20.6502C3.66153 20.6139 3.62071 20.5817 3.6023 20.5593C3.20461 20.0762 2.91601 19.4906 2.78391 18.8771C2.76055 18.641 2.79645 18.4231 2.82938 18.1951C2.91292 17.6166 3.18139 17.2428 3.27376 16.7984C3.38492 16.2637 2.82889 16.1163 2.55658 15.7627C2.37829 15.5312 2.32042 15.2339 2.16722 15.0154C1.90512 14.6416 1.36716 14.3423 1.07873 13.967C1.01087 14.0761 1.02122 14.2095 1.01075 14.3305Z" fill="#070A08"/>
<path d="M2.71588 8.69114C2.24952 9.56638 1.48868 11.4641 1.52887 12.4358C1.56483 13.305 2.28615 13.6603 2.73824 14.2175C2.97949 14.5149 3.10511 14.8823 3.33173 15.1699C3.65231 15.5767 4.04577 15.6549 4.21728 16.2394C4.45044 17.0339 3.82346 17.4855 3.74541 18.2228C3.54705 20.0965 5.33124 20.3433 5.88492 21.7099C6.22858 22.558 6.14999 23.5486 6.2408 24.4457C6.36879 25.7099 6.66928 27.1832 7.71919 28.014C7.78702 28.0676 8.15484 28.3483 8.15167 28.1734C8.14081 27.5755 7.68887 26.817 7.92718 26.2237C8.11437 25.7576 8.93839 25.6486 9.26606 25.2893C9.50755 25.0244 9.50665 24.5891 9.66359 24.2773C9.99703 23.615 11.0088 23.579 11.2197 22.8781C11.3233 22.5335 11.3129 22.2072 11.4608 21.8462C11.7668 21.0993 13.0408 20.0405 11.8343 19.3523C11.1798 18.979 10.367 19.0206 9.71968 18.5116C9.22224 18.1205 9.21063 17.7312 8.94755 17.2378C8.54905 16.4904 7.24507 15.6643 6.39889 15.6036C5.57711 15.5447 4.77547 16.0581 4.03638 15.42C3.47667 14.9368 3.67509 14.4085 3.60427 13.8062C3.55076 13.3511 2.78305 13.4483 2.49253 13.0538C1.62092 11.8705 3.69435 8.96116 5.14944 10.4555C5.28586 10.5955 5.61397 11.2101 5.72414 11.2306C5.97263 11.2768 5.94482 10.7336 5.98879 10.5546C6.33236 9.15577 7.41414 7.85858 8.75561 7.31995C9.35794 7.0781 10.3604 7.03855 10.8093 6.60023C11.439 5.98542 10.8612 5.37639 10.9797 4.67923C11.1146 3.88508 12.436 3.43738 13.0299 3.00122C13.6695 2.53154 14.1018 1.87699 14.0607 1.05371C9.39801 1.43649 4.89746 4.59681 2.71588 8.69114Z" fill="#167A3C"/>
<path d="M31.0643 15.012C30.8673 10.2787 27.9529 5.71351 23.9678 3.26297C23.2275 2.80779 22.7654 2.51916 21.8634 2.87862C20.791 3.30598 21.1072 4.30308 20.1774 4.64798C19.7059 4.82286 19.011 4.66616 18.7334 5.15908C18.4284 5.70074 18.7921 5.98842 18.8358 6.4852C18.9119 7.34934 18.3379 7.84165 17.5327 7.95931C17.0421 8.031 16.5992 7.84272 16.4243 8.46495C16.2983 8.91313 16.2162 9.50853 16.6971 9.73799C17.0904 9.92568 17.6063 9.81714 18.0011 9.65527C19.1931 9.16648 19.8767 7.4144 21.4506 7.917C22.5483 8.26751 22.5159 9.32855 23.1564 9.75756C23.9333 10.278 23.7767 9.09598 24.246 8.7166C24.9041 8.18459 25.4515 8.89319 25.9583 9.18345C26.5925 9.54663 27.2815 9.65435 27.5049 10.5013C27.7828 11.5553 27.0326 12.3032 26.063 12.5114C25.6206 12.5393 25.1357 12.4736 24.6991 12.5114C24.3415 12.5424 24.0444 12.7192 23.6988 12.7842C23.1846 12.881 22.7793 12.7938 22.2894 12.6478C21.9903 12.5182 21.6086 12.3488 21.3469 12.1581C21.1269 11.9978 20.8778 11.6355 20.6526 11.5566C20.4125 11.4725 19.7081 11.4936 19.425 11.5112C19.4199 11.5115 19.4122 11.5214 19.4043 11.5319L19.3796 11.5566C19.2767 11.5646 19.1603 11.544 19.0613 11.5566C17.4031 11.7684 16.0839 12.6396 15.6968 14.33C15.6011 14.7482 15.5686 15.2653 15.6059 15.694C15.7099 16.8895 16.5585 17.7211 17.6973 17.9673C18.1921 18.0743 18.4405 18.0371 18.9249 18.0128C18.9551 18.0113 18.9856 18.0141 19.0158 18.0128C19.214 18.0043 19.3939 17.97 19.6069 17.9673C20.2215 17.9595 20.8025 17.994 21.2169 18.5169C21.7451 19.1834 21.4748 19.8192 21.7215 20.5129C21.7798 20.6768 21.9029 20.8555 21.9711 21.0135C21.9524 21.124 22.062 21.3246 22.062 21.4V22.3547C22.062 22.3882 21.9087 22.8737 21.8802 22.9685C21.876 22.9824 21.8843 23.0001 21.8802 23.014C21.791 23.0934 21.7443 23.2141 21.7438 23.3323C21.6629 23.5403 21.584 23.6883 21.5619 23.9233C21.5358 24.2008 21.5623 24.5137 21.6074 24.7872C21.6631 25.1252 21.7868 25.428 21.8347 25.7874C21.9074 26.333 21.7362 27.4024 22.6531 27.1059C22.6833 27.1058 22.714 27.1077 22.744 27.1059C22.9849 27.092 23.1573 27.0554 23.3806 26.9695C24.1187 26.6856 24.6956 25.9901 25.0706 25.3178C25.2788 24.9446 25.4311 24.436 25.6796 24.1082C26.026 23.6513 26.6705 23.4731 26.9269 22.8776C26.9987 22.7109 27.0048 22.646 27.0178 22.4684C27.0189 22.4534 27.017 22.4381 27.0178 22.4229C27.1733 21.9198 27.0604 21.3874 27.1997 20.8771C27.2035 20.863 27.1955 20.8455 27.1997 20.8316L27.2038 20.8235C27.2125 20.8071 27.2333 20.7701 27.2451 20.7407C27.4014 20.3538 27.8549 19.788 28.1526 19.4886C28.5144 19.1247 29.0987 18.7669 29.4052 18.3769C29.9278 17.7121 29.3214 17.7377 28.8857 17.3952C28.1591 16.8239 26.9359 14.8117 26.9234 13.8979C26.9147 13.2644 27.4238 13.1708 27.9128 13.4124C28.8043 13.8528 29.6028 15.2445 30.5187 15.4212C30.6991 15.456 30.8826 15.4556 31.0616 15.4187C31.0641 15.2842 31.0699 15.1465 31.0643 15.012Z" fill="#167A3C"/>
<path d="M29.7916 16.1947C29.7845 16.1429 29.0453 15.6994 28.9278 15.6036L28.8823 15.5582C28.8661 15.5447 28.8531 15.5265 28.8369 15.5127C28.7492 15.4384 28.4899 15.0659 28.3822 15.1494C28.4794 15.2609 28.5318 15.4066 28.609 15.5266C28.6367 15.5696 28.6978 15.5541 28.7005 15.5582C28.886 15.8467 28.9854 16.146 29.2669 16.4239C29.5333 16.6867 29.8772 16.7969 30.1554 17.0131C30.588 17.3492 30.6524 17.7582 30.61 18.2861C30.4324 18.7236 30.275 18.9862 29.9287 19.3097C29.2281 19.9643 28.1709 20.5424 28.0639 21.6051C28.055 21.6938 28.0708 21.7885 28.0639 21.8779C28.0616 21.9079 28.0666 21.9389 28.0639 21.9689C28.0246 22.412 28.0091 22.8194 27.8366 23.2419C27.8016 23.2467 27.533 23.7331 27.4507 23.8335C27.1619 24.1863 26.7159 24.4172 26.4538 24.7462C26.011 25.3022 25.7378 26.1196 25.2451 26.7428L25.198 26.7898C25.1699 26.8157 25.1363 26.8462 25.1087 26.8792C25.0553 26.9426 24.9551 27.024 24.8813 27.1065C24.7274 27.2123 24.5796 27.3677 24.4267 27.4702C24.4087 27.4823 24.3962 27.506 24.3812 27.5157C23.6807 27.9695 22.3213 28.3024 21.5506 27.9138C20.831 27.551 21.0318 26.5821 20.9657 25.9527C20.8966 25.2946 20.6041 24.8734 20.6076 24.1057C20.6077 24.0755 20.6067 24.0451 20.6076 24.0148C20.6112 23.8862 20.6369 23.8102 20.653 23.6966C20.6571 23.6676 20.6478 23.6333 20.653 23.6056C20.6608 23.5643 20.6436 23.5072 20.653 23.4692C20.7327 23.1473 20.9876 22.7762 21.0622 22.4235C21.1101 22.1974 21.1294 21.9254 21.1077 21.6961C21.0694 21.2927 20.8423 21.0018 20.6985 20.6503C20.6454 20.5075 20.6767 20.3255 20.653 20.1957C20.6476 20.1661 20.6108 20.1291 20.6076 20.1048C20.5806 19.8465 20.6642 19.4759 20.5621 19.2409C20.5114 19.1243 20.3171 19.0025 20.1984 18.9681C19.73 18.8325 19.3397 18.9935 18.9043 19.0153C18.5648 19.0324 18.219 18.9968 17.8796 19.0136C17.3419 18.9065 16.8443 18.7771 16.3653 18.5046C16.2207 18.4223 15.9587 18.2523 15.8336 18.1497L15.7401 18.0562C15.7248 18.0404 15.7099 18.0253 15.6973 18.0133C15.6614 17.9794 15.5917 17.9109 15.5609 17.8769C15.5479 17.8627 15.5325 17.8479 15.5178 17.8338L15.4699 17.786C15.0919 17.3258 14.8157 16.6725 14.6515 16.1038C14.5634 15.3393 14.6118 14.6221 14.7879 13.8759C14.8096 13.8779 14.8235 13.8748 14.8325 13.8526C15.109 12.8108 15.731 12.0666 16.5611 11.4208C17.7544 10.7021 19.3153 10.4443 20.6985 10.5569C20.7017 10.5572 20.7093 10.5979 20.744 10.6024C20.7999 10.6097 20.8795 10.5899 20.9258 10.6024C20.9402 10.6063 20.9579 10.5981 20.9713 10.6024C20.9761 10.604 21.0285 10.6337 21.0622 10.6479C21.6419 10.8907 21.8888 11.4766 22.608 11.7391C23.4455 12.0446 23.6235 11.7231 24.3812 11.6027C24.9154 11.5177 26.1793 11.7065 26.4729 11.2619C26.9746 10.5022 25.7026 10.1599 25.2442 9.89853C25.135 9.83625 25.0292 9.765 24.9268 9.69309C24.8921 9.66871 24.7531 9.54726 24.7454 9.55671C24.7208 9.90306 24.6186 10.2248 24.4267 10.5115C24.1875 10.7111 24.0217 10.8522 23.6992 10.9207C23.4615 10.9119 23.248 10.9053 23.0172 10.8297C22.0976 10.3497 22.1319 9.94329 21.6 9.22351C20.8111 8.15599 19.8466 9.58757 19.1942 10.0756C18.962 10.2493 18.6912 10.3697 18.4707 10.5569C18.4226 10.5627 18.3862 10.6016 18.3797 10.6024C18.0035 10.648 17.6932 10.8054 17.2886 10.8297C15.7014 10.9252 15.0756 9.85347 15.4097 8.38253C15.5931 7.57481 16.0063 7.14033 16.8339 7.01061C17.2144 6.95096 17.8884 7.05174 17.823 6.50004C17.7543 5.92095 17.5626 5.75162 17.6977 5.05558C17.7966 4.54647 18.1103 4.25615 18.5161 3.9644C18.8886 3.78664 19.2666 3.77425 19.6528 3.69161C20.0653 3.60333 20.0364 3.29076 20.2248 2.96784C20.3342 2.78026 20.4689 2.60996 20.6293 2.463L21.4256 1.96448C20.3625 1.62088 19.1563 1.18292 18.0353 1.09849C17.9458 1.09174 17.8539 1.14703 17.8341 1.14553C17.8594 1.00143 17.7617 1.06454 17.6756 1.05603C16.8196 0.97147 15.9673 0.941594 15.106 0.963431C15.1428 1.49888 15.0053 2.01039 14.8334 2.5095C14.2526 3.51533 13.5875 3.86523 12.651 4.46453C12.5071 4.55667 12.2872 4.63766 12.1535 4.76266C11.8125 5.08147 12.0671 5.22476 12.1058 5.57809C12.1396 5.88657 12.085 6.20473 12.06 6.51049C12.0293 6.51478 11.8223 6.96652 11.7617 7.05321C11.5584 7.3437 11.1853 7.60791 10.8779 7.78353C10.1252 8.05121 9.36312 8.06932 8.65005 8.46552C8.123 8.75836 7.73523 9.18261 7.42248 9.69309C7.02746 10.3378 6.98201 10.6558 6.83142 11.3753C6.67759 12.1104 6.16037 12.4623 5.41005 12.2812C5.37532 12.2728 5.37458 12.2113 5.3668 12.2083C5.33863 12.1972 5.28876 12.2449 5.24092 12.2177C5.2213 12.2065 4.95309 11.9336 4.92299 11.897C4.73401 11.667 4.65087 11.3899 4.42174 11.1935C4.11271 10.9286 4.01951 11.092 3.78522 11.3299C3.77023 11.3451 3.75383 11.3593 3.73975 11.3753C3.69275 11.4289 3.68043 11.4685 3.64882 11.5117C3.63396 11.532 3.59296 11.5462 3.55789 11.6027C3.41497 11.8327 3.10269 12.3693 3.45379 12.5478C3.8046 12.7262 4.09821 12.5256 4.3778 13.0333C4.66208 13.5495 4.47107 13.9962 4.56865 14.4792C4.69768 15.118 5.66829 14.6427 6.1265 14.6449C7.02182 14.6492 8.14321 15.1371 8.83192 15.6946C9.59187 16.3097 9.65183 16.7238 10.0974 17.498C10.4816 18.1656 11.2349 18.0529 11.8773 18.3097C12.5369 18.5733 13.0248 19.1137 13.2421 19.7865V20.6049C13.0399 21.2271 12.61 21.679 12.3701 22.2562C12.1151 22.8694 12.1697 23.5674 11.628 24.0602C11.3181 24.3422 10.8832 24.397 10.6051 24.7423C10.4557 24.9276 10.3783 25.1369 10.3323 25.3788C10.1932 25.6377 10.0133 25.8935 9.78727 26.0841C9.58743 26.2526 8.8871 26.5619 8.8393 26.7304C8.77922 26.9422 9.10079 27.7574 9.15017 28.0613C9.20454 28.3958 9.24265 28.6874 9.01378 28.9706C8.957 29.0348 8.80076 29.1115 8.87781 29.1747C9.03778 29.3058 9.61194 29.5523 9.83216 29.6526C10.4868 29.9505 11.1773 30.2199 11.8781 30.38C12.5657 30.6069 13.2475 30.7757 13.9695 30.8801C15.039 31.0348 16.2063 31.0581 17.2885 31.0165C17.5006 31.0084 17.7137 30.989 17.9251 30.9711C18.2747 30.9414 18.6251 30.8922 18.9708 30.8347C24.1054 29.981 28.4066 26.271 30.2008 21.4233C30.6622 20.1768 30.8409 19.1903 30.9738 17.8769C30.9753 17.8619 30.9723 17.8465 30.9738 17.8315C30.9744 17.8243 31.0113 17.7882 31.0192 17.6951C31.0323 17.5422 31.0536 17.3934 31.0647 17.2404C31.0832 16.9846 31.0596 16.7235 31.1093 16.4685C30.664 16.3975 30.2156 16.3548 29.7916 16.1947Z" fill="#1E8ACB"/>
<path d="M5.37679 25.379C5.37511 25.364 5.37848 25.3485 5.37679 25.3335C5.28747 24.5419 5.28995 23.7133 5.19493 22.9238C5.19313 22.9089 5.19691 22.8932 5.19493 22.8784C5.13106 22.3974 5.01498 21.9277 4.6948 21.5599C4.50046 21.3366 4.35402 21.2977 4.19468 21.1507L4.14279 21.0988C4.11688 21.0718 4.08965 21.043 4.05828 21.0143C4.02948 20.9879 3.99952 20.9536 3.96735 20.9233C3.91784 20.8768 3.83108 20.7905 3.78549 20.7415C3.75511 20.7088 3.71678 20.6761 3.69456 20.6505C3.67699 20.6304 3.65695 20.6118 3.63915 20.5951L3.60363 20.5596C3.20594 20.0765 2.91733 19.4909 2.78524 18.8774C2.76188 18.6413 2.79778 18.4234 2.83071 18.1954C2.91425 17.6169 3.18271 17.2431 3.27509 16.7987C3.38625 16.2639 2.83022 16.1166 2.55791 15.763C2.37961 15.5314 2.32174 15.2342 2.16854 15.0157C1.90644 14.6419 1.36848 14.3426 1.08005 13.9673C1.01218 14.0764 1.02255 14.2098 1.01207 14.3308C0.944549 15.1104 0.934915 16.0021 0.966605 16.7859C0.974002 16.9689 0.99719 17.149 1.01207 17.3315C1.0494 17.7895 1.11091 18.2442 1.19393 18.6955C1.22584 18.8689 1.2634 19.0422 1.28566 19.2178C1.29449 19.2403 1.30861 19.2432 1.33033 19.2411C1.43623 20.0213 1.71597 20.7873 2.01232 21.5144C2.12139 21.782 2.25278 22.0282 2.37604 22.2873C2.53725 22.6262 2.69089 22.9606 2.87617 23.2875C3.60763 24.5782 4.5407 25.8249 5.67292 26.788C5.85353 26.8646 5.6153 26.4107 5.60412 26.3792C5.56223 26.0529 5.51074 25.6767 5.37679 25.379Z" fill="#1E8ACB"/>
</g>
<defs>
<clipPath id="clip0_14885_51478">
<rect width="32.1048" height="32" fill="white"/>
</clipPath>
</defs>
</svg>
