<svg width="118" height="28" viewBox="0 0 118 28" fill="none" xmlns="http://www.w3.org/2000/svg">
<path d="M76.0995 10.7666C74.1329 8.98959 71.7584 8.12092 69.0135 8.12092C66.306 8.12092 63.9315 8.99069 61.9638 10.7666C59.9972 12.505 58.9973 14.9248 58.9973 18.0246C58.9973 21.1245 59.9972 23.542 61.9638 25.319C63.9304 27.0575 66.306 27.9272 69.0135 27.9272C71.7584 27.9272 74.1329 27.0575 76.0995 25.319C78.1036 23.542 79.1035 21.1234 79.1035 18.0246C79.1035 14.9259 78.1025 12.505 76.0995 10.7666ZM65.3051 21.9921C64.2678 20.9724 63.7452 19.6484 63.7452 18.0235C63.7452 16.3986 64.2633 15.0758 65.3051 14.0925C65.7881 13.6021 66.3659 13.2153 67.0033 12.9554C67.6406 12.6956 68.3242 12.5682 69.0124 12.5811C69.7063 12.5681 70.3957 12.6953 71.0394 12.955C71.683 13.2146 72.2676 13.6015 72.7582 14.0925C73.8319 15.0758 74.3545 16.3975 74.3545 18.0235C74.3545 19.6495 73.8363 20.9713 72.7582 21.9921C71.7209 22.9743 70.4587 23.4659 69.0124 23.4659C68.3278 23.4768 67.6478 23.3522 67.0115 23.0993C66.3753 22.8463 65.7953 22.47 65.3051 21.9921ZM86.119 27.397V1.46039H81.4449V27.397H86.119ZM101.205 8.65006V18.9991C101.205 21.4927 99.8821 23.1462 97.3643 23.1462C94.8035 23.1462 93.5159 21.4949 93.5159 18.9991V8.65006H88.833V19.7928C88.833 24.1097 91.5041 27.9261 97.3643 27.9261H97.4006C103.224 27.9261 105.891 24.0248 105.891 19.7928V8.65006H101.205ZM54.0234 8.65006L49.3494 21.3494L44.6753 8.65006H39.7047L47.1634 27.3981H51.542L58.9995 8.65006H54.0234ZM39.7267 17.4944C39.7267 14.7737 38.8746 12.5436 37.2045 10.7666C35.5344 8.98959 33.3859 8.12092 30.7512 8.12092C28.0438 8.12092 25.7421 9.06675 23.8504 10.9176C21.994 12.7707 21.0691 15.1133 21.0691 18.0235C21.0691 20.9338 21.9962 23.316 23.814 25.1669C25.6704 27.02 27.8961 27.9261 30.5297 27.9261C34.5754 27.9261 37.4305 26.1116 39.1712 22.4451L35.6855 20.4035C34.5379 22.7086 32.8656 23.8429 30.6035 23.8429C27.8222 23.8429 25.8556 22.0284 25.558 19.1568H39.7256V17.4933L39.7267 17.4944ZM30.6002 11.7488C33.2338 11.7488 34.9788 13.2602 35.4231 15.6799H25.5558C26.2624 13.4498 28.1893 11.7488 30.6013 11.7488H30.6002ZM21.068 27.397L14.7966 16.2101C18.764 14.7362 20.7307 12.1666 20.7307 8.42407C20.7351 3.85033 17.1711 0.938965 11.4961 0.938965H0.40625V27.397H5.30299V16.6632H9.45893L15.4669 27.3981L21.068 27.397ZM11.4961 5.3231C14.3898 5.3231 15.8373 6.49492 15.8373 8.79998C15.8373 11.105 14.3887 12.2769 11.4961 12.2769H5.30299V5.3231H11.4961ZM113.815 27.9261C110.807 27.9261 108.367 25.4392 108.367 22.3702V3.58466H113.041V8.65667H117.049V12.5117H113.041V22.0637C113.041 22.9633 113.757 23.6919 114.641 23.6919H117.049V27.9261H113.815Z" fill="black"/>
</svg>
