<svg width="146" height="26" viewBox="0 0 146 26" fill="none" xmlns="http://www.w3.org/2000/svg">
<path d="M19.5755 11.6851C19.5358 10.7724 19.2804 9.86699 18.8079 9.0486L14.6399 1.82942C14.3221 1.27891 14.1025 0.688965 13.9805 0.0839844L13.8064 0.385695C12.7747 2.17249 12.7747 4.37392 13.8063 6.16075L17.1408 11.9362C18.1724 13.7231 18.1724 15.9246 17.1408 17.7115L16.9665 18.0132C16.8446 17.4082 16.625 16.8183 16.3072 16.2678L13.2546 10.9805L11.3055 7.60464C10.9877 7.05411 10.7682 6.4642 10.6462 5.85925L10.472 6.16096C9.44384 7.94178 9.44066 10.1343 10.4618 11.9179L10.4615 11.9181L13.8064 17.7115C14.838 19.4984 14.838 21.6999 13.8064 23.4868L13.6321 23.7885C13.5102 23.1835 13.2906 22.5936 12.9728 22.0431L8.8048 14.8239C8.24579 13.8556 7.99038 12.7657 8.03715 11.6859C3.57526 12.8516 0.495605 15.3269 0.495605 18.1927C0.495605 22.1797 6.45506 25.4118 13.8064 25.4118C21.1577 25.4118 27.1171 22.1797 27.1171 18.1927C27.1171 15.3267 24.0377 12.8508 19.5755 11.6851ZM32.1426 24.0117C32.1927 22.9865 32.3426 22.2865 32.6176 21.4864C34.0178 22.1365 35.8179 22.4614 37.1932 22.4614C39.5183 22.4614 40.8185 21.7113 40.8185 20.2362C40.8185 18.786 39.8684 18.111 37.5181 17.086L36.243 16.5359C33.8927 15.5107 32.2926 14.1856 32.2926 11.5353C32.2926 8.68511 34.2679 6.85982 38.3182 6.85982C39.9434 6.85982 41.4686 7.08495 42.8936 7.58491C42.8187 8.58501 42.6437 9.36016 42.3937 10.0853C41.0435 9.5851 39.4433 9.36016 38.2932 9.36016C36.118 9.36016 35.1179 10.2103 35.1179 11.5353C35.1179 12.8355 36.093 13.5855 37.8432 14.3357L39.1934 14.9107C42.3687 16.2609 43.6937 17.686 43.6937 20.1112C43.6937 22.9865 41.5185 24.9617 37.2682 24.9617C35.2179 24.9617 33.5428 24.6618 32.1426 24.0117ZM57.1207 12.0603V24.5617H54.5955L54.4455 23.0616C53.7453 24.1616 52.6702 24.8616 50.9201 24.8616C47.6198 24.8616 45.4196 22.4613 45.4196 18.2611C45.4196 13.8605 47.7698 11.3603 52.3953 11.3603C54.1954 11.3603 55.6705 11.5604 57.1207 12.0603ZM54.3704 21.7113V13.8605C53.7954 13.7606 53.1703 13.7106 52.3953 13.7106C49.5449 13.7106 48.2199 15.4609 48.2199 18.2612C48.2199 20.8114 49.245 22.6115 51.6952 22.6115C52.7703 22.6115 53.6454 22.2615 54.3704 21.7113ZM71.1977 16.1608V24.5617H68.4475V16.6359C68.4475 14.6608 67.7974 13.7106 65.0472 13.7106C64.397 13.7106 63.622 13.7855 62.8719 13.9106V24.5617H60.1216V12.0603C61.8718 11.6354 63.797 11.3604 65.1221 11.3604C69.7226 11.3604 71.1977 13.1354 71.1977 16.1608ZM78.8242 22.5114C79.6243 22.5114 80.3744 22.3615 80.9744 22.1365C80.8994 22.8865 80.7994 23.7367 80.6494 24.4616C79.8993 24.7617 79.0993 24.8616 78.3242 24.8616C75.6489 24.8616 73.9487 23.6366 73.9487 20.5862V7.45987C74.7988 7.18487 75.8489 7.05983 76.699 7.05983V11.7853H81.0494C80.9995 12.6355 80.9245 13.4106 80.7994 14.1355H76.699V20.2613C76.699 21.8864 77.4991 22.5114 78.8242 22.5114ZM93.5764 12.0603V24.5617H91.0511L90.9011 23.0616C90.201 24.1616 89.1259 24.8616 87.3757 24.8616C84.0753 24.8616 81.8752 22.4613 81.8752 18.2611C81.8752 13.8605 84.2253 11.3603 88.8509 11.3603C90.651 11.3603 92.1262 11.5604 93.5764 12.0603ZM90.8259 21.7113V13.8605C90.251 13.7606 89.6258 13.7106 88.8509 13.7106C86.0005 13.7106 84.6754 15.4609 84.6754 18.2612C84.6754 20.8114 85.7006 22.6115 88.1507 22.6115C89.2258 22.6115 90.101 22.2615 90.8259 21.7113ZM107.653 16.1608V24.5617H104.903V16.6359C104.903 14.6608 104.253 13.7106 101.503 13.7106C100.853 13.7106 100.077 13.7855 99.3275 13.9106V24.5617H96.5772V12.0603C98.3274 11.6354 100.253 11.3604 101.578 11.3604C106.178 11.3604 107.653 13.1354 107.653 16.1608ZM121.605 7.05983V24.5617H119.08L118.93 22.9615C118.23 24.1367 117.155 24.8616 115.355 24.8616C112.055 24.8616 109.854 22.4614 109.854 18.2612C109.854 13.8605 112.204 11.3604 116.83 11.3604C117.555 11.3604 118.23 11.4354 118.88 11.5604V7.43495C119.73 7.13481 120.705 7.05983 121.605 7.05983ZM118.88 21.6613V13.9606C118.155 13.8107 117.405 13.7105 116.68 13.7105C113.955 13.7105 112.655 15.4108 112.655 18.2611C112.655 20.8113 113.68 22.6115 116.13 22.6115C117.23 22.6115 118.13 22.2364 118.88 21.6613ZM135.432 19.2112H126.657C127.007 21.4364 128.307 22.5114 130.757 22.5114C132.257 22.5114 133.782 22.1864 135.157 21.5614C135.057 22.2865 134.907 23.2365 134.732 24.0615C133.482 24.6367 132.157 24.8616 130.682 24.8616C126.081 24.8616 123.856 22.3114 123.856 18.036C123.856 14.3106 125.581 11.3604 129.957 11.3604C133.882 11.3604 135.582 13.9355 135.582 17.086C135.582 17.8611 135.532 18.4861 135.432 19.2112ZM126.606 16.9109H132.807C132.807 14.8606 131.707 13.6605 129.807 13.6605C127.857 13.6605 126.831 14.7856 126.606 16.9109ZM145.059 11.4603C145.059 12.2855 144.959 13.2856 144.809 13.8107C144.159 13.7355 143.509 13.7106 142.734 13.7106C142.059 13.7106 141.384 13.7606 140.709 13.8605V24.5617H137.958V12.0603C139.133 11.6603 141.109 11.3604 142.659 11.3604C143.509 11.3604 144.459 11.3853 145.059 11.4603Z" fill="black"/>
</svg>
