<svg width="17" height="16" viewBox="0 0 17 18" fill="none" xmlns="http://www.w3.org/2000/svg">
  <path d="M8.26725 0.975841C9.71473 1.82355 11.0811 2.78963 12.4032 3.82278C14.0347 5.11136 15.3437 6.32556 16.2703 7.29455C16.6527 7.69598 16.6186 8.33299 16.2504 8.71879C15.3325 9.66834 14.3616 10.5651 13.3422 11.4048C11.7278 12.7268 10.058 14.0062 8.24106 15.0315C7.65767 15.3606 7.02321 14.9872 6.90908 14.3991L6.70636 11.3319C5.13134 11.317 3.65536 11.8407 2.47462 12.8157L1.30519 13.6531C1.10772 13.7505 0.93739 13.7994 0.793754 13.7978C0.438407 13.639 0.262441 13.3605 0.209082 13.1163C0.155831 12.8726 0.128125 12.5589 0.128125 12.1667C0.128125 8.52053 2.81492 5.27714 6.44445 4.7855L6.88964 1.74651C6.92008 1.43088 7.1003 1.14304 7.35495 0.982011C7.60801 0.821993 7.93539 0.786432 8.26725 0.975841Z" 
        stroke="black" 
        stroke-width="1"
        fill="none"/>
</svg>
