<svg width="31" height="13" viewBox="0 0 31 13" fill="none" xmlns="http://www.w3.org/2000/svg">
<g clip-path="url(#clip0_13338_20461)">
<path d="M10.1032 0.728027H3.38895C1.92934 0.728027 0.746094 1.91128 0.746094 3.37089V10.0852C0.746094 11.5448 1.92934 12.728 3.38895 12.728H10.1032C11.5628 12.728 12.7461 11.5448 12.7461 10.0852V3.37089C12.7461 1.91128 11.5628 0.728027 10.1032 0.728027Z" fill="url(#paint0_linear_13338_20461)"/>
<path d="M6.74612 2.80518C5.57799 2.80518 4.4577 3.1917 3.6317 3.8797C2.8057 4.5677 2.34166 5.50082 2.34165 6.4738C2.34272 7.10667 2.54032 7.72855 2.91526 8.279C3.2902 8.82946 3.82973 9.28976 4.4814 9.61517C4.30784 10.0037 4.04752 10.3681 3.71125 10.6932C4.36337 10.5787 4.97553 10.3382 5.50009 9.99046C5.90455 10.0906 6.32418 10.1417 6.74612 10.1424C7.91426 10.1424 9.03455 9.7559 9.86054 9.0679C10.6865 8.3799 11.1506 7.44678 11.1506 6.4738C11.1506 5.50082 10.6865 4.5677 9.86054 3.8797C9.03455 3.1917 7.91426 2.80518 6.74612 2.80518Z" fill="white"/>
</g>
<g clip-path="url(#clip1_13338_20461)">
<path d="M15.7461 12.728C19.0598 12.728 21.7461 10.0417 21.7461 6.72803C21.7461 3.41432 19.0598 0.728027 15.7461 0.728027C12.4324 0.728027 9.74609 3.41432 9.74609 6.72803C9.74609 10.0417 12.4324 12.728 15.7461 12.728Z" fill="url(#paint1_linear_13338_20461)"/>
<path d="M13.8076 7.1667L14.5194 9.137C14.5194 9.137 14.6084 9.32135 14.7037 9.32135C14.799 9.32135 16.2165 7.84675 16.2165 7.84675L17.7927 4.80225L13.833 6.6581L13.8076 7.1667Z" fill="#C8DAEA"/>
<path d="M14.7514 7.67188L14.6148 9.12417C14.6148 9.12417 14.5576 9.56917 15.0025 9.12417C15.4474 8.67917 15.8732 8.33602 15.8732 8.33602" fill="#A9C6D8"/>
<path d="M13.8204 7.23717L12.3561 6.76007C12.3561 6.76007 12.1811 6.68907 12.2375 6.52807C12.2491 6.49487 12.2725 6.46662 12.3425 6.41807C12.6669 6.19192 18.3478 4.15007 18.3478 4.15007C18.3478 4.15007 18.5082 4.09602 18.6028 4.13197C18.6262 4.13921 18.6472 4.15254 18.6638 4.1706C18.6803 4.18865 18.6918 4.21078 18.697 4.23472C18.7072 4.277 18.7115 4.3205 18.7097 4.36397C18.7093 4.40157 18.7047 4.43642 18.7013 4.49107C18.6667 5.04932 17.6313 9.21572 17.6313 9.21572C17.6313 9.21572 17.5693 9.45952 17.3474 9.46787C17.2928 9.46963 17.2385 9.46039 17.1876 9.4407C17.1367 9.42101 17.0903 9.39128 17.0511 9.35327C16.6156 8.97862 15.1102 7.96692 14.7775 7.74442C14.77 7.7393 14.7637 7.73264 14.759 7.72488C14.7543 7.71712 14.7513 7.70843 14.7502 7.69942C14.7456 7.67597 14.7711 7.64692 14.7711 7.64692C14.7711 7.64692 17.3924 5.31692 17.4621 5.07232C17.4675 5.05337 17.4471 5.04402 17.4197 5.05232C17.2456 5.11637 14.2275 7.02232 13.8944 7.23267C13.8704 7.23992 13.8451 7.24146 13.8204 7.23717Z" fill="white"/>
</g>
<path d="M24.7481 0.728044C21.4387 0.728044 18.7473 3.41844 18.7461 6.72534C18.7445 7.85455 19.0625 8.96117 19.6633 9.91725L19.8061 10.1442L19.1998 12.3573L21.4706 11.7619L21.6899 11.8918C22.6108 12.4383 23.6668 12.7273 24.7436 12.7279H24.7458C28.0527 12.7279 30.7441 10.0372 30.7454 6.73014C30.7479 5.94191 30.594 5.16101 30.2927 4.43265C29.9913 3.7043 29.5485 3.04295 28.9898 2.48691C28.4342 1.92782 27.7732 1.48449 27.0451 1.18258C26.317 0.880673 25.5363 0.726179 24.7481 0.728044Z" fill="url(#paint2_linear_13338_20461)"/>
<path fill-rule="evenodd" clip-rule="evenodd" d="M22.9417 3.7079C22.8065 3.40759 22.6643 3.40151 22.5359 3.39631L22.1901 3.39209C22.0698 3.39209 21.8744 3.43722 21.7092 3.61774C21.544 3.79825 21.0779 4.23454 21.0779 5.12192C21.0779 6.0093 21.7242 6.86675 21.8143 6.98723C21.9043 7.1077 23.062 8.98675 24.8953 9.7097C26.4188 10.3105 26.7289 10.191 27.0597 10.161C27.3905 10.131 28.1268 9.72471 28.277 9.30354C28.4272 8.88237 28.4273 8.52153 28.3823 8.44608C28.3372 8.37064 28.2169 8.3258 28.0364 8.23554C27.8559 8.14529 26.9693 7.709 26.804 7.64877C26.6387 7.58853 26.5185 7.5586 26.3981 7.73912C26.2778 7.91964 25.9325 8.32571 25.8273 8.44608C25.722 8.56646 25.6169 8.58157 25.4364 8.49141C25.2559 8.40125 24.6751 8.21072 23.986 7.59628C23.4498 7.1182 23.0879 6.52779 22.9825 6.34737C22.8772 6.16695 22.9714 6.06924 23.0618 5.97937C23.1427 5.89853 23.2421 5.76874 23.3325 5.66347C23.4228 5.5582 23.4526 5.48295 23.5126 5.36277C23.5726 5.24259 23.5427 5.13702 23.4976 5.04686C23.4525 4.9567 23.102 4.06461 22.9417 3.7079Z" fill="white"/>
<defs>
<linearGradient id="paint0_linear_13338_20461" x1="6.84133" y1="11.9315" x2="6.84133" y2="2.21728" gradientUnits="userSpaceOnUse">
<stop stop-color="#0CBD2A"/>
<stop offset="1" stop-color="#5BF675"/>
</linearGradient>
<linearGradient id="paint1_linear_13338_20461" x1="15.7461" y1="12.728" x2="15.7461" y2="0.728027" gradientUnits="userSpaceOnUse">
<stop stop-color="#1D93D2"/>
<stop offset="1" stop-color="#38B0E3"/>
</linearGradient>
<linearGradient id="paint2_linear_13338_20461" x1="24.6236" y1="1.44815" x2="24.6844" y2="11.7028" gradientUnits="userSpaceOnUse">
<stop stop-color="#57D163"/>
<stop offset="1" stop-color="#23B33A"/>
</linearGradient>
<clipPath id="clip0_13338_20461">
<rect width="12" height="12" fill="white" transform="translate(0.746094 0.728027)"/>
</clipPath>
<clipPath id="clip1_13338_20461">
<rect width="12" height="12" fill="white" transform="translate(9.74609 0.728027)"/>
</clipPath>
</defs>
</svg>
