<svg width="114" height="48" viewBox="0 0 114 48" fill="none" xmlns="http://www.w3.org/2000/svg">
<path fill-rule="evenodd" clip-rule="evenodd" d="M113.843 24.5337C113.843 16.484 109.944 10.1323 102.492 10.1323C95.0084 10.1323 90.4805 16.484 90.4805 24.4708C90.4805 33.9354 95.826 38.7149 103.498 38.7149C107.24 38.7149 110.07 37.8659 112.208 36.6711V30.3823C110.07 31.4514 107.617 32.1117 104.504 32.1117C101.454 32.1117 98.7502 31.0426 98.4044 27.3322H113.78C113.78 26.9234 113.843 25.2883 113.843 24.5337ZM98.31 21.5465C98.31 17.9933 100.48 16.5155 102.461 16.5155C104.379 16.5155 106.423 17.9933 106.423 21.5465H98.31Z" fill="black"/>
<path fill-rule="evenodd" clip-rule="evenodd" d="M78.343 10.1323C75.2615 10.1323 73.2805 11.5787 72.18 12.585L71.7712 10.6354H64.8535V47.2992L72.7145 45.6326L72.746 36.734C73.8779 37.5515 75.5445 38.7149 78.3116 38.7149C83.94 38.7149 89.0654 34.187 89.0654 24.2192C89.034 15.1005 83.8457 10.1323 78.343 10.1323ZM76.4564 31.7973C74.6012 31.7973 73.5006 31.1369 72.746 30.3194L72.7145 18.6537C73.5321 17.7418 74.664 17.1129 76.4564 17.1129C79.3178 17.1129 81.2987 20.3202 81.2987 24.4394C81.2987 28.6528 79.3492 31.7973 76.4564 31.7973Z" fill="black"/>
<path fill-rule="evenodd" clip-rule="evenodd" d="M54.0371 8.27789L61.9296 6.57991V0.196777L54.0371 1.86331V8.27789Z" fill="black"/>
<path d="M61.9296 10.668H54.0371V38.1815H61.9296V10.668Z" fill="black"/>
<path fill-rule="evenodd" clip-rule="evenodd" d="M45.5782 12.9937L45.0751 10.6668H38.2832V38.1803H46.1442V19.534C47.9994 17.1128 51.1438 17.5531 52.1186 17.8989V10.6668C51.1124 10.2895 47.4334 9.59772 45.5782 12.9937Z" fill="black"/>
<path fill-rule="evenodd" clip-rule="evenodd" d="M29.8566 3.84424L22.1843 5.47933L22.1528 30.666C22.1528 35.3197 25.6431 38.7471 30.2968 38.7471C32.8752 38.7471 34.7619 38.2754 35.7995 37.7094V31.3263C34.7933 31.7351 29.8252 33.1815 29.8252 28.5278V17.3652H35.7995V10.6676H29.8252L29.8566 3.84424Z" fill="black"/>
<path fill-rule="evenodd" clip-rule="evenodd" d="M8.60085 18.6537C8.60085 17.4273 9.60705 16.9557 11.2736 16.9557C13.6633 16.9557 16.682 17.6789 19.0717 18.9681V11.5787C16.4618 10.5411 13.8834 10.1323 11.2736 10.1323C4.89045 10.1323 0.645508 13.4654 0.645508 19.031C0.645508 27.7095 12.5942 26.326 12.5942 30.0678C12.5942 31.5143 11.3365 31.9859 9.57561 31.9859C6.96576 31.9859 3.63269 30.9168 0.991392 29.4704V36.9541C3.91569 38.2118 6.87142 38.7464 9.57561 38.7464C16.116 38.7464 20.6125 35.5076 20.6125 29.8792C20.581 20.5088 8.60085 22.1754 8.60085 18.6537Z" fill="black"/>
</svg>
