<svg width="26" height="26" viewBox="0 0 26 26" fill="none" xmlns="http://www.w3.org/2000/svg">
<path fill-rule="evenodd" clip-rule="evenodd" d="M0 13C0 20.1797 5.8203 26 13 26C20.1797 26 26 20.1797 26 13C26 5.8203 20.1797 0 13 0C5.8203 0 0 5.8203 0 13ZM10.6167 18.9583L10.8379 15.6446L10.8377 15.6444L16.8658 10.2045C17.1304 9.96966 16.8081 9.85516 16.4569 10.0681L9.01728 14.7617L5.80378 13.7587C5.10981 13.5462 5.10483 13.0693 5.95959 12.7265L18.4818 7.89797C19.0538 7.63831 19.6058 8.03533 19.3874 8.91069L17.2549 18.96C17.106 19.6741 16.6745 19.8449 16.0767 19.5151L12.8281 17.115L11.2667 18.6333C11.2617 18.6381 11.2568 18.6429 11.252 18.6476C11.0773 18.8177 10.9328 18.9583 10.6167 18.9583Z" fill="black"/>
</svg>
