<svg width="25" height="24" viewBox="0 0 25 24" fill="none" xmlns="http://www.w3.org/2000/svg">
<rect x="4.39816" y="4.28573" width="14.1027" height="15.4286" rx="1.71429" stroke="black" stroke-width="1.71429"/>
<path d="M14.9936 9.08585C13.5734 9.08585 12.4222 10.2371 12.4222 11.6573V12.343C12.4222 13.7632 13.5734 14.9144 14.9936 14.9144H18.1553C19.1021 14.9144 19.8696 14.1469 19.8696 13.2001V10.8001C19.8696 9.85336 19.1021 9.08585 18.1553 9.08585H14.9936Z" fill="#FFC900"/>
<path d="M14.9936 9.08585C13.5734 9.08585 12.4222 10.2371 12.4222 11.6573V12.343C12.4222 13.7632 13.5734 14.9144 14.9936 14.9144H18.1553C19.1021 14.9144 19.8696 14.1469 19.8696 13.2001V10.8001C19.8696 9.85336 19.1021 9.08585 18.1553 9.08585H14.9936Z" fill="white" fill-opacity="0.8"/>
<path d="M14.9936 9.08585C13.5734 9.08585 12.4222 10.2371 12.4222 11.6573V12.343C12.4222 13.7632 13.5734 14.9144 14.9936 14.9144H18.1553C19.1021 14.9144 19.8696 14.1469 19.8696 13.2001V10.8001C19.8696 9.85336 19.1021 9.08585 18.1553 9.08585H14.9936Z" stroke="black" stroke-width="1.71429"/>
</svg>
