<svg width="105" height="106" viewBox="0 0 105 106" fill="none" xmlns="http://www.w3.org/2000/svg">
<g filter="url(#filter0_f_12587_8624)">
<path d="M31.0765 85.7099L32.521 86.5656C38.5882 90.1664 45.5448 92.0712 52.639 92.0744H52.6539C74.44 92.0744 92.1704 74.3479 92.1794 52.5605C92.1833 42.0025 88.0758 32.0741 80.6132 24.6056C76.953 20.9224 72.5986 18.0018 67.802 16.0127C63.0054 14.0237 57.862 13.0059 52.6694 13.0181C30.8664 13.0181 13.1354 30.7426 13.1276 52.5288C13.1169 59.9681 15.2118 67.2586 19.1703 73.5574L20.1107 75.0518L16.117 89.6319L31.0765 85.7099ZM4.69873 100.927L11.4459 76.2927C7.28473 69.0835 5.09558 60.9047 5.09817 52.5255C5.10916 26.3126 26.4409 4.9873 52.6545 4.9873C65.3751 4.99377 77.3149 9.94408 86.2945 18.9301C95.2741 27.9162 100.215 39.8605 100.21 52.5637C100.199 78.7747 78.8636 100.104 52.6539 100.104H52.6332C44.6748 100.101 36.8547 98.1041 29.9085 94.3165L4.69873 100.927Z" fill="#B3B3B3"/>
</g>
<path d="M4.20996 100.439L10.9571 75.804C6.7888 68.5773 4.59933 60.3794 4.6094 52.0368C4.62039 25.8238 25.9522 4.49854 52.1657 4.49854C64.8863 4.505 76.8262 9.45531 85.8057 18.4414C94.7853 27.4274 99.726 39.3718 99.7214 52.0749C99.7098 78.2859 78.3748 99.6151 52.1651 99.6151H52.1444C44.186 99.6119 36.366 97.6153 29.4198 93.8278L4.20996 100.439Z" fill="white"/>
<path d="M52.1804 12.5294C30.3775 12.5294 12.6465 30.254 12.6387 52.0401C12.628 59.4795 14.7229 66.77 18.6813 73.0688L19.6218 74.5637L15.628 89.1439L30.5882 85.2212L32.0328 86.077C38.1 89.6777 45.0565 91.5819 52.1507 91.5857H52.1656C73.9517 91.5857 91.6828 73.8592 91.6912 52.0718C91.7076 46.8788 90.6938 41.7342 88.7085 36.9357C86.7231 32.1372 83.8056 27.7802 80.1249 24.117C76.4646 20.4337 72.1101 17.513 67.3134 15.524C62.5167 13.5349 57.3732 12.5171 52.1804 12.5294Z" fill="url(#paint0_linear_12587_8624)"/>
<path fill-rule="evenodd" clip-rule="evenodd" d="M40.2796 32.1626C39.389 30.1842 38.4518 30.1441 37.6057 30.1098L35.328 30.082C34.5356 30.082 33.2481 30.3793 32.1597 31.5686C31.0712 32.7579 28.0005 35.6321 28.0005 41.4783C28.0005 47.3244 32.2586 52.9734 32.8519 53.7671C33.4452 54.5608 41.0721 66.9402 53.1502 71.703C63.1872 75.6612 65.2296 74.874 67.4091 74.6762C69.5885 74.4784 74.4393 71.8019 75.4289 69.0272C76.4184 66.2525 76.419 63.8752 76.1224 63.3782C75.8257 62.8812 75.0333 62.5858 73.844 61.9911C72.6548 61.3965 66.8138 58.5222 65.7247 58.1254C64.6356 57.7285 63.8439 57.5314 63.0508 58.7207C62.2578 59.9099 59.9833 62.5851 59.2898 63.3782C58.5962 64.1712 57.904 64.2708 56.7147 63.6768C55.5255 63.0828 51.6992 61.8276 47.1593 57.7796C43.627 54.63 41.2427 50.7403 40.5485 49.5517C39.8544 48.3631 40.4748 47.7193 41.0708 47.1273C41.604 46.5947 42.2587 45.7396 42.854 45.0461C43.4493 44.3526 43.6451 43.8568 44.0407 43.065C44.4362 42.2733 44.2391 41.5778 43.9418 40.9838C43.6445 40.3898 41.3358 34.5127 40.2796 32.1626Z" fill="white"/>
<defs>
<filter id="filter0_f_12587_8624" x="0.134284" y="0.422858" width="104.641" height="105.069" filterUnits="userSpaceOnUse" color-interpolation-filters="sRGB">
<feFlood flood-opacity="0" result="BackgroundImageFix"/>
<feBlend mode="normal" in="SourceGraphic" in2="BackgroundImageFix" result="shape"/>
<feGaussianBlur stdDeviation="2.28222" result="effect1_foregroundBlur_12587_8624"/>
</filter>
<linearGradient id="paint0_linear_12587_8624" x1="51.3602" y1="17.2735" x2="51.761" y2="84.8321" gradientUnits="userSpaceOnUse">
<stop stop-color="#57D163"/>
<stop offset="1" stop-color="#23B33A"/>
</linearGradient>
</defs>
</svg>
