<svg width="126" height="29" viewBox="0 0 126 29" fill="none" xmlns="http://www.w3.org/2000/svg">
<path d="M70.0229 0.976395H77.6756L73.8209 28.526H66.1683L70.0229 0.976395ZM60.3296 0.976395L55.1711 16.8486L52.9036 0.976395H47.5184L40.716 16.7919L39.9224 1.03308H32.4398L35.0474 28.5827H41.2262L48.8222 11.1233L51.4865 28.526H57.5519L67.5854 0.976395H60.3296ZM124.782 17.0187H106.586C106.699 20.5899 108.797 22.9708 111.971 22.9708C114.352 22.9708 116.222 21.7237 117.696 19.2861L123.875 22.0638C121.664 26.2019 117.243 28.9228 111.744 28.9228C104.262 28.9228 99.2732 23.8777 99.2732 15.7716C99.2732 6.87179 105.112 0.57959 113.388 0.57959C120.644 0.57959 125.179 5.45463 125.179 13.1073C125.179 14.3544 125.066 15.6582 124.782 17.0187ZM117.923 11.7468C117.923 8.57239 116.109 6.53167 113.275 6.53167C110.327 6.53167 107.833 8.62907 107.209 11.7468H117.923ZM8.46141 9.30931L0.638672 18.4358H14.6402L16.2275 14.1277H10.2187L13.9033 9.87617V9.7628L11.5225 5.68137H22.2362L13.9033 28.526H19.572L29.6055 0.976395H3.69974L8.46141 9.30931ZM90.1466 6.53167C92.8676 6.53167 95.2484 8.00552 97.2891 10.4997L98.3662 2.73368C96.4389 1.42989 93.8313 0.636276 90.3734 0.636276C83.5143 0.636276 79.6596 4.66102 79.6596 9.7628C79.6596 13.2774 81.6437 15.4881 84.8748 16.8486L86.4053 17.5289C89.2964 18.776 90.09 19.3995 90.09 20.7033C90.09 22.0638 88.7862 22.9141 86.8021 22.9141C83.5143 22.9141 80.8501 21.2702 78.866 18.3792L77.7323 26.3153C79.9998 28.0725 82.9475 28.9795 86.8021 28.9795C93.3211 28.9795 97.3458 25.2382 97.3458 19.9664C97.3458 16.3951 95.7586 14.1277 91.7906 12.3137L90.09 11.5201C87.7091 10.4997 86.9155 9.87617 86.9155 8.74244C86.9722 7.49534 88.0492 6.53167 90.1466 6.53167Z" fill="black"/>
</svg>
