<svg width="26" height="25" viewBox="0 0 26 25" fill="none" xmlns="http://www.w3.org/2000/svg">
<path fill-rule="evenodd" clip-rule="evenodd" d="M13 0C5.8203 0 0 5.59644 0 12.5C0 19.4036 5.8203 25 13 25C20.1797 25 26 19.4036 26 12.5C26 5.59644 20.1797 0 13 0ZM12.6379 10.5927L12.6107 10.1602C12.5288 9.03911 13.2472 8.01517 14.3838 7.61795C14.8021 7.47672 15.5114 7.45906 15.9751 7.58264C16.157 7.6356 16.5026 7.81215 16.7481 7.97103L17.1936 8.26233L17.6847 8.11227C17.9575 8.03282 18.3212 7.90042 18.4849 7.81215C18.6395 7.7327 18.7759 7.68857 18.7759 7.71505C18.7759 7.86511 18.4394 8.37708 18.1575 8.65955C17.7756 9.05677 17.8847 9.09208 18.6576 8.82726C19.1214 8.6772 19.1305 8.6772 19.0396 8.84492C18.985 8.93319 18.7031 9.24214 18.403 9.5246C17.8938 10.0101 17.8665 10.0631 17.8665 10.4691C17.8665 11.0958 17.5574 12.4022 17.2482 13.1172C16.6753 14.459 15.4477 15.8448 14.2202 16.5422C12.4924 17.522 10.1919 17.7691 8.25499 17.1954C7.60937 17.0012 6.5 16.5068 6.5 16.4186C6.5 16.3921 6.83645 16.3568 7.24565 16.348C8.10041 16.3303 8.95517 16.1008 9.68263 15.6948L10.1737 15.4123L9.60989 15.2269C8.80968 14.9621 8.09132 14.353 7.90945 13.7793C7.85489 13.5939 7.87308 13.5851 8.3823 13.5851L8.90971 13.5762L8.46414 13.3732C7.93673 13.1172 7.45479 12.6847 7.21837 12.2434C7.04559 11.9256 6.82736 11.1223 6.89101 11.0605C6.9092 11.034 7.10015 11.087 7.31839 11.1576C7.94582 11.3783 8.02766 11.3253 7.66393 10.9546C6.98194 10.2837 6.7728 9.28627 7.10015 8.34177L7.25474 7.91807L7.85489 8.49183C9.08248 9.64818 10.5283 10.3367 12.1833 10.5397L12.6379 10.5927Z" fill="black"/>
</svg>
