<svg width="222" height="51" viewBox="0 0 222 51" fill="none" xmlns="http://www.w3.org/2000/svg">
<path d="M0.00129761 11.6224H6.23276L6.52177 21.808H6.66076C8.04838 14.9357 13.5283 10.8502 20.7481 10.8502C29.4733 10.8502 34.6731 16.7564 34.6731 26.7421V50.2289H28.1518V28.3946C28.1518 20.6475 24.4851 16.1867 18.1388 16.1867C11.3619 16.1867 6.52133 20.7918 6.52133 28.8741V50.2281H0L0.00129761 11.6224Z" fill="black"/>
<path d="M53.4009 50.9991C45.727 50.9991 40.6531 46.4904 40.6531 39.1369C40.6531 32.2115 45.0808 28.3377 54.4853 27.5385C61.8577 26.7114 69.8299 28.7119 69.8299 22.8698C69.8299 18.7594 65.8688 15.5745 59.5048 15.5745C53.4292 15.5745 49.1526 18.6052 48.0989 23.5823H41.5775C42.7955 15.8121 49.6859 10.8493 59.4472 10.8493C69.5262 10.8493 76.1194 16.1617 76.1194 24.102V36.9423C76.1194 43.5728 76.4662 47.355 77.2184 50.1686V50.2265H70.9289C70.2536 47.7424 70.0043 44.043 69.8592 37.2928H69.7056C68.2506 45.5302 61.6097 50.9997 53.4016 50.9997L53.4009 50.9991ZM55.4967 45.5778C63.1762 45.5778 69.8288 39.8584 69.8288 29.4373V28.4474H69.6751C67.4859 31.9114 61.4405 31.0218 55.5375 31.689C50.5616 32.2758 47.1153 34.112 47.1153 38.3783C47.1153 42.9015 50.3982 45.5763 55.4976 45.5763L55.4967 45.5778Z" fill="black"/>
<path d="M81.2152 45.117C89.3588 35.6564 97.5546 26.1464 106.047 16.6852V16.5307H82.3756V11.6214H113.03V16.7331C104.886 26.1937 96.6912 35.7036 88.1984 45.1648V45.3194H113.031V50.2279H81.2152V45.117Z" fill="black"/>
<path d="M128.993 50.9991C121.319 50.9991 116.245 46.4904 116.245 39.1369C116.245 32.2115 120.673 28.3377 130.077 27.5385C137.449 26.7114 145.422 28.7119 145.422 22.8698C145.422 18.7594 141.461 15.5745 135.097 15.5745C129.021 15.5745 124.744 18.6052 123.691 23.5823H117.169C118.387 15.8121 125.278 10.8493 135.039 10.8493C145.118 10.8493 151.711 16.1617 151.711 24.102V36.9423C151.711 43.5728 152.058 47.355 152.81 50.1686V50.2265H146.521C145.845 47.7424 145.596 44.043 145.451 37.2928H145.297C143.842 45.5302 137.201 50.9997 128.993 50.9997L128.993 50.9991ZM131.088 45.5778C138.768 45.5778 145.42 39.8584 145.42 29.4373V28.4474H145.267C143.077 31.9114 137.032 31.0218 131.129 31.689C126.153 32.2758 122.707 34.112 122.707 38.3783C122.707 42.9015 125.99 45.5763 131.089 45.5763L131.088 45.5778Z" fill="black"/>
<path d="M159.889 11.6212H166.12L166.409 22.7265H166.54C167.791 15.6558 172.871 10.8489 179.388 10.8489C181.076 10.8489 182.826 11.1795 183.791 11.5732V17.7739C182.409 17.3274 180.413 17.0025 178.743 17.0025C171.354 17.0025 166.409 22.4733 166.409 30.3812V50.2279H159.888L159.889 11.6212Z" fill="black"/>
<path d="M190.972 31.8921C191.54 39.7371 195.581 46.0136 203.319 46.0136C209.169 46.0136 213.198 42.6399 214.592 37.2855H221.016C219.106 45.8428 212.374 51 203.029 51C191.648 51 184.553 43.1624 184.553 30.9244C184.553 18.6874 191.945 10.8489 203.324 10.8489C214.762 10.8489 222 18.6294 222 30.9244V31.8921H190.969H190.972ZM203.093 15.6023C196.199 15.6023 191.742 20.0354 191.008 27.635H215.27C214.328 19.9729 209.92 15.6023 203.095 15.6023H203.093Z" fill="black"/>
<rect width="20.5155" height="4.33656" transform="matrix(0.969646 -0.244513 0.241679 0.970356 192.913 5.0163)" fill="black"/>
</svg>
