<svg width="32" height="32" viewBox="0 0 32 32" fill="none" xmlns="http://www.w3.org/2000/svg">
<rect width="32" height="32" rx="16" fill="#FF90E8"/>
<path d="M17.8722 12.6962H20.4314C21.7333 12.6962 22.9282 13.5701 23.1779 14.8542C23.4543 16.3166 22.518 17.6274 21.1983 17.9573L22.5626 19.3216C24.141 18.5102 25.1932 16.807 24.9702 14.8542C24.7206 12.5714 22.6607 10.9128 20.3601 10.9128H17.8722C17.3818 10.9128 16.9805 11.3141 16.9805 11.8045C16.9805 12.2949 17.3818 12.6962 17.8722 12.6962ZM8.51814 7.80071C8.17037 7.45294 7.60859 7.45294 7.26083 7.80071C6.91306 8.14848 6.91306 8.71026 7.26083 9.05803L9.61495 11.4122C8.03662 12.2236 6.9844 13.9268 7.20732 15.8796C7.457 18.1713 9.51686 19.8299 11.8175 19.8299H14.3054C14.7958 19.8299 15.1971 19.4287 15.1971 18.9382C15.1971 18.4478 14.7958 18.0465 14.3054 18.0465H11.7461C10.4442 18.0465 9.24935 17.1726 8.99967 15.8886C8.72324 14.4261 9.66845 13.1153 10.9793 12.7854L12.8697 14.6758C12.6646 14.8452 12.5219 15.086 12.5219 15.3714C12.5219 15.8618 12.9232 16.2631 13.4136 16.2631H14.457L22.3932 24.1993C22.741 24.5471 23.3027 24.5471 23.6505 24.1993C23.9983 23.8516 23.9983 23.2898 23.6505 22.942L8.51814 7.80071ZM17.8722 14.4796L19.397 16.0045C19.5576 15.844 19.6556 15.621 19.6556 15.3714C19.6556 14.8809 19.2544 14.4796 18.7639 14.4796H17.8722Z" fill="black"/>
</svg>
