<svg width="85" height="112" viewBox="0 0 85 112" fill="none" xmlns="http://www.w3.org/2000/svg">
<path d="M72.8339 109.613C73.0362 109.498 73.2451 109.366 73.454 109.22C73.5989 109.118 73.7437 109.003 73.8919 108.888C73.9458 108.847 73.9963 108.806 74.0502 108.765C76.6805 106.586 79.6342 102.039 81.7374 96.5248C81.7474 96.4978 81.7575 96.4707 81.7675 96.4437C81.9182 96.0482 82.0622 95.6493 82.2061 95.2436C85.3181 86.2589 86.2849 74.7924 81.042 65.4185C77.7448 59.5199 73.0426 54.5778 67.5853 51.1171C62.906 48.0996 60.057 43.0032 59.9383 37.4389C59.8504 30.9697 58.1009 24.3773 54.8037 18.4787C49.6083 9.19588 39.2293 4.01505 29.8832 1.95093C26.6124 1.22848 23.2108 0.783331 19.8582 0.895161C17.5354 0.973366 14.9191 1.16392 12.8461 2.32523C5.73405 6.30155 -4.73396 29.7578 4.63808 46.5201C7.93527 52.4188 12.6375 57.3608 18.0948 60.8216C22.7741 63.839 25.6231 68.9355 25.7418 74.4997C25.8297 80.969 27.5792 87.5613 30.8764 93.46C40.2484 110.222 65.7184 113.586 72.8305 109.61L72.8339 109.613Z" fill="#FFC900"/>
<path d="M72.8339 109.613C73.0362 109.498 73.2451 109.366 73.454 109.22C73.5989 109.118 73.7437 109.003 73.8919 108.888C73.9458 108.847 73.9963 108.806 74.0502 108.765C76.6805 106.586 79.6342 102.039 81.7374 96.5248C81.7474 96.4978 81.7575 96.4707 81.7675 96.4437C81.9182 96.0482 82.0622 95.6493 82.2061 95.2436C85.3181 86.2589 86.2849 74.7924 81.042 65.4185C77.7448 59.5199 73.0426 54.5778 67.5853 51.1171C62.906 48.0996 60.057 43.0032 59.9383 37.4389C59.8504 30.9697 58.1009 24.3773 54.8037 18.4787C49.6083 9.19588 39.2293 4.01505 29.8832 1.95093C26.6124 1.22848 23.2108 0.783331 19.8582 0.895161C17.5354 0.973366 14.9191 1.16392 12.8461 2.32523C5.73405 6.30155 -4.73396 29.7578 4.63808 46.5201C7.93527 52.4188 12.6375 57.3608 18.0948 60.8216C22.7741 63.839 25.6231 68.9355 25.7418 74.4997C25.8297 80.969 27.5792 87.5613 30.8764 93.46C40.2484 110.222 65.7184 113.586 72.8305 109.61L72.8339 109.613ZM34.3684 91.5108C31.37 86.1447 29.8592 80.2979 29.8006 74.5207C29.6133 67.5824 26.0173 61.1512 20.1409 57.5669C15.2521 54.4893 10.9869 50.0118 8.05983 44.7772C-0.18824 30.0238 9.36902 9.01503 14.7351 6.01665C20.408 2.8451 43.1692 5.96109 51.3392 20.5797C54.3375 25.9458 55.8484 31.7926 55.907 37.5698C55.9561 44.5828 59.4808 50.8859 65.4285 54.6018C70.3173 57.6793 74.5112 62.0253 77.5095 67.3914C85.7576 82.1448 76.2273 103.137 70.7466 106.203C65.3805 109.201 42.5384 106.129 34.3684 91.5142L34.3684 91.5108Z" fill="black" stroke="black" stroke-width="0.295137"/>
<path d="M29.6758 45.148L31.7417 41.7209" stroke="black" stroke-width="3.71422" stroke-miterlimit="10" stroke-linecap="round"/>
<path d="M22.2362 39.0305C26.8776 39.0159 30.6284 35.2415 30.6138 30.6C30.5992 25.9586 26.8248 22.2078 22.1834 22.2224C17.5419 22.237 13.7911 26.0114 13.8057 30.6528C13.8203 35.2943 17.5947 39.0451 22.2362 39.0305Z" fill="white" stroke="black" stroke-width="3.24651" stroke-miterlimit="10"/>
<path d="M36.9605 31.0489C41.602 31.0343 45.3528 27.2599 45.3382 22.6185C45.3236 17.977 41.5492 14.2262 36.9077 14.2408C32.2663 14.2554 28.5155 18.0298 28.5301 22.6713C28.5446 27.3127 32.3191 31.0635 36.9605 31.0489Z" fill="white" stroke="black" stroke-width="3.24651" stroke-miterlimit="10"/>
<path d="M36.1661 14.5944C34.1384 17.2886 34.0255 21.0979 36.1347 23.948C37.9354 26.3803 40.8799 27.4685 43.6778 27.014C45.7055 24.3197 45.8184 20.5105 43.7092 17.6604C41.9085 15.2281 38.964 14.1399 36.1661 14.5944Z" fill="black"/>
<path d="M21.8812 22.553C19.9311 25.22 19.8449 28.9481 21.9135 31.7443C23.6192 34.0486 26.3577 35.134 29.0143 34.8387C30.9644 32.1717 31.0506 28.4436 28.982 25.6474C27.2763 23.3431 24.5378 22.2576 21.8812 22.553Z" fill="black"/>
<path d="M32.2318 43.8484C34.148 44.3623 36.3729 44.2541 38.2213 43.5932C40.0831 42.9255 42.3903 41.0644 43.4047 39.3391" stroke="black" stroke-width="3.71422" stroke-miterlimit="10" stroke-linecap="round"/>
<path d="M50.3275 93.0296C49.6915 93.7272 49.6817 94.926 50.3759 95.562C53.1629 98.0993 56.2629 100.291 59.209 101.893C59.7572 102.266 60.3544 102.105 60.8735 101.816C61.133 101.67 61.3179 101.393 61.5095 101.119C62.0029 100.162 61.6182 99.1769 60.8638 98.747C58.1205 97.2057 55.2947 95.2055 52.7851 92.8497C52.0876 92.2204 50.9567 92.3388 50.3275 93.0296Z" fill="black" stroke="black" stroke-width="0.590275" stroke-miterlimit="10"/>
<path d="M45.3885 89.4485L45.52 89.3738C46.3554 88.733 46.5145 87.7904 46.0052 86.8803C45.2896 85.9134 44.709 84.8718 44.1283 83.8336C43.0382 81.8819 42.0796 79.8589 41.189 77.9674C40.8111 76.9826 39.7972 76.6988 38.809 77.0767C37.8242 77.4546 37.5404 78.4685 37.9183 79.4567C38.7488 81.551 39.9135 83.6341 41.0749 85.7139C41.7269 86.8836 42.311 87.9252 43.0978 89.0235C43.6572 89.7241 44.5998 89.8832 45.3818 89.4485L45.3885 89.4485Z" fill="black" stroke="black" stroke-width="0.590275" stroke-miterlimit="10"/>
<path d="M36.5172 70.8798L36.9082 70.6625C37.5588 70.2991 37.9173 69.4167 37.8135 68.6235C37.1679 66.2517 36.1947 63.8944 34.9586 61.6832C34.378 60.6416 33.7939 59.6001 33.0818 58.6366C32.4409 57.8011 31.3702 57.7133 30.6629 58.2828C29.8275 58.9237 29.7397 59.9944 30.3092 60.7017C30.95 61.5371 31.4594 62.4472 31.9688 63.3607C33.0588 65.3124 33.8927 67.4067 34.517 69.4442C34.6354 70.5717 35.6672 71.1898 36.5138 70.8798L36.5172 70.8798Z" fill="black" stroke="black" stroke-width="0.590275" stroke-miterlimit="10"/>
<path d="M71.2371 96.3726C71.6427 96.4861 71.8988 96.3435 72.1584 96.1975C72.6775 95.9088 73.0539 95.3573 73.0961 94.8203C73.2747 91.4804 73.0332 87.6859 72.3293 83.9807C72.1509 83.0527 71.2505 82.3634 70.1978 82.6132C69.2699 82.7917 68.5805 83.692 68.8303 84.7447C69.5196 88.1123 69.7465 91.5725 69.6247 94.7164C69.5971 95.5842 70.2378 96.4196 71.2372 96.376L71.2371 96.3726Z" fill="black" stroke="black" stroke-width="0.590275" stroke-miterlimit="10"/>
<path d="M51.0507 46.9622C50.0659 47.3402 49.7821 48.3541 50.0853 49.2074C50.5345 50.3237 51.1186 51.3653 51.6959 52.4001C52.932 54.6113 54.4276 56.6732 56.1148 58.4643C56.6096 59.0401 57.5488 59.1959 58.3275 58.7612L58.7185 58.5439C59.3545 57.8463 59.4355 56.7756 58.8694 56.0717C57.335 54.5435 56.1101 52.6665 55.02 50.7148C54.5107 49.8047 54.0047 48.8946 53.6234 47.9064C52.9826 47.071 52.0288 46.5776 51.0473 46.9589L51.0507 46.9622Z" fill="black" stroke="black" stroke-width="0.590275" stroke-miterlimit="10"/>
<path d="M63.5023 63.8745C62.6669 64.5153 62.5791 65.586 63.0172 66.368C64.2921 68.0422 65.3821 69.9939 66.4755 71.9422C67.0562 72.9838 67.6403 74.0253 68.0861 75.1349C68.464 76.1197 69.4779 76.4035 70.4661 76.0256L70.5976 75.9509C71.3796 75.5129 71.6668 74.4989 71.3568 73.6456C70.9076 72.5293 70.2522 71.3631 69.5968 70.19C68.4321 68.1069 67.1393 66.1018 65.9211 64.2248C65.3584 63.5175 64.213 63.305 63.5057 63.8745L63.5023 63.8745Z" fill="black" stroke="black" stroke-width="0.590275" stroke-miterlimit="10"/>
<path d="M51.8511 72.3822C52.7612 71.8729 53.0484 70.859 52.5391 69.9523L47.011 60.0664C46.5017 59.1563 45.4878 58.8691 44.5812 59.3785C43.6745 59.8878 43.3839 60.9017 43.8932 61.8083L49.4213 71.6943C49.9239 72.6077 50.9377 72.8916 51.8511 72.3822Z" fill="black" stroke="black" stroke-width="0.590275" stroke-miterlimit="10"/>
<path d="M62.9075 92.1533C63.8176 91.644 64.1048 90.6301 63.5955 89.7235L58.0674 79.8375C57.5581 78.9274 56.5442 78.6403 55.6376 79.1496C54.7309 79.6589 54.4403 80.6728 54.9496 81.5795L60.4777 91.4654C60.9803 92.3789 61.9941 92.6627 62.9075 92.1533Z" fill="black" stroke="black" stroke-width="0.590275" stroke-miterlimit="10"/>
</svg>
