<svg xmlns="http://www.w3.org/2000/svg" viewBox="-65 -25 130 50" width="59.753" height="22.983" preserveAspectRatio="none">
  <!-- Arm (curved, diagonal). Pivot at (0, 0) = body center. -->
  <!-- Sourced from "Walking Legs 1.svg" — translate group recenters artwork on (0, 0). -->
  <g transform="rotate(54) translate(-54.5 -57)">
    <path d="M88.3741 0H90.3424C94.6159 0.173207 98.8215 1.76816 102.084 4.52022C105.972 7.74621 108.508 12.5407 108.922 17.5589C109.47 23.4744 107.095 29.5847 102.598 33.5228C82.6753 50.3335 64.4056 69.0519 47.9418 89.2065C43.4914 94.6914 39.1403 100.26 35.0849 106.039C32.2464 109.999 27.8081 112.767 23.0013 113.66C19.1859 114.386 15.1476 113.944 11.594 112.38C7.3229 110.523 3.75962 107.09 1.818 102.878C0.778103 100.742 0.269064 98.3985 0 96.053V93.9143C0.152712 91.0035 0.928391 88.1167 2.34158 85.5571C3.16816 84.0945 4.17897 82.7497 5.14372 81.3785C8.39915 76.8582 11.7855 72.4343 15.2615 68.0824C33.0657 45.8446 52.9377 25.2353 74.5913 6.66607C76.2614 5.27079 77.854 3.75041 79.7592 2.66787C82.3723 1.11863 85.3538 0.269433 88.3741 0ZM87.4069 6.92588C85.0023 7.33484 82.7601 8.49677 80.964 10.1254C60.503 27.4317 41.6685 46.6095 24.6351 67.2453C19.1641 73.9113 13.8386 80.7049 8.91546 87.7799C6.45753 91.3427 6.09393 96.1901 7.98465 100.078C9.28391 102.88 11.6934 105.134 14.5658 106.306C19.8913 108.608 26.6567 106.604 29.82 101.764C38.3404 89.779 47.7867 78.4652 57.6524 67.5508C69.9445 54.0214 83.068 41.2257 97.035 29.3971C98.1646 28.4661 99.2627 27.4605 100.067 26.2313C101.885 23.5802 102.591 20.2147 102.021 17.0609C101.422 13.6088 99.2651 10.4718 96.2739 8.62427C93.656 7.01248 90.4418 6.37258 87.4069 6.92588Z" fill="black"/>
    <path d="M87.4069 6.92588C90.4418 6.37258 93.656 7.01248 96.2739 8.62427C99.2651 10.4718 101.422 13.6088 102.021 17.0609C102.591 20.2147 101.885 23.5802 100.067 26.2313C99.2627 27.4605 98.1646 28.4661 97.035 29.3971C83.068 41.2257 69.9445 54.0214 57.6524 67.5508C47.7867 78.4652 38.3404 89.779 29.82 101.764C26.6567 106.604 19.8913 108.608 14.5658 106.306C11.6934 105.134 9.28391 102.88 7.98465 100.078C6.09393 96.1901 6.45753 91.3427 8.91546 87.7799C13.8386 80.7049 19.1641 73.9113 24.6351 67.2453C41.6685 46.6095 60.503 27.4317 80.964 10.1254C82.7601 8.49677 85.0023 7.33484 87.4069 6.92588Z" fill="#FFCA05"/>
  </g>
</svg>
