<svg width="54" height="46.4" viewBox="0 0 261 224" fill="none" xmlns="http://www.w3.org/2000/svg">
<path d="M63.8848 0H69.0251C79.2368 0.325165 89.4437 1.96084 99.1159 5.30117C100.381 5.70516 101.627 6.36042 102.991 6.2471C109.686 5.86282 116.489 7.07972 122.605 9.86333C131.772 13.9131 139.252 21.8944 142.244 31.5459C142.979 33.8171 142.018 36.5268 139.958 37.7437C138.129 39.1528 135.451 39.0444 133.621 37.7043C132.11 36.7584 131.61 34.9503 130.987 33.3885C128.662 27.506 123.846 22.7862 118.146 20.1799C110.47 16.608 101.215 16.4553 93.4901 19.9681C87.83 22.5349 83.2931 27.5011 81.3851 33.4526C79.2761 39.9953 79.4919 47.1834 81.39 53.7507C83.6707 61.4512 89.1592 68.2304 96.4869 71.5855C102.544 74.5711 109.828 74.3297 115.993 71.8023C121.546 69.4719 125.744 64.6684 128.172 59.2243C129.844 55.3962 135.573 55.0317 137.878 58.4508C138.791 60.0077 139.144 61.9587 138.442 63.6732C135.46 70.477 130.531 76.5369 124.086 80.291C113.379 86.5037 99.3562 86.6662 88.7129 80.2024C89.4241 81.7839 89.993 83.5131 89.6153 85.272C88.6344 91.258 85.5149 96.7759 81.238 101.018C92.725 109.783 105.968 116.562 120.251 119.163C136.407 122.173 153.338 119.542 168.298 112.886C175.425 109.812 182.051 105.688 188.378 101.205C182.134 96.1453 177.72 88.4596 177.646 80.2812C177.494 77.6355 178.956 74.985 181.266 73.7089C184.474 71.7974 189.06 72.9896 190.87 76.2856C192.179 78.2021 191.62 80.6458 192.268 82.7741C193.548 87.1638 197.104 90.6717 201.283 92.3566C207.438 94.7707 214.957 92.736 219.151 87.627C220.558 85.7597 222.721 84.3605 225.115 84.4246C228.077 84.3458 230.888 86.3953 231.849 89.1838C232.712 91.4994 232.178 94.2288 230.623 96.1256C224.948 103.378 215.84 107.708 206.668 107.679C206.967 121.986 205.403 136.298 202.612 150.32C198.943 167.859 193.003 185.369 182.159 199.809C176.67 207.071 169.804 213.416 161.696 217.604C151.465 223.068 139.522 224.906 128.064 223.595C117.94 222.413 108.303 218.013 100.533 211.426C88.9091 201.715 81.2429 188.132 75.7201 174.195C71.2077 162.691 68.103 150.669 65.8909 138.52C64.2282 129.076 62.9922 119.547 62.5753 109.965C57.6067 110.655 52.5548 110.724 47.5666 110.265C43.7262 109.842 40.8765 105.782 41.6073 102.008C42.0929 98.4954 45.5458 95.7856 49.0479 96.0862C55.0366 96.436 61.3687 96.5247 66.8866 93.8149C71.4333 91.7063 74.9353 87.3708 75.7299 82.3603C76.4999 78.7293 80.3208 76.4433 83.8915 76.9655C77.9321 71.9353 73.253 65.3384 70.9183 57.8498C68.2109 49.2132 67.8773 39.7243 70.4082 31.004C71.8944 25.9196 74.6165 21.2539 78.148 17.3323C65.7683 16.4947 53.3052 17.5047 41.1512 19.9385C29.3404 22.2344 17.8191 25.7718 6.3566 29.3831C3.39902 30.3241 0.412002 27.9198 0 24.9884V23.7321C0.215811 22.2344 1.16243 20.9534 2.40335 20.1307C20.3794 7.62659 42.034 0.591209 63.8848 0ZM177.048 124.568C163.938 130.908 149.473 134.485 134.911 134.687C119.726 134.978 104.614 131.056 91.1162 124.164C91.1064 126.79 91.077 129.416 91.1358 132.042C105.046 135.796 119.348 137.973 133.709 138.993C152.701 140.274 171.874 139.313 190.615 135.924C191.532 129.268 192.12 122.572 192.434 115.857C187.422 118.956 182.414 122.104 177.048 124.568ZM81.1154 142.422C83.5383 153.123 86.4321 163.804 91.0377 173.791C97.7965 168.49 106.218 165.386 114.787 165.031C123.532 164.607 132.204 166.859 140.12 170.47C145.378 165.258 151.573 160.932 158.4 158.06C167.268 154.177 177.372 153.512 186.774 155.596C187.181 154.069 187.549 152.532 187.912 150.995C180.079 151.985 172.232 152.985 164.335 153.394C142.17 154.714 119.834 153.01 98.1055 148.428C94.5741 148.127 91.2535 146.777 87.83 145.95C85.304 145.378 83.2342 143.802 81.1154 142.422ZM154.53 176.762C151.793 178.959 149.066 181.279 147.036 184.176C143.661 189.862 140.949 195.917 138.256 201.952C137.422 203.795 136.814 205.898 135.137 207.179C133.459 208.672 131.08 209.061 128.922 208.677L129.168 209.293C136.608 210.347 144.333 209.416 151.313 206.622C160.543 202.952 167.999 195.749 173.394 187.507C177.087 181.816 180.177 175.687 182.331 169.243C179.628 168.795 176.886 168.618 174.149 168.785C166.944 169.16 160.19 172.416 154.53 176.762ZM97.8603 186.684C99.8467 189.817 102.069 192.808 104.56 195.557C110.912 202.716 119.574 208.041 129.133 209.317L128.79 208.608C126.21 207.864 124.111 205.681 123.63 203.006C123.316 201.277 123.684 199.493 124.464 197.937C126.764 192.704 129.153 187.507 131.684 182.378C126.166 180.2 120.206 178.85 114.252 179.383C108.175 179.87 102.333 182.546 97.8603 186.684Z" fill="black"/>
<path d="M191.105 2.85258C206.835 1.25139 223.05 3.95124 237.274 10.9521C245.215 14.6965 252.773 19.367 259.36 25.2052C261.695 27.1562 261.504 31.2404 258.997 32.9599C257.604 34.0733 255.637 34.3739 254.014 33.5954C240.825 27.8558 227.268 22.663 213.074 20.1011C203.715 18.3964 194.107 17.9333 184.65 19.0763C176.641 19.8646 168.769 21.5988 160.965 23.5055C157.723 24.5056 154.417 21.451 154.677 18.1846C154.663 16.4454 155.859 14.997 157.301 14.1693C167.503 7.84829 179.196 4.07934 191.105 2.85258Z" fill="black"/>
<path d="M93.4901 19.9681C101.215 16.4553 110.47 16.608 118.146 20.1799C123.846 22.7862 128.662 27.506 130.987 33.3885C131.61 34.9503 132.11 36.7584 133.621 37.7043C135.451 39.0444 138.129 39.1528 139.958 37.7437C140.493 37.9556 140.767 38.3497 140.767 38.9212C141.67 45.5329 140.728 52.4057 137.878 58.4508C135.573 55.0317 129.844 55.3962 128.172 59.2243C125.744 64.6684 121.546 69.4719 115.993 71.8023C109.828 74.3297 102.544 74.5711 96.4869 71.5855C89.1592 68.2304 83.6707 61.4512 81.39 53.7507C79.4919 47.1834 79.2761 39.9953 81.3851 33.4526C83.2931 27.5011 87.83 22.5349 93.4901 19.9681Z" fill="#FFCA05"/>
<path d="M177.048 124.568C182.414 122.104 187.422 118.956 192.434 115.857C192.12 122.572 191.532 129.268 190.615 135.924C171.874 139.313 152.701 140.274 133.709 138.993C119.348 137.973 105.046 135.796 91.1358 132.042C91.077 129.416 91.1064 126.79 91.1162 124.164C104.614 131.056 119.726 134.978 134.911 134.687C149.473 134.485 163.938 130.908 177.048 124.568Z" fill="#FFF9F6"/>
<path d="M81.1154 142.422C83.2342 143.802 85.304 145.378 87.83 145.95C91.2535 146.777 94.5741 148.127 98.1055 148.428C119.834 153.01 142.17 154.714 164.335 153.394C172.232 152.985 180.079 151.985 187.912 150.995C187.549 152.532 187.181 154.069 186.774 155.596C177.372 153.512 167.268 154.177 158.4 158.06C151.573 160.932 145.378 165.258 140.12 170.47C132.204 166.859 123.532 164.607 114.787 165.031C106.218 165.386 97.7965 168.49 91.0377 173.791C86.4321 163.804 83.5383 153.123 81.1154 142.422Z" fill="#C44055"/>
<path d="M154.53 176.762C160.19 172.416 166.944 169.16 174.149 168.785C176.886 168.618 179.628 168.795 182.331 169.243C180.177 175.687 177.087 181.816 173.394 187.507C167.999 195.749 160.543 202.952 151.313 206.622C144.333 209.416 136.608 210.347 129.168 209.293L128.922 208.677C131.08 209.061 133.459 208.672 135.137 207.179C136.814 205.898 137.422 203.795 138.256 201.952C140.949 195.917 143.661 189.862 147.036 184.176C149.066 181.279 151.793 178.959 154.53 176.762Z" fill="#FFB8C6"/>
<path d="M97.8603 186.684C102.333 182.546 108.175 179.87 114.252 179.383C120.206 178.85 126.166 180.2 131.684 182.378C129.153 187.507 126.764 192.704 124.464 197.937C123.684 199.493 123.316 201.277 123.63 203.006C124.111 205.681 126.21 207.864 128.79 208.608L129.133 209.317C119.574 208.041 110.912 202.716 104.56 195.557C102.069 192.808 99.8467 189.817 97.8603 186.684Z" fill="#FFB8C6"/>
</svg>
