<svg xmlns="http://www.w3.org/2000/svg" viewBox="-76.5 -57 153 114" width="59" height="43.961">
  <!-- Foot (sneaker). Pivot at (0, 0) = ankle. -->
  <!-- Sourced from "Standing Foot 4.svg" — translate group recenters artwork on (0, 0). -->
  <g transform="translate(-76.5 -57)">
<path d="M25.0516 1.32672C32.8525 -0.612674 41.257 -0.506089 48.8722 2.1794C54.6022 4.26245 59.9653 7.79367 63.5314 12.7962C66.3523 16.726 67.5387 21.7262 66.8399 26.5064C74.0441 23.5637 81.5734 21.5061 89.1375 19.7266C93.8041 18.6167 98.5566 17.8289 103.349 17.5509C110.056 17.157 116.926 17.7779 123.236 20.19C127.562 21.8259 131.539 24.3561 134.854 27.5745C140.686 33.2583 144.222 40.8977 146.091 48.7317C148.438 58.6627 148.554 69.0107 147.431 79.1155C149.778 80.7212 151.559 83.1449 152.278 85.9045V92.6217C151.724 95.1913 150.656 97.6405 149.267 99.8695C148.647 100.938 147.544 101.568 146.572 102.272C143.233 104.455 139.593 106.144 135.859 107.537C126.914 110.866 117.425 112.449 107.948 113.288H82.9733C69.3334 112.294 55.6911 109.993 42.8195 105.275C42.4852 106.786 42.5827 108.445 41.791 109.821C40.9947 111.17 39.3254 111.904 37.7861 111.619C30.9092 110.535 24.0416 109.358 17.2367 107.875C14.46 107.252 11.6763 106.615 8.99703 105.646C7.53668 105.097 6.03919 104.353 5.14998 103.018C3.69891 100.959 3.47371 98.3402 3.36459 95.9004C3.28101 91.3079 3.88929 86.734 4.62992 82.2111C4.70421 81.8774 4.49061 81.5785 4.39078 81.2773C2.7238 77.4356 2.61004 73.1375 2.85614 69.02C3.41799 61.2972 5.41001 53.7621 7.73635 46.4031C5.33803 44.7093 3.45978 42.3296 2.22928 39.6789C0.341737 35.5337 -0.176002 30.8949 0.0492025 26.3859C0.388171 20.8481 2.949 15.5883 6.74731 11.5867C11.6252 6.41501 18.1979 3.05294 25.0516 1.32672ZM30.8257 8.18525C24.629 9.07269 18.4997 11.4361 13.7983 15.6439C10.4086 18.6677 7.9662 22.9589 7.8594 27.5676C7.8269 30.8161 8.15193 34.2083 9.74462 37.107C11.1678 39.8017 14.1187 41.6137 17.1671 41.6878C18.5717 41.8037 19.9833 41.8755 21.3856 42.0122C23.1687 42.2416 24.6406 43.845 24.7265 45.6361C24.8984 47.6103 23.3451 49.5496 21.3647 49.7744C19.2543 49.8624 17.1276 49.7999 15.0451 49.4222C13.0252 55.7177 11.3698 62.1731 10.7592 68.7698C10.5595 71.3996 10.4899 74.0828 11.0958 76.6687C11.3768 77.7971 11.797 78.9695 12.6978 79.755C13.3224 80.237 14.1025 80.4362 14.8431 80.6633C17.8172 81.516 20.8377 82.1787 23.8652 82.8135C33.8857 84.8595 44.0106 86.3656 54.1703 87.5265C67.4644 89.0048 80.8467 89.8574 94.2266 89.5724C104.672 89.3129 115.18 88.4394 125.321 85.8095C130.211 84.5212 135.012 82.7626 139.36 80.1582C140.071 75.1023 140.356 69.9839 140.224 64.8794C140.071 59.2674 139.386 53.6462 137.835 48.2405C136.542 43.8381 134.631 39.5631 131.799 35.9276C129.54 32.9965 126.645 30.545 123.352 28.8443C118.207 26.1403 112.301 25.2227 106.536 25.2968C98.5311 25.3246 90.7162 27.2965 83.036 29.361C77.8958 30.8045 72.7695 32.3871 67.9078 34.6184C65.9507 35.5754 63.9284 36.5439 62.3845 38.1218C61.9155 38.6385 61.2469 38.8656 60.6548 39.1923C58.1451 42.0099 55.1037 44.4104 51.6397 45.9512C49.9541 46.7506 47.7973 46.1088 46.778 44.561C45.4918 42.7699 46.1373 39.9917 48.0968 38.9653C52.0297 37.2251 55.2523 34.067 57.3348 30.3342C58.9972 27.3081 59.7726 23.6031 58.6094 20.2665C57.3836 16.6681 54.4072 14.0057 51.2798 12.0154C45.2527 8.22696 37.7977 7.22135 30.8257 8.18525ZM134.65 91.0785C126.076 94.2807 116.972 95.7961 107.89 96.6673C95.2435 97.8212 82.5113 97.6312 69.8511 96.811C54.9017 95.7961 40.0103 93.9007 25.2907 91.1017C20.7355 90.1981 16.1757 89.2596 11.725 87.9157C11.3861 90.9442 11.0401 94.005 11.3094 97.0543C11.3768 97.4366 11.3489 97.8745 11.5532 98.2151C13.0113 98.7875 14.5436 99.1605 16.062 99.5474C22.3747 101.07 28.7756 102.184 35.1788 103.252C35.411 101.816 35.62 100.377 35.8637 98.9427C36.1772 97.1655 37.8697 95.7683 39.676 95.7868C40.9761 95.7544 42.0604 96.5607 43.2328 96.9917C51.0105 100.178 59.227 102.161 67.4946 103.588C79.6951 105.595 92.1185 106.248 104.468 105.62C114.899 104.997 125.402 103.352 135.123 99.3968C137.805 98.2545 140.496 97.0218 142.834 95.2655C143.874 93.5717 144.617 91.6509 144.8 89.6628C144.914 88.5576 144.663 87.4106 143.992 86.5139C141.053 88.3676 137.898 89.8505 134.65 91.0785Z" fill="black"/>
<path d="M30.8257 8.18525C37.7977 7.22135 45.2527 8.22696 51.2798 12.0154C54.4072 14.0057 57.3836 16.6681 58.6094 20.2665C59.7726 23.6031 58.9972 27.3081 57.3348 30.3342C55.2523 34.067 52.0297 37.2251 48.0968 38.9653C46.1373 39.9917 45.4918 42.7699 46.778 44.561C47.7973 46.1088 49.9541 46.7506 51.6397 45.9512C55.1037 44.4104 58.1451 42.0099 60.6548 39.1923C61.2469 38.8656 61.9155 38.6385 62.3845 38.1218C63.9284 36.5439 65.9507 35.5754 67.9078 34.6184C72.7695 32.3871 77.8958 30.8045 83.036 29.361C90.7162 27.2965 98.5311 25.3246 106.536 25.2968C112.301 25.2227 118.207 26.1403 123.352 28.8443C126.645 30.545 129.54 32.9965 131.799 35.9276C134.631 39.5631 136.542 43.8381 137.835 48.2405C139.386 53.6462 140.071 59.2674 140.224 64.8794C140.356 69.9839 140.071 75.1023 139.36 80.1582C135.012 82.7626 130.211 84.5212 125.321 85.8095C115.18 88.4394 104.672 89.3129 94.2266 89.5724C80.8467 89.8574 67.4644 89.0048 54.1703 87.5265C44.0106 86.3656 33.8857 84.8595 23.8652 82.8135C20.8377 82.1787 17.8172 81.516 14.8431 80.6633C14.1025 80.4362 13.3224 80.237 12.6978 79.755C11.797 78.9695 11.3768 77.7971 11.0958 76.6687C10.4899 74.0828 10.5595 71.3996 10.7592 68.7698C11.3698 62.1731 13.0252 55.7177 15.0451 49.4222C17.1276 49.7999 19.2543 49.8624 21.3647 49.7744C23.3451 49.5496 24.8984 47.6103 24.7265 45.6361C24.6406 43.845 23.1687 42.2416 21.3856 42.0122C19.9833 41.8755 18.5717 41.8037 17.1671 41.6878C14.1187 41.6137 11.1678 39.8017 9.74462 37.107C8.15193 34.2083 7.8269 30.8161 7.8594 27.5676C7.9662 22.9589 10.4086 18.6677 13.7983 15.6439C18.4997 11.4361 24.629 9.07269 30.8257 8.18525Z" fill="white"/>
<path d="M134.65 91.0785C137.898 89.8505 141.053 88.3676 143.992 86.5139C144.663 87.4106 144.914 88.5576 144.8 89.6628C144.617 91.6509 143.874 93.5717 142.834 95.2655C140.496 97.0218 137.805 98.2545 135.123 99.3968C125.402 103.352 114.899 104.997 104.468 105.62C92.1185 106.248 79.6951 105.595 67.4946 103.588C59.227 102.161 51.0105 100.178 43.2328 96.9917C42.0604 96.5607 40.9761 95.7544 39.676 95.7868C37.8697 95.7683 36.1772 97.1655 35.8637 98.9427C35.62 100.377 35.411 101.816 35.1788 103.252C28.7756 102.184 22.3747 101.07 16.062 99.5474C14.5436 99.1605 13.0113 98.7875 11.5532 98.2151C11.3489 97.8745 11.3768 97.4366 11.3094 97.0543C11.0401 94.005 11.3861 90.9442 11.725 87.9157C16.1757 89.2596 20.7355 90.1981 25.2907 91.1017C40.0103 93.9007 54.9017 95.7961 69.8511 96.811C82.5113 97.6312 95.2435 97.8212 107.89 96.6673C116.972 95.7961 126.076 94.2807 134.65 91.0785Z" fill="#D684B7"/>
  </g>
</svg>
