<svg xmlns="http://www.w3.org/2000/svg" viewBox="-71 -75 142 150" width="64" height="67.606">
  <!-- Hand (gloved). Pivot at (0, 0) = wrist. -->
  <!-- Sourced from "Standing right hand.svg" — translate group recenters artwork on (0, 0). -->
  <g transform="translate(-71 -75)">
<path d="M86.3793 2.52616C89.602 0.299971 93.7392 -0.511934 97.5597 0.319018C101.827 1.19283 105.588 4.00949 107.864 7.72616C109.964 11.1619 110.803 15.2857 110.536 19.2904C110.309 23.0595 109.206 26.7309 107.618 30.1381C106.243 33.1095 105.319 36.2738 104.653 39.4762C103.23 46.5738 103.11 53.8809 103.696 61.0785C107.49 57.4738 111.514 54.0476 116.088 51.4833C119.483 49.5881 123.231 48.15 127.143 47.9881C130.704 47.8333 134.392 48.9809 137.001 51.4857C139.449 53.7285 140.935 56.8785 141.532 60.1285V66.7738C140.902 70.6666 138.985 74.269 136.268 77.0857C130.047 83.5881 121.78 87.5738 115.313 93.7904C112.187 96.7452 109.461 100.417 108.674 104.752C108.589 105.433 108.249 106.231 108.75 106.833C110.999 110.474 112.258 114.752 112.211 119.048C112.211 123.374 110.907 127.619 108.896 131.412C106.833 135.252 104.152 138.795 100.801 141.586C95.7002 145.912 89.3138 148.552 82.743 149.521H72.6542C70.1662 149.086 67.6972 148.474 65.3699 147.471C61.2186 145.745 57.502 142.848 55.033 139.045C52.8333 135.705 51.7535 131.702 51.633 127.717C48.0487 126.248 44.6464 124.305 41.6434 121.838C37.3952 118.364 33.9409 113.957 31.3986 109.083C27.6796 101.895 25.7328 93.8452 25.2933 85.769C17.7113 80.4738 10.479 74.3523 5.31405 66.5642C2.23778 61.869 -0.0115366 56.4047 0.000277083 50.7024C-0.0257129 45.8262 1.77705 40.8714 5.2479 37.419C7.56101 35.0524 10.6444 33.3643 13.9546 33.0524C16.5016 32.7904 19.188 33.4309 21.2152 35.0452C22.7982 36.2476 23.7859 38.0214 25.0523 39.5238C31.219 47.2214 37.9221 54.4714 44.7811 61.5404C38.5198 52.1738 33.8157 41.5238 32.4972 30.2333C32.1003 26.6714 32.0153 23.0571 32.4264 19.4928C33.0005 14.8928 34.9261 10.369 38.2647 7.1214C44.3038 1.01188 54.4635 -0.42622 61.9132 3.8333C65.5589 5.89283 68.3351 9.56187 69.0392 13.7452C69.4858 15.8857 69.1668 18.069 69.1999 20.2309C69.207 25.9762 69.7528 31.7047 70.3529 37.4143C70.9696 42.9476 71.6949 48.469 72.5384 53.9714C72.7274 53.9833 73.1031 54.0095 73.2921 54.0214C72.5904 49.3047 72.536 44.5095 72.8054 39.7547C73.3559 31.1619 74.8539 22.5547 77.9727 14.5119C79.8298 9.97854 82.2469 5.34997 86.3793 2.52616ZM91.7498 7.18092C89.5028 7.96426 87.8867 9.86425 86.6534 11.8333C84.4395 15.45 83.062 19.5095 81.9657 23.5928C80.4937 29.2666 79.6526 35.1047 79.3572 40.9619C79.1706 45.0809 79.2367 49.2285 79.8558 53.3119C80.3023 56.6119 77.8522 59.9 74.6341 60.5262C72.8243 60.8238 70.8443 60.6928 69.24 59.7214C67.4751 58.6976 66.2535 56.8119 65.9771 54.7833C65.0887 48.8428 64.2854 42.8881 63.6593 36.9143C62.9694 30.1143 62.3716 23.2762 62.6787 16.4357C62.752 13.6904 61.1761 11.0738 58.8299 9.72854C53.5184 6.60949 46.0759 7.92854 42.1325 12.6833C39.9328 15.2976 38.9711 18.7547 38.8176 22.1262C38.3804 30.4 40.4455 38.6309 43.7746 46.1476C45.6931 50.5071 48.0818 54.6523 50.7966 58.5547C52.5379 61.2595 51.9 65.169 49.4002 67.1714C47.5006 68.8119 44.644 69.119 42.4089 68.0238C40.9204 67.369 39.9493 66.0047 38.7986 64.9142C31.3868 57.1333 24.0599 49.2309 17.5506 40.6547C16.589 39.65 15.0532 39.4333 13.7608 39.8143C10.9421 40.5666 8.74946 42.9 7.6248 45.5476C6.17172 48.9119 6.44816 52.7809 7.5492 56.2071C9.3047 61.5547 12.8063 66.1047 16.667 70.0928C21.2412 74.7047 26.4392 78.65 31.8711 82.1738C31.7223 89.6809 33.2391 97.2357 36.3083 104.081C38.6734 109.281 42.1939 114.005 46.7729 117.424C51.2833 120.836 56.7199 122.848 62.2605 123.745C63.1348 123.855 63.9239 124.359 64.4484 125.064C65.566 126.519 65.1691 128.836 63.6144 129.802C62.055 130.902 60.1246 130.036 58.4447 129.788C58.7661 131.731 59.4135 133.64 60.4932 135.295C62.4448 138.376 65.5873 140.538 68.9683 141.75C73.363 143.329 78.1664 143.543 82.7454 142.776C87.8087 141.898 92.6949 139.767 96.6335 136.417C99.5633 133.974 101.82 130.793 103.523 127.386C105.437 123.524 106.219 118.993 105.083 114.776C103.956 116.659 102.703 118.476 101.227 120.102C100.093 121.345 97.9968 121.436 96.7398 120.331C95.3742 119.221 95.1474 116.969 96.3311 115.648C98.9963 112.609 101.023 108.943 101.943 104.981C102.349 101.84 103.381 98.7857 105.002 96.0714C106.874 92.8309 109.461 90.0809 112.228 87.6023C116.599 83.7428 121.53 80.6166 126.179 77.1238C128.913 75.0071 131.713 72.7976 133.542 69.7976C135.446 66.4428 135.808 62.1285 134.161 58.5952C133.166 56.4785 131.096 54.8809 128.75 54.6928C125.031 54.3571 121.487 55.9952 118.359 57.85C110.888 62.4071 105.076 69.0928 99.3058 75.5738C98.63 71.9857 97.8314 68.4119 97.4298 64.7785C96.617 57.6642 96.487 50.45 97.3447 43.3309C98.0393 37.7166 99.3743 32.1381 101.777 27.0023C103.334 23.5619 104.35 19.7333 103.852 15.9309C103.493 13.0595 102.108 10.2619 99.7972 8.49045C97.5573 6.74283 94.4173 6.11902 91.7498 7.18092Z" fill="black"/>
<path d="M91.3505 73.2738C92.9453 73.1285 94.8308 72.6119 96.1681 73.8095C97.6637 74.9833 97.7747 77.4928 96.3406 78.7619C95.2537 79.9547 93.5431 79.6238 92.1207 79.8809C87.667 80.5452 83.1518 82.2381 80.0117 85.6071C77.5852 88.2095 76.3282 91.7309 76.066 95.2547C75.8581 97.7857 76.0967 100.326 76.5007 102.826C76.789 104.564 75.4351 106.338 73.7056 106.538C72.0304 106.838 70.3056 105.602 70.0008 103.926C69.1361 98.9928 69.0534 93.8047 70.5986 88.9952C71.9785 84.5809 74.8563 80.6619 78.6532 78.0547C82.391 75.4 86.8471 73.9095 91.3505 73.2738Z" fill="black"/>
<path d="M91.7498 7.18092C94.4173 6.11902 97.5573 6.74283 99.7972 8.49045C102.108 10.2619 103.493 13.0595 103.852 15.9309C104.35 19.7333 103.334 23.5619 101.777 27.0023C99.3743 32.1381 98.0393 37.7166 97.3447 43.3309C96.487 50.45 96.617 57.6642 97.4298 64.7785C97.8314 68.4119 98.63 71.9857 99.3058 75.5738C105.076 69.0928 110.888 62.4071 118.359 57.85C121.487 55.9952 125.031 54.3571 128.75 54.6928C131.096 54.8809 133.166 56.4785 134.161 58.5952C135.808 62.1285 135.446 66.4428 133.542 69.7976C131.713 72.7976 128.913 75.0071 126.179 77.1238C121.53 80.6166 116.599 83.7428 112.228 87.6023C109.461 90.0809 106.874 92.8309 105.002 96.0714C103.381 98.7857 102.349 101.84 101.943 104.981C101.023 108.943 98.9963 112.609 96.3311 115.648C95.1474 116.969 95.3742 119.221 96.7398 120.331C97.9968 121.436 100.093 121.345 101.227 120.102C102.703 118.476 103.956 116.659 105.083 114.776C106.219 118.993 105.437 123.524 103.523 127.386C101.82 130.793 99.5633 133.974 96.6335 136.417C92.6949 139.767 87.8087 141.898 82.7454 142.776C78.1664 143.543 73.363 143.329 68.9683 141.75C65.5873 140.538 62.4448 138.376 60.4932 135.295C59.4135 133.64 58.7661 131.731 58.4447 129.788C60.1246 130.036 62.055 130.902 63.6144 129.802C65.1691 128.836 65.566 126.519 64.4484 125.064C63.9239 124.359 63.1348 123.855 62.2605 123.745C56.7199 122.848 51.2833 120.836 46.7729 117.424C42.1939 114.005 38.6734 109.281 36.3083 104.081C33.2391 97.2357 31.7223 89.6809 31.8711 82.1738C26.4392 78.65 21.2412 74.7047 16.667 70.0928C12.8063 66.1047 9.3047 61.5547 7.5492 56.2071C6.44816 52.7809 6.17172 48.9119 7.6248 45.5476C8.74946 42.9 10.9421 40.5666 13.7608 39.8143C15.0532 39.4333 16.589 39.65 17.5506 40.6547C24.0599 49.2309 31.3868 57.1333 38.7986 64.9142C39.9493 66.0047 40.9204 67.369 42.4089 68.0238C44.644 69.119 47.5006 68.8119 49.4002 67.1714C51.9 65.169 52.5379 61.2595 50.7966 58.5547C48.0818 54.6523 45.6931 50.5071 43.7746 46.1476C40.4455 38.6309 38.3804 30.4 38.8176 22.1262C38.9711 18.7547 39.9328 15.2976 42.1325 12.6833C46.0759 7.92854 53.5184 6.60949 58.8299 9.72854C61.1761 11.0738 62.752 13.6904 62.6787 16.4357C62.3716 23.2762 62.9694 30.1143 63.6593 36.9143C64.2854 42.8881 65.0887 48.8428 65.9771 54.7833C66.2535 56.8119 67.4751 58.6976 69.24 59.7214C70.8443 60.6928 72.8243 60.8238 74.6341 60.5262C77.8522 59.9 80.3023 56.6119 79.8558 53.3119C79.2367 49.2285 79.1706 45.0809 79.3572 40.9619C79.6526 35.1047 80.4937 29.2666 81.9657 23.5928C83.062 19.5095 84.4395 15.45 86.6534 11.8333C87.8867 9.86425 89.5028 7.96426 91.7498 7.18092ZM91.3505 73.2738C86.8471 73.9095 82.391 75.4 78.6532 78.0547C74.8563 80.6619 71.9785 84.5809 70.5986 88.9952C69.0534 93.8047 69.1361 98.9928 70.0008 103.926C70.3056 105.602 72.0304 106.838 73.7056 106.538C75.4351 106.338 76.789 104.564 76.5007 102.826C76.0967 100.326 75.8581 97.7857 76.066 95.2547C76.3282 91.7309 77.5852 88.2095 80.0117 85.6071C83.1518 82.2381 87.667 80.5452 92.1207 79.8809C93.5431 79.6238 95.2537 79.9547 96.3406 78.7619C97.7747 77.4928 97.6637 74.9833 96.1681 73.8095C94.8308 72.6119 92.9453 73.1285 91.3505 73.2738Z" fill="white"/>
  </g>
</svg>
