<svg xmlns="http://www.w3.org/2000/svg" viewBox="-33.5 -72 67 144" width="30" height="96.716" preserveAspectRatio="none">
  <!-- Leg (single segment, curved). Vertical natural orientation. -->
  <!-- Pivot at (0, 0) = body center. Hip at -Y, ankle at +Y. -->
  <!-- Sourced from "Standing Legs 2.svg" — translate group recenters artwork on (0, 0). -->
  <!-- Size chosen so the visible black stroke matches shell.svg's stroke. -->

  <g transform="translate(-33.5 -72)">
<path d="M45.3743 0.180573C49.7856 -0.446366 54.4218 0.57241 58.1459 3.03119C61.782 5.37731 64.5696 9.02139 65.8411 13.1651C67.6922 18.9251 66.5282 25.5447 62.7968 30.3055C57.8402 36.0851 54.0525 42.7585 50.7441 49.5887C42.8679 66.2296 38.7893 84.521 37.8014 102.866C37.4273 109.802 37.4933 116.759 37.9481 123.69C38.2342 127.878 37.0678 132.159 34.6641 135.599C32.0575 139.412 27.991 142.192 23.4966 143.23C19.638 144.137 15.4958 143.781 11.8523 142.219C6.37495 139.919 2.14711 134.862 0.887801 129.041C0.337618 126.541 0.371852 123.967 0.21291 121.425C-0.770083 99.57 1.62138 77.49 7.9986 56.5365C10.8302 47.2083 14.4565 38.1153 18.8775 29.4263C22.9464 21.5577 27.5704 13.9291 33.2214 7.09159C36.2022 3.352 40.6281 0.797716 45.3743 0.180573ZM41.3519 8.57078C39.8187 9.53323 38.6108 10.9169 37.4957 12.3251C33.3535 17.5071 29.8152 23.1471 26.6168 28.9561C33.8572 32.5757 40.8359 36.7243 47.4772 41.3504C50.3895 36.0508 53.5904 30.8663 57.5346 26.2671C60.3124 22.7822 60.8699 17.7153 58.9577 13.6965C57.4759 10.4442 54.4878 7.91935 51.0253 7.03527C47.7756 6.17323 44.1688 6.71935 41.3519 8.57078ZM11.3144 69.8026C7.07919 88.143 5.83211 107.123 7.09386 125.889C7.36528 129.656 9.52444 133.229 12.7375 135.208C17.2172 138.156 23.6507 137.571 27.4922 133.809C30.1306 131.394 31.5806 127.76 31.341 124.19C30.0157 104.235 31.8545 83.9651 37.7598 64.8189C37.9725 64.05 38.354 63.2932 38.2635 62.4728C38.085 60.0092 37.7354 57.5504 37.0996 55.1626C36.1386 51.5014 34.2802 47.9994 31.3948 45.5014C28.4581 42.8565 24.4821 41.1618 20.4865 41.6051C16.5814 50.6981 13.542 60.1585 11.3144 69.8026Z" fill="black"/>
<path d="M41.3519 8.57078C44.1688 6.71935 47.7756 6.17323 51.0253 7.03527C54.4878 7.91935 57.4759 10.4442 58.9577 13.6965C60.8699 17.7153 60.3124 22.7822 57.5346 26.2671C53.5904 30.8663 50.3895 36.0508 47.4772 41.3504C40.8359 36.7243 33.8572 32.5757 26.6168 28.9561C29.8152 23.1471 33.3535 17.5071 37.4957 12.3251C38.6108 10.9169 39.8187 9.53323 41.3519 8.57078Z" fill="#FFCA05"/>
<path d="M11.3144 69.8026C13.542 60.1585 16.5814 50.6981 20.4865 41.6051C24.4821 41.1618 28.4581 42.8565 31.3948 45.5014C34.2802 47.9994 36.1386 51.5014 37.0996 55.1626C37.7354 57.5504 38.085 60.0092 38.2635 62.4728C38.354 63.2932 37.9725 64.05 37.7598 64.8189C31.8545 83.9651 30.0157 104.235 31.341 124.19C31.5806 127.76 30.1306 131.394 27.4922 133.809C23.6507 137.571 17.2172 138.156 12.7375 135.208C9.52444 133.229 7.36528 129.656 7.09386 125.889C5.83211 107.123 7.07919 88.143 11.3144 69.8026Z" fill="#FFCA05"/>
  </g>
</svg>
