<svg xmlns="http://www.w3.org/2000/svg" viewBox="-121.5 -227 243 454" width="100" height="186.831">
  <!-- Peanut shell (torso). Pivot at (0, 0) = physics body center. -->
  <!-- Sourced from "Standing Body.svg" — translate group recenters artwork on (0, 0). -->
  <g transform="translate(-121.5 -227)">
<path d="M136.033 0H142.449C148.922 0.4284 155.333 1.50463 161.696 2.71669C168.076 4.51388 174.492 6.2954 180.627 8.81878C183.109 10.4383 185.773 11.7235 188.354 13.1655C190.877 14.9731 193.588 16.4882 196.138 18.254C203.516 24.0374 210.255 30.7403 215.573 38.4986C217.498 41.3093 219.35 44.1723 221.213 47.0248C223.06 49.8094 224.247 52.9649 225.86 55.8801C227.572 59.0148 228.659 62.4315 230.2 65.6498C232.593 70.4405 233.608 75.759 235.523 80.743C236.319 82.8171 236.548 85.0375 237.026 87.1952C239.503 96.249 240.841 105.585 241.741 114.921C241.97 122.235 242.854 129.528 242.75 136.858C242.324 147.903 242.048 159.01 239.977 169.903C238.624 176.82 238.166 183.914 236.21 190.706C233.67 199.734 231.781 208.992 228.155 217.674C225.886 223.353 223.414 228.943 221.208 234.643C219.866 238.175 218.513 241.743 217.998 245.51C217.305 246.262 217.025 247.584 218.096 248.159C217.946 255.833 219.657 263.383 221.359 270.817C223.05 276.167 224.918 281.464 226.24 286.924C227.291 290.377 227.754 294.05 229.455 297.273C237.885 314.106 241.954 333.311 239.888 352.119C237.812 371.465 229.929 390.09 217.867 405.277C213.772 409.692 209.891 414.31 205.525 418.469C198.615 425.078 191.111 431.117 182.848 435.934C170.417 441.738 157.575 446.607 144.608 451.053C140.836 451.665 137.105 452.631 133.27 452.809C129.42 453.028 125.632 454.157 121.765 453.838C112.378 453.028 102.757 453.295 93.6669 450.479C85.638 448.911 78.1502 445.437 70.7874 441.989C66.2344 439.847 61.8427 437.397 57.399 435.056C54.8441 433.735 52.7836 431.676 50.3952 430.104C46.5707 427.57 43.3549 424.273 39.9831 421.191C33.0834 414.775 27.1931 407.346 22.0001 399.494C18.6907 394.374 15.1836 389.312 12.9357 383.601C9.52227 376.684 7.12869 369.323 4.72991 362.009C3.8037 357.087 2.34675 352.276 1.73794 347.297C0.718073 341.921 0.307002 336.477 0 331.028V327.799C0.567173 319.435 1.41533 311.092 2.47163 302.78C3.044 297.367 4.51137 292.112 5.73418 286.825C7.11308 281.558 9.38178 276.59 11.1978 271.475C13.6382 264.872 15.2669 258.017 17.2754 251.278C18.7479 246.335 20.1633 241.372 21.563 236.409C22.9627 231.467 23.1604 226.3 23.7692 221.227C24.5133 214.895 24.045 208.516 23.8421 202.174C23.8057 196.751 22.6349 191.432 22.0209 186.067C21.589 181.825 20.4391 177.682 20.1945 173.419C20.0644 170.78 19.1018 168.273 18.9925 165.634C18.7584 160.389 17.676 155.212 17.6864 149.951C17.7177 141.571 17.4939 133.159 18.493 124.821C20.2778 109.686 23.8837 94.7653 29.2276 80.5027C31.3454 75.6022 33.4736 70.6913 35.9973 65.9841C37.1004 63.3772 38.573 60.9583 40.1496 58.6229C42.7878 53.9001 46.2012 49.6945 49.214 45.2224C56.1398 36.2103 64.4652 28.3528 73.5348 21.5454C78.2699 17.5383 83.7752 14.6492 89.1659 11.6661C94.6451 9.22106 100.119 6.72902 105.806 4.80644C107.321 4.59224 108.809 4.23699 110.219 3.63618C118.649 1.43148 127.317 0.0992635 136.033 0ZM94.1924 17.8674C89.3949 20.6468 84.2279 22.8515 79.8622 26.3257C71.6408 32.7779 63.4558 39.486 56.9983 47.7876C52.4609 53.8008 47.8923 59.835 44.3124 66.4857C43.074 69.4845 41.0967 72.1071 39.9831 75.1582C36.5333 83.1672 32.9689 91.1814 30.9031 99.6867C28.598 107.194 27.396 114.979 26.4854 122.763C26.0171 126.948 25.3823 131.117 25.2834 135.333C25.0597 142.981 25.6321 150.619 25.887 158.257C26.3866 162.797 26.8028 167.358 27.6718 171.846C28.4367 177.708 29.3161 183.559 30.3204 189.384C30.6013 194.175 31.0749 198.961 31.7877 203.715C32.1468 209.519 31.4807 215.313 31.2726 221.117C30.617 226.801 30.2163 232.543 29.0247 238.154C25.8558 249.501 22.9575 260.938 19.1174 272.087C16.0005 281.25 11.7493 290.189 10.7191 299.927C8.9603 306.578 8.60126 313.485 7.73749 320.287C7.24317 323.254 8.06531 326.227 7.71668 329.194C7.31602 332.695 8.34109 336.127 8.42435 339.617C8.91867 344.173 9.54308 348.734 10.6982 353.18C11.3122 356.774 11.9939 360.389 13.2948 363.811C14.6008 367.097 15.2408 370.64 16.9424 373.764C19.081 377.975 20.5275 382.509 22.8482 386.631C27.6718 394.818 33.2447 402.55 39.3119 409.854C43.459 413.898 47.653 417.905 52.0395 421.687C56.2594 425.396 61.0778 428.327 65.8546 431.243C69.7155 433.996 74.2061 435.615 78.5561 437.402C85.69 440.714 93.3391 443.165 101.16 444.021C101.363 444.998 103.241 444.967 103.985 444.492L104.334 444.737C114.928 446.634 125.762 445.829 136.403 444.826C140.732 443.917 145.04 442.93 149.375 442.052C154.838 440.401 160.271 438.588 165.5 436.279C169.439 434.111 173.664 432.481 177.421 429.983C183.046 426.969 188.13 423.056 193.13 419.111C198.089 415.225 202.247 410.47 206.68 406.019C207.716 404.791 208.527 403.397 209.578 402.179C219.486 389.949 226.838 375.503 230.116 360.044C234.555 339.434 231.526 317.455 222.446 298.517C221.499 296.364 219.907 294.463 219.611 292.07C217.467 284.097 214.787 276.277 212.659 268.299C211.681 262.495 210.734 256.654 210.489 250.766C210.536 241.378 212.706 231.979 216.91 223.583C217.821 221.687 219.246 220.052 219.803 217.988C223.055 209.587 225.329 200.857 227.78 192.2C228.992 187.363 229.679 182.41 230.746 177.541C233.051 165.504 234.061 153.268 234.706 141.043C235.262 132.501 234.107 123.98 233.925 115.443C233.181 108.469 232.114 101.515 230.71 94.6399C230.179 90.1261 228.581 85.8473 227.385 81.4849C224.684 71.8354 221.078 62.3741 215.869 53.7904C212.315 46.6068 207.018 40.5152 202.07 34.2877C194.759 27.0937 186.819 20.1766 177.177 16.3785C175.236 15.7045 173.612 14.3828 171.687 13.6879C161.015 9.94725 149.744 7.80525 138.422 7.83137C123.196 7.92018 107.877 11.0757 94.1924 17.8674Z" fill="black"/>
<path d="M133.889 19.44C136.158 18.3481 139.722 19.628 139.748 22.4701C139.946 24.2569 138.401 25.4271 137.454 26.7176C136.241 28.2013 135.201 30.1761 133.187 30.6359C130.138 31.3464 127.213 27.3393 129.17 24.7375C130.538 22.8254 131.834 20.6729 133.889 19.44Z" fill="black"/>
<path d="M147.522 20.7513C148.61 20.3333 149.89 20.396 150.993 20.7461C153.038 21.979 153.21 24.6017 154.167 26.5765C156.722 31.7225 156.935 37.694 156.394 43.3155C156.082 47.9495 154.151 52.5209 150.925 55.8697C146.398 59.997 139.806 61.9718 133.806 60.5246C126.943 58.8894 120.621 55.0704 115.818 49.9034C114.481 48.5085 113.175 46.4762 114.122 44.5014C115.11 41.8788 118.956 41.1108 120.772 43.3102C124.518 48.0644 129.799 51.8678 135.83 52.9022C139.499 53.5292 143.786 52.6776 146.138 49.5534C149.005 45.8911 148.834 40.9436 148.745 36.5394C148.782 32.2659 146.065 28.6715 145.373 24.5599C145.046 22.9508 146.19 21.4879 147.522 20.7513Z" fill="black"/>
<path d="M105.291 26.8691C107.388 26.1063 110.443 26.8534 111.015 29.2827C111.395 31.524 110.125 33.5929 109.163 35.5207C106.056 41.0637 102.851 46.6695 98.2823 51.1521C94.8897 54.5531 90.831 57.7714 85.9242 58.4035C82.1829 58.9782 77.9161 57.8863 75.5694 54.736C73.8158 52.3484 72.4161 49.4907 72.4577 46.4658C72.4421 44.8305 73.3787 43.1692 74.9189 42.537C76.7349 42.093 78.9776 42.8975 79.7529 44.6947C80.2889 46.7165 80.5334 49.1668 82.4275 50.4415C84.0718 51.4237 86.0491 50.5722 87.5737 49.7467C91.3513 47.5681 94.0415 44.0051 96.8358 40.7398C99.1669 37.5582 101.269 34.1675 102.731 30.4896C103.293 29.126 103.923 27.6005 105.291 26.8691Z" fill="black"/>
<path d="M179.19 26.7228C180.533 25.9235 182.312 26.3518 183.504 27.2766C186.475 29.476 189.223 32.198 190.763 35.6199C191.549 37.9866 192.907 40.254 192.855 42.8244C192.948 46.2986 192.73 50.034 190.732 53.0015C189.077 55.3681 186.673 57.2228 183.972 58.205C179.508 59.2603 174.658 59.0252 170.428 57.1915C168.039 56.2511 167.295 52.9022 168.731 50.8752C170.012 49.4437 172.249 49.0362 173.956 49.9243C176.932 51.3715 180.855 51.732 183.546 49.5011C185.601 47.751 185.487 44.7313 184.914 42.3281C184.144 39.3188 182.781 36.1894 180.111 34.4183C178.691 33.4257 176.906 32.2606 176.906 30.3067C176.75 28.7133 178.056 27.59 179.19 26.7228Z" fill="black"/>
<path d="M191.767 64.6571C192.745 64.4273 193.848 64.0563 194.806 64.5631C197.402 65.8587 199.093 68.3247 201.144 70.2943C205.234 74.1969 208.194 79.0974 210.801 84.071C212.581 88.8774 213.616 94.2481 212.237 99.3001C211.27 102.942 208.845 106.384 205.327 107.889C202.507 108.704 199.577 105.376 200.691 102.659C201.622 100.752 203.969 99.9009 204.568 97.7746C205.702 94.1384 205.265 90.0163 203.35 86.7198C200.774 82.0648 198.037 77.2845 193.822 73.9095C192.319 72.64 190.607 71.4854 189.639 69.7196C188.588 67.8283 190.138 65.5871 191.767 64.6571Z" fill="black"/>
<path d="M117.389 68.868C124.726 67.4626 132.073 69.8188 138.708 72.802C140.461 73.5961 142.262 75.2574 141.877 77.389C141.486 80.299 137.605 81.6678 135.31 80.0064C130.877 77.0494 125.366 76.3702 120.163 76.4747C116.297 76.527 112.508 78.2719 109.99 81.2185C108.908 82.5141 108.752 84.3635 107.576 85.5913C105.578 87.4616 101.779 86.2443 101.186 83.5747C100.837 81.9029 101.659 80.3042 102.45 78.8936C104.204 75.8582 106.644 73.105 109.766 71.4645C112.259 70.4667 114.694 69.2128 117.389 68.868Z" fill="black"/>
<path d="M209.349 123.045C211.394 121.917 214.381 123.024 214.855 125.433C216.067 130.547 216.629 135.85 216.343 141.106C216.077 148.294 215.573 155.583 213.325 162.463C211.774 167.212 209.927 171.935 207.195 176.13C205.811 177.504 205.171 179.933 202.991 180.231C200.181 180.863 197.397 177.739 198.37 175.007C199.036 173.68 200.181 172.687 200.972 171.444C202.783 168.905 203.745 165.911 204.776 162.996C207.102 156.272 208.486 149.209 208.715 142.093C208.808 138.765 208.46 135.453 208.304 132.135C208.226 130.171 207.341 128.353 207.2 126.404C207.096 124.926 208.319 123.881 209.349 123.045Z" fill="black"/>
<path d="M49.5782 152.218C52.4141 150.954 56.0669 153.54 55.3384 156.706C54.8181 159.772 50.7022 160.577 48.6312 158.529C46.4874 156.847 47.5229 153.472 49.5782 152.218Z" fill="black"/>
<path d="M37.5687 157.876C39.5252 156.842 42.2518 158.127 42.8398 160.264C43.6619 162.541 41.9136 165.143 39.5981 165.509C37.0432 165.744 34.5559 163.142 35.1335 160.572C35.4249 159.318 36.6009 158.587 37.5687 157.876Z" fill="black"/>
<path d="M157.856 159.093C159.417 158.712 161.363 159.036 162.264 160.509C163.84 162.965 162.009 166.538 159.261 167.066C157.149 167.285 155.151 165.525 154.792 163.482C154.5 161.512 156.248 159.861 157.856 159.093Z" fill="black"/>
<path d="M51.0976 167.269C53.1842 166.428 56.1814 167.343 56.6757 169.767C57.3209 172.186 55.2916 174.39 53.1218 175.054C50.9571 175.383 48.8706 173.507 48.4959 171.428C48.2774 169.6 49.7708 168.246 51.0976 167.269Z" fill="black"/>
<path d="M170.75 170.446C173.67 168.947 177.687 171.705 176.906 175.033C176.214 178.283 171.651 179.035 169.621 176.595C167.691 174.84 168.513 171.496 170.75 170.446Z" fill="black"/>
<path d="M157.716 173.518C160.687 172.562 163.778 176.135 162.524 178.962C161.405 181.365 157.549 182.138 155.801 180.017C154.089 177.969 154.708 173.931 157.716 173.518Z" fill="black"/>
<path d="M195.227 199.17C198.11 197.587 201.883 200.612 200.878 203.746C200.103 207.064 199.89 210.496 198.865 213.751C196.169 222.805 192.589 231.786 186.751 239.288C183.15 243.885 178.493 248.028 172.686 249.402C168.294 250.588 163.101 249.919 159.875 246.456C154.079 240.432 151.664 231.786 151.711 223.562C151.716 221.473 151.331 219.216 152.325 217.283C154.011 214.498 158.939 215.778 159.376 218.902C159.62 222.026 159.152 225.187 159.704 228.296C160.396 232.418 161.66 236.629 164.345 239.904C165.719 241.613 167.956 242.673 170.162 242.208C173.524 241.519 176.162 239.074 178.462 236.66C185.929 228.593 190.003 218.004 192.438 207.419C193.276 204.629 192.235 200.857 195.227 199.17Z" fill="black"/>
<path d="M47.986 203.872C50.0413 203.119 53.1062 203.861 53.5953 206.29C53.8346 208.924 53.231 211.541 53.1738 214.174C53.0333 218.552 53.1686 222.941 53.3143 227.319C53.8034 231.843 53.8763 236.508 55.5622 240.798C56.4468 243.791 58.0078 246.644 60.3233 248.76C61.7491 249.993 64.0958 250.64 64.3924 252.782C64.8919 255.86 61.0986 258.467 58.4449 256.826C54.3706 254.209 50.8583 250.463 49.1255 245.876C48.1317 243.598 47.1638 241.263 46.9401 238.765C46.6799 235.767 45.6549 232.877 45.6549 229.853C45.5716 224.806 45.3374 219.754 45.5612 214.707C45.6913 211.922 45.249 209.091 45.8942 206.353C46.1544 205.246 47.0806 204.462 47.986 203.872Z" fill="black"/>
<path d="M46.0295 272.98C48.3346 270.713 51.0664 268.8 54.1312 267.745C55.8536 267.202 57.4198 268.236 58.8195 269.098C59.1109 270.514 59.7822 272.087 59.0485 273.487C58.3616 274.824 56.759 275.122 55.5101 275.707C53.1374 276.564 51.5555 278.664 49.9841 280.54C46.8048 284.369 44.6142 289.139 44.2395 294.144C43.7192 297.211 38.8748 298.078 37.2877 295.429C36.1846 293.622 36.5853 291.375 37.0952 289.442C38.8176 283.403 41.5233 277.447 46.0295 272.98Z" fill="black"/>
<path d="M193.765 269.213C195.467 268.377 197.886 268.842 198.698 270.702C199.983 273.513 201.445 276.277 202.221 279.291C202.793 281.412 202.84 283.638 203.407 285.764C204 287.535 202.778 289.463 201.185 290.205C199.265 290.847 196.736 290.027 196.023 287.995C195.087 285.487 195.409 282.687 194.421 280.19C193.427 277.713 191.882 275.404 191.455 272.729C191.33 271.167 192.626 270.039 193.765 269.213Z" fill="black"/>
<path d="M157.96 276.193C159.235 275.686 160.916 275.723 161.915 276.788C164.225 279.354 165.609 282.567 167.155 285.623C168.997 289.071 170.121 292.859 171.037 296.646C171.385 298.099 171.578 299.964 170.308 301.045C168.529 302.942 165.001 302.137 164.033 299.786C162.956 297.085 162.498 294.165 161.223 291.537C159.958 288.841 159.053 285.947 157.31 283.502C156.514 282.274 155.437 280.994 155.645 279.427C155.759 278.011 156.93 277.018 157.96 276.193Z" fill="black"/>
<path d="M88.1512 277.635C90.3315 276.559 93.7137 277.912 93.849 280.576C93.7605 282.342 92.8759 283.962 92.6834 285.722C91.2785 294.698 90.8986 303.976 92.8395 312.91C93.6148 316.447 94.8741 319.879 96.6692 323.03C98.1834 325.438 96.0136 329.074 93.1777 328.855C91.4242 328.865 90.0557 327.512 89.3792 326.002C87.7089 322.377 86.2052 318.657 85.1281 314.812C84.6806 311.416 83.822 308.046 83.9989 304.598C83.7804 297.012 84.2799 289.416 85.5339 281.935C85.7421 280.179 86.611 278.549 88.1512 277.635Z" fill="black"/>
<path d="M67.1866 281.762C68.8153 281.187 71.0007 281.412 71.9218 283.063C73.2746 285.466 72.952 288.35 73.1706 291.004C73.8314 296.516 72.3745 302.085 70.0381 307.043C67.962 311.139 64.97 315.172 60.5627 316.886C55.4373 318.85 49.5782 317.957 44.7807 315.496C41.9084 314.007 39.3587 311.719 37.9122 308.788C36.5905 305.899 39.8947 302.169 42.9127 303.313C44.7339 304.029 45.2178 306.186 46.6227 307.393C49.8176 310.12 54.7192 311.029 58.4917 308.981C61.1194 307.571 62.6701 304.838 63.7264 302.148C65.9222 296.955 65.7921 291.218 64.9908 285.743C64.5901 284.139 65.8129 282.452 67.1866 281.762Z" fill="black"/>
<path d="M128.592 285.372C130.252 284.75 132.604 284.745 133.78 286.292C139.4 295.377 141.83 306.066 142.615 316.63C142.855 323.056 139.514 329.764 133.707 332.747C129.253 335.103 123.982 334.805 119.158 334.09C116.114 333.343 112.633 332.392 110.807 329.618C109.105 327.037 111.483 323.176 114.512 323.474C116.104 323.855 117.119 325.349 118.649 325.882C121.979 326.974 125.684 327.084 129.019 325.966C131.579 325.135 133.858 323.118 134.55 320.449C135.315 317.434 134.483 314.357 134.191 311.337C133.988 308.469 133.01 305.753 132.568 302.926C132.011 299.609 130.403 296.631 129.097 293.574C128.545 292.159 127.115 291.328 126.542 289.944C126.266 288.24 126.974 286.172 128.592 285.372Z" fill="black"/>
<path d="M161.915 315.167C164.392 313.991 167.831 315.836 167.836 318.652C165.734 325.934 164.943 333.651 165.916 341.19C166.504 344.648 167.311 348.326 169.731 351.001C171.557 352.95 174.559 353.091 177.005 352.506C180.413 351.759 183.671 350.212 186.303 347.893C187.651 346.759 187.875 344.685 189.488 343.807C191.137 342.699 193.63 343.06 194.712 344.789C195.997 346.837 195.201 349.517 193.744 351.252C189.254 356.753 182.396 360.201 175.345 360.698C170.402 360.995 165.557 358.367 162.716 354.366C158.793 349.105 157.862 342.323 157.638 335.929C157.305 329.952 158.397 324.017 159.849 318.249C160.187 317.048 160.755 315.768 161.915 315.167Z" fill="black"/>
<path d="M28.6813 333.463C30.669 332.893 33.3488 333.74 33.9159 335.934C34.2437 338.698 33.354 341.451 33.6558 344.225C34.0668 348.007 33.9107 351.957 35.477 355.504C36.6842 357.871 34.4207 361.136 31.7721 360.734C29.6803 360.562 28.1505 358.733 27.573 356.826C26.5219 353.091 26.5167 349.178 26.1316 345.343C25.8454 342.37 26.0015 339.377 26.2513 336.409C26.2721 334.988 27.6146 334.137 28.6813 333.463Z" fill="black"/>
<path d="M211.504 336.132C211.982 334.356 214.038 334.058 215.51 333.536C216.681 334.079 218.195 334.377 218.752 335.709C219.97 338.233 220.089 341.096 220.682 343.802C221.874 349.282 221.676 354.961 221.083 360.504C219.975 365.3 217.987 370.107 214.366 373.55C211.493 376.271 207.435 377.975 203.459 377.306C200.623 376.47 199.957 372.008 202.398 370.352C204.177 369.276 206.571 369.84 208.236 368.492C211.285 366.089 213.21 362.307 213.424 358.425C213.856 353.096 214.183 347.574 212.508 342.417C211.925 340.39 211.015 338.274 211.504 336.132Z" fill="black"/>
<path d="M63.0343 340.761C64.9388 339.805 67.6758 340.469 68.3678 342.658C71.1829 351.769 71.8541 361.617 69.8352 370.974C68.5603 376.59 65.4227 382.248 60.0579 384.803C56.8787 386.443 53.153 386.537 49.7239 385.717C43.8337 384.448 38.2816 381.198 34.5768 376.392C33.1042 374.5 32.5162 371.293 34.5351 369.574C36.372 367.886 39.546 368.754 40.5971 370.922C41.9604 373.983 45.1241 375.639 48.038 376.919C51.1185 378.084 54.8285 379.155 57.8777 377.363C60.9269 375.054 61.8479 371.063 62.5608 367.5C63.7264 359.752 62.9615 351.769 60.776 344.277C60.5939 342.762 61.8531 341.493 63.0343 340.761Z" fill="black"/>
<path d="M84.9355 352.777C86.3717 351.994 88.3334 352.584 89.2127 353.958C90.6905 356.205 90.8987 358.984 91.5387 361.539C92.0278 363.984 93.1153 366.356 92.9644 368.889C92.5742 371.11 90.0973 372.688 87.9379 371.841C85.4611 371.199 85.0552 368.294 84.6285 366.167C84.1966 362.819 82.6772 359.71 82.4171 356.346C82.1933 354.637 83.6867 353.571 84.9355 352.777Z" fill="black"/>
<path d="M142.23 362.275C144.588 361.403 147.928 362.923 147.741 365.744C146.601 371.089 145.623 376.674 142.662 381.37C141.112 383.502 139.769 385.811 137.922 387.708C134.946 390.602 131.615 393.246 127.692 394.708C123.602 396.824 118.971 397.425 114.439 397.65C108.996 397.639 103.491 397.227 98.2563 395.659C96.227 394.985 93.875 394.097 92.9956 391.955C91.9653 389.484 94.1508 386.412 96.8045 386.548C98.1262 386.715 99.297 387.399 100.489 387.953C103.356 389.453 106.655 389.688 109.829 389.891C115.043 390.074 120.444 389.651 125.252 387.462C131.251 384.39 136.07 378.941 138.177 372.494C138.999 369.804 139.525 367.035 140.149 364.297C140.654 363.461 141.419 362.798 142.23 362.275Z" fill="black"/>
<path d="M182.193 395.064C184.477 394.405 187.313 396.098 187.396 398.601C187.443 400.826 185.846 402.581 184.592 404.259C178.654 411.317 172.951 418.746 165.542 424.341C162.212 426.723 158.231 428.839 154.001 428.191C148.854 427.883 144.931 423.286 143.927 418.464C143.323 414.556 143.906 409.984 146.945 407.184C149.213 405.204 153.085 407.299 153.194 410.173C153.485 411.787 151.675 412.701 151.56 414.221C151.331 416.181 151.638 418.443 153.163 419.843C154.552 420.93 156.436 420.491 157.888 419.77C161.696 417.884 164.886 414.963 167.644 411.761C172.051 406.756 177.197 402.263 180.398 396.317C180.788 395.664 181.537 395.361 182.193 395.064Z" fill="black"/>
<path d="M78.7643 401.464C80.4033 400.868 82.62 401.453 83.4317 403.109C84.8106 405.753 85.4923 408.746 85.6848 411.709C85.5755 415.825 84.0613 420.167 80.7103 422.732C77.4998 425.297 73.0665 425.888 69.1639 424.837C62.1705 423.045 56.2594 418.532 51.0196 413.725C48.9226 411.688 46.5342 409.849 44.9836 407.336C43.4122 404.603 46.4874 400.925 49.4377 401.934C52.1747 402.639 53.5276 405.387 55.4737 407.189C59.8602 411.296 64.6578 415.324 70.496 417.095C72.1923 417.382 74.3101 418.046 75.7567 416.74C77.6871 414.796 78.4781 411.677 77.5258 409.075C77.1096 407.832 76.4904 406.662 76.2458 405.377C76.0064 403.658 77.401 402.252 78.7643 401.464Z" fill="black"/>
<path d="M131.74 405.612C133.796 404.87 136.543 405.8 137.272 407.994C137.547 408.997 137.584 410.267 136.861 411.108C134.035 414.138 132.651 418.286 129.482 421.034C126.454 423.699 122.983 425.898 119.263 427.444C115.037 428.672 110.385 428.865 106.218 427.282C103.267 426.149 99.8225 425.308 97.8868 422.586C96.1437 419.979 99.0784 416.217 102.008 416.865C103.735 417.414 105.094 418.73 106.78 419.388C110.542 421.112 115.115 421.107 118.773 419.106C122.27 417.236 125.241 414.436 127.479 411.165C128.738 409.211 129.357 406.531 131.74 405.612Z" fill="black"/>
<path d="M105.806 4.80644C107.206 4.18474 108.689 3.77201 110.219 3.63618C108.809 4.23699 107.321 4.59224 105.806 4.80644Z" fill="#403201"/>
<path d="M94.1924 17.8674C107.877 11.0757 123.196 7.92018 138.422 7.83137C149.744 7.80525 161.015 9.94725 171.687 13.6879C173.612 14.3828 175.236 15.7045 177.177 16.3785C186.819 20.1766 194.759 27.0937 202.07 34.2877C207.018 40.5152 212.315 46.6068 215.869 53.7904C221.078 62.3741 224.684 71.8354 227.385 81.4849C228.581 85.8473 230.179 90.1261 230.71 94.6399C232.114 101.515 233.181 108.469 233.925 115.443C234.107 123.98 235.262 132.501 234.706 141.043C234.061 153.268 233.051 165.504 230.746 177.541C229.679 182.41 228.992 187.363 227.78 192.2C225.329 200.857 223.055 209.587 219.803 217.988C219.246 220.052 217.821 221.687 216.91 223.583C212.706 231.979 210.536 241.378 210.489 250.766C210.734 256.654 211.681 262.495 212.659 268.299C214.787 276.277 217.467 284.097 219.611 292.07C219.907 294.463 221.499 296.364 222.446 298.517C231.526 317.455 234.555 339.434 230.116 360.044C226.838 375.503 219.486 389.949 209.578 402.179C208.527 403.397 207.716 404.791 206.68 406.019C202.247 410.47 198.089 415.225 193.13 419.111C188.13 423.056 183.046 426.969 177.421 429.983C173.664 432.481 169.439 434.111 165.5 436.279C160.271 438.588 154.838 440.401 149.375 442.052C145.04 442.93 140.732 443.917 136.403 444.826C125.762 445.829 114.928 446.634 104.334 444.737L103.985 444.492C103.194 443.833 102.107 444.042 101.16 444.021C93.3391 443.165 85.69 440.714 78.5561 437.402C74.2061 435.615 69.7155 433.996 65.8546 431.243C61.0778 428.327 56.2594 425.396 52.0395 421.687C47.653 417.905 43.459 413.898 39.3119 409.854C33.2447 402.55 27.6718 394.818 22.8482 386.631C20.5275 382.509 19.081 377.975 16.9424 373.764C15.2408 370.64 14.6008 367.097 13.2948 363.811C11.9939 360.389 11.3122 356.774 10.6982 353.18C9.54308 348.734 8.91867 344.173 8.42435 339.617C8.34109 336.127 7.31602 332.695 7.71668 329.194C8.06531 326.227 7.24317 323.254 7.73749 320.287C8.60126 313.485 8.9603 306.578 10.7191 299.927C11.7493 290.189 16.0005 281.25 19.1174 272.087C22.9575 260.938 25.8558 249.501 29.0247 238.154C30.2163 232.543 30.617 226.801 31.2726 221.117C32.1103 215.365 32.4486 209.488 31.7877 203.715C31.0749 198.961 30.6013 194.175 30.3204 189.384C29.3161 183.559 28.4367 177.708 27.6718 171.846C26.8028 167.358 26.3866 162.797 25.887 158.257C25.6321 150.619 25.0597 142.981 25.2834 135.333C25.3823 131.117 26.0171 126.948 26.4854 122.763C27.396 114.979 28.598 107.194 30.9031 99.6867C32.9689 91.1814 36.5333 83.1672 39.9831 75.1582C41.0967 72.1071 43.074 69.4845 44.3124 66.4857C47.8923 59.835 52.4609 53.8008 56.9983 47.7876C63.4558 39.486 71.6408 32.7779 79.8622 26.3257C84.2279 22.8515 89.3949 20.6468 94.1924 17.8674ZM133.889 19.44C131.834 20.6729 130.538 22.8254 129.17 24.7375C127.213 27.3393 130.138 31.3464 133.187 30.6359C135.201 30.1761 136.241 28.2013 137.454 26.7176C138.401 25.4271 139.946 24.2569 139.748 22.4701C139.722 19.628 136.158 18.3481 133.889 19.44ZM147.522 20.7513C146.19 21.4879 145.046 22.9508 145.373 24.5599C146.065 28.6715 148.782 32.2659 148.745 36.5394C148.834 40.9436 149.005 45.8911 146.138 49.5534C143.786 52.6776 139.499 53.5292 135.83 52.9022C129.799 51.8678 124.518 48.0644 120.772 43.3102C118.956 41.1108 115.11 41.8788 114.122 44.5014C113.175 46.4762 114.481 48.5085 115.818 49.9034C120.621 55.0704 126.943 58.8894 133.806 60.5246C139.806 61.9718 146.398 59.997 150.925 55.8697C154.151 52.5209 156.082 47.9495 156.394 43.3155C156.935 37.694 156.722 31.7225 154.167 26.5765C153.21 24.6017 153.038 21.979 150.993 20.7461C149.89 20.396 148.61 20.3333 147.522 20.7513ZM105.291 26.8691C103.923 27.6005 103.293 29.126 102.731 30.4896C101.269 34.1675 99.1669 37.5582 96.8358 40.7398C94.0415 44.0051 91.3513 47.5681 87.5737 49.7467C86.0491 50.5722 84.0718 51.4237 82.4275 50.4415C80.5334 49.1668 80.2889 46.7165 79.7529 44.6947C78.9776 42.8975 76.7349 42.093 74.9189 42.537C73.3787 43.1692 72.4421 44.8305 72.4577 46.4658C72.4161 49.4907 73.8158 52.3484 75.5694 54.736C77.9161 57.8863 82.1829 58.9782 85.9242 58.4035C90.831 57.7714 94.8897 54.5531 98.2823 51.1521C102.851 46.6695 106.056 41.0637 109.163 35.5207C110.125 33.5929 111.395 31.524 111.015 29.2827C110.443 26.8534 107.388 26.1063 105.291 26.8691ZM179.19 26.7228C178.056 27.59 176.75 28.7133 176.906 30.3067C176.906 32.2606 178.691 33.4257 180.111 34.4183C182.781 36.1894 184.144 39.3188 184.914 42.3281C185.487 44.7313 185.601 47.751 183.546 49.5011C180.855 51.732 176.932 51.3715 173.956 49.9243C172.249 49.0362 170.012 49.4437 168.731 50.8752C167.295 52.9022 168.039 56.2511 170.428 57.1915C174.658 59.0252 179.508 59.2603 183.972 58.205C186.673 57.2228 189.077 55.3681 190.732 53.0015C192.73 50.034 192.948 46.2986 192.855 42.8244C192.907 40.254 191.549 37.9866 190.763 35.6199C189.223 32.198 186.475 29.476 183.504 27.2766C182.312 26.3518 180.533 25.9235 179.19 26.7228ZM191.767 64.6571C190.138 65.5871 188.588 67.8283 189.639 69.7196C190.607 71.4854 192.319 72.64 193.822 73.9095C198.037 77.2845 200.774 82.0648 203.35 86.7198C205.265 90.0163 205.702 94.1384 204.568 97.7746C203.969 99.9009 201.622 100.752 200.691 102.659C199.577 105.376 202.507 108.704 205.327 107.889C208.845 106.384 211.27 102.942 212.237 99.3001C213.616 94.2481 212.581 88.8774 210.801 84.071C208.194 79.0974 205.234 74.1969 201.144 70.2943C199.093 68.3247 197.402 65.8587 194.806 64.5631C193.848 64.0563 192.745 64.4273 191.767 64.6571ZM117.389 68.868C114.694 69.2128 112.259 70.4667 109.766 71.4645C106.644 73.105 104.204 75.8582 102.45 78.8936C101.659 80.3042 100.837 81.9029 101.186 83.5747C101.779 86.2443 105.578 87.4616 107.576 85.5913C108.752 84.3635 108.908 82.5141 109.99 81.2185C112.508 78.2719 116.297 76.527 120.163 76.4747C125.366 76.3702 130.877 77.0494 135.31 80.0064C137.605 81.6678 141.486 80.299 141.877 77.389C142.262 75.2574 140.461 73.5961 138.708 72.802C132.073 69.8188 124.726 67.4626 117.389 68.868ZM209.349 123.045C208.319 123.881 207.096 124.926 207.2 126.404C207.341 128.353 208.226 130.171 208.304 132.135C208.46 135.453 208.808 138.765 208.715 142.093C208.486 149.209 207.102 156.272 204.776 162.996C203.745 165.911 202.783 168.905 200.972 171.444C200.181 172.687 199.036 173.68 198.37 175.007C197.397 177.739 200.181 180.863 202.991 180.231C205.171 179.933 205.811 177.504 207.195 176.13C209.927 171.935 211.774 167.212 213.325 162.463C215.573 155.583 216.077 148.294 216.343 141.106C216.629 135.85 216.067 130.547 214.855 125.433C214.381 123.024 211.394 121.917 209.349 123.045ZM49.5782 152.218C47.5229 153.472 46.4874 156.847 48.6312 158.529C50.7022 160.577 54.8181 159.772 55.3384 156.706C56.0669 153.54 52.4141 150.954 49.5782 152.218ZM37.5687 157.876C36.6009 158.587 35.4249 159.318 35.1335 160.572C34.5559 163.142 37.0432 165.744 39.5981 165.509C41.9136 165.143 43.6619 162.541 42.8398 160.264C42.2518 158.127 39.5252 156.842 37.5687 157.876ZM157.856 159.093C156.248 159.861 154.5 161.512 154.792 163.482C155.151 165.525 157.149 167.285 159.261 167.066C162.009 166.538 163.84 162.965 162.264 160.509C161.363 159.036 159.417 158.712 157.856 159.093ZM51.0976 167.269C49.7708 168.246 48.2774 169.6 48.4959 171.428C48.8706 173.507 50.9571 175.383 53.1218 175.054C55.2916 174.39 57.3209 172.186 56.6757 169.767C56.1814 167.343 53.1842 166.428 51.0976 167.269ZM170.75 170.446C168.513 171.496 167.691 174.84 169.621 176.595C171.651 179.035 176.214 178.283 176.906 175.033C177.687 171.705 173.67 168.947 170.75 170.446ZM157.716 173.518C154.708 173.931 154.089 177.969 155.801 180.017C157.549 182.138 161.405 181.365 162.524 178.962C163.778 176.135 160.687 172.562 157.716 173.518ZM195.227 199.17C192.235 200.857 193.276 204.629 192.438 207.419C190.003 218.004 185.929 228.593 178.462 236.66C176.162 239.074 173.524 241.519 170.162 242.208C167.956 242.673 165.719 241.613 164.345 239.904C161.66 236.629 160.396 232.418 159.704 228.296C159.152 225.187 159.62 222.026 159.376 218.902C158.939 215.778 154.011 214.498 152.325 217.283C151.331 219.216 151.716 221.473 151.711 223.562C151.664 231.786 154.079 240.432 159.875 246.456C163.101 249.919 168.294 250.588 172.686 249.402C178.493 248.028 183.15 243.885 186.751 239.288C192.589 231.786 196.169 222.805 198.865 213.751C199.89 210.496 200.103 207.064 200.878 203.746C201.883 200.612 198.11 197.587 195.227 199.17ZM47.986 203.872C47.0806 204.462 46.1544 205.246 45.8942 206.353C45.249 209.091 45.6913 211.922 45.5612 214.707C45.3374 219.754 45.5716 224.806 45.6549 229.853C45.6549 232.877 46.6799 235.767 46.9401 238.765C47.1638 241.263 48.1317 243.598 49.1255 245.876C50.8583 250.463 54.3706 254.209 58.4449 256.826C61.0986 258.467 64.8919 255.86 64.3924 252.782C64.0958 250.64 61.7491 249.993 60.3233 248.76C58.0078 246.644 56.4468 243.791 55.5622 240.798C53.8763 236.508 53.8034 231.843 53.3143 227.319C53.1686 222.941 53.0333 218.552 53.1738 214.174C53.231 211.541 53.8346 208.924 53.5953 206.29C53.1062 203.861 50.0413 203.119 47.986 203.872ZM46.0295 272.98C41.5233 277.447 38.8176 283.403 37.0952 289.442C36.5853 291.375 36.1846 293.622 37.2877 295.429C38.8748 298.078 43.7192 297.211 44.2395 294.144C44.6142 289.139 46.8048 284.369 49.9841 280.54C51.5555 278.664 53.1374 276.564 55.5101 275.707C56.759 275.122 58.3616 274.824 59.0485 273.487C59.7822 272.087 59.1109 270.514 58.8195 269.098C57.4198 268.236 55.8536 267.202 54.1312 267.745C51.0664 268.8 48.3346 270.713 46.0295 272.98ZM193.765 269.213C192.626 270.039 191.33 271.167 191.455 272.729C191.882 275.404 193.427 277.713 194.421 280.19C195.409 282.687 195.087 285.487 196.023 287.995C196.736 290.027 199.265 290.847 201.185 290.205C202.778 289.463 204 287.535 203.407 285.764C202.84 283.638 202.793 281.412 202.221 279.291C201.445 276.277 199.983 273.513 198.698 270.702C197.886 268.842 195.467 268.377 193.765 269.213ZM157.96 276.193C156.93 277.018 155.759 278.011 155.645 279.427C155.437 280.994 156.514 282.274 157.31 283.502C159.053 285.947 159.958 288.841 161.223 291.537C162.498 294.165 162.956 297.085 164.033 299.786C165.001 302.137 168.529 302.942 170.308 301.045C171.578 299.964 171.385 298.099 171.037 296.646C170.121 292.859 168.997 289.071 167.155 285.623C165.609 282.567 164.225 279.354 161.915 276.788C160.916 275.723 159.235 275.686 157.96 276.193ZM88.1512 277.635C86.611 278.549 85.7421 280.179 85.5339 281.935C84.2799 289.416 83.7804 297.012 83.9989 304.598C83.822 308.046 84.6806 311.416 85.1281 314.812C86.2052 318.657 87.7089 322.377 89.3792 326.002C90.0557 327.512 91.4242 328.865 93.1777 328.855C96.0136 329.074 98.1834 325.438 96.6692 323.03C94.8741 319.879 93.6148 316.447 92.8395 312.91C90.8986 303.976 91.2785 294.698 92.6834 285.722C92.8759 283.962 93.7605 282.342 93.849 280.576C93.7137 277.912 90.3315 276.559 88.1512 277.635ZM67.1866 281.762C65.8129 282.452 64.5901 284.139 64.9908 285.743C65.7921 291.218 65.9222 296.955 63.7264 302.148C62.6701 304.838 61.1194 307.571 58.4917 308.981C54.7192 311.029 49.8176 310.12 46.6227 307.393C45.2178 306.186 44.7339 304.029 42.9127 303.313C39.8947 302.169 36.5905 305.899 37.9122 308.788C39.3587 311.719 41.9084 314.007 44.7807 315.496C49.5782 317.957 55.4373 318.85 60.5627 316.886C64.97 315.172 67.962 311.139 70.0381 307.043C72.3745 302.085 73.8314 296.516 73.1706 291.004C72.952 288.35 73.2746 285.466 71.9218 283.063C71.0007 281.412 68.8153 281.187 67.1866 281.762ZM128.592 285.372C126.974 286.172 126.266 288.24 126.542 289.944C127.115 291.328 128.545 292.159 129.097 293.574C130.403 296.631 132.011 299.609 132.568 302.926C133.01 305.753 133.988 308.469 134.191 311.337C134.483 314.357 135.315 317.434 134.55 320.449C133.858 323.118 131.579 325.135 129.019 325.966C125.684 327.084 121.979 326.974 118.649 325.882C117.119 325.349 116.104 323.855 114.512 323.474C111.483 323.176 109.105 327.037 110.807 329.618C112.633 332.392 116.114 333.343 119.158 334.09C123.982 334.805 129.253 335.103 133.707 332.747C139.514 329.764 142.855 323.056 142.615 316.63C141.83 306.066 139.4 295.377 133.78 286.292C132.604 284.745 130.252 284.75 128.592 285.372ZM161.915 315.167C160.755 315.768 160.187 317.048 159.849 318.249C158.397 324.017 157.305 329.952 157.638 335.929C157.862 342.323 158.793 349.105 162.716 354.366C165.557 358.367 170.402 360.995 175.345 360.698C182.396 360.201 189.254 356.753 193.744 351.252C195.201 349.517 195.997 346.837 194.712 344.789C193.63 343.06 191.137 342.699 189.488 343.807C187.875 344.685 187.651 346.759 186.303 347.893C183.671 350.212 180.413 351.759 177.005 352.506C174.559 353.091 171.557 352.95 169.731 351.001C167.311 348.326 166.504 344.648 165.916 341.19C164.943 333.651 165.734 325.934 167.836 318.652C167.831 315.836 164.392 313.991 161.915 315.167ZM28.6813 333.463C27.6146 334.137 26.2721 334.988 26.2513 336.409C26.0015 339.377 25.8454 342.37 26.1316 345.343C26.5167 349.178 26.5219 353.091 27.573 356.826C28.1505 358.733 29.6803 360.562 31.7721 360.734C34.4207 361.136 36.6842 357.871 35.477 355.504C33.9107 351.957 34.0668 348.007 33.6558 344.225C33.354 341.451 34.2437 338.698 33.9159 335.934C33.3488 333.74 30.669 332.893 28.6813 333.463ZM211.504 336.132C211.015 338.274 211.925 340.39 212.508 342.417C214.183 347.574 213.856 353.096 213.424 358.425C213.21 362.307 211.285 366.089 208.236 368.492C206.571 369.84 204.177 369.276 202.398 370.352C199.957 372.008 200.623 376.47 203.459 377.306C207.435 377.975 211.493 376.271 214.366 373.55C217.987 370.107 219.975 365.3 221.083 360.504C221.676 354.961 221.874 349.282 220.682 343.802C220.089 341.096 219.97 338.233 218.752 335.709C218.195 334.377 216.681 334.079 215.51 333.536C214.038 334.058 211.982 334.356 211.504 336.132ZM63.0343 340.761C61.8531 341.493 60.5939 342.762 60.776 344.277C62.9615 351.769 63.7264 359.752 62.5608 367.5C61.8479 371.063 60.9269 375.054 57.8777 377.363C54.8285 379.155 51.1185 378.084 48.038 376.919C45.1241 375.639 41.9604 373.983 40.5971 370.922C39.546 368.754 36.372 367.886 34.5351 369.574C32.5162 371.293 33.1042 374.5 34.5768 376.392C38.2816 381.198 43.8337 384.448 49.7239 385.717C53.153 386.537 56.8787 386.443 60.0579 384.803C65.4227 382.248 68.5603 376.59 69.8352 370.974C71.8541 361.617 71.1829 351.769 68.3678 342.658C67.6758 340.469 64.9388 339.805 63.0343 340.761ZM84.9355 352.777C83.6867 353.571 82.1933 354.637 82.4171 356.346C82.6772 359.71 84.1966 362.819 84.6285 366.167C85.0552 368.294 85.4611 371.199 87.9379 371.841C90.0973 372.688 92.5742 371.11 92.9644 368.889C93.1153 366.356 92.0278 363.984 91.5387 361.539C90.8987 358.984 90.6905 356.205 89.2127 353.958C88.3334 352.584 86.3717 351.994 84.9355 352.777ZM142.23 362.275C141.419 362.798 140.654 363.461 140.149 364.297C139.525 367.035 138.999 369.804 138.177 372.494C136.07 378.941 131.251 384.39 125.252 387.462C120.444 389.651 115.043 390.074 109.829 389.891C106.655 389.688 103.356 389.453 100.489 387.953C99.297 387.399 98.1262 386.715 96.8045 386.548C94.1508 386.412 91.9653 389.484 92.9956 391.955C93.875 394.097 96.227 394.985 98.2563 395.659C103.491 397.227 108.996 397.639 114.439 397.65C118.971 397.425 123.602 396.824 127.692 394.708C131.615 393.246 134.946 390.602 137.922 387.708C139.769 385.811 141.112 383.502 142.662 381.37C145.623 376.674 146.601 371.089 147.741 365.744C147.928 362.923 144.588 361.403 142.23 362.275ZM182.193 395.064C181.537 395.361 180.788 395.664 180.398 396.317C177.197 402.263 172.051 406.756 167.644 411.761C164.886 414.963 161.696 417.884 157.888 419.77C156.436 420.491 154.552 420.93 153.163 419.843C151.638 418.443 151.331 416.181 151.56 414.221C151.675 412.701 153.485 411.787 153.194 410.173C153.085 407.299 149.213 405.204 146.945 407.184C143.906 409.984 143.323 414.556 143.927 418.464C144.931 423.286 148.854 427.883 154.001 428.191C158.231 428.839 162.212 426.723 165.542 424.341C172.951 418.746 178.654 411.317 184.592 404.259C185.846 402.581 187.443 400.826 187.396 398.601C187.313 396.098 184.477 394.405 182.193 395.064ZM78.7643 401.464C77.401 402.252 76.0064 403.658 76.2458 405.377C76.4904 406.662 77.1096 407.832 77.5258 409.075C78.4781 411.677 77.6871 414.796 75.7567 416.74C74.3101 418.046 72.1923 417.382 70.496 417.095C64.6578 415.324 59.8602 411.296 55.4737 407.189C53.5276 405.387 52.1747 402.639 49.4377 401.934C46.4874 400.925 43.4122 404.603 44.9836 407.336C46.5342 409.849 48.9226 411.688 51.0196 413.725C56.2594 418.532 62.1705 423.045 69.1639 424.837C73.0665 425.888 77.4998 425.297 80.7103 422.732C84.0613 420.167 85.5755 415.825 85.6848 411.709C85.4923 408.746 84.8106 405.753 83.4317 403.109C82.62 401.453 80.4033 400.868 78.7643 401.464ZM131.74 405.612C129.357 406.531 128.738 409.211 127.479 411.165C125.241 414.436 122.27 417.236 118.773 419.106C115.115 421.107 110.542 421.112 106.78 419.388C105.094 418.73 103.735 417.414 102.008 416.865C99.0784 416.217 96.1437 419.979 97.8868 422.586C99.8225 425.308 103.267 426.149 106.218 427.282C110.385 428.865 115.037 428.672 119.263 427.444C122.983 425.898 126.454 423.699 129.482 421.034C132.651 418.286 134.035 414.138 136.861 411.108C137.584 410.267 137.547 408.997 137.272 407.994C136.543 405.8 133.796 404.87 131.74 405.612Z" fill="#FFCA05"/>
<path d="M217.998 245.51C217.305 246.262 217.025 247.584 218.096 248.159C218.195 247.271 218.159 246.383 217.998 245.51Z" fill="#3F3201"/>
<path d="M103.985 444.492C103.194 443.833 102.107 444.042 101.16 444.021C101.363 444.998 103.241 444.967 103.985 444.492Z" fill="#4F3E01"/>
  </g>
</svg>
