<svg width="261" height="172" viewBox="0 0 261 172" fill="none" xmlns="http://www.w3.org/2000/svg">
<path d="M116.906 121.506C124.942 120.245 133.474 121.295 140.682 125.186C146.615 128.228 151.685 133.414 153.72 139.856C155.686 145.921 154.543 152.834 150.881 158.03C146.909 163.844 140.603 167.77 133.896 169.654C124.996 172.171 115.165 171.425 106.829 167.382C100.382 164.193 94.7673 158.673 92.7765 151.617C90.8005 144.915 92.7128 137.418 97.1846 132.143C102.098 126.231 109.409 122.718 116.906 121.506ZM117.867 131.402C113.101 132.305 108.398 134.435 105.123 138.105C102.892 140.563 101.583 143.919 101.99 147.26C102.441 151.293 105.241 154.654 108.482 156.887C114.405 160.866 121.966 161.975 128.909 160.67C133.641 159.728 138.294 157.588 141.545 153.938C143.996 151.215 145.418 147.358 144.506 143.713C143.506 139.503 140.226 136.23 136.543 134.174C130.905 131.069 124.163 130.239 117.867 131.402Z" fill="black"/>
<path d="M117.867 131.402C124.163 130.239 130.905 131.069 136.543 134.174C140.226 136.23 143.506 139.503 144.506 143.713C145.418 147.358 143.996 151.215 141.545 153.938C138.294 157.588 133.641 159.728 128.909 160.67C121.966 161.975 114.405 160.866 108.482 156.887C105.241 154.654 102.441 151.293 101.99 147.26C101.583 143.919 102.892 140.563 105.123 138.105C108.398 134.435 113.101 132.305 117.867 131.402Z" fill="#C44055"/>
<path d="M191.105 2.85259C206.835 1.2514 223.05 3.95125 237.274 10.9521C245.215 14.6965 252.773 19.367 259.36 25.2052C261.695 27.1562 261.504 31.2405 258.997 32.9599C257.604 34.0733 255.638 34.3739 254.014 33.5954C240.825 27.8558 227.268 22.663 213.074 20.1011C203.716 18.3964 194.107 17.9333 184.651 19.0763C176.641 19.8646 168.769 21.5988 160.965 23.5055C157.723 24.5056 154.418 21.451 154.677 18.1846C154.663 16.4455 155.86 14.997 157.302 14.1693C167.504 7.8483 179.197 4.07934 191.105 2.85259Z" fill="black"/>
<path d="M2.40335 20.1307C20.3794 7.62659 42.034 0.591209 63.8848 0H69.0251C79.2368 0.325165 89.4437 1.96084 99.1159 5.30117C100.381 5.70516 101.627 6.36042 102.991 6.2471C109.686 5.86282 116.489 7.07972 122.605 9.86333C131.772 13.9131 139.252 21.8944 142.244 31.5459C142.979 33.8171 142.018 36.5268 139.958 37.7437C138.129 39.1528 135.451 39.0444 133.621 37.7043C132.11 36.7584 131.61 34.9503 130.987 33.3885C128.662 27.506 123.846 22.7862 118.146 20.1799C110.47 16.608 101.215 16.4553 93.4901 19.9681C87.83 22.5349 83.2931 27.5011 81.3851 33.4526C79.2761 39.9953 79.4919 47.1834 81.39 53.7507C83.6707 61.4512 89.1592 68.2304 96.4869 71.5855C102.544 74.5711 109.828 74.3297 115.993 71.8023C121.546 69.4719 125.744 64.6684 128.172 59.2243C129.844 55.3962 135.573 55.0317 137.878 58.4508C138.791 60.0077 139.144 61.9587 138.442 63.6732C135.46 70.477 130.531 76.5369 124.086 80.291C113.379 86.5037 99.3563 86.6662 88.7129 80.2024C88.5371 79.2889 89.0937 81.0492 88.7129 80.2024L83.8915 76.9655C82.3579 76.7412 85.2558 76.2697 83.8915 76.9655C77.9321 71.9353 73.253 65.3384 70.9183 57.8498C68.2109 49.2132 67.8773 39.7243 70.4082 31.004C71.8944 25.9196 74.6165 21.2539 78.148 17.3323C65.7683 16.4947 53.3052 17.5047 41.1512 19.9385C29.3404 22.2344 17.8191 25.7718 6.3566 29.3831C3.39902 30.3241 0.412002 27.9198 0 24.9884V23.7321C0.215811 22.2344 1.16243 20.9534 2.40335 20.1307Z" fill="black"/>
<path d="M93.4901 19.9681C101.215 16.4553 110.47 16.608 118.146 20.1799C123.846 22.7862 128.662 27.506 130.987 33.3885C131.61 34.9503 132.11 36.7584 133.621 37.7043C135.451 39.0444 138.129 39.1528 139.958 37.7437C140.493 37.9556 140.767 38.3497 140.767 38.9212C141.67 45.5329 140.728 52.4057 137.878 58.4508C135.573 55.0317 129.844 55.3962 128.172 59.2243C125.744 64.6684 121.546 69.4719 115.993 71.8023C109.828 74.3297 102.544 74.5711 96.4869 71.5855C89.1592 68.2304 83.6707 61.4512 81.39 53.7507C79.4919 47.1834 79.2761 39.9953 81.3851 33.4526C83.2931 27.5011 87.83 22.5349 93.4901 19.9681Z" fill="#FFCA05"/>
</svg>
