<svg width="235" height="242" viewBox="0 0 235 242" fill="none" xmlns="http://www.w3.org/2000/svg">
<path d="M51.771 1.50021C60.0142 -1.05987 69.1722 -0.268749 76.9924 3.30357C84.5027 6.79726 90.3261 13.1753 94.2559 20.3544C98.6185 28.2754 101.033 37.1202 102.445 46.0043C104.614 60.3279 104.265 74.9366 102.509 89.2848C113.231 93.1716 122.345 101.903 125.566 112.964C126.068 114.895 125.251 116.915 123.879 118.276C121.961 119.893 118.951 120.183 116.939 118.581C115.257 117.455 114.859 115.357 114.062 113.637C111.121 106.812 104.924 101.682 97.925 99.3777C90.1343 96.793 81.2173 97.1714 73.9282 101.078C68.3508 103.952 64.0915 109.2 62.3848 115.23C60.4568 121.932 60.7372 129.214 62.798 135.853C65.6654 145.228 73.4216 153.149 83.0321 155.522C91.0835 157.272 100.276 155.159 106.035 149.061C108.411 146.707 110.113 143.788 111.598 140.82C112.577 138.855 114.849 137.676 117.023 137.97C118.646 138.113 119.935 139.214 121.13 140.211C121.218 141.258 121.946 142.157 121.902 143.238C121.912 145.724 120.328 147.818 119.192 149.916C114.982 157.07 108.219 162.751 100.271 165.286C93.3214 167.438 85.6881 167.89 78.6745 165.753C68.8279 162.77 60.3535 155.699 55.4843 146.673C50.8119 138.157 49.2282 128.099 50.4824 118.512C37.1929 114.335 22.4427 117.387 10.7173 124.492C7.86467 126.492 3.56109 125.912 1.45111 123.111C-0.963808 120.251 -0.275236 115.446 2.85285 113.382C5.67108 111.628 8.64669 110.109 11.6813 108.758C11.1255 85.968 12.9208 62.834 19.9098 41.0168C23.0772 31.3563 27.366 21.8776 33.9271 14.0156C38.6193 8.37949 44.6738 3.63279 51.771 1.50021ZM43.5278 23.6957C38.4176 30.2556 35.1666 38.0538 32.609 45.906C26.7365 64.7601 24.9511 84.6609 25.2118 104.336C30.1744 103.363 35.2354 102.847 40.2915 103.073C39.721 96.8717 39.4308 90.6164 39.8833 84.4005C40.7243 83.1819 42.3425 83.1917 43.6606 83.0345C49.5725 82.7544 55.6024 83.516 61.4061 82.0468C64.3571 81.3147 67.3573 79.526 68.3606 76.4992C69.6148 73.2708 68.036 69.8066 65.9801 67.3104C61.0323 61.2124 53.9695 57.4386 48.2199 52.2153C46.8526 50.8443 44.9295 49.1098 45.7411 46.9575C49.1544 35.1497 53.9351 23.5778 61.1995 13.5881C54.0531 13.7797 47.733 18.1628 43.5278 23.6957Z" fill="black"/>
<path d="M175.566 5.21994C183.48 0.0604741 193.577 -1.21219 202.667 1.13659C210.654 3.04314 217.628 8.15837 222.453 14.7281C230.234 25.2288 233.357 38.3044 235 51.0507V83.1671C234.41 89.103 233.608 95.0241 232.492 100.886C230.873 110.409 227.927 119.627 225.198 128.87C227.824 131.681 230.475 134.477 232.885 137.479C234.493 139.484 234.788 142.422 233.583 144.702C232.133 147.651 228.395 149.198 225.296 148.029C222.611 147.179 221.268 144.506 219.404 142.619C216.522 139.081 212.813 136.383 209.316 133.499C200.611 126.664 191 120.497 180.116 117.863C168.061 114.905 155.086 117.421 144.369 123.445C142.687 124.345 141.069 125.617 139.077 125.666C136.254 125.927 133.416 124.173 132.329 121.568C131.04 118.605 132.186 114.832 134.98 113.171C137.72 111.51 140.587 110.07 143.499 108.738C143.4 101.063 143.317 93.378 143.823 85.7125C145.127 66.0721 148.422 46.2057 156.763 28.2262C161.121 19.2733 167.048 10.6693 175.566 5.21994ZM184.941 15.6126C179.073 18.4478 174.824 23.7154 171.592 29.2286C166.546 38.039 163.477 47.8273 161.283 57.6991C157.924 72.9907 156.798 88.705 157.029 104.341C161.987 103.358 167.048 102.852 172.104 103.073C171.528 96.8766 171.243 90.6213 171.696 84.4103C172.512 83.1917 174.12 83.1917 175.434 83.0394C181.341 82.7495 187.37 83.516 193.174 82.0566C196.14 81.3294 199.16 79.5457 200.173 76.4992C201.422 73.2855 199.868 69.8361 197.817 67.3448C192.874 61.2321 185.797 57.4485 180.037 52.2202C178.665 50.8443 176.737 49.1049 177.558 46.9428C180.972 35.1448 185.752 23.5778 193.012 13.5881C190.218 13.7306 187.444 14.3596 184.941 15.6126Z" fill="black"/>
<path d="M151.235 164.402C151.643 160.436 155.913 157.513 159.769 158.456C162.587 158.947 164.225 161.532 166.507 162.991C173.22 167.94 182.162 169.448 190.194 167.335C192.879 166.819 195.412 165.055 198.235 165.679C201.506 166.259 204.083 169.374 204.009 172.701C204.039 175.463 202.288 178.155 199.716 179.187C194.394 181.369 188.649 182.44 182.905 182.553C175.453 199.663 162.287 213.972 146.646 224.011C131.872 233.573 114.834 239.17 97.5414 242H63.5013C52.5136 240.246 41.5899 237.135 31.8565 231.642C28.6399 229.912 27.125 225.588 28.8514 222.311C30.4056 218.733 35.2108 217.136 38.5996 219.092C42.9671 221.573 47.6445 223.465 52.4497 224.92C69.1722 230.015 87.2029 230.05 104.186 226.178C122.807 222.011 140.818 213.407 154.226 199.624C159.641 194.071 164.446 187.821 167.894 180.853C168.464 180.175 167.849 179.664 167.181 179.487C162.292 177.59 157.845 174.652 153.965 171.143C151.998 169.532 150.793 166.957 151.235 164.402Z" fill="black"/>
<path d="M43.5278 23.6957C47.733 18.1628 54.0531 13.7797 61.1995 13.5881C53.9351 23.5778 49.1544 35.1497 45.7411 46.9575C44.9295 49.1098 46.8526 50.8443 48.2199 52.2153C53.9695 57.4386 61.0323 61.2124 65.9801 67.3104C68.036 69.8066 69.6148 73.2708 68.3606 76.4992C67.3573 79.526 64.3571 81.3147 61.4061 82.0468C55.6024 83.516 49.5725 82.7544 43.6606 83.0345C42.3425 83.1917 40.7243 83.1819 39.8833 84.4005C39.4308 90.6164 39.721 96.8717 40.2915 103.073C35.2354 102.847 30.1744 103.363 25.2118 104.336C24.9511 84.6609 26.7365 64.7601 32.609 45.906C35.1666 38.0538 38.4176 30.2556 43.5278 23.6957Z" fill="white"/>
<path d="M184.941 15.6126C187.444 14.3596 190.218 13.7306 193.012 13.5881C185.752 23.5778 180.972 35.1448 177.558 46.9428C176.737 49.1049 178.665 50.8443 180.037 52.2202C185.797 57.4485 192.874 61.2321 197.817 67.3448C199.868 69.8361 201.422 73.2855 200.173 76.4992C199.16 79.5457 196.14 81.3294 193.174 82.0566C187.37 83.516 181.341 82.7495 175.434 83.0394C174.12 83.1917 172.512 83.1917 171.696 84.4103C171.243 90.6213 171.528 96.8766 172.104 103.073C167.048 102.852 161.987 103.358 157.029 104.341C156.798 88.705 157.924 72.9907 161.283 57.6991C163.477 47.8273 166.546 38.039 171.592 29.2286C174.824 23.7154 179.073 18.4478 184.941 15.6126Z" fill="white"/>
<path d="M73.9282 101.078C81.2173 97.1714 90.1343 96.793 97.925 99.3777C104.924 101.682 111.121 106.812 114.062 113.637C114.859 115.357 115.257 117.455 116.939 118.581C118.951 120.183 121.961 119.893 123.879 118.276C125.281 125.622 124.46 133.479 121.13 140.211C119.935 139.214 118.646 138.113 117.023 137.97C114.849 137.676 112.577 138.855 111.598 140.82C110.113 143.788 108.411 146.707 106.035 149.061C100.276 155.159 91.0835 157.272 83.0321 155.522C73.4216 153.149 65.6654 145.228 62.798 135.853C60.7372 129.214 60.4568 121.932 62.3848 115.23C64.0915 109.2 68.3508 103.952 73.9282 101.078Z" fill="#FFCA05"/>
</svg>
