<svg width="262" height="225" viewBox="0 0 262 225" fill="none" xmlns="http://www.w3.org/2000/svg">
<path d="M196.524 1.64328C206.923 -1.44688 218.667 -0.179375 227.981 5.45072C235.841 10.2211 241.785 17.6444 245.959 25.726C251.158 35.586 254.066 46.4728 255.894 57.4137C257.865 69.7694 258.481 82.3315 257.905 94.8249C257.239 102.376 256.594 109.932 255.83 117.478C254.637 125.093 252.986 132.629 251.35 140.16C254.987 143.59 258.974 146.749 262 150.752V157.483C261.167 158.79 260.137 160.038 258.742 160.77C256.002 162.268 252.38 161.865 250.069 159.763C247.112 156.977 244.401 153.887 241.036 151.568C234.944 147.166 228.631 143.03 221.949 139.566C212.171 134.481 201.241 130.964 190.098 131.568C179.138 132.167 168.458 136.186 159.523 142.484C158.498 143.177 157.439 143.855 156.256 144.238C152.747 145.309 148.573 143.413 147.198 139.993C145.833 136.952 146.755 133.037 149.465 131.037C152.427 128.935 155.497 126.984 158.681 125.225C158.474 122.317 158.139 119.423 157.902 116.52C156.488 100.293 156.532 83.9184 158.469 67.7404C159.716 57.4825 161.756 47.2834 165.151 37.5118C168.02 29.4008 171.869 21.5353 177.373 14.8686C182.366 8.82092 188.925 3.87862 196.524 1.64328ZM195.248 18.8775C189.171 22.9207 185.111 29.2779 182.134 35.7972C177.999 45.0186 175.653 54.9327 174.145 64.891C171.479 82.8572 171.598 101.143 173.342 119.188C178.778 117.684 184.352 116.638 189.994 116.422C188.753 109.627 187.949 102.735 187.826 95.8271C188.383 94.476 190.039 94.2943 191.286 93.9897C198.249 92.9432 205.523 93.4591 212.211 90.9388C215.458 89.7646 218.474 87.1461 218.967 83.5745C219.608 79.993 217.499 76.6818 215.118 74.2106C209.047 68.05 200.979 64.4931 194.174 59.2855C192.527 57.8657 190.182 56.0725 190.946 53.5964C193.73 40.2139 197.909 26.9001 205.153 15.2076C201.645 15.7284 198.185 16.8583 195.248 18.8775Z" fill="black"/>
<path d="M52.0695 5.40651C61.5267 0.832667 72.8368 0.64598 82.6242 4.29621C89.8046 6.93931 95.9746 11.9258 100.509 18.0276C106.713 26.3204 110.355 36.2296 112.583 46.2517C117.368 68.7034 116.082 92.0147 112.154 114.491C121.739 117.203 130.408 123.241 135.952 131.533C140.151 137.901 142.373 145.619 141.876 153.243C141.634 155.69 139.609 157.547 137.292 158.112C133.858 158.839 130.176 155.827 130.472 152.28C130.58 147.053 129.057 141.806 126.081 137.493C120.315 129.116 110.064 124.027 99.8876 124.489C94.7722 124.675 89.7257 126.567 85.8226 129.878C81.2542 133.71 78.3958 139.212 76.7892 144.867C74.5814 152.305 74.9116 160.622 78.45 167.608C81.3379 173.509 86.3795 178.554 92.727 180.613C98.1135 182.455 104.18 182.71 109.507 180.529C113.189 179.129 116.249 176.579 119.098 173.941C122.153 171.313 127.308 173.204 128.2 177.061C128.594 178.869 128.161 180.878 126.899 182.263C121.729 187.54 115.096 191.524 107.787 192.939C100.193 194.437 92.2095 193.13 85.2066 189.962C74.6307 184.867 67.13 174.418 64.7842 163.044C62.9263 154.584 64.0745 145.722 67.0167 137.645C62.0638 135.439 56.9533 133.489 51.5915 132.546C38.5416 130.099 24.866 133.297 13.4523 139.797C11.6929 140.848 9.8498 142.032 7.7159 141.983C4.19225 142.155 0.846016 139.448 0.170856 136.024C-0.504305 133.007 0.8608 129.617 3.5713 128.055C6.62677 126.228 9.76602 124.523 13.0137 123.049C12.9989 119.851 12.9201 116.653 12.8806 113.454C12.7426 95.8369 14.295 78.1655 18.1242 60.9509C20.8791 49.0078 24.6738 37.1532 30.9079 26.5267C35.9741 17.8507 42.9129 9.89683 52.0695 5.40651ZM48.5212 27.4946C42.292 35.2519 38.5318 44.6354 35.5995 54.0484C29.4639 74.8051 27.6208 96.618 28.1087 118.19C33.6085 116.947 39.2612 116.481 44.8941 116.618C44.1499 110.01 43.9676 103.349 44.1893 96.7114C44.0119 95.0656 45.8994 94.5841 47.166 94.4122C54.5878 93.631 62.2856 95.0508 69.5103 92.6632C72.6299 91.6217 75.5572 89.2734 76.2668 85.9277C77.1244 82.4052 75.2369 78.9859 73.0783 76.333C67.3567 69.6221 59.4223 65.4118 52.927 59.5557C51.6654 58.2194 49.9257 56.6129 50.4235 54.579C54.0457 41.2259 59.5061 28.2757 67.406 16.8583C59.8314 17.1875 53.0946 21.6876 48.5212 27.4946Z" fill="black"/>
<path d="M150.002 181.634C156.645 175.69 165.329 171.887 174.288 171.588C180.493 171.396 186.934 173.067 191.773 177.066C196.411 180.809 199.24 186.641 199.358 192.585C199.57 199.38 196.79 206.017 192.518 211.224C186.505 218.618 177.615 223.57 168.192 225H159.159C153.383 224.145 147.701 221.487 143.975 216.913C140.427 212.62 138.766 206.891 139.348 201.369C140.057 193.695 144.34 186.719 150.002 181.634ZM170.932 181.905C166.379 182.73 162.091 184.789 158.41 187.554C154.093 190.895 150.49 195.518 149.431 200.962C148.711 204.538 149.598 208.513 152.195 211.165C154.916 214.118 159.07 215.248 162.973 215.361C170.518 215.499 177.871 212.079 183.164 206.823C186.697 203.128 189.477 198.284 189.428 193.057C189.438 189.539 187.58 186.095 184.647 184.145C180.695 181.399 175.55 181.084 170.932 181.905Z" fill="black"/>
<path d="M195.248 18.8775C198.185 16.8583 201.645 15.7284 205.153 15.2076C197.909 26.9001 193.73 40.2139 190.946 53.5964C190.182 56.0725 192.527 57.8657 194.174 59.2855C200.979 64.4931 209.047 68.05 215.118 74.2106C217.499 76.6818 219.608 79.993 218.967 83.5745C218.474 87.1461 215.458 89.7646 212.211 90.9388C205.523 93.4591 198.249 92.9432 191.286 93.9897C190.039 94.2943 188.383 94.476 187.826 95.8271C187.949 102.735 188.753 109.627 189.994 116.422C184.352 116.638 178.778 117.684 173.342 119.188C171.598 101.143 171.479 82.8572 174.145 64.891C175.653 54.9327 177.999 45.0186 182.134 35.7972C185.111 29.2779 189.171 22.9207 195.248 18.8775Z" fill="white"/>
<path d="M48.5212 27.4946C53.0946 21.6876 59.8314 17.1875 67.406 16.8583C59.5061 28.2757 54.0457 41.2259 50.4235 54.579C49.9257 56.6129 51.6654 58.2194 52.927 59.5557C59.4223 65.4118 67.3567 69.6221 73.0783 76.333C75.2369 78.9859 77.1244 82.4052 76.2668 85.9277C75.5572 89.2734 72.6299 91.6217 69.5103 92.6632C62.2856 95.0508 54.5878 93.631 47.166 94.4122C45.8994 94.5841 44.0119 95.0656 44.1893 96.7114C43.9676 103.349 44.1499 110.01 44.8941 116.618C39.2612 116.481 33.6085 116.947 28.1087 118.19C27.6208 96.618 29.4639 74.8051 35.5995 54.0484C38.5318 44.6354 42.292 35.2519 48.5212 27.4946Z" fill="white"/>
<path d="M85.8226 129.878C89.7257 126.567 94.7722 124.675 99.8876 124.489C110.064 124.027 120.315 129.116 126.081 137.493C129.057 141.806 130.58 147.053 130.472 152.28C130.176 155.827 133.858 158.839 137.292 158.112C137.524 158.077 137.977 158.009 138.209 157.974C136.883 165.157 133.404 171.907 128.2 177.061C127.308 173.204 122.153 171.313 119.098 173.941C116.249 176.579 113.189 179.129 109.507 180.529C104.18 182.71 98.1135 182.455 92.727 180.613C86.3795 178.554 81.3379 173.509 78.45 167.608C74.9116 160.622 74.5814 152.305 76.7892 144.867C78.3958 139.212 81.2542 133.71 85.8226 129.878Z" fill="#FFCA05"/>
<path d="M170.932 181.905C175.55 181.084 180.695 181.399 184.647 184.145C187.58 186.095 189.438 189.539 189.428 193.057C189.477 198.284 186.697 203.128 183.164 206.823C177.871 212.079 170.518 215.499 162.973 215.361C159.07 215.248 154.916 214.118 152.195 211.165C149.598 208.513 148.711 204.538 149.431 200.962C150.49 195.518 154.093 190.895 158.41 187.554C162.091 184.789 166.379 182.73 170.932 181.905Z" fill="#C44055"/>
</svg>
