<svg width="249" height="246" viewBox="0 0 249 246" fill="none" xmlns="http://www.w3.org/2000/svg">
<path d="M186.684 7.21125C193.234 2.06142 201.706 -0.457034 210.012 0.0682588C219.134 0.495366 228.324 3.98095 234.717 10.6379C242.059 17.9233 245.756 28.0413 247.512 38.0464C249.897 51.9102 249.12 66.1127 247.251 79.9912C245.117 95.0333 241.631 109.928 236.325 124.18C238.533 126.502 240.534 129.015 242.521 131.524C243.957 133.267 244.266 135.815 243.283 137.847C242.044 140.734 238.38 142.251 235.469 141.028C232.819 140.037 231.703 137.224 229.775 135.368C222.227 128.073 214.374 120.836 205.021 115.893C201.623 114.518 198.304 112.903 194.719 112.059C186.679 110.11 178.295 110.075 170.097 110.851C165.436 112 161.108 114.189 156.85 116.349C154.121 117.822 150.339 116.884 148.781 114.16C146.951 111.45 147.866 107.41 150.689 105.755C153.796 103.978 157.086 102.535 160.376 101.14C159.943 88.013 160.494 74.8463 162.308 61.8318C163.808 51.3947 166.08 40.9969 169.994 31.1734C173.643 22.0913 178.821 13.2742 186.684 7.21125ZM191.763 20.1226C186.831 25.2921 183.655 31.846 181.196 38.4784C178.27 46.6524 176.475 55.1945 175.251 63.7759C173.707 74.9445 173.127 86.2457 173.392 97.5174C177.7 97.2964 182.032 97.2621 186.34 97.6106C185.961 91.7342 185.951 85.8284 186.438 79.9569C186.453 78.5479 188.198 78.3417 189.28 78.2386C195.737 77.8999 202.41 79.3874 208.699 77.3402C211.989 76.3829 214.688 73.1723 214.31 69.6425C213.887 65.8574 211.153 62.9119 208.566 60.3542C204.204 55.9751 198.835 52.735 194.62 48.2086C193.676 47.1286 192.609 45.6558 193.283 44.1634C196.897 33.0979 201.79 22.2827 209.014 13.0729C202.547 12.6409 196.155 15.4392 191.763 20.1226Z" fill="black"/>
<path d="M34.7856 59.2839C53.5848 56.4513 73.5543 59.7356 89.8063 69.8192C102.985 77.8754 113.282 90.4578 118.627 104.921C129.642 108.666 139.059 117.518 142.354 128.794C142.89 130.743 142.019 132.737 140.667 134.126C137.943 136.605 133.07 135.52 131.875 131.99C129.554 124.891 123.992 119.059 117.132 116.163C110.145 113.153 102.036 112.741 94.8122 115.161C88.8966 117.105 83.6694 121.268 80.8517 126.86C77.5227 133.596 77.2473 141.495 78.7963 148.746C80.419 156.272 84.8791 163.223 91.3209 167.509C96.3563 170.97 102.646 172.664 108.728 171.682C115.957 170.985 122.586 166.66 126.288 160.454C127.759 158.451 128.226 155.604 130.606 154.391C133.06 152.997 136.236 154.013 137.874 156.188C138.685 157.818 139.015 159.782 138.228 161.485C135.056 168.471 129.888 174.667 123.131 178.427C116.7 182.035 109.137 183.361 101.824 182.806C90.9373 181.692 80.955 175.275 74.7099 166.409C68.514 157.627 66.0947 146.546 67.0781 135.928C67.7321 128.029 70.8596 120.36 76.1311 114.41C52.9554 113.094 30.1682 118.927 8.30056 125.972C6.69257 126.516 4.8928 127.12 3.24056 126.369C1.52931 125.76 0.521243 124.121 0 122.471V120.856C0.265539 119.496 0.99823 118.239 2.18332 117.493C29.2732 98.6514 65.0374 91.9895 96.7939 101.705C98.8543 102.51 101.023 103.065 103.241 102.584C95.3335 94.4245 86.4084 87.0852 76.195 81.9893C63.5081 75.4011 49.4444 72.1266 35.5085 69.3725C33.8857 69.0141 31.845 68.9945 30.8419 67.4382C29.106 64.3552 31.2402 59.7994 34.7856 59.2839Z" fill="black"/>
<path d="M172.512 184.112C172.787 180.779 175.625 177.897 178.988 177.651C181.56 177.431 184.274 178.682 185.617 180.921C189.034 186.194 194.094 190.514 200.089 192.561C204.642 194.196 209.589 194.534 214.374 193.955C216.955 193.567 219.699 194.741 221.184 196.886C222.979 199.37 222.891 203.062 220.929 205.428C219.714 206.96 217.836 207.932 215.893 208.109C210.45 208.737 204.868 208.555 199.538 207.215C195.924 211.687 192.054 215.968 187.692 219.734C181.339 226.695 173.599 232.355 165.092 236.42C147.286 244.815 127.105 247.034 107.632 245.591C95.1023 244.658 82.6761 242.189 70.7908 238.119C60.3708 234.403 49.9459 229.552 42.2404 221.398C36.0641 224.314 29.3617 226.008 22.6003 226.847C18.9123 227.098 15.3718 224.093 15.1406 220.387C14.6932 216.808 17.4862 213.2 21.0661 212.714C28.3143 211.687 35.8134 209.817 41.5765 205.065C44.881 202.325 47.1971 198.477 48.2789 194.338C48.9674 191.078 52.1981 188.56 55.5518 188.81C59.5988 188.894 62.9869 192.905 62.2984 196.906C61.1084 202.443 58.4776 207.642 54.8584 211.992C73.4658 226.062 97.4037 231.811 120.491 230.677C140.839 229.896 161.335 223.298 177.026 210.082C180.38 207.593 182.519 203.892 184.481 200.293C181.083 197.662 177.965 194.642 175.408 191.186C173.845 189.149 172.197 186.822 172.512 184.112Z" fill="black"/>
<path d="M191.763 20.1226C196.155 15.4392 202.547 12.6409 209.014 13.0729C201.79 22.2827 196.897 33.0979 193.283 44.1634C192.609 45.6558 193.676 47.1286 194.62 48.2086C198.835 52.735 204.204 55.9751 208.566 60.3542C211.153 62.9119 213.887 65.8574 214.31 69.6425C214.688 73.1723 211.989 76.3829 208.699 77.3402C202.41 79.3874 195.737 77.8999 189.28 78.2386C188.198 78.3417 186.453 78.5479 186.438 79.9569C185.951 85.8284 185.961 91.7342 186.34 97.6106C182.032 97.2621 177.7 97.2964 173.392 97.5174C173.127 86.2457 173.707 74.9445 175.251 63.7759C176.475 55.1945 178.27 46.6524 181.196 38.4784C183.655 31.846 186.831 25.2921 191.763 20.1226Z" fill="white"/>
<path d="M94.8122 115.161C102.036 112.741 110.145 113.153 117.132 116.163C123.992 119.059 129.554 124.891 131.875 131.99C133.07 135.52 137.943 136.605 140.667 134.126C142.108 141.524 141.188 149.404 137.874 156.188C136.236 154.013 133.06 152.997 130.606 154.391C128.226 155.604 127.759 158.451 126.288 160.454C122.586 166.66 115.957 170.985 108.728 171.682C102.646 172.664 96.3563 170.97 91.3209 167.509C84.8791 163.223 80.419 156.272 78.7963 148.746C77.2473 141.495 77.5227 133.596 80.8517 126.86C83.6694 121.268 88.8966 117.105 94.8122 115.161Z" fill="#FFCA05"/>
</svg>
