<svg width="471" height="30" viewBox="0 0 471 30" fill="none" xmlns="http://www.w3.org/2000/svg">
<path d="M0.693604 28.9932V0.555664H14.6584C18.0048 0.555664 20.4788 1.20671 22.0803 2.50879C23.6949 3.81087 24.5022 5.61426 24.5022 7.91895C24.5022 9.49447 24.1637 10.8031 23.4866 11.8447C22.8095 12.8864 21.9241 13.609 20.8303 14.0127V14.0908C22.1715 14.4294 23.2978 15.1455 24.2092 16.2393C25.1337 17.32 25.5959 18.863 25.5959 20.8682C25.5959 23.4072 24.6454 25.3994 22.7444 26.8447C20.8433 28.277 18.2717 28.9932 15.0295 28.9932H0.693604ZM10.5374 22.6455H12.9788C13.7991 22.6455 14.4111 22.3981 14.8147 21.9033C15.2314 21.3955 15.4397 20.7249 15.4397 19.8916C15.4397 19.0973 15.2314 18.4528 14.8147 17.958C14.4111 17.4502 13.7991 17.1963 12.9788 17.1963H10.5374V22.6455ZM10.5374 12.0986H12.6858C13.454 12.0986 14.0074 11.8838 14.3459 11.4541C14.6845 11.0114 14.8538 10.4059 14.8538 9.6377C14.8538 8.85645 14.6845 8.25098 14.3459 7.82129C14.0074 7.37858 13.454 7.15723 12.6858 7.15723H10.5374V12.0986ZM26.9202 28.9932V0.555664H37.1155V28.9932H26.9202ZM38.7913 15.5947V13.9541C38.7913 9.2015 40.0543 5.7054 42.5803 3.46582C45.1064 1.21322 48.3355 0.0869141 52.2678 0.0869141C56.2001 0.0869141 59.4358 1.21322 61.9749 3.46582C64.5139 5.7054 65.7834 9.2015 65.7834 13.9541V15.5947C65.7834 20.3473 64.5139 23.8499 61.9749 26.1025C59.4358 28.3421 56.2001 29.4619 52.2678 29.4619C48.3355 29.4619 45.1064 28.3421 42.5803 26.1025C40.0543 23.8499 38.7913 20.3473 38.7913 15.5947ZM49.2795 18.2705C49.2795 19.9111 49.5334 21.057 50.0413 21.708C50.5621 22.359 51.3043 22.6846 52.2678 22.6846C53.2314 22.6846 53.9736 22.359 54.4944 21.708C55.0282 21.057 55.2952 19.9111 55.2952 18.2705V11.3174C55.2952 9.68978 55.0282 8.56348 54.4944 7.93848C53.9736 7.30046 53.2314 6.98145 52.2678 6.98145C51.3043 6.98145 50.5621 7.30046 50.0413 7.93848C49.5334 8.56348 49.2795 9.68978 49.2795 11.3174V18.2705ZM67.4983 28.9932V0.555664H81.2288L84.842 12.7041C84.9722 13.1729 85.0829 13.609 85.1741 14.0127C85.2782 14.4033 85.3629 14.859 85.428 15.3799H85.5256C85.6038 14.859 85.6884 14.4033 85.7795 14.0127C85.8837 13.609 86.0009 13.1729 86.1311 12.7041L89.7639 0.555664H103.592V28.9932H93.6311V15.9072C93.6311 15.4515 93.6376 14.9502 93.6506 14.4033C93.6637 13.8434 93.6897 13.3356 93.7288 12.8799H93.592C93.5269 13.3486 93.4423 13.8564 93.3381 14.4033C93.247 14.9372 93.1363 15.4385 93.0061 15.9072L89.3342 28.9932H80.6819L77.01 15.9072C76.8928 15.4385 76.7821 14.9307 76.678 14.3838C76.5868 13.8369 76.5087 13.3356 76.4436 12.8799H76.3069C76.3329 13.3356 76.3525 13.8434 76.3655 14.4033C76.3915 14.9502 76.4045 15.4515 76.4045 15.9072V28.9932H67.4983ZM105.99 28.9932V0.555664H127.455V8.21191H115.717V11.2002H125.834V18.0752H115.717V21.5713H127.768V28.9932H105.99ZM128.096 8.21191V0.555664H152.744V8.21191H145.537V28.9932H135.342V8.21191H128.096ZM153.795 28.9932V0.555664H167.662C170.865 0.555664 173.444 1.41504 175.397 3.13379C177.363 4.85254 178.346 7.23535 178.346 10.2822C178.346 13.4202 177.311 15.9007 175.24 17.7236C173.17 19.5465 170.612 20.458 167.565 20.458H163.873V28.9932H153.795ZM163.873 13.9932H165.709C166.608 13.9932 167.246 13.7197 167.623 13.1729C168.014 12.613 168.209 11.8057 168.209 10.751C168.209 9.72233 168.014 8.92806 167.623 8.36816C167.246 7.79525 166.608 7.50879 165.709 7.50879H163.873V13.9932ZM168.541 28.9932L163.678 16.7275L173.092 14.8916L179.576 28.9932H168.541ZM179.905 28.9932V0.555664H190.1V28.9932H179.905ZM191.776 15.5947V13.9541C191.776 9.09733 193.006 5.5752 195.467 3.3877C197.928 1.18717 201.203 0.0869141 205.291 0.0869141C209.054 0.0869141 212.043 0.952799 214.256 2.68457C216.483 4.40332 217.596 6.97493 217.596 10.3994V12.3525H207.928V9.6377C207.928 8.71322 207.713 8.04264 207.283 7.62598C206.854 7.19629 206.216 6.98145 205.369 6.98145C204.458 6.98145 203.742 7.28092 203.221 7.87988C202.713 8.46582 202.459 9.57259 202.459 11.2002V18.3682C202.459 19.9567 202.7 21.0765 203.182 21.7275C203.677 22.3656 204.432 22.6846 205.448 22.6846C206.294 22.6846 206.919 22.4242 207.323 21.9033C207.726 21.3695 207.928 20.5296 207.928 19.3838V17.3135H217.596V19.5791C217.609 22.6781 216.502 25.0999 214.276 26.8447C212.049 28.5895 209.054 29.4619 205.291 29.4619C201.151 29.4619 197.863 28.3486 195.428 26.1221C192.993 23.8825 191.776 20.3734 191.776 15.5947ZM228.701 28.9932V0.555664H243.115C246.41 0.555664 248.955 1.46712 250.752 3.29004C252.562 5.09993 253.467 7.64551 253.467 10.9268C253.467 14.208 252.588 16.7536 250.83 18.5635C249.073 20.3734 246.455 21.2783 242.979 21.2783H238.78V28.9932H228.701ZM238.78 14.5791H240.83C241.82 14.5791 242.497 14.2796 242.862 13.6807C243.226 13.0817 243.408 12.2223 243.408 11.1025C243.408 9.95671 243.226 9.09082 242.862 8.50488C242.497 7.91895 241.82 7.62598 240.83 7.62598H238.78V14.5791ZM254.889 28.9932V0.555664H268.756C271.959 0.555664 274.537 1.41504 276.49 3.13379C278.457 4.85254 279.44 7.23535 279.44 10.2822C279.44 13.4202 278.405 15.9007 276.334 17.7236C274.264 19.5465 271.705 20.458 268.658 20.458H264.967V28.9932H254.889ZM264.967 13.9932H266.803C267.701 13.9932 268.339 13.7197 268.717 13.1729C269.108 12.613 269.303 11.8057 269.303 10.751C269.303 9.72233 269.108 8.92806 268.717 8.36816C268.339 7.79525 267.701 7.50879 266.803 7.50879H264.967V13.9932ZM269.635 28.9932L264.772 16.7275L274.186 14.8916L280.67 28.9932H269.635ZM280.198 15.5947V13.9541C280.198 9.2015 281.461 5.7054 283.987 3.46582C286.513 1.21322 289.742 0.0869141 293.674 0.0869141C297.606 0.0869141 300.842 1.21322 303.381 3.46582C305.92 5.7054 307.19 9.2015 307.19 13.9541V15.5947C307.19 20.3473 305.92 23.8499 303.381 26.1025C300.842 28.3421 297.606 29.4619 293.674 29.4619C289.742 29.4619 286.513 28.3421 283.987 26.1025C281.461 23.8499 280.198 20.3473 280.198 15.5947ZM290.686 18.2705C290.686 19.9111 290.94 21.057 291.448 21.708C291.968 22.359 292.711 22.6846 293.674 22.6846C294.638 22.6846 295.38 22.359 295.901 21.708C296.434 21.057 296.701 19.9111 296.701 18.2705V11.3174C296.701 9.68978 296.434 8.56348 295.901 7.93848C295.38 7.30046 294.638 6.98145 293.674 6.98145C292.711 6.98145 291.968 7.30046 291.448 7.93848C290.94 8.56348 290.686 9.68978 290.686 11.3174V18.2705ZM306.971 8.21191V0.555664H331.619V8.21191H324.412V28.9932H314.217V8.21191H306.971ZM332.67 28.9932V0.555664H354.135V8.21191H342.397V11.2002H352.514V18.0752H342.397V21.5713H354.448V28.9932H332.67ZM355.127 15.5947V13.9541C355.127 9.09733 356.358 5.5752 358.819 3.3877C361.28 1.18717 364.554 0.0869141 368.643 0.0869141C372.406 0.0869141 375.394 0.952799 377.608 2.68457C379.834 4.40332 380.948 6.97493 380.948 10.3994V12.3525H371.28V9.6377C371.28 8.71322 371.065 8.04264 370.635 7.62598C370.205 7.19629 369.567 6.98145 368.721 6.98145C367.809 6.98145 367.093 7.28092 366.573 7.87988C366.065 8.46582 365.811 9.57259 365.811 11.2002V18.3682C365.811 19.9567 366.052 21.0765 366.533 21.7275C367.028 22.3656 367.783 22.6846 368.799 22.6846C369.645 22.6846 370.27 22.4242 370.674 21.9033C371.078 21.3695 371.28 20.5296 371.28 19.3838V17.3135H380.948V19.5791C380.961 22.6781 379.854 25.0999 377.627 26.8447C375.401 28.5895 372.406 29.4619 368.643 29.4619C364.502 29.4619 361.214 28.3486 358.78 26.1221C356.345 23.8825 355.127 20.3734 355.127 15.5947ZM380.377 8.21191V0.555664H405.026V8.21191H397.819V28.9932H387.623V8.21191H380.377ZM405.998 28.9932V0.555664H416.194V28.9932H405.998ZM417.869 15.5947V13.9541C417.869 9.2015 419.132 5.7054 421.658 3.46582C424.184 1.21322 427.414 0.0869141 431.346 0.0869141C435.278 0.0869141 438.514 1.21322 441.053 3.46582C443.592 5.7054 444.862 9.2015 444.862 13.9541V15.5947C444.862 20.3473 443.592 23.8499 441.053 26.1025C438.514 28.3421 435.278 29.4619 431.346 29.4619C427.414 29.4619 424.184 28.3421 421.658 26.1025C419.132 23.8499 417.869 20.3473 417.869 15.5947ZM428.358 18.2705C428.358 19.9111 428.612 21.057 429.119 21.708C429.64 22.359 430.382 22.6846 431.346 22.6846C432.309 22.6846 433.052 22.359 433.573 21.708C434.106 21.057 434.373 19.9111 434.373 18.2705V11.3174C434.373 9.68978 434.106 8.56348 433.573 7.93848C433.052 7.30046 432.309 6.98145 431.346 6.98145C430.382 6.98145 429.64 7.30046 429.119 7.93848C428.612 8.56348 428.358 9.68978 428.358 11.3174V18.2705ZM446.576 28.9932V0.555664H456.811L461.537 12.0791C461.694 12.4958 461.837 12.9255 461.967 13.3682C462.097 13.8109 462.214 14.2601 462.319 14.7158H462.455C462.429 14.2471 462.416 13.8174 462.416 13.4268C462.429 13.0231 462.436 12.5869 462.436 12.1182V0.555664H470.776V28.9932H460.6L455.737 17.5088C455.58 17.1051 455.437 16.695 455.307 16.2783C455.19 15.8617 455.079 15.4255 454.975 14.9697H454.838C454.877 15.4385 454.897 15.8486 454.897 16.2002C454.91 16.5518 454.916 16.9619 454.916 17.4307V28.9932H446.576Z" fill="black"/>
</svg>
