<svg width="329" height="155" viewBox="0 0 329 155" fill="none" xmlns="http://www.w3.org/2000/svg">
<path d="M32.7896 86.1305C32.4639 84.939 32.274 83.6662 32.274 82.3663C32.274 75.1358 37.7558 69.2051 44.8117 68.4468C43.2648 63.6265 42.4507 58.5082 42.4507 53.1733C42.4507 25.3344 65.0566 2.77612 92.9544 2.77612C115.859 2.77612 135.208 18.0226 141.369 38.8747C144.109 36.8166 147.529 35.5709 151.22 35.5709C160.284 35.5709 167.638 42.9097 167.638 51.9547C167.638 52.0359 167.638 52.1172 167.638 52.1984C168.778 52.3067 169.891 52.4963 171.003 52.6859C180.773 45.5366 192.578 41.0412 205.333 40.3912C235.863 38.8205 262.024 58.5895 270.138 86.0764C273.612 83.4495 277.927 81.8789 282.622 81.8789C294.128 81.8789 303.436 91.1946 303.436 102.65C303.436 102.758 303.436 102.839 303.436 102.948C303.708 102.948 304.006 103.002 304.278 103.029C335.541 106.36 332.8 152.749 301.374 152.749H35.8562C17.3752 152.749 2.39508 137.801 2.39508 119.359C2.39508 101.946 15.7469 87.8197 32.7896 86.2761V86.1305Z" fill="white" stroke="black" stroke-width="4"/>
</svg>
