<svg width="1124" height="453" viewBox="0 0 1124 453" fill="none" xmlns="http://www.w3.org/2000/svg">
<path d="M420.607 190.108C415.247 188.088 409.385 187.712 403.604 187.273C382.696 185.686 361.592 185.83 340.636 186.382C279.733 187.988 216.668 191.257 157.712 205.496C127.6 212.769 66.0404 225.882 58.3084 258.788C54.6638 274.298 64.3704 289.651 74.751 301.389C94.0532 323.215 120.935 339.751 148.369 353.06C234.747 394.965 335.52 408.779 433.313 411.373C475.394 412.49 517.605 410.423 558.501 401.33C582.206 396.06 609.936 388.403 627.261 372.174C658.09 343.294 625.361 308.001 594.002 293.451C535.918 266.502 464.362 267.624 400.427 264.457" stroke="black" stroke-width="3" stroke-linecap="round"/>
<path d="M16 320C16 343.618 20.8718 361.308 49.6327 368.108" stroke="black" stroke-width="3" stroke-linecap="round"/>
<path d="M83.4463 29C83.2348 31.2007 82.1557 33.3372 81.5299 35.461C79.4393 42.5549 78.5366 49.9354 78.3713 57.2436C78.079 70.1652 79.6461 84.4834 87.8826 95.6401C90.0848 98.6231 93.1115 101.137 94.945 104.316" stroke="black" stroke-width="3" stroke-linecap="round"/>
<path d="M66.1982 92.6865C69.2216 92.9486 72.0915 94.6899 74.7158 95.8863C78.9834 97.8318 83.3972 99.5516 87.776 101.301C91.2735 102.699 94.8899 105.619 96.2226 101.301C98.1539 95.0448 102.231 89.7981 104.527 83.8258" stroke="black" stroke-width="3" stroke-linecap="round"/>
<path d="M49.4521 138.092C60.6626 138.092 71.8795 136.312 82.9524 139.449C85.9392 140.295 88.6955 141.618 91.4115 143.285C93.5136 144.575 95.9089 145.122 97.9001 146.589" stroke="black" stroke-width="3" stroke-linecap="round"/>
<path d="M90.9017 131C94.8982 135.234 96.7388 141.026 100.129 145.645C101.495 147.506 83.042 153.147 80.6807 153.706" stroke="black" stroke-width="3" stroke-linecap="round"/>
<path d="M802.551 160.722V275H775.08L734.659 203.89V275H707.11V160.722H734.659L775.08 231.832V160.722H802.551ZM917.497 215.585V220.215C917.497 228.954 916.267 236.803 913.808 243.762C911.401 250.669 907.974 256.582 903.526 261.5C899.078 266.366 893.82 270.108 887.75 272.724C881.68 275.288 874.983 276.57 867.657 276.57C860.279 276.57 853.529 275.288 847.407 272.724C841.337 270.108 836.053 266.366 831.553 261.5C827.105 256.582 823.652 250.669 821.192 243.762C818.785 236.803 817.582 228.954 817.582 220.215V215.585C817.582 206.846 818.785 198.998 821.192 192.038C823.652 185.079 827.079 179.166 831.474 174.3C835.922 169.381 841.18 165.64 847.25 163.076C853.372 160.46 860.122 159.152 867.5 159.152C874.826 159.152 881.523 160.46 887.593 163.076C893.715 165.64 899 169.381 903.448 174.3C907.895 179.166 911.349 185.079 913.808 192.038C916.267 198.998 917.497 206.846 917.497 215.585ZM889.555 220.215V215.428C889.555 209.777 889.058 204.806 888.064 200.515C887.122 196.172 885.709 192.535 883.826 189.605C881.942 186.675 879.613 184.477 876.84 183.012C874.119 181.495 871.006 180.736 867.5 180.736C863.837 180.736 860.645 181.495 857.925 183.012C855.204 184.477 852.927 186.675 851.096 189.605C849.265 192.535 847.878 196.172 846.936 200.515C846.047 204.806 845.602 209.777 845.602 215.428V220.215C845.602 225.814 846.047 230.785 846.936 235.128C847.878 239.419 849.265 243.055 851.096 246.038C852.98 249.021 855.282 251.27 858.003 252.788C860.776 254.305 863.994 255.064 867.657 255.064C871.163 255.064 874.276 254.305 876.997 252.788C879.718 251.27 881.994 249.021 883.826 246.038C885.709 243.055 887.122 239.419 888.064 235.128C889.058 230.785 889.555 225.814 889.555 220.215ZM958.978 264.64L981.739 160.722H995.318L1002.7 169.591L978.443 275H963.452L958.978 264.64ZM952.934 160.722L972.164 265.424L967.219 275H949.873L925.621 160.722H952.934ZM1015.18 264.875L1034.25 160.722H1061.48L1037.23 275H1019.96L1015.18 264.875ZM1005.13 160.722L1028.44 265.267L1023.73 275H1008.74L983.937 169.434L991.629 160.722H1005.13Z" fill="black"/>
<path d="M196.988 159.6C197.488 160.8 197.838 162.05 198.038 163.35C198.238 164.65 198.288 166 198.188 167.4C197.988 170.7 197.138 173.95 195.638 177.15C194.238 180.35 192.438 183.4 190.238 186.3C188.038 189.1 185.588 191.65 182.888 193.95C180.188 196.25 177.488 198.2 174.788 199.8C170.688 202.1 166.338 203.85 161.738 205.05C157.238 206.15 152.588 206.7 147.788 206.7C143.988 206.7 140.138 206.25 136.238 205.35C132.438 204.45 129.088 202.85 126.188 200.55C123.988 198.85 122.188 196.9 120.788 194.7C119.488 192.4 118.488 190.05 117.788 187.65C117.088 185.15 116.638 182.6 116.438 180C116.338 177.3 116.438 174.7 116.738 172.2C117.138 168.2 118.038 164.15 119.438 160.05C120.838 155.85 122.588 151.8 124.688 147.9C126.788 144 129.188 140.35 131.888 136.95C134.588 133.45 137.438 130.35 140.438 127.65C141.438 126.75 142.438 125.9 143.438 125.1C144.438 124.2 145.488 123.35 146.588 122.55C147.488 121.85 147.688 121.1 147.188 120.3C146.988 119.9 146.638 119.65 146.138 119.55C145.638 119.35 145.188 119.35 144.788 119.55C141.588 121.85 138.638 124.4 135.938 127.2C133.238 130 130.688 132.9 128.288 135.9C125.588 134.9 122.788 133.7 119.888 132.3C117.088 130.9 114.738 129.1 112.838 126.9C110.638 124.4 110.038 121.65 111.038 118.65C112.338 115.35 114.688 112.55 118.088 110.25C121.488 107.85 125.288 105.95 129.488 104.55C133.788 103.15 138.138 102.15 142.538 101.55C147.038 100.85 150.938 100.5 154.238 100.5C159.438 100.5 164.938 101.05 170.738 102.15C176.538 103.15 181.688 104.95 186.188 107.55C187.688 108.35 189.088 109.35 190.388 110.55C191.788 111.65 192.988 112.9 193.988 114.3C195.088 115.6 195.938 117.05 196.538 118.65C197.138 120.25 197.388 121.9 197.288 123.6C197.188 127.2 195.738 130.65 192.938 133.95C190.138 137.25 186.788 140.25 182.888 142.95C178.988 145.65 174.888 148 170.588 150C166.288 151.9 162.488 153.3 159.188 154.2C158.688 154.4 158.338 154.75 158.138 155.25C158.038 155.65 158.038 156.05 158.138 156.45C158.338 156.85 158.588 157.2 158.888 157.5C159.288 157.7 159.738 157.7 160.238 157.5C162.438 156.7 164.688 156 166.988 155.4C169.388 154.7 171.788 154.1 174.188 153.6C176.488 153.1 178.788 152.75 181.088 152.55C183.488 152.25 185.838 152.35 188.138 152.85C190.138 153.35 191.888 154.15 193.388 155.25C194.988 156.35 196.188 157.8 196.988 159.6ZM163.238 134.7C163.738 132.4 164.388 130.1 165.188 127.8C165.988 125.5 166.788 123.2 167.588 120.9C167.788 120.5 167.738 120.1 167.438 119.7C167.238 119.3 166.888 119 166.388 118.8C165.288 118.6 164.588 119 164.288 120C163.388 122.3 162.538 124.6 161.738 126.9C161.038 129.2 160.438 131.55 159.938 133.95C159.738 134.55 159.838 135.05 160.238 135.45C160.638 135.85 161.088 136.05 161.588 136.05C162.388 136.05 162.938 135.6 163.238 134.7ZM151.088 169.65C150.188 172.45 149.488 175.3 148.988 178.2C148.488 181.1 148.038 184 147.638 186.9C147.538 187.4 147.688 187.8 148.088 188.1C148.488 188.4 148.888 188.55 149.288 188.55C150.288 188.55 150.888 188 151.088 186.9C151.488 184.1 151.938 181.35 152.438 178.65C152.938 175.85 153.588 173.15 154.388 170.55C154.588 169.85 154.488 169.35 154.088 169.05C153.688 168.65 153.238 168.45 152.738 168.45C151.938 168.45 151.388 168.85 151.088 169.65ZM294.99 124.2C295.89 132.7 295.89 141.3 294.99 150C294.79 152.4 294.44 155.5 293.94 159.3C293.54 163.1 292.94 167.15 292.14 171.45C291.34 175.75 290.29 180.1 288.99 184.5C287.69 188.8 286.09 192.7 284.19 196.2C282.29 199.6 280.09 202.4 277.59 204.6C275.09 206.8 272.14 207.9 268.74 207.9C265.64 207.9 263.44 206.8 262.14 204.6C260.84 202.3 259.99 199.8 259.59 197.1C259.29 195.3 259.09 193.45 258.99 191.55C258.99 189.65 259.09 187.8 259.29 186C259.39 185.5 259.44 185 259.44 184.5C259.54 184 259.69 183.5 259.89 183C260.09 182.3 259.94 181.8 259.44 181.5C259.04 181.1 258.59 180.9 258.09 180.9C257.39 180.9 256.89 181.25 256.59 181.95C255.59 185.35 254.29 188.5 252.69 191.4C251.09 194.2 249.19 196.7 246.99 198.9C244.89 201 242.39 202.7 239.49 204C236.59 205.3 233.34 206.1 229.74 206.4C227.44 206.6 225.14 206.65 222.84 206.55C220.54 206.45 218.34 206.05 216.24 205.35C213.94 204.55 211.94 203.45 210.24 202.05C208.54 200.55 207.09 198.85 205.89 196.95C204.69 195.05 203.69 193.05 202.89 190.95C202.09 188.75 201.44 186.55 200.94 184.35C199.94 179.75 199.39 175.1 199.29 170.4C199.19 165.7 199.34 161 199.74 156.3C199.94 153.1 200.34 149.5 200.94 145.5C201.54 141.4 202.29 137.35 203.19 133.35C204.19 129.25 205.29 125.3 206.49 121.5C207.79 117.7 209.19 114.4 210.69 111.6C211.59 110 212.59 108.5 213.69 107.1C214.79 105.6 215.99 104.3 217.29 103.2C218.69 102.1 220.24 101.25 221.94 100.65C223.64 99.95 225.44 99.7 227.34 99.9C229.44 100 231.24 100.6 232.74 101.7C234.34 102.8 235.64 104.15 236.64 105.75C237.74 107.35 238.59 109.15 239.19 111.15C239.89 113.05 240.39 114.9 240.69 116.7C241.19 119.9 241.44 123.2 241.44 126.6C241.54 129.9 241.54 133.15 241.44 136.35C241.34 142.05 241.14 147.7 240.84 153.3C240.54 158.8 239.99 164.3 239.19 169.8C239.09 170.4 239.24 170.9 239.64 171.3C240.04 171.7 240.49 171.9 240.99 171.9C241.69 171.9 242.19 171.5 242.49 170.7C243.89 164.5 245.34 158.35 246.84 152.25C248.44 146.15 250.19 140 252.09 133.8C253.49 129.6 254.99 125.35 256.59 121.05C258.19 116.75 260.14 112.7 262.44 108.9C262.54 108.8 262.59 108.7 262.59 108.6L263.04 108.15C263.24 107.95 263.34 107.8 263.34 107.7C263.54 107.7 263.69 107.55 263.79 107.25C265.39 104.95 267.64 103.25 270.54 102.15C273.44 100.95 276.24 100.35 278.94 100.35C280.44 100.35 281.89 100.55 283.29 100.95C284.69 101.25 285.94 101.8 287.04 102.6C288.44 103.8 289.59 105.3 290.49 107.1C291.49 108.8 292.29 110.65 292.89 112.65C293.49 114.55 293.94 116.55 294.24 118.65C294.54 120.65 294.79 122.5 294.99 124.2ZM334.438 132C334.938 141.4 334.738 150.75 333.838 160.05C333.038 169.35 331.088 178.5 327.988 187.5C327.288 189.3 326.438 191.35 325.438 193.65C324.538 195.95 323.388 198.1 321.988 200.1C320.688 202.1 319.138 203.8 317.338 205.2C315.538 206.5 313.438 207.15 311.038 207.15C309.038 207.15 307.238 206.6 305.638 205.5C304.238 204.7 303.088 203.65 302.188 202.35C301.388 201.05 300.638 199.65 299.938 198.15C298.338 194.35 297.338 190.35 296.938 186.15C296.638 181.95 296.538 177.75 296.637 173.55C296.637 170.15 296.788 166.75 297.088 163.35C297.388 159.95 297.738 156.5 298.138 153C298.238 152.9 298.288 152.75 298.288 152.55V151.8C298.388 151.6 298.438 151.3 298.438 150.9C298.738 149 299.188 146.55 299.788 143.55C300.488 140.55 301.338 137.3 302.338 133.8C303.338 130.2 304.488 126.55 305.788 122.85C307.088 119.15 308.538 115.75 310.138 112.65C311.738 109.55 313.488 106.9 315.388 104.7C317.288 102.4 319.288 100.95 321.388 100.35C324.188 99.65 326.438 100.45 328.138 102.75C329.338 104.35 330.338 106.4 331.138 108.9C331.938 111.4 332.538 114.05 332.938 116.85C333.438 119.55 333.788 122.25 333.988 124.95C334.188 127.65 334.338 130 334.438 132ZM387.888 100.5C388.188 100.3 388.638 100.2 389.238 100.2C389.338 100.4 389.538 100.5 389.838 100.5H390.138C391.638 100.8 392.888 101.35 393.888 102.15C394.888 102.85 395.688 103.75 396.288 104.85C396.888 105.95 397.288 107.2 397.488 108.6C397.688 109.9 397.788 111.25 397.788 112.65C397.488 117.85 396.138 123.45 393.738 129.45C391.338 135.35 388.388 141.15 384.888 146.85C381.388 152.55 377.588 157.95 373.488 163.05C369.488 168.05 365.688 172.3 362.088 175.8C362.088 175.8 361.988 175.9 361.788 176.1C361.088 176.8 361.038 177.55 361.638 178.35C362.338 179.15 363.088 179.3 363.888 178.8C363.988 178.7 364.088 178.65 364.188 178.65C367.788 176.05 371.538 173.6 375.438 171.3C379.338 168.9 383.438 167.1 387.738 165.9C390.838 165 394.038 164.4 397.338 164.1C400.638 163.7 403.888 163.7 407.088 164.1C408.588 164.2 410.138 164.45 411.738 164.85C413.338 165.25 414.888 165.75 416.388 166.35C417.888 166.95 419.288 167.75 420.588 168.75C421.888 169.65 422.938 170.8 423.738 172.2C424.738 173.8 425.188 175.55 425.088 177.45C425.088 179.25 424.738 181.05 424.038 182.85C423.438 184.55 422.538 186.2 421.338 187.8C420.238 189.4 419.088 190.8 417.888 192C415.388 194.7 412.438 197 409.038 198.9C405.738 200.7 402.188 202.2 398.388 203.4C394.688 204.6 390.888 205.5 386.988 206.1C383.088 206.6 379.388 206.85 375.888 206.85C371.988 206.85 368.138 206.5 364.338 205.8C360.538 205 356.938 203.8 353.538 202.2C350.238 200.6 347.238 198.5 344.538 195.9C341.838 193.3 339.638 190.15 337.938 186.45C337.538 185.35 337.188 184.3 336.888 183.3C336.588 182.3 336.338 181.25 336.138 180.15C336.038 179.55 335.988 179.1 335.988 178.8C335.988 178.4 335.938 178 335.838 177.6C335.038 170.4 335.788 163.5 338.088 156.9C340.488 150.3 343.538 144 347.238 138C348.338 136.2 349.738 134.05 351.438 131.55C353.238 128.95 355.238 126.25 357.438 123.45C359.638 120.65 361.988 117.9 364.488 115.2C366.988 112.4 369.538 109.95 372.138 107.85C374.838 105.65 377.488 103.9 380.088 102.6C382.788 101.2 385.388 100.5 387.888 100.5ZM509.104 158.55C509.904 161.45 510.454 164.4 510.754 167.4C511.054 170.3 510.954 173.3 510.454 176.4C509.654 181.7 507.804 186.3 504.904 190.2C502.004 194.1 498.454 197.35 494.254 199.95C490.054 202.45 485.454 204.3 480.454 205.5C475.554 206.7 470.704 207.3 465.904 207.3C459.804 207.3 454.154 206.5 448.954 204.9C446.754 204.3 444.754 203.35 442.954 202.05C441.254 200.65 439.754 199.05 438.454 197.25C437.254 195.45 436.204 193.5 435.304 191.4C434.504 189.3 433.804 187.2 433.204 185.1C433.104 184.9 433.054 184.65 433.054 184.35C433.054 184.05 433.004 183.65 432.904 183.15L432.754 182.85V182.4C431.954 175.7 431.254 169.05 430.654 162.45C430.054 155.75 429.454 149.05 428.854 142.35C428.454 138.65 428.104 134.95 427.804 131.25C427.604 127.55 427.304 123.8 426.904 120C426.804 118.6 426.604 117.15 426.304 115.65C426.104 114.05 426.004 112.5 426.004 111C426.004 109.4 426.204 107.9 426.604 106.5C427.004 105 427.704 103.7 428.704 102.6C429.604 101.6 430.554 100.95 431.554 100.65C432.654 100.25 433.754 100.05 434.854 100.05C436.554 100.05 438.404 100.25 440.404 100.65C442.504 101.05 444.604 101.55 446.704 102.15C448.804 102.65 450.854 103.25 452.854 103.95C454.854 104.55 456.604 105.15 458.104 105.75C464.204 107.95 469.954 110.75 475.354 114.15C480.854 117.45 485.804 121.35 490.204 125.85C494.704 130.25 498.554 135.2 501.754 140.7C504.954 146.2 507.404 152.15 509.104 158.55ZM458.404 139.35C462.104 149.45 464.504 160.1 465.604 171.3C465.804 172.4 466.454 172.95 467.554 172.95C468.054 172.95 468.454 172.8 468.754 172.5C469.154 172.2 469.254 171.8 469.054 171.3C468.554 165.6 467.704 160.05 466.504 154.65C465.304 149.15 463.754 143.7 461.854 138.3C461.554 137.5 461.004 137.1 460.204 137.1C459.604 137.1 459.104 137.3 458.704 137.7C458.304 138.1 458.204 138.65 458.404 139.35ZM622.023 145.05C622.023 150.35 621.323 155.9 619.923 161.7C618.423 168.3 616.123 174.4 613.023 180C609.923 185.6 606.323 190.45 602.223 194.55C598.223 198.55 593.823 201.7 589.023 204C584.223 206.2 579.373 207.3 574.473 207.3C568.773 207.3 563.723 205.9 559.323 203.1C554.923 200.3 551.223 196.5 548.223 191.7C546.323 188.7 544.773 185.4 543.573 181.8C542.373 178.2 541.523 174.45 541.023 170.55C540.523 166.55 540.373 162.5 540.573 158.4C540.773 154.2 541.373 150 542.373 145.8C543.973 139.2 546.273 133.1 549.273 127.5C552.373 121.9 555.923 117.1 559.923 113.1C564.023 109 568.423 105.85 573.123 103.65C577.923 101.35 582.773 100.2 587.673 100.2C593.573 100.2 598.673 101.6 602.973 104.4C607.273 107.1 610.823 110.6 613.623 114.9C616.523 119.2 618.623 124 619.923 129.3C621.323 134.6 622.023 139.85 622.023 145.05ZM585.273 138.9C582.373 143.5 579.823 148.2 577.623 153C575.423 157.8 573.523 162.8 571.923 168C571.723 168.6 571.823 169.1 572.223 169.5C572.623 169.8 573.073 169.95 573.573 169.95C574.473 169.95 574.973 169.55 575.073 168.75C578.173 158.95 582.473 149.55 587.973 140.55C588.473 139.95 588.473 139.4 587.973 138.9C587.573 138.3 587.123 138 586.623 138C586.023 138 585.573 138.3 585.273 138.9ZM736.474 113.85C736.674 119.85 736.024 125.85 734.524 131.85C733.024 137.75 731.174 143.5 728.974 149.1C727.974 151.8 726.524 155.1 724.624 159C722.824 162.9 720.724 166.95 718.324 171.15C715.924 175.35 713.224 179.55 710.224 183.75C707.324 187.95 704.274 191.7 701.074 195C697.874 198.3 694.524 201 691.024 203.1C687.624 205.1 684.224 206.1 680.824 206.1C677.824 206.1 675.324 205.35 673.324 203.85C671.424 202.35 669.874 200.45 668.674 198.15C667.574 195.75 666.724 193.2 666.124 190.5C665.624 187.8 665.224 185.25 664.924 182.85C664.424 178.05 664.224 173.3 664.324 168.6C664.524 163.8 664.874 159 665.374 154.2C665.474 153 665.574 151.85 665.674 150.75C665.874 149.55 666.024 148.4 666.124 147.3C666.124 147.1 666.174 146.9 666.274 146.7C666.374 146.2 666.224 145.85 665.824 145.65C665.424 145.35 664.974 145.2 664.474 145.2C663.474 145.2 662.924 145.6 662.824 146.4V146.7C662.324 149 661.624 152.1 660.724 156C659.824 159.9 658.674 164.15 657.274 168.75C655.974 173.35 654.424 178 652.624 182.7C650.824 187.4 648.824 191.65 646.624 195.45C644.524 199.25 642.174 202.35 639.574 204.75C636.974 207.15 634.174 208.35 631.174 208.35C628.874 208.35 626.974 207.85 625.474 206.85C623.974 205.85 622.774 204.55 621.874 202.95C620.974 201.35 620.324 199.6 619.924 197.7C619.524 195.7 619.274 193.75 619.174 191.85C618.974 189.75 618.924 187.65 619.024 185.55C619.224 183.35 619.424 181.15 619.624 178.95C620.424 173.35 621.674 167.4 623.374 161.1C625.074 154.7 627.224 148.45 629.824 142.35C632.524 136.15 635.624 130.3 639.124 124.8C642.624 119.3 646.524 114.55 650.824 110.55C653.124 108.35 655.674 106.45 658.474 104.85C661.374 103.25 664.474 102.55 667.774 102.75C669.774 102.75 671.524 103.25 673.024 104.25C674.624 105.15 676.024 106.35 677.224 107.85C678.424 109.35 679.424 111 680.224 112.8C681.124 114.5 681.874 116.2 682.474 117.9C683.374 120.7 683.974 123.55 684.274 126.45C684.674 129.35 684.874 132.25 684.874 135.15C684.974 138.05 684.974 141 684.874 144C684.774 146.9 684.774 149.8 684.874 152.7C684.874 153.2 685.024 153.65 685.324 154.05C685.724 154.35 686.174 154.5 686.674 154.5C687.174 154.5 687.574 154.35 687.874 154.05C688.174 153.65 688.324 153.2 688.324 152.7C690.624 147.8 692.724 142.8 694.624 137.7C696.524 132.5 698.524 127.35 700.624 122.25C701.824 119.75 703.024 117.3 704.224 114.9C705.524 112.5 706.874 110.1 708.274 107.7C709.074 106.5 709.974 105.15 710.974 103.65C711.974 102.15 713.074 100.75 714.274 99.45C715.574 98.15 716.974 97.1 718.474 96.3C719.974 95.4 721.524 94.95 723.124 94.95C725.424 94.95 727.374 95.6 728.974 96.9C730.674 98.2 732.024 99.8 733.024 101.7C734.124 103.6 734.924 105.65 735.424 107.85C736.024 110.05 736.374 112.05 736.474 113.85Z" fill="white"/>
<path d="M192.988 160.6C192.188 158.8 190.988 157.35 189.388 156.25C187.888 155.15 186.138 154.35 184.138 153.85C181.838 153.35 179.488 153.25 177.088 153.55C174.788 153.75 172.488 154.1 170.188 154.6C167.788 155.1 165.388 155.7 162.988 156.4C160.688 157 158.438 157.7 156.238 158.5C155.738 158.7 155.288 158.7 154.888 158.5C154.588 158.2 154.338 157.85 154.138 157.45C154.038 157.05 154.038 156.65 154.138 156.25C154.338 155.75 154.688 155.4 155.188 155.2C156.288 154.9 157.338 154.6 158.338 154.3C159.438 153.9 160.538 153.45 161.638 152.95C165.138 151.55 168.538 149.95 171.838 148.15C175.238 146.35 178.438 144.3 181.438 142C184.338 139.9 186.988 137.4 189.388 134.5C191.788 131.5 193.088 128.2 193.288 124.6C193.388 122.9 193.138 121.25 192.538 119.65C191.938 118.05 191.088 116.6 189.988 115.3C188.988 113.9 187.788 112.65 186.388 111.55C185.088 110.35 183.688 109.35 182.188 108.55C178.788 106.55 175.088 105.1 171.088 104.2C167.088 103.2 163.188 102.45 159.388 101.95C150.888 101.05 142.638 101.4 134.638 103C131.838 103.6 129.038 104.35 126.238 105.25C123.438 106.15 120.788 107.3 118.288 108.7C115.988 110 113.738 111.6 111.538 113.5C109.438 115.3 107.938 117.35 107.038 119.65C106.038 122.65 106.638 125.4 108.838 127.9C110.738 130.1 113.088 131.9 115.888 133.3C118.788 134.7 121.588 135.9 124.288 136.9C126.688 133.9 129.238 131 131.938 128.2C134.638 125.4 137.588 122.85 140.788 120.55C141.188 120.35 141.638 120.35 142.138 120.55C142.638 120.65 142.988 120.9 143.188 121.3C143.688 122.1 143.488 122.85 142.588 123.55C141.488 124.35 140.438 125.2 139.438 126.1C138.438 126.9 137.438 127.75 136.438 128.65C132.838 131.85 129.488 135.6 126.388 139.9L126.238 140.05C122.738 144.75 119.938 149.65 117.838 154.75C116.638 157.65 115.538 160.7 114.538 163.9C113.638 167.1 113.038 170.2 112.738 173.2C112.438 175.7 112.338 178.3 112.438 181C112.638 183.6 113.088 186.15 113.788 188.65C114.488 191.05 115.488 193.4 116.788 195.7C118.188 197.9 119.988 199.85 122.188 201.55C125.088 203.85 128.438 205.45 132.238 206.35C136.138 207.25 139.988 207.7 143.788 207.7C148.588 207.7 153.238 207.15 157.738 206.05C162.338 204.85 166.688 203.1 170.788 200.8C174.288 198.8 177.488 196.45 180.388 193.75C183.288 191.05 185.788 188.1 187.888 184.9C189.488 182.5 190.888 179.9 192.088 177.1C193.288 174.2 193.988 171.3 194.188 168.4C194.288 167 194.238 165.65 194.038 164.35C193.838 163.05 193.488 161.8 192.988 160.6ZM159.238 135.7C159.138 136.3 158.838 136.7 158.338 136.9C157.938 137 157.488 137 156.988 136.9C156.588 136.8 156.238 136.6 155.938 136.3C155.738 135.9 155.738 135.45 155.938 134.95C156.438 132.55 157.038 130.2 157.738 127.9C158.538 125.6 159.388 123.3 160.288 121C160.588 120 161.288 119.6 162.388 119.8C162.888 120 163.238 120.3 163.438 120.7C163.738 121.1 163.788 121.5 163.588 121.9C162.788 124.2 161.988 126.5 161.188 128.8C160.388 131.1 159.738 133.4 159.238 135.7ZM147.088 170.65C147.288 170.15 147.588 169.8 147.988 169.6C148.388 169.4 148.788 169.35 149.188 169.45C149.688 169.55 150.038 169.8 150.238 170.2C150.538 170.5 150.588 170.95 150.388 171.55C149.588 174.15 148.938 176.85 148.438 179.65C147.938 182.35 147.488 185.1 147.088 187.9C146.888 189 146.288 189.55 145.288 189.55C144.888 189.55 144.488 189.4 144.088 189.1C143.688 188.8 143.538 188.4 143.638 187.9C144.038 185 144.488 182.1 144.988 179.2C145.488 176.3 146.188 173.45 147.088 170.65ZM191.488 153.7C194.388 155.8 196.238 158.5 197.038 161.8C197.838 165 197.938 168.25 197.338 171.55C196.638 174.95 195.488 178.2 193.888 181.3C192.288 184.4 190.438 187.35 188.338 190.15C185.738 193.55 182.688 196.6 179.188 199.3C175.688 202 171.938 204.25 167.938 206.05C163.238 208.15 158.288 209.6 153.088 210.4C147.988 211.2 142.888 211.3 137.788 210.7C133.988 210.2 130.288 209.3 126.688 208C123.088 206.6 119.938 204.45 117.238 201.55C115.238 199.45 113.638 197.15 112.438 194.65C111.238 192.05 110.338 189.4 109.738 186.7C109.238 184 108.988 181.25 108.988 178.45C108.988 175.65 109.188 172.9 109.588 170.2C110.188 166 111.238 161.9 112.738 157.9C114.338 153.9 116.138 150 118.138 146.2C119.538 143.8 120.938 141.65 122.338 139.75C121.638 139.45 120.938 139.2 120.238 139C119.538 138.7 118.838 138.4 118.138 138.1C115.538 137 112.938 135.6 110.338 133.9C107.738 132.1 105.738 129.9 104.338 127.3C103.438 125.7 102.988 124 102.988 122.2C103.088 120.4 103.588 118.65 104.488 116.95C105.888 114.45 107.738 112.2 110.038 110.2C112.338 108.2 114.788 106.55 117.388 105.25C124.988 101.45 133.188 99.2 141.988 98.5C150.788 97.8 159.388 98.3 167.788 100C171.788 100.8 175.688 102 179.488 103.6C183.388 105.1 186.888 107.25 189.988 110.05C192.888 112.75 194.888 115.9 195.988 119.5C197.088 123 196.938 126.6 195.538 130.3C194.138 134 191.988 137.2 189.088 139.9C186.288 142.6 183.238 145.05 179.938 147.25C179.038 147.75 178.138 148.3 177.238 148.9C176.438 149.4 175.588 149.9 174.688 150.4C177.688 150 180.638 150 183.538 150.4C186.438 150.8 189.088 151.9 191.488 153.7ZM295.04 132.7C295.14 136.8 295.09 140.85 294.89 144.85C294.79 148.85 294.44 152.85 293.84 156.85C293.14 161.75 292.39 166.65 291.59 171.55C290.79 176.35 289.69 181.15 288.29 185.95C286.99 190.25 285.29 194.55 283.19 198.85C281.09 203.15 278.14 206.6 274.34 209.2C272.64 210.3 270.74 211.15 268.64 211.75C266.54 212.35 264.44 212.45 262.34 212.05C260.34 211.75 258.64 210.95 257.24 209.65C255.94 208.35 254.89 206.8 254.09 205C253.29 203.2 252.69 201.3 252.29 199.3C251.99 197.3 251.79 195.45 251.69 193.75C248.29 199.75 244.09 204.2 239.09 207.1C234.19 209.9 228.29 211.3 221.39 211.3C212.89 211.3 206.49 208.95 202.19 204.25C197.99 199.45 195.09 193 193.49 184.9C191.89 176.9 191.39 168.8 191.99 160.6C192.69 152.4 193.84 144.35 195.44 136.45C196.44 131.35 197.69 126.3 199.19 121.3C200.79 116.2 203.09 111.55 206.09 107.35C207.89 104.45 210.14 102.1 212.84 100.3C215.64 98.5 218.79 97.6 222.29 97.6C225.19 97.6 227.64 98.2 229.64 99.4C231.74 100.5 233.49 102 234.89 103.9C236.39 105.8 237.54 108 238.34 110.5C239.24 112.9 239.84 115.35 240.14 117.85C240.64 121.55 240.84 125.25 240.74 128.95C240.74 132.55 240.74 136.15 240.74 139.75C240.74 141.45 240.69 143.15 240.59 144.85C240.59 146.55 240.59 148.25 240.59 149.95C241.39 146.85 242.24 143.55 243.14 140.05C244.04 136.45 245.04 132.85 246.14 129.25C247.34 125.65 248.64 122.2 250.04 118.9C251.44 115.5 252.94 112.45 254.54 109.75C256.74 106.25 259.54 103.4 262.94 101.2C266.34 98.9 270.19 97.75 274.49 97.75C278.99 97.75 282.54 98.95 285.14 101.35C287.84 103.65 289.89 106.6 291.29 110.2C292.69 113.7 293.64 117.5 294.14 121.6C294.64 125.6 294.94 129.3 295.04 132.7ZM290.99 125.2C290.79 123.5 290.54 121.65 290.24 119.65C289.94 117.55 289.49 115.55 288.89 113.65C288.29 111.65 287.49 109.8 286.49 108.1C285.59 106.3 284.44 104.8 283.04 103.6C281.94 102.8 280.69 102.25 279.29 101.95C277.89 101.55 276.44 101.35 274.94 101.35C272.24 101.35 269.44 101.95 266.54 103.15C263.64 104.25 261.39 105.95 259.79 108.25C259.69 108.55 259.54 108.7 259.34 108.7C259.34 108.8 259.24 108.95 259.04 109.15L258.59 109.6C258.59 109.7 258.54 109.8 258.44 109.9C256.14 113.7 254.19 117.75 252.59 122.05C250.99 126.35 249.49 130.6 248.09 134.8C246.19 141 244.44 147.15 242.84 153.25C241.34 159.35 239.89 165.5 238.49 171.7C238.19 172.5 237.69 172.9 236.99 172.9C236.49 172.9 236.04 172.7 235.64 172.3C235.24 171.9 235.09 171.4 235.19 170.8C235.99 165.3 236.54 159.8 236.84 154.3C237.14 148.7 237.34 143.05 237.44 137.35C237.54 134.15 237.54 130.9 237.44 127.6C237.44 124.2 237.19 120.9 236.69 117.7C236.39 115.9 235.89 114.05 235.19 112.15C234.59 110.15 233.74 108.35 232.64 106.75C231.64 105.15 230.34 103.8 228.74 102.7C227.24 101.6 225.44 101 223.34 100.9C221.44 100.7 219.64 100.95 217.94 101.65C216.24 102.25 214.69 103.1 213.29 104.2C211.99 105.3 210.79 106.6 209.69 108.1C208.59 109.5 207.59 111 206.69 112.6C205.19 115.4 203.79 118.7 202.49 122.5C201.29 126.3 200.19 130.25 199.19 134.35C198.29 138.35 197.54 142.4 196.94 146.5C196.34 150.5 195.94 154.1 195.74 157.3C195.34 162 195.19 166.7 195.29 171.4C195.39 176.1 195.94 180.75 196.94 185.35C197.44 187.55 198.09 189.75 198.89 191.95C199.69 194.05 200.69 196.05 201.89 197.95C203.09 199.85 204.54 201.55 206.24 203.05C207.94 204.45 209.94 205.55 212.24 206.35C214.34 207.05 216.54 207.45 218.84 207.55C221.14 207.65 223.44 207.6 225.74 207.4C229.34 207.1 232.59 206.3 235.49 205C238.39 203.7 240.89 202 242.99 199.9C245.19 197.7 247.09 195.2 248.69 192.4C250.29 189.5 251.59 186.35 252.59 182.95C252.89 182.25 253.39 181.9 254.09 181.9C254.59 181.9 255.04 182.1 255.44 182.5C255.94 182.8 256.09 183.3 255.89 184C255.69 184.5 255.54 185 255.44 185.5C255.44 186 255.39 186.5 255.29 187C255.09 188.8 254.99 190.65 254.99 192.55C255.09 194.45 255.29 196.3 255.59 198.1C255.99 200.8 256.84 203.3 258.14 205.6C259.44 207.8 261.64 208.9 264.74 208.9C268.54 208.9 271.74 207.65 274.34 205.15C276.94 202.65 279.09 199.6 280.79 196C282.59 192.4 283.99 188.65 284.99 184.75C286.09 180.75 286.94 177.35 287.54 174.55C288.34 170.65 288.99 166.75 289.49 162.85C290.09 158.95 290.59 155 290.99 151C291.89 142.3 291.89 133.7 290.99 125.2ZM334.038 140.95C334.038 145.55 333.888 150.3 333.588 155.2C333.388 160.1 332.888 165 332.088 169.9C331.388 174.7 330.388 179.45 329.088 184.15C327.788 188.75 326.088 193.15 323.988 197.35C323.088 199.15 322.038 200.95 320.838 202.75C319.638 204.55 318.288 206.15 316.788 207.55C315.288 208.95 313.588 210.05 311.688 210.85C309.888 211.55 307.888 211.75 305.688 211.45C303.688 211.25 301.888 210.65 300.288 209.65C298.788 208.65 297.438 207.45 296.238 206.05C295.138 204.65 294.188 203.1 293.388 201.4C292.688 199.6 292.088 197.8 291.588 196C290.488 191.7 289.788 187.3 289.488 182.8C289.288 178.3 289.288 173.8 289.488 169.3C289.588 166.2 289.788 163.15 290.088 160.15C290.388 157.15 290.788 154.1 291.288 151C291.288 150.5 291.338 150 291.438 149.5C291.538 149 291.688 148.5 291.888 148C292.288 145.9 292.838 143.2 293.538 139.9C294.238 136.6 295.138 133.1 296.238 129.4C297.338 125.7 298.638 121.95 300.138 118.15C301.638 114.35 303.338 110.95 305.238 107.95C307.138 104.85 309.238 102.35 311.538 100.45C313.938 98.55 316.538 97.6 319.338 97.6C321.738 97.6 323.788 98.45 325.488 100.15C327.188 101.85 328.538 104.05 329.538 106.75C330.638 109.45 331.488 112.5 332.088 115.9C332.688 119.2 333.138 122.45 333.438 125.65C333.738 128.85 333.888 131.85 333.888 134.65C333.988 137.35 334.038 139.45 334.038 140.95ZM330.438 133C330.338 131 330.188 128.65 329.988 125.95C329.788 123.25 329.438 120.55 328.938 117.85C328.538 115.05 327.938 112.4 327.138 109.9C326.338 107.4 325.338 105.35 324.138 103.75C322.438 101.45 320.188 100.65 317.388 101.35C314.288 102.25 311.438 104.8 308.838 109C306.238 113.1 303.938 117.8 301.938 123.1C300.038 128.4 298.438 133.7 297.138 139C295.838 144.3 294.938 148.6 294.438 151.9C294.438 152.3 294.388 152.6 294.288 152.8V153.55C294.288 153.75 294.238 153.9 294.138 154C293.738 157.5 293.388 160.95 293.088 164.35C292.788 167.75 292.637 171.15 292.637 174.55C292.538 178.75 292.638 182.95 292.938 187.15C293.338 191.35 294.338 195.35 295.938 199.15C296.638 200.65 297.388 202.05 298.188 203.35C299.088 204.65 300.238 205.7 301.638 206.5C303.238 207.6 305.038 208.15 307.038 208.15C309.338 208.15 311.388 207.5 313.188 206.2C314.988 204.8 316.588 203.1 317.988 201.1C319.388 199.1 320.538 196.95 321.438 194.65C322.438 192.35 323.288 190.3 323.988 188.5C327.088 179.5 329.038 170.35 329.838 161.05C330.738 151.75 330.938 142.4 330.438 133ZM424.238 176.5C424.538 178.6 424.388 180.7 423.788 182.8C423.288 184.9 422.488 186.9 421.388 188.8C420.288 190.7 418.988 192.5 417.488 194.2C416.088 195.8 414.638 197.2 413.138 198.4C410.338 200.5 407.288 202.4 403.988 204.1C400.688 205.7 397.238 207.05 393.638 208.15C390.038 209.15 386.388 209.95 382.688 210.55C379.088 211.05 375.538 211.3 372.038 211.3C367.338 211.3 362.688 210.8 358.088 209.8C353.488 208.7 349.238 207.05 345.338 204.85C341.438 202.55 338.038 199.65 335.138 196.15C332.338 192.65 330.338 188.45 329.138 183.55C328.938 182.45 328.788 181.3 328.688 180.1C328.588 178.8 328.438 177.6 328.238 176.5C327.938 172.2 328.188 168 328.988 163.9C329.888 159.8 331.138 155.8 332.738 151.9C334.438 148 336.338 144.25 338.438 140.65C340.638 136.95 342.938 133.4 345.338 130C347.338 127.3 349.788 124.1 352.688 120.4C355.588 116.7 358.738 113.2 362.138 109.9C365.638 106.5 369.288 103.65 373.088 101.35C376.988 99.05 380.838 97.9 384.638 97.9C386.038 97.9 387.288 98.1 388.388 98.5C390.188 99.1 391.688 100 392.888 101.2C394.088 102.4 394.988 103.8 395.588 105.4C396.188 106.9 396.588 108.55 396.788 110.35C396.988 112.05 396.988 113.75 396.788 115.45C396.388 120.15 395.288 125 393.488 130C391.688 134.9 389.488 139.7 386.888 144.4C384.288 149.1 381.438 153.65 378.338 158.05C375.238 162.35 372.188 166.25 369.188 169.75C374.188 166.95 378.988 164.9 383.588 163.6C388.188 162.3 393.338 161.65 399.038 161.65C401.438 161.65 403.988 161.9 406.688 162.4C409.488 162.9 412.088 163.75 414.488 164.95C416.988 166.05 419.138 167.55 420.938 169.45C422.738 171.35 423.838 173.7 424.238 176.5ZM343.238 139C339.538 145 336.488 151.3 334.088 157.9C331.788 164.5 331.038 171.4 331.838 178.6C331.938 179 331.988 179.4 331.988 179.8C331.988 180.1 332.038 180.55 332.138 181.15C332.338 182.25 332.588 183.3 332.888 184.3C333.188 185.3 333.538 186.35 333.938 187.45C335.638 191.15 337.838 194.3 340.538 196.9C343.238 199.5 346.238 201.6 349.538 203.2C352.938 204.8 356.538 206 360.338 206.8C364.138 207.5 367.988 207.85 371.888 207.85C375.388 207.85 379.088 207.6 382.988 207.1C386.888 206.5 390.688 205.6 394.388 204.4C398.188 203.2 401.738 201.7 405.038 199.9C408.438 198 411.388 195.7 413.888 193C415.088 191.8 416.238 190.4 417.338 188.8C418.538 187.2 419.438 185.55 420.038 183.85C420.738 182.05 421.088 180.25 421.088 178.45C421.188 176.55 420.738 174.8 419.738 173.2C418.938 171.8 417.888 170.65 416.588 169.75C415.288 168.75 413.888 167.95 412.388 167.35C410.888 166.75 409.338 166.25 407.738 165.85C406.138 165.45 404.588 165.2 403.088 165.1C399.888 164.7 396.638 164.7 393.338 165.1C390.038 165.4 386.838 166 383.738 166.9C379.438 168.1 375.338 169.9 371.438 172.3C367.538 174.6 363.788 177.05 360.188 179.65C359.988 179.75 359.888 179.8 359.888 179.8C359.088 180.3 358.338 180.15 357.638 179.35C357.038 178.55 357.088 177.8 357.788 177.1C357.988 176.9 358.088 176.8 358.088 176.8C361.688 173.3 365.488 169.05 369.488 164.05C373.588 158.95 377.388 153.55 380.888 147.85C384.388 142.15 387.338 136.35 389.738 130.45C392.138 124.45 393.488 118.85 393.788 113.65C393.788 112.25 393.688 110.9 393.488 109.6C393.288 108.2 392.888 106.95 392.288 105.85C391.688 104.75 390.888 103.85 389.888 103.15C388.888 102.35 387.638 101.8 386.138 101.5H385.838C385.538 101.5 385.338 101.4 385.238 101.2C384.638 101.2 384.188 101.3 383.888 101.5C380.288 101.5 376.488 102.9 372.488 105.7C368.588 108.4 364.788 111.7 361.088 115.6C357.388 119.5 353.988 123.6 350.888 127.9C347.788 132.2 345.238 135.9 343.238 139ZM505.104 159.55C503.104 152.05 500.004 145.1 495.804 138.7C491.704 132.3 486.754 126.7 480.954 121.9C473.054 115.3 464.104 110.25 454.104 106.75C451.204 105.65 448.254 104.7 445.254 103.9C442.254 103 439.254 102.3 436.254 101.8C434.154 101.4 432.104 101.2 430.104 101.2C428.204 101.1 426.404 101.9 424.704 103.6C423.704 104.7 423.004 106 422.604 107.5C422.204 108.9 422.004 110.4 422.004 112C422.004 113.5 422.104 115.05 422.304 116.65C422.604 118.15 422.804 119.6 422.904 121C423.304 124.8 423.604 128.55 423.804 132.25C424.104 135.95 424.454 139.65 424.854 143.35C425.454 150.05 426.054 156.75 426.654 163.45C427.254 170.05 427.954 176.7 428.754 183.4V183.7C428.754 183.8 428.754 183.9 428.754 184C428.854 184.1 428.904 184.2 428.904 184.3C429.004 184.7 429.054 185.05 429.054 185.35C429.054 185.65 429.104 185.9 429.204 186.1C429.804 188.2 430.504 190.3 431.304 192.4C432.204 194.5 433.254 196.45 434.454 198.25C435.754 200.05 437.254 201.65 438.954 203.05C440.754 204.35 442.754 205.3 444.954 205.9C452.154 208 459.554 208.75 467.154 208.15C474.754 207.45 481.854 205.35 488.454 201.85C490.854 200.55 493.104 199.05 495.204 197.35C497.304 195.65 499.104 193.75 500.604 191.65C503.704 187.45 505.654 182.7 506.454 177.4C506.954 174.3 507.054 171.3 506.754 168.4C506.454 165.4 505.904 162.45 505.104 159.55ZM454.404 140.35C454.204 139.75 454.204 139.3 454.404 139C454.704 138.6 455.054 138.35 455.454 138.25C455.954 138.05 456.404 138.05 456.804 138.25C457.304 138.45 457.654 138.8 457.854 139.3C459.754 144.7 461.304 150.15 462.504 155.65C463.704 161.05 464.554 166.6 465.054 172.3C465.154 172.9 465.054 173.35 464.754 173.65C464.454 173.85 464.054 173.95 463.554 173.95C463.154 173.95 462.704 173.85 462.204 173.65C461.804 173.35 461.604 172.9 461.604 172.3C460.504 161.1 458.104 150.45 454.404 140.35ZM509.754 163.9C510.454 168.1 510.604 172.3 510.204 176.5C509.804 180.7 508.654 184.7 506.754 188.5C505.454 191.2 503.804 193.7 501.804 196C499.804 198.2 497.554 200.15 495.054 201.85C492.554 203.55 489.904 205.05 487.104 206.35C484.404 207.65 481.654 208.7 478.854 209.5C470.854 211.8 462.704 212.4 454.404 211.3C451.004 210.9 447.654 210.3 444.354 209.5C441.154 208.6 438.254 207 435.654 204.7C432.654 202.1 430.254 198.85 428.454 194.95C426.754 191.05 425.654 187.2 425.154 183.4C424.954 181.7 424.754 180 424.554 178.3C424.354 176.6 424.154 174.9 423.954 173.2C423.154 166 422.454 158.85 421.854 151.75C421.354 144.65 420.804 137.5 420.204 130.3C420.004 128.1 419.804 126 419.604 124C419.404 121.9 419.204 119.8 419.004 117.7C418.804 115.9 418.604 114.15 418.404 112.45C418.304 110.65 418.504 108.85 419.004 107.05C419.504 104.75 420.554 102.75 422.154 101.05C423.854 99.35 425.854 98.25 428.154 97.75C429.454 97.45 430.704 97.4 431.904 97.6C433.204 97.8 434.454 98 435.654 98.2C437.354 98.5 439.004 98.85 440.604 99.25C442.204 99.55 443.804 99.9 445.404 100.3C448.404 101.1 451.354 102 454.254 103C457.254 104 460.204 105.2 463.104 106.6C472.904 111 481.404 116.9 488.604 124.3C493.904 129.7 498.454 135.8 502.254 142.6C506.054 149.3 508.554 156.4 509.754 163.9ZM612.923 114.7C617.023 121.1 619.573 128.6 620.573 137.2C621.673 145.7 621.173 154.4 619.073 163.3C617.773 168.9 615.673 174.55 612.773 180.25C609.973 185.95 606.473 191.15 602.273 195.85C598.173 200.45 593.423 204.25 588.023 207.25C582.623 210.15 576.773 211.6 570.473 211.6C564.373 211.6 558.773 210.05 553.673 206.95C548.673 203.85 544.573 199.75 541.373 194.65C537.273 188.25 534.673 180.8 533.573 172.3C532.473 163.7 532.973 154.9 535.073 145.9C536.773 138.9 539.273 132.45 542.573 126.55C545.873 120.65 549.673 115.6 553.973 111.4C558.373 107.1 563.123 103.75 568.223 101.35C573.323 98.95 578.523 97.75 583.823 97.75C590.023 97.75 595.573 99.3 600.473 102.4C605.373 105.5 609.523 109.6 612.923 114.7ZM583.673 101.2C578.773 101.2 573.923 102.35 569.123 104.65C564.423 106.85 560.023 110 555.923 114.1C551.923 118.1 548.373 122.9 545.273 128.5C542.273 134.1 539.973 140.2 538.373 146.8C537.373 151 536.773 155.2 536.573 159.4C536.373 163.5 536.523 167.55 537.023 171.55C537.523 175.45 538.373 179.2 539.573 182.8C540.773 186.4 542.323 189.7 544.223 192.7C547.223 197.5 550.923 201.3 555.323 204.1C559.723 206.9 564.773 208.3 570.473 208.3C575.373 208.3 580.223 207.2 585.023 205C589.823 202.7 594.223 199.55 598.223 195.55C602.323 191.45 605.923 186.6 609.023 181C612.123 175.4 614.423 169.3 615.923 162.7C617.323 156.9 618.023 151.35 618.023 146.05C618.023 140.85 617.323 135.6 615.923 130.3C614.623 125 612.523 120.2 609.623 115.9C606.823 111.6 603.273 108.1 598.973 105.4C594.673 102.6 589.573 101.2 583.673 101.2ZM581.273 139.9C581.573 139.3 582.023 139 582.623 139C583.123 139 583.573 139.3 583.973 139.9C584.473 140.4 584.473 140.95 583.973 141.55C578.473 150.55 574.173 159.95 571.073 169.75C570.973 170.55 570.473 170.95 569.573 170.95C569.073 170.95 568.623 170.8 568.223 170.5C567.823 170.1 567.723 169.6 567.923 169C569.523 163.8 571.423 158.8 573.623 154C575.823 149.2 578.373 144.5 581.273 139.9ZM732.474 114.85C732.274 112.25 731.774 109.6 730.974 106.9C730.274 104.2 728.974 101.85 727.074 99.85C725.474 98.15 723.624 96.95 721.524 96.25C719.424 95.55 717.224 95.8 714.924 97C712.624 98.2 710.624 99.9 708.924 102.1C707.224 104.3 705.674 106.5 704.274 108.7C702.874 111.1 701.524 113.5 700.224 115.9C699.024 118.3 697.824 120.75 696.624 123.25C694.524 128.35 692.524 133.5 690.624 138.7C688.724 143.8 686.624 148.8 684.324 153.7C684.324 153.9 684.224 154.2 684.024 154.6C683.624 155.4 682.974 155.65 682.074 155.35C681.274 155.05 680.874 154.5 680.874 153.7C680.774 150.8 680.774 147.9 680.874 145C680.974 142 680.974 139.05 680.874 136.15C680.874 133.25 680.674 130.35 680.274 127.45C679.974 124.55 679.374 121.7 678.474 118.9C677.874 117.2 677.124 115.5 676.224 113.8C675.424 112 674.424 110.35 673.224 108.85C672.024 107.35 670.624 106.15 669.024 105.25C667.524 104.25 665.774 103.75 663.774 103.75C660.474 103.55 657.374 104.25 654.474 105.85C651.674 107.45 649.124 109.35 646.824 111.55C643.724 114.45 640.924 117.6 638.424 121C636.024 124.4 633.774 128 631.674 131.8C629.374 135.9 627.324 140.05 625.524 144.25C623.724 148.35 622.124 152.55 620.724 156.85C619.524 160.65 618.474 164.5 617.574 168.4C616.774 172.3 616.124 176.15 615.624 179.95C615.424 182.15 615.224 184.35 615.024 186.55C614.924 188.65 614.974 190.75 615.174 192.85C615.274 194.65 615.474 196.45 615.774 198.25C616.074 199.95 616.624 201.6 617.424 203.2C618.824 206.1 620.924 207.95 623.724 208.75C626.824 209.75 629.874 209.4 632.874 207.7C634.574 206.7 636.074 205.45 637.374 203.95C638.674 202.35 639.874 200.7 640.974 199C642.374 196.8 643.624 194.55 644.724 192.25C645.924 189.85 647.024 187.4 648.024 184.9C650.424 178.9 652.474 172.8 654.174 166.6C655.874 160.4 657.424 154.1 658.824 147.7V147.4C658.924 146.9 659.174 146.55 659.574 146.35C659.974 146.15 660.374 146.1 660.774 146.2C661.174 146.2 661.524 146.35 661.824 146.65C662.124 146.85 662.274 147.2 662.274 147.7C662.174 147.9 662.124 148.1 662.124 148.3C662.024 149.4 661.874 150.55 661.674 151.75C661.574 152.85 661.474 154 661.374 155.2C660.874 160 660.524 164.8 660.324 169.6C660.224 174.3 660.424 179.05 660.924 183.85C661.324 187.25 661.974 190.8 662.874 194.5C663.774 198.1 665.474 201.15 667.974 203.65C670.274 205.85 672.924 207 675.924 207.1C678.924 207.2 681.774 206.6 684.474 205.3C687.974 203.6 691.124 201.45 693.924 198.85C696.824 196.25 699.424 193.5 701.724 190.6C706.724 184.6 711.124 178.15 714.924 171.25C718.824 164.35 722.174 157.3 724.974 150.1C727.174 144.5 729.024 138.75 730.524 132.85C732.024 126.85 732.674 120.85 732.474 114.85ZM733.074 102.7C734.474 105.4 735.324 108.3 735.624 111.4C735.924 114.4 735.974 117.4 735.774 120.4C735.274 126.8 734.124 133.05 732.324 139.15C730.524 145.15 728.374 151.05 725.874 156.85C724.474 160.25 722.924 163.6 721.224 166.9C719.524 170.1 717.724 173.3 715.824 176.5C713.524 180.3 711.074 184 708.474 187.6C705.974 191.2 703.174 194.6 700.074 197.8C697.474 200.5 694.574 203.05 691.374 205.45C688.174 207.85 684.674 209.45 680.874 210.25C677.374 210.95 674.024 210.7 670.824 209.5C667.624 208.2 665.024 206.05 663.024 203.05C660.724 199.55 659.224 195.7 658.524 191.5C657.824 187.2 657.324 183.05 657.024 179.05C657.024 177.45 656.974 175.9 656.874 174.4C656.874 172.8 656.924 171.2 657.024 169.6C654.924 177.1 652.224 184.5 648.924 191.8C648.024 193.7 647.024 195.7 645.924 197.8C644.824 199.9 643.524 201.9 642.024 203.8C640.624 205.7 639.024 207.4 637.224 208.9C635.524 210.3 633.574 211.35 631.374 212.05C627.574 213.25 623.774 212.9 619.974 211C618.374 210.2 617.074 209.1 616.074 207.7C615.074 206.3 614.224 204.75 613.524 203.05C612.024 199.05 611.324 194.85 611.424 190.45C611.624 186.05 612.024 181.8 612.624 177.7C613.524 170.6 615.124 163.4 617.424 156.1C620.724 145.6 625.274 135.5 631.074 125.8C633.374 122 635.874 118.4 638.574 115C641.374 111.5 644.524 108.45 648.024 105.85C650.824 103.85 653.924 102.25 657.324 101.05C660.724 99.85 664.074 99.75 667.374 100.75C669.474 101.35 671.324 102.35 672.924 103.75C674.624 105.05 676.074 106.6 677.274 108.4C678.474 110.1 679.474 111.95 680.274 113.95C681.174 115.95 681.924 117.95 682.524 119.95C683.624 124.15 684.224 128.35 684.324 132.55C684.424 136.65 684.424 140.85 684.324 145.15C684.424 145.05 684.474 144.95 684.474 144.85C684.474 144.85 684.474 144.8 684.474 144.7C686.774 139.1 688.924 133.55 690.924 128.05C693.024 122.55 695.474 117.2 698.274 112C699.374 109.9 700.674 107.6 702.174 105.1C703.774 102.6 705.574 100.35 707.574 98.35C709.574 96.25 711.774 94.65 714.174 93.55C716.674 92.35 719.374 92.1 722.274 92.8C724.674 93.4 726.774 94.65 728.574 96.55C730.474 98.35 731.974 100.4 733.074 102.7Z" fill="black"/>
<path d="M78.9959 335.855C77.6685 337.544 76.0999 338.932 74.2899 340.018C72.6005 340.983 70.6699 341.345 68.4979 341.104C65.9639 340.983 63.8522 340.259 62.1629 338.932C60.4735 337.484 59.0859 335.734 57.9999 333.683C56.9139 331.632 56.0089 329.46 55.2849 327.167C54.6815 324.754 54.1989 322.582 53.8369 320.651C52.8715 315.583 52.3285 310.455 52.2079 305.266C52.2079 300.077 52.3889 294.828 52.7509 289.519C53.3542 282.158 54.5609 274.194 56.3709 265.627C58.1809 256.939 60.9562 248.794 64.6969 241.192C68.5582 233.469 73.4452 226.833 79.3579 221.282C85.2705 215.731 92.5709 212.353 101.259 211.146C103.431 210.905 105.844 210.844 108.499 210.965C111.274 210.965 113.869 211.086 116.282 211.327C119.781 211.689 123.16 212.353 126.418 213.318C129.797 214.283 132.994 215.611 136.011 217.3C140.958 219.955 145.001 223.454 148.138 227.798C151.275 232.021 153.568 236.667 155.016 241.735C156.464 246.682 157.128 251.871 157.007 257.301C157.007 262.731 156.162 267.98 154.473 273.048C153.266 276.668 151.577 280.107 149.405 283.365C147.233 286.623 144.699 289.459 141.803 291.872C138.907 294.165 135.649 296.035 132.029 297.483C128.53 298.81 124.789 299.474 120.807 299.474C117.308 299.474 114.05 298.69 111.033 297.121C108.137 295.552 105.603 293.501 103.431 290.967C101.259 288.433 99.5092 285.597 98.1819 282.46C96.9752 279.202 96.1909 275.944 95.8289 272.686C95.5875 271.359 94.8635 270.695 93.6569 270.695C92.4502 270.695 91.7262 271.359 91.4849 272.686C91.4849 277.151 91.3642 282.279 91.1229 288.071C90.8815 293.742 90.3385 299.534 89.4939 305.447C88.6492 311.239 87.3822 316.85 85.6929 322.28C84.1242 327.589 81.8919 332.114 78.9959 335.855ZM121.712 236.667C117.247 245.114 114.351 254.164 113.024 263.817C112.903 264.42 113.084 264.963 113.567 265.446C114.05 265.808 114.593 265.989 115.196 265.989C115.799 265.989 116.222 265.808 116.463 265.446C116.825 264.963 117.066 264.42 117.187 263.817C117.79 259.594 118.756 255.31 120.083 250.966C121.531 246.622 123.281 242.519 125.332 238.658C125.815 237.934 125.754 237.27 125.151 236.667C124.668 235.943 124.065 235.581 123.341 235.581C122.617 235.581 122.074 235.943 121.712 236.667ZM281.931 293.501C282.172 295.552 282.051 297.604 281.569 299.655C281.086 301.706 280.302 303.697 279.216 305.628C278.25 307.559 277.104 309.369 275.777 311.058C274.449 312.747 273.062 314.316 271.614 315.764C267.632 319.625 263.046 323.125 257.858 326.262C252.79 329.279 247.36 331.873 241.568 334.045C235.896 336.217 230.104 337.906 224.192 339.113C218.279 340.32 212.608 340.923 207.178 340.923C203.316 340.923 199.153 340.561 194.689 339.837C190.345 339.113 186.182 337.906 182.2 336.217C178.218 334.528 174.658 332.295 171.521 329.52C168.504 326.624 166.392 323.004 165.186 318.66C163.979 314.678 163.738 310.756 164.462 306.895C165.186 302.913 166.875 299.353 169.53 296.216C174.598 290.303 180.571 285.778 187.449 282.641C194.447 279.383 201.567 276.547 208.807 274.134C209.289 273.893 209.772 273.772 210.255 273.772C210.737 273.651 211.22 273.531 211.703 273.41H212.065C213.271 273.048 213.754 272.324 213.513 271.238C213.392 270.031 212.789 269.368 211.703 269.247C208.445 269.006 204.885 268.704 201.024 268.342C197.162 267.859 193.361 267.075 189.621 265.989C186.001 264.903 182.622 263.395 179.485 261.464C176.347 259.413 173.934 256.758 172.245 253.5C170.555 250.001 169.952 246.501 170.435 243.002C171.038 239.382 172.486 236.184 174.779 233.409C177.795 229.548 181.596 226.29 186.182 223.635C190.888 220.86 195.895 218.627 201.205 216.938C206.514 215.128 211.884 213.801 217.314 212.956C222.864 211.991 227.932 211.387 232.518 211.146C237.948 210.905 243.317 210.905 248.627 211.146C254.057 211.387 259.487 212.051 264.917 213.137C266.727 213.499 268.597 214.042 270.528 214.766C272.458 215.49 274.208 216.516 275.777 217.843C277.466 219.291 278.492 221.041 278.854 223.092C279.216 225.023 278.974 227.014 278.13 229.065C277.164 231.358 275.716 233.228 273.786 234.676C271.855 236.124 269.804 237.331 267.632 238.296C265.218 239.503 262.684 240.528 260.03 241.373C257.375 242.097 254.66 242.881 251.885 243.726C245.007 245.777 238.129 247.648 231.251 249.337C224.493 251.026 217.615 252.535 210.617 253.862C209.41 254.103 208.867 254.767 208.988 255.853C209.229 256.939 209.832 257.603 210.798 257.844C211.16 258.206 211.763 258.327 212.608 258.206C216.228 256.999 220.089 255.974 224.192 255.129C228.294 254.164 232.397 253.681 236.5 253.681C239.516 253.681 242.412 254.043 245.188 254.767C248.084 255.37 250.799 256.456 253.333 258.025C254.66 258.749 255.867 259.714 256.953 260.921C258.039 262.007 258.763 263.334 259.125 264.903C259.366 266.23 259.185 267.618 258.582 269.066C258.099 270.393 257.375 271.54 256.41 272.505C254.117 275.16 251.342 277.151 248.084 278.478C244.946 279.805 241.93 281.072 239.034 282.279C235.293 283.606 231.371 285.054 227.269 286.623C223.287 288.192 219.727 290.183 216.59 292.596C215.745 293.32 215.564 294.225 216.047 295.311C216.65 296.397 217.555 296.578 218.762 295.854C221.899 294.044 225.157 292.415 228.536 290.967C231.914 289.398 235.353 287.95 238.853 286.623C241.628 285.658 244.403 284.873 247.179 284.27C249.954 283.667 252.85 283.244 255.867 283.003C257.797 282.882 259.668 282.822 261.478 282.822C263.288 282.822 265.158 282.943 267.089 283.184C268.778 283.305 270.407 283.546 271.976 283.908C273.665 284.27 275.173 284.873 276.501 285.718C277.949 286.563 279.155 287.649 280.121 288.976C281.086 290.183 281.689 291.691 281.931 293.501ZM385.418 301.646C385.659 305.266 385.78 308.886 385.78 312.506C385.78 316.005 385.538 319.505 385.056 323.004C384.694 325.538 384.211 328.012 383.608 330.425C383.004 332.718 382.099 334.769 380.893 336.579C379.807 338.389 378.298 339.897 376.368 341.104C374.437 342.19 372.024 342.733 369.128 342.733C365.628 342.733 362.612 342.069 360.078 340.742C357.544 339.294 355.372 337.484 353.562 335.312C351.872 333.14 350.424 330.666 349.218 327.891C348.132 324.995 347.166 322.099 346.322 319.203C345.356 316.186 344.512 313.17 343.788 310.153C343.184 307.016 342.581 303.878 341.978 300.741C341.736 299.534 341.495 298.328 341.254 297.121C341.133 295.794 340.952 294.466 340.711 293.139C342.641 293.139 344.451 293.32 346.141 293.682C347.951 293.923 349.7 294.527 351.39 295.492C352.596 296.095 353.501 295.854 354.105 294.768C354.829 293.561 354.648 292.656 353.562 292.053C351.148 290.726 348.614 289.881 345.96 289.519C343.305 289.157 340.59 289.097 337.815 289.338C335.281 289.579 332.747 290.122 330.213 290.967C327.799 291.691 325.567 292.777 323.516 294.225C323.033 294.587 322.731 295.07 322.611 295.673C322.611 296.276 322.731 296.819 322.973 297.302C323.214 297.664 323.576 297.966 324.059 298.207C324.662 298.328 325.205 298.207 325.688 297.845C327.256 296.638 328.885 295.733 330.575 295.13C332.385 294.406 334.315 293.863 336.367 293.501C336.487 296.276 336.487 299.052 336.367 301.827C336.246 304.602 336.005 307.378 335.643 310.153C335.281 313.049 334.677 316.005 333.833 319.022C333.109 321.918 332.023 324.633 330.575 327.167C329.127 329.58 327.256 331.571 324.964 333.14C322.671 334.709 319.775 335.493 316.276 335.493C308.915 335.493 303.304 332.235 299.443 325.719C297.029 321.496 295.461 316.85 294.737 311.782C294.133 306.593 293.952 301.525 294.194 296.578C294.435 290.424 295.159 283.787 296.366 276.668C297.693 269.428 299.563 262.309 301.977 255.31C304.39 248.311 307.407 241.735 311.027 235.581C314.767 229.427 319.172 224.299 324.24 220.196C326.653 218.024 329.609 216.154 333.109 214.585C336.608 212.896 340.107 212.051 343.607 212.051C346.985 212.051 350.123 213.016 353.019 214.947C355.915 216.878 358.569 219.412 360.983 222.549C363.517 225.686 365.749 229.246 367.68 233.228C369.731 237.089 371.541 241.011 373.11 244.993C374.678 248.975 376.006 252.836 377.092 256.577C378.298 260.197 379.203 263.334 379.807 265.989C381.255 271.902 382.461 277.814 383.427 283.727C384.392 289.64 385.056 295.613 385.418 301.646ZM350.666 258.93C347.166 258.689 343.607 258.689 339.987 258.93C336.367 259.171 332.747 259.533 329.127 260.016C327.799 260.257 327.136 260.921 327.136 262.007C327.136 262.61 327.317 263.153 327.679 263.636C328.041 263.998 328.523 264.119 329.127 263.998C332.747 263.636 336.367 263.395 339.987 263.274C343.607 263.033 347.166 263.033 350.666 263.274C351.39 263.274 351.872 263.093 352.114 262.731C352.476 262.248 352.657 261.766 352.657 261.283C352.657 260.68 352.476 260.137 352.114 259.654C351.872 259.171 351.39 258.93 350.666 258.93ZM521.754 251.147C522.72 257.06 523.323 262.972 523.564 268.885C523.806 274.798 523.685 280.771 523.202 286.804C523.082 289.579 522.72 292.837 522.116 296.578C521.513 300.198 520.668 303.999 519.582 307.981C518.496 311.842 517.169 315.643 515.6 319.384C514.032 323.125 512.101 326.503 509.808 329.52C507.636 332.537 505.102 334.95 502.206 336.76C499.31 338.57 496.052 339.475 492.432 339.475C488.45 339.475 484.891 338.51 481.753 336.579C478.737 334.528 476.082 331.873 473.789 328.615C471.617 325.357 469.747 321.677 468.178 317.574C466.73 313.351 465.524 309.127 464.558 304.904C463.593 300.56 462.869 296.337 462.386 292.234C462.024 288.131 461.783 284.572 461.662 281.555V274.315C461.662 273.591 461.421 273.108 460.938 272.867C460.576 272.505 460.154 272.324 459.671 272.324C459.068 272.324 458.525 272.505 458.042 272.867C457.68 273.108 457.499 273.591 457.499 274.315C457.379 279.021 456.836 284.27 455.87 290.062C455.026 295.854 453.698 301.646 451.888 307.438C450.199 313.23 448.027 318.66 445.372 323.728C442.838 328.796 439.761 332.959 436.141 336.217C433.125 339.234 429.505 340.863 425.281 341.104C420.817 341.104 417.076 340.018 414.059 337.846C411.043 335.674 408.509 332.959 406.457 329.701C404.527 326.443 402.958 322.823 401.751 318.841C400.665 314.859 399.821 311.058 399.217 307.438C398.131 300.319 397.649 293.199 397.769 286.08C398.011 278.84 398.614 271.721 399.579 264.722C399.941 261.585 400.484 258.085 401.208 254.224C401.932 250.242 402.898 246.139 404.104 241.916C405.311 237.693 406.759 233.59 408.448 229.608C410.258 225.626 412.37 222.066 414.783 218.929C417.197 215.792 419.972 213.258 423.109 211.327C426.247 209.396 429.806 208.431 433.788 208.431C438.374 208.431 442.597 209.517 446.458 211.689C450.32 213.861 453.819 216.757 456.956 220.377C460.094 223.876 462.929 227.919 465.463 232.504C467.997 237.089 470.23 241.795 472.16 246.622C474.212 251.449 475.901 256.215 477.228 260.921C478.676 265.506 479.883 269.669 480.848 273.41L481.391 276.125C481.633 276.849 481.753 277.332 481.753 277.573C481.995 278.659 482.538 279.202 483.382 279.202C483.986 279.202 484.529 278.961 485.011 278.478C485.615 277.995 485.856 277.392 485.735 276.668C484.287 268.463 481.995 260.076 478.857 251.509C475.72 242.942 471.979 235.098 467.635 227.979C470.169 225.324 472.884 222.851 475.78 220.558C478.676 218.145 481.874 216.274 485.373 214.947C487.425 214.102 489.597 213.559 491.889 213.318C494.182 213.077 496.354 213.197 498.405 213.68C502.025 214.645 505.163 216.576 507.817 219.472C510.472 222.247 512.704 225.445 514.514 229.065C516.445 232.685 517.953 236.486 519.039 240.468C520.246 244.329 521.151 247.889 521.754 251.147ZM641.887 267.075C642.37 271.057 642.732 275.099 642.973 279.202C643.335 283.305 643.396 287.287 643.154 291.148C642.913 296.457 642.189 301.646 640.982 306.714C639.776 311.661 637.905 316.247 635.371 320.47C632.837 324.573 629.579 328.193 625.597 331.33C621.736 334.347 616.97 336.579 611.298 338.027C607.437 338.992 603.576 339.596 599.714 339.837C595.974 339.958 592.173 339.837 588.311 339.475C581.675 338.751 575.883 337.122 570.935 334.588C565.988 331.933 561.704 328.615 558.084 324.633C554.585 320.53 551.629 315.945 549.215 310.877C546.923 305.809 544.932 300.5 543.242 294.949C541.674 289.398 540.407 283.727 539.441 277.935C538.597 272.143 537.812 266.532 537.088 261.102C536.364 255.672 535.882 250.182 535.64 244.631C535.52 239.08 535.942 233.59 536.907 228.16C537.511 225.385 538.295 222.67 539.26 220.015C540.226 217.36 541.855 215.249 544.147 213.68C545.837 212.594 547.707 211.93 549.758 211.689C551.81 211.327 553.801 211.327 555.731 211.689C559.351 212.534 562.549 214.404 565.324 217.3C568.22 220.075 570.815 223.514 573.107 227.617C575.4 231.599 577.391 236.003 579.08 240.83C580.77 245.657 582.218 250.483 583.424 255.31C584.752 260.137 585.777 264.782 586.501 269.247C587.346 273.591 588.01 277.332 588.492 280.469L589.397 286.985C589.518 287.588 589.578 288.192 589.578 288.795C589.699 289.278 589.82 289.821 589.94 290.424C588.13 290.786 586.32 291.329 584.51 292.053C582.821 292.656 581.192 293.38 579.623 294.225C579.02 294.587 578.658 295.009 578.537 295.492C578.537 295.975 578.658 296.457 578.899 296.94C579.141 297.302 579.503 297.604 579.985 297.845C580.468 297.966 581.011 297.845 581.614 297.483C583.304 296.638 585.053 295.975 586.863 295.492C588.673 294.889 590.544 294.466 592.474 294.225C596.698 293.622 600.921 293.803 605.144 294.768C606.472 295.009 607.256 294.527 607.497 293.32C607.859 291.993 607.377 291.148 606.049 290.786C604.119 290.183 602.188 289.881 600.257 289.881C598.327 289.76 596.336 289.76 594.284 289.881C594.284 284.089 594.103 278.297 593.741 272.505C593.5 266.713 593.5 260.921 593.741 255.129C593.741 252.716 593.862 249.518 594.103 245.536C594.345 241.554 594.767 237.512 595.37 233.409C596.094 229.186 597.12 225.324 598.447 221.825C599.775 218.326 601.585 215.852 603.877 214.404C606.049 212.956 608.583 212.232 611.479 212.232C614.858 212.232 617.935 213.258 620.71 215.309C623.486 217.24 625.899 219.834 627.95 223.092C630.122 226.229 631.993 229.849 633.561 233.952C635.13 237.934 636.457 241.976 637.543 246.079C638.75 250.061 639.655 253.922 640.258 257.663C640.982 261.404 641.525 264.541 641.887 267.075ZM764.167 233.771C764.529 235.34 764.65 236.969 764.529 238.658C764.529 240.227 764.348 241.856 763.986 243.545C763.262 246.2 762.478 248.432 761.633 250.242C760.909 252.052 759.883 253.56 758.556 254.767C757.349 255.974 755.841 256.939 754.031 257.663C752.221 258.387 749.928 259.051 747.153 259.654C744.136 260.378 741.059 260.861 737.922 261.102C734.905 261.343 731.949 261.343 729.053 261.102C727.364 260.981 725.674 260.861 723.985 260.74C722.416 260.499 720.787 260.137 719.098 259.654C718.615 259.654 718.314 259.775 718.193 260.016C717.831 260.137 717.469 260.318 717.107 260.559C716.745 260.8 716.564 261.162 716.564 261.645C716.685 270.695 717.71 279.624 719.641 288.433C721.692 297.121 723.563 305.869 725.252 314.678C725.614 316.367 725.916 318.177 726.157 320.108C726.519 321.918 726.821 323.728 727.062 325.538V325.9L727.243 326.805V327.167L727.062 328.072V328.615C726.821 330.546 726.097 332.175 724.89 333.502C723.804 334.829 722.416 335.915 720.727 336.76C719.158 337.605 717.469 338.268 715.659 338.751C713.849 339.234 712.099 339.596 710.41 339.837C708.6 340.078 706.73 340.259 704.799 340.38C702.868 340.501 700.877 340.682 698.826 340.923C696.654 340.923 694.361 340.742 691.948 340.38C689.655 340.018 687.483 339.415 685.432 338.57C683.381 337.725 681.51 336.519 679.821 334.95C678.252 333.381 677.106 331.451 676.382 329.158C675.899 327.71 675.477 326.322 675.115 324.995C674.753 323.547 674.512 322.099 674.391 320.651C674.029 315.462 674.572 310.455 676.02 305.628C677.468 300.681 678.856 295.733 680.183 290.786C682.838 280.771 685.01 270.393 686.699 259.654C686.82 259.171 686.759 258.689 686.518 258.206C686.277 257.603 685.854 257.241 685.251 257.12C684.889 256.999 684.527 256.939 684.165 256.939C683.803 256.939 683.381 256.879 682.898 256.758C679.278 256.396 675.598 255.974 671.857 255.491C668.237 254.888 664.738 253.741 661.359 252.052C659.549 251.207 657.92 250.121 656.472 248.794C655.024 247.467 653.938 245.838 653.214 243.907C652.611 242.218 652.249 240.468 652.128 238.658C652.007 236.848 652.068 235.098 652.309 233.409C652.912 230.03 654.36 227.134 656.653 224.721C658.946 222.308 661.781 220.317 665.16 218.748C668.539 217.179 672.279 215.973 676.382 215.128C680.485 214.163 684.587 213.499 688.69 213.137C692.793 212.654 696.775 212.353 700.636 212.232C704.497 212.111 707.876 212.051 710.772 212.051C714.875 212.051 719.762 212.292 725.433 212.775C731.104 213.258 736.595 214.283 741.904 215.852C747.334 217.3 752.1 219.472 756.203 222.368C760.426 225.143 763.081 228.944 764.167 233.771Z" fill="white"/>
<path d="M74.9959 335.855C76.4439 333.924 77.6505 331.933 78.6159 329.882C79.7019 327.831 80.6069 325.719 81.3309 323.547C82.2962 320.772 83.0202 317.996 83.5029 315.221C84.1062 312.325 84.6492 309.429 85.1319 306.533C85.9765 300.862 86.5799 295.251 86.9419 289.7C87.3039 284.149 87.4849 278.478 87.4849 272.686C87.7262 271.359 88.4502 270.695 89.6569 270.695C90.8635 270.695 91.5875 271.359 91.8289 272.686C92.0702 274.617 92.3719 276.547 92.7339 278.478C93.2165 280.409 93.9405 282.219 94.9059 283.908C96.4745 287.045 98.4655 289.881 100.879 292.415C103.292 294.828 106.068 296.699 109.205 298.026C112.342 299.353 115.48 299.836 118.617 299.474C121.754 299.112 124.892 298.388 128.029 297.302C133.7 295.371 138.406 292.234 142.147 287.89C145.888 283.546 148.663 278.599 150.473 273.048C152.162 267.98 153.007 262.731 153.007 257.301C153.128 251.871 152.464 246.682 151.016 241.735C149.568 236.667 147.275 232.021 144.138 227.798C141.001 223.454 136.958 219.955 132.011 217.3C128.994 215.611 125.797 214.283 122.418 213.318C119.16 212.353 115.781 211.689 112.282 211.327C109.869 211.086 107.274 210.965 104.499 210.965C101.844 210.844 99.4309 210.905 97.2589 211.146C89.2949 212.232 82.3565 215.309 76.4439 220.377C72.2205 223.876 68.6005 227.979 65.5839 232.685C62.6879 237.27 60.2142 242.097 58.1629 247.165C55.3875 253.922 53.2759 260.861 51.8279 267.98C50.3799 275.099 49.3542 282.279 48.7509 289.519C48.3889 294.828 48.2079 300.077 48.2079 305.266C48.3285 310.455 48.8715 315.583 49.8369 320.651C50.1989 322.582 50.6815 324.754 51.2849 327.167C52.0089 329.46 52.9139 331.632 53.9999 333.683C55.0859 335.734 56.4735 337.484 58.1629 338.932C59.8522 340.259 61.9639 340.983 64.4979 341.104C66.6699 341.345 68.6005 340.983 70.2899 340.018C72.0999 338.932 73.6685 337.544 74.9959 335.855ZM117.712 236.667C118.074 236.064 118.496 235.762 118.979 235.762C119.582 235.641 120.065 235.702 120.427 235.943C120.91 236.184 121.272 236.546 121.513 237.029C121.754 237.512 121.694 238.055 121.332 238.658C119.281 242.519 117.531 246.622 116.083 250.966C114.756 255.31 113.79 259.594 113.187 263.817C113.066 264.42 112.825 264.963 112.463 265.446C112.222 265.808 111.799 265.989 111.196 265.989C110.593 265.989 110.05 265.808 109.567 265.446C109.084 264.963 108.903 264.42 109.024 263.817C110.351 254.164 113.247 245.114 117.712 236.667ZM144.138 221.282C148.482 225.747 151.74 230.935 153.912 236.848C156.084 242.761 157.291 248.794 157.532 254.948C157.653 260.016 157.049 265.205 155.722 270.514C154.515 275.703 152.524 280.469 149.749 284.813C148.06 287.588 146.129 290.122 143.957 292.415C141.785 294.587 139.311 296.518 136.536 298.207C133.519 300.017 130.141 301.405 126.4 302.37C122.78 303.335 119.22 303.697 115.721 303.456C112.222 303.215 108.903 302.31 105.766 300.741C102.629 299.172 99.8532 297.181 97.4399 294.768C96.1125 293.441 94.9662 292.053 94.0009 290.605C93.0355 289.157 92.1305 287.709 91.2859 286.261C91.2859 287.226 91.2255 288.252 91.1049 289.338C91.1049 290.303 91.0445 291.269 90.9239 292.234C90.5619 298.388 89.8982 304.482 88.9329 310.515C87.9675 316.548 86.3385 322.401 84.0459 328.072C83.2012 330.244 82.1755 332.356 80.9689 334.407C79.8829 336.458 78.5555 338.329 76.9869 340.018C75.4182 341.587 73.6082 342.914 71.5569 344C69.5055 344.965 67.2129 345.388 64.6789 345.267H64.4979C61.8432 345.026 59.5505 344.362 57.6199 343.276C55.4479 342.069 53.6379 340.38 52.1899 338.208C50.7419 336.036 49.5352 333.804 48.5699 331.511C47.4839 328.736 46.6392 325.9 46.0359 323.004C45.4325 319.987 45.0102 316.971 44.7689 313.954C44.1655 308.765 43.9845 303.577 44.2259 298.388C44.4672 293.199 44.8895 288.011 45.4929 282.822C46.4582 274.617 47.9062 266.532 49.8369 258.568C51.8882 250.483 54.9049 242.821 58.8869 235.581C61.4209 230.996 64.4375 226.772 67.9369 222.911C71.5569 218.929 75.7199 215.55 80.4259 212.775C83.8045 210.844 87.4245 209.336 91.2859 208.25C95.1472 207.164 99.0689 206.621 103.051 206.621C110.532 206.621 117.893 207.707 125.133 209.879C132.373 211.93 138.708 215.731 144.138 221.282ZM279.198 286.08C281.732 289.097 282.697 292.837 282.094 297.302C281.49 302.129 279.741 306.654 276.845 310.877C274.069 315.1 270.51 318.962 266.166 322.461C261.942 325.96 257.176 329.098 251.867 331.873C246.678 334.528 241.308 336.82 235.758 338.751C230.328 340.682 224.898 342.19 219.468 343.276C214.158 344.241 209.271 344.724 204.807 344.724C199.256 344.845 193.766 344.422 188.336 343.457C182.906 342.492 177.717 340.742 172.77 338.208C168.184 335.795 164.323 332.476 161.186 328.253C158.169 324.03 156.419 319.263 155.937 313.954C155.454 309.489 156.057 305.266 157.747 301.284C159.557 297.302 162.03 293.742 165.168 290.605C167.098 288.554 169.331 286.683 171.865 284.994C174.519 283.184 177.234 281.495 180.01 279.926C182.785 278.357 185.621 276.97 188.517 275.763C191.533 274.436 194.369 273.289 197.024 272.324C193.524 271.962 189.904 271.298 186.164 270.333C182.423 269.368 178.924 268.04 175.666 266.351C172.408 264.541 169.572 262.248 167.159 259.473C164.866 256.698 163.297 253.319 162.453 249.337C162.211 247.286 162.151 245.234 162.272 243.183C162.392 241.011 162.875 238.899 163.72 236.848C165.047 233.349 167.279 230.151 170.417 227.255C173.554 224.359 176.993 221.825 180.734 219.653C184.595 217.481 188.577 215.671 192.68 214.223C196.782 212.775 200.463 211.629 203.721 210.784C209.513 209.457 215.365 208.431 221.278 207.707C227.311 206.983 233.284 206.681 239.197 206.802C241.369 206.923 243.842 207.104 246.618 207.345C249.514 207.466 252.41 207.767 255.306 208.25C258.202 208.612 260.977 209.155 263.632 209.879C266.407 210.482 268.76 211.267 270.691 212.232C272.621 213.197 274.311 214.525 275.759 216.214C277.327 217.783 278.413 219.774 279.017 222.187C279.499 224.6 279.318 227.014 278.474 229.427C277.629 231.72 276.362 233.771 274.673 235.581C272.983 237.632 270.932 239.261 268.519 240.468C266.105 241.675 263.692 242.761 261.279 243.726C257.779 245.053 254.22 246.26 250.6 247.346C246.98 248.432 243.36 249.458 239.74 250.423C241.791 250.664 243.903 251.147 246.075 251.871C248.367 252.595 250.419 253.56 252.229 254.767C254.159 255.974 255.788 257.482 257.116 259.292C258.443 260.981 259.167 263.033 259.288 265.446C259.408 267.135 259.107 268.764 258.383 270.333C257.779 271.902 256.995 273.35 256.03 274.677C254.702 276.366 253.254 277.814 251.686 279.021C253.737 278.78 255.788 278.719 257.84 278.84C260.012 278.84 262.123 278.961 264.175 279.202C266.95 279.564 269.665 280.228 272.32 281.193C274.974 282.158 277.267 283.787 279.198 286.08ZM277.931 293.501C277.689 291.691 277.086 290.183 276.121 288.976C275.155 287.649 273.949 286.563 272.501 285.718C271.173 284.873 269.665 284.27 267.976 283.908C266.407 283.546 264.778 283.305 263.089 283.184C261.158 282.943 259.288 282.822 257.478 282.822C255.668 282.822 253.797 282.882 251.867 283.003C248.85 283.244 245.954 283.667 243.179 284.27C240.403 284.873 237.628 285.658 234.853 286.623C231.353 287.95 227.914 289.398 224.536 290.967C221.157 292.415 217.899 294.044 214.762 295.854C213.555 296.578 212.65 296.397 212.047 295.311C211.564 294.225 211.745 293.32 212.59 292.596C215.727 290.183 219.287 288.192 223.269 286.623C227.371 285.054 231.293 283.606 235.034 282.279C237.93 281.072 240.946 279.805 244.084 278.478C247.342 277.151 250.117 275.16 252.41 272.505C253.375 271.54 254.099 270.393 254.582 269.066C255.185 267.618 255.366 266.23 255.125 264.903C254.763 263.334 254.039 262.007 252.953 260.921C251.867 259.714 250.66 258.749 249.333 258.025C246.799 256.456 244.084 255.37 241.188 254.767C238.412 254.043 235.516 253.681 232.5 253.681C228.397 253.681 224.294 254.164 220.192 255.129C216.089 255.974 212.228 256.999 208.608 258.206C207.763 258.327 207.16 258.206 206.798 257.844C205.832 257.603 205.229 256.939 204.988 255.853C204.867 254.767 205.41 254.103 206.617 253.862C213.615 252.535 220.493 251.026 227.251 249.337C234.129 247.648 241.007 245.777 247.885 243.726C250.66 242.881 253.375 242.097 256.03 241.373C258.684 240.528 261.218 239.503 263.632 238.296C265.804 237.331 267.855 236.124 269.786 234.676C271.716 233.228 273.164 231.358 274.13 229.065C274.974 227.014 275.216 225.023 274.854 223.092C274.492 221.041 273.466 219.291 271.777 217.843C270.208 216.516 268.458 215.49 266.528 214.766C264.597 214.042 262.727 213.499 260.917 213.137C255.487 212.051 250.057 211.387 244.627 211.146C239.317 210.905 233.948 210.905 228.518 211.146C223.932 211.387 218.864 211.991 213.314 212.956C207.884 213.801 202.514 215.128 197.205 216.938C191.895 218.627 186.888 220.86 182.182 223.635C177.596 226.29 173.795 229.548 170.779 233.409C168.486 236.184 167.038 239.382 166.435 243.002C165.952 246.501 166.555 250.001 168.245 253.5C169.934 256.758 172.347 259.413 175.485 261.464C178.622 263.395 182.001 264.903 185.621 265.989C189.361 267.075 193.162 267.859 197.024 268.342C200.885 268.704 204.445 269.006 207.703 269.247C208.789 269.368 209.392 270.031 209.513 271.238C209.754 272.324 209.271 273.048 208.065 273.41H207.703C207.22 273.531 206.737 273.651 206.255 273.772C205.772 273.772 205.289 273.893 204.807 274.134C197.567 276.547 190.447 279.383 183.449 282.641C176.571 285.778 170.598 290.303 165.53 296.216C162.875 299.353 161.186 302.913 160.462 306.895C159.738 310.756 159.979 314.678 161.186 318.66C162.392 323.004 164.504 326.624 167.521 329.52C170.658 332.295 174.218 334.528 178.2 336.217C182.182 337.906 186.345 339.113 190.689 339.837C195.153 340.561 199.316 340.923 203.178 340.923C208.608 340.923 214.279 340.32 220.192 339.113C226.104 337.906 231.896 336.217 237.568 334.045C243.36 331.873 248.79 329.279 253.858 326.262C259.046 323.125 263.632 319.625 267.614 315.764C269.062 314.316 270.449 312.747 271.777 311.058C273.104 309.369 274.25 307.559 275.216 305.628C276.302 303.697 277.086 301.706 277.569 299.655C278.051 297.604 278.172 295.552 277.931 293.501ZM385.762 306.714C385.882 310.334 385.822 314.557 385.581 319.384C385.339 324.09 384.495 328.555 383.047 332.778C381.719 336.881 379.608 340.32 376.712 343.095C373.816 345.87 369.773 347.137 364.585 346.896C358.431 346.413 353.664 344.845 350.286 342.19C347.028 339.415 344.192 335.312 341.779 329.882C340.451 326.745 339.245 323.547 338.159 320.289C337.193 317.031 336.349 313.652 335.625 310.153C335.383 313.049 334.84 316.066 333.996 319.203C333.272 322.34 332.125 325.297 330.557 328.072C329.109 330.847 327.238 333.261 324.946 335.312C322.653 337.243 319.878 338.51 316.62 339.113C313.844 339.596 311.069 339.656 308.294 339.294C305.518 338.811 302.924 337.906 300.511 336.579C296.167 334.286 292.969 330.727 290.918 325.9C288.504 320.953 287.056 315.704 286.574 310.153C286.091 304.602 285.97 299.112 286.212 293.682C286.936 283.063 288.504 272.927 290.918 263.274C293.452 253.5 297.434 244.028 302.864 234.857C304.674 231.599 306.846 228.401 309.38 225.264C311.914 222.127 314.689 219.291 317.706 216.757C320.843 214.223 324.222 212.172 327.842 210.603C331.462 209.034 335.263 208.25 339.245 208.25C343.106 208.25 346.605 209.155 349.743 210.965C353.001 212.775 355.897 215.128 358.431 218.024C360.965 220.799 363.197 223.876 365.128 227.255C367.058 230.634 368.748 233.892 370.196 237.029C375.264 248.01 378.944 259.352 381.237 271.057C383.65 282.762 385.158 294.647 385.762 306.714ZM381.418 301.646C381.056 295.975 380.392 290.122 379.427 284.089C378.461 277.935 377.194 271.841 375.626 265.808C374.178 259.654 372.368 253.681 370.196 247.889C368.144 242.097 365.731 236.727 362.956 231.78C361.749 229.608 360.361 227.376 358.793 225.083C357.345 222.67 355.655 220.498 353.725 218.567C351.794 216.636 349.682 215.068 347.39 213.861C345.097 212.654 342.503 212.051 339.607 212.051C333.332 212.051 327.6 214.102 322.412 218.205C317.344 222.187 312.879 227.134 309.018 233.047C305.156 238.96 301.898 245.295 299.244 252.052C296.71 258.809 294.839 264.843 293.633 270.152C292.547 274.496 291.762 278.9 291.28 283.365C290.797 287.709 290.435 292.113 290.194 296.578C289.952 301.525 290.133 306.593 290.737 311.782C291.461 316.85 293.029 321.496 295.443 325.719C299.304 332.235 304.915 335.493 312.276 335.493C315.775 335.493 318.671 334.709 320.964 333.14C323.256 331.571 325.127 329.58 326.575 327.167C328.023 324.633 329.109 321.918 329.833 319.022C330.677 316.005 331.281 313.049 331.643 310.153C332.005 307.378 332.246 304.602 332.367 301.827C332.487 299.052 332.487 296.276 332.367 293.501C330.315 293.863 328.385 294.406 326.575 295.13C324.885 295.733 323.256 296.638 321.688 297.845C321.205 298.207 320.662 298.328 320.059 298.207C319.576 297.966 319.214 297.664 318.973 297.302C318.731 296.819 318.611 296.276 318.611 295.673C318.731 295.07 319.033 294.587 319.516 294.225C321.567 292.777 323.799 291.691 326.213 290.967C328.747 290.122 331.281 289.579 333.815 289.338C336.59 289.097 339.305 289.157 341.96 289.519C344.614 289.881 347.148 290.726 349.562 292.053C350.648 292.656 350.829 293.561 350.105 294.768C349.501 295.854 348.596 296.095 347.39 295.492C345.7 294.527 343.951 293.923 342.141 293.682C340.451 293.32 338.641 293.139 336.711 293.139C336.952 294.466 337.133 295.794 337.254 297.121C337.495 298.328 337.736 299.534 337.978 300.741C338.46 303.034 339.003 305.688 339.607 308.705C340.21 311.601 340.934 314.557 341.779 317.574C342.623 320.47 343.528 323.306 344.494 326.081C345.58 328.856 346.786 331.27 348.114 333.321C350.165 336.338 352.578 338.691 355.354 340.38C358.25 341.949 361.508 342.733 365.128 342.733C368.024 342.733 370.437 342.19 372.368 341.104C374.298 339.897 375.807 338.389 376.893 336.579C378.099 334.769 379.004 332.718 379.608 330.425C380.211 328.012 380.694 325.538 381.056 323.004C381.538 319.505 381.78 316.005 381.78 312.506C381.78 308.886 381.659 305.266 381.418 301.646ZM346.666 258.93C347.39 258.93 347.872 259.171 348.114 259.654C348.476 260.137 348.657 260.68 348.657 261.283C348.657 261.766 348.476 262.248 348.114 262.731C347.872 263.093 347.39 263.274 346.666 263.274C343.166 263.033 339.607 263.033 335.987 263.274C332.367 263.395 328.747 263.636 325.127 263.998C324.523 264.119 324.041 263.998 323.679 263.636C323.317 263.153 323.136 262.61 323.136 262.007C323.136 260.921 323.799 260.257 325.127 260.016C328.747 259.533 332.367 259.171 335.987 258.93C339.607 258.689 343.166 258.689 346.666 258.93ZM517.754 251.147C517.03 247.044 516.065 243.062 514.858 239.201C513.652 235.219 512.023 231.478 509.971 227.979C508.644 225.566 507.075 223.333 505.265 221.282C503.576 219.11 501.645 217.36 499.473 216.033C497.905 214.947 496.215 214.163 494.405 213.68C492.354 213.197 490.182 213.077 487.889 213.318C485.597 213.559 483.425 214.102 481.373 214.947C477.874 216.274 474.676 218.145 471.78 220.558C468.884 222.851 466.169 225.324 463.635 227.979C465.566 231.116 467.316 234.374 468.884 237.753C470.453 241.011 471.961 244.39 473.409 247.889C475.219 252.474 476.788 257.18 478.115 262.007C479.563 266.713 480.77 271.6 481.735 276.668C481.856 277.271 481.735 277.814 481.373 278.297C481.011 278.659 480.529 278.9 479.925 279.021C479.443 279.142 478.96 279.142 478.477 279.021C478.115 278.78 477.874 278.297 477.753 277.573C477.512 276.608 477.271 275.703 477.029 274.858C476.909 274.013 476.728 273.108 476.486 272.143C475.28 267.075 473.892 262.188 472.323 257.482C470.875 252.776 469.126 248.13 467.074 243.545C464.782 238.236 462.187 233.349 459.291 228.884C457.843 226.712 456.275 224.6 454.585 222.549C453.017 220.498 451.327 218.627 449.517 216.938C446.139 213.801 442.217 211.448 437.752 209.879C433.408 208.19 428.883 207.948 424.177 209.155C421.523 209.879 419.109 211.025 416.937 212.594C414.886 214.163 413.016 215.973 411.326 218.024C409.758 220.075 408.31 222.308 406.982 224.721C405.776 227.134 404.69 229.487 403.724 231.78C401.673 236.969 399.984 242.338 398.656 247.889C397.329 253.44 396.303 259.051 395.579 264.722C394.614 271.721 394.011 278.84 393.769 286.08C393.649 293.199 394.131 300.319 395.217 307.438C395.579 309.972 396.062 312.627 396.665 315.402C397.389 318.177 398.294 320.892 399.38 323.547C400.466 326.202 401.733 328.675 403.181 330.968C404.75 333.261 406.62 335.252 408.792 336.941C412.533 339.716 416.696 341.104 421.281 341.104C425.505 340.863 429.125 339.234 432.141 336.217C436.123 332.597 439.321 328.253 441.734 323.185C444.148 317.996 446.139 312.868 447.707 307.8C451.207 296.94 453.137 285.778 453.499 274.315C453.499 273.591 453.68 273.108 454.042 272.867C454.525 272.505 455.008 272.324 455.49 272.324C456.094 272.324 456.576 272.505 456.938 272.867C457.421 273.108 457.662 273.591 457.662 274.315V281.555C457.904 286.623 458.386 291.631 459.11 296.578C459.834 301.525 460.86 306.412 462.187 311.239C463.394 315.342 464.902 319.384 466.712 323.366C468.643 327.227 471.177 330.666 474.314 333.683C476.969 336.096 480.106 337.846 483.726 338.932C487.346 339.897 490.966 339.716 494.586 338.389C498.568 336.941 501.887 334.528 504.541 331.149C507.196 327.65 509.368 324.15 511.057 320.651C513.591 315.342 515.462 309.851 516.668 304.18C517.996 298.388 518.84 292.596 519.202 286.804C519.685 280.771 519.806 274.798 519.564 268.885C519.323 262.972 518.72 257.06 517.754 251.147ZM522.822 258.568C523.546 265.084 523.848 271.66 523.727 278.297C523.607 284.813 523.003 291.329 521.917 297.845C520.952 303.516 519.564 309.127 517.754 314.678C516.065 320.229 513.652 325.357 510.514 330.063C508.101 333.683 505.145 336.82 501.645 339.475C498.146 342.009 494.164 343.397 489.699 343.638C485.355 343.879 481.313 342.974 477.572 340.923C473.832 338.872 470.634 336.217 467.979 332.959C464.963 329.098 462.549 324.874 460.739 320.289C458.929 315.583 457.542 310.817 456.576 305.99C456.214 304.301 455.913 302.672 455.671 301.103C455.43 299.534 455.189 297.905 454.947 296.216C454.103 300.077 453.137 303.878 452.051 307.619C450.965 311.36 449.638 315.04 448.069 318.66C447.104 320.953 445.958 323.366 444.63 325.9C443.424 328.434 442.036 330.847 440.467 333.14C438.899 335.312 437.149 337.363 435.218 339.294C433.288 341.104 431.055 342.552 428.521 343.638C423.815 345.689 418.989 345.87 414.041 344.181C409.094 342.492 405.052 339.716 401.914 335.855C397.932 330.787 395.097 325.176 393.407 319.022C391.839 312.747 390.813 306.533 390.33 300.379C389.727 293.018 389.606 285.718 389.968 278.478C390.33 271.238 391.175 263.998 392.502 256.758C393.588 250.845 394.976 244.993 396.665 239.201C398.475 233.288 400.828 227.677 403.724 222.368C405.052 219.834 406.62 217.421 408.43 215.128C410.361 212.835 412.533 210.844 414.946 209.155C416.998 207.466 419.29 206.259 421.824 205.535C424.358 204.811 426.953 204.389 429.607 204.268C435.037 204.268 439.985 205.595 444.449 208.25C448.914 210.905 452.836 214.163 456.214 218.024C457.18 218.989 458.024 220.075 458.748 221.282C459.593 222.368 460.377 223.454 461.101 224.54C461.463 224.299 461.705 224.057 461.825 223.816C462.067 223.575 462.308 223.333 462.549 223.092C466.049 219.593 469.91 216.516 474.133 213.861C478.477 211.086 483.183 209.517 488.251 209.155C494.285 208.672 499.715 210.482 504.541 214.585C506.955 216.636 509.066 219.05 510.876 221.825C512.686 224.6 514.255 227.436 515.582 230.332C517.634 234.917 519.202 239.563 520.288 244.269C521.374 248.975 522.219 253.741 522.822 258.568ZM637.887 267.075C637.163 261.524 636.138 256.094 634.81 250.785C633.604 245.355 632.035 240.046 630.104 234.857C628.415 230.272 626.062 225.988 623.045 222.006C621.718 220.317 620.33 218.748 618.882 217.3C617.555 215.852 615.926 214.645 613.995 213.68C611.823 212.715 609.41 212.292 606.755 212.413C604.221 212.413 601.929 213.077 599.877 214.404C598.912 215.007 598.067 215.792 597.343 216.757C596.74 217.602 596.197 218.446 595.714 219.291C594.266 221.825 593.241 224.419 592.637 227.074C592.034 229.729 591.551 232.444 591.189 235.219C590.586 238.598 590.224 241.916 590.103 245.174C589.983 248.432 589.862 251.75 589.741 255.129C589.5 260.921 589.5 266.713 589.741 272.505C590.103 278.297 590.284 284.089 590.284 289.881C592.336 289.76 594.327 289.76 596.257 289.881C598.188 289.881 600.119 290.183 602.049 290.786C603.377 291.148 603.859 291.993 603.497 293.32C603.256 294.527 602.472 295.009 601.144 294.768C596.921 293.803 592.698 293.622 588.474 294.225C586.544 294.466 584.673 294.889 582.863 295.492C581.053 295.975 579.304 296.638 577.614 297.483C577.011 297.845 576.468 297.966 575.985 297.845C575.503 297.604 575.141 297.302 574.899 296.94C574.658 296.457 574.537 295.975 574.537 295.492C574.658 295.009 575.02 294.587 575.623 294.225C577.192 293.38 578.821 292.656 580.51 292.053C582.32 291.329 584.13 290.786 585.94 290.424C585.578 288.131 585.216 285.899 584.854 283.727C584.613 281.555 584.311 279.323 583.949 277.03C582.984 271.841 581.958 266.713 580.872 261.645C579.907 256.577 578.64 251.509 577.071 246.441C576.227 244.028 575.322 241.614 574.356 239.201C573.391 236.788 572.365 234.374 571.279 231.961C570.193 229.668 568.987 227.436 567.659 225.264C566.453 223.092 565.005 221.041 563.315 219.11C561.867 217.421 560.178 215.912 558.247 214.585C556.317 213.258 554.145 212.292 551.731 211.689C549.801 211.327 547.81 211.327 545.758 211.689C543.707 211.93 541.837 212.594 540.147 213.68C537.855 215.249 536.226 217.36 535.26 220.015C534.295 222.67 533.511 225.385 532.907 228.16C531.942 233.59 531.52 239.08 531.64 244.631C531.882 250.182 532.364 255.672 533.088 261.102C534.054 268.342 535.2 275.522 536.527 282.641C537.855 289.64 539.725 296.578 542.138 303.456C544.31 309.489 547.146 315.161 550.645 320.47C554.265 325.659 558.911 329.942 564.582 333.321C567.478 335.01 570.616 336.398 573.994 337.484C577.373 338.449 580.812 339.113 584.311 339.475C588.173 339.837 591.974 339.958 595.714 339.837C599.576 339.596 603.437 338.992 607.298 338.027C612.728 336.7 617.615 334.347 621.959 330.968C626.303 327.589 629.863 323.366 632.638 318.298C634.81 314.075 636.379 309.67 637.344 305.085C638.31 300.5 638.913 295.854 639.154 291.148C639.396 287.287 639.335 283.305 638.973 279.202C638.732 275.099 638.37 271.057 637.887 267.075ZM642.955 276.125C643.317 279.986 643.438 283.787 643.317 287.528C643.317 291.148 643.076 294.889 642.593 298.75C641.869 304.18 640.602 309.369 638.792 314.316C636.982 319.263 634.328 323.849 630.828 328.072C626.484 333.381 621.235 337.243 615.081 339.656C608.927 342.069 602.472 343.457 595.714 343.819C588.112 344.302 580.631 343.578 573.27 341.647C566.03 339.596 559.575 335.855 553.903 330.425C548.835 325.478 544.793 319.806 541.776 313.411C538.88 307.016 536.588 300.439 534.898 293.682C531.52 280.167 529.227 266.894 528.02 253.862C527.779 250.725 527.598 247.527 527.477 244.269C527.477 241.011 527.598 237.753 527.839 234.495C528.081 231.358 528.563 228.16 529.287 224.902C530.011 221.523 531.278 218.446 533.088 215.671C535.26 212.172 538.036 209.819 541.414 208.612C544.914 207.285 548.594 206.983 552.455 207.707C555.11 208.19 557.463 209.155 559.514 210.603C561.686 211.93 563.617 213.499 565.306 215.309C567.116 217.119 568.685 219.11 570.012 221.282C571.34 223.454 572.546 225.626 573.632 227.798C576.528 233.59 578.881 239.503 580.691 245.536C582.622 251.569 584.251 257.663 585.578 263.817C585.578 258.025 585.699 252.233 585.94 246.441C586.182 240.528 586.966 234.736 588.293 229.065C588.776 226.29 589.5 223.635 590.465 221.101C591.431 218.446 592.818 216.033 594.628 213.861C597.162 210.844 600.42 209.095 604.402 208.612C608.505 208.129 612.306 208.612 615.805 210.06H615.986C616.107 210.06 616.167 210.12 616.167 210.241C618.098 211.206 619.787 212.473 621.235 214.042C622.804 215.49 624.252 216.998 625.579 218.567C628.958 222.79 631.613 227.436 633.543 232.504C635.474 237.572 637.103 242.7 638.43 247.889C639.758 252.474 640.723 257.18 641.326 262.007C642.05 266.713 642.593 271.419 642.955 276.125ZM760.167 233.771C759.443 230.513 757.995 227.798 755.823 225.626C753.772 223.333 751.358 221.463 748.583 220.015C745.808 218.446 742.851 217.179 739.714 216.214C736.577 215.249 733.62 214.525 730.845 214.042C723.605 212.715 716.244 212.051 708.763 212.051C701.402 212.051 694.102 212.353 686.862 212.956C682.277 213.439 677.631 214.102 672.925 214.947C668.34 215.792 663.996 217.24 659.893 219.291C656.876 220.739 654.342 222.609 652.291 224.902C650.24 227.195 648.912 230.03 648.309 233.409C648.068 235.098 648.007 236.848 648.128 238.658C648.249 240.468 648.611 242.218 649.214 243.907C649.938 245.838 651.024 247.467 652.472 248.794C653.92 250.121 655.549 251.207 657.359 252.052C660.738 253.741 664.237 254.888 667.857 255.491C671.598 255.974 675.278 256.396 678.898 256.758C679.381 256.879 679.803 256.939 680.165 256.939C680.527 256.939 680.889 256.999 681.251 257.12C681.854 257.241 682.277 257.603 682.518 258.206C682.759 258.689 682.82 259.171 682.699 259.654C681.01 270.393 678.838 280.771 676.183 290.786C674.856 295.733 673.468 300.681 672.02 305.628C670.572 310.455 670.029 315.462 670.391 320.651C670.512 322.099 670.753 323.547 671.115 324.995C671.477 326.322 671.899 327.71 672.382 329.158C672.623 330.123 673.166 331.27 674.011 332.597C675.097 334.286 676.545 335.734 678.355 336.941C680.286 338.148 682.277 339.053 684.328 339.656C687.586 340.501 691.085 340.923 694.826 340.923C696.877 340.682 698.868 340.501 700.799 340.38C702.73 340.259 704.6 340.078 706.41 339.837C708.703 339.475 710.995 338.932 713.288 338.208C715.581 337.484 717.572 336.458 719.261 335.131C720.347 334.166 721.192 333.2 721.795 332.235C722.398 331.149 722.821 329.942 723.062 328.615V328.434V328.072L723.243 327.167C723.243 326.926 723.183 326.684 723.062 326.443C723.062 326.081 723.062 325.779 723.062 325.538C722.821 323.728 722.519 321.918 722.157 320.108C721.916 318.177 721.614 316.367 721.252 314.678C719.563 305.869 717.692 297.121 715.641 288.433C713.71 279.624 712.685 270.695 712.564 261.645C712.564 261.162 712.745 260.8 713.107 260.559C713.469 260.318 713.831 260.137 714.193 260.016C714.314 259.775 714.615 259.654 715.098 259.654C716.787 260.137 718.416 260.499 719.985 260.74C721.674 260.861 723.364 260.981 725.053 261.102C727.949 261.343 730.905 261.343 733.922 261.102C737.059 260.861 740.136 260.378 743.153 259.654C745.204 259.171 747.316 258.508 749.488 257.663C751.781 256.818 753.711 255.672 755.28 254.224C756.607 252.897 757.573 251.268 758.176 249.337C758.9 247.286 759.503 245.355 759.986 243.545C760.348 241.856 760.529 240.227 760.529 238.658C760.65 236.969 760.529 235.34 760.167 233.771ZM757.452 221.101C759.986 223.514 761.856 226.29 763.063 229.427C764.39 232.564 764.933 235.883 764.692 239.382C764.33 243.726 763.184 248.13 761.253 252.595C760.288 254.646 758.96 256.396 757.271 257.844C755.702 259.171 753.953 260.257 752.022 261.102C746.592 263.515 740.8 264.903 734.646 265.265C728.492 265.506 722.519 265.144 716.727 264.179C716.968 269.368 717.511 274.496 718.356 279.564C719.201 284.511 720.166 289.519 721.252 294.587C722.338 299.534 723.424 304.542 724.51 309.61C725.717 314.678 726.622 319.746 727.225 324.814C727.587 328.072 726.984 331.089 725.415 333.864C723.967 336.519 721.735 338.63 718.718 340.199C715.943 341.768 713.047 342.854 710.03 343.457C707.013 343.94 703.936 344.302 700.799 344.543C697.058 344.784 693.257 344.784 689.396 344.543C685.535 344.422 681.854 343.517 678.355 341.828C673.77 339.535 670.572 335.976 668.762 331.149C666.952 326.202 666.168 321.254 666.409 316.307C666.65 311.36 667.435 306.593 668.762 302.008C670.089 297.302 671.417 292.596 672.744 287.89C674.071 283.425 675.157 278.961 676.002 274.496C676.847 270.031 677.691 265.506 678.536 260.921C677.812 260.8 677.148 260.74 676.545 260.74C675.942 260.619 675.338 260.559 674.735 260.559C672.563 260.197 670.27 259.835 667.857 259.473C665.564 259.111 663.272 258.628 660.979 258.025C658.686 257.422 656.514 256.577 654.463 255.491C652.412 254.405 650.602 253.017 649.033 251.328C647.706 249.88 646.62 248.251 645.775 246.441C644.93 244.51 644.327 242.519 643.965 240.468C643.724 238.296 643.724 236.184 643.965 234.133C644.206 231.961 644.689 229.97 645.413 228.16C646.982 224.419 649.274 221.403 652.291 219.11C655.428 216.817 658.807 215.007 662.427 213.68C667.495 211.749 672.684 210.422 677.993 209.698C683.302 208.853 688.672 208.31 694.102 208.069C701.583 207.586 709.065 207.586 716.546 208.069C724.027 208.431 731.388 209.638 738.628 211.689C742.007 212.654 745.325 213.861 748.583 215.309C751.841 216.757 754.797 218.688 757.452 221.101Z" fill="black"/>
</svg>
