<svg width="584" height="306" viewBox="0 0 584 306" fill="none" xmlns="http://www.w3.org/2000/svg">
<path d="M457.832 3.87513C454.793 2.95292 451.47 2.7816 448.193 2.58122C436.34 1.85654 424.376 1.92242 412.496 2.17456C377.97 2.90733 342.218 4.39942 308.795 10.8992C291.725 14.2189 256.827 20.2048 252.443 35.2248C250.377 42.3047 255.88 49.3125 261.765 54.6704C272.707 64.6331 287.946 72.1813 303.499 78.2565C352.467 97.3842 409.596 103.69 465.035 104.874C488.891 105.384 512.821 104.441 536.004 100.29C549.443 97.8841 565.163 94.3892 574.985 86.9812C592.462 73.7986 573.907 57.6888 556.13 51.0474C523.202 38.7458 482.637 39.2583 446.392 37.8126" stroke="black" stroke-width="3" stroke-linecap="round"/>
<path d="M46 256C46 279.618 50.2234 297.308 75.1565 304.108" stroke="black" stroke-width="3" stroke-linecap="round"/>
<path d="M38.9521 5C38.7687 6.41177 37.8333 7.78236 37.2907 9.14478C35.4784 13.6956 34.6958 18.4303 34.5525 23.1186C34.2992 31.4079 35.6576 40.5933 42.7979 47.7504C44.707 49.664 47.331 51.2769 48.9204 53.3163" stroke="black" stroke-width="3" stroke-linecap="round"/>
<path d="M24 45.8557C26.621 46.0238 29.1089 47.1408 31.3839 47.9083C35.0836 49.1564 38.9099 50.2597 42.706 51.382C45.738 52.2784 48.8731 54.1517 50.0284 51.382C51.7026 47.3685 55.237 44.0027 57.2278 40.1714" stroke="black" stroke-width="3" stroke-linecap="round"/>
<path d="M4.1466 92.4766C12.0308 86.7945 18.879 79.6651 28.5006 76.5977C31.096 75.7703 33.8075 75.4457 36.6924 75.4217C38.9252 75.403 40.9299 74.633 43.1878 74.8136" stroke="black" stroke-width="3" stroke-linecap="round"/>
<path d="M29.1518 65.7136C34.4382 67.1233 39.1192 70.8891 44.2038 72.9175C46.2528 73.7349 36.5731 87.6648 35.2388 89.3146" stroke="black" stroke-width="3" stroke-linecap="round"/>
<path d="M136.362 145.88C139.162 147.187 141.402 149.193 143.082 151.9C144.762 154.513 145.556 157.313 145.462 160.3C145.462 162.727 145.042 165.06 144.202 167.3C143.362 169.54 142.289 171.64 140.982 173.6C139.022 176.587 136.642 179.247 133.842 181.58C131.136 183.82 128.196 185.733 125.022 187.32C121.849 188.907 118.489 190.167 114.942 191.1C111.489 192.033 108.036 192.64 104.582 192.92C101.036 193.2 97.3958 193.247 93.6624 193.06C90.0224 192.78 86.4758 192.127 83.0224 191.1C79.5691 190.073 76.3024 188.627 73.2224 186.76C70.2358 184.8 67.5291 182.373 65.1024 179.48C62.9558 176.773 61.2758 173.787 60.0624 170.52C58.9424 167.253 58.2891 163.94 58.1024 160.58C57.7291 155.913 58.0558 151.387 59.0824 147C60.2024 142.613 61.5558 138.273 63.1424 133.98C64.8224 129.5 66.9224 124.88 69.4424 120.12C71.9624 115.36 74.9491 111.02 78.4024 107.1C81.8558 103.087 85.7758 99.82 90.1624 97.3C94.6424 94.6867 99.5891 93.38 105.002 93.38C109.389 93.38 113.542 94.3133 117.462 96.18C121.476 98.0467 124.742 100.847 127.262 104.58C128.942 107.1 130.249 109.9 131.182 112.98C132.209 115.967 132.862 119.047 133.142 122.22C133.422 125.393 133.329 128.567 132.862 131.74C132.396 134.913 131.602 137.9 130.482 140.7C129.269 140.607 128.102 140.56 126.982 140.56C125.956 140.467 124.882 140.42 123.762 140.42C121.616 140.42 119.422 140.513 117.182 140.7C115.036 140.793 112.889 140.933 110.742 141.12C109.436 141.12 108.362 141.307 107.522 141.68C106.776 140.093 106.169 138.507 105.702 136.92C105.236 135.24 104.862 133.607 104.582 132.02C104.396 130.713 104.162 129.36 103.882 127.96C103.696 126.56 103.462 125.207 103.182 123.9C102.996 123.153 102.482 122.78 101.642 122.78C100.709 122.78 100.242 123.153 100.242 123.9C100.149 124.087 100.102 124.413 100.102 124.88C99.3558 129.08 98.1424 133.28 96.4624 137.48C94.7824 141.68 92.5891 145.46 89.8824 148.82C88.0158 150.407 86.4291 152.227 85.1224 154.28C83.8158 156.24 83.1624 158.527 83.1624 161.14C83.1624 163.1 83.5358 164.967 84.2824 166.74C85.1224 168.42 86.3824 169.773 88.0624 170.8C89.7424 171.827 91.5624 172.527 93.5224 172.9C95.4824 173.18 97.3958 173.273 99.2624 173.18C101.969 173.087 104.582 172.667 107.102 171.92C109.622 171.08 112.049 170.053 114.382 168.84C114.849 168.56 115.129 168.233 115.222 167.86C115.316 167.487 115.269 167.16 115.082 166.88C114.896 166.507 114.569 166.227 114.102 166.04C113.729 165.853 113.309 165.9 112.842 166.18C110.602 167.393 108.222 168.373 105.702 169.12C103.276 169.773 100.802 170.1 98.2824 170.1C96.6958 170.1 95.0624 169.96 93.3824 169.68C91.7958 169.4 90.3491 168.747 89.0424 167.72C87.5491 166.6 86.6624 165.013 86.3824 162.96C86.1958 160.907 86.3824 159.087 86.9424 157.5C87.4091 156.193 88.1091 155.027 89.0424 154C90.0691 152.88 91.2358 151.9 92.5424 151.06C93.2891 150.407 94.2224 149.753 95.3424 149.1C96.4624 148.447 97.6291 147.887 98.8424 147.42C100.056 146.86 101.269 146.393 102.482 146.02C103.696 145.647 104.769 145.367 105.702 145.18C105.796 145.18 105.842 145.273 105.842 145.46C107.056 147.42 108.689 149.1 110.742 150.5C112.796 151.9 114.942 152.787 117.182 153.16C121.476 153.72 125.209 152.553 128.382 149.66C129.876 148.26 131.136 146.487 132.162 144.34C133.469 144.713 134.869 145.227 136.362 145.88ZM115.222 143.92C117.462 143.733 119.749 143.64 122.082 143.64C124.416 143.547 126.749 143.593 129.082 143.78C128.336 144.993 127.682 145.927 127.122 146.58C125.816 147.887 124.369 148.867 122.782 149.52C121.196 150.173 119.469 150.36 117.602 150.08C115.736 149.707 114.102 149.007 112.702 147.98C111.302 146.953 110.136 145.787 109.202 144.48C110.229 144.293 111.209 144.2 112.142 144.2C113.169 144.107 114.196 144.013 115.222 143.92ZM222.623 155.54C223.463 157.033 223.883 158.62 223.883 160.3C223.976 161.887 223.789 163.473 223.323 165.06C222.949 166.647 222.343 168.187 221.503 169.68C220.756 171.173 219.916 172.573 218.983 173.88C216.836 176.773 214.176 179.387 211.003 181.72C207.829 184.053 204.376 186.06 200.643 187.74C197.003 189.42 193.223 190.727 189.303 191.66C185.476 192.593 181.789 193.06 178.243 193.06C169.656 193.06 162.796 190.633 157.663 185.78C152.529 180.927 149.123 174.44 147.443 166.32C146.603 162.12 146.043 157.92 145.763 153.72C145.576 149.427 145.576 145.18 145.763 140.98C145.949 136.687 146.276 132.44 146.743 128.24C147.209 124.04 147.816 119.84 148.563 115.64C149.029 113.213 149.589 110.74 150.243 108.22C150.896 105.607 151.829 103.227 153.043 101.08C154.349 98.84 155.983 97.02 157.943 95.62C159.903 94.22 162.329 93.52 165.223 93.52C168.116 93.52 170.543 94.0333 172.503 95.06C174.556 96.0867 176.236 97.4867 177.543 99.26C178.943 101.033 180.016 103.04 180.763 105.28C181.509 107.52 182.023 109.9 182.303 112.42C182.863 118.02 182.629 123.62 181.603 129.22C180.576 134.727 179.176 140.093 177.403 145.32C176.469 147.84 175.443 150.36 174.323 152.88C173.296 155.307 172.129 157.64 170.823 159.88C170.356 160.533 170.403 161.187 170.963 161.84C171.616 162.4 172.269 162.447 172.923 161.98C173.109 161.887 173.296 161.747 173.483 161.56C177.683 158.48 182.023 155.68 186.503 153.16C191.076 150.547 195.883 148.82 200.923 147.98C202.789 147.7 204.749 147.607 206.803 147.7C208.949 147.7 211.003 147.98 212.963 148.54C215.016 149.1 216.883 149.94 218.563 151.06C220.336 152.18 221.689 153.673 222.623 155.54ZM291.466 146.3C292.119 150.78 292.306 155.307 292.026 159.88C291.746 164.36 290.813 168.747 289.226 173.04C287.079 179.107 283.766 183.96 279.286 187.6C274.806 191.24 269.299 193.06 262.766 193.06C257.913 193.06 253.573 192.08 249.746 190.12C246.013 188.067 242.699 185.453 239.806 182.28C236.913 179.013 234.486 175.327 232.526 171.22C230.566 167.113 228.979 162.96 227.766 158.76C226.086 152.787 224.966 146.72 224.406 140.56C223.846 134.307 224.079 128.1 225.106 121.94C225.479 119.607 225.993 117.227 226.646 114.8C227.393 112.28 228.279 109.9 229.306 107.66C230.426 105.42 231.779 103.32 233.366 101.36C234.953 99.4 236.773 97.7667 238.826 96.46C240.413 95.2467 242.139 94.4533 244.006 94.08C245.966 93.6133 247.879 93.38 249.746 93.38C253.013 93.38 256.139 93.9867 259.126 95.2C262.206 96.4133 265.053 98.0467 267.666 100.1C270.373 102.06 272.799 104.3 274.946 106.82C277.186 109.34 279.146 111.953 280.826 114.66C283.719 119.42 286.006 124.507 287.686 129.92C289.366 135.24 290.626 140.7 291.466 146.3ZM253.246 130.34C252.966 129.78 252.593 129.5 252.126 129.5C251.566 129.5 251.099 129.733 250.726 130.2C250.353 130.667 250.306 131.227 250.586 131.88C252.546 136.267 254.273 140.747 255.766 145.32C257.259 149.8 258.426 154.42 259.266 159.18C259.359 159.833 259.779 160.16 260.526 160.16C260.993 160.16 261.413 160.02 261.786 159.74C262.159 159.367 262.253 158.853 262.066 158.2C261.226 153.347 260.013 148.633 258.426 144.06C256.933 139.393 255.206 134.82 253.246 130.34ZM374.975 160.44C375.162 161.933 375.162 163.333 374.975 164.64C374.789 165.853 374.509 167.113 374.135 168.42C373.109 172.62 371.335 176.26 368.815 179.34C366.295 182.42 363.309 184.987 359.855 187.04C356.495 189 352.809 190.493 348.795 191.52C344.875 192.547 340.909 193.107 336.895 193.2C334.002 193.293 331.109 193.107 328.215 192.64C325.415 192.173 322.709 191.427 320.095 190.4C315.709 188.533 312.022 186.153 309.035 183.26C306.049 180.367 303.575 177.147 301.615 173.6C299.655 169.96 298.115 166.087 296.995 161.98C295.969 157.78 295.082 153.533 294.335 149.24C293.775 145.6 293.262 141.96 292.795 138.32C292.422 134.587 292.235 130.853 292.235 127.12C292.235 122.827 292.609 118.813 293.355 115.08C294.102 111.253 295.362 107.893 297.135 105C299.002 102.013 301.475 99.54 304.555 97.58C307.635 95.62 311.462 94.3133 316.035 93.66C320.702 93.1 325.275 93.38 329.755 94.5C332.462 95.06 335.169 95.8533 337.875 96.88C340.675 97.9067 343.195 99.26 345.435 100.94C347.769 102.527 349.775 104.44 351.455 106.68C353.229 108.827 354.442 111.393 355.095 114.38C355.655 116.9 355.609 119.42 354.955 121.94C354.302 124.367 353.135 126.607 351.455 128.66C349.215 131.367 346.509 133.187 343.335 134.12C341.469 133.933 339.602 133.887 337.735 133.98C335.962 133.98 334.142 134.073 332.275 134.26C327.795 134.633 323.269 135.193 318.695 135.94C317.575 136.033 317.155 136.547 317.435 137.48C317.809 138.413 318.462 138.833 319.395 138.74C323.222 138.18 327.142 137.76 331.155 137.48C335.262 137.107 339.322 137.013 343.335 137.2H343.615C346.509 137.387 349.402 137.853 352.295 138.6C355.189 139.253 357.942 140.233 360.555 141.54C363.169 142.847 365.549 144.48 367.695 146.44C369.842 148.4 371.569 150.78 372.875 153.58C373.249 154.327 373.575 155.073 373.855 155.82C374.135 156.567 374.369 157.313 374.555 158.06C374.555 158.153 374.602 158.247 374.695 158.34V158.9C374.789 158.993 374.835 159.087 374.835 159.18V159.32C374.835 159.413 374.835 159.46 374.835 159.46C374.929 159.46 374.975 159.507 374.975 159.6V160.02V160.44ZM325.275 122.08C322.849 118.253 321.729 114.053 321.915 109.48C321.915 109.013 321.729 108.64 321.355 108.36C321.075 108.08 320.749 107.94 320.375 107.94C319.255 107.94 318.695 108.453 318.695 109.48C318.415 114.52 319.675 119.233 322.475 123.62C322.755 124.18 323.222 124.46 323.875 124.46C324.435 124.46 324.902 124.227 325.275 123.76C325.742 123.2 325.742 122.64 325.275 122.08ZM331.155 158.76C331.062 158.293 330.782 157.967 330.315 157.78C329.942 157.593 329.569 157.547 329.195 157.64C328.075 157.92 327.702 158.573 328.075 159.6C329.102 164.733 331.249 169.073 334.515 172.62C334.795 172.993 335.169 173.18 335.635 173.18C336.195 173.087 336.615 172.9 336.895 172.62C337.642 171.873 337.642 171.173 336.895 170.52C333.909 166.973 331.995 163.053 331.155 158.76ZM446.22 163.24C446.407 166.04 446.5 168.84 446.5 171.64C446.5 174.347 446.314 177.053 445.94 179.76C445.66 181.72 445.287 183.633 444.82 185.5C444.354 187.273 443.654 188.86 442.72 190.26C441.88 191.66 440.714 192.827 439.22 193.76C437.727 194.6 435.86 195.02 433.62 195.02C430.914 195.02 428.58 194.507 426.62 193.48C424.66 192.36 422.98 190.96 421.58 189.28C420.274 187.6 419.154 185.687 418.22 183.54C417.38 181.3 416.634 179.06 415.98 176.82C415.234 174.487 414.58 172.153 414.02 169.82C413.554 167.393 413.087 164.967 412.62 162.54C412.434 161.607 412.247 160.673 412.06 159.74C411.967 158.713 411.827 157.687 411.64 156.66C413.134 156.66 414.534 156.8 415.84 157.08C417.24 157.267 418.594 157.733 419.9 158.48C420.834 158.947 421.534 158.76 422 157.92C422.56 156.987 422.42 156.287 421.58 155.82C419.714 154.793 417.754 154.14 415.7 153.86C413.647 153.58 411.547 153.533 409.4 153.72C407.44 153.907 405.48 154.327 403.52 154.98C401.654 155.54 399.927 156.38 398.34 157.5C397.967 157.78 397.734 158.153 397.64 158.62C397.64 159.087 397.734 159.507 397.92 159.88C398.107 160.16 398.387 160.393 398.76 160.58C399.227 160.673 399.647 160.58 400.02 160.3C401.234 159.367 402.494 158.667 403.8 158.2C405.2 157.64 406.694 157.22 408.28 156.94C408.374 159.087 408.374 161.233 408.28 163.38C408.187 165.527 408 167.673 407.72 169.82C407.44 172.06 406.974 174.347 406.32 176.68C405.76 178.92 404.92 181.02 403.8 182.98C402.68 184.847 401.234 186.387 399.46 187.6C397.687 188.813 395.447 189.42 392.74 189.42C387.047 189.42 382.707 186.9 379.72 181.86C377.854 178.593 376.64 175 376.08 171.08C375.614 167.067 375.474 163.147 375.66 159.32C375.847 154.56 376.407 149.427 377.34 143.92C378.367 138.32 379.814 132.813 381.68 127.4C383.547 121.987 385.88 116.9 388.68 112.14C391.574 107.38 394.98 103.413 398.9 100.24C400.767 98.56 403.054 97.1133 405.76 95.9C408.467 94.5933 411.174 93.94 413.88 93.94C416.494 93.94 418.92 94.6867 421.16 96.18C423.4 97.6733 425.454 99.6333 427.32 102.06C429.28 104.487 431.007 107.24 432.5 110.32C434.087 113.307 435.487 116.34 436.7 119.42C437.914 122.5 438.94 125.487 439.78 128.38C440.714 131.18 441.414 133.607 441.88 135.66C443 140.233 443.934 144.807 444.68 149.38C445.427 153.953 445.94 158.573 446.22 163.24ZM419.34 130.2C416.634 130.013 413.88 130.013 411.08 130.2C408.28 130.387 405.48 130.667 402.68 131.04C401.654 131.227 401.14 131.74 401.14 132.58C401.14 133.047 401.28 133.467 401.56 133.84C401.84 134.12 402.214 134.213 402.68 134.12C405.48 133.84 408.28 133.653 411.08 133.56C413.88 133.373 416.634 133.373 419.34 133.56C419.9 133.56 420.274 133.42 420.46 133.14C420.74 132.767 420.88 132.393 420.88 132.02C420.88 131.553 420.74 131.133 420.46 130.76C420.274 130.387 419.9 130.2 419.34 130.2ZM523.634 155.54C524.474 157.033 524.894 158.62 524.894 160.3C524.988 161.887 524.801 163.473 524.334 165.06C523.961 166.647 523.354 168.187 522.514 169.68C521.768 171.173 520.928 172.573 519.994 173.88C517.848 176.773 515.188 179.387 512.014 181.72C508.841 184.053 505.388 186.06 501.654 187.74C498.014 189.42 494.234 190.727 490.314 191.66C486.488 192.593 482.801 193.06 479.254 193.06C470.668 193.06 463.808 190.633 458.674 185.78C453.541 180.927 450.134 174.44 448.454 166.32C447.614 162.12 447.054 157.92 446.774 153.72C446.588 149.427 446.588 145.18 446.774 140.98C446.961 136.687 447.288 132.44 447.754 128.24C448.221 124.04 448.828 119.84 449.574 115.64C450.041 113.213 450.601 110.74 451.254 108.22C451.908 105.607 452.841 103.227 454.054 101.08C455.361 98.84 456.994 97.02 458.954 95.62C460.914 94.22 463.341 93.52 466.234 93.52C469.128 93.52 471.554 94.0333 473.514 95.06C475.568 96.0867 477.248 97.4867 478.554 99.26C479.954 101.033 481.028 103.04 481.774 105.28C482.521 107.52 483.034 109.9 483.314 112.42C483.874 118.02 483.641 123.62 482.614 129.22C481.588 134.727 480.188 140.093 478.414 145.32C477.481 147.84 476.454 150.36 475.334 152.88C474.308 155.307 473.141 157.64 471.834 159.88C471.368 160.533 471.414 161.187 471.974 161.84C472.628 162.4 473.281 162.447 473.934 161.98C474.121 161.887 474.308 161.747 474.494 161.56C478.694 158.48 483.034 155.68 487.514 153.16C492.088 150.547 496.894 148.82 501.934 147.98C503.801 147.7 505.761 147.607 507.814 147.7C509.961 147.7 512.014 147.98 513.974 148.54C516.028 149.1 517.894 149.94 519.574 151.06C521.348 152.18 522.701 153.673 523.634 155.54ZM170.879 216.96C171.905 225.08 171.999 233.2 171.159 241.32C170.319 249.44 168.779 257.467 166.539 265.4C165.885 267.547 165.045 270.02 164.019 272.82C162.992 275.527 161.685 278.14 160.099 280.66C158.605 283.087 156.785 285.14 154.639 286.82C152.585 288.5 150.159 289.34 147.359 289.34C145.212 289.34 143.392 288.827 141.899 287.8C140.405 286.68 139.145 285.28 138.119 283.6C137.185 281.92 136.439 280.1 135.879 278.14C135.319 276.18 134.945 274.313 134.759 272.54C134.105 267.78 133.872 263.02 134.059 258.26C134.245 253.5 134.572 248.693 135.039 243.84C135.225 241.413 135.505 238.94 135.879 236.42V235.86C135.972 235.393 135.832 235.067 135.459 234.88C135.179 234.6 134.852 234.46 134.479 234.46C133.545 234.46 132.939 234.833 132.659 235.58C131.632 238.287 130.792 240.993 130.139 243.7C129.485 246.313 128.692 248.973 127.759 251.68C127.385 252.987 126.779 254.807 125.939 257.14C125.099 259.473 124.119 261.807 122.999 264.14C121.879 266.473 120.572 268.573 119.079 270.44C117.679 272.307 116.185 273.38 114.599 273.66C113.759 273.847 112.825 273.847 111.799 273.66C110.772 273.473 109.885 273.007 109.139 272.26C107.085 270.487 105.685 268.06 104.939 264.98C104.192 261.9 103.725 259.053 103.539 256.44C103.165 252.893 103.025 249.393 103.119 245.94C103.305 242.393 103.632 238.847 104.099 235.3C104.192 235.207 104.192 234.973 104.099 234.6C104.099 233.947 103.725 233.527 102.979 233.34C102.885 233.247 102.699 233.247 102.419 233.34C101.765 233.34 101.345 233.62 101.159 234.18V234.46C100.785 236.513 100.319 239.127 99.7587 242.3C99.1987 245.38 98.4987 248.693 97.6587 252.24C96.912 255.693 96.0253 259.287 94.9987 263.02C93.972 266.66 92.8053 270.16 91.4987 273.52C90.2853 276.787 88.8853 279.727 87.2987 282.34C85.8053 284.953 84.1253 286.913 82.2587 288.22C79.9253 289.993 77.2187 290.6 74.1387 290.04C70.592 289.48 67.932 287.893 66.1587 285.28C64.3853 282.573 63.1253 279.587 62.3787 276.32C61.632 272.867 61.212 269.413 61.1187 265.96C61.1187 262.413 61.2587 258.867 61.5387 255.32C61.8187 251.027 62.2853 246.64 62.9387 242.16C63.592 237.68 64.4787 233.247 65.5987 228.86C66.7187 224.473 68.072 220.18 69.6587 215.98C71.3387 211.78 73.3453 207.86 75.6787 204.22C76.612 202.727 77.6853 201.233 78.8987 199.74C80.112 198.153 81.4187 196.8 82.8187 195.68C84.312 194.467 85.8987 193.487 87.5787 192.74C89.352 191.993 91.2187 191.62 93.1787 191.62C97.2853 191.807 100.832 193.207 103.819 195.82C106.805 198.34 109.139 201.42 110.819 205.06C111.472 206.46 112.079 208.187 112.639 210.24C113.292 212.2 113.805 214.253 114.179 216.4C114.645 218.547 114.972 220.693 115.159 222.84C115.439 224.893 115.579 226.76 115.579 228.44C115.672 228.907 115.905 229.28 116.279 229.56C116.652 229.84 117.072 229.98 117.539 229.98C118.285 229.98 118.705 229.607 118.799 228.86C118.799 228.673 118.845 228.533 118.939 228.44C119.592 224.893 120.432 221.207 121.459 217.38C122.485 213.553 123.839 209.867 125.519 206.32C127.199 202.68 129.252 199.367 131.679 196.38C134.105 193.393 136.999 191.013 140.359 189.24C141.852 188.493 143.439 187.887 145.119 187.42C146.799 186.953 148.479 186.72 150.159 186.72C153.705 186.72 156.692 187.793 159.119 189.94C161.639 191.993 163.692 194.56 165.279 197.64C166.865 200.72 168.079 204.033 168.919 207.58C169.852 211.033 170.505 214.16 170.879 216.96ZM239.091 242.3C239.744 246.78 239.931 251.307 239.651 255.88C239.371 260.36 238.438 264.747 236.851 269.04C234.704 275.107 231.391 279.96 226.911 283.6C222.431 287.24 216.924 289.06 210.391 289.06C205.538 289.06 201.198 288.08 197.371 286.12C193.638 284.067 190.324 281.453 187.431 278.28C184.538 275.013 182.111 271.327 180.151 267.22C178.191 263.113 176.604 258.96 175.391 254.76C173.711 248.787 172.591 242.72 172.031 236.56C171.471 230.307 171.704 224.1 172.731 217.94C173.104 215.607 173.618 213.227 174.271 210.8C175.018 208.28 175.904 205.9 176.931 203.66C178.051 201.42 179.404 199.32 180.991 197.36C182.578 195.4 184.398 193.767 186.451 192.46C188.038 191.247 189.764 190.453 191.631 190.08C193.591 189.613 195.504 189.38 197.371 189.38C200.638 189.38 203.764 189.987 206.751 191.2C209.831 192.413 212.678 194.047 215.291 196.1C217.998 198.06 220.424 200.3 222.571 202.82C224.811 205.34 226.771 207.953 228.451 210.66C231.344 215.42 233.631 220.507 235.311 225.92C236.991 231.24 238.251 236.7 239.091 242.3ZM200.871 226.34C200.591 225.78 200.218 225.5 199.751 225.5C199.191 225.5 198.724 225.733 198.351 226.2C197.978 226.667 197.931 227.227 198.211 227.88C200.171 232.267 201.898 236.747 203.391 241.32C204.884 245.8 206.051 250.42 206.891 255.18C206.984 255.833 207.404 256.16 208.151 256.16C208.618 256.16 209.038 256.02 209.411 255.74C209.784 255.367 209.878 254.853 209.691 254.2C208.851 249.347 207.638 244.633 206.051 240.06C204.558 235.393 202.831 230.82 200.871 226.34ZM335.76 220.18C336.507 224.753 336.974 229.327 337.16 233.9C337.347 238.473 337.254 243.093 336.88 247.76C336.787 249.907 336.507 252.427 336.04 255.32C335.574 258.12 334.92 261.06 334.08 264.14C333.24 267.127 332.214 270.067 331 272.96C329.787 275.853 328.294 278.467 326.52 280.8C324.84 283.133 322.88 285 320.64 286.4C318.4 287.8 315.88 288.5 313.08 288.5C310 288.5 307.247 287.753 304.82 286.26C302.487 284.673 300.434 282.62 298.66 280.1C296.98 277.58 295.534 274.733 294.32 271.56C293.2 268.293 292.267 265.027 291.52 261.76C290.774 258.4 290.214 255.133 289.84 251.96C289.56 248.787 289.374 246.033 289.28 243.7V238.1C289.28 237.54 289.094 237.167 288.72 236.98C288.44 236.7 288.114 236.56 287.74 236.56C287.274 236.56 286.854 236.7 286.48 236.98C286.2 237.167 286.06 237.54 286.06 238.1C285.967 241.74 285.547 245.8 284.8 250.28C284.147 254.76 283.12 259.24 281.72 263.72C280.414 268.2 278.734 272.4 276.68 276.32C274.72 280.24 272.34 283.46 269.54 285.98C267.207 288.313 264.407 289.573 261.14 289.76C257.687 289.76 254.794 288.92 252.46 287.24C250.127 285.56 248.167 283.46 246.58 280.94C245.087 278.42 243.874 275.62 242.94 272.54C242.1 269.46 241.447 266.52 240.98 263.72C240.14 258.213 239.767 252.707 239.86 247.2C240.047 241.6 240.514 236.093 241.26 230.68C241.54 228.253 241.96 225.547 242.52 222.56C243.08 219.48 243.827 216.307 244.76 213.04C245.694 209.773 246.814 206.6 248.12 203.52C249.52 200.44 251.154 197.687 253.02 195.26C254.887 192.833 257.034 190.873 259.46 189.38C261.887 187.887 264.64 187.14 267.72 187.14C271.267 187.14 274.534 187.98 277.52 189.66C280.507 191.34 283.214 193.58 285.64 196.38C288.067 199.087 290.26 202.213 292.22 205.76C294.18 209.307 295.907 212.947 297.4 216.68C298.987 220.413 300.294 224.1 301.32 227.74C302.44 231.287 303.374 234.507 304.12 237.4L304.54 239.5C304.727 240.06 304.82 240.433 304.82 240.62C305.007 241.46 305.427 241.88 306.08 241.88C306.547 241.88 306.967 241.693 307.34 241.32C307.807 240.947 307.994 240.48 307.9 239.92C306.78 233.573 305.007 227.087 302.58 220.46C300.154 213.833 297.26 207.767 293.9 202.26C295.86 200.207 297.96 198.293 300.2 196.52C302.44 194.653 304.914 193.207 307.62 192.18C309.207 191.527 310.887 191.107 312.66 190.92C314.434 190.733 316.114 190.827 317.7 191.2C320.5 191.947 322.927 193.44 324.98 195.68C327.034 197.827 328.76 200.3 330.16 203.1C331.654 205.9 332.82 208.84 333.66 211.92C334.594 214.907 335.294 217.66 335.76 220.18ZM428.781 252.94C428.968 254.527 428.874 256.113 428.501 257.7C428.128 259.287 427.521 260.827 426.681 262.32C425.934 263.813 425.048 265.213 424.021 266.52C422.994 267.827 421.921 269.04 420.801 270.16C417.721 273.147 414.174 275.853 410.161 278.28C406.241 280.613 402.041 282.62 397.561 284.3C393.174 285.98 388.694 287.287 384.121 288.22C379.548 289.153 375.161 289.62 370.961 289.62C367.974 289.62 364.754 289.34 361.301 288.78C357.941 288.22 354.721 287.287 351.641 285.98C348.561 284.673 345.808 282.947 343.381 280.8C341.048 278.56 339.414 275.76 338.481 272.4C337.548 269.32 337.361 266.287 337.921 263.3C338.481 260.22 339.788 257.467 341.841 255.04C345.761 250.467 350.381 246.967 355.701 244.54C361.114 242.02 366.621 239.827 372.221 237.96C372.594 237.773 372.968 237.68 373.341 237.68C373.714 237.587 374.088 237.493 374.461 237.4H374.741C375.674 237.12 376.048 236.56 375.861 235.72C375.768 234.787 375.301 234.273 374.461 234.18C371.941 233.993 369.188 233.76 366.201 233.48C363.214 233.107 360.274 232.5 357.381 231.66C354.581 230.82 351.968 229.653 349.541 228.16C347.114 226.573 345.248 224.52 343.941 222C342.634 219.293 342.168 216.587 342.541 213.88C343.008 211.08 344.128 208.607 345.901 206.46C348.234 203.473 351.174 200.953 354.721 198.9C358.361 196.753 362.234 195.027 366.341 193.72C370.448 192.32 374.601 191.293 378.801 190.64C383.094 189.893 387.014 189.427 390.561 189.24C394.761 189.053 398.914 189.053 403.021 189.24C407.221 189.427 411.421 189.94 415.621 190.78C417.021 191.06 418.468 191.48 419.961 192.04C421.454 192.6 422.808 193.393 424.021 194.42C425.328 195.54 426.121 196.893 426.401 198.48C426.681 199.973 426.494 201.513 425.841 203.1C425.094 204.873 423.974 206.32 422.481 207.44C420.988 208.56 419.401 209.493 417.721 210.24C415.854 211.173 413.894 211.967 411.841 212.62C409.788 213.18 407.688 213.787 405.541 214.44C400.221 216.027 394.901 217.473 389.581 218.78C384.354 220.087 379.034 221.253 373.621 222.28C372.688 222.467 372.268 222.98 372.361 223.82C372.548 224.66 373.014 225.173 373.761 225.36C374.041 225.64 374.508 225.733 375.161 225.64C377.961 224.707 380.948 223.913 384.121 223.26C387.294 222.513 390.468 222.14 393.641 222.14C395.974 222.14 398.214 222.42 400.361 222.98C402.601 223.447 404.701 224.287 406.661 225.5C407.688 226.06 408.621 226.807 409.461 227.74C410.301 228.58 410.861 229.607 411.141 230.82C411.328 231.847 411.188 232.92 410.721 234.04C410.348 235.067 409.788 235.953 409.041 236.7C407.268 238.753 405.121 240.293 402.601 241.32C400.174 242.347 397.841 243.327 395.601 244.26C392.708 245.287 389.674 246.407 386.501 247.62C383.421 248.833 380.668 250.373 378.241 252.24C377.588 252.8 377.448 253.5 377.821 254.34C378.288 255.18 378.988 255.32 379.921 254.76C382.348 253.36 384.868 252.1 387.481 250.98C390.094 249.767 392.754 248.647 395.461 247.62C397.608 246.873 399.754 246.267 401.901 245.8C404.048 245.333 406.288 245.007 408.621 244.82C410.114 244.727 411.561 244.68 412.961 244.68C414.361 244.68 415.808 244.773 417.301 244.96C418.608 245.053 419.868 245.24 421.081 245.52C422.388 245.8 423.554 246.267 424.581 246.92C425.701 247.573 426.634 248.413 427.381 249.44C428.128 250.373 428.594 251.54 428.781 252.94ZM469.111 253.5C469.391 253.407 469.718 253.36 470.091 253.36C470.558 253.36 470.838 253.313 470.931 253.22C472.145 253.127 473.311 253.033 474.431 252.94C475.551 252.847 476.671 252.753 477.791 252.66H478.771L480.591 252.52H481.571C482.131 252.52 482.505 252.38 482.691 252.1C482.971 251.727 483.111 251.353 483.111 250.98C483.111 250.513 482.971 250.14 482.691 249.86C482.505 249.58 482.131 249.44 481.571 249.44C479.518 249.533 477.465 249.627 475.411 249.72C473.358 249.813 471.305 249.953 469.251 250.14C466.265 250.327 463.325 250.42 460.431 250.42C457.538 250.42 454.598 250 451.611 249.16C446.571 247.667 442.745 245.287 440.131 242.02C437.518 238.66 435.791 234.413 434.951 229.28C433.925 223.213 434.485 217.147 436.631 211.08C438.778 204.92 442.138 199.74 446.711 195.54C448.298 194.14 450.071 192.833 452.031 191.62C453.991 190.407 456.045 189.847 458.191 189.94C460.525 189.94 462.391 190.827 463.791 192.6C465.285 194.373 466.405 196.52 467.151 199.04C467.991 201.467 468.551 203.987 468.831 206.6C469.111 209.213 469.251 211.313 469.251 212.9C469.345 219.527 468.411 226.06 466.451 232.5C466.265 233.247 465.985 234.04 465.611 234.88C465.331 235.627 465.005 236.373 464.631 237.12C464.445 237.587 464.491 238.007 464.771 238.38C465.145 238.753 465.471 238.987 465.751 239.08C466.498 239.267 467.151 238.94 467.711 238.1C467.805 237.913 467.851 237.82 467.851 237.82C468.038 237.447 468.131 237.167 468.131 236.98C468.225 236.7 468.365 236.467 468.551 236.28C468.738 236.093 468.831 235.86 468.831 235.58C468.925 235.3 469.018 235.067 469.111 234.88L470.371 232.22C471.958 228.487 473.685 224.567 475.551 220.46C477.511 216.353 479.658 212.387 481.991 208.56C484.325 204.64 486.891 201 489.691 197.64C492.585 194.28 495.851 191.48 499.491 189.24C501.171 188.213 502.898 187.373 504.671 186.72C506.538 186.067 508.405 185.74 510.271 185.74C514.378 185.74 517.318 187.047 519.091 189.66C520.865 192.18 521.751 195.353 521.751 199.18C521.751 203.38 521.005 208.28 519.511 213.88C518.018 219.48 516.105 225.173 513.771 230.96C511.438 236.653 508.825 242.16 505.931 247.48C503.131 252.707 500.425 257.047 497.811 260.5C494.731 264.513 491.278 268.247 487.451 271.7C483.718 275.153 479.658 278.14 475.271 280.66C470.978 283.18 466.405 285.187 461.551 286.68C456.698 288.08 451.658 288.78 446.431 288.78C444.845 288.78 443.071 288.687 441.111 288.5C439.245 288.313 437.378 287.987 435.511 287.52C433.645 286.96 431.918 286.26 430.331 285.42C428.838 284.487 427.671 283.273 426.831 281.78C425.805 279.913 425.431 277.907 425.711 275.76C425.991 273.52 426.645 271.56 427.671 269.88C429.351 267.08 431.871 264.7 435.231 262.74C438.591 260.78 442.231 259.147 446.151 257.84C450.165 256.533 454.225 255.553 458.331 254.9C462.438 254.153 466.031 253.687 469.111 253.5ZM467.711 238.24C467.805 238.053 467.851 237.96 467.851 237.96L467.711 238.24Z" fill="white"/>
<path d="M148.202 147.84C156.602 157.78 151.842 171.64 143.862 180.18C132.522 192.64 114.462 197.26 98.0824 196.28C83.1024 195.44 68.4024 187.88 62.1024 173.6C58.7424 166.04 58.3224 157.64 59.4424 149.52C60.2824 144.2 61.8224 139.16 63.7824 134.26C69.8024 115.5 84.3624 92.82 105.222 90.3C112.502 89.32 120.902 91.28 127.062 95.76C132.382 99.68 136.162 105.56 138.262 112C139.942 117.74 140.642 123.76 140.222 129.78C139.662 133.7 138.962 137.76 137.562 141.68C141.482 142.52 145.402 144.48 148.202 147.84ZM140.362 145.88C139.102 145.32 137.702 144.76 136.162 144.34C135.182 146.44 133.922 148.26 132.382 149.66C129.302 152.46 125.382 153.72 121.182 153.16C116.702 152.46 112.222 149.38 109.842 145.46C109.842 145.32 109.842 145.18 109.702 145.18C105.922 145.88 99.6224 148.4 96.5424 151.06C94.0224 152.74 91.9224 154.84 90.9424 157.5C89.8224 160.72 90.1024 165.48 93.0424 167.72C95.5624 169.68 99.2024 170.1 102.282 170.1C107.322 170.1 112.362 168.56 116.842 166.18C118.802 165.2 120.342 167.86 118.382 168.84C113.762 171.22 108.722 173.04 103.262 173.18C99.4824 173.32 95.4224 172.76 92.0624 170.8C88.7024 168.7 87.1624 165.06 87.1624 161.14C87.1624 155.96 90.1024 151.9 93.8824 148.82C99.2024 142.1 102.562 133.28 104.102 124.88C104.102 124.46 104.102 124.18 104.242 123.9C104.242 123.2 104.942 122.78 105.642 122.78C106.342 122.78 107.042 123.2 107.182 123.9C107.742 126.56 108.162 129.36 108.582 132.02C109.142 135.1 109.982 138.6 111.522 141.68C112.502 141.26 113.482 141.12 114.742 141.12C119.082 140.7 123.422 140.42 127.762 140.42C130.002 140.42 132.102 140.56 134.482 140.7C138.962 129.5 138.122 114.8 131.262 104.58C126.222 97.16 117.682 93.38 109.002 93.38C87.3024 93.38 73.7224 116.2 67.1424 133.98C64.0624 142.52 61.4024 151.34 62.1024 160.58C62.5224 167.3 64.7624 174.16 69.1024 179.48C78.6224 191.24 94.3024 194.18 108.582 192.92C122.442 191.66 137.002 185.64 144.982 173.6C147.502 169.68 149.462 165.06 149.462 160.3C149.602 154.28 145.962 148.54 140.362 145.88ZM105.502 132.16C104.102 136.64 102.282 141.12 100.042 145.18C101.722 144.34 103.542 143.64 105.222 143.22C106.062 142.66 107.182 142.38 108.162 142.24C107.182 140 105.502 134.68 105.502 132.16ZM119.222 143.92C117.262 144.06 115.162 144.2 113.202 144.48C115.022 147.14 117.822 149.38 121.602 150.08C125.242 150.64 128.602 149.1 131.122 146.58C131.822 145.74 132.382 144.9 133.082 143.78C128.462 143.36 123.702 143.64 119.222 143.92ZM230.683 157.92C232.223 165.9 228.163 173.6 222.703 179.2C217.103 185.22 209.963 189.28 202.403 192.22C194.843 195.16 186.443 196.98 178.463 196.14C169.503 195.3 161.383 191.1 155.783 184.24C150.883 178.08 148.783 170.1 147.663 162.4C146.263 153.3 146.403 143.78 147.103 134.4C147.803 125.72 148.923 116.76 150.883 108.22C152.983 98.98 159.143 90.3 169.223 90.3C174.823 90.3 180.563 92.96 184.063 97.3C191.203 106.4 190.503 119.7 188.683 130.34C187.563 136.36 186.023 142.1 183.923 147.84C183.083 150.36 181.823 152.88 180.843 155.4C181.263 155.12 181.543 154.56 182.103 154.28C191.203 148.4 201.983 143.36 213.183 144.62C220.883 145.6 229.143 149.52 230.683 157.92ZM226.623 155.54C222.703 148.12 212.343 146.72 204.923 147.98C194.843 149.66 185.743 155.4 177.483 161.56C177.343 161.7 177.203 161.84 176.923 161.98C175.663 162.96 173.983 161.14 174.823 159.88C177.483 155.4 179.583 150.36 181.403 145.32C184.903 134.96 187.423 123.48 186.303 112.42C185.043 102.48 180.703 93.52 169.223 93.52C157.603 93.52 154.243 106.12 152.563 115.64C151.023 123.9 150.183 132.44 149.763 140.98C149.483 149.38 149.763 158.06 151.443 166.32C154.803 182.42 165.163 193.06 182.243 193.06C196.523 193.06 214.303 185.36 222.983 173.88C226.763 168.84 229.843 161.56 226.623 155.54ZM299.106 153.16C299.526 162.82 297.566 173.04 292.526 181.44C286.926 190.82 277.686 196.28 266.906 196.28C241.986 196.28 230.086 170.94 226.446 149.66C224.206 137.2 224.206 124.04 228.266 112C232.326 99.96 239.466 91.42 252.486 90.3C270.126 89.74 283.846 105 290.846 119.56C295.746 129.92 298.826 141.68 299.106 153.16ZM295.466 146.3C293.786 135.24 290.566 124.18 284.826 114.66C278.246 104.02 266.906 93.38 253.746 93.38C249.966 93.38 245.906 94.08 242.826 96.46C234.426 101.78 230.646 112.56 229.106 121.94C227.006 134.12 228.406 146.86 231.766 158.76C236.526 175.56 247.446 193.06 266.766 193.06C279.786 193.06 288.886 185.08 293.226 173.04C296.306 164.5 296.726 155.26 295.466 146.3ZM257.246 130.34C261.166 139.3 264.386 148.54 266.066 158.2C266.346 159.46 265.366 160.16 264.526 160.16C263.966 160.16 263.406 159.88 263.266 159.18C261.586 149.66 258.506 140.56 254.586 131.88C254.026 130.62 255.006 129.5 256.126 129.5C256.546 129.5 256.966 129.78 257.246 130.34ZM379.395 151.48C381.495 155.12 382.755 159.32 382.335 163.66C380.795 185.36 359.655 196.28 339.775 196.28C331.375 196.28 323.255 194.32 316.255 189.7C298.475 178.22 294.555 154.56 293.295 134.96C292.875 128.8 293.015 122.64 293.995 116.48C294.835 111.3 296.235 106.12 299.455 101.78C306.035 92.96 317.515 89.46 328.575 90.44C340.755 91.42 354.475 97.16 360.215 108.08C362.455 112.42 363.295 117.32 362.175 122.08C361.055 127.26 357.835 131.88 353.355 134.82C364.135 136.22 374.075 141.68 379.395 151.48ZM378.975 160.44C378.975 160.44 378.975 160.16 378.975 160.02C378.975 160.02 378.835 159.32 378.835 159.18C378.835 159.04 378.835 159.04 378.695 158.9V158.34C378.555 158.2 378.555 158.2 378.555 158.06C378.275 156.52 377.575 154.98 376.875 153.58C371.555 142.52 359.095 137.9 347.615 137.2C347.475 137.2 347.475 137.2 347.335 137.2C339.355 136.78 330.955 137.62 323.395 138.74C321.435 139.02 320.455 136.08 322.695 135.94C327.175 135.24 331.655 134.68 336.275 134.26C339.915 133.98 343.695 133.84 347.335 134.12C350.555 133.14 353.355 131.18 355.455 128.66C358.815 124.6 360.215 119.42 359.095 114.38C356.295 102.48 344.675 96.88 333.755 94.5C329.275 93.38 324.655 93.1 320.035 93.66C301.695 96.32 296.235 109.9 296.235 127.12C296.235 134.54 297.215 141.96 298.335 149.24C301.135 166.46 306.455 183.12 324.095 190.4C329.275 192.5 335.155 193.34 340.895 193.2C356.855 192.92 373.935 185.22 378.135 168.42C378.835 165.76 379.395 163.38 378.975 160.44ZM329.275 122.08C330.115 123.2 328.995 124.46 327.875 124.46C327.315 124.46 326.755 124.18 326.475 123.62C323.815 119.42 322.415 114.38 322.695 109.48C322.695 108.5 323.395 107.94 324.375 107.94C325.075 107.94 325.915 108.5 325.915 109.48C325.775 113.96 326.895 118.3 329.275 122.08ZM335.155 158.76C335.995 163.1 337.955 167.02 340.895 170.52C341.455 171.08 341.455 172.06 340.895 172.62C340.335 173.18 339.075 173.32 338.515 172.62C335.155 168.98 333.055 164.5 332.075 159.6C331.795 158.76 332.215 157.92 333.195 157.64C333.895 157.5 335.015 157.92 335.155 158.76ZM453.58 167.16C454 178.36 453.3 199.08 437.2 198.24C433.14 197.96 429.22 196.98 426 194.32C419.84 189.56 416.34 177.1 414.8 169.82C413.96 178.78 410.18 190.4 400.1 192.22C395.9 192.92 391.28 192.36 387.64 190.26C384.28 188.44 381.76 185.5 380.22 182C376.44 174.44 376.16 165.48 376.58 157.08C377 150.78 377.7 144.48 379.1 138.18V138.04C382.6 120.26 396.74 91 417.6 91C429.64 91 437.2 103.6 441.54 113.26C449.24 130.2 452.74 148.68 453.58 167.16ZM450.22 163.24C449.66 154 448.12 144.76 445.88 135.66C442.8 123.48 433.56 93.94 417.88 93.94C412.42 93.94 406.68 96.88 402.9 100.24C387.08 113.12 380.5 140.14 379.66 159.32C379.38 166.88 379.94 175.28 383.72 181.86C386.66 186.9 391 189.42 396.74 189.42C407.38 189.42 410.46 178.64 411.72 169.82C412.28 165.62 412.42 161.14 412.28 156.94C409.2 157.5 406.4 158.48 404.02 160.3C402.34 161.42 400.66 158.76 402.34 157.5C405.56 155.26 409.48 154.14 413.4 153.72C417.6 153.3 421.8 153.86 425.58 155.82C427.26 156.66 425.72 159.46 423.9 158.48C421.38 157.08 418.58 156.66 415.64 156.66C416.06 158.76 416.34 160.72 416.62 162.54C417.6 167.44 418.58 172.2 419.98 176.82C422.5 185.78 426.7 195.02 437.62 195.02C446.58 195.02 448.96 187.46 449.94 179.76C450.64 174.3 450.5 168.84 450.22 163.24ZM423.34 130.2C425.44 130.34 425.44 133.56 423.34 133.56C417.88 133.14 412.28 133.56 406.68 134.12C405.84 134.26 405.14 133.42 405.14 132.58C405.14 131.6 405.84 131.18 406.68 131.04C412.28 130.34 417.88 129.92 423.34 130.2ZM531.694 157.92C533.234 165.9 529.174 173.6 523.714 179.2C518.114 185.22 510.974 189.28 503.414 192.22C495.854 195.16 487.454 196.98 479.474 196.14C470.514 195.3 462.394 191.1 456.794 184.24C451.894 178.08 449.794 170.1 448.674 162.4C447.274 153.3 447.414 143.78 448.114 134.4C448.814 125.72 449.934 116.76 451.894 108.22C453.994 98.98 460.154 90.3 470.234 90.3C475.834 90.3 481.574 92.96 485.074 97.3C492.214 106.4 491.514 119.7 489.694 130.34C488.574 136.36 487.034 142.1 484.934 147.84C484.094 150.36 482.834 152.88 481.854 155.4C482.274 155.12 482.554 154.56 483.114 154.28C492.214 148.4 502.994 143.36 514.194 144.62C521.894 145.6 530.154 149.52 531.694 157.92ZM527.634 155.54C523.714 148.12 513.354 146.72 505.934 147.98C495.854 149.66 486.754 155.4 478.494 161.56C478.354 161.7 478.214 161.84 477.934 161.98C476.674 162.96 474.994 161.14 475.834 159.88C478.494 155.4 480.594 150.36 482.414 145.32C485.914 134.96 488.434 123.48 487.314 112.42C486.054 102.48 481.714 93.52 470.234 93.52C458.614 93.52 455.254 106.12 453.574 115.64C452.034 123.9 451.194 132.44 450.774 140.98C450.494 149.38 450.774 158.06 452.454 166.32C455.814 182.42 466.174 193.06 483.254 193.06C497.534 193.06 515.314 185.36 523.994 173.88C527.774 168.84 530.854 161.56 527.634 155.54ZM178.519 222.28C179.079 230.96 178.659 239.64 177.539 248.18C175.719 261.76 169.139 292.56 151.779 292.56C138.759 292.56 135.679 278.28 135.119 267.92C134.699 262.32 134.839 256.58 135.259 250.98C134.559 252.94 134.139 254.76 133.299 256.58C131.059 263.3 126.019 277.16 117.059 277.16C107.119 276.6 104.739 263.44 104.179 255.6C101.659 267.08 95.2187 291.16 82.8987 293.26C79.2587 293.96 75.1987 293.12 71.9787 291.16C65.3987 287.24 63.2987 279.12 62.4587 271.98C61.7587 265.12 62.0387 258.12 62.7387 250.98C63.5787 241.32 65.1187 231.94 68.0587 222.56C72.2587 209.4 81.2187 188.4 96.8987 188.4C112.719 188.4 119.999 205.06 121.819 218.64C125.879 203.38 133.999 185.88 150.939 183.64C155.979 182.94 160.599 184.2 164.519 187C174.739 194.56 177.539 210.52 178.519 222.28ZM174.879 216.96C173.479 205.9 168.299 186.72 154.159 186.72C150.799 186.72 147.299 187.7 144.359 189.24C130.779 196.24 125.599 214.44 122.939 228.44C122.799 228.58 122.799 228.72 122.799 228.86C122.659 229.7 122.099 229.98 121.539 229.98C120.699 229.98 119.719 229.28 119.579 228.44C119.579 221.86 117.479 210.8 114.819 205.06C111.459 197.78 105.299 191.9 97.1787 191.62C89.3387 191.48 83.4587 198.2 79.6787 204.22C70.2987 218.92 66.7987 238.1 65.5387 255.32C64.9787 262.32 64.8387 269.46 66.3787 276.32C67.7787 282.76 71.1387 288.92 78.1387 290.04C81.3587 290.6 83.8787 290.04 86.2587 288.22C97.3187 280.1 102.919 247.06 105.159 234.46C105.159 234.32 105.159 234.32 105.159 234.18C105.439 233.48 105.859 233.34 106.419 233.34C106.699 233.2 106.839 233.2 106.979 233.34C107.679 233.48 108.099 234.04 108.099 234.6C108.239 235.02 108.239 235.16 108.099 235.3C107.119 242.3 106.839 249.44 107.539 256.44C107.959 261.62 108.939 268.76 113.139 272.26C114.539 273.66 116.919 274.08 118.599 273.66C125.039 272.4 130.079 256.86 131.759 251.68C133.579 246.22 134.559 240.9 136.659 235.58C136.939 234.88 137.779 234.46 138.479 234.46C139.179 234.46 140.019 234.88 139.879 235.86C139.879 236.14 139.879 236.28 139.879 236.42C139.459 238.94 139.179 241.46 139.039 243.84C138.199 253.5 137.499 263.16 138.759 272.54C139.599 279.68 142.679 289.34 151.359 289.34C162.419 289.34 168.019 273.94 170.539 265.4C175.019 249.72 176.979 233.06 174.879 216.96ZM246.731 249.16C247.151 258.82 245.191 269.04 240.151 277.44C234.551 286.82 225.311 292.28 214.531 292.28C189.611 292.28 177.711 266.94 174.071 245.66C171.831 233.2 171.831 220.04 175.891 208C179.951 195.96 187.091 187.42 200.111 186.3C217.751 185.74 231.471 201 238.471 215.56C243.371 225.92 246.451 237.68 246.731 249.16ZM243.091 242.3C241.411 231.24 238.191 220.18 232.451 210.66C225.871 200.02 214.531 189.38 201.371 189.38C197.591 189.38 193.531 190.08 190.451 192.46C182.051 197.78 178.271 208.56 176.731 217.94C174.631 230.12 176.031 242.86 179.391 254.76C184.151 271.56 195.071 289.06 214.391 289.06C227.411 289.06 236.511 281.08 240.851 269.04C243.931 260.5 244.351 251.26 243.091 242.3ZM204.871 226.34C208.791 235.3 212.011 244.54 213.691 254.2C213.971 255.46 212.991 256.16 212.151 256.16C211.591 256.16 211.031 255.88 210.891 255.18C209.211 245.66 206.131 236.56 202.211 227.88C201.651 226.62 202.631 225.5 203.751 225.5C204.171 225.5 204.591 225.78 204.871 226.34ZM343.68 225.92C344.8 235.86 344.66 246.36 342.98 256.3C340.88 269.46 334.16 290.74 318.06 291.72C311.34 292.14 305.32 288.5 301.26 283.46C294.82 275.06 292.86 265.12 291.18 255.04C288.38 268.06 280.54 292.98 264.72 292.98C247.64 292.98 242.18 271.7 241.2 258.26C240.22 246.92 240.92 235.58 242.88 224.52C245.68 209.12 252.26 184.62 271.58 183.92C282.08 183.92 290.48 191.34 295.94 199.6C296.5 199.18 296.78 198.76 297.06 198.48C302.52 193.16 309.1 188.26 316.94 187.7C321.84 187.28 325.9 188.82 329.54 191.9C338.5 199.6 342.42 214.72 343.68 225.92ZM339.76 220.18C337.94 210.24 332.76 194.14 321.7 191.2C318.48 190.5 314.84 190.92 311.62 192.18C306.3 194.14 301.82 198.2 297.9 202.26C304.62 213.18 309.66 227.32 311.9 239.92C312.04 241.04 311.06 241.88 310.08 241.88C309.52 241.88 308.96 241.46 308.82 240.62C308.82 240.2 308.68 239.92 308.54 239.5L308.12 237.4C303.78 220.18 293 187.14 271.72 187.14C253.1 187.14 247.08 216.4 245.26 230.68C243.72 241.46 243.3 252.8 244.98 263.72C246.8 274.92 251.42 289.76 265.14 289.76C268.22 289.62 271.3 288.22 273.54 285.98C284.6 276.04 289.64 252.52 290.06 238.1C290.06 236.98 290.9 236.56 291.74 236.56C292.44 236.56 293.28 236.98 293.28 238.1C293.28 240.06 293.28 241.74 293.28 243.7C293.84 257.98 298.46 288.5 317.08 288.5C334.02 288.5 340.04 260.64 340.88 247.76C341.58 238.52 341.3 229.28 339.76 220.18ZM433.761 247.2C435.861 249.72 436.421 252.66 436.001 255.88C435.021 263.58 430.121 269.88 424.241 274.78C411.781 285.28 392.461 292.28 376.221 292.56C367.681 292.7 359.001 291.44 351.441 287.52C344.301 283.74 339.121 276.88 338.421 268.76C337.721 261.9 340.801 255.6 345.561 250.7C351.581 244.54 361.941 239.64 370.201 236.56C359.281 235.44 345.981 231.1 343.461 218.78C343.041 215.56 343.181 212.2 344.441 209.12C348.641 198.2 365.161 191.48 375.381 188.96C384.341 186.86 393.721 185.74 402.821 185.88C407.301 186.02 411.921 186.58 416.541 187.14C423.261 188.12 431.801 190.08 433.621 197.78C434.321 201.42 432.781 205.34 430.261 208.14C427.601 211.22 423.681 212.9 419.901 214.44C414.441 216.4 408.841 218.08 403.241 219.62C409.401 220.46 417.941 223.96 418.361 231.24C418.501 233.9 417.381 236.42 415.841 238.38C414.721 239.78 413.741 240.76 412.481 241.74C415.701 241.46 419.061 241.6 422.141 241.88C426.481 242.44 430.821 243.7 433.761 247.2ZM432.781 252.94C431.941 247.2 426.341 245.24 421.301 244.96C418.361 244.68 415.561 244.68 412.621 244.82C408.001 245.1 403.661 246.22 399.461 247.62C394.141 249.72 388.821 251.96 383.921 254.76C382.101 255.88 380.841 253.36 382.241 252.24C387.141 248.46 393.861 246.22 399.601 244.26C404.081 242.44 409.541 240.76 413.041 236.7C414.581 235.16 415.561 232.92 415.141 230.82C414.581 228.44 412.761 226.62 410.661 225.5C406.741 223.12 402.261 222.14 397.641 222.14C391.341 222.14 384.761 223.82 379.161 225.64C378.461 225.78 378.041 225.64 377.761 225.36C376.221 224.94 375.801 222.56 377.621 222.28C388.401 220.18 399.041 217.52 409.541 214.44C413.881 213.18 417.941 212.06 421.721 210.24C425.081 208.7 428.301 206.6 429.841 203.1C431.101 200.02 430.541 196.66 428.021 194.42C425.641 192.32 422.421 191.34 419.621 190.78C411.221 189.1 402.821 188.82 394.561 189.24C380.281 189.94 359.141 194.56 349.901 206.46C346.401 210.8 345.281 216.68 347.941 222C353.261 232.22 368.521 233.62 378.461 234.18C380.141 234.32 380.561 236.84 378.741 237.4H378.461C377.761 237.54 376.921 237.68 376.221 237.96C365.161 241.6 353.541 245.94 345.841 255.04C341.781 259.94 340.661 266.24 342.481 272.4C346.121 285.7 362.921 289.62 374.961 289.62C391.761 289.62 412.621 282.06 424.801 270.16C429.141 265.82 433.621 259.38 432.781 252.94ZM527.431 190.36C529.671 195.4 528.971 201.28 528.271 206.46C525.891 220.04 520.291 232.92 514.691 245.38C504.891 265.96 488.231 283.46 465.831 289.62C460.231 291.16 454.071 292 448.191 291.86C443.151 291.72 437.971 290.88 433.491 288.5C428.591 285.84 425.931 281.22 426.491 275.62C427.891 261.2 445.391 255.18 457.291 252.66C455.051 252.24 452.671 251.68 450.431 250.7C439.651 245.8 435.031 234.04 435.311 222.7C435.591 210.24 442.031 196.8 452.811 189.94C455.611 188.12 458.971 186.72 462.331 186.72C468.771 186.72 472.131 192.6 474.091 198.06C476.051 203.94 476.611 210.8 476.331 217.1C476.191 218.5 476.051 219.76 475.911 221.16C478.711 215.28 481.791 209.54 485.151 203.94C490.891 194.7 501.531 183.64 512.871 182.52C518.611 181.96 525.051 184.76 527.431 190.36ZM471.851 237.96C471.851 237.96 471.711 238.1 471.711 238.24C471.291 238.8 470.591 239.36 469.751 239.08C469.191 238.94 468.351 237.96 468.631 237.12C469.331 235.58 470.031 234.04 470.451 232.5C472.411 226.2 473.391 219.62 473.251 212.9C473.251 206.46 471.431 189.94 462.191 189.94C457.851 189.8 453.791 192.74 450.711 195.54C441.611 203.8 436.851 217.24 438.951 229.28C440.631 239.5 445.531 246.22 455.611 249.16C461.491 250.84 467.231 250.42 473.251 250.14C477.311 249.86 481.511 249.58 485.571 249.44C487.671 249.3 487.671 252.52 485.571 252.52C485.291 252.52 485.011 252.52 484.591 252.52L482.771 252.66C482.491 252.66 482.071 252.66 481.791 252.66C479.551 252.8 477.311 253.08 474.931 253.22C474.791 253.36 474.511 253.36 474.091 253.36C473.811 253.36 473.531 253.36 473.111 253.5C460.791 254.34 438.251 258.82 431.671 269.88C429.711 273.24 428.871 278.14 430.831 281.78C434.051 287.66 444.131 288.78 450.431 288.78C471.151 288.78 489.631 276.74 501.811 260.5C512.311 246.64 525.751 215.98 525.751 199.18C525.751 191.48 522.531 185.74 514.271 185.74C510.631 185.74 506.851 187.14 503.491 189.24C489.071 198.2 480.811 217.24 474.371 232.22L473.111 234.88C472.971 235.3 472.831 235.86 472.551 236.28C472.271 236.7 472.131 237.12 471.851 237.96Z" fill="black"/>
<path d="M78.6797 68.8877H69.5244L69.4756 63.2725H76.8975C78.2321 63.2725 79.2982 63.126 80.0957 62.833C80.8932 62.5238 81.471 62.0762 81.8291 61.4902C82.2035 60.9043 82.3906 60.1719 82.3906 59.293C82.3906 58.2839 82.2035 57.4701 81.8291 56.8516C81.4548 56.2331 80.8607 55.7855 80.0469 55.5088C79.2493 55.2158 78.2158 55.0693 76.9463 55.0693H72.7471V84H64.1777V48.4531H76.9463C79.1436 48.4531 81.1048 48.6566 82.8301 49.0635C84.5553 49.4541 86.0202 50.0563 87.2246 50.8701C88.4453 51.6839 89.373 52.7093 90.0078 53.9463C90.6426 55.167 90.96 56.6074 90.96 58.2676C90.96 59.7161 90.6507 61.0752 90.0322 62.3447C89.4137 63.6143 88.3802 64.6478 86.9316 65.4453C85.4993 66.2266 83.5381 66.6335 81.0479 66.666L78.6797 68.8877ZM78.3379 84H67.4492L70.3789 77.4082H78.3379C79.5098 77.4082 80.4456 77.2292 81.1455 76.8711C81.8617 76.4967 82.3743 76.0085 82.6836 75.4062C83.0091 74.7878 83.1719 74.1042 83.1719 73.3555C83.1719 72.444 83.0173 71.6546 82.708 70.9873C82.415 70.32 81.943 69.8073 81.292 69.4492C80.641 69.0749 79.7702 68.8877 78.6797 68.8877H71.4775L71.5264 63.2725H80.1445L82.1465 65.5186C84.5228 65.4209 86.4027 65.7546 87.7861 66.5195C89.1859 67.2845 90.1868 68.2936 90.7891 69.5469C91.3913 70.8001 91.6924 72.1104 91.6924 73.4775C91.6924 75.805 91.1878 77.75 90.1787 79.3125C89.1859 80.875 87.6966 82.0469 85.7109 82.8281C83.7253 83.6094 81.2676 84 78.3379 84ZM116.74 48.4531H125.31V71.6709C125.31 74.4378 124.732 76.7816 123.576 78.7021C122.421 80.6064 120.801 82.0469 118.718 83.0234C116.634 84 114.185 84.4883 111.369 84.4883C108.586 84.4883 106.136 84 104.021 83.0234C101.921 82.0469 100.277 80.6064 99.0889 78.7021C97.917 76.7816 97.3311 74.4378 97.3311 71.6709V48.4531H105.925V71.6709C105.925 73.1357 106.136 74.332 106.56 75.2598C106.983 76.1712 107.601 76.8385 108.415 77.2617C109.229 77.6849 110.214 77.8965 111.369 77.8965C112.541 77.8965 113.526 77.6849 114.323 77.2617C115.121 76.8385 115.723 76.1712 116.13 75.2598C116.537 74.332 116.74 73.1357 116.74 71.6709V48.4531ZM148.917 48.4531V84H140.348V48.4531H148.917ZM159.61 48.4531V55.0693H129.898V48.4531H159.61ZM181.851 48.4531V84H173.281V48.4531H181.851ZM192.544 48.4531V55.0693H162.832V48.4531H192.544ZM221.645 77.4082V84H202.699V77.4082H221.645ZM205.751 48.4531V84H197.182V48.4531H205.751ZM219.203 62.5645V68.9365H202.699V62.5645H219.203ZM221.718 48.4531V55.0693H202.699V48.4531H221.718ZM226.16 48.4531H240.149C242.884 48.4531 245.26 48.86 247.278 49.6738C249.297 50.4876 250.851 51.6921 251.941 53.2871C253.048 54.8822 253.602 56.8516 253.602 59.1953C253.602 61.2298 253.284 62.9307 252.649 64.2979C252.015 65.665 251.128 66.7962 249.988 67.6914C248.865 68.5703 247.555 69.2946 246.058 69.8643L243.25 71.4512H231.507L231.458 64.835H240.149C241.24 64.835 242.143 64.6396 242.859 64.249C243.576 63.8584 244.113 63.305 244.471 62.5889C244.845 61.8564 245.032 60.9857 245.032 59.9766C245.032 58.9512 244.845 58.0723 244.471 57.3398C244.096 56.6074 243.543 56.0459 242.811 55.6553C242.094 55.2646 241.207 55.0693 240.149 55.0693H234.729V84H226.16V48.4531ZM245.618 84L237.757 68.2773L246.839 68.2285L254.798 83.6338V84H245.618ZM265.051 48.4531L271.594 63.8828L278.161 48.4531H287.39L275.964 71.2314V84H267.248V71.2314L255.798 48.4531H265.051ZM322.764 74.5518C322.764 73.9984 322.682 73.502 322.52 73.0625C322.357 72.6068 322.056 72.1836 321.616 71.793C321.177 71.4023 320.542 71.0117 319.712 70.6211C318.898 70.2142 317.824 69.791 316.489 69.3516C314.927 68.8307 313.421 68.2448 311.973 67.5938C310.524 66.9264 309.23 66.1533 308.091 65.2744C306.951 64.3792 306.048 63.3376 305.381 62.1494C304.714 60.945 304.38 59.5452 304.38 57.9502C304.38 56.4202 304.722 55.0449 305.405 53.8242C306.089 52.5872 307.041 51.5374 308.262 50.6748C309.499 49.7959 310.947 49.1286 312.607 48.6729C314.268 48.2008 316.082 47.9648 318.052 47.9648C320.656 47.9648 322.951 48.4206 324.937 49.332C326.938 50.2272 328.501 51.5049 329.624 53.165C330.763 54.8089 331.333 56.7539 331.333 59H322.812C322.812 58.1048 322.625 57.3154 322.251 56.6318C321.893 55.9482 321.348 55.4111 320.615 55.0205C319.883 54.6299 318.963 54.4346 317.856 54.4346C316.782 54.4346 315.879 54.5973 315.146 54.9229C314.414 55.2484 313.861 55.6878 313.486 56.2412C313.112 56.7783 312.925 57.3724 312.925 58.0234C312.925 58.5605 313.071 59.0488 313.364 59.4883C313.674 59.9115 314.105 60.3102 314.658 60.6846C315.228 61.0589 315.911 61.417 316.709 61.7588C317.523 62.1006 318.434 62.4342 319.443 62.7598C321.331 63.362 323.008 64.0374 324.473 64.7861C325.954 65.5186 327.199 66.3568 328.208 67.3008C329.233 68.2285 330.007 69.2865 330.527 70.4746C331.064 71.6628 331.333 73.0055 331.333 74.5029C331.333 76.098 331.024 77.514 330.405 78.751C329.787 79.988 328.9 81.0378 327.744 81.9004C326.589 82.7467 325.205 83.3896 323.594 83.8291C321.982 84.2686 320.184 84.4883 318.198 84.4883C316.375 84.4883 314.577 84.2604 312.803 83.8047C311.045 83.3327 309.45 82.6165 308.018 81.6562C306.585 80.6797 305.438 79.4346 304.575 77.9209C303.729 76.391 303.306 74.5762 303.306 72.4766H311.899C311.899 73.5182 312.038 74.3971 312.314 75.1133C312.591 75.8294 312.998 76.4072 313.535 76.8467C314.072 77.2699 314.731 77.5791 315.513 77.7744C316.294 77.9535 317.189 78.043 318.198 78.043C319.289 78.043 320.168 77.8883 320.835 77.5791C321.502 77.2536 321.991 76.8304 322.3 76.3096C322.609 75.7725 322.764 75.1865 322.764 74.5518ZM341 48.4531H347.982L355.917 73.1846L363.852 48.4531H370.834L358.749 84H353.085L341 48.4531ZM336.752 48.4531H343.979L345.321 75.6992V84H336.752V48.4531ZM367.855 48.4531H375.106V84H366.513V75.6992L367.855 48.4531ZM411.678 65.5186V66.959C411.678 69.6771 411.295 72.1185 410.53 74.2832C409.782 76.4316 408.715 78.2708 407.332 79.8008C405.949 81.3145 404.313 82.4782 402.425 83.292C400.537 84.0895 398.453 84.4883 396.175 84.4883C393.88 84.4883 391.78 84.0895 389.876 83.292C387.988 82.4782 386.344 81.3145 384.944 79.8008C383.561 78.2708 382.487 76.4316 381.722 74.2832C380.973 72.1185 380.599 69.6771 380.599 66.959V65.5186C380.599 62.8005 380.973 60.359 381.722 58.1943C382.487 56.0296 383.553 54.1904 384.92 52.6768C386.303 51.1468 387.939 49.9831 389.827 49.1855C391.731 48.3717 393.831 47.9648 396.126 47.9648C398.405 47.9648 400.488 48.3717 402.376 49.1855C404.28 49.9831 405.924 51.1468 407.308 52.6768C408.691 54.1904 409.765 56.0296 410.53 58.1943C411.295 60.359 411.678 62.8005 411.678 65.5186ZM402.986 66.959V65.4697C402.986 63.7119 402.832 62.1657 402.522 60.8311C402.229 59.4801 401.79 58.349 401.204 57.4375C400.618 56.526 399.894 55.8424 399.031 55.3867C398.185 54.9147 397.216 54.6787 396.126 54.6787C394.987 54.6787 393.994 54.9147 393.147 55.3867C392.301 55.8424 391.593 56.526 391.023 57.4375C390.454 58.349 390.022 59.4801 389.729 60.8311C389.453 62.1657 389.314 63.7119 389.314 65.4697V66.959C389.314 68.7005 389.453 70.2467 389.729 71.5977C390.022 72.9323 390.454 74.0635 391.023 74.9912C391.609 75.9189 392.326 76.6188 393.172 77.0908C394.035 77.5628 395.035 77.7988 396.175 77.7988C397.265 77.7988 398.234 77.5628 399.08 77.0908C399.926 76.6188 400.634 75.9189 401.204 74.9912C401.79 74.0635 402.229 72.9323 402.522 71.5977C402.832 70.2467 402.986 68.7005 402.986 66.959ZM447.199 65.5186V66.959C447.199 69.6771 446.817 72.1185 446.052 74.2832C445.303 76.4316 444.237 78.2708 442.854 79.8008C441.47 81.3145 439.834 82.4782 437.946 83.292C436.058 84.0895 433.975 84.4883 431.696 84.4883C429.401 84.4883 427.302 84.0895 425.397 83.292C423.509 82.4782 421.866 81.3145 420.466 79.8008C419.082 78.2708 418.008 76.4316 417.243 74.2832C416.494 72.1185 416.12 69.6771 416.12 66.959V65.5186C416.12 62.8005 416.494 60.359 417.243 58.1943C418.008 56.0296 419.074 54.1904 420.441 52.6768C421.825 51.1468 423.461 49.9831 425.349 49.1855C427.253 48.3717 429.353 47.9648 431.647 47.9648C433.926 47.9648 436.009 48.3717 437.897 49.1855C439.802 49.9831 441.446 51.1468 442.829 52.6768C444.213 54.1904 445.287 56.0296 446.052 58.1943C446.817 60.359 447.199 62.8005 447.199 65.5186ZM438.508 66.959V65.4697C438.508 63.7119 438.353 62.1657 438.044 60.8311C437.751 59.4801 437.312 58.349 436.726 57.4375C436.14 56.526 435.415 55.8424 434.553 55.3867C433.706 54.9147 432.738 54.6787 431.647 54.6787C430.508 54.6787 429.515 54.9147 428.669 55.3867C427.823 55.8424 427.115 56.526 426.545 57.4375C425.975 58.349 425.544 59.4801 425.251 60.8311C424.974 62.1657 424.836 63.7119 424.836 65.4697V66.959C424.836 68.7005 424.974 70.2467 425.251 71.5977C425.544 72.9323 425.975 74.0635 426.545 74.9912C427.131 75.9189 427.847 76.6188 428.693 77.0908C429.556 77.5628 430.557 77.7988 431.696 77.7988C432.787 77.7988 433.755 77.5628 434.602 77.0908C435.448 76.6188 436.156 75.9189 436.726 74.9912C437.312 74.0635 437.751 72.9323 438.044 71.5977C438.353 70.2467 438.508 68.7005 438.508 66.959ZM467.755 48.4531V84H459.186V48.4531H467.755ZM478.448 48.4531V55.0693H448.736V48.4531H478.448ZM507.036 62.5645V69.1562H488.799V62.5645H507.036ZM491.655 48.4531V84H483.086V48.4531H491.655ZM512.798 48.4531V84H504.253V48.4531H512.798Z" fill="black"/>
<path d="M542.657 120.132C541.032 124.682 537.699 127.705 534.099 130.809C532.205 132.442 529.95 133.636 528.149 135.373C526.642 136.826 530.171 136.382 531.083 136.596C539.635 138.595 544.473 146.12 547.058 153.875" stroke="black" stroke-width="3" stroke-linecap="round"/>
</svg>
