<svg width="360" height="159" viewBox="0 0 360 159" fill="none" xmlns="http://www.w3.org/2000/svg">
<path d="M55.5891 37.4817C59.2728 39.2314 61.6672 43.0072 61.5751 46.9672C61.5751 50.0983 60.2858 53.1374 58.6282 55.716C53.3789 63.6359 43.8013 67.5959 34.6842 68.4247C25.2907 69.2535 14.9764 67.3196 8.71411 59.5838C5.85925 56.0843 4.38577 51.5718 4.1095 47.1514C3.64904 41.0733 5.39879 35.2715 7.42482 29.6538C11.7532 17.9581 20.6861 2.94706 34.9604 2.94706C40.6702 2.94706 46.2878 5.43355 49.6031 10.3144C54.1156 17.0372 54.6682 26.7069 51.7212 34.0743C50.1557 33.9822 48.7743 33.8901 47.3008 33.8901C44.4459 33.8901 41.5911 34.0743 38.7362 34.3505C37.9074 34.3505 37.2627 34.4426 36.6181 34.7189C35.6051 32.6929 35.0525 30.3906 34.6842 28.3645C34.4079 26.6148 34.1316 24.7729 33.7632 23.0232C33.6711 22.5627 33.2107 22.2865 32.7502 22.2865C32.2898 22.2865 31.8293 22.5627 31.8293 23.0232C31.7372 23.2074 31.7372 23.3916 31.7372 23.6678C30.7242 29.1934 28.514 34.9952 25.0145 39.4156C22.528 41.4417 20.594 44.1123 20.594 47.5198C20.594 50.0983 21.607 52.4927 23.8173 53.8741C26.0275 55.1634 28.6982 55.5318 31.1846 55.4397C34.7762 55.3476 38.0916 54.1504 41.1306 52.5848C42.4199 51.9402 41.4069 50.1904 40.1176 50.8351C37.1706 52.4006 33.8553 53.4137 30.54 53.4137C28.514 53.4137 26.1196 53.1374 24.4619 51.8481C22.528 50.3746 22.3438 47.2435 23.0805 45.1254C23.7252 43.3756 25.1066 41.9942 26.7642 40.8891C28.7902 39.1393 32.9344 37.4817 35.4209 37.0212C35.513 37.0212 35.513 37.1133 35.513 37.2054C37.0786 39.784 40.0255 41.81 42.9725 42.2705C45.7352 42.6389 48.3138 41.81 50.3399 39.9682C51.3529 39.0473 52.1817 37.8501 52.8263 36.4687C53.8394 36.7449 54.7603 37.1133 55.5891 37.4817ZM41.6832 36.1924C44.6301 36.0082 47.7613 35.824 50.8003 36.1003C50.3399 36.837 49.9715 37.3896 49.511 37.9421C47.8534 39.5998 45.6431 40.6128 43.2487 40.2445C40.7622 39.784 38.9204 38.3105 37.7232 36.5608C39.0125 36.3766 40.3939 36.2845 41.6832 36.1924ZM71.3677 26.2464C76.1565 18.6028 87.576 3.22334 96.3247 3.22334C96.601 3.03915 96.7852 3.03915 97.1536 3.03915C97.2457 3.22334 97.4298 3.22334 97.5219 3.22334H97.7061C101.482 3.86798 102.403 7.2754 102.403 10.6828C101.758 23.5757 89.2336 40.797 80.4849 49.4537C80.4849 49.5458 80.3928 49.5458 80.3007 49.6379C79.4718 50.4667 80.5769 51.9402 81.59 51.2955C81.59 51.2955 81.6821 51.2034 81.7741 51.2034C86.1946 48.0723 90.9834 44.8491 96.2326 43.3756C100.008 42.2705 104.245 41.81 108.113 42.2705C111.704 42.6389 116.309 43.9281 118.335 47.2435C120.729 51.2955 117.69 56.4527 114.743 59.3997C108.573 65.9382 97.614 68.5168 88.9573 68.5168C79.4718 68.5168 69.8021 65.1094 65.658 55.9922C65.1975 54.703 64.7371 53.4137 64.5529 52.1244C64.4608 51.3876 64.4608 51.0193 64.3687 50.5588C63.3557 41.81 66.8552 33.5217 71.3677 26.2464ZM150.661 3.03915C165.119 3.03915 171.75 17.866 171.75 30.5748C171.75 33.8901 171.289 37.3896 170.46 40.797C166.685 57.0974 154.62 68.7931 142.556 68.7931C135.557 68.7931 130.124 65.0173 126.44 59.2155C121.744 51.8481 120.454 41.2575 122.849 31.0352C126.717 14.7349 138.596 3.03915 150.661 3.03915ZM149.187 26.799C145.688 32.4166 142.925 38.3105 140.991 44.6649C140.807 45.4016 141.359 45.8621 142.004 45.8621C142.464 45.8621 142.833 45.6779 142.925 45.1254C144.859 39.0473 147.529 33.2454 150.845 27.812C151.397 27.0753 150.661 26.2464 150.016 26.2464C149.648 26.2464 149.371 26.4306 149.187 26.799ZM227.309 39.5077C227.954 40.9812 228.138 42.6389 228.046 44.2965C227.862 47.796 226.112 51.4797 224.178 54.4267C221.6 58.3866 217.916 61.702 213.68 64.1885C208.707 67.0433 202.997 68.4247 197.103 68.4247C192.498 68.4247 187.433 67.5038 183.842 64.6489C178.408 60.4127 177.395 53.5058 178.04 47.2435C178.408 43.5598 179.698 39.5077 181.171 35.9161C182.46 32.785 184.21 29.7459 186.328 26.8911C186.42 26.799 186.42 26.799 186.42 26.799C188.262 24.2204 190.288 21.9181 192.59 19.892C193.788 18.7869 194.985 17.6818 196.366 16.7609C196.827 16.3925 197.011 15.84 196.735 15.3795C196.458 14.9191 195.722 14.6428 195.261 14.9191C191.393 17.7739 188.078 21.2734 185.131 24.9571C181.816 23.7599 177.948 22.1023 175.645 19.4316C174.264 17.866 173.896 16.2084 174.54 14.3665C175.645 11.5116 178.685 9.20934 181.447 7.64377C184.486 5.9861 188.078 4.881 191.485 4.14426C196.458 3.13124 201.616 2.94706 206.681 3.49961C211.377 4.05217 216.534 5.15727 220.679 7.55167C224.27 9.57771 227.678 13.1693 227.493 17.4056C227.309 21.826 223.718 25.5097 220.218 28.0883C216.534 30.851 212.298 33.0613 208.062 34.811C206.773 35.3636 205.391 35.824 204.102 36.1924C202.905 36.6529 203.457 38.6789 204.747 38.2184C207.417 37.2975 210.364 36.3766 213.311 35.824C216.074 35.2715 219.113 34.811 221.876 35.3636C224.27 36.0082 226.296 37.2975 227.309 39.5077ZM206.588 24.2204C207.233 21.4576 208.246 18.5107 209.259 15.7479C209.443 15.2874 209.075 14.6428 208.522 14.4586C207.97 14.3665 207.417 14.6428 207.233 15.1953C206.128 17.9581 205.207 20.813 204.562 23.7599C204.102 25.0492 206.22 25.6018 206.588 24.2204ZM199.129 45.6779C198.024 49.0853 197.471 52.769 197.011 56.2685C196.919 56.8211 197.563 57.2815 198.024 57.2815C198.761 57.2815 199.037 56.8211 199.129 56.2685C199.589 52.8611 200.142 49.4537 201.155 46.2305C201.616 44.8491 199.497 44.3886 199.129 45.6779ZM283.416 42.9151C283.601 47.2435 283.416 51.6639 282.403 55.9002C281.114 60.781 278.72 65.5699 272.918 65.5699C265.274 65.5699 261.314 57.742 261.13 50.9272C261.038 49.3616 261.13 47.9802 261.314 46.4146V45.9542C263.524 45.8621 265.55 46.3225 267.392 47.2435C268.59 47.8881 269.603 46.1384 268.497 45.5858C266.471 44.4807 264.169 43.9281 261.867 43.9281C258.736 43.9281 255.512 44.9412 252.934 46.5988C251.829 47.3356 252.842 49.0853 254.039 48.3486C255.512 47.3356 257.446 46.5988 259.288 46.2305C257.262 52.9532 250.263 69.8982 242.527 70.8191C240.041 71.0033 237.186 69.9903 235.252 68.5168C233.41 67.1354 232.213 65.2015 231.476 62.9913C229.911 58.2946 230.74 52.9532 231.845 48.0723C232.397 45.6779 233.134 43.2835 233.963 40.9812C234.239 39.9682 234.607 39.0473 234.976 38.1263C235.068 37.758 235.344 37.2975 235.436 36.9291C235.62 36.4687 235.62 36.5608 235.805 36.1003C235.897 35.9161 236.081 35.5477 236.173 35.3636C239.949 26.9832 244.369 18.6948 250.724 12.0642C254.499 7.92004 260.117 3.40752 266.011 3.40752C279.272 3.40752 283.232 33.5217 283.416 42.9151ZM263.064 21.7339C262.051 25.6939 261.406 29.6538 261.038 33.6138C260.946 34.1664 261.498 34.6268 262.051 34.6268C262.604 34.6268 262.972 34.1664 262.972 33.6138C263.432 29.7459 263.985 25.9701 265.09 22.3785C265.274 21.5497 264.63 21.0892 263.985 21.0892C263.617 21.0892 263.248 21.2734 263.064 21.7339ZM293.231 26.2464C298.02 18.6028 309.44 3.22334 318.188 3.22334C318.465 3.03915 318.649 3.03915 319.017 3.03915C319.109 3.22334 319.293 3.22334 319.386 3.22334H319.57C323.345 3.86798 324.266 7.2754 324.266 10.6828C323.622 23.5757 311.097 40.797 302.348 49.4537C302.348 49.5458 302.256 49.5458 302.164 49.6379C301.335 50.4667 302.441 51.9402 303.454 51.2955C303.454 51.2955 303.546 51.2034 303.638 51.2034C308.058 48.0723 312.847 44.8491 318.096 43.3756C321.872 42.2705 326.108 41.81 329.976 42.2705C333.568 42.6389 338.172 43.9281 340.198 47.2435C342.593 51.2955 339.554 56.4527 336.607 59.3997C330.437 65.9382 319.478 68.5168 310.821 68.5168C301.335 68.5168 291.666 65.1094 287.522 55.9922C287.061 54.703 286.601 53.4137 286.416 52.1244C286.324 51.3876 286.324 51.0193 286.232 50.5588C285.219 41.81 288.719 33.5217 293.231 26.2464Z" fill="#FF90E8"/>
<path d="M57.0656 37.4817C60.7493 39.2314 63.1437 43.0072 63.0516 46.9672C63.0516 50.0983 61.7623 53.1374 60.1047 55.716C54.8554 63.6359 45.2778 67.5959 36.1607 68.4247C26.7673 69.2535 16.4529 67.3196 10.1906 59.5838C7.33577 56.0843 5.86229 51.5718 5.58601 47.1514C5.12555 41.0733 6.87531 35.2715 8.90134 29.6538C13.2297 17.9581 22.1626 2.94706 36.4369 2.94706C42.1467 2.94706 47.7643 5.43355 51.0796 10.3144C55.5922 17.0372 56.1447 26.7069 53.1978 34.0743C51.6322 33.9822 50.2508 33.8901 48.7773 33.8901C45.9225 33.8901 43.0676 34.0743 40.2127 34.3505C39.3839 34.3505 38.7393 34.4426 38.0946 34.7189C37.0816 32.6929 36.529 30.3906 36.1607 28.3645C35.8844 26.6148 35.6081 24.7729 35.2397 23.0232C35.1477 22.5627 34.6872 22.2865 34.2267 22.2865C33.7663 22.2865 33.3058 22.5627 33.3058 23.0232C33.2137 23.2074 33.2137 23.3916 33.2137 23.6678C32.2007 29.1934 29.9905 34.9952 26.491 39.4156C24.0045 41.4417 22.0705 44.1123 22.0705 47.5198C22.0705 50.0983 23.0836 52.4927 25.2938 53.8741C27.504 55.1634 30.1747 55.5318 32.6612 55.4397C36.2528 55.3476 39.5681 54.1504 42.6071 52.5848C43.8964 51.9402 42.8834 50.1904 41.5941 50.8351C38.6472 52.4006 35.3318 53.4137 32.0165 53.4137C29.9905 53.4137 27.5961 53.1374 25.9384 51.8481C24.0045 50.3746 23.8203 47.2435 24.557 45.1254C25.2017 43.3756 26.5831 41.9942 28.2407 40.8891C30.2668 39.1393 34.4109 37.4817 36.8974 37.0212C36.9895 37.0212 36.9895 37.1133 36.9895 37.2054C38.5551 39.784 41.502 41.81 44.449 42.2705C47.2118 42.6389 49.7903 41.81 51.8164 39.9682C52.8294 39.0473 53.6582 37.8501 54.3029 36.4687C55.3159 36.7449 56.2368 37.1133 57.0656 37.4817ZM43.1597 36.1924C46.1066 36.0082 49.2378 35.824 52.2768 36.1003C51.8164 36.837 51.448 37.3896 50.9875 37.9421C49.3299 39.5998 47.1197 40.6128 44.7253 40.2445C42.2388 39.784 40.3969 38.3105 39.1997 36.5608C40.489 36.3766 41.8704 36.2845 43.1597 36.1924ZM72.8442 26.2464C77.633 18.6028 89.0525 3.22334 97.8013 3.22334C98.0775 3.03915 98.2617 3.03915 98.6301 3.03915C98.7222 3.22334 98.9064 3.22334 98.9984 3.22334H99.1826C102.958 3.86798 103.879 7.2754 103.879 10.6828C103.235 23.5757 90.7101 40.797 81.9614 49.4537C81.9614 49.5458 81.8693 49.5458 81.7772 49.6379C80.9484 50.4667 82.0535 51.9402 83.0665 51.2955C83.0665 51.2955 83.1586 51.2034 83.2507 51.2034C87.6711 48.0723 92.4599 44.8491 97.7092 43.3756C101.485 42.2705 105.721 41.81 109.589 42.2705C113.181 42.6389 117.785 43.9281 119.811 47.2435C122.206 51.2955 119.167 56.4527 116.22 59.3997C110.05 65.9382 99.0905 68.5168 90.4339 68.5168C80.9484 68.5168 71.2787 65.1094 67.1345 55.9922C66.674 54.703 66.2136 53.4137 66.0294 52.1244C65.9373 51.3876 65.9373 51.0193 65.8452 50.5588C64.8322 41.81 68.3317 33.5217 72.8442 26.2464ZM152.137 3.03915C166.596 3.03915 173.226 17.866 173.226 30.5748C173.226 33.8901 172.766 37.3896 171.937 40.797C168.161 57.0974 156.097 68.7931 144.033 68.7931C137.034 68.7931 131.6 65.0173 127.917 59.2155C123.22 51.8481 121.931 41.2575 124.325 31.0352C128.193 14.7349 140.073 3.03915 152.137 3.03915ZM150.664 26.799C147.164 32.4166 144.401 38.3105 142.467 44.6649C142.283 45.4016 142.836 45.8621 143.48 45.8621C143.941 45.8621 144.309 45.6779 144.401 45.1254C146.335 39.0473 149.006 33.2454 152.321 27.812C152.874 27.0753 152.137 26.2464 151.492 26.2464C151.124 26.2464 150.848 26.4306 150.664 26.799ZM228.786 39.5077C229.43 40.9812 229.615 42.6389 229.523 44.2965C229.338 47.796 227.589 51.4797 225.655 54.4267C223.076 58.3866 219.392 61.702 215.156 64.1885C210.183 67.0433 204.473 68.4247 198.579 68.4247C193.975 68.4247 188.91 67.5038 185.318 64.6489C179.885 60.4127 178.872 53.5058 179.516 47.2435C179.885 43.5598 181.174 39.5077 182.648 35.9161C183.937 32.785 185.687 29.7459 187.805 26.8911C187.897 26.799 187.897 26.799 187.897 26.799C189.739 24.2204 191.765 21.9181 194.067 19.892C195.264 18.7869 196.461 17.6818 197.843 16.7609C198.303 16.3925 198.487 15.84 198.211 15.3795C197.935 14.9191 197.198 14.6428 196.738 14.9191C192.87 17.7739 189.554 21.2734 186.607 24.9571C183.292 23.7599 179.424 22.1023 177.122 19.4316C175.741 17.866 175.372 16.2084 176.017 14.3665C177.122 11.5116 180.161 9.20934 182.924 7.64377C185.963 5.9861 189.554 4.881 192.962 4.14426C197.935 3.13124 203.092 2.94706 208.157 3.49961C212.854 4.05217 218.011 5.15727 222.155 7.55167C225.747 9.57771 229.154 13.1693 228.97 17.4056C228.786 21.826 225.194 25.5097 221.695 28.0883C218.011 30.851 213.775 33.0613 209.538 34.811C208.249 35.3636 206.868 35.824 205.579 36.1924C204.381 36.6529 204.934 38.6789 206.223 38.2184C208.894 37.2975 211.841 36.3766 214.788 35.824C217.551 35.2715 220.59 34.811 223.352 35.3636C225.747 36.0082 227.773 37.2975 228.786 39.5077ZM208.065 24.2204C208.71 21.4576 209.723 18.5107 210.736 15.7479C210.92 15.2874 210.551 14.6428 209.999 14.4586C209.446 14.3665 208.894 14.6428 208.71 15.1953C207.605 17.9581 206.684 20.813 206.039 23.7599C205.579 25.0492 207.697 25.6018 208.065 24.2204ZM200.606 45.6779C199.5 49.0853 198.948 52.769 198.487 56.2685C198.395 56.8211 199.04 57.2815 199.5 57.2815C200.237 57.2815 200.513 56.8211 200.606 56.2685C201.066 52.8611 201.619 49.4537 202.632 46.2305C203.092 44.8491 200.974 44.3886 200.606 45.6779ZM284.893 42.9151C285.077 47.2435 284.893 51.6639 283.88 55.9002C282.591 60.781 280.196 65.5699 274.394 65.5699C266.751 65.5699 262.791 57.742 262.607 50.9272C262.514 49.3616 262.607 47.9802 262.791 46.4146V45.9542C265.001 45.8621 267.027 46.3225 268.869 47.2435C270.066 47.8881 271.079 46.1384 269.974 45.5858C267.948 44.4807 265.646 43.9281 263.343 43.9281C260.212 43.9281 256.989 44.9412 254.41 46.5988C253.305 47.3356 254.318 49.0853 255.515 48.3486C256.989 47.3356 258.923 46.5988 260.765 46.2305C258.739 52.9532 251.74 69.8982 244.004 70.8191C241.517 71.0033 238.663 69.9903 236.729 68.5168C234.887 67.1354 233.69 65.2015 232.953 62.9913C231.387 58.2946 232.216 52.9532 233.321 48.0723C233.874 45.6779 234.61 43.2835 235.439 40.9812C235.716 39.9682 236.084 39.0473 236.452 38.1263C236.544 37.758 236.821 37.2975 236.913 36.9291C237.097 36.4687 237.097 36.5608 237.281 36.1003C237.373 35.9161 237.557 35.5477 237.65 35.3636C241.425 26.9832 245.846 18.6948 252.2 12.0642C255.976 7.92004 261.594 3.40752 267.487 3.40752C280.749 3.40752 284.709 33.5217 284.893 42.9151ZM264.54 21.7339C263.527 25.6939 262.883 29.6538 262.514 33.6138C262.422 34.1664 262.975 34.6268 263.527 34.6268C264.08 34.6268 264.448 34.1664 264.448 33.6138C264.909 29.7459 265.461 25.9701 266.567 22.3785C266.751 21.5497 266.106 21.0892 265.461 21.0892C265.093 21.0892 264.725 21.2734 264.54 21.7339ZM294.708 26.2464C299.497 18.6028 310.916 3.22334 319.665 3.22334C319.941 3.03915 320.125 3.03915 320.494 3.03915C320.586 3.22334 320.77 3.22334 320.862 3.22334H321.046C324.822 3.86798 325.743 7.2754 325.743 10.6828C325.098 23.5757 312.574 40.797 303.825 49.4537C303.825 49.5458 303.733 49.5458 303.641 49.6379C302.812 50.4667 303.917 51.9402 304.93 51.2955C304.93 51.2955 305.022 51.2034 305.114 51.2034C309.535 48.0723 314.323 44.8491 319.573 43.3756C323.349 42.2705 327.585 41.81 331.453 42.2705C335.044 42.6389 339.649 43.9281 341.675 47.2435C344.069 51.2955 341.03 56.4527 338.083 59.3997C331.913 65.9382 320.954 68.5168 312.297 68.5168C302.812 68.5168 293.142 65.1094 288.998 55.9922C288.538 54.703 288.077 53.4137 287.893 52.1244C287.801 51.3876 287.801 51.0193 287.709 50.5588C286.696 41.81 290.195 33.5217 294.708 26.2464Z" fill="white"/>
<path d="M60.7463 38.771C62.1584 40.4286 63.0179 42.2091 63.3249 44.1123C63.6932 45.9542 63.6932 47.8267 63.3249 49.73C62.9565 51.6332 62.2812 53.4751 61.2988 55.2555C60.3165 57.036 59.1807 58.6322 57.8914 60.0443C56.0496 62.0703 53.9315 63.8201 51.5371 65.2936C49.204 66.7057 46.7176 67.8415 44.0776 68.701C41.4376 69.4991 38.7362 70.0824 35.9734 70.4507C33.2107 70.7577 30.4786 70.8191 27.7772 70.6349C25.3214 70.5121 22.8963 70.1131 20.5019 69.4377C18.1075 68.701 15.8666 67.7187 13.7792 66.4908C11.6918 65.2629 9.81922 63.7587 8.16156 61.9782C6.5039 60.1364 5.15321 58.049 4.1095 55.716C3.00439 53.1988 2.32905 50.6202 2.08347 47.9802C1.89928 45.2788 1.99137 42.5775 2.35974 39.8761C2.66672 38.0956 3.03509 36.3766 3.46485 34.7189C3.95601 33.0613 4.53926 31.4343 5.21461 29.838C6.19692 26.7683 7.51691 23.6064 9.17458 20.3525C10.8936 17.0986 12.889 14.1209 15.1606 11.4196C17.4936 8.65678 20.1029 6.32378 22.9884 4.42054C25.874 2.51729 29.0358 1.35079 32.4739 0.921024C34.8683 0.61405 37.3548 0.767537 39.9334 1.38149C42.512 1.99544 44.8143 3.03915 46.8403 4.51263C48.6208 5.80192 50.125 7.36749 51.3529 9.20934C52.5808 11.0512 53.5324 13.0465 54.2077 15.1953C55.3128 19.0632 55.7426 22.9618 55.497 26.8911C55.3128 28.1804 55.098 29.5003 54.8524 30.851C54.6068 32.1403 54.2384 33.4296 53.7473 34.7189C55.0366 35.0259 56.2952 35.517 57.5231 36.1924C58.751 36.8063 59.8254 37.6659 60.7463 38.771ZM55.5891 37.4817C54.6068 37.0519 53.6859 36.7143 52.8263 36.4687C52.151 37.8808 51.3222 39.0473 50.3399 39.9682C48.2524 41.8714 45.7966 42.6389 42.9725 42.2705C41.499 42.0249 40.0869 41.4417 38.7362 40.5207C37.3855 39.5998 36.3111 38.4947 35.513 37.2054C35.513 37.0826 35.4823 37.0212 35.4209 37.0212C34.8069 37.144 34.1009 37.3282 33.3028 37.5738C32.5046 37.8194 31.7065 38.1263 30.9084 38.4947C30.1102 38.8017 29.3428 39.17 28.6061 39.5998C27.8693 40.0296 27.2554 40.4593 26.7642 40.8891C25.9047 41.4417 25.1372 42.0863 24.4619 42.823C23.848 43.4984 23.3875 44.2658 23.0805 45.1254C22.7122 46.1691 22.5894 47.3663 22.7122 48.717C22.8963 50.0676 23.4796 51.1114 24.4619 51.8481C25.3214 52.5234 26.2731 52.9532 27.3168 53.1374C28.4219 53.3216 29.4963 53.4137 30.54 53.4137C32.1977 53.4137 33.8246 53.1988 35.4209 52.769C37.0786 52.2779 38.6441 51.6332 40.1176 50.8351C40.4246 50.6509 40.7009 50.6202 40.9464 50.743C41.2534 50.8658 41.4683 51.05 41.5911 51.2955C41.7139 51.4797 41.7446 51.6946 41.6832 51.9402C41.6218 52.1858 41.4376 52.4006 41.1306 52.5848C39.5957 53.383 37.9995 54.0583 36.3418 54.6109C34.6842 55.102 32.9651 55.3783 31.1846 55.4397C29.9567 55.5011 28.6982 55.4397 27.4089 55.2555C26.1196 55.0099 24.9224 54.5495 23.8173 53.8741C22.7122 53.1988 21.8833 52.3086 21.3308 51.2034C20.8396 50.0369 20.594 48.809 20.594 47.5198C20.594 45.8007 21.0238 44.2965 21.8833 43.0072C22.7428 41.6565 23.7866 40.4593 25.0145 39.4156C26.7949 37.2054 28.2377 34.7189 29.3428 31.9561C30.4479 29.1934 31.246 26.4306 31.7372 23.6678C31.7372 23.3609 31.7679 23.146 31.8293 23.0232C31.8293 22.532 32.1363 22.2865 32.7502 22.2865C33.3028 22.2865 33.6404 22.532 33.7632 23.0232C33.9474 23.8827 34.1009 24.7729 34.2237 25.6939C34.4079 26.6148 34.5614 27.505 34.6842 28.3645C34.8683 29.4083 35.1139 30.4827 35.4209 31.5878C35.7279 32.6315 36.1269 33.6752 36.6181 34.7189C37.1706 34.4733 37.8767 34.3505 38.7362 34.3505C40.1483 34.2278 41.5604 34.1357 42.9725 34.0743C44.4459 33.9515 45.8887 33.8901 47.3008 33.8901C48.0375 33.8901 48.7436 33.9208 49.4189 33.9822C50.1557 33.9822 50.9231 34.0129 51.7212 34.0743C52.458 32.2324 52.9798 30.2678 53.2868 28.1804C53.5938 26.0929 53.6552 24.0055 53.471 21.9181C53.2868 19.8307 52.857 17.8046 52.1817 15.84C51.5678 13.814 50.7082 11.9721 49.6031 10.3144C47.9455 7.85865 45.7966 6.0168 43.1567 4.7889C40.5781 3.56101 37.846 2.94706 34.9604 2.94706C31.3995 2.94706 28.1456 3.80659 25.1986 5.52564C22.3131 7.1833 19.7345 9.33213 17.4629 11.9721C15.1913 14.5507 13.2266 17.4056 11.569 20.5367C9.91131 23.6678 8.52993 26.7069 7.42482 29.6538C6.38111 32.478 5.49088 35.3329 4.75414 38.2184C4.0788 41.104 3.86392 44.0816 4.1095 47.1514C4.23229 49.3616 4.66205 51.5411 5.39879 53.6899C6.19692 55.8388 7.30203 57.8034 8.71411 59.5838C10.3104 61.4871 12.0908 63.0834 14.0555 64.3727C16.0815 65.6005 18.2303 66.5522 20.5019 67.2275C22.7735 67.9029 25.1066 68.3326 27.501 68.5168C29.9567 68.6396 32.3511 68.6089 34.6842 68.4247C36.9558 68.2405 39.2274 67.8415 41.499 67.2275C43.832 66.6136 46.0422 65.7847 48.1296 64.741C50.2171 63.6973 52.151 62.4387 53.9315 60.9652C55.7733 59.4304 57.3389 57.6806 58.6282 55.716C59.4877 54.4267 60.1937 53.0453 60.7463 51.5718C61.2988 50.0983 61.5751 48.5635 61.5751 46.9672C61.6365 45.0026 61.1147 43.1607 60.0096 41.4417C58.9044 39.6612 57.431 38.3412 55.5891 37.4817ZM32.6581 28.4566C32.167 29.9301 31.6144 31.4036 31.0005 32.8771C30.4479 34.2892 29.8033 35.6705 29.0665 37.0212C30.233 36.4073 31.3688 35.9775 32.4739 35.7319C32.9651 35.425 33.6097 35.2101 34.4079 35.0873C34.2237 34.7189 34.0395 34.2585 33.8553 33.7059C33.6711 33.092 33.487 32.478 33.3028 31.8641C33.1186 31.1887 32.9651 30.5748 32.8423 30.0222C32.7195 29.4083 32.6581 28.8864 32.6581 28.4566ZM41.6832 36.1924C41.0078 36.2538 40.3325 36.3152 39.6571 36.3766C39.0432 36.3766 38.3985 36.438 37.7232 36.5608C38.3372 37.4203 39.1046 38.1877 40.0255 38.8631C40.9464 39.5384 42.0208 39.9989 43.2487 40.2445C44.4766 40.4286 45.6124 40.3059 46.6562 39.8761C47.6999 39.4463 48.6515 38.8017 49.511 37.9421C49.8794 37.5124 50.3092 36.8984 50.8003 36.1003C49.2654 35.9775 47.7306 35.9468 46.1957 36.0082C44.6608 36.0082 43.1567 36.0696 41.6832 36.1924ZM121.098 49.2695C121.282 50.5588 121.19 51.8481 120.821 53.1374C120.514 54.4267 120.023 55.6546 119.348 56.8211C118.672 57.9876 117.874 59.0927 116.953 60.1364C116.094 61.1187 115.204 61.9782 114.283 62.715C112.564 64.0043 110.691 65.1708 108.665 66.2145C106.639 67.1968 104.521 68.0256 102.311 68.701C100.101 69.3149 97.8596 69.8061 95.588 70.1745C93.3778 70.4814 91.1983 70.6349 89.0494 70.6349C86.1639 70.6349 83.309 70.328 80.4849 69.714C77.6607 69.0387 75.0514 68.0256 72.657 66.675C70.2626 65.2629 68.1752 63.4824 66.3947 61.3336C64.6757 59.1848 63.4478 56.6062 62.711 53.5978C62.5882 52.9225 62.4961 52.2165 62.4348 51.4797C62.3734 50.6816 62.2813 49.9448 62.1585 49.2695C61.9743 46.6295 62.1278 44.0509 62.6189 41.5337C63.1715 39.0166 63.9389 36.5608 64.9212 34.1664C65.965 31.772 67.1315 29.4697 68.4208 27.2594C69.7714 24.9878 71.1835 22.8083 72.657 20.7209C73.8849 19.0632 75.3891 17.0986 77.1695 14.827C78.95 12.5554 80.8839 10.4065 82.9713 8.38051C85.1202 6.29308 87.3611 4.54333 89.6941 3.13124C92.0885 1.71916 94.4522 1.01312 96.7852 1.01312C97.6447 1.01312 98.4122 1.13591 99.0875 1.38149C100.193 1.74986 101.114 2.30241 101.85 3.03915C102.587 3.77589 103.14 4.63542 103.508 5.61773C103.876 6.53866 104.122 7.55168 104.245 8.65679C104.367 9.7005 104.367 10.7442 104.245 11.7879C103.999 14.6735 103.324 17.6511 102.219 20.7209C101.114 23.7292 99.7628 26.6762 98.1666 29.5617C96.5703 32.4473 94.8206 35.2408 92.9173 37.9421C91.0141 40.5821 89.1415 42.9765 87.2997 45.1254C90.3694 43.4063 93.3164 42.1477 96.1405 41.3496C98.9647 40.5514 102.127 40.1524 105.626 40.1524C107.1 40.1524 108.665 40.3059 110.323 40.6128C112.042 40.9198 113.638 41.4417 115.112 42.1784C116.646 42.8537 117.966 43.7747 119.072 44.9412C120.177 46.1077 120.852 47.5504 121.098 49.2695ZM71.3677 26.2464C69.0961 29.9301 67.2236 33.798 65.7501 37.8501C64.338 41.9021 63.8775 46.1384 64.3687 50.5588C64.4301 50.8044 64.4608 51.05 64.4608 51.2955C64.4608 51.4797 64.4915 51.756 64.5529 52.1244C64.6757 52.7997 64.8292 53.4444 65.0133 54.0583C65.1975 54.6723 65.4124 55.3169 65.658 55.9922C66.7017 58.2639 68.0524 60.1978 69.71 61.7941C71.3677 63.3903 73.2096 64.6796 75.2356 65.6619C77.323 66.6443 79.5332 67.381 81.8662 67.8722C84.1992 68.3019 86.5629 68.5168 88.9573 68.5168C91.1062 68.5168 93.3778 68.3633 95.7722 68.0563C98.1666 67.688 100.5 67.1354 102.771 66.3987C105.104 65.6619 107.284 64.741 109.31 63.6359C111.397 62.4694 113.208 61.0573 114.743 59.3997C115.48 58.6629 116.186 57.8034 116.861 56.8211C117.598 55.8388 118.151 54.8257 118.519 53.782C118.949 52.6769 119.164 51.5718 119.164 50.4667C119.225 49.3002 118.949 48.2258 118.335 47.2435C117.844 46.3839 117.199 45.6779 116.401 45.1254C115.603 44.5114 114.743 44.0202 113.822 43.6519C112.901 43.2835 111.95 42.9765 110.967 42.7309C109.985 42.4854 109.033 42.3319 108.113 42.2705C106.148 42.0249 104.153 42.0249 102.127 42.2705C100.101 42.4547 98.1359 42.823 96.2326 43.3756C93.5927 44.1123 91.0755 45.2174 88.6811 46.6909C86.2867 48.103 83.9844 49.6072 81.7741 51.2034C81.6514 51.2648 81.59 51.2955 81.59 51.2955C81.0988 51.6025 80.6383 51.5104 80.2086 51.0193C79.8402 50.5281 79.8709 50.0676 80.3007 49.6379C80.4235 49.5151 80.4849 49.4537 80.4849 49.4537C82.6951 47.3049 85.0281 44.6956 87.4839 41.6258C90.0011 38.4947 92.3341 35.1794 94.4829 31.6799C96.6317 28.1804 98.4429 24.6195 99.9163 20.9972C101.39 17.3135 102.219 13.8753 102.403 10.6828C102.403 9.82328 102.341 8.99445 102.219 8.19632C102.096 7.33679 101.85 6.56935 101.482 5.89401C101.114 5.21867 100.622 4.66612 100.008 4.23635C99.3945 3.74519 98.627 3.40752 97.7061 3.22334H97.5219C97.3377 3.22334 97.215 3.16194 97.1536 3.03915C96.7852 3.03915 96.5089 3.10054 96.3247 3.22334C94.1145 3.22334 91.7815 4.08286 89.3257 5.80192C86.9313 7.45958 84.5983 9.48561 82.3267 11.88C80.0551 14.2744 77.9677 16.7916 76.0644 19.4316C74.1612 22.0716 72.5956 24.3432 71.3677 26.2464ZM168.619 11.3275C171.136 15.2567 172.701 19.8614 173.315 25.1413C173.991 30.3599 173.684 35.7012 172.394 41.1654C171.596 44.6035 170.307 48.0723 168.526 51.5718C166.807 55.0713 164.659 58.2639 162.08 61.1494C159.563 63.9736 156.647 66.3066 153.331 68.1484C150.016 69.9289 146.424 70.8191 142.556 70.8191C138.811 70.8191 135.373 69.8675 132.242 67.9643C129.172 66.061 126.655 63.5438 124.69 60.4127C122.173 56.4834 120.577 51.9095 119.902 46.6909C119.226 41.411 119.533 36.0082 120.823 30.4827C121.866 26.185 123.401 22.2251 125.427 18.6028C127.453 14.9805 129.786 11.88 132.426 9.30143C135.128 6.66145 138.044 4.60472 141.175 3.13124C144.306 1.65776 147.499 0.921024 150.753 0.921024C154.559 0.921024 157.967 1.87265 160.975 3.77589C163.983 5.67913 166.531 8.19632 168.619 11.3275ZM150.661 3.03915C147.652 3.03915 144.675 3.74519 141.728 5.15727C138.842 6.50796 136.141 8.4419 133.623 10.9591C131.168 13.4149 128.988 16.3618 127.085 19.8C125.243 23.2381 123.831 26.9832 122.849 31.0352C122.235 33.6138 121.866 36.1924 121.744 38.771C121.621 41.2882 121.713 43.7747 122.02 46.2305C122.327 48.6249 122.849 50.9272 123.585 53.1374C124.322 55.3476 125.274 57.3736 126.44 59.2155C128.282 62.1624 130.554 64.4954 133.255 66.2145C135.956 67.9336 139.057 68.7931 142.556 68.7931C145.565 68.7931 148.542 68.1177 151.489 66.7671C154.436 65.355 157.138 63.421 159.593 60.9652C162.111 58.448 164.321 55.4704 166.224 52.0323C168.127 48.5942 169.539 44.8491 170.46 40.797C171.32 37.2361 171.75 33.8287 171.75 30.5748C171.75 27.3822 171.32 24.159 170.46 20.9051C169.662 17.6511 168.373 14.7042 166.592 12.0642C164.873 9.42422 162.694 7.2754 160.054 5.61773C157.414 3.89868 154.283 3.03915 150.661 3.03915ZM149.187 26.799C149.371 26.4306 149.648 26.2464 150.016 26.2464C150.323 26.2464 150.599 26.4306 150.845 26.799C151.152 27.1059 151.152 27.4436 150.845 27.812C147.468 33.3375 144.828 39.1087 142.925 45.1254C142.863 45.6165 142.556 45.8621 142.004 45.8621C141.697 45.8621 141.421 45.77 141.175 45.5858C140.929 45.3402 140.868 45.0333 140.991 44.6649C141.973 41.4724 143.14 38.4026 144.49 35.4557C145.841 32.5087 147.407 29.6231 149.187 26.799ZM227.309 39.5077C226.818 38.4026 226.081 37.5124 225.099 36.837C224.178 36.1617 223.104 35.6705 221.876 35.3636C220.464 35.0566 219.021 34.9952 217.547 35.1794C216.135 35.3022 214.723 35.517 213.311 35.824C211.838 36.131 210.364 36.4994 208.891 36.9291C207.479 37.2975 206.097 37.7273 204.747 38.2184C204.44 38.3412 204.163 38.3412 203.918 38.2184C203.734 38.0342 203.58 37.8194 203.457 37.5738C203.396 37.3282 203.396 37.0826 203.457 36.837C203.58 36.5301 203.795 36.3152 204.102 36.1924C204.777 36.0082 205.422 35.824 206.036 35.6398C206.711 35.3943 207.387 35.118 208.062 34.811C210.211 33.9515 212.298 32.9692 214.324 31.8641C216.412 30.7589 218.376 29.5004 220.218 28.0883C221.999 26.799 223.626 25.2641 225.099 23.4836C226.573 21.6418 227.371 19.6158 227.493 17.4056C227.555 16.3618 227.401 15.3488 227.033 14.3665C226.665 13.3842 226.143 12.494 225.467 11.6958C224.853 10.8363 224.117 10.0689 223.257 9.39352C222.459 8.65678 221.6 8.04283 220.679 7.55167C218.591 6.32378 216.32 5.43355 213.864 4.881C211.408 4.26705 209.014 3.80658 206.681 3.49961C201.462 2.94705 196.397 3.16194 191.485 4.14426C189.766 4.51263 188.047 4.97309 186.328 5.52564C184.609 6.0782 182.982 6.78424 181.447 7.64377C180.035 8.4419 178.654 9.42422 177.303 10.5907C176.014 11.6958 175.093 12.9544 174.54 14.3665C173.926 16.2084 174.295 17.8967 175.645 19.4316C176.812 20.7823 178.255 21.8874 179.974 22.7469C181.754 23.6064 183.473 24.3432 185.131 24.9571C186.604 23.1153 188.17 21.3348 189.828 19.6158C191.485 17.8967 193.296 16.3311 195.261 14.9191C195.507 14.7963 195.783 14.7963 196.09 14.9191C196.397 14.9805 196.612 15.1339 196.735 15.3795C197.042 15.8707 196.919 16.3311 196.366 16.7609C195.691 17.2521 195.046 17.7739 194.432 18.3265C193.818 18.8176 193.204 19.3395 192.59 19.892C190.38 21.8567 188.324 24.159 186.42 26.799L186.328 26.8911C184.179 29.7766 182.46 32.785 181.171 35.9161C180.434 37.6966 179.759 39.5691 179.145 41.5337C178.592 43.4984 178.224 45.4016 178.04 47.2435C177.856 48.7783 177.794 50.3746 177.856 52.0323C177.978 53.6285 178.255 55.1941 178.685 56.729C179.114 58.2025 179.728 59.6452 180.526 61.0573C181.386 62.408 182.491 63.6052 183.842 64.6489C185.622 66.061 187.679 67.0433 190.012 67.5959C192.406 68.1484 194.77 68.4247 197.103 68.4247C200.05 68.4247 202.905 68.087 205.668 67.4117C208.492 66.675 211.162 65.6005 213.68 64.1885C215.828 62.9606 217.793 61.5178 219.574 59.8601C221.354 58.2025 222.889 56.3913 224.178 54.4267C225.16 52.9532 226.02 51.3569 226.757 49.6379C227.493 47.8574 227.923 46.077 228.046 44.2965C228.107 43.437 228.077 42.6082 227.954 41.81C227.831 41.0119 227.616 40.2445 227.309 39.5077ZM206.588 24.2204C206.527 24.5888 206.343 24.8343 206.036 24.9571C205.79 25.0185 205.514 25.0185 205.207 24.9571C204.962 24.8957 204.747 24.7729 204.562 24.5888C204.44 24.3432 204.44 24.0669 204.562 23.7599C204.869 22.2864 205.238 20.8437 205.668 19.4316C206.159 18.0195 206.681 16.6074 207.233 15.1953C207.417 14.5814 207.847 14.3358 208.522 14.4586C208.829 14.5814 209.044 14.7656 209.167 15.0112C209.351 15.2567 209.382 15.5023 209.259 15.7479C208.768 17.16 208.277 18.5721 207.786 19.9841C207.295 21.3962 206.895 22.8083 206.588 24.2204ZM199.129 45.6779C199.252 45.3709 199.436 45.156 199.682 45.0333C199.927 44.9105 200.173 44.8798 200.418 44.9412C200.725 45.0026 200.94 45.156 201.063 45.4016C201.247 45.5858 201.278 45.8621 201.155 46.2305C200.664 47.8267 200.265 49.4844 199.958 51.2034C199.651 52.8611 199.375 54.5495 199.129 56.2685C199.006 56.9439 198.638 57.2815 198.024 57.2815C197.778 57.2815 197.533 57.1894 197.287 57.0053C197.042 56.8211 196.949 56.5755 197.011 56.2685C197.256 54.4881 197.533 52.7076 197.84 50.9272C198.147 49.1467 198.576 47.397 199.129 45.6779ZM226.388 35.2715C228.169 36.5608 229.305 38.2184 229.796 40.2445C230.287 42.2091 230.348 44.2044 229.98 46.2305C229.55 48.3179 228.844 50.3132 227.862 52.2165C226.88 54.1197 225.744 55.9309 224.454 57.6499C222.858 59.7373 220.986 61.6099 218.837 63.2675C216.688 64.9252 214.386 66.3066 211.93 67.4117C209.044 68.701 206.005 69.5912 202.813 70.0824C199.682 70.5735 196.55 70.6349 193.419 70.2666C191.086 69.9596 188.815 69.407 186.604 68.6089C184.394 67.7494 182.46 66.4294 180.803 64.6489C179.575 63.3596 178.592 61.9476 177.856 60.4127C177.119 58.8164 176.566 57.1894 176.198 55.5318C175.891 53.8741 175.738 52.1858 175.738 50.4667C175.738 48.7476 175.86 47.0593 176.106 45.4016C176.474 42.823 177.119 40.3059 178.04 37.8501C179.022 35.3943 180.127 32.9999 181.355 30.6669C182.215 29.1934 183.074 27.8734 183.934 26.7069C183.504 26.5227 183.074 26.3692 182.644 26.2464C182.215 26.0622 181.785 25.8781 181.355 25.6939C179.759 25.0185 178.163 24.159 176.566 23.1153C174.97 22.0102 173.742 20.6595 172.883 19.0632C172.33 18.0809 172.054 17.0372 172.054 15.9321C172.115 14.827 172.422 13.7526 172.975 12.7088C173.834 11.174 174.97 9.79259 176.382 8.56469C177.794 7.33679 179.298 6.32378 180.895 5.52564C185.561 3.19264 190.595 1.81125 195.998 1.38149C201.401 0.951723 206.681 1.2587 211.838 2.30241C214.294 2.79357 216.688 3.53031 219.021 4.51263C221.415 5.43355 223.564 6.75354 225.467 8.4726C227.248 10.1303 228.476 12.0642 229.151 14.2744C229.826 16.4232 229.734 18.6335 228.875 20.9051C228.015 23.1767 226.695 25.1413 224.915 26.799C223.196 28.4566 221.323 29.9608 219.297 31.3115C218.745 31.6185 218.192 31.9561 217.64 32.3245C217.148 32.6315 216.627 32.9385 216.074 33.2454C217.916 32.9999 219.727 32.9999 221.507 33.2454C223.288 33.491 224.915 34.1664 226.388 35.2715ZM284.706 33.5217C285.013 35.8547 285.258 38.2491 285.442 40.7049C285.627 43.0993 285.657 45.5244 285.535 47.9802C285.412 49.0239 285.289 50.129 285.166 51.2955C285.043 52.4006 284.921 53.5058 284.798 54.6109C284.491 56.1457 284.061 57.6806 283.508 59.2155C282.956 60.689 282.25 62.0703 281.39 63.3596C280.531 64.5875 279.456 65.6005 278.167 66.3987C276.878 67.1354 275.312 67.5345 273.47 67.5959C271.936 67.7187 270.431 67.5345 268.958 67.0433C267.546 66.4908 266.257 65.6926 265.09 64.6489C263.187 63.2368 261.775 61.4564 260.854 59.3076C259.933 57.0974 259.38 54.8257 259.196 52.4927C258.459 54.4574 257.631 56.3299 256.71 58.1104C255.85 59.8908 254.868 61.6713 253.763 63.4517C253.026 64.5568 252.197 65.7233 251.276 66.9512C250.417 68.1177 249.434 69.1921 248.329 70.1745C247.224 71.0954 246.027 71.8014 244.738 72.2926C243.448 72.7838 242.036 72.9065 240.501 72.661C237.739 72.1698 235.313 71.0647 233.226 69.3456C231.139 67.6266 229.849 65.355 229.358 62.5308C228.683 59.8294 228.499 57.0974 228.806 54.3346C229.113 51.5104 229.604 48.7783 230.279 46.1384C230.586 45.0947 230.924 43.9588 231.292 42.7309C231.66 41.4417 232.06 40.1831 232.489 38.9552C232.919 37.6659 233.38 36.438 233.871 35.2715C234.423 34.0436 234.976 32.9385 235.528 31.9561C236.388 30.1143 237.401 28.0883 238.567 25.8781C239.795 23.6064 241.146 21.3348 242.619 19.0632C244.154 16.7916 245.781 14.6121 247.5 12.5247C249.281 10.3758 251.153 8.4726 253.118 6.81493C255.144 5.15727 257.262 3.83728 259.472 2.85497C261.744 1.87265 264.077 1.38149 266.471 1.38149C268.497 1.38149 270.309 1.96474 271.905 3.13124C273.501 4.23635 274.944 5.70983 276.233 7.55167C277.522 9.39352 278.628 11.5116 279.549 13.906C280.531 16.2391 281.36 18.6028 282.035 20.9972C282.71 23.3302 283.263 25.6018 283.693 27.812C284.122 30.0222 284.46 31.9254 284.706 33.5217ZM283.416 42.9151C283.416 41.3189 283.263 39.2621 282.956 36.7449C282.71 34.1664 282.311 31.4343 281.759 28.5487C281.206 25.6018 280.469 22.6548 279.549 19.7079C278.689 16.6995 277.615 13.9981 276.325 11.6037C275.097 9.14794 273.624 7.18331 271.905 5.70983C270.186 4.17496 268.221 3.40752 266.011 3.40752C264.537 3.40752 263.095 3.6838 261.683 4.23635C260.271 4.72751 258.889 5.40285 257.538 6.26238C256.249 7.06052 255.021 7.98144 253.855 9.02515C252.688 10.0075 251.645 11.0205 250.724 12.0642C247.531 15.3795 244.768 19.0325 242.435 23.0232C240.164 27.0139 238.076 31.1273 236.173 35.3636L235.805 36.1003C235.682 36.3459 235.62 36.4994 235.62 36.5608C235.62 36.5608 235.559 36.6836 235.436 36.9291C235.375 37.1133 235.283 37.3282 235.16 37.5738C235.099 37.758 235.037 37.9421 234.976 38.1263C234.792 38.6175 234.607 39.1087 234.423 39.5998C234.239 40.0296 234.086 40.49 233.963 40.9812C233.533 42.1477 233.134 43.3142 232.766 44.4807C232.459 45.6472 232.152 46.8444 231.845 48.0723C231.292 50.5281 230.893 53.0453 230.647 55.6239C230.402 58.2025 230.678 60.6583 231.476 62.9913C231.845 64.0964 232.336 65.1401 232.95 66.1224C233.564 67.0433 234.331 67.8415 235.252 68.5168C236.234 69.2535 237.37 69.8675 238.66 70.3587C240.01 70.7884 241.299 70.9419 242.527 70.8191C243.817 70.6963 245.075 70.1438 246.303 69.1615C247.531 68.1791 248.698 66.9819 249.803 65.5699C250.969 64.0964 252.044 62.4694 253.026 60.689C254.008 58.9085 254.898 57.1588 255.697 55.4397C256.556 53.6592 257.262 51.9709 257.815 50.3746C258.429 48.717 258.92 47.3356 259.288 46.2305C258.367 46.4146 257.446 46.6909 256.525 47.0593C255.604 47.4277 254.776 47.8574 254.039 48.3486C253.425 48.717 252.934 48.6249 252.565 48.0723C252.258 47.4584 252.381 46.9672 252.934 46.5988C254.223 45.7393 255.635 45.0947 257.17 44.6649C258.705 44.1737 260.271 43.9281 261.867 43.9281C264.261 43.9281 266.471 44.4807 268.497 45.5858C269.05 45.8928 269.142 46.3226 268.774 46.8751C268.467 47.4277 268.006 47.5504 267.392 47.2435C265.489 46.3226 263.463 45.8928 261.314 45.9542V46.4146C261.191 47.2128 261.099 47.9802 261.038 48.717C261.038 49.3923 261.069 50.129 261.13 50.9272C261.191 52.6462 261.468 54.3653 261.959 56.0843C262.511 57.8034 263.279 59.369 264.261 60.781C265.243 62.1931 266.441 63.3596 267.853 64.2806C269.326 65.1401 271.015 65.5699 272.918 65.5699C274.391 65.5699 275.65 65.2936 276.694 64.741C277.737 64.1885 278.628 63.4824 279.364 62.6229C280.101 61.702 280.715 60.6583 281.206 59.4918C281.697 58.3253 282.096 57.1281 282.403 55.9002C282.895 53.7513 283.202 51.6025 283.324 49.4537C283.508 47.2435 283.539 45.064 283.416 42.9151ZM263.064 21.7339C263.248 21.3041 263.555 21.0892 263.985 21.0892C264.292 21.0892 264.568 21.212 264.814 21.4576C265.121 21.6418 265.213 21.9488 265.09 22.3785C264.537 24.159 264.108 26.0008 263.801 27.9041C263.494 29.7459 263.217 31.6492 262.972 33.6138C262.972 34.2892 262.665 34.6268 262.051 34.6268C261.744 34.6268 261.468 34.5347 261.222 34.3505C261.038 34.1664 260.977 33.9208 261.038 33.6138C261.222 31.6492 261.468 29.6845 261.775 27.7199C262.143 25.6939 262.573 23.6985 263.064 21.7339ZM342.961 49.2695C343.145 50.5588 343.053 51.8481 342.685 53.1374C342.378 54.4267 341.887 55.6546 341.211 56.8211C340.536 57.9876 339.738 59.0927 338.817 60.1364C337.957 61.1187 337.067 61.9782 336.146 62.715C334.427 64.0043 332.555 65.1708 330.529 66.2145C328.503 67.1968 326.385 68.0256 324.174 68.701C321.964 69.3149 319.723 69.8061 317.452 70.1745C315.241 70.4814 313.062 70.6349 310.913 70.6349C308.027 70.6349 305.173 70.328 302.348 69.714C299.524 69.0387 296.915 68.0256 294.521 66.675C292.126 65.2629 290.039 63.4824 288.258 61.3336C286.539 59.1848 285.311 56.6062 284.575 53.5978C284.452 52.9225 284.36 52.2165 284.298 51.4797C284.237 50.6816 284.145 49.9448 284.022 49.2695C283.838 46.6295 283.991 44.0509 284.483 41.5337C285.035 39.0166 285.803 36.5608 286.785 34.1664C287.829 31.772 288.995 29.4697 290.284 27.2594C291.635 24.9878 293.047 22.8083 294.521 20.7209C295.748 19.0632 297.253 17.0986 299.033 14.827C300.814 12.5554 302.747 10.4065 304.835 8.38051C306.984 6.29308 309.225 4.54333 311.558 3.13124C313.952 1.71916 316.316 1.01312 318.649 1.01312C319.508 1.01312 320.276 1.13591 320.951 1.38149C322.056 1.74986 322.977 2.30241 323.714 3.03915C324.451 3.77589 325.003 4.63542 325.372 5.61773C325.74 6.53866 325.985 7.55168 326.108 8.65679C326.231 9.7005 326.231 10.7442 326.108 11.7879C325.863 14.6735 325.187 17.6511 324.082 20.7209C322.977 23.7292 321.626 26.6762 320.03 29.5617C318.434 32.4473 316.684 35.2408 314.781 37.9421C312.878 40.5821 311.005 42.9765 309.163 45.1254C312.233 43.4063 315.18 42.1477 318.004 41.3496C320.828 40.5514 323.99 40.1524 327.49 40.1524C328.963 40.1524 330.529 40.3059 332.186 40.6128C333.905 40.9198 335.502 41.4417 336.975 42.1784C338.51 42.8537 339.83 43.7747 340.935 44.9412C342.04 46.1077 342.716 47.5504 342.961 49.2695ZM293.231 26.2464C290.96 29.9301 289.087 33.798 287.614 37.8501C286.202 41.9021 285.741 46.1384 286.232 50.5588C286.294 50.8044 286.324 51.05 286.324 51.2955C286.324 51.4797 286.355 51.756 286.416 52.1244C286.539 52.7997 286.693 53.4444 286.877 54.0583C287.061 54.6723 287.276 55.3169 287.522 55.9922C288.565 58.2639 289.916 60.1978 291.574 61.7941C293.231 63.3903 295.073 64.6796 297.099 65.6619C299.187 66.6443 301.397 67.381 303.73 67.8722C306.063 68.3019 308.427 68.5168 310.821 68.5168C312.97 68.5168 315.241 68.3633 317.636 68.0563C320.03 67.688 322.363 67.1354 324.635 66.3987C326.968 65.6619 329.147 64.741 331.173 63.6359C333.261 62.4694 335.072 61.0573 336.607 59.3997C337.344 58.6629 338.05 57.8034 338.725 56.8211C339.462 55.8388 340.014 54.8257 340.383 53.782C340.812 52.6769 341.027 51.5718 341.027 50.4667C341.089 49.3002 340.812 48.2258 340.198 47.2435C339.707 46.3839 339.063 45.6779 338.264 45.1254C337.466 44.5114 336.607 44.0202 335.686 43.6519C334.765 43.2835 333.813 42.9765 332.831 42.7309C331.849 42.4854 330.897 42.3319 329.976 42.2705C328.011 42.0249 326.016 42.0249 323.99 42.2705C321.964 42.4547 319.999 42.823 318.096 43.3756C315.456 44.1123 312.939 45.2174 310.545 46.6909C308.15 48.103 305.848 49.6072 303.638 51.2034C303.515 51.2648 303.454 51.2955 303.454 51.2955C302.962 51.6025 302.502 51.5104 302.072 51.0193C301.704 50.5281 301.734 50.0676 302.164 49.6379C302.287 49.5151 302.348 49.4537 302.348 49.4537C304.559 47.3049 306.892 44.6956 309.347 41.6258C311.865 38.4947 314.198 35.1794 316.346 31.6799C318.495 28.1804 320.306 24.6195 321.78 20.9972C323.253 17.3135 324.082 13.8753 324.266 10.6828C324.266 9.82328 324.205 8.99445 324.082 8.19632C323.959 7.33679 323.714 6.56935 323.345 5.89401C322.977 5.21867 322.486 4.66612 321.872 4.23635C321.258 3.74519 320.491 3.40752 319.57 3.22334H319.386C319.201 3.22334 319.079 3.16194 319.017 3.03915C318.649 3.03915 318.372 3.10054 318.188 3.22334C315.978 3.22334 313.645 4.08286 311.189 5.80192C308.795 7.45958 306.462 9.48561 304.19 11.88C301.919 14.2744 299.831 16.7916 297.928 19.4316C296.025 22.0716 294.459 24.3432 293.231 26.2464Z" fill="black"/>
<path d="M84.6966 85.1153C86.078 95.706 84.7887 106.665 81.8417 116.979C80.5525 121.4 78.8027 126.189 75.5795 129.688C73.1851 132.267 69.5014 133.74 66.186 131.99C62.5024 130.056 61.3972 125.36 60.9368 121.676C60.108 115.506 60.5684 109.151 61.121 102.797C61.2131 101.232 61.3972 99.5738 61.6735 97.9162C61.6735 97.8241 61.6735 97.732 61.6735 97.5478C61.7656 96.3506 59.9238 96.3506 59.5554 97.3636C58.174 100.863 57.5294 104.363 56.3322 107.954C55.0429 112.006 53.5694 116.335 50.9908 119.834C50.2541 120.847 49.0569 122.136 47.6755 122.413C46.5704 122.689 45.0048 122.413 44.0839 121.492C42.7946 120.387 42.0579 118.821 41.5053 117.256C40.8607 115.322 40.5844 113.204 40.4002 111.085C39.9397 106.481 40.1239 101.784 40.7686 97.1794C40.8607 97.0873 40.8607 96.9953 40.7686 96.719C40.7686 96.3506 40.4923 95.9822 40.0318 95.8901C39.9397 95.7981 39.8476 95.7981 39.6635 95.8901C39.2951 95.8901 39.0188 95.9822 38.8346 96.4427C38.8346 96.5348 38.8346 96.5348 38.8346 96.6269C38.0058 101.416 36.9928 106.297 35.8877 111.085C34.5984 116.519 33.0328 122.136 30.27 127.017C29.257 128.767 28.1519 130.701 26.4022 131.99C24.8366 133.188 23.1789 133.556 21.0608 133.188C16.4562 132.451 14.246 128.399 13.325 124.162C12.312 119.65 12.4041 114.953 12.7725 110.349C13.1409 105.191 13.7855 100.218 14.8906 95.1534C16.3641 88.799 18.5743 82.2605 22.0738 76.7349C24.5603 72.775 28.4282 68.3545 33.5854 68.4466C38.9267 68.6308 42.9788 72.4987 45.189 77.2875C47.0308 81.3396 47.6755 85.9442 48.1359 90.4567C48.228 91.1934 48.3201 91.9302 48.3201 92.6669C48.4122 93.6799 50.2541 94.2325 50.4383 92.9432C50.4383 92.8511 50.4383 92.759 50.5303 92.6669C51.3592 88.3386 52.4643 84.1023 54.0299 80.0503C56.0559 74.801 59.4633 69.5517 64.6205 66.8811C67.2912 65.4997 70.7907 64.6708 73.8297 65.5918C76.132 66.3285 77.9739 67.9862 79.4473 69.9201C82.6706 74.2484 84.052 79.8661 84.6966 85.1153ZM116.691 67.0652C131.15 67.0652 137.781 81.8921 137.781 94.6009C137.781 97.9162 137.32 101.416 136.491 104.823C132.715 121.123 120.651 132.819 108.587 132.819C101.588 132.819 96.1548 129.043 92.4711 123.242C87.7744 115.874 86.4851 105.284 88.8795 95.0613C92.7474 78.761 104.627 67.0652 116.691 67.0652ZM115.218 90.8251C111.718 96.4427 108.956 102.337 107.022 108.691C106.837 109.428 107.39 109.888 108.035 109.888C108.495 109.888 108.864 109.704 108.956 109.151C110.89 103.073 113.56 97.2715 116.876 91.8381C117.428 91.1013 116.691 90.2725 116.047 90.2725C115.678 90.2725 115.402 90.4567 115.218 90.8251ZM210.065 75.4456C210.341 82.813 208.131 90.2725 205.46 97.0873C202.053 105.928 197.264 114.585 191.186 121.952C188.331 125.544 184.832 128.951 180.595 130.977C177.28 132.543 173.228 132.635 170.465 129.964C167.426 126.925 166.597 121.952 166.137 117.808C165.584 112.006 165.861 106.02 166.413 100.218C166.505 98.745 166.782 97.3636 166.874 95.9822C166.874 95.8901 166.874 95.7981 166.966 95.6139C167.058 94.5088 165.124 94.2325 164.848 95.4297C164.848 95.4297 164.848 95.5218 164.848 95.6139C163.098 103.442 161.164 111.085 158.217 118.453C157.02 121.492 155.638 124.439 153.889 127.109C152.599 129.135 151.034 131.254 148.916 132.451C147.166 133.464 145.232 133.74 143.298 133.095C141.456 132.543 140.259 131.346 139.43 129.688C138.509 127.754 138.141 125.544 138.049 123.334C137.865 120.755 138.141 118.084 138.325 115.414C138.97 110.717 139.983 105.928 141.456 101.232C143.206 95.9822 145.416 90.8251 148.179 85.8521C150.757 81.2475 153.704 76.9191 157.48 73.4196C160.243 70.7489 163.835 68.3545 167.887 68.6308C172.768 68.7229 175.53 73.788 176.912 77.9321C179.122 84.747 178.201 92.2065 178.385 99.2976C178.385 100.311 179.859 100.863 180.319 99.8501C180.411 99.6659 180.503 99.5738 180.503 99.2976C183.358 93.3116 185.476 86.773 188.055 80.6028C189.528 77.5638 191.002 74.6168 192.752 71.6699C194.409 68.9992 196.435 65.9601 199.29 64.4867C202.053 63.0132 204.816 64.1183 206.75 66.2364C209.052 68.7229 209.881 72.2224 210.065 75.4456ZM261.608 70.841C263.081 72.6829 263.081 74.9852 261.792 76.9191C259.213 81.0633 252.859 82.813 248.439 83.9181C242.729 85.4837 236.743 86.4967 231.033 88.1544C230.665 88.2465 230.112 88.3386 229.652 88.7069C229.652 88.7069 229.56 88.799 229.468 88.799C228.547 89.4437 229.007 91.0093 230.204 90.733C230.296 90.733 230.481 90.733 230.573 90.5488C232.691 90.1804 234.809 89.6279 236.835 89.1674C238.953 88.7069 240.979 88.1544 243.097 87.8781C246.505 87.5097 250.833 87.786 252.951 91.0093C255.253 94.3246 252.675 98.0083 249.82 99.9422C247.333 101.6 244.571 102.521 241.716 103.35C238.861 103.442 236.006 103.718 233.243 104.178C230.573 104.455 227.81 105.099 225.139 105.928C224.495 106.112 224.31 106.573 224.402 107.125C224.495 107.494 224.771 107.954 225.415 107.862C231.033 107.402 236.559 106.941 241.9 105.468C246.136 105.376 250.833 105.468 254.517 107.77C258.016 109.98 259.398 114.585 258.753 118.453C256.911 128.675 242.821 132.359 234.072 132.359C227.073 132.451 219.337 130.885 213.996 126.004C211.417 123.518 208.747 119.374 208.286 115.782C207.734 111.362 208.931 106.297 210.128 101.876C213.443 90.4567 222.192 72.4066 233.98 68.815C238.585 67.3415 243.373 66.9731 248.254 67.0652C252.398 67.0652 258.845 67.3415 261.608 70.841ZM331.514 73.5117C332.987 76.2745 332.619 79.8661 331.698 82.9051C330.685 85.9442 328.106 89.2595 325.804 91.8381C321.383 96.5348 315.766 99.9422 309.596 101.324C309.227 101.416 308.951 101.508 308.675 101.508C307.754 101.692 307.662 102.705 308.122 103.258C312.082 108.415 315.95 114.677 315.858 121.4C315.858 123.794 315.213 126.189 313.74 128.122C312.174 130.241 309.78 131.438 307.293 132.175C303.886 133.188 300.11 133.188 296.519 132.819C293.848 132.359 290.901 131.714 288.599 129.872C285.099 127.109 284.454 122.413 285.375 118.269C286.573 112.743 289.796 107.678 293.756 103.81C293.94 103.718 294.124 103.534 294.216 103.35C294.4 102.797 294.124 102.245 293.756 102.06C293.756 102.06 293.756 102.06 293.572 102.06C293.572 102.06 293.572 101.876 293.479 101.876C293.479 101.876 293.479 101.876 293.387 101.876C293.387 101.876 293.387 101.876 293.295 101.876C293.295 101.876 293.295 101.876 293.203 101.876C286.849 101.232 280.402 97.9162 275.337 94.0483C270.456 90.3646 265.483 84.5628 265.207 78.1163C265.023 73.9722 267.233 69.9201 270.917 68.0783C273.864 66.6048 277.455 66.4206 280.587 66.789C285.007 67.2494 288.875 68.9992 292.098 71.854C293.572 73.2354 294.953 74.801 295.874 76.7349C296.703 78.4847 297.255 80.4186 297.808 82.3526C298.729 85.9442 299.189 89.72 299.834 93.4037C299.926 94.4167 301.676 94.4167 301.768 93.4037L301.86 92.8511C302.873 86.773 303.978 80.6028 307.754 75.5377C309.596 72.9592 311.99 70.3806 314.937 69.1834C317.792 67.9862 321.015 67.7099 323.962 68.3545C327.001 68.9992 330.04 70.6568 331.514 73.5117Z" fill="#FF90E8"/>
<path d="M86.1731 85.1153C87.5545 95.706 86.2652 106.665 83.3183 116.979C82.029 121.4 80.2792 126.189 77.056 129.688C74.6616 132.267 70.9779 133.74 67.6626 131.99C63.9789 130.056 62.8738 125.36 62.4133 121.676C61.5845 115.506 62.0449 109.151 62.5975 102.797C62.6896 101.232 62.8738 99.5738 63.15 97.9162C63.15 97.8241 63.15 97.732 63.15 97.5478C63.2421 96.3506 61.4003 96.3506 61.0319 97.3636C59.6505 100.863 59.0059 104.363 57.8087 107.954C56.5194 112.006 55.0459 116.335 52.4673 119.834C51.7306 120.847 50.5334 122.136 49.152 122.413C48.0469 122.689 46.4813 122.413 45.5604 121.492C44.2711 120.387 43.5344 118.821 42.9818 117.256C42.3372 115.322 42.0609 113.204 41.8767 111.085C41.4162 106.481 41.6004 101.784 42.2451 97.1794C42.3372 97.0873 42.3372 96.9953 42.2451 96.719C42.2451 96.3506 41.9688 95.9822 41.5083 95.8901C41.4162 95.7981 41.3242 95.7981 41.14 95.8901C40.7716 95.8901 40.4953 95.9822 40.3111 96.4427C40.3111 96.5348 40.3111 96.5348 40.3111 96.6269C39.4823 101.416 38.4693 106.297 37.3642 111.085C36.0749 116.519 34.5093 122.136 31.7465 127.017C30.7335 128.767 29.6284 130.701 27.8787 131.99C26.3131 133.188 24.6554 133.556 22.5373 133.188C17.9327 132.451 15.7225 128.399 14.8016 124.162C13.7885 119.65 13.8806 114.953 14.249 110.349C14.6174 105.191 15.262 100.218 16.3671 95.1534C17.8406 88.799 20.0508 82.2605 23.5503 76.7349C26.0368 72.775 29.9047 68.3545 35.0619 68.4466C40.4032 68.6308 44.4553 72.4987 46.6655 77.2875C48.5074 81.3396 49.152 85.9442 49.6125 90.4567C49.7046 91.1934 49.7966 91.9302 49.7966 92.6669C49.8887 93.6799 51.7306 94.2325 51.9148 92.9432C51.9148 92.8511 51.9148 92.759 52.0069 92.6669C52.8357 88.3386 53.9408 84.1023 55.5064 80.0503C57.5324 74.801 60.9398 69.5517 66.097 66.8811C68.7677 65.4997 72.2672 64.6708 75.3062 65.5918C77.6085 66.3285 79.4504 67.9862 80.9239 69.9201C84.1471 74.2484 85.5285 79.8661 86.1731 85.1153ZM118.168 67.0652C132.626 67.0652 139.257 81.8921 139.257 94.6009C139.257 97.9162 138.797 101.416 137.968 104.823C134.192 121.123 122.128 132.819 110.064 132.819C103.065 132.819 97.6313 129.043 93.9476 123.242C89.2509 115.874 87.9616 105.284 90.356 95.0613C94.2239 78.761 106.104 67.0652 118.168 67.0652ZM116.694 90.8251C113.195 96.4427 110.432 102.337 108.498 108.691C108.314 109.428 108.867 109.888 109.511 109.888C109.972 109.888 110.34 109.704 110.432 109.151C112.366 103.073 115.037 97.2715 118.352 91.8381C118.905 91.1013 118.168 90.2725 117.523 90.2725C117.155 90.2725 116.879 90.4567 116.694 90.8251ZM211.541 75.4456C211.818 82.813 209.608 90.2725 206.937 97.0873C203.529 105.928 198.741 114.585 192.663 121.952C189.808 125.544 186.308 128.951 182.072 130.977C178.757 132.543 174.705 132.635 171.942 129.964C168.903 126.925 168.074 121.952 167.613 117.808C167.061 112.006 167.337 106.02 167.89 100.218C167.982 98.745 168.258 97.3636 168.35 95.9822C168.35 95.8901 168.35 95.7981 168.442 95.6139C168.534 94.5088 166.6 94.2325 166.324 95.4297C166.324 95.4297 166.324 95.5218 166.324 95.6139C164.574 103.442 162.64 111.085 159.693 118.453C158.496 121.492 157.115 124.439 155.365 127.109C154.076 129.135 152.51 131.254 150.392 132.451C148.642 133.464 146.708 133.74 144.775 133.095C142.933 132.543 141.735 131.346 140.907 129.688C139.986 127.754 139.617 125.544 139.525 123.334C139.341 120.755 139.617 118.084 139.802 115.414C140.446 110.717 141.459 105.928 142.933 101.232C144.682 95.9822 146.893 90.8251 149.655 85.8521C152.234 81.2475 155.181 76.9191 158.957 73.4196C161.72 70.7489 165.311 68.3545 169.363 68.6308C174.244 68.7229 177.007 73.788 178.388 77.9321C180.598 84.747 179.678 92.2065 179.862 99.2976C179.862 100.311 181.335 100.863 181.796 99.8501C181.888 99.6659 181.98 99.5738 181.98 99.2976C184.835 93.3116 186.953 86.773 189.531 80.6028C191.005 77.5638 192.478 74.6168 194.228 71.6699C195.886 68.9992 197.912 65.9601 200.767 64.4867C203.529 63.0132 206.292 64.1183 208.226 66.2364C210.528 68.7229 211.357 72.2224 211.541 75.4456ZM263.084 70.841C264.558 72.6829 264.558 74.9852 263.268 76.9191C260.69 81.0633 254.335 82.813 249.915 83.9181C244.205 85.4837 238.219 86.4967 232.51 88.1544C232.141 88.2465 231.589 88.3386 231.128 88.7069C231.128 88.7069 231.036 88.799 230.944 88.799C230.023 89.4437 230.484 91.0093 231.681 90.733C231.773 90.733 231.957 90.733 232.049 90.5488C234.167 90.1804 236.285 89.6279 238.311 89.1674C240.43 88.7069 242.456 88.1544 244.574 87.8781C247.981 87.5097 252.309 87.786 254.428 91.0093C256.73 94.3246 254.151 98.0083 251.296 99.9422C248.81 101.6 246.047 102.521 243.192 103.35C240.337 103.442 237.483 103.718 234.72 104.178C232.049 104.455 229.286 105.099 226.616 105.928C225.971 106.112 225.787 106.573 225.879 107.125C225.971 107.494 226.247 107.954 226.892 107.862C232.51 107.402 238.035 106.941 243.376 105.468C247.613 105.376 252.309 105.468 255.993 107.77C259.493 109.98 260.874 114.585 260.229 118.453C258.388 128.675 244.297 132.359 235.549 132.359C228.55 132.451 220.814 130.885 215.473 126.004C212.894 123.518 210.223 119.374 209.763 115.782C209.21 111.362 210.407 106.297 211.605 101.876C214.92 90.4567 223.669 72.4066 235.457 68.815C240.061 67.3415 244.85 66.9731 249.731 67.0652C253.875 67.0652 260.321 67.3415 263.084 70.841ZM332.99 73.5117C334.464 76.2745 334.095 79.8661 333.174 82.9051C332.161 85.9442 329.583 89.2595 327.28 91.8381C322.86 96.5348 317.242 99.9422 311.072 101.324C310.704 101.416 310.427 101.508 310.151 101.508C309.23 101.692 309.138 102.705 309.599 103.258C313.559 108.415 317.427 114.677 317.334 121.4C317.334 123.794 316.69 126.189 315.216 128.122C313.651 130.241 311.256 131.438 308.77 132.175C305.362 133.188 301.587 133.188 297.995 132.819C295.324 132.359 292.377 131.714 290.075 129.872C286.576 127.109 285.931 122.413 286.852 118.269C288.049 112.743 291.272 107.678 295.232 103.81C295.416 103.718 295.601 103.534 295.693 103.35C295.877 102.797 295.601 102.245 295.232 102.06C295.232 102.06 295.232 102.06 295.048 102.06C295.048 102.06 295.048 101.876 294.956 101.876C294.956 101.876 294.956 101.876 294.864 101.876C294.864 101.876 294.864 101.876 294.772 101.876C294.772 101.876 294.772 101.876 294.68 101.876C288.325 101.232 281.879 97.9162 276.814 94.0483C271.933 90.3646 266.96 84.5628 266.684 78.1163C266.499 73.9722 268.71 69.9201 272.393 68.0783C275.34 66.6048 278.932 66.4206 282.063 66.789C286.483 67.2494 290.351 68.9992 293.575 71.854C295.048 73.2354 296.429 74.801 297.35 76.7349C298.179 78.4847 298.732 80.4186 299.284 82.3526C300.205 85.9442 300.666 89.72 301.31 93.4037C301.402 94.4167 303.152 94.4167 303.244 93.4037L303.336 92.8511C304.349 86.773 305.455 80.6028 309.23 75.5377C311.072 72.9592 313.467 70.3806 316.413 69.1834C319.268 67.9862 322.492 67.7099 325.439 68.3545C328.478 68.9992 331.517 70.6568 332.99 73.5117Z" fill="white"/>
<path d="M84.6966 85.1153C84.3896 82.4754 83.8371 79.8354 83.0389 77.1954C82.2408 74.494 81.0436 72.0689 79.4473 69.9201C78.7106 68.9378 77.8818 68.0783 76.9609 67.3415C76.0399 66.5434 74.9962 65.9601 73.8297 65.5918C72.2948 65.1006 70.6986 65.0392 69.0409 65.4076C67.4446 65.7146 65.9712 66.2057 64.6205 66.8811C62.0419 68.2317 59.8931 70.1043 58.174 72.4987C56.455 74.8931 55.0736 77.4103 54.0299 80.0503C53.2317 82.0763 52.5564 84.1637 52.0038 86.3125C51.4513 88.4 50.9601 90.5181 50.5303 92.6669C50.469 92.7283 50.4383 92.8204 50.4383 92.9432C50.3155 93.6185 49.9471 93.8641 49.3331 93.6799C48.7192 93.4957 48.3815 93.1581 48.3201 92.6669C48.3201 92.2985 48.2894 91.9302 48.228 91.5618C48.228 91.1934 48.1973 90.8251 48.1359 90.4567C47.8904 88.1851 47.5527 85.9442 47.1229 83.734C46.7546 81.4623 46.1099 79.3135 45.189 77.2875C44.0839 74.8931 42.549 72.8671 40.5844 71.2094C38.6197 69.4903 36.2867 68.5694 33.5854 68.4466C32.2961 68.4466 31.0682 68.6922 29.9017 69.1834C28.7966 69.6745 27.7528 70.3192 26.7705 71.1173C25.8496 71.854 24.9901 72.7443 24.1919 73.788C23.3938 74.7703 22.6878 75.7526 22.0738 76.7349C20.2934 79.4977 18.8199 82.4754 17.6534 85.6679C16.5483 88.799 15.6273 91.9609 14.8906 95.1534C14.3381 97.732 13.8776 100.28 13.5092 102.797C13.2023 105.253 12.9567 107.77 12.7725 110.349C12.5883 112.682 12.4962 115.015 12.4962 117.348C12.5576 119.619 12.8339 121.891 13.325 124.162C13.8162 126.311 14.645 128.276 15.8115 130.056C16.978 131.775 18.7278 132.819 21.0608 133.188C23.0868 133.556 24.8673 133.157 26.4022 131.99C27.2617 131.315 27.9984 130.548 28.6124 129.688C29.2263 128.767 29.7789 127.877 30.27 127.017C31.6821 124.562 32.7872 121.983 33.5854 119.282C34.4449 116.58 35.2123 113.848 35.8877 111.085C36.4402 108.691 36.9621 106.297 37.4532 103.902C37.9444 101.446 38.4049 99.0213 38.8346 96.6269V96.4427C38.9574 96.0743 39.2337 95.8901 39.6635 95.8901C39.8476 95.8288 39.9704 95.8288 40.0318 95.8901C40.523 96.0129 40.7686 96.2892 40.7686 96.719C40.83 96.9646 40.83 97.118 40.7686 97.1794C40.4616 99.5124 40.2467 101.845 40.1239 104.178C40.0625 106.45 40.1546 108.752 40.4002 111.085C40.523 112.129 40.6458 113.173 40.7686 114.217C40.9527 115.26 41.1983 116.273 41.5053 117.256C41.8123 118.054 42.1499 118.821 42.5183 119.558C42.8867 120.295 43.4085 120.939 44.0839 121.492C44.575 121.983 45.1583 122.29 45.8336 122.413C46.509 122.536 47.1229 122.536 47.6755 122.413C48.3508 122.29 48.9648 121.952 49.5173 121.4C50.1313 120.847 50.6224 120.325 50.9908 119.834C52.2801 118.054 53.3238 116.15 54.1219 114.124C54.9201 112.037 55.6568 109.98 56.3322 107.954C56.9461 106.174 57.468 104.424 57.8977 102.705C58.3275 100.925 58.8801 99.1441 59.5554 97.3636C59.7396 96.8725 60.1386 96.6269 60.7526 96.6269C61.4279 96.6269 61.7349 96.9339 61.6735 97.5478V97.9162C61.4279 99.5738 61.2438 101.201 61.121 102.797C60.814 105.99 60.5991 109.151 60.4763 112.283C60.3535 115.414 60.507 118.545 60.9368 121.676C61.0596 122.597 61.2131 123.579 61.3972 124.623C61.6428 125.605 61.9498 126.557 62.3182 127.478C62.7479 128.399 63.2698 129.258 63.8837 130.056C64.4977 130.855 65.2651 131.499 66.186 131.99C67.8437 132.85 69.5014 133.003 71.159 132.451C72.8781 131.898 74.3516 130.977 75.5795 129.688C77.1757 127.908 78.4343 125.912 79.3552 123.702C80.3376 121.43 81.1664 119.19 81.8417 116.979C83.3152 111.761 84.3282 106.481 84.8808 101.139C85.4333 95.7981 85.372 90.4567 84.6966 85.1153ZM87.091 88.6149C87.2752 91.5004 87.3059 94.3553 87.1831 97.1794C87.0603 100.004 86.8147 102.828 86.4464 105.652C86.078 108.415 85.5868 111.147 84.9729 113.848C84.3589 116.55 83.5301 119.22 82.4864 121.86C81.6269 124.009 80.5525 126.189 79.2632 128.399C78.0353 130.609 76.3776 132.328 74.2902 133.556C73.4306 134.108 72.479 134.477 71.4353 134.661C70.453 134.845 69.44 134.876 68.3963 134.753C67.4139 134.692 66.4623 134.446 65.5414 134.016C64.6205 133.587 63.7916 133.003 63.0549 132.267C62.1954 131.407 61.4893 130.425 60.9368 129.32C60.3842 128.215 59.9238 127.079 59.5554 125.912C59.2484 124.684 59.0028 123.456 58.8187 122.229C58.6959 121.001 58.6038 119.803 58.5424 118.637C58.4196 116.795 58.3582 114.953 58.3582 113.111C58.4196 111.208 58.5117 109.336 58.6345 107.494C58.3889 108.169 58.174 108.814 57.9898 109.428C57.867 109.98 57.6522 110.564 57.3452 111.177C56.6698 113.204 55.8717 115.291 54.9508 117.44C54.0299 119.527 52.7713 121.277 51.175 122.689C50.4997 123.303 49.7936 123.794 49.0569 124.162C48.3201 124.531 47.522 124.715 46.6625 124.715C44.7592 124.592 43.163 123.794 41.8737 122.321C40.523 120.724 39.6021 118.883 39.1109 116.795C38.6197 114.646 38.3128 112.559 38.19 110.533C37.9444 111.577 37.6681 112.651 37.3611 113.756C37.1156 114.861 36.8393 115.936 36.5323 116.979C35.7956 119.619 34.8746 122.259 33.7695 124.899C32.7258 127.478 31.283 129.842 29.4412 131.99C28.7659 132.788 27.9677 133.495 27.0468 134.108C26.1873 134.722 25.2357 135.121 24.1919 135.306C22.964 135.551 21.7054 135.551 20.4162 135.306C19.1883 135.06 18.0524 134.6 17.0087 133.924C15.9036 133.249 14.9827 132.451 14.246 131.53C13.5092 130.548 12.8953 129.504 12.4041 128.399C11.9744 127.294 11.606 126.127 11.299 124.899C11.0534 123.671 10.8692 122.474 10.7465 121.308C10.5009 119.036 10.4088 116.764 10.4702 114.493C10.5316 112.16 10.6851 109.827 10.9306 107.494C11.2376 104.301 11.6367 101.17 12.1278 98.1004C12.6804 95.0306 13.4478 91.9302 14.4301 88.799C15.2283 86.3432 16.272 83.6112 17.5613 80.6028C18.912 77.5945 20.5389 74.8931 22.4422 72.4987C24.4068 70.1043 26.6477 68.3238 29.1649 67.1573C31.7435 65.9908 34.6905 66.0215 38.0058 67.2494C40.7686 68.2931 42.9481 69.9508 44.5443 72.2224C46.202 74.4326 47.4606 76.8884 48.3201 79.5898C48.6885 80.6949 48.9955 81.8307 49.2411 82.9972C49.4866 84.1023 49.6708 85.1767 49.7936 86.2204C50.469 83.7033 51.3285 81.1554 52.3722 78.5768C53.4159 75.9982 54.6745 73.6345 56.148 71.4857C57.6829 69.3369 59.494 67.5257 61.5814 66.0522C63.7302 64.5174 66.186 63.5657 68.9488 63.1974C72.2027 62.7676 75.1804 63.5043 77.8818 65.4076C78.9255 66.2057 79.8464 67.1266 80.6445 68.1704C81.4427 69.1527 82.1794 70.2271 82.8548 71.3936C84.2668 74.0336 85.2492 76.827 85.8017 79.774C86.4157 82.7209 86.8454 85.6679 87.091 88.6149ZM134.649 75.3536C137.167 79.2828 138.732 83.8874 139.346 89.1674C140.021 94.386 139.714 99.7273 138.425 105.191C137.627 108.63 136.338 112.098 134.557 115.598C132.838 119.097 130.689 122.29 128.111 125.176C125.594 128 122.677 130.333 119.362 132.175C116.047 133.955 112.455 134.845 108.587 134.845C104.842 134.845 101.404 133.894 98.2729 131.99C95.2031 130.087 92.686 127.57 90.7213 124.439C88.2041 120.509 86.6079 115.936 85.9325 110.717C85.2572 105.437 85.5642 100.034 86.8534 94.5088C87.8972 90.2111 89.432 86.2511 91.4581 82.6288C93.4841 79.0065 95.8171 75.9061 98.4571 73.3275C101.158 70.6875 104.075 68.6308 107.206 67.1573C110.337 65.6839 113.53 64.9471 116.783 64.9471C120.59 64.9471 123.997 65.8987 127.006 67.802C130.014 69.7052 132.562 72.2224 134.649 75.3536ZM116.691 67.0652C113.683 67.0652 110.705 67.7713 107.758 69.1834C104.873 70.5341 102.171 72.468 99.6543 74.9852C97.1985 77.441 95.019 80.3879 93.1157 83.826C91.2739 87.2642 89.8618 91.0093 88.8795 95.0613C88.2655 97.6399 87.8972 100.218 87.7744 102.797C87.6516 105.314 87.7437 107.801 88.0506 110.257C88.3576 112.651 88.8795 114.953 89.6162 117.163C90.353 119.374 91.3046 121.4 92.4711 123.242C94.3129 126.189 96.5845 128.522 99.2859 130.241C101.987 131.96 105.088 132.819 108.587 132.819C111.596 132.819 114.573 132.144 117.52 130.793C120.467 129.381 123.169 127.447 125.624 124.991C128.142 122.474 130.352 119.496 132.255 116.058C134.158 112.62 135.57 108.875 136.491 104.823C137.351 101.262 137.781 97.8548 137.781 94.6009C137.781 91.4083 137.351 88.1851 136.491 84.9312C135.693 81.6772 134.404 78.7303 132.623 76.0903C130.904 73.4503 128.725 71.3015 126.085 69.6438C123.445 67.9248 120.314 67.0652 116.691 67.0652ZM115.218 90.8251C115.402 90.4567 115.678 90.2725 116.047 90.2725C116.354 90.2725 116.63 90.4567 116.876 90.8251C117.183 91.132 117.183 91.4697 116.876 91.8381C113.499 97.3636 110.859 103.135 108.956 109.151C108.894 109.643 108.587 109.888 108.035 109.888C107.728 109.888 107.451 109.796 107.206 109.612C106.96 109.366 106.899 109.059 107.022 108.691C108.004 105.498 109.17 102.429 110.521 99.4817C111.872 96.5348 113.437 93.6492 115.218 90.8251ZM210.065 75.4456C209.942 73.8494 209.635 72.2224 209.144 70.5648C208.714 68.9071 207.916 67.4643 206.75 66.2364C205.767 65.1927 204.631 64.456 203.342 64.0262C202.053 63.5964 200.702 63.7499 199.29 64.4867C197.878 65.2234 196.65 66.2671 195.606 67.6178C194.563 68.9685 193.611 70.3192 192.752 71.6699C191.892 73.1433 191.063 74.6168 190.265 76.0903C189.528 77.5638 188.792 79.0679 188.055 80.6028C186.766 83.734 185.538 86.8958 184.371 90.0883C183.205 93.2195 181.915 96.2892 180.503 99.2976C180.503 99.4204 180.442 99.6045 180.319 99.8501C180.074 100.341 179.674 100.495 179.122 100.311C178.631 100.126 178.385 99.7887 178.385 99.2976C178.324 97.5171 178.324 95.7367 178.385 93.9562C178.447 92.1144 178.447 90.3032 178.385 88.5228C178.385 86.7423 178.262 84.9619 178.017 83.1814C177.833 81.4009 177.464 79.6512 176.912 77.9321C176.543 76.8884 176.083 75.8447 175.53 74.801C175.039 73.6959 174.425 72.6829 173.688 71.7619C172.952 70.841 172.092 70.1043 171.11 69.5517C170.189 68.9378 169.115 68.6308 167.887 68.6308C165.861 68.508 163.957 68.9378 162.177 69.9201C160.458 70.9024 158.892 72.0689 157.48 73.4196C155.577 75.2001 153.858 77.134 152.323 79.2214C150.85 81.3089 149.468 83.5191 148.179 85.8521C146.767 88.3693 145.508 90.9172 144.403 93.4957C143.298 96.0129 142.316 98.5915 141.456 101.232C140.719 103.565 140.075 105.928 139.522 108.323C139.031 110.717 138.632 113.081 138.325 115.414C138.202 116.764 138.079 118.115 137.957 119.466C137.895 120.755 137.926 122.044 138.049 123.334C138.11 124.439 138.233 125.544 138.417 126.649C138.601 127.693 138.939 128.706 139.43 129.688C140.29 131.468 141.579 132.604 143.298 133.095C145.201 133.709 147.074 133.495 148.916 132.451C149.959 131.837 150.88 131.069 151.678 130.148C152.477 129.166 153.213 128.153 153.889 127.109C154.748 125.759 155.516 124.377 156.191 122.965C156.928 121.492 157.603 119.988 158.217 118.453C159.69 114.769 160.949 111.024 161.993 107.218C163.036 103.411 163.988 99.5431 164.848 95.6139V95.4297C164.909 95.1227 165.062 94.9078 165.308 94.785C165.554 94.6622 165.799 94.6315 166.045 94.6929C166.29 94.6929 166.505 94.785 166.689 94.9692C166.874 95.092 166.966 95.3069 166.966 95.6139C166.904 95.7367 166.874 95.8594 166.874 95.9822C166.812 96.6576 166.72 97.3636 166.597 98.1004C166.536 98.7757 166.475 99.4817 166.413 100.218C166.106 103.165 165.891 106.112 165.769 109.059C165.707 111.945 165.83 114.861 166.137 117.808C166.382 119.896 166.782 122.075 167.334 124.347C167.887 126.557 168.93 128.429 170.465 129.964C171.877 131.315 173.504 132.021 175.346 132.082C177.188 132.144 178.938 131.775 180.595 130.977C182.744 129.934 184.678 128.614 186.397 127.017C188.178 125.421 189.774 123.733 191.186 121.952C194.256 118.269 196.957 114.309 199.29 110.072C201.685 105.836 203.741 101.508 205.46 97.0873C206.811 93.6492 207.947 90.119 208.868 86.4967C209.789 82.813 210.188 79.1293 210.065 75.4456ZM210.433 67.9862C211.293 69.6438 211.815 71.4243 211.999 73.3275C212.183 75.1694 212.214 77.0112 212.091 78.8531C211.784 82.7823 211.078 86.6195 209.973 90.3646C208.868 94.0483 207.548 97.6706 206.013 101.232C205.153 103.319 204.202 105.376 203.158 107.402C202.114 109.366 201.009 111.331 199.843 113.296C198.431 115.629 196.926 117.9 195.33 120.11C193.795 122.321 192.076 124.408 190.173 126.373C188.577 128.03 186.796 129.596 184.832 131.069C182.867 132.543 180.718 133.525 178.385 134.016C176.236 134.446 174.18 134.293 172.215 133.556C170.25 132.758 168.654 131.438 167.426 129.596C166.014 127.447 165.093 125.083 164.663 122.505C164.234 119.865 163.927 117.317 163.742 114.861C163.742 113.879 163.712 112.927 163.65 112.006C163.65 111.024 163.681 110.042 163.742 109.059C162.453 113.664 160.796 118.207 158.77 122.689C158.217 123.856 157.603 125.083 156.928 126.373C156.252 127.662 155.454 128.89 154.533 130.056C153.674 131.223 152.691 132.267 151.586 133.188C150.543 134.047 149.345 134.692 147.995 135.121C145.662 135.858 143.329 135.643 140.996 134.477C140.013 133.986 139.215 133.31 138.601 132.451C137.987 131.591 137.465 130.64 137.036 129.596C136.115 127.14 135.685 124.562 135.746 121.86C135.869 119.159 136.115 116.55 136.483 114.032C137.036 109.673 138.018 105.253 139.43 100.771C141.456 94.3246 144.25 88.1237 147.811 82.1684C149.223 79.8354 150.757 77.6252 152.415 75.5377C154.134 73.3889 156.068 71.5164 158.217 69.9201C159.936 68.6922 161.839 67.7099 163.927 66.9731C166.014 66.2364 168.071 66.175 170.097 66.789C171.386 67.1573 172.522 67.7713 173.504 68.6308C174.548 69.4289 175.438 70.3806 176.175 71.4857C176.912 72.5294 177.526 73.6652 178.017 74.8931C178.569 76.121 179.03 77.3489 179.398 78.5768C180.074 81.1554 180.442 83.734 180.503 86.3125C180.565 88.8297 180.565 91.4083 180.503 94.0483C180.565 93.9869 180.595 93.9255 180.595 93.8641C180.595 93.8641 180.595 93.8334 180.595 93.772C182.007 90.3339 183.327 86.9265 184.555 83.5498C185.845 80.1731 187.349 76.8884 189.068 73.6959C189.743 72.4066 190.541 70.9945 191.462 69.4596C192.445 67.9248 193.55 66.5434 194.778 65.3155C196.006 64.0262 197.356 63.0439 198.83 62.3685C200.365 61.6318 202.022 61.4783 203.803 61.9081C205.276 62.2764 206.565 63.0439 207.671 64.2104C208.837 65.3155 209.758 66.5741 210.433 67.9862ZM256.635 65.7759C257.74 66.0215 258.845 66.4206 259.95 66.9731C261.055 67.5257 261.976 68.2317 262.713 69.0913C263.511 69.8894 264.094 70.8103 264.463 71.854C264.892 72.8978 264.954 74.0643 264.647 75.3536C264.278 76.9498 263.511 78.3619 262.344 79.5898C261.178 80.7563 259.827 81.7693 258.292 82.6288C256.758 83.427 255.131 84.1023 253.412 84.6549C251.692 85.2074 250.127 85.6679 248.715 86.0363C250.188 86.3432 251.539 86.9265 252.767 87.786C254.056 88.6455 254.977 89.7814 255.53 91.1934C255.898 92.1758 256.021 93.1888 255.898 94.2325C255.837 95.2148 255.591 96.1664 255.161 97.0873C254.732 98.0083 254.148 98.8678 253.412 99.6659C252.736 100.403 251.999 101.047 251.201 101.6C250.587 101.968 249.943 102.337 249.267 102.705C248.653 103.012 248.009 103.288 247.333 103.534C247.702 103.657 248.039 103.749 248.346 103.81C248.653 103.81 248.96 103.841 249.267 103.902C251.539 104.209 253.657 104.946 255.622 106.112C257.586 107.218 259.029 108.875 259.95 111.085C260.748 112.927 261.086 114.861 260.963 116.887C260.902 118.852 260.441 120.724 259.582 122.505C258.845 124.101 257.832 125.513 256.543 126.741C255.315 127.908 253.964 128.921 252.491 129.78C249.175 131.745 245.492 133.095 241.44 133.832C237.387 134.569 233.427 134.722 229.56 134.293C227.165 134.047 224.771 133.556 222.376 132.819C220.043 132.082 217.864 131.1 215.838 129.872C213.812 128.583 212.031 127.048 210.496 125.268C208.962 123.426 207.795 121.308 206.997 118.913C206.506 117.501 206.199 116.089 206.076 114.677C206.015 113.265 206.045 111.853 206.168 110.441C206.414 107.371 207.15 103.933 208.378 100.126C209.606 96.2585 211.141 92.4213 212.983 88.6149C214.886 84.8084 217.035 81.2782 219.429 78.0242C221.824 74.7089 224.341 72.0996 226.981 70.1964C229.805 68.109 233.028 66.6969 236.651 65.9601C240.273 65.2234 243.803 64.855 247.241 64.855C250.618 64.855 253.749 65.162 256.635 65.7759ZM261.608 70.841C260.932 69.9815 260.042 69.3062 258.937 68.815C257.832 68.2624 256.665 67.8634 255.438 67.6178C254.21 67.3722 252.951 67.2187 251.662 67.1573C250.434 67.0959 249.298 67.0652 248.254 67.0652C245.799 67.0038 243.373 67.0959 240.979 67.3415C238.646 67.5871 236.313 68.0783 233.98 68.815C231.033 69.7359 228.27 71.455 225.692 73.9722C223.175 76.428 220.903 79.2521 218.877 82.4447C216.851 85.6372 215.101 88.9525 213.628 92.3906C212.154 95.8288 210.988 98.9906 210.128 101.876C209.514 104.086 208.962 106.419 208.47 108.875C208.041 111.27 207.979 113.572 208.286 115.782C208.532 117.563 209.207 119.404 210.312 121.308C211.479 123.211 212.707 124.776 213.996 126.004C216.697 128.46 219.829 130.148 223.389 131.069C227.012 131.99 230.573 132.42 234.072 132.359C236.282 132.359 238.707 132.113 241.347 131.622C244.049 131.131 246.597 130.333 248.991 129.228C251.447 128.122 253.565 126.71 255.345 124.991C257.187 123.211 258.323 121.031 258.753 118.453C259.06 116.488 258.876 114.493 258.2 112.467C257.525 110.441 256.297 108.875 254.517 107.77C252.675 106.604 250.649 105.928 248.439 105.744C246.228 105.498 244.049 105.406 241.9 105.468C239.199 106.204 236.467 106.726 233.704 107.033C231.002 107.34 228.24 107.617 225.415 107.862C225.108 107.924 224.863 107.862 224.679 107.678C224.556 107.494 224.464 107.31 224.402 107.125C224.28 106.511 224.525 106.112 225.139 105.928C226.49 105.498 227.841 105.13 229.191 104.823C230.542 104.516 231.893 104.301 233.243 104.178C236.006 103.749 238.83 103.472 241.716 103.35C243.128 102.92 244.509 102.459 245.86 101.968C247.272 101.477 248.592 100.802 249.82 99.9422C250.557 99.451 251.232 98.8678 251.846 98.1925C252.46 97.5171 252.951 96.7804 253.319 95.9822C253.688 95.1841 253.841 94.3553 253.78 93.4957C253.78 92.6362 253.504 91.8074 252.951 91.0093C252.398 90.2111 251.723 89.5972 250.925 89.1674C250.188 88.6762 249.359 88.3386 248.439 88.1544C247.579 87.9088 246.689 87.786 245.768 87.786C244.847 87.7246 243.957 87.7553 243.097 87.8781C242.053 88.0009 241.01 88.1851 239.966 88.4307C238.922 88.6762 237.879 88.9218 236.835 89.1674C235.791 89.413 234.747 89.6586 233.704 89.9041C232.66 90.1497 231.616 90.3646 230.573 90.5488C230.511 90.6716 230.388 90.733 230.204 90.733C229.59 90.8558 229.191 90.6409 229.007 90.0883C228.823 89.5358 228.976 89.106 229.468 88.799C229.59 88.7376 229.652 88.7069 229.652 88.7069C229.897 88.5228 230.143 88.4 230.388 88.3386C230.634 88.2772 230.849 88.2158 231.033 88.1544C233.919 87.2949 236.804 86.5888 239.69 86.0363C242.637 85.4223 245.553 84.7163 248.439 83.9181C249.544 83.6112 250.741 83.2735 252.03 82.9051C253.319 82.5368 254.578 82.0763 255.806 81.5237C257.034 80.9712 258.17 80.3265 259.213 79.5898C260.318 78.8531 261.178 77.9628 261.792 76.9191C262.467 75.9368 262.774 74.9238 262.713 73.8801C262.713 72.775 262.344 71.7619 261.608 70.841ZM331.514 73.5117C330.777 72.0996 329.702 70.9638 328.29 70.1043C326.94 69.2448 325.497 68.6615 323.962 68.3545C320.892 67.6792 317.884 67.9555 314.937 69.1834C313.464 69.7973 312.113 70.6875 310.885 71.854C309.718 73.0205 308.675 74.2484 307.754 75.5377C305.851 78.1163 304.5 80.8791 303.702 83.826C302.965 86.773 302.351 89.7814 301.86 92.8511L301.768 93.4037C301.706 93.8948 301.369 94.1404 300.755 94.1404C300.202 94.1404 299.895 93.8948 299.834 93.4037C299.527 91.5618 299.22 89.72 298.913 87.8781C298.667 85.9749 298.299 84.133 297.808 82.3526C297.501 81.3703 297.194 80.4186 296.887 79.4977C296.641 78.5154 296.304 77.5945 295.874 76.7349C295.383 75.7526 294.799 74.8624 294.124 74.0643C293.51 73.2661 292.835 72.5294 292.098 71.854C288.783 68.9071 284.946 67.2187 280.587 66.789C278.99 66.6048 277.333 66.6048 275.614 66.789C273.956 66.9118 272.39 67.3415 270.917 68.0783C269.075 68.9992 267.632 70.3806 266.589 72.2224C265.545 74.0643 265.084 76.0289 265.207 78.1163C265.269 79.7126 265.606 81.2782 266.22 82.813C266.834 84.3479 267.602 85.7907 268.522 87.1414C269.505 88.4921 270.579 89.7507 271.746 90.9172C272.912 92.0837 274.109 93.1274 275.337 94.0483C277.916 96.0129 280.74 97.732 283.81 99.2055C286.88 100.679 290.011 101.569 293.203 101.876H293.295H293.387H293.479C293.541 101.876 293.572 101.907 293.572 101.968C293.572 101.968 293.572 101.999 293.572 102.06H293.756C294.247 102.306 294.4 102.736 294.216 103.35C294.093 103.534 293.94 103.687 293.756 103.81C291.791 105.775 290.041 107.985 288.506 110.441C287.033 112.897 285.989 115.506 285.375 118.269C284.884 120.356 284.853 122.474 285.283 124.623C285.713 126.71 286.818 128.46 288.599 129.872C289.765 130.793 291.024 131.468 292.374 131.898C293.786 132.267 295.168 132.574 296.519 132.819C298.299 133.003 300.11 133.065 301.952 133.003C303.794 132.942 305.574 132.666 307.293 132.175C308.521 131.806 309.688 131.315 310.793 130.701C311.959 130.026 312.942 129.166 313.74 128.122C314.477 127.14 314.998 126.096 315.305 124.991C315.674 123.825 315.858 122.628 315.858 121.4C315.858 119.742 315.643 118.115 315.213 116.519C314.783 114.861 314.2 113.265 313.464 111.73C312.788 110.195 311.959 108.722 310.977 107.31C310.056 105.898 309.104 104.547 308.122 103.258C307.877 102.951 307.784 102.613 307.846 102.245C307.907 101.876 308.184 101.631 308.675 101.508C308.797 101.508 309.104 101.446 309.596 101.324C312.727 100.648 315.643 99.4817 318.344 97.8241C321.107 96.1664 323.594 94.1711 325.804 91.8381C326.97 90.5488 328.106 89.1367 329.211 87.6018C330.378 86.0056 331.207 84.44 331.698 82.9051C332.189 81.3703 332.465 79.774 332.527 78.1163C332.588 76.4587 332.25 74.9238 331.514 73.5117ZM333.908 74.2484C334.399 75.7833 334.583 77.4103 334.461 79.1293C334.399 80.787 334.092 82.3526 333.54 83.826C332.742 85.7907 331.698 87.6632 330.408 89.4437C329.181 91.2241 327.83 92.8511 326.356 94.3246C324.146 96.4734 321.721 98.3152 319.081 99.8501C316.441 101.324 313.648 102.429 310.701 103.165L311.53 104.271C312.512 105.621 313.433 107.064 314.292 108.599C315.213 110.134 315.95 111.73 316.503 113.388C317.117 115.045 317.546 116.734 317.792 118.453C318.037 120.172 318.037 121.922 317.792 123.702C317.423 126.403 316.226 128.767 314.2 130.793C313.034 131.837 311.744 132.666 310.332 133.28C308.92 133.894 307.447 134.354 305.912 134.661C303.947 134.968 301.952 135.091 299.926 135.029C297.9 134.968 295.905 134.722 293.94 134.293C292.528 133.986 291.146 133.525 289.796 132.911C288.445 132.297 287.248 131.468 286.204 130.425C284.362 128.583 283.319 126.403 283.073 123.886C282.827 121.308 283.042 118.821 283.718 116.427C285.13 111.577 287.586 107.31 291.085 103.626H290.993C287.432 102.951 283.994 101.723 280.679 99.9422C277.363 98.1618 274.355 96.0436 271.654 93.5878C270.487 92.5441 269.351 91.3776 268.246 90.0883C267.202 88.799 266.282 87.4483 265.483 86.0363C264.685 84.5628 264.071 83.0279 263.642 81.4316C263.273 79.8354 263.15 78.2391 263.273 76.6428C263.519 73.9415 264.378 71.6085 265.852 69.6438C267.387 67.6792 269.413 66.2671 271.93 65.4076C273.833 64.7936 275.828 64.4867 277.916 64.4867C280.003 64.4867 282.029 64.7322 283.994 65.2234C286.143 65.7146 288.169 66.5741 290.072 67.802C292.037 69.0299 293.756 70.4727 295.229 72.1303C296.58 73.6038 297.593 75.2615 298.268 77.1033C298.944 78.8838 299.496 80.7256 299.926 82.6288C300.11 83.3042 300.264 84.0102 300.386 84.747C300.509 85.4837 300.663 86.2205 300.847 86.9572C301.215 84.9312 301.676 83.12 302.228 81.5237C302.904 79.6819 303.732 77.9628 304.715 76.3666C305.697 74.7089 306.864 73.174 308.214 71.7619C309.442 70.4113 310.762 69.2755 312.174 68.3545C313.586 67.3722 315.183 66.6969 316.963 66.3285C318.682 65.9601 320.37 65.868 322.028 66.0522C323.747 66.175 325.405 66.5434 327.001 67.1573C328.659 67.8327 330.102 68.7536 331.329 69.9201C332.557 71.0866 333.417 72.5294 333.908 74.2484Z" fill="black"/>
<path d="M1.23935 110.457C0.678474 113.832 0.680272 117.26 1.21598 120.64C1.75169 124.019 2.81052 127.214 4.34934 130.207C5.88815 133.199 7.81167 135.77 10.1451 138.039C12.4784 140.308 15.0743 142.143 17.9236 143.571C20.7532 144.988 23.7894 145.992 26.9138 146.474C27.3363 146.539 27.7587 146.596 28.183 146.645V145.282C24.7566 145.328 21.3824 146.096 18.2346 147.45C15.1282 148.785 12.2681 150.729 9.86821 153.129C8.50917 154.488 7.29933 156.005 6.27286 157.636C6.07691 157.947 6.20814 158.388 6.51554 158.568C6.84092 158.761 7.2418 158.635 7.43775 158.323C8.3276 156.911 9.2588 155.719 10.4219 154.502C10.9846 153.914 11.5742 153.354 12.1872 152.822C12.8344 152.26 13.3647 151.846 14.0532 151.357C16.7497 149.444 19.6386 148.111 22.8169 147.331C23.2681 147.221 23.7211 147.123 24.1777 147.037C24.4007 146.995 24.6218 146.957 24.8465 146.921C24.9525 146.904 25.0586 146.888 25.1647 146.872C25.2114 146.865 25.2582 146.859 25.3067 146.852C25.1934 146.868 25.3894 146.841 25.411 146.839C26.3332 146.721 27.259 146.657 28.1884 146.645C28.5533 146.639 28.8625 146.336 28.8625 145.963C28.8625 145.56 28.5515 145.324 28.1884 145.282C27.4999 145.202 26.7754 145.088 26.0168 144.937C25.2582 144.786 24.5139 144.606 23.7751 144.396C23.0362 144.185 22.3028 143.947 21.5801 143.682C20.8574 143.416 20.2264 143.157 19.5379 142.84C18.1483 142.201 16.8073 141.458 15.5255 140.618C14.2438 139.779 13.0951 138.898 11.9391 137.855C9.58778 135.735 7.66965 133.359 6.11286 130.615C4.55607 127.872 3.39657 124.765 2.7512 121.544C2.43121 119.949 2.25324 118.461 2.18853 116.813C2.12381 115.166 2.18853 113.536 2.38807 111.912C2.42582 111.603 2.48514 111.198 2.54806 110.82C2.61098 110.442 2.44559 110.084 2.06988 109.981C1.7463 109.892 1.30047 110.091 1.24115 110.457H1.23935Z" fill="black"/>
<path d="M348.952 64.2062C349.937 58.5301 349.973 52.6222 348.395 47.0467C347.05 42.2904 344.482 37.8431 340.81 34.4912C338.774 32.6327 336.436 31.1558 333.862 30.1493L334.478 30.7625L334.365 30.2616L332.891 31.116C336.119 33.768 340.26 35.2262 344.45 35.156C348.64 35.0858 352.31 33.562 355.367 30.9919C357.031 29.5922 358.44 27.8648 359.46 25.9477C359.684 25.5287 359.566 24.9927 359.143 24.747C358.743 24.5152 358.16 24.6416 357.937 25.0629C357.713 25.4843 357.492 25.8588 357.245 26.2427C357.125 26.4276 357.003 26.6101 356.876 26.7904C356.817 26.8746 356.756 26.9589 356.695 27.0408C356.66 27.0876 356.625 27.1345 356.589 27.1813C356.575 27.2 356.46 27.3498 356.54 27.2492C355.99 27.9584 355.376 28.6185 354.718 29.227C354.381 29.536 354.033 29.8309 353.676 30.1142C353.662 30.1259 353.544 30.2148 353.645 30.1399C353.61 30.1656 353.575 30.1937 353.54 30.2195C353.457 30.2803 353.373 30.3412 353.29 30.4021C353.1 30.5402 352.905 30.6736 352.707 30.8023C351.945 31.3056 351.141 31.7456 350.307 32.1178C350.253 32.1412 350.198 32.1646 350.144 32.188C350.144 32.188 350.01 32.2465 350.088 32.2137C350.175 32.1763 350.006 32.2465 349.989 32.2535C349.949 32.2699 349.907 32.2863 349.867 32.3027C349.648 32.3893 349.427 32.4712 349.204 32.5485C348.771 32.6983 348.334 32.8293 347.892 32.9417C347.45 33.0541 346.977 33.1524 346.516 33.2273C346.408 33.2436 346.3 33.2624 346.19 33.2764C346.034 33.2975 346.3 33.2624 346.145 33.2811C346.081 33.2881 346.02 33.2951 345.957 33.3022C345.708 33.3303 345.456 33.3513 345.207 33.3677C344.252 33.4286 343.29 33.4052 342.34 33.2998C342.277 33.2928 342.216 33.2858 342.152 33.2788C342.136 33.2788 341.981 33.2577 342.108 33.2741C342 33.26 341.889 33.2436 341.781 33.2249C341.532 33.1851 341.285 33.1407 341.04 33.0915C340.563 32.9955 340.09 32.8785 339.622 32.7404C338.557 32.4267 337.739 32.1014 336.782 31.6005C336.295 31.3477 335.823 31.0692 335.364 30.7672C334.906 30.4653 334.529 30.1891 334.144 29.8731C333.838 29.6226 333.436 29.5266 333.076 29.735C332.717 29.9433 332.58 30.3459 332.665 30.7274C332.695 30.8608 332.724 30.9966 332.757 31.13C332.872 31.5981 333.182 31.755 333.601 31.9235C333.669 31.9516 333.737 31.9797 333.808 32.0078C333.688 31.9586 333.824 32.0148 333.843 32.0242C333.979 32.0827 334.113 32.1435 334.247 32.2044C334.544 32.3401 334.835 32.4829 335.122 32.6304C336.168 33.1734 337.168 33.8054 338.108 34.5146C338.108 34.5146 338.336 34.6902 338.212 34.5919C338.259 34.627 338.303 34.6644 338.35 34.7019C338.466 34.7932 338.581 34.8868 338.694 34.9804C338.933 35.1771 339.169 35.3784 339.399 35.5867C339.85 35.9916 340.285 36.4129 340.704 36.8506C341.123 37.2884 341.508 37.7214 341.884 38.1778C341.978 38.2925 342.072 38.4072 342.164 38.5242C342.202 38.5711 342.237 38.6179 342.275 38.6647C342.451 38.8894 342.225 38.5991 342.329 38.7326C342.517 38.9807 342.703 39.2311 342.884 39.4863C343.58 40.4693 344.205 41.4992 344.76 42.5689C345.364 43.7369 345.759 44.6639 346.185 45.8951C347.123 48.6032 347.64 51.3793 347.814 54.1905C348.012 57.3948 347.788 60.6414 347.25 63.7451C347.172 64.1969 347.37 64.7118 347.866 64.8242C348.294 64.9202 348.868 64.6955 348.95 64.2109L348.952 64.2062Z" fill="#090909"/>
</svg>
