<svg width="826" height="337" viewBox="0 0 826 337" fill="none" xmlns="http://www.w3.org/2000/svg">
<path d="M352.758 113.108C348.111 111.088 343.03 110.712 338.018 110.273C319.893 108.686 301.597 108.83 283.43 109.382C230.633 110.988 175.961 114.257 124.852 128.496C98.7478 135.769 45.3809 148.882 38.678 181.788C35.5184 197.298 43.9332 212.651 52.9322 224.389C69.6655 246.215 92.9692 262.751 116.753 276.06C191.634 317.965 278.995 331.779 363.773 334.373C400.253 335.49 436.847 333.423 472.299 324.33C492.849 319.06 516.89 311.403 531.908 295.174C558.635 266.294 530.261 231.001 503.076 216.451C452.722 189.502 390.69 190.624 335.264 187.457" stroke="black" stroke-width="3" stroke-linecap="round"/>
<path d="M2 243C2 266.618 6.22342 284.308 31.1565 291.108" stroke="black" stroke-width="3" stroke-linecap="round"/>
<path d="M115.952 2C115.769 4.2007 114.833 6.3372 114.291 8.46095C112.478 15.5549 111.696 22.9354 111.553 30.2436C111.299 43.1652 112.658 57.4834 119.798 68.6401C121.707 71.6231 124.331 74.1373 125.92 77.3163" stroke="black" stroke-width="3" stroke-linecap="round"/>
<path d="M101 65.6865C103.621 65.9486 106.109 67.6899 108.384 68.8863C112.084 70.8318 115.91 72.5516 119.706 74.3011C122.738 75.6985 125.873 78.6185 127.028 74.3011C128.703 68.0448 132.237 62.7981 134.228 56.8258" stroke="black" stroke-width="3" stroke-linecap="round"/>
<path d="M31 61.0921C40.7184 61.0921 50.4425 59.3121 60.0417 62.4492C62.631 63.2954 65.0205 64.6175 67.375 66.2847C69.1973 67.575 71.2738 68.1224 73 69.5891" stroke="black" stroke-width="3" stroke-linecap="round"/>
<path d="M66.933 54C70.3975 58.2344 71.9932 64.0263 74.9323 68.6448C76.1166 70.5059 60.1193 76.1473 58.0723 76.7056" stroke="black" stroke-width="3" stroke-linecap="round"/>
<path d="M564.551 107.722V222H537.08L496.659 150.89V222H469.11V107.722H496.659L537.08 178.832V107.722H564.551ZM679.497 162.585V167.215C679.497 175.954 678.267 183.803 675.808 190.762C673.401 197.669 669.974 203.582 665.526 208.5C661.078 213.366 655.82 217.108 649.75 219.724C643.68 222.288 636.983 223.57 629.657 223.57C622.279 223.57 615.529 222.288 609.407 219.724C603.337 217.108 598.053 213.366 593.553 208.5C589.105 203.582 585.652 197.669 583.192 190.762C580.785 183.803 579.582 175.954 579.582 167.215V162.585C579.582 153.846 580.785 145.998 583.192 139.038C585.652 132.079 589.079 126.166 593.474 121.3C597.922 116.381 603.18 112.64 609.25 110.076C615.372 107.46 622.122 106.152 629.5 106.152C636.826 106.152 643.523 107.46 649.593 110.076C655.715 112.64 661 116.381 665.448 121.3C669.895 126.166 673.349 132.079 675.808 139.038C678.267 145.998 679.497 153.846 679.497 162.585ZM651.555 167.215V162.428C651.555 156.777 651.058 151.806 650.064 147.515C649.122 143.172 647.709 139.535 645.826 136.605C643.942 133.675 641.613 131.477 638.84 130.012C636.119 128.495 633.006 127.736 629.5 127.736C625.837 127.736 622.645 128.495 619.925 130.012C617.204 131.477 614.927 133.675 613.096 136.605C611.265 139.535 609.878 143.172 608.936 147.515C608.047 151.806 607.602 156.777 607.602 162.428V167.215C607.602 172.814 608.047 177.785 608.936 182.128C609.878 186.419 611.265 190.055 613.096 193.038C614.98 196.021 617.282 198.27 620.003 199.788C622.776 201.305 625.994 202.064 629.657 202.064C633.163 202.064 636.276 201.305 638.997 199.788C641.718 198.27 643.994 196.021 645.826 193.038C647.709 190.055 649.122 186.419 650.064 182.128C651.058 177.785 651.555 172.814 651.555 167.215ZM720.978 211.64L743.739 107.722H757.318L764.696 116.591L740.443 222H725.452L720.978 211.64ZM714.934 107.722L734.164 212.424L729.219 222H711.873L687.621 107.722H714.934ZM777.175 211.875L796.248 107.722H823.483L799.23 222H781.963L777.175 211.875ZM767.129 107.722L790.44 212.267L785.73 222H770.739L745.937 116.434L753.629 107.722H767.129Z" fill="black"/>
<path d="M229.938 95.65C230.088 101.35 228.138 106.6 224.988 111.55C217.188 123.7 203.238 130.45 188.988 130.45C178.938 130.45 168.138 128.05 160.638 121.15C151.338 112.45 149.388 99.25 150.138 86.95C150.888 78.25 152.688 69.55 155.388 61.3C161.538 40.45 174.288 23.05 198.288 23.05C216.438 23.5 226.938 32.8 226.938 51.7C227.088 59.05 223.038 65.95 217.038 70.15C213.738 72.4 208.788 75.25 204.588 75.25C199.788 75.25 193.188 71.8 192.138 66.85C191.988 63.7 191.088 60.55 189.738 57.85C189.438 57.1 188.988 56.95 188.388 56.95C187.338 56.95 186.288 58.15 186.888 59.5C187.788 61.45 188.538 63.55 188.688 65.65C188.688 65.65 188.688 65.95 188.688 66.1C188.838 66.55 188.838 67 188.988 67.3C189.138 70.15 188.988 73.15 188.838 75.85C188.088 81.55 186.888 87.55 184.488 92.8C184.038 94.15 184.938 95.35 185.988 95.35C186.588 95.35 187.038 95.05 187.488 94.45C192.738 85.9 205.338 80.8 214.938 80.8C224.388 80.8 229.638 85.9 229.938 95.65ZM316.587 88.15C316.887 95.2 316.587 102.4 314.937 109.3C312.837 117.25 308.937 125.05 299.487 125.05C287.037 125.05 280.587 112.3 280.287 101.2C280.137 98.65 280.287 96.4 280.587 93.85V93.1C284.187 92.95 287.487 93.7 290.487 95.2C292.437 96.25 294.087 93.4 292.287 92.5C288.987 90.7 285.237 89.8 281.487 89.8C276.387 89.8 271.137 91.45 266.937 94.15C265.137 95.35 266.787 98.2 268.737 97C271.137 95.35 274.287 94.15 277.287 93.55C273.987 104.5 262.587 132.1 249.987 133.6C245.937 133.9 241.287 132.25 238.137 129.85C235.137 127.6 233.187 124.45 231.987 120.85C229.437 113.2 230.787 104.5 232.587 96.55C233.487 92.65 234.687 88.75 236.037 85C236.487 83.35 237.087 81.85 237.687 80.35C237.837 79.75 238.287 79 238.437 78.4C238.737 77.65 238.737 77.8 239.037 77.05C239.187 76.75 239.487 76.15 239.637 75.85C245.787 62.2 252.987 48.7 263.337 37.9C269.487 31.15 278.637 23.8 288.237 23.8C309.837 23.8 316.287 72.85 316.587 88.15ZM283.437 53.65C281.787 60.1 280.737 66.55 280.137 73C279.987 73.9 280.887 74.65 281.787 74.65C282.687 74.65 283.287 73.9 283.287 73C284.037 66.7 284.937 60.55 286.737 54.7C287.037 53.35 285.987 52.6 284.937 52.6C284.337 52.6 283.737 52.9 283.437 53.65ZM397.304 75.7C407.204 84.4 409.905 100.15 403.004 111.4C394.004 126.4 374.354 129.7 358.304 129.55C349.304 129.55 340.004 128.35 331.604 124.75C326.204 122.35 321.104 118.75 317.954 113.5C315.554 109.45 314.504 104.8 314.954 100.3C315.404 97 316.754 93.7 319.454 91.15C322.304 88.6 326.204 87.55 329.954 87.7C332.504 87.85 334.754 88.3 337.004 89.05C344.204 94.3 352.754 97.9 361.454 99.85C364.454 100.6 367.754 100.75 371.054 101.35C373.154 101.65 373.154 98.35 371.054 98.05C359.354 96.7 347.804 92.8 338.504 86.05C333.254 82.15 328.754 77.35 325.304 71.5C323.654 68.95 322.304 66.1 321.554 63.4C321.104 62.05 320.654 60.7 320.354 59.65C320.204 58.3 320.054 57.55 319.904 56.65C319.154 47.2 323.504 38.5 330.554 32.5C334.454 29.2 339.104 26.95 344.054 25.45C349.604 23.65 355.304 23.35 361.154 23.35C370.304 23.5 380.504 24.55 388.604 28.9C393.255 31.45 396.554 34.9 397.454 39.85C397.454 40 397.454 40.15 397.454 40.3C397.454 40.3 397.454 40.45 397.454 41.05C397.604 41.5 397.604 41.95 397.604 42.4C397.454 43.75 397.454 43.9 397.154 45.1C397.154 45.55 397.004 45.85 396.854 46.45C396.854 46.6 396.705 46.9 396.705 47.05C396.705 47.05 396.705 47.2 396.554 47.2V47.35C396.404 47.5 396.254 47.5 396.104 47.95C395.054 50.2 394.004 52.3 392.354 54.25C387.404 60.1 379.604 61.45 372.254 59.5C370.304 58.9 368.354 58.3 366.404 57.55C365.804 57.1 365.204 56.8 364.454 56.35C364.304 56.35 364.004 56.2 363.854 56.2C361.004 54.7 358.304 52.9 356.204 50.8C355.904 50.5 355.454 50.2 355.154 49.75C355.004 49.6 354.854 49.45 354.854 49.45C354.854 49.45 354.854 49.45 354.854 49.3H354.704C354.704 49.3 354.704 49.3 354.704 49.15C353.354 47.35 350.654 49 351.704 50.8C353.054 52.9 355.154 54.55 357.104 55.9C359.204 57.4 361.604 58.75 363.854 59.95C364.004 59.95 364.004 59.95 364.004 59.95C374.804 65.8 387.854 67.3 397.304 75.7ZM501.808 89.35C502.108 97 501.658 104.95 499.408 112.3C496.708 120.7 491.158 127 482.008 127C469.108 127 463.108 111.1 461.308 99.25C461.308 96.7 461.158 94.15 460.708 91.6C465.508 91.45 470.308 92.35 474.958 93.55C476.908 94.15 477.808 90.7 475.708 90.1C470.458 88.45 464.608 88 459.058 88.45C453.958 88.9 449.008 90.55 444.658 93.4C442.858 94.6 444.508 97.6 446.308 96.4C449.458 94.15 453.358 92.8 457.258 92.2C457.258 94.9 457.408 97.3 457.858 100C457.558 108.4 454.858 119.8 449.758 126.4C446.308 130.6 441.358 133.3 435.508 132.25C411.958 127.6 407.908 77.8 407.908 59.65C407.908 53.2 408.058 46.3 409.408 39.7C411.508 30.7 415.858 24.55 425.458 23.65C429.658 23.35 434.008 23.95 438.058 25.75C447.358 29.95 452.158 41.2 454.558 50.5C455.008 52.6 455.458 54.7 456.058 56.8C451.408 57.4 446.608 58.75 442.558 60.85C440.758 61.9 442.408 64.75 444.358 63.7C449.008 61.15 454.558 59.95 460.108 59.95C463.558 59.95 467.008 60.4 470.158 61.45C472.258 62.05 473.158 58.75 471.058 58.15C467.458 56.95 463.408 56.5 459.658 56.65C458.458 49.15 457.858 41.05 459.208 33.55C459.808 30.4 460.708 26.65 463.408 24.55C465.808 22.75 470.008 22.6 472.858 23.2C494.158 26.95 501.358 72.85 501.808 89.35Z" fill="white"/>
<path d="M226.238 85.55C229.538 90.65 229.838 97.7 228.488 103.55C225.188 117.35 212.888 128.45 199.538 132.5C192.638 134.9 185.138 135.2 177.938 134.45C166.688 133.1 155.738 128.3 149.288 118.7C140.588 105.5 142.088 88.4 144.938 73.7C149.438 50.6 162.188 23 188.888 20.9C201.338 19.7 215.738 23.15 222.038 34.7C224.588 39.05 225.788 43.85 226.238 48.5C226.838 55.85 225.338 62.6 220.838 68.3C217.238 72.8 210.188 77.75 204.338 79.1C206.438 78.8 208.688 78.65 211.088 78.65C216.788 78.65 222.788 80.45 226.238 85.55ZM225.938 96.65C225.638 86.9 220.388 81.8 210.938 81.8C201.038 81.8 188.738 86.9 183.488 95.45C183.038 96.05 182.588 96.35 181.988 96.35C180.938 96.35 180.038 95.15 180.488 93.8C182.888 88.55 184.088 82.55 184.838 76.85C184.988 74.15 185.138 71.15 184.988 68.3C184.838 68 184.838 67.55 184.688 67.1C184.688 66.95 184.688 66.65 184.688 66.65C184.538 64.55 183.788 62.45 182.888 60.5C182.288 59.15 183.338 57.95 184.388 57.95C184.988 57.95 185.438 58.1 185.738 58.85C187.088 61.55 187.988 64.7 188.138 67.85C189.188 72.8 195.788 76.25 200.588 76.25C204.788 76.25 209.738 73.4 213.038 71.15C219.038 66.95 223.088 60.05 222.938 52.7C222.938 33.8 212.438 24.5 194.288 24.05C189.938 24.05 186.038 24.35 181.838 25.7C157.388 33.05 148.088 65.45 146.138 87.95C145.388 100.25 147.338 113.45 156.638 122.15C164.138 129.05 174.938 131.45 184.988 131.45C199.238 131.45 213.188 124.7 220.988 112.55C224.138 107.6 226.088 102.35 225.938 96.65ZM188.138 76.85C187.838 80.45 187.088 84.2 186.188 87.8C186.938 87.05 187.988 86.3 188.888 85.55C192.038 83.45 195.488 81.2 199.388 80.3C200.288 79.85 201.188 79.7 202.088 79.55C196.688 79.55 192.188 78.5 188.288 74.45C188.288 74.75 188.288 74.9 188.288 75.05L188.138 76.25C188.138 76.4 188.138 76.55 188.138 76.85ZM314.687 73.85C315.587 81.5 316.337 89.45 316.037 97.4C315.737 100.85 315.287 104.6 314.837 108.2C312.737 118.1 308.237 129.05 296.387 129.35C291.437 129.65 286.487 127.85 282.737 124.55C276.587 119.9 273.737 112.4 273.137 104.75C270.737 111.05 267.887 116.9 264.287 122.6C259.637 129.95 252.587 139.25 242.687 137.6C233.687 136.1 226.187 130.25 224.537 121.1C222.287 112.4 223.787 102.95 226.037 94.4C227.837 87.5 230.987 77.75 234.587 71.3C243.587 52.25 261.887 21.5 284.987 21.5C304.937 21.5 312.587 59.6 314.687 73.85ZM312.587 89.15C312.287 71.6 305.087 24.8 284.237 24.8C262.187 24.8 243.437 59.6 235.637 76.85C235.487 77.15 235.187 77.75 235.037 78.05C234.737 78.8 234.737 78.65 234.437 79.4C234.287 80 233.837 80.75 233.687 81.35C233.087 82.85 232.487 84.35 232.037 86C230.687 89.75 229.487 93.65 228.587 97.55C226.787 105.5 225.437 114.2 227.987 121.85C229.187 125.45 231.137 128.6 234.137 130.85C237.287 133.25 241.937 134.9 245.987 134.6C258.887 133.1 270.287 104.75 273.287 94.55C270.287 95.15 267.137 96.35 264.737 98C262.787 99.2 261.137 96.35 262.937 95.15C267.137 92.45 272.387 90.8 277.487 90.8C281.237 90.8 284.987 91.7 288.287 93.5C290.087 94.4 288.437 97.25 286.487 96.2C283.487 94.7 280.187 93.95 276.587 94.1V94.85C276.287 97.4 276.137 99.65 276.287 102.2C276.587 113.3 283.037 126.05 295.487 126.05C304.937 126.05 308.837 118.25 310.937 110.3C312.587 103.4 312.887 96.2 312.587 89.15ZM279.437 54.65C279.737 53.9 280.337 53.6 280.937 53.6C281.987 53.6 283.037 54.35 282.737 55.7C280.937 61.55 280.037 67.7 279.287 74C279.287 74.9 278.687 75.65 277.787 75.65C276.887 75.65 275.987 74.9 276.137 74C276.737 67.55 277.787 61.1 279.437 54.65ZM400.654 79.85C405.004 86.15 406.804 94.55 406.054 102.05C403.354 125.9 376.804 133.85 356.254 133.85C338.854 133.85 314.704 129.5 308.554 110.9C306.754 105.35 307.204 98.75 310.054 93.65C313.804 87.05 320.704 84.95 327.454 85.55C322.654 81.05 318.604 75.5 315.754 69.05C313.204 63.05 312.004 56.9 312.904 50.3C314.554 39.5 322.504 30.8 332.104 26C339.754 22.1 348.154 20.9 356.554 20.9C367.804 20.9 382.804 22.55 391.204 30.35C394.954 33.8 397.204 38.75 396.905 44C396.754 46.4 396.004 48.65 394.954 50.9C391.355 58.25 386.254 63.5 377.854 64.55C386.404 68 394.954 71.75 400.654 79.85ZM393.304 76.7C383.854 68.3 370.804 66.8 360.004 60.95H359.854C355.954 58.85 350.104 55.55 347.704 51.8C346.954 50.6 348.004 49.4 349.204 49.4C349.804 49.4 350.254 49.55 350.704 50.3H350.854C350.854 50.45 351.004 50.6 351.154 50.75C352.654 53.15 357.604 56 360.004 57.2L360.304 57.35C361.204 57.8 361.804 58.1 362.404 58.55C366.304 60.05 370.354 61.4 374.554 61.4C383.554 61.4 388.504 56.6 392.104 48.95C392.254 48.5 392.404 48.5 392.554 48.35V48.2C392.705 48.2 392.705 48.05 392.705 47.9L392.854 47.6C393.004 46.85 393.154 46.55 393.154 46.1C393.454 44.9 393.454 44.75 393.604 43.4C393.604 42.95 393.604 42.5 393.454 42.05V40.85C390.904 26.6 368.404 24.5 357.154 24.35C346.204 24.35 335.104 26.15 326.554 33.5C319.504 39.5 315.154 48.2 315.904 57.65C316.054 58.55 316.204 59.3 316.354 60.65C317.554 64.85 318.904 68.9 321.304 72.5C330.904 88.85 348.754 96.95 367.054 99.05C369.154 99.35 369.154 102.65 367.054 102.35C363.754 101.75 360.454 101.6 357.454 100.85C348.754 98.9 340.204 95.3 333.004 90.05C330.754 89.3 328.504 88.85 325.954 88.7C322.204 88.55 318.304 89.6 315.454 92.15C312.754 94.7 311.404 98 310.954 101.3C310.504 105.8 311.554 110.45 313.954 114.5C321.754 127.4 340.654 130.55 354.304 130.55C370.354 130.7 390.004 127.4 399.004 112.4C405.905 101.15 403.204 85.4 393.304 76.7ZM496.758 60.2C499.758 72.2 501.408 84.95 501.108 97.25C500.808 105.2 500.058 113.75 496.008 120.95C492.108 128 484.308 132.2 476.208 131.3C467.358 130.4 461.358 123.2 458.058 115.55C457.308 114.05 456.708 112.25 456.108 110.6C455.958 111.8 455.508 113.15 455.208 114.35C452.208 124.55 446.658 136.85 434.208 136.85C432.258 136.85 430.158 136.55 428.208 135.8C408.408 129.65 403.308 95.45 401.358 78.35C400.608 70.7 400.308 62.9 400.458 55.4C401.058 40.7 402.858 22.7 421.458 21.2C426.708 20.9 431.958 21.65 436.608 24.2C443.508 27.95 448.008 34.7 450.858 41.75C450.858 42.05 451.008 42.2 451.308 42.5C451.308 34.55 452.208 22.7 462.108 21.05C465.858 20.3 469.758 20.75 473.208 22.1C486.558 27.35 493.608 47.3 496.758 60.2ZM497.808 90.35C497.358 72.5 489.708 27.95 468.858 24.2C466.008 23.6 461.808 23.75 459.408 25.55C456.708 27.65 455.808 31.4 455.208 34.55C453.858 42.05 454.458 50.15 455.658 57.65C459.408 57.5 463.458 57.95 467.058 59.15C469.158 59.75 468.258 63.05 466.158 62.45C463.008 61.4 459.558 60.95 456.108 60.95C450.558 60.95 445.008 62.15 440.358 64.7C438.408 65.75 436.758 62.9 438.558 61.85C442.608 59.75 447.408 58.4 452.058 57.8C451.458 55.7 451.008 53.6 450.558 51.5C448.158 42.2 443.358 30.95 434.058 26.75C430.008 24.95 425.658 24.35 421.458 24.65C411.858 25.55 407.508 31.7 405.408 40.7C404.058 47.3 403.908 54.2 403.908 60.65C403.908 75.2 405.558 89.3 409.458 103.4C412.608 114.95 418.158 130.7 431.508 133.25C437.358 134.3 442.308 131.6 445.758 127.4C450.858 120.8 453.558 109.4 453.858 101C453.408 98.3 453.258 95.9 453.258 93.2C449.358 93.8 445.458 95.15 442.308 97.4C440.508 98.6 438.858 95.6 440.658 94.4C445.008 91.55 449.958 89.9 455.058 89.45C460.608 89 466.458 89.45 471.708 91.1C473.808 91.7 472.908 95.15 470.958 94.55C466.308 93.35 461.508 92.45 456.708 92.6C457.158 95.15 457.308 97.7 457.308 100.25C459.108 112.1 465.108 128 478.008 128C487.158 128 492.708 121.7 495.408 113.3C497.658 105.95 498.108 98 497.808 90.35Z" fill="black"/>
<path d="M192.104 134.508C220.521 134.508 233.553 163.649 233.553 188.627C233.553 195.143 232.648 202.021 231.019 208.718C223.598 240.755 199.887 263.742 176.176 263.742C162.42 263.742 151.741 256.321 144.501 244.918C135.27 230.438 132.736 209.623 137.442 189.532C145.044 157.495 168.393 134.508 192.104 134.508ZM189.208 181.206C182.33 192.247 176.9 203.831 173.099 216.32C172.737 217.768 173.823 218.673 175.09 218.673C175.995 218.673 176.719 218.311 176.9 217.225C180.701 205.279 185.95 193.876 192.466 183.197C193.552 181.749 192.104 180.12 190.837 180.12C190.113 180.12 189.57 180.482 189.208 181.206ZM360.687 163.468C361.773 173.604 361.773 184.283 360.687 194.6C359.782 204.193 358.334 213.605 356.524 223.017C353.628 236.592 347.112 264.466 329.012 264.466C321.591 264.466 318.876 257.95 317.971 251.434C317.247 247.09 317.247 242.384 317.609 238.04C317.79 236.954 317.971 235.687 318.333 234.42C318.695 232.791 317.428 231.886 316.161 231.886C315.437 231.886 314.713 232.248 314.351 233.153C309.283 249.443 299.509 261.389 281.952 262.656C276.522 263.199 270.73 263.018 265.662 261.389C254.621 257.769 249.553 246.547 247.2 236.049C244.847 225.008 244.847 213.424 245.752 202.202C246.838 186.636 251.544 161.658 258.965 148.264C263.128 140.662 269.644 133.422 279.056 134.146C289.373 134.87 293.717 145.549 295.165 154.418C296.251 162.201 296.251 170.346 296.07 178.129C295.889 191.704 295.346 205.279 293.355 218.492C293.174 219.94 294.441 221.026 295.527 221.026C296.251 221.026 296.975 220.664 297.337 219.578C300.776 204.736 304.396 189.894 308.921 175.052C312.179 164.916 315.799 154.237 321.41 145.006C321.591 144.825 321.591 144.825 321.591 144.644L322.134 144.101C322.315 143.92 322.496 143.739 322.496 143.558C322.858 143.558 322.858 143.377 323.039 143.015C326.84 137.404 334.804 134.689 341.32 134.689C344.94 134.689 348.379 135.413 351.094 137.404C357.972 143.196 359.782 155.142 360.687 163.468ZM487.023 152.065C487.204 155.685 486.48 158.943 484.851 161.839C479.421 171.251 466.932 175.233 456.977 176.681C453.357 177.224 449.918 177.405 446.479 177.405C445.393 177.405 444.85 177.767 444.669 178.672C444.488 179.034 444.488 179.396 444.488 179.939C446.66 189.532 449.013 198.944 449.737 208.718C450.099 213.786 449.918 219.035 449.556 224.103C448.47 233.877 445.936 244.013 440.687 252.339C437.972 256.502 434.533 259.941 430.008 261.932C425.302 264.104 419.329 264.285 414.261 262.837C403.039 259.941 400.505 247.09 400.686 237.135C400.867 228.447 402.677 219.759 405.392 211.433C408.469 201.659 412.812 192.247 417.881 183.197C418.243 182.654 418.062 181.749 417.7 181.206C417.519 180.482 416.795 179.758 415.709 180.301C415.346 180.482 415.166 180.482 415.166 180.663C412.632 181.387 410.098 181.568 407.383 181.93C403.22 182.292 399.238 182.473 395.256 181.93C387.292 180.844 378.242 177.767 374.803 169.984C374.079 168.536 373.898 166.907 373.355 165.459C373.355 165.278 373.355 165.278 373.355 165.278C373.355 164.916 373.355 164.735 373.355 164.554C373.355 164.373 373.355 164.011 373.355 163.649C373.355 162.744 373.355 162.201 373.355 161.477C373.355 161.296 373.355 161.115 373.355 160.753L373.717 160.572C373.717 160.21 373.717 159.848 373.898 159.305C374.441 157.133 374.803 155.866 376.07 153.875C377.337 151.884 378.966 150.255 380.957 148.445C387.292 143.196 395.618 140.3 403.582 138.49C417.338 135.413 431.818 134.508 445.755 134.689C455.529 134.87 465.665 135.775 474.715 139.214C475.982 139.757 477.43 140.481 478.878 141.024C479.964 141.929 481.05 142.653 481.774 143.196C483.584 144.825 484.489 145.73 485.575 147.721C485.756 147.902 485.756 148.264 485.937 148.626C485.937 148.626 485.937 148.626 485.937 148.807C486.118 149.169 486.299 149.712 486.48 150.255C486.48 150.617 486.661 150.979 486.661 151.341C486.661 151.522 486.661 151.703 486.661 151.703C486.661 151.884 486.661 151.884 486.661 151.884C487.023 151.884 487.023 151.884 487.023 151.884C487.023 152.065 487.023 152.065 487.023 152.065Z" fill="white"/>
<path d="M223.399 150.798C233.173 166.183 235.888 188.084 230.82 209.442C224.485 236.411 202.765 267.724 172.176 267.724C157.515 267.724 144.845 259.398 137.062 247.271C127.288 231.886 124.392 209.985 129.46 188.446C137.424 154.599 162.764 130.345 188.285 130.345C203.127 130.345 215.254 138.49 223.399 150.798ZM229.553 188.627C229.553 163.649 216.521 134.508 188.104 134.508C164.393 134.508 141.044 157.495 133.442 189.532C128.736 209.623 131.27 230.438 140.501 244.918C147.741 256.321 158.42 263.742 172.176 263.742C195.887 263.742 219.598 240.755 227.019 208.718C228.648 202.021 229.553 195.143 229.553 188.627ZM185.208 181.206C185.57 180.482 186.113 180.12 186.837 180.12C188.104 180.12 189.552 181.749 188.466 183.197C181.95 193.876 176.701 205.279 172.9 217.225C172.719 218.311 171.995 218.673 171.09 218.673C169.823 218.673 168.737 217.768 169.099 216.32C172.9 203.831 178.33 192.247 185.208 181.206ZM361.574 172.518C361.755 182.292 361.574 192.066 360.126 201.659C358.497 213.424 356.687 225.37 353.429 236.773C350.352 247.09 345.827 258.674 336.596 264.828C332.433 267.543 327.184 269.172 322.116 268.267C312.342 266.819 309.627 254.33 309.265 246.185C301.12 260.665 289.174 267.362 272.703 267.362C252.25 267.362 242.838 255.054 239.037 235.506C235.236 216.32 237.589 196.048 241.39 177.043C243.743 164.916 247.001 152.065 254.241 141.929C258.585 135.051 265.463 130.164 273.789 130.164C287.545 130.164 293.699 142.472 295.328 154.599C296.414 163.468 296.052 172.337 296.052 181.025C296.052 185.007 295.871 189.17 295.871 193.333C298.224 183.74 300.758 174.328 304.016 165.097C309.265 149.35 316.867 130.345 336.777 130.345C358.316 130.345 361.031 155.866 361.574 172.518ZM356.687 163.468C355.782 155.142 353.972 143.196 347.094 137.404C344.379 135.413 340.94 134.689 337.32 134.689C330.804 134.689 322.84 137.404 319.039 143.015C318.858 143.377 318.858 143.558 318.496 143.558C318.496 143.739 318.315 143.92 318.134 144.101L317.591 144.644C317.591 144.825 317.591 144.825 317.41 145.006C311.799 154.237 308.179 164.916 304.921 175.052C300.396 189.894 296.776 204.736 293.337 219.578C292.975 220.664 292.251 221.026 291.527 221.026C290.441 221.026 289.174 219.94 289.355 218.492C291.346 205.279 291.889 191.704 292.07 178.129C292.251 170.346 292.251 162.201 291.165 154.418C289.717 145.549 285.373 134.87 275.056 134.146C265.644 133.422 259.128 140.662 254.965 148.264C247.544 161.658 242.838 186.636 241.752 202.202C240.847 213.424 240.847 225.008 243.2 236.049C245.553 246.547 250.621 257.769 261.662 261.389C266.73 263.018 272.522 263.199 277.952 262.656C295.509 261.389 305.283 249.443 310.351 233.153C310.713 232.248 311.437 231.886 312.161 231.886C313.428 231.886 314.695 232.791 314.333 234.42C313.971 235.687 313.79 236.954 313.609 238.04C313.247 242.384 313.247 247.09 313.971 251.434C314.876 257.95 317.591 264.466 325.012 264.466C349.266 264.466 355.239 212.157 356.687 194.6C357.773 184.283 357.773 173.604 356.687 163.468ZM486.462 149.35C488.272 157.133 485.014 164.916 479.403 169.984C470.353 178.491 456.959 181.025 445.013 181.387L446.099 186.636C448.271 196.229 450.081 206.003 449.9 215.777C449.9 236.954 442.298 267.905 416.234 267.905C412.433 267.905 408.451 267 405.012 265.19C393.609 259.036 391.98 243.832 392.885 232.429C394.333 215.958 400.306 200.03 408.089 185.55C405.012 186.093 401.392 186.455 397.772 186.455C383.654 186.455 368.088 181.387 365.735 166.183C364.287 156.228 370.26 147.54 378.405 142.472C393.428 132.879 417.32 130.526 435.058 130.526C450.624 130.526 481.937 131.612 486.462 149.35ZM483.023 152.065V151.884C483.023 151.884 483.023 151.884 482.661 151.884V151.341C482.661 151.16 482.661 151.16 482.661 150.979L482.48 150.436C482.299 149.712 482.118 149.169 481.937 148.807C481.756 148.264 481.756 147.902 481.575 147.721C480.489 145.73 479.584 144.825 477.774 143.196C477.05 142.653 475.964 141.929 474.878 141.024C473.43 140.481 471.982 139.757 470.715 139.214C461.665 135.775 451.529 134.87 441.755 134.689C427.818 134.508 413.338 135.413 399.582 138.49C388.179 141.024 373.156 146.635 369.898 159.305C369.717 159.848 369.717 160.21 369.717 160.572L369.355 160.753V165.459C369.898 166.907 370.079 168.536 370.803 169.984C374.242 177.767 383.292 180.844 391.256 181.93C395.238 182.473 399.22 182.292 403.383 181.93C406.098 181.568 408.632 181.387 411.166 180.663C411.166 180.482 411.346 180.482 411.709 180.301C412.795 179.758 413.519 180.482 413.7 181.206C414.062 181.749 414.243 182.654 413.881 183.197C405.012 199.125 397.048 218.673 396.686 237.135C396.505 247.09 399.039 259.941 410.261 262.837C412.433 263.38 414.786 263.742 416.958 263.742C436.868 263.742 443.746 240.393 445.556 224.103C445.918 219.035 446.099 213.786 445.737 208.718C445.013 198.944 442.66 189.532 440.488 179.939C440.488 179.396 440.488 179.034 440.669 178.672C440.85 177.767 441.393 177.405 442.479 177.405C455.511 177.405 473.973 173.785 480.851 161.839C482.48 158.943 483.204 155.685 483.023 152.065Z" fill="black"/>
</svg>
