<svg xmlns="http://www.w3.org/2000/svg" width="365" height="124" viewBox="0 0 365 124" fill="none">
    <path d="M114.712 12.5453C122.252 5.82289 131.802 1.37156 141.812 0.19059C151.932 -0.0819412 162.492 -0.515948 172.092 3.37015C183.782 8.26561 191.892 18.8338 203.182 24.4459C207.632 26.6968 212.892 26.5757 217.672 25.5562C223.592 23.9917 228.732 20.4387 234.422 18.2382C241.082 15.2404 248.392 13.4033 255.722 14.3925C270.132 14.9779 284.532 21.6701 293.392 33.3183C303.862 45.6831 312.182 59.8446 323.672 71.3414C331.702 79.6385 343.942 81.1627 352.582 88.6421C358.982 94.0625 365.752 101.481 364.852 110.586C364.572 114.018 364.922 118.338 361.902 120.72C359.002 122.921 355.112 121.982 351.772 122.194C331.462 122.244 311.152 121.901 290.862 122.537C262.172 122.648 233.472 122.244 204.792 122.739C173.472 123.042 142.142 122.779 110.822 122.87C94.1622 123.001 77.4921 122.557 60.8421 123.213C43.1621 123.213 25.4822 123.173 7.80216 123.233C5.48216 123.294 2.92215 122.9 1.41215 120.972C-1.51785 117.551 1.09214 112.877 0.652137 108.91C12.5321 96.4648 0.652138 72.697 34.1321 69.6053L34.4121 69.5448C43.3721 67.2131 52.6922 68.5152 61.8322 68.1821C68.0322 68.2932 73.5422 64.9521 78.8122 62.0552C84.9322 58.6637 87.7821 51.8 90.2321 45.5721C94.7021 32.2685 104.402 21.6196 114.712 12.5453Z" fill="white"/>
</svg>