<?xml version="1.0" standalone="no"?>
<!DOCTYPE svg PUBLIC "-//W3C//DTD SVG 20010904//EN"
 "http://www.w3.org/TR/2001/REC-SVG-20010904/DTD/svg10.dtd">
<svg version="1.0" xmlns="http://www.w3.org/2000/svg"
 width="209.000000pt" height="98.000000pt" viewBox="0 0 209.000000 98.000000"
 preserveAspectRatio="xMidYMid meet">

<g transform="translate(0.000000,98.000000) scale(0.100000,-0.100000)"
fill="#000000" stroke="none">
<path d="M498 961 c-96 -31 -168 -95 -210 -188 -17 -36 -23 -68 -24 -130 -1
-75 -3 -83 -28 -105 -15 -13 -31 -39 -35 -57 -5 -28 -13 -36 -46 -48 -83 -29
-144 -117 -145 -209 0 -61 36 -140 80 -173 72 -52 47 -51 979 -51 557 0 879 4
903 10 20 6 50 26 67 45 80 91 53 227 -54 271 -34 15 -46 26 -51 47 -14 65
-103 117 -170 98 -21 -6 -39 -9 -40 -8 -1 1 -13 25 -27 52 -59 116 -201 211
-334 222 -79 6 -174 -14 -239 -52 l-42 -25 -6 24 c-3 13 -22 38 -43 56 -33 29
-41 32 -84 27 -44 -6 -48 -4 -54 20 -3 14 -34 54 -69 88 -53 53 -73 66 -130
84 -82 25 -123 26 -198 2z m207 -32 c69 -26 146 -100 170 -164 14 -35 22 -44
34 -39 9 4 33 9 53 12 30 3 42 -1 62 -22 15 -14 26 -37 26 -51 0 -35 26 -33
109 8 61 30 72 32 171 32 96 0 110 -3 165 -29 96 -47 174 -137 209 -239 5 -16
8 -17 35 -2 68 35 146 1 169 -73 12 -36 19 -43 51 -52 60 -16 101 -71 101
-135 0 -51 -26 -101 -65 -125 -32 -20 -47 -20 -921 -20 -847 0 -891 1 -930 19
-80 37 -129 141 -104 224 6 23 23 57 37 75 26 35 89 72 123 72 15 0 20 6 20
28 0 34 24 70 54 82 22 8 23 13 18 89 -3 61 0 92 12 125 64 167 236 247 401
185z"/>
</g>
</svg>
