<?xml version="1.0" standalone="no"?>
<!DOCTYPE svg PUBLIC "-//W3C//DTD SVG 20010904//EN"
 "http://www.w3.org/TR/2001/REC-SVG-20010904/DTD/svg10.dtd">
<svg version="1.0" xmlns="http://www.w3.org/2000/svg"
 width="209.000000pt" height="99.000000pt" viewBox="0 0 209.000000 99.000000"
 preserveAspectRatio="xMidYMid meet">

<g transform="translate(0.000000,99.000000) scale(0.100000,-0.100000)"
fill="#000000" stroke="none">
<path d="M1410 971 c-84 -27 -181 -110 -209 -178 -11 -28 -15 -30 -41 -23 -54
15 -109 -11 -134 -65 l-16 -34 -64 30 c-122 57 -240 57 -362 0 -77 -36 -148
-105 -189 -184 -26 -49 -32 -54 -49 -45 -26 14 -100 5 -132 -17 -14 -9 -35
-36 -45 -61 -15 -34 -29 -47 -63 -62 -65 -29 -91 -72 -91 -154 0 -74 16 -105
75 -146 l33 -22 894 0 c977 0 933 -3 996 58 90 85 96 220 15 308 -21 23 -59
51 -83 60 -36 15 -45 25 -55 57 -7 24 -22 45 -38 54 -26 15 -27 18 -27 107 0
105 -18 151 -89 224 -64 67 -126 95 -221 98 -44 2 -91 0 -105 -5z m217 -43
c61 -29 129 -96 154 -154 22 -48 29 -137 16 -196 -7 -32 -5 -38 9 -38 30 0 64
-40 64 -76 0 -28 4 -32 34 -38 51 -10 110 -58 136 -111 45 -94 7 -211 -85
-259 -40 -21 -47 -21 -935 -21 l-895 0 -32 23 c-40 28 -68 98 -59 146 11 59
72 116 126 116 15 0 20 6 20 29 0 59 77 117 140 105 17 -4 33 -11 36 -15 13
-21 31 -5 53 47 91 210 368 299 554 178 48 -31 68 -28 79 13 16 61 87 92 135
58 19 -14 21 -12 37 29 33 86 122 162 220 187 49 13 141 2 193 -23z"/>
</g>
</svg>
