<svg width="789" height="33" viewBox="0 0 789 33" fill="none" xmlns="http://www.w3.org/2000/svg">
<g clip-path="url(#clip0_41_1632)">
<path d="M13.4404 17.72C9.71041 21.38 6.00041 25.07 2.37041 28.85C1.58041 29.67 0.58041 28.85 0.25041 28.06C0.0237593 27.5322 -0.0523023 26.952 0.0306576 26.3836C0.113618 25.8152 0.352358 25.281 0.72041 24.84C4.24041 20.84 7.83041 16.95 11.5804 13.19C13.4404 11.32 15.3304 9.46999 17.2304 7.63999C18.1804 6.72999 19.1604 5.85999 20.1404 4.97999C21.1204 4.09999 22.0504 2.99999 23.3304 3.24999C24.6104 3.49999 24.7404 4.99999 24.4704 6.06999C23.9614 7.49149 23.0556 8.73733 21.8604 9.65999C20.8604 10.58 19.9604 11.51 18.9904 12.41C17.1237 14.1367 15.2737 15.9067 13.4404 17.72ZM35.1904 11.47C37.5304 9.06999 40.5304 6.61999 41.8904 3.46999C42.2804 2.58999 41.8904 0.46999 40.5104 0.88999C39.1304 1.30999 37.9304 2.79999 36.8404 3.87999C35.7504 4.95999 34.4904 6.28999 33.3104 7.49999C31.0004 9.85999 28.7004 12.24 26.3904 14.61C21.7237 19.41 16.9771 24.1367 12.1504 28.79C11.0004 29.91 12.0004 33.71 13.5604 32.23C18.4804 27.6633 23.3604 23.0533 28.2004 18.4C30.5604 16.11 32.8904 13.81 35.1904 11.47ZM49.7504 14.67C51.6704 12.97 54.3104 11.36 55.2604 8.88999C55.5804 8.05999 55.3604 6.45999 54.2604 6.37999C53.1604 6.29999 51.9104 7.30999 51.0004 7.99999C50.0904 8.68999 49.0004 9.75999 48.0704 10.65C46.0704 12.49 44.1704 14.38 42.2904 16.33C38.5897 20.1742 35.0852 24.2026 31.7904 28.4C30.7204 29.77 32.2004 33.2 33.7904 31.25C37.0282 27.2566 40.4939 23.4536 44.1704 19.86C45.9771 18.08 47.8371 16.35 49.7504 14.67ZM72.3904 4.09999C72.708 3.72199 72.9235 3.26894 73.0162 2.78403C73.109 2.29912 73.076 1.79853 72.9204 1.32999C72.6904 0.62999 72.0604 -0.30001 71.1804 0.09999C69.7685 0.837908 68.4493 1.7409 67.2504 2.78999C65.9704 3.78999 64.7404 4.78999 63.5204 5.89999C61.1271 7.99999 58.7937 10.1733 56.5204 12.42C51.9991 16.9956 47.7865 21.8663 43.9104 27C43.6721 27.4245 43.547 27.9032 43.547 28.39C43.547 28.8768 43.6721 29.3555 43.9104 29.78C44.2404 30.35 45.1204 31 45.7104 30.27C49.6332 25.4684 53.8337 20.9006 58.2904 16.59C60.5104 14.45 62.7937 12.3767 65.1404 10.37C67.5304 8.31999 70.3104 6.45999 72.3904 4.09999ZM75.7204 11.58C77.2004 9.85999 78.9104 8.20999 79.7204 6.06999C80.0704 5.17999 79.7204 2.77999 78.2604 3.34999C76.4404 4.07999 75.1104 6.10999 73.8304 7.53999C72.4104 9.11999 71.0504 10.76 69.6704 12.37C66.8904 15.62 64.1904 18.95 61.4104 22.2C61.0907 22.5836 60.8833 23.0481 60.8109 23.5422C60.7386 24.0363 60.8041 24.5408 61.0004 25C61.2804 25.67 62.1804 26.42 62.8404 25.68C65.6904 22.53 68.6204 19.45 71.4704 16.3C72.9204 14.73 74.3504 13.18 75.7204 11.58ZM88.3004 9.27999C88.9404 8.18999 89.4104 5.98999 88.0804 5.13999C87.8576 4.94916 87.5738 4.84428 87.2804 4.84428C86.987 4.84428 86.7033 4.94916 86.4804 5.13999C84.9635 6.4286 83.6191 7.90747 82.4804 9.53999C81.1004 11.2 79.7404 12.87 78.4104 14.54C75.8504 17.8 73.3504 21.1 70.8804 24.43C69.7004 26.03 71.3604 29.98 73.1604 27.72C75.9804 24.18 78.8704 20.72 81.7904 17.25C83.2604 15.51 84.7104 13.77 86.1704 12.03C86.9547 11.1734 87.6672 10.2536 88.3004 9.27999ZM106.77 5.37999C106.58 4.81999 106.09 3.88999 105.34 3.98999C104.142 4.27984 103.039 4.87597 102.14 5.71999C101.14 6.44999 100.24 7.23999 99.3004 8.01999C97.4204 9.59999 95.6204 11.29 93.8404 13.02C90.2504 16.43 86.8404 20.02 83.5904 23.75C83.2333 24.1771 83.0021 24.6951 82.9226 25.2461C82.8431 25.7971 82.9185 26.3594 83.1404 26.87C83.4704 27.66 84.4204 28.4 85.1404 27.63C88.5104 24.25 92.0104 20.98 95.5804 17.82C97.3504 16.25 99.1804 14.74 100.98 13.2C102.78 11.66 105.29 10.08 106.46 7.95999C106.687 7.57463 106.832 7.14645 106.885 6.70243C106.939 6.25841 106.9 5.80814 106.77 5.37999Z" fill="black"/>
</g>
<g clip-path="url(#clip1_41_1632)">
<path d="M403.44 17.72C399.71 21.38 396 25.07 392.37 28.85C391.58 29.67 390.58 28.85 390.25 28.06C390.024 27.5322 389.948 26.952 390.031 26.3836C390.114 25.8152 390.352 25.281 390.72 24.84C394.24 20.84 397.83 16.95 401.58 13.19C403.44 11.32 405.33 9.46999 407.23 7.63999C408.18 6.72999 409.16 5.85999 410.14 4.97999C411.12 4.09999 412.05 2.99999 413.33 3.24999C414.61 3.49999 414.74 4.99999 414.47 6.06999C413.961 7.49149 413.056 8.73733 411.86 9.65999C410.86 10.58 409.96 11.51 408.99 12.41C407.124 14.1367 405.274 15.9067 403.44 17.72ZM425.19 11.47C427.53 9.06999 430.53 6.61999 431.89 3.46999C432.28 2.58999 431.89 0.46999 430.51 0.88999C429.13 1.30999 427.93 2.79999 426.84 3.87999C425.75 4.95999 424.49 6.28999 423.31 7.49999C421 9.85999 418.7 12.24 416.39 14.61C411.724 19.41 406.977 24.1367 402.15 28.79C401 29.91 402 33.71 403.56 32.23C408.48 27.6633 413.36 23.0533 418.2 18.4C420.56 16.11 422.89 13.81 425.19 11.47ZM439.75 14.67C441.67 12.97 444.31 11.36 445.26 8.88999C445.58 8.05999 445.36 6.45999 444.26 6.37999C443.16 6.29999 441.91 7.30999 441 7.99999C440.09 8.68999 439 9.75999 438.07 10.65C436.07 12.49 434.17 14.38 432.29 16.33C428.59 20.1742 425.085 24.2026 421.79 28.4C420.72 29.77 422.2 33.2 423.79 31.25C427.028 27.2566 430.494 23.4536 434.17 19.86C435.977 18.08 437.837 16.35 439.75 14.67ZM462.39 4.09999C462.708 3.72199 462.923 3.26894 463.016 2.78403C463.109 2.29912 463.076 1.79853 462.92 1.32999C462.69 0.62999 462.06 -0.30001 461.18 0.09999C459.769 0.837908 458.449 1.7409 457.25 2.78999C455.97 3.78999 454.74 4.78999 453.52 5.89999C451.127 7.99999 448.794 10.1733 446.52 12.42C441.999 16.9956 437.787 21.8663 433.91 27C433.672 27.4245 433.547 27.9032 433.547 28.39C433.547 28.8768 433.672 29.3555 433.91 29.78C434.24 30.35 435.12 31 435.71 30.27C439.633 25.4684 443.834 20.9006 448.29 16.59C450.51 14.45 452.794 12.3767 455.14 10.37C457.53 8.31999 460.31 6.45999 462.39 4.09999ZM465.72 11.58C467.2 9.85999 468.91 8.20999 469.72 6.06999C470.07 5.17999 469.72 2.77999 468.26 3.34999C466.44 4.07999 465.11 6.10999 463.83 7.53999C462.41 9.11999 461.05 10.76 459.67 12.37C456.89 15.62 454.19 18.95 451.41 22.2C451.091 22.5836 450.883 23.0481 450.811 23.5422C450.739 24.0363 450.804 24.5408 451 25C451.28 25.67 452.18 26.42 452.84 25.68C455.69 22.53 458.62 19.45 461.47 16.3C462.92 14.73 464.35 13.18 465.72 11.58ZM478.3 9.27999C478.94 8.18999 479.41 5.98999 478.08 5.13999C477.858 4.94916 477.574 4.84428 477.28 4.84428C476.987 4.84428 476.703 4.94916 476.48 5.13999C474.963 6.4286 473.619 7.90747 472.48 9.53999C471.1 11.2 469.74 12.87 468.41 14.54C465.85 17.8 463.35 21.1 460.88 24.43C459.7 26.03 461.36 29.98 463.16 27.72C465.98 24.18 468.87 20.72 471.79 17.25C473.26 15.51 474.71 13.77 476.17 12.03C476.955 11.1734 477.667 10.2536 478.3 9.27999ZM496.77 5.37999C496.58 4.81999 496.09 3.88999 495.34 3.98999C494.142 4.27984 493.039 4.87597 492.14 5.71999C491.14 6.44999 490.24 7.23999 489.3 8.01999C487.42 9.59999 485.62 11.29 483.84 13.02C480.25 16.43 476.84 20.02 473.59 23.75C473.233 24.1771 473.002 24.6951 472.923 25.2461C472.843 25.7971 472.919 26.3594 473.14 26.87C473.47 27.66 474.42 28.4 475.14 27.63C478.51 24.25 482.01 20.98 485.58 17.82C487.35 16.25 489.18 14.74 490.98 13.2C492.78 11.66 495.29 10.08 496.46 7.95999C496.687 7.57463 496.832 7.14645 496.885 6.70243C496.939 6.25841 496.9 5.80814 496.77 5.37999Z" fill="black"/>
</g>
<g clip-path="url(#clip2_41_1632)">
<path d="M208.44 17.72C204.71 21.38 201 25.07 197.37 28.85C196.58 29.67 195.58 28.85 195.25 28.06C195.024 27.5322 194.948 26.952 195.031 26.3836C195.114 25.8152 195.352 25.281 195.72 24.84C199.24 20.84 202.83 16.95 206.58 13.19C208.44 11.32 210.33 9.46999 212.23 7.63999C213.18 6.72999 214.16 5.85999 215.14 4.97999C216.12 4.09999 217.05 2.99999 218.33 3.24999C219.61 3.49999 219.74 4.99999 219.47 6.06999C218.961 7.49149 218.056 8.73733 216.86 9.65999C215.86 10.58 214.96 11.51 213.99 12.41C212.124 14.1367 210.274 15.9067 208.44 17.72ZM230.19 11.47C232.53 9.06999 235.53 6.61999 236.89 3.46999C237.28 2.58999 236.89 0.46999 235.51 0.88999C234.13 1.30999 232.93 2.79999 231.84 3.87999C230.75 4.95999 229.49 6.28999 228.31 7.49999C226 9.85999 223.7 12.24 221.39 14.61C216.724 19.41 211.977 24.1367 207.15 28.79C206 29.91 207 33.71 208.56 32.23C213.48 27.6633 218.36 23.0533 223.2 18.4C225.56 16.11 227.89 13.81 230.19 11.47ZM244.75 14.67C246.67 12.97 249.31 11.36 250.26 8.88999C250.58 8.05999 250.36 6.45999 249.26 6.37999C248.16 6.29999 246.91 7.30999 246 7.99999C245.09 8.68999 244 9.75999 243.07 10.65C241.07 12.49 239.17 14.38 237.29 16.33C233.59 20.1742 230.085 24.2026 226.79 28.4C225.72 29.77 227.2 33.2 228.79 31.25C232.028 27.2566 235.494 23.4536 239.17 19.86C240.977 18.08 242.837 16.35 244.75 14.67ZM267.39 4.09999C267.708 3.72199 267.923 3.26894 268.016 2.78403C268.109 2.29912 268.076 1.79853 267.92 1.32999C267.69 0.62999 267.06 -0.30001 266.18 0.09999C264.769 0.837908 263.449 1.7409 262.25 2.78999C260.97 3.78999 259.74 4.78999 258.52 5.89999C256.127 7.99999 253.794 10.1733 251.52 12.42C246.999 16.9956 242.787 21.8663 238.91 27C238.672 27.4245 238.547 27.9032 238.547 28.39C238.547 28.8768 238.672 29.3555 238.91 29.78C239.24 30.35 240.12 31 240.71 30.27C244.633 25.4684 248.834 20.9006 253.29 16.59C255.51 14.45 257.794 12.3767 260.14 10.37C262.53 8.31999 265.31 6.45999 267.39 4.09999ZM270.72 11.58C272.2 9.85999 273.91 8.20999 274.72 6.06999C275.07 5.17999 274.72 2.77999 273.26 3.34999C271.44 4.07999 270.11 6.10999 268.83 7.53999C267.41 9.11999 266.05 10.76 264.67 12.37C261.89 15.62 259.19 18.95 256.41 22.2C256.091 22.5836 255.883 23.0481 255.811 23.5422C255.739 24.0363 255.804 24.5408 256 25C256.28 25.67 257.18 26.42 257.84 25.68C260.69 22.53 263.62 19.45 266.47 16.3C267.92 14.73 269.35 13.18 270.72 11.58ZM283.3 9.27999C283.94 8.18999 284.41 5.98999 283.08 5.13999C282.858 4.94916 282.574 4.84428 282.28 4.84428C281.987 4.84428 281.703 4.94916 281.48 5.13999C279.963 6.4286 278.619 7.90747 277.48 9.53999C276.1 11.2 274.74 12.87 273.41 14.54C270.85 17.8 268.35 21.1 265.88 24.43C264.7 26.03 266.36 29.98 268.16 27.72C270.98 24.18 273.87 20.72 276.79 17.25C278.26 15.51 279.71 13.77 281.17 12.03C281.955 11.1734 282.667 10.2536 283.3 9.27999ZM301.77 5.37999C301.58 4.81999 301.09 3.88999 300.34 3.98999C299.142 4.27984 298.039 4.87597 297.14 5.71999C296.14 6.44999 295.24 7.23999 294.3 8.01999C292.42 9.59999 290.62 11.29 288.84 13.02C285.25 16.43 281.84 20.02 278.59 23.75C278.233 24.1771 278.002 24.6951 277.923 25.2461C277.843 25.7971 277.919 26.3594 278.14 26.87C278.47 27.66 279.42 28.4 280.14 27.63C283.51 24.25 287.01 20.98 290.58 17.82C292.35 16.25 294.18 14.74 295.98 13.2C297.78 11.66 300.29 10.08 301.46 7.95999C301.687 7.57463 301.832 7.14645 301.885 6.70243C301.939 6.25841 301.9 5.80814 301.77 5.37999Z" fill="black"/>
</g>
<g clip-path="url(#clip3_41_1632)">
<path d="M598.44 17.72C594.71 21.38 591 25.07 587.37 28.85C586.58 29.67 585.58 28.85 585.25 28.06C585.024 27.5322 584.948 26.952 585.031 26.3836C585.114 25.8152 585.352 25.281 585.72 24.84C589.24 20.84 592.83 16.95 596.58 13.19C598.44 11.32 600.33 9.46999 602.23 7.63999C603.18 6.72999 604.16 5.85999 605.14 4.97999C606.12 4.09999 607.05 2.99999 608.33 3.24999C609.61 3.49999 609.74 4.99999 609.47 6.06999C608.961 7.49149 608.056 8.73733 606.86 9.65999C605.86 10.58 604.96 11.51 603.99 12.41C602.124 14.1367 600.274 15.9067 598.44 17.72ZM620.19 11.47C622.53 9.06999 625.53 6.61999 626.89 3.46999C627.28 2.58999 626.89 0.46999 625.51 0.88999C624.13 1.30999 622.93 2.79999 621.84 3.87999C620.75 4.95999 619.49 6.28999 618.31 7.49999C616 9.85999 613.7 12.24 611.39 14.61C606.724 19.41 601.977 24.1367 597.15 28.79C596 29.91 597 33.71 598.56 32.23C603.48 27.6633 608.36 23.0533 613.2 18.4C615.56 16.11 617.89 13.81 620.19 11.47ZM634.75 14.67C636.67 12.97 639.31 11.36 640.26 8.88999C640.58 8.05999 640.36 6.45999 639.26 6.37999C638.16 6.29999 636.91 7.30999 636 7.99999C635.09 8.68999 634 9.75999 633.07 10.65C631.07 12.49 629.17 14.38 627.29 16.33C623.59 20.1742 620.085 24.2026 616.79 28.4C615.72 29.77 617.2 33.2 618.79 31.25C622.028 27.2566 625.494 23.4536 629.17 19.86C630.977 18.08 632.837 16.35 634.75 14.67ZM657.39 4.09999C657.708 3.72199 657.923 3.26894 658.016 2.78403C658.109 2.29912 658.076 1.79853 657.92 1.32999C657.69 0.62999 657.06 -0.30001 656.18 0.09999C654.769 0.837908 653.449 1.7409 652.25 2.78999C650.97 3.78999 649.74 4.78999 648.52 5.89999C646.127 7.99999 643.794 10.1733 641.52 12.42C636.999 16.9956 632.787 21.8663 628.91 27C628.672 27.4245 628.547 27.9032 628.547 28.39C628.547 28.8768 628.672 29.3555 628.91 29.78C629.24 30.35 630.12 31 630.71 30.27C634.633 25.4684 638.834 20.9006 643.29 16.59C645.51 14.45 647.794 12.3767 650.14 10.37C652.53 8.31999 655.31 6.45999 657.39 4.09999ZM660.72 11.58C662.2 9.85999 663.91 8.20999 664.72 6.06999C665.07 5.17999 664.72 2.77999 663.26 3.34999C661.44 4.07999 660.11 6.10999 658.83 7.53999C657.41 9.11999 656.05 10.76 654.67 12.37C651.89 15.62 649.19 18.95 646.41 22.2C646.091 22.5836 645.883 23.0481 645.811 23.5422C645.739 24.0363 645.804 24.5408 646 25C646.28 25.67 647.18 26.42 647.84 25.68C650.69 22.53 653.62 19.45 656.47 16.3C657.92 14.73 659.35 13.18 660.72 11.58ZM673.3 9.27999C673.94 8.18999 674.41 5.98999 673.08 5.13999C672.858 4.94916 672.574 4.84428 672.28 4.84428C671.987 4.84428 671.703 4.94916 671.48 5.13999C669.963 6.4286 668.619 7.90747 667.48 9.53999C666.1 11.2 664.74 12.87 663.41 14.54C660.85 17.8 658.35 21.1 655.88 24.43C654.7 26.03 656.36 29.98 658.16 27.72C660.98 24.18 663.87 20.72 666.79 17.25C668.26 15.51 669.71 13.77 671.17 12.03C671.955 11.1734 672.667 10.2536 673.3 9.27999ZM691.77 5.37999C691.58 4.81999 691.09 3.88999 690.34 3.98999C689.142 4.27984 688.039 4.87597 687.14 5.71999C686.14 6.44999 685.24 7.23999 684.3 8.01999C682.42 9.59999 680.62 11.29 678.84 13.02C675.25 16.43 671.84 20.02 668.59 23.75C668.233 24.1771 668.002 24.6951 667.923 25.2461C667.843 25.7971 667.919 26.3594 668.14 26.87C668.47 27.66 669.42 28.4 670.14 27.63C673.51 24.25 677.01 20.98 680.58 17.82C682.35 16.25 684.18 14.74 685.98 13.2C687.78 11.66 690.29 10.08 691.46 7.95999C691.687 7.57463 691.832 7.14645 691.885 6.70243C691.939 6.25841 691.9 5.80814 691.77 5.37999Z" fill="black"/>
</g>
<g clip-path="url(#clip4_41_1632)">
<path d="M110.36 17.72C106.63 21.38 102.92 25.07 99.2903 28.85C98.5003 29.67 97.5003 28.85 97.1703 28.06C96.9437 27.5322 96.8676 26.952 96.9506 26.3836C97.0335 25.8152 97.2723 25.281 97.6403 24.84C101.16 20.84 104.75 16.95 108.5 13.19C110.36 11.32 112.25 9.46999 114.15 7.63999C115.1 6.72999 116.08 5.85999 117.06 4.97999C118.04 4.09999 118.97 2.99999 120.25 3.24999C121.53 3.49999 121.66 4.99999 121.39 6.06999C120.881 7.49149 119.976 8.73733 118.78 9.65999C117.78 10.58 116.88 11.51 115.91 12.41C114.044 14.1367 112.194 15.9067 110.36 17.72ZM132.11 11.47C134.45 9.06999 137.45 6.61999 138.81 3.46999C139.2 2.58999 138.81 0.46999 137.43 0.88999C136.05 1.30999 134.85 2.79999 133.76 3.87999C132.67 4.95999 131.41 6.28999 130.23 7.49999C127.92 9.85999 125.62 12.24 123.31 14.61C118.644 19.41 113.897 24.1367 109.07 28.79C107.92 29.91 108.92 33.71 110.48 32.23C115.4 27.6633 120.28 23.0533 125.12 18.4C127.48 16.11 129.81 13.81 132.11 11.47ZM146.67 14.67C148.59 12.97 151.23 11.36 152.18 8.88999C152.5 8.05999 152.28 6.45999 151.18 6.37999C150.08 6.29999 148.83 7.30999 147.92 7.99999C147.01 8.68999 145.92 9.75999 144.99 10.65C142.99 12.49 141.09 14.38 139.21 16.33C135.51 20.1742 132.005 24.2026 128.71 28.4C127.64 29.77 129.12 33.2 130.71 31.25C133.948 27.2566 137.414 23.4536 141.09 19.86C142.897 18.08 144.757 16.35 146.67 14.67ZM169.31 4.09999C169.628 3.72199 169.843 3.26894 169.936 2.78403C170.029 2.29912 169.996 1.79853 169.84 1.32999C169.61 0.62999 168.98 -0.30001 168.1 0.09999C166.688 0.837908 165.369 1.7409 164.17 2.78999C162.89 3.78999 161.66 4.78999 160.44 5.89999C158.047 7.99999 155.714 10.1733 153.44 12.42C148.919 16.9956 144.706 21.8663 140.83 27C140.592 27.4245 140.467 27.9032 140.467 28.39C140.467 28.8768 140.592 29.3555 140.83 29.78C141.16 30.35 142.04 31 142.63 30.27C146.553 25.4684 150.754 20.9006 155.21 16.59C157.43 14.45 159.714 12.3767 162.06 10.37C164.45 8.31999 167.23 6.45999 169.31 4.09999ZM172.64 11.58C174.12 9.85999 175.83 8.20999 176.64 6.06999C176.99 5.17999 176.64 2.77999 175.18 3.34999C173.36 4.07999 172.03 6.10999 170.75 7.53999C169.33 9.11999 167.97 10.76 166.59 12.37C163.81 15.62 161.11 18.95 158.33 22.2C158.011 22.5836 157.803 23.0481 157.731 23.5422C157.658 24.0363 157.724 24.5408 157.92 25C158.2 25.67 159.1 26.42 159.76 25.68C162.61 22.53 165.54 19.45 168.39 16.3C169.84 14.73 171.27 13.18 172.64 11.58ZM185.22 9.27999C185.86 8.18999 186.33 5.98999 185 5.13999C184.777 4.94916 184.494 4.84428 184.2 4.84428C183.907 4.84428 183.623 4.94916 183.4 5.13999C181.883 6.4286 180.539 7.90747 179.4 9.53999C178.02 11.2 176.66 12.87 175.33 14.54C172.77 17.8 170.27 21.1 167.8 24.43C166.62 26.03 168.28 29.98 170.08 27.72C172.9 24.18 175.79 20.72 178.71 17.25C180.18 15.51 181.63 13.77 183.09 12.03C183.875 11.1734 184.587 10.2536 185.22 9.27999ZM203.69 5.37999C203.5 4.81999 203.01 3.88999 202.26 3.98999C201.062 4.27984 199.959 4.87597 199.06 5.71999C198.06 6.44999 197.16 7.23999 196.22 8.01999C194.34 9.59999 192.54 11.29 190.76 13.02C187.17 16.43 183.76 20.02 180.51 23.75C180.153 24.1771 179.922 24.6951 179.843 25.2461C179.763 25.7971 179.838 26.3594 180.06 26.87C180.39 27.66 181.34 28.4 182.06 27.63C185.43 24.25 188.93 20.98 192.5 17.82C194.27 16.25 196.1 14.74 197.9 13.2C199.7 11.66 202.21 10.08 203.38 7.95999C203.607 7.57463 203.752 7.14645 203.805 6.70243C203.859 6.25841 203.82 5.80814 203.69 5.37999Z" fill="black"/>
</g>
<g clip-path="url(#clip5_41_1632)">
<path d="M500.36 17.72C496.63 21.38 492.92 25.07 489.29 28.85C488.5 29.67 487.5 28.85 487.17 28.06C486.944 27.5322 486.868 26.952 486.951 26.3836C487.034 25.8152 487.272 25.281 487.64 24.84C491.16 20.84 494.75 16.95 498.5 13.19C500.36 11.32 502.25 9.46999 504.15 7.63999C505.1 6.72999 506.08 5.85999 507.06 4.97999C508.04 4.09999 508.97 2.99999 510.25 3.24999C511.53 3.49999 511.66 4.99999 511.39 6.06999C510.881 7.49149 509.976 8.73733 508.78 9.65999C507.78 10.58 506.88 11.51 505.91 12.41C504.044 14.1367 502.194 15.9067 500.36 17.72ZM522.11 11.47C524.45 9.06999 527.45 6.61999 528.81 3.46999C529.2 2.58999 528.81 0.46999 527.43 0.88999C526.05 1.30999 524.85 2.79999 523.76 3.87999C522.67 4.95999 521.41 6.28999 520.23 7.49999C517.92 9.85999 515.62 12.24 513.31 14.61C508.644 19.41 503.897 24.1367 499.07 28.79C497.92 29.91 498.92 33.71 500.48 32.23C505.4 27.6633 510.28 23.0533 515.12 18.4C517.48 16.11 519.81 13.81 522.11 11.47ZM536.67 14.67C538.59 12.97 541.23 11.36 542.18 8.88999C542.5 8.05999 542.28 6.45999 541.18 6.37999C540.08 6.29999 538.83 7.30999 537.92 7.99999C537.01 8.68999 535.92 9.75999 534.99 10.65C532.99 12.49 531.09 14.38 529.21 16.33C525.51 20.1742 522.005 24.2026 518.71 28.4C517.64 29.77 519.12 33.2 520.71 31.25C523.948 27.2566 527.414 23.4536 531.09 19.86C532.897 18.08 534.757 16.35 536.67 14.67ZM559.31 4.09999C559.628 3.72199 559.843 3.26894 559.936 2.78403C560.029 2.29912 559.996 1.79853 559.84 1.32999C559.61 0.62999 558.98 -0.30001 558.1 0.09999C556.688 0.837908 555.369 1.7409 554.17 2.78999C552.89 3.78999 551.66 4.78999 550.44 5.89999C548.047 7.99999 545.714 10.1733 543.44 12.42C538.919 16.9956 534.706 21.8663 530.83 27C530.592 27.4245 530.467 27.9032 530.467 28.39C530.467 28.8768 530.592 29.3555 530.83 29.78C531.16 30.35 532.04 31 532.63 30.27C536.553 25.4684 540.754 20.9006 545.21 16.59C547.43 14.45 549.714 12.3767 552.06 10.37C554.45 8.31999 557.23 6.45999 559.31 4.09999ZM562.64 11.58C564.12 9.85999 565.83 8.20999 566.64 6.06999C566.99 5.17999 566.64 2.77999 565.18 3.34999C563.36 4.07999 562.03 6.10999 560.75 7.53999C559.33 9.11999 557.97 10.76 556.59 12.37C553.81 15.62 551.11 18.95 548.33 22.2C548.011 22.5836 547.803 23.0481 547.731 23.5422C547.658 24.0363 547.724 24.5408 547.92 25C548.2 25.67 549.1 26.42 549.76 25.68C552.61 22.53 555.54 19.45 558.39 16.3C559.84 14.73 561.27 13.18 562.64 11.58ZM575.22 9.27999C575.86 8.18999 576.33 5.98999 575 5.13999C574.777 4.94916 574.494 4.84428 574.2 4.84428C573.907 4.84428 573.623 4.94916 573.4 5.13999C571.883 6.4286 570.539 7.90747 569.4 9.53999C568.02 11.2 566.66 12.87 565.33 14.54C562.77 17.8 560.27 21.1 557.8 24.43C556.62 26.03 558.28 29.98 560.08 27.72C562.9 24.18 565.79 20.72 568.71 17.25C570.18 15.51 571.63 13.77 573.09 12.03C573.875 11.1734 574.587 10.2536 575.22 9.27999ZM593.69 5.37999C593.5 4.81999 593.01 3.88999 592.26 3.98999C591.062 4.27984 589.959 4.87597 589.06 5.71999C588.06 6.44999 587.16 7.23999 586.22 8.01999C584.34 9.59999 582.54 11.29 580.76 13.02C577.17 16.43 573.76 20.02 570.51 23.75C570.153 24.1771 569.922 24.6951 569.843 25.2461C569.763 25.7971 569.838 26.3594 570.06 26.87C570.39 27.66 571.34 28.4 572.06 27.63C575.43 24.25 578.93 20.98 582.5 17.82C584.27 16.25 586.1 14.74 587.9 13.2C589.7 11.66 592.21 10.08 593.38 7.95999C593.607 7.57463 593.752 7.14645 593.805 6.70243C593.859 6.25841 593.82 5.80814 593.69 5.37999Z" fill="black"/>
</g>
<g clip-path="url(#clip6_41_1632)">
<path d="M305.36 17.72C301.63 21.38 297.92 25.07 294.29 28.85C293.5 29.67 292.5 28.85 292.17 28.06C291.944 27.5322 291.868 26.952 291.951 26.3836C292.034 25.8152 292.272 25.281 292.64 24.84C296.16 20.84 299.75 16.95 303.5 13.19C305.36 11.32 307.25 9.46999 309.15 7.63999C310.1 6.72999 311.08 5.85999 312.06 4.97999C313.04 4.09999 313.97 2.99999 315.25 3.24999C316.53 3.49999 316.66 4.99999 316.39 6.06999C315.881 7.49149 314.976 8.73733 313.78 9.65999C312.78 10.58 311.88 11.51 310.91 12.41C309.044 14.1367 307.194 15.9067 305.36 17.72ZM327.11 11.47C329.45 9.06999 332.45 6.61999 333.81 3.46999C334.2 2.58999 333.81 0.46999 332.43 0.88999C331.05 1.30999 329.85 2.79999 328.76 3.87999C327.67 4.95999 326.41 6.28999 325.23 7.49999C322.92 9.85999 320.62 12.24 318.31 14.61C313.644 19.41 308.897 24.1367 304.07 28.79C302.92 29.91 303.92 33.71 305.48 32.23C310.4 27.6633 315.28 23.0533 320.12 18.4C322.48 16.11 324.81 13.81 327.11 11.47ZM341.67 14.67C343.59 12.97 346.23 11.36 347.18 8.88999C347.5 8.05999 347.28 6.45999 346.18 6.37999C345.08 6.29999 343.83 7.30999 342.92 7.99999C342.01 8.68999 340.92 9.75999 339.99 10.65C337.99 12.49 336.09 14.38 334.21 16.33C330.51 20.1742 327.005 24.2026 323.71 28.4C322.64 29.77 324.12 33.2 325.71 31.25C328.948 27.2566 332.414 23.4536 336.09 19.86C337.897 18.08 339.757 16.35 341.67 14.67ZM364.31 4.09999C364.628 3.72199 364.843 3.26894 364.936 2.78403C365.029 2.29912 364.996 1.79853 364.84 1.32999C364.61 0.62999 363.98 -0.30001 363.1 0.09999C361.688 0.837908 360.369 1.7409 359.17 2.78999C357.89 3.78999 356.66 4.78999 355.44 5.89999C353.047 7.99999 350.714 10.1733 348.44 12.42C343.919 16.9956 339.706 21.8663 335.83 27C335.592 27.4245 335.467 27.9032 335.467 28.39C335.467 28.8768 335.592 29.3555 335.83 29.78C336.16 30.35 337.04 31 337.63 30.27C341.553 25.4684 345.754 20.9006 350.21 16.59C352.43 14.45 354.714 12.3767 357.06 10.37C359.45 8.31999 362.23 6.45999 364.31 4.09999ZM367.64 11.58C369.12 9.85999 370.83 8.20999 371.64 6.06999C371.99 5.17999 371.64 2.77999 370.18 3.34999C368.36 4.07999 367.03 6.10999 365.75 7.53999C364.33 9.11999 362.97 10.76 361.59 12.37C358.81 15.62 356.11 18.95 353.33 22.2C353.011 22.5836 352.803 23.0481 352.731 23.5422C352.658 24.0363 352.724 24.5408 352.92 25C353.2 25.67 354.1 26.42 354.76 25.68C357.61 22.53 360.54 19.45 363.39 16.3C364.84 14.73 366.27 13.18 367.64 11.58ZM380.22 9.27999C380.86 8.18999 381.33 5.98999 380 5.13999C379.777 4.94916 379.494 4.84428 379.2 4.84428C378.907 4.84428 378.623 4.94916 378.4 5.13999C376.883 6.4286 375.539 7.90747 374.4 9.53999C373.02 11.2 371.66 12.87 370.33 14.54C367.77 17.8 365.27 21.1 362.8 24.43C361.62 26.03 363.28 29.98 365.08 27.72C367.9 24.18 370.79 20.72 373.71 17.25C375.18 15.51 376.63 13.77 378.09 12.03C378.875 11.1734 379.587 10.2536 380.22 9.27999ZM398.69 5.37999C398.5 4.81999 398.01 3.88999 397.26 3.98999C396.062 4.27984 394.959 4.87597 394.06 5.71999C393.06 6.44999 392.16 7.23999 391.22 8.01999C389.34 9.59999 387.54 11.29 385.76 13.02C382.17 16.43 378.76 20.02 375.51 23.75C375.153 24.1771 374.922 24.6951 374.843 25.2461C374.763 25.7971 374.838 26.3594 375.06 26.87C375.39 27.66 376.34 28.4 377.06 27.63C380.43 24.25 383.93 20.98 387.5 17.82C389.27 16.25 391.1 14.74 392.9 13.2C394.7 11.66 397.21 10.08 398.38 7.95999C398.607 7.57463 398.752 7.14645 398.805 6.70243C398.859 6.25841 398.82 5.80814 398.69 5.37999Z" fill="black"/>
</g>
<g clip-path="url(#clip7_41_1632)">
<path d="M695.36 17.72C691.63 21.38 687.92 25.07 684.29 28.85C683.5 29.67 682.5 28.85 682.17 28.06C681.944 27.5322 681.868 26.952 681.951 26.3836C682.034 25.8152 682.272 25.281 682.64 24.84C686.16 20.84 689.75 16.95 693.5 13.19C695.36 11.32 697.25 9.46999 699.15 7.63999C700.1 6.72999 701.08 5.85999 702.06 4.97999C703.04 4.09999 703.97 2.99999 705.25 3.24999C706.53 3.49999 706.66 4.99999 706.39 6.06999C705.881 7.49149 704.976 8.73733 703.78 9.65999C702.78 10.58 701.88 11.51 700.91 12.41C699.044 14.1367 697.194 15.9067 695.36 17.72ZM717.11 11.47C719.45 9.06999 722.45 6.61999 723.81 3.46999C724.2 2.58999 723.81 0.46999 722.43 0.88999C721.05 1.30999 719.85 2.79999 718.76 3.87999C717.67 4.95999 716.41 6.28999 715.23 7.49999C712.92 9.85999 710.62 12.24 708.31 14.61C703.644 19.41 698.897 24.1367 694.07 28.79C692.92 29.91 693.92 33.71 695.48 32.23C700.4 27.6633 705.28 23.0533 710.12 18.4C712.48 16.11 714.81 13.81 717.11 11.47ZM731.67 14.67C733.59 12.97 736.23 11.36 737.18 8.88999C737.5 8.05999 737.28 6.45999 736.18 6.37999C735.08 6.29999 733.83 7.30999 732.92 7.99999C732.01 8.68999 730.92 9.75999 729.99 10.65C727.99 12.49 726.09 14.38 724.21 16.33C720.51 20.1742 717.005 24.2026 713.71 28.4C712.64 29.77 714.12 33.2 715.71 31.25C718.948 27.2566 722.414 23.4536 726.09 19.86C727.897 18.08 729.757 16.35 731.67 14.67ZM754.31 4.09999C754.628 3.72199 754.843 3.26894 754.936 2.78403C755.029 2.29912 754.996 1.79853 754.84 1.32999C754.61 0.62999 753.98 -0.30001 753.1 0.09999C751.688 0.837908 750.369 1.7409 749.17 2.78999C747.89 3.78999 746.66 4.78999 745.44 5.89999C743.047 7.99999 740.714 10.1733 738.44 12.42C733.919 16.9956 729.706 21.8663 725.83 27C725.592 27.4245 725.467 27.9032 725.467 28.39C725.467 28.8768 725.592 29.3555 725.83 29.78C726.16 30.35 727.04 31 727.63 30.27C731.553 25.4684 735.754 20.9006 740.21 16.59C742.43 14.45 744.714 12.3767 747.06 10.37C749.45 8.31999 752.23 6.45999 754.31 4.09999ZM757.64 11.58C759.12 9.85999 760.83 8.20999 761.64 6.06999C761.99 5.17999 761.64 2.77999 760.18 3.34999C758.36 4.07999 757.03 6.10999 755.75 7.53999C754.33 9.11999 752.97 10.76 751.59 12.37C748.81 15.62 746.11 18.95 743.33 22.2C743.011 22.5836 742.803 23.0481 742.731 23.5422C742.658 24.0363 742.724 24.5408 742.92 25C743.2 25.67 744.1 26.42 744.76 25.68C747.61 22.53 750.54 19.45 753.39 16.3C754.84 14.73 756.27 13.18 757.64 11.58ZM770.22 9.27999C770.86 8.18999 771.33 5.98999 770 5.13999C769.777 4.94916 769.494 4.84428 769.2 4.84428C768.907 4.84428 768.623 4.94916 768.4 5.13999C766.883 6.4286 765.539 7.90747 764.4 9.53999C763.02 11.2 761.66 12.87 760.33 14.54C757.77 17.8 755.27 21.1 752.8 24.43C751.62 26.03 753.28 29.98 755.08 27.72C757.9 24.18 760.79 20.72 763.71 17.25C765.18 15.51 766.63 13.77 768.09 12.03C768.875 11.1734 769.587 10.2536 770.22 9.27999ZM788.69 5.37999C788.5 4.81999 788.01 3.88999 787.26 3.98999C786.062 4.27984 784.959 4.87597 784.06 5.71999C783.06 6.44999 782.16 7.23999 781.22 8.01999C779.34 9.59999 777.54 11.29 775.76 13.02C772.17 16.43 768.76 20.02 765.51 23.75C765.153 24.1771 764.922 24.6951 764.843 25.2461C764.763 25.7971 764.838 26.3594 765.06 26.87C765.39 27.66 766.34 28.4 767.06 27.63C770.43 24.25 773.93 20.98 777.5 17.82C779.27 16.25 781.1 14.74 782.9 13.2C784.7 11.66 787.21 10.08 788.38 7.95999C788.607 7.57463 788.752 7.14645 788.805 6.70243C788.859 6.25841 788.82 5.80814 788.69 5.37999Z" fill="black"/>
</g>
<defs>
<clipPath id="clip0_41_1632">
<rect width="106.92" height="32.57" fill="white"/>
</clipPath>
<clipPath id="clip1_41_1632">
<rect width="106.92" height="32.57" fill="white" transform="translate(390)"/>
</clipPath>
<clipPath id="clip2_41_1632">
<rect width="106.92" height="32.57" fill="white" transform="translate(195)"/>
</clipPath>
<clipPath id="clip3_41_1632">
<rect width="106.92" height="32.57" fill="white" transform="translate(585)"/>
</clipPath>
<clipPath id="clip4_41_1632">
<rect width="106.92" height="32.57" fill="white" transform="translate(96.9199)"/>
</clipPath>
<clipPath id="clip5_41_1632">
<rect width="106.92" height="32.57" fill="white" transform="translate(486.92)"/>
</clipPath>
<clipPath id="clip6_41_1632">
<rect width="106.92" height="32.57" fill="white" transform="translate(291.92)"/>
</clipPath>
<clipPath id="clip7_41_1632">
<rect width="106.92" height="32.57" fill="white" transform="translate(681.92)"/>
</clipPath>
</defs>
</svg>
