<svg width="235" height="333" viewBox="0 0 235 333" fill="none" xmlns="http://www.w3.org/2000/svg">
<path d="M52.1862 6.24169C43.1049 39.9647 35.3711 73.9905 28.9662 108.25C22.5977 142.351 17.5654 176.655 13.8912 211.066C11.7805 230.948 10.0736 250.879 8.81084 270.832C8.56544 274.732 13.0083 277.794 16.7951 277.565C21.2461 277.305 23.7125 273.817 23.9909 269.923C26.1246 235.895 29.6091 202.005 34.4477 168.09C39.3041 133.949 45.5041 99.9781 53 66.2337C57.2444 47.1409 61.9183 28.1341 67.0217 9.2133C68.0053 5.55992 65.1857 1.30935 61.2504 0.68565C57.0766 0.0470731 53.2682 2.31186 52.2192 6.2483" fill="#241F21"/>
<path d="M3.52417 308.178C2.96031 308.822 2.45522 309.511 1.97593 310.237C1.81859 310.469 1.68705 310.739 1.56275 310.977C1.2414 311.769 0.886977 312.553 0.664745 313.364C0.475553 314.182 0.433659 315.26 0.365422 316.003C0.323544 317.081 0.593621 318.155 0.797586 319.216C0.919727 319.734 1.08219 320.227 1.31073 320.734C1.77509 321.715 2.22486 322.76 2.92386 323.624C3.61557 324.519 4.38069 325.397 5.24823 326.13C6.11577 326.863 7.10425 327.522 8.12912 328.023C8.62868 328.255 9.17582 328.43 9.72297 328.606C10.3032 328.788 10.8688 329.033 11.4636 329.152C12.3227 329.324 13.2512 329.345 14.1136 329.354C14.3852 329.375 14.6641 329.365 14.9172 329.317C16.5535 329.118 17.7272 328.827 19.1608 328.16C20.554 327.517 21.4556 326.908 22.6315 325.86C23.4154 325.161 24.0448 324.234 24.5935 323.357C25.1825 322.455 25.5436 321.342 25.8425 320.349C25.9847 319.884 26.0608 319.406 26.137 318.927C26.2449 317.863 26.3932 316.774 26.2956 315.701C26.1981 314.628 25.9941 313.567 25.6434 312.543C25.3 311.487 24.7768 310.46 24.1988 309.522C24.0442 309.294 23.8896 309.065 23.7278 308.868C23.1907 308.201 22.6462 307.565 22.0212 306.98C21.819 306.807 21.6499 306.642 21.4404 306.501C20.7274 305.996 20.0218 305.46 19.2136 305.068C18.4055 304.676 17.5021 304.396 16.6246 304.154C16.3272 304.095 16.0629 304.042 15.7655 303.982C14.7485 303.746 13.7467 303.742 12.7857 304.011C11.7951 304.108 10.8929 304.421 10.072 304.981C9.19956 305.464 8.52927 306.12 8.02816 306.941C7.36911 307.698 6.9341 308.532 6.77461 309.52C6.4517 311.364 6.64286 313.377 7.80562 314.926C8.88381 316.393 10.5931 317.821 12.5459 318.048C12.9166 318.089 13.2471 318.155 13.6033 318.26C12.9643 318.033 12.318 317.838 11.679 317.611C12.0279 317.747 12.3695 317.914 12.7039 318.112C12.1673 317.742 11.6235 317.402 11.12 317.038C11.4801 317.275 11.8257 317.574 12.0979 317.892C11.6896 317.416 11.274 316.97 10.8657 316.494C11.1894 316.888 11.4729 317.306 11.7087 317.781L10.8797 316.134C11.134 316.679 11.3149 317.242 11.4628 317.798C11.3295 317.179 11.2292 316.566 11.0885 315.979C11.1889 316.591 11.2488 317.229 11.1767 317.839C11.2231 317.19 11.3025 316.548 11.3489 315.899C11.2841 316.479 11.1861 317.051 10.956 317.598L11.6569 315.764C11.4962 316.159 11.2695 316.542 11.0427 316.924C11.405 316.404 11.8003 315.891 12.1626 315.371C11.9173 315.684 11.639 315.99 11.3019 316.252C11.8076 315.86 12.2802 315.461 12.7859 315.068C12.4964 315.273 12.2068 315.479 11.8658 315.608C12.4487 315.33 13.0244 315.083 13.6073 314.805C13.259 314.966 12.8519 315.082 12.4851 315.173C13.1381 315.04 13.7838 314.939 14.4367 314.807C14.0442 314.86 13.6589 314.881 13.2809 314.871C13.9635 314.909 14.6389 314.979 15.3216 315.017C14.8444 314.987 14.4149 314.901 13.9669 314.745C14.6059 314.972 15.2522 315.167 15.8912 315.394C15.4101 315.232 14.9839 314.982 14.5577 314.732C15.0942 315.103 15.638 315.442 16.1746 315.813C15.6638 315.48 15.2337 315.098 14.8511 314.659L16.0833 316.058C15.675 315.581 15.3143 315.048 15.027 314.497C15.3143 315.048 15.5686 315.593 15.8559 316.144C15.5944 315.631 15.4061 315.099 15.2985 314.518C15.4319 315.138 15.5322 315.75 15.6728 316.338C15.6022 315.896 15.5647 315.46 15.6005 315.007C15.5541 315.656 15.4746 316.298 15.4282 316.947C15.4494 316.556 15.544 316.147 15.6974 315.783C15.4528 316.392 15.2412 317.008 15.0038 317.586C15.1572 317.222 15.3363 316.895 15.5486 316.576C15.1532 317.089 14.791 317.609 14.3957 318.122C14.4909 318.01 14.5933 317.866 14.6885 317.753C15.9993 316.271 16.8066 314.426 16.7073 312.464C16.6231 310.736 15.7089 308.71 14.2791 307.568C12.7574 306.374 10.7777 305.517 8.72303 305.731C6.81509 305.908 4.84954 306.633 3.546 308.084" fill="#241F21"/>
<path d="M140.806 28.4681C133.404 61.5073 125.995 94.5779 118.626 127.624C111.253 160.537 103.888 193.419 96.5223 226.301C92.3467 244.947 88.1712 263.593 83.9956 282.239C83.1442 285.918 85.6995 290.116 89.7669 290.766C93.8013 291.41 97.9143 289.173 98.7981 285.204C106.2 252.164 113.609 219.094 121.011 186.055C128.384 153.141 135.749 120.259 143.115 87.3774C147.29 68.7315 151.466 50.0856 155.641 31.4397C156.493 27.7599 153.937 23.5622 149.87 22.912C145.836 22.2685 141.723 24.5052 140.839 28.4747" fill="#241F21"/>
<path d="M70.754 320.492C70.9234 322.6 71.5917 324.642 72.8099 326.4C74.0797 328.234 75.5684 329.421 77.4753 330.592C78.8055 331.418 80.4396 331.976 81.9853 332.318C83.531 332.661 85.2267 332.803 86.8042 332.56C88.9871 332.24 91.0009 331.755 92.8773 330.518C94.7135 329.306 96.3798 327.633 97.3227 325.65C97.7795 324.721 98.2616 323.534 98.4026 322.476C98.5509 321.387 98.7283 320.172 98.6049 319.061C98.3398 316.77 97.6827 314.829 96.4896 312.813C95.8931 311.805 95.0619 310.914 94.2565 310.062C93.4511 309.209 92.3635 308.531 91.3605 307.935C89.2698 306.66 86.5201 306.143 84.0359 306.27C82.1425 306.385 80.1736 307.274 78.8588 308.623C77.5844 309.947 76.6713 312.101 76.8401 313.912C77.0419 315.729 77.7466 317.615 79.2682 318.808C80.8157 320.039 82.7181 320.783 84.8171 320.676C85.0629 320.66 85.3015 320.675 85.5473 320.658C84.8647 320.62 84.1893 320.551 83.5066 320.513C83.9837 320.542 84.4463 320.635 84.8943 320.791C84.2553 320.564 83.6091 320.369 82.9701 320.142C83.4512 320.304 83.9176 320.529 84.3366 320.811C83.7928 320.471 83.2563 320.1 82.7197 319.73C83.2305 320.062 83.6864 320.483 84.0689 320.921L82.8367 319.523C83.245 320 83.58 320.494 83.8673 321.046C83.58 320.494 83.3257 319.95 83.0383 319.399C83.3184 319.981 83.5582 320.589 83.6842 321.239C83.5839 320.627 83.4505 320.008 83.3172 319.389C83.4248 319.97 83.459 320.569 83.4272 321.155C83.4736 320.506 83.553 319.864 83.5994 319.215C83.5564 319.7 83.4472 320.172 83.2647 320.662C83.5094 320.052 83.721 319.437 83.9656 318.827C83.805 319.223 83.6185 319.581 83.366 319.925L84.5188 318.379C84.2663 318.723 83.9477 319.054 83.6033 319.347C84.109 318.955 84.5816 318.556 85.0873 318.164C84.7429 318.457 84.347 318.673 83.9584 318.859L85.6999 318.056C85.2379 318.26 84.7905 318.4 84.3173 318.503C84.9703 318.37 85.6159 318.27 86.2689 318.137C85.6562 318.245 85.0251 318.283 84.4158 318.227C85.0985 318.265 85.7739 318.334 86.4565 318.372C85.7408 318.327 85.0469 318.188 84.3749 317.955C85.0139 318.182 85.6602 318.377 86.2992 318.604C85.6602 318.377 85.0688 318.094 84.4992 317.717C85.0358 318.087 85.5795 318.427 86.1161 318.797C85.6383 318.471 85.2009 318.121 84.8514 317.689C85.2597 318.165 85.6753 318.61 86.0836 319.087C85.7856 318.731 85.4949 318.344 85.2776 317.938C85.565 318.49 85.8193 319.034 86.1067 319.585C85.9224 319.186 85.7711 318.794 85.7005 318.352C85.8339 318.971 85.9342 319.584 86.0675 320.203C86.0451 320.001 86.0227 319.799 86.0002 319.597C85.8718 317.761 85.0131 315.944 83.572 314.701C82.1898 313.502 79.9312 312.655 78.049 312.871C76.1411 313.048 74.1425 313.766 72.872 315.223C71.5611 316.705 70.7207 318.544 70.8531 320.512" fill="#241F21"/>
<path d="M219.85 33.8026C207.603 91.9683 194.159 149.927 179.526 207.648C175.375 224.094 171.092 240.513 166.743 256.92C165.76 260.573 168.579 264.824 172.515 265.447C176.648 266.111 180.497 263.821 181.546 259.885C196.833 202.328 210.97 144.508 223.878 86.4745C227.566 69.9359 231.155 53.3774 234.645 36.799C235.43 33.1059 232.974 28.9281 228.874 28.2713C224.872 27.6344 220.693 29.8579 219.842 33.834" fill="#241F21"/>
<path d="M162.539 318.572C163.122 318.294 163.738 318.022 164.321 317.744C163.738 318.022 163.163 318.269 162.58 318.547C164.241 317.794 165.96 317.085 167.544 316.218C168.886 315.499 170.212 314.547 171.204 313.397C172.544 311.789 173.697 309.947 173.971 307.863C174.12 306.774 174.249 305.615 174.119 304.536C173.992 303.292 173.732 302.023 173.392 300.803C172.752 298.338 170.279 296.625 167.823 296.034C165.855 295.574 163.944 295.916 162.01 296.351C160.444 296.696 158.956 297.451 157.555 298.124C156.034 298.873 154.759 299.901 153.509 300.967C153.125 301.285 152.759 301.672 152.458 302.073C151.825 302.867 151.056 303.799 150.658 304.773C150.143 305.657 149.866 306.556 149.879 307.546C149.693 308.496 149.787 309.436 150.167 310.335C150.724 311.96 152.181 313.733 153.845 314.461C155.634 315.247 157.803 315.583 159.728 314.883C161.467 314.244 163.394 313.083 164.107 311.35C164.267 310.954 164.487 310.603 164.747 310.227C164.351 310.741 163.989 311.26 163.594 311.774C163.989 311.26 164.443 310.792 164.949 310.4C164.443 310.792 163.971 311.191 163.465 311.583C164.267 310.954 165.147 310.439 166.078 310.001L164.337 310.804C165.187 310.414 166.097 310.07 167.069 309.903C166.416 310.035 165.77 310.136 165.117 310.269C165.51 310.216 165.869 310.156 166.28 310.173C165.598 310.135 164.922 310.065 164.24 310.027C164.372 310.054 164.471 310.073 164.603 310.1C162.758 308.513 160.879 306.919 159.034 305.332C159.134 305.648 159.193 305.989 159.252 306.33C159.119 305.711 159.019 305.098 158.878 304.511C159.023 305.231 159.094 305.969 159.033 306.681C159.079 306.032 159.159 305.389 159.205 304.741C159.151 305.125 159.089 305.54 158.936 305.904C159.181 305.295 159.392 304.679 159.637 304.07C159.531 304.378 159.359 304.673 159.154 304.961C159.517 304.441 159.912 303.928 160.307 303.415C160.047 303.79 159.703 304.083 159.359 304.376C159.864 303.984 160.337 303.585 160.843 303.193C159.743 304.059 158.398 304.645 157.118 305.244L158.86 304.441C157.386 305.133 155.886 305.787 154.412 306.479C153.54 306.963 152.87 307.618 152.368 308.439C151.709 309.196 151.307 310.037 151.115 311.018C150.715 312.748 151.027 314.983 152.146 316.424C153.283 317.936 154.922 319.218 156.886 319.546C157.569 319.584 158.244 319.653 158.927 319.691C160.262 319.597 161.491 319.218 162.62 318.522" fill="#241F21"/>
</svg>
