<svg width="236" height="333" viewBox="0 0 236 333" fill="none" xmlns="http://www.w3.org/2000/svg">
<path d="M52.7987 6.24169C43.7175 39.9647 35.9837 73.9905 29.5788 108.25C23.2103 142.351 18.178 176.655 14.5037 211.066C12.3931 230.948 10.6862 250.879 9.42339 270.832C9.17798 274.732 13.6209 277.794 17.4077 277.565C21.8586 277.305 24.325 273.817 24.6035 269.923C26.7372 235.895 30.2217 202.005 35.0602 168.09C39.9167 133.949 46.1167 99.9781 53.6125 66.2337C57.8569 47.1409 62.5308 28.1341 67.6343 9.2133C68.6178 5.55992 65.7983 1.30935 61.863 0.68565C57.6891 0.0470731 53.8808 2.31186 52.8317 6.2483" fill="#000000"/>
<path d="M4.13672 308.178C3.57286 308.822 3.06777 309.511 2.58848 310.237C2.43114 310.469 2.2996 310.739 2.1753 310.977C1.85394 311.769 1.49953 312.553 1.27729 313.364C1.0881 314.182 1.04621 315.26 0.977971 316.003C0.936093 317.081 1.20617 318.155 1.41013 319.216C1.53228 319.734 1.69474 320.227 1.92328 320.734C2.38764 321.715 2.83741 322.76 3.53641 323.624C4.22812 324.519 4.99324 325.397 5.86078 326.13C6.72832 326.863 7.71679 327.522 8.74167 328.023C9.24123 328.255 9.78837 328.43 10.3355 328.606C10.9157 328.788 11.4814 329.033 12.0761 329.152C12.9352 329.324 13.8637 329.345 14.7261 329.354C14.9977 329.375 15.2766 329.365 15.5297 329.317C17.1661 329.118 18.3398 328.827 19.7733 328.16C21.1666 327.517 22.0681 326.908 23.244 325.86C24.028 325.161 24.6573 324.234 25.206 323.357C25.7951 322.455 26.1562 321.342 26.4551 320.349C26.5973 319.884 26.6734 319.406 26.7495 318.927C26.8575 317.863 27.0057 316.774 26.9082 315.701C26.8106 314.628 26.6066 313.567 26.2559 312.543C25.9125 311.487 25.3894 310.46 24.8113 309.522C24.6568 309.294 24.5022 309.065 24.3403 308.868C23.8032 308.201 23.2588 307.565 22.6337 306.98C22.4315 306.807 22.2624 306.642 22.0529 306.501C21.34 305.996 20.6343 305.46 19.8262 305.068C19.018 304.676 18.1147 304.396 17.2371 304.154C16.9398 304.095 16.6754 304.042 16.3781 303.982C15.3611 303.746 14.3592 303.742 13.3983 304.011C12.4076 304.108 11.5055 304.421 10.6845 304.981C9.81211 305.464 9.14182 306.12 8.6407 306.941C7.98166 307.698 7.54665 308.532 7.38716 309.52C7.06424 311.364 7.25541 313.377 8.41817 314.926C9.49636 316.393 11.2057 317.821 13.1585 318.048C13.5292 318.089 13.8596 318.155 14.2158 318.26C13.5768 318.033 12.9305 317.838 12.2915 317.611C12.6404 317.747 12.9821 317.914 13.3164 318.112C12.7799 317.742 12.2361 317.402 11.7326 317.038C12.0927 317.275 12.4382 317.574 12.7104 317.892C12.3021 317.416 11.8866 316.97 11.4783 316.494C11.802 316.888 12.0854 317.306 12.3212 317.781L11.4922 316.134C11.7465 316.679 11.9275 317.242 12.0754 317.798C11.942 317.179 11.8417 316.566 11.7011 315.979C11.8014 316.591 11.8614 317.229 11.7892 317.839C11.8356 317.19 11.9151 316.548 11.9615 315.899C11.8966 316.479 11.7987 317.051 11.5686 317.598L12.2695 315.764C12.1088 316.159 11.882 316.542 11.6553 316.924C12.0176 316.404 12.4129 315.891 12.7751 315.371C12.5299 315.684 12.2516 315.99 11.9145 316.252C12.4201 315.86 12.8928 315.461 13.3984 315.068C13.1089 315.273 12.8194 315.479 12.4783 315.608C13.0613 315.33 13.6369 315.083 14.2199 314.805C13.8715 314.966 13.4645 315.082 13.0977 315.173C13.7506 315.04 14.3963 314.939 15.0493 314.807C14.6567 314.86 14.2714 314.881 13.8934 314.871C14.5761 314.909 15.2515 314.979 15.9341 315.017C15.457 314.987 15.0274 314.901 14.5794 314.745C15.2184 314.972 15.8647 315.167 16.5037 315.394C16.0226 315.232 15.5964 314.982 15.1702 314.732C15.7067 315.103 16.2506 315.442 16.7871 315.813C16.2763 315.48 15.8462 315.098 15.4637 314.659L16.6958 316.058C16.2875 315.581 15.9269 315.048 15.6395 314.497C15.9269 315.048 16.1811 315.593 16.4685 316.144C16.2069 315.631 16.0187 315.099 15.9111 314.518C16.0444 315.138 16.1448 315.75 16.2854 316.338C16.2148 315.896 16.1772 315.46 16.213 315.007C16.1666 315.656 16.0872 316.298 16.0408 316.947C16.062 316.556 16.1566 316.147 16.31 315.783C16.0653 316.392 15.8537 317.008 15.6163 317.586C15.7697 317.222 15.9489 316.895 16.1611 316.576C15.7658 317.089 15.4035 317.609 15.0082 318.122C15.1034 318.01 15.2059 317.866 15.3011 317.753C16.6119 316.271 17.4192 314.426 17.3199 312.464C17.2357 310.736 16.3215 308.71 14.8916 307.568C13.37 306.374 11.3902 305.517 9.33558 305.731C7.42764 305.908 5.46209 306.633 4.15855 308.084" fill="#000000"/>
<path d="M141.418 28.4681C134.016 61.5073 126.607 94.5779 119.238 127.624C111.866 160.537 104.5 193.419 97.1349 226.301C92.9593 244.947 88.7837 263.593 84.6081 282.239C83.7568 285.918 86.312 290.116 90.3795 290.766C94.4139 291.41 98.5269 289.173 99.4107 285.204C106.813 252.164 114.222 219.094 121.624 186.055C128.996 153.141 136.362 120.259 143.727 87.3774C147.903 68.7315 152.078 50.0856 156.254 31.4397C157.105 27.7599 154.55 23.5622 150.483 22.912C146.448 22.2685 142.335 24.5052 141.451 28.4747" fill="#000000"/>
<path d="M71.3666 320.492C71.5359 322.6 72.2043 324.642 73.4225 326.4C74.6922 328.234 76.1809 329.421 78.0879 330.592C79.418 331.418 81.0522 331.976 82.5979 332.318C84.1435 332.661 85.8392 332.803 87.4167 332.56C89.5996 332.24 91.6134 331.755 93.4899 330.518C95.326 329.306 96.9924 327.633 97.9352 325.65C98.3921 324.721 98.8741 323.534 99.0151 322.476C99.1634 321.387 99.3408 320.172 99.2175 319.061C98.9523 316.77 98.2952 314.829 97.1022 312.813C96.5057 311.805 95.6745 310.914 94.8691 310.062C94.0637 309.209 92.9761 308.531 91.973 307.935C89.8824 306.66 87.1326 306.143 84.6484 306.27C82.755 306.385 80.7861 307.274 79.4714 308.623C78.197 309.947 77.2838 312.101 77.4526 313.912C77.6544 315.729 78.3591 317.615 79.8808 318.808C81.4283 320.039 83.3307 320.783 85.4296 320.676C85.6755 320.66 85.914 320.675 86.1599 320.658C85.4772 320.62 84.8018 320.551 84.1192 320.513C84.5963 320.542 85.0589 320.635 85.5069 320.791C84.8679 320.564 84.2216 320.369 83.5826 320.142C84.0637 320.304 84.5302 320.529 84.9491 320.811C84.4053 320.471 83.8688 320.1 83.3323 319.73C83.843 320.062 84.2989 320.483 84.6815 320.921L83.4493 319.523C83.8576 320 84.1925 320.494 84.4799 321.046C84.1925 320.494 83.9382 319.95 83.6509 319.399C83.931 319.981 84.1707 320.589 84.2968 321.239C84.1965 320.627 84.0631 320.008 83.9297 319.389C84.0373 319.97 84.0716 320.569 84.0397 321.155C84.0861 320.506 84.1656 319.864 84.212 319.215C84.1689 319.7 84.0598 320.172 83.8773 320.662C84.1219 320.052 84.3335 319.437 84.5782 318.827C84.4175 319.223 84.231 319.581 83.9785 319.925L85.1314 318.379C84.8789 318.723 84.5603 319.054 84.2159 319.347C84.7215 318.955 85.1942 318.556 85.6998 318.164C85.3554 318.457 84.9595 318.673 84.5709 318.859L86.3125 318.056C85.8505 318.26 85.4031 318.4 84.9299 318.503C85.5828 318.37 86.2285 318.27 86.8814 318.137C86.2688 318.245 85.6377 318.283 85.0284 318.227C85.711 318.265 86.3864 318.334 87.0691 318.372C86.3534 318.327 85.6595 318.188 84.9874 317.955C85.6264 318.182 86.2728 318.377 86.9118 318.604C86.2728 318.377 85.6813 318.094 85.1118 317.717C85.6483 318.087 86.1921 318.427 86.7286 318.797C86.2509 318.471 85.8135 318.121 85.464 317.689C85.8723 318.165 86.2879 318.61 86.6962 319.087C86.3982 318.731 86.1075 318.344 85.8902 317.938C86.1775 318.49 86.4319 319.034 86.7192 319.585C86.5349 319.186 86.3837 318.794 86.3131 318.352C86.4464 318.971 86.5467 319.584 86.6801 320.203C86.6576 320.001 86.6352 319.799 86.6128 319.597C86.4843 317.761 85.6256 315.944 84.1846 314.701C82.8023 313.502 80.5437 312.655 78.6615 312.871C76.7536 313.048 74.755 313.766 73.4845 315.223C72.1737 316.705 71.3333 318.544 71.4657 320.512" fill="#000000"/>
<path d="M220.462 33.8026C208.215 91.9683 194.771 149.927 180.138 207.648C175.987 224.094 171.705 240.513 167.356 256.92C166.372 260.573 169.192 264.824 173.127 265.447C177.261 266.111 181.109 263.821 182.158 259.885C197.445 202.328 211.583 144.508 224.491 86.4745C228.179 69.9359 231.768 53.3774 235.257 36.799C236.043 33.1059 233.587 28.9281 229.486 28.2713C225.485 27.6344 221.306 29.8579 220.455 33.834" fill="#000000"/>
<path d="M163.152 318.572C163.735 318.294 164.351 318.022 164.934 317.744C164.351 318.022 163.775 318.269 163.192 318.547C164.853 317.794 166.573 317.085 168.157 316.218C169.498 315.499 170.825 314.547 171.817 313.397C173.157 311.789 174.309 309.947 174.584 307.863C174.732 306.774 174.862 305.615 174.731 304.536C174.604 303.292 174.345 302.023 174.005 300.803C173.365 298.338 170.892 296.625 168.435 296.034C166.467 295.574 164.556 295.916 162.623 296.351C161.057 296.696 159.568 297.451 158.168 298.124C156.646 298.873 155.371 299.901 154.122 300.967C153.737 301.285 153.371 301.672 153.071 302.073C152.438 302.867 151.669 303.799 151.271 304.773C150.755 305.657 150.478 306.556 150.491 307.546C150.306 308.496 150.399 309.436 150.779 310.335C151.337 311.96 152.793 313.733 154.457 314.461C156.246 315.247 158.416 315.583 160.341 314.883C162.079 314.244 164.007 313.083 164.719 311.35C164.88 310.954 165.099 310.603 165.359 310.227C164.964 310.741 164.602 311.26 164.206 311.774C164.602 311.26 165.056 310.792 165.561 310.4C165.056 310.792 164.583 311.191 164.077 311.583C164.88 310.954 165.76 310.439 166.691 310.001L164.949 310.804C165.8 310.414 166.709 310.07 167.681 309.903C167.029 310.035 166.383 310.136 165.73 310.269C166.122 310.216 166.482 310.156 166.893 310.173C166.21 310.135 165.535 310.065 164.852 310.027C164.984 310.054 165.084 310.073 165.216 310.1C163.37 308.513 161.492 306.919 159.646 305.332C159.746 305.648 159.806 305.989 159.865 306.33C159.732 305.711 159.631 305.098 159.491 304.511C159.635 305.231 159.706 305.969 159.645 306.681C159.692 306.032 159.771 305.389 159.818 304.741C159.763 305.125 159.702 305.54 159.549 305.904C159.793 305.295 160.005 304.679 160.249 304.07C160.144 304.378 159.972 304.673 159.767 304.961C160.129 304.441 160.524 303.928 160.92 303.415C160.66 303.79 160.316 304.083 159.971 304.376C160.477 303.984 160.949 303.585 161.455 303.193C160.356 304.059 159.01 304.645 157.731 305.244L159.472 304.441C157.998 305.133 156.499 305.787 155.025 306.479C154.152 306.963 153.482 307.618 152.981 308.439C152.322 309.196 151.92 310.037 151.727 311.018C151.327 312.748 151.64 314.983 152.758 316.424C153.895 317.936 155.535 319.218 157.499 319.546C158.181 319.584 158.857 319.653 159.539 319.691C160.875 319.597 162.104 319.218 163.233 318.522" fill="#000000"/>
</svg>
