<?xml version="1.0" encoding="utf-8"?>
<!-- Generator: Adobe Illustrator 27.5.0, SVG Export Plug-In . SVG Version: 6.00 Build 0)  -->
<svg version="1.1" id="Layer_1" xmlns="http://www.w3.org/2000/svg" xmlns:xlink="http://www.w3.org/1999/xlink" x="0px" y="0px"
	 viewBox="0 0 1000 1000" style="enable-background:new 0 0 1000 1000;" xml:space="preserve">
<style type="text/css">
	.st0{fill:#F7E369;}
	.st1{fill:#F55C3C;}
	.st2{fill:#FFD939;}
	.st3{fill:#E26B00;}
	.st4{fill:#EA5467;}
	.st5{fill:#F9C0E1;}
	.st6{fill:#FFFFFF;}
	.st7{fill:#FCC5F5;}
	.st8{fill:#7346AE;}
	.st9{fill:#F232A0;}
	.st10{fill:#EDB5D8;}
	.st11{fill:#F7313D;}
	.st12{fill:#F9EAA2;}
	.st13{fill:#F8A4CB;}
	.st14{fill:#F19EF8;}
	.st15{fill:#8867CE;}
	.st16{fill:#3E6FD5;}
	.st17{fill:#FAF2E9;}
	.st18{fill:#663A92;}
	.st19{fill:#FF8D3D;}
	.st20{fill:#FADF46;}
	.st21{fill:#7903EA;}
	.st22{fill:#CEA7F2;}
	.st23{fill:#FDFEFC;}
	.st24{fill:#FF4C37;}
	.st25{fill:#FFCAC1;}
	.st26{fill:#E8C93D;}
	.st27{fill:#29864D;}
	.st28{fill:#F8F8F0;}
	.st29{fill:#F7851E;}
	.st30{fill:#F9F946;}
	.st31{fill:#F8862F;}
	.st32{fill:#FFE2D8;}
	.st33{fill:#4A89E5;}
	.st34{fill:#F97AC5;}
	.st35{fill:#FDFFFF;}
	.st36{fill:#F2C3B3;}
	.st37{fill:#F13830;}
	.st38{fill:#E2D25D;}
	.st39{fill:#F36525;}
	.st40{fill:#FFDCD7;}
	.st41{fill:#FB4321;}
	.st42{clip-path:url(#SVGID_00000090999205208845912630000000426653473325568945_);}
	.st43{fill:#3A3A3A;}
	.st44{fill:#2B2B2B;}
	.st45{fill:#5BAA41;}
	.st46{fill:#F277B4;}
	.st47{fill:#EEE5BE;}
	.st48{fill:#FDCA06;}
	.st49{fill:#EF7807;}
	.st50{fill:#CBF0E1;}
	.st51{fill:#56906A;}
	.st52{fill:#FFF8D9;}
	.st53{fill:#FFBC15;}
	.st54{fill:#28282B;}
	.st55{fill:#EF354C;}
	.st56{fill:#F39FC7;}
	.st57{fill:#F9AB4E;}
	.st58{fill:#EFFF7B;}
	.st59{fill:#50C096;}
	.st60{fill:#DBFAF0;}
	.st61{fill:#FFF8F8;}
	.st62{fill:#84322C;}
	.st63{fill:#F1F1F1;}
	.st64{fill:#F20000;}
	.st65{fill:#FFFA57;}
	.st66{fill:#3BBCF4;}
	.st67{fill:#EFF784;}
	.st68{fill:#F46CAD;}
	.st69{fill:#ECDED1;}
	.st70{fill:#398FAA;}
	.st71{fill:#FB5229;}
	.st72{fill:#FFDFD8;}
	.st73{fill:#EE4933;}
	.st74{fill:#8021E2;}
	.st75{fill:#D0B6F0;}
	.st76{fill:#418ADF;}
	.st77{fill:#E6F1FF;}
	.st78{fill:#FF6A36;}
	.st79{fill:#F9C77D;}
	.st80{fill:#6E579F;}
	.st81{fill:#FBB9F0;}
	.st82{fill:#EF4C23;}
	.st83{fill:#FFC7E7;}
	.st84{fill:#DAF1F7;}
	.st85{fill:#5353F9;}
	.st86{fill:#FF56C8;}
	.st87{fill:#FCF0FC;}
	.st88{fill:#E5B9FF;}
	.st89{fill:#7C63E5;}
	.st90{fill:#E8CA47;}
	.st91{fill:#DD2F5E;}
	.st92{fill:#DBC0FF;}
	.st93{fill:#844FDC;}
	.st94{fill:#E9F98F;}
	.st95{fill:#E8AD85;}
</style>
<g>
	<path class="st6" d="M727.82,673.43c-14.93,25.63-32.93,46.18-53.51,61.08c-23.02,16.69-48.08,25.52-74.46,26.28
		c-6.45,0.18-12.99-0.14-19.41-0.95c-26.28-3.31-51.6-15.03-74.12-33.9c-5.35,5.05-10.9,9.68-16.66,13.86
		c-23.03,16.67-48.08,25.52-74.46,26.27c-6.39,0.19-12.85-0.12-19.2-0.92c-46-5.79-88.25-36.87-118.97-87.52
		c-28.26-46.59-44.81-106.93-46.61-169.91c-1.93-67.3,12.9-131.63,41.74-181.14c14.94-25.62,32.94-46.17,53.51-61.08
		c23.03-16.67,48.08-25.51,74.46-26.27c6.39-0.19,12.84,0.13,19.2,0.93c26.38,3.32,51.53,14.97,73.97,33.84
		c26.61-25.16,57.97-39.09,91.49-40.05c6.39-0.17,12.83,0.13,19.19,0.93c46.02,5.79,88.26,36.88,118.98,87.51
		c28.25,46.6,44.81,106.94,46.61,169.92C771.5,559.6,756.67,623.93,727.82,673.43z"/>
	<g>
		<path class="st43" d="M414.18,730.38c-78.06,2.23-144.49-98.12-148.08-223.69c-3.59-125.58,57-229.55,135.06-231.79
			c78.06-2.23,144.49,98.12,148.08,223.69C552.83,624.17,492.24,728.15,414.18,730.38z M401.51,287.21
			c-71.27,2.04-126.5,100.34-123.1,219.12c3.4,118.79,64.14,213.77,135.42,211.74c71.27-2.04,126.5-100.34,123.1-219.12
			C533.53,380.16,472.78,285.17,401.51,287.21z"/>
		<path class="st43" d="M598.83,725.1c-36.58,1.05-71.82-20.06-99.26-59.44l10.11-7.04c24.97,35.85,56.5,55.09,88.8,54.17
			c71.27-2.04,126.5-100.34,123.1-219.12c-3.4-118.79-64.14-213.77-135.42-211.74c-32.29,0.92-62.67,21.93-85.56,59.15l-10.5-6.45
			c25.14-40.88,59.12-63.97,95.7-65.01c78.06-2.23,144.49,98.12,148.08,223.69C737.48,618.89,676.9,722.87,598.83,725.1z"/>
		
			<ellipse transform="matrix(0.9996 -0.0286 0.0286 0.9996 -14.312 13.1771)" class="st43" cx="454.01" cy="507.48" rx="56.65" ry="67.73"/>
		<g>
			
				<ellipse transform="matrix(0.9996 -0.0286 0.0286 0.9996 -14.0859 18.45)" class="st43" cx="638.66" cy="502.2" rx="56.65" ry="67.73"/>
		</g>
	</g>
</g>
</svg>
