<svg width="245" height="134" viewBox="0 0 245 134" fill="none" xmlns="http://www.w3.org/2000/svg">
<path d="M239.673 127.333C208.19 107.794 179.697 104.661 148.848 117.654" stroke="black" stroke-width="9.33333" stroke-miterlimit="10" stroke-linecap="round"/>
<path d="M160.187 113.578C183.811 106.57 206.408 109.358 230.499 122.066C231.781 116.37 232.893 110.389 233.845 104.225C240.636 60.254 231.573 9.01138 197.845 9.01138C164.117 9.01138 155.54 62.3967 159.133 104.225C159.405 107.399 159.761 110.519 160.187 113.578Z" fill="white"/>
<path d="M160.187 113.578C183.811 106.57 206.408 109.358 230.499 122.066C231.781 116.37 232.893 110.389 233.845 104.225C240.636 60.254 231.573 9.01138 197.845 9.01138C164.117 9.01138 155.54 62.3967 159.133 104.225C159.405 107.399 159.761 110.519 160.187 113.578Z" stroke="black" stroke-width="9.33333" stroke-miterlimit="10" stroke-linecap="round"/>
<path d="M203.824 74.113C201.157 85.4703 175.661 79.705 175.817 84.4996C176.778 114.02 187.67 133.681 202.837 133.588C220.466 133.48 237.068 103.62 239.916 66.893C242.764 30.1663 230.78 0.480957 213.15 0.588956C198.616 0.67829 184.781 20.989 178.776 48.697C177.496 54.5983 206.49 62.7543 203.824 74.113Z" fill="black"/>
<path d="M4.77734 123.115C41.22 105.183 73.6507 103.124 108.461 117.339" stroke="black" stroke-width="9.33333" stroke-miterlimit="10" stroke-linecap="round"/>
<path d="M95.503 112.769C68.8257 104.869 43.0963 106.787 15.3083 118.335C14.3577 112.702 13.6217 106.817 13.0777 100.779C9.255 58.2928 23.1283 10.0595 59.9803 10.1181C97.7363 10.1768 104.164 62.0648 97.3363 103.437C96.8123 106.603 96.1977 109.717 95.503 112.769Z" fill="white"/>
<path d="M95.503 112.769C68.8257 104.869 43.0963 106.787 15.3083 118.335C14.3577 112.702 13.6217 106.817 13.0777 100.779C9.255 58.2928 23.1283 10.0595 59.9803 10.1181C97.7363 10.1768 104.164 62.0648 97.3363 103.437C96.8123 106.603 96.1977 109.717 95.503 112.769Z" stroke="black" stroke-width="9.33333" stroke-miterlimit="10" stroke-linecap="round"/>
<path d="M65.0027 72.4115C62.8641 83.5381 33.6574 78.5981 34.1627 83.3115C37.2921 112.547 51.1454 131.738 68.3547 130.938C88.1174 130.019 104.033 100.081 104.133 64.6368C104.232 29.8168 88.9827 2.10214 69.8601 2.18347C53.9107 2.25147 39.9507 21.5501 35.0841 48.2688C34.0374 54.0155 67.1267 61.3608 65.0027 72.4115Z" fill="black"/>
</svg>
