<svg width="439" height="27" viewBox="0 0 439 27" fill="none" xmlns="http://www.w3.org/2000/svg">
<path d="M0.241516 26.3992V0.80542H18.6107V7.573H9.18878V11.1941H17.4329V17.4871H9.18878V26.3992H0.241516ZM19.7376 26.3992V0.80542H32.0599C34.9661 0.80542 37.304 1.57886 39.0735 3.12573C40.8548 4.66089 41.7454 6.79956 41.7454 9.54175C41.7454 12.366 40.8079 14.5984 38.9329 16.239C37.0696 17.8796 34.7493 18.7 31.972 18.7H28.6849V26.3992H19.7376ZM28.6849 12.9167H30.4075C31.2396 12.9167 31.8314 12.6648 32.1829 12.1609C32.5462 11.6453 32.7337 10.9128 32.7454 9.96362C32.7454 9.0144 32.5638 8.28198 32.2005 7.76636C31.8372 7.25073 31.2396 6.99292 30.4075 6.99292H28.6849V12.9167ZM33.0267 26.3992L28.5443 15.3074L36.9818 13.7781L42.8353 26.3992H33.0267ZM43.1712 26.3992V0.80542H62.4368V7.59058H51.8196V10.4031H60.9427V16.5203H51.8196V19.8074H62.7005V26.3992H43.1712ZM64.0384 26.3992V0.80542H83.304V7.59058H72.6868V10.4031H81.8099V16.5203H72.6868V19.8074H83.5677V26.3992H64.0384ZM93.0286 14.3406V12.864C93.0286 8.64526 94.1478 5.5105 96.386 3.45972C98.636 1.39722 101.642 0.365967 105.404 0.365967C108.802 0.365967 111.451 1.1394 113.349 2.68628C115.259 4.23315 116.173 6.28394 116.091 8.83862V9.5769H107.495V9.24292C107.495 8.34058 107.296 7.69604 106.898 7.30933C106.511 6.91089 105.878 6.71167 104.999 6.71167C104.179 6.71167 103.523 6.98706 103.031 7.53784C102.55 8.08862 102.31 9.14331 102.31 10.7019V16.6082C102.31 18.1316 102.603 19.198 103.189 19.8074C103.775 20.4167 104.548 20.7214 105.509 20.7214C105.966 20.7214 106.347 20.6687 106.652 20.5632C106.968 20.4578 107.284 20.282 107.601 20.0359V17.698H105.193V11.7917L116.179 11.7742V22.8132C115.312 23.7742 113.999 24.6882 112.242 25.5554C110.495 26.4109 108.228 26.8386 105.439 26.8386C101.654 26.8386 98.636 25.8132 96.386 23.7625C94.1478 21.7 93.0286 18.5593 93.0286 14.3406ZM117.534 26.3992V0.80542H126.482V19.614H135.904V26.3992H117.534ZM136.24 14.3406V12.864C136.24 8.59839 137.376 5.4519 139.65 3.42456C141.923 1.3855 144.829 0.365967 148.368 0.365967C151.908 0.365967 154.82 1.3855 157.105 3.42456C159.402 5.4519 160.55 8.59839 160.55 12.864V14.3406C160.55 18.6062 159.402 21.7585 157.105 23.7976C154.82 25.825 151.908 26.8386 148.368 26.8386C144.829 26.8386 141.923 25.825 139.65 23.7976C137.376 21.7585 136.24 18.6062 136.24 14.3406ZM145.556 16.6609C145.556 18.196 145.796 19.2683 146.277 19.8777C146.769 20.4753 147.466 20.7742 148.368 20.7742C149.283 20.7742 149.986 20.4753 150.478 19.8777C150.982 19.2683 151.234 18.196 151.234 16.6609V10.5964C151.234 9.073 150.982 8.01245 150.478 7.41479C149.986 6.81714 149.283 6.51831 148.368 6.51831C147.466 6.51831 146.769 6.81714 146.277 7.41479C145.796 8.01245 145.556 9.073 145.556 10.5964V16.6609ZM162.117 26.3992V0.80542H174.544C177.556 0.80542 179.794 1.39136 181.259 2.56323C182.736 3.72339 183.474 5.34644 183.474 7.43237C183.474 8.86206 183.169 10.0457 182.56 10.9832C181.962 11.9089 181.177 12.5476 180.204 12.8992V12.9695C181.388 13.2742 182.39 13.9246 183.21 14.9207C184.031 15.905 184.441 17.2878 184.441 19.0691C184.441 21.366 183.579 23.1648 181.857 24.4656C180.134 25.7546 177.814 26.3992 174.896 26.3992H162.117ZM170.87 20.739H173.156C173.917 20.739 174.486 20.5105 174.861 20.0535C175.236 19.5964 175.423 18.9871 175.423 18.2253C175.423 17.4871 175.236 16.8894 174.861 16.4324C174.486 15.9753 173.917 15.7468 173.156 15.7468H170.87V20.739ZM170.87 11.1765H172.874C173.589 11.1765 174.105 10.9832 174.421 10.5964C174.738 10.198 174.896 9.64136 174.896 8.92651C174.896 8.21167 174.738 7.66089 174.421 7.27417C174.105 6.87573 173.589 6.67651 172.874 6.67651H170.87V11.1765ZM183.212 26.3992L192.195 0.770264H201.986L210.968 26.3992H201.827L197.099 11.5984C196.97 11.1648 196.87 10.7664 196.8 10.4031C196.73 10.0398 196.677 9.75269 196.642 9.54175H196.554C196.531 9.75269 196.478 10.0398 196.396 10.4031C196.326 10.7664 196.226 11.1648 196.097 11.5984L191.597 26.3992H183.212ZM189.663 22.6902L190.982 16.8191H202.618L204.007 22.6902H189.663ZM210.917 26.3992V0.80542H219.865V19.614H229.286V26.3992H210.917ZM237.077 7.59058V0.80542H259.191V7.59058H252.669V26.3992H243.634V7.59058H237.077ZM260.089 26.3992V0.80542H272.411C275.318 0.80542 277.656 1.57886 279.425 3.12573C281.206 4.66089 282.097 6.79956 282.097 9.54175C282.097 12.366 281.159 14.5984 279.284 16.239C277.421 17.8796 275.101 18.7 272.324 18.7H269.036V26.3992H260.089ZM269.036 12.9167H270.759C271.591 12.9167 272.183 12.6648 272.534 12.1609C272.898 11.6453 273.085 10.9128 273.097 9.96362C273.097 9.0144 272.915 8.28198 272.552 7.76636C272.189 7.25073 271.591 6.99292 270.759 6.99292H269.036V12.9167ZM273.378 26.3992L268.896 15.3074L277.333 13.7781L283.187 26.3992H273.378ZM281.079 26.3992L290.062 0.770264H299.853L308.835 26.3992H299.695L294.966 11.5984C294.837 11.1648 294.738 10.7664 294.667 10.4031C294.597 10.0398 294.544 9.75269 294.509 9.54175H294.421C294.398 9.75269 294.345 10.0398 294.263 10.4031C294.193 10.7664 294.093 11.1648 293.964 11.5984L289.464 26.3992H281.079ZM287.531 22.6902L288.849 16.8191H300.486L301.874 22.6902H287.531ZM308.784 26.3992V0.80542H317.908L322.337 11.4226C322.478 11.7976 322.607 12.1785 322.724 12.5652C322.841 12.9519 322.947 13.3503 323.04 13.7605H323.163C323.14 13.3503 323.128 12.9695 323.128 12.6179C323.14 12.2664 323.146 11.8796 323.146 11.4578V0.80542H330.546V26.3992H321.441L316.923 15.8347C316.771 15.4714 316.642 15.1023 316.536 14.7273C316.431 14.3523 316.331 13.9656 316.238 13.5671H316.115C316.15 13.9773 316.167 14.3464 316.167 14.6746C316.179 14.991 316.185 15.366 316.185 15.7996V26.3992H308.784ZM331.62 19.2273V18.032H340.111V18.6296C340.099 19.4031 340.31 19.9832 340.743 20.3699C341.177 20.7566 341.775 20.95 342.536 20.95C343.251 20.95 343.802 20.8093 344.189 20.5281C344.587 20.2468 344.786 19.8601 344.786 19.3679C344.786 18.7585 344.593 18.3074 344.206 18.0144C343.82 17.7097 342.56 17.2761 340.427 16.7136C337.743 15.9753 335.64 14.9851 334.117 13.7429C332.605 12.489 331.843 10.7312 331.831 8.46948C331.831 5.86792 332.804 3.86987 334.749 2.47534C336.695 1.08081 339.22 0.383545 342.326 0.383545C345.443 0.383545 347.974 1.03394 349.919 2.33472C351.865 3.62378 352.837 5.44019 352.837 7.78394V8.82104H344.54V8.34644C344.54 7.74878 344.365 7.28003 344.013 6.94019C343.661 6.58862 343.146 6.41284 342.466 6.41284C341.775 6.41284 341.271 6.53589 340.954 6.78198C340.65 7.01636 340.497 7.33276 340.497 7.7312C340.497 8.17651 340.697 8.49878 341.095 8.698C341.493 8.8855 342.835 9.27808 345.12 9.87573C347.605 10.5203 349.603 11.4812 351.115 12.7585C352.638 14.0242 353.406 15.905 353.417 18.4011C353.417 21.1785 352.415 23.282 350.411 24.7117C348.408 26.1296 345.818 26.8386 342.642 26.8386C339.49 26.8386 336.865 26.2058 334.767 24.9402C332.669 23.6746 331.62 21.7703 331.62 19.2273ZM354.597 26.3992V0.80542H372.966V7.573H363.544V11.1941H371.788V17.4871H363.544V26.3992H354.597ZM374.093 26.3992V0.80542H393.359V7.59058H382.742V10.4031H391.865V16.5203H382.742V19.8074H393.622V26.3992H374.093ZM394.96 26.3992V0.80542H407.283C410.189 0.80542 412.527 1.57886 414.296 3.12573C416.077 4.66089 416.968 6.79956 416.968 9.54175C416.968 12.366 416.031 14.5984 414.156 16.239C412.292 17.8796 409.972 18.7 407.195 18.7H403.908V26.3992H394.96ZM403.908 12.9167H405.63C406.462 12.9167 407.054 12.6648 407.406 12.1609C407.769 11.6453 407.956 10.9128 407.968 9.96362C407.968 9.0144 407.786 8.28198 407.423 7.76636C407.06 7.25073 406.462 6.99292 405.63 6.99292H403.908V12.9167ZM408.249 26.3992L403.767 15.3074L412.204 13.7781L418.058 26.3992H408.249ZM417.163 19.2273V18.032H425.654V18.6296C425.642 19.4031 425.853 19.9832 426.286 20.3699C426.72 20.7566 427.318 20.95 428.079 20.95C428.794 20.95 429.345 20.8093 429.732 20.5281C430.13 20.2468 430.329 19.8601 430.329 19.3679C430.329 18.7585 430.136 18.3074 429.749 18.0144C429.363 17.7097 428.103 17.2761 425.97 16.7136C423.286 15.9753 421.183 14.9851 419.659 13.7429C418.148 12.489 417.386 10.7312 417.374 8.46948C417.374 5.86792 418.347 3.86987 420.292 2.47534C422.238 1.08081 424.763 0.383545 427.868 0.383545C430.986 0.383545 433.517 1.03394 435.462 2.33472C437.408 3.62378 438.38 5.44019 438.38 7.78394V8.82104H430.083V8.34644C430.083 7.74878 429.908 7.28003 429.556 6.94019C429.204 6.58862 428.689 6.41284 428.009 6.41284C427.318 6.41284 426.814 6.53589 426.497 6.78198C426.193 7.01636 426.04 7.33276 426.04 7.7312C426.04 8.17651 426.24 8.49878 426.638 8.698C427.036 8.8855 428.378 9.27808 430.663 9.87573C433.148 10.5203 435.146 11.4812 436.658 12.7585C438.181 14.0242 438.949 15.905 438.96 18.4011C438.96 21.1785 437.958 23.282 435.954 24.7117C433.951 26.1296 431.361 26.8386 428.185 26.8386C425.033 26.8386 422.408 26.2058 420.31 24.9402C418.212 23.6746 417.163 21.7703 417.163 19.2273Z" fill="black"/>
</svg>
