<svg width="387" height="27" viewBox="0 0 387 27" fill="none" xmlns="http://www.w3.org/2000/svg">
<path d="M0.407471 14.3406V12.864C0.407471 8.64526 1.52661 5.5105 3.76489 3.45972C6.01489 1.39722 9.02075 0.365967 12.7825 0.365967C16.1809 0.365967 18.8293 1.1394 20.7278 2.68628C22.6379 4.23315 23.552 6.28394 23.47 8.83862V9.5769H14.8743V9.24292C14.8743 8.34058 14.675 7.69604 14.2766 7.30933C13.8899 6.91089 13.2571 6.71167 12.3782 6.71167C11.5579 6.71167 10.9016 6.98706 10.4094 7.53784C9.92896 8.08862 9.68872 9.14331 9.68872 10.7019V16.6082C9.68872 18.1316 9.98169 19.198 10.5676 19.8074C11.1536 20.4167 11.927 20.7214 12.8879 20.7214C13.345 20.7214 13.7258 20.6687 14.0305 20.5632C14.3469 20.4578 14.6633 20.282 14.9797 20.0359V17.698H12.5715V11.7917L23.5579 11.7742V22.8132C22.6907 23.7742 21.3782 24.6882 19.6204 25.5554C17.8743 26.4109 15.6067 26.8386 12.8176 26.8386C9.03247 26.8386 6.01489 25.8132 3.76489 23.7625C1.52661 21.7 0.407471 18.5593 0.407471 14.3406ZM24.9133 26.3992V0.80542H44.179V7.59058H33.5618V10.4031H42.6848V16.5203H33.5618V19.8074H44.4426V26.3992H24.9133ZM44.7258 7.59058V0.80542H66.8391V7.59058H60.3176V26.3992H51.2825V7.59058H44.7258ZM75.843 26.3992V0.80542H88.675C91.6516 0.80542 93.9543 1.61987 95.5833 3.24878C97.2122 4.86597 98.0266 7.15112 98.0266 10.1042C98.0266 13.0574 97.2297 15.3425 95.636 16.9597C94.0422 18.5769 91.6809 19.3855 88.552 19.3855H84.7903V26.3992H75.843ZM84.7903 13.4089H86.7063C87.6204 13.4089 88.2473 13.1394 88.5872 12.6003C88.927 12.0613 89.0969 11.2761 89.0969 10.2449C89.0969 9.2019 88.927 8.41675 88.5872 7.8894C88.2473 7.36206 87.6204 7.09839 86.7063 7.09839H84.7903V13.4089ZM95.427 26.3992L104.409 0.770264H114.2L123.183 26.3992H114.042L109.314 11.5984C109.185 11.1648 109.085 10.7664 109.015 10.4031C108.945 10.0398 108.892 9.75269 108.857 9.54175H108.769C108.745 9.75269 108.693 10.0398 108.611 10.4031C108.54 10.7664 108.441 11.1648 108.312 11.5984L103.812 26.3992H95.427ZM101.878 22.6902L103.197 16.8191H114.833L116.222 22.6902H101.878ZM123.062 26.3992V0.80542H132.097V26.3992H123.062ZM134.226 26.3992V0.80542H145.107C148.646 0.80542 151.499 1.84253 153.667 3.91675C155.847 5.99097 156.937 8.95581 156.937 12.8113V14.3054C156.937 18.1492 155.841 21.1257 153.65 23.2351C151.458 25.3445 148.611 26.3992 145.107 26.3992H134.226ZM142.98 20.3347H144.386C145.417 20.3347 146.255 19.9539 146.9 19.1921C147.544 18.4187 147.866 17.1179 147.866 15.2898V11.95C147.866 10.0984 147.55 8.82104 146.917 8.11792C146.284 7.41479 145.441 7.06323 144.386 7.06323H142.98V20.3347ZM171.548 26.3992L165.501 0.80542H174.167L177.085 14.2351C177.144 14.4929 177.185 14.7214 177.208 14.9207C177.243 15.1082 177.273 15.3484 177.296 15.6414H177.402C177.437 15.3484 177.466 15.1082 177.49 14.9207C177.525 14.7214 177.566 14.4929 177.613 14.2351L180.689 0.80542H189.284L192.501 14.2C192.56 14.4695 192.601 14.7039 192.624 14.9031C192.648 15.0906 192.677 15.3367 192.712 15.6414H192.818C192.853 15.3367 192.882 15.0906 192.906 14.9031C192.941 14.7039 192.982 14.4695 193.029 14.2L195.736 0.80542H203.47L197.564 26.3992H188.195L184.837 13.198C184.779 12.9519 184.732 12.7175 184.697 12.4949C184.661 12.2605 184.632 11.9968 184.609 11.7039H184.503C184.48 11.9968 184.45 12.2605 184.415 12.4949C184.38 12.7175 184.333 12.9519 184.275 13.198L180.917 26.3992H171.548ZM202.716 14.3406V12.864C202.716 8.59839 203.853 5.4519 206.126 3.42456C208.4 1.3855 211.306 0.365967 214.845 0.365967C218.384 0.365967 221.296 1.3855 223.581 3.42456C225.878 5.4519 227.027 8.59839 227.027 12.864V14.3406C227.027 18.6062 225.878 21.7585 223.581 23.7976C221.296 25.825 218.384 26.8386 214.845 26.8386C211.306 26.8386 208.4 25.825 206.126 23.7976C203.853 21.7585 202.716 18.6062 202.716 14.3406ZM212.032 16.6609C212.032 18.196 212.273 19.2683 212.753 19.8777C213.245 20.4753 213.943 20.7742 214.845 20.7742C215.759 20.7742 216.462 20.4753 216.954 19.8777C217.458 19.2683 217.71 18.196 217.71 16.6609V10.5964C217.71 9.073 217.458 8.01245 216.954 7.41479C216.462 6.81714 215.759 6.51831 214.845 6.51831C213.943 6.51831 213.245 6.81714 212.753 7.41479C212.273 8.01245 212.032 9.073 212.032 10.5964V16.6609ZM228.593 26.3992V0.80542H240.915C243.822 0.80542 246.159 1.57886 247.929 3.12573C249.71 4.66089 250.601 6.79956 250.601 9.54175C250.601 12.366 249.663 14.5984 247.788 16.239C245.925 17.8796 243.605 18.7 240.827 18.7H237.54V26.3992H228.593ZM237.54 12.9167H239.263C240.095 12.9167 240.687 12.6648 241.038 12.1609C241.402 11.6453 241.589 10.9128 241.601 9.96362C241.601 9.0144 241.419 8.28198 241.056 7.76636C240.693 7.25073 240.095 6.99292 239.263 6.99292H237.54V12.9167ZM241.882 26.3992L237.4 15.3074L245.837 13.7781L251.691 26.3992H241.882ZM252.027 26.3992V0.80542H260.974V19.614H270.396V26.3992H252.027ZM271.382 26.3992V0.80542H282.263C285.802 0.80542 288.656 1.84253 290.823 3.91675C293.003 5.99097 294.093 8.95581 294.093 12.8113V14.3054C294.093 18.1492 292.997 21.1257 290.806 23.2351C288.615 25.3445 285.767 26.3992 282.263 26.3992H271.382ZM280.136 20.3347H281.542C282.573 20.3347 283.411 19.9539 284.056 19.1921C284.7 18.4187 285.023 17.1179 285.023 15.2898V11.95C285.023 10.0984 284.706 8.82104 284.073 8.11792C283.441 7.41479 282.597 7.06323 281.542 7.06323H280.136V20.3347ZM299.404 26.3992L293.357 0.80542H302.023L304.941 14.2351C304.999 14.4929 305.04 14.7214 305.064 14.9207C305.099 15.1082 305.128 15.3484 305.152 15.6414H305.257C305.292 15.3484 305.322 15.1082 305.345 14.9207C305.38 14.7214 305.421 14.4929 305.468 14.2351L308.544 0.80542H317.14L320.357 14.2C320.415 14.4695 320.456 14.7039 320.48 14.9031C320.503 15.0906 320.532 15.3367 320.568 15.6414H320.673C320.708 15.3367 320.738 15.0906 320.761 14.9031C320.796 14.7039 320.837 14.4695 320.884 14.2L323.591 0.80542H331.325L325.419 26.3992H316.05L312.693 13.198C312.634 12.9519 312.587 12.7175 312.552 12.4949C312.517 12.2605 312.488 11.9968 312.464 11.7039H312.359C312.335 11.9968 312.306 12.2605 312.271 12.4949C312.236 12.7175 312.189 12.9519 312.13 13.198L308.773 26.3992H299.404ZM331.855 26.3992V0.80542H340.89V26.3992H331.855ZM343.019 26.3992V0.80542H353.9C357.439 0.80542 360.292 1.84253 362.46 3.91675C364.64 5.99097 365.73 8.95581 365.73 12.8113V14.3054C365.73 18.1492 364.634 21.1257 362.443 23.2351C360.251 25.3445 357.404 26.3992 353.9 26.3992H343.019ZM351.773 20.3347H353.179C354.21 20.3347 355.048 19.9539 355.693 19.1921C356.337 18.4187 356.659 17.1179 356.659 15.2898V11.95C356.659 10.0984 356.343 8.82104 355.71 8.11792C355.077 7.41479 354.234 7.06323 353.179 7.06323H351.773V20.3347ZM367.296 26.3992V0.80542H386.562V7.59058H375.945V10.4031H385.068V16.5203H375.945V19.8074H386.825V26.3992H367.296Z" fill="black"/>
</svg>
