<?xml version="1.0" encoding="utf-8"?>
<!-- Generator: Adobe Illustrator 27.5.0, SVG Export Plug-In . SVG Version: 6.00 Build 0)  -->
<svg version="1.1" id="Layer_1" xmlns="http://www.w3.org/2000/svg" xmlns:xlink="http://www.w3.org/1999/xlink" x="0px" y="0px"
	 viewBox="0 0 1000 1000" style="enable-background:new 0 0 1000 1000;" xml:space="preserve">
<style type="text/css">
	.st0{fill:#F6D4E2;}
	.st1{fill:#3768A3;}
	.st2{fill:#DD5846;}
	.st3{fill:#E1FFAE;}
	.st4{fill:#E4E8EF;}
	.st5{fill:#0040F4;}
	.st6{fill:#F4EFCE;}
	.st7{fill:#F7313D;}
	.st8{fill:#F9F09B;}
	.st9{fill:#F9C785;}
	.st10{fill:#7C63E5;}
	.st11{fill:#E5B9FF;}
	.st12{fill:#FCFAC0;}
	.st13{fill:#1209C8;}
	.st14{fill:#FFE771;}
	.st15{fill:#4B4BEF;}
	.st16{fill:#3FA57C;}
	.st17{fill:#FCFAF8;}
	.st18{fill:#393856;}
	.st19{fill:#EAF3FF;}
	.st20{fill:#466FDB;}
	.st21{fill:#EF9ECA;}
	.st22{fill:#EA3338;}
	.st23{fill:#FCCB3F;}
	.st24{fill:#EE571E;}
	.st25{fill:#FCF1D5;}
	.st26{fill:#68459B;}
	.st27{fill:#F84234;}
	.st28{fill:#FFDFD8;}
	.st29{fill:#FF7841;}
	.st30{fill:#FFFA1C;}
	.st31{fill:#DCF7F9;}
	.st32{fill:#1379C8;}
	.st33{fill:#F4F47D;}
	.st34{fill:#FF4C37;}
	.st35{fill:#FB4B33;}
	.st36{fill:#FFD8CB;}
	.st37{fill:#5746F9;}
	.st38{fill:#F9F3C7;}
	.st39{fill:#FFEE99;}
	.st40{fill:#1CACE4;}
	.st41{fill:#2C27A8;}
	.st42{fill:#C5E6EF;}
	.st43{fill:#FF3D66;}
	.st44{fill:#FFFF3D;}
	.st45{fill:#FFFDF4;}
	.st46{fill:#FFCAC1;}
	.st47{fill:#FF9408;}
	.st48{fill:#FFEF79;}
	.st49{fill:#FFC50B;}
	.st50{fill:#FFECE9;}
	.st51{fill:#383838;}
	.st52{fill:#0042F7;}
	.st53{fill:#FFFFFF;}
	.st54{fill:#6D525A;}
	.st55{fill:#EDE972;}
	.st56{fill:#886CC4;}
	.st57{fill:#FF4631;}
	.st58{fill:#FFA99E;}
	.st59{fill:#F64236;}
	.st60{fill:#F993C9;}
	.st61{fill:#265ADD;}
	.st62{fill:#1E56C6;}
	.st63{fill:#F8FCAE;}
	.st64{fill:#EC3A38;}
	.st65{fill:#FFE35A;}
	.st66{fill:#3E6FD5;}
	.st67{fill:#E2C8FC;}
	.st68{fill:#E9F98F;}
	.st69{fill:#F4A664;}
	.st70{fill:#F2B76D;}
	.st71{fill:#F0C775;}
	.st72{fill:#EDD87E;}
	.st73{fill:#EBE886;}
	.st74{fill:#FFDA64;}
	.st75{fill:#7286F7;}
	.st76{fill:#EED8EE;}
	.st77{fill:#34949D;}
	.st78{fill:#FFCDE7;}
	.st79{fill:#E344A1;}
	.st80{fill:#F9DDFD;}
	.st81{fill:#FF9CB9;}
	.st82{fill:#F43E6A;}
	.st83{fill:#FFC0D4;}
	.st84{fill:#DBC1FE;}
	.st85{fill:#733FC5;}
	.st86{fill:#346397;}
	.st87{fill:#F13830;}
	.st88{fill:#F4BABA;}
	.st89{fill:#491313;}
	.st90{fill:#E2346C;}
	.st91{fill:#FFDCFB;}
	.st92{fill:#376CB2;}
	.st93{fill:#8867CE;}
	.st94{fill:#F19EF8;}
	.st95{fill:#F7D4FC;}
</style>
<g>
	<path class="st52" d="M274.94,746.66c-17.85,0-32.37-14.52-32.37-32.37V464.47c0-17.85,14.52-32.37,32.37-32.37h94.61v-48.32
		c0-71.93,58.52-130.44,130.44-130.44s130.44,58.52,130.44,130.44v48.32h94.61c17.85,0,32.37,14.52,32.37,32.37v249.81
		c0,17.85-14.52,32.37-32.37,32.37H274.94z"/>
	<path class="st53" d="M725.06,448.94H622.48c-4.9,0-8.87-3.97-8.87-8.87v-56.28c0-62.75-50.86-113.61-113.61-113.61h0
		c-62.75,0-113.61,50.87-113.61,113.61v56.28c0,4.9-3.97,8.87-8.87,8.87H274.94c-8.58,0-15.53,6.96-15.53,15.53v249.81
		c0,8.58,6.96,15.53,15.53,15.53h450.11c8.58,0,15.53-6.96,15.53-15.53V464.47C740.59,455.89,733.64,448.94,725.06,448.94z"/>
	<g>
		<path class="st52" d="M447.71,441.58c-4.67-10.18-8.42-19.88-7.55-31.29c0.44-5.76-3.15-11.73,0.33-17.8
			c2.99-5.23,6.89-9.06,12.49-11.54c9.94-4.39,20.38-6.62,32.2-8.2c-7.01-7.59-11.53-15.93-16.02-24.31
			c-7.47-13.92-5.06-28.2,6.12-36.12c8.92-6.32,25.06-3.27,30.71,6.23c4.76,8,7.69,16.78,8.41,26.14
			c1.04,13.35,9.01,21.26,20.02,27.62c12.86,7.44,27.61,16.61,26.57,32.37c-1.1,16.7,2.06,35.15-9.45,50.36
			c-9.76,12.89-26.08,16.45-40.05,8.03c-2.64-1.59-4.34-1.76-7.19-0.11c-14.34,8.28-39.5,1.86-48.02-12.24
			C454.08,447.07,450.32,445.24,447.71,441.58z M506.46,331.23c-0.63-2.03-1.12-4.11-1.91-6.07c-3.56-8.77-13.82-13.94-22.2-11.27
			c-8.95,2.85-15.21,13.51-12.54,22.6c4.03,13.72,11.38,25.59,21.66,35.59c1.44,1.41,3.64,2.3,3.44,4.8
			c-1.31,1.56-2.94,1.07-4.42,0.95c-13.12-1.07-25.2,2.89-36.94,7.95c-11.16,4.81-13.9,16.4-6.1,24.36
			c12.29,12.56,42.73,6.23,48.76-10.19c1.52-4.15-0.32-7.24-4.07-9.05c-3.97-1.91-8.12-1.97-12.43-0.77
			c-1.96,0.54-4.13,2.63-6.61,0.07c2.89-7.05,9.16-4.94,14.29-5.02c10.27-0.16,15.33,6.35,13.02,16.19
			c-0.25,1.07-0.74,3.03-0.49,3.15c7.14,3.17,3.36,14.14,12.78,16.62c5.19,1.37,7.64,25.21,4.53,30.61
			c-1.28,2.23-3.83,3.9-3.55,6.88c11.92,8.12,21.85,4.54,29.9-2.02c9.22-7.51,13.12-20.4,9.72-27.97
			c-3.82,2.18-7.58,4.48-11.49,6.49c-1.8,0.92-4.01,1.09-4.75-1.47c-0.64-2.22,1.01-2.75,2.89-3.35
			c15.17-4.83,22.2-20.39,14.36-33.94c-4.5-7.79-11.41-14.29-19.55-18.51c-14.31-7.41-24.05-17.68-25.37-34.54
			C509.09,339.54,507.7,335.84,506.46,331.23z M465.43,433.86c9.16,2.18,17.7-0.5,25.73-4.24c5.07-2.36,8.54-7.04,9.76-12.86
			c0.57-2.7-0.34-5.12-2.47-6.65c-2.4-1.72-3.84,0.81-5.4,1.99c-10.32,7.81-21.5,11.09-34.55,8.26c-4.86-1.06-9.18-3.17-14.32-5.66
			c0.16,2.39,0.09,3.69,0.36,4.92C446.9,430.39,456.6,430.78,465.43,433.86z M453.4,435.37c-1.35-0.58-2.69-1.15-4.42-1.89
			c1.61,5.15,4.43,8.38,9.07,10.31c12.93,5.4,25.86,4.84,38.96,0.78c6-1.86,10.75-5.17,13.7-10.73c1.91-3.6,1.92-7.37-1.69-9.83
			c-3.49-2.38-6.01-0.3-8.12,2.78c-3.24,4.73-7.6,7.5-13.27,9.46C476.19,440.22,465.27,439.1,453.4,435.37z M478.97,452.07
			c-5.47-0.42-10.94-0.85-16.5-1.28c0.74,3.06,2.48,4.82,5.04,6.17c11.76,6.2,23.8,5.64,35.78,1.19c5.37-2,9.24-6.22,11.51-11.61
			c0.68-1.61,0.84-3.46-0.6-4.88c-1.45-1.43-2.85-0.77-4.05,0.43C501.78,450.43,490.87,451.08,478.97,452.07z"/>
		<path class="st52" d="M528.93,423.97c0.33-0.08,2.53-0.79,0.88-3.02c-2.47-2.25-4.45-4.07-6.55-6.02
			c-2.55-4.31-4.71-8.33-5.31-13.02c-0.2-1.57-0.42-3.99-2.8-3.57c-2.63,0.46-2.18,2.84-1.69,4.68c1,3.7,1.57,7.72,3.47,10.92
			C519.53,418.28,522.41,422.81,528.93,423.97z"/>
	</g>
	<g>
		<path class="st52" d="M389.81,543.29c-0.2,6.36-1.79,12.15-4.77,17.35c-2.98,5.2-7.29,9.34-12.93,12.42
			c-5.64,3.08-12.37,4.62-20.18,4.62c-8.01,0-15.24-1.57-21.69-4.72c-6.45-3.15-11.51-7.7-15.2-13.66
			c-3.69-5.96-5.53-12.96-5.53-21.01c0-8.08,1.87-15.09,5.6-21.03c3.74-5.94,8.88-10.49,15.43-13.64c6.55-3.15,13.98-4.72,22.3-4.72
			c7.81,0,14.73,1.25,20.76,3.74c6.03,2.49,10.87,5.97,14.52,10.43c3.65,4.46,5.97,9.57,6.94,15.33h-17.32
			c-0.71-3.06-2.18-5.71-4.42-7.95c-2.24-2.24-5.12-3.96-8.64-5.15c-3.52-1.19-7.47-1.79-11.84-1.79c-5.35,0-9.97,0.96-13.86,2.88
			c-3.89,1.92-6.89,4.74-9.01,8.46c-2.12,3.72-3.18,8.21-3.18,13.46c0,5.32,1.12,9.87,3.36,13.64c2.24,3.77,5.41,6.64,9.52,8.61
			c4.11,1.97,8.97,2.95,14.59,2.95c5.39,0,10.15-0.85,14.29-2.55c4.14-1.7,7.41-4.13,9.8-7.3c2.39-3.16,3.72-6.87,3.99-11.11
			L389.81,543.29z M356.58,550.36v-12.42h39.24v38.23h-12.37l-2.27-30.7l3.54,4.9H356.58z"/>
		<path class="st52" d="M452.58,577.68c-8.69,0-16.38-1.64-23.08-4.92c-6.7-3.28-11.89-7.9-15.58-13.86
			c-3.69-5.96-5.53-12.83-5.53-20.6s1.84-14.65,5.53-20.6c3.69-5.96,8.88-10.58,15.58-13.86c6.7-3.28,14.39-4.92,23.08-4.92
			c8.72,0,16.43,1.64,23.13,4.92c6.7,3.28,11.89,7.9,15.58,13.86c3.69,5.96,5.53,12.83,5.53,20.6s-1.84,14.65-5.53,20.6
			c-3.69,5.96-8.88,10.58-15.58,13.86C469.01,576.04,461.3,577.68,452.58,577.68z M452.58,562.38c5.49,0,10.25-0.98,14.29-2.93
			s7.15-4.74,9.32-8.36c2.17-3.62,3.26-7.89,3.26-12.8c0-4.92-1.09-9.18-3.26-12.8c-2.17-3.62-5.28-6.41-9.32-8.36
			c-4.04-1.95-8.8-2.93-14.29-2.93c-5.45,0-10.2,0.98-14.24,2.93c-4.04,1.95-7.15,4.74-9.34,8.36c-2.19,3.62-3.28,7.89-3.28,12.8
			c0,4.92,1.09,9.18,3.28,12.8c2.19,3.62,5.3,6.41,9.34,8.36C442.38,561.4,447.12,562.38,452.58,562.38z"/>
		<path class="st52" d="M551.71,577.68c-8.69,0-16.38-1.64-23.08-4.92c-6.7-3.28-11.89-7.9-15.58-13.86
			c-3.69-5.96-5.53-12.83-5.53-20.6s1.84-14.65,5.53-20.6c3.69-5.96,8.88-10.58,15.58-13.86c6.7-3.28,14.39-4.92,23.08-4.92
			c8.72,0,16.43,1.64,23.13,4.92c6.7,3.28,11.89,7.9,15.58,13.86c3.69,5.96,5.53,12.83,5.53,20.6s-1.84,14.65-5.53,20.6
			c-3.69,5.96-8.88,10.58-15.58,13.86C568.14,576.04,560.43,577.68,551.71,577.68z M551.71,562.38c5.49,0,10.25-0.98,14.29-2.93
			c4.04-1.95,7.15-4.74,9.32-8.36c2.17-3.62,3.26-7.89,3.26-12.8c0-4.92-1.09-9.18-3.26-12.8c-2.17-3.62-5.28-6.41-9.32-8.36
			c-4.04-1.95-8.8-2.93-14.29-2.93c-5.45,0-10.2,0.98-14.24,2.93c-4.04,1.95-7.15,4.74-9.34,8.36c-2.19,3.62-3.28,7.89-3.28,12.8
			c0,4.92,1.09,9.18,3.28,12.8c2.19,3.62,5.3,6.41,9.34,8.36C541.51,561.4,546.26,562.38,551.71,562.38z"/>
		<path class="st52" d="M646.35,500.41c8.72,0,16.42,1.57,23.1,4.72c6.68,3.15,11.86,7.58,15.53,13.31
			c3.67,5.72,5.51,12.34,5.51,19.85c0,7.51-1.84,14.12-5.51,19.85c-3.67,5.72-8.85,10.16-15.53,13.31
			c-6.68,3.15-14.39,4.72-23.1,4.72h-36.01v-75.75H646.35z M627.41,569.45l-8.69-8.43h28.89c5.08,0,9.56-0.93,13.43-2.8
			c3.87-1.87,6.86-4.52,8.96-7.95s3.16-7.42,3.16-11.97s-1.05-8.53-3.16-11.97s-5.09-6.09-8.96-7.95c-3.87-1.87-8.35-2.8-13.43-2.8
			h-28.89l8.69-8.43V569.45z"/>
		<path class="st52" d="M312.32,600.53h17.12v75.75h-17.12V600.53z"/>
		<path class="st52" d="M383.53,600.53c8.72,0,16.42,1.57,23.1,4.72c6.68,3.15,11.86,7.58,15.53,13.31
			c3.67,5.72,5.51,12.34,5.51,19.85c0,7.51-1.84,14.12-5.51,19.85c-3.67,5.72-8.85,10.16-15.53,13.31
			c-6.68,3.15-14.39,4.72-23.1,4.72h-36.01v-75.75H383.53z M364.59,669.57l-8.69-8.43h28.89c5.08,0,9.56-0.93,13.43-2.8
			c3.87-1.87,6.86-4.52,8.96-7.95c2.1-3.43,3.16-7.42,3.16-11.97c0-4.55-1.05-8.53-3.16-11.97c-2.1-3.43-5.09-6.09-8.96-7.95
			c-3.87-1.87-8.35-2.8-13.43-2.8H355.9l8.69-8.43V669.57z"/>
		<path class="st52" d="M456.04,670.53l-7.42-8.48h142.23v14.24H438.77v-75.75h151.57v14.24H448.62l7.42-8.48V670.53z
			 M587.72,631.84v13.13H449.68v-13.13H587.72z"/>
		<path class="st52" d="M655.09,600.53l35.4,75.75h-18.28l-30.96-68.78h5.61l-31.01,68.78h-18.28l35.4-75.75H655.09z M617.36,660.32
			v-13.94h52.57v13.94H617.36z"/>
	</g>
</g>
</svg>
