<svg width="46" height="50" viewBox="0 0 46 50" fill="none" xmlns="http://www.w3.org/2000/svg">
<path d="M2.59111 33.8002C0.423351 37.091 2.85399 42.5175 8.02 45.9206C13.186 49.3237 19.1313 49.4147 21.2991 46.1239C23.4668 42.8329 21.0362 37.4064 15.8702 34.0033C10.7042 30.6004 4.75887 30.5094 2.59111 33.8002Z" fill="white"/>
<path d="M2.59111 33.8002C0.423351 37.091 2.85399 42.5175 8.02 45.9206C13.186 49.3237 19.1313 49.4147 21.2991 46.1239C23.4668 42.8329 21.0362 37.4064 15.8702 34.0033C10.7042 30.6004 4.75887 30.5094 2.59111 33.8002Z" stroke="black" stroke-width="1.82012" stroke-miterlimit="10" stroke-linecap="round"/>
<path d="M7.74215 36.0552C6.70624 33.7345 6.29463 31.0563 6.6987 28.2963C7.77179 20.9651 14.1939 15.8344 21.043 16.8371C27.8919 17.8394 32.5743 24.5954 31.5012 31.9269C30.4278 39.258 24.0057 44.3887 17.1568 43.3861" fill="white"/>
<path d="M7.74215 36.0552C6.70624 33.7345 6.29463 31.0563 6.6987 28.2963C7.77179 20.9651 14.1939 15.8344 21.043 16.8371C27.8919 17.8394 32.5743 24.5954 31.5012 31.9269C30.4278 39.258 24.0057 44.3887 17.1568 43.3861" stroke="black" stroke-width="1.82012" stroke-miterlimit="10" stroke-linecap="round"/>
<path d="M14.8217 17.5999C14.8217 17.5999 21.4557 14.8419 21.6637 7.17348C21.8717 -0.494677 33.8101 -0.899004 28.3477 14.4233L25.4215 21.238" fill="white"/>
<path d="M14.8217 17.5999C14.8217 17.5999 21.4557 14.8419 21.6637 7.17347C21.8717 -0.494677 33.8101 -0.899003 28.3477 14.4233L25.4215 21.238" stroke="black" stroke-width="1.82012" stroke-miterlimit="10" stroke-linecap="round"/>
<path d="M21.193 20.6183C21.193 20.6183 29.5151 15.9476 31.5866 6.92629C33.6579 -2.09498 47.7919 0.271948 37.7186 17.095L30.5692 25.9148" fill="white"/>
<path d="M21.193 20.6183C21.193 20.6183 29.5151 15.9476 31.5866 6.92629C33.6579 -2.09498 47.7919 0.271947 37.7186 17.095L30.5692 25.9148" stroke="black" stroke-width="1.82012" stroke-miterlimit="10" stroke-linecap="round"/>
<path d="M25.8566 23.4362C25.8566 23.4362 32.6368 14.0813 38.0264 15.2605C46.9897 17.2213 45.8115 28.0952 42.1796 29.7796C38.5477 31.464 36.887 25.9888 36.9265 24.4557L31.028 29.0632" fill="white"/>
<path d="M25.8566 23.4362C25.8566 23.4362 32.6368 14.0813 38.0264 15.2605C46.9897 17.2213 45.8115 28.0952 42.1796 29.7796C38.5477 31.464 36.887 25.9888 36.9265 24.4557L31.028 29.0632" stroke="black" stroke-width="1.82012" stroke-miterlimit="10" stroke-linecap="round"/>
<path d="M28.4251 31.4774C28.4251 31.4774 32.1335 33.6009 35.657 31.9607C38.9867 30.4105 40.2418 28.534 42.3638 30.2956C45.9978 33.3123 40.7847 46.1298 25.7251 39.6783" fill="white"/>
<path d="M28.4251 31.4774C28.4251 31.4774 32.1335 33.6009 35.657 31.9607C38.9867 30.4105 40.2418 28.534 42.3638 30.2956C45.9978 33.3123 40.7847 46.1298 25.7251 39.6783" stroke="black" stroke-width="1.82012" stroke-miterlimit="10" stroke-linecap="round"/>
<path d="M9.72111 28.6529C10.3431 29.1378 10.2942 29.5705 9.55054 30.1594C9.57004 29.9194 8.99073 30.0804 9.23176 29.6498C9.33577 29.4639 9.34383 29.1581 9.2705 28.9509C8.99099 28.1596 9.70239 28.9402 9.72111 28.6529Z" fill="#ABA99B"/>
<path d="M10.2226 27.2752C10.2917 27.4271 10.3427 27.5914 10.434 27.7287C10.6825 28.1037 10.598 28.3294 10.1646 28.4492C10.0057 28.4932 9.85959 28.5837 9.70775 28.6531C9.63832 28.501 9.58736 28.3369 9.49635 28.1996C9.24778 27.8247 9.33228 27.599 9.76573 27.4791C9.9246 27.4349 10.0707 27.3444 10.2226 27.2752Z" fill="#ABA99B"/>
<path d="M10.0414 26.8212C9.7265 26.4156 9.91657 26.2364 10.3108 26.0901C10.7829 25.9145 10.7749 25.8932 11.0045 26.4507C11.1795 26.8761 11.1587 26.8688 10.4712 27.1769C10.0107 27.3831 10.201 26.8977 10.0414 26.8212Z" fill="#ABA99B"/>
<path d="M10.6738 32.6117C10.9986 32.7768 11.2461 32.8446 11.4076 33.0012C11.5685 33.1572 11.328 33.742 11.1174 33.7178C10.8938 33.6926 10.5844 33.5766 10.5014 33.4076C10.4221 33.2461 10.5857 32.965 10.6738 32.6117Z" fill="#ABA99B"/>
<path d="M10.0251 30.6423C10.34 30.7754 10.5894 30.8284 10.7664 30.9712C10.936 31.1077 10.7334 31.707 10.5155 31.7024C10.294 31.6974 9.97311 31.596 9.88497 31.4343C9.79916 31.2759 9.95283 30.9878 10.0251 30.6423Z" fill="#ABA99B"/>
<path d="M10.2059 30.1414C10.371 29.8166 10.4389 29.5691 10.5954 29.4076C10.7514 29.2469 11.3362 29.4874 11.3123 29.6978C11.2868 29.9214 11.1709 30.2308 11.0018 30.3138C10.8404 30.3933 10.5593 30.2295 10.2059 30.1414Z" fill="#ABA99B"/>
<path d="M10.743 28.7725C10.8978 28.4488 10.9836 28.0704 11.1045 28.0587C11.3434 28.0361 11.6016 28.2163 11.8518 28.3125C11.7519 28.5288 11.7041 28.8468 11.5371 28.9319C11.377 29.0138 11.0935 28.8541 10.743 28.7725Z" fill="#ABA99B"/>
<path d="M10.4329 25.5106C10.7405 25.2386 10.9628 25.0264 11.2072 24.8442C11.2413 24.8189 11.4724 24.9734 11.4656 24.9921C11.378 25.2371 11.3037 25.5093 11.1354 25.6908C11.0733 25.7579 10.774 25.6047 10.4329 25.5106Z" fill="#ABA99B"/>
<path d="M9.3922 31.0852C9.3415 30.9739 9.30484 30.853 9.23749 30.7529C8.97592 30.3637 9.27754 30.2732 9.54171 30.1598C9.74713 30.5095 9.72347 30.8223 9.3922 31.0852Z" fill="#ABA99B"/>
<path d="M11.4359 35.2549C11.5755 35.0651 11.647 34.9021 11.7011 34.9078C11.8301 34.9211 11.951 35.0139 12.075 35.0748C12.0249 35.171 11.9877 35.3355 11.9214 35.3483C11.8002 35.3714 11.6616 35.3049 11.4359 35.2549Z" fill="#ABA99B"/>
<path d="M10.0954 32.6227C10.1308 32.7002 10.188 32.7761 10.1929 32.8554C10.196 32.9038 10.1183 32.9571 10.077 33.0083C9.94669 32.7197 9.81643 32.4311 9.68616 32.1424C9.75194 32.1479 9.85751 32.1297 9.87701 32.1625C9.96333 32.3081 10.025 32.468 10.0954 32.6227Z" fill="#ABA99B"/>
<path d="M11.26 31.5137C11.463 31.624 11.6112 31.6648 11.6877 31.7618C11.7293 31.8148 11.6492 31.9635 11.6242 32.0688C11.4906 32.0335 11.3387 32.0244 11.2324 31.9498C11.1879 31.9186 11.241 31.7488 11.26 31.5137Z" fill="#ABA99B"/>
<path d="M11.7674 30.1358C11.9705 30.246 12.1187 30.2869 12.1951 30.3838C12.2367 30.4369 12.1566 30.5856 12.1317 30.6909C11.998 30.6556 11.8462 30.6465 11.7398 30.5718C11.6954 30.5406 11.7484 30.3708 11.7674 30.1358Z" fill="#ABA99B"/>
<path d="M12.0879 27.4402C11.8586 27.3455 11.6794 27.3102 11.6761 27.2626C11.667 27.1323 11.714 26.9865 11.7808 26.8707C11.7962 26.844 12.0437 26.8848 12.07 26.9446C12.1196 27.0577 12.0861 27.2072 12.0879 27.4402Z" fill="#ABA99B"/>
<path d="M12.6013 26.062C12.372 25.9674 12.1928 25.932 12.1894 25.8844C12.1806 25.7542 12.2274 25.6083 12.2942 25.4926C12.3096 25.4658 12.5571 25.5066 12.5834 25.5664C12.633 25.6793 12.5995 25.829 12.6013 26.062Z" fill="#ABA99B"/>
<path d="M10.6779 34.6387C10.6709 34.4224 10.6683 34.3448 10.6656 34.2669C10.7488 34.3113 10.8531 34.3383 10.9083 34.4057C10.9475 34.4533 10.9208 34.5553 10.9237 34.6329C10.823 34.6353 10.7224 34.6376 10.6779 34.6387Z" fill="#ABA99B"/>
<path d="M9.35731 31.365C9.31764 31.3502 9.24972 31.3344 9.25049 31.3235C9.2549 31.2597 9.27538 31.197 9.29042 31.1337L9.44365 31.191C9.41487 31.2491 9.38609 31.3072 9.35731 31.365Z" fill="#ABA99B"/>
<path d="M4.59235 38.9842C5.3672 39.1316 5.52113 39.5391 5.12825 40.4026C5.03594 40.18 4.59392 40.5877 4.61186 40.0945C4.61966 39.8818 4.48705 39.6059 4.3274 39.4551C3.7174 38.8786 4.70676 39.2486 4.59235 38.9842Z" fill="#ABA99B"/>
<path d="M4.44208 37.5229C4.57313 37.6263 4.69326 37.7493 4.83705 37.8299C5.22941 38.0499 5.25723 38.2894 4.92649 38.5939C4.80507 38.7057 4.7164 38.8528 4.61265 38.9839C4.48186 38.8801 4.36148 38.7574 4.21769 38.6768C3.82558 38.4566 3.7975 38.2174 4.1285 37.9126C4.24993 37.8011 4.3386 37.6539 4.44208 37.5229Z" fill="#ABA99B"/>
<path d="M4.04294 37.2094C3.57777 36.9923 3.66514 36.746 3.94908 36.4358C4.28892 36.0643 4.27202 36.0489 4.73069 36.44C5.08067 36.7385 5.05883 36.7419 4.58768 37.3298C4.27228 37.7232 4.21975 37.2047 4.04294 37.2094Z" fill="#ABA99B"/>
<path d="M7.25623 42.074C7.62051 42.0727 7.87169 42.0201 8.08698 42.0857C8.30123 42.1509 8.35402 42.7809 8.15562 42.8558C7.94527 42.9351 7.61713 42.9734 7.46606 42.8608C7.32175 42.7534 7.33917 42.4286 7.25623 42.074Z" fill="#ABA99B"/>
<path d="M5.76929 40.6168C6.11017 40.5916 6.35614 40.525 6.57898 40.571C6.79193 40.6152 6.88554 41.2411 6.68949 41.336C6.49005 41.433 6.15827 41.4891 6.00616 41.3854C5.85743 41.2837 5.86263 40.9574 5.76929 40.6168Z" fill="#ABA99B"/>
<path d="M5.71878 40.0823C5.71748 39.718 5.66496 39.4668 5.73048 39.2515C5.79574 39.0373 6.42576 38.9845 6.50065 39.1829C6.57995 39.3932 6.61818 39.7214 6.50559 39.8724C6.3982 40.0168 6.07344 39.9993 5.71878 40.0823Z" fill="#ABA99B"/>
<path d="M5.56334 38.6238C5.5532 38.2652 5.45699 37.8892 5.55918 37.824C5.76121 37.6945 6.07323 37.7371 6.34001 37.7085C6.34963 37.9464 6.45234 38.2514 6.34261 38.403C6.2373 38.5492 5.91254 38.5364 5.56334 38.6238Z" fill="#ABA99B"/>
<path d="M3.81067 35.8613C3.96018 35.4788 4.06107 35.1887 4.19549 34.9151C4.21421 34.8772 4.49061 34.9089 4.49295 34.9286C4.52676 35.1866 4.585 35.4627 4.51791 35.7009C4.49321 35.789 4.15701 35.7893 3.81067 35.8613Z" fill="#ABA99B"/>
<path d="M5.41111 41.2944C5.31516 41.2185 5.22728 41.1278 5.12171 41.0693C4.7114 40.8423 4.9384 40.6244 5.12171 40.4026C5.46415 40.6202 5.58584 40.9093 5.41111 41.2944Z" fill="#ABA99B"/>
<path d="M9.13696 44.075C9.17487 43.8409 9.16415 43.6624 9.21488 43.6425C9.33645 43.5954 9.48705 43.6229 9.62615 43.6203C9.6251 43.7293 9.66746 43.8938 9.61412 43.9356C9.51634 44.0119 9.36182 44.0161 9.13696 44.075Z" fill="#ABA99B"/>
<path d="M6.75291 42.3423C6.81948 42.3951 6.90528 42.4364 6.94584 42.5048C6.97081 42.5464 6.92582 42.6294 6.9123 42.6938C6.66477 42.4965 6.41723 42.2991 6.16943 42.102C6.23054 42.0766 6.31608 42.0123 6.34859 42.0326C6.49159 42.1226 6.61952 42.2367 6.75291 42.3423Z" fill="#ABA99B"/>
<path d="M7.28003 40.8244C7.51118 40.8298 7.66147 40.7984 7.7738 40.8499C7.83516 40.8782 7.83178 41.0469 7.85753 41.1523C7.72258 41.1814 7.58321 41.2427 7.4545 41.2248C7.40068 41.2175 7.37026 41.042 7.28003 40.8244Z" fill="#ABA99B"/>
<path d="M7.10681 39.3637C7.33797 39.3691 7.48826 39.3377 7.60058 39.3892C7.66195 39.4175 7.65857 39.5863 7.68431 39.6916C7.54936 39.7207 7.40999 39.782 7.28128 39.7641C7.22746 39.7568 7.19704 39.5813 7.10681 39.3637Z" fill="#ABA99B"/>
<path d="M6.15576 36.8251C5.90781 36.8454 5.73181 36.896 5.70704 36.8551C5.63925 36.7429 5.61448 36.5912 5.621 36.4577C5.62257 36.4267 5.86192 36.3498 5.91276 36.391C6.00897 36.4692 6.04756 36.6181 6.15576 36.8251Z" fill="#ABA99B"/>
<path d="M5.98853 35.3644C5.74057 35.3847 5.56458 35.4353 5.53981 35.3944C5.47202 35.2823 5.44725 35.1305 5.45376 34.997C5.45533 34.966 5.69494 34.8891 5.74579 34.9303C5.84174 35.0085 5.88032 35.1574 5.98853 35.3644Z" fill="#ABA99B"/>
<path d="M8.19519 43.874C8.09009 43.6847 8.05244 43.6168 8.01453 43.5488C8.10891 43.5503 8.21402 43.5268 8.29376 43.5616C8.3505 43.5859 8.37324 43.6889 8.41116 43.7569C8.32278 43.8047 8.23415 43.8528 8.19519 43.874Z" fill="#ABA99B"/>
<path d="M5.52894 41.5609C5.48648 41.5658 5.41876 41.5828 5.41459 41.5729C5.38907 41.5135 5.37865 41.4481 5.36328 41.3848C5.41772 41.3786 5.4719 41.3721 5.52633 41.3658C5.52711 41.4309 5.52816 41.496 5.52894 41.5609Z" fill="#ABA99B"/>
</svg>
