<svg width="46" height="50" viewBox="0 0 46 50" fill="none" xmlns="http://www.w3.org/2000/svg">
<path d="M43.4198 33.8002C45.5875 37.091 43.1569 42.5175 37.9909 45.9206C32.8249 49.3237 26.8796 49.4147 24.7118 46.1239C22.5441 42.8329 24.9747 37.4064 30.1407 34.0033C35.3067 30.6004 41.252 30.5094 43.4198 33.8002Z" fill="white"/>
<path d="M43.4198 33.8002C45.5875 37.091 43.1569 42.5175 37.9909 45.9206C32.8249 49.3237 26.8796 49.4147 24.7118 46.1239C22.5441 42.8329 24.9747 37.4064 30.1407 34.0033C35.3067 30.6004 41.252 30.5094 43.4198 33.8002Z" stroke="black" stroke-width="1.82012" stroke-miterlimit="10" stroke-linecap="round"/>
<path d="M38.269 36.0552C39.3049 33.7345 39.7165 31.0563 39.3124 28.2963C38.2393 20.9651 31.8172 15.8344 24.9681 16.8371C18.1192 17.8394 13.4368 24.5954 14.5099 31.9269C15.5833 39.258 22.0054 44.3887 28.8543 43.3861" fill="white"/>
<path d="M38.269 36.0552C39.3049 33.7345 39.7165 31.0563 39.3124 28.2963C38.2393 20.9651 31.8172 15.8344 24.9681 16.8371C18.1192 17.8394 13.4368 24.5954 14.5099 31.9269C15.5833 39.258 22.0054 44.3887 28.8543 43.3861" stroke="black" stroke-width="1.82012" stroke-miterlimit="10" stroke-linecap="round"/>
<path d="M31.1893 17.5996C31.1893 17.5996 24.5553 14.8416 24.3473 7.17323C24.1392 -0.494921 12.2008 -0.899248 17.6633 14.423L20.5895 21.2378" fill="white"/>
<path d="M31.1893 17.5996C31.1893 17.5996 24.5553 14.8416 24.3473 7.17323C24.1392 -0.494921 12.2008 -0.899247 17.6633 14.423L20.5895 21.2378" stroke="black" stroke-width="1.82012" stroke-miterlimit="10" stroke-linecap="round"/>
<path d="M24.818 20.6183C24.818 20.6183 16.4959 15.9476 14.4243 6.92629C12.3531 -2.09498 -1.78094 0.271948 8.29237 17.095L15.4418 25.9148" fill="white"/>
<path d="M24.818 20.6183C24.818 20.6183 16.4959 15.9476 14.4243 6.92629C12.3531 -2.09498 -1.78094 0.271947 8.29237 17.095L15.4418 25.9148" stroke="black" stroke-width="1.82012" stroke-miterlimit="10" stroke-linecap="round"/>
<path d="M20.1544 23.436C20.1544 23.436 13.3742 14.0811 7.9846 15.2603C-0.978697 17.221 0.199438 28.0949 3.83135 29.7793C7.46326 31.4637 9.12399 25.9885 9.08447 24.4555L14.9829 29.063" fill="white"/>
<path d="M20.1544 23.436C20.1544 23.436 13.3742 14.0811 7.9846 15.2603C-0.978697 17.221 0.199439 28.0949 3.83135 29.7793C7.46326 31.4637 9.12399 25.9885 9.08447 24.4555L14.9829 29.063" stroke="black" stroke-width="1.82012" stroke-miterlimit="10" stroke-linecap="round"/>
<path d="M17.5858 31.4771C17.5858 31.4771 13.8774 33.6007 10.3539 31.9605C7.02413 30.4103 5.76903 28.5337 3.64704 30.2953C0.0130424 33.3121 5.22612 46.1296 20.2858 39.6781" fill="white"/>
<path d="M17.5858 31.4771C17.5858 31.4771 13.8774 33.6007 10.3539 31.9605C7.02413 30.4103 5.76903 28.5337 3.64704 30.2953C0.0130422 33.3121 5.22612 46.1296 20.2858 39.6781" stroke="black" stroke-width="1.82012" stroke-miterlimit="10" stroke-linecap="round"/>
<path d="M36.29 28.6529C35.668 29.1378 35.7169 29.5705 36.4606 30.1594C36.4411 29.9194 37.0204 30.0804 36.7793 29.6498C36.6753 29.4639 36.6673 29.1581 36.7406 28.9509C37.0201 28.1596 36.3087 28.9402 36.29 28.6529Z" fill="#ABA99B"/>
<path d="M35.7884 27.275C35.7192 27.4269 35.6683 27.5912 35.577 27.7285C35.3284 28.1034 35.4129 28.3291 35.8464 28.449C36.0053 28.4929 36.1514 28.5834 36.3032 28.6528C36.3727 28.5007 36.4236 28.3367 36.5146 28.1994C36.7632 27.8244 36.6787 27.5987 36.2453 27.4789C36.0864 27.4347 35.9403 27.3442 35.7884 27.275Z" fill="#ABA99B"/>
<path d="M35.9696 26.8212C36.2845 26.4156 36.0944 26.2364 35.7002 26.0901C35.228 25.9145 35.2361 25.8932 35.0065 26.4507C34.8315 26.8761 34.8523 26.8688 35.5398 27.1769C36.0003 27.3831 35.81 26.8977 35.9696 26.8212Z" fill="#ABA99B"/>
<path d="M35.337 32.6117C35.0123 32.7768 34.7647 32.8446 34.6033 33.0012C34.4423 33.1572 34.6828 33.742 34.8934 33.7178C35.1171 33.6926 35.4265 33.5766 35.5094 33.4076C35.5887 33.2461 35.4252 32.965 35.337 32.6117Z" fill="#ABA99B"/>
<path d="M35.986 30.6423C35.6711 30.7754 35.4218 30.8284 35.2447 30.9712C35.0752 31.1077 35.2777 31.707 35.4956 31.7024C35.7171 31.6974 36.038 31.596 36.1261 31.4343C36.2119 31.2759 36.0583 30.9878 35.986 30.6423Z" fill="#ABA99B"/>
<path d="M35.8052 30.1414C35.6401 29.8166 35.5722 29.5691 35.4157 29.4076C35.2597 29.2469 34.6749 29.4874 34.6988 29.6978C34.7243 29.9214 34.8403 30.2308 35.0093 30.3138C35.1707 30.3933 35.4518 30.2295 35.8052 30.1414Z" fill="#ABA99B"/>
<path d="M35.2678 28.7722C35.1131 28.4485 35.0273 28.0702 34.9064 28.0585C34.6674 28.0359 34.4092 28.2161 34.1591 28.3123C34.259 28.5286 34.3068 28.8466 34.4737 28.9316C34.6339 29.0135 34.9173 28.8539 35.2678 28.7722Z" fill="#ABA99B"/>
<path d="M35.5782 25.5106C35.2706 25.2386 35.0483 25.0264 34.8039 24.8442C34.7699 24.8189 34.5387 24.9734 34.5455 24.9921C34.6331 25.2371 34.7075 25.5093 34.8757 25.6908C34.9378 25.7579 35.2371 25.6047 35.5782 25.5106Z" fill="#ABA99B"/>
<path d="M36.6187 31.085C36.6694 30.9737 36.706 30.8528 36.7734 30.7527C37.0349 30.3634 36.7333 30.2729 36.4692 30.1596C36.2637 30.5093 36.2874 30.8221 36.6187 31.085Z" fill="#ABA99B"/>
<path d="M34.5751 35.2549C34.4354 35.0651 34.3639 34.9021 34.3099 34.9078C34.1809 34.9211 34.06 35.0139 33.936 35.0748C33.9861 35.171 34.0233 35.3355 34.0896 35.3483C34.2108 35.3714 34.3494 35.3049 34.5751 35.2549Z" fill="#ABA99B"/>
<path d="M35.9156 32.6225C35.8802 32.6999 35.823 32.7759 35.8181 32.8552C35.8149 32.9035 35.8927 32.9568 35.934 33.0081C36.0643 32.7194 36.1946 32.4308 36.3248 32.1422C36.259 32.1477 36.1535 32.1295 36.134 32.1622C36.0477 32.3078 35.986 32.4677 35.9156 32.6225Z" fill="#ABA99B"/>
<path d="M34.751 31.5137C34.548 31.624 34.3998 31.6648 34.3233 31.7618C34.2817 31.8148 34.3618 31.9635 34.3867 32.0688C34.5204 32.0335 34.6722 32.0244 34.7786 31.9498C34.8231 31.9186 34.77 31.7488 34.751 31.5137Z" fill="#ABA99B"/>
<path d="M34.2436 30.1358C34.0405 30.246 33.8923 30.2869 33.8159 30.3838C33.7743 30.4369 33.8543 30.5856 33.8793 30.6909C34.013 30.6556 34.1648 30.6465 34.2711 30.5718C34.3156 30.5406 34.2626 30.3708 34.2436 30.1358Z" fill="#ABA99B"/>
<path d="M33.9232 27.4399C34.1525 27.3453 34.3317 27.3099 34.3351 27.2624C34.3442 27.1321 34.2971 26.9862 34.2303 26.8705C34.2149 26.8437 33.9674 26.8845 33.9411 26.9443C33.8915 27.0575 33.925 27.207 33.9232 27.4399Z" fill="#ABA99B"/>
<path d="M33.4097 26.0618C33.639 25.9671 33.8182 25.9318 33.8216 25.8842C33.8304 25.7539 33.7836 25.608 33.7168 25.4923C33.7014 25.4655 33.4539 25.5064 33.4276 25.5662C33.378 25.679 33.4115 25.8288 33.4097 26.0618Z" fill="#ABA99B"/>
<path d="M35.333 34.6387C35.3401 34.4224 35.3427 34.3448 35.3453 34.2669C35.2622 34.3113 35.1579 34.3383 35.1027 34.4057C35.0635 34.4533 35.0902 34.5553 35.0873 34.6329C35.1879 34.6353 35.2886 34.6376 35.333 34.6387Z" fill="#ABA99B"/>
<path d="M36.6537 31.365C36.6933 31.3502 36.7613 31.3344 36.7605 31.3235C36.7561 31.2597 36.7356 31.197 36.7206 31.1337L36.5673 31.191C36.5961 31.2491 36.6249 31.3072 36.6537 31.365Z" fill="#ABA99B"/>
<path d="M41.4188 38.984C40.6439 39.1314 40.49 39.5388 40.8829 40.4023C40.9752 40.1798 41.4172 40.5875 41.3993 40.0942C41.3915 39.8815 41.5241 39.6057 41.6837 39.4548C42.2937 38.8784 41.3043 39.2484 41.4188 38.984Z" fill="#ABA99B"/>
<path d="M41.5688 37.5229C41.4377 37.6263 41.3176 37.7493 41.1738 37.8299C40.7815 38.0499 40.7536 38.2894 41.0844 38.5939C41.2058 38.7057 41.2945 38.8528 41.3982 38.9839C41.529 38.8801 41.6494 38.7574 41.7932 38.6768C42.1853 38.4566 42.2134 38.2174 41.8824 37.9126C41.7609 37.8011 41.6723 37.6539 41.5688 37.5229Z" fill="#ABA99B"/>
<path d="M41.9679 37.2094C42.4331 36.9923 42.3457 36.746 42.0618 36.4358C41.7219 36.0643 41.7388 36.0489 41.2802 36.44C40.9302 36.7385 40.952 36.7419 41.4232 37.3298C41.7386 37.7232 41.7911 37.2047 41.9679 37.2094Z" fill="#ABA99B"/>
<path d="M38.7549 42.0737C38.3906 42.0724 38.1394 42.0199 37.9241 42.0854C37.7099 42.1507 37.6571 42.7807 37.8555 42.8556C38.0658 42.9349 38.394 42.9731 38.545 42.8605C38.6894 42.7531 38.6719 42.4284 38.7549 42.0737Z" fill="#ABA99B"/>
<path d="M40.2417 40.6165C39.9008 40.5913 39.6548 40.5247 39.432 40.5708C39.2191 40.615 39.1254 41.2408 39.3215 41.3357C39.5209 41.4327 39.8527 41.4889 40.0048 41.3851C40.1536 41.2835 40.1484 40.9572 40.2417 40.6165Z" fill="#ABA99B"/>
<path d="M40.2922 40.0823C40.2935 39.718 40.346 39.4668 40.2805 39.2515C40.2152 39.0373 39.5852 38.9845 39.5103 39.1829C39.431 39.3932 39.3928 39.7214 39.5054 39.8724C39.6128 40.0168 39.9375 39.9993 40.2922 40.0823Z" fill="#ABA99B"/>
<path d="M40.4478 38.6238C40.4579 38.2652 40.5541 37.8892 40.4519 37.824C40.2499 37.6945 39.9379 37.7371 39.6711 37.7085C39.6615 37.9464 39.5588 38.2514 39.6685 38.403C39.7738 38.5492 40.0986 38.5364 40.4478 38.6238Z" fill="#ABA99B"/>
<path d="M42.2003 35.8613C42.0508 35.4788 41.9499 35.1887 41.8155 34.9151C41.7968 34.8772 41.5204 34.9089 41.518 34.9286C41.4842 35.1866 41.426 35.4627 41.4931 35.7009C41.5178 35.789 41.854 35.7893 42.2003 35.8613Z" fill="#ABA99B"/>
<path d="M40.5999 41.2944C40.6958 41.2185 40.7837 41.1278 40.8893 41.0693C41.2996 40.8423 41.0726 40.6244 40.8893 40.4026C40.5468 40.6202 40.4251 40.9093 40.5999 41.2944Z" fill="#ABA99B"/>
<path d="M36.8739 44.0747C36.836 43.8407 36.8467 43.6621 36.796 43.6423C36.6744 43.5952 36.5238 43.6226 36.3847 43.62C36.3858 43.7291 36.3434 43.8935 36.3967 43.9354C36.4945 44.0117 36.649 44.0159 36.8739 44.0747Z" fill="#ABA99B"/>
<path d="M39.2582 42.3423C39.1916 42.3951 39.1058 42.4364 39.0653 42.5048C39.0403 42.5464 39.0853 42.6294 39.0988 42.6938C39.3463 42.4965 39.5939 42.2991 39.8417 42.102C39.7806 42.0766 39.695 42.0123 39.6625 42.0326C39.5195 42.1226 39.3916 42.2367 39.2582 42.3423Z" fill="#ABA99B"/>
<path d="M38.731 40.8244C38.4998 40.8298 38.3495 40.7984 38.2372 40.8499C38.1758 40.8782 38.1792 41.0469 38.1535 41.1523C38.2884 41.1814 38.4278 41.2427 38.5565 41.2248C38.6103 41.2175 38.6407 41.042 38.731 40.8244Z" fill="#ABA99B"/>
<path d="M38.9042 39.3637C38.673 39.3691 38.5227 39.3377 38.4104 39.3892C38.349 39.4175 38.3524 39.5863 38.3267 39.6916C38.4616 39.7207 38.601 39.782 38.7297 39.7641C38.7835 39.7568 38.8139 39.5813 38.9042 39.3637Z" fill="#ABA99B"/>
<path d="M39.8552 36.8248C40.1032 36.8452 40.2792 36.8958 40.3039 36.8548C40.3717 36.7427 40.3965 36.591 40.39 36.4575C40.3884 36.4264 40.1491 36.3495 40.0982 36.3907C40.002 36.4689 39.9634 36.6178 39.8552 36.8248Z" fill="#ABA99B"/>
<path d="M40.0225 35.3641C40.2704 35.3845 40.4464 35.4351 40.4712 35.3941C40.539 35.282 40.5637 35.1303 40.5572 34.9968C40.5557 34.9657 40.316 34.8888 40.2652 34.93C40.1693 35.0082 40.1307 35.1571 40.0225 35.3641Z" fill="#ABA99B"/>
<path d="M37.8159 43.874C37.921 43.6847 37.9587 43.6168 37.9966 43.5488C37.9022 43.5503 37.7971 43.5268 37.7173 43.5616C37.6606 43.5859 37.6379 43.6889 37.6 43.7569C37.6883 43.8047 37.777 43.8528 37.8159 43.874Z" fill="#ABA99B"/>
<path d="M40.482 41.5609C40.5245 41.5658 40.5922 41.5828 40.5964 41.5729C40.6219 41.5135 40.6323 41.4481 40.6477 41.3848C40.5933 41.3786 40.5391 41.3721 40.4847 41.3658C40.4839 41.4309 40.4828 41.496 40.482 41.5609Z" fill="#ABA99B"/>
</svg>
