<svg width="16" height="22" viewBox="0 0 16 22" fill="none" xmlns="http://www.w3.org/2000/svg">
<path d="M9.15976 0.252813C9.51608 0.129171 9.90976 0.0760212 10.278 0.17915C10.5916 0.264003 10.8676 0.462801 11.0648 0.718665C11.282 0.997094 11.4184 1.32961 11.5115 1.6679C11.6417 2.14568 11.6942 2.64081 11.7198 3.13408C11.7801 4.51727 11.6307 5.89767 11.4858 7.27117C11.773 7.07162 12.1276 6.97782 12.4761 6.99404C12.8924 7.01269 13.2928 7.16207 13.6516 7.36721C14.1459 7.65384 14.5259 8.11373 14.7525 8.63441C15.0457 9.30018 15.1297 10.0383 15.1153 10.7596C15.1058 11.172 15.0636 11.5834 14.9911 11.9892C15.2679 12.5097 15.3824 13.1033 15.3986 13.6885C15.4255 14.6823 15.1108 15.682 14.5097 16.4757C14.7497 16.8135 14.9041 17.2114 14.956 17.6219C15.001 18.0262 14.9474 18.4415 14.7937 18.8188C14.5676 19.3826 14.1521 19.8551 13.6639 20.2098C13.0093 20.6843 12.2277 20.9668 11.4305 21.0824C10.5905 21.2014 9.72077 21.1494 8.911 20.8898C8.22394 20.6706 7.57254 20.2971 7.09632 19.7492C6.77137 19.3771 6.54073 18.9176 6.4692 18.4272C6.41766 18.0891 6.44361 17.7413 6.53419 17.4119C5.7756 16.6967 5.2032 15.8182 4.5871 14.9844C4.50026 14.8615 4.39848 14.7362 4.25131 14.6849C4.06195 14.6192 3.85726 14.6403 3.66099 14.6522C3.30709 14.6813 2.95095 14.7181 2.59593 14.6838C2.16995 14.6474 1.75274 14.5155 1.38371 14.3002C1.10489 14.1422 0.872569 13.9093 0.701129 13.64C0.347231 13.0857 0.221546 12.3957 0.333785 11.7501C0.39616 11.3967 0.537533 11.055 0.756968 10.7699C0.985741 10.4682 1.30285 10.2375 1.65525 10.1006C2.11317 9.91932 2.61871 9.89247 3.1039 9.94916C3.74988 10.0249 4.36953 10.2418 4.96229 10.5019C5.00038 10.0838 5.07938 9.6657 5.23775 9.27537C5.36418 8.96412 5.5528 8.67133 5.81706 8.45967C5.94218 8.3584 6.08617 8.28437 6.23016 8.21387C6.55156 8.06095 6.90807 7.97162 7.26552 7.98971C7.46348 7.99829 7.65938 8.04137 7.84445 8.11168C7.65975 7.16077 7.49074 6.20501 7.40315 5.23974C7.33816 4.50851 7.31482 3.77038 7.39494 3.03953C7.47337 2.35866 7.64481 1.66566 8.04615 1.09854C8.31769 0.710459 8.71006 0.405735 9.15976 0.252813ZM9.42233 1.24363C9.09439 1.37623 8.85367 1.66324 8.70912 1.9784C8.49305 2.44556 8.41667 2.9627 8.38118 3.47181C8.34309 4.08051 8.37427 4.69164 8.43366 5.29792C8.52349 6.20258 8.68783 7.09736 8.85871 7.98953C8.89662 8.20324 8.94275 8.41659 8.95489 8.63385C8.96722 8.81306 8.87272 8.97568 8.86226 9.15266C8.85535 9.33076 8.7545 9.50476 8.59502 9.5883C8.38473 9.70728 8.09582 9.64928 7.95034 9.4559C7.80001 9.23696 7.57198 9.05587 7.30324 9.01615C7.036 8.97587 6.76931 9.07005 6.53979 9.2004C6.43652 9.25243 6.35808 9.34195 6.29608 9.43762C6.16983 9.64071 6.10017 9.87251 6.04994 10.1045C5.96851 10.503 5.9448 10.9118 5.95936 11.3178C5.9603 11.4991 5.85385 11.6755 5.69343 11.7598C5.55597 11.8379 5.38192 11.8426 5.23868 11.7775C4.58934 11.4308 3.90713 11.1209 3.17804 10.9892C2.8079 10.9267 2.41534 10.9086 2.05696 11.0379C1.80858 11.1248 1.5925 11.3044 1.4713 11.5386C1.28996 11.8818 1.27596 12.2945 1.37438 12.6646C1.44721 12.9291 1.58149 13.1894 1.80354 13.3586C2.08964 13.5564 2.43551 13.6625 2.7825 13.675C3.27571 13.6978 3.768 13.5715 4.26028 13.643C4.59961 13.6885 4.92419 13.8442 5.16435 14.0889C5.28612 14.2047 5.38155 14.3436 5.4809 14.4781C5.73432 14.8225 5.97972 15.1729 6.23595 15.5151C6.64083 16.0546 7.07484 16.5839 7.61605 16.9934C8.05623 17.3284 8.57877 17.5596 9.12838 17.6353C9.32373 17.6583 9.49704 17.8041 9.5525 17.9925C9.60853 18.1707 9.55624 18.3779 9.41897 18.5057C9.31589 18.609 9.16573 18.662 9.02063 18.6483C8.47213 18.5777 7.94063 18.3917 7.46254 18.1154C7.47487 18.4495 7.61269 18.7709 7.82279 19.0286C8.099 19.3723 8.47979 19.6181 8.88112 19.7925C9.72133 20.1496 10.6719 20.2035 11.562 20.0258C12.2632 19.8786 12.9524 19.5704 13.4514 19.0452C13.6816 18.8001 13.8635 18.4993 13.9259 18.1659C13.9879 17.8513 13.9308 17.5177 13.7804 17.2357C13.6293 17.358 13.4743 17.4759 13.3107 17.5814C13.0825 17.7297 12.7452 17.6476 12.61 17.4117C12.5006 17.2381 12.5131 16.9974 12.6407 16.8366C12.7107 16.7422 12.8183 16.69 12.9096 16.6203C13.2181 16.3978 13.4949 16.13 13.7212 15.8241C13.8265 15.6787 13.9362 15.5297 13.9763 15.3512C13.9842 15.3534 14 15.3575 14.0079 15.3596C14.3732 14.6474 14.4712 13.8045 14.2934 13.0251C14.2363 12.7881 14.1562 12.5522 14.0185 12.3489C13.9451 12.232 13.9237 12.085 13.958 11.9517C14.0871 11.3167 14.1328 10.6614 14.0656 10.0159C14.0204 9.61609 13.9257 9.2142 13.7255 8.86155C13.561 8.56914 13.3115 8.3198 13.005 8.17788C12.8112 8.08389 12.6003 8.00911 12.3824 8.01172C12.2199 8.01321 12.0627 8.08687 11.9525 8.20492C11.7612 8.40969 11.6548 8.67991 11.5956 8.95014C11.5694 9.06091 11.5003 9.15826 11.4111 9.22763C11.2254 9.37197 10.9405 9.36414 10.7666 9.20432C10.6734 9.12917 10.6342 9.01317 10.5686 8.91713C10.5186 8.84272 10.4577 8.77372 10.4282 8.68774C10.3684 8.52792 10.3748 8.35467 10.3791 8.18721C10.3899 7.95782 10.4121 7.72919 10.4355 7.50074C10.5785 6.1181 10.7481 4.73155 10.7066 3.33885C10.6896 2.87971 10.6519 2.41815 10.5369 1.97188C10.4822 1.76991 10.4132 1.56775 10.2954 1.39301C10.217 1.27813 10.1059 1.17389 9.96336 1.15132C9.77866 1.12428 9.59284 1.17687 9.42233 1.24363Z" fill="black"/>
<path d="M9.42233 1.24363C9.59284 1.17687 9.77866 1.12428 9.96336 1.15132C10.1059 1.17389 10.217 1.27813 10.2954 1.39301C10.4132 1.56775 10.4822 1.76991 10.5369 1.97188C10.6519 2.41815 10.6896 2.87971 10.7066 3.33885C10.7481 4.73155 10.5785 6.1181 10.4355 7.50074C10.4121 7.72919 10.3899 7.95782 10.3791 8.18721C10.3748 8.35467 10.3684 8.52792 10.4282 8.68774C10.4577 8.77372 10.5186 8.84272 10.5686 8.91713C10.6342 9.01317 10.6734 9.12917 10.7666 9.20432C10.9405 9.36414 11.2254 9.37197 11.4111 9.22763C11.5003 9.15826 11.5694 9.06091 11.5956 8.95014C11.6548 8.67991 11.7612 8.40969 11.9525 8.20492C12.0627 8.08687 12.2199 8.01321 12.3824 8.01172C12.6003 8.00911 12.8112 8.08389 13.005 8.17788C13.3115 8.3198 13.561 8.56914 13.7255 8.86155C13.9257 9.2142 14.0204 9.61609 14.0656 10.0159C14.1328 10.6614 14.0871 11.3167 13.958 11.9517C13.9237 12.085 13.9451 12.232 14.0185 12.3489C14.1562 12.5522 14.2363 12.7881 14.2934 13.0251C14.4712 13.8045 14.3732 14.6474 14.0079 15.3596C14 15.3575 13.9842 15.3534 13.9763 15.3512C13.9362 15.5297 13.8265 15.6787 13.7212 15.8241C13.4949 16.13 13.2181 16.3978 12.9096 16.6203C12.8183 16.69 12.7107 16.7422 12.6407 16.8366C12.5131 16.9974 12.5006 17.2381 12.61 17.4117C12.7452 17.6476 13.0825 17.7297 13.3107 17.5814C13.4743 17.4759 13.6293 17.358 13.7804 17.2357C13.9308 17.5177 13.9879 17.8513 13.9259 18.1659C13.8635 18.4993 13.6816 18.8001 13.4514 19.0452C12.9524 19.5704 12.2632 19.8786 11.562 20.0258C10.6719 20.2035 9.72133 20.1496 8.88112 19.7925C8.47979 19.6181 8.099 19.3723 7.82279 19.0286C7.61269 18.7709 7.47487 18.4495 7.46254 18.1154C7.94063 18.3917 8.47213 18.5777 9.02063 18.6483C9.16573 18.662 9.31589 18.609 9.41897 18.5057C9.55624 18.3779 9.60853 18.1707 9.5525 17.9925C9.49704 17.8041 9.32373 17.6583 9.12838 17.6353C8.57877 17.5596 8.05623 17.3284 7.61605 16.9934C7.07484 16.5839 6.64083 16.0546 6.23595 15.5151C5.97972 15.1729 5.73432 14.8225 5.4809 14.4781C5.38155 14.3436 5.28612 14.2047 5.16435 14.0889C4.92419 13.8442 4.59961 13.6885 4.26028 13.643C3.768 13.5715 3.27571 13.6978 2.7825 13.675C2.43551 13.6625 2.08964 13.5564 1.80354 13.3586C1.58149 13.1894 1.44721 12.9291 1.37438 12.6646C1.27596 12.2945 1.28996 11.8818 1.4713 11.5386C1.5925 11.3044 1.80858 11.1248 2.05696 11.0379C2.41534 10.9086 2.8079 10.9267 3.17804 10.9892C3.90713 11.1209 4.58934 11.4308 5.23868 11.7775C5.38192 11.8426 5.55597 11.8379 5.69343 11.7598C5.85385 11.6755 5.9603 11.4991 5.95936 11.3178C5.9448 10.9118 5.96851 10.503 6.04994 10.1045C6.10017 9.87251 6.16983 9.64071 6.29608 9.43762C6.35808 9.34195 6.43652 9.25243 6.53979 9.2004C6.76931 9.07005 7.036 8.97587 7.30324 9.01615C7.57198 9.05587 7.80001 9.23696 7.95034 9.4559C8.09582 9.64928 8.38473 9.70728 8.59502 9.5883C8.7545 9.50476 8.85535 9.33076 8.86226 9.15266C8.87272 8.97568 8.96722 8.81306 8.95489 8.63385C8.94275 8.41659 8.89662 8.20324 8.85871 7.98953C8.68783 7.09736 8.52349 6.20258 8.43366 5.29792C8.37427 4.69164 8.34309 4.08051 8.38118 3.47181C8.41667 2.9627 8.49305 2.44556 8.70912 1.9784C8.85367 1.66324 9.09439 1.37623 9.42233 1.24363Z" fill="white"/>
</svg>
