<svg width="237" height="212" viewBox="0 0 237 212" fill="none" xmlns="http://www.w3.org/2000/svg">
<path d="M236.171 109.208C238.425 119.723 232.351 122.377 227.6 123.409C217.363 125.719 210.163 128.126 206.294 129.552C207.91 131.271 209.576 133.09 211.339 134.957C218.588 142.819 223.486 152.008 225.445 161.64C227.698 172.746 225.886 181.984 220.008 189.208C211.29 199.871 193.755 205.325 167.991 205.325H167.404C132.579 205.227 120.09 192.844 115.731 182.475C112.155 174.023 112.841 164.637 115.535 156.284L71.1102 171.075C70.6204 177.856 69.3959 184.097 67.4857 189.551C63.3714 201.443 56.1714 209.601 46.9141 211.321C39.2733 212.696 31.4858 209.453 24.4817 202.819C20.5144 199.183 16.8895 194.367 13.7058 188.765C13.5589 188.618 13.4122 188.421 13.3142 188.225C12.5795 186.996 11.9426 185.669 11.3058 184.343C11.061 183.851 10.8165 183.311 10.5716 182.819C10.1308 181.837 9.68991 180.805 9.2491 179.822C7.82869 176.579 6.55507 173.139 5.42854 169.551C5.42854 169.551 5.33044 169.208 5.28146 169.011C5.28146 168.913 5.1834 168.814 5.1834 168.716C4.05687 164.932 3.02852 160.903 2.34281 156.775C2.04893 155.301 1.85294 153.876 1.65702 152.402C1.26518 149.797 1.02067 147.242 0.824749 144.687C0.188015 134.269 1.0691 124.49 3.32216 116.136C3.37114 115.94 3.37128 115.743 3.46924 115.596C3.46924 115.497 3.51832 115.35 3.5673 115.252C4.05711 113.581 4.54666 112.008 5.1834 110.485H5.28146C5.37942 110.19 5.47772 109.846 5.62466 109.551C6.06547 108.569 7.09409 107.979 8.12266 108.077C21.2002 109.306 38.0977 108.716 58.424 106.308C78.8485 103.851 96.4817 100.215 101.576 99.0847C102.408 95.4483 104.563 85.6694 104.073 79.7235C103.486 73.0896 106.131 66.6031 111.029 62.377C114.849 59.1338 122 52.6965 126.947 46.21C127.535 45.4729 128.22 44.8342 129.004 44.3427L114.457 27.0945C114.457 27.0945 114.212 26.7015 114.114 26.5049C114.065 26.4558 114.016 26.4066 114.065 26.3575C113.869 25.9152 113.82 25.4238 113.967 24.9816C113.967 24.8342 114.016 24.6867 114.065 24.5885C114.065 24.5393 114.114 24.4902 114.114 24.441C114.114 24.2936 114.261 24.1462 114.359 24.0479C114.408 23.9988 114.408 23.9496 114.457 23.9005H114.506C116.171 21.8366 129.788 5.52206 138.457 2.52453C138.996 2.32797 139.584 2.37715 140.122 2.57371C140.367 2.67199 145.363 4.63758 148.057 9.01106C151.927 7.29115 160.106 4.6867 171.273 7.14369C171.42 7.14369 171.616 7.19287 171.812 7.24201C171.91 7.24201 172.008 7.24201 172.106 7.24201C172.302 7.29115 172.449 7.38944 172.596 7.53686C172.792 7.68428 172.988 7.8317 173.184 8.0774C173.331 8.27396 173.477 8.51966 173.526 8.76536C173.624 9.01106 173.673 9.25676 173.673 9.5516V9.74811L171.176 47.8316C175.878 47.6842 180.53 50.436 182.685 54.9569C185.134 60.1657 186.359 65.866 186.261 71.9594C186.408 72.0576 186.506 72.1068 186.653 72.2051C189.347 73.925 191.012 76.7259 191.257 79.8709C192.089 90.9766 191.6 96.4802 191.012 99.2812C197.771 97.1191 203.845 95.694 209.184 95.1043L211.731 94.8095C216.727 94.1215 221.429 93.4827 226.669 97.0699C230.049 99.4778 235.339 105.178 236.171 109.158V109.208Z" fill="#FDC5F6"/>
<path d="M71.3056 168.421C71.3056 169.306 71.2082 170.239 71.1102 171.075C70.6204 177.856 69.3959 184.097 67.4857 189.551C63.3714 201.443 56.1714 209.601 46.9141 211.32C39.2733 212.696 31.4858 209.453 24.4817 202.819C20.5144 199.183 16.8895 194.367 13.7058 188.765C13.3629 188.175 13.0693 187.586 12.7265 186.996C12.2367 186.112 11.7467 185.227 11.3058 184.343C11.061 183.851 10.8165 183.311 10.5716 182.819C10.1308 181.836 9.68991 180.804 9.2491 179.822C7.82869 176.578 6.55507 173.139 5.42854 169.551C5.42854 169.551 5.33044 169.207 5.28146 169.011C5.28146 168.913 5.1834 168.814 5.1834 168.716C4.05687 164.932 3.02852 160.903 2.34281 156.775C2.04893 155.301 1.85294 153.876 1.65702 152.402C1.26518 149.797 1.02067 147.242 0.824749 144.687C0.188015 134.269 1.0691 124.49 3.32216 116.136C3.37114 115.94 3.37128 115.743 3.46924 115.596C3.46924 115.497 3.51832 115.35 3.5673 115.252C4.05711 113.581 4.54666 112.008 5.1834 110.485H5.28146L55.3383 107.684C55.5832 108.028 55.7791 108.372 55.975 108.716C56.024 108.814 56.0735 108.913 56.1225 109.011C40.204 110.78 22.7674 111.91 7.92655 110.485C7.28982 112.008 6.80022 113.581 6.31042 115.252C6.31042 115.35 6.21236 115.497 6.21236 115.596C6.1144 115.743 6.11431 115.94 6.06533 116.136C3.81224 124.49 2.93056 134.269 3.5673 144.687C3.76322 147.242 4.00833 149.797 4.40017 152.402C4.59608 153.876 4.79205 155.301 5.08593 156.775C5.77164 160.903 6.80002 164.932 7.92655 168.716C7.92655 168.814 7.97563 168.913 8.02461 169.011C8.07359 169.207 8.12271 169.355 8.17169 169.502C9.49414 173.777 11.0122 177.807 12.7265 181.542C13.6081 183.409 14.49 185.276 15.4696 186.996L71.3056 168.421Z" fill="black"/>
<path d="M147.86 60.657L147.126 57.5611C147.126 57.5611 147.126 57.3646 147.028 57.2663C145.362 52.0574 142.178 48.2245 139.288 45.6201C138.994 45.3744 138.701 45.1778 138.456 44.9321C137.281 43.9002 135.86 43.2122 134.341 43.0648C133.754 42.9665 133.117 42.9665 132.529 43.0157C131.256 43.1631 130.031 43.6054 129.003 44.3425C128.219 44.8339 127.534 45.4727 126.946 46.2098C121.999 52.6963 114.848 59.1336 111.028 62.3769C106.13 66.6029 103.485 73.0894 104.072 79.7233C104.562 85.6692 102.407 95.4481 101.574 99.0845C96.4802 100.215 78.8475 103.851 58.423 106.308C38.0964 108.716 21.1989 109.306 8.12137 108.077C7.0928 107.979 6.06418 108.569 5.62336 109.551C5.47643 109.846 5.37817 110.19 5.28021 110.485C4.79042 111.812 4.39863 113.04 4.10475 114.17C4.00679 114.318 3.95762 114.514 3.90864 114.711C3.76168 115.055 3.71306 115.399 3.66408 115.497C1.36204 124.146 0.431336 134.318 1.11705 144.883C1.31297 147.487 1.55808 150.141 1.94992 152.745C2.14584 154.269 2.34182 155.743 2.6357 157.217C3.27244 160.952 4.20296 164.932 5.57438 169.453C5.57438 169.551 5.62341 169.699 5.67239 169.797V170.043C5.67239 170.043 5.76991 170.239 5.81889 170.288C6.84746 173.63 7.97438 176.775 9.24785 179.822C9.68867 180.804 10.1295 181.836 10.5704 182.819C10.8153 183.311 11.0597 183.851 11.3046 184.342C11.9413 185.669 12.5782 186.996 13.3129 188.225C13.4109 188.421 13.5576 188.618 13.7046 188.765C14.1944 189.207 14.7826 189.453 15.4683 189.453C15.7132 189.453 15.9577 189.453 16.2026 189.355L71.1092 171.075L115.533 156.283L120.48 154.662C120.97 154.465 121.411 154.17 121.705 153.777C121.705 153.728 121.754 153.728 121.754 153.679C121.95 153.433 122.048 153.188 122.096 152.893C122.194 152.451 122.195 152.008 122.048 151.566C121.607 150.288 120.236 149.551 118.962 149.994L117.884 150.338L16.6438 184.048C16.056 182.917 15.5168 181.787 14.929 180.51C13.2637 176.971 11.7948 173.04 10.4723 168.814C10.4234 168.667 10.3743 168.47 10.3743 168.372C10.3253 168.323 10.3252 168.225 10.2762 168.126C10.2762 168.126 10.2598 168.093 10.2272 168.028C8.95373 163.753 8.07239 159.92 7.48464 156.283C7.19076 154.908 6.99479 153.532 6.79887 152.057C6.40704 149.502 6.16189 146.996 5.96598 144.539C5.37822 134.662 6.16189 125.227 8.41496 116.726C8.56189 116.48 8.61107 116.333 8.61107 115.989C8.90495 114.957 9.19853 114.023 9.54139 113.089C22.6679 114.17 39.2724 113.532 58.9623 111.173C83.4031 108.225 103.877 103.605 104.121 103.556C105.003 103.36 105.689 102.672 105.934 101.787C106.081 101.247 109.656 87.5857 108.921 79.281C108.529 74.1705 110.439 69.3547 114.211 66.1606C118.178 62.77 125.623 56.0869 130.864 49.1582C131.354 48.4702 132.187 48.028 133.019 47.9297H133.117C133.117 47.9297 133.362 47.9297 133.46 47.8806C134.097 47.8806 134.733 48.1754 135.272 48.6668C137.868 50.8781 141.101 54.367 142.472 59.1828L142.717 60.1656L143.109 61.7872C143.207 62.1312 143.354 62.4751 143.599 62.7208C143.696 62.8683 143.844 63.0157 143.991 63.1631C144.236 63.3105 144.48 63.4579 144.725 63.5071C144.921 63.5562 145.117 63.6054 145.264 63.6054C145.313 63.6054 145.411 63.6054 145.46 63.6054C145.46 63.6054 145.558 63.6054 145.607 63.6054C145.656 63.6054 145.754 63.6054 145.803 63.6054C145.803 63.6054 145.836 63.5891 145.901 63.5562H145.999C145.999 63.5562 146.439 63.4088 146.635 63.3105C146.635 63.3105 146.684 63.3105 146.733 63.2614C146.733 63.2122 146.782 63.2122 146.782 63.2122C147.615 62.6717 148.105 61.5906 147.811 60.6078L147.86 60.657Z" fill="black"/>
<path d="M186.261 72.0085C186.261 72.4508 186.261 72.893 186.212 73.2861C186.163 74.6621 185.184 75.7431 183.665 75.6449C182.294 75.5957 181.265 74.4164 181.314 73.0896C181.363 72.3033 181.363 71.5171 181.363 70.7309C181.265 65.8169 180.188 61.296 178.228 57.1191C176.71 53.925 173.232 52.2051 169.95 52.9422C166.179 53.8267 162.506 55.006 158.979 56.5294C154.718 58.3476 150.653 60.608 146.833 63.2616C146.833 63.2616 146.784 63.2616 146.784 63.3107C146.735 63.3599 146.685 63.3599 146.685 63.3599C144.285 65.0306 142.032 66.8488 139.828 68.8144C134.881 73.237 131.893 82.3771 133.265 88.7653C134.195 92.8439 135.567 94.8586 136.596 95.8414C137.135 96.382 137.575 96.6768 137.869 96.8242C138.359 97.1191 139.044 97.8562 139.24 98.3967C139.485 99.1338 139.339 99.92 138.898 100.559C138.898 100.608 138.849 100.657 138.8 100.706C138.506 101.05 138.163 101.345 137.673 101.493C137.379 101.591 137.134 101.64 136.889 101.64C136.301 101.64 135.763 101.394 135.322 101.05C134.931 100.805 134.391 100.461 133.755 99.8709C132.04 98.4459 129.788 95.5957 128.514 89.7972C126.751 81.7382 130.326 70.6817 136.547 65.1289C138.555 63.3599 140.563 61.6891 142.718 60.1658C144.09 59.1338 145.559 58.2001 147.028 57.2665H147.077C149.673 55.5957 152.367 54.1707 155.11 52.893C156.628 52.1559 158.196 51.5171 159.763 50.9274C161.869 50.1412 164.024 49.4532 166.228 48.8637C167.11 48.618 167.992 48.3723 168.873 48.1757C169.657 48.0283 170.391 47.93 171.175 47.8809C175.877 47.7335 180.53 50.4852 182.685 55.006C185.134 60.2149 186.359 65.9151 186.261 72.0085Z" fill="black"/>
<path d="M178.376 108.225C177.396 107.291 177.396 105.718 178.327 104.736C178.327 104.736 178.359 104.703 178.424 104.637C176.514 105.473 174.408 106.357 172.106 107.242C171.91 107.291 171.714 107.389 171.518 107.438C171.469 107.438 171.469 107.487 171.421 107.537C161.625 111.222 149.331 114.662 143.257 115.104C141.592 112.647 139.878 109.453 138.947 106.701C138.947 106.603 138.898 106.505 138.849 106.456C138.065 103.999 137.869 101.836 138.8 100.706C138.506 101.05 138.163 101.345 137.674 101.492C137.38 101.591 137.134 101.64 136.889 101.64C136.302 101.64 135.763 101.394 135.323 101.05C134.931 100.804 134.391 100.46 133.755 99.8708C132.971 102.082 133.216 104.736 133.951 107.291C134.587 109.404 135.518 111.468 136.498 113.286C137.674 115.596 138.947 117.463 139.78 118.544C139.829 118.691 139.877 118.79 139.975 118.937C140.024 118.986 140.073 118.986 140.073 119.035C140.514 119.674 141.249 120.067 142.033 120.067C142.767 120.067 143.747 119.969 144.922 119.822C149.673 119.183 157.559 117.266 165.445 114.662C166.963 114.22 168.53 113.679 170.049 113.139C170.44 112.991 170.783 112.844 171.175 112.696C172.742 112.156 174.31 111.566 175.78 110.976C177.102 110.436 178.376 109.895 179.551 109.355C178.816 108.618 178.425 108.225 178.376 108.225ZM191.257 79.9199C191.012 76.775 189.347 73.974 186.653 72.2541C186.506 72.1558 186.408 72.1067 186.261 72.0084C184.743 71.1239 183.029 70.6816 181.363 70.7307C180.188 70.7307 179.012 70.9273 177.885 71.3696C164.465 76.4801 144.629 87.7823 136.596 95.8413C136.008 96.431 135.42 97.0207 134.979 97.6104C134.391 98.2983 134 99.0846 133.755 99.8708C132.971 102.082 133.216 104.736 133.951 107.291C134.587 109.404 135.518 111.468 136.498 113.286C137.674 115.596 138.947 117.463 139.78 118.544C139.829 118.691 139.877 118.79 139.975 118.937C140.024 118.986 140.073 118.986 140.073 119.035C140.514 119.674 141.249 120.067 142.033 120.067C142.767 120.067 143.747 119.969 144.922 119.822C149.673 119.183 157.559 117.266 165.445 114.662C166.963 114.22 168.53 113.679 170.049 113.139C170.44 112.991 170.783 112.844 171.175 112.696C172.742 112.156 174.31 111.566 175.78 110.976C177.102 110.436 178.376 109.895 179.551 109.355C181.265 108.569 182.833 107.831 184.204 107.045C184.351 106.947 184.449 106.898 184.547 106.849C187.387 105.178 189.396 103.556 190.13 102.033C190.326 101.591 190.718 100.854 191.012 99.3302C191.6 96.5293 192.089 91.0256 191.257 79.9199ZM182.196 102.721C181.412 103.163 180.433 103.655 179.404 104.146C179.159 104.244 178.914 104.392 178.669 104.539C178.572 104.539 178.473 104.588 178.424 104.637C176.514 105.473 174.408 106.357 172.106 107.242C171.91 107.291 171.714 107.389 171.518 107.438C171.469 107.438 171.469 107.487 171.421 107.537C161.625 111.222 149.331 114.662 143.257 115.104C141.592 112.647 139.878 109.453 138.947 106.701C138.947 106.603 138.898 106.505 138.849 106.456C138.065 103.999 137.869 101.836 138.8 100.706C138.849 100.657 138.898 100.608 138.898 100.559C144.531 93.8757 164.563 81.689 179.649 75.9887C180.236 75.743 180.825 75.6447 181.412 75.6447C182.343 75.6447 183.224 75.8905 184.057 76.431C185.379 77.2664 186.261 78.6914 186.359 80.3131C187.436 94.5637 186.261 98.7406 185.723 99.8708C185.429 100.51 184.547 101.247 183.225 102.082C182.931 102.279 182.587 102.475 182.196 102.721Z" fill="black"/>
<path d="M124.104 122.082C122.096 122.082 120.236 121.591 118.815 121.001C117.542 120.51 116.954 119.035 117.493 117.807C117.983 116.529 119.452 115.939 120.676 116.48C126.211 118.74 130.57 115.743 134.097 107.193C134.391 106.455 134.537 106.062 134.978 105.669C135.958 104.686 137.476 104.736 138.456 105.669C139.24 106.505 139.386 107.684 138.847 108.618L138.7 109.011C134.439 119.379 128.807 122.033 124.203 122.082H124.104Z" fill="black"/>
<path d="M227.6 123.409C217.363 125.719 210.163 128.126 206.294 129.551C204.139 130.387 203.012 130.878 202.963 130.878C202.669 131.026 202.327 131.075 201.984 131.075C201.347 131.075 200.71 130.829 200.269 130.387C200.22 130.289 200.122 130.19 200.073 130.141C199.926 129.994 199.829 129.797 199.731 129.601C199.192 128.372 199.731 126.947 200.955 126.357C201.053 126.308 201.591 126.062 202.571 125.669C205.755 124.441 213.837 121.492 226.522 118.642C230.931 117.66 232.645 116.185 231.42 110.289C230.98 108.323 227.208 103.458 223.877 101.198C220.253 98.6423 217.118 99.0846 212.367 99.7234C211.534 99.8217 210.653 99.92 209.722 100.067C202.816 100.854 194.342 103.114 184.693 106.8C184.644 106.8 184.595 106.849 184.546 106.849C184.4 106.898 184.204 106.947 184.057 106.898C182.979 106.996 181.902 106.406 181.51 105.375C181.412 105.08 181.363 104.736 181.363 104.441C181.363 103.802 181.657 103.163 182.195 102.721C182.342 102.475 182.636 102.328 182.93 102.18C183.028 102.131 183.127 102.082 183.225 102.082C185.918 101.05 188.514 100.166 191.012 99.3303C197.771 97.1681 203.844 95.7431 209.183 95.1534L211.73 94.8585C216.726 94.1706 221.429 93.5318 226.669 97.119C230.049 99.5269 235.338 105.227 236.171 109.207C238.424 119.723 232.351 122.377 227.6 123.409Z" fill="black"/>
<path d="M143.942 19.9693C143.012 21.935 142.179 24.1953 141.542 26.8489C141.199 28.1265 140.905 29.5025 140.612 30.9767C140.367 32.3035 139.044 33.1389 137.771 32.9423C136.889 32.7949 136.203 32.1561 135.91 31.3698C135.812 31.1241 135.763 30.8293 135.763 30.5344C135.763 30.387 135.763 30.2396 135.812 30.0922C136.203 27.7334 136.693 25.6696 137.281 23.7531C132.187 25.8662 126.946 27.1929 121.412 27.6843L134.342 43.0651L135.028 43.9005C135.91 44.9324 135.763 46.4558 134.734 47.3404C134.342 47.6352 133.901 47.8318 133.461 47.8809C133.363 47.93 133.215 47.93 133.117 47.93H133.02C132.383 47.8809 131.746 47.586 131.256 47.0455L129.003 44.3428L114.456 27.0946C114.456 27.0946 114.211 26.7015 114.113 26.505C114.064 26.4558 114.016 26.4067 114.065 26.3576C113.869 25.9153 113.869 25.4239 113.967 24.9816C113.967 24.8342 114.016 24.6868 114.065 24.5885C114.065 24.5394 114.113 24.4902 114.113 24.4411C114.113 24.2937 114.261 24.1463 114.359 24.048C114.408 23.9988 114.408 23.9497 114.456 23.9006H114.505C114.946 23.36 115.583 23.016 116.318 23.016C118.228 23.016 120.138 22.9178 121.95 22.6721C128.563 21.9841 134.685 19.9693 140.612 16.7261C141.542 16.2347 142.718 16.3821 143.452 17.1192C144.236 17.8563 144.432 18.9865 143.942 19.9693Z" fill="black"/>
<path d="M173.672 9.6008V9.79736L171.174 47.8809L171.028 50.4851C170.93 51.8119 169.803 52.893 168.383 52.7947C167.06 52.6964 166.032 51.5171 166.13 50.1411L166.227 48.8637L168.334 16.5786C158.783 25.7678 146.243 30.5345 141.149 32.2052L147.076 57.2665V57.5613L147.86 60.6571C148.154 61.6399 147.664 62.721 146.831 63.2615C146.831 63.2615 146.782 63.2615 146.782 63.3107C146.782 63.3107 146.749 63.3274 146.684 63.3598C146.684 63.3598 146.292 63.5564 146.047 63.6055H145.949C145.949 63.6055 145.656 63.6547 145.509 63.6547C144.97 63.6547 144.432 63.4581 143.991 63.1633C143.844 63.0158 143.696 62.8684 143.598 62.721C143.354 62.4753 143.207 62.1313 143.109 61.7873L142.717 60.1657L142.472 59.1829L139.288 45.6205L135.909 31.3698L135.811 31.075C135.811 31.075 135.762 30.731 135.762 30.5344C135.762 29.4533 136.496 28.4214 137.574 28.1266C137.623 28.0775 139.142 27.6843 141.542 26.8489C147.419 24.6867 158.685 19.7728 166.57 11.3207C167.55 10.3379 168.48 9.25677 169.313 8.12655C169.803 7.48773 170.537 7.1438 171.272 7.1438C171.419 7.1438 171.615 7.19294 171.811 7.24208C171.909 7.24208 172.007 7.24208 172.105 7.24208C172.301 7.29122 172.448 7.3895 172.595 7.53692C172.791 7.68434 172.986 7.83176 173.182 8.07746C173.329 8.27402 173.476 8.51972 173.525 8.76542C173.623 9.01112 173.672 9.25682 173.672 9.55166V9.6008Z" fill="black"/>
<path d="M173.672 9.60069V9.7973C173.672 9.7973 173.672 9.99381 173.623 10.1412C173.329 11.468 172.056 12.3526 170.684 12.0086C169.264 11.6646 167.893 11.4681 166.57 11.3206C155.207 9.94472 148.35 14.3673 148.252 14.4164C147.615 14.8587 146.831 14.957 146.096 14.7113C145.362 14.4656 144.774 13.8759 144.579 13.1388C143.648 10.1904 140.611 8.27396 139.191 7.53686C134.293 9.7973 126.897 17.2174 121.95 22.672C120.432 24.3919 119.109 25.9152 118.228 27.0455C117.738 27.6351 117.052 27.9299 116.317 27.9299C115.778 27.9299 115.239 27.7825 114.749 27.3894L114.456 27.0945C114.456 27.0945 114.211 26.7015 114.113 26.5049C114.064 26.4558 114.015 26.4066 114.064 26.3575C113.868 25.9152 113.819 25.4238 113.966 24.9816C113.966 24.8342 114.015 24.6867 114.064 24.5885C114.113 24.3919 114.211 24.1953 114.358 24.0479C114.407 23.9988 114.407 23.9496 114.456 23.9005H114.505C116.17 21.8366 129.787 5.52206 138.456 2.52453C138.995 2.32797 139.582 2.37715 140.121 2.57371C140.366 2.67199 145.362 4.63758 148.056 9.01106C151.925 7.29115 160.105 4.6867 171.272 7.14369C171.419 7.14369 171.615 7.19287 171.811 7.24201C172.105 7.24201 172.349 7.43853 172.594 7.58595C172.79 7.73337 172.986 7.88079 173.182 8.12649C173.329 8.32305 173.476 8.56875 173.525 8.81445C173.623 9.06015 173.672 9.30585 173.672 9.60069Z" fill="black"/>
<path d="M157.803 56.824C156.579 56.824 155.55 55.9395 155.403 54.711L153.493 40.5096C153.297 39.1829 154.228 37.9051 155.599 37.7577C156.97 37.512 158.195 38.4949 158.342 39.8708L160.252 54.0722C160.448 55.399 159.517 56.6766 158.146 56.824C158.048 56.824 157.901 56.824 157.803 56.824Z" fill="black"/>
<path d="M220.008 189.207C211.289 199.871 193.754 205.325 167.991 205.325H167.403C132.579 205.227 120.089 192.844 115.73 182.475C112.155 174.023 112.84 164.637 115.534 156.284C116.219 154.22 117.003 152.205 117.885 150.338C120.285 145.08 123.37 140.51 126.407 137.365C136.105 125.571 139.044 120.755 139.975 118.937C139.877 118.79 139.828 118.691 139.779 118.544C139.24 117.316 139.877 115.841 141.101 115.35C142.424 114.76 143.893 115.153 144.677 116.234C145.216 116.972 145.754 117.66 144.921 119.822C143.795 122.77 140.024 128.47 130.032 140.657C127.24 143.556 124.301 147.881 122.097 152.893C121.95 153.139 121.853 153.434 121.755 153.679C121.755 153.728 121.706 153.728 121.706 153.777C118.228 162.033 116.66 172.008 120.236 180.559C125.672 193.483 141.983 200.313 167.403 200.411H167.991C192.236 200.411 208.448 195.596 216.236 186.063C221.134 180.067 222.603 172.205 220.644 162.623C218.881 153.925 214.424 145.473 207.763 138.298C205.167 135.497 202.669 132.893 200.269 130.387C200.22 130.289 200.122 130.19 200.073 130.141C190.032 119.674 182.342 112.107 179.551 109.355C178.816 108.618 178.424 108.225 178.375 108.225C177.395 107.291 177.395 105.719 178.326 104.736C178.326 104.736 178.358 104.703 178.424 104.637C178.424 104.637 178.571 104.539 178.669 104.539C178.914 104.392 179.159 104.244 179.404 104.146C180.04 103.9 180.775 103.999 181.363 104.441C181.51 104.441 181.657 104.539 181.804 104.687C181.804 104.687 182.636 105.473 184.056 106.898L184.204 107.045C187.583 110.338 194.195 116.972 202.571 125.669C203.746 126.898 204.971 128.176 206.293 129.551C207.91 131.271 209.575 133.09 211.338 134.957C218.587 142.819 223.485 152.008 225.444 161.64C227.697 172.746 225.885 181.984 220.008 189.207Z" fill="black"/>
<path d="M173.331 166.554C173.331 166.554 172.891 166.554 172.695 166.456C171.372 166.112 170.588 164.736 170.98 163.458C174.703 149.404 165.005 112.844 164.907 112.451C164.564 111.124 165.348 109.797 166.621 109.453C167.944 109.109 169.266 109.846 169.609 111.173C170.05 112.745 179.747 149.404 175.682 164.686C175.388 165.768 174.409 166.505 173.331 166.505V166.554Z" fill="black"/>
<path d="M182.196 145.62C180.972 145.62 179.894 144.687 179.747 143.409C178.425 128.913 170.393 110.829 170.295 110.633C169.756 109.404 170.295 107.93 171.519 107.389C172.744 106.8 174.212 107.389 174.751 108.618C175.094 109.404 183.176 127.635 184.596 142.918C184.743 144.294 183.714 145.473 182.392 145.571C182.294 145.571 182.245 145.571 182.147 145.571L182.196 145.62Z" fill="black"/>
<path d="M216.187 183.837C208.399 193.339 192.187 198.139 167.942 198.139H167.355C141.934 198.041 125.624 191.184 120.187 178.351C116.612 169.829 118.179 159.837 121.657 151.608C121.706 151.559 121.755 151.462 121.755 151.413C121.95 151.217 121.999 151.021 122.048 150.776C124.253 145.78 127.191 141.47 129.983 138.58C139.975 126.433 143.746 120.751 144.873 117.813C149.624 117.176 157.51 115.266 165.395 112.67C167.404 120.751 174.065 149.257 170.881 161.306C170.538 162.629 171.322 163.951 172.595 164.294C172.791 164.343 173.036 164.392 173.232 164.392C174.31 164.392 175.289 163.657 175.583 162.58C179.208 149.11 172.057 119.086 169.999 111.151C170.391 111.004 170.734 110.857 171.126 110.71C173.281 115.853 178.62 129.715 179.697 141.323C179.795 142.596 180.873 143.576 182.146 143.576C182.195 143.576 182.293 143.527 182.342 143.527C183.714 143.429 184.693 142.253 184.546 140.882C183.42 128.588 177.983 114.433 175.73 108.996C177.053 108.457 178.326 107.919 179.502 107.38C182.293 110.074 189.983 117.617 199.975 128.049C200.073 128.196 200.171 128.294 200.318 128.392C202.669 130.841 205.167 133.486 207.714 136.229C214.375 143.38 218.832 151.755 220.595 160.474C222.555 170.025 221.085 177.862 216.187 183.837Z" fill="#FFD25C"/>
<path d="M168.285 14.9065L166.179 47.0861C163.975 47.6738 161.82 48.3596 159.714 49.1432L158.244 38.0739C158.097 36.7514 156.873 35.7228 155.502 35.9677C154.179 36.1636 153.248 37.3882 153.395 38.7596L155.061 51.1024C152.318 52.3269 149.624 53.7963 147.028 55.4616L141.102 30.482C146.195 28.8167 158.734 24.0657 168.285 14.9065Z" fill="#FFD25C"/>
<path d="M139.192 43.8046C138.898 43.6086 138.654 43.4127 138.409 43.1678C137.282 42.1393 135.861 41.5025 134.343 41.3065H134.294L121.314 25.976C126.898 25.4862 132.139 24.1637 137.233 22.0576C136.645 23.9678 136.155 26.0249 135.763 28.3759C135.763 28.5229 135.763 28.6699 135.763 28.8168C135.763 29.0127 135.763 29.1597 135.763 29.3556L135.861 29.6495L139.192 43.8046Z" fill="#FFD25C"/>
<path d="M15.3717 184.768C14.3921 183.053 13.5105 181.192 12.6288 179.331C10.9145 175.608 9.39623 171.592 8.07378 167.38C8.07378 167.38 7.97582 167.037 7.92684 166.841C7.87786 166.743 7.82893 166.645 7.82893 166.547C6.7024 162.776 5.67378 158.759 4.98806 154.645C4.69419 153.176 4.49832 151.755 4.3024 150.286C3.91056 147.69 3.66561 145.143 3.46969 142.596C2.83295 132.213 3.71463 122.466 5.96771 114.139C6.01669 113.943 6.01669 113.747 6.11464 113.6C6.11464 113.502 6.16358 113.355 6.21255 113.257C6.70235 111.592 7.1922 110.025 7.82893 108.506C22.6697 109.878 40.1064 108.8 56.0737 106.988C56.0248 106.89 55.9758 106.792 55.9268 106.743C55.7309 106.4 55.535 106.057 55.2901 105.715L5.13496 108.506C4.49822 110.025 4.00852 111.592 3.51872 113.257C3.46974 113.355 3.42066 113.502 3.42066 113.6C3.3227 113.747 3.32271 113.943 3.27373 114.139C1.02067 122.466 0.139134 132.213 0.775869 142.596C0.971787 145.143 1.2166 147.69 1.60844 150.286C1.80436 151.755 2.00035 153.176 2.29423 154.645C2.97994 158.759 4.00842 162.776 5.13496 166.547C5.13496 166.645 5.18403 166.743 5.23301 166.841C5.28199 167.037 5.33097 167.184 5.37995 167.331C6.7024 171.592 8.22077 175.608 9.93505 179.331C10.8167 181.192 11.6983 183.053 12.6779 184.768C16.1064 191.135 20.0738 196.523 24.433 200.539C31.437 207.151 39.2248 210.384 46.8657 209.013C56.1227 207.298 63.3227 199.168 67.437 187.315C69.5921 181.143 70.8656 173.992 71.2574 166.253L15.4207 184.768H15.3717Z" fill="black"/>
<path d="M147.813 58.7923L147.715 58.4005C147.715 57.9107 147.568 57.4209 147.421 56.9801C147.372 56.7842 147.372 56.5882 147.274 56.4413L147.078 55.7556C147.078 55.7556 147.029 55.5597 146.981 55.4617C145.315 50.2209 142.132 46.4494 139.242 43.8535H139.193C138.899 43.6086 138.654 43.4126 138.409 43.1677C137.283 42.1392 135.862 41.5024 134.344 41.3065H134.295C133.658 41.2085 133.119 41.2086 132.483 41.2575C131.895 41.3065 131.307 41.4535 130.768 41.6494C130.132 41.8453 129.495 42.1881 128.956 42.58C128.172 43.0698 127.487 43.7065 126.899 44.4412C121.952 50.9066 114.801 57.3229 110.981 60.5556C106.034 64.7678 103.438 71.2331 104.025 77.8454C104.515 83.7719 102.36 93.5189 101.527 97.1434C96.4336 98.2209 78.8009 101.894 58.3764 104.343C38.0497 106.694 21.1518 107.331 8.07424 106.058C7.04567 106.058 6.01705 106.596 5.57623 107.576C5.42929 107.87 5.33143 108.213 5.23347 108.507C4.74368 109.829 4.35174 111.054 4.05787 112.18C3.95991 112.327 3.91102 112.523 3.86207 112.719C3.71513 113.062 3.66606 113.356 3.61708 113.503C1.31504 122.123 0.384479 132.262 1.07019 142.792C1.26611 145.388 1.51093 147.984 1.90276 150.629C2.09868 152.147 2.29467 153.617 2.58855 155.037C3.22529 158.809 4.15592 162.776 5.52735 167.282C5.52735 167.38 5.57628 167.478 5.62526 167.625V167.821C5.62526 167.821 5.72322 168.017 5.7722 168.115C6.80077 171.445 7.92735 174.58 9.20082 177.617C9.64164 178.596 10.0824 179.625 10.5232 180.605C10.7681 181.143 11.013 181.633 11.2579 182.123C11.8946 183.445 12.5804 184.768 13.2661 185.992C13.364 186.188 13.511 186.384 13.658 186.531C14.1478 186.972 14.7354 187.217 15.3722 187.217C15.666 187.217 15.9109 187.168 16.1558 187.119L71.0621 168.898L115.487 154.156L118.866 153.029L120.434 152.539C120.923 152.343 121.364 152.049 121.658 151.609C121.707 151.56 121.756 151.462 121.756 151.413C121.854 151.217 121.952 150.972 122.05 150.776C122.148 150.335 122.148 149.894 122.001 149.454C121.805 148.915 121.511 148.474 121.07 148.18C120.434 147.739 119.65 147.641 118.915 147.886L117.838 148.229L16.5966 181.829C16.0089 180.703 15.4702 179.576 14.8825 178.303C13.2171 174.776 11.7478 170.858 10.4253 166.645C10.3763 166.498 10.3273 166.303 10.3273 166.205C10.2783 166.156 10.2783 166.058 10.2293 165.96C10.2293 165.96 10.213 165.927 10.1803 165.862C8.90684 161.6 8.02526 157.78 7.43751 154.156C7.14363 152.784 6.94776 151.413 6.75184 149.943C6.36 147.396 6.11506 144.898 5.91914 142.449C5.33138 132.605 6.11506 123.2 8.36812 114.727C8.51506 114.482 8.56409 114.335 8.56409 113.943C8.85796 112.964 9.15184 112.033 9.4947 111.103C22.6212 112.18 39.2253 111.494 58.9152 109.192C83.356 106.254 103.829 101.649 104.074 101.6C104.956 101.405 105.642 100.719 105.887 99.8372C106.034 99.2495 109.609 85.6821 108.874 77.4046C108.434 72.3107 110.393 67.5107 114.164 64.278C118.132 60.9474 125.576 54.2862 130.817 47.38C131.307 46.6943 132.14 46.2535 132.972 46.1555H133.07C133.07 46.1555 133.315 46.1555 133.413 46.1066C134.05 46.1066 134.687 46.4004 135.225 46.8412C137.821 49.0944 141.054 52.5719 142.425 57.3719L142.67 58.3515L143.062 59.9678C143.062 59.9678 143.209 60.3597 143.307 60.5556C143.356 60.7025 143.454 60.8005 143.552 60.8984C143.65 61.0454 143.797 61.1923 143.944 61.2903C143.944 61.2903 144.14 61.4372 144.238 61.4862C144.385 61.5842 144.532 61.6331 144.678 61.6821C144.874 61.7801 145.07 61.7801 145.266 61.7801C145.315 61.7801 145.413 61.8291 145.462 61.8291H145.805C145.805 61.8291 145.854 61.8291 145.903 61.7801H146.001C146.295 61.7311 146.54 61.5842 146.785 61.4372C146.883 61.3882 146.932 61.3393 147.029 61.2413C147.127 61.1923 147.225 61.0944 147.274 60.9964C147.421 60.8005 147.568 60.6046 147.666 60.4087C147.666 60.3107 147.764 60.1638 147.813 60.0658C147.911 59.674 147.96 59.2331 147.813 58.7923Z" fill="black"/>
<path d="M186.212 70.1554C186.212 70.5962 186.213 71.037 186.164 71.4288C186.115 72.7513 185.135 73.8778 183.616 73.7799C182.245 73.6819 181.217 72.5554 181.266 71.184C181.315 70.4003 181.314 69.6656 181.314 68.8819C181.216 64.0329 180.139 59.4778 178.18 55.3146C176.662 52.1309 173.184 50.4166 169.902 51.1513C166.131 52.0329 162.457 53.2084 158.931 54.7268C154.669 56.5391 150.604 58.7431 146.784 61.437C144.335 63.1023 142.033 64.9635 139.78 66.9717C134.833 71.3799 131.845 80.4901 133.216 86.8574C134.147 90.9227 135.519 92.9309 136.547 93.9105C137.086 94.4493 137.526 94.7431 137.82 94.8901C138.31 95.184 138.996 95.9186 139.192 96.4574C139.437 97.1921 139.29 98.0248 138.849 98.6125C138.849 98.6615 138.8 98.7105 138.751 98.7595C138.457 99.1023 138.115 99.3962 137.625 99.5431C137.331 99.6411 137.086 99.6411 136.841 99.6411C136.253 99.6411 135.714 99.4452 135.273 99.0533C134.882 98.8084 134.343 98.4656 133.706 97.8778C131.992 96.5064 129.739 93.6656 128.465 87.886C126.653 79.8533 130.277 68.8329 136.498 63.2982C138.506 61.535 140.515 59.8697 142.67 58.3513C143.698 57.5676 144.825 56.8329 145.902 56.1472C146.245 55.9023 146.588 55.6574 146.98 55.4615C146.98 55.4615 146.996 55.4615 147.028 55.4615C149.624 53.7962 152.319 52.3268 155.062 51.1023C156.58 50.3676 158.147 49.7309 159.714 49.1431C161.82 48.3595 163.975 47.6738 166.179 47.086C167.061 46.8411 167.943 46.5962 168.825 46.4003H168.922C169.657 46.2044 170.392 46.1554 171.127 46.1065C175.829 45.9595 180.482 48.7024 182.637 53.2084C185.086 58.4003 186.31 64.0819 186.212 70.1554Z" fill="black"/>
<path d="M178.327 106.254C178.327 106.254 178.13 106.009 178.081 105.862C177.347 104.98 177.445 103.658 178.277 102.776C178.277 102.776 178.31 102.743 178.375 102.678C176.465 103.511 174.359 104.392 172.057 105.274C171.763 105.372 171.469 105.47 171.175 105.617C161.379 109.241 149.232 112.621 143.208 113.111C141.543 110.662 139.828 107.478 138.898 104.735C138.898 104.637 138.849 104.539 138.8 104.49C138.016 102.041 137.82 99.8862 138.751 98.7596C138.457 99.1025 138.114 99.3964 137.625 99.5433C137.331 99.6413 137.086 99.6413 136.841 99.6413C136.253 99.6413 135.714 99.4454 135.273 99.0535C134.881 98.8086 134.343 98.4658 133.706 97.878C132.922 100.131 133.168 102.727 133.951 105.323C134.539 107.429 135.469 109.486 136.449 111.298C137.673 113.6 138.898 115.462 139.731 116.539C139.78 116.686 139.829 116.784 139.927 116.931C139.976 116.98 140.024 116.98 140.024 117.029C140.318 117.47 140.808 117.813 141.298 117.96C141.543 118.009 141.738 118.058 141.983 118.058C142.718 118.058 143.698 117.96 144.873 117.813C149.624 117.176 157.51 115.266 165.396 112.67C166.914 112.229 168.481 111.69 170 111.151C170.392 111.005 170.735 110.858 171.127 110.711C172.694 110.172 174.261 109.584 175.731 108.996C177.053 108.458 178.326 107.919 179.502 107.38C178.767 106.645 178.376 106.254 178.327 106.254ZM191.208 78.0413C190.963 74.9066 189.298 72.1147 186.604 70.4005C186.457 70.3025 186.359 70.2535 186.212 70.1556C184.694 69.2739 182.979 68.8331 181.314 68.8821C180.138 68.8821 178.963 69.078 177.836 69.5188C164.416 74.6127 144.58 85.878 136.547 93.9107C135.959 94.4984 135.371 95.0862 134.93 95.6739C134.392 96.3596 133.951 97.0943 133.706 97.878C132.922 100.131 133.168 102.727 133.951 105.323C134.539 107.429 135.469 109.486 136.449 111.298C137.673 113.6 138.898 115.462 139.731 116.539C139.78 116.686 139.829 116.784 139.927 116.931C139.976 116.98 140.024 116.98 140.024 117.029C140.318 117.47 140.808 117.813 141.298 117.96C141.543 118.009 141.738 118.058 141.983 118.058C142.718 118.058 143.698 117.96 144.873 117.813C149.624 117.176 157.51 115.266 165.396 112.67C166.914 112.229 168.481 111.69 170 111.151C170.392 111.005 170.735 110.858 171.127 110.711C172.694 110.172 174.261 109.584 175.731 108.996C177.053 108.458 178.326 107.919 179.502 107.38C180.432 106.939 181.265 106.547 182.098 106.107C182.783 105.764 183.469 105.421 184.106 105.029C184.253 104.98 184.351 104.931 184.449 104.882C187.29 103.217 189.347 101.551 190.081 100.033C190.277 99.5923 190.62 98.8576 190.963 97.3882C191.551 94.5964 192.041 89.1596 191.208 78.0413ZM182.147 100.768C181.363 101.209 180.383 101.698 179.355 102.188C179.11 102.286 178.865 102.433 178.621 102.58C178.523 102.58 178.424 102.629 178.375 102.678C176.465 103.511 174.359 104.392 172.057 105.274C171.763 105.372 171.469 105.47 171.175 105.617C161.379 109.241 149.232 112.621 143.208 113.111C141.543 110.662 139.828 107.478 138.898 104.735C138.898 104.637 138.849 104.539 138.8 104.49C138.016 102.041 137.82 99.8862 138.751 98.7596C138.8 98.7107 138.849 98.6617 138.849 98.6127C144.482 91.9515 164.514 79.8045 179.6 74.0739C180.187 73.878 180.776 73.7801 181.363 73.7801C182.294 73.7801 183.176 74.025 184.008 74.5637C185.331 75.3964 186.212 76.8168 186.31 78.4331C187.388 92.6372 186.212 96.8005 185.674 97.927C185.38 98.5637 184.498 99.2984 183.175 100.131C182.881 100.327 182.539 100.523 182.147 100.768Z" fill="black"/>
<path d="M124.009 120.066C122.001 120.066 120.14 119.576 118.719 118.988C117.446 118.498 116.858 117.029 117.397 115.804C117.887 114.531 119.356 113.943 120.581 114.482C126.115 116.735 130.475 113.747 134.001 105.225C134.295 104.49 134.442 104.098 134.883 103.706C135.862 102.727 137.381 102.776 138.36 103.706C139.144 104.539 139.291 105.715 138.752 106.645L138.605 107.037C134.344 117.372 128.711 120.017 124.107 120.066H124.009Z" fill="black"/>
<path d="M227.551 121.388C217.314 123.69 210.114 126.09 206.245 127.511C204.972 128 204.041 128.343 203.502 128.539C203.11 128.686 202.914 128.784 202.914 128.784C202.621 128.931 202.278 129.029 201.935 129.029C201.347 129.029 200.759 128.833 200.319 128.392C200.172 128.245 200.074 128.147 199.976 128.049C199.829 127.902 199.78 127.756 199.682 127.56C199.29 126.629 199.486 125.551 200.221 124.866C200.368 124.67 200.612 124.474 200.906 124.327C201.004 124.278 201.544 124.033 202.523 123.641C205.707 122.417 213.788 119.429 226.474 116.588C230.882 115.609 232.596 114.188 231.323 108.262C230.931 106.351 227.159 101.502 223.829 99.2005C220.204 96.7025 217.07 97.1433 212.319 97.78C211.486 97.878 210.604 97.976 209.674 98.0739C202.719 98.9066 194.294 101.16 184.645 104.833C184.596 104.833 184.498 104.882 184.449 104.882C184.302 104.931 184.156 104.98 184.009 104.931C182.931 105.029 181.853 104.441 181.461 103.413C181.363 103.119 181.314 102.776 181.314 102.482C181.314 101.845 181.608 101.209 182.147 100.768C182.294 100.523 182.588 100.376 182.882 100.229C182.98 100.229 183.078 100.131 183.176 100.131C185.87 99.1025 188.465 98.2209 190.963 97.3882C197.723 95.2331 203.796 93.8127 209.135 93.2249L211.682 92.8821C216.678 92.2453 221.38 91.6086 226.621 95.1841C230 97.5351 235.29 103.266 236.123 107.233C238.376 117.715 232.302 120.311 227.551 121.388Z" fill="black"/>
<path d="M143.894 18.2859C142.914 20.2451 142.131 22.4982 141.494 25.1431C141.249 25.8288 141.102 26.6124 140.955 27.3961C140.808 27.9838 140.661 28.5715 140.563 29.2083C140.318 30.5797 138.996 31.4124 137.723 31.2165C136.841 31.0696 136.155 30.4329 135.861 29.6492C135.763 29.4043 135.714 29.1104 135.714 28.8165C135.714 28.6696 135.714 28.5226 135.714 28.3757C136.106 26.0247 136.596 23.9675 137.184 22.0573C132.09 24.1634 126.849 25.4859 121.265 25.9757L134.245 41.3063H134.294L134.931 42.09C135.616 42.9716 135.665 44.1472 135.078 45.0288C134.98 45.2247 134.833 45.4206 134.637 45.5676C134.245 45.8614 133.804 46.0574 133.363 46.1063C133.265 46.1553 133.118 46.1553 133.02 46.1553H132.923C132.286 46.1063 131.649 45.8125 131.159 45.2737L128.906 42.5798L114.653 25.6818H114.604L114.359 25.3389C114.212 25.192 114.114 24.9961 114.016 24.8002C113.967 24.7022 113.918 24.6042 113.918 24.5063C113.82 24.3104 113.771 24.0655 113.771 23.8206C113.771 23.5267 113.82 23.2818 113.918 23.0369C113.918 22.9879 113.967 22.9389 113.967 22.9389C113.967 22.89 113.967 22.792 114.016 22.743C114.065 22.5961 114.163 22.4491 114.261 22.3512C114.31 22.3022 114.31 22.2532 114.359 22.2042H114.408C114.849 21.6655 115.486 21.3226 116.22 21.3226C118.131 21.3226 119.992 21.2247 121.853 20.9798C128.416 20.294 134.588 18.2858 140.514 15.0532C141.445 14.5144 142.62 14.6614 143.355 15.4451C144.139 16.1798 144.335 17.3063 143.845 18.2859H143.894Z" fill="black"/>
<path d="M173.625 8.14742L171.127 46.1066L170.98 48.7025C170.882 50.0249 169.755 51.1025 168.335 50.9555C167.258 50.9555 166.425 50.1719 166.229 49.1923C166.082 48.9474 166.082 48.6535 166.082 48.3596L166.18 47.0862L168.286 14.9066C158.735 24.0657 146.196 28.8168 141.102 30.4821L147.029 55.4617V55.7066L147.078 55.7555L147.274 56.4413L147.372 57.029L147.715 58.4004L147.813 58.7923C147.96 59.2331 147.911 59.6739 147.813 60.0657C147.764 60.1637 147.715 60.3106 147.666 60.4086C147.568 60.6045 147.421 60.8004 147.274 60.9964C147.225 61.0943 147.127 61.1923 147.029 61.2413C146.931 61.3392 146.882 61.3882 146.784 61.4372C146.539 61.5841 146.294 61.7311 146 61.78H145.902C145.902 61.78 145.707 61.829 145.609 61.829H145.462C145.168 61.829 144.923 61.78 144.678 61.6821C144.531 61.6331 144.384 61.5841 144.237 61.4862C144.139 61.4372 144.041 61.3882 143.943 61.2902C143.796 61.1923 143.649 61.0453 143.551 60.8984C143.453 60.8004 143.356 60.7025 143.307 60.5555C143.209 60.3596 143.111 60.1637 143.062 59.9678L142.67 58.3515L142.425 57.3719L140.074 47.527L139.241 43.8535H139.192L135.862 29.6495L135.764 29.3556C135.764 29.3556 135.764 29.0127 135.764 28.8168C135.764 27.7393 136.498 26.7107 137.576 26.4168C137.625 26.4168 137.968 26.3188 138.604 26.1229C139.29 25.878 140.319 25.5842 141.543 25.1433C147.421 22.9882 158.686 18.0903 166.572 9.66579C167.551 8.6862 168.482 7.6086 169.315 6.48207C169.951 5.69839 171.029 5.30656 172.009 5.64941C172.253 5.69839 172.498 5.84538 172.694 5.99232C173.38 6.48212 173.723 7.26579 173.674 8.14742H173.625Z" fill="black"/>
<path d="M116.269 26.2207C115.73 26.2207 115.192 26.0249 114.702 25.6821C113.673 24.8004 113.526 23.282 114.359 22.2534C115.877 20.3922 129.641 3.88611 138.359 0.947336C138.898 0.751418 139.485 0.800397 140.024 0.947336C140.269 1.0453 145.265 3.00447 147.959 7.36364C151.877 5.60037 160.253 2.95551 171.714 5.55144C173.036 5.84532 173.869 7.16772 173.575 8.49017C173.281 9.81262 172.008 10.6453 170.636 10.3514C156.824 7.2167 148.302 12.7024 148.204 12.7513C147.567 13.1922 146.734 13.2902 146 12.9963C145.265 12.7514 144.726 12.1636 144.481 11.4289C143.6 8.49017 140.563 6.62899 139.094 5.84532C132.677 8.7841 121.902 20.7351 118.13 25.2902C117.641 25.878 116.955 26.1718 116.22 26.1718L116.269 26.2207Z" fill="black"/>
<path d="M160.155 52.2289C160.302 53.3064 159.763 54.237 158.931 54.7268C158.686 54.8738 158.392 54.9717 158.098 55.0207H157.755C156.776 55.0207 155.943 54.4819 155.551 53.6003C155.404 53.4044 155.355 53.1595 155.306 52.9146L155.061 51.1023L153.396 38.7595C153.249 37.3881 154.18 36.1636 155.502 35.9676C156.874 35.7227 158.098 36.7514 158.245 38.0738L159.714 49.1431L160.106 51.7391V52.2289H160.155Z" fill="black"/>
<path d="M219.959 186.972C211.24 197.6 193.706 203.037 167.942 203.037H167.355C132.53 202.89 120.04 190.596 115.681 180.262C112.106 171.837 112.791 162.433 115.485 154.155C116.171 152.098 116.955 150.09 117.836 148.229C120.236 142.988 123.322 138.433 126.359 135.298C136.008 123.543 138.995 118.743 139.926 116.931C139.828 116.784 139.779 116.686 139.73 116.539C139.191 115.266 139.828 113.845 141.052 113.355C142.277 112.817 143.599 113.111 144.432 113.992C144.481 114.041 144.579 114.139 144.628 114.237C145.167 114.972 145.706 115.657 144.873 117.813C143.746 120.751 139.975 126.433 129.983 138.58C127.191 141.47 124.252 145.78 122.048 150.776C121.95 150.972 121.852 151.217 121.755 151.413C121.755 151.462 121.706 151.56 121.657 151.608C118.179 159.837 116.612 169.829 120.187 178.351C125.624 191.184 141.934 198.041 167.355 198.139H167.942C192.187 198.139 208.399 193.339 216.187 183.837C221.085 177.862 222.555 170.025 220.595 160.474C218.832 151.755 214.375 143.38 207.714 136.229C205.167 133.486 202.669 130.841 200.318 128.392C200.171 128.245 200.073 128.147 199.975 128.049C189.983 117.617 182.293 110.074 179.501 107.38C178.767 106.645 178.375 106.253 178.326 106.253C178.228 106.155 178.13 106.008 178.081 105.862C177.346 104.98 177.444 103.657 178.277 102.776C178.277 102.776 178.31 102.743 178.375 102.678C178.375 102.678 178.522 102.58 178.62 102.58C178.865 102.433 179.11 102.286 179.355 102.188C179.991 101.943 180.726 102.041 181.314 102.482C181.461 102.482 181.608 102.629 181.706 102.727C181.706 102.727 182.538 103.511 184.008 104.931C184.008 104.98 184.057 104.98 184.106 105.029C187.485 108.311 194.146 114.874 202.522 123.641C203.697 124.866 204.922 126.139 206.244 127.511C207.861 129.225 209.526 131.037 211.289 132.898C218.538 140.735 223.436 149.894 225.395 159.494C227.648 170.564 225.836 179.772 219.959 186.972Z" fill="black"/>
<path d="M175.583 162.58C175.289 163.658 174.309 164.392 173.232 164.392C173.036 164.392 172.791 164.343 172.595 164.294C171.322 163.951 170.538 162.629 170.881 161.307C174.065 149.258 167.403 120.751 165.395 112.67C165.052 111.347 164.807 110.564 164.807 110.515C164.661 110.025 164.661 109.486 164.807 109.045C165.052 108.311 165.64 107.674 166.473 107.478C167.354 107.233 168.236 107.527 168.775 108.115C169.118 108.409 169.363 108.8 169.461 109.241C169.51 109.437 169.705 110.074 169.95 111.151C172.007 119.086 179.158 149.111 175.534 162.58H175.583Z" fill="black"/>
<path d="M184.547 140.882C184.694 142.253 183.714 143.429 182.343 143.527C182.294 143.527 182.196 143.576 182.147 143.576C180.873 143.576 179.796 142.596 179.698 141.323C178.62 129.715 173.281 115.853 171.126 110.711C170.588 109.437 170.245 108.702 170.245 108.702C170.098 108.408 170.049 108.115 170.049 107.821C170.049 106.939 170.392 106.106 171.175 105.617C171.273 105.519 171.371 105.47 171.469 105.421C171.665 105.323 171.861 105.274 172.057 105.274C173.135 105.078 174.261 105.617 174.702 106.694C174.8 106.841 175.143 107.674 175.73 108.996C177.984 114.433 183.42 128.588 184.547 140.882Z" fill="black"/>
</svg>
