<svg width="243" height="205" viewBox="0 0 243 205" fill="none" xmlns="http://www.w3.org/2000/svg">
<path d="M27.6333 165.609C29.4666 187.444 58.7399 202.81 93.0159 199.932C127.292 197.053 153.592 177.02 151.759 155.185C149.925 133.35 120.652 117.984 86.3759 120.862C52.0999 123.741 25.7999 143.774 27.6333 165.609Z" fill="white"/>
<path d="M27.6333 165.609C29.4666 187.444 58.7399 202.81 93.0159 199.932C127.292 197.053 153.592 177.02 151.759 155.185C149.925 133.35 120.652 117.984 86.3759 120.862C52.0999 123.741 25.7999 143.774 27.6333 165.609Z" stroke="black" stroke-width="9.33333" stroke-miterlimit="10" stroke-linecap="round"/>
<path d="M49.2341 153.35C7.57945 136.028 5.27545 96.6355 13.1261 81.5088C13.1261 81.5088 -8.58455 33.2862 21.7888 14.1782C48.8541 -2.84981 59.6554 25.4622 59.6554 25.4622C59.6554 25.4622 66.7848 5.54219 84.3888 5.61285C101.107 5.67952 105.578 23.8369 105.578 23.8369C105.578 23.8369 114.571 4.88619 139.107 13.6062C155.507 19.4369 158.777 49.2889 158.777 49.2889C234.209 -2.51647 251.091 60.7502 228.247 77.8502C206.829 93.8835 185.666 79.5049 175.431 97.0502C160.834 122.08 149.103 149.937 117.038 158.793" fill="white"/>
<path d="M49.2341 153.35C7.57945 136.028 5.27545 96.6355 13.1261 81.5088C13.1261 81.5088 -8.58455 33.2862 21.7888 14.1782C48.8541 -2.84981 59.6554 25.4622 59.6554 25.4622C59.6554 25.4622 66.7848 5.54219 84.3888 5.61285C101.107 5.67952 105.578 23.8369 105.578 23.8369C105.578 23.8369 114.571 4.88619 139.107 13.6062C155.507 19.4369 158.777 49.2889 158.777 49.2889C234.209 -2.51647 251.091 60.7502 228.247 77.8502C206.829 93.8835 185.666 79.5049 175.431 97.0502C160.834 122.08 149.103 149.937 117.038 158.793" stroke="black" stroke-width="9.33333" stroke-miterlimit="10" stroke-linecap="round"/>
<path d="M58.0339 57.725C58.0339 57.725 52.9605 33.7903 63.1392 18.917" stroke="black" stroke-width="9.33333" stroke-miterlimit="10" stroke-linecap="round"/>
<path d="M101.757 59.1559C101.757 59.1559 97.341 32.2239 108.585 19.9145" stroke="black" stroke-width="9.33333" stroke-miterlimit="10" stroke-linecap="round"/>
<path d="M156.914 85.3424C159.199 72.2157 159.521 53.3264 158.618 48.0931" stroke="black" stroke-width="9.33333" stroke-miterlimit="10" stroke-linecap="round"/>
<path d="M32.9407 122.959C34.8287 119.381 33.6874 117.461 28.9714 116.275C29.5674 117.356 26.5194 117.823 28.5527 119.328C29.4314 119.979 30.1127 121.392 30.206 122.515C30.566 126.804 32.2474 121.655 32.9407 122.959Z" fill="#ABA99B"/>
<path d="M38.2499 128.316C38.2539 127.46 38.1459 126.585 38.2833 125.751C38.6553 123.475 37.7846 122.597 35.5059 122.949C34.6699 123.079 33.7966 122.963 32.9406 122.959C32.9366 123.815 33.0446 124.689 32.9073 125.524C32.5353 127.8 33.4046 128.677 35.6846 128.325C36.5193 128.197 37.3939 128.312 38.2499 128.316Z" fill="#ABA99B"/>
<path d="M38.2893 130.847C37.672 133.407 38.9373 133.844 41.0893 133.699C43.6653 133.524 43.6733 133.641 43.572 130.552C43.496 128.193 43.4133 128.271 39.5493 128.279C36.9627 128.284 38.8747 130.153 38.2893 130.847Z" fill="#ABA99B"/>
<path d="M29.0301 102.458C30.2007 101.002 31.2154 100.163 31.6407 99.0915C32.0647 98.0235 29.7087 95.7968 28.7741 96.3515C27.7834 96.9408 26.5794 98.1355 26.5474 99.1008C26.5167 100.022 27.8741 100.991 29.0301 102.458Z" fill="#ABA99B"/>
<path d="M30.1611 113.023C31.3531 111.737 32.4065 110.964 32.9345 109.924C33.4398 108.929 31.2305 106.552 30.2225 107.033C29.1958 107.524 27.9091 108.673 27.8385 109.615C27.7705 110.536 29.0945 111.56 30.1611 113.023Z" fill="#ABA99B"/>
<path d="M32.125 114.954C33.581 116.124 34.4197 117.139 35.4917 117.564C36.5583 117.988 38.7863 115.631 38.2317 114.698C37.641 113.707 36.4477 112.503 35.4823 112.471C34.561 112.44 33.5917 113.798 32.125 114.954Z" fill="#ABA99B"/>
<path d="M37.4688 120.247C38.8741 121.434 40.0714 123.023 40.6621 122.823C41.8261 122.426 42.6541 121.039 43.6221 120.063C42.6994 119.262 41.8047 117.876 40.8461 117.83C39.9247 117.784 38.9354 119.127 37.4688 120.247Z" fill="#ABA99B"/>
<path d="M42.9102 136.14C44.9222 136.764 46.4075 137.288 47.9342 137.624C48.1462 137.671 48.9022 136.462 48.8315 136.39C47.9048 135.43 46.9848 134.311 45.8155 133.818C45.3835 133.636 44.3075 134.982 42.9102 136.14Z" fill="#ABA99B"/>
<path d="M26.3215 112.262C26.3188 112.89 26.4015 113.532 26.2975 114.142C25.8948 116.513 27.4948 116.3 28.9708 116.274C29.1935 114.206 28.4241 112.794 26.3215 112.262Z" fill="#ABA99B"/>
<path d="M27.0625 88.4753C28.1158 89.0686 28.7932 89.6793 29.0345 89.5393C29.6092 89.206 29.9785 88.5166 30.4305 87.9713C29.9932 87.6286 29.4732 86.9366 29.1358 87.0166C28.5198 87.1633 28.0132 87.766 27.0625 88.4753Z" fill="#ABA99B"/>
<path d="M26.3636 103.596C26.3649 103.16 26.4743 102.684 26.3303 102.303C26.2423 102.071 25.7663 101.984 25.4649 101.832C25.4636 103.456 25.4623 105.08 25.4609 106.703C25.7583 106.539 26.2889 106.401 26.3116 106.207C26.4089 105.345 26.3596 104.468 26.3636 103.596Z" fill="#ABA99B"/>
<path d="M34.1381 106.33C34.8554 105.386 35.4621 104.884 35.6141 104.27C35.6981 103.934 35.0114 103.407 34.6714 102.967C34.1221 103.414 33.4301 103.776 33.0914 104.348C32.9488 104.588 33.5541 105.271 34.1381 106.33Z" fill="#ABA99B"/>
<path d="M39.4506 111.687C40.1679 110.743 40.7746 110.242 40.9279 109.627C41.0106 109.291 40.3239 108.764 39.9839 108.324C39.4346 108.771 38.7426 109.134 38.4039 109.706C38.2613 109.946 38.8666 110.628 39.4506 111.687Z" fill="#ABA99B"/>
<path d="M46.5583 123.646C45.685 124.571 44.9223 125.114 45.0063 125.343C45.2397 125.972 45.7663 126.555 46.321 126.955C46.4503 127.048 47.521 126.336 47.5183 126C47.5117 125.368 47.041 124.739 46.5583 123.646Z" fill="#ABA99B"/>
<path d="M51.8658 129.003C50.9925 129.928 50.2298 130.471 50.3151 130.7C50.5471 131.33 51.0738 131.912 51.6285 132.312C51.7578 132.406 52.8285 131.694 52.8258 131.358C52.8191 130.726 52.3485 130.096 51.8658 129.003Z" fill="#ABA99B"/>
<path d="M24.8008 92.9598C25.2208 93.9811 25.3714 94.3478 25.5221 94.7145C25.8168 94.3331 26.2434 93.9891 26.3608 93.5611C26.4421 93.2571 26.1048 92.8385 25.9554 92.4718C25.4821 92.6718 25.0088 92.8718 24.8008 92.9598Z" fill="#ABA99B"/>
<path d="M25.5518 111.034C25.3971 111.188 25.1118 111.405 25.1385 111.454C25.2945 111.745 25.5238 111.996 25.7278 112.26C25.9265 112.062 26.1251 111.865 26.3238 111.668C26.0665 111.456 25.8078 111.245 25.5518 111.034Z" fill="#ABA99B"/>
<path d="M64.8728 184.023C63.5994 180.184 61.4248 179.677 57.3008 182.257C58.4941 182.576 56.7194 185.099 59.2154 184.673C60.2928 184.491 61.7834 184.977 62.6581 185.688C66.0008 188.399 63.4514 183.62 64.8728 184.023Z" fill="#ABA99B"/>
<path d="M72.4163 183.903C71.8017 183.307 71.0963 182.779 70.5883 182.103C69.2043 180.257 67.9683 180.277 66.6443 182.165C66.159 182.857 65.471 183.408 64.875 184.023C65.4897 184.619 66.195 185.147 66.703 185.823C68.087 187.668 69.323 187.648 70.647 185.76C71.1323 185.068 71.8203 184.517 72.4163 183.903Z" fill="#ABA99B"/>
<path d="M74.266 185.626C75.6847 187.845 76.8767 187.234 78.262 185.581C79.9207 183.602 80.01 183.677 77.7113 181.61C75.958 180.033 75.9567 180.146 73.286 182.938C71.4993 184.808 74.17 184.724 74.266 185.626Z" fill="#ABA99B"/>
<path d="M47.3764 172.646C47.1364 170.792 47.2338 169.48 46.7551 168.431C46.2791 167.386 43.0404 167.543 42.7938 168.602C42.5324 169.726 42.5604 171.419 43.2351 172.111C43.8791 172.772 45.5178 172.464 47.3764 172.646Z" fill="#ABA99B"/>
<path d="M55.7797 179.148C55.6771 177.397 55.8504 176.103 55.4651 175.001C55.0971 173.948 51.8517 173.896 51.5011 174.957C51.1437 176.036 51.0824 177.76 51.7131 178.464C52.3304 179.151 53.9864 178.904 55.7797 179.148Z" fill="#ABA99B"/>
<path d="M58.5352 179.067C60.3885 178.827 61.7005 178.924 62.7498 178.445C63.7952 177.969 63.6378 174.731 62.5792 174.484C61.4552 174.223 59.7618 174.251 59.0698 174.925C58.4085 175.569 58.7165 177.208 58.5352 179.067Z" fill="#ABA99B"/>
<path d="M66.0508 178.879C67.8801 178.687 69.8561 178.923 70.1201 178.359C70.6401 177.244 70.2134 175.687 70.1788 174.312C68.9628 174.424 67.3428 174.108 66.6454 174.768C65.9748 175.401 66.2588 177.045 66.0508 178.879Z" fill="#ABA99B"/>
<path d="M81.2852 185.96C83.1278 184.942 84.5345 184.232 85.8345 183.364C86.0145 183.243 85.6665 181.86 85.5652 181.862C84.2305 181.864 82.7878 181.755 81.6225 182.256C81.1918 182.442 81.4172 184.151 81.2852 185.96Z" fill="#ABA99B"/>
<path d="M52.5742 181.39C53.0249 181.826 53.5462 182.211 53.9142 182.709C55.3449 184.641 56.2996 183.339 57.3022 182.258C55.9662 180.665 54.4142 180.241 52.5742 181.39Z" fill="#ABA99B"/>
<path d="M35.9258 164.382C37.0831 164.033 37.9938 163.968 38.0591 163.697C38.2164 163.052 37.9751 162.308 37.8951 161.604C37.3444 161.681 36.4844 161.578 36.3098 161.877C35.9884 162.422 36.0724 163.206 35.9258 164.382Z" fill="#ABA99B"/>
<path d="M46.3478 175.36C46.0345 175.056 45.7665 174.649 45.3918 174.489C45.1638 174.391 44.7718 174.675 44.4531 174.787C45.6238 175.912 46.7931 177.037 47.9638 178.163C48.0518 177.836 48.3211 177.357 48.1958 177.207C47.6411 176.539 46.9745 175.967 46.3478 175.36Z" fill="#ABA99B"/>
<path d="M53.7068 171.642C53.5228 170.472 53.5815 169.685 53.2428 169.15C53.0588 168.857 52.2028 168.989 51.6508 168.928C51.5922 169.634 51.3748 170.385 51.5535 171.026C51.6268 171.294 52.5388 171.33 53.7068 171.642Z" fill="#ABA99B"/>
<path d="M61.2459 171.522C61.0619 170.351 61.1206 169.565 60.7819 169.03C60.5979 168.737 59.7419 168.869 59.1899 168.807C59.1312 169.514 58.9139 170.265 59.0926 170.905C59.1659 171.174 60.0779 171.21 61.2459 171.522Z" fill="#ABA99B"/>
<path d="M74.7969 174.677C74.8609 175.948 74.7235 176.874 74.9475 176.972C75.5609 177.24 76.3475 177.264 77.0195 177.14C77.1769 177.11 77.4049 175.845 77.1609 175.616C76.6995 175.181 75.9195 175.086 74.7969 174.677Z" fill="#ABA99B"/>
<path d="M82.3359 174.557C82.3999 175.827 82.2626 176.754 82.4866 176.851C83.1013 177.119 83.8866 177.143 84.5586 177.019C84.7159 176.99 84.9439 175.725 84.6999 175.495C84.2386 175.061 83.4586 174.966 82.3359 174.557Z" fill="#ABA99B"/>
<path d="M37.5938 169.119C38.6204 169.523 38.9897 169.669 39.3591 169.814C39.2884 169.338 39.3364 168.791 39.1071 168.41C38.9444 168.141 38.4097 168.095 38.0404 167.949C37.8578 168.429 37.6751 168.909 37.5938 169.119Z" fill="#ABA99B"/>
<path d="M51.1519 181.095C51.1559 181.314 51.1145 181.668 51.1692 181.684C51.4865 181.772 51.8252 181.782 52.1572 181.818C52.1532 181.536 52.1492 181.256 52.1439 180.976C51.8132 181.016 51.4812 181.055 51.1519 181.095Z" fill="#ABA99B"/>
</svg>
