<svg width="39" height="32" viewBox="0 0 39 32" fill="none" xmlns="http://www.w3.org/2000/svg">
<g clip-path="url(#clip0_41_1349)">
<path d="M1.80159 26.1724C2.66112 29.0814 4.11778 31.0033 5.76445 31.0033C7.41112 31.0033 8.99445 28.9329 9.83588 25.8317C9.83588 25.8317 9.83886 25.8259 9.84493 25.8142C10.044 25.8142 10.2521 25.7969 10.4602 25.7969C13.8168 25.7444 16.9021 25.8929 17.7435 25.9366C18.1235 26.5917 18.6392 27.0984 19.2816 27.4565C21.453 28.6795 24.2849 27.771 25.1354 27.4478C25.7416 28.0418 26.6735 28.3738 27.913 28.4437L28.7635 28.5049C32.6087 28.7582 33.6854 28.601 35.3049 23.246C35.3139 23.2111 35.323 23.1761 35.323 23.1412C35.9563 22.8966 36.4539 22.5035 36.8159 21.9706C37.8744 20.3982 37.3858 18.1095 37.1597 17.3233C37.612 16.8253 37.9378 16.2138 38.1006 15.515C38.743 12.7283 38.2092 10.7802 36.5716 9.86295C33.2601 8.02846 28.4287 8.56142 26.574 8.86717C26.9811 7.49568 27.3792 5.42533 26.9268 3.35498C26.583 1.73889 24.9906 0.568315 23.2445 0.6382C22.1768 0.681879 21.3264 1.48556 21.263 2.50763C21.1454 4.42073 20.684 7.98487 18.9016 10.3348C18.0783 11.418 17.6168 12.7371 17.5625 14.1697C15.0473 14.3444 12.4416 14.2396 9.70921 13.8465C8.84064 10.9812 7.40207 9.10294 5.76445 9.10294C3.96398 9.10294 2.39874 11.3743 1.58445 14.7375C1.53016 14.9472 1.48484 15.1568 1.4396 15.3752C1.14103 16.7904 0.978261 18.3803 0.978261 20.0575C0.978261 21.9095 1.17731 23.6566 1.53921 25.1853C1.62064 25.526 1.70207 25.8579 1.80159 26.1724Z" fill="#FDC5F6"/>
<path d="M5.76408 9.10295C3.9636 9.10295 2.39836 11.3743 1.58408 14.7375C1.52979 14.9472 1.48455 15.1568 1.43931 15.3752C1.14074 16.7904 0.977887 18.3803 0.977887 20.0575C0.977887 21.9095 1.17693 23.6566 1.53884 25.1853C1.62027 25.526 1.7017 25.8579 1.80122 26.1724C2.66074 29.0814 4.11741 31.0033 5.76408 31.0033C7.41074 31.0033 8.99408 28.9329 9.83551 25.8317C9.83551 25.8317 9.83849 25.8259 9.84455 25.8142C9.88074 25.6745 9.91693 25.5172 9.95313 25.3775C8.56884 25.4124 7.15741 25.4736 5.83646 25.6046C4.5155 25.7269 3.29408 25.9104 2.29884 26.1724C2.19931 25.8579 2.11788 25.526 2.03646 25.1853C1.67455 23.6566 1.4755 21.9095 1.47551 20.0575C1.47551 18.3803 1.63836 16.7904 1.93694 15.3752C2.2536 13.8727 2.6336 12.8505 2.68789 12.8069C5.00408 13.462 7.39265 13.9775 9.83551 14.3095C9.79027 14.1522 9.75408 13.995 9.70884 13.8465C8.84027 10.9812 7.4017 9.10295 5.76408 9.10295Z" fill="black"/>
<path d="M2.39917 12.475C2.04631 12.7546 1.50345 15.2617 1.49441 15.2879C1.18679 16.7729 1.02393 18.3716 1.02393 20.0575C1.02393 21.892 1.22298 23.7003 1.59393 25.2814C1.68441 25.6308 1.76583 25.9803 1.86536 26.3035C1.93774 26.5306 2.18203 26.6529 2.41726 26.5917C4.07298 26.155 6.57012 25.8929 9.84536 25.8143C10.0444 25.8143 10.2525 25.7969 10.4606 25.7969C13.8173 25.7445 16.9025 25.8929 17.7439 25.9366C17.8887 25.9453 17.9611 25.9541 17.9701 25.9541C18.2235 25.9715 18.4316 25.7881 18.4496 25.5435C18.4677 25.2902 18.2777 25.098 18.0244 25.0805C18.0154 25.0805 17.753 25.063 17.3006 25.0455C16.052 24.9844 13.3468 24.8796 10.4425 24.9233C7.06774 24.9845 4.43488 25.229 2.61631 25.6483C2.57107 25.4649 2.52584 25.2727 2.4806 25.0892C2.11869 23.5692 1.92869 21.8309 1.92869 20.0575C1.92869 18.4327 2.0825 16.8865 2.38107 15.4626C2.58917 14.4755 2.81536 13.7329 2.95107 13.3311C8.77774 14.9385 14.0344 15.4539 19.0016 14.9297C19.2458 14.9035 19.4268 14.685 19.3996 14.4492C19.3725 14.2046 19.1463 14.03 18.902 14.0562C18.7573 14.0736 18.6216 14.0824 18.4768 14.0998C18.1692 14.126 17.8706 14.1523 17.563 14.1697C15.0477 14.3444 12.442 14.2396 9.70965 13.8465C7.50203 13.5495 5.20393 13.0602 2.81536 12.3876C2.6706 12.3439 2.51679 12.3789 2.39917 12.475Z" fill="black"/>
<path d="M25.0909 22.2152C25.0909 22.2152 25.0185 22.355 24.9371 22.5384C24.6928 23.0626 24.2675 24.1457 24.2675 25.2552C24.2675 25.7531 24.358 26.2511 24.5933 26.7053C24.6113 26.7665 24.6385 26.8189 24.6747 26.8714C24.8013 27.081 24.9461 27.2731 25.1361 27.4478C25.7423 28.0419 26.6742 28.3738 27.9137 28.4437L28.7642 28.5049C32.6095 28.7583 33.6861 28.601 35.3057 23.246C35.3147 23.2111 35.3238 23.1762 35.3238 23.1412C35.3328 22.949 35.2061 22.7656 34.9981 22.7044C34.7628 22.6345 34.5095 22.7743 34.4371 23.0014C34.3919 23.1412 34.3557 23.2722 34.3195 23.4032C32.9081 27.9021 32.139 27.8497 28.8185 27.6314L27.968 27.5789C26.7013 27.5003 25.8599 27.1247 25.4618 26.4433C24.8285 25.3688 25.3894 23.744 25.7152 23.0102C25.8147 22.7743 25.8961 22.6259 25.8961 22.6259C26.0047 22.4075 25.9233 22.1453 25.7061 22.0318C25.4799 21.9182 25.2085 22.0056 25.0909 22.2152Z" fill="black"/>
<path d="M25.1259 16.406L24.9179 16.6769C24.6737 17.0001 24.4745 17.332 24.3207 17.6815C24.3117 17.6902 24.3118 17.6989 24.3027 17.7077C24.0765 18.2231 23.9407 18.7559 23.9136 19.2975C23.9045 19.3849 23.9046 19.4635 23.9046 19.5509C23.9046 19.8741 23.9408 20.1886 24.0132 20.4943C24.2575 21.4902 24.556 22.1627 24.936 22.5384C25.0446 22.6607 25.1622 22.7481 25.2798 22.8093C25.4246 22.8792 25.5694 22.949 25.7141 23.0102C26.3927 23.2897 27.1346 23.4382 27.8946 23.4382L34.0198 23.4382C34.1193 23.4295 34.2189 23.4207 34.3184 23.4032C34.6893 23.3508 35.015 23.2635 35.3227 23.1412C35.956 22.8966 36.4536 22.5035 36.8155 21.9707C37.8741 20.3982 37.3855 18.1095 37.1593 17.3233C37.1141 17.1573 37.0869 17.0612 37.0779 17.0438C36.9965 16.8079 36.7431 16.6855 36.5079 16.7641C36.4808 16.7729 36.4446 16.7817 36.4265 16.7992C36.345 16.8428 36.2817 16.9039 36.2546 16.9825C36.1912 17.0873 36.1822 17.2009 36.2184 17.3145C36.2184 17.3232 36.3089 17.5854 36.3903 17.9872L36.3903 17.9959C36.5803 18.8782 36.7612 20.4419 36.0555 21.4902C35.6303 22.1192 34.9517 22.4686 33.9746 22.5647L27.8946 22.5647C27.1256 22.5647 26.3655 22.3812 25.705 22.0318C25.5964 21.9794 25.2255 21.6911 24.8998 20.3196C24.7279 19.5946 24.8094 18.8258 25.1079 18.1095C25.2256 17.83 25.3703 17.5678 25.5603 17.3145C25.5784 17.2708 25.6146 17.2358 25.6418 17.1922L25.8498 16.9215C25.9764 16.7642 25.9674 16.5371 25.8498 16.3886C25.8136 16.3624 25.7865 16.3361 25.7594 16.3099C25.5603 16.1701 25.2707 16.2051 25.1259 16.406Z" fill="black"/>
<path d="M26.574 8.86718C26.1397 8.93707 25.8683 8.99813 25.814 9.00686C25.6602 9.04181 25.5335 9.14672 25.4883 9.28649C25.4611 9.36511 25.4521 9.45238 25.4702 9.531C25.5245 9.76686 25.7687 9.91537 26.013 9.86296C26.0221 9.86296 26.1035 9.84557 26.2573 9.81063C27.4516 9.59224 32.7625 8.76227 36.1192 10.623C37.7206 11.5053 37.5939 13.6717 37.2139 15.3227C37.0873 15.8993 36.8068 16.3973 36.4268 16.7991C36.3725 16.8603 36.3182 16.9214 36.2549 16.9826C35.6849 17.498 34.943 17.8212 34.1106 17.8649C31.6044 17.9872 29.243 17.5853 27.2706 17.166C26.7187 17.0437 26.2211 16.7729 25.8502 16.3886C25.814 16.3624 25.7868 16.3361 25.7597 16.3099C25.624 16.1526 25.4973 15.978 25.3887 15.7858C25.0178 15.1132 24.9635 14.327 25.253 13.6281C25.4973 13.0428 26.0221 12.6672 26.6283 12.6148C29.4601 12.3527 34.4725 12.7895 34.5268 12.7895C34.7711 12.8157 34.9973 12.641 35.0154 12.3964C35.0335 12.178 34.8525 11.9421 34.6082 11.9247C34.4001 11.9072 29.4601 11.4791 26.5468 11.7412C25.5968 11.8286 24.7916 12.405 24.4387 13.2524C24.2578 13.6892 24.1673 14.1347 24.1673 14.5715C24.1673 15.1393 24.3121 15.6896 24.5925 16.1963C24.683 16.3623 24.7916 16.5283 24.9183 16.6768C25.0992 16.9214 25.3164 17.1398 25.5606 17.3145C26.004 17.664 26.5197 17.8998 27.0806 18.0221C28.9897 18.424 31.523 18.8695 34.1559 18.7297C34.9882 18.6948 35.7482 18.4327 36.3906 17.9959L36.3906 17.9872C36.6711 17.8037 36.9335 17.5766 37.1597 17.3233C37.612 16.8253 37.9378 16.2139 38.1006 15.515C38.743 12.7283 38.2092 10.7802 36.5716 9.86296C33.2601 8.02847 28.4287 8.56143 26.574 8.86718Z" fill="black"/>
<path d="M17.246 22.4773C17.0108 22.4948 16.8298 22.687 16.8298 22.9141C16.8298 22.9228 16.8298 22.9404 16.8389 22.9491C16.9112 23.7353 17.065 24.4428 17.3003 25.0456C17.4179 25.3688 17.5627 25.6658 17.7436 25.9366C18.1236 26.5918 18.6393 27.0984 19.2817 27.4566C21.4531 28.6796 24.285 27.7711 25.1355 27.4479C25.2712 27.3954 25.3617 27.3605 25.3798 27.3518C25.606 27.247 25.7055 26.9937 25.606 26.7666C25.5065 26.5482 25.235 26.4521 25.0089 26.5482C24.9998 26.5482 24.846 26.618 24.5927 26.7054C23.6698 27.0198 21.3898 27.6401 19.7341 26.7054C18.585 26.0589 17.9155 24.766 17.7346 22.8704C17.7165 22.6345 17.4903 22.4511 17.246 22.4773Z" fill="black"/>
<path d="M20.7831 19.6993C20.7831 19.9439 20.9821 20.1361 21.2355 20.1361C23.7959 20.1361 25.0626 18.1881 25.1169 18.1008C25.2436 17.8998 25.1802 17.629 24.9631 17.498C24.755 17.3757 24.4745 17.4368 24.3388 17.6377C24.2936 17.7076 23.2712 19.2625 21.2355 19.2538C20.9821 19.2538 20.7831 19.446 20.7831 19.6906L20.7831 19.6993Z" fill="black"/>
<path d="M23.2447 0.638223C22.177 0.681901 21.3266 1.48558 21.2632 2.50765C21.1456 4.42075 20.6842 7.98489 18.9018 10.3348C18.0785 11.418 17.617 12.7371 17.5628 14.1697C17.5628 14.2745 17.5628 14.3881 17.5628 14.4929C17.5628 14.7375 17.7618 14.9297 18.0151 14.9297C18.2685 14.9297 18.4675 14.7375 18.4675 14.4929C18.4675 14.3619 18.4675 14.2309 18.4856 14.0998C18.5489 12.8768 18.947 11.7673 19.6347 10.8501C21.5618 8.31676 22.0504 4.56917 22.177 2.55998C22.2042 1.99216 22.6837 1.53799 23.2899 1.51179C24.6018 1.45937 25.7961 2.32411 26.0494 3.53837C26.538 5.79216 25.9047 8.10719 25.4975 9.2865C25.3166 9.78443 25.1808 10.0726 25.1808 10.0814C25.0813 10.2997 25.1718 10.5619 25.398 10.6667C25.6242 10.7628 25.8956 10.6667 26.0042 10.4483C26.0223 10.4134 26.1218 10.1863 26.2666 9.81064C26.3661 9.5573 26.4747 9.24282 26.5832 8.86719C26.9904 7.49569 27.3885 5.42535 26.9361 3.35501C26.5923 1.73891 24.9999 0.568338 23.2537 0.638223L23.2447 0.638223Z" fill="black"/>
</g>
<defs>
<clipPath id="clip0_41_1349">
<rect width="31.4483" height="38" fill="white" transform="matrix(4.57369e-08 -1 -1 -4.57369e-08 38.4707 31.8588)"/>
</clipPath>
</defs>
</svg>
