<svg width="37" height="57" viewBox="0 0 37 57" fill="none" xmlns="http://www.w3.org/2000/svg">
<path d="M9.76438 1.51733C10.9918 0.85999 12.4536 0.631935 13.8161 0.937499C15.0608 1.20828 16.2097 1.92475 16.9772 2.94478C17.6497 3.82322 18.0247 4.91381 18.0809 6.01583C18.1181 6.54547 18.0436 7.07363 18.0396 7.60327C18.0093 9.37853 18.1057 11.1538 18.2353 12.9241C18.4474 15.6463 18.7544 18.3646 19.2601 21.0486C19.4582 22.0542 19.6738 23.0594 19.9917 24.0352C19.9773 23.0777 19.9073 22.1228 19.8601 21.1668C19.7732 19.5461 19.7205 17.9209 19.79 16.2982C19.9098 13.3668 20.4298 10.4169 21.6314 7.72599C22.2602 6.31593 23.0743 4.96051 24.1999 3.8893C24.9738 3.14452 25.919 2.55972 26.9641 2.28844C28.182 1.96747 29.5048 2.11156 30.6442 2.63972C32.2104 3.35717 33.4432 4.71954 34.0989 6.30301C34.3969 7.015 34.5469 7.78065 34.6001 8.54829C34.689 9.8247 34.5648 11.1046 34.3855 12.3676C34.0716 14.4882 33.5748 16.5764 33.0458 18.6518C32.4637 20.9388 31.8115 23.2079 31.2507 25.5009C31.0198 26.4946 30.7759 27.4913 30.6865 28.5103C31.3352 28.8253 31.9675 29.1771 32.562 29.586C33.8585 30.4739 35.0024 31.6355 35.6958 33.059C36.1051 33.8609 36.344 34.7409 36.4578 35.6317V37.3861C36.3078 38.8459 35.812 40.2539 35.1181 41.5413C33.6523 44.2163 31.4062 46.4378 28.7781 47.9715C29.3915 48.5146 29.7934 49.3066 29.8018 50.1329C29.8252 51.0913 29.3821 51.9901 28.8263 52.7448C28.2396 53.5646 27.433 54.2016 26.5617 54.6954C24.9608 55.5967 23.1607 56.0846 21.3562 56.3693C20.6692 56.4786 19.9763 56.5378 19.2834 56.5949H16.4362C13.2498 56.3932 10.0594 55.6221 7.26243 54.0495C6.06386 53.3579 4.9085 52.559 3.96475 51.5379C3.39104 50.906 2.90277 50.1721 2.67429 49.3419C2.48752 48.687 2.47957 47.9815 2.66137 47.3246C2.87744 46.5153 3.37366 45.8092 3.96872 45.2319C3.30859 44.6605 2.71899 44.0067 2.22327 43.2877C1.17669 41.7822 0.593552 39.9831 0.445532 38.1622C0.276649 36.0938 0.618885 34.0055 1.29243 32.0504C0.906979 31.4209 0.660112 30.7039 0.605474 29.9666C0.507124 28.8209 0.858301 27.6711 1.46181 26.7043C2.22426 25.481 3.36223 24.5097 4.65915 23.8906C5.87958 23.3018 7.26839 23.0305 8.61747 23.2129C7.7055 21.2538 6.83923 19.2664 6.20294 17.198C5.54132 15.0605 5.09676 12.8326 5.14047 10.5864C5.17673 8.57362 5.67295 6.56286 6.62018 4.78413C7.34687 3.44064 8.40289 2.23925 9.76438 1.51733ZM10.5333 4.18791C9.65659 4.82289 9.04961 5.76045 8.62988 6.74471C8.19725 7.79158 7.91859 8.90602 7.83812 10.0374C7.70898 11.8628 8.00551 13.6912 8.47541 15.4511C9.01037 17.4236 9.77083 19.3275 10.6232 21.1823C11.0643 22.1526 11.5446 23.1046 11.9832 24.0759C12.1615 24.4346 12.2907 24.8381 12.2201 25.2425C12.1049 26.0777 11.2789 26.7415 10.4369 26.66C10.1394 26.6357 9.85329 26.5259 9.60642 26.3595C9.02726 25.9903 8.33235 25.8189 7.64838 25.8343C6.73244 25.8576 5.84183 26.1915 5.09328 26.7107C4.42471 27.1773 3.84206 27.7934 3.50131 28.5401C3.26438 29.0623 3.16852 29.6745 3.36571 30.225C3.54701 30.7859 4.00945 31.1774 4.3651 31.6256C4.34026 31.6817 4.3497 31.7309 4.3949 31.7737C4.99642 32.5577 5.64712 33.3055 6.34748 34.0035C7.11292 34.7394 7.93101 35.4419 8.88023 35.9323C9.47976 36.2349 10.1603 36.4779 10.8403 36.3586C11.3891 36.2682 11.8297 35.899 12.2316 35.5393C12.6716 35.1205 13.0506 34.568 13.0566 33.9389C13.0665 33.2245 12.7089 32.5671 12.3001 32.0042C11.7016 31.2048 10.9391 30.5415 10.122 29.9741C9.25227 29.3833 8.31 28.884 7.29621 28.5933C6.67432 28.404 6.27596 27.7059 6.41206 27.0734C6.53475 26.3247 7.37717 25.8099 8.09939 26.0479C8.77145 26.2377 9.41618 26.512 10.0396 26.8245C11.5173 27.5857 12.8862 28.5868 13.984 29.8409C14.6813 30.6423 15.2605 31.568 15.5501 32.5969C15.8521 32.2253 16.1933 31.8874 16.5396 31.5575C18.0073 30.2125 19.7627 29.2014 21.6229 28.5054C23.6763 27.7462 25.9111 27.3641 28.0926 27.6841C28.2198 26.7172 28.4428 25.7662 28.6688 24.8187C29.6617 20.7714 30.9239 16.7846 31.6357 12.6722C31.8324 11.4584 31.9918 10.2306 31.9526 8.99794C31.9297 8.42507 31.8522 7.84474 31.6272 7.31311C31.1896 6.25233 30.3268 5.33762 29.2346 4.95008C28.5501 4.69917 27.7727 4.75581 27.1186 5.06932C26.45 5.37886 25.9006 5.8946 25.4446 6.46449C24.7135 7.39062 24.1904 8.46034 23.7623 9.55441C23.3167 10.7036 23.0063 11.902 22.7952 13.1154C22.3501 15.7089 22.3819 18.3552 22.5245 20.9741C22.588 22.2977 22.7013 23.6223 22.6476 24.9479C22.6049 25.7478 22.4793 26.5969 21.9726 27.2468C21.5007 27.8639 20.6747 28.1759 19.9127 28.0333C19.3991 27.9419 18.9551 27.622 18.6223 27.2319C18.132 26.6526 17.8355 25.9416 17.5772 25.2361C17.1525 24.0188 16.8709 22.7568 16.6265 21.4923C16.0458 18.3845 15.7105 15.2349 15.4999 12.0819C15.3877 10.1958 15.3012 8.30284 15.4205 6.4153C15.4304 5.7515 15.2456 5.0733 14.8368 4.54365C14.3625 3.91514 13.5975 3.53455 12.8172 3.48337C12.0016 3.42226 11.1875 3.71043 10.5333 4.18791ZM20.4283 32.0092C19.4955 32.5507 18.6193 33.2011 17.8797 33.9896C17.3542 34.5585 16.8838 35.2069 16.6568 35.9562C16.5281 36.3646 16.5336 36.8008 16.5788 37.2226C16.6588 37.8805 16.9404 38.5502 17.4843 38.9552C18.0029 39.3561 18.6794 39.4783 19.3211 39.4724C20.3841 39.4485 21.4133 39.1142 22.3789 38.6898C24.037 37.9441 25.5355 36.8892 26.9437 35.7485C27.2293 35.5229 27.6123 35.429 27.9709 35.4886C28.4974 35.5676 28.9499 35.9949 29.0597 36.5161C29.169 36.9896 28.9951 37.5183 28.6176 37.8268C27.7002 38.578 26.7425 39.2821 25.7362 39.9091C24.1969 40.8641 22.5299 41.6665 20.7393 42.0043C19.6803 42.1981 18.5716 42.21 17.5315 41.9094C16.6026 41.6446 15.7448 41.1155 15.1214 40.3737C14.4563 39.5946 14.0634 38.6059 13.9353 37.5943C13.7103 37.804 13.4664 37.9928 13.2175 38.1741C12.5355 38.667 11.7209 38.9795 10.8805 39.0436C9.73408 39.1415 8.59313 38.8001 7.58629 38.271C5.9377 37.3861 4.55534 36.0819 3.32995 34.6837C2.94897 36.5464 2.93854 38.5433 3.65232 40.33C4.03628 41.2884 4.6219 42.1653 5.36449 42.8833C6.27298 43.8079 7.43727 44.4046 8.51316 45.1042C9.51056 45.6512 10.577 46.0656 11.6683 46.3821C11.9291 46.4636 12.167 46.6231 12.3304 46.8442C12.6811 47.2824 12.697 47.9457 12.3776 48.4053C12.1183 48.7963 11.64 49.0269 11.1726 48.9886C10.9679 48.9727 10.7752 48.8992 10.5795 48.8435C9.04166 48.371 7.55549 47.7127 6.19946 46.8437C5.79116 47.1572 5.38237 47.5333 5.23186 48.0426C5.11315 48.4997 5.34214 48.9503 5.59695 49.3165C6.03207 49.9187 6.60727 50.4021 7.20233 50.8404C8.35321 51.6791 9.63374 52.3319 10.9729 52.8119C13.5618 53.7325 16.3414 54.0744 19.0797 53.9238C20.4745 53.8409 21.8673 53.6307 23.2059 53.2233C24.1244 52.9396 25.0294 52.5689 25.8152 52.007C26.3352 51.6373 26.7684 51.138 27.0376 50.5577C27.1027 50.3897 27.205 50.1637 27.0485 50.0151C26.7719 49.7314 26.3904 49.5858 26.0218 49.4626C25.5107 49.2892 24.9718 49.2435 24.4398 49.1764C24.3648 49.1849 24.3658 49.0949 24.3434 49.0497C24.1179 48.367 23.8899 47.6858 23.6619 47.0042C24.2649 46.8442 24.8739 46.7061 25.472 46.5287C27.0331 46.0219 28.4458 45.1261 29.6811 44.0559C30.7466 43.1262 31.6913 42.051 32.4354 40.8462C33.1248 39.7293 33.6464 38.4841 33.7939 37.172C33.9131 36.0973 33.7298 34.9774 33.1939 34.0314C32.7379 33.213 32.0683 32.5304 31.3178 31.9779C30.5687 31.4288 29.7457 30.9856 28.8879 30.6329C27.9615 30.2886 26.9571 30.2021 25.9761 30.2578C24.0206 30.382 22.1211 31.0373 20.4283 32.0092Z" fill="black"/>
<path d="M10.5333 4.18791C11.1875 3.71043 12.0016 3.42226 12.8172 3.48337C13.5975 3.53455 14.3625 3.91514 14.8368 4.54365C15.2456 5.0733 15.4304 5.7515 15.4205 6.4153C15.3012 8.30284 15.3877 10.1958 15.4999 12.0819C15.7105 15.2349 16.0458 18.3845 16.6265 21.4923C16.8709 22.7568 17.1525 24.0188 17.5772 25.2361C17.8355 25.9416 18.132 26.6526 18.6223 27.2319C18.9551 27.622 19.3991 27.9419 19.9127 28.0333C20.6747 28.1759 21.5007 27.8639 21.9726 27.2468C22.4793 26.5969 22.6049 25.7478 22.6476 24.9479C22.7013 23.6223 22.588 22.2977 22.5245 20.9741C22.3819 18.3552 22.3501 15.7089 22.7952 13.1154C23.0063 11.902 23.3167 10.7036 23.7623 9.55441C24.1904 8.46034 24.7135 7.39062 25.4446 6.46449C25.9006 5.8946 26.45 5.37886 27.1186 5.06932C27.7727 4.75581 28.5501 4.69917 29.2346 4.95008C30.3268 5.33762 31.1896 6.25233 31.6272 7.31311C31.8522 7.84474 31.9297 8.42507 31.9526 8.99794C31.9918 10.2306 31.8324 11.4584 31.6357 12.6722C30.9239 16.7846 29.6617 20.7714 28.6688 24.8187C28.4428 25.7662 28.2198 26.7172 28.0926 27.6841C25.9111 27.3641 23.6763 27.7462 21.6229 28.5054C19.7627 29.2014 18.0073 30.2125 16.5396 31.5575C16.1933 31.8874 15.8521 32.2253 15.5501 32.5969C15.2605 31.568 14.6813 30.6423 13.984 29.8409C12.8862 28.5868 11.5173 27.5857 10.0396 26.8245C9.41618 26.512 8.77145 26.2377 8.09939 26.0479C7.37717 25.8099 6.53475 26.3247 6.41206 27.0734C6.27596 27.7059 6.67432 28.404 7.29621 28.5933C8.31 28.884 9.25227 29.3833 10.122 29.9741C10.9391 30.5415 11.7016 31.2048 12.3001 32.0042C12.7089 32.5671 13.0665 33.2245 13.0566 33.9389C13.0506 34.568 12.6716 35.1205 12.2316 35.5393C11.8297 35.899 11.3891 36.2682 10.8403 36.3586C10.1603 36.4779 9.47976 36.2349 8.88023 35.9323C7.93101 35.4419 7.11292 34.7394 6.34748 34.0035C5.64712 33.3055 4.99642 32.5577 4.3949 31.7737C4.3497 31.7309 4.34026 31.6817 4.3651 31.6256C4.00945 31.1774 3.54701 30.7859 3.36571 30.225C3.16852 29.6745 3.26438 29.0623 3.50131 28.5401C3.84206 27.7934 4.42471 27.1773 5.09328 26.7107C5.84183 26.1915 6.73244 25.8576 7.64838 25.8343C8.33235 25.8189 9.02726 25.9903 9.60642 26.3595C9.85329 26.5259 10.1394 26.6357 10.4369 26.66C11.2789 26.7415 12.1049 26.0777 12.2201 25.2425C12.2907 24.8381 12.1615 24.4346 11.9832 24.0759C11.5446 23.1046 11.0643 22.1526 10.6232 21.1823C9.77083 19.3275 9.01037 17.4236 8.47541 15.4511C8.00551 13.6912 7.70898 11.8628 7.83812 10.0374C7.91859 8.90602 8.19725 7.79158 8.62988 6.74471C9.04961 5.76045 9.65659 4.82289 10.5333 4.18791Z" fill="white"/>
<path d="M20.4283 32.0092C22.1211 31.0373 24.0206 30.382 25.9761 30.2578C26.9571 30.2021 27.9615 30.2886 28.8879 30.6329C29.7457 30.9856 30.5687 31.4288 31.3178 31.9779C32.0683 32.5304 32.7379 33.213 33.1939 34.0314C33.7298 34.9774 33.9131 36.0973 33.7939 37.172C33.6464 38.4841 33.1248 39.7293 32.4354 40.8462C31.6913 42.051 30.7466 43.1262 29.6811 44.0559C28.4458 45.1261 27.0331 46.0219 25.472 46.5287C24.8739 46.7061 24.2649 46.8442 23.6619 47.0042C23.8899 47.6858 24.1179 48.367 24.3434 49.0497C24.3658 49.0949 24.3648 49.1849 24.4398 49.1764C24.9718 49.2435 25.5107 49.2892 26.0218 49.4626C26.3904 49.5858 26.7719 49.7314 27.0485 50.0151C27.205 50.1637 27.1027 50.3897 27.0376 50.5577C26.7684 51.138 26.3352 51.6373 25.8152 52.007C25.0294 52.5689 24.1244 52.9396 23.2059 53.2233C21.8673 53.6307 20.4745 53.8409 19.0797 53.9238C16.3414 54.0744 13.5618 53.7325 10.9729 52.8119C9.63374 52.3319 8.35321 51.6791 7.20233 50.8404C6.60727 50.4021 6.03207 49.9187 5.59695 49.3165C5.34214 48.9503 5.11315 48.4997 5.23186 48.0426C5.38237 47.5333 5.79116 47.1572 6.19946 46.8437C7.55549 47.7127 9.04166 48.371 10.5795 48.8435C10.7752 48.8992 10.9679 48.9727 11.1726 48.9886C11.64 49.0269 12.1183 48.7963 12.3776 48.4053C12.697 47.9457 12.6811 47.2824 12.3304 46.8442C12.167 46.6231 11.9291 46.4636 11.6683 46.3821C10.577 46.0656 9.51056 45.6512 8.51316 45.1042C7.43727 44.4046 6.27298 43.8079 5.36449 42.8833C4.6219 42.1653 4.03628 41.2884 3.65232 40.33C2.93854 38.5433 2.94897 36.5464 3.32995 34.6837C4.55534 36.0819 5.9377 37.3861 7.58629 38.271C8.59313 38.8001 9.73408 39.1415 10.8805 39.0436C11.7209 38.9795 12.5355 38.667 13.2175 38.1741C13.4664 37.9928 13.7103 37.804 13.9353 37.5943C14.0634 38.6059 14.4563 39.5946 15.1214 40.3737C15.7448 41.1155 16.6026 41.6446 17.5315 41.9094C18.5716 42.21 19.6803 42.1981 20.7393 42.0043C22.5299 41.6665 24.1969 40.8641 25.7362 39.9091C26.7425 39.2821 27.7002 38.578 28.6176 37.8268C28.9951 37.5183 29.169 36.9896 29.0597 36.5161C28.9499 35.9949 28.4974 35.5676 27.9709 35.4886C27.6123 35.429 27.2293 35.5229 26.9437 35.7485C25.5355 36.8892 24.037 37.9441 22.3789 38.6898C21.4133 39.1142 20.3841 39.4485 19.3211 39.4724C18.6794 39.4783 18.0029 39.3561 17.4843 38.9552C16.9404 38.5502 16.6588 37.8805 16.5788 37.2226C16.5336 36.8008 16.5281 36.3646 16.6568 35.9562C16.8838 35.2069 17.3542 34.5585 17.8797 33.9896C18.6193 33.2011 19.4955 32.5507 20.4283 32.0092Z" fill="white"/>
</svg>
