<svg width="180" height="237" viewBox="0 0 180 237" fill="none" xmlns="http://www.w3.org/2000/svg">
<path d="M75.8571 20.1595C74.6228 19.4409 74.2628 17.8497 75.0342 16.6177C75.8056 15.4371 77.4004 15.0777 78.5833 15.8477L96.3771 27.0382C97.6114 27.8082 97.9719 29.3994 97.2004 30.58C96.7376 31.35 95.8628 31.7607 95.0399 31.7607C94.5771 31.7607 94.0628 31.658 93.6514 31.4014L75.8571 20.1595Z" fill="#FDC5F6"/>
<path d="M105.481 27.6541L101.058 4.75981C100.801 3.32251 101.676 1.98788 103.064 1.73122C104.453 1.47456 105.841 2.3472 106.098 3.73318L110.572 26.6788C110.829 28.0647 109.904 29.3994 108.515 29.7074H108.001C106.818 29.7074 105.738 28.8861 105.481 27.6541Z" fill="#FDC5F6"/>
<path d="M119.932 27.8594C119.418 27.8594 118.852 27.6541 118.389 27.2947C117.258 26.4221 117.052 24.8308 117.926 23.7015L130.475 7.68582C131.349 6.55651 132.943 6.40251 134.075 7.27516C135.206 8.14781 135.361 9.73912 134.486 10.8684L121.989 26.8328C121.474 27.5001 120.703 27.8594 119.932 27.8594Z" fill="#FDC5F6"/>
<path d="M142.611 27.9109C147.189 22.521 153.874 19.6976 160.971 19.6976C167.76 19.8516 173.983 22.983 178.046 28.3215C180.771 32.0175 180.411 36.6887 177.429 39.8199C171.309 46.2365 151.097 68.2068 148.731 82.6313C150.171 83.1959 151.56 83.9659 152.846 84.8899C156.24 87.3025 158.554 91.2551 159.48 95.9777L161.692 107.219C164.726 109.273 167.194 112.199 168.686 115.792L171.206 121.747C174.651 130.165 174.24 139.61 170.126 147.618C166.166 155.318 160.251 161.94 153.051 166.714C146.006 171.385 123.12 178.777 119.52 179.136C98.3314 181.087 81.3086 186.939 68.1429 193.715C68.2971 197.564 68.1943 201.26 67.8857 204.7C66.6514 217.635 62.0743 227.389 54.4114 230.828C48.1369 233.703 40.7829 231.803 33.48 226.311C31.9886 225.181 30.4457 223.847 28.9543 222.409C28.8 222.358 28.6975 222.255 28.5946 222.153C28.4917 222.05 27.9773 221.485 27.1544 220.561H27.103C23.5544 216.814 20.1088 212.297 16.9202 207.112C16.2002 205.932 15.4286 204.751 14.76 203.468C14.76 203.468 14.7085 203.468 14.7085 203.416C13.2171 200.901 11.8288 198.18 10.5431 195.306C10.5431 195.255 10.4916 195.203 10.4402 195.152C10.4402 195.101 10.4401 195.049 10.3887 194.998C9.97725 194.023 9.51439 193.099 9.10296 192.123C9.0001 191.969 8.94847 191.867 8.89704 191.713C7.09704 187.863 5.45158 183.551 4.01158 178.982C4.01158 178.879 3.9601 178.828 3.9601 178.725C3.90867 178.571 3.80566 178.315 3.80566 178.058C3.80566 178.058 3.78847 178.024 3.75418 177.956V177.853C2.41704 173.387 1.44012 169.28 0.771552 165.328C0.462983 163.89 0.257243 162.402 0.102957 160.964C0.0515289 160.759 0 160.554 0 160.297C0 159.065 0.874461 157.987 2.10875 157.782C25.6116 151.057 46.5427 141.15 65.9829 127.393C68.8114 125.391 71.4343 123.492 73.9543 121.49C71.64 113.174 74.2114 102.086 81.72 88.4318C79.4571 84.7359 70.0457 71.4408 59.2971 63.1249C56.9314 61.277 55.4914 58.505 55.3886 55.4764C55.2857 52.2938 56.5205 49.2651 58.8348 47.1605C66.8577 40.0766 78.5314 39.7173 87.0171 46.0312C95.5029 52.3965 105.686 62.047 109.646 74.0074C116.229 63.9463 131.4 41.3086 142.663 27.9109H142.611Z" fill="#FDC5F6"/>
<path d="M67.8865 204.7C66.6522 217.636 62.0751 227.389 54.4122 230.828C48.1377 233.703 40.7837 231.803 33.4808 226.311C31.9894 225.181 30.4465 223.847 28.9551 222.409C28.3379 221.845 27.7209 221.229 27.1552 220.561H27.1037C23.5552 216.814 20.1095 212.297 16.921 207.112C16.201 205.932 15.4293 204.751 14.7608 203.468C14.7608 203.468 14.7093 203.468 14.7093 203.416C13.3207 201.004 11.9834 198.386 10.6977 195.665C10.6977 195.665 10.5438 195.357 10.4409 195.152C10.3895 195.049 10.338 194.947 10.338 194.844C9.92653 193.971 9.51516 193.047 9.10373 192.123C9.00087 191.969 8.94924 191.867 8.89781 191.713C7.71495 188.992 6.53199 186.117 5.55485 183.191C5.04054 181.703 4.57821 180.266 4.16678 178.777C3.34393 176.21 2.62365 173.592 1.95508 171.077L4.21826 169.588C4.8354 172.258 5.50342 174.824 6.22342 177.34C6.22342 177.442 6.27495 177.545 6.32638 177.648C6.37781 177.853 6.42939 178.007 6.48082 178.161C7.86939 182.627 9.46393 186.836 11.2639 190.737C17.8468 207.164 30.4467 220.356 30.4467 220.356C30.4467 220.356 42.172 203.776 67.9893 190.84C67.9893 191.815 68.0922 192.791 68.1436 193.715C68.2979 197.565 68.1951 201.26 67.8865 204.7Z" fill="black"/>
<path d="M170.126 147.618C166.166 155.318 160.251 161.94 153.051 166.714C146.006 171.385 123.12 178.777 119.52 179.136C98.3314 181.087 81.3086 186.939 68.1429 193.715C43.92 206.086 32.7084 221.588 32.5541 221.845C32.0912 222.461 31.4227 222.871 30.6512 222.923H30.4459C29.8802 222.923 29.3657 222.769 28.9543 222.409C28.8 222.358 28.6975 222.255 28.5946 222.153C28.4917 222.05 27.9773 221.485 27.1544 220.561H27.103C24.6344 217.687 19.4914 211.476 14.76 203.468C14.76 203.468 14.7085 203.468 14.7085 203.416C13.2171 200.901 11.8288 198.18 10.5431 195.306C10.5431 195.255 10.4916 195.203 10.4402 195.152C10.4402 195.101 10.4401 195.049 10.3887 194.998C9.97725 194.023 9.51439 193.099 9.10296 192.123C9.0001 191.969 8.94847 191.867 8.89704 191.713C7.09704 187.863 5.45158 183.551 4.01158 178.982C4.01158 178.88 3.9601 178.828 3.9601 178.726C3.90867 178.572 3.80566 178.315 3.80566 178.058C3.80566 178.058 3.78847 178.024 3.75418 177.956V177.853C2.41704 173.387 1.44012 169.28 0.771552 165.328C0.462983 163.89 0.257243 162.402 0.102957 160.965C0.0515289 160.759 0 160.554 0 160.297C0 159.065 0.874461 157.987 2.10875 157.782C25.6116 151.057 46.5427 141.15 65.9829 127.393C68.8114 125.391 71.4343 123.492 73.9543 121.49C74.4686 121.182 74.9314 120.771 75.3943 120.412C76.4743 119.539 78.12 119.693 78.9943 120.823C79.2 121.028 79.3034 121.336 79.4062 121.593C79.7662 122.619 79.4057 123.749 78.5829 124.416C77.76 125.083 76.9371 125.75 76.0629 126.366C73.8 128.163 71.4343 129.857 68.9143 131.602C49.5258 145.308 28.7489 155.318 5.45174 162.145C5.55459 162.915 5.65714 163.685 5.81143 164.404C6.48 168.254 7.45689 172.206 8.7426 176.57C8.79403 176.672 8.79413 176.775 8.84556 176.878C8.84556 176.98 8.89704 177.134 8.89704 177.237C8.89704 177.288 8.89704 177.391 8.89704 177.494H8.94852C10.2857 181.805 11.8286 185.912 13.5772 189.659C18.4115 201.671 26.5372 211.989 30.2915 216.352C37.5943 207.523 65.1086 178.931 119.057 174.003C121.474 173.798 143.846 166.662 150.171 162.453C156.703 158.141 162.001 152.187 165.549 145.257C168.995 138.584 169.303 130.73 166.423 123.697L163.954 117.743C161.28 111.377 154.491 107.887 147.754 109.529L132.274 113.174C126.051 114.663 121.835 120.617 122.452 126.982C122.915 131.5 125.023 135.504 128.263 138.224C130.835 140.38 134.126 141.715 137.469 141.972C139.526 142.126 141.583 141.869 143.641 141.253C145.852 140.586 147.497 138.635 147.806 136.376C147.857 136.222 147.909 136.068 147.909 135.914V133.348C147.806 132.064 148.68 131.038 149.811 130.781C150.017 130.781 150.171 130.781 150.326 130.781C151.817 130.781 152.949 131.808 153 133.245V135.144L153.051 136.274C152.691 140.894 149.503 144.846 145.131 146.232C142.457 147.053 139.731 147.31 137.109 147.156C132.686 146.797 128.366 145.051 124.971 142.228C120.703 138.635 117.926 133.399 117.361 127.855C117.001 124.108 117.72 120.463 119.366 117.383C120.189 115.792 121.269 114.355 122.503 113.071C124.818 110.761 127.749 109.016 131.091 108.246L146.571 104.602C149.76 103.832 152.949 103.883 155.932 104.653C157.989 105.218 159.943 106.09 161.692 107.271C164.726 109.324 167.194 112.25 168.686 115.843L171.206 121.798C174.651 130.216 174.24 139.662 170.126 147.669V147.618Z" fill="black"/>
<path d="M67.8865 204.7C66.6522 217.636 62.0751 227.389 54.4122 230.828C48.1377 233.703 40.7837 231.803 33.4808 226.311C31.9894 225.181 30.4465 223.847 28.9551 222.409C28.3379 221.845 27.7209 221.229 27.1552 220.561H27.1037C23.5552 216.814 20.1095 212.297 16.921 207.112C16.201 205.932 15.4293 204.751 14.7608 203.468C14.7608 203.468 14.7093 203.468 14.7093 203.416C13.3207 201.004 11.9834 198.386 10.6977 195.665C10.6977 195.665 10.5438 195.357 10.4409 195.152C10.3895 195.049 10.338 194.947 10.338 194.844C9.92653 193.971 9.51516 193.047 9.10373 192.123C9.00087 191.969 8.94924 191.867 8.89781 191.713C7.71495 188.992 6.53199 186.117 5.55485 183.191C5.04054 181.703 4.57821 180.266 4.16678 178.777C3.34393 176.21 2.62365 173.592 1.95508 171.077L4.21826 169.588C4.8354 172.258 5.50342 174.824 6.22342 177.34C6.22342 177.442 6.27495 177.545 6.32638 177.648C6.37781 177.853 6.42939 178.007 6.48082 178.161C7.86939 182.627 9.46393 186.836 11.2639 190.737C17.8468 207.164 30.4467 220.356 30.4467 220.356C30.4467 220.356 42.172 203.776 67.9893 190.84C67.9893 191.815 68.0922 192.791 68.1436 193.715C68.2979 197.565 68.1951 201.26 67.8865 204.7Z" fill="black"/>
<path d="M170.126 147.618C166.166 155.318 160.251 161.94 153.051 166.714C146.006 171.385 123.12 178.777 119.52 179.136C98.3314 181.087 81.3086 186.939 68.1429 193.715C43.92 206.086 32.7084 221.588 32.5541 221.845C32.0912 222.461 31.4227 222.871 30.6512 222.923H30.4459C29.8802 222.923 29.3657 222.769 28.9543 222.409C28.8 222.358 28.6975 222.255 28.5946 222.153C28.4917 222.05 27.9773 221.485 27.1544 220.561H27.103C24.6344 217.687 19.4914 211.476 14.76 203.468C14.76 203.468 14.7085 203.468 14.7085 203.416C13.2171 200.901 11.8288 198.18 10.5431 195.306C10.5431 195.255 10.4916 195.203 10.4402 195.152C10.4402 195.101 10.4401 195.049 10.3887 194.998C9.97725 194.023 9.51439 193.099 9.10296 192.123C9.0001 191.969 8.94847 191.867 8.89704 191.713C7.09704 187.863 5.45158 183.551 4.01158 178.982C4.01158 178.88 3.9601 178.828 3.9601 178.726C3.90867 178.572 3.80566 178.315 3.80566 178.058C3.80566 178.058 3.78847 178.024 3.75418 177.956V177.853C2.41704 173.387 1.44012 169.28 0.771552 165.328C0.462983 163.89 0.257243 162.402 0.102957 160.965C0.0515289 160.759 0 160.554 0 160.297C0 159.065 0.874461 157.987 2.10875 157.782C25.6116 151.057 46.5427 141.15 65.9829 127.393C68.8114 125.391 71.4343 123.492 73.9543 121.49C74.4686 121.182 74.9314 120.771 75.3943 120.412C76.4743 119.539 78.12 119.693 78.9943 120.823C79.2 121.028 79.3034 121.336 79.4062 121.593C79.7662 122.619 79.4057 123.749 78.5829 124.416C77.76 125.083 76.9371 125.75 76.0629 126.366C73.8 128.163 71.4343 129.857 68.9143 131.602C49.5258 145.308 28.7489 155.318 5.45174 162.145C5.55459 162.915 5.65714 163.685 5.81143 164.404C6.48 168.254 7.45689 172.206 8.7426 176.57C8.79403 176.672 8.79413 176.775 8.84556 176.878C8.84556 176.98 8.89704 177.134 8.89704 177.237C8.89704 177.288 8.89704 177.391 8.89704 177.494H8.94852C10.2857 181.805 11.8286 185.912 13.5772 189.659C18.4115 201.671 26.5372 211.989 30.2915 216.352C37.5943 207.523 65.1086 178.931 119.057 174.003C121.474 173.798 143.846 166.662 150.171 162.453C156.703 158.141 162.001 152.187 165.549 145.257C168.995 138.584 169.303 130.73 166.423 123.697L163.954 117.743C161.28 111.377 154.491 107.887 147.754 109.529L132.274 113.174C126.051 114.663 121.835 120.617 122.452 126.982C122.915 131.5 125.023 135.504 128.263 138.224C130.835 140.38 134.126 141.715 137.469 141.972C139.526 142.126 141.583 141.869 143.641 141.253C145.852 140.586 147.497 138.635 147.806 136.376C147.857 136.222 147.909 136.068 147.909 135.914V133.348C147.806 132.064 148.68 131.038 149.811 130.781C150.017 130.781 150.171 130.781 150.326 130.781C151.817 130.781 152.949 131.808 153 133.245V135.144L153.051 136.274C152.691 140.894 149.503 144.846 145.131 146.232C142.457 147.053 139.731 147.31 137.109 147.156C132.686 146.797 128.366 145.051 124.971 142.228C120.703 138.635 117.926 133.399 117.361 127.855C117.001 124.108 117.72 120.463 119.366 117.383C120.189 115.792 121.269 114.355 122.503 113.071C124.818 110.761 127.749 109.016 131.091 108.246L146.571 104.602C149.76 103.832 152.949 103.883 155.932 104.653C157.989 105.218 159.943 106.09 161.692 107.271C164.726 109.324 167.194 112.25 168.686 115.843L171.206 121.798C174.651 130.216 174.24 139.662 170.126 147.669V147.618Z" fill="black"/>
<path d="M177.43 39.8199C171.31 46.2365 151.099 68.2068 148.733 82.6313C148.527 84.0172 147.138 84.9925 145.801 84.7359C144.361 84.5305 143.436 83.1959 143.641 81.8099C143.641 81.7073 143.641 81.6046 143.641 81.5019C146.419 66.1022 165.499 44.7478 173.676 36.278C174.91 34.9947 175.115 33.0441 174.138 31.7094C170.795 27.3462 166.013 24.9335 160.767 24.8309C155.316 24.6255 150.07 27.0382 146.521 31.2474C132.018 48.4438 110.83 81.4506 110.624 81.8099C110.007 82.6826 108.927 83.1446 107.898 82.9393C106.818 82.6826 106.047 81.8099 105.892 80.7833C103.99 67.0775 91.2358 55.7331 83.8301 50.1378C77.2986 45.2612 68.3501 45.5179 62.4872 50.7024C60.9958 52.0371 60.3786 53.6284 60.4301 55.2711C60.4815 56.8111 61.1501 58.1457 62.3329 59.0697C72.9786 67.3342 87.6358 85.7625 87.0186 88.9965C86.9672 89.3045 86.8638 89.6125 86.6581 89.8691C77.3495 106.501 77.3495 115.895 78.9953 120.823L79.3043 121.593C80.8986 125.494 83.5729 126.726 83.6758 126.777C84.9615 127.342 85.5786 128.83 85.0129 130.165C84.6015 131.14 83.6753 131.705 82.6981 131.705C82.3381 131.705 82.0301 131.654 81.7215 131.5C81.5672 131.448 78.4301 130.165 75.9615 126.366C75.3443 125.34 74.7272 124.159 74.2129 122.722C74.0586 122.311 73.9553 121.901 73.8524 121.49C71.5381 113.174 74.1101 102.086 81.6186 88.4318C79.3558 84.7359 69.9443 71.4408 59.1958 63.1249C56.8301 61.277 55.3901 58.505 55.2872 55.4764C55.1843 52.2938 56.4186 49.2651 58.7329 47.1605C66.7558 40.0766 78.4301 39.7173 86.9158 46.0312C95.4015 52.3965 105.584 62.047 109.544 74.0074C116.127 63.9463 131.298 41.3086 142.561 27.9109C147.138 22.521 153.824 19.6976 160.921 19.6976C167.71 19.8516 173.932 22.983 177.995 28.3215C180.721 32.0175 180.361 36.6887 177.378 39.8199H177.43Z" fill="black"/>
<path d="M161.898 108.349C162.155 109.735 161.229 111.069 159.841 111.326C158.452 111.583 157.115 110.71 156.858 109.324L155.933 104.602L154.441 96.9531C153.773 93.5138 152.126 90.6905 149.812 88.9965C147.549 87.3539 144.823 86.5326 141.995 86.5839C137.315 86.7379 132.893 87.1999 128.881 87.8672C120.601 89.3045 114.79 97.3124 116.024 105.731C116.538 109.273 119.11 112.147 122.504 113.02C122.864 113.123 123.327 113.225 123.738 113.277C125.127 113.431 126.155 114.714 125.949 116.151C125.795 117.435 124.715 118.41 123.429 118.41C123.326 118.41 123.224 118.359 123.121 118.359C121.784 118.205 120.549 117.897 119.366 117.332C114.892 115.535 111.601 111.429 110.933 106.45C109.338 95.3104 117.001 84.736 128.007 82.8367C132.275 82.118 136.903 81.656 141.841 81.4507C142.458 81.4507 143.075 81.4507 143.693 81.502C145.441 81.656 147.138 82.0153 148.733 82.6313C150.173 83.196 151.561 83.966 152.846 84.89C156.241 87.3026 158.555 91.2552 159.481 95.9778L161.693 107.22L161.898 108.349Z" fill="black"/>
<path d="M127.392 154.101C126.054 154.101 124.923 153.177 124.872 151.791C124.306 137.829 130.889 128.486 142.82 125.868C144.209 125.56 145.598 126.433 145.906 127.819C146.215 129.205 145.341 130.591 143.952 130.899C131.866 133.517 129.706 143.424 130.014 151.226C130.066 152.664 128.986 153.998 127.546 154.05C127.546 154.05 127.443 154.05 127.392 154.05V154.101Z" fill="black"/>
<path d="M142.559 137.762C141.479 137.762 140.502 137.095 140.142 136.017C139.68 134.682 140.399 133.194 141.737 132.783C142.251 132.629 154.131 128.574 162 131.038C163.337 131.448 164.108 132.886 163.696 134.22C163.285 135.555 161.845 136.325 160.508 135.914C155.313 134.323 146.417 136.633 143.434 137.608C143.177 137.711 142.868 137.762 142.61 137.762H142.559Z" fill="black"/>
<path d="M110.572 26.6788C110.829 28.0647 109.904 29.3994 108.515 29.7074H108.001C106.818 29.7074 105.738 28.8861 105.481 27.6541L101.058 4.75981C100.801 3.32251 101.676 1.98788 103.064 1.73122C104.453 1.47456 105.841 2.3472 106.098 3.73318L110.572 26.6788Z" fill="black"/>
<path d="M97.2004 30.58C96.7376 31.35 95.8628 31.7607 95.0399 31.7607C94.5771 31.7607 94.0628 31.658 93.6514 31.4014L75.8571 20.1595C74.6228 19.4409 74.2628 17.8497 75.0342 16.6177C75.8056 15.4371 77.4004 15.0777 78.5833 15.8477L96.3771 27.0382C97.6114 27.8082 97.9719 29.3994 97.2004 30.58Z" fill="black"/>
<path d="M134.486 10.8684L121.989 26.8328C121.474 27.5001 120.703 27.8594 119.932 27.8594C119.418 27.8594 118.852 27.6541 118.389 27.2947C117.258 26.4221 117.052 24.8308 117.926 23.7015L130.475 7.68582C131.349 6.55651 132.943 6.40251 134.075 7.27516C135.206 8.14781 135.361 9.73912 134.486 10.8684Z" fill="black"/>
</svg>
