<svg width="206" height="256" viewBox="0 0 206 256" fill="none" xmlns="http://www.w3.org/2000/svg">
<path d="M50.7967 204.791C50.7967 204.791 20.7007 212.552 7.92341 176.832C-6.87792 135.454 37.6074 84.4495 72.1514 118.111L50.7967 204.791Z" fill="white"/>
<path d="M50.7967 204.791C50.7967 204.791 20.7007 212.552 7.92341 176.832C-6.87792 135.454 37.6074 84.4495 72.1514 118.111L50.7967 204.791Z" stroke="black" stroke-width="9.33333" stroke-miterlimit="10" stroke-linecap="round"/>
<path d="M30.7383 176.112C34.4409 242.68 128.674 258.501 156.738 247.744C192.022 234.217 182.025 208.93 182.025 208.93C213.781 186.584 184.965 160.177 184.965 160.177C184.965 160.177 217.592 132.924 188.398 109.386C174.637 98.2917 142.378 100.793 129.23 114.534C121.348 111.768 117.029 103.256 119.51 95.2784C134.925 45.7437 123.268 15.3077 106.553 7.27707C90.5049 -0.434926 72.1489 12.7691 72.1489 27.0291C72.1489 49.5477 70.5156 75.3184 48.5329 114.232C44.4769 121.412 41.1796 128.262 38.5716 134.792" fill="white"/>
<path d="M30.7383 176.112C34.4409 242.68 128.674 258.501 156.738 247.744C192.022 234.217 182.025 208.93 182.025 208.93C213.781 186.584 184.965 160.177 184.965 160.177C184.965 160.177 217.592 132.924 188.398 109.386C174.637 98.2917 142.378 100.793 129.23 114.534C121.348 111.768 117.029 103.256 119.51 95.2784C134.925 45.7437 123.268 15.3077 106.553 7.27707C90.5049 -0.434926 72.1489 12.7691 72.1489 27.0291C72.1489 49.5477 70.5156 75.3184 48.5329 114.232C44.4769 121.412 41.1796 128.262 38.5716 134.792" stroke="black" stroke-width="9.33333" stroke-miterlimit="10" stroke-linecap="round"/>
<path d="M184.965 160.177C162.552 179.353 125.18 160.986 125.18 160.986" stroke="black" stroke-width="9.33333" stroke-miterlimit="10" stroke-linecap="round"/>
<path d="M184.968 206.815C162.555 225.991 128.879 206.815 128.879 206.815" stroke="black" stroke-width="9.33333" stroke-miterlimit="10" stroke-linecap="round"/>
<path d="M114.566 109.387C151.328 126.688 170.196 116.952 170.196 116.952" stroke="black" stroke-width="9.33333" stroke-miterlimit="10" stroke-linecap="round"/>
<path d="M62.3562 212.627C63.0948 208.651 61.4348 207.157 56.5775 207.426C57.4695 208.281 54.6975 209.633 57.0882 210.466C58.1188 210.826 59.1895 211.973 59.6135 213.017C61.2322 217.005 61.3068 211.589 62.3562 212.627Z" fill="#ABA99B"/>
<path d="M69.0181 216.163C68.7675 215.345 68.4048 214.542 68.2861 213.705C67.9661 211.421 66.8741 210.841 64.8021 211.855C64.0435 212.226 63.1741 212.377 62.3555 212.627C62.6075 213.446 62.9701 214.249 63.0875 215.086C63.4088 217.37 64.5008 217.95 66.5715 216.935C67.3315 216.563 68.1995 216.414 69.0181 216.163Z" fill="#ABA99B"/>
<path d="M69.808 218.567C69.9787 221.195 71.3187 221.235 73.3294 220.457C75.7374 219.525 75.7787 219.634 74.764 216.714C73.9894 214.486 73.9334 214.585 70.248 215.741C67.78 216.515 70.16 217.731 69.808 218.567Z" fill="#ABA99B"/>
<path d="M52.5277 194.216C53.2117 192.478 53.9317 191.376 54.0184 190.226C54.1064 189.08 51.1944 187.655 50.4677 188.463C49.6957 189.32 48.9024 190.818 49.1584 191.748C49.4037 192.638 50.9877 193.159 52.5277 194.216Z" fill="#ABA99B"/>
<path d="M56.7472 203.967C57.5019 202.385 58.2792 201.334 58.4739 200.185C58.6592 199.085 55.8445 197.471 55.0245 198.231C54.1899 199.005 53.3032 200.485 53.5165 201.405C53.7245 202.303 55.2939 202.887 56.7472 203.967Z" fill="#ABA99B"/>
<path d="M59.1992 205.227C60.9379 205.911 62.0392 206.631 63.1899 206.717C64.3352 206.805 65.7606 203.893 64.9526 203.167C64.0952 202.395 62.5979 201.601 61.6672 201.857C60.7766 202.103 60.2566 203.687 59.1992 205.227Z" fill="#ABA99B"/>
<path d="M65.8711 208.692C67.5658 209.408 69.1818 210.568 69.6858 210.201C70.6791 209.477 71.0578 207.907 71.6911 206.687C70.5724 206.196 69.3058 205.139 68.3764 205.379C67.4831 205.611 66.9378 207.187 65.8711 208.692Z" fill="#ABA99B"/>
<path d="M75.793 222.248C77.8983 222.246 79.473 222.304 81.0316 222.171C81.2463 222.154 81.609 220.774 81.5196 220.726C80.3503 220.084 79.1396 219.291 77.877 219.167C77.4103 219.122 76.7823 220.727 75.793 222.248Z" fill="#ABA99B"/>
<path d="M52.8555 204.383C53.0395 204.983 53.3101 205.571 53.3915 206.185C53.7128 208.568 55.1768 207.889 56.5768 207.425C56.1755 205.385 55.0208 204.265 52.8555 204.383Z" fill="#ABA99B"/>
<path d="M46.4922 181.451C47.6735 181.705 48.5029 182.087 48.6909 181.882C49.1402 181.391 49.2882 180.625 49.5575 179.969C49.0389 179.771 48.3362 179.266 48.0389 179.442C47.4935 179.766 47.1882 180.491 46.4922 181.451Z" fill="#ABA99B"/>
<path d="M50.3163 196.097C50.1883 195.679 50.1509 195.193 49.9003 194.873C49.7469 194.677 49.2669 194.735 48.9336 194.681C49.4149 196.23 49.8963 197.781 50.3776 199.331C50.6136 199.087 51.0803 198.798 51.0429 198.605C50.8803 197.754 50.5723 196.93 50.3163 196.097Z" fill="#ABA99B"/>
<path d="M58.5567 196.394C58.9607 195.279 59.3913 194.619 59.354 193.987C59.334 193.642 58.5207 193.343 58.066 193.025C57.6753 193.615 57.122 194.167 56.9687 194.814C56.9033 195.085 57.6847 195.557 58.5567 196.394Z" fill="#ABA99B"/>
<path d="M65.2168 199.93C65.6208 198.816 66.0515 198.156 66.0142 197.524C65.9942 197.178 65.1822 196.88 64.7262 196.561C64.3355 197.152 63.7822 197.704 63.6288 198.35C63.5635 198.621 64.3448 199.093 65.2168 199.93Z" fill="#ABA99B"/>
<path d="M75.5588 209.235C75.0015 210.379 74.4335 211.123 74.5828 211.316C74.9908 211.848 75.6681 212.248 76.3161 212.464C76.4668 212.515 77.2788 211.517 77.1761 211.197C76.9815 210.595 76.3441 210.136 75.5588 209.235Z" fill="#ABA99B"/>
<path d="M82.2229 212.771C81.6655 213.915 81.0975 214.659 81.2469 214.852C81.6549 215.384 82.3322 215.784 82.9802 216C83.1309 216.051 83.9429 215.053 83.8402 214.733C83.6455 214.132 83.0082 213.672 82.2229 212.771Z" fill="#ABA99B"/>
<path d="M45.6641 186.406C46.3681 187.255 46.6214 187.56 46.8747 187.866C47.0427 187.415 47.3481 186.959 47.3321 186.515C47.3201 186.2 46.8734 185.903 46.6214 185.596C46.2294 185.928 45.8374 186.26 45.6641 186.406Z" fill="#ABA99B"/>
<path d="M51.7549 203.439C51.6522 203.633 51.4455 203.923 51.4855 203.963C51.7202 204.194 52.0135 204.366 52.2869 204.557C52.4175 204.31 52.5495 204.062 52.6815 203.814C52.3722 203.689 52.0629 203.563 51.7549 203.439Z" fill="#ABA99B"/>
<path d="M32.3789 124.679C32.8242 125.803 32.9669 126.703 33.2429 126.746C33.9002 126.848 34.6202 126.544 35.3149 126.406C35.1896 125.863 35.2202 124.999 34.9082 124.848C34.3376 124.575 33.5629 124.726 32.3789 124.679Z" fill="#ABA99B"/>
</svg>
