<svg width="196" height="266" viewBox="0 0 196 266" fill="none" xmlns="http://www.w3.org/2000/svg">
<path d="M53.3977 197.474C53.3977 197.474 36.5724 226.746 70.2857 250.449C109.338 277.906 175.602 246.061 150.336 200.162L53.3977 197.474Z" fill="white"/>
<path d="M53.3977 197.474C53.3977 197.474 36.5724 226.746 70.2857 250.449C109.338 277.906 175.602 246.061 150.336 200.162L53.3977 197.474Z" stroke="black" stroke-width="9.33333" stroke-miterlimit="10" stroke-linecap="round"/>
<path d="M136.967 214.004C136.967 214.004 185.699 192.181 184.095 148.964C182.842 115.188 160.59 110.353 160.59 110.353C160.59 110.353 171.772 74.3721 184.764 50.9868C200.811 22.1041 181.022 -10.4785 149.224 13.0988C117.427 36.6748 129.586 92.7508 119.365 101.268C119.365 101.268 115.958 67.2001 92.1098 66.0641C68.2618 64.9281 62.0165 108.192 62.0165 108.192C62.0165 108.192 58.6098 61.5215 62.0165 34.2668C65.4232 7.01215 16.5912 -2.07319 6.93917 47.3255C-2.71416 96.7255 26.8125 122.447 26.8125 122.447C26.8125 122.447 8.40451 187.291 56.8578 211.385C63.0818 214.48 69.1245 216.765 74.9138 218.407" fill="white"/>
<path d="M136.967 214.004C136.967 214.004 185.699 192.181 184.095 148.964C182.842 115.188 160.59 110.353 160.59 110.353C160.59 110.353 171.772 74.3721 184.764 50.9868C200.811 22.1041 181.022 -10.4785 149.224 13.0988C117.427 36.6748 129.586 92.7508 119.365 101.268C119.365 101.268 115.958 67.2001 92.1098 66.0641C68.2618 64.9281 62.0165 108.192 62.0165 108.192C62.0165 108.192 58.6098 61.5215 62.0165 34.2668C65.4232 7.01215 16.5912 -2.07319 6.93917 47.3255C-2.71416 96.7255 26.8125 122.447 26.8125 122.447C26.8125 122.447 8.40451 187.291 56.8578 211.385C63.0818 214.48 69.1245 216.765 74.9138 218.407" stroke="black" stroke-width="9.33333" stroke-miterlimit="10" stroke-linecap="round"/>
<path d="M160.589 110.353C133.214 97.4278 87.526 124.909 80.6554 149.644C73.7847 174.377 96.4567 192.477 146.267 156.632" stroke="black" stroke-width="9.33333" stroke-miterlimit="10" stroke-linecap="round"/>
<path d="M62.0169 108.193C57.1596 135.73 65.6289 155.351 79.4916 156.633" stroke="black" stroke-width="9.33333" stroke-miterlimit="10" stroke-linecap="round"/>
<path d="M102.562 85.3889C102.562 85.3889 110.685 105.617 102.562 122.345" stroke="black" stroke-width="9.33333" stroke-miterlimit="10" stroke-linecap="round"/>
<path d="M54.3849 196.146C54.8862 192.133 53.1409 190.74 48.3089 191.297C49.2489 192.097 46.5622 193.612 48.9969 194.301C50.0489 194.598 51.1849 195.68 51.6702 196.697C53.5222 200.582 53.2756 195.172 54.3849 196.146Z" fill="#ABA99B"/>
<path d="M61.2428 199.281C60.9441 198.478 60.5335 197.698 60.3668 196.869C59.9108 194.609 58.7868 194.096 56.7788 195.23C56.0428 195.646 55.1855 195.848 54.3828 196.146C54.6815 196.949 55.0908 197.729 55.2588 198.558C55.7148 200.818 56.8388 201.332 58.8468 200.197C59.5828 199.781 60.4401 199.58 61.2428 199.281Z" fill="#ABA99B"/>
<path d="M62.1774 201.634C62.5041 204.246 63.8428 204.209 65.8041 203.312C68.1534 202.238 68.2014 202.345 67.0148 199.49C66.1094 197.313 66.0601 197.414 62.4494 198.786C60.0308 199.706 62.4801 200.778 62.1774 201.634Z" fill="#ABA99B"/>
<path d="M43.4794 178.351C44.0594 176.575 44.7127 175.432 44.7314 174.279C44.75 173.131 41.7594 171.88 41.082 172.729C40.362 173.631 39.6594 175.172 39.97 176.087C40.2674 176.961 41.8794 177.387 43.4794 178.351Z" fill="#ABA99B"/>
<path d="M48.2696 187.835C48.9296 186.211 49.643 185.115 49.7683 183.956C49.8896 182.847 46.983 181.404 46.2096 182.211C45.423 183.032 44.6256 184.561 44.8923 185.468C45.1536 186.353 46.755 186.843 48.2696 187.835Z" fill="#ABA99B"/>
<path d="M50.793 188.946C52.569 189.526 53.7116 190.179 54.865 190.198C56.013 190.217 57.2636 187.226 56.4143 186.549C55.513 185.829 53.9716 185.126 53.057 185.437C52.1836 185.734 51.757 187.346 50.793 188.946Z" fill="#ABA99B"/>
<path d="M57.6602 192.009C59.3935 192.623 61.0762 193.687 61.5575 193.291C62.5068 192.508 62.7908 190.917 63.3508 189.663C62.2042 189.239 60.8788 188.259 59.9642 188.553C59.0868 188.837 58.6362 190.443 57.6602 192.009Z" fill="#ABA99B"/>
<path d="M68.3672 204.954C70.4685 204.826 72.0445 204.791 73.5912 204.566C73.8059 204.535 74.0859 203.136 73.9939 203.094C72.7885 202.523 71.5325 201.803 70.2645 201.755C69.7965 201.736 69.2645 203.376 68.3672 204.954Z" fill="#ABA99B"/>
<path d="M44.4102 188.48C44.6288 189.068 44.9342 189.64 45.0528 190.246C45.5142 192.606 46.9355 191.842 48.3062 191.297C47.7848 189.284 46.5648 188.234 44.4102 188.48Z" fill="#ABA99B"/>
<path d="M36.6953 165.966C37.89 166.149 38.7393 166.481 38.9153 166.265C39.3353 165.749 39.438 164.974 39.6673 164.305C39.1366 164.138 38.406 163.676 38.1193 163.869C37.5953 164.224 37.334 164.968 36.6953 165.966Z" fill="#ABA99B"/>
<path d="M41.3859 180.359C41.2339 179.951 41.1672 179.467 40.8979 179.162C40.7325 178.975 40.2579 179.062 39.9219 179.027C40.4939 180.546 41.0672 182.066 41.6392 183.584C41.8592 183.327 42.3085 183.01 42.2605 182.82C42.0472 181.98 41.6899 181.176 41.3859 180.359Z" fill="#ABA99B"/>
<path d="M49.6261 180.167C49.9635 179.031 50.3541 178.347 50.2795 177.718C50.2381 177.374 49.4101 177.124 48.9368 176.832C48.5808 177.444 48.0621 178.028 47.9475 178.684C47.8981 178.959 48.7061 179.383 49.6261 180.167Z" fill="#ABA99B"/>
<path d="M56.4855 183.302C56.8228 182.166 57.2135 181.482 57.1388 180.853C57.0975 180.509 56.2695 180.259 55.7962 179.967C55.4402 180.579 54.9215 181.163 54.8068 181.819C54.7575 182.094 55.5655 182.518 56.4855 183.302Z" fill="#ABA99B"/>
<path d="M67.3606 191.977C66.8713 193.151 66.3499 193.929 66.5099 194.113C66.9486 194.619 67.6473 194.978 68.3086 195.155C68.4619 195.197 69.2126 194.153 69.0913 193.841C68.8619 193.25 68.1979 192.829 67.3606 191.977Z" fill="#ABA99B"/>
<path d="M74.2239 195.111C73.7345 196.286 73.2132 197.063 73.3732 197.247C73.8119 197.754 74.5105 198.113 75.1719 198.29C75.3252 198.331 76.0759 197.287 75.9545 196.975C75.7252 196.385 75.0612 195.963 74.2239 195.111Z" fill="#ABA99B"/>
<path d="M36.168 170.961C36.9213 171.767 37.192 172.057 37.4626 172.346C37.604 171.887 37.8813 171.414 37.8386 170.971C37.8093 170.658 37.3453 170.386 37.076 170.097C36.704 170.45 36.332 170.805 36.168 170.961Z" fill="#ABA99B"/>
<path d="M43.2552 187.603C43.1646 187.802 42.9752 188.106 43.0179 188.142C43.2659 188.359 43.5686 188.512 43.8526 188.687C43.9686 188.432 44.0859 188.178 44.2019 187.923C43.8859 187.816 43.5699 187.71 43.2552 187.603Z" fill="#ABA99B"/>
<path d="M115.748 244.513C113.058 241.495 110.859 241.892 108.098 245.896C109.319 245.715 108.691 248.733 110.814 247.355C111.73 246.759 113.291 246.615 114.376 246.92C118.52 248.083 114.284 244.707 115.748 244.513Z" fill="#ABA99B"/>
<path d="M122.622 241.412C121.821 241.109 120.965 240.904 120.23 240.484C118.229 239.34 117.101 239.848 116.634 242.105C116.463 242.933 116.05 243.712 115.746 244.513C116.547 244.816 117.405 245.021 118.138 245.441C120.141 246.585 121.267 246.077 121.734 243.819C121.906 242.991 122.319 242.213 122.622 241.412Z" fill="#ABA99B"/>
<path d="M125.008 242.259C127.189 243.733 128.042 242.699 128.658 240.633C129.396 238.159 129.508 238.191 126.578 237.206C124.342 236.454 124.386 236.558 123.042 240.181C122.144 242.606 124.562 241.469 125.008 242.259Z" fill="#ABA99B"/>
<path d="M95.1714 241.008C94.2168 239.402 93.7861 238.158 92.9301 237.385C92.0781 236.614 89.1674 238.044 89.3608 239.113C89.5674 240.248 90.2648 241.792 91.1581 242.16C92.0114 242.51 93.3928 241.578 95.1714 241.008Z" fill="#ABA99B"/>
<path d="M105.467 243.644C104.679 242.079 104.323 240.82 103.533 239.963C102.777 239.142 99.7787 240.38 99.8774 241.494C99.9774 242.626 100.604 244.234 101.463 244.628C102.3 245.015 103.723 244.132 105.467 243.644Z" fill="#ABA99B"/>
<path d="M107.963 242.477C109.568 241.523 110.812 241.092 111.586 240.236C112.356 239.384 110.927 236.473 109.858 236.667C108.723 236.873 107.179 237.571 106.811 238.464C106.46 239.317 107.392 240.699 107.963 242.477Z" fill="#ABA99B"/>
<path d="M114.789 239.324C116.391 238.422 118.299 237.856 118.318 237.233C118.354 236.004 117.345 234.742 116.767 233.494C115.694 234.08 114.083 234.432 113.705 235.314C113.341 236.162 114.251 237.558 114.789 239.324Z" fill="#ABA99B"/>
<path d="M131.58 239.784C132.868 238.117 133.879 236.909 134.727 235.596C134.845 235.414 133.976 234.282 133.883 234.324C132.66 234.856 131.291 235.326 130.42 236.249C130.099 236.59 130.983 238.07 131.58 239.784Z" fill="#ABA99B"/>
<path d="M103.41 246.974C103.997 247.197 104.627 247.343 105.163 247.654C107.243 248.859 107.603 247.286 108.095 245.895C106.235 244.963 104.643 245.19 103.41 246.974Z" fill="#ABA99B"/>
<path d="M81.3857 237.963C82.3097 237.184 83.119 236.763 83.0724 236.488C82.9604 235.832 82.4444 235.245 82.091 234.631C81.6164 234.921 80.787 235.167 80.7444 235.511C80.667 236.139 81.0537 236.824 81.3857 237.963Z" fill="#ABA99B"/>
<path d="M95.3065 243.907C94.8985 243.753 94.4905 243.485 94.0838 243.487C93.8345 243.487 93.5878 243.903 93.3398 244.133C94.8598 244.702 96.3812 245.27 97.9012 245.839C97.8518 245.505 97.9092 244.958 97.7345 244.869C96.9612 244.477 96.1225 244.215 95.3065 243.907Z" fill="#ABA99B"/>
<path d="M100.585 237.576C99.9518 236.574 99.6944 235.83 99.1718 235.472C98.8851 235.278 98.1518 235.736 97.6211 235.9C97.8478 236.571 97.9464 237.347 98.3638 237.864C98.5384 238.082 99.3891 237.754 100.585 237.576Z" fill="#ABA99B"/>
<path d="M107.46 234.475C106.827 233.472 106.569 232.728 106.047 232.371C105.76 232.176 105.027 232.635 104.496 232.799C104.723 233.47 104.821 234.246 105.239 234.763C105.413 234.98 106.264 234.652 107.46 234.475Z" fill="#ABA99B"/>
<path d="M121.152 231.998C121.715 233.139 121.956 234.043 122.2 234.045C122.871 234.047 123.602 233.758 124.17 233.377C124.302 233.289 124.01 232.037 123.695 231.922C123.099 231.706 122.346 231.929 121.152 231.998Z" fill="#ABA99B"/>
<path d="M128.027 228.897C128.59 230.038 128.831 230.942 129.075 230.944C129.746 230.946 130.475 230.657 131.045 230.276C131.177 230.188 130.885 228.936 130.57 228.821C129.974 228.605 129.221 228.828 128.027 228.897Z" fill="#ABA99B"/>
<path d="M84.7955 241.65C85.8982 241.614 86.2942 241.6 86.6915 241.587C86.4382 241.178 86.2649 240.658 85.9035 240.399C85.6475 240.215 85.1382 240.386 84.7422 240.398C84.7635 240.911 84.7862 241.424 84.7955 241.65Z" fill="#ABA99B"/>
<path d="M101.992 247.266C102.082 247.465 102.186 247.807 102.242 247.799C102.568 247.755 102.883 247.629 103.202 247.53C103.087 247.275 102.971 247.019 102.856 246.763C102.567 246.931 102.279 247.099 101.992 247.266Z" fill="#ABA99B"/>
</svg>
