<svg width="58" height="57" viewBox="0 0 58 57" fill="none" xmlns="http://www.w3.org/2000/svg">
<path d="M20.7256 1.37645C21.5093 1.04632 22.3524 0.871988 23.1994 0.81751C23.8224 0.771204 24.4551 0.840935 25.0497 1.03433C26.3 1.4342 27.3344 2.3249 28.1225 3.3529C29.2883 4.89025 30.0164 6.71035 30.5375 8.55496C31.1948 10.9253 31.4923 13.3877 31.5114 15.8451C31.5114 18.1604 31.2623 20.4915 30.5882 22.7131C31.246 22.8962 31.8935 23.1195 32.5142 23.4055C33.0162 22.5748 33.4566 21.7086 33.8555 20.8239C34.8376 18.617 35.5173 16.2516 35.6475 13.8311C35.6797 13.3223 35.6508 12.8113 35.6993 12.3036C35.7609 11.6275 35.9021 10.9558 36.1457 10.3211C36.7605 8.65574 38.0892 7.27583 39.7281 6.59268C41.7621 5.71341 44.2479 5.91824 46.0633 7.20827C47.5948 8.26296 48.5399 10.0133 48.8391 11.8247C49.014 12.9557 49.0783 14.1019 49.092 15.2454C49.105 17.3667 48.8489 19.4979 48.2417 21.5337C47.7038 23.3413 46.8846 25.0693 45.7903 26.6077C44.8594 27.9234 43.7285 29.093 42.4657 30.0927C42.5104 30.1586 42.5567 30.2256 42.6025 30.2921C45.0534 29.786 47.337 28.5243 49.086 26.7368C49.783 25.9938 50.6916 25.4185 51.7069 25.2447C52.5926 25.0824 53.524 25.2436 54.323 25.6527C55.1972 26.0902 55.9134 26.8 56.4426 27.6145C57.029 28.5117 57.3773 29.549 57.5364 30.6048V32.8089C57.2852 34.7184 56.3843 36.5036 55.1264 37.9472C53.7442 39.5538 51.9271 40.7566 49.9563 41.5177C46.986 42.6628 43.7345 42.927 40.5821 42.6432C40.0256 43.9403 39.3618 45.1928 38.5852 46.3717C37.4058 48.1602 35.9397 49.8108 34.0861 50.9189C33.9716 50.9657 33.9683 51.0998 33.9329 51.2011C33.5389 52.5957 32.632 53.8182 31.4722 54.6757C29.9799 55.7968 28.1432 56.3612 26.3098 56.5949H22.68C19.4421 56.2283 16.2864 55.0728 13.6017 53.2217C12.1111 52.1806 10.7654 50.908 9.75334 49.3913C8.80883 47.9657 8.16245 46.2878 8.19624 44.5581C8.21586 43.3525 8.58756 42.1551 9.25193 41.1494C7.24028 40.0256 5.36816 38.6277 3.80996 36.9242C2.51064 35.4936 1.44732 33.8238 0.85053 31.9781C0.515891 30.9866 0.352387 29.9472 0.236844 28.91C0.0569891 27.1798 0.0984102 25.3945 0.631434 23.7259C1.02439 22.5094 1.72637 21.3517 2.7837 20.6038C3.5756 20.0345 4.56099 19.7305 5.53766 19.7948C6.3203 19.8487 7.10566 20.0993 7.72098 20.5972C8.42187 21.1518 8.94454 21.8883 9.43996 22.6227C10.3763 24.0353 11.2238 25.5209 12.3694 26.7804C13.0376 27.5224 13.8257 28.1712 14.737 28.5924C15.1027 28.1484 15.4362 27.6782 15.7556 27.1994C16.8358 25.5465 17.6833 23.721 18.0921 21.7821C18.4398 20.1505 18.4458 18.4388 18.0408 16.817C17.8539 16.0876 17.6735 15.3559 17.5154 14.6189C17.0418 12.3629 16.7012 10.0515 16.8652 7.74106C16.983 6.14814 17.3901 4.51926 18.3624 3.22269C18.9657 2.40989 19.7952 1.77196 20.7256 1.37645ZM21.4156 4.08725C20.761 4.46533 20.2994 5.11089 20.0356 5.80874C19.6492 6.81712 19.5592 7.9094 19.5554 8.98043C19.5783 10.9814 19.9326 12.9611 20.3849 14.9049C20.5337 15.5657 20.7321 16.2151 20.8542 16.8819C21.0406 17.8668 21.1142 18.8725 21.0766 19.8738C20.9894 22.3018 20.2552 24.6743 19.1445 26.824C18.1994 28.6158 17.0326 30.3079 15.5785 31.7259C15.2166 31.6202 14.8509 31.5303 14.4917 31.417C13.3744 31.0624 12.3449 30.4588 11.4554 29.6993C9.89232 28.3783 8.7636 26.6437 7.67793 24.9309C7.27462 24.3071 6.88221 23.6725 6.39823 23.107C6.23963 22.9409 6.08867 22.7551 5.87992 22.6499C5.43792 22.4506 4.90108 22.4947 4.49014 22.7502C3.90752 23.1086 3.54563 23.7297 3.31127 24.3556C2.88071 25.5313 2.83057 26.8077 2.90687 28.0454C3.00988 29.348 3.20063 30.6663 3.7293 31.8719C4.60023 33.9252 6.15189 35.6145 7.88939 36.9781C9.58657 38.2894 11.4734 39.3669 13.4872 40.1105C13.8486 41.2998 14.2617 42.4814 14.8694 43.5699C15.379 44.4889 16.0188 45.3535 16.85 46.0072C17.5749 46.5863 18.4578 46.9725 19.381 47.082C20.2661 47.1915 21.1719 47.0755 22.014 46.7884C22.4015 46.6571 22.7519 46.4403 23.1247 46.2747C23.1514 46.2932 23.2049 46.3308 23.2316 46.3493C24.2458 45.9375 25.0993 45.1688 25.6438 44.2225C26.2542 43.1831 26.548 41.9895 26.6973 40.8024C26.8646 39.3876 26.8314 37.9505 26.6205 36.5423C26.5561 36.0013 26.8564 35.4336 27.3464 35.1912C27.777 34.9575 28.3345 34.988 28.7384 35.2642C29.0785 35.4849 29.2981 35.8678 29.3434 36.2682C29.5336 37.5468 29.5782 38.8461 29.5041 40.1367C29.4153 41.5711 29.1537 43.006 28.6158 44.344C28.0168 45.865 27.0063 47.2471 25.6367 48.1596C26.7055 48.809 27.8952 49.3085 29.1515 49.4197C30.1511 49.515 31.1713 49.3222 32.0761 48.8907C33.3389 48.3002 34.388 47.3364 35.2682 46.2709C36.3642 44.9362 37.2357 43.4271 37.942 41.8544C38.2805 41.1238 38.5312 40.3584 38.7917 39.5974C38.9514 39.6246 39.1106 39.6546 39.2708 39.6829C41.065 40.0408 42.9126 40.0866 44.7324 39.9275C46.3009 39.7799 47.8624 39.4448 49.3154 38.826C51.2758 38.0012 53.034 36.5929 54.0679 34.714C54.7339 33.5019 55.0457 32.0637 54.7726 30.6941C54.6162 29.8922 54.2641 29.1088 53.6821 28.5253C53.33 28.1832 52.8673 27.9038 52.3609 27.919C51.8503 27.9392 51.4099 28.2546 51.0742 28.6169C48.862 30.8869 45.9412 32.4717 42.8172 33.0339C42.294 33.1347 41.7604 33.151 41.2307 33.1935C40.3897 31.9247 39.5673 30.644 38.7312 29.3725C39.1896 29.0636 39.6479 28.7536 40.1047 28.442C41.1473 27.7055 42.1011 26.8404 42.9158 25.8576C44.2212 24.2935 45.158 22.4358 45.7003 20.4757C46.4121 17.9316 46.4939 15.2453 46.193 12.6315C46.0764 11.6351 45.7189 10.6344 45.018 9.89729C44.4702 9.32146 43.723 8.94447 42.9366 8.8328C41.8313 8.66882 40.6562 8.98915 39.8055 9.71751C39.0675 10.3375 38.6097 11.2489 38.4696 12.1952C38.3873 12.6457 38.4108 13.1049 38.396 13.5604C38.3334 15.7209 37.8766 17.8575 37.1676 19.8956C36.4656 21.884 35.5374 23.794 34.394 25.5667C34.0392 26.1093 33.6359 26.6181 33.2658 27.1498C32.8342 26.8578 32.4276 26.5298 31.9981 26.2346C31.3332 25.8075 30.5762 25.5514 29.8197 25.339C28.8354 25.0628 27.8146 24.9685 26.8074 24.8149C27.0668 24.2151 27.3246 23.6142 27.5802 23.0122C28.1024 21.7347 28.4021 20.3766 28.5825 19.0119C28.7858 17.4315 28.8207 15.8321 28.7182 14.2424C28.552 11.8187 28.1034 9.38901 27.1557 7.14236C26.7028 6.10837 26.1436 5.09073 25.3124 4.31061C24.8284 3.86281 24.2 3.52069 23.5248 3.5403C22.795 3.56917 22.0516 3.71245 21.4156 4.08725ZM10.9693 44.1686C10.8319 45.1889 11.1197 46.2191 11.5846 47.1224C12.3433 48.5611 13.5058 49.7509 14.8029 50.7151C16.5993 52.046 18.6823 52.9656 20.8482 53.5011C22.5944 53.9233 24.4186 54.0884 26.2041 53.8449C27.6522 53.64 29.1292 53.1677 30.2235 52.1588C29.1537 52.2324 28.0751 52.0918 27.0494 51.784C25.4536 51.3057 24.0011 50.4433 22.6795 49.4431C21.0755 49.959 19.3096 50.008 17.6953 49.5063C16.5955 49.1664 15.5823 48.5676 14.7288 47.7979C13.2207 46.4359 12.2015 44.618 11.4865 42.7353C11.22 43.1722 11.0325 43.6592 10.9693 44.1686Z" fill="black"/>
<path d="M21.4156 4.08725C22.0516 3.71245 22.795 3.56917 23.5248 3.5403C24.2 3.52069 24.8284 3.86281 25.3124 4.31061C26.1436 5.09073 26.7028 6.10837 27.1557 7.14236C28.1034 9.38901 28.552 11.8187 28.7182 14.2424C28.8207 15.8321 28.7858 17.4315 28.5825 19.0119C28.4021 20.3766 28.1024 21.7347 27.5802 23.0122C27.3246 23.6142 27.0668 24.2151 26.8074 24.8149C27.8146 24.9685 28.8354 25.0628 29.8197 25.339C30.5762 25.5514 31.3332 25.8075 31.9981 26.2346C32.4276 26.5298 32.8342 26.8578 33.2658 27.1498C33.6359 26.6181 34.0392 26.1093 34.394 25.5667C35.5374 23.794 36.4656 21.884 37.1676 19.8956C37.8766 17.8575 38.3334 15.7209 38.396 13.5604C38.4108 13.1049 38.3873 12.6457 38.4696 12.1952C38.6097 11.2489 39.0675 10.3375 39.8055 9.71751C40.6562 8.98915 41.8313 8.66882 42.9366 8.8328C43.723 8.94447 44.4702 9.32146 45.018 9.89729C45.7189 10.6344 46.0764 11.6351 46.193 12.6315C46.4939 15.2453 46.4121 17.9316 45.7003 20.4757C45.158 22.4358 44.2212 24.2935 42.9158 25.8576C42.1011 26.8404 41.1473 27.7055 40.1047 28.442C39.6479 28.7536 39.1896 29.0636 38.7312 29.3725C39.5673 30.644 40.3897 31.9247 41.2307 33.1935C41.7604 33.151 42.294 33.1347 42.8172 33.0339C45.9412 32.4717 48.862 30.8869 51.0742 28.6169C51.4099 28.2546 51.8503 27.9392 52.3609 27.919C52.8673 27.9038 53.33 28.1832 53.6821 28.5253C54.2641 29.1088 54.6162 29.8922 54.7726 30.6941C55.0457 32.0637 54.7339 33.5019 54.0679 34.714C53.034 36.5929 51.2758 38.0012 49.3154 38.826C47.8624 39.4448 46.3009 39.7799 44.7324 39.9275C42.9126 40.0866 41.065 40.0408 39.2708 39.6829C39.1106 39.6546 38.9514 39.6246 38.7917 39.5974C38.5312 40.3584 38.2805 41.1238 37.942 41.8544C37.2357 43.4271 36.3642 44.9362 35.2682 46.2709C34.388 47.3364 33.3389 48.3002 32.0761 48.8907C31.1713 49.3222 30.1511 49.515 29.1515 49.4197C27.8952 49.3085 26.7055 48.809 25.6367 48.1596C27.0063 47.2471 28.0168 45.865 28.6158 44.344C29.1537 43.006 29.4153 41.5711 29.5041 40.1367C29.5782 38.8461 29.5336 37.5468 29.3434 36.2682C29.2981 35.8678 29.0785 35.4849 28.7384 35.2642C28.3345 34.988 27.777 34.9575 27.3464 35.1912C26.8564 35.4336 26.5561 36.0013 26.6205 36.5423C26.8314 37.9505 26.8646 39.3876 26.6973 40.8024C26.548 41.9895 26.2542 43.1831 25.6438 44.2225C25.0993 45.1688 24.2458 45.9375 23.2316 46.3493C23.2049 46.3308 23.1514 46.2932 23.1247 46.2747C22.7519 46.4403 22.4015 46.6571 22.014 46.7884C21.1719 47.0755 20.2661 47.1915 19.381 47.082C18.4578 46.9725 17.5749 46.5863 16.85 46.0072C16.0188 45.3535 15.379 44.4889 14.8694 43.5699C14.2617 42.4814 13.8486 41.2998 13.4872 40.1105C11.4734 39.3669 9.58657 38.2894 7.88939 36.9781C6.15189 35.6145 4.60023 33.9252 3.7293 31.8719C3.20063 30.6663 3.00988 29.348 2.90687 28.0454C2.83057 26.8077 2.88071 25.5313 3.31127 24.3556C3.54563 23.7297 3.90752 23.1086 4.49014 22.7502C4.90108 22.4947 5.43792 22.4506 5.87992 22.6499C6.08867 22.7551 6.23963 22.9409 6.39823 23.107C6.88221 23.6725 7.27462 24.3071 7.67793 24.9309C8.7636 26.6437 9.89232 28.3783 11.4554 29.6993C12.3449 30.4588 13.3744 31.0624 14.4917 31.417C14.8509 31.5303 15.2166 31.6202 15.5785 31.7259C17.0326 30.3079 18.1994 28.6158 19.1445 26.824C20.2552 24.6743 20.9894 22.3018 21.0766 19.8738C21.1142 18.8725 21.0406 17.8668 20.8542 16.8819C20.7321 16.2151 20.5337 15.5657 20.3849 14.9049C19.9326 12.9611 19.5783 10.9814 19.5554 8.98043C19.5592 7.9094 19.6492 6.81712 20.0356 5.80874C20.2994 5.11089 20.761 4.46533 21.4156 4.08725Z" fill="white"/>
<path d="M10.9693 44.1686C11.0325 43.6592 11.22 43.1722 11.4865 42.7353C12.2015 44.618 13.2207 46.4359 14.7288 47.7979C15.5823 48.5676 16.5955 49.1664 17.6953 49.5063C19.3096 50.008 21.0755 49.959 22.6795 49.4431C24.0011 50.4433 25.4536 51.3057 27.0494 51.784C28.0751 52.0918 29.1537 52.2324 30.2235 52.1588C29.1292 53.1677 27.6522 53.64 26.2041 53.8449C24.4186 54.0884 22.5944 53.9233 20.8482 53.5011C18.6823 52.9656 16.5993 52.046 14.8029 50.7151C13.5058 49.7509 12.3433 48.5611 11.5846 47.1224C11.1197 46.2191 10.8319 45.1889 10.9693 44.1686Z" fill="white"/>
</svg>
