<svg width="176" height="274" viewBox="0 0 176 274" fill="none" xmlns="http://www.w3.org/2000/svg">
<path d="M122.356 232.126C157.909 223.057 200.324 164.541 142.2 140.192C139.059 125.661 168.077 55.1851 160.319 30.3611C154.569 11.9611 127.737 -1.83757 110.888 33.0438C90.2187 75.8344 110.888 126.573 97.072 126.956C84.98 127.292 77.9053 50.4091 79.5133 27.7998C81.4547 0.499759 39.8133 -8.21626 29.9493 35.3637C22.8667 66.6531 44.8293 104.842 50.3613 117.678C50.9987 119.157 49.3253 120.569 47.9747 119.693C26.1253 105.52 -5.66532 133.818 10.2773 152.432C10.2773 152.432 -9.42933 195.901 27.32 218.802C27.32 218.802 -1.97333 232.65 32.1133 254.486C66.1987 276.324 119.648 270.522 133.496 252.946C147.343 235.37 122.356 232.126 122.356 232.126Z" fill="white"/>
<path d="M122.356 232.126C157.909 223.057 200.324 164.541 142.2 140.192C139.059 125.661 168.077 55.1851 160.319 30.3611C154.569 11.9611 127.737 -1.83757 110.888 33.0438C90.2187 75.8344 110.888 126.573 97.072 126.956C84.98 127.292 77.9053 50.4091 79.5133 27.7998C81.4547 0.499759 39.8133 -8.21626 29.9493 35.3637C22.8667 66.6531 44.8293 104.842 50.3613 117.678C50.9987 119.157 49.3253 120.569 47.9747 119.693C26.1253 105.52 -5.66532 133.818 10.2773 152.432C10.2773 152.432 -9.42933 195.901 27.32 218.802C27.32 218.802 -1.97333 232.65 32.1133 254.486C66.1987 276.324 119.648 270.522 133.496 252.946C147.343 235.37 122.356 232.126 122.356 232.126Z" stroke="black" stroke-width="9.33333" stroke-miterlimit="10" stroke-linecap="round"/>
<path d="M52.3856 230.802C44.0563 228.314 35.2203 224.537 27.3203 218.804" stroke="black" stroke-width="9.33333" stroke-miterlimit="10" stroke-linecap="round"/>
<path d="M142.2 140.192C115.384 130.058 73.0824 153.52 72.0158 175.204C70.9504 196.886 94.0558 209.684 134.224 176.981" stroke="black" stroke-width="9.33333" stroke-miterlimit="10" stroke-linecap="round"/>
<path d="M34.6947 129.911C52.9293 135.057 83.4147 160.065 58.3093 178.263C37.8547 193.088 10.2773 152.432 10.2773 152.432" stroke="black" stroke-width="9.33333" stroke-miterlimit="10" stroke-linecap="round"/>
<path d="M37.3732 208.379C37.8745 204.366 36.1292 202.972 31.2972 203.53C32.2372 204.33 29.5505 205.844 31.9852 206.534C33.0372 206.831 34.1732 207.912 34.6585 208.93C36.5105 212.815 36.2638 207.404 37.3732 208.379Z" fill="#ABA99B"/>
<path d="M44.235 211.514C43.9363 210.711 43.5257 209.931 43.359 209.102C42.903 206.842 41.779 206.328 39.771 207.463C39.035 207.879 38.1777 208.08 37.375 208.379C37.6737 209.182 38.083 209.962 38.251 210.791C38.707 213.051 39.831 213.564 41.839 212.43C42.575 212.014 43.4323 211.812 44.235 211.514Z" fill="#ABA99B"/>
<path d="M45.1657 213.867C45.4924 216.479 46.8311 216.441 48.7924 215.544C51.1417 214.471 51.1897 214.577 50.0031 211.723C49.0977 209.545 49.0484 209.647 45.4377 211.019C43.0191 211.939 45.4684 213.011 45.1657 213.867Z" fill="#ABA99B"/>
<path d="M26.4716 190.583C27.0516 188.807 27.7049 187.664 27.7236 186.511C27.7422 185.363 24.7516 184.112 24.0742 184.962C23.3542 185.863 22.6516 187.406 22.9622 188.319C23.2596 189.194 24.8716 189.619 26.4716 190.583Z" fill="#ABA99B"/>
<path d="M31.2618 200.067C31.9218 198.443 32.6352 197.347 32.7605 196.188C32.8818 195.079 29.9752 193.636 29.2018 194.443C28.4152 195.264 27.6178 196.794 27.8845 197.7C28.1458 198.586 29.7472 199.075 31.2618 200.067Z" fill="#ABA99B"/>
<path d="M33.7812 201.178C35.5572 201.758 36.6999 202.412 37.8532 202.43C39.0012 202.449 40.2519 199.458 39.4026 198.781C38.5012 198.061 36.9599 197.358 36.0452 197.669C35.1706 197.966 34.7452 199.578 33.7812 201.178Z" fill="#ABA99B"/>
<path d="M40.6523 204.242C42.3857 204.855 44.0683 205.919 44.5497 205.523C45.499 204.741 45.783 203.15 46.343 201.895C45.1963 201.471 43.871 200.491 42.9577 200.786C42.079 201.07 41.6283 202.675 40.6523 204.242Z" fill="#ABA99B"/>
<path d="M51.3594 217.186C53.462 217.058 55.0367 217.023 56.5834 216.798C56.798 216.767 57.078 215.369 56.986 215.326C55.7807 214.755 54.5247 214.035 53.2567 213.987C52.7887 213.969 52.2567 215.609 51.3594 217.186Z" fill="#ABA99B"/>
<path d="M27.4023 200.712C27.621 201.3 27.9263 201.872 28.045 202.479C28.5063 204.839 29.9277 204.075 31.2983 203.53C30.7757 201.516 29.557 200.467 27.4023 200.712Z" fill="#ABA99B"/>
<path d="M19.6875 178.199C20.8822 178.381 21.7315 178.713 21.9075 178.497C22.3275 177.981 22.4302 177.207 22.6595 176.537C22.1288 176.371 21.3982 175.908 21.1115 176.101C20.5875 176.456 20.3262 177.2 19.6875 178.199Z" fill="#ABA99B"/>
<path d="M24.3742 192.591C24.2222 192.183 24.1555 191.699 23.8862 191.394C23.7208 191.207 23.2462 191.294 22.9102 191.259C23.4822 192.778 24.0555 194.298 24.6275 195.817C24.8475 195.559 25.2968 195.242 25.2488 195.053C25.0355 194.213 24.6782 193.409 24.3742 192.591Z" fill="#ABA99B"/>
<path d="M32.6183 192.4C32.9556 191.264 33.3463 190.58 33.2716 189.95C33.2303 189.606 32.4023 189.357 31.929 189.065C31.573 189.677 31.0543 190.262 30.9396 190.917C30.8903 191.192 31.6983 191.616 32.6183 192.4Z" fill="#ABA99B"/>
<path d="M39.4777 195.535C39.815 194.399 40.2057 193.715 40.131 193.085C40.0897 192.741 39.2617 192.492 38.7884 192.2C38.4324 192.812 37.9137 193.396 37.799 194.052C37.7497 194.327 38.5577 194.751 39.4777 195.535Z" fill="#ABA99B"/>
<path d="M50.3528 204.209C49.8634 205.384 49.3421 206.161 49.5021 206.345C49.9408 206.852 50.6394 207.211 51.3008 207.388C51.4541 207.429 52.2048 206.385 52.0834 206.073C51.8541 205.483 51.1901 205.061 50.3528 204.209Z" fill="#ABA99B"/>
<path d="M57.2122 207.344C56.7228 208.519 56.2015 209.296 56.3615 209.48C56.8002 209.987 57.4988 210.345 58.1602 210.523C58.3135 210.564 59.0642 209.52 58.9428 209.208C58.7135 208.617 58.0495 208.196 57.2122 207.344Z" fill="#ABA99B"/>
<path d="M19.1562 183.193C19.9096 184 20.1802 184.289 20.4509 184.579C20.5922 184.119 20.8696 183.647 20.8269 183.204C20.7976 182.891 20.3336 182.619 20.0642 182.329C19.6922 182.683 19.3202 183.037 19.1562 183.193Z" fill="#ABA99B"/>
<path d="M26.2474 199.836C26.1567 200.034 25.9674 200.338 26.0101 200.374C26.2581 200.592 26.5607 200.745 26.8447 200.92C26.9607 200.665 27.0781 200.41 27.1941 200.156C26.8781 200.049 26.5621 199.942 26.2474 199.836Z" fill="#ABA99B"/>
<path d="M98.7366 256.746C96.0459 253.727 93.8473 254.124 91.0859 258.128C92.3073 257.947 91.6793 260.966 93.8019 259.587C94.7179 258.991 96.2793 258.847 97.3646 259.152C101.509 260.315 97.2726 256.939 98.7366 256.746Z" fill="#ABA99B"/>
<path d="M105.614 253.645C104.813 253.342 103.957 253.137 103.222 252.717C101.221 251.573 100.093 252.081 99.6263 254.338C99.4556 255.166 99.0423 255.945 98.7383 256.746C99.5396 257.049 100.397 257.254 101.13 257.674C103.133 258.818 104.26 258.31 104.726 256.051C104.898 255.223 105.312 254.446 105.614 253.645Z" fill="#ABA99B"/>
<path d="M108 254.492C110.181 255.965 111.034 254.932 111.65 252.865C112.388 250.392 112.5 250.425 109.57 249.438C107.334 248.686 107.378 248.79 106.034 252.413C105.136 254.838 107.554 253.701 108 254.492Z" fill="#ABA99B"/>
<path d="M78.1636 253.24C77.2089 251.635 76.7783 250.391 75.9223 249.618C75.0703 248.847 72.1596 250.276 72.3529 251.346C72.5596 252.48 73.2569 254.024 74.1503 254.392C75.0036 254.743 76.3849 253.811 78.1636 253.24Z" fill="#ABA99B"/>
<path d="M88.455 255.877C87.667 254.312 87.311 253.053 86.5217 252.196C85.7657 251.374 82.767 252.613 82.8657 253.726C82.9657 254.858 83.5923 256.466 84.451 256.861C85.2883 257.248 86.711 256.365 88.455 255.877Z" fill="#ABA99B"/>
<path d="M90.9514 254.71C92.5568 253.755 93.8008 253.325 94.5741 252.469C95.3448 251.617 93.9154 248.706 92.8461 248.899C91.7114 249.106 90.1674 249.803 89.7994 250.697C89.4488 251.55 90.3808 252.931 90.9514 254.71Z" fill="#ABA99B"/>
<path d="M97.7809 251.556C99.3835 250.655 101.292 250.088 101.31 249.465C101.346 248.236 100.337 246.975 99.7595 245.727C98.6862 246.312 97.0755 246.664 96.6969 247.547C96.3329 248.395 97.2435 249.791 97.7809 251.556Z" fill="#ABA99B"/>
<path d="M114.572 252.016C115.86 250.35 116.871 249.142 117.719 247.828C117.837 247.647 116.968 246.515 116.876 246.556C115.652 247.088 114.284 247.559 113.412 248.482C113.091 248.823 113.975 250.303 114.572 252.016Z" fill="#ABA99B"/>
<path d="M86.4023 259.207C86.989 259.429 87.6197 259.576 88.1557 259.887C90.2357 261.092 90.5957 259.519 91.0877 258.128C89.2277 257.196 87.6357 257.423 86.4023 259.207Z" fill="#ABA99B"/>
<path d="M64.374 250.195C65.298 249.417 66.1073 248.995 66.0606 248.721C65.9486 248.065 65.4326 247.478 65.0793 246.863C64.6046 247.154 63.7753 247.399 63.7326 247.743C63.6553 248.371 64.042 249.057 64.374 250.195Z" fill="#ABA99B"/>
<path d="M78.2948 256.14C77.8868 255.985 77.4788 255.717 77.0721 255.72C76.8228 255.72 76.5761 256.136 76.3281 256.365C77.8481 256.935 79.3695 257.503 80.8895 258.072C80.8401 257.737 80.8975 257.191 80.7228 257.101C79.9495 256.709 79.1108 256.448 78.2948 256.14Z" fill="#ABA99B"/>
<path d="M83.5773 249.809C82.9439 248.806 82.6853 248.062 82.1639 247.705C81.8773 247.51 81.1439 247.969 80.6133 248.133C80.8399 248.803 80.9386 249.579 81.3559 250.097C81.5306 250.314 82.3813 249.986 83.5773 249.809Z" fill="#ABA99B"/>
<path d="M90.4523 246.708C89.8189 245.705 89.5603 244.961 89.0389 244.604C88.7523 244.409 88.0189 244.868 87.4883 245.032C87.7149 245.702 87.8136 246.478 88.2309 246.996C88.4056 247.213 89.2563 246.885 90.4523 246.708Z" fill="#ABA99B"/>
<path d="M104.141 244.231C104.703 245.372 104.945 246.276 105.189 246.277C105.859 246.28 106.589 245.991 107.158 245.609C107.29 245.521 106.998 244.269 106.683 244.155C106.087 243.939 105.334 244.161 104.141 244.231Z" fill="#ABA99B"/>
<path d="M111.016 241.13C111.578 242.271 111.82 243.175 112.064 243.176C112.734 243.179 113.464 242.89 114.033 242.508C114.165 242.42 113.873 241.168 113.558 241.054C112.962 240.838 112.209 241.06 111.016 241.13Z" fill="#ABA99B"/>
<path d="M67.7877 253.882C68.8904 253.846 69.2864 253.833 69.6837 253.82C69.4304 253.41 69.257 252.89 68.8957 252.632C68.6397 252.448 68.1304 252.618 67.7344 252.63C67.7557 253.144 67.7784 253.657 67.7877 253.882Z" fill="#ABA99B"/>
<path d="M84.9844 259.499C85.0737 259.697 85.1777 260.04 85.2337 260.033C85.5604 259.988 85.875 259.861 86.1937 259.763C86.079 259.508 85.963 259.252 85.8484 258.996C85.559 259.164 85.271 259.332 84.9844 259.499Z" fill="#ABA99B"/>
</svg>
