<svg width="18" height="21" viewBox="0 0 18 21" fill="none" xmlns="http://www.w3.org/2000/svg">
<path d="M11.1063 0.694682C12.1014 -0.0129385 13.5573 0.0251378 14.5208 0.771636C15.02 1.1522 15.3595 1.72074 15.4897 2.33037C15.6604 3.10793 15.5366 3.91915 15.294 4.66786C15.0513 5.41396 14.6911 6.11717 14.2806 6.78471C14.5524 6.85525 14.8216 6.93741 15.0821 7.04263C15.6383 7.26667 16.179 7.58692 16.541 8.0745C16.7584 8.35967 16.8715 8.70616 16.954 9.05025C17.075 9.56228 17.0773 10.1116 16.9007 10.6114C16.8073 10.8918 16.6513 11.1465 16.4703 11.3789C16.798 11.5908 17.0779 11.8809 17.2635 12.2242C17.3887 12.4547 17.4614 12.7096 17.5 12.9679V13.4876C17.444 14.0383 17.1719 14.5537 16.7813 14.9427C16.6652 15.0635 16.5361 15.1709 16.4035 15.2729C16.6428 15.484 16.8556 15.7285 17.0036 16.0122C17.2429 16.4573 17.3067 16.9866 17.2039 17.4794C17.1121 17.9379 16.9015 18.3652 16.64 18.7507C16.2921 19.2612 15.7929 19.669 15.2177 19.9002C14.8262 20.0638 14.4062 20.1473 13.9851 20.187H13.1036C12.2999 20.1169 11.5086 19.9247 10.7563 19.6359C10.1419 19.8696 9.46908 19.9163 8.81905 19.8493C8.09493 19.7726 7.38873 19.5391 6.76104 19.172C6.25132 18.877 5.79857 18.49 5.41225 18.0477C5.02754 18.2619 4.59372 18.3938 4.15244 18.4122C3.71419 18.4317 3.2711 18.3417 2.87592 18.1519C2.55624 18.0022 2.26877 17.7902 2.01572 17.5457C1.54526 17.0828 1.1994 16.5062 0.957224 15.8962C0.627476 15.0635 0.479914 14.1665 0.469446 13.2735C0.461394 12.3619 0.600701 11.4479 0.889382 10.5821C1.19256 9.68773 1.65859 8.83061 2.34164 8.16668C2.7946 7.7298 3.35223 7.38231 3.97489 7.25204C4.58184 7.12218 5.23006 7.21637 5.77944 7.50175C6.79405 6.62819 8.00514 6.0338 9.15785 5.36766C9.30884 5.2857 9.44875 5.17548 9.54135 5.02898C9.64664 4.85944 9.68972 4.66124 9.7177 4.46645C9.76883 4.06926 9.77145 3.66785 9.81816 3.27025C9.87875 2.71494 10.0243 2.16363 10.2939 1.67124C10.4972 1.29809 10.7528 0.940976 11.1063 0.694682ZM12.3245 1.31653C12.0161 1.38587 11.7185 1.53838 11.5142 1.78287C11.3805 1.9502 11.2682 2.13417 11.1774 2.32776C10.992 2.71654 10.9163 3.1464 10.8803 3.57226C10.8374 4.04881 10.84 4.53339 10.7178 4.99932C10.6264 5.35464 10.4489 5.69251 10.1825 5.94863C9.94257 6.19292 9.62912 6.34122 9.33702 6.51216C8.56096 6.95204 7.76699 7.36708 7.04086 7.88792C6.44458 8.31418 5.89439 8.822 5.49942 9.44284C5.24456 9.83723 5.05855 10.2733 4.93413 10.7248C4.89327 10.8661 4.78939 10.9861 4.65834 11.0529C4.44354 11.1655 4.15808 11.1076 4.00267 10.9226C3.88933 10.7924 3.84343 10.6064 3.88731 10.4392C3.99119 10.0561 4.13352 9.68293 4.3145 9.32922C4.49266 8.97611 4.71591 8.64765 4.9591 8.33622C4.60761 8.23422 4.22391 8.26648 3.88832 8.40837C3.43879 8.59334 3.06918 8.92941 2.77084 9.30537C2.4886 9.66028 2.26857 10.0605 2.09 10.4755C1.71214 11.3769 1.53881 12.3593 1.55713 13.3347C1.57706 14.2451 1.75865 15.1669 2.18945 15.9766C2.34849 16.2699 2.54175 16.5479 2.78372 16.78C3.06757 17.0577 3.43114 17.269 3.83034 17.3201C4.15244 17.3645 4.48279 17.2964 4.7749 17.1589C4.65109 16.9389 4.53171 16.716 4.42985 16.485C4.37771 16.3613 4.30685 16.2371 4.31389 16.0984C4.3143 15.8723 4.47192 15.6575 4.68954 15.5914C4.94078 15.5034 5.24174 15.6341 5.34924 15.8762C5.50767 16.2577 5.70234 16.6253 5.94089 16.9633C6.30366 17.4832 6.77473 17.9307 7.32592 18.2485C7.94797 18.6082 8.66706 18.8034 9.38715 18.7964C9.74226 18.7892 10.103 18.7413 10.4309 18.5986C10.5338 18.5555 10.626 18.4902 10.7299 18.4495C11.2867 18.7066 11.8764 18.8914 12.4785 19.0098C13.0009 19.1088 13.5386 19.1561 14.0684 19.0904C14.5035 19.0357 14.9355 18.8912 15.285 18.6221C15.5861 18.396 15.8096 18.0826 15.9716 17.7465C16.0812 17.5205 16.1629 17.2748 16.1641 17.0215C16.1679 16.8148 16.1083 16.6074 15.9948 16.4341C15.8273 16.1715 15.5733 15.975 15.3015 15.8277C14.5089 16.0625 13.6644 16.0693 12.8501 15.9601C12.6997 15.9333 12.5365 15.9291 12.4056 15.8415C12.212 15.7214 12.1137 15.4727 12.1727 15.2535C12.2339 14.9968 12.5043 14.8114 12.7674 14.8507C13.2982 14.9473 13.8438 14.9751 14.3807 14.915C14.7901 14.8663 15.2034 14.7615 15.5523 14.5351C15.9282 14.3172 16.2682 13.9848 16.3847 13.5565C16.4639 13.2621 16.4329 12.9322 16.2684 12.6713C16.0934 12.3908 15.7995 12.21 15.4998 12.0855C15.0386 12.2894 14.5351 12.3807 14.034 12.415C13.5762 12.4443 13.1154 12.43 12.6599 12.3761C12.5361 12.3601 12.4044 12.3515 12.2977 12.2803C12.1244 12.1771 12.0213 11.9711 12.0416 11.7715C12.0594 11.5413 12.2407 11.336 12.4686 11.2916C12.5961 11.2595 12.7245 11.3002 12.8519 11.3098C13.4033 11.3669 13.9652 11.3705 14.5111 11.2649C14.8524 11.197 15.1974 11.0785 15.4581 10.8402C15.6024 10.7533 15.6971 10.6078 15.7818 10.4665C15.9906 10.0956 15.9884 9.64485 15.8833 9.24244C15.834 9.06749 15.7874 8.88573 15.6801 8.73522C15.529 8.5224 15.3119 8.36648 15.0867 8.23923C14.6969 8.025 14.2694 7.88872 13.8365 7.79133C13.565 7.73181 13.2896 7.68231 13.0106 7.68291C12.25 7.67008 11.4878 7.71117 10.7341 7.81377C10.5944 7.8282 10.4541 7.8777 10.3136 7.84223C10.0801 7.79494 9.89486 7.5795 9.88801 7.34162C9.86969 7.08731 10.0589 6.83841 10.3098 6.78731C10.7192 6.71376 11.1339 6.67328 11.5488 6.64242C12.0682 6.60675 12.5892 6.58952 13.1098 6.60334C13.3143 6.29332 13.5078 5.97588 13.6847 5.64963C14.0387 4.9871 14.3408 4.28309 14.4499 3.53579C14.5148 3.06985 14.4966 2.57245 14.2814 2.14479C14.1194 1.81433 13.8287 1.55321 13.4883 1.41352C13.1233 1.26042 12.71 1.22936 12.3245 1.31653Z" fill="black"/>
<path d="M12.3245 1.31653C12.71 1.22936 13.1233 1.26042 13.4883 1.41352C13.8287 1.55321 14.1194 1.81433 14.2814 2.14479C14.4966 2.57245 14.5148 3.06985 14.4499 3.53579C14.3408 4.28309 14.0387 4.9871 13.6847 5.64963C13.5078 5.97588 13.3143 6.29332 13.1098 6.60334C12.5892 6.58952 12.0682 6.60675 11.5488 6.64242C11.1339 6.67328 10.7192 6.71376 10.3098 6.78731C10.0589 6.83841 9.86969 7.08731 9.88801 7.34162C9.89486 7.5795 10.0801 7.79494 10.3136 7.84223C10.4541 7.8777 10.5944 7.8282 10.7341 7.81377C11.4878 7.71117 12.25 7.67008 13.0106 7.68291C13.2896 7.68231 13.565 7.73181 13.8365 7.79133C14.2694 7.88872 14.6969 8.025 15.0867 8.23923C15.3119 8.36648 15.529 8.5224 15.6801 8.73522C15.7874 8.88573 15.834 9.06749 15.8833 9.24244C15.9884 9.64485 15.9906 10.0956 15.7818 10.4665C15.6971 10.6078 15.6024 10.7533 15.4581 10.8402C15.1974 11.0785 14.8524 11.197 14.5111 11.2649C13.9652 11.3705 13.4033 11.3669 12.8519 11.3098C12.7245 11.3002 12.5961 11.2595 12.4686 11.2916C12.2407 11.336 12.0594 11.5413 12.0416 11.7715C12.0213 11.9711 12.1244 12.1771 12.2977 12.2803C12.4044 12.3515 12.5361 12.3601 12.6599 12.3761C13.1154 12.43 13.5762 12.4443 14.034 12.415C14.5351 12.3807 15.0386 12.2894 15.4998 12.0855C15.7995 12.21 16.0934 12.3908 16.2684 12.6713C16.4329 12.9322 16.4639 13.2621 16.3847 13.5565C16.2682 13.9848 15.9282 14.3172 15.5523 14.5351C15.2034 14.7615 14.7901 14.8663 14.3807 14.915C13.8438 14.9751 13.2982 14.9473 12.7674 14.8507C12.5043 14.8114 12.2339 14.9968 12.1727 15.2535C12.1137 15.4727 12.212 15.7214 12.4056 15.8415C12.5365 15.9291 12.6997 15.9333 12.8501 15.9601C13.6644 16.0693 14.5089 16.0625 15.3015 15.8277C15.5733 15.975 15.8273 16.1715 15.9948 16.4341C16.1083 16.6074 16.1679 16.8148 16.1641 17.0215C16.1629 17.2748 16.0812 17.5205 15.9716 17.7465C15.8096 18.0826 15.5861 18.396 15.285 18.6221C14.9355 18.8912 14.5035 19.0357 14.0684 19.0904C13.5386 19.1561 13.0009 19.1088 12.4785 19.0098C11.8764 18.8914 11.2867 18.7066 10.7299 18.4495C10.626 18.4902 10.5338 18.5555 10.4309 18.5986C10.103 18.7413 9.74226 18.7892 9.38715 18.7964C8.66706 18.8034 7.94797 18.6082 7.32592 18.2485C6.77473 17.9307 6.30366 17.4832 5.94089 16.9633C5.70234 16.6253 5.50767 16.2577 5.34924 15.8762C5.24174 15.6341 4.94078 15.5034 4.68954 15.5914C4.47192 15.6575 4.3143 15.8723 4.31389 16.0984C4.30685 16.2371 4.37771 16.3613 4.42985 16.485C4.53171 16.716 4.65109 16.9389 4.7749 17.1589C4.48279 17.2964 4.15244 17.3645 3.83034 17.3201C3.43114 17.269 3.06757 17.0577 2.78372 16.78C2.54175 16.5479 2.34849 16.2699 2.18945 15.9766C1.75865 15.1669 1.57706 14.2451 1.55713 13.3347C1.53881 12.3593 1.71214 11.3769 2.09 10.4755C2.26857 10.0605 2.4886 9.66028 2.77084 9.30537C3.06918 8.92941 3.43879 8.59334 3.88832 8.40837C4.22391 8.26648 4.60761 8.23422 4.9591 8.33622C4.71591 8.64765 4.49266 8.97611 4.3145 9.32922C4.13352 9.68293 3.99119 10.0561 3.88731 10.4392C3.84343 10.6064 3.88933 10.7924 4.00267 10.9226C4.15808 11.1076 4.44354 11.1655 4.65834 11.0529C4.78939 10.9861 4.89327 10.8661 4.93413 10.7248C5.05855 10.2733 5.24456 9.83723 5.49942 9.44284C5.89439 8.822 6.44458 8.31418 7.04086 7.88792C7.76699 7.36708 8.56096 6.95204 9.33702 6.51216C9.62912 6.34122 9.94257 6.19292 10.1825 5.94863C10.4489 5.69251 10.6264 5.35464 10.7178 4.99932C10.84 4.53339 10.8374 4.04881 10.8803 3.57226C10.9163 3.1464 10.992 2.71654 11.1774 2.32776C11.2682 2.13417 11.3805 1.9502 11.5142 1.78287C11.7185 1.53838 12.0161 1.38587 12.3245 1.31653Z" fill="white"/>
</svg>
