<svg width="459" height="54" viewBox="0 0 459 54" fill="none" xmlns="http://www.w3.org/2000/svg">
<path d="M14.0993 16.3997C14.0993 16.0717 14.0511 15.7775 13.9546 15.517C13.8581 15.2469 13.6797 14.996 13.4192 14.7645C13.1587 14.533 12.7825 14.3014 12.2904 14.0699C11.8081 13.8287 11.1714 13.5779 10.3803 13.3174C9.45414 13.0087 8.56176 12.6614 7.70315 12.2755C6.84453 11.88 6.07757 11.4217 5.40226 10.9008C4.72695 10.3701 4.19152 9.75272 3.79598 9.04846C3.40044 8.33456 3.20267 7.50489 3.20267 6.55945C3.20267 5.65261 3.40526 4.83741 3.81045 4.11386C4.21564 3.38066 4.78001 2.75841 5.50356 2.2471C6.23675 1.72614 7.09536 1.3306 8.07939 1.06048C9.06342 0.780705 10.1391 0.640819 11.3064 0.640819C12.85 0.640819 14.2103 0.910944 15.3872 1.45119C16.5739 1.9818 17.5 2.73911 18.1657 3.72314C18.841 4.69752 19.1786 5.85038 19.1786 7.18171H14.1283C14.1283 6.6511 14.0173 6.18321 13.7954 5.77802C13.5832 5.37283 13.26 5.05447 12.8259 4.82294C12.3917 4.5914 11.8467 4.47563 11.1907 4.47563C10.5539 4.47563 10.0185 4.5721 9.58437 4.76505C9.15024 4.958 8.82224 5.21848 8.60035 5.54648C8.37846 5.86485 8.26751 6.21697 8.26751 6.60287C8.26751 6.92123 8.35434 7.21065 8.52799 7.47113C8.71129 7.72196 8.96695 7.95832 9.29495 8.1802C9.63261 8.40209 10.0378 8.61433 10.5105 8.81693C10.9929 9.01952 11.5331 9.21729 12.1313 9.41024C13.2504 9.76719 14.244 10.1676 15.1123 10.6113C15.9902 11.0455 16.7282 11.5423 17.3264 12.1018C17.9341 12.6517 18.3924 13.2788 18.7011 13.9831C19.0195 14.6873 19.1786 15.4832 19.1786 16.3708C19.1786 17.3162 18.9953 18.1555 18.6287 18.8887C18.2621 19.6219 17.7364 20.2442 17.0514 20.7555C16.3664 21.2572 15.5464 21.6382 14.5913 21.8987C13.6363 22.1592 12.5702 22.2894 11.3932 22.2894C10.3127 22.2894 9.24672 22.1544 8.19516 21.8842C7.15325 21.6045 6.20781 21.18 5.35885 20.6108C4.50988 20.0319 3.82974 19.2939 3.31844 18.3967C2.81677 17.4899 2.56594 16.4142 2.56594 15.1697H7.65973C7.65973 15.7871 7.74174 16.3081 7.90574 16.7326C8.06974 17.157 8.31093 17.4995 8.62929 17.76C8.94765 18.0108 9.33837 18.1941 9.80144 18.3099C10.2645 18.416 10.7951 18.4691 11.3932 18.4691C12.0396 18.4691 12.5606 18.3774 12.9561 18.1941C13.3517 18.0012 13.6411 17.7504 13.8244 17.4416C14.0077 17.1233 14.0993 16.776 14.0993 16.3997ZM37.4833 18.0928V22H26.2538V18.0928H37.4833ZM28.0627 0.930239V22H22.9834V0.930239H28.0627ZM36.0362 9.29447V13.0714H26.2538V9.29447H36.0362ZM37.5267 0.930239V4.85188H26.2538V0.930239H37.5267ZM58.3493 0.930239V22H53.2844L45.8319 8.88928V22H40.7526V0.930239H45.8319L53.2844 14.041V0.930239H58.3493ZM69.5921 22H64.918L64.9469 18.0928H69.5921C70.5568 18.0928 71.372 17.8613 72.0377 17.3982C72.713 16.9352 73.2243 16.2454 73.5716 15.3289C73.9286 14.4027 74.107 13.2643 74.107 11.9137V11.002C74.107 9.98908 74.0057 9.10152 73.8032 8.33939C73.6102 7.5676 73.3208 6.92605 72.9349 6.41474C72.549 5.89379 72.0666 5.50307 71.4878 5.24259C70.9186 4.98212 70.2626 4.85188 69.5197 4.85188H64.8311V0.930239H69.5197C70.9475 0.930239 72.2548 1.17625 73.4414 1.66826C74.6376 2.15063 75.6699 2.84523 76.5382 3.75208C77.4161 4.64928 78.0914 5.71531 78.5641 6.95017C79.0465 8.17538 79.2877 9.53565 79.2877 11.031V11.9137C79.2877 13.3994 79.0465 14.7597 78.5641 15.9945C78.0914 17.2294 77.4209 18.2954 76.5526 19.1926C75.6844 20.0898 74.6569 20.7844 73.4703 21.2765C72.2933 21.7588 71.0006 22 69.5921 22ZM67.8266 0.930239V22H62.7473V0.930239H67.8266ZM85.8419 18.3244L85.8129 21.4212C85.8129 22.5885 85.5235 23.7413 84.9447 24.8797C84.3755 26.0181 83.676 26.9491 82.8464 27.6726L80.3718 26.5149C80.5744 26.0712 80.7963 25.6226 81.0375 25.1691C81.2787 24.7254 81.4861 24.2237 81.6597 23.6642C81.8334 23.1046 81.9202 22.4486 81.9202 21.6961V18.3244H85.8419ZM99.095 0.930239H107.387C109.008 0.930239 110.416 1.17142 111.612 1.65379C112.809 2.13615 113.73 2.85006 114.376 3.79549C115.032 4.74093 115.36 5.90826 115.36 7.29747C115.36 8.50339 115.172 9.51154 114.796 10.3219C114.42 11.1323 113.894 11.8028 113.219 12.3334C112.553 12.8543 111.776 13.2836 110.889 13.6213L109.225 14.5619H102.264L102.235 10.6403H107.387C108.033 10.6403 108.569 10.5245 108.993 10.293C109.418 10.0614 109.736 9.73342 109.948 9.30894C110.17 8.87481 110.281 8.35868 110.281 7.76055C110.281 7.15276 110.17 6.63181 109.948 6.19768C109.726 5.76355 109.398 5.43072 108.964 5.19918C108.54 4.96764 108.014 4.85188 107.387 4.85188H104.174V22H99.095V0.930239ZM110.628 22L105.969 12.6807L111.352 12.6517L116.069 21.7829V22H110.628ZM134.114 18.0928V22H122.884V18.0928H134.114ZM124.693 0.930239V22H119.614V0.930239H124.693ZM132.667 9.29447V13.0714H122.884V9.29447H132.667ZM134.157 0.930239V4.85188H122.884V0.930239H134.157ZM149.365 14.8658H154.43C154.362 16.3322 153.967 17.6249 153.243 18.744C152.52 19.8631 151.516 20.7362 150.233 21.3633C148.96 21.9807 147.455 22.2894 145.718 22.2894C144.31 22.2894 143.051 22.0531 141.941 21.5803C140.841 21.1076 139.906 20.4275 139.134 19.5399C138.372 18.6524 137.788 17.5767 137.383 16.3129C136.987 15.0491 136.79 13.6261 136.79 12.044V10.9008C136.79 9.31859 136.997 7.89561 137.412 6.63181C137.836 5.35836 138.434 4.27786 139.206 3.39031C139.988 2.49311 140.923 1.80815 142.014 1.33543C143.104 0.862708 144.314 0.626348 145.646 0.626348C147.479 0.626348 149.027 0.954357 150.291 1.61038C151.555 2.26639 152.534 3.16842 153.229 4.31645C153.923 5.45483 154.333 6.7524 154.459 8.20915H149.394C149.375 7.41807 149.239 6.75722 148.989 6.22662C148.738 5.68637 148.342 5.28118 147.802 5.01106C147.262 4.74093 146.543 4.60587 145.646 4.60587C145.019 4.60587 144.474 4.72164 144.011 4.95317C143.548 5.18471 143.162 5.55131 142.853 6.05297C142.544 6.55463 142.313 7.20582 142.158 8.00655C142.014 8.79763 141.941 9.75272 141.941 10.8718V12.044C141.941 13.163 142.009 14.1181 142.144 14.9092C142.279 15.7003 142.496 16.3467 142.795 16.8483C143.094 17.35 143.48 17.7214 143.953 17.9626C144.435 18.1941 145.024 18.3099 145.718 18.3099C146.49 18.3099 147.141 18.1893 147.672 17.9481C148.202 17.6973 148.612 17.321 148.902 16.8194C149.191 16.3081 149.346 15.6569 149.365 14.8658ZM172.517 18.0928V22H161.288V18.0928H172.517ZM163.097 0.930239V22H158.017V0.930239H163.097ZM171.07 9.29447V13.0714H161.288V9.29447H171.07ZM172.561 0.930239V4.85188H161.288V0.930239H172.561ZM181.184 0.930239V22H176.119V0.930239H181.184ZM193.918 17.0365L198.302 0.930239H203.989L196.884 22H193.209L193.918 17.0365ZM189.938 0.930239L194.323 17.0365L195.061 22H191.342L184.28 0.930239H189.938ZM221.223 18.0928V22H209.994V18.0928H221.223ZM211.803 0.930239V22H206.723V0.930239H211.803ZM219.776 9.29447V13.0714H209.994V9.29447H219.776ZM221.267 0.930239V4.85188H209.994V0.930239H221.267ZM241.987 5.35836L236.85 22H231.394L239.136 0.930239H242.595L241.987 5.35836ZM246.241 22L241.09 5.35836L240.424 0.930239H243.926L251.711 22H246.241ZM246.039 14.1423V18.0639H235.229V14.1423H246.039ZM272.042 0.930239V22H266.977L259.524 8.88928V22H254.445V0.930239H259.524L266.977 14.041V0.930239H272.042ZM283.285 22H278.61L278.639 18.0928H283.285C284.249 18.0928 285.065 17.8613 285.73 17.3982C286.406 16.9352 286.917 16.2454 287.264 15.3289C287.621 14.4027 287.8 13.2643 287.8 11.9137V11.002C287.8 9.98908 287.698 9.10152 287.496 8.33939C287.303 7.5676 287.013 6.92605 286.627 6.41474C286.242 5.89379 285.759 5.50307 285.18 5.24259C284.611 4.98212 283.955 4.85188 283.212 4.85188H278.524V0.930239H283.212C284.64 0.930239 285.947 1.17625 287.134 1.66826C288.33 2.15063 289.362 2.84523 290.231 3.75208C291.109 4.64928 291.784 5.71531 292.257 6.95017C292.739 8.17538 292.98 9.53565 292.98 11.031V11.9137C292.98 13.3994 292.739 14.7597 292.257 15.9945C291.784 17.2294 291.113 18.2954 290.245 19.1926C289.377 20.0898 288.349 20.7844 287.163 21.2765C285.986 21.7588 284.693 22 283.285 22ZM281.519 0.930239V22H276.44V0.930239H281.519ZM317.361 14.8658H322.426C322.359 16.3322 321.963 17.6249 321.24 18.744C320.516 19.8631 319.513 20.7362 318.23 21.3633C316.956 21.9807 315.451 22.2894 313.715 22.2894C312.306 22.2894 311.047 22.0531 309.938 21.5803C308.838 21.1076 307.902 20.4275 307.13 19.5399C306.368 18.6524 305.785 17.5767 305.38 16.3129C304.984 15.0491 304.786 13.6261 304.786 12.044V10.9008C304.786 9.31859 304.994 7.89561 305.408 6.63181C305.833 5.35836 306.431 4.27786 307.203 3.39031C307.984 2.49311 308.92 1.80815 310.01 1.33543C311.1 0.862708 312.311 0.626348 313.642 0.626348C315.475 0.626348 317.024 0.954357 318.288 1.61038C319.551 2.26639 320.531 3.16842 321.225 4.31645C321.92 5.45483 322.33 6.7524 322.455 8.20915H317.39C317.371 7.41807 317.236 6.75722 316.985 6.22662C316.734 5.68637 316.339 5.28118 315.799 5.01106C315.258 4.74093 314.54 4.60587 313.642 4.60587C313.015 4.60587 312.47 4.72164 312.007 4.95317C311.544 5.18471 311.158 5.55131 310.85 6.05297C310.541 6.55463 310.309 7.20582 310.155 8.00655C310.01 8.79763 309.938 9.75272 309.938 10.8718V12.044C309.938 13.163 310.005 14.1181 310.14 14.9092C310.276 15.7003 310.493 16.3467 310.792 16.8483C311.091 17.35 311.477 17.7214 311.949 17.9626C312.432 18.1941 313.02 18.3099 313.715 18.3099C314.487 18.3099 315.138 18.1893 315.668 17.9481C316.199 17.6973 316.609 17.321 316.898 16.8194C317.188 16.3081 317.342 15.6569 317.361 14.8658ZM334.943 5.35836L329.805 22H324.35L332.092 0.930239H335.55L334.943 5.35836ZM339.197 22L334.045 5.35836L333.38 0.930239H336.882L344.667 22H339.197ZM338.994 14.1423V18.0639H328.185V14.1423H338.994ZM358.254 16.3997C358.254 16.0717 358.206 15.7775 358.109 15.517C358.013 15.2469 357.835 14.996 357.574 14.7645C357.314 14.533 356.937 14.3014 356.445 14.0699C355.963 13.8287 355.326 13.5779 354.535 13.3174C353.609 13.0087 352.717 12.6614 351.858 12.2755C350.999 11.88 350.232 11.4217 349.557 10.9008C348.882 10.3701 348.346 9.75272 347.951 9.04846C347.555 8.33456 347.358 7.50489 347.358 6.55945C347.358 5.65261 347.56 4.83741 347.965 4.11386C348.371 3.38066 348.935 2.75841 349.658 2.2471C350.392 1.72614 351.25 1.3306 352.234 1.06048C353.218 0.780705 354.294 0.640819 355.461 0.640819C357.005 0.640819 358.365 0.910944 359.542 1.45119C360.729 1.9818 361.655 2.73911 362.321 3.72314C362.996 4.69752 363.334 5.85038 363.334 7.18171H358.283C358.283 6.6511 358.172 6.18321 357.95 5.77802C357.738 5.37283 357.415 5.05447 356.981 4.82294C356.547 4.5914 356.002 4.47563 355.346 4.47563C354.709 4.47563 354.173 4.5721 353.739 4.76505C353.305 4.958 352.977 5.21848 352.755 5.54648C352.533 5.86485 352.422 6.21697 352.422 6.60287C352.422 6.92123 352.509 7.21065 352.683 7.47113C352.866 7.72196 353.122 7.95832 353.45 8.1802C353.787 8.40209 354.193 8.61433 354.665 8.81693C355.148 9.01952 355.688 9.21729 356.286 9.41024C357.405 9.76719 358.399 10.1676 359.267 10.6113C360.145 11.0455 360.883 11.5423 361.481 12.1018C362.089 12.6517 362.547 13.2788 362.856 13.9831C363.174 14.6873 363.334 15.4832 363.334 16.3708C363.334 17.3162 363.15 18.1555 362.784 18.8887C362.417 19.6219 361.891 20.2442 361.206 20.7555C360.521 21.2572 359.701 21.6382 358.746 21.8987C357.791 22.1592 356.725 22.2894 355.548 22.2894C354.468 22.2894 353.402 22.1544 352.35 21.8842C351.308 21.6045 350.363 21.18 349.514 20.6108C348.665 20.0319 347.985 19.2939 347.473 18.3967C346.972 17.4899 346.721 16.4142 346.721 15.1697H351.815C351.815 15.7871 351.897 16.3081 352.061 16.7326C352.225 17.157 352.466 17.4995 352.784 17.76C353.103 18.0108 353.493 18.1941 353.956 18.3099C354.419 18.416 354.95 18.4691 355.548 18.4691C356.194 18.4691 356.715 18.3774 357.111 18.1941C357.507 18.0012 357.796 17.7504 357.979 17.4416C358.163 17.1233 358.254 16.776 358.254 16.3997ZM381.334 9.29447V13.2016H370.524V9.29447H381.334ZM372.218 0.930239V22H367.138V0.930239H372.218ZM384.749 0.930239V22H379.685V0.930239H384.749ZM415.556 11.0455V11.8992C415.556 13.5104 415.329 14.9575 414.876 16.2405C414.432 17.514 413.8 18.6041 412.98 19.511C412.16 20.4082 411.19 21.098 410.071 21.5803C408.952 22.0531 407.717 22.2894 406.367 22.2894C405.006 22.2894 403.762 22.0531 402.633 21.5803C401.514 21.098 400.54 20.4082 399.71 19.511C398.89 18.6041 398.253 17.514 397.8 16.2405C397.356 14.9575 397.134 13.5104 397.134 11.8992V11.0455C397.134 9.43436 397.356 7.98726 397.8 6.70416C398.253 5.42107 398.885 4.33092 399.696 3.43372C400.516 2.52687 401.485 1.83709 402.604 1.36437C403.733 0.882002 404.978 0.640819 406.338 0.640819C407.688 0.640819 408.923 0.882002 410.042 1.36437C411.171 1.83709 412.146 2.52687 412.966 3.43372C413.786 4.33092 414.422 5.42107 414.876 6.70416C415.329 7.98726 415.556 9.43436 415.556 11.0455ZM410.404 11.8992V11.0165C410.404 9.97461 410.313 9.05811 410.129 8.26703C409.956 7.4663 409.695 6.79581 409.348 6.25556C409 5.71531 408.571 5.31013 408.06 5.04C407.558 4.76023 406.984 4.62034 406.338 4.62034C405.663 4.62034 405.074 4.76023 404.572 5.04C404.071 5.31013 403.651 5.71531 403.313 6.25556C402.976 6.79581 402.72 7.4663 402.546 8.26703C402.382 9.05811 402.3 9.97461 402.3 11.0165V11.8992C402.3 12.9315 402.382 13.848 402.546 14.6487C402.72 15.4398 402.976 16.1103 403.313 16.6602C403.661 17.2101 404.085 17.6249 404.587 17.9047C405.098 18.1845 405.691 18.3244 406.367 18.3244C407.013 18.3244 407.587 18.1845 408.089 17.9047C408.59 17.6249 409.01 17.2101 409.348 16.6602C409.695 16.1103 409.956 15.4398 410.129 14.6487C410.313 13.848 410.404 12.9315 410.404 11.8992ZM430.807 0.930239H435.886V14.6922C435.886 16.3322 435.544 17.7214 434.859 18.8598C434.174 19.9885 433.214 20.8423 431.979 21.4212C430.744 22 429.292 22.2894 427.623 22.2894C425.974 22.2894 424.522 22 423.268 21.4212C422.023 20.8423 421.049 19.9885 420.345 18.8598C419.65 17.7214 419.303 16.3322 419.303 14.6922V0.930239H424.396V14.6922C424.396 15.5604 424.522 16.2695 424.773 16.8194C425.024 17.3596 425.39 17.7552 425.872 18.006C426.355 18.2568 426.939 18.3823 427.623 18.3823C428.318 18.3823 428.902 18.2568 429.374 18.006C429.847 17.7552 430.204 17.3596 430.445 16.8194C430.687 16.2695 430.807 15.5604 430.807 14.6922V0.930239ZM450.472 0.930239V22H445.393V0.930239H450.472ZM456.81 0.930239V4.85188H439.199V0.930239H456.81ZM7.63426 37.018L3.93548 49H0.00747211L5.5817 33.8298H8.07187L7.63426 37.018ZM10.6975 49L6.98828 37.018L6.509 33.8298H9.03042L14.6359 49H10.6975ZM10.5516 43.3424V46.166H2.76854V43.3424H10.5516ZM29.6059 33.8298V49H25.9592L20.5933 39.5603V49H16.9362V33.8298H20.5933L25.9592 43.2695V33.8298H29.6059ZM35.5633 33.8298L38.3556 40.4147L41.1583 33.8298H45.0968L40.2206 43.5508V49H36.501V43.5508L31.6144 33.8298H35.5633ZM62.5233 43.8634H66.17C66.1214 44.9192 65.8366 45.85 65.3156 46.6557C64.7947 47.4614 64.0723 48.0901 63.1485 48.5416C62.2316 48.9861 61.148 49.2084 59.8977 49.2084C58.8836 49.2084 57.9771 49.0382 57.1783 48.6978C56.3865 48.3575 55.7127 47.8678 55.157 47.2288C54.6083 46.5897 54.188 45.8152 53.8963 44.9053C53.6115 43.9954 53.4691 42.9708 53.4691 41.8317V41.0085C53.4691 39.8694 53.6184 38.8448 53.9171 37.9349C54.2227 37.018 54.6534 36.2401 55.2091 35.601C55.7717 34.955 56.4455 34.4619 57.2304 34.1215C58.0153 33.7811 58.887 33.611 59.8456 33.611C61.1654 33.611 62.2802 33.8471 63.1901 34.3195C64.1001 34.7918 64.8051 35.4413 65.3052 36.2678C65.8053 37.0875 66.1005 38.0217 66.1908 39.0706H62.5441C62.5303 38.501 62.433 38.0252 62.2524 37.6432C62.0718 37.2542 61.787 36.9625 61.398 36.768C61.0091 36.5735 60.4916 36.4762 59.8456 36.4762C59.3941 36.4762 59.0016 36.5596 58.6682 36.7263C58.3348 36.893 58.057 37.1569 57.8347 37.5181C57.6124 37.8793 57.4457 38.3482 57.3346 38.9247C57.2304 39.4943 57.1783 40.182 57.1783 40.9877V41.8317C57.1783 42.6374 57.2269 43.3251 57.3242 43.8946C57.4214 44.4642 57.5777 44.9296 57.793 45.2908C58.0084 45.652 58.2862 45.9194 58.6266 46.0931C58.9739 46.2598 59.3976 46.3431 59.8977 46.3431C60.4534 46.3431 60.9222 46.2563 61.3043 46.0826C61.6863 45.9021 61.9815 45.6312 62.1899 45.27C62.3983 44.9018 62.5094 44.433 62.5233 43.8634ZM79.3062 39.852V42.6652H71.5231V39.852H79.3062ZM72.7421 33.8298V49H69.085V33.8298H72.7421ZM81.7651 33.8298V49H78.1184V33.8298H81.7651ZM91.8902 37.018L88.1914 49H84.2634L89.8376 33.8298H92.3278L91.8902 37.018ZM94.9534 49L91.2442 37.018L90.7649 33.8298H93.2863L98.8918 49H94.9534ZM94.8075 43.3424V46.166H87.0244V43.3424H94.8075ZM105.078 33.8298V49H101.432V33.8298H105.078ZM121.507 33.8298V49H117.86L112.495 39.5603V49H108.837V33.8298H112.495L117.86 43.2695V33.8298H121.507ZM128.235 46.3535L128.215 48.5832C128.215 49.4237 128.006 50.2538 127.59 51.0734C127.18 51.893 126.676 52.5633 126.079 53.0843L124.297 52.2508C124.443 51.9312 124.603 51.6083 124.776 51.2818C124.95 50.9623 125.099 50.6011 125.224 50.1982C125.349 49.7953 125.412 49.323 125.412 48.7812V46.3535H128.235ZM144.87 37.018L141.171 49H137.243L142.818 33.8298H145.308L144.87 37.018ZM147.933 49L144.224 37.018L143.745 33.8298H146.266L151.872 49H147.933ZM147.788 43.3424V46.166H140.004V43.3424H147.788ZM166.842 33.8298V49H163.195L157.829 39.5603V49H154.172V33.8298H157.829L163.195 43.2695V33.8298H166.842ZM172.799 33.8298L175.592 40.4147L178.394 33.8298H182.333L177.457 43.5508V49H173.737V43.5508L168.85 33.8298H172.799ZM197.853 33.8298V49H194.195V33.8298H197.853ZM202.416 33.8298V36.6534H189.736V33.8298H202.416ZM217.699 41.1127V41.7275C217.699 42.8875 217.535 43.9294 217.209 44.8532C216.889 45.7701 216.434 46.555 215.844 47.2079C215.254 47.8539 214.556 48.3505 213.75 48.6978C212.944 49.0382 212.055 49.2084 211.082 49.2084C210.103 49.2084 209.207 49.0382 208.394 48.6978C207.589 48.3505 206.887 47.8539 206.29 47.2079C205.699 46.555 205.241 45.7701 204.914 44.8532C204.595 43.9294 204.435 42.8875 204.435 41.7275V41.1127C204.435 39.9527 204.595 38.9108 204.914 37.987C205.241 37.0632 205.696 36.2783 206.279 35.6323C206.87 34.9793 207.568 34.4827 208.374 34.1423C209.186 33.795 210.082 33.6214 211.062 33.6214C212.034 33.6214 212.923 33.795 213.729 34.1423C214.542 34.4827 215.243 34.9793 215.834 35.6323C216.424 36.2783 216.882 37.0632 217.209 37.987C217.535 38.9108 217.699 39.9527 217.699 41.1127ZM213.989 41.7275V41.0919C213.989 40.3417 213.923 39.6818 213.791 39.1123C213.666 38.5357 213.479 38.053 213.229 37.664C212.979 37.275 212.67 36.9833 212.302 36.7888C211.94 36.5874 211.527 36.4866 211.062 36.4866C210.575 36.4866 210.152 36.5874 209.791 36.7888C209.429 36.9833 209.127 37.275 208.884 37.664C208.641 38.053 208.457 38.5357 208.332 39.1123C208.214 39.6818 208.155 40.3417 208.155 41.0919V41.7275C208.155 42.4707 208.214 43.1306 208.332 43.7071C208.457 44.2767 208.641 44.7594 208.884 45.1553C209.134 45.5513 209.44 45.85 209.801 46.0514C210.169 46.2528 210.596 46.3535 211.082 46.3535C211.548 46.3535 211.961 46.2528 212.322 46.0514C212.684 45.85 212.986 45.5513 213.229 45.1553C213.479 44.7594 213.666 44.2767 213.791 43.7071C213.923 43.1306 213.989 42.4707 213.989 41.7275ZM224.437 33.8298V49H220.78V33.8298H224.437ZM233.492 33.8298L227.615 41.5191L224.177 45.2804L223.51 41.9254L225.709 38.5913L228.98 33.8298H233.492ZM229.168 49L225.25 42.1651L228.095 40.0708L233.492 49H229.168ZM246.055 46.1868V49H237.97V46.1868H246.055ZM239.272 33.8298V49H235.615V33.8298H239.272ZM245.013 39.852V42.5714H237.97V39.852H245.013ZM246.086 33.8298V36.6534H237.97V33.8298H246.086ZM261.41 33.8298V49H257.764L252.398 39.5603V49H248.741V33.8298H252.398L257.764 43.2695V33.8298H261.41ZM268.139 46.3535L268.118 48.5832C268.118 49.4237 267.909 50.2538 267.493 51.0734C267.083 51.893 266.579 52.5633 265.982 53.0843L264.2 52.2508C264.346 51.9312 264.506 51.6083 264.68 51.2818C264.853 50.9623 265.003 50.6011 265.128 50.1982C265.253 49.7953 265.315 49.323 265.315 48.7812V46.3535H268.139ZM282.002 33.8298V49H278.345V33.8298H282.002ZM287.899 40.1438V42.9569H280.96V40.1438H287.899ZM288.493 33.8298V36.6534H280.96V33.8298H288.493ZM295.086 33.8298V49H291.439V33.8298H295.086ZM305.461 37.018L301.762 49H297.834L303.409 33.8298H305.899L305.461 37.018ZM308.524 49L304.815 37.018L304.336 33.8298H306.857L312.463 49H308.524ZM308.379 43.3424V46.166H300.595V43.3424H308.379ZM320.858 33.8298V49H317.201V33.8298H320.858ZM325.422 33.8298V36.6534H312.742V33.8298H325.422ZM346.87 41.1127V41.7275C346.87 42.8875 346.707 43.9294 346.38 44.8532C346.061 45.7701 345.606 46.555 345.016 47.2079C344.425 47.8539 343.727 48.3505 342.921 48.6978C342.116 49.0382 341.226 49.2084 340.254 49.2084C339.275 49.2084 338.379 49.0382 337.566 48.6978C336.76 48.3505 336.059 47.8539 335.461 47.2079C334.871 46.555 334.412 45.7701 334.086 44.8532C333.766 43.9294 333.607 42.8875 333.607 41.7275V41.1127C333.607 39.9527 333.766 38.9108 334.086 37.987C334.412 37.0632 334.867 36.2783 335.451 35.6323C336.041 34.9793 336.739 34.4827 337.545 34.1423C338.358 33.795 339.254 33.6214 340.233 33.6214C341.206 33.6214 342.095 33.795 342.9 34.1423C343.713 34.4827 344.415 34.9793 345.005 35.6323C345.596 36.2783 346.054 37.0632 346.38 37.987C346.707 38.9108 346.87 39.9527 346.87 41.1127ZM343.161 41.7275V41.0919C343.161 40.3417 343.095 39.6818 342.963 39.1123C342.838 38.5357 342.65 38.053 342.4 37.664C342.15 37.275 341.841 36.9833 341.473 36.7888C341.112 36.5874 340.699 36.4866 340.233 36.4866C339.747 36.4866 339.323 36.5874 338.962 36.7888C338.601 36.9833 338.299 37.275 338.056 37.664C337.812 38.053 337.628 38.5357 337.503 39.1123C337.385 39.6818 337.326 40.3417 337.326 41.0919V41.7275C337.326 42.4707 337.385 43.1306 337.503 43.7071C337.628 44.2767 337.812 44.7594 338.056 45.1553C338.306 45.5513 338.611 45.85 338.972 46.0514C339.341 46.2528 339.768 46.3535 340.254 46.3535C340.719 46.3535 341.133 46.2528 341.494 46.0514C341.855 45.85 342.157 45.5513 342.4 45.1553C342.65 44.7594 342.838 44.2767 342.963 43.7071C343.095 43.1306 343.161 42.4707 343.161 41.7275ZM349.952 33.8298H355.922C357.089 33.8298 358.103 34.0034 358.964 34.3507C359.826 34.698 360.489 35.212 360.954 35.8928C361.427 36.5735 361.663 37.4139 361.663 38.4142C361.663 39.2824 361.528 40.0083 361.257 40.5918C360.986 41.1752 360.607 41.658 360.121 42.04C359.642 42.4151 359.082 42.7242 358.443 42.9673L357.245 43.6446H352.234L352.213 40.821H355.922C356.387 40.821 356.773 40.7376 357.079 40.5709C357.384 40.4042 357.613 40.1681 357.766 39.8624C357.926 39.5499 358.006 39.1782 358.006 38.7476C358.006 38.31 357.926 37.9349 357.766 37.6223C357.606 37.3098 357.37 37.0701 357.058 36.9034C356.752 36.7367 356.374 36.6534 355.922 36.6534H353.609V49H349.952V33.8298ZM358.256 49L354.901 42.2901L358.777 42.2693L362.173 48.8437V49H358.256ZM380.184 43.8634H383.83C383.782 44.9192 383.497 45.85 382.976 46.6557C382.455 47.4614 381.732 48.0901 380.809 48.5416C379.892 48.9861 378.808 49.2084 377.558 49.2084C376.544 49.2084 375.637 49.0382 374.839 48.6978C374.047 48.3575 373.373 47.8678 372.817 47.2288C372.268 46.5897 371.848 45.8152 371.556 44.9053C371.272 43.9954 371.129 42.9708 371.129 41.8317V41.0085C371.129 39.8694 371.279 38.8448 371.577 37.9349C371.883 37.018 372.314 36.2401 372.869 35.601C373.432 34.955 374.106 34.4619 374.891 34.1215C375.676 33.7811 376.547 33.611 377.506 33.611C378.826 33.611 379.94 33.8471 380.85 34.3195C381.76 34.7918 382.465 35.4413 382.965 36.2678C383.466 37.0875 383.761 38.0217 383.851 39.0706H380.204C380.19 38.501 380.093 38.0252 379.913 37.6432C379.732 37.2542 379.447 36.9625 379.058 36.768C378.669 36.5735 378.152 36.4762 377.506 36.4762C377.054 36.4762 376.662 36.5596 376.328 36.7263C375.995 36.893 375.717 37.1569 375.495 37.5181C375.273 37.8793 375.106 38.3482 374.995 38.9247C374.891 39.4943 374.839 40.182 374.839 40.9877V41.8317C374.839 42.6374 374.887 43.3251 374.984 43.8946C375.082 44.4642 375.238 44.9296 375.453 45.2908C375.669 45.652 375.946 45.9194 376.287 46.0931C376.634 46.2598 377.058 46.3431 377.558 46.3431C378.114 46.3431 378.582 46.2563 378.964 46.0826C379.347 45.9021 379.642 45.6312 379.85 45.27C380.058 44.9018 380.17 44.433 380.184 43.8634ZM386.745 33.8298H392.715C393.882 33.8298 394.896 34.0034 395.758 34.3507C396.619 34.698 397.282 35.212 397.748 35.8928C398.22 36.5735 398.456 37.4139 398.456 38.4142C398.456 39.2824 398.321 40.0083 398.05 40.5918C397.779 41.1752 397.401 41.658 396.914 42.04C396.435 42.4151 395.876 42.7242 395.237 42.9673L394.039 43.6446H389.027L389.006 40.821H392.715C393.181 40.821 393.566 40.7376 393.872 40.5709C394.178 40.4042 394.407 40.1681 394.56 39.8624C394.719 39.5499 394.799 39.1782 394.799 38.7476C394.799 38.31 394.719 37.9349 394.56 37.6223C394.4 37.3098 394.164 37.0701 393.851 36.9034C393.545 36.7367 393.167 36.6534 392.715 36.6534H390.402V49H386.745V33.8298ZM395.049 49L391.694 42.2901L395.57 42.2693L398.967 48.8437V49H395.049ZM404.101 33.8298L406.894 40.4147L409.696 33.8298H413.635L408.759 43.5508V49H405.039V43.5508L400.152 33.8298H404.101ZM421.988 43.853H418.217V41.0294H421.988C422.502 41.0294 422.919 40.9426 423.239 40.7689C423.558 40.5952 423.791 40.3556 423.937 40.05C424.09 39.7374 424.166 39.3866 424.166 38.9977C424.166 38.5809 424.09 38.1954 423.937 37.8411C423.791 37.4869 423.558 37.2021 423.239 36.9868C422.919 36.7645 422.502 36.6534 421.988 36.6534H419.592V49H415.935V33.8298H421.988C423.204 33.8298 424.249 34.052 425.125 34.4966C426.007 34.9411 426.684 35.5524 427.156 36.3304C427.629 37.1014 427.865 37.9835 427.865 38.9768C427.865 39.9562 427.629 40.8106 427.156 41.5399C426.684 42.2693 426.007 42.8388 425.125 43.2486C424.249 43.6515 423.204 43.853 421.988 43.853ZM438.365 33.8298V49H434.708V33.8298H438.365ZM442.929 33.8298V36.6534H430.249V33.8298H442.929ZM458.211 41.1127V41.7275C458.211 42.8875 458.048 43.9294 457.721 44.8532C457.402 45.7701 456.947 46.555 456.357 47.2079C455.766 47.8539 455.068 48.3505 454.262 48.6978C453.457 49.0382 452.567 49.2084 451.595 49.2084C450.616 49.2084 449.72 49.0382 448.907 48.6978C448.101 48.3505 447.4 47.8539 446.802 47.2079C446.212 46.555 445.753 45.7701 445.427 44.8532C445.107 43.9294 444.948 42.8875 444.948 41.7275V41.1127C444.948 39.9527 445.107 38.9108 445.427 37.987C445.753 37.0632 446.208 36.2783 446.792 35.6323C447.382 34.9793 448.08 34.4827 448.886 34.1423C449.699 33.795 450.595 33.6214 451.574 33.6214C452.547 33.6214 453.436 33.795 454.241 34.1423C455.054 34.4827 455.756 34.9793 456.346 35.6323C456.937 36.2783 457.395 37.0632 457.721 37.987C458.048 38.9108 458.211 39.9527 458.211 41.1127ZM454.502 41.7275V41.0919C454.502 40.3417 454.436 39.6818 454.304 39.1123C454.179 38.5357 453.991 38.053 453.741 37.664C453.491 37.275 453.182 36.9833 452.814 36.7888C452.453 36.5874 452.04 36.4866 451.574 36.4866C451.088 36.4866 450.664 36.5874 450.303 36.7888C449.942 36.9833 449.64 37.275 449.397 37.664C449.153 38.053 448.969 38.5357 448.844 39.1123C448.726 39.6818 448.667 40.3417 448.667 41.0919V41.7275C448.667 42.4707 448.726 43.1306 448.844 43.7071C448.969 44.2767 449.153 44.7594 449.397 45.1553C449.647 45.5513 449.952 45.85 450.313 46.0514C450.682 46.2528 451.109 46.3535 451.595 46.3535C452.06 46.3535 452.474 46.2528 452.835 46.0514C453.196 45.85 453.498 45.5513 453.741 45.1553C453.991 44.7594 454.179 44.2767 454.304 43.7071C454.436 43.1306 454.502 42.4707 454.502 41.7275Z" fill="black"/>
</svg>
