<?xml version="1.0" encoding="utf-8"?>
<!-- Generator: Adobe Illustrator 27.5.0, SVG Export Plug-In . SVG Version: 6.00 Build 0)  -->
<svg version="1.1" id="Layer_1" xmlns="http://www.w3.org/2000/svg" xmlns:xlink="http://www.w3.org/1999/xlink" x="0px" y="0px"
	 viewBox="0 0 1000 1000" style="enable-background:new 0 0 1000 1000;" xml:space="preserve">
<style type="text/css">
	.st0{fill:#F6D4E2;}
	.st1{fill:#3768A3;}
	.st2{fill:#DD5846;}
	.st3{fill:#E1FFAE;}
	.st4{fill:#E4E8EF;}
	.st5{fill:#0040F4;}
	.st6{fill:#F4EFCE;}
	.st7{fill:#F7313D;}
	.st8{fill:#F9F09B;}
	.st9{fill:#F9C785;}
	.st10{fill:#7C63E5;}
	.st11{fill:#E5B9FF;}
	.st12{fill:#FCFAC0;}
	.st13{fill:#1209C8;}
	.st14{fill:#FFE771;}
	.st15{fill:#4B4BEF;}
	.st16{fill:#3FA57C;}
	.st17{fill:#FCFAF8;}
	.st18{fill:#393856;}
	.st19{fill:#EAF3FF;}
	.st20{fill:#466FDB;}
	.st21{fill:#EF9ECA;}
	.st22{fill:#EA3338;}
	.st23{fill:#FCCB3F;}
	.st24{fill:#EE571E;}
	.st25{fill:#FCF1D5;}
	.st26{fill:#68459B;}
	.st27{fill:#F84234;}
	.st28{fill:#FFDFD8;}
	.st29{fill:#FF7841;}
	.st30{fill:#FFFA1C;}
	.st31{fill:#DCF7F9;}
	.st32{fill:#1379C8;}
	.st33{fill:#F4F47D;}
	.st34{fill:#FF4C37;}
	.st35{fill:#FB4B33;}
	.st36{fill:#FFD8CB;}
	.st37{fill:#5746F9;}
	.st38{fill:#F9F3C7;}
	.st39{fill:#FFEE99;}
	.st40{fill:#1CACE4;}
	.st41{fill:#2C27A8;}
	.st42{fill:#C5E6EF;}
	.st43{fill:#FF3D66;}
	.st44{fill:#FFFF3D;}
	.st45{fill:#FFFDF4;}
	.st46{fill:#FFCAC1;}
	.st47{fill:#FF9408;}
	.st48{fill:#FFEF79;}
	.st49{fill:#FFC50B;}
	.st50{fill:#FFECE9;}
	.st51{fill:#383838;}
	.st52{fill:#0042F7;}
	.st53{fill:#FFFFFF;}
	.st54{fill:#6D525A;}
	.st55{fill:#EDE972;}
	.st56{fill:#886CC4;}
	.st57{fill:#FF4631;}
	.st58{fill:#FFA99E;}
	.st59{fill:#F64236;}
	.st60{fill:#F993C9;}
	.st61{fill:#265ADD;}
	.st62{fill:#1E56C6;}
	.st63{fill:#F8FCAE;}
	.st64{fill:#EC3A38;}
	.st65{fill:#FFE35A;}
	.st66{fill:#3E6FD5;}
	.st67{fill:#E2C8FC;}
	.st68{fill:#E9F98F;}
	.st69{fill:#F4A664;}
	.st70{fill:#F2B76D;}
	.st71{fill:#F0C775;}
	.st72{fill:#EDD87E;}
	.st73{fill:#EBE886;}
	.st74{fill:#FFDA64;}
	.st75{fill:#7286F7;}
	.st76{fill:#EED8EE;}
	.st77{fill:#34949D;}
	.st78{fill:#FFCDE7;}
	.st79{fill:#E344A1;}
	.st80{fill:#F9DDFD;}
	.st81{fill:#FF9CB9;}
	.st82{fill:#F43E6A;}
	.st83{fill:#FFC0D4;}
	.st84{fill:#DBC1FE;}
	.st85{fill:#733FC5;}
	.st86{fill:#346397;}
	.st87{fill:#F13830;}
	.st88{fill:#F4BABA;}
	.st89{fill:#491313;}
	.st90{fill:#E2346C;}
	.st91{fill:#FFDCFB;}
	.st92{fill:#376CB2;}
	.st93{fill:#8867CE;}
	.st94{fill:#F19EF8;}
	.st95{fill:#F7D4FC;}
</style>
<g>
	<path class="st41" d="M830.47,542.86c0-22.93-9.51-37.45-17.5-45.61c-3.03-3.09-6.97-6.4-11.93-9.34c1.16-0.98,2.31-1.98,3.39-3.07
		c10.15-10.15,15.73-23.79,15.73-38.41v-15.98c0-11.95-3.17-21.22-7.24-28.21c4.76-8.9,6.03-17.4,6.03-23.83
		c0-3.86-0.45-8.46-1.83-13.45c1.39-4.99,1.83-9.59,1.83-13.45c0-9.66-2.81-24-16.2-37.4c-13.38-13.37-27.71-16.17-37.37-16.17
		c-3.86,0-8.46,0.45-13.45,1.83c-4.99-1.39-9.59-1.83-13.45-1.83c-7.48,0-17.77,1.71-28.23,8.67c-10.47-6.97-20.75-8.67-28.23-8.67
		c-3.86,0-8.46,0.45-13.45,1.84c-4.99-1.39-9.59-1.84-13.45-1.84c-6.96,0-16.34,1.48-26.04,7.29c-3.11-5.78-6.75-10.3-10.12-13.68
		c-8.11-8.11-22.68-17.78-46.01-17.78c-15.69,0-27.42,4.37-35.88,9.7c-8.46-5.33-20.19-9.7-35.88-9.7
		c-17.66,0-33.4,6.52-45.54,18.87c-1.67,1.7-3.2,3.48-4.64,5.31c-3.72-0.59-7.71-0.93-12-0.93h-40.66c-23.33,0-37.9,9.67-46,17.77
		c-4.54,4.53-9.56,11.08-13.1,20.05c-7.93,3.47-13.82,8.06-18,12.24c-1.8,1.8-3.68,3.94-5.51,6.41
		c-5.87-5.37-12.47-9.55-19.69-12.33c-2.25-12.65-8.08-23.99-17.2-33.27c-12.13-12.34-27.87-18.86-45.53-18.86
		c-17.66,0-33.4,6.52-45.55,18.87c-11.93,12.15-18.23,27.84-18.23,45.39v142.55c0,17.56,6.31,33.26,18.24,45.4
		c0.1,0.11,0.22,0.19,0.33,0.3c-1.11,0.93-2.19,1.91-3.23,2.95c-9.2,9.2-14.27,21.16-14.27,33.68c0,2.71,0.24,5.4,0.7,8.04
		c-0.47,2.64-0.7,5.32-0.7,8.04c0,7.05,1.66,13.9,4.7,20.2c-3.04,6.3-4.7,13.15-4.7,20.2c0,2.71,0.24,5.4,0.7,8.04
		c-0.47,2.64-0.7,5.32-0.7,8.04c0,12.52,5.07,24.48,14.25,33.67c9.2,9.21,21.17,14.28,33.7,14.28c2.71,0,5.4-0.24,8.04-0.7
		c2.64,0.47,5.32,0.7,8.04,0.7c1.88,0,3.73-0.15,5.58-0.38c2.16,3.19,4.6,6.22,7.37,9.05c12.12,12.34,27.87,18.86,45.54,18.86h39.47
		c23.34,0,37.9-9.67,46-17.77c4.18-4.18,8.78-10.08,12.25-18.01c8.17-3.23,14.32-7.68,18.78-11.88c1.43,1.76,2.92,3.49,4.56,5.12
		c12.18,12.18,27.96,18.62,45.66,18.62h38.51c4.08,0,8.04-0.38,11.9-1.06c1.62,2.11,3.32,4.17,5.23,6.11
		c12.12,12.34,27.87,18.86,45.54,18.86h39.47c23.34,0,37.9-9.67,46-17.77c3.91-3.91,8.18-9.35,11.56-16.53
		c8.53,5.63,20.57,10.38,36.92,10.38h72c21.19,0,35.15-8.08,43.15-14.86c13.15-11.17,20.39-27.35,20.39-45.57v-2.39
		c0-11.69-2.41-21.18-5.83-28.75c3.87-8.68,5.83-18.59,5.83-29.62V542.86z"/>
	<g>
		<path class="st42" d="M216.21,513.33c-4.54-4.62-6.82-10.44-6.82-17.46V353.31c0-7.02,2.27-12.83,6.82-17.46
			c4.55-4.62,10.24-6.94,17.1-6.94c6.85,0,12.56,2.31,17.1,6.94c4.55,4.63,6.82,10.45,6.82,17.46v21.05c0,1.6,0.8,2.39,2.39,2.39
			h12.68c7.01,0,12.83,2.31,17.46,6.94c4.62,4.63,6.94,10.44,6.94,17.46v21.05c0,1.6,0.8,2.39,2.39,2.39h5.5
			c7.02,0,12.83,2.31,17.46,6.94c4.62,4.63,6.94,10.45,6.94,17.46v46.88c0,7.02-2.27,12.84-6.82,17.46
			c-4.54,4.63-10.25,6.94-17.1,6.94c-6.86,0-12.56-2.31-17.1-6.94c-4.55-4.62-6.82-10.44-6.82-17.46v-80.84
			c0-1.59-0.8-2.39-2.39-2.39h-19.14c-1.59,0-2.39,0.8-2.39,2.39v80.84c0,7.02-2.27,12.84-6.82,17.46
			c-4.54,4.63-10.25,6.94-17.1,6.94C226.45,520.27,220.75,517.96,216.21,513.33z"/>
		<path class="st42" d="M349.43,474.3c-4.07-4.07-6.1-10-6.1-17.82V393.1c0-7.81,2.03-13.75,6.1-17.82s10-6.1,17.82-6.1h4.78
			c1.59,0,2.39-0.8,2.39-2.39v-5.98c0-7.81,2.03-13.75,6.1-17.82c4.07-4.07,10-6.1,17.82-6.1h40.66c7.81,0,13.75,2.07,17.82,6.22
			c4.06,4.15,6.1,10.05,6.1,17.7v38.27c0,7.82-1.72,13.75-5.14,17.82c-3.43,4.07-8.33,6.1-14.71,6.1h-49.51
			c-1.59,0-2.39,0.8-2.39,2.39v37.07c0,1.6,0.8,2.39,2.39,2.39h19.37c1.59,0,2.39-0.79,2.39-2.39v-8.37c0-6.54,2.11-11.6,6.34-15.19
			c4.22-3.59,10.08-5.38,17.58-5.38c7.81,0,13.71,2.03,17.7,6.1c3.98,4.07,5.98,10.01,5.98,17.82v2.39c0,6.54-2.12,11.6-6.34,15.19
			c-4.23,3.59-10.01,5.38-17.34,5.38h-72C359.44,480.4,353.5,478.37,349.43,474.3z M393.56,387.12h27.03c1.59,0,2.39-0.8,2.39-2.39
			v-29.9c0-1.59-0.8-2.39-2.39-2.39h-27.03c-1.59,0-2.39,0.8-2.39,2.39v29.9C391.17,386.32,391.97,387.12,393.56,387.12z"/>
		<path class="st42" d="M484.09,498.88c-4.07-4.07-6.1-10.01-6.1-17.82c0-7.82,2.03-13.75,6.1-17.82s10-6.1,17.82-6.1
			c7.81,0,13.75,2.03,17.82,6.1c4.07,4.07,6.1,10.01,6.1,17.82v5.98c0,1.59,0.8,2.39,2.39,2.39h18.42c1.59,0,2.39-0.8,2.39-2.39
			v-27.51c0-1.6-0.8-2.39-2.39-2.39h-12.68c-7.02,0-12.84-2.31-17.46-6.94c-4.63-4.62-6.94-10.44-6.94-17.46V411.7
			c0-1.59-0.8-2.39-2.39-2.39h-5.5c-7.02,0-12.84-2.31-17.46-6.94c-4.63-4.62-6.94-10.44-6.94-17.46v-46.88
			c0-7.02,2.27-12.83,6.82-17.46c4.55-4.62,10.24-6.94,17.1-6.94c7.81,0,13.75,2.03,17.82,6.1c4.07,4.06,6.1,10.01,6.1,17.82v81.32
			c0,1.6,0.8,2.39,2.39,2.39h19.14c1.59,0,2.39-0.8,2.39-2.39v-81.32c0-7.81,2.03-13.75,6.1-17.82c4.06-4.07,10-6.1,17.82-6.1
			c7.81,0,13.75,2.03,17.82,6.1c4.06,4.06,6.1,10.01,6.1,17.82v143.03c0,7.01-2.24,12.83-6.7,17.46
			c-4.47,4.62-10.21,6.94-17.22,6.94h-71.04C494.1,504.98,488.16,502.95,484.09,498.88z"/>
		<path class="st42" d="M276,679.43c-4.54-4.62-6.82-10.44-6.82-17.46v-46.88c0-7.01,2.31-12.83,6.94-17.46
			c4.62-4.62,10.44-6.94,17.46-6.94h5.5c1.59,0,2.39-0.8,2.39-2.39v-21.05c0-7.02,2.31-12.83,6.94-17.46
			c4.62-4.62,10.44-6.94,17.46-6.94h12.68c1.59,0,2.39-0.79,2.39-2.39v-21.53c0-7.49,2.31-13.35,6.94-17.58
			c4.62-4.22,10.28-6.34,16.98-6.34c7.02,0,12.76,2.31,17.22,6.94c4.46,4.63,6.7,10.45,6.7,17.46v111.94
			c0,7.82-2.03,13.75-6.1,17.82c-4.07,4.06-10.01,6.1-17.82,6.1h-5.98c-1.6,0-2.39,0.8-2.39,2.39v4.78c0,7.82-2.03,13.75-6.1,17.82
			c-4.07,4.07-10.01,6.1-17.82,6.1H293.1C286.25,686.37,280.55,684.06,276,679.43z M319.41,650.49h19.14c1.59,0,2.39-0.8,2.39-2.39
			v-66.97c0-1.59-0.8-2.39-2.39-2.39h-19.14c-1.59,0-2.39,0.8-2.39,2.39v66.97C317.02,649.69,317.82,650.49,319.41,650.49z"/>
		<path class="st42" d="M515.91,525.87c4.55,4.63,6.82,10.44,6.82,17.46v94.72c0,7.02-2.31,12.84-6.94,17.46
			c-4.63,4.63-10.44,6.94-17.46,6.94h-38.51c-7.02,0-12.84-2.31-17.46-6.94c-4.63-4.62-6.94-10.44-6.94-17.46V617
			c0-1.59-0.8-2.39-2.39-2.39h-5.5c-7.02,0-12.84-2.31-17.46-6.94c-4.63-4.62-6.94-10.44-6.94-17.46v-46.88
			c0-7.02,2.27-12.83,6.82-17.46c4.55-4.62,10.24-6.94,17.1-6.94c6.85,0,12.56,2.31,17.1,6.94c4.55,4.63,6.82,10.44,6.82,17.46
			v80.84c0,1.6,0.8,2.39,2.39,2.39h19.14c1.59,0,2.39-0.8,2.39-2.39v-80.84c0-7.02,2.27-12.83,6.82-17.46
			c4.55-4.62,10.24-6.94,17.1-6.94C505.66,518.94,511.36,521.25,515.91,525.87z"/>
		<path class="st42" d="M543.89,679.43c-4.54-4.62-6.82-10.44-6.82-17.46v-46.88c0-7.01,2.31-12.83,6.94-17.46
			c4.62-4.62,10.44-6.94,17.46-6.94h5.5c1.59,0,2.39-0.8,2.39-2.39v-21.05c0-7.02,2.31-12.83,6.94-17.46
			c4.62-4.62,10.44-6.94,17.46-6.94h12.68c1.59,0,2.39-0.79,2.39-2.39v-21.53c0-7.49,2.31-13.35,6.94-17.58
			c4.62-4.22,10.28-6.34,16.98-6.34c7.02,0,12.76,2.31,17.22,6.94c4.46,4.63,6.7,10.45,6.7,17.46v111.94
			c0,7.82-2.03,13.75-6.1,17.82c-4.07,4.06-10.01,6.1-17.82,6.1h-5.98c-1.6,0-2.39,0.8-2.39,2.39v4.78c0,7.82-2.03,13.75-6.1,17.82
			c-4.07,4.07-10.01,6.1-17.82,6.1h-39.47C554.13,686.37,548.43,684.06,543.89,679.43z M587.3,650.49h19.14
			c1.59,0,2.39-0.8,2.39-2.39v-66.97c0-1.59-0.8-2.39-2.39-2.39H587.3c-1.59,0-2.39,0.8-2.39,2.39v66.97
			C584.91,649.69,585.71,650.49,587.3,650.49z"/>
		<path class="st42" d="M677.12,656.35c-4.07-4.07-6.1-10.01-6.1-17.82v-63.38c0-7.81,2.03-13.75,6.1-17.82
			c4.07-4.07,10.01-6.1,17.82-6.1h4.78c1.59,0,2.39-0.8,2.39-2.39v-5.98c0-7.81,2.03-13.75,6.1-17.82c4.07-4.07,10-6.1,17.82-6.1
			h40.66c7.81,0,13.75,2.07,17.82,6.22c4.06,4.15,6.1,10.05,6.1,17.7v38.27c0,7.82-1.72,13.75-5.14,17.82
			c-3.43,4.07-8.33,6.1-14.71,6.1h-49.51c-1.59,0-2.39,0.8-2.39,2.39v37.07c0,1.6,0.8,2.39,2.39,2.39h19.37
			c1.59,0,2.39-0.79,2.39-2.39v-8.37c0-6.54,2.11-11.6,6.34-15.19c4.22-3.59,10.08-5.38,17.58-5.38c7.81,0,13.71,2.03,17.7,6.1
			c3.98,4.07,5.98,10.01,5.98,17.82v2.39c0,6.54-2.12,11.6-6.34,15.19c-4.23,3.59-10.01,5.38-17.34,5.38h-72
			C687.12,662.45,681.18,660.42,677.12,656.35z M721.24,569.17h27.03c1.59,0,2.39-0.8,2.39-2.39v-29.9c0-1.59-0.8-2.39-2.39-2.39
			h-27.03c-1.59,0-2.39,0.8-2.39,2.39v29.9C718.85,568.37,719.65,569.17,721.24,569.17z"/>
		<path class="st42" d="M229.12,599.76l-13.48-13.58l10.99-10.99l10.99,10.99l-13.58,13.58c-1.73,1.73-3.56,2.59-5.5,2.59
			c-1.94,0-3.77-0.86-5.5-2.59c-1.73-1.73-2.59-3.56-2.59-5.5c0-1.93,0.86-3.77,2.59-5.5l2.59-2.59l-2.59-2.49
			c-1.73-1.73-2.59-3.56-2.59-5.5c0-1.93,0.86-3.77,2.59-5.5c1.8-1.8,3.63-2.7,5.5-2.7c1.87,0,3.7,0.9,5.5,2.7l2.59,2.49l2.49-2.49
			c1.8-1.8,3.63-2.7,5.5-2.7c1.87,0,3.7,0.9,5.5,2.7c1.8,1.8,2.7,3.63,2.7,5.5s-0.9,3.7-2.7,5.5l-2.49,2.49l2.49,2.59
			c1.8,1.8,2.7,3.63,2.7,5.5c0,1.87-0.9,3.7-2.7,5.5c-1.73,1.73-3.56,2.59-5.5,2.59C232.68,602.36,230.85,601.49,229.12,599.76z"/>
		<path class="st42" d="M229.12,656.24l-13.48-13.58l10.99-10.99l10.99,10.99l-13.58,13.58c-1.73,1.73-3.56,2.59-5.5,2.59
			c-1.94,0-3.77-0.86-5.5-2.59c-1.73-1.73-2.59-3.56-2.59-5.5c0-1.93,0.86-3.77,2.59-5.5l2.59-2.59l-2.59-2.49
			c-1.73-1.73-2.59-3.56-2.59-5.5c0-1.93,0.86-3.77,2.59-5.5c1.8-1.8,3.63-2.7,5.5-2.7c1.87,0,3.7,0.9,5.5,2.7l2.59,2.49l2.49-2.49
			c1.8-1.8,3.63-2.7,5.5-2.7c1.87,0,3.7,0.9,5.5,2.7c1.8,1.8,2.7,3.63,2.7,5.5c0,1.87-0.9,3.7-2.7,5.5l-2.49,2.49l2.49,2.59
			c1.8,1.8,2.7,3.63,2.7,5.5c0,1.87-0.9,3.7-2.7,5.5c-1.73,1.73-3.56,2.59-5.5,2.59C232.68,658.83,230.85,657.97,229.12,656.24z"/>
		<path class="st42" d="M672.82,387.6l-22.56-22.73l18.39-18.39l18.39,18.39l-22.73,22.73c-2.89,2.89-5.96,4.34-9.2,4.34
			c-3.24,0-6.31-1.44-9.2-4.34c-2.89-2.89-4.34-5.96-4.34-9.2c0-3.24,1.44-6.3,4.34-9.2l4.34-4.34l-4.34-4.16
			c-2.89-2.89-4.34-5.96-4.34-9.2c0-3.24,1.44-6.3,4.34-9.2c3.01-3.01,6.07-4.51,9.2-4.51c3.12,0,6.19,1.5,9.2,4.51l4.34,4.16
			l4.16-4.16c3.01-3.01,6.07-4.51,9.2-4.51c3.12,0,6.19,1.5,9.2,4.51c3.01,3.01,4.51,6.07,4.51,9.2c0,3.12-1.5,6.19-4.51,9.2
			l-4.16,4.16l4.16,4.34c3.01,3.01,4.51,6.07,4.51,9.2c0,3.12-1.5,6.19-4.51,9.2c-2.89,2.89-5.96,4.34-9.2,4.34
			C678.78,391.94,675.71,390.49,672.82,387.6z"/>
		<path class="st42" d="M756.18,387.6l-22.56-22.73l18.39-18.39l18.39,18.39l-22.73,22.73c-2.89,2.89-5.96,4.34-9.2,4.34
			c-3.24,0-6.31-1.44-9.2-4.34c-2.89-2.89-4.34-5.96-4.34-9.2c0-3.24,1.44-6.3,4.34-9.2l4.34-4.34l-4.34-4.16
			c-2.89-2.89-4.34-5.96-4.34-9.2c0-3.24,1.44-6.3,4.34-9.2c3.01-3.01,6.07-4.51,9.2-4.51c3.12,0,6.19,1.5,9.2,4.51l4.34,4.16
			l4.16-4.16c3.01-3.01,6.07-4.51,9.2-4.51c3.12,0,6.19,1.5,9.2,4.51c3.01,3.01,4.51,6.07,4.51,9.2c0,3.12-1.5,6.19-4.51,9.2
			l-4.16,4.16l4.16,4.34c3.01,3.01,4.51,6.07,4.51,9.2c0,3.12-1.5,6.19-4.51,9.2c-2.89,2.89-5.96,4.34-9.2,4.34
			C762.14,391.94,759.07,390.49,756.18,387.6z"/>
		<g>
			<path class="st42" d="M643.7,420c2.38-2.38,5.87-3.57,10.44-3.57c4.58,0,8.06,1.19,10.44,3.57s3.57,5.86,3.57,10.44v0.84
				c0,0.93,0.47,1.4,1.4,1.4h81.3c0.93,0,1.4-0.47,1.4-1.4v-0.84c0-4.58,1.19-8.06,3.57-10.44c2.38-2.38,5.86-3.57,10.44-3.57
				c4.58,0,8.06,1.19,10.44,3.57c2.38,2.38,3.57,5.86,3.57,10.44v15.98c0,4.11-1.36,7.52-4.06,10.23
				c-2.71,2.71-6.12,4.06-10.23,4.06H654.42c-4.11,0-7.52-1.36-10.23-4.06c-2.71-2.71-4.06-6.12-4.06-10.23v-15.98
				C640.13,425.86,641.32,422.38,643.7,420z"/>
		</g>
	</g>
</g>
</svg>
