<svg width="862" height="48" viewBox="0 0 862 48" fill="none" xmlns="http://www.w3.org/2000/svg">
<path d="M0.306946 47.249V1.74902H17.9632V47.249H0.306946ZM20.9944 47.249V1.74902H38.3382L43.9319 17.5303C44.1611 18.2178 44.3903 18.9678 44.6194 19.7803C44.8486 20.5719 45.0465 21.3219 45.2132 22.0303H45.4007C45.359 21.3011 45.3382 20.5928 45.3382 19.9053C45.359 19.1969 45.3694 18.4782 45.3694 17.749V1.74902H59.8382V47.249H42.8382L36.8069 31.3115C36.5569 30.6657 36.3174 29.9886 36.0882 29.2803C35.8799 28.5719 35.7028 27.8636 35.5569 27.1553H35.3694C35.4111 27.8844 35.4319 28.5199 35.4319 29.0615C35.4528 29.5824 35.4632 30.2178 35.4632 30.9678V47.249H20.9944ZM61.2132 34.8428V32.249H77.1194V33.3115C77.0986 34.5407 77.4007 35.4469 78.0257 36.0303C78.6507 36.6136 79.5257 36.9053 80.6507 36.9053C81.609 36.9053 82.359 36.7074 82.9007 36.3115C83.4632 35.9157 83.7444 35.3428 83.7444 34.5928C83.7444 33.7386 83.4424 33.0928 82.8382 32.6553C82.2549 32.2178 80.1611 31.4678 76.5569 30.4053C71.7028 28.9469 67.984 27.1449 65.4007 24.999C62.8174 22.8324 61.5257 19.7074 61.5257 15.624C61.5257 10.9365 63.2549 7.34277 66.7132 4.84277C70.1924 2.34277 74.6819 1.09277 80.1819 1.09277C85.7236 1.09277 90.234 2.19694 93.7132 4.40527C97.1924 6.59277 98.9319 9.69694 98.9319 13.7178V15.9053H83.3694V15.124C83.3694 14.2907 83.1194 13.6449 82.6194 13.1865C82.1403 12.7282 81.4424 12.499 80.5257 12.499C79.5674 12.499 78.8799 12.6657 78.4632 12.999C78.0674 13.3115 77.8694 13.7386 77.8694 14.2803C77.8694 14.8844 78.1611 15.3324 78.7444 15.624C79.3278 15.8949 81.6819 16.5824 85.8069 17.6865C90.1403 18.8324 93.5882 20.5303 96.1507 22.7803C98.734 25.0094 100.026 28.3219 100.026 32.7178C100.026 37.6761 98.234 41.4574 94.6507 44.0615C91.0882 46.6449 86.4944 47.9365 80.8694 47.9365C75.2653 47.9365 70.5882 46.8428 66.8382 44.6553C63.0882 42.4678 61.2132 39.1969 61.2132 34.8428ZM99.8694 15.124V1.74902H139.869V15.124H128.713V47.249H111.088V15.124H99.8694ZM134.338 47.249L149.651 1.71777H168.432L183.369 47.249H166.119L159.088 22.9053C158.859 22.0928 158.672 21.374 158.526 20.749C158.401 20.1032 158.317 19.6657 158.276 19.4365H158.182C158.14 19.6657 158.047 20.0928 157.901 20.7178C157.776 21.3428 157.609 22.0615 157.401 22.874L150.901 47.249H134.338ZM145.432 41.5303L147.619 30.4678H169.307L171.713 41.5303H145.432ZM183.494 47.249V1.74902H200.838L206.432 17.5303C206.661 18.2178 206.89 18.9678 207.119 19.7803C207.349 20.5719 207.547 21.3219 207.713 22.0303H207.901C207.859 21.3011 207.838 20.5928 207.838 19.9053C207.859 19.1969 207.869 18.4782 207.869 17.749V1.74902H222.338V47.249H205.338L199.307 31.3115C199.057 30.6657 198.817 29.9886 198.588 29.2803C198.38 28.5719 198.203 27.8636 198.057 27.1553H197.869C197.911 27.8844 197.932 28.5199 197.932 29.0615C197.953 29.5824 197.963 30.2178 197.963 30.9678V47.249H183.494ZM223.619 15.124V1.74902H263.619V15.124H252.463V47.249H234.838V15.124H223.619ZM265.119 47.249V1.74902H282.526V33.874H298.432V47.249H265.119ZM306.151 47.249V30.624L291.369 1.74902H310.151L315.213 11.9678C315.38 12.3428 315.536 12.6969 315.682 13.0303C315.828 13.3636 315.953 13.7074 316.057 14.0615H316.213C316.317 13.7074 316.432 13.3636 316.557 13.0303C316.703 12.6969 316.869 12.3428 317.057 11.9678L321.994 1.74902H338.338L323.776 30.374V47.249H306.151ZM353.338 34.8428V32.249H369.244V33.3115C369.224 34.5407 369.526 35.4469 370.151 36.0303C370.776 36.6136 371.651 36.9053 372.776 36.9053C373.734 36.9053 374.484 36.7074 375.026 36.3115C375.588 35.9157 375.869 35.3428 375.869 34.5928C375.869 33.7386 375.567 33.0928 374.963 32.6553C374.38 32.2178 372.286 31.4678 368.682 30.4053C363.828 28.9469 360.109 27.1449 357.526 24.999C354.942 22.8324 353.651 19.7074 353.651 15.624C353.651 10.9365 355.38 7.34277 358.838 4.84277C362.317 2.34277 366.807 1.09277 372.307 1.09277C377.849 1.09277 382.359 2.19694 385.838 4.40527C389.317 6.59277 391.057 9.69694 391.057 13.7178V15.9053H375.494V15.124C375.494 14.2907 375.244 13.6449 374.744 13.1865C374.265 12.7282 373.567 12.499 372.651 12.499C371.692 12.499 371.005 12.6657 370.588 12.999C370.192 13.3115 369.994 13.7386 369.994 14.2803C369.994 14.8844 370.286 15.3324 370.869 15.624C371.453 15.8949 373.807 16.5824 377.932 17.6865C382.265 18.8324 385.713 20.5303 388.276 22.7803C390.859 25.0094 392.151 28.3219 392.151 32.7178C392.151 37.6761 390.359 41.4574 386.776 44.0615C383.213 46.6449 378.619 47.9365 372.994 47.9365C367.39 47.9365 362.713 46.8428 358.963 44.6553C355.213 42.4678 353.338 39.1969 353.338 34.8428ZM393.994 47.249V1.74902H429.057V15.124H410.651V18.624H426.526V30.2803H410.651V34.374H429.619V47.249H393.994ZM431.557 47.249V1.74902H448.901L454.494 17.5303C454.724 18.2178 454.953 18.9678 455.182 19.7803C455.411 20.5719 455.609 21.3219 455.776 22.0303H455.963C455.922 21.3011 455.901 20.5928 455.901 19.9053C455.922 19.1969 455.932 18.4782 455.932 17.749V1.74902H470.401V47.249H453.401L447.369 31.3115C447.119 30.6657 446.88 29.9886 446.651 29.2803C446.442 28.5719 446.265 27.8636 446.119 27.1553H445.932C445.974 27.8844 445.994 28.5199 445.994 29.0615C446.015 29.5824 446.026 30.2178 446.026 30.9678V47.249H431.557ZM473.432 47.249V1.74902H494.057C500.286 1.74902 505.192 3.61361 508.776 7.34277C512.38 11.0511 514.182 16.3115 514.182 23.124V25.6553C514.182 32.4469 512.359 37.749 508.713 41.5615C505.067 45.3532 500.182 47.249 494.057 47.249H473.432ZM490.338 35.7178H492.213C493.588 35.7178 494.672 35.1553 495.463 34.0303C496.255 32.9053 496.651 30.9574 496.651 28.1865V20.9053C496.651 18.0719 496.265 16.1761 495.494 15.2178C494.724 14.2594 493.63 13.7803 492.213 13.7803H490.338V35.7178ZM532.744 35.374C532.744 31.9782 533.797 29.2178 535.901 27.0928C538.005 24.9469 540.89 22.9053 544.557 20.9678L550.619 17.7803C552.619 16.6969 553.974 15.6344 554.682 14.5928C555.411 13.5511 555.776 12.5199 555.776 11.499C555.776 10.624 555.661 9.98861 555.432 9.59277C555.203 9.17611 554.797 8.96777 554.213 8.96777C553.63 8.96777 553.203 9.18652 552.932 9.62402C552.682 10.0407 552.557 10.6657 552.557 11.499C552.557 12.8949 553.119 14.2074 554.244 15.4365C555.39 16.6449 556.942 18.4574 558.901 20.874L581.057 47.249H563.119L544.401 25.374C541.838 22.4365 539.974 20.0303 538.807 18.1553C537.64 16.2594 537.057 14.2178 537.057 12.0303C537.057 8.48861 538.494 5.73861 541.369 3.78027C544.265 1.80111 548.64 0.811523 554.494 0.811523C560.224 0.811523 564.411 1.73861 567.057 3.59277C569.724 5.44694 571.057 8.19694 571.057 11.8428C571.057 14.8011 570.109 17.2594 568.213 19.2178C566.338 21.1761 563.724 23.0511 560.369 24.8428L555.494 27.4365C552.099 29.249 550.057 30.5094 549.369 31.2178C548.703 31.9261 548.369 32.7907 548.369 33.8115C548.369 35.0407 548.713 35.9261 549.401 36.4678C550.109 36.9886 551.047 37.249 552.213 37.249C554.422 37.249 557.015 36.2074 559.994 34.124C562.974 32.0407 564.776 28.6761 565.401 24.0303H580.588C580.588 30.1553 577.63 35.6657 571.713 40.5615C565.817 45.4365 559.224 47.874 551.932 47.874C545.265 47.874 540.401 46.7178 537.338 44.4053C534.276 42.0928 532.744 39.0824 532.744 35.374ZM600.057 47.249V1.74902H623.932C628.786 1.74902 632.744 3.16569 635.807 5.99902C638.869 8.81152 640.401 12.6136 640.401 17.4053C640.401 22.3636 638.744 26.3636 635.432 29.4053C632.119 32.4469 628.213 33.9678 623.713 33.9678H617.463V47.249H600.057ZM617.463 23.124H619.713C620.838 23.124 621.64 22.7074 622.119 21.874C622.619 21.0407 622.869 19.8949 622.869 18.4365C622.869 16.9782 622.619 15.8115 622.119 14.9365C621.64 14.0407 620.838 13.5928 619.713 13.5928H617.463V23.124ZM623.494 47.249L616.807 28.2178L632.213 23.999L642.401 47.249H623.494ZM642.869 47.249V1.74902H677.932V15.124H659.526V18.624H675.401V30.2803H659.526V34.374H678.494V47.249H642.869ZM679.401 25.749V23.249C679.401 15.3532 681.369 9.68652 685.307 6.24902C689.244 2.81152 694.453 1.09277 700.932 1.09277C706.953 1.09277 711.724 2.41569 715.244 5.06152C718.765 7.68652 720.526 11.8011 720.526 17.4053V21.3428H704.119V15.7803C704.119 14.7594 703.869 13.999 703.369 13.499C702.89 12.9782 702.172 12.7178 701.213 12.7178C700.192 12.7178 699.39 13.0824 698.807 13.8115C698.224 14.5199 697.932 15.8532 697.932 17.8115V31.2178C697.932 33.2178 698.213 34.6136 698.776 35.4053C699.338 36.1761 700.172 36.5615 701.276 36.5615C702.255 36.5615 702.974 36.2178 703.432 35.5303C703.89 34.8219 704.119 33.6657 704.119 32.0615V27.9053H720.526V32.5303C720.547 37.4261 718.786 41.2178 715.244 43.9053C711.724 46.5719 706.953 47.9053 700.932 47.9053C694.369 47.9053 689.14 46.1553 685.244 42.6553C681.349 39.1344 679.401 33.499 679.401 25.749ZM722.307 47.249V1.74902H757.369V15.124H738.963V18.624H754.838V30.2803H738.963V34.374H757.932V47.249H722.307ZM759.869 47.249V1.74902H777.526V47.249H759.869ZM777.651 1.74902H795.494L801.776 22.999C801.88 23.2907 801.963 23.6032 802.026 23.9365C802.088 24.249 802.172 24.6449 802.276 25.124H802.432C802.536 24.6449 802.63 24.249 802.713 23.9365C802.797 23.6032 802.869 23.2907 802.932 22.999L809.119 1.74902H825.994L811.463 47.4678H792.182L777.651 1.74902ZM826.119 47.249V1.74902H861.182V15.124H842.776V18.624H858.651V30.2803H842.776V34.374H861.744V47.249H826.119Z" fill="black"/>
</svg>
