<svg width="518" height="35" viewBox="0 0 518 35" fill="none" xmlns="http://www.w3.org/2000/svg">
<path d="M0.693848 28.9927V0.555176H10.772V8.68018L16.6118 0.555176H26.8462L10.772 20.4185V28.9927H0.693848ZM16.6704 28.9927L9.52197 16.4341L15.6743 8.97314L28.2134 28.9927H16.6704ZM34.5767 28.9927V18.856L25.1235 0.555176H36.0806L39.6548 7.78174C39.785 8.05518 39.8957 8.3221 39.9868 8.58252C40.078 8.82992 40.1691 9.09033 40.2603 9.36377H40.3579C40.4491 9.09033 40.5337 8.82992 40.6118 8.58252C40.703 8.3221 40.8201 8.05518 40.9634 7.78174L44.5376 0.555176H53.9712L44.772 18.563V28.9927H34.5767ZM51.7212 15.5942V13.9536C51.7212 9.09684 52.9517 5.57471 55.4126 3.38721C57.8735 1.18669 61.1483 0.0864258 65.2368 0.0864258C68.9998 0.0864258 71.9881 0.952311 74.2017 2.68408C76.4282 4.40283 77.5415 6.97445 77.5415 10.3989V12.3521H67.8735V9.63721C67.8735 8.71273 67.6587 8.04215 67.229 7.62549C66.7993 7.1958 66.1613 6.98096 65.3149 6.98096C64.4035 6.98096 63.6873 7.28044 63.1665 7.87939C62.6587 8.46533 62.4048 9.5721 62.4048 11.1997V18.3677C62.4048 19.9562 62.6457 21.076 63.1274 21.7271C63.6222 22.3651 64.3774 22.6841 65.3931 22.6841C66.2394 22.6841 66.8644 22.4237 67.2681 21.9028C67.6717 21.369 67.8735 20.5291 67.8735 19.3833V17.313H77.5415V19.5786C77.5545 22.6776 76.4478 25.0994 74.2212 26.8442C71.9946 28.589 68.9998 29.4614 65.2368 29.4614C61.0962 29.4614 57.8084 28.3481 55.3735 26.1216C52.9386 23.882 51.7212 20.3729 51.7212 15.5942ZM87.9634 15.5942V13.9536C87.9634 9.20101 89.2264 5.70492 91.7524 3.46533C94.2785 1.21273 97.5076 0.0864258 101.44 0.0864258C105.372 0.0864258 108.608 1.21273 111.147 3.46533C113.686 5.70492 114.956 9.20101 114.956 13.9536V15.5942C114.956 20.3468 113.686 23.8494 111.147 26.1021C108.608 28.3416 105.372 29.4614 101.44 29.4614C97.5076 29.4614 94.2785 28.3416 91.7524 26.1021C89.2264 23.8494 87.9634 20.3468 87.9634 15.5942ZM98.4517 18.27C98.4517 19.9106 98.7056 21.0565 99.2134 21.7075C99.7342 22.3586 100.476 22.6841 101.44 22.6841C102.403 22.6841 103.146 22.3586 103.667 21.7075C104.2 21.0565 104.467 19.9106 104.467 18.27V11.3169C104.467 9.68929 104.2 8.56299 103.667 7.93799C103.146 7.29997 102.403 6.98096 101.44 6.98096C100.476 6.98096 99.7342 7.29997 99.2134 7.93799C98.7056 8.56299 98.4517 9.68929 98.4517 11.3169V18.27ZM116.67 28.9927V0.555176H126.905L131.631 12.0786C131.788 12.4953 131.931 12.925 132.061 13.3677C132.191 13.8104 132.308 14.2596 132.413 14.7153H132.549C132.523 14.2466 132.51 13.8169 132.51 13.4263C132.523 13.0226 132.53 12.5864 132.53 12.1177V0.555176H140.87V28.9927H130.694L125.831 17.5083C125.674 17.1047 125.531 16.6945 125.401 16.2778C125.284 15.8612 125.173 15.425 125.069 14.9692H124.932C124.971 15.438 124.991 15.8481 124.991 16.1997C125.004 16.5513 125.01 16.9614 125.01 17.4302V28.9927H116.67ZM143.288 28.9927V0.555176H153.366V21.3364H163.756V28.9927H143.288ZM169.397 28.9927V18.856L159.944 0.555176H170.901L174.475 7.78174C174.605 8.05518 174.716 8.3221 174.807 8.58252C174.898 8.82992 174.989 9.09033 175.081 9.36377H175.178C175.269 9.09033 175.354 8.82992 175.432 8.58252C175.523 8.3221 175.64 8.05518 175.784 7.78174L179.358 0.555176H188.792L179.592 18.563V28.9927H169.397ZM203.217 28.9927L196.499 0.555176H206.225L209.467 15.3013C209.519 15.5747 209.558 15.8221 209.584 16.0435C209.624 16.2518 209.656 16.5122 209.682 16.8247H209.799C209.838 16.5122 209.871 16.2518 209.897 16.0435C209.936 15.8221 209.982 15.5747 210.034 15.3013L213.393 0.555176H222.963L226.518 15.2622C226.57 15.5487 226.609 15.7961 226.635 16.0044C226.674 16.2127 226.713 16.4862 226.752 16.8247H226.85C226.889 16.4862 226.922 16.2127 226.948 16.0044C226.987 15.7961 227.032 15.5487 227.084 15.2622L230.053 0.555176H238.803L232.202 28.9927H221.733L218.022 14.52C217.957 14.2596 217.905 14.0057 217.866 13.7583C217.827 13.5109 217.794 13.231 217.768 12.9185H217.67C217.644 13.231 217.612 13.5109 217.573 13.7583C217.534 14.0057 217.482 14.2596 217.417 14.52L213.725 28.9927H203.217ZM239.483 28.9927V0.555176H249.561V10.3013H254.522V0.555176H264.581V28.9927H254.522V18.3286H249.561V28.9927H239.483ZM266.959 28.9927V0.555176H288.424V8.21143H276.686V11.1997H286.803V18.0747H276.686V21.5708H288.737V28.9927H266.959ZM290.217 28.9927V0.555176H300.452L305.178 12.0786C305.334 12.4953 305.478 12.925 305.608 13.3677C305.738 13.8104 305.855 14.2596 305.959 14.7153H306.096C306.07 14.2466 306.057 13.8169 306.057 13.4263C306.07 13.0226 306.077 12.5864 306.077 12.1177V0.555176H314.417V28.9927H304.241L299.377 17.5083C299.221 17.1047 299.078 16.6945 298.948 16.2778C298.831 15.8612 298.72 15.425 298.616 14.9692H298.479C298.518 15.438 298.538 15.8481 298.538 16.1997C298.551 16.5513 298.557 16.9614 298.557 17.4302V28.9927H290.217ZM326.772 28.9927V0.555176H340.639C343.842 0.555176 346.42 1.41455 348.374 3.1333C350.34 4.85205 351.323 7.23486 351.323 10.2817C351.323 13.4198 350.288 15.9002 348.217 17.7231C346.147 19.5461 343.588 20.4575 340.542 20.4575H336.85V28.9927H326.772ZM336.85 13.9927H338.686C339.584 13.9927 340.222 13.7192 340.6 13.1724C340.991 12.6125 341.186 11.8052 341.186 10.7505C341.186 9.72184 340.991 8.92757 340.6 8.36768C340.222 7.79476 339.584 7.5083 338.686 7.5083H336.85V13.9927ZM341.518 28.9927L336.655 16.7271L346.069 14.8911L352.553 28.9927H341.518ZM352.959 28.9927V0.555176H374.424V8.21143H362.686V11.1997H372.803V18.0747H362.686V21.5708H374.737V28.9927H352.959ZM375.417 15.5942V13.9536C375.417 9.20101 376.68 5.70492 379.206 3.46533C381.732 1.21273 384.961 0.0864258 388.893 0.0864258C392.838 0.0864258 396.074 1.21273 398.6 3.46533C401.126 5.70492 402.389 9.20101 402.389 13.9536V15.5942C402.389 20.3468 401.126 23.8494 398.6 26.1021C396.074 28.3416 392.838 29.4614 388.893 29.4614C384.961 29.4614 381.732 28.3416 379.206 26.1021C376.68 23.8494 375.417 20.3468 375.417 15.5942ZM385.905 18.1919C385.905 19.8455 386.159 21.0109 386.667 21.688C387.187 22.3521 387.93 22.6841 388.893 22.6841C389.87 22.6841 390.612 22.3521 391.12 21.688C391.64 21.0109 391.901 19.8455 391.901 18.1919V11.4146C391.901 9.78695 391.64 8.64111 391.12 7.97705C390.612 7.31299 389.87 6.98096 388.893 6.98096C387.93 6.98096 387.187 7.31299 386.667 7.97705C386.159 8.64111 385.905 9.78695 385.905 11.4146V18.1919ZM396.081 34.7935L387.545 27.0786L393.014 20.9458L401.549 28.563L396.081 34.7935ZM403.948 17.645V0.555176H413.987V19.0122C413.987 20.4836 414.182 21.4601 414.573 21.9419C414.976 22.4106 415.536 22.645 416.252 22.645C416.982 22.645 417.542 22.4106 417.932 21.9419C418.336 21.4601 418.538 20.4836 418.538 19.0122V0.555176H428.479V17.645C428.479 21.7466 427.366 24.7414 425.139 26.6294C422.913 28.5174 419.976 29.4614 416.331 29.4614C412.555 29.4614 409.547 28.5174 407.307 26.6294C405.068 24.7414 403.948 21.7466 403.948 17.645ZM430.624 28.9927V0.555176H440.819V28.9927H430.624ZM443.178 28.9927V0.555176H457.045C460.249 0.555176 462.827 1.41455 464.78 3.1333C466.746 4.85205 467.729 7.23486 467.729 10.2817C467.729 13.4198 466.694 15.9002 464.624 17.7231C462.553 19.5461 459.995 20.4575 456.948 20.4575H453.256V28.9927H443.178ZM453.256 13.9927H455.092C455.991 13.9927 456.629 13.7192 457.006 13.1724C457.397 12.6125 457.592 11.8052 457.592 10.7505C457.592 9.72184 457.397 8.92757 457.006 8.36768C456.629 7.79476 455.991 7.5083 455.092 7.5083H453.256V13.9927ZM457.924 28.9927L453.061 16.7271L462.475 14.8911L468.959 28.9927H457.924ZM469.366 28.9927V0.555176H490.831V8.21143H479.092V11.1997H489.209V18.0747H479.092V21.5708H491.143V28.9927H469.366ZM492.624 28.9927V0.555176H504.831C508.763 0.555176 511.92 1.70752 514.303 4.01221C516.699 6.31689 517.897 9.61117 517.897 13.895V15.5356C517.897 19.8065 516.693 23.1203 514.284 25.4771C511.875 27.8208 508.724 28.9927 504.831 28.9927H492.624ZM502.467 22.1958H503.991C505.084 22.1958 505.976 21.7791 506.667 20.9458C507.357 20.1125 507.702 18.6997 507.702 16.7075V12.8794C507.702 10.8612 507.363 9.47445 506.686 8.71924C506.009 7.96403 505.111 7.58643 503.991 7.58643H502.467V22.1958Z" fill="black"/>
</svg>
