<svg width="229" height="111" viewBox="0 0 229 111" fill="none" xmlns="http://www.w3.org/2000/svg">
<path d="M0.347649 22.0508V20.6836H9.83984V21.3477C9.83984 22.207 10.0677 22.8451 10.5234 23.2617C10.9922 23.6784 11.6432 23.8867 12.4766 23.8867C13.2448 23.8867 13.8372 23.737 14.2539 23.4375C14.6836 23.138 14.8984 22.7148 14.8984 22.168C14.8984 21.5169 14.6836 21.0286 14.2539 20.7031C13.8372 20.3776 12.4505 19.8958 10.0937 19.2578C7.11197 18.4375 4.78124 17.3372 3.10155 15.957C1.42187 14.5768 0.575513 12.6237 0.562492 10.0977C0.562492 7.20703 1.64322 4.98698 3.80468 3.4375C5.96614 1.88802 8.77213 1.11328 12.2226 1.11328C15.6862 1.11328 18.4987 1.82943 20.6601 3.26172C22.8346 4.68099 23.9219 6.6862 23.9219 9.27734V10.4492H14.625V9.92188C14.625 9.28385 14.4362 8.78255 14.0586 8.41797C13.681 8.05339 13.1276 7.87109 12.3984 7.87109C11.6562 7.87109 11.1159 8.0013 10.7773 8.26172C10.4388 8.50911 10.2695 8.84766 10.2695 9.27734C10.2695 9.75911 10.4844 10.1042 10.9141 10.3125C11.3568 10.5208 12.8542 10.957 15.4062 11.6211C18.1406 12.3372 20.3476 13.4049 22.0273 14.8242C23.707 16.2305 24.5534 18.3203 24.5664 21.0938C24.5664 24.1667 23.4531 26.4974 21.2266 28.0859C19 29.6745 16.1224 30.4688 12.5937 30.4688C9.09114 30.4688 6.17447 29.7721 3.84374 28.3789C1.51301 26.9857 0.347649 24.8763 0.347649 22.0508ZM25.9101 30V1.5625H47.375V9.21875H35.6367V12.207H45.7539V19.082H35.6367V22.5781H47.6875V30H25.9101ZM48.3672 16.6016V14.9609C48.3672 10.1042 49.5976 6.58203 52.0586 4.39453C54.5195 2.19401 57.7943 1.09375 61.8828 1.09375C65.6458 1.09375 68.6341 1.95964 70.8476 3.69141C73.0742 5.41016 74.1875 7.98177 74.1875 11.4062V13.3594H64.5195V10.6445C64.5195 9.72005 64.3047 9.04948 63.875 8.63281C63.4453 8.20312 62.8073 7.98828 61.9609 7.98828C61.0495 7.98828 60.3333 8.28776 59.8125 8.88672C59.3047 9.47266 59.0508 10.5794 59.0508 12.207V19.375C59.0508 20.9635 59.2917 22.0833 59.7734 22.7344C60.2682 23.3724 61.0234 23.6914 62.0391 23.6914C62.8854 23.6914 63.5104 23.431 63.9141 22.9102C64.3177 22.3763 64.5195 21.5365 64.5195 20.3906V18.3203H74.1875V20.5859C74.2005 23.6849 73.0937 26.1068 70.8672 27.8516C68.6406 29.5964 65.6458 30.4688 61.8828 30.4688C57.7422 30.4688 54.4544 29.3555 52.0195 27.1289C49.5846 24.8893 48.3672 21.3802 48.3672 16.6016ZM75.1797 18.6523V1.5625H85.2187V20.0195C85.2187 21.4909 85.4141 22.4674 85.8047 22.9492C86.2083 23.418 86.7682 23.6523 87.4844 23.6523C88.2135 23.6523 88.7734 23.418 89.1641 22.9492C89.5677 22.4674 89.7695 21.4909 89.7695 20.0195V1.5625H99.7109V18.6523C99.7109 22.7539 98.5976 25.7487 96.3711 27.6367C94.1445 29.5247 91.2083 30.4688 87.5625 30.4688C83.7865 30.4688 80.7786 29.5247 78.5391 27.6367C76.2995 25.7487 75.1797 22.7539 75.1797 18.6523ZM101.934 30V1.5625H115.801C119.004 1.5625 121.582 2.42188 123.535 4.14062C125.501 5.85938 126.484 8.24219 126.484 11.2891C126.484 14.4271 125.449 16.9076 123.379 18.7305C121.309 20.5534 118.75 21.4648 115.703 21.4648H112.012V30H101.934ZM112.012 15H113.848C114.746 15 115.384 14.7266 115.762 14.1797C116.152 13.6198 116.348 12.8125 116.348 11.7578C116.348 10.7292 116.152 9.9349 115.762 9.375C115.384 8.80208 114.746 8.51562 113.848 8.51562H112.012V15ZM116.68 30L111.816 17.7344L121.23 15.8984L127.715 30H116.68ZM128.043 30V1.5625H138.238V30H128.043ZM139.133 9.21875V1.5625H163.781V9.21875H156.574V30H146.379V9.21875H139.133ZM171.434 30V19.8633L161.98 1.5625H172.938L176.512 8.78906C176.642 9.0625 176.753 9.32943 176.844 9.58984C176.935 9.83724 177.026 10.0977 177.117 10.3711H177.215C177.306 10.0977 177.391 9.83724 177.469 9.58984C177.56 9.32943 177.677 9.0625 177.82 8.78906L181.395 1.5625H190.828L181.629 19.5703V30H171.434ZM199.609 22.5781C199.609 20.4167 200.273 18.6654 201.602 17.3242C202.93 15.9831 204.688 14.7331 206.875 13.5742L210.938 11.4453C212.044 10.8203 212.786 10.2279 213.164 9.66797C213.542 9.09505 213.73 8.49609 213.73 7.87109C213.73 7.24609 213.639 6.80339 213.457 6.54297C213.288 6.28255 212.995 6.15234 212.578 6.15234C212.148 6.15234 211.836 6.30208 211.641 6.60156C211.458 6.88802 211.367 7.33073 211.367 7.92969C211.367 8.73698 211.667 9.4987 212.266 10.2148C212.865 10.918 213.717 11.9661 214.824 13.3594L228.73 30H218.242L206.758 16.4844C205.104 14.6094 203.919 13.0924 203.203 11.9336C202.5 10.7747 202.148 9.51823 202.148 8.16406C202.148 5.89844 203.047 4.13411 204.844 2.87109C206.641 1.60807 209.258 0.976562 212.695 0.976562C216.081 0.976562 218.607 1.57552 220.273 2.77344C221.94 3.95833 222.773 5.6901 222.773 7.96875C222.773 9.76562 222.24 11.2565 221.172 12.4414C220.104 13.6263 218.568 14.7591 216.562 15.8398L213.047 17.6953C211.172 18.6849 210.013 19.4336 209.57 19.9414C209.141 20.4362 208.926 21.0352 208.926 21.7383C208.926 22.5456 209.141 23.138 209.57 23.5156C210 23.8802 210.599 24.0625 211.367 24.0625C212.799 24.0625 214.368 23.3984 216.074 22.0703C217.793 20.7292 218.802 18.6458 219.102 15.8203H228.105C228.105 19.6484 226.38 23.0339 222.93 25.9766C219.492 28.9193 215.566 30.3906 211.152 30.3906C207.207 30.3906 204.297 29.668 202.422 28.2227C200.547 26.7643 199.609 24.8828 199.609 22.5781ZM30.3594 70V41.5625H44.7734C48.0677 41.5625 50.6133 42.474 52.4101 44.2969C54.22 46.1068 55.125 48.6523 55.125 51.9336C55.125 55.2148 54.2461 57.7604 52.4883 59.5703C50.7305 61.3802 48.1133 62.2852 44.6367 62.2852H40.4375V70H30.3594ZM40.4375 55.5859H42.4883C43.4779 55.5859 44.1549 55.2865 44.5195 54.6875C44.8841 54.0885 45.0664 53.2292 45.0664 52.1094C45.0664 50.9635 44.8841 50.0977 44.5195 49.5117C44.1549 48.9258 43.4779 48.6328 42.4883 48.6328H40.4375V55.5859ZM56.5469 70V41.5625H70.4141C73.6172 41.5625 76.1953 42.4219 78.1484 44.1406C80.1146 45.8594 81.0976 48.2422 81.0976 51.2891C81.0976 54.4271 80.0625 56.9076 77.9922 58.7305C75.9219 60.5534 73.3633 61.4648 70.3164 61.4648H66.625V70H56.5469ZM66.625 55H68.4609C69.3594 55 69.9974 54.7266 70.375 54.1797C70.7656 53.6198 70.9609 52.8125 70.9609 51.7578C70.9609 50.7292 70.7656 49.9349 70.375 49.375C69.9974 48.8021 69.3594 48.5156 68.4609 48.5156H66.625V55ZM71.293 70L66.4297 57.7344L75.8437 55.8984L82.3281 70H71.293ZM82.6562 70V41.5625H92.8516V70H82.6562ZM92.8086 41.5625H103.336L107.984 56.1328C108.062 56.3542 108.121 56.582 108.16 56.8164C108.199 57.0378 108.251 57.3112 108.316 57.6367H108.434C108.499 57.3112 108.557 57.0312 108.609 56.7969C108.661 56.5625 108.714 56.3411 108.766 56.1328L113.434 41.5625H123.102L113.59 70.0781H102.359L92.8086 41.5625ZM118.723 70L128.645 41.5234H139.641L149.523 70H139.27L134.152 53.7305C133.996 53.2357 133.879 52.793 133.801 52.4023C133.723 51.9987 133.664 51.6862 133.625 51.4648H133.547C133.521 51.6862 133.462 51.9987 133.371 52.4023C133.28 52.793 133.169 53.2357 133.039 53.7305L128.176 70H118.723ZM125.852 65.957L127.297 59.375H140.305L141.848 65.957H125.852ZM147.762 56.6016V54.9609C147.762 50.1042 148.992 46.582 151.453 44.3945C153.914 42.194 157.189 41.0938 161.277 41.0938C165.04 41.0938 168.029 41.9596 170.242 43.6914C172.469 45.4102 173.582 47.9818 173.582 51.4062V53.3594H163.914V50.6445C163.914 49.7201 163.699 49.0495 163.27 48.6328C162.84 48.2031 162.202 47.9883 161.355 47.9883C160.444 47.9883 159.728 48.2878 159.207 48.8867C158.699 49.4727 158.445 50.5794 158.445 52.207V59.375C158.445 60.9635 158.686 62.0833 159.168 62.7344C159.663 63.3724 160.418 63.6914 161.434 63.6914C162.28 63.6914 162.905 63.431 163.309 62.9102C163.712 62.3763 163.914 61.5365 163.914 60.3906V58.3203H173.582V60.5859C173.595 63.6849 172.488 66.1068 170.262 67.8516C168.035 69.5964 165.04 70.4688 161.277 70.4688C157.137 70.4688 153.849 69.3555 151.414 67.1289C148.979 64.8893 147.762 61.3802 147.762 56.6016ZM180.961 70V59.8633L171.508 41.5625H182.465L186.039 48.7891C186.169 49.0625 186.28 49.3294 186.371 49.5898C186.462 49.8372 186.553 50.0977 186.645 50.3711H186.742C186.833 50.0977 186.918 49.8372 186.996 49.5898C187.087 49.3294 187.204 49.0625 187.348 48.7891L190.922 41.5625H200.355L191.156 59.5703V70H180.961ZM36.8164 110V81.5625H50.7812C54.1276 81.5625 56.6016 82.2135 58.2031 83.5156C59.8177 84.8177 60.625 86.6211 60.625 88.9258C60.625 90.5013 60.2865 91.8099 59.6094 92.8516C58.9323 93.8932 58.0469 94.6159 56.9531 95.0195V95.0977C58.2943 95.4362 59.4206 96.1523 60.332 97.2461C61.2565 98.3268 61.7187 99.8698 61.7187 101.875C61.7187 104.414 60.7682 106.406 58.8672 107.852C56.9661 109.284 54.3945 110 51.1523 110H36.8164ZM46.6601 103.652H49.1016C49.9219 103.652 50.5338 103.405 50.9375 102.91C51.3542 102.402 51.5625 101.732 51.5625 100.898C51.5625 100.104 51.3542 99.4596 50.9375 98.9648C50.5338 98.457 49.9219 98.2031 49.1016 98.2031H46.6601V103.652ZM46.6601 93.1055H48.8086C49.5768 93.1055 50.1302 92.8906 50.4687 92.4609C50.8073 92.0182 50.9766 91.4128 50.9766 90.6445C50.9766 89.8633 50.8073 89.2578 50.4687 88.8281C50.1302 88.3854 49.5768 88.1641 48.8086 88.1641H46.6601V93.1055ZM62.9453 98.6523V81.5625H72.9844V100.02C72.9844 101.491 73.1797 102.467 73.5703 102.949C73.974 103.418 74.5338 103.652 75.25 103.652C75.9792 103.652 76.5391 103.418 76.9297 102.949C77.3333 102.467 77.5351 101.491 77.5351 100.02V81.5625H87.4766V98.6523C87.4766 102.754 86.3633 105.749 84.1367 107.637C81.9101 109.525 78.974 110.469 75.3281 110.469C71.5521 110.469 68.5443 109.525 66.3047 107.637C64.0651 105.749 62.9453 102.754 62.9453 98.6523ZM89.6211 110V81.5625H99.8164V110H89.6211ZM102.176 110V81.5625H112.254V102.344H122.645V110H102.176ZM117.797 89.2188V81.5625H142.445V89.2188H135.238V110H125.043V89.2188H117.797ZM139.414 101.621V93.8672H152.852V101.621H139.414ZM154.41 110V81.5625H164.605V110H154.41ZM166.965 110V81.5625H177.199L181.926 93.0859C182.082 93.5026 182.225 93.9323 182.355 94.375C182.486 94.8177 182.603 95.2669 182.707 95.7227H182.844C182.818 95.2539 182.805 94.8242 182.805 94.4336C182.818 94.0299 182.824 93.5938 182.824 93.125V81.5625H191.164V110H180.988L176.125 98.5156C175.969 98.112 175.826 97.7018 175.695 97.2852C175.578 96.8685 175.467 96.4323 175.363 95.9766H175.227C175.266 96.4453 175.285 96.8555 175.285 97.207C175.298 97.5586 175.305 97.9688 175.305 98.4375V110H166.965Z" fill="black"/>
</svg>
