<svg width="269" height="69" viewBox="0 0 269 69" fill="none" xmlns="http://www.w3.org/2000/svg">
<path d="M9.53516 29V18.8633L0.0820312 0.5625H11.0391L14.6133 7.78906C14.7435 8.0625 14.8542 8.32943 14.9453 8.58984C15.0365 8.83724 15.1276 9.09766 15.2188 9.37109H15.3164C15.4076 9.09766 15.4922 8.83724 15.5703 8.58984C15.6615 8.32943 15.7786 8.0625 15.9219 7.78906L19.4961 0.5625H28.9297L19.7305 18.5703V29H9.53516ZM26.6797 15.6016V13.9609C26.6797 9.20833 27.9427 5.71224 30.4688 3.47266C32.9948 1.22005 36.224 0.09375 40.1562 0.09375C44.0885 0.09375 47.3242 1.22005 49.8633 3.47266C52.4023 5.71224 53.6719 9.20833 53.6719 13.9609V15.6016C53.6719 20.3542 52.4023 23.8568 49.8633 26.1094C47.3242 28.349 44.0885 29.4688 40.1562 29.4688C36.224 29.4688 32.9948 28.349 30.4688 26.1094C27.9427 23.8568 26.6797 20.3542 26.6797 15.6016ZM37.168 18.2773C37.168 19.918 37.4219 21.0638 37.9297 21.7148C38.4505 22.3659 39.1927 22.6914 40.1562 22.6914C41.1198 22.6914 41.862 22.3659 42.3828 21.7148C42.9167 21.0638 43.1836 19.918 43.1836 18.2773V11.3242C43.1836 9.69661 42.9167 8.57031 42.3828 7.94531C41.862 7.30729 41.1198 6.98828 40.1562 6.98828C39.1927 6.98828 38.4505 7.30729 37.9297 7.94531C37.4219 8.57031 37.168 9.69661 37.168 11.3242V18.2773ZM55.2109 17.6523V0.5625H65.25V19.0195C65.25 20.4909 65.4453 21.4674 65.8359 21.9492C66.2396 22.418 66.7995 22.6523 67.5156 22.6523C68.2448 22.6523 68.8047 22.418 69.1953 21.9492C69.599 21.4674 69.8008 20.4909 69.8008 19.0195V0.5625H79.7422V17.6523C79.7422 21.7539 78.6289 24.7487 76.4023 26.6367C74.1758 28.5247 71.2396 29.4688 67.5938 29.4688C63.8177 29.4688 60.8099 28.5247 58.5703 26.6367C56.3307 24.7487 55.2109 21.7539 55.2109 17.6523ZM81.9648 29V0.5625H95.832C99.0352 0.5625 101.613 1.42188 103.566 3.14062C105.533 4.85938 106.516 7.24219 106.516 10.2891C106.516 13.4271 105.48 15.9076 103.41 17.7305C101.34 19.5534 98.7812 20.4648 95.7344 20.4648H92.043V29H81.9648ZM92.043 14H93.8789C94.7773 14 95.4154 13.7266 95.793 13.1797C96.1836 12.6198 96.3789 11.8125 96.3789 10.7578C96.3789 9.72917 96.1836 8.9349 95.793 8.375C95.4154 7.80208 94.7773 7.51562 93.8789 7.51562H92.043V14ZM96.7109 29L91.8477 16.7344L101.262 14.8984L107.746 29H96.7109ZM117.895 29V0.5625H131.625L135.238 12.7109C135.368 13.1797 135.479 13.6159 135.57 14.0195C135.674 14.4102 135.759 14.8659 135.824 15.3867H135.922C136 14.8659 136.085 14.4102 136.176 14.0195C136.28 13.6159 136.397 13.1797 136.527 12.7109L140.16 0.5625H153.988V29H144.027V15.9141C144.027 15.4583 144.034 14.957 144.047 14.4102C144.06 13.8503 144.086 13.3424 144.125 12.8867H143.988C143.923 13.3555 143.839 13.8633 143.734 14.4102C143.643 14.944 143.533 15.4453 143.402 15.9141L139.73 29H131.078L127.406 15.9141C127.289 15.4453 127.178 14.9375 127.074 14.3906C126.983 13.8438 126.905 13.3424 126.84 12.8867H126.703C126.729 13.3424 126.749 13.8503 126.762 14.4102C126.788 14.957 126.801 15.4583 126.801 15.9141V29H117.895ZM155.703 15.6016V13.9609C155.703 9.20833 156.966 5.71224 159.492 3.47266C162.018 1.22005 165.247 0.09375 169.18 0.09375C173.112 0.09375 176.348 1.22005 178.887 3.47266C181.426 5.71224 182.695 9.20833 182.695 13.9609V15.6016C182.695 20.3542 181.426 23.8568 178.887 26.1094C176.348 28.349 173.112 29.4688 169.18 29.4688C165.247 29.4688 162.018 28.349 159.492 26.1094C156.966 23.8568 155.703 20.3542 155.703 15.6016ZM166.191 18.2773C166.191 19.918 166.445 21.0638 166.953 21.7148C167.474 22.3659 168.216 22.6914 169.18 22.6914C170.143 22.6914 170.885 22.3659 171.406 21.7148C171.94 21.0638 172.207 19.918 172.207 18.2773V11.3242C172.207 9.69661 171.94 8.57031 171.406 7.94531C170.885 7.30729 170.143 6.98828 169.18 6.98828C168.216 6.98828 167.474 7.30729 166.953 7.94531C166.445 8.57031 166.191 9.69661 166.191 11.3242V18.2773ZM184.41 29V0.5625H194.645L199.371 12.0859C199.527 12.5026 199.671 12.9323 199.801 13.375C199.931 13.8177 200.048 14.2669 200.152 14.7227H200.289C200.263 14.2539 200.25 13.8242 200.25 13.4336C200.263 13.0299 200.27 12.5938 200.27 12.125V0.5625H208.609V29H198.434L193.57 17.5156C193.414 17.112 193.271 16.7018 193.141 16.2852C193.023 15.8685 192.913 15.4323 192.809 14.9766H192.672C192.711 15.4453 192.73 15.8555 192.73 16.207C192.743 16.5586 192.75 16.9688 192.75 17.4375V29H184.41ZM211.027 29V0.5625H232.492V8.21875H220.754V11.207H230.871V18.082H220.754V21.5781H232.805V29H211.027ZM241.004 29V18.8633L231.551 0.5625H242.508L246.082 7.78906C246.212 8.0625 246.323 8.32943 246.414 8.58984C246.505 8.83724 246.596 9.09766 246.688 9.37109H246.785C246.876 9.09766 246.961 8.83724 247.039 8.58984C247.13 8.32943 247.247 8.0625 247.391 7.78906L250.965 0.5625H260.398L251.199 18.5703V29H241.004ZM258.305 32.7109C258.956 31.8516 259.424 30.9401 259.711 29.9766C260.01 29.013 260.16 27.9844 260.16 26.8906V20.2305H268.734V26.8516C268.734 28.2708 268.428 29.6445 267.816 30.9727C267.217 32.3008 266.404 33.401 265.375 34.2734L258.305 32.7109ZM23.6211 69L33.543 40.5234H44.5391L54.4219 69H44.168L39.0508 52.7305C38.8945 52.2357 38.7773 51.793 38.6992 51.4023C38.6211 50.9987 38.5625 50.6862 38.5234 50.4648H38.4453C38.4193 50.6862 38.3607 50.9987 38.2695 51.4023C38.1784 51.793 38.0677 52.2357 37.9375 52.7305L33.0742 69H23.6211ZM30.75 64.957L32.1953 58.375H45.2031L46.7461 64.957H30.75ZM54.3984 69V40.5625H64.6328L69.3594 52.0859C69.5156 52.5026 69.6589 52.9323 69.7891 53.375C69.9193 53.8177 70.0365 54.2669 70.1406 54.7227H70.2773C70.2513 54.2539 70.2383 53.8242 70.2383 53.4336C70.2513 53.0299 70.2578 52.5938 70.2578 52.125V40.5625H78.5977V69H68.4219L63.5586 57.5156C63.4023 57.112 63.2591 56.7018 63.1289 56.2852C63.0117 55.8685 62.901 55.4323 62.7969 54.9766H62.6602C62.6992 55.4453 62.7188 55.8555 62.7188 56.207C62.7318 56.5586 62.7383 56.9688 62.7383 57.4375V69H54.3984ZM88.0469 69V58.8633L78.5938 40.5625H89.5508L93.125 47.7891C93.2552 48.0625 93.3659 48.3294 93.457 48.5898C93.5482 48.8372 93.6393 49.0977 93.7305 49.3711H93.8281C93.9193 49.0977 94.0039 48.8372 94.082 48.5898C94.1732 48.3294 94.2904 48.0625 94.4336 47.7891L98.0078 40.5625H107.441L98.2422 58.5703V69H88.0469ZM111.93 69L105.211 40.5625H114.938L118.18 55.3086C118.232 55.582 118.271 55.8294 118.297 56.0508C118.336 56.2591 118.368 56.5195 118.395 56.832H118.512C118.551 56.5195 118.583 56.2591 118.609 56.0508C118.648 55.8294 118.694 55.582 118.746 55.3086L122.105 40.5625H131.676L135.23 55.2695C135.283 55.556 135.322 55.8034 135.348 56.0117C135.387 56.2201 135.426 56.4935 135.465 56.832H135.562C135.602 56.4935 135.634 56.2201 135.66 56.0117C135.699 55.8034 135.745 55.556 135.797 55.2695L138.766 40.5625H147.516L140.914 69H130.445L126.734 54.5273C126.669 54.2669 126.617 54.013 126.578 53.7656C126.539 53.5182 126.507 53.2383 126.48 52.9258H126.383C126.357 53.2383 126.324 53.5182 126.285 53.7656C126.246 54.013 126.194 54.2669 126.129 54.5273L122.438 69H111.93ZM148.195 69V40.5625H158.273V50.3086H163.234V40.5625H173.293V69H163.234V58.3359H158.273V69H148.195ZM175.672 69V40.5625H197.137V48.2188H185.398V51.207H195.516V58.082H185.398V61.5781H197.449V69H175.672ZM198.93 69V40.5625H212.797C216 40.5625 218.578 41.4219 220.531 43.1406C222.497 44.8594 223.48 47.2422 223.48 50.2891C223.48 53.4271 222.445 55.9076 220.375 57.7305C218.305 59.5534 215.746 60.4648 212.699 60.4648H209.008V69H198.93ZM209.008 54H210.844C211.742 54 212.38 53.7266 212.758 53.1797C213.148 52.6198 213.344 51.8125 213.344 50.7578C213.344 49.7292 213.148 48.9349 212.758 48.375C212.38 47.8021 211.742 47.5156 210.844 47.5156H209.008V54ZM213.676 69L208.812 56.7344L218.227 54.8984L224.711 69H213.676ZM225.117 69V40.5625H246.582V48.2188H234.844V51.207H244.961V58.082H234.844V61.5781H246.895V69H225.117Z" fill="black"/>
</svg>
