<svg width="254" height="223" viewBox="0 0 254 223" fill="none" xmlns="http://www.w3.org/2000/svg">
<path d="M51.8556 26.0508V24.6836H61.3478V25.3477C61.3478 26.207 61.5757 26.8451 62.0314 27.2617C62.5002 27.6784 63.1512 27.8867 63.9846 27.8867C64.7528 27.8867 65.3452 27.737 65.7619 27.4375C66.1916 27.138 66.4064 26.7148 66.4064 26.168C66.4064 25.5169 66.1916 25.0286 65.7619 24.7031C65.3452 24.3776 63.9585 23.8958 61.6017 23.2578C58.62 22.4375 56.2892 21.3372 54.6096 19.957C52.9299 18.5768 52.0835 16.6237 52.0705 14.0977C52.0705 11.207 53.1512 8.98698 55.3127 7.4375C57.4741 5.88802 60.2801 5.11328 63.7306 5.11328C67.1942 5.11328 70.0067 5.82943 72.1681 7.26172C74.3426 8.68099 75.4299 10.6862 75.4299 13.2773V14.4492H66.133V13.9219C66.133 13.2839 65.9442 12.7826 65.5666 12.418C65.189 12.0534 64.6356 11.8711 63.9064 11.8711C63.1642 11.8711 62.6239 12.0013 62.2853 12.2617C61.9468 12.5091 61.7775 12.8477 61.7775 13.2773C61.7775 13.7591 61.9924 14.1042 62.4221 14.3125C62.8648 14.5208 64.3622 14.957 66.9142 15.6211C69.6486 16.3372 71.8556 17.4049 73.5353 18.8242C75.215 20.2305 76.0614 22.3203 76.0744 25.0938C76.0744 28.1667 74.9611 30.4974 72.7346 32.0859C70.508 33.6745 67.6304 34.4688 64.1017 34.4688C60.5991 34.4688 57.6825 33.7721 55.3517 32.3789C53.021 30.9857 51.8556 28.8763 51.8556 26.0508ZM77.4181 34V5.5625H98.883V13.2188H87.1447V16.207H97.2619V23.082H87.1447V26.5781H99.1955V34H77.4181ZM100.676 34V5.5625H110.91L115.637 17.0859C115.793 17.5026 115.936 17.9323 116.067 18.375C116.197 18.8177 116.314 19.2669 116.418 19.7227H116.555C116.529 19.2539 116.516 18.8242 116.516 18.4336C116.529 18.0299 116.535 17.5938 116.535 17.125V5.5625H124.875V34H114.699L109.836 22.5156C109.68 22.112 109.537 21.7018 109.406 21.2852C109.289 20.8685 109.179 20.4323 109.074 19.9766H108.938C108.977 20.4453 108.996 20.8555 108.996 21.207C109.009 21.5586 109.016 21.9688 109.016 22.4375V34H100.676ZM127.293 34V5.5625H139.5C143.432 5.5625 146.59 6.71484 148.973 9.01953C151.369 11.3242 152.567 14.6185 152.567 18.9023V20.543C152.567 24.8138 151.362 28.1276 148.953 30.4844C146.544 32.8281 143.393 34 139.5 34H127.293ZM137.137 27.2031H138.66C139.754 27.2031 140.646 26.7865 141.336 25.9531C142.026 25.1198 142.371 23.707 142.371 21.7148V17.8867C142.371 15.8685 142.033 14.4818 141.356 13.7266C140.679 12.9714 139.78 12.5938 138.66 12.5938H137.137V27.2031ZM164.16 34V5.5625H174.356V34H164.16ZM176.715 34V5.5625H186.949L191.676 17.0859C191.832 17.5026 191.975 17.9323 192.106 18.375C192.236 18.8177 192.353 19.2669 192.457 19.7227H192.594C192.568 19.2539 192.555 18.8242 192.555 18.4336C192.568 18.0299 192.574 17.5938 192.574 17.125V5.5625H200.914V34H190.738L185.875 22.5156C185.719 22.112 185.576 21.7018 185.445 21.2852C185.328 20.8685 185.218 20.4323 185.113 19.9766H184.977C185.016 20.4453 185.035 20.8555 185.035 21.207C185.048 21.5586 185.055 21.9688 185.055 22.4375V34H176.715ZM30.7736 66.0508V64.6836H40.2658V65.3477C40.2658 66.207 40.4937 66.8451 40.9494 67.2617C41.4181 67.6784 42.0692 67.8867 42.9025 67.8867C43.6707 67.8867 44.2632 67.737 44.6799 67.4375C45.1096 67.138 45.3244 66.7148 45.3244 66.168C45.3244 65.5169 45.1096 65.0286 44.6799 64.7031C44.2632 64.3776 42.8765 63.8958 40.5197 63.2578C37.5379 62.4375 35.2072 61.3372 33.5275 59.957C31.8478 58.5768 31.0015 56.6237 30.9885 54.0977C30.9885 51.207 32.0692 48.987 34.2306 47.4375C36.3921 45.888 39.1981 45.1133 42.6486 45.1133C46.1122 45.1133 48.9247 45.8294 51.0861 47.2617C53.2606 48.681 54.3478 50.6862 54.3478 53.2773V54.4492H45.051V53.9219C45.051 53.2839 44.8622 52.7826 44.4846 52.418C44.1069 52.0534 43.5536 51.8711 42.8244 51.8711C42.0822 51.8711 41.5418 52.0013 41.2033 52.2617C40.8648 52.5091 40.6955 52.8477 40.6955 53.2773C40.6955 53.7591 40.9103 54.1042 41.34 54.3125C41.7827 54.5208 43.2801 54.957 45.8322 55.6211C48.5666 56.3372 50.7736 57.4049 52.4533 58.8242C54.133 60.2305 54.9793 62.3203 54.9924 65.0938C54.9924 68.1667 53.8791 70.4974 51.6525 72.0859C49.426 73.6745 46.5484 74.4688 43.0197 74.4688C39.5171 74.4688 36.6004 73.7721 34.2697 72.3789C31.939 70.9857 30.7736 68.8763 30.7736 66.0508ZM56.3361 74V45.5625H77.801V53.2188H66.0627V56.207H76.1799V63.082H66.0627V66.5781H78.1135V74H56.3361ZM78.7931 60.6016V58.9609C78.7931 54.1042 80.0236 50.582 82.4846 48.3945C84.9455 46.194 88.2202 45.0938 92.3088 45.0938C96.0718 45.0938 99.0601 45.9596 101.274 47.6914C103.5 49.4102 104.613 51.9818 104.613 55.4062V57.3594H94.9455V54.6445C94.9455 53.7201 94.7306 53.0495 94.301 52.6328C93.8713 52.2031 93.2332 51.9883 92.3869 51.9883C91.4754 51.9883 90.7593 52.2878 90.2385 52.8867C89.7306 53.4727 89.4767 54.5794 89.4767 56.207V63.375C89.4767 64.9635 89.7176 66.0833 90.1994 66.7344C90.6942 67.3724 91.4494 67.6914 92.465 67.6914C93.3114 67.6914 93.9364 67.431 94.34 66.9102C94.7437 66.3763 94.9455 65.5365 94.9455 64.3906V62.3203H104.613V64.5859C104.626 67.6849 103.52 70.1068 101.293 71.8516C99.0666 73.5964 96.0718 74.4688 92.3088 74.4688C88.1681 74.4688 84.8804 73.3555 82.4455 71.1289C80.0106 68.8893 78.7931 65.3802 78.7931 60.6016ZM105.098 60.6016V58.9609C105.098 54.2083 106.361 50.7122 108.887 48.4727C111.413 46.2201 114.642 45.0938 118.574 45.0938C122.507 45.0938 125.742 46.2201 128.281 48.4727C130.82 50.7122 132.09 54.2083 132.09 58.9609V60.6016C132.09 65.3542 130.82 68.8568 128.281 71.1094C125.742 73.349 122.507 74.4688 118.574 74.4688C114.642 74.4688 111.413 73.349 108.887 71.1094C106.361 68.8568 105.098 65.3542 105.098 60.6016ZM115.586 63.2773C115.586 64.918 115.84 66.0638 116.348 66.7148C116.869 67.3659 117.611 67.6914 118.574 67.6914C119.538 67.6914 120.28 67.3659 120.801 66.7148C121.335 66.0638 121.602 64.918 121.602 63.2773V56.3242C121.602 54.6966 121.335 53.5703 120.801 52.9453C120.28 52.3073 119.538 51.9883 118.574 51.9883C117.611 51.9883 116.869 52.3073 116.348 52.9453C115.84 53.5703 115.586 54.6966 115.586 56.3242V63.2773ZM133.805 74V45.5625H144.039L148.766 57.0859C148.922 57.5026 149.065 57.9323 149.195 58.375C149.326 58.8177 149.443 59.2669 149.547 59.7227H149.684C149.658 59.2539 149.645 58.8242 149.645 58.4336C149.658 58.0299 149.664 57.5938 149.664 57.125V45.5625H158.004V74H147.828L142.965 62.5156C142.809 62.112 142.666 61.7018 142.535 61.2852C142.418 60.8685 142.307 60.4323 142.203 59.9766H142.067C142.106 60.4453 142.125 60.8555 142.125 61.207C142.138 61.5586 142.145 61.9688 142.145 62.4375V74H133.805ZM160.422 74V45.5625H172.629C176.561 45.5625 179.719 46.7148 182.102 49.0195C184.498 51.3242 185.695 54.6185 185.695 58.9023V60.543C185.695 64.8138 184.491 68.1276 182.082 70.4844C179.673 72.8281 176.522 74 172.629 74H160.422ZM170.266 67.2031H171.789C172.883 67.2031 173.775 66.7865 174.465 65.9531C175.155 65.1198 175.5 63.707 175.5 61.7148V57.8867C175.5 55.8685 175.162 54.4818 174.485 53.7266C173.807 52.9714 172.909 52.5938 171.789 52.5938H170.266V67.2031ZM186.219 66.0508V64.6836H195.711V65.3477C195.711 66.207 195.939 66.8451 196.395 67.2617C196.863 67.6784 197.515 67.8867 198.348 67.8867C199.116 67.8867 199.709 67.737 200.125 67.4375C200.555 67.138 200.77 66.7148 200.77 66.168C200.77 65.5169 200.555 65.0286 200.125 64.7031C199.709 64.3776 198.322 63.8958 195.965 63.2578C192.983 62.4375 190.653 61.3372 188.973 59.957C187.293 58.5768 186.447 56.6237 186.434 54.0977C186.434 51.207 187.515 48.987 189.676 47.4375C191.837 45.888 194.643 45.1133 198.094 45.1133C201.557 45.1133 204.37 45.8294 206.531 47.2617C208.706 48.681 209.793 50.6862 209.793 53.2773V54.4492H200.496V53.9219C200.496 53.2839 200.307 52.7826 199.93 52.418C199.552 52.0534 198.999 51.8711 198.27 51.8711C197.528 51.8711 196.987 52.0013 196.649 52.2617C196.31 52.5091 196.141 52.8477 196.141 53.2773C196.141 53.7591 196.356 54.1042 196.785 54.3125C197.228 54.5208 198.725 54.957 201.278 55.6211C204.012 56.3372 206.219 57.4049 207.899 58.8242C209.578 60.2305 210.425 62.3203 210.438 65.0938C210.438 68.1667 209.324 70.4974 207.098 72.0859C204.871 73.6745 201.994 74.4688 198.465 74.4688C194.962 74.4688 192.046 73.7721 189.715 72.3789C187.384 70.9857 186.219 68.8763 186.219 66.0508ZM211.352 69.4297C211.352 68.0365 211.814 66.8646 212.738 65.9141C213.676 64.9505 215.011 64.4688 216.742 64.4688C218.474 64.4688 219.802 64.9505 220.727 65.9141C221.664 66.8646 222.133 68.0365 222.133 69.4297C222.133 70.8359 221.664 72.0143 220.727 72.9648C219.802 73.9154 218.474 74.3906 216.742 74.3906C215.011 74.3906 213.676 73.9089 212.738 72.9453C211.814 71.9818 211.352 70.8099 211.352 69.4297Z" fill="black"/>
<path d="M2.73486 125.09V96.6523H17.1489C20.4432 96.6523 22.9888 97.5638 24.7856 99.3867C26.5955 101.197 27.5005 103.742 27.5005 107.023C27.5005 110.305 26.6216 112.85 24.8638 114.66C23.106 116.47 20.4888 117.375 17.0122 117.375H12.813V125.09H2.73486ZM12.813 110.676H14.8638C15.8534 110.676 16.5304 110.376 16.895 109.777C17.2596 109.178 17.4419 108.319 17.4419 107.199C17.4419 106.053 17.2596 105.188 16.895 104.602C16.5304 104.016 15.8534 103.723 14.8638 103.723H12.813V110.676ZM24.645 125.09L34.5669 96.6133H45.563L55.4458 125.09H45.1919L40.0747 108.82C39.9185 108.326 39.8013 107.883 39.7231 107.492C39.645 107.089 39.5864 106.776 39.5474 106.555H39.4692C39.4432 106.776 39.3846 107.089 39.2935 107.492C39.2023 107.883 39.0916 108.326 38.9614 108.82L34.0981 125.09H24.645ZM31.7739 121.047L33.2192 114.465H46.2271L47.77 121.047H31.7739ZM60.3833 125.09V114.953L50.9302 96.6523H61.8872L65.4614 103.879C65.5916 104.152 65.7023 104.419 65.7935 104.68C65.8846 104.927 65.9757 105.188 66.0669 105.461H66.1646C66.2557 105.188 66.3403 104.927 66.4185 104.68C66.5096 104.419 66.6268 104.152 66.77 103.879L70.3442 96.6523H79.7778L70.5786 114.66V125.09H60.3833Z" fill="black"/>
<path d="M148.105 125.09V96.6523H168.555V104.289H158.184V108.137H167.246V115.207H158.184V125.09H148.105ZM169.801 125.09V96.6523H191.266V104.309H179.527V107.297H189.645V114.172H179.527V117.668H191.578V125.09H169.801ZM193.059 125.09V96.6523H214.523V104.309H202.785V107.297H212.902V114.172H202.785V117.668H214.836V125.09H193.059ZM215.301 117.141V115.773H224.793V116.438C224.793 117.297 225.021 117.935 225.477 118.352C225.945 118.768 226.596 118.977 227.43 118.977C228.198 118.977 228.79 118.827 229.207 118.527C229.637 118.228 229.852 117.805 229.852 117.258C229.852 116.607 229.637 116.118 229.207 115.793C228.79 115.467 227.404 114.986 225.047 114.348C222.065 113.527 219.734 112.427 218.055 111.047C216.375 109.667 215.529 107.714 215.516 105.188C215.516 102.297 216.596 100.077 218.758 98.5273C220.919 96.9779 223.725 96.2031 227.176 96.2031C230.639 96.2031 233.452 96.9193 235.613 98.3516C237.788 99.7708 238.875 101.776 238.875 104.367V105.539H229.578V105.012C229.578 104.374 229.389 103.872 229.012 103.508C228.634 103.143 228.081 102.961 227.352 102.961C226.609 102.961 226.069 103.091 225.73 103.352C225.392 103.599 225.223 103.938 225.223 104.367C225.223 104.849 225.438 105.194 225.867 105.402C226.31 105.611 227.807 106.047 230.359 106.711C233.094 107.427 235.301 108.495 236.98 109.914C238.66 111.32 239.507 113.41 239.52 116.184C239.52 119.257 238.406 121.587 236.18 123.176C233.953 124.764 231.076 125.559 227.547 125.559C224.044 125.559 221.128 124.862 218.797 123.469C216.466 122.076 215.301 119.966 215.301 117.141ZM240.434 120.52C240.434 119.126 240.896 117.954 241.82 117.004C242.758 116.04 244.092 115.559 245.824 115.559C247.556 115.559 248.884 116.04 249.809 117.004C250.746 117.954 251.215 119.126 251.215 120.52C251.215 121.926 250.746 123.104 249.809 124.055C248.884 125.005 247.556 125.48 245.824 125.48C244.092 125.48 242.758 124.999 241.82 124.035C240.896 123.072 240.434 121.9 240.434 120.52Z" fill="black"/>
<path d="M64.9572 168.231V166.864H74.4494V167.528C74.4494 168.387 74.6773 169.025 75.133 169.442C75.6017 169.859 76.2528 170.067 77.0861 170.067C77.8543 170.067 78.4468 169.917 78.8635 169.618C79.2931 169.318 79.508 168.895 79.508 168.348C79.508 167.697 79.2931 167.209 78.8635 166.883C78.4468 166.558 77.0601 166.076 74.7033 165.438C71.7215 164.618 69.3908 163.517 67.7111 162.137C66.0314 160.757 65.1851 158.804 65.1721 156.278C65.1721 153.387 66.2528 151.167 68.4142 149.618C70.5757 148.068 73.3817 147.293 76.8322 147.293C80.2957 147.293 83.1082 148.01 85.2697 149.442C87.4442 150.861 88.5314 152.866 88.5314 155.458V156.629H79.2346V156.102C79.2346 155.464 79.0457 154.963 78.6681 154.598C78.2905 154.234 77.7372 154.051 77.008 154.051C76.2658 154.051 75.7254 154.181 75.3869 154.442C75.0484 154.689 74.8791 155.028 74.8791 155.458C74.8791 155.939 75.0939 156.284 75.5236 156.493C75.9663 156.701 77.4637 157.137 80.0158 157.801C82.7502 158.517 84.9572 159.585 86.6369 161.004C88.3166 162.411 89.1629 164.5 89.176 167.274C89.176 170.347 88.0627 172.678 85.8361 174.266C83.6096 175.855 80.7319 176.649 77.2033 176.649C73.7007 176.649 70.784 175.952 68.4533 174.559C66.1226 173.166 64.9572 171.056 64.9572 168.231ZM88.9377 155.399V147.743H113.586V155.399H106.379V176.18H96.1838V155.399H88.9377ZM110.008 176.18L119.93 147.704H130.926L140.809 176.18H130.555L125.438 159.911C125.281 159.416 125.164 158.973 125.086 158.583C125.008 158.179 124.949 157.866 124.91 157.645H124.832C124.806 157.866 124.748 158.179 124.656 158.583C124.565 158.973 124.455 159.416 124.324 159.911L119.461 176.18H110.008ZM117.137 172.137L118.582 165.555H131.59L133.133 172.137H117.137ZM140.785 176.18V147.743H154.653C157.856 147.743 160.434 148.602 162.387 150.321C164.353 152.04 165.336 154.422 165.336 157.469C165.336 160.607 164.301 163.088 162.231 164.911C160.16 166.734 157.602 167.645 154.555 167.645H150.863V176.18H140.785ZM150.863 161.18H152.699C153.598 161.18 154.236 160.907 154.613 160.36C155.004 159.8 155.199 158.993 155.199 157.938C155.199 156.909 155.004 156.115 154.613 155.555C154.236 154.982 153.598 154.696 152.699 154.696H150.863V161.18ZM155.531 176.18L150.668 163.915L160.082 162.079L166.567 176.18H155.531ZM164.649 155.399V147.743H189.297V155.399H182.09V176.18H171.895V155.399H164.649ZM12.2814 216.18V187.743H26.1486C29.3517 187.743 31.9299 188.602 33.883 190.321C35.8491 192.04 36.8322 194.422 36.8322 197.469C36.8322 200.607 35.7971 203.088 33.7267 204.911C31.6564 206.734 29.0978 207.645 26.051 207.645H22.3596V216.18H12.2814ZM22.3596 201.18H24.1955C25.0939 201.18 25.7319 200.907 26.1096 200.36C26.5002 199.8 26.6955 198.993 26.6955 197.938C26.6955 196.909 26.5002 196.115 26.1096 195.555C25.7319 194.982 25.0939 194.696 24.1955 194.696H22.3596V201.18ZM27.0275 216.18L22.1642 203.915L31.5783 202.079L38.0627 216.18H27.0275ZM38.3908 216.18V187.743H48.5861V216.18H38.3908ZM50.2619 202.782V201.141C50.2619 196.454 51.5119 192.971 54.0119 190.692C56.5119 188.413 59.8517 187.274 64.0314 187.274C67.8075 187.274 70.7437 188.133 72.84 189.852C74.9364 191.571 75.9455 193.849 75.8674 196.688V197.528H66.2189V197.137C66.2189 196.161 66.0106 195.464 65.5939 195.047C65.1773 194.618 64.5067 194.403 63.5822 194.403C62.6968 194.403 61.9937 194.696 61.4728 195.282C60.965 195.855 60.7111 196.981 60.7111 198.661V205.399C60.7111 207.027 61.0236 208.166 61.6486 208.817C62.2736 209.468 63.0939 209.793 64.1096 209.793C64.5913 209.793 64.995 209.735 65.3205 209.618C65.659 209.5 65.9976 209.312 66.3361 209.051V206.532H63.758V199.93L75.965 199.891V212.176C75.0145 213.244 73.5627 214.26 71.6096 215.223C69.6694 216.174 67.1434 216.649 64.0314 216.649C59.8517 216.649 56.5119 215.51 54.0119 213.231C51.5119 210.952 50.2619 207.469 50.2619 202.782ZM77.4846 216.18V187.743H87.5627V197.489H92.5236V187.743H102.582V216.18H92.5236V205.516H87.5627V216.18H77.4846ZM103.496 195.399V187.743H128.145V195.399H120.938V216.18H110.742V195.399H103.496ZM138.352 216.18V187.743H148.586L153.313 199.266C153.469 199.683 153.612 200.112 153.742 200.555C153.873 200.998 153.99 201.447 154.094 201.903H154.231C154.205 201.434 154.192 201.004 154.192 200.614C154.205 200.21 154.211 199.774 154.211 199.305V187.743H162.551V216.18H152.375L147.512 204.696C147.356 204.292 147.212 203.882 147.082 203.465C146.965 203.049 146.854 202.612 146.75 202.157H146.613C146.653 202.625 146.672 203.036 146.672 203.387C146.685 203.739 146.692 204.149 146.692 204.618V216.18H138.352ZM164.285 202.782V201.141C164.285 196.389 165.548 192.892 168.074 190.653C170.6 188.4 173.83 187.274 177.762 187.274C181.694 187.274 184.93 188.4 187.469 190.653C190.008 192.892 191.278 196.389 191.278 201.141V202.782C191.278 207.534 190.008 211.037 187.469 213.29C184.93 215.529 181.694 216.649 177.762 216.649C173.83 216.649 170.6 215.529 168.074 213.29C165.548 211.037 164.285 207.534 164.285 202.782ZM174.774 205.458C174.774 207.098 175.028 208.244 175.535 208.895C176.056 209.546 176.798 209.872 177.762 209.872C178.725 209.872 179.468 209.546 179.988 208.895C180.522 208.244 180.789 207.098 180.789 205.458V198.504C180.789 196.877 180.522 195.75 179.988 195.125C179.468 194.487 178.725 194.168 177.762 194.168C176.798 194.168 176.056 194.487 175.535 195.125C175.028 195.75 174.774 196.877 174.774 198.504V205.458ZM197.172 216.18L190.453 187.743H200.18L203.422 202.489C203.474 202.762 203.513 203.01 203.539 203.231C203.578 203.439 203.611 203.7 203.637 204.012H203.754C203.793 203.7 203.826 203.439 203.852 203.231C203.891 203.01 203.936 202.762 203.988 202.489L207.348 187.743H216.918L220.473 202.45C220.525 202.736 220.564 202.984 220.59 203.192C220.629 203.4 220.668 203.674 220.707 204.012H220.805C220.844 203.674 220.876 203.4 220.903 203.192C220.942 202.984 220.987 202.736 221.039 202.45L224.008 187.743H232.758L226.156 216.18H215.688L211.977 201.708C211.912 201.447 211.86 201.193 211.82 200.946C211.781 200.698 211.749 200.418 211.723 200.106H211.625C211.599 200.418 211.567 200.698 211.528 200.946C211.488 201.193 211.436 201.447 211.371 201.708L207.68 216.18H197.172ZM231.055 211.61C231.055 210.217 231.517 209.045 232.442 208.094C233.379 207.131 234.714 206.649 236.445 206.649C238.177 206.649 239.505 207.131 240.43 208.094C241.367 209.045 241.836 210.217 241.836 211.61C241.836 213.016 241.367 214.194 240.43 215.145C239.505 216.096 238.177 216.571 236.445 216.571C234.714 216.571 233.379 216.089 232.442 215.125C231.517 214.162 231.055 212.99 231.055 211.61Z" fill="black"/>
<path d="M140.603 86.7639C143.35 95.1103 143.724 104.384 141.727 114.585C141.049 118.081 140.175 121.38 139.105 124.483C138.035 127.551 136.644 130.618 134.932 133.686C133.256 136.717 131.133 139.393 128.565 141.711C126.033 144.03 123.179 145.759 120.005 146.901C115.903 148.47 111.641 148.809 107.218 147.917C104.329 147.311 101.689 146.116 99.2994 144.333C96.9096 142.549 94.9122 140.338 93.3071 137.698C89.8116 131.884 88.2422 125.054 88.5989 117.207C88.7059 113.711 89.3122 109.592 90.4179 104.848C91.702 99.8542 93.1644 95.7167 94.8052 92.4352C96.1962 89.653 97.8191 87.0136 99.6739 84.5168C101.564 82.02 103.687 79.7194 106.041 77.6149C108.43 75.4748 111.106 73.7984 114.066 72.5857C117.027 71.373 120.041 70.8023 123.108 70.8736C123.429 70.8736 124.624 71.052 126.693 71.4086C132.97 72.8354 137.607 77.9538 140.603 86.7639ZM121.737 96.2859C117.482 103.313 110.611 121.764 110.193 129.112C110.086 129.611 110.193 130.021 110.514 130.342C110.871 130.627 111.263 130.717 111.692 130.61C112.12 130.503 112.387 130.182 112.494 129.647C113.09 122.156 119.889 103.883 123.823 97.3559C124.037 96.9279 124.002 96.5177 123.716 96.1253C123.467 95.733 123.146 95.5546 122.753 95.5903C122.361 95.5903 122.022 95.8222 121.737 96.2859Z" fill="white"/>
<path d="M142.19 91.6864C143.973 101.138 143.385 111.108 140.424 121.594C139.533 124.662 138.445 127.569 137.161 130.315C135.912 133.062 134.361 135.701 132.506 138.234C130.651 140.766 128.618 142.942 126.407 144.761C124.195 146.58 121.627 148.042 118.702 149.148C115.813 150.218 112.728 150.753 109.446 150.753C104.239 150.753 99.6554 149.255 95.6962 146.259C91.7727 143.263 88.7944 139.215 86.7613 134.114C84.1575 127.551 83.3906 120.239 84.4607 112.178C85.9587 101.905 88.9906 93.2558 93.5561 86.2291C96.8019 81.1999 100.761 77.0088 105.434 73.656C110.106 70.2675 115.046 68.5732 120.254 68.5732C121.645 68.5732 123.268 68.7516 125.123 69.1083H125.23C126.728 69.3936 128.368 70.0891 130.152 71.1949C136.144 74.7617 140.157 81.5922 142.19 91.6864ZM138.445 86.7641C135.449 77.954 130.812 72.8356 124.534 71.4089L122.822 71.0879C121.966 70.9452 121.342 70.8739 120.949 70.8739C117.882 70.8025 114.868 71.3732 111.907 72.5859C108.947 73.7987 106.272 75.4751 103.882 77.6152C101.528 79.7196 99.4057 82.0202 97.5153 84.517C95.6605 87.0138 94.0376 89.6533 92.6466 92.4354C90.9701 95.7882 89.5434 99.8188 88.3664 104.527C87.1893 109.2 86.5473 113.426 86.4403 117.207C86.0836 125.054 87.653 131.885 91.1485 137.699C93.1816 141.087 95.8032 143.709 99.0134 145.563C102.259 147.418 105.844 148.346 109.767 148.346C113.263 148.346 116.509 147.668 119.505 146.313C122.501 144.921 125.069 143.138 127.209 140.962C129.349 138.751 131.258 136.147 132.934 133.151C134.646 130.119 136.019 127.087 137.054 124.055C138.088 121.024 138.926 117.867 139.568 114.585C141.566 104.384 141.191 95.1105 138.445 86.7641ZM120.014 95.216C120.264 94.7523 120.602 94.5204 121.03 94.5204C121.423 94.5204 121.744 94.7166 121.994 95.109C122.279 95.5013 122.315 95.8937 122.101 96.286C118.167 102.813 111.08 121.808 110.484 129.299C110.377 129.976 110.02 130.315 109.414 130.315C109.057 130.315 108.736 130.155 108.451 129.834C108.165 129.513 108.076 129.156 108.183 128.764C108.601 121.416 115.759 102.243 120.014 95.216Z" fill="black"/>
</svg>
