<svg width="280" height="189" viewBox="0 0 280 189" fill="none" xmlns="http://www.w3.org/2000/svg">
<path d="M82.6953 57.342C83.2468 58.8127 83.4674 60.835 83.3571 63.4088C83.2468 65.5413 82.8607 67.4717 82.1989 69.1998C82.1254 69.1998 82.0886 69.2733 82.0886 69.4204H81.9783V69.641C81.9048 69.7145 81.7945 69.8984 81.6474 70.1925C81.4636 70.6337 81.1694 71.1301 80.765 71.6816C80.2502 72.6008 79.5332 73.4649 78.614 74.2738C74.2018 78.6124 67.0136 81.3701 57.0494 82.5466C51.0562 83.2452 44.2725 83.4658 36.6982 83.2085C29.9328 82.9511 24.5831 82.2341 20.6489 81.0575C16.7146 79.9545 13.7548 78.5941 11.7693 76.9762C10.5927 75.91 9.74706 75.0459 9.23231 74.3841C8.82786 73.5752 8.57048 73.0788 8.46018 72.895C8.16603 72.3067 7.98219 71.9022 7.90865 71.6816C7.43066 69.9167 7.24682 67.9129 7.35713 65.67C7.46743 62.9859 8.18441 60.3938 9.50807 57.8935C11.42 54.9521 14.1593 51.8268 17.7258 48.5176C21.2923 45.4291 25.3184 42.4141 29.8042 39.4726C38.4815 33.8103 46.4602 29.6371 53.7403 26.953L54.1264 26.8427C54.1999 26.8427 54.3102 26.7692 54.4573 26.6221C54.5676 26.6221 54.6779 26.6037 54.7882 26.567C54.9353 26.5302 55.0456 26.5118 55.1191 26.5118C57.3987 25.6661 58.943 25.133 59.7519 24.9124C60.2667 24.8021 60.5792 24.5079 60.6895 24.03C60.7998 23.552 60.7079 23.1291 60.4137 22.7614C60.1196 22.3938 59.7151 22.2835 59.2004 22.4305C57.0678 22.9821 55.0272 23.699 53.0785 24.5815C43.2613 26.8979 35.3562 27.6884 29.3629 26.953C26.7892 26.5486 24.7853 25.9787 23.3513 25.2433C21.7703 24.3609 20.6856 23.4233 20.0973 22.4305C19.84 22.0629 19.6193 21.5297 19.4355 20.8311C19.4355 20.7576 19.4171 20.6289 19.3803 20.445C19.3436 20.2612 19.3252 20.1325 19.3252 20.059V19.9487V19.8384C19.3252 19.5442 19.2884 19.3604 19.2149 19.2868C19.2149 16.1615 20.2996 13.5142 22.4689 11.3449C26.1825 7.44747 32.0286 4.92884 40.0073 3.78903C45.0814 3.16397 49.5855 2.94336 53.5197 3.1272C58.6305 3.38458 63.1162 4.06479 66.9769 5.16784C70.8008 6.12381 73.8525 7.63131 76.1322 9.69033C77.5294 10.9772 78.5037 12.6686 79.0552 14.7644C79.8274 17.7793 79.7538 20.9782 78.8346 24.3609C77.7683 28.3318 75.6909 32.1006 72.6024 35.6671C68.9623 40.0058 64.256 44.1054 58.4834 47.9661C52.196 52.1577 45.7248 55.6874 39.0698 58.5553H38.9594C33.7751 60.4673 30.2821 61.8277 28.4805 62.6366C28.0393 62.8205 27.7635 63.1514 27.6532 63.6294C27.5797 64.1074 27.6716 64.5302 27.929 64.8979C28.2231 65.2288 28.6276 65.3023 29.1423 65.1185C29.8777 64.8611 33.72 63.3536 40.6692 60.596C48.6847 57.3236 56.2405 54.9521 63.3368 53.4813C66.9769 52.6724 70.4147 52.268 73.6503 52.268C74.974 52.268 76.1689 52.4518 77.2352 52.8195C77.6764 52.9298 78.1728 53.0401 78.7243 53.1504L78.8346 53.2607H78.9449C79.0185 53.3343 79.092 53.371 79.1655 53.371C79.4597 53.5181 79.6435 53.6284 79.7171 53.7019C80.0112 53.7755 80.2502 53.9225 80.434 54.1432C80.5076 54.1799 80.5443 54.2351 80.5443 54.3086L80.765 54.4189L81.6474 55.3014H81.7577V55.4117C81.8312 55.5587 81.868 55.669 81.868 55.7426C81.9048 55.7793 81.9599 55.8529 82.0335 55.9632C82.107 56.0735 82.1622 56.147 82.1989 56.1838C82.3828 56.5515 82.4747 56.7537 82.4747 56.7905L82.585 56.9008C82.585 57.1214 82.6218 57.2685 82.6953 57.342ZM147.764 7.98061C148.683 9.12042 149.161 10.3522 149.198 11.6758C149.235 12.9995 148.849 14.2496 148.04 15.4262C147.304 16.6395 146.293 17.7242 145.006 18.6802C143.756 19.6361 142.267 20.4634 140.539 21.162C138.848 21.8606 137.377 22.4122 136.127 22.8166C134.914 23.1843 133.424 23.5887 131.66 24.03C129.49 24.6182 125.997 25.4455 121.181 26.5118C116.401 27.5781 112.779 28.4789 110.316 29.2143C109.47 29.4349 108.9 29.6555 108.606 29.8761C108.532 29.9496 108.459 29.9864 108.385 29.9864C107.797 30.3909 107.613 30.924 107.834 31.5858C108.054 32.2477 108.532 32.505 109.268 32.358C109.488 32.358 109.635 32.2844 109.709 32.1374C109.782 32.1374 112.356 31.5674 117.43 30.4276C121.842 29.4717 124.398 28.9569 125.096 28.8834C131.09 28.2583 135.116 29.5268 137.175 32.6889C138.131 34.0125 138.462 35.3913 138.168 36.8253C137.91 38.2593 137.34 39.5462 136.458 40.686C135.612 41.8258 134.564 42.8185 133.314 43.6642C130.998 45.2452 127.689 46.6424 123.387 47.8558C119.82 47.9661 116.364 48.297 113.018 48.8485C110.077 49.1427 106.749 49.8597 103.035 50.9995C102.3 51.2201 102.006 51.7165 102.153 52.4886C102.337 53.1872 102.76 53.4813 103.422 53.371C112.467 52.6357 119.195 51.6613 123.607 50.4479C126.916 50.3744 129.821 50.5215 132.321 50.8892C134.822 51.2201 137.083 52.0106 139.105 53.2607C141.164 54.5476 142.635 56.4412 143.517 58.9414C144.437 61.4049 144.694 63.8867 144.289 66.387C143.738 69.3652 142.359 72.0125 140.153 74.3289C137.947 76.6086 135.318 78.3918 132.266 79.6787C129.214 80.9288 126.126 81.8664 123.001 82.4915C119.912 83.1165 116.915 83.4291 114.011 83.4291C103.422 83.5762 95.2222 80.984 89.4128 75.6526C87.7215 74.0348 86.1956 72.0677 84.8352 69.7513C83.4747 67.3981 82.6658 65.1736 82.4085 63.0778C81.8937 58.9966 82.6475 53.3159 84.6697 46.0358C85.7728 42.2486 87.2067 38.3512 88.9716 34.3435C90.7732 30.3357 92.8874 26.3096 95.3141 22.2651C97.7776 18.2206 100.627 14.6724 103.863 11.6207C107.135 8.5689 110.481 6.52826 113.9 5.49875C118.717 3.95448 124.563 3.2375 131.439 3.34781C139.896 3.34781 145.337 4.89207 147.764 7.98061ZM214.984 25.133C215.425 29.0304 214.855 33.0198 213.274 37.1011L213.164 37.2114V37.3217C213.127 37.3952 213.053 37.5239 212.943 37.7077C212.833 37.8548 212.759 37.9651 212.722 38.0387C212.612 38.4431 212.428 38.8476 212.171 39.252C211.73 40.208 211.123 41.1456 210.351 42.0648C208.255 44.7489 205.571 46.5689 202.299 47.5249C199.063 48.4808 195.607 48.7015 191.93 48.1867C190.386 47.9661 188.805 47.58 187.187 47.0285C186.819 46.9182 186.268 46.7711 185.532 46.5873C184.834 46.4034 184.301 46.2564 183.933 46.1461C183.271 45.9622 182.775 46.1828 182.444 46.8079V46.9182V47.0285C182.334 47.8006 182.609 48.297 183.271 48.5176C183.823 48.775 184.871 49.0691 186.415 49.4001V49.5104C192.96 51.6429 198.273 54.3638 202.354 57.6729C204.45 59.3643 206.545 61.313 208.641 63.5191C211.693 66.8282 213.311 70.1925 213.495 73.612C213.605 76.7005 212.667 79.1456 210.682 80.9472C208.843 82.6753 206.472 83.5394 203.567 83.5394C198.456 83.7232 193.143 81.2781 187.628 76.2041C181.745 70.983 176.487 63.9419 171.855 55.0807L171.744 54.8601C171.413 54.1615 170.88 53.9409 170.145 54.1983C169.446 54.4557 169.189 54.9337 169.373 55.6323C169.446 55.7058 169.483 55.8161 169.483 55.9632C170.549 59.0885 171.174 61.8093 171.358 64.1257C171.542 66.3686 171.321 68.9608 170.696 71.9022C169.777 77.013 167.516 80.4692 163.913 82.2709C161.265 83.521 158.71 83.7968 156.246 83.0982C153.379 82.2157 151.007 80.0648 149.132 76.6453C147.624 73.7774 146.613 70.119 146.098 65.67C145.731 62.8756 145.62 58.6657 145.767 53.0401C146.172 42.3773 147.679 33.461 150.29 26.2912C153.084 18.4596 157.147 12.5766 162.479 8.64244C164.722 7.17171 167.02 6.01351 169.373 5.16784C169.667 5.05753 169.979 4.96561 170.31 4.89207C170.678 4.78177 171.064 4.67146 171.468 4.56116C171.91 4.41409 172.259 4.30378 172.516 4.23025C173.068 4.11994 173.601 4.00964 174.116 3.89933C174.483 3.89933 174.741 3.86256 174.888 3.78903H174.998H175.219C179.08 3.38458 183.216 3.42134 187.628 3.89933C194.099 4.70823 199.339 6.28927 203.347 8.64244C206.398 10.4808 208.991 12.8524 211.123 15.7571C213.256 18.625 214.543 21.7503 214.984 25.133ZM181.672 18.6802C177.995 23.1291 175.274 28.2583 173.509 34.0677C173.362 34.5457 173.454 34.9317 173.785 35.2259C174.116 35.4833 174.483 35.5752 174.888 35.5017C175.329 35.3913 175.623 35.0972 175.77 34.6192C177.425 29.3246 179.999 24.5815 183.492 20.3899C184.006 19.8751 184.006 19.3052 183.492 18.6802C183.271 18.4596 182.959 18.3493 182.554 18.3493C182.186 18.3125 181.892 18.4228 181.672 18.6802ZM249.333 3.34781C252.752 3.34781 255.914 4.02802 258.819 5.38845C261.723 6.7121 264.15 8.49536 266.099 10.7382C268.084 12.9811 269.776 15.5733 271.173 18.5147C272.57 21.4194 273.581 24.4528 274.206 27.6149C274.868 30.7402 275.199 33.9022 275.199 37.1011C275.199 40.9985 274.666 45.1901 273.6 49.6758C271.283 59.5665 266.853 67.7658 260.308 74.2738C253.8 80.745 246.814 83.9806 239.35 83.9806C231.151 83.9806 224.569 80.0648 219.605 72.2331C216.738 67.7106 214.918 62.3792 214.145 56.2389C213.373 50.0987 213.723 43.9032 215.193 37.6526C217.546 27.7252 221.959 19.5258 228.43 13.0546C234.938 6.58341 241.905 3.34781 249.333 3.34781ZM247.513 32.4683C243.137 39.4542 239.791 46.7711 237.475 54.4189C237.365 54.8234 237.438 55.1727 237.695 55.4668C237.953 55.7242 238.284 55.8529 238.688 55.8529C239.35 55.8529 239.736 55.5587 239.846 54.9704C242.236 47.5065 245.472 40.4286 249.553 33.7368C249.847 33.2956 249.847 32.8727 249.553 32.4683C249.296 32.0271 248.947 31.8064 248.505 31.8064C248.064 31.8064 247.733 32.0271 247.513 32.4683ZM81.5922 104.798C82.0702 106.746 81.3533 108.75 79.4413 110.809C76.2792 114.302 70.6721 117.005 62.6198 118.917C57.7296 119.946 52.9498 120.406 48.2802 120.296C44.3828 119.928 42.0848 119.689 41.3862 119.579C40.9449 119.579 40.5956 119.781 40.3383 120.185C40.1177 120.59 40.0625 121.013 40.1728 121.454C40.3199 121.858 40.6508 122.097 41.1655 122.171L41.3862 122.281H41.4965C44.7321 122.612 46.8095 122.777 47.7287 122.777C49.3833 122.961 51.2217 123.402 53.2439 124.101C55.4132 124.984 56.7369 125.848 57.2149 126.693C57.987 127.833 57.5642 128.973 55.9464 130.113C54.586 130.995 52.1409 131.51 48.6111 131.657C44.6401 131.804 41.4413 131.657 39.0146 131.216C38.1689 131.105 37.6358 131.418 37.4152 132.153C37.2313 132.889 37.5439 133.403 38.3528 133.698C45.6329 136.235 51.7364 140.077 56.6634 145.224C59.5681 148.129 61.5903 151.107 62.7301 154.159C64.1273 157.799 63.7964 161.145 61.7374 164.197C60.4505 166.256 58.6305 167.855 56.2773 168.995C53.9241 170.135 51.5342 170.723 49.1075 170.76C46.6808 170.76 44.2541 170.429 41.8274 169.767C38.3712 168.664 35.3929 166.826 32.8927 164.252C30.3924 161.641 28.1128 158.424 26.0538 154.6C20.943 145.261 17.5419 136.529 15.8506 128.403C13.718 118.071 13.9019 110.019 16.4021 104.246C18.7185 98.6574 23.4249 94.8887 30.5211 92.94C34.6024 91.7266 39.0514 91.0096 43.868 90.789C50.5966 90.5316 56.5898 91.028 61.8477 92.2781C68.5395 93.8224 73.7238 95.9917 77.4007 98.7861C79.9377 100.845 81.3349 102.849 81.5922 104.798ZM137.726 94.9806C138.646 96.1204 139.124 97.3522 139.16 98.6758C139.197 99.9995 138.811 101.25 138.002 102.426C137.267 103.64 136.256 104.724 134.969 105.68C133.719 106.636 132.229 107.463 130.501 108.162C128.81 108.861 127.339 109.412 126.089 109.817C124.876 110.184 123.387 110.589 121.622 111.03C119.452 111.618 115.96 112.446 111.143 113.512C106.363 114.578 102.741 115.479 100.278 116.214C99.4322 116.435 98.8623 116.655 98.5681 116.876C98.4946 116.95 98.421 116.986 98.3475 116.986C97.7592 117.391 97.5754 117.924 97.796 118.586C98.0166 119.248 98.4946 119.505 99.2299 119.358C99.4506 119.358 99.5976 119.284 99.6712 119.137C99.7447 119.137 102.318 118.567 107.392 117.428C111.805 116.472 114.36 115.957 115.059 115.883C121.052 115.258 125.078 116.527 127.137 119.689C128.093 121.013 128.424 122.391 128.13 123.825C127.872 125.259 127.303 126.546 126.42 127.686C125.574 128.826 124.527 129.819 123.276 130.664C120.96 132.245 117.651 133.642 113.349 134.856C109.782 134.966 106.326 135.297 102.98 135.849C100.039 136.143 96.7113 136.86 92.9977 137.999C92.2624 138.22 91.9682 138.716 92.1153 139.489C92.2991 140.187 92.722 140.481 93.3838 140.371C102.429 139.636 109.157 138.661 113.57 137.448C116.879 137.374 119.783 137.521 122.284 137.889C124.784 138.22 127.045 139.011 129.067 140.261C131.126 141.548 132.597 143.441 133.48 145.941C134.399 148.405 134.656 150.887 134.252 153.387C133.7 156.365 132.321 159.013 130.115 161.329C127.909 163.609 125.28 165.392 122.228 166.679C119.177 167.929 116.088 168.866 112.963 169.491C109.874 170.117 106.878 170.429 103.973 170.429C93.3838 170.576 85.1845 167.984 79.3751 162.653C77.6837 161.035 76.1579 159.068 74.7974 156.751C73.437 154.398 72.6281 152.174 72.3707 150.078C71.856 145.997 72.6097 140.316 74.632 133.036C75.735 129.249 77.169 125.351 78.9339 121.343C80.7355 117.336 82.8497 113.31 85.2764 109.265C87.7399 105.221 90.5894 101.672 93.825 98.6207C97.0974 95.5689 100.443 93.5283 103.863 92.4988C108.679 90.9545 114.526 90.2375 121.401 90.3478C129.858 90.3478 135.3 91.8921 137.726 94.9806ZM200.644 94.9806C201.563 96.1204 202.041 97.3522 202.078 98.6758C202.115 99.9995 201.729 101.25 200.92 102.426C200.185 103.64 199.173 104.724 197.886 105.68C196.636 106.636 195.147 107.463 193.419 108.162C191.728 108.861 190.257 109.412 189.007 109.817C187.794 110.184 186.304 110.589 184.54 111.03C182.37 111.618 178.877 112.446 174.061 113.512C169.281 114.578 165.659 115.479 163.196 116.214C162.35 116.435 161.78 116.655 161.486 116.876C161.412 116.95 161.339 116.986 161.265 116.986C160.677 117.391 160.493 117.924 160.714 118.586C160.934 119.248 161.412 119.505 162.148 119.358C162.368 119.358 162.515 119.284 162.589 119.137C162.662 119.137 165.236 118.567 170.31 117.428C174.722 116.472 177.278 115.957 177.976 115.883C183.97 115.258 187.996 116.527 190.055 119.689C191.011 121.013 191.342 122.391 191.048 123.825C190.79 125.259 190.22 126.546 189.338 127.686C188.492 128.826 187.444 129.819 186.194 130.664C183.878 132.245 180.569 133.642 176.267 134.856C172.7 134.966 169.244 135.297 165.898 135.849C162.957 136.143 159.629 136.86 155.916 137.999C155.18 138.22 154.886 138.716 155.033 139.489C155.217 140.187 155.64 140.481 156.302 140.371C165.347 139.636 172.075 138.661 176.487 137.448C179.797 137.374 182.701 137.521 185.201 137.889C187.702 138.22 189.963 139.011 191.985 140.261C194.044 141.548 195.515 143.441 196.397 145.941C197.317 148.405 197.574 150.887 197.17 153.387C196.618 156.365 195.239 159.013 193.033 161.329C190.827 163.609 188.198 165.392 185.146 166.679C182.095 167.929 179.006 168.866 175.881 169.491C172.792 170.117 169.796 170.429 166.891 170.429C156.302 170.576 148.102 167.984 142.293 162.653C140.602 161.035 139.076 159.068 137.715 156.751C136.355 154.398 135.546 152.174 135.289 150.078C134.774 145.997 135.528 140.316 137.55 133.036C138.653 129.249 140.087 125.351 141.852 121.343C143.653 117.336 145.767 113.31 148.194 109.265C150.658 105.221 153.507 101.672 156.743 98.6207C160.015 95.5689 163.361 93.5283 166.781 92.4988C171.597 90.9545 177.443 90.2375 184.319 90.3478C192.776 90.3478 198.217 91.8921 200.644 94.9806ZM260.749 129.892C264.5 133.201 266.798 137.448 267.643 142.632C268.489 147.78 267.625 152.486 265.051 156.751C263.433 159.435 261.319 161.733 258.709 163.645C256.135 165.521 253.267 166.936 250.105 167.892C246.979 168.848 243.909 169.528 240.894 169.933C237.879 170.3 234.717 170.466 231.408 170.429C223.687 170.429 216.977 169.216 211.277 166.789C206.534 164.656 203.115 161.844 201.019 158.351C199.181 155.262 198.427 151.953 198.758 148.423C199.126 145.592 200.247 143.294 202.122 141.529C204.181 139.691 206.81 138.827 210.009 138.937C211.847 139.047 213.631 139.378 215.359 139.93C220.506 143.717 226.647 146.419 233.78 148.037C234.625 148.258 235.894 148.478 237.585 148.699C239.313 148.92 240.453 149.085 241.005 149.195C241.703 149.306 242.089 149.012 242.163 148.313C242.273 147.578 241.997 147.081 241.335 146.824C241.225 146.75 241.115 146.714 241.005 146.714C231.482 145.647 223.301 142.632 216.462 137.669C212.38 134.654 209.071 130.995 206.534 126.693C205.211 124.671 204.273 122.649 203.722 120.626L202.784 117.814C202.71 117.262 202.6 116.508 202.453 115.552C202.196 112.096 202.784 108.787 204.218 105.625C205.689 102.426 207.784 99.6686 210.505 97.3522C213.263 94.999 216.646 93.2341 220.653 92.0575C223.889 90.9913 228.172 90.4581 233.504 90.4581C242.291 90.6052 249.186 92.0024 254.186 94.6497C258.047 96.7823 260.271 99.5215 260.859 102.867V103.198V103.805C260.933 104.026 260.97 104.357 260.97 104.798C260.859 105.643 260.749 106.324 260.639 106.838C260.639 106.912 260.565 107.243 260.418 107.831C260.418 107.868 260.4 107.941 260.363 108.052C260.326 108.162 260.308 108.236 260.308 108.272C260.308 108.383 260.271 108.438 260.198 108.438V108.548C260.014 108.732 259.903 108.879 259.867 108.989C258.984 110.938 258.028 112.519 256.999 113.732C255.197 115.865 252.899 117.262 250.105 117.924C247.31 118.549 244.571 118.457 241.887 117.648C240.085 117.097 238.615 116.619 237.475 116.214C237.291 116.067 236.795 115.755 235.986 115.277C235.949 115.277 235.875 115.258 235.765 115.222C235.655 115.185 235.581 115.166 235.544 115.166C233.191 113.953 231.279 112.611 229.809 111.14L228.981 110.313L228.761 110.092V109.982H228.65V109.872C228.283 109.467 227.878 109.283 227.437 109.32C226.996 109.32 226.647 109.522 226.389 109.927C226.132 110.295 226.132 110.699 226.389 111.14C227.161 112.39 228.522 113.659 230.47 114.946C232.272 116.196 233.963 117.225 235.544 118.034H235.655C237.677 119.137 240.38 120.277 243.762 121.454C247.182 122.63 250.344 123.88 253.248 125.204C256.19 126.491 258.69 128.054 260.749 129.892Z" fill="white"/>
<path d="M81.3524 53.5914C83.6321 56.4593 84.2387 60.9083 83.1724 66.9383C82.768 69.1076 81.9959 71.0931 80.856 72.8947C79.7162 74.6596 78.3558 76.1671 76.7748 77.4172C75.2305 78.6673 73.4105 79.7888 71.3147 80.7815C69.2189 81.7375 67.1415 82.5096 65.0825 83.0979C63.0234 83.6862 60.7806 84.1826 58.3539 84.587C55.9639 84.9915 53.813 85.2856 51.901 85.4695C49.9891 85.6165 48.022 85.7269 45.9997 85.8004C38.6829 86.021 31.7888 85.7269 25.3176 84.9179C23.4056 84.6238 21.7511 84.3297 20.3539 84.0355C18.9935 83.7414 17.394 83.3369 15.5556 82.8222C13.754 82.3074 12.1913 81.6823 10.8677 80.947C9.58078 80.1748 8.31227 79.274 7.06215 78.2445C5.81203 77.215 4.81929 75.9465 4.08392 74.439C3.34856 72.9315 2.87057 71.2585 2.64996 69.4201C2.39258 67.5817 2.46612 65.2837 2.87057 62.5261C3.34856 59.9523 4.63544 57.2498 6.73124 54.4187C8.82703 51.5508 11.2537 48.9034 14.0114 46.4767C16.8057 44.05 19.8943 41.6601 23.277 39.3069C26.6964 36.9538 29.8033 34.9867 32.5977 33.4056C35.4289 31.7878 38.0578 30.3906 40.4845 29.214C36.7341 29.6553 33.7559 29.8759 31.5498 29.8759C29.8585 29.8759 28.2223 29.7656 26.6412 29.5449C25.0602 29.2876 23.424 28.8831 21.7327 28.3316C20.0781 27.7801 18.6258 26.9528 17.3756 25.8497C16.1623 24.7099 15.3166 23.3495 14.8386 21.7685C13.993 19.1211 14.2136 16.4738 15.5005 13.8265C16.8241 11.1792 18.6993 8.95472 21.126 7.15308C26.1265 3.51302 32.9102 1.41723 41.4772 0.865706C47.1028 0.498023 52.232 0.57156 56.8648 1.08632C67.3069 2.18936 74.2561 5.24113 77.7124 10.2416C78.6683 11.8594 79.3118 13.6243 79.6427 15.5362C80.3781 19.7278 79.8449 23.901 78.0433 28.0558C76.2416 32.1739 73.6495 36.0162 70.2668 39.5827C65.7811 44.3626 60.2107 48.738 53.5556 52.709L53.2247 52.9296C53.3718 52.8928 53.5924 52.8376 53.8865 52.7641C54.2174 52.6906 54.4564 52.6354 54.6035 52.5986C59.9349 51.2015 64.2184 50.3374 67.454 50.0065C74.2561 49.1976 78.8889 50.3926 81.3524 53.5914ZM80.47 57.3418C80.3964 57.2682 80.3597 57.1211 80.3597 56.9005C80.3229 56.7902 80.1575 56.5145 79.8633 56.0732L79.753 55.8526L79.5324 55.4114V55.3011H79.4221L78.5396 54.4187C78.4661 54.3451 78.3926 54.3084 78.319 54.3084C77.9881 53.9775 77.7124 53.7752 77.4918 53.7017C77.4182 53.6282 77.2344 53.5179 76.9402 53.3708L76.7196 53.2605H76.6093C76.2784 53.1502 75.7453 53.0031 75.0099 52.8193C73.9436 52.4516 72.7486 52.2677 71.425 52.2677C63.0051 52.2677 52.0113 55.0437 38.4439 60.5957C31.4947 63.3534 27.6524 64.8609 26.917 65.1182C26.4023 65.3021 25.9978 65.2285 25.7037 64.8976C25.4463 64.5299 25.3544 64.1071 25.4279 63.6291C25.5382 63.1511 25.814 62.8202 26.2552 62.6364C28.0568 61.8275 31.5498 60.4671 36.7341 58.5551H36.8444C39.9697 57.1947 43.0399 55.7239 46.0549 54.1429C49.0699 52.5251 52.2871 50.5948 55.7066 48.3519C59.126 46.0723 62.1778 43.7375 64.8619 41.3476C67.5827 38.9576 70.0094 36.2735 72.142 33.2953C74.3113 30.3171 75.8004 27.3389 76.6093 24.3606C77.5285 20.9779 77.6021 17.7791 76.8299 14.7641C76.3152 12.9257 75.3224 11.3079 73.8517 9.9107C72.4177 8.47674 70.8367 7.37369 69.1086 6.60155C67.4172 5.82942 65.395 5.18598 63.0418 4.67122C60.6887 4.1197 58.6664 3.75201 56.9751 3.56817C55.2837 3.38433 53.3902 3.23726 51.2944 3.12695C47.3602 2.94311 42.8561 3.16372 37.782 3.78878C35.9804 4.08293 34.2155 4.469 32.4874 4.94698C30.7593 5.3882 28.9209 6.03165 26.9722 6.87732C25.0602 7.72299 23.3873 8.69735 21.9533 9.80039C20.5193 10.9034 19.3244 12.2823 18.3684 13.9368C17.4492 15.5546 16.9896 17.3379 16.9896 19.2866C17.0631 19.3601 17.0999 19.544 17.0999 19.8381V20.0587V20.2793L17.2102 20.6103C17.4308 21.6398 17.872 22.559 18.5338 23.3679C19.2324 24.14 20.0781 24.7651 21.0709 25.2431C22.1004 25.6843 23.0747 26.0336 23.9939 26.291C24.9131 26.5483 25.961 26.7689 27.1376 26.9528C33.1308 27.6882 41.036 26.8976 50.8531 24.5812C52.8019 23.6988 54.8425 22.9818 56.9751 22.4303C57.4898 22.2832 57.8943 22.3935 58.1884 22.7612C58.4826 23.1289 58.5745 23.5517 58.4642 24.0297C58.3539 24.5077 58.0413 24.8018 57.5266 24.9121C56.7177 25.1328 55.1734 25.6659 52.8938 26.5116C52.8202 26.5116 52.7099 26.53 52.5629 26.5667C52.4526 26.6035 52.3423 26.6219 52.232 26.6219C52.0849 26.7689 51.9746 26.8425 51.901 26.8425L51.515 26.9528C46.6248 28.7912 41.3669 31.2914 35.7414 34.4535C30.1158 37.5788 24.6006 41.2924 19.1957 45.5943C13.7907 49.8594 9.81977 53.9591 7.28276 57.8933C5.9591 60.3935 5.24212 62.9857 5.13182 65.6698C5.02151 67.9126 5.20535 69.9165 5.68334 71.6814C5.75688 71.902 5.94072 72.3064 6.23486 72.8947C6.34517 73.0786 6.60255 73.5749 7.007 74.3838C11.0147 79.7152 20.17 82.6567 34.4729 83.2082C42.0471 83.4656 48.8309 83.245 54.8241 82.5464C64.7883 81.3698 71.9765 78.6122 76.3887 74.2735C77.3079 73.4646 78.0249 72.6006 78.5396 71.6814C78.9441 71.1299 79.2382 70.6335 79.4221 70.1923C79.5692 69.8981 79.6795 69.7143 79.753 69.6407V69.4201H79.8633C79.8633 69.2731 79.9001 69.1995 79.9736 69.1995C80.6354 67.4714 81.0215 65.5411 81.1318 63.4085C81.2421 60.8347 81.0215 58.8125 80.47 57.3418ZM139.472 1.74814C142.524 2.3732 145.079 3.7704 147.138 5.93973C149.234 8.07228 149.951 10.5909 149.289 13.4956C148.885 15.3708 147.984 17.0621 146.587 18.5696C145.226 20.0771 143.498 21.3456 141.402 22.3751C139.307 23.4046 137.395 24.2319 135.666 24.857C133.938 25.4453 131.971 26.0336 129.765 26.6219C133.993 27.5043 136.769 29.6001 138.093 32.9092C139.012 35.2256 138.902 37.5788 137.762 39.9688C136.622 42.3219 134.968 44.2339 132.799 45.7046C130.813 46.8812 129.232 47.6717 128.055 48.0762C128.68 48.2232 129.471 48.3703 130.427 48.5174C133.405 48.9218 136.071 49.8594 138.424 51.3301C140.777 52.8009 142.487 54.8047 143.553 57.3418C145.539 62.0113 145.373 66.6809 143.057 71.3505C141.402 74.8802 138.516 77.8584 134.398 80.2851C130.464 82.6383 126.015 84.2745 121.051 85.1937C116.124 86.1129 111.197 86.3151 106.27 85.8004C102.152 85.3592 98.2915 84.44 94.6882 83.0428C91.1217 81.6456 87.8493 79.5682 84.8711 76.8105C81.8929 74.0162 79.7971 70.7254 78.5837 66.9383C77.5542 63.7762 77.2233 60.3016 77.591 56.5145C78.069 50.8522 79.6132 44.7119 82.2238 38.0936C84.8711 31.4385 87.9412 25.4637 91.4342 20.169C96.1406 12.9992 101.215 7.96198 106.656 5.05729C112.098 2.11583 119.194 0.645096 127.945 0.645096C132.063 0.645096 135.905 1.01278 139.472 1.74814ZM145.539 7.98036C143.112 4.89183 137.67 3.34756 129.214 3.34756C122.338 3.23726 116.492 3.95424 111.675 5.49851C108.182 6.56479 104.781 8.66058 101.472 11.7859C98.1996 14.8744 95.3317 18.4593 92.8682 22.5406C90.4415 26.5851 88.3641 30.5928 86.636 34.5638C84.9079 38.5348 83.5107 42.3587 82.4444 46.0355C80.4221 53.3156 79.6684 58.9963 80.1831 63.0776C80.4405 65.1734 81.2494 67.3979 82.6099 69.751C83.9703 72.0674 85.4962 74.0345 87.1875 75.6523C92.9969 80.9837 101.196 83.5759 111.785 83.4288C114.69 83.4288 117.687 83.1163 120.775 82.4912C123.901 81.8662 126.989 80.9286 130.041 79.6785C133.093 78.3916 135.722 76.6083 137.928 74.3287C140.134 72.0123 141.513 69.365 142.064 66.3867C142.469 63.8865 142.211 61.4046 141.292 58.9412C140.41 56.4409 138.939 54.5474 136.88 53.2605C134.858 52.0104 132.596 51.2198 130.096 50.8889C127.596 50.5212 124.691 50.3742 121.382 50.4477C117.007 51.6611 110.315 52.6354 101.307 53.3708H101.196C100.534 53.4811 100.112 53.1869 99.9277 52.4883C99.7806 51.7162 100.075 51.2198 100.81 50.9992C104.524 49.8594 107.851 49.1424 110.793 48.8483C114.139 48.2968 117.595 47.9658 121.161 47.8555C125.463 46.6422 128.772 45.245 131.089 43.664C132.339 42.8183 133.387 41.8255 134.232 40.6857C135.115 39.5459 135.685 38.259 135.942 36.8251C136.236 35.3911 135.905 34.0123 134.949 32.6886C132.89 29.5266 128.864 28.2581 122.871 28.8831C122.172 28.9567 119.617 29.4714 115.205 30.4274C110.131 31.5672 107.557 32.1371 107.484 32.1371C107.41 32.2842 107.263 32.3577 107.042 32.3577C106.307 32.5048 105.829 32.2474 105.608 31.5856C105.388 30.9238 105.572 30.3906 106.16 29.9862L106.381 29.8759C106.675 29.6553 107.245 29.4346 108.09 29.214C110.554 28.4787 114.175 27.5778 118.955 26.5116C123.772 25.4453 127.265 24.618 129.434 24.0297C131.199 23.5885 132.688 23.184 133.902 22.8164C135.152 22.4119 136.622 21.8604 138.314 21.1618C140.042 20.4632 141.531 19.6359 142.781 18.6799C144.068 17.724 145.079 16.6393 145.814 15.4259C146.623 14.2494 147.009 12.9992 146.973 11.6756C146.936 10.3519 146.458 9.12018 145.539 7.98036ZM214.799 32.9092C213.586 38.4613 211.196 42.8551 207.629 46.0907C204.063 49.2895 199.522 50.8889 194.007 50.8889C197.757 52.7641 201.066 55.0254 203.934 57.6727C211.214 64.0703 214.413 70.3209 213.531 76.4245C213.053 79.513 211.527 81.9397 208.953 83.7046C206.416 85.4327 203.511 86.2416 200.239 86.1313C197.444 85.9842 194.595 85.1937 191.69 83.7597C188.822 82.289 186.138 80.3955 183.638 78.0791C181.174 75.7259 178.968 73.3543 177.02 70.9644C175.071 68.5745 173.288 66.0926 171.67 63.5188V63.7946C171.817 65.7801 171.615 68.5561 171.063 72.1226C170.07 76.02 168.655 79.1453 166.816 81.4985C164.978 83.8517 162.294 85.2856 158.764 85.8004C155.492 86.2784 152.44 85.5614 149.609 83.6494C146.888 81.7743 144.774 78.6857 143.266 74.3838C141.134 68.2803 140.509 59.7317 141.391 48.738C141.649 45.4288 142.016 42.2852 142.494 39.3069C142.972 36.2919 143.652 33.1666 144.535 29.931C145.417 26.6954 146.447 23.7356 147.623 21.0515C148.837 18.3306 150.363 15.7385 152.201 13.275C154.04 10.7748 156.099 8.67896 158.378 6.98762C160.658 5.25951 163.342 3.86232 166.43 2.79604C169.556 1.72976 172.957 1.15985 176.634 1.08632C189.208 0.681864 199.025 3.38433 206.085 9.19372C209.21 11.6572 211.619 14.709 213.31 18.349C215.406 22.7244 215.902 27.5778 214.799 32.9092ZM212.758 25.1328C212.317 21.7501 211.03 18.6248 208.898 15.7569C206.765 12.8522 204.173 10.4806 201.121 8.64219C197.114 6.28902 191.874 4.70799 185.403 3.89909C180.991 3.4211 176.854 3.38433 172.994 3.78878H172.663C172.516 3.86232 172.258 3.89909 171.891 3.89909C171.376 4.00939 170.843 4.1197 170.291 4.23C166.136 5.48012 162.79 6.95085 160.253 8.64219C149.921 16.1797 144.351 30.9789 143.542 53.0399C143.395 58.6654 143.505 62.8754 143.873 65.6698C144.094 67.692 144.461 69.6407 144.976 71.5159C145.491 73.3911 146.226 75.2847 147.182 77.1966C148.138 79.0718 149.425 80.5793 151.043 81.7191C152.661 82.8589 154.517 83.4288 156.613 83.4288C159.886 83.4288 162.533 82.3626 164.555 80.23C166.577 78.0974 167.883 75.3214 168.471 71.902C169.096 68.9605 169.317 66.3684 169.133 64.1255C168.949 61.8091 168.324 59.0882 167.258 55.9629C167.258 55.8159 167.221 55.7056 167.147 55.632C167.037 55.2276 167.111 54.8783 167.368 54.5841C167.662 54.29 167.993 54.1429 168.361 54.1429C168.876 54.1429 169.262 54.3819 169.519 54.8599C169.592 54.9334 169.629 55.007 169.629 55.0805C174.262 63.9417 179.52 70.9828 185.403 76.2039C190.918 81.2779 196.231 83.723 201.342 83.5391C204.247 83.5391 206.618 82.6751 208.457 80.947C210.442 79.1453 211.38 76.7002 211.269 73.6117C211.085 70.1923 209.468 66.828 206.416 63.5188C202.996 59.9155 199.614 57.066 196.268 54.9702C192.922 52.8376 188.896 51.0176 184.189 49.5101V49.3998C182.645 49.0689 181.597 48.7747 181.046 48.5174C180.384 48.2968 180.108 47.8004 180.219 47.0283V46.8076C180.549 46.1826 181.046 45.962 181.708 46.1458C181.781 46.1826 181.91 46.2194 182.094 46.2561C182.278 46.2929 182.406 46.3297 182.48 46.3664L184.189 46.8076C184.263 46.8444 184.392 46.8812 184.576 46.918C184.759 46.9547 184.888 46.9915 184.962 47.0283C186.579 47.5798 188.16 47.9658 189.705 48.1865C193.382 48.7012 196.838 48.4806 200.073 47.5246C203.346 46.5687 206.03 44.7486 208.126 42.0645C208.898 41.1453 209.504 40.2077 209.946 39.2518C210.203 38.8841 210.424 38.4061 210.607 37.8178L210.828 37.4317L210.938 37.3214V37.2111C211.012 37.2111 211.049 37.1744 211.049 37.1008C212.63 33.0195 213.2 29.0302 212.758 25.1328ZM179.446 18.6799C179.667 18.4225 179.961 18.3122 180.329 18.349C180.733 18.349 181.046 18.4593 181.266 18.6799C181.781 19.305 181.781 19.8749 181.266 20.3897C177.773 24.5812 175.2 29.3243 173.545 34.619C173.288 35.244 172.92 35.5566 172.442 35.5566C172.074 35.5566 171.762 35.4095 171.504 35.1153C171.247 34.8212 171.174 34.4719 171.284 34.0674C173.049 28.2581 175.77 23.1289 179.446 18.6799ZM269.113 13.4956C272.165 18.2755 274.095 23.9194 274.904 30.4274C275.713 36.8986 275.327 43.4617 273.746 50.1168C272.937 53.573 271.779 56.9925 270.271 60.3751C268.764 63.7578 266.87 67.0302 264.591 70.1923C262.348 73.3176 259.866 76.0936 257.145 78.5203C254.424 80.9102 251.317 82.8405 247.824 84.3113C244.368 85.7452 240.802 86.4622 237.125 86.4622C232.676 86.4622 228.539 85.3224 224.715 83.0428C220.892 80.7264 217.729 77.6194 215.229 73.722C212.177 68.9421 210.229 63.3166 209.383 56.8454C208.537 50.3374 208.905 43.7191 210.486 36.9905C212.95 26.5116 217.674 17.8526 224.66 11.0137C231.683 4.17485 239.202 0.755401 247.218 0.755401C251.703 0.755401 255.803 1.89522 259.517 4.17485C263.267 6.41771 266.466 9.52463 269.113 13.4956ZM272.974 37.1008C272.974 33.902 272.643 30.7399 271.981 27.6146C271.356 24.4525 270.345 21.4192 268.948 18.5145C267.55 15.573 265.859 12.9808 263.874 10.738C261.925 8.49512 259.498 6.71186 256.593 5.3882C253.689 4.02778 250.527 3.34756 247.107 3.34756C239.68 3.34756 232.713 6.58317 226.205 13.0544C219.733 19.5256 215.321 27.7249 212.968 37.6523C211.497 43.903 211.148 50.0984 211.92 56.2387C212.692 62.379 214.512 67.7104 217.38 72.2329C222.344 80.0645 228.925 83.9804 237.125 83.9804C244.589 83.9804 251.575 80.7448 258.083 74.2735C264.627 67.7656 269.058 59.5662 271.374 49.6756C272.441 45.1898 272.974 40.9983 272.974 37.1008ZM245.287 32.468C245.508 32.0268 245.839 31.8062 246.28 31.8062C246.721 31.8062 247.071 32.0268 247.328 32.468C247.622 32.8725 247.622 33.2953 247.328 33.7365C243.247 40.4284 240.011 47.5062 237.621 54.9702C237.511 55.5585 237.125 55.8526 236.463 55.8526C236.058 55.8526 235.728 55.7239 235.47 55.4666C235.213 55.1724 235.139 54.8231 235.25 54.4187C237.566 46.7709 240.912 39.454 245.287 32.468ZM81.187 101.874C82.1062 103.566 82.3635 105.275 81.9591 107.004C81.5914 108.695 80.9112 110.202 79.9185 111.526C78.9257 112.813 77.6572 114.026 76.1129 115.166C73.3553 117.188 69.8807 118.88 65.6891 120.24C61.4976 121.564 57.5082 122.336 53.7211 122.557C56.4052 123.917 57.8391 125.608 58.023 127.631C58.0597 129.101 57.4898 130.37 56.3132 131.436C55.1367 132.466 53.7946 133.183 52.2871 133.587C50.2649 134.065 47.4337 134.304 43.7936 134.304C45.7791 135.297 47.8382 136.584 49.9707 138.165C52.14 139.746 54.2358 141.529 56.2581 143.514C58.3171 145.463 60.0452 147.633 61.4424 150.022C62.8396 152.376 63.6301 154.618 63.814 156.751C64.2552 160.685 63.0786 164.233 60.2842 167.395C56.7177 171.293 51.8643 173.242 45.724 173.242C38.8483 173.242 32.8919 170.539 27.8546 165.134C24.4352 161.457 21.0892 155.924 17.8169 148.533C14.5813 141.106 12.3568 134.58 11.1434 128.954V128.844C11.1434 128.55 11.0699 128.256 10.9228 127.961L10.5919 125.921C10.5551 125.847 10.5184 125.719 10.4816 125.535C10.4448 125.314 10.4081 125.149 10.3713 125.038C8.60642 114.743 9.54401 106.599 13.1841 100.606C14.6548 98.1792 16.6587 96.1018 19.1957 94.3737C21.7327 92.6456 24.5455 91.3587 27.634 90.513C30.7225 89.6306 33.7191 89.0055 36.6238 88.6378C39.5285 88.2702 42.5251 88.0863 45.6137 88.0863C48.4081 88.0863 51.4782 88.3437 54.8241 88.8584C58.17 89.3364 61.6263 90.0902 65.1928 91.1197C68.7961 92.1124 72.0501 93.5464 74.9547 95.4216C77.8962 97.2968 79.9736 99.4477 81.187 101.874ZM79.3669 104.797C79.1463 103.143 78.2639 101.58 76.7196 100.11C75.2121 98.602 73.3553 97.3335 71.1492 96.304C68.9431 95.2745 66.9025 94.4472 65.0273 93.8222C63.1521 93.1971 61.3505 92.6823 59.6224 92.2779C54.3645 91.0278 48.3713 90.5314 41.6427 90.7888C26.7516 91.4506 17.5963 95.9363 14.1768 104.246C11.6766 110.019 11.4927 118.071 13.6253 128.403C15.3166 136.528 18.7177 145.261 23.8285 154.6C29.5643 165.373 36.9364 170.76 45.9446 170.76C48.739 170.76 51.3495 170.208 53.7762 169.105C56.2397 168.002 58.1517 166.366 59.5121 164.197C61.5711 161.145 61.902 157.799 60.5048 154.159C58.887 149.82 55.6698 145.776 50.8532 142.025C46.0365 138.238 41.1279 135.462 36.1275 133.697C35.3186 133.403 35.006 132.888 35.1899 132.153C35.4105 131.418 35.9436 131.105 36.7893 131.215C39.216 131.657 42.4148 131.804 46.3858 131.657C49.9156 131.51 52.3606 130.995 53.7211 130.112C55.3389 128.973 55.7617 127.833 54.9896 126.693C54.5116 125.847 53.1879 124.983 51.0186 124.101C48.9964 123.402 47.1579 122.961 45.5034 122.777C44.5842 122.777 42.5068 122.612 39.2711 122.281H39.1608C39.0873 122.281 39.0138 122.244 38.9402 122.17C38.4255 122.097 38.0946 121.858 37.9475 121.454C37.8372 121.012 37.8923 120.589 38.1129 120.185C38.3703 119.781 38.7196 119.578 39.1608 119.578C39.8594 119.689 42.1575 119.928 46.0549 120.295C50.7245 120.406 55.5043 119.946 60.3945 118.917C68.4468 117.005 74.0539 114.302 77.216 110.809C79.1279 108.75 79.8449 106.746 79.3669 104.797ZM129.434 88.7481C132.486 89.3732 135.041 90.7704 137.1 92.9397C139.196 95.0723 139.913 97.5909 139.251 100.496C138.847 102.371 137.946 104.062 136.549 105.57C135.188 107.077 133.46 108.346 131.365 109.375C129.269 110.405 127.357 111.232 125.629 111.857C123.901 112.445 121.934 113.034 119.727 113.622C123.956 114.504 126.732 116.6 128.055 119.909C128.975 122.226 128.864 124.579 127.725 126.969C126.585 129.322 124.93 131.234 122.761 132.705C120.775 133.881 119.194 134.672 118.018 135.076C118.643 135.223 119.433 135.37 120.389 135.517C123.367 135.922 126.033 136.859 128.386 138.33C130.74 139.801 132.449 141.805 133.516 144.342C135.501 149.011 135.336 153.681 133.019 158.35C131.365 161.88 128.478 164.858 124.36 167.285C120.426 169.638 115.977 171.275 111.013 172.194C106.086 173.113 101.159 173.315 96.2325 172.8C92.1145 172.359 88.2538 171.44 84.6505 170.043C81.084 168.646 77.8116 166.568 74.8334 163.811C71.8551 161.016 69.7594 157.725 68.546 153.938C67.5165 150.776 67.1856 147.302 67.5533 143.514C68.0312 137.852 69.5755 131.712 72.1861 125.094C74.8334 118.439 77.9035 112.464 81.3965 107.169C86.1028 99.9992 91.1769 94.962 96.6186 92.0573C102.06 89.1158 109.157 87.6451 117.907 87.6451C122.025 87.6451 125.868 88.0128 129.434 88.7481ZM135.501 94.9804C133.074 91.8918 127.633 90.3476 119.176 90.3476C112.3 90.2373 106.454 90.9542 101.637 92.4985C98.1444 93.5648 94.7434 95.6606 91.4342 98.7859C88.1619 101.874 85.2939 105.459 82.8305 109.541C80.4038 113.585 78.3264 117.593 76.5982 121.564C74.8701 125.535 73.4729 129.359 72.4067 133.036C70.3844 140.316 69.6307 145.996 70.1454 150.078C70.4028 152.173 71.2117 154.398 72.5721 156.751C73.9325 159.067 75.4584 161.035 77.1498 162.652C82.9592 167.984 91.1585 170.576 101.748 170.429C104.652 170.429 107.649 170.116 110.738 169.491C113.863 168.866 116.951 167.929 120.003 166.678C123.055 165.392 125.684 163.608 127.89 161.329C130.096 159.012 131.475 156.365 132.026 153.387C132.431 150.887 132.173 148.405 131.254 145.941C130.372 143.441 128.901 141.547 126.842 140.26C124.82 139.01 122.559 138.22 120.058 137.889C117.558 137.521 114.653 137.374 111.344 137.448C106.969 138.661 100.277 139.635 91.2688 140.371H91.1585C90.4967 140.481 90.0738 140.187 89.89 139.488C89.7429 138.716 90.037 138.22 90.7724 137.999C94.486 136.859 97.8135 136.142 100.755 135.848C104.101 135.297 107.557 134.966 111.124 134.856C115.426 133.642 118.735 132.245 121.051 130.664C122.301 129.818 123.349 128.826 124.195 127.686C125.077 126.546 125.647 125.259 125.904 123.825C126.199 122.391 125.868 121.012 124.912 119.689C122.853 116.527 118.827 115.258 112.833 115.883C112.135 115.957 109.579 116.471 105.167 117.427C100.093 118.567 97.5194 119.137 97.4459 119.137C97.3723 119.284 97.2252 119.358 97.0046 119.358C96.2693 119.505 95.7913 119.247 95.5707 118.586C95.3501 117.924 95.5339 117.391 96.1222 116.986L96.3428 116.876C96.6369 116.655 97.2069 116.435 98.0525 116.214C100.516 115.479 104.138 114.578 108.918 113.512C113.734 112.445 117.227 111.618 119.397 111.03C121.161 110.588 122.65 110.184 123.864 109.816C125.114 109.412 126.585 108.86 128.276 108.162C130.004 107.463 131.493 106.636 132.743 105.68C134.03 104.724 135.041 103.639 135.777 102.426C136.586 101.249 136.972 99.9992 136.935 98.6756C136.898 97.3519 136.42 96.1202 135.501 94.9804ZM192.352 88.7481C195.404 89.3732 197.959 90.7704 200.018 92.9397C202.114 95.0723 202.831 97.5909 202.169 100.496C201.765 102.371 200.864 104.062 199.467 105.57C198.106 107.077 196.378 108.346 194.282 109.375C192.187 110.405 190.275 111.232 188.547 111.857C186.818 112.445 184.851 113.034 182.645 113.622C186.874 114.504 189.65 116.6 190.973 119.909C191.892 122.226 191.782 124.579 190.642 126.969C189.502 129.322 187.848 131.234 185.679 132.705C183.693 133.881 182.112 134.672 180.935 135.076C181.561 135.223 182.351 135.37 183.307 135.517C186.285 135.922 188.951 136.859 191.304 138.33C193.657 139.801 195.367 141.805 196.433 144.342C198.419 149.011 198.253 153.681 195.937 158.35C194.282 161.88 191.396 164.858 187.278 167.285C183.344 169.638 178.895 171.275 173.931 172.194C169.004 173.113 164.077 173.315 159.15 172.8C155.032 172.359 151.172 171.44 147.568 170.043C144.002 168.646 140.729 166.568 137.751 163.811C134.773 161.016 132.677 157.725 131.464 153.938C130.434 150.776 130.103 147.302 130.471 143.514C130.949 137.852 132.493 131.712 135.104 125.094C137.751 118.439 140.821 112.464 144.314 107.169C149.021 99.9992 154.095 94.962 159.536 92.0573C164.978 89.1158 172.074 87.6451 180.825 87.6451C184.943 87.6451 188.786 88.0128 192.352 88.7481ZM198.419 94.9804C195.992 91.8918 190.55 90.3476 182.094 90.3476C175.218 90.2373 169.372 90.9542 164.555 92.4985C161.062 93.5648 157.661 95.6606 154.352 98.7859C151.08 101.874 148.212 105.459 145.748 109.541C143.322 113.585 141.244 117.593 139.516 121.564C137.788 125.535 136.391 129.359 135.324 133.036C133.302 140.316 132.548 145.996 133.063 150.078C133.321 152.173 134.129 154.398 135.49 156.751C136.85 159.067 138.376 161.035 140.068 162.652C145.877 167.984 154.076 170.576 164.666 170.429C167.57 170.429 170.567 170.116 173.655 169.491C176.781 168.866 179.869 167.929 182.921 166.678C185.973 165.392 188.602 163.608 190.808 161.329C193.014 159.012 194.393 156.365 194.944 153.387C195.349 150.887 195.091 148.405 194.172 145.941C193.29 143.441 191.819 141.547 189.76 140.26C187.738 139.01 185.476 138.22 182.976 137.889C180.476 137.521 177.571 137.374 174.262 137.448C169.887 138.661 163.195 139.635 154.187 140.371H154.076C153.414 140.481 152.992 140.187 152.808 139.488C152.661 138.716 152.955 138.22 153.69 137.999C157.404 136.859 160.731 136.142 163.673 135.848C167.019 135.297 170.475 134.966 174.041 134.856C178.343 133.642 181.652 132.245 183.969 130.664C185.219 129.818 186.267 128.826 187.113 127.686C187.995 126.546 188.565 125.259 188.822 123.825C189.116 122.391 188.786 121.012 187.83 119.689C185.771 116.527 181.744 115.258 175.751 115.883C175.053 115.957 172.497 116.471 168.085 117.427C163.011 118.567 160.437 119.137 160.364 119.137C160.29 119.284 160.143 119.358 159.922 119.358C159.187 119.505 158.709 119.247 158.488 118.586C158.268 117.924 158.452 117.391 159.04 116.986L159.261 116.876C159.555 116.655 160.125 116.435 160.97 116.214C163.434 115.479 167.055 114.578 171.835 113.512C176.652 112.445 180.145 111.618 182.314 111.03C184.079 110.588 185.568 110.184 186.782 109.816C188.032 109.412 189.502 108.86 191.194 108.162C192.922 107.463 194.411 106.636 195.661 105.68C196.948 104.724 197.959 103.639 198.695 102.426C199.503 101.249 199.89 99.9992 199.853 98.6756C199.816 97.3519 199.338 96.1202 198.419 94.9804ZM264.039 132.263C265.62 134.58 266.76 137.227 267.459 140.205C268.194 143.184 268.414 146.107 268.12 148.975C267.716 152.431 266.631 155.556 264.866 158.35C263.138 161.145 261.024 163.424 258.524 165.189C256.024 166.954 253.156 168.443 249.92 169.657C246.684 170.833 243.467 171.679 240.268 172.194C237.106 172.672 233.889 172.911 230.617 172.911C226.977 172.911 223.447 172.653 220.027 172.139C216.608 171.624 213.133 170.778 209.604 169.602C206.074 168.388 202.985 166.587 200.338 164.197C197.691 161.807 195.816 158.957 194.713 155.648C194.014 153.589 193.757 151.383 193.94 149.03C194.124 146.677 194.749 144.544 195.816 142.632C197.139 140.279 198.978 138.624 201.331 137.668C203.684 136.676 206.221 136.29 208.942 136.51C205.191 133.054 202.25 128.917 200.117 124.101C198.058 119.284 197.341 114.578 197.967 109.982C198.592 106.084 200.209 102.536 202.82 99.3374C205.43 96.1386 208.629 93.5832 212.416 91.6712C217.38 89.1342 223.52 87.8657 230.837 87.8657C243.081 87.8657 251.777 90.2373 256.924 94.9804C260.013 97.8115 261.447 101.231 261.226 105.239C261.116 106.783 260.638 108.511 259.792 110.423C256.741 116.637 252.439 120.075 246.887 120.737C248.872 121.545 250.508 122.244 251.795 122.832C253.082 123.421 254.534 124.193 256.152 125.149C257.807 126.068 259.278 127.116 260.564 128.292C261.851 129.469 263.01 130.793 264.039 132.263ZM258.524 129.892C256.465 128.053 253.965 126.491 251.023 125.204C248.118 123.88 244.956 122.63 241.537 121.454C238.154 120.277 235.452 119.137 233.429 118.034H233.319C228.466 115.387 225.414 113.089 224.164 111.14C223.907 110.736 223.907 110.331 224.164 109.927C224.458 109.522 224.844 109.32 225.322 109.32C225.8 109.32 226.168 109.541 226.425 109.982H226.535C226.535 110.055 226.609 110.166 226.756 110.313C227.234 111.122 228.153 111.986 229.514 112.905C230.874 113.824 232.179 114.578 233.429 115.166L233.65 115.276C234.349 115.607 234.882 115.92 235.25 116.214C239.037 117.648 242.088 118.365 244.405 118.365C247.64 118.365 250.288 117.574 252.347 115.993C254.443 114.376 256.207 112.041 257.641 108.989C257.678 108.879 257.788 108.732 257.972 108.548V108.438C258.046 108.438 258.083 108.346 258.083 108.162L258.193 107.941C258.23 107.794 258.266 107.647 258.303 107.5C258.34 107.353 258.358 107.243 258.358 107.169C258.395 107.059 258.414 106.948 258.414 106.838C258.524 106.323 258.634 105.643 258.744 104.797C258.744 104.356 258.708 104.025 258.634 103.805V102.867C258.266 100.808 257.329 99.0065 255.821 97.4622C254.314 95.918 252.586 94.723 250.637 93.8773C248.725 93.0316 246.501 92.3514 243.964 91.8367C241.427 91.2852 239.184 90.9359 237.235 90.7888C235.286 90.6049 233.301 90.4946 231.279 90.4579C221.314 90.4579 213.648 92.7559 208.28 97.3519C205.559 99.6683 203.463 102.426 201.993 105.625C200.559 108.787 199.97 112.096 200.228 115.552C200.375 116.508 200.485 117.262 200.559 117.813C201.625 121.601 202.875 124.56 204.309 126.693C207.728 132.539 212.49 137.135 218.593 140.481C224.697 143.79 231.426 145.868 238.779 146.713C239.515 146.824 239.919 147.246 239.993 147.982C240.029 148.717 239.735 149.122 239.11 149.195C239 149.195 238.89 149.195 238.779 149.195C238.228 149.085 237.088 148.919 235.36 148.699C233.668 148.478 232.4 148.258 231.554 148.037C224.421 146.419 218.281 143.717 213.133 139.93C211.405 139.378 209.622 139.047 207.784 138.937C204.585 138.827 201.956 139.691 199.897 141.529C198.022 143.294 196.9 145.592 196.533 148.423C196.202 151.953 196.955 155.262 198.794 158.35C200.191 160.667 202.085 162.652 204.474 164.307C206.864 165.961 209.512 167.212 212.416 168.057C215.321 168.903 218.134 169.51 220.855 169.877C223.576 170.245 226.352 170.429 229.183 170.429C232.492 170.466 235.654 170.3 238.669 169.932C241.684 169.528 244.754 168.848 247.879 167.892C251.041 166.936 253.909 165.52 256.483 163.645C259.094 161.733 261.208 159.435 262.826 156.751C265.399 152.486 266.264 147.78 265.418 142.632C264.572 137.448 262.274 133.201 258.524 129.892Z" fill="black"/>
</svg>
