<svg width="254" height="283" viewBox="0 0 254 283" fill="none" xmlns="http://www.w3.org/2000/svg">
<path d="M51.8555 26.7676V25.4004H61.3476V26.0645C61.3476 26.9238 61.5755 27.5618 62.0312 27.9785C62.5 28.3952 63.151 28.6035 63.9844 28.6035C64.7526 28.6035 65.345 28.4538 65.7617 28.1543C66.1914 27.8548 66.4062 27.4316 66.4062 26.8848C66.4062 26.2337 66.1914 25.7454 65.7617 25.4199C65.345 25.0944 63.9583 24.6126 61.6016 23.9746C58.6198 23.1543 56.2891 22.054 54.6094 20.6738C52.9297 19.2936 52.0833 17.3405 52.0703 14.8145C52.0703 11.9238 53.151 9.70378 55.3125 8.1543C57.474 6.60482 60.2799 5.83008 63.7305 5.83008C67.194 5.83008 70.0065 6.54622 72.168 7.97852C74.3424 9.39779 75.4297 11.403 75.4297 13.9941V15.166H66.1328V14.6387C66.1328 14.0007 65.944 13.4993 65.5664 13.1348C65.1888 12.7702 64.6354 12.5879 63.9062 12.5879C63.1641 12.5879 62.6237 12.7181 62.2851 12.9785C61.9466 13.2259 61.7773 13.5645 61.7773 13.9941C61.7773 14.4759 61.9922 14.821 62.4219 15.0293C62.8646 15.2376 64.362 15.6738 66.9141 16.3379C69.6484 17.054 71.8555 18.1217 73.5351 19.541C75.2148 20.9473 76.0612 23.0371 76.0742 25.8105C76.0742 28.8835 74.9609 31.2142 72.7344 32.8027C70.5078 34.3913 67.6302 35.1855 64.1016 35.1855C60.599 35.1855 57.6823 34.4889 55.3516 33.0957C53.0208 31.7025 51.8555 29.5931 51.8555 26.7676ZM77.418 34.7168V6.2793H98.8828V13.9355H87.1445V16.9238H97.2617V23.7988H87.1445V27.2949H99.1953V34.7168H77.418ZM100.676 34.7168V6.2793H110.91L115.637 17.8027C115.793 18.2194 115.936 18.6491 116.066 19.0918C116.197 19.5345 116.314 19.9837 116.418 20.4395H116.555C116.529 19.9707 116.516 19.541 116.516 19.1504C116.529 18.7467 116.535 18.3105 116.535 17.8418V6.2793H124.875V34.7168H114.699L109.836 23.2324C109.68 22.8288 109.536 22.4186 109.406 22.002C109.289 21.5853 109.178 21.1491 109.074 20.6934H108.937C108.977 21.1621 108.996 21.5723 108.996 21.9238C109.009 22.2754 109.016 22.6855 109.016 23.1543V34.7168H100.676ZM127.293 34.7168V6.2793H139.5C143.432 6.2793 146.59 7.43164 148.973 9.73633C151.368 12.041 152.566 15.3353 152.566 19.6191V21.2598C152.566 25.5306 151.362 28.8444 148.953 31.2012C146.544 33.5449 143.393 34.7168 139.5 34.7168H127.293ZM137.137 27.9199H138.66C139.754 27.9199 140.646 27.5033 141.336 26.6699C142.026 25.8366 142.371 24.4238 142.371 22.4316V18.6035C142.371 16.5853 142.033 15.1986 141.355 14.4434C140.678 13.6882 139.78 13.3105 138.66 13.3105H137.137V27.9199ZM164.16 34.7168V6.2793H174.355V34.7168H164.16ZM176.715 34.7168V6.2793H186.949L191.676 17.8027C191.832 18.2194 191.975 18.6491 192.105 19.0918C192.236 19.5345 192.353 19.9837 192.457 20.4395H192.594C192.568 19.9707 192.555 19.541 192.555 19.1504C192.568 18.7467 192.574 18.3105 192.574 17.8418V6.2793H200.914V34.7168H190.738L185.875 23.2324C185.719 22.8288 185.576 22.4186 185.445 22.002C185.328 21.5853 185.217 21.1491 185.113 20.6934H184.977C185.016 21.1621 185.035 21.5723 185.035 21.9238C185.048 22.2754 185.055 22.6855 185.055 23.1543V34.7168H176.715ZM30.7734 66.7676V65.4004H40.2656V66.0645C40.2656 66.9238 40.4935 67.5618 40.9492 67.9785C41.418 68.3952 42.069 68.6035 42.9023 68.6035C43.6706 68.6035 44.263 68.4538 44.6797 68.1543C45.1094 67.8548 45.3242 67.4316 45.3242 66.8848C45.3242 66.2337 45.1094 65.7454 44.6797 65.4199C44.263 65.0944 42.8763 64.6126 40.5195 63.9746C37.5378 63.1543 35.207 62.054 33.5273 60.6738C31.8476 59.2936 31.0013 57.3405 30.9883 54.8145C30.9883 51.9238 32.069 49.7038 34.2305 48.1543C36.3919 46.6048 39.1979 45.8301 42.6484 45.8301C46.112 45.8301 48.9245 46.5462 51.0859 47.9785C53.2604 49.3978 54.3476 51.403 54.3476 53.9941V55.166H45.0508V54.6387C45.0508 54.0007 44.862 53.4993 44.4844 53.1348C44.1068 52.7702 43.5534 52.5879 42.8242 52.5879C42.082 52.5879 41.5417 52.7181 41.2031 52.9785C40.8646 53.2259 40.6953 53.5645 40.6953 53.9941C40.6953 54.4759 40.9101 54.821 41.3398 55.0293C41.7825 55.2376 43.2799 55.6738 45.832 56.3379C48.5664 57.054 50.7734 58.1217 52.4531 59.541C54.1328 60.9473 54.9792 63.0371 54.9922 65.8105C54.9922 68.8835 53.8789 71.2142 51.6523 72.8027C49.4258 74.3913 46.5482 75.1855 43.0195 75.1855C39.5169 75.1855 36.6003 74.4889 34.2695 73.0957C31.9388 71.7025 30.7734 69.5931 30.7734 66.7676ZM56.3359 74.7168V46.2793H77.8008V53.9355H66.0625V56.9238H76.1797V63.7988H66.0625V67.2949H78.1133V74.7168H56.3359ZM78.793 61.3184V59.6777C78.793 54.821 80.0234 51.2988 82.4844 49.1113C84.9453 46.9108 88.22 45.8105 92.3086 45.8105C96.0716 45.8105 99.0599 46.6764 101.273 48.4082C103.5 50.127 104.613 52.6986 104.613 56.123V58.0762H94.9453V55.3613C94.9453 54.4368 94.7305 53.7663 94.3008 53.3496C93.8711 52.9199 93.2331 52.7051 92.3867 52.7051C91.4753 52.7051 90.7591 53.0046 90.2383 53.6035C89.7305 54.1895 89.4766 55.2962 89.4766 56.9238V64.0918C89.4766 65.6803 89.7174 66.8001 90.1992 67.4512C90.694 68.0892 91.4492 68.4082 92.4648 68.4082C93.3112 68.4082 93.9362 68.1478 94.3398 67.627C94.7435 67.0931 94.9453 66.2533 94.9453 65.1074V63.0371H104.613V65.3027C104.626 68.4017 103.52 70.8236 101.293 72.5684C99.0664 74.3132 96.0716 75.1855 92.3086 75.1855C88.168 75.1855 84.8802 74.0723 82.4453 71.8457C80.0104 69.6061 78.793 66.097 78.793 61.3184ZM105.098 61.3184V59.6777C105.098 54.9251 106.361 51.429 108.887 49.1895C111.413 46.9368 114.642 45.8105 118.574 45.8105C122.507 45.8105 125.742 46.9368 128.281 49.1895C130.82 51.429 132.09 54.9251 132.09 59.6777V61.3184C132.09 66.071 130.82 69.5736 128.281 71.8262C125.742 74.0658 122.507 75.1855 118.574 75.1855C114.642 75.1855 111.413 74.0658 108.887 71.8262C106.361 69.5736 105.098 66.071 105.098 61.3184ZM115.586 63.9941C115.586 65.6348 115.84 66.7806 116.348 67.4316C116.868 68.0827 117.611 68.4082 118.574 68.4082C119.538 68.4082 120.28 68.0827 120.801 67.4316C121.335 66.7806 121.602 65.6348 121.602 63.9941V57.041C121.602 55.4134 121.335 54.2871 120.801 53.6621C120.28 53.0241 119.538 52.7051 118.574 52.7051C117.611 52.7051 116.868 53.0241 116.348 53.6621C115.84 54.2871 115.586 55.4134 115.586 57.041V63.9941ZM133.805 74.7168V46.2793H144.039L148.766 57.8027C148.922 58.2194 149.065 58.6491 149.195 59.0918C149.326 59.5345 149.443 59.9837 149.547 60.4395H149.684C149.658 59.9707 149.645 59.541 149.645 59.1504C149.658 58.7467 149.664 58.3105 149.664 57.8418V46.2793H158.004V74.7168H147.828L142.965 63.2324C142.809 62.8288 142.665 62.4186 142.535 62.002C142.418 61.5853 142.307 61.1491 142.203 60.6934H142.066C142.105 61.1621 142.125 61.5723 142.125 61.9238C142.138 62.2754 142.145 62.6855 142.145 63.1543V74.7168H133.805ZM160.422 74.7168V46.2793H172.629C176.561 46.2793 179.719 47.4316 182.102 49.7363C184.497 52.041 185.695 55.3353 185.695 59.6191V61.2598C185.695 65.5306 184.491 68.8444 182.082 71.2012C179.673 73.5449 176.522 74.7168 172.629 74.7168H160.422ZM170.266 67.9199H171.789C172.883 67.9199 173.775 67.5033 174.465 66.6699C175.155 65.8366 175.5 64.4238 175.5 62.4316V58.6035C175.5 56.5853 175.161 55.1986 174.484 54.4434C173.807 53.6882 172.909 53.3105 171.789 53.3105H170.266V67.9199ZM186.219 66.7676V65.4004H195.711V66.0645C195.711 66.9238 195.939 67.5618 196.395 67.9785C196.863 68.3952 197.514 68.6035 198.348 68.6035C199.116 68.6035 199.708 68.4538 200.125 68.1543C200.555 67.8548 200.77 67.4316 200.77 66.8848C200.77 66.2337 200.555 65.7454 200.125 65.4199C199.708 65.0944 198.322 64.6126 195.965 63.9746C192.983 63.1543 190.652 62.054 188.973 60.6738C187.293 59.2936 186.447 57.3405 186.434 54.8145C186.434 51.9238 187.514 49.7038 189.676 48.1543C191.837 46.6048 194.643 45.8301 198.094 45.8301C201.557 45.8301 204.37 46.5462 206.531 47.9785C208.706 49.3978 209.793 51.403 209.793 53.9941V55.166H200.496V54.6387C200.496 54.0007 200.307 53.4993 199.93 53.1348C199.552 52.7702 198.999 52.5879 198.27 52.5879C197.527 52.5879 196.987 52.7181 196.648 52.9785C196.31 53.2259 196.141 53.5645 196.141 53.9941C196.141 54.4759 196.355 54.821 196.785 55.0293C197.228 55.2376 198.725 55.6738 201.277 56.3379C204.012 57.054 206.219 58.1217 207.898 59.541C209.578 60.9473 210.424 63.0371 210.438 65.8105C210.438 68.8835 209.324 71.2142 207.098 72.8027C204.871 74.3913 201.993 75.1855 198.465 75.1855C194.962 75.1855 192.046 74.4889 189.715 73.0957C187.384 71.7025 186.219 69.5931 186.219 66.7676ZM211.352 70.1465C211.352 68.7533 211.814 67.5814 212.738 66.6309C213.676 65.6673 215.01 65.1855 216.742 65.1855C218.474 65.1855 219.802 65.6673 220.727 66.6309C221.664 67.5814 222.133 68.7533 222.133 70.1465C222.133 71.5527 221.664 72.7311 220.727 73.6816C219.802 74.6322 218.474 75.1074 216.742 75.1074C215.01 75.1074 213.676 74.6257 212.738 73.6621C211.814 72.6986 211.352 71.5267 211.352 70.1465Z" fill="black"/>
<path d="M2.73468 155.807V127.369H17.1487C20.443 127.369 22.9886 128.281 24.7855 130.104C26.5954 131.913 27.5003 134.459 27.5003 137.74C27.5003 141.021 26.6214 143.567 24.8636 145.377C23.1058 147.187 20.4886 148.092 17.012 148.092H12.8128V155.807H2.73468ZM12.8128 141.393H14.8636C15.8532 141.393 16.5303 141.093 16.8948 140.494C17.2594 139.895 17.4417 139.036 17.4417 137.916C17.4417 136.77 17.2594 135.904 16.8948 135.318C16.5303 134.732 15.8532 134.439 14.8636 134.439H12.8128V141.393ZM24.6448 155.807L34.5667 127.33H45.5628L55.4456 155.807H45.1917L40.0745 139.537C39.9183 139.042 39.8011 138.6 39.723 138.209C39.6448 137.805 39.5862 137.493 39.5472 137.271H39.4691C39.443 137.493 39.3844 137.805 39.2933 138.209C39.2021 138.6 39.0915 139.042 38.9612 139.537L34.098 155.807H24.6448ZM31.7737 151.764L33.2191 145.182H46.2269L47.7698 151.764H31.7737ZM60.3831 155.807V145.67L50.93 127.369H61.887L65.4612 134.596C65.5915 134.869 65.7021 135.136 65.7933 135.396C65.8844 135.644 65.9756 135.904 66.0667 136.178H66.1644C66.2555 135.904 66.3401 135.644 66.4183 135.396C66.5094 135.136 66.6266 134.869 66.7698 134.596L70.3441 127.369H79.7776L70.5784 145.377V155.807H60.3831Z" fill="black"/>
<path d="M139.509 118.907C142.256 127.254 142.63 136.528 140.633 146.729C139.955 150.224 139.081 153.524 138.011 156.627C136.941 159.694 135.55 162.762 133.838 165.829C132.161 168.861 130.039 171.536 127.471 173.855C124.939 176.173 122.085 177.903 118.911 179.044C114.809 180.614 110.546 180.953 106.123 180.061C103.234 179.455 100.595 178.26 98.2051 176.476C95.8153 174.693 93.8178 172.481 92.2128 169.842C88.7173 164.028 87.1479 157.197 87.5045 149.35C87.6115 145.855 88.2179 141.735 89.3236 136.991C90.6077 131.998 92.0701 127.86 93.7108 124.579C95.1019 121.797 96.7248 119.157 98.5796 116.66C100.47 114.164 102.592 111.863 104.946 109.759C107.336 107.618 110.011 105.942 112.972 104.729C115.932 103.517 118.946 102.946 122.014 103.017C122.335 103.017 123.53 103.196 125.598 103.552C131.876 104.979 136.513 110.097 139.509 118.907ZM120.642 128.429C116.387 135.456 109.517 153.907 109.099 161.255C108.992 161.754 109.099 162.165 109.42 162.486C109.777 162.771 110.169 162.86 110.597 162.753C111.025 162.646 111.293 162.325 111.4 161.79C111.996 154.3 118.795 136.027 122.729 129.499C122.943 129.071 122.907 128.661 122.622 128.269C122.372 127.877 122.051 127.698 121.659 127.734C121.267 127.734 120.928 127.966 120.642 128.429Z" fill="white"/>
<path d="M141.096 123.83C142.879 133.282 142.29 143.251 139.33 153.738C138.438 156.805 137.35 159.712 136.066 162.459C134.818 165.205 133.266 167.845 131.412 170.377C129.557 172.91 127.524 175.085 125.312 176.905C123.101 178.724 120.533 180.186 117.608 181.292C114.719 182.362 111.633 182.897 108.352 182.897C103.144 182.897 98.561 181.399 94.6018 178.403C90.6783 175.406 87.7 171.358 85.6669 166.257C83.0631 159.694 82.2962 152.382 83.3662 144.321C84.8643 134.049 87.8961 125.399 92.4617 118.373C95.7075 113.343 99.6667 109.152 104.339 105.8C109.012 102.411 113.952 100.717 119.159 100.717C120.551 100.717 122.173 100.895 124.028 101.252H124.135C125.633 101.537 127.274 102.233 129.057 103.338C135.05 106.905 139.062 113.736 141.096 123.83ZM137.35 118.908C134.354 110.098 129.717 104.979 123.44 103.552L121.728 103.231C120.872 103.089 120.247 103.017 119.855 103.017C116.788 102.946 113.774 103.517 110.813 104.729C107.853 105.942 105.177 107.619 102.788 109.759C100.434 111.863 98.3113 114.164 96.4209 116.661C94.5661 119.157 92.9432 121.797 91.5521 124.579C89.8757 127.932 88.449 131.962 87.2719 136.671C86.0949 141.343 85.4528 145.57 85.3458 149.351C84.9892 157.198 86.5586 164.028 90.0541 169.842C92.0872 173.231 94.7088 175.852 97.919 177.707C101.165 179.562 104.749 180.489 108.673 180.489C112.168 180.489 115.414 179.811 118.41 178.456C121.407 177.065 123.975 175.282 126.115 173.106C128.255 170.894 130.163 168.291 131.84 165.294C133.552 162.263 134.925 159.231 135.959 156.199C136.994 153.167 137.832 150.011 138.474 146.729C140.471 136.528 140.097 127.254 137.35 118.908ZM118.919 127.36C119.169 126.896 119.508 126.664 119.936 126.664C120.328 126.664 120.649 126.86 120.899 127.253C121.184 127.645 121.22 128.037 121.006 128.43C117.072 134.957 109.985 153.952 109.389 161.442C109.282 162.12 108.926 162.459 108.319 162.459C107.963 162.459 107.642 162.298 107.356 161.977C107.071 161.656 106.982 161.3 107.089 160.907C107.506 153.56 114.664 134.386 118.919 127.36Z" fill="black"/>
<path d="M148.105 155.807V127.369H168.554V135.006H158.183V138.854H167.246V145.924H158.183V155.807H148.105ZM169.8 155.807V127.369H191.265V135.025H179.527V138.014H189.644V144.889H179.527V148.385H191.578V155.807H169.8ZM193.058 155.807V127.369H214.523V135.025H202.785V138.014H212.902V144.889H202.785V148.385H214.836V155.807H193.058ZM215.3 147.857V146.49H224.793V147.154C224.793 148.014 225.021 148.652 225.476 149.068C225.945 149.485 226.596 149.693 227.429 149.693C228.198 149.693 228.79 149.544 229.207 149.244C229.636 148.945 229.851 148.521 229.851 147.975C229.851 147.324 229.636 146.835 229.207 146.51C228.79 146.184 227.403 145.702 225.047 145.064C222.065 144.244 219.734 143.144 218.054 141.764C216.375 140.383 215.528 138.43 215.515 135.904C215.515 133.014 216.596 130.794 218.757 129.244C220.919 127.695 223.725 126.92 227.175 126.92C230.639 126.92 233.452 127.636 235.613 129.068C237.787 130.488 238.875 132.493 238.875 135.084V136.256H229.578V135.729C229.578 135.09 229.389 134.589 229.011 134.225C228.634 133.86 228.08 133.678 227.351 133.678C226.609 133.678 226.069 133.808 225.73 134.068C225.392 134.316 225.222 134.654 225.222 135.084C225.222 135.566 225.437 135.911 225.867 136.119C226.31 136.327 227.807 136.764 230.359 137.428C233.093 138.144 235.3 139.212 236.98 140.631C238.66 142.037 239.506 144.127 239.519 146.9C239.519 149.973 238.406 152.304 236.179 153.893C233.953 155.481 231.075 156.275 227.547 156.275C224.044 156.275 221.127 155.579 218.797 154.186C216.466 152.792 215.3 150.683 215.3 147.857ZM240.433 151.236C240.433 149.843 240.896 148.671 241.82 147.721C242.757 146.757 244.092 146.275 245.824 146.275C247.556 146.275 248.884 146.757 249.808 147.721C250.746 148.671 251.215 149.843 251.215 151.236C251.215 152.643 250.746 153.821 249.808 154.771C248.884 155.722 247.556 156.197 245.824 156.197C244.092 156.197 242.757 155.715 241.82 154.752C240.896 153.788 240.433 152.617 240.433 151.236Z" fill="black"/>
<path d="M64.957 228.948V227.581H74.4492V228.245C74.4492 229.104 74.6771 229.742 75.1328 230.159C75.6016 230.575 76.2526 230.784 77.0859 230.784C77.8542 230.784 78.4466 230.634 78.8633 230.334C79.293 230.035 79.5078 229.612 79.5078 229.065C79.5078 228.414 79.293 227.926 78.8633 227.6C78.4466 227.275 77.0599 226.793 74.7031 226.155C71.7213 225.334 69.3906 224.234 67.7109 222.854C66.0312 221.474 65.1849 219.521 65.1719 216.995C65.1719 214.104 66.2526 211.884 68.4141 210.334C70.5755 208.785 73.3815 208.01 76.832 208.01C80.2956 208.01 83.1081 208.726 85.2695 210.159C87.444 211.578 88.5312 213.583 88.5312 216.174V217.346H79.2344V216.819C79.2344 216.181 79.0456 215.68 78.668 215.315C78.2904 214.95 77.737 214.768 77.0078 214.768C76.2656 214.768 75.7253 214.898 75.3867 215.159C75.0482 215.406 74.8789 215.745 74.8789 216.174C74.8789 216.656 75.0937 217.001 75.5234 217.209C75.9661 217.418 77.4635 217.854 80.0156 218.518C82.75 219.234 84.957 220.302 86.6367 221.721C88.3164 223.127 89.1628 225.217 89.1758 227.991C89.1758 231.064 88.0625 233.394 85.8359 234.983C83.6094 236.571 80.7318 237.366 77.2031 237.366C73.7005 237.366 70.7838 236.669 68.4531 235.276C66.1224 233.883 64.957 231.773 64.957 228.948ZM88.9375 216.116V208.459H113.586V216.116H106.379V236.897H96.1836V216.116H88.9375ZM110.008 236.897L119.93 208.42H130.926L140.809 236.897H130.555L125.437 220.627C125.281 220.133 125.164 219.69 125.086 219.299C125.008 218.896 124.949 218.583 124.91 218.362H124.832C124.806 218.583 124.747 218.896 124.656 219.299C124.565 219.69 124.454 220.133 124.324 220.627L119.461 236.897H110.008ZM117.137 232.854L118.582 226.272H131.59L133.133 232.854H117.137ZM140.785 236.897V208.459H154.652C157.855 208.459 160.434 209.319 162.387 211.038C164.353 212.756 165.336 215.139 165.336 218.186C165.336 221.324 164.301 223.805 162.23 225.627C160.16 227.45 157.602 228.362 154.555 228.362H150.863V236.897H140.785ZM150.863 221.897H152.699C153.598 221.897 154.236 221.624 154.613 221.077C155.004 220.517 155.199 219.709 155.199 218.655C155.199 217.626 155.004 216.832 154.613 216.272C154.236 215.699 153.598 215.413 152.699 215.413H150.863V221.897ZM155.531 236.897L150.668 224.631L160.082 222.795L166.566 236.897H155.531ZM164.648 216.116V208.459H189.297V216.116H182.09V236.897H171.895V216.116H164.648ZM12.2812 276.897V248.459H26.1484C29.3516 248.459 31.9297 249.319 33.8828 251.038C35.849 252.756 36.832 255.139 36.832 258.186C36.832 261.324 35.7969 263.805 33.7266 265.627C31.6562 267.45 29.0976 268.362 26.0508 268.362H22.3594V276.897H12.2812ZM22.3594 261.897H24.1953C25.0937 261.897 25.7318 261.624 26.1094 261.077C26.5 260.517 26.6953 259.709 26.6953 258.655C26.6953 257.626 26.5 256.832 26.1094 256.272C25.7318 255.699 25.0937 255.413 24.1953 255.413H22.3594V261.897ZM27.0273 276.897L22.1641 264.631L31.5781 262.795L38.0625 276.897H27.0273ZM38.3906 276.897V248.459H48.5859V276.897H38.3906ZM50.2617 263.499V261.858C50.2617 257.17 51.5117 253.687 54.0117 251.409C56.5117 249.13 59.8516 247.991 64.0312 247.991C67.8073 247.991 70.7435 248.85 72.8398 250.569C74.9362 252.288 75.9453 254.566 75.8672 257.405V258.245H66.2187V257.854C66.2187 256.877 66.0104 256.181 65.5937 255.764C65.1771 255.334 64.5065 255.12 63.582 255.12C62.6966 255.12 61.9935 255.413 61.4726 255.999C60.9648 256.571 60.7109 257.698 60.7109 259.377V266.116C60.7109 267.743 61.0234 268.883 61.6484 269.534C62.2734 270.185 63.0937 270.51 64.1094 270.51C64.5911 270.51 64.9948 270.452 65.3203 270.334C65.6588 270.217 65.9974 270.028 66.3359 269.768V267.249H63.7578V260.647L75.9648 260.608V272.893C75.0143 273.961 73.5625 274.976 71.6094 275.94C69.6693 276.89 67.1432 277.366 64.0312 277.366C59.8516 277.366 56.5117 276.226 54.0117 273.948C51.5117 271.669 50.2617 268.186 50.2617 263.499ZM77.4844 276.897V248.459H87.5625V258.206H92.5234V248.459H102.582V276.897H92.5234V266.233H87.5625V276.897H77.4844ZM103.496 256.116V248.459H128.145V256.116H120.937V276.897H110.742V256.116H103.496ZM138.352 276.897V248.459H148.586L153.312 259.983C153.469 260.4 153.612 260.829 153.742 261.272C153.872 261.715 153.99 262.164 154.094 262.62H154.23C154.204 262.151 154.191 261.721 154.191 261.331C154.204 260.927 154.211 260.491 154.211 260.022V248.459H162.551V276.897H152.375L147.512 265.413C147.355 265.009 147.212 264.599 147.082 264.182C146.965 263.765 146.854 263.329 146.75 262.874H146.613C146.652 263.342 146.672 263.752 146.672 264.104C146.685 264.456 146.691 264.866 146.691 265.334V276.897H138.352ZM164.285 263.499V261.858C164.285 257.105 165.548 253.609 168.074 251.37C170.6 249.117 173.829 247.991 177.762 247.991C181.694 247.991 184.93 249.117 187.469 251.37C190.008 253.609 191.277 257.105 191.277 261.858V263.499C191.277 268.251 190.008 271.754 187.469 274.006C184.93 276.246 181.694 277.366 177.762 277.366C173.829 277.366 170.6 276.246 168.074 274.006C165.548 271.754 164.285 268.251 164.285 263.499ZM174.773 266.174C174.773 267.815 175.027 268.961 175.535 269.612C176.056 270.263 176.798 270.588 177.762 270.588C178.725 270.588 179.467 270.263 179.988 269.612C180.522 268.961 180.789 267.815 180.789 266.174V259.221C180.789 257.594 180.522 256.467 179.988 255.842C179.467 255.204 178.725 254.885 177.762 254.885C176.798 254.885 176.056 255.204 175.535 255.842C175.027 256.467 174.773 257.594 174.773 259.221V266.174ZM197.172 276.897L190.453 248.459H200.18L203.422 263.206C203.474 263.479 203.513 263.726 203.539 263.948C203.578 264.156 203.611 264.417 203.637 264.729H203.754C203.793 264.417 203.826 264.156 203.852 263.948C203.891 263.726 203.936 263.479 203.988 263.206L207.348 248.459H216.918L220.473 263.167C220.525 263.453 220.564 263.7 220.59 263.909C220.629 264.117 220.668 264.39 220.707 264.729H220.805C220.844 264.39 220.876 264.117 220.902 263.909C220.941 263.7 220.987 263.453 221.039 263.167L224.008 248.459H232.758L226.156 276.897H215.688L211.977 262.424C211.911 262.164 211.859 261.91 211.82 261.663C211.781 261.415 211.749 261.135 211.723 260.823H211.625C211.599 261.135 211.566 261.415 211.527 261.663C211.488 261.91 211.436 262.164 211.371 262.424L207.68 276.897H197.172ZM231.055 272.327C231.055 270.933 231.517 269.762 232.441 268.811C233.379 267.847 234.714 267.366 236.445 267.366C238.177 267.366 239.505 267.847 240.43 268.811C241.367 269.762 241.836 270.933 241.836 272.327C241.836 273.733 241.367 274.911 240.43 275.862C239.505 276.812 238.177 277.288 236.445 277.288C234.714 277.288 233.379 276.806 232.441 275.842C231.517 274.879 231.055 273.707 231.055 272.327Z" fill="black"/>
</svg>
