<svg width="193" height="167" viewBox="0 0 193 167" fill="none" xmlns="http://www.w3.org/2000/svg">
<path d="M141.601 166.843C135.496 166.37 129.908 163.532 125.996 158.888C123.717 156.179 122.127 153.083 121.353 149.772L119.848 149.17C117.527 148.181 115.893 146.03 115.463 143.45C111.895 121.606 94.313 109.094 86.9619 104.708C83.1789 102.515 80.5995 98.7737 79.8257 94.4307C79.8257 94.3447 79.7827 94.2587 79.7827 94.1727C79.0949 89.9157 75.9567 86.4757 71.7868 85.3147L42.3395 85.0997C38.2126 99.4187 31.3344 108.707 23.5104 108.707C15.2565 108.707 8.07742 98.3002 4.07947 82.7342C3.9505 82.1752 3.77853 81.5737 3.64957 80.9717C3.39164 79.9397 3.17669 78.9077 2.96175 77.8327C1.54312 70.8667 0.769327 63.0402 0.769328 54.7842C0.769328 45.6683 1.71508 37.0684 3.43463 29.5434C3.82153 27.8664 4.20843 26.2324 4.68131 24.6844C4.7243 24.5124 4.81026 24.2974 4.85325 24.1254C8.93719 10.1074 15.7724 0.905792 23.5104 0.905792C31.2484 0.905793 37.7827 9.72051 41.9526 23.1795L100.976 25.2865C109.66 25.6305 118.086 28.2104 125.394 32.7684L154.497 51.0003C167.394 59.0413 177.238 70.8237 182.913 85.0567C185.793 92.2807 189.705 102.299 191.94 109.05C193.101 112.533 192.671 116.446 190.78 119.8C186.739 126.852 179.474 139.753 176.249 146.934C175.39 148.912 173.713 150.46 171.65 151.148C169.586 151.836 167.394 151.664 165.416 150.589C165.373 150.589 165.373 150.546 165.33 150.546C162.536 160.651 152.563 167.789 141.601 166.843Z" fill="#FDC5F6"/>
<path d="M23.553 108.707C15.2992 108.707 8.12047 98.3002 4.12252 82.7342C3.99355 82.1752 3.8216 81.5737 3.69263 80.9717C3.4347 79.9397 3.21932 78.9077 3.00437 77.8327C1.58574 70.8667 0.811951 63.0402 0.811951 54.7842C0.811952 45.6682 1.7577 37.0684 3.47725 29.5434C3.86415 27.8664 4.25106 26.2324 4.72393 24.6844C4.76692 24.5124 4.85333 24.2974 4.89632 24.1254C8.98026 10.1074 15.8151 0.905791 23.553 0.905791C31.291 0.905792 37.8257 9.72051 41.9957 23.1795C42.1676 23.9105 42.3821 24.6416 42.5971 25.3726L7.26027 24.1254L7.26027 24.1684C7.26027 24.1684 7.13173 24.5124 7.08874 24.6844C6.61586 26.2324 6.22898 27.8664 5.84208 29.5434C4.12252 37.0684 3.17676 45.6682 3.17676 54.7842C3.17676 63.0402 3.95014 70.8667 5.36877 77.8327C5.58371 78.9077 5.79866 79.9397 6.05659 80.9717C6.18556 81.5737 6.3575 82.1752 6.48647 82.7342L42.9414 82.9927C42.7694 83.7237 42.5545 84.4117 42.3826 85.0997C38.2556 99.4187 31.377 108.707 23.553 108.707Z" fill="black"/>
<path d="M165.459 150.588C165.459 150.588 165.416 150.545 165.373 150.545C163.955 149.771 162.708 148.74 161.633 147.536C160.215 146.074 159.097 144.311 158.194 142.204C156.776 139.108 156.217 135.625 156.518 132.056C156.604 130.422 156.861 128.788 157.334 127.154C157.635 125.993 158.022 124.831 158.538 123.713C160.516 119.284 162.579 115.285 164.642 111.802C165.459 110.34 166.319 108.964 167.179 107.674C168.254 106.083 169.285 104.621 170.36 103.288C171.134 102.342 172.466 102.214 173.412 102.945C174.315 103.719 174.487 105.051 173.713 105.997C172.122 107.975 170.532 110.297 168.941 112.92C166.749 116.532 164.599 120.704 162.45 125.477C160.258 130.508 160.129 135.968 162.106 140.483C163.396 143.45 165.201 145.557 167.523 146.804C168.425 147.277 169.371 147.364 170.317 147.063C171.22 146.762 171.951 146.073 172.38 145.17C175.691 137.817 182.999 124.788 187.083 117.65C188.372 115.371 188.673 112.705 187.899 110.383C185.707 103.761 181.838 93.8283 178.958 86.6473C173.627 73.2743 164.385 62.2237 152.262 54.6557L123.158 36.4236C116.495 32.2526 108.8 29.8873 100.89 29.5863L8.85079 26.3613C8.50688 27.5653 8.24895 28.8122 7.94803 30.0162C6.22847 37.4982 5.32613 46.0553 5.32613 54.7843C5.32613 62.8253 6.05694 70.4363 7.47557 77.4023C7.69051 78.4773 7.90546 79.4667 8.16339 80.4557L8.16339 80.6273L72.1303 81.0147C72.3023 81.0147 72.4747 81.0573 72.6466 81.1003C78.5791 82.6053 83.0495 87.4643 84.0812 93.4843C84.0812 93.6993 84.0812 93.8713 84.0812 94.0433C84.5971 96.7523 86.446 99.4183 89.1543 101.009C97.0213 105.696 115.807 119.113 119.719 142.763C119.848 143.494 120.192 144.181 120.708 144.654C120.923 144.912 121.224 145.084 121.525 145.213L123.287 145.945C124.362 146.418 124.878 147.665 124.448 148.74C123.975 149.858 122.729 150.373 121.611 149.9L121.353 149.772L119.848 149.17C117.526 148.181 115.893 146.03 115.463 143.45C111.895 121.606 94.313 109.094 86.9619 104.708C83.1789 102.515 80.5995 98.7737 79.8257 94.4307C79.8257 94.3447 79.7823 94.2583 79.7823 94.1723C79.0945 89.9153 75.9567 86.4757 71.7868 85.3147L42.3391 85.0993L6.44342 84.8843C5.28272 84.8843 4.33739 83.9813 4.25141 82.8203L3.95049 81.4447C3.69256 80.4557 3.43421 79.3807 3.21926 78.2627C1.75764 70.9957 0.984269 63.0833 0.984269 54.7843C0.98427 45.7543 1.92959 36.8533 3.73512 29.0703C4.12202 27.3503 4.50935 25.6737 5.02521 24.0827L7.21765 24.1682L5.15419 23.5662C5.41212 22.6202 6.31489 21.9322 7.30363 21.9752L41.9526 23.1793L100.976 25.2863C109.66 25.6303 118.086 28.2102 125.394 32.7682L154.497 51.0003C167.394 59.0413 177.238 70.8233 182.913 85.0563C185.793 92.2803 189.705 102.299 191.94 109.05C193.101 112.533 192.671 116.446 190.78 119.8C186.739 126.852 179.474 139.752 176.249 146.933C175.39 148.911 173.713 150.459 171.65 151.147C169.586 151.835 167.394 151.663 165.416 150.588L165.459 150.588Z" fill="black"/>
<path d="M99.6873 105.525C99.6873 105.009 99.8592 104.536 100.203 104.106C100.977 103.203 102.353 103.117 103.256 103.891C117.958 116.49 131.886 121.263 138.893 122.983C140.57 123.413 142.332 122.94 143.536 121.736C156.906 108.535 164.988 82.3911 165.074 82.1331C165.417 81.0151 166.621 80.3697 167.739 80.7137C168.856 81.0577 169.501 82.2617 169.157 83.3797C168.813 84.4977 160.689 110.814 146.545 124.789C144.267 127.068 141 127.928 137.861 127.154C130.467 125.348 115.808 120.317 100.418 107.159C99.9022 106.729 99.6873 106.127 99.6873 105.525Z" fill="black"/>
<path d="M91.6038 94.5167C91.6038 91.7647 92.7645 85.1857 102.007 76.5857C105.145 73.6617 109.401 72.3721 113.657 72.9741L117.698 73.5757C118.859 73.7477 119.676 74.8657 119.504 76.0267C119.332 77.1877 118.257 78.0051 117.053 77.8331L113.012 77.2311C110.089 76.8011 107.08 77.7467 104.888 79.7247C96.2471 87.7227 95.7737 93.4417 95.8597 94.6887C106.951 113.222 125.565 107.202 126.339 106.901C139.235 99.5907 146.587 72.9307 146.63 72.6727C146.93 71.5117 148.134 70.8667 149.252 71.1677C150.413 71.4687 151.057 72.6727 150.756 73.7907C150.456 74.9517 142.889 102.472 128.058 110.814C127.457 111.072 104.715 118.554 91.8618 96.4517C91.7328 96.2367 91.6468 96.0217 91.6038 95.8067C91.6038 95.6347 91.4749 95.1621 91.4749 94.4741L91.6038 94.5167Z" fill="black"/>
<path d="M108.114 87.8083C108.114 87.3353 108.242 86.9053 108.543 86.5183C117.614 74.6503 119.118 64.4597 119.161 64.3737C119.333 63.2127 120.408 62.3953 121.569 62.5243C122.729 62.6963 123.589 63.7717 123.418 64.9327C123.375 65.4057 121.784 76.2847 111.982 89.0987C111.251 90.0447 109.919 90.2163 108.973 89.4853C108.414 89.0553 108.114 88.4103 108.114 87.7653L108.114 87.8083Z" fill="black"/>
<path d="M79.9112 64.7607C79.9112 63.7287 80.642 62.7823 81.6738 62.5673C82.8345 62.3523 83.9092 63.0403 84.1241 64.2013C85.0699 70.4793 90.6584 75.1233 97.1497 75.1663C101.062 75.1663 104.415 74.9513 104.458 74.9513C105.662 74.8653 106.65 75.7683 106.779 76.9293C106.908 78.0903 105.962 79.1223 104.802 79.2513C104.673 79.2513 101.234 79.5093 97.1067 79.4663C88.552 79.3803 81.1579 73.1883 79.9112 65.0613C79.9112 64.9323 79.9112 64.8463 79.9112 64.7173L79.9112 64.7607Z" fill="black"/>
<path d="M157.25 101.913C157.25 101.44 157.422 100.924 157.765 100.537C158.539 99.6337 159.872 99.5051 160.818 100.279C165.976 104.665 168.943 110.599 169.071 110.857C169.587 111.932 169.157 113.222 168.083 113.738C167.008 114.254 165.718 113.824 165.203 112.749C165.203 112.706 162.494 107.331 158.023 103.547C157.507 103.117 157.25 102.515 157.25 101.913Z" fill="black"/>
<path d="M141.644 166.843C135.539 166.37 129.951 163.532 126.039 158.888C123.761 156.179 122.17 153.083 121.396 149.772C120.966 148.095 120.751 146.375 120.751 144.655C120.751 144.053 120.794 143.451 120.837 142.849C121.439 135.453 125.695 129.003 132.014 125.434C133.863 124.359 135.926 123.541 138.076 123.025C139.237 122.767 140.397 123.455 140.698 124.616C140.999 125.777 140.225 126.939 139.108 127.197C138.979 127.24 138.893 127.24 138.764 127.283C131.198 129.261 125.738 135.582 125.136 143.193C124.749 147.88 126.211 152.481 129.306 156.093C132.487 159.877 137.001 162.156 141.988 162.586C151.574 163.36 160.172 156.652 161.634 147.536C161.677 147.235 161.72 146.934 161.763 146.633C161.849 145.429 162.923 144.569 164.127 144.698C165.288 144.827 166.147 145.816 166.018 147.063C165.889 148.267 165.675 149.427 165.374 150.545C162.579 160.65 152.606 167.789 141.644 166.843Z" fill="black"/>
<path d="M141.515 124.574C141.515 123.37 142.46 122.424 143.664 122.424C144.223 122.424 144.782 122.423 145.341 122.509C150.714 122.939 155.787 125.305 159.613 129.089C160.473 129.949 160.473 131.281 159.613 132.141C158.753 133.001 157.421 133.001 156.561 132.141C153.466 129.045 149.339 127.153 144.954 126.809C144.524 126.766 144.094 126.724 143.707 126.724C142.504 126.724 141.558 125.778 141.558 124.574L141.515 124.574Z" fill="black"/>
<path d="M152.219 144.698C150.757 146.117 147.318 146.332 146.673 149.041C145.856 151.105 146.673 154.674 144.739 153.083C143.621 151.922 142.03 149.643 139.838 149.729C137.946 149.686 135.797 150.718 135.367 150.073C134.766 149.213 137.774 146.417 137.172 143.966C137.001 142.375 135.539 140.828 135.281 139.366C135.281 138.678 136.485 138.893 137.904 139.237C139.365 139.581 140.913 139.581 142.116 138.678C142.761 138.162 143.406 137.517 143.922 136.915C145.856 134.55 146.029 136.098 146.244 138.893C146.416 140.226 146.974 141.43 148.006 142.204C149.124 143.193 151.23 143.451 152.133 144.483L152.133 144.698L152.219 144.698Z" fill="black"/>
<path d="M161.479 147.438C160.06 145.976 158.942 144.214 158.039 142.107C156.62 139.011 156.061 135.528 156.362 131.959C153.266 128.906 149.18 127.014 144.751 126.67C144.321 126.627 143.891 126.584 143.504 126.584C141.956 127.272 140.279 127.487 138.602 127.186C131.034 129.164 125.573 135.485 124.971 143.096C124.584 147.783 126.046 152.384 129.142 155.996C132.324 159.78 136.839 162.058 141.87 162.488C151.416 163.262 160.017 156.554 161.479 147.438Z" fill="#FFD25C"/>
<path d="M42.7559 82.8955L6.29186 82.6375C6.16286 82.0785 5.99085 81.4765 5.86185 80.8745C5.60385 79.8425 5.38885 78.8109 5.17385 77.7359C3.75485 70.7699 2.98086 62.9435 2.98086 54.6875C2.98086 45.5715 3.92686 36.9717 5.64686 29.4467C6.03386 27.7697 6.42086 26.1357 6.89386 24.5877C6.93686 24.4157 7.02286 24.2007 7.06586 24.0287L42.4119 25.2757C38.3699 10.5697 31.3179 0.808685 23.3629 0.808684C15.4079 0.808684 8.78587 10.0107 4.70087 24.0287C4.65787 24.2007 4.57186 24.4157 4.52886 24.5877C4.05586 26.1357 3.66886 27.7697 3.28186 29.4467C1.56186 36.9717 0.615864 45.5715 0.615863 54.6875C0.615863 62.9435 1.38986 70.7699 2.80885 77.7359C3.02385 78.8109 3.23885 79.8425 3.49685 80.8745C3.62585 81.4765 3.79786 82.0785 3.92686 82.6375C7.92586 98.2035 15.1069 108.61 23.3629 108.61C31.6189 108.61 38.7569 98.3755 42.7559 82.8955Z" fill="black"/>
<path d="M165.349 150.492C165.349 150.492 165.263 150.449 165.22 150.406C164.36 149.933 163.586 149.417 162.855 148.729C162.339 148.385 161.866 147.911 161.479 147.438C160.06 145.976 158.942 144.214 158.039 142.107C156.62 139.011 156.061 135.527 156.362 131.958C156.362 131.399 156.405 130.798 156.534 130.239C156.663 129.164 156.878 128.089 157.179 127.057C157.48 125.896 157.867 124.734 158.383 123.616C160.361 119.144 162.425 115.146 164.489 111.663C165.349 110.244 166.166 108.868 167.069 107.621C168.101 106.03 169.176 104.524 170.251 103.191C170.982 102.245 172.315 102.117 173.261 102.848C174.164 103.622 174.336 104.955 173.605 105.901C172.014 107.879 170.38 110.2 168.789 112.823C166.596 116.435 164.446 120.606 162.296 125.379C160.103 130.41 159.974 135.871 161.952 140.386C162.855 142.407 163.973 144.041 165.306 145.245C165.951 145.847 166.639 146.321 167.37 146.708C168.273 147.181 169.262 147.267 170.165 146.966C171.068 146.665 171.799 145.976 172.229 145.073C175.54 137.72 182.85 124.691 186.935 117.554C188.225 115.275 188.526 112.608 187.752 110.286C185.559 103.664 181.689 93.7315 178.808 86.5505C173.476 73.1775 164.231 62.1265 152.105 54.5585L122.994 36.3267C116.329 32.1557 108.632 29.7907 100.72 29.4897L8.65672 26.2647C8.35572 27.4687 8.05473 28.7157 7.75373 29.9197C6.07673 37.4017 5.17372 45.9585 5.17372 54.6875C5.17371 62.7285 5.86171 70.2965 7.32371 77.3055C7.49571 78.3805 7.71072 79.3695 7.96872 80.3585L7.96872 80.5305L71.9527 80.9175C72.1247 80.9175 72.2967 80.9175 72.4687 81.0035C78.4027 82.5085 82.9177 87.3675 83.9067 93.3875C83.9067 93.6025 83.9927 93.7745 83.9927 93.9465C84.4657 96.6555 86.3147 99.3215 89.0237 100.913C96.9357 105.6 115.727 119.016 119.597 142.666C119.726 143.397 120.07 144.084 120.586 144.557C120.844 144.815 121.102 144.988 121.446 145.117L123.166 145.847C123.682 146.062 124.112 146.492 124.327 147.008C124.499 147.524 124.542 148.084 124.327 148.643C124.284 148.643 124.284 148.771 124.241 148.814C123.725 149.803 122.564 150.234 121.489 149.804L121.231 149.674L119.726 149.072C117.404 148.083 115.77 145.934 115.34 143.354C111.771 121.51 94.2267 108.996 86.8307 104.61C83.0467 102.417 80.4667 98.6335 79.6927 94.3335C79.6927 94.2475 79.6927 94.1615 79.6497 94.0755C78.9617 89.8185 75.8227 86.3785 71.6517 85.2175L42.1967 85.0025L6.29172 84.7875C5.13072 84.7875 4.18472 83.8845 4.14172 82.7235L3.79772 81.3475C3.53972 80.3585 3.32472 79.2835 3.06672 78.1655C1.60472 70.8985 0.873714 62.9865 0.873715 54.6875C0.873715 45.6575 1.77672 36.7567 3.58272 28.9737C3.96972 27.2537 4.35672 25.5767 4.87272 23.9857L7.06573 24.0716L5.00173 23.4697C5.25973 22.5237 6.16273 21.8356 7.15173 21.8786L41.8527 23.1256L100.849 25.1897C109.535 25.5337 117.963 28.1136 125.273 32.6716L154.384 50.9035C167.284 58.9445 177.131 70.7265 182.807 84.9595C185.688 92.1835 189.644 102.203 191.837 108.954C192.998 112.437 192.568 116.35 190.676 119.704C186.634 126.755 179.367 139.655 176.142 146.836C175.282 148.814 173.605 150.362 171.541 151.05C169.477 151.738 167.284 151.567 165.349 150.492Z" fill="black"/>
<path d="M138.602 127.186C138.301 127.186 138 127.186 137.699 127.057C136.71 126.799 135.549 126.498 134.302 126.111C133.528 125.896 132.754 125.638 131.894 125.337C123.853 122.628 112.286 117.339 100.246 107.019C99.8592 106.675 99.6012 106.159 99.5582 105.643C99.5582 105.557 99.5582 105.471 99.5582 105.385C99.5582 104.912 99.7302 104.396 100.074 104.009C100.848 103.106 102.181 102.977 103.084 103.751C106.825 106.933 110.523 109.642 114.049 111.878C124.455 118.586 133.528 121.553 138.774 122.843C140.451 123.273 142.171 122.8 143.418 121.596C156.791 108.395 164.875 82.2939 164.961 82.0359C165.305 80.8749 166.509 80.2299 167.627 80.5739C168.745 80.9179 169.39 82.1215 169.046 83.2825C168.874 83.8845 166.38 91.8825 161.908 101.3C161.263 102.633 160.575 104.009 159.887 105.385C156.705 111.491 152.792 117.769 148.148 122.843C147.632 123.402 147.116 124.004 146.557 124.52L146.428 124.649C145.568 125.509 144.579 126.154 143.547 126.584C141.999 127.272 140.322 127.487 138.645 127.186L138.602 127.186Z" fill="black"/>
<path d="M91.4318 94.3769C91.4318 91.6249 92.5932 85.0459 101.838 76.4459C104.977 73.5219 109.234 72.2319 113.491 72.8339L117.533 73.4359C118.694 73.6079 119.511 74.7255 119.339 75.8865C119.167 77.0475 118.092 77.8649 116.888 77.6929L112.846 77.0909C109.922 76.6609 106.912 77.6069 104.719 79.5849C96.0758 87.5829 95.6032 93.3019 95.6892 94.5489C106.783 113.082 125.402 107.062 126.176 106.761C139.076 99.4509 146.429 72.7905 146.472 72.5325C146.773 71.3715 147.977 70.7269 149.095 71.0279C150.256 71.3289 150.901 72.5329 150.6 73.6509C150.299 74.8119 142.731 102.332 127.896 110.674C127.294 110.932 104.547 118.414 91.6898 96.3115C91.5608 96.0965 91.4748 95.8819 91.4318 95.6669C91.4318 95.4949 91.3028 95.0219 91.3028 94.3339L91.4318 94.3769Z" fill="black"/>
<path d="M107.943 87.7115C107.943 87.2385 108.072 86.8085 108.373 86.4215C117.446 74.5535 118.951 64.3629 118.994 64.2769C119.166 63.1159 120.241 62.2989 121.402 62.4279C122.563 62.5999 123.423 63.6749 123.251 64.8359C123.208 65.3089 121.617 76.1879 111.813 89.0019C111.082 89.9479 109.749 90.1195 108.803 89.3885C108.244 88.9585 107.943 88.3139 107.943 87.6689L107.943 87.7115Z" fill="black"/>
<path d="M79.7343 64.6639C79.7343 63.6319 80.4653 62.6855 81.4973 62.4705C82.6583 62.2555 83.7333 62.9439 83.9483 64.1049C84.8943 70.3829 90.4843 75.0269 96.9773 75.0699C100.89 75.0699 104.244 74.8549 104.287 74.8549C105.491 74.7689 106.48 75.6715 106.609 76.8325C106.738 77.9935 105.792 79.0259 104.631 79.1549C104.502 79.1549 101.062 79.4129 96.9343 79.3699C88.3773 79.2839 80.9813 73.0919 79.7343 64.9649C79.7343 64.8359 79.7343 64.7495 79.7343 64.6205L79.7343 64.6639Z" fill="black"/>
<path d="M157.092 101.773C157.092 101.3 157.264 100.784 157.608 100.397C158.382 99.4935 159.715 99.3645 160.661 100.139C165.821 104.525 168.788 110.459 168.917 110.717C169.433 111.792 169.003 113.082 167.928 113.598C166.853 114.114 165.563 113.684 165.047 112.609C165.047 112.566 162.338 107.191 157.866 103.407C157.35 102.977 157.092 102.375 157.092 101.773Z" fill="black"/>
<path d="M141.526 166.746C135.377 166.273 129.83 163.435 125.874 158.791C123.595 156.082 122.004 152.986 121.23 149.675C120.8 147.998 120.585 146.278 120.585 144.558C120.585 143.956 120.628 143.354 120.671 142.752C121.273 135.356 125.573 128.906 131.894 125.337C133.743 124.262 135.807 123.445 137.957 122.929C139.075 122.628 140.236 123.359 140.537 124.52C140.537 124.606 140.58 124.649 140.58 124.735C140.752 125.81 140.021 126.842 138.946 127.1C138.817 127.143 138.731 127.143 138.602 127.186C131.034 129.164 125.573 135.485 124.971 143.096C124.584 147.783 126.046 152.384 129.142 155.996C132.324 159.78 136.839 162.059 141.87 162.489C151.416 163.263 160.016 156.555 161.478 147.439L161.607 146.536C161.607 146.149 161.779 145.848 161.994 145.547C162.381 144.902 163.155 144.515 163.972 144.601C164.531 144.687 164.961 144.902 165.305 145.246C165.735 145.676 165.95 146.278 165.864 146.966C165.735 148.17 165.52 149.288 165.219 150.406C162.424 160.554 152.491 167.692 141.526 166.746Z" fill="black"/>
<path d="M157.91 132.647C157.351 132.647 156.792 132.432 156.405 132.002L156.405 131.959C153.266 128.906 149.181 127.014 144.752 126.67C144.322 126.627 143.892 126.584 143.505 126.584C142.387 126.584 141.441 125.724 141.355 124.563L141.355 124.434C141.355 123.273 142.344 122.284 143.505 122.284C144.064 122.284 144.623 122.327 145.182 122.37C146.171 122.456 147.16 122.585 148.106 122.843C151.374 123.531 154.513 124.95 157.179 127.057C157.996 127.573 158.727 128.218 159.458 128.949C160.275 129.809 160.275 131.185 159.458 132.002C159.028 132.432 158.469 132.647 157.91 132.647Z" fill="black"/>
<path d="M144.536 152.986C143.461 151.825 141.827 149.546 139.677 149.632C137.785 149.589 135.635 150.664 135.205 149.976C134.603 149.116 137.613 146.321 137.054 143.87C136.839 142.236 135.377 140.731 135.119 139.226C135.162 138.538 136.323 138.796 137.785 139.14C139.204 139.484 140.795 139.441 141.999 138.581C142.644 138.065 143.289 137.377 143.805 136.775C145.74 134.41 145.912 135.958 146.17 138.796C146.342 140.086 146.901 141.29 147.933 142.064C149.008 143.053 151.115 143.311 152.018 144.386L152.018 144.601C150.556 146.02 147.116 146.235 146.471 148.944C145.654 150.965 146.514 154.534 144.536 152.986Z" fill="black"/>
</svg>
