<svg width="822" height="119" viewBox="0 0 822 119" fill="none" xmlns="http://www.w3.org/2000/svg">
<path d="M3.49445 50.249V4.74902H16.6194V50.249H3.49445ZM22.2757 50.249V4.74902H35.3382L45.5882 27.0928C45.859 27.7594 46.109 28.4678 46.3382 29.2178C46.5882 29.9678 46.8069 30.6865 46.9944 31.374H47.1819C47.1403 30.6449 47.1194 29.9261 47.1194 29.2178C47.1403 28.4886 47.1507 27.7594 47.1507 27.0303V4.74902H58.0569V50.249H45.2444L34.6819 27.749C34.4111 27.124 34.1507 26.4678 33.9007 25.7803C33.6715 25.0719 33.4736 24.374 33.3069 23.6865H33.0882C33.1507 24.4157 33.1819 25.0928 33.1819 25.7178C33.2028 26.3428 33.2132 27.0094 33.2132 27.7178V50.249H22.2757ZM62.0257 37.9053V35.5928H73.9944V36.9053C73.9736 38.7594 74.4632 40.1449 75.4632 41.0615C76.484 41.9574 77.8903 42.4053 79.6819 42.4053C81.3903 42.4053 82.7028 42.0199 83.6194 41.249C84.5569 40.4574 85.0257 39.3844 85.0257 38.0303C85.0257 36.7803 84.5153 35.7699 83.4944 34.999C82.4944 34.2282 80.2236 33.3011 76.6819 32.2178C71.9111 30.7386 68.359 28.8844 66.0257 26.6553C63.6924 24.4261 62.5257 21.4261 62.5257 17.6553C62.5257 13.4053 64.0569 10.0824 67.1194 7.68652C70.2028 5.29069 74.2653 4.09277 79.3069 4.09277C84.3486 4.09277 88.4319 5.18652 91.5569 7.37402C94.6819 9.56152 96.2444 12.6553 96.2444 16.6553V18.5615H84.4944V17.5928C84.4944 16.1136 84.0674 14.9574 83.2132 14.124C82.3799 13.2907 81.1611 12.874 79.5569 12.874C77.8694 12.874 76.6507 13.2178 75.9007 13.9053C75.1507 14.5928 74.7757 15.499 74.7757 16.624C74.7757 17.7282 75.2965 18.6136 76.3382 19.2803C77.3799 19.9261 79.8069 20.8011 83.6194 21.9053C88.0986 23.1761 91.484 24.9574 93.7757 27.249C96.0674 29.5407 97.2236 32.7178 97.2444 36.7803C97.2444 41.2594 95.6299 44.7386 92.4007 47.2178C89.1924 49.6969 85.0049 50.9365 79.8382 50.9365C74.6924 50.9365 70.4319 49.8428 67.0569 47.6553C63.7028 45.4469 62.0257 42.1969 62.0257 37.9053ZM98.8382 14.8428V4.74902H135.776V14.8428H123.869V50.249H110.776V14.8428H98.8382ZM132.119 50.249L147.182 4.71777H161.369L176.182 50.249H163.276L154.713 21.4365C154.463 20.624 154.265 19.8949 154.119 19.249C153.974 18.6032 153.849 18.0824 153.744 17.6865H153.651C153.547 18.0824 153.411 18.6032 153.244 19.249C153.099 19.874 152.922 20.5928 152.713 21.4053L144.494 50.249H132.119ZM141.526 42.1865L143.338 33.6865H164.432L166.369 42.1865H141.526ZM178.338 50.249V4.74902H191.401L201.651 27.0928C201.922 27.7594 202.172 28.4678 202.401 29.2178C202.651 29.9678 202.869 30.6865 203.057 31.374H203.244C203.203 30.6449 203.182 29.9261 203.182 29.2178C203.203 28.4886 203.213 27.7594 203.213 27.0303V4.74902H214.119V50.249H201.307L190.744 27.749C190.474 27.124 190.213 26.4678 189.963 25.7803C189.734 25.0719 189.536 24.374 189.369 23.6865H189.151C189.213 24.4157 189.244 25.0928 189.244 25.7178C189.265 26.3428 189.276 27.0094 189.276 27.7178V50.249H178.338ZM217.151 14.8428V4.74902H254.088V14.8428H242.182V50.249H229.088V14.8428H217.151ZM257.276 50.249V4.74902H270.244V40.1553H287.276V50.249H257.276ZM298.057 50.249V33.1553L283.463 4.74902H297.494L304.244 18.249C304.474 18.7074 304.672 19.1344 304.838 19.5303C305.026 19.9261 305.192 20.3532 305.338 20.8115H305.494C305.64 20.3532 305.797 19.9261 305.963 19.5303C306.151 19.1344 306.359 18.7074 306.588 18.249L313.244 4.74902H325.619L311.182 32.999V50.249H298.057ZM342.026 37.9053V35.5928H353.994V36.9053C353.974 38.7594 354.463 40.1449 355.463 41.0615C356.484 41.9574 357.89 42.4053 359.682 42.4053C361.39 42.4053 362.703 42.0199 363.619 41.249C364.557 40.4574 365.026 39.3844 365.026 38.0303C365.026 36.7803 364.515 35.7699 363.494 34.999C362.494 34.2282 360.224 33.3011 356.682 32.2178C351.911 30.7386 348.359 28.8844 346.026 26.6553C343.692 24.4261 342.526 21.4261 342.526 17.6553C342.526 13.4053 344.057 10.0824 347.119 7.68652C350.203 5.29069 354.265 4.09277 359.307 4.09277C364.349 4.09277 368.432 5.18652 371.557 7.37402C374.682 9.56152 376.244 12.6553 376.244 16.6553V18.5615H364.494V17.5928C364.494 16.1136 364.067 14.9574 363.213 14.124C362.38 13.2907 361.161 12.874 359.557 12.874C357.869 12.874 356.651 13.2178 355.901 13.9053C355.151 14.5928 354.776 15.499 354.776 16.624C354.776 17.7282 355.297 18.6136 356.338 19.2803C357.38 19.9261 359.807 20.8011 363.619 21.9053C368.099 23.1761 371.484 24.9574 373.776 27.249C376.067 29.5407 377.224 32.7178 377.244 36.7803C377.244 41.2594 375.63 44.7386 372.401 47.2178C369.192 49.6969 365.005 50.9365 359.838 50.9365C354.692 50.9365 350.432 49.8428 347.057 47.6553C343.703 45.4469 342.026 42.1969 342.026 37.9053ZM381.338 50.249V4.74902H412.776V14.8428H393.807V22.749H410.088V31.6865H393.807V40.499H413.244V50.249H381.338ZM416.776 50.249V4.74902H429.838L440.088 27.0928C440.359 27.7594 440.609 28.4678 440.838 29.2178C441.088 29.9678 441.307 30.6865 441.494 31.374H441.682C441.64 30.6449 441.619 29.9261 441.619 29.2178C441.64 28.4886 441.651 27.7594 441.651 27.0303V4.74902H452.557V50.249H439.744L429.182 27.749C428.911 27.124 428.651 26.4678 428.401 25.7803C428.172 25.0719 427.974 24.374 427.807 23.6865H427.588C427.651 24.4157 427.682 25.0928 427.682 25.7178C427.703 26.3428 427.713 27.0094 427.713 27.7178V50.249H416.776ZM458.151 50.249V4.74902H475.588C481.588 4.74902 486.328 6.62402 489.807 10.374C493.307 14.124 495.057 19.3844 495.057 26.1553V28.6865C495.057 35.4574 493.307 40.749 489.807 44.5615C486.307 48.3532 481.567 50.249 475.588 50.249H458.151ZM470.776 41.374H474.369C476.744 41.374 478.599 40.4782 479.932 38.6865C481.286 36.8949 481.963 34.124 481.963 30.374V24.6865C481.963 20.8949 481.286 18.1657 479.932 16.499C478.578 14.8115 476.724 13.9574 474.369 13.9365H470.776V41.374ZM514.494 38.374C514.494 35.0615 515.484 32.3428 517.463 30.2178C519.442 28.0719 522.161 26.0199 525.619 24.0615L531.088 20.9678C532.922 19.9261 534.192 18.8532 534.901 17.749C535.63 16.624 535.994 15.4469 535.994 14.2178C535.994 13.0303 535.776 12.0928 535.338 11.4053C534.901 10.7178 534.203 10.374 533.244 10.374C532.307 10.374 531.588 10.749 531.088 11.499C530.588 12.2282 530.338 13.1969 530.338 14.4053C530.338 15.8428 530.817 17.2074 531.776 18.499C532.755 19.7907 534.224 21.6657 536.182 24.124L557.276 50.249H543.776L525.432 27.7803C522.994 24.8428 521.255 22.4678 520.213 20.6553C519.192 18.8219 518.682 16.8532 518.682 14.749C518.682 11.3532 519.932 8.68652 522.432 6.74902C524.953 4.79069 528.609 3.81152 533.401 3.81152C538.13 3.81152 541.651 4.72819 543.963 6.56152C546.297 8.39486 547.463 11.0094 547.463 14.4053C547.463 17.1136 546.661 19.4053 545.057 21.2803C543.453 23.1553 541.234 24.8949 538.401 26.499L533.619 29.2178C530.453 31.0303 528.432 32.4782 527.557 33.5615C526.682 34.624 526.244 35.874 526.244 37.3115C526.244 39.0199 526.734 40.3428 527.713 41.2803C528.713 42.1969 530.005 42.6553 531.588 42.6553C534.276 42.6553 537.047 41.4157 539.901 38.9365C542.776 36.4365 544.422 32.7074 544.838 27.749H556.244C556.244 33.874 553.724 39.2594 548.682 43.9053C543.661 48.5511 537.901 50.874 531.401 50.874C525.692 50.874 521.442 49.7282 518.651 47.4365C515.88 45.124 514.494 42.1032 514.494 38.374ZM576.963 50.249V4.74902H596.963C601.63 4.74902 605.349 6.09277 608.119 8.78027C610.911 11.4469 612.307 15.0303 612.307 19.5303C612.307 24.1344 610.838 27.8532 607.901 30.6865C604.963 33.5199 601.265 34.9365 596.807 34.9365H589.932V50.249H576.963ZM589.932 26.5615H594.151C596.026 26.5615 597.349 25.9782 598.119 24.8115C598.89 23.6449 599.276 22.1136 599.276 20.2178C599.276 18.3011 598.89 16.7594 598.119 15.5928C597.349 14.4261 596.026 13.8324 594.151 13.8115H589.932V26.5615ZM600.151 50.249L592.026 30.5303L603.682 27.5928L614.244 50.249H600.151ZM616.713 50.249V4.74902H648.151V14.8428H629.182V22.749H645.463V31.6865H629.182V40.499H648.619V50.249H616.713ZM651.088 28.7803V26.2178C651.088 18.4261 652.911 12.7907 656.557 9.31152C660.224 5.81152 665.015 4.06152 670.932 4.06152C676.536 4.06152 680.942 5.38444 684.151 8.03027C687.359 10.6553 688.963 14.5928 688.963 19.8428V22.7178H676.619V18.749C676.619 16.874 676.161 15.4469 675.244 14.4678C674.328 13.4886 672.953 12.999 671.119 12.999C669.14 12.999 667.599 13.749 666.494 15.249C665.39 16.749 664.838 19.2074 664.838 22.624V32.4053C664.838 35.8011 665.39 38.2803 666.494 39.8428C667.619 41.3844 669.192 42.1553 671.213 42.1553C673.005 42.1553 674.349 41.6136 675.244 40.5303C676.14 39.4469 676.599 37.7594 676.619 35.4678V32.4365H688.963L688.932 35.874C688.911 40.5615 687.307 44.249 684.119 46.9365C680.953 49.6032 676.547 50.9365 670.901 50.9365C664.817 50.9365 659.994 49.1553 656.432 45.5928C652.869 42.0303 651.088 36.4261 651.088 28.7803ZM692.901 50.249V4.74902H724.338V14.8428H705.369V22.749H721.651V31.6865H705.369V40.499H724.807V50.249H692.901ZM728.432 50.249V4.74902H741.557V50.249H728.432ZM743.432 4.74902H756.776L764.807 31.4365C764.953 31.8324 765.067 32.249 765.151 32.6865C765.255 33.1032 765.369 33.5407 765.494 33.999H765.651C765.755 33.5407 765.859 33.0928 765.963 32.6553C766.088 32.1969 766.203 31.7907 766.307 31.4365L774.338 4.74902H786.901L772.369 50.4678H757.963L743.432 4.74902ZM788.713 50.249V4.74902H820.151V14.8428H801.182V22.749H817.463V31.6865H801.182V40.499H820.619V50.249H788.713Z" fill="black"/>
<path d="M43.3304 111.249V98.6162L32.1976 77.124H42.3929L47.6898 87.6709C47.8773 88.0303 48.0335 88.374 48.1585 88.7021C48.2991 89.0146 48.4319 89.3506 48.5569 89.71H48.6741C48.7991 89.3506 48.9241 89.0146 49.0491 88.7021C49.1898 88.374 49.3538 88.0303 49.5413 87.6709L54.8148 77.124H63.7913L52.7991 98.4053V111.249H43.3304ZM63.0882 95.1475V93.2256C63.0882 87.5225 64.4944 83.3193 67.3069 80.6162C70.1351 77.9131 73.7444 76.5615 78.1351 76.5615C82.5569 76.5615 86.1741 77.9131 88.9866 80.6162C91.8148 83.3193 93.2288 87.5225 93.2288 93.2256V95.1475C93.2288 100.851 91.8148 105.054 88.9866 107.757C86.1741 110.46 82.5569 111.812 78.1351 111.812C73.7444 111.812 70.1351 110.46 67.3069 107.757C64.4944 105.054 63.0882 100.851 63.0882 95.1475ZM72.8382 97.4912C72.8382 100.272 73.3069 102.272 74.2444 103.491C75.1819 104.71 76.4788 105.319 78.1351 105.319C79.8069 105.319 81.1116 104.71 82.0491 103.491C83.0023 102.272 83.4788 100.272 83.4788 97.4912V90.9287C83.4788 88.1631 83.0023 86.1787 82.0491 84.9756C81.1116 83.7725 79.8069 83.1709 78.1351 83.1709C76.4788 83.1709 75.1819 83.7725 74.2444 84.9756C73.3069 86.1787 72.8382 88.1631 72.8382 90.9287V97.4912ZM96.9788 98.4053V77.124H106.354V99.5771C106.354 101.718 106.721 103.21 107.455 104.054C108.19 104.882 109.205 105.296 110.502 105.296C111.799 105.296 112.815 104.882 113.549 104.054C114.299 103.21 114.674 101.718 114.674 99.5771V77.124H123.955V98.4053C123.955 103.015 122.737 106.405 120.299 108.577C117.877 110.733 114.635 111.812 110.573 111.812C106.416 111.812 103.112 110.733 100.659 108.577C98.2054 106.405 96.9788 103.015 96.9788 98.4053ZM128.573 111.249V77.124H143.127C146.752 77.124 149.627 78.124 151.752 80.124C153.893 82.1084 154.963 84.7959 154.963 88.1865C154.963 91.6709 153.846 94.46 151.612 96.5537C149.377 98.6475 146.518 99.6943 143.034 99.6943H137.948V111.249H128.573ZM137.948 93.4834H141.393C142.893 93.4834 143.948 93.0459 144.557 92.1709C145.182 91.2803 145.502 90.0928 145.518 88.6084C145.518 87.1396 145.205 85.9678 144.58 85.0928C143.955 84.2021 142.893 83.7568 141.393 83.7568H137.948V93.4834ZM146.151 111.249L139.682 96.2725L148.424 94.4678L156.44 111.249H146.151ZM170.666 111.249V77.124H183.487L189.534 95.4756C189.705 96.0225 189.854 96.5459 189.979 97.0459C190.104 97.5303 190.221 98.0693 190.33 98.6631H190.424C190.534 98.0693 190.651 97.5303 190.776 97.0459C190.916 96.5459 191.065 96.0225 191.221 95.4756L197.315 77.124H210.182V111.249H200.924V92.3818C200.924 91.8506 200.932 91.2646 200.948 90.624C200.963 89.9678 200.994 89.374 201.041 88.8428H200.877C200.799 89.3896 200.682 89.9834 200.526 90.624C200.385 91.2646 200.237 91.8506 200.08 92.3818L194.104 111.249H185.924L179.948 92.3818C179.791 91.8506 179.635 91.2412 179.479 90.5537C179.323 89.8662 179.213 89.2959 179.151 88.8428H179.01C179.041 89.2959 179.065 89.8662 179.08 90.5537C179.112 91.2412 179.127 91.8506 179.127 92.3818V111.249H170.666ZM214.073 95.1475V93.2256C214.073 87.5225 215.479 83.3193 218.291 80.6162C221.119 77.9131 224.729 76.5615 229.119 76.5615C233.541 76.5615 237.159 77.9131 239.971 80.6162C242.799 83.3193 244.213 87.5225 244.213 93.2256V95.1475C244.213 100.851 242.799 105.054 239.971 107.757C237.159 110.46 233.541 111.812 229.119 111.812C224.729 111.812 221.119 110.46 218.291 107.757C215.479 105.054 214.073 100.851 214.073 95.1475ZM223.823 97.4912C223.823 100.272 224.291 102.272 225.229 103.491C226.166 104.71 227.463 105.319 229.119 105.319C230.791 105.319 232.096 104.71 233.034 103.491C233.987 102.272 234.463 100.272 234.463 97.4912V90.9287C234.463 88.1631 233.987 86.1787 233.034 84.9756C232.096 83.7725 230.791 83.1709 229.119 83.1709C227.463 83.1709 226.166 83.7725 225.229 84.9756C224.291 86.1787 223.823 88.1631 223.823 90.9287V97.4912ZM248.151 111.249V77.124H257.69L266.08 94.585C266.299 95.0693 266.494 95.5771 266.666 96.1084C266.854 96.6396 267.018 97.1631 267.159 97.6787H267.323C267.291 97.1475 267.276 96.624 267.276 96.1084C267.276 95.5771 267.276 95.0459 267.276 94.5146V77.124H275.174V111.249H265.729L257.198 93.7646C256.979 93.2803 256.776 92.7881 256.588 92.2881C256.416 91.7725 256.26 91.2646 256.119 90.7646H255.979C256.01 91.2959 256.026 91.8037 256.026 92.2881C256.041 92.7568 256.049 93.2646 256.049 93.8115V111.249H248.151ZM279.979 111.249V77.124H303.51V84.3896H289.049V90.6475H301.471V97.21H289.049V104.194H303.862V111.249H279.979ZM315.065 111.249V98.6162L303.932 77.124H314.127L319.424 87.6709C319.612 88.0303 319.768 88.374 319.893 88.7021C320.034 89.0146 320.166 89.3506 320.291 89.71H320.409C320.534 89.3506 320.659 89.0146 320.784 88.7021C320.924 88.374 321.088 88.0303 321.276 87.6709L326.549 77.124H335.526L324.534 98.4053V111.249H315.065ZM346.33 111.249L357.955 77.0771H368.221L379.752 111.249H370.284L363.393 89.2412C363.221 88.6475 363.08 88.1162 362.971 87.6475C362.862 87.1631 362.768 86.749 362.69 86.4053H362.573C362.51 86.749 362.416 87.1631 362.291 87.6475C362.182 88.1162 362.041 88.6475 361.869 89.2412L355.237 111.249H346.33ZM353.549 104.991L355.002 98.71H370.612L372.135 104.991H353.549ZM379.729 95.1475V93.2256C379.729 87.4443 381.112 83.2256 383.877 80.5693C386.643 77.9131 390.268 76.585 394.752 76.585C399.002 76.585 402.346 77.6006 404.784 79.6318C407.221 81.6631 408.44 84.6162 408.44 88.4912V90.3428H399.416V87.8115C399.416 86.2959 399.034 85.1475 398.268 84.3662C397.518 83.5693 396.385 83.1709 394.869 83.1709C393.244 83.1709 391.963 83.7646 391.026 84.9521C390.104 86.124 389.643 88.085 389.643 90.835V97.5381C389.643 100.226 390.104 102.194 391.026 103.444C391.948 104.694 393.252 105.319 394.94 105.319C396.424 105.319 397.534 104.89 398.268 104.03C399.002 103.155 399.385 101.843 399.416 100.093V98.124H408.44V100.327C408.409 103.858 407.182 106.655 404.76 108.718C402.354 110.765 399.018 111.788 394.752 111.788C390.159 111.788 386.502 110.444 383.784 107.757C381.08 105.054 379.729 100.851 379.729 95.1475ZM411.744 111.249V77.124H426.299C429.924 77.124 432.799 78.124 434.924 80.124C437.065 82.1084 438.135 84.7959 438.135 88.1865C438.135 91.6709 437.018 94.46 434.784 96.5537C432.549 98.6475 429.69 99.6943 426.205 99.6943H421.119V111.249H411.744ZM421.119 93.4834H424.565C426.065 93.4834 427.119 93.0459 427.729 92.1709C428.354 91.2803 428.674 90.0928 428.69 88.6084C428.69 87.1396 428.377 85.9678 427.752 85.0928C427.127 84.2021 426.065 83.7568 424.565 83.7568H421.119V93.4834ZM429.323 111.249L422.854 96.2725L431.596 94.4678L439.612 111.249H429.323ZM440.854 95.1475V93.2256C440.854 87.5225 442.26 83.3193 445.073 80.6162C447.901 77.9131 451.51 76.5615 455.901 76.5615C460.323 76.5615 463.94 77.9131 466.752 80.6162C469.58 83.3193 470.994 87.5225 470.994 93.2256V95.1475C470.994 100.851 469.58 105.054 466.752 107.757C463.94 110.46 460.323 111.812 455.901 111.812C451.51 111.812 447.901 110.46 445.073 107.757C442.26 105.054 440.854 100.851 440.854 95.1475ZM450.604 97.4912C450.604 100.272 451.073 102.272 452.01 103.491C452.948 104.71 454.244 105.319 455.901 105.319C457.573 105.319 458.877 104.71 459.815 103.491C460.768 102.272 461.244 100.272 461.244 97.4912V90.9287C461.244 88.1631 460.768 86.1787 459.815 84.9756C458.877 83.7725 457.573 83.1709 455.901 83.1709C454.244 83.1709 452.948 83.7725 452.01 84.9756C451.073 86.1787 450.604 88.1631 450.604 90.9287V97.4912ZM473.573 101.897V100.351H482.385V101.265C482.385 102.687 482.784 103.749 483.58 104.452C484.377 105.14 485.487 105.483 486.909 105.483C488.284 105.483 489.338 105.179 490.073 104.569C490.823 103.96 491.198 103.14 491.198 102.108C491.198 101.093 490.807 100.288 490.026 99.6943C489.244 99.1006 487.463 98.3975 484.682 97.585C481.119 96.5381 478.44 95.1787 476.643 93.5068C474.846 91.835 473.948 89.585 473.948 86.7568C473.948 83.585 475.112 81.1006 477.44 79.3037C479.768 77.4912 482.838 76.585 486.651 76.585C490.463 76.585 493.549 77.4287 495.909 79.1162C498.268 80.8037 499.448 83.1631 499.448 86.1943V87.4834H490.776V86.7803C490.776 85.624 490.44 84.7178 489.768 84.0615C489.096 83.3896 488.112 83.0537 486.815 83.0537C485.471 83.0537 484.487 83.3271 483.862 83.874C483.252 84.4053 482.948 85.1162 482.948 86.0068C482.948 86.8818 483.346 87.5693 484.143 88.0693C484.955 88.5537 486.823 89.21 489.744 90.0381C493.135 91.0068 495.721 92.3428 497.502 94.0459C499.284 95.749 500.174 98.1318 500.174 101.194C500.174 104.569 498.963 107.187 496.541 109.046C494.119 110.89 490.948 111.812 487.026 111.812C483.119 111.812 479.901 110.976 477.369 109.304C474.838 107.632 473.573 105.163 473.573 101.897ZM502.635 101.897V100.351H511.448V101.265C511.448 102.687 511.846 103.749 512.643 104.452C513.44 105.14 514.549 105.483 515.971 105.483C517.346 105.483 518.401 105.179 519.135 104.569C519.885 103.96 520.26 103.14 520.26 102.108C520.26 101.093 519.869 100.288 519.088 99.6943C518.307 99.1006 516.526 98.3975 513.744 97.585C510.182 96.5381 507.502 95.1787 505.705 93.5068C503.909 91.835 503.01 89.585 503.01 86.7568C503.01 83.585 504.174 81.1006 506.502 79.3037C508.83 77.4912 511.901 76.585 515.713 76.585C519.526 76.585 522.612 77.4287 524.971 79.1162C527.33 80.8037 528.51 83.1631 528.51 86.1943V87.4834H519.838V86.7803C519.838 85.624 519.502 84.7178 518.83 84.0615C518.159 83.3896 517.174 83.0537 515.877 83.0537C514.534 83.0537 513.549 83.3271 512.924 83.874C512.315 84.4053 512.01 85.1162 512.01 86.0068C512.01 86.8818 512.409 87.5693 513.205 88.0693C514.018 88.5537 515.885 89.21 518.807 90.0381C522.198 91.0068 524.784 92.3428 526.565 94.0459C528.346 95.749 529.237 98.1318 529.237 101.194C529.237 104.569 528.026 107.187 525.604 109.046C523.182 110.89 520.01 111.812 516.088 111.812C512.182 111.812 508.963 110.976 506.432 109.304C503.901 107.632 502.635 105.163 502.635 101.897ZM541.846 84.3896V77.124H569.573V84.3896H560.455V111.249H550.987V84.3896H541.846ZM572.338 111.249V77.124H581.713V89.8271H590.807V77.124H600.182V111.249H590.807V97.4209H581.713V111.249H572.338ZM604.963 111.249V77.124H628.494V84.3896H614.034V90.6475H626.455V97.21H614.034V104.194H628.846V111.249H604.963ZM643.213 95.1475V93.2256C643.213 87.71 644.596 83.5537 647.362 80.7568C650.143 77.96 653.862 76.5615 658.518 76.5615C662.737 76.5615 665.994 77.5693 668.291 79.585C670.604 81.6006 671.752 84.2256 671.737 87.46V88.374H662.76V87.8818C662.76 86.4443 662.377 85.335 661.612 84.5537C660.846 83.7725 659.69 83.3818 658.143 83.3818C656.534 83.3818 655.26 83.9912 654.323 85.21C653.401 86.4131 652.94 88.3662 652.94 91.0693V97.3975C652.94 100.054 653.455 102.03 654.487 103.327C655.518 104.608 656.932 105.249 658.729 105.249C659.619 105.249 660.385 105.14 661.026 104.921C661.682 104.702 662.299 104.351 662.877 103.866V99.0146H658.284V92.6865L671.83 92.6631V106.866C670.83 107.991 669.237 109.101 667.049 110.194C664.877 111.272 662.08 111.812 658.659 111.812C653.94 111.812 650.182 110.413 647.385 107.616C644.604 104.819 643.213 100.663 643.213 95.1475ZM675.651 111.249V77.124H685.026V103.983H698.151V111.249H675.651ZM700.026 95.1475V93.2256C700.026 87.5225 701.432 83.3193 704.244 80.6162C707.073 77.9131 710.682 76.5615 715.073 76.5615C719.494 76.5615 723.112 77.9131 725.924 80.6162C728.752 83.3193 730.166 87.5225 730.166 93.2256V95.1475C730.166 100.851 728.752 105.054 725.924 107.757C723.112 110.46 719.494 111.812 715.073 111.812C710.682 111.812 707.073 110.46 704.244 107.757C701.432 105.054 700.026 100.851 700.026 95.1475ZM709.776 97.4912C709.776 100.272 710.244 102.272 711.182 103.491C712.119 104.71 713.416 105.319 715.073 105.319C716.744 105.319 718.049 104.71 718.987 103.491C719.94 102.272 720.416 100.272 720.416 97.4912V90.9287C720.416 88.1631 719.94 86.1787 718.987 84.9756C718.049 83.7725 716.744 83.1709 715.073 83.1709C713.416 83.1709 712.119 83.7725 711.182 84.9756C710.244 86.1787 709.776 88.1631 709.776 90.9287V97.4912ZM734.104 111.249V77.124H748.752C752.44 77.124 755.198 77.8896 757.026 79.4209C758.854 80.9365 759.768 83.1006 759.768 85.9131C759.768 87.835 759.346 89.4209 758.502 90.6709C757.674 91.9209 756.604 92.7881 755.291 93.2725V93.3662C756.916 93.7881 758.268 94.6709 759.346 96.0146C760.44 97.3584 760.987 99.2178 760.987 101.593C760.987 104.624 759.932 106.991 757.823 108.694C755.729 110.397 752.885 111.249 749.291 111.249H734.104ZM743.268 105.108H747.44C748.83 105.108 749.854 104.718 750.51 103.937C751.182 103.14 751.518 102.085 751.518 100.772C751.518 99.46 751.182 98.4053 750.51 97.6084C749.854 96.8115 748.83 96.4131 747.44 96.4131H743.268V105.108ZM743.268 91.374H746.994C748.323 91.374 749.284 91.0303 749.877 90.3428C750.471 89.6396 750.768 88.6553 750.768 87.3896C750.768 86.1396 750.471 85.1787 749.877 84.5068C749.284 83.835 748.323 83.499 746.994 83.499H743.268V91.374ZM764.432 111.249V77.124H787.963V84.3896H773.502V90.6475H785.924V97.21H773.502V104.194H788.315V111.249H764.432Z" fill="black"/>
</svg>
