<?xml version="1.0" encoding="utf-8"?>
<!-- Generator: Adobe Illustrator 27.5.0, SVG Export Plug-In . SVG Version: 6.00 Build 0)  -->
<svg version="1.1" id="Layer_1" xmlns="http://www.w3.org/2000/svg" xmlns:xlink="http://www.w3.org/1999/xlink" x="0px" y="0px"
	 viewBox="0 0 1000 1000" style="enable-background:new 0 0 1000 1000;" xml:space="preserve">
<style type="text/css">
	.st0{fill:#F7E369;}
	.st1{fill:#F55C3C;}
	.st2{fill:#FFD939;}
	.st3{fill:#E26B00;}
	.st4{fill:#EA5467;}
	.st5{fill:#F9C0E1;}
	.st6{fill:#FFFFFF;}
	.st7{fill:#FCC5F5;}
	.st8{fill:#7346AE;}
	.st9{fill:#F232A0;}
	.st10{fill:#EDB5D8;}
	.st11{fill:#F7313D;}
	.st12{fill:#F9EAA2;}
	.st13{fill:#F8A4CB;}
	.st14{fill:#F19EF8;}
	.st15{fill:#8867CE;}
	.st16{fill:#3E6FD5;}
	.st17{fill:#FAF2E9;}
	.st18{fill:#663A92;}
	.st19{fill:#FF8D3D;}
	.st20{fill:#FADF46;}
	.st21{fill:#7903EA;}
	.st22{fill:#CEA7F2;}
	.st23{fill:#FDFEFC;}
	.st24{fill:#FF4C37;}
	.st25{fill:#FFCAC1;}
	.st26{fill:#E8C93D;}
	.st27{fill:#29864D;}
	.st28{fill:#F8F8F0;}
	.st29{fill:#F7851E;}
	.st30{fill:#F9F946;}
	.st31{fill:#F8862F;}
	.st32{fill:#FFE2D8;}
	.st33{fill:#4A89E5;}
	.st34{fill:#F97AC5;}
	.st35{fill:#FDFFFF;}
	.st36{fill:#F2C3B3;}
	.st37{fill:#F13830;}
	.st38{fill:#E2D25D;}
	.st39{fill:#F36525;}
	.st40{fill:#FFDCD7;}
	.st41{fill:#FB4321;}
	.st42{clip-path:url(#SVGID_00000145032105766813534920000017881972295851705996_);}
	.st43{fill:#3A3A3A;}
	.st44{fill:#2B2B2B;}
	.st45{fill:#5BAA41;}
	.st46{fill:#F277B4;}
	.st47{fill:#EEE5BE;}
	.st48{fill:#FDCA06;}
	.st49{fill:#EF7807;}
	.st50{fill:#CBF0E1;}
	.st51{fill:#56906A;}
	.st52{fill:#FFF8D9;}
	.st53{fill:#FFBC15;}
	.st54{fill:#28282B;}
	.st55{fill:#EF354C;}
	.st56{fill:#F39FC7;}
	.st57{fill:#F9AB4E;}
	.st58{fill:#EFFF7B;}
	.st59{fill:#50C096;}
	.st60{fill:#DBFAF0;}
	.st61{fill:#FFF8F8;}
	.st62{fill:#84322C;}
	.st63{fill:#F1F1F1;}
	.st64{fill:#F20000;}
	.st65{fill:#FFFA57;}
	.st66{fill:#3BBCF4;}
	.st67{fill:#EFF784;}
	.st68{fill:#F46CAD;}
	.st69{fill:#ECDED1;}
	.st70{fill:#398FAA;}
	.st71{fill:#FB5229;}
	.st72{fill:#FFDFD8;}
	.st73{fill:#EE4933;}
	.st74{fill:#8021E2;}
	.st75{fill:#D0B6F0;}
	.st76{fill:#418ADF;}
	.st77{fill:#E6F1FF;}
	.st78{fill:#FF6A36;}
	.st79{fill:#F9C77D;}
	.st80{fill:#6E579F;}
	.st81{fill:#FBB9F0;}
	.st82{fill:#EF4C23;}
	.st83{fill:#FFC7E7;}
	.st84{fill:#DAF1F7;}
	.st85{fill:#5353F9;}
	.st86{fill:#FF56C8;}
	.st87{fill:#FCF0FC;}
	.st88{fill:#E5B9FF;}
	.st89{fill:#7C63E5;}
	.st90{fill:#E8CA47;}
	.st91{fill:#DD2F5E;}
	.st92{fill:#DBC0FF;}
	.st93{fill:#844FDC;}
	.st94{fill:#E9F98F;}
	.st95{fill:#E8AD85;}
</style>
<g>
	<g>
		<g>
			<path class="st11" d="M812.05,497.56l-87.63-49.25c-3.19-1.79-4.28-5.86-2.41-9l51.29-86.45c2.6-4.37-0.6-9.9-5.68-9.84
				l-100.53,1.27c-3.66,0.05-6.64-2.93-6.6-6.6l1.27-100.53c0.06-5.09-5.46-8.28-9.84-5.68l-86.45,51.29
				c-3.15,1.87-7.21,0.78-9-2.41l-49.25-87.63c-2.49-4.43-8.87-4.43-11.36,0l-49.25,87.63c-1.79,3.19-5.86,4.28-9,2.41l-86.45-51.29
				c-4.37-2.6-9.9,0.6-9.84,5.68l1.27,100.53c0.05,3.66-2.93,6.64-6.6,6.6l-100.53-1.27c-5.09-0.06-8.28,5.46-5.68,9.84l51.29,86.45
				c1.87,3.15,0.78,7.21-2.41,9l-87.63,49.25c-4.43,2.49-4.43,8.87,0,11.36l87.63,49.25c3.19,1.79,4.28,5.86,2.41,9l-51.29,86.45
				c-2.6,4.37,0.6,9.9,5.68,9.84l100.53-1.27c3.66-0.05,6.64,2.93,6.6,6.6l-1.27,100.53c-0.06,5.09,5.46,8.28,9.84,5.68l86.45-51.29
				c3.15-1.87,7.21-0.78,9,2.41l49.25,87.63c2.49,4.43,8.87,4.43,11.36,0l49.25-87.63c1.79-3.19,5.86-4.28,9-2.41L651.92,775
				c4.37,2.6,9.9-0.6,9.84-5.68l-1.27-100.53c-0.05-3.66,2.93-6.64,6.6-6.6l100.53,1.27c5.09,0.06,8.28-5.46,5.68-9.84l-51.29-86.45
				c-1.87-3.15-0.78-7.21,2.41-9l87.63-49.25C816.48,506.43,816.48,500.05,812.05,497.56z"/>
		</g>
		<g>
			<path class="st12" d="M793.96,485.11l-85.13-47.84c-3.1-1.74-4.15-5.69-2.34-8.74l49.82-83.98c2.52-4.25-0.58-9.62-5.52-9.56
				l-97.66,1.23c-3.56,0.04-6.45-2.85-6.41-6.41l1.23-97.66c0.06-4.94-5.31-8.04-9.56-5.52l-83.98,49.82
				c-3.06,1.81-7,0.76-8.74-2.34l-47.84-85.13c-2.42-4.3-8.61-4.3-11.03,0l-47.84,85.13c-1.74,3.1-5.69,4.15-8.74,2.34l-83.98-49.82
				c-4.25-2.52-9.62,0.58-9.56,5.52l1.23,97.66c0.04,3.56-2.85,6.45-6.41,6.41l-97.66-1.23c-4.94-0.06-8.04,5.31-5.52,9.56
				l49.82,83.98c1.81,3.06,0.76,7-2.34,8.74l-85.13,47.84c-4.3,2.42-4.3,8.61,0,11.03l85.13,47.84c3.1,1.74,4.15,5.69,2.34,8.74
				l-49.82,83.98c-2.52,4.25,0.58,9.62,5.52,9.56l97.66-1.23c3.56-0.04,6.45,2.85,6.41,6.41l-1.23,97.66
				c-0.06,4.94,5.31,8.04,9.56,5.52l83.98-49.82c3.06-1.81,7-0.76,8.74,2.34l47.84,85.13c2.42,4.3,8.61,4.3,11.03,0l47.84-85.13
				c1.74-3.1,5.69-4.15,8.74-2.34l83.98,49.82c4.25,2.52,9.62-0.58,9.56-5.52l-1.23-97.66c-0.04-3.56,2.85-6.45,6.41-6.41
				l97.66,1.23c4.94,0.06,8.04-5.31,5.52-9.56l-49.82-83.98c-1.81-3.06-0.76-7,2.34-8.74l85.13-47.84
				C798.26,493.72,798.26,487.53,793.96,485.11z"/>
			<g>
				<path class="st11" d="M492.33,798.32C492.33,798.32,492.33,798.32,492.33,798.32c-3.36,0-6.35-1.75-7.99-4.68l-47.84-85.13
					c-0.46-0.82-1.22-1.41-2.14-1.66c-0.92-0.24-1.87-0.11-2.68,0.37l-83.98,49.82c-2.89,1.72-6.35,1.73-9.27,0.05
					c-2.91-1.68-4.62-4.69-4.58-8.06l1.23-97.65c0.01-0.95-0.35-1.84-1.02-2.51c-0.67-0.67-1.55-1.05-2.51-1.02l-97.66,1.23
					c-0.04,0-0.08,0-0.12,0c-3.31,0-6.27-1.71-7.93-4.58c-1.68-2.91-1.66-6.37,0.05-9.27l49.82-83.98c0.48-0.81,0.61-1.77,0.37-2.68
					c-0.24-0.91-0.83-1.67-1.66-2.14l-85.13-47.84c-2.93-1.65-4.68-4.63-4.68-7.99c0-3.36,1.75-6.35,4.68-7.99l85.13-47.84
					c0.83-0.46,1.41-1.22,1.66-2.14c0.24-0.91,0.11-1.87-0.37-2.68l-49.82-83.98c-1.72-2.89-1.74-6.35-0.05-9.27
					c1.68-2.91,4.71-4.61,8.05-4.58l97.66,1.23c0.95,0.01,1.84-0.35,2.51-1.02c0.67-0.67,1.03-1.56,1.02-2.51l-1.23-97.66
					c-0.04-3.36,1.67-6.37,4.58-8.06c2.91-1.68,6.38-1.66,9.27,0.05l83.98,49.82c0.81,0.48,1.76,0.61,2.68,0.37
					c0.91-0.25,1.67-0.83,2.14-1.66l47.84-85.12c1.65-2.93,4.63-4.68,7.99-4.68c3.36,0,6.35,1.75,7.99,4.68l47.84,85.13
					c0.46,0.82,1.22,1.41,2.14,1.66c0.92,0.24,1.87,0.11,2.68-0.37l83.98-49.82c2.89-1.71,6.36-1.73,9.27-0.05
					c2.91,1.68,4.62,4.69,4.58,8.05l-1.23,97.66c-0.01,0.95,0.35,1.84,1.02,2.51c0.67,0.67,1.54,0.98,2.51,1.02l97.66-1.23
					c0.04,0,0.08,0,0.12,0c3.31,0,6.27,1.71,7.93,4.58c1.68,2.91,1.66,6.37-0.05,9.26l-49.82,83.98c-0.48,0.81-0.61,1.77-0.37,2.68
					c0.25,0.92,0.83,1.67,1.66,2.14l85.13,47.84c2.93,1.65,4.68,4.63,4.68,7.99c0,3.36-1.75,6.35-4.68,7.99l-85.13,47.84
					c-0.82,0.46-1.41,1.22-1.66,2.14c-0.24,0.91-0.11,1.87,0.37,2.68l49.82,83.98c1.71,2.89,1.73,6.36,0.05,9.27
					c-1.66,2.88-4.62,4.58-7.93,4.58c-0.04,0-0.08,0-0.12,0l-97.66-1.23c-0.95,0.02-1.84,0.35-2.51,1.02
					c-0.67,0.67-1.03,1.56-1.02,2.51l1.23,97.66c0.04,3.36-1.67,6.37-4.58,8.05c-2.91,1.68-6.37,1.66-9.27-0.05l-83.98-49.82
					c-0.81-0.48-1.76-0.61-2.68-0.37c-0.92,0.25-1.67,0.83-2.14,1.66l-47.84,85.13C498.68,796.57,495.69,798.32,492.33,798.32z
					 M433.43,701.05c0.8,0,1.6,0.1,2.39,0.32c2.41,0.64,4.4,2.19,5.62,4.37l47.84,85.13c0.63,1.11,1.76,1.78,3.04,1.78
					c1.28,0,2.41-0.66,3.04-1.78l47.84-85.13c1.22-2.17,3.22-3.72,5.62-4.37c2.4-0.64,4.91-0.3,7.05,0.97l83.98,49.82
					c1.1,0.65,2.41,0.66,3.52,0.02c1.11-0.64,1.76-1.78,1.74-3.06l-1.23-97.66c-0.03-2.49,0.92-4.84,2.69-6.6
					c1.76-1.76,4.11-2.68,6.6-2.69l97.66,1.23c1.25-0.03,2.42-0.63,3.06-1.74c0.64-1.11,0.63-2.42-0.02-3.52l-49.82-83.98
					c-1.27-2.14-1.62-4.64-0.97-7.05c0.64-2.41,2.19-4.4,4.36-5.62l85.13-47.84c1.11-0.62,1.78-1.76,1.78-3.04
					c0-1.28-0.66-2.41-1.78-3.04l-85.12-47.84c-2.17-1.22-3.72-3.22-4.37-5.62c-0.64-2.41-0.3-4.91,0.97-7.05l49.82-83.98
					c0.65-1.1,0.66-2.42,0.02-3.52c-0.64-1.11-1.77-1.7-3.06-1.74l-97.66,1.23c-0.04,0-0.08,0-0.12,0c-2.45,0-4.75-0.95-6.48-2.69
					c-1.76-1.76-2.72-4.11-2.68-6.6l1.23-97.66c0.02-1.28-0.63-2.42-1.74-3.06c-1.11-0.64-2.43-0.63-3.52,0.02l-83.98,49.82
					c-2.14,1.27-4.65,1.61-7.05,0.97c-2.41-0.64-4.4-2.19-5.62-4.37l-47.84-85.13c-0.63-1.11-1.76-1.78-3.04-1.78
					c-1.28,0-2.41,0.66-3.04,1.78l-47.84,85.13c-1.22,2.17-3.22,3.72-5.62,4.37c-2.41,0.64-4.91,0.3-7.05-0.97l-83.98-49.82
					c-1.1-0.65-2.42-0.66-3.52-0.02c-1.11,0.64-1.76,1.78-1.74,3.06l1.23,97.66c0.03,2.49-0.92,4.84-2.69,6.6
					c-1.76,1.76-4.11,2.68-6.6,2.68l-97.66-1.23c-1.24,0.01-2.42,0.63-3.06,1.74s-0.63,2.42,0.02,3.52l49.82,83.98
					c1.27,2.14,1.62,4.64,0.97,7.05c-0.64,2.41-2.19,4.4-4.36,5.62l-85.12,47.84c-1.11,0.62-1.78,1.76-1.78,3.04
					c0,1.28,0.66,2.41,1.78,3.04l85.12,47.84c2.17,1.22,3.72,3.22,4.36,5.62c0.64,2.41,0.3,4.91-0.97,7.05l-49.82,83.98
					c-0.65,1.1-0.66,2.42-0.02,3.52c0.64,1.11,1.79,1.78,3.06,1.74l97.66-1.23c0.04,0,0.08,0,0.12,0c2.45,0,4.74,0.95,6.48,2.68
					c1.76,1.76,2.72,4.11,2.69,6.6l-1.23,97.66c-0.02,1.28,0.63,2.42,1.74,3.06c1.11,0.64,2.42,0.63,3.52-0.02l83.98-49.82
					C430.21,701.49,431.81,701.05,433.43,701.05z"/>
			</g>
		</g>
		<g>
			<g>
				<path class="st13" d="M793.96,485.11l-85.13-47.84c-3.1-1.74-4.15-5.69-2.34-8.74l49.82-83.98c2.52-4.25-0.58-9.62-5.52-9.56
					l-97.66,1.23c-3.56,0.04-6.45-2.85-6.41-6.41l1.23-97.66c0.06-4.94-5.31-8.04-9.56-5.52l-83.98,49.82
					c-3.06,1.81-7,0.76-8.74-2.34l-47.84-85.13c-2.42-4.3-8.61-4.3-11.03,0l-47.84,85.13c-1.74,3.1-5.69,4.15-8.74,2.34
					l-83.98-49.82c-4.25-2.52-9.62,0.58-9.56,5.52l1.23,97.66c0.04,3.56-2.85,6.45-6.41,6.41l-97.66-1.23
					c-4.94-0.06-8.04,5.31-5.52,9.56l49.82,83.98c1.81,3.06,0.76,7-2.34,8.74l-85.13,47.84c-4.3,2.42-4.3,8.61,0,11.03l85.13,47.84
					c3.1,1.74,4.15,5.69,2.34,8.74l-49.82,83.98c-2.52,4.25,0.58,9.62,5.52,9.56l97.66-1.23c3.56-0.04,6.45,2.85,6.41,6.41
					l-1.23,97.66c-0.06,4.94,5.31,8.04,9.56,5.52l83.98-49.82c3.06-1.81,7-0.76,8.74,2.34l47.84,85.13c2.42,4.3,8.61,4.3,11.03,0
					l47.84-85.13c1.74-3.1,5.69-4.15,8.74-2.34l83.98,49.82c4.25,2.52,9.62-0.58,9.56-5.52l-1.23-97.66
					c-0.04-3.56,2.85-6.45,6.41-6.41l97.66,1.23c4.94,0.06,8.04-5.31,5.52-9.56l-49.82-83.98c-1.81-3.06-0.76-7,2.34-8.74
					l85.13-47.84C798.26,493.72,798.26,487.53,793.96,485.11z"/>
			</g>
			<g>
				<path class="st11" d="M492.33,798.32c-3.36,0-6.35-1.75-7.99-4.68l-47.84-85.13c-0.46-0.82-1.22-1.41-2.14-1.66
					c-0.92-0.24-1.87-0.11-2.68,0.37l-83.98,49.82c-2.89,1.71-6.36,1.73-9.27,0.05c-2.91-1.68-4.62-4.69-4.58-8.05l1.23-97.66
					c0.01-0.95-0.35-1.84-1.02-2.51c-0.67-0.67-1.57-1-2.51-1.02l-97.66,1.23c-3.33,0.01-6.37-1.67-8.06-4.58
					c-1.68-2.91-1.66-6.37,0.05-9.26l49.82-83.98c0.48-0.81,0.61-1.77,0.37-2.68c-0.25-0.91-0.83-1.67-1.66-2.14l-85.13-47.84
					c-2.93-1.65-4.68-4.64-4.68-7.99c0-3.36,1.75-6.35,4.68-7.99l85.13-47.84c0.82-0.46,1.41-1.22,1.66-2.14
					c0.24-0.91,0.11-1.87-0.37-2.68l-49.82-83.98c-1.72-2.89-1.73-6.36-0.05-9.27c1.68-2.91,4.73-4.59,8.05-4.58l97.66,1.23
					c0.95,0.02,1.84-0.35,2.51-1.02c0.67-0.67,1.03-1.56,1.02-2.51l-1.23-97.66c-0.04-3.36,1.67-6.37,4.58-8.05
					c2.91-1.68,6.38-1.66,9.27,0.05l83.98,49.82c0.81,0.48,1.77,0.61,2.68,0.37c0.91-0.25,1.67-0.83,2.14-1.66l47.84-85.13
					c1.65-2.93,4.63-4.68,7.99-4.68s6.35,1.75,7.99,4.68l47.84,85.13c0.46,0.82,1.22,1.41,2.14,1.66c0.92,0.24,1.87,0.11,2.68-0.37
					l83.98-49.82c2.89-1.71,6.36-1.73,9.27-0.05c2.91,1.68,4.62,4.69,4.58,8.05l-1.23,97.66c-0.01,0.95,0.35,1.84,1.02,2.51
					c0.67,0.67,1.57,1.02,2.51,1.02l97.66-1.23c0.04,0,0.08,0,0.12,0c3.31,0,6.27,1.71,7.93,4.58c1.68,2.91,1.66,6.37-0.05,9.27
					l-49.82,83.98c-0.48,0.81-0.61,1.77-0.37,2.68c0.25,0.91,0.83,1.67,1.66,2.14l85.13,47.84c2.93,1.65,4.68,4.63,4.68,7.99
					c0,3.36-1.75,6.35-4.68,7.99l-85.13,47.84c-0.82,0.46-1.41,1.22-1.66,2.14c-0.24,0.91-0.11,1.87,0.37,2.68l49.82,83.98
					c1.72,2.89,1.73,6.35,0.05,9.27c-1.66,2.88-4.62,4.58-7.93,4.58c-0.04,0-0.08,0-0.12,0l-97.66-1.23
					c-0.97-0.01-1.84,0.35-2.51,1.02c-0.67,0.67-1.03,1.56-1.02,2.51l1.23,97.66c0.04,3.36-1.67,6.37-4.58,8.05
					c-2.91,1.68-6.38,1.66-9.27-0.05l-83.98-49.82c-0.81-0.48-1.77-0.61-2.68-0.37c-0.91,0.25-1.67,0.83-2.14,1.66l-47.84,85.13
					C498.68,796.57,495.69,798.32,492.33,798.32z M433.43,701.05c0.8,0,1.6,0.1,2.39,0.32c2.41,0.64,4.4,2.19,5.62,4.37l47.84,85.13
					c0.62,1.11,1.76,1.78,3.04,1.78c1.28,0,2.41-0.66,3.04-1.78l47.84-85.13c1.22-2.17,3.22-3.72,5.62-4.37
					c2.4-0.64,4.91-0.3,7.05,0.97l83.98,49.82c1.1,0.65,2.42,0.66,3.52,0.02c1.11-0.64,1.76-1.78,1.74-3.06l-1.23-97.66
					c-0.03-2.49,0.92-4.84,2.69-6.6c1.73-1.73,4.03-2.68,6.48-2.68c0.04,0,0.08,0,0.12,0l97.66,1.23c1.24,0.02,2.42-0.63,3.06-1.74
					c0.64-1.11,0.63-2.42-0.02-3.52l-49.82-83.98c-1.27-2.14-1.62-4.64-0.97-7.05c0.64-2.41,2.19-4.4,4.36-5.62l85.13-47.84
					c1.11-0.63,1.78-1.76,1.78-3.04c0-1.28-0.66-2.41-1.78-3.04l-85.12-47.84c-2.17-1.22-3.72-3.22-4.37-5.62
					c-0.64-2.41-0.3-4.91,0.97-7.05l49.82-83.98c0.65-1.1,0.66-2.42,0.02-3.52c-0.64-1.11-1.77-1.75-3.06-1.74l-97.66,1.23
					c-0.04,0-0.08,0-0.12,0c-2.45,0-4.75-0.95-6.48-2.69c-1.76-1.76-2.72-4.11-2.68-6.6l1.23-97.66c0.02-1.28-0.63-2.42-1.74-3.06
					c-1.11-0.64-2.43-0.63-3.52,0.02l-83.98,49.82c-2.14,1.27-4.65,1.62-7.05,0.97c-2.41-0.64-4.4-2.19-5.62-4.37l-47.84-85.13
					c-0.62-1.11-1.76-1.78-3.04-1.78c-1.28,0-2.41,0.66-3.04,1.78l-47.84,85.13c-1.22,2.17-3.22,3.72-5.62,4.37
					c-2.4,0.64-4.91,0.3-7.05-0.97l-83.98-49.82c-1.1-0.65-2.42-0.66-3.52-0.02c-1.11,0.64-1.76,1.78-1.74,3.06l1.23,97.66
					c0.03,2.49-0.92,4.84-2.69,6.6c-1.73,1.73-4.03,2.68-6.48,2.68c-0.04,0-0.08,0-0.12,0l-97.66-1.23
					c-1.24-0.02-2.42,0.63-3.06,1.74c-0.64,1.11-0.63,2.42,0.02,3.52l49.82,83.98c1.27,2.14,1.62,4.64,0.97,7.05
					c-0.64,2.41-2.19,4.4-4.36,5.62l-85.13,47.84c-1.11,0.63-1.78,1.76-1.78,3.04c0,1.28,0.66,2.41,1.78,3.04l85.12,47.84
					c2.17,1.22,3.72,3.22,4.37,5.62c0.64,2.41,0.3,4.91-0.97,7.05l-49.82,83.98c-0.65,1.1-0.66,2.42-0.02,3.52
					c0.64,1.11,1.78,1.74,3.06,1.74l97.66-1.23c2.49-0.02,4.84,0.92,6.6,2.69c1.76,1.76,2.72,4.11,2.68,6.6l-1.23,97.66
					c-0.02,1.28,0.63,2.42,1.74,3.06c1.11,0.64,2.42,0.63,3.52-0.02l83.98-49.82C430.21,701.49,431.81,701.05,433.43,701.05z"/>
			</g>
		</g>
	</g>
	<g>
		<g>
			<polygon class="st11" points="409,518.49 367.03,462.17 344.84,462.17 344.84,537.83 361.43,537.83 361.43,480.5 403.96,537.83 
				425.6,537.83 425.6,462.17 409,462.17 			"/>
		</g>
		<g>
			<polygon class="st11" points="460.96,506.56 508.73,506.56 508.73,493.44 460.96,493.44 460.96,476.39 511.35,476.39 
				511.35,462.17 443.71,462.17 443.71,537.83 511.85,537.83 511.85,523.61 460.96,523.61 			"/>
		</g>
		<g>
			<polygon class="st11" points="637.15,462.17 618.84,521.99 598.06,462.17 579.8,462.17 559.03,522.15 540.71,462.17 
				522.6,462.17 546.96,537.83 568.85,537.83 588.9,481.35 608.9,537.83 630.85,537.83 655.16,462.17 			"/>
		</g>
	</g>
</g>
</svg>
