<svg width="477" height="132" viewBox="0 0 477 132" fill="none" xmlns="http://www.w3.org/2000/svg">
<path d="M3.03613 46.1904V17.7529H16.9033C20.1064 17.7529 22.6846 18.6123 24.6377 20.3311C26.6038 22.0498 27.5869 24.4326 27.5869 27.4795C27.5869 30.6175 26.5518 33.098 24.4814 34.9209C22.4111 36.7438 19.8525 37.6553 16.8057 37.6553H13.1143V46.1904H3.03613ZM13.1143 31.1904H14.9502C15.8486 31.1904 16.4867 30.917 16.8643 30.3701C17.2549 29.8102 17.4502 29.0029 17.4502 27.9482C17.4502 26.9196 17.2549 26.1253 16.8643 25.5654C16.4867 24.9925 15.8486 24.7061 14.9502 24.7061H13.1143V31.1904ZM17.7822 46.1904L12.9189 33.9248L22.333 32.0889L28.8174 46.1904H17.7822ZM29.2236 46.1904V17.7529H50.6885V25.4092H38.9502V28.3975H49.0674V35.2725H38.9502V38.7686H51.001V46.1904H29.2236ZM50.0791 46.1904L60.001 17.7139H70.9971L80.8799 46.1904H70.626L65.5088 29.9209C65.3525 29.4261 65.2354 28.9834 65.1572 28.5928C65.0791 28.1891 65.0205 27.8766 64.9814 27.6553H64.9033C64.8773 27.8766 64.8187 28.1891 64.7275 28.5928C64.6364 28.9834 64.5257 29.4261 64.3955 29.9209L59.5322 46.1904H50.0791ZM57.208 42.1475L58.6533 35.5654H71.6611L73.2041 42.1475H57.208ZM80.8564 46.1904V17.7529H90.9346V38.5342H101.325V46.1904H80.8564ZM102.435 46.1904V17.7529H112.513V38.5342H122.903V46.1904H102.435ZM128.544 46.1904V36.0537L119.091 17.7529H130.048L133.622 24.9795C133.752 25.2529 133.863 25.5199 133.954 25.7803C134.045 26.0277 134.136 26.2881 134.228 26.5615H134.325C134.416 26.2881 134.501 26.0277 134.579 25.7803C134.67 25.5199 134.787 25.2529 134.931 24.9795L138.505 17.7529H147.938L138.739 35.7607V46.1904H128.544ZM145.845 49.9014C146.496 49.042 146.965 48.1305 147.251 47.167C147.55 46.2035 147.7 45.1748 147.7 44.0811V37.4209H156.274V44.042C156.274 45.4613 155.968 46.835 155.356 48.1631C154.757 49.4912 153.944 50.5915 152.915 51.4639L145.845 49.9014ZM173.864 46.1904L167.146 17.7529H176.872L180.114 32.499C180.166 32.7725 180.205 33.0199 180.231 33.2412C180.271 33.4495 180.303 33.71 180.329 34.0225H180.446C180.485 33.71 180.518 33.4495 180.544 33.2412C180.583 33.0199 180.629 32.7725 180.681 32.499L184.04 17.7529H193.61L197.165 32.46C197.217 32.7464 197.256 32.9938 197.282 33.2021C197.321 33.4105 197.36 33.6839 197.399 34.0225H197.497C197.536 33.6839 197.569 33.4105 197.595 33.2021C197.634 32.9938 197.679 32.7464 197.731 32.46L200.7 17.7529H209.45L202.849 46.1904H192.38L188.669 31.7178C188.604 31.4574 188.552 31.2035 188.513 30.9561C188.474 30.7087 188.441 30.4287 188.415 30.1162H188.317C188.291 30.4287 188.259 30.7087 188.22 30.9561C188.181 31.2035 188.129 31.4574 188.063 31.7178L184.372 46.1904H173.864ZM210.13 46.1904V17.7529H231.595V25.4092H219.856V28.3975H229.974V35.2725H219.856V38.7686H231.907V46.1904H210.13ZM243.325 46.1904V17.7529H257.056L260.669 29.9014C260.799 30.3701 260.91 30.8063 261.001 31.21C261.105 31.6006 261.19 32.0563 261.255 32.5771H261.353C261.431 32.0563 261.515 31.6006 261.606 31.21C261.711 30.8063 261.828 30.3701 261.958 29.9014L265.591 17.7529H279.419V46.1904H269.458V33.1045C269.458 32.6488 269.465 32.1475 269.478 31.6006C269.491 31.0407 269.517 30.5329 269.556 30.0771H269.419C269.354 30.5459 269.269 31.0537 269.165 31.6006C269.074 32.1344 268.963 32.6357 268.833 33.1045L265.161 46.1904H256.509L252.837 33.1045C252.72 32.6357 252.609 32.1279 252.505 31.5811C252.414 31.0342 252.336 30.5329 252.271 30.0771H252.134C252.16 30.5329 252.179 31.0407 252.192 31.6006C252.218 32.1475 252.231 32.6488 252.231 33.1045V46.1904H243.325ZM281.817 46.1904V17.7529H303.282V25.4092H291.544V28.3975H301.661V35.2725H291.544V38.7686H303.595V46.1904H281.817ZM302.673 46.1904L312.595 17.7139H323.591L333.474 46.1904H323.22L318.103 29.9209C317.946 29.4261 317.829 28.9834 317.751 28.5928C317.673 28.1891 317.614 27.8766 317.575 27.6553H317.497C317.471 27.8766 317.412 28.1891 317.321 28.5928C317.23 28.9834 317.119 29.4261 316.989 29.9209L312.126 46.1904H302.673ZM309.802 42.1475L311.247 35.5654H324.255L325.798 42.1475H309.802ZM333.45 46.1904V17.7529H343.685L348.411 29.2764C348.567 29.693 348.711 30.1227 348.841 30.5654C348.971 31.0081 349.088 31.4574 349.192 31.9131H349.329C349.303 31.4443 349.29 31.0146 349.29 30.624C349.303 30.2204 349.31 29.7842 349.31 29.3154V17.7529H357.649V46.1904H347.474L342.61 34.7061C342.454 34.3024 342.311 33.8923 342.181 33.4756C342.063 33.0589 341.953 32.6227 341.849 32.167H341.712C341.751 32.6357 341.771 33.0459 341.771 33.3975C341.784 33.749 341.79 34.1592 341.79 34.6279V46.1904H333.45ZM369.009 46.1904V40.6045L379.829 25.4092H369.36V17.7529H392.72L392.739 23.8271L381.997 38.7686H393.384V46.1904H369.009ZM394.981 46.1904V17.7529H416.446V25.4092H404.708V28.3975H414.825V35.2725H404.708V38.7686H416.759V46.1904H394.981ZM418.239 46.1904V17.7529H432.106C435.31 17.7529 437.888 18.6123 439.841 20.3311C441.807 22.0498 442.79 24.4326 442.79 27.4795C442.79 30.6175 441.755 33.098 439.685 34.9209C437.614 36.7438 435.056 37.6553 432.009 37.6553H428.317V46.1904H418.239ZM428.317 31.1904H430.153C431.052 31.1904 431.69 30.917 432.067 30.3701C432.458 29.8102 432.653 29.0029 432.653 27.9482C432.653 26.9196 432.458 26.1253 432.067 25.5654C431.69 24.9925 431.052 24.7061 430.153 24.7061H428.317V31.1904ZM432.985 46.1904L428.122 33.9248L437.536 32.0889L444.021 46.1904H432.985ZM443.548 32.792V31.1514C443.548 26.3988 444.811 22.9027 447.337 20.6631C449.863 18.4105 453.092 17.2842 457.024 17.2842C460.957 17.2842 464.192 18.4105 466.731 20.6631C469.271 22.9027 470.54 26.3988 470.54 31.1514V32.792C470.54 37.5446 469.271 41.0472 466.731 43.2998C464.192 45.5394 460.957 46.6592 457.024 46.6592C453.092 46.6592 449.863 45.5394 447.337 43.2998C444.811 41.0472 443.548 37.5446 443.548 32.792ZM454.036 35.4678C454.036 37.1084 454.29 38.2542 454.798 38.9053C455.319 39.5563 456.061 39.8818 457.024 39.8818C457.988 39.8818 458.73 39.5563 459.251 38.9053C459.785 38.2542 460.052 37.1084 460.052 35.4678V28.5146C460.052 26.887 459.785 25.7607 459.251 25.1357C458.73 24.4977 457.988 24.1787 457.024 24.1787C456.061 24.1787 455.319 24.4977 454.798 25.1357C454.29 25.7607 454.036 26.887 454.036 28.5146V35.4678Z" fill="black"/>
<path d="M450.665 6.53759C438.843 3.06986 426.725 1.05507 414.42 0.78697C404.039 0.562549 393.364 1.24104 383.088 5.33946C378.263 7.26354 373.547 9.99973 369.251 13.7623C364.807 17.6563 360.208 22.7938 358.317 29.6024C357.413 32.8562 357.194 36.4556 358.042 39.5712C358.788 42.3035 360.244 44.4731 361.999 46.078C365.889 49.6339 370.868 50.9841 375.477 52.4321C386.484 55.8934 397.852 57.809 409.348 58.183C420.824 58.5568 432.42 57.4236 443.925 54.7441C449.647 53.4106 455.343 51.7008 460.987 49.6166C465.443 47.9718 470.436 46.0538 473.799 41.2488C475.348 39.0355 476.327 36.2233 476.421 33.297C476.526 30.0624 475.536 27.0049 474.076 24.665C472.444 22.052 470.182 20.3257 467.807 19.0834C465.248 17.7427 462.535 16.8186 459.855 15.8957C448.639 12.0263 437.015 9.78729 425.241 9.18773C413.558 8.5939 401.73 9.58843 389.992 12.2177C387.141 12.8573 384.297 13.5931 381.461 14.4195C380.769 14.6211 380.786 16.0891 381.488 15.8835C392.903 12.5531 404.462 10.7544 415.944 10.5123C427.375 10.2692 438.723 11.5777 449.762 14.4024C452.517 15.1076 455.251 15.9072 457.963 16.8026C460.649 17.6886 463.35 18.5999 465.955 19.787C470.417 21.8206 475.383 25.8464 475.329 33.1198C475.282 39.481 470.708 43.4702 466.721 45.6457C464.382 46.9221 461.955 47.7902 459.543 48.6575C456.77 49.6548 453.985 50.5587 451.19 51.3717C440.101 54.5948 428.872 56.38 417.713 56.7281C406.499 57.0784 395.353 55.959 384.489 53.3837C379.21 52.1341 373.911 50.6562 368.831 48.56C364.924 46.949 360.46 44.3725 359.042 38.8347C357.293 32.0055 360.824 24.8669 364.721 20.161C368.521 15.5714 372.997 12.0311 377.641 9.44259C387.008 4.22046 397.084 2.65254 406.851 2.29856C418.681 1.87141 430.424 3.08329 441.888 5.74759C444.741 6.41155 447.579 7.16478 450.399 7.99083C451.074 8.18897 451.338 6.73317 450.664 6.53534L450.665 6.53759Z" fill="black"/>
<path d="M26.7732 97.1154C24.6055 100.406 27.0361 105.833 32.2021 109.236C37.3681 112.639 43.3134 112.73 45.4812 109.439C47.6489 106.148 45.2183 100.722 40.0523 97.3185C34.8863 93.9156 28.941 93.8246 26.7732 97.1154Z" fill="white"/>
<path d="M26.7732 97.1154C24.6055 100.406 27.0361 105.833 32.2021 109.236C37.3681 112.639 43.3134 112.73 45.4812 109.439C47.6489 106.148 45.2183 100.722 40.0523 97.3185C34.8863 93.9156 28.941 93.8246 26.7732 97.1154Z" stroke="black" stroke-width="1.82012" stroke-miterlimit="10" stroke-linecap="round"/>
<path d="M31.9243 99.3703C30.8884 97.0497 30.4768 94.3715 30.8808 91.6114C31.9539 84.2803 38.3761 79.1496 45.2252 80.1522C52.074 81.1546 56.7564 87.9106 55.6833 95.2421C54.61 102.573 48.1878 107.704 41.339 106.701" fill="white"/>
<path d="M31.9243 99.3703C30.8884 97.0497 30.4768 94.3715 30.8808 91.6114C31.9539 84.2803 38.3761 79.1496 45.2252 80.1522C52.074 81.1546 56.7564 87.9106 55.6833 95.2421C54.61 102.573 48.1878 107.704 41.339 106.701" stroke="black" stroke-width="1.82012" stroke-miterlimit="10" stroke-linecap="round"/>
<path d="M39.0038 80.9151C39.0038 80.9151 45.6378 78.1571 45.8459 70.4887C46.0539 62.8205 57.9923 62.4162 52.5298 77.7384L49.6036 84.5532" fill="white"/>
<path d="M39.0038 80.9151C39.0038 80.9151 45.6378 78.1571 45.8459 70.4887C46.0539 62.8205 57.9923 62.4162 52.5298 77.7384L49.6036 84.5532" stroke="black" stroke-width="1.82012" stroke-miterlimit="10" stroke-linecap="round"/>
<path d="M45.3751 83.9334C45.3751 83.9334 53.6972 79.2628 55.7688 70.2415C57.8401 61.2202 71.9741 63.5871 61.9007 80.4102L54.7513 89.23" fill="white"/>
<path d="M45.3751 83.9334C45.3751 83.9334 53.6972 79.2628 55.7688 70.2415C57.8401 61.2202 71.9741 63.5871 61.9007 80.4102L54.7513 89.23" stroke="black" stroke-width="1.82012" stroke-miterlimit="10" stroke-linecap="round"/>
<path d="M50.0387 86.7514C50.0387 86.7514 56.8189 77.3965 62.2085 78.5757C71.1718 80.5365 69.9937 91.4104 66.3618 93.0948C62.7299 94.7791 61.0691 89.304 61.1086 87.7709L55.2102 92.3784" fill="white"/>
<path d="M50.0387 86.7514C50.0387 86.7514 56.8189 77.3965 62.2085 78.5757C71.1718 80.5365 69.9937 91.4104 66.3618 93.0948C62.7299 94.7791 61.0691 89.304 61.1086 87.7709L55.2102 92.3784" stroke="black" stroke-width="1.82012" stroke-miterlimit="10" stroke-linecap="round"/>
<path d="M52.6072 94.7926C52.6072 94.7926 56.3156 96.9161 59.8391 95.2759C63.1689 93.7257 64.424 91.8492 66.546 93.6108C70.1799 96.6275 64.9669 109.445 49.9072 102.993" fill="white"/>
<path d="M52.6072 94.7926C52.6072 94.7926 56.3156 96.9161 59.8391 95.2759C63.1689 93.7257 64.424 91.8492 66.546 93.6108C70.1799 96.6275 64.9669 109.445 49.9072 102.993" stroke="black" stroke-width="1.82012" stroke-miterlimit="10" stroke-linecap="round"/>
<path d="M33.9032 91.9681C34.5252 92.453 34.4763 92.8857 33.7327 93.4746C33.7522 93.2346 33.1729 93.3956 33.4139 92.965C33.5179 92.7791 33.526 92.4733 33.4526 92.2661C33.1731 91.4748 33.8845 92.2554 33.9032 91.9681Z" fill="#ABA99B"/>
<path d="M34.4047 90.5904C34.4739 90.7423 34.5248 90.9066 34.6161 91.0439C34.8647 91.4188 34.7802 91.6445 34.3467 91.7644C34.1879 91.8084 34.0417 91.8988 33.8899 91.9683C33.8204 91.8162 33.7695 91.6521 33.6785 91.5148C33.4299 91.1398 33.5144 90.9142 33.9479 90.7943C34.1067 90.7501 34.2529 90.6596 34.4047 90.5904Z" fill="#ABA99B"/>
<path d="M34.2235 90.1364C33.9086 89.7308 34.0987 89.5516 34.4929 89.4052C34.9651 89.2297 34.957 89.2084 35.1866 89.7659C35.3616 90.1913 35.3408 90.184 34.6533 90.4921C34.1928 90.6983 34.3832 90.2129 34.2235 90.1364Z" fill="#ABA99B"/>
<path d="M34.856 95.9269C35.1807 96.092 35.4283 96.1598 35.5897 96.3164C35.7507 96.4724 35.5102 97.0571 35.2995 97.033C35.0759 97.0077 34.7665 96.8918 34.6836 96.7228C34.6043 96.5613 34.7678 96.2802 34.856 95.9269Z" fill="#ABA99B"/>
<path d="M34.2072 93.9575C34.5221 94.0906 34.7715 94.1436 34.9486 94.2864C35.1181 94.4229 34.9155 95.0222 34.6976 95.0176C34.4761 95.0126 34.1552 94.9112 34.0671 94.7495C33.9813 94.5911 34.135 94.303 34.2072 93.9575Z" fill="#ABA99B"/>
<path d="M34.3881 93.4566C34.5532 93.1318 34.621 92.8843 34.7776 92.7228C34.9336 92.5621 35.5184 92.8026 35.4944 93.013C35.469 93.2366 35.353 93.546 35.184 93.629C35.0225 93.7085 34.7414 93.5447 34.3881 93.4566Z" fill="#ABA99B"/>
<path d="M34.9252 92.0877C35.0799 91.7639 35.1657 91.3856 35.2866 91.3739C35.5255 91.3513 35.7837 91.5315 36.0339 91.6277C35.934 91.844 35.8862 92.162 35.7193 92.247C35.5591 92.329 35.2757 92.1693 34.9252 92.0877Z" fill="#ABA99B"/>
<path d="M34.615 88.8258C34.9226 88.5538 35.1449 88.3416 35.3893 88.1594C35.4234 88.1341 35.6545 88.2886 35.6478 88.3073C35.5602 88.5522 35.4858 88.8245 35.3176 89.006C35.2554 89.0731 34.9561 88.9199 34.615 88.8258Z" fill="#ABA99B"/>
<path d="M33.5743 94.4004C33.5236 94.2891 33.487 94.1682 33.4196 94.0681C33.158 93.6788 33.4597 93.5884 33.7238 93.475C33.9293 93.8247 33.9056 94.1375 33.5743 94.4004Z" fill="#ABA99B"/>
<path d="M35.618 98.5701C35.7577 98.3803 35.8292 98.2173 35.8833 98.223C36.0122 98.2363 36.1331 98.3291 36.2572 98.3899C36.207 98.4861 36.1698 98.6507 36.1035 98.6635C35.9823 98.6866 35.8437 98.6201 35.618 98.5701Z" fill="#ABA99B"/>
<path d="M34.2776 95.9379C34.3129 96.0154 34.3701 96.0913 34.3751 96.1706C34.3782 96.219 34.3004 96.2723 34.2591 96.3235C34.1288 96.0349 33.9986 95.7462 33.8683 95.4576C33.9341 95.4631 34.0396 95.4449 34.0591 95.4777C34.1455 95.6233 34.2071 95.7832 34.2776 95.9379Z" fill="#ABA99B"/>
<path d="M35.4421 94.8289C35.6452 94.9391 35.7934 94.98 35.8698 95.077C35.9114 95.13 35.8313 95.2787 35.8064 95.384C35.6727 95.3487 35.5209 95.3396 35.4145 95.2649C35.3701 95.2337 35.4231 95.064 35.4421 94.8289Z" fill="#ABA99B"/>
<path d="M35.9495 93.451C36.1526 93.5612 36.3008 93.602 36.3773 93.699C36.4189 93.7521 36.3388 93.9008 36.3138 94.0061C36.1802 93.9707 36.0283 93.9616 35.922 93.887C35.8775 93.8558 35.9305 93.686 35.9495 93.451Z" fill="#ABA99B"/>
<path d="M36.27 90.7554C36.0407 90.6607 35.8616 90.6254 35.8582 90.5778C35.8491 90.4475 35.8961 90.3016 35.963 90.1859C35.9783 90.1592 36.2258 90.2 36.2521 90.2598C36.3018 90.3729 36.2682 90.5224 36.27 90.7554Z" fill="#ABA99B"/>
<path d="M36.7834 89.3772C36.5541 89.2826 36.3749 89.2472 36.3716 89.1996C36.3627 89.0693 36.4095 88.9235 36.4763 88.8078C36.4917 88.781 36.7392 88.8218 36.7655 88.8816C36.8151 88.9945 36.7816 89.1442 36.7834 89.3772Z" fill="#ABA99B"/>
<path d="M34.8601 97.9539C34.853 97.7376 34.8504 97.66 34.8478 97.5821C34.9309 97.6265 35.0352 97.6534 35.0904 97.7209C35.1296 97.7685 35.103 97.8705 35.1058 97.9481C35.0052 97.9505 34.9045 97.9528 34.8601 97.9539Z" fill="#ABA99B"/>
<path d="M33.5394 94.6802C33.4998 94.6654 33.4318 94.6496 33.4326 94.6387C33.437 94.5749 33.4575 94.5122 33.4726 94.4489L33.6258 94.5062C33.597 94.5643 33.5682 94.6224 33.5394 94.6802Z" fill="#ABA99B"/>
<path d="M28.7745 102.299C29.5493 102.447 29.7033 102.854 29.3104 103.718C29.2181 103.495 28.776 103.903 28.794 103.41C28.8018 103.197 28.6692 102.921 28.5095 102.77C27.8995 102.194 28.8889 102.564 28.7745 102.299Z" fill="#ABA99B"/>
<path d="M28.6242 100.838C28.7553 100.942 28.8754 101.065 29.0192 101.145C29.4115 101.365 29.4394 101.605 29.1086 101.909C28.9872 102.021 28.8985 102.168 28.7948 102.299C28.664 102.195 28.5436 102.073 28.3998 101.992C28.0077 101.772 27.9796 101.533 28.3106 101.228C28.4321 101.116 28.5207 100.969 28.6242 100.838Z" fill="#ABA99B"/>
<path d="M28.2251 100.525C27.7599 100.307 27.8473 100.061 28.1312 99.751C28.471 99.3795 28.4541 99.3641 28.9128 99.7552C29.2628 100.054 29.241 100.057 28.7698 100.645C28.4544 101.038 28.4019 100.52 28.2251 100.525Z" fill="#ABA99B"/>
<path d="M31.4384 105.389C31.8026 105.388 32.0538 105.335 32.2691 105.401C32.4834 105.466 32.5361 106.096 32.3378 106.171C32.1274 106.25 31.7993 106.289 31.6482 106.176C31.5039 106.069 31.5213 105.744 31.4384 105.389Z" fill="#ABA99B"/>
<path d="M29.9514 103.932C30.2923 103.907 30.5383 103.84 30.7611 103.886C30.9741 103.93 31.0677 104.556 30.8716 104.651C30.6722 104.748 30.3404 104.804 30.1883 104.701C30.0396 104.599 30.0448 104.273 29.9514 103.932Z" fill="#ABA99B"/>
<path d="M29.9009 103.397C29.8996 103.033 29.8471 102.782 29.9126 102.567C29.9779 102.352 30.6079 102.3 30.6828 102.498C30.7621 102.708 30.8003 103.037 30.6877 103.188C30.5803 103.332 30.2556 103.315 29.9009 103.397Z" fill="#ABA99B"/>
<path d="M29.7455 101.939C29.7353 101.58 29.6391 101.204 29.7413 101.139C29.9433 101.01 30.2554 101.052 30.5221 101.024C30.5318 101.262 30.6345 101.567 30.5247 101.718C30.4194 101.864 30.0947 101.852 29.7455 101.939Z" fill="#ABA99B"/>
<path d="M27.9928 99.1765C28.1423 98.794 28.2432 98.5039 28.3776 98.2303C28.3963 98.1924 28.6727 98.2241 28.6751 98.2438C28.7089 98.5018 28.7671 98.7779 28.7 99.0161C28.6753 99.1042 28.3391 99.1045 27.9928 99.1765Z" fill="#ABA99B"/>
<path d="M29.5932 104.61C29.4973 104.534 29.4094 104.443 29.3038 104.384C28.8935 104.157 29.1205 103.94 29.3038 103.718C29.6463 103.935 29.768 104.225 29.5932 104.61Z" fill="#ABA99B"/>
<path d="M33.3191 107.39C33.357 107.156 33.3463 106.978 33.397 106.958C33.5186 106.911 33.6692 106.938 33.8083 106.935C33.8072 107.044 33.8496 107.209 33.7963 107.251C33.6985 107.327 33.5439 107.331 33.3191 107.39Z" fill="#ABA99B"/>
<path d="M30.935 105.657C31.0016 105.71 31.0874 105.752 31.128 105.82C31.1529 105.862 31.108 105.945 31.0944 106.009C30.8469 105.812 30.5994 105.614 30.3516 105.417C30.4127 105.392 30.4982 105.328 30.5307 105.348C30.6737 105.438 30.8017 105.552 30.935 105.657Z" fill="#ABA99B"/>
<path d="M31.4622 104.14C31.6933 104.145 31.8436 104.114 31.9559 104.165C32.0173 104.193 32.0139 104.362 32.0397 104.467C31.9047 104.497 31.7653 104.558 31.6366 104.54C31.5828 104.533 31.5524 104.357 31.4622 104.14Z" fill="#ABA99B"/>
<path d="M31.2889 102.679C31.5201 102.684 31.6704 102.653 31.7827 102.704C31.8441 102.733 31.8407 102.901 31.8664 103.007C31.7315 103.036 31.5921 103.097 31.4634 103.079C31.4096 103.072 31.3792 102.896 31.2889 102.679Z" fill="#ABA99B"/>
<path d="M30.3379 100.14C30.0899 100.161 29.9139 100.211 29.8892 100.17C29.8214 100.058 29.7966 99.9064 29.8031 99.7729C29.8047 99.7419 30.044 99.6649 30.0949 99.7061C30.1911 99.7844 30.2297 99.9332 30.3379 100.14Z" fill="#ABA99B"/>
<path d="M30.1707 98.6796C29.9227 98.6999 29.7467 98.7505 29.7219 98.7096C29.6541 98.5974 29.6294 98.4457 29.6359 98.3122C29.6375 98.2812 29.8771 98.2043 29.9279 98.2455C30.0239 98.3237 30.0625 98.4726 30.1707 98.6796Z" fill="#ABA99B"/>
<path d="M32.3773 107.189C32.2722 107 32.2346 106.932 32.1967 106.864C32.291 106.866 32.3961 106.842 32.4759 106.877C32.5326 106.901 32.5554 107.004 32.5933 107.072C32.5049 107.12 32.4163 107.168 32.3773 107.189Z" fill="#ABA99B"/>
<path d="M29.7111 104.876C29.6686 104.881 29.6009 104.898 29.5967 104.888C29.5712 104.829 29.5608 104.763 29.5454 104.7C29.5998 104.694 29.654 104.687 29.7085 104.681C29.7092 104.746 29.7103 104.811 29.7111 104.876Z" fill="#ABA99B"/>
<path d="M84.3868 102.058V73.6208H94.6212L99.3478 85.1443C99.504 85.561 99.6473 85.9906 99.7775 86.4333C99.9077 86.8761 100.025 87.3253 100.129 87.781H100.266C100.24 87.3123 100.227 86.8826 100.227 86.4919C100.24 86.0883 100.246 85.6521 100.246 85.1833V73.6208H108.586V102.058H98.4103L93.547 90.574C93.3907 90.1703 93.2475 89.7602 93.1173 89.3435C93.0001 88.9268 92.8894 88.4906 92.7853 88.0349H92.6486C92.6876 88.5037 92.7072 88.9138 92.7072 89.2654C92.7202 89.6169 92.7267 90.0271 92.7267 90.4958V102.058H84.3868ZM110.32 88.6599V87.0193C110.32 82.2667 111.583 78.7706 114.109 76.531C116.636 74.2784 119.865 73.1521 123.797 73.1521C127.729 73.1521 130.965 74.2784 133.504 76.531C136.043 78.7706 137.313 82.2667 137.313 87.0193V88.6599C137.313 93.4125 136.043 96.9151 133.504 99.1677C130.965 101.407 127.729 102.527 123.797 102.527C119.865 102.527 116.636 101.407 114.109 99.1677C111.583 96.9151 110.32 93.4125 110.32 88.6599ZM120.809 91.3357C120.809 92.9763 121.063 94.1222 121.57 94.7732C122.091 95.4242 122.833 95.7498 123.797 95.7498C124.761 95.7498 125.503 95.4242 126.024 94.7732C126.557 94.1222 126.824 92.9763 126.824 91.3357V84.3826C126.824 82.755 126.557 81.6287 126.024 81.0037C125.503 80.3656 124.761 80.0466 123.797 80.0466C122.833 80.0466 122.091 80.3656 121.57 81.0037C121.063 81.6287 120.809 82.755 120.809 84.3826V91.3357ZM148.965 102.058V73.6208H159.043V83.3669H164.004V73.6208H174.063V102.058H164.004V91.3943H159.043V102.058H148.965ZM176.363 102.058V73.6208H186.559V102.058H176.363ZM188.918 102.058V73.6208H201.125C205.057 73.6208 208.215 74.7732 210.598 77.0779C212.994 79.3826 214.192 82.6768 214.192 86.9607V88.6013C214.192 92.8722 212.987 96.186 210.578 98.5427C208.169 100.886 205.018 102.058 201.125 102.058H188.918ZM198.762 95.2615H200.285C201.379 95.2615 202.271 94.8448 202.961 94.0115C203.651 93.1781 203.996 91.7654 203.996 89.7732V85.9451C203.996 83.9268 203.658 82.5401 202.981 81.7849C202.304 81.0297 201.405 80.6521 200.285 80.6521H198.762V95.2615ZM215.926 102.058V73.6208H228.133C232.065 73.6208 235.223 74.7732 237.606 77.0779C240.001 79.3826 241.199 82.6768 241.199 86.9607V88.6013C241.199 92.8722 239.995 96.186 237.586 98.5427C235.177 100.886 232.026 102.058 228.133 102.058H215.926ZM225.77 95.2615H227.293C228.387 95.2615 229.279 94.8448 229.969 94.0115C230.659 93.1781 231.004 91.7654 231.004 89.7732V85.9451C231.004 83.9268 230.665 82.5401 229.988 81.7849C229.311 81.0297 228.413 80.6521 227.293 80.6521H225.77V95.2615ZM242.934 102.058V73.6208H264.399V81.2771H252.66V84.2654H262.777V91.1404H252.66V94.6365H264.711V102.058H242.934ZM266.192 102.058V73.6208H276.426L281.152 85.1443C281.309 85.561 281.452 85.9906 281.582 86.4333C281.712 86.8761 281.83 87.3253 281.934 87.781H282.07C282.044 87.3123 282.031 86.8826 282.031 86.4919C282.044 86.0883 282.051 85.6521 282.051 85.1833V73.6208H290.391V102.058H280.215L275.352 90.574C275.195 90.1703 275.052 89.7602 274.922 89.3435C274.805 88.9268 274.694 88.4906 274.59 88.0349H274.453C274.492 88.5037 274.512 88.9138 274.512 89.2654C274.525 89.6169 274.531 90.0271 274.531 90.4958V102.058H266.192ZM302.746 102.058V73.6208H323.195V81.2576H312.824V85.1052H321.887V92.1755H312.824V102.058H302.746ZM324.442 102.058V73.6208H345.906V81.2771H334.168V84.2654H344.285V91.1404H334.168V94.6365H346.219V102.058H324.442ZM347.699 102.058V73.6208H369.164V81.2771H357.426V84.2654H367.543V91.1404H357.426V94.6365H369.477V102.058H347.699ZM369.942 94.1091V92.7419H379.434V93.406C379.434 94.2654 379.662 94.9034 380.117 95.3201C380.586 95.7367 381.237 95.9451 382.07 95.9451C382.839 95.9451 383.431 95.7953 383.848 95.4958C384.277 95.1964 384.492 94.7732 384.492 94.2263C384.492 93.5753 384.277 93.087 383.848 92.7615C383.431 92.436 382.044 91.9542 379.688 91.3162C376.706 90.4958 374.375 89.3956 372.695 88.0154C371.016 86.6352 370.169 84.682 370.156 82.156C370.156 79.2654 371.237 77.0453 373.399 75.4958C375.56 73.9464 378.366 73.1716 381.817 73.1716C385.28 73.1716 388.093 73.8878 390.254 75.3201C392.429 76.7393 393.516 78.7445 393.516 81.3357V82.5076H384.219V81.9802C384.219 81.3422 384.03 80.8409 383.652 80.4763C383.275 80.1117 382.721 79.9294 381.992 79.9294C381.25 79.9294 380.71 80.0597 380.371 80.3201C380.033 80.5675 379.863 80.906 379.863 81.3357C379.863 81.8175 380.078 82.1625 380.508 82.3708C380.951 82.5792 382.448 83.0154 385 83.6794C387.734 84.3956 389.942 85.4633 391.621 86.8826C393.301 88.2888 394.147 90.3787 394.16 93.1521C394.16 96.225 393.047 98.5557 390.82 100.144C388.594 101.733 385.716 102.527 382.188 102.527C378.685 102.527 375.768 101.83 373.438 100.437C371.107 99.044 369.942 96.9347 369.942 94.1091Z" fill="black"/>
<path d="M450.602 97.1154C452.77 100.406 450.339 105.833 445.173 109.236C440.007 112.639 434.062 112.73 431.894 109.439C429.726 106.148 432.157 100.722 437.323 97.3185C442.489 93.9156 448.434 93.8246 450.602 97.1154Z" fill="white"/>
<path d="M450.602 97.1154C452.77 100.406 450.339 105.833 445.173 109.236C440.007 112.639 434.062 112.73 431.894 109.439C429.726 106.148 432.157 100.722 437.323 97.3185C442.489 93.9156 448.434 93.8246 450.602 97.1154Z" stroke="black" stroke-width="1.82012" stroke-miterlimit="10" stroke-linecap="round"/>
<path d="M445.451 99.3703C446.487 97.0497 446.899 94.3715 446.495 91.6114C445.421 84.2803 438.999 79.1496 432.15 80.1522C425.301 81.1546 420.619 87.9106 421.692 95.2421C422.765 102.573 429.188 107.704 436.036 106.701" fill="white"/>
<path d="M445.451 99.3703C446.487 97.0497 446.899 94.3715 446.495 91.6114C445.421 84.2803 438.999 79.1496 432.15 80.1522C425.301 81.1546 420.619 87.9106 421.692 95.2421C422.765 102.573 429.188 107.704 436.036 106.701" stroke="black" stroke-width="1.82012" stroke-miterlimit="10" stroke-linecap="round"/>
<path d="M438.371 80.9148C438.371 80.9148 431.737 78.1568 431.529 70.4884C431.321 62.8203 419.383 62.4159 424.845 77.7382L427.772 84.553" fill="white"/>
<path d="M438.371 80.9148C438.371 80.9148 431.737 78.1568 431.529 70.4884C431.321 62.8203 419.383 62.4159 424.845 77.7382L427.772 84.553" stroke="black" stroke-width="1.82012" stroke-miterlimit="10" stroke-linecap="round"/>
<path d="M432 83.9334C432 83.9334 423.678 79.2628 421.606 70.2415C419.535 61.2202 405.401 63.5871 415.474 80.4102L422.624 89.23" fill="white"/>
<path d="M432 83.9334C432 83.9334 423.678 79.2628 421.606 70.2415C419.535 61.2202 405.401 63.5871 415.474 80.4102L422.624 89.23" stroke="black" stroke-width="1.82012" stroke-miterlimit="10" stroke-linecap="round"/>
<path d="M427.337 86.7511C427.337 86.7511 420.556 77.3963 415.167 78.5754C406.203 80.5362 407.382 91.4101 411.013 93.0945C414.645 94.7789 416.306 89.3037 416.267 87.7707L422.165 92.3782" fill="white"/>
<path d="M427.337 86.7511C427.337 86.7511 420.556 77.3963 415.167 78.5754C406.203 80.5362 407.382 91.4101 411.013 93.0945C414.645 94.7789 416.306 89.3037 416.267 87.7707L422.165 92.3782" stroke="black" stroke-width="1.82012" stroke-miterlimit="10" stroke-linecap="round"/>
<path d="M424.768 94.7923C424.768 94.7923 421.06 96.9159 417.536 95.2757C414.206 93.7255 412.951 91.8489 410.829 93.6105C407.195 96.6272 412.408 109.445 427.468 102.993" fill="white"/>
<path d="M424.768 94.7923C424.768 94.7923 421.06 96.9159 417.536 95.2757C414.206 93.7255 412.951 91.8489 410.829 93.6105C407.195 96.6272 412.408 109.445 427.468 102.993" stroke="black" stroke-width="1.82012" stroke-miterlimit="10" stroke-linecap="round"/>
<path d="M443.472 91.9681C442.85 92.453 442.899 92.8857 443.643 93.4746C443.623 93.2346 444.203 93.3956 443.961 92.965C443.857 92.7791 443.849 92.4733 443.923 92.2661C444.202 91.4748 443.491 92.2554 443.472 91.9681Z" fill="#ABA99B"/>
<path d="M442.971 90.5902C442.901 90.742 442.85 90.9064 442.759 91.0437C442.511 91.4186 442.595 91.6443 443.029 91.7642C443.187 91.8081 443.334 91.8986 443.485 91.968C443.555 91.8159 443.606 91.6518 443.697 91.5145C443.945 91.1396 443.861 90.9139 443.427 90.794C443.269 90.7498 443.122 90.6594 442.971 90.5902Z" fill="#ABA99B"/>
<path d="M443.152 90.1364C443.467 89.7308 443.277 89.5516 442.882 89.4052C442.41 89.2297 442.418 89.2084 442.189 89.7659C442.014 90.1913 442.034 90.184 442.722 90.4921C443.182 90.6983 442.992 90.2129 443.152 90.1364Z" fill="#ABA99B"/>
<path d="M442.519 95.9269C442.194 96.092 441.947 96.1598 441.785 96.3164C441.624 96.4724 441.865 97.0571 442.076 97.033C442.299 97.0077 442.609 96.8918 442.692 96.7228C442.771 96.5613 442.607 96.2802 442.519 95.9269Z" fill="#ABA99B"/>
<path d="M443.168 93.9575C442.853 94.0906 442.604 94.1436 442.427 94.2864C442.257 94.4229 442.46 95.0222 442.678 95.0176C442.899 95.0126 443.22 94.9112 443.308 94.7495C443.394 94.5911 443.24 94.303 443.168 93.9575Z" fill="#ABA99B"/>
<path d="M442.987 93.4566C442.822 93.1318 442.754 92.8843 442.598 92.7228C442.442 92.5621 441.857 92.8026 441.881 93.013C441.906 93.2366 442.022 93.546 442.191 93.629C442.353 93.7085 442.634 93.5447 442.987 93.4566Z" fill="#ABA99B"/>
<path d="M442.45 92.0874C442.295 91.7637 442.209 91.3854 442.089 91.3737C441.85 91.351 441.591 91.5312 441.341 91.6274C441.441 91.8438 441.489 92.1618 441.656 92.2468C441.816 92.3287 442.099 92.1691 442.45 92.0874Z" fill="#ABA99B"/>
<path d="M442.76 88.8258C442.453 88.5538 442.23 88.3416 441.986 88.1594C441.952 88.1341 441.721 88.2886 441.728 88.3073C441.815 88.5522 441.89 88.8245 442.058 89.006C442.12 89.0731 442.419 88.9199 442.76 88.8258Z" fill="#ABA99B"/>
<path d="M443.801 94.4001C443.851 94.2889 443.888 94.168 443.955 94.0678C444.217 93.6786 443.915 93.5881 443.651 93.4747C443.446 93.8245 443.47 94.1373 443.801 94.4001Z" fill="#ABA99B"/>
<path d="M441.757 98.5701C441.618 98.3803 441.546 98.2173 441.492 98.223C441.363 98.2363 441.242 98.3291 441.118 98.3899C441.168 98.4861 441.205 98.6507 441.272 98.6635C441.393 98.6866 441.532 98.6201 441.757 98.5701Z" fill="#ABA99B"/>
<path d="M443.098 95.9376C443.062 96.0151 443.005 96.091 443 96.1704C442.997 96.2187 443.075 96.272 443.116 96.3232C443.246 96.0346 443.377 95.746 443.507 95.4574C443.441 95.4628 443.336 95.4446 443.316 95.4774C443.23 95.623 443.168 95.7829 443.098 95.9376Z" fill="#ABA99B"/>
<path d="M441.933 94.8289C441.73 94.9391 441.582 94.98 441.505 95.077C441.464 95.13 441.544 95.2787 441.569 95.384C441.703 95.3487 441.854 95.3396 441.961 95.2649C442.005 95.2337 441.952 95.064 441.933 94.8289Z" fill="#ABA99B"/>
<path d="M441.426 93.451C441.223 93.5612 441.074 93.602 440.998 93.699C440.956 93.7521 441.036 93.9008 441.061 94.0061C441.195 93.9707 441.347 93.9616 441.453 93.887C441.498 93.8558 441.445 93.686 441.426 93.451Z" fill="#ABA99B"/>
<path d="M441.105 90.7551C441.335 90.6605 441.514 90.6251 441.517 90.5775C441.526 90.4473 441.479 90.3014 441.412 90.1857C441.397 90.1589 441.15 90.1997 441.123 90.2595C441.074 90.3726 441.107 90.5222 441.105 90.7551Z" fill="#ABA99B"/>
<path d="M440.592 89.377C440.821 89.2823 441 89.2469 441.004 89.1994C441.013 89.0691 440.966 88.9232 440.899 88.8075C440.884 88.7807 440.636 88.8216 440.61 88.8814C440.56 88.9942 440.594 89.144 440.592 89.377Z" fill="#ABA99B"/>
<path d="M442.515 97.9539C442.522 97.7376 442.525 97.66 442.527 97.5821C442.444 97.6265 442.34 97.6534 442.285 97.7209C442.246 97.7685 442.272 97.8705 442.269 97.9481C442.37 97.9505 442.471 97.9528 442.515 97.9539Z" fill="#ABA99B"/>
<path d="M443.836 94.6802C443.875 94.6654 443.943 94.6496 443.943 94.6387C443.938 94.5749 443.918 94.5122 443.903 94.4489L443.749 94.5062C443.778 94.5643 443.807 94.6224 443.836 94.6802Z" fill="#ABA99B"/>
<path d="M448.601 102.299C447.826 102.447 447.672 102.854 448.065 103.718C448.157 103.495 448.599 103.903 448.581 103.409C448.574 103.197 448.706 102.921 448.866 102.77C449.476 102.194 448.486 102.564 448.601 102.299Z" fill="#ABA99B"/>
<path d="M448.751 100.838C448.62 100.942 448.5 101.065 448.356 101.145C447.964 101.365 447.936 101.605 448.267 101.909C448.388 102.021 448.477 102.168 448.58 102.299C448.711 102.195 448.832 102.073 448.975 101.992C449.367 101.772 449.395 101.533 449.064 101.228C448.943 101.116 448.854 100.969 448.751 100.838Z" fill="#ABA99B"/>
<path d="M449.15 100.525C449.615 100.307 449.528 100.061 449.244 99.751C448.904 99.3795 448.921 99.3641 448.462 99.7552C448.112 100.054 448.134 100.057 448.605 100.645C448.921 101.038 448.973 100.52 449.15 100.525Z" fill="#ABA99B"/>
<path d="M445.937 105.389C445.573 105.388 445.322 105.335 445.106 105.401C444.892 105.466 444.839 106.096 445.038 106.171C445.248 106.25 445.576 106.288 445.727 106.176C445.871 106.068 445.854 105.744 445.937 105.389Z" fill="#ABA99B"/>
<path d="M447.424 103.932C447.083 103.906 446.837 103.84 446.614 103.886C446.401 103.93 446.308 104.556 446.504 104.651C446.703 104.748 447.035 104.804 447.187 104.7C447.336 104.599 447.33 104.272 447.424 103.932Z" fill="#ABA99B"/>
<path d="M447.474 103.397C447.476 103.033 447.528 102.782 447.463 102.567C447.397 102.352 446.767 102.3 446.692 102.498C446.613 102.708 446.575 103.037 446.688 103.188C446.795 103.332 447.12 103.315 447.474 103.397Z" fill="#ABA99B"/>
<path d="M447.63 101.939C447.64 101.58 447.736 101.204 447.634 101.139C447.432 101.01 447.12 101.052 446.853 101.024C446.844 101.262 446.741 101.567 446.851 101.718C446.956 101.864 447.281 101.852 447.63 101.939Z" fill="#ABA99B"/>
<path d="M449.382 99.1765C449.233 98.794 449.132 98.5039 448.998 98.2303C448.979 98.1924 448.703 98.2241 448.7 98.2438C448.666 98.5018 448.608 98.7779 448.675 99.0161C448.7 99.1042 449.036 99.1045 449.382 99.1765Z" fill="#ABA99B"/>
<path d="M447.782 104.61C447.878 104.534 447.966 104.443 448.071 104.384C448.482 104.157 448.255 103.94 448.071 103.718C447.729 103.935 447.607 104.225 447.782 104.61Z" fill="#ABA99B"/>
<path d="M444.056 107.39C444.018 107.156 444.029 106.977 443.978 106.957C443.857 106.91 443.706 106.938 443.567 106.935C443.568 107.044 443.526 107.209 443.579 107.251C443.677 107.327 443.831 107.331 444.056 107.39Z" fill="#ABA99B"/>
<path d="M446.44 105.657C446.374 105.71 446.288 105.752 446.247 105.82C446.222 105.862 446.267 105.945 446.281 106.009C446.528 105.812 446.776 105.614 447.024 105.417C446.963 105.392 446.877 105.328 446.845 105.348C446.702 105.438 446.574 105.552 446.44 105.657Z" fill="#ABA99B"/>
<path d="M445.913 104.14C445.682 104.145 445.532 104.114 445.419 104.165C445.358 104.193 445.361 104.362 445.336 104.467C445.471 104.497 445.61 104.558 445.739 104.54C445.792 104.533 445.823 104.357 445.913 104.14Z" fill="#ABA99B"/>
<path d="M446.086 102.679C445.855 102.684 445.705 102.653 445.593 102.704C445.531 102.733 445.535 102.901 445.509 103.007C445.644 103.036 445.783 103.097 445.912 103.079C445.966 103.072 445.996 102.896 446.086 102.679Z" fill="#ABA99B"/>
<path d="M447.037 100.14C447.285 100.16 447.461 100.211 447.486 100.17C447.554 100.058 447.579 99.9061 447.572 99.7726C447.571 99.7416 447.331 99.6647 447.28 99.7059C447.184 99.7841 447.146 99.933 447.037 100.14Z" fill="#ABA99B"/>
<path d="M447.205 98.6793C447.453 98.6997 447.629 98.7502 447.653 98.7093C447.721 98.5972 447.746 98.4455 447.739 98.312C447.738 98.2809 447.498 98.204 447.447 98.2452C447.351 98.3234 447.313 98.4723 447.205 98.6793Z" fill="#ABA99B"/>
<path d="M444.998 107.189C445.103 107 445.141 106.932 445.179 106.864C445.084 106.866 444.979 106.842 444.899 106.877C444.843 106.901 444.82 107.004 444.782 107.072C444.87 107.12 444.959 107.168 444.998 107.189Z" fill="#ABA99B"/>
<path d="M447.664 104.876C447.707 104.881 447.774 104.898 447.779 104.888C447.804 104.829 447.814 104.763 447.83 104.7C447.775 104.694 447.721 104.687 447.667 104.681C447.666 104.746 447.665 104.811 447.664 104.876Z" fill="#ABA99B"/>
</svg>
