<svg width="485" height="121" viewBox="0 0 485 121" fill="none" xmlns="http://www.w3.org/2000/svg">
<path d="M3.41602 55.7087V21.5837H14.2441C17.6348 21.5837 20.2363 22.5056 22.0488 24.3494C23.877 26.1931 24.791 28.6462 24.791 31.7087C24.791 34.7869 23.8613 37.2791 22.002 39.1853C20.1582 41.0759 17.5645 42.0212 14.2207 42.0212H8.26758V55.7087H3.41602ZM8.26758 38.365H13.7988C16.0645 38.365 17.6504 37.7478 18.5566 36.5134C19.4629 35.2791 19.916 33.7166 19.916 31.8259C19.916 29.9197 19.4629 28.3728 18.5566 27.1853C17.6504 25.9822 16.0645 25.3806 13.7988 25.3806H8.26758V38.365ZM20.9004 55.7087L13.0957 40.1228L17.8535 39.3728L26.2676 55.7087H20.9004ZM29.2598 55.7087V21.5837H49.2051V25.5447H34.0176V36.2791H47.0254V40.0759H34.0176V51.7947H49.4629V55.7087H29.2598ZM49.8066 55.7087L61.2441 21.49H66.6113L78.002 55.7087H73.0566L64.666 29.5994C64.4785 29.0056 64.3223 28.4744 64.1973 28.0056C64.0723 27.5212 63.9395 27.0291 63.7988 26.5291H63.6816C63.5566 27.0291 63.4238 27.5212 63.2832 28.0056C63.1582 28.4744 63.002 29.0056 62.8145 29.5994L54.5176 55.7087H49.8066ZM55.1504 47.0603L56.2051 43.4275H71.4395L72.5176 47.0603H55.1504ZM80.4316 55.7087V21.5837H85.2832V51.7478H99.6738V55.7087H80.4316ZM103.088 55.7087V21.5837H107.939V51.7478H122.33V55.7087H103.088ZM131.252 55.7087V42.5369L120.283 21.5837H125.627L132.658 35.4353C132.877 35.8728 133.072 36.2791 133.244 36.6541C133.432 37.0291 133.611 37.4275 133.783 37.8494H133.9C134.072 37.4275 134.244 37.0291 134.416 36.6541C134.588 36.2791 134.791 35.8728 135.025 35.4353L142.08 21.5837H147.025L136.104 42.49V55.7087H131.252ZM145.564 59.8103C146.174 58.9666 146.65 58.0994 146.994 57.2087C147.338 56.3337 147.51 55.3181 147.51 54.1619V50.3884H151.916V54.1619C151.916 55.5837 151.627 56.8806 151.049 58.0525C150.486 59.2244 149.721 60.2478 148.752 61.1228L145.564 59.8103ZM173.721 55.8728L165.729 21.5837H170.533L176.229 46.9666C176.322 47.3572 176.393 47.74 176.439 48.115C176.486 48.4744 176.541 48.9041 176.604 49.4041H176.768C176.83 48.9041 176.893 48.4744 176.955 48.115C177.018 47.74 177.096 47.3572 177.189 46.9666L183.4 21.5837H188.416L194.768 46.9666C194.877 47.3572 194.955 47.74 195.002 48.115C195.064 48.4744 195.127 48.9119 195.189 49.4275H195.33C195.393 48.8962 195.447 48.4509 195.494 48.0916C195.557 47.7166 195.627 47.3416 195.705 46.9666L201.283 21.5837H205.76L197.791 55.8728H192.752L186.33 30.2087C186.236 29.8494 186.143 29.4509 186.049 29.0134C185.971 28.5759 185.9 28.115 185.838 27.6306H185.697C185.635 28.115 185.557 28.5759 185.463 29.0134C185.385 29.4353 185.299 29.8337 185.205 30.2087L178.783 55.8728H173.721ZM208.869 55.7087V21.5837H228.814V25.5447H213.627V36.2791H226.635V40.0759H213.627V51.7947H229.072V55.7087H208.869ZM242.088 55.7087V21.5837H248.557L257.604 46.4509C257.791 46.9666 257.963 47.4822 258.119 47.9978C258.275 48.5134 258.408 49.0447 258.518 49.5916H258.658C258.768 49.0447 258.9 48.5134 259.057 47.9978C259.213 47.4822 259.377 46.9666 259.549 46.4509L268.596 21.5837H275.111V55.7087H270.354V31.4041C270.354 30.8884 270.361 30.3181 270.377 29.6931C270.393 29.0525 270.424 28.4744 270.471 27.9587H270.33C270.221 28.49 270.072 29.0681 269.885 29.6931C269.713 30.3181 269.541 30.8884 269.369 31.4041L260.604 55.7087H256.268L247.502 31.4041C247.314 30.8884 247.119 30.2712 246.916 29.5525C246.729 28.8337 246.611 28.3025 246.564 27.9587H246.424C246.455 28.3025 246.479 28.8337 246.494 29.5525C246.525 30.2712 246.541 30.8884 246.541 31.4041V55.7087H242.088ZM280.963 55.7087V21.5837H300.908V25.5447H285.721V36.2791H298.729V40.0759H285.721V51.7947H301.166V55.7087H280.963ZM301.51 55.7087L312.947 21.49H318.314L329.705 55.7087H324.76L316.369 29.5994C316.182 29.0056 316.025 28.4744 315.9 28.0056C315.775 27.5212 315.643 27.0291 315.502 26.5291H315.385C315.26 27.0291 315.127 27.5212 314.986 28.0056C314.861 28.4744 314.705 29.0056 314.518 29.5994L306.221 55.7087H301.51ZM306.854 47.0603L307.908 43.4275H323.143L324.221 47.0603H306.854ZM332.135 55.7087V21.5837H337.244L350.416 45.4666C350.682 45.9509 350.924 46.4431 351.143 46.9431C351.361 47.4431 351.549 47.9275 351.705 48.3962H351.846C351.814 47.8806 351.799 47.3416 351.799 46.7791C351.799 46.2166 351.799 45.6775 351.799 45.1619V21.5837H356.158V55.7087H351.119L337.83 31.7322C337.58 31.2634 337.346 30.7791 337.127 30.2791C336.908 29.7791 336.721 29.2947 336.564 28.8259H336.424C336.455 29.3416 336.471 29.8884 336.471 30.4666C336.486 31.0291 336.494 31.5759 336.494 32.1072V55.7087H332.135ZM369.572 55.7087V52.7322L386.4 25.5212H370.252V21.5837H392.471V24.6541L375.666 51.8181H393.15V55.7087H369.572ZM396.916 55.7087V21.5837H416.861V25.5447H401.674V36.2791H414.682V40.0759H401.674V51.7947H417.119V55.7087H396.916ZM420.791 55.7087V21.5837H431.619C435.01 21.5837 437.611 22.5056 439.424 24.3494C441.252 26.1931 442.166 28.6462 442.166 31.7087C442.166 34.7869 441.236 37.2791 439.377 39.1853C437.533 41.0759 434.939 42.0212 431.596 42.0212H425.643V55.7087H420.791ZM425.643 38.365H431.174C433.439 38.365 435.025 37.7478 435.932 36.5134C436.838 35.2791 437.291 33.7166 437.291 31.8259C437.291 29.9197 436.838 28.3728 435.932 27.1853C435.025 25.9822 433.439 25.3806 431.174 25.3806H425.643V38.365ZM438.275 55.7087L430.471 40.1228L435.229 39.3728L443.643 55.7087H438.275ZM445.838 39.6306V37.6619C445.838 32.0056 447.08 27.8181 449.564 25.0994C452.064 22.3806 455.283 21.0212 459.221 21.0212C463.174 21.0212 466.393 22.3806 468.877 25.0994C471.377 27.8181 472.627 32.0056 472.627 37.6619V39.6306C472.627 45.2869 471.377 49.4744 468.877 52.1931C466.393 54.9119 463.174 56.2712 459.221 56.2712C455.283 56.2712 452.064 54.9119 449.564 52.1931C447.08 49.4744 445.838 45.2869 445.838 39.6306ZM450.807 40.2166C450.807 44.4509 451.564 47.5525 453.08 49.5212C454.611 51.4744 456.658 52.4509 459.221 52.4509C461.783 52.4509 463.822 51.4744 465.338 49.5212C466.869 47.5525 467.635 44.4509 467.635 40.2166V37.0994C467.635 32.865 466.869 29.7712 465.338 27.8181C463.822 25.8494 461.783 24.865 459.221 24.865C456.658 24.865 454.611 25.8494 453.08 27.8181C451.564 29.7712 450.807 32.865 450.807 37.0994V40.2166Z" fill="black"/>
<path d="M24.447 105.601C22.4717 108.6 24.6865 113.545 29.3939 116.646C34.1013 119.747 39.5188 119.83 41.4942 116.831C43.4695 113.832 41.2546 108.887 36.5472 105.786C31.8398 102.686 26.4223 102.603 24.447 105.601Z" fill="white"/>
<path d="M24.447 105.601C22.4717 108.6 24.6865 113.545 29.3939 116.646C34.1013 119.747 39.5188 119.83 41.4942 116.831C43.4695 113.832 41.2546 108.887 36.5472 105.786C31.8398 102.686 26.4223 102.603 24.447 105.601Z" stroke="black" stroke-width="1.65854" stroke-miterlimit="10" stroke-linecap="round"/>
<path d="M29.1407 107.656C28.1967 105.541 27.8217 103.101 28.1899 100.586C29.1677 93.9056 35.0197 89.2304 41.2608 90.144C47.5016 91.0574 51.7683 97.2136 50.7905 103.894C49.8124 110.575 43.9604 115.25 37.7196 114.336" fill="white"/>
<path d="M29.1407 107.656C28.1967 105.541 27.8217 103.101 28.1899 100.586C29.1677 93.9056 35.0197 89.2304 41.2608 90.144C47.5016 91.0574 51.7683 97.2136 50.7905 103.894C49.8124 110.575 43.9604 115.25 37.7196 114.336" stroke="black" stroke-width="1.65854" stroke-miterlimit="10" stroke-linecap="round"/>
<path d="M35.5918 90.8391C35.5918 90.8391 41.6369 88.326 41.8265 81.3383C42.016 74.3509 52.8946 73.9825 47.9171 87.9445L45.2506 94.1543" fill="white"/>
<path d="M35.5918 90.8391C35.5918 90.8391 41.6369 88.326 41.8265 81.3383C42.016 74.3509 52.8946 73.9825 47.9171 87.9445L45.2506 94.1543" stroke="black" stroke-width="1.65854" stroke-miterlimit="10" stroke-linecap="round"/>
<path d="M41.3975 93.5897C41.3975 93.5897 48.9808 89.3336 50.8684 81.1132C52.7558 72.8928 65.6351 75.0496 56.456 90.3792L49.9413 98.416" fill="white"/>
<path d="M41.3975 93.5897C41.3975 93.5897 48.9808 89.3336 50.8684 81.1132C52.7558 72.8928 65.6351 75.0496 56.456 90.3792L49.9413 98.416" stroke="black" stroke-width="1.65854" stroke-miterlimit="10" stroke-linecap="round"/>
<path d="M45.647 96.1572C45.647 96.1572 51.8253 87.6328 56.7364 88.7073C64.904 90.494 63.8305 100.403 60.521 101.937C57.2115 103.472 55.6982 98.4832 55.7342 97.0863L50.3593 101.285" fill="white"/>
<path d="M45.647 96.1572C45.647 96.1572 51.8253 87.6328 56.7364 88.7073C64.904 90.494 63.8305 100.403 60.521 101.937C57.2115 103.472 55.6982 98.4832 55.7342 97.0863L50.3593 101.285" stroke="black" stroke-width="1.65854" stroke-miterlimit="10" stroke-linecap="round"/>
<path d="M47.9877 103.485C47.9877 103.485 51.3668 105.42 54.5775 103.925C57.6117 102.512 58.7554 100.802 60.689 102.408C64.0004 105.157 59.2501 116.836 45.5273 110.957" fill="white"/>
<path d="M47.9877 103.485C47.9877 103.485 51.3668 105.42 54.5775 103.925C57.6117 102.512 58.7554 100.802 60.689 102.408C64.0004 105.157 59.2501 116.836 45.5273 110.957" stroke="black" stroke-width="1.65854" stroke-miterlimit="10" stroke-linecap="round"/>
<path d="M30.9438 100.911C31.5106 101.353 31.466 101.747 30.7884 102.284C30.8062 102.065 30.2783 102.212 30.4979 101.819C30.5927 101.65 30.6 101.371 30.5332 101.182C30.2785 100.461 30.9268 101.173 30.9438 100.911Z" fill="#ABA99B"/>
<path d="M31.4006 99.6556C31.4636 99.794 31.5101 99.9437 31.5932 100.069C31.8197 100.41 31.7427 100.616 31.3478 100.725C31.203 100.765 31.0698 100.848 30.9315 100.911C30.8682 100.773 30.8218 100.623 30.7388 100.498C30.5123 100.156 30.5893 99.9506 30.9843 99.8414C31.1291 99.8011 31.2622 99.7186 31.4006 99.6556Z" fill="#ABA99B"/>
<path d="M31.2357 99.2418C30.9488 98.8722 31.122 98.709 31.4812 98.5756C31.9115 98.4156 31.9041 98.3962 32.1133 98.9042C32.2728 99.2918 32.2538 99.2852 31.6274 99.5659C31.2078 99.7538 31.3812 99.3115 31.2357 99.2418Z" fill="#ABA99B"/>
<path d="M31.8121 104.518C32.108 104.669 32.3335 104.731 32.4807 104.873C32.6273 105.015 32.4082 105.548 32.2163 105.526C32.0125 105.503 31.7305 105.398 31.655 105.244C31.5827 105.096 31.7317 104.84 31.8121 104.518Z" fill="#ABA99B"/>
<path d="M31.2211 102.724C31.508 102.845 31.7353 102.893 31.8966 103.023C32.0511 103.148 31.8665 103.694 31.668 103.69C31.4661 103.685 31.1737 103.593 31.0934 103.445C31.0152 103.301 31.1553 103.039 31.2211 102.724Z" fill="#ABA99B"/>
<path d="M31.3857 102.267C31.5362 101.971 31.598 101.746 31.7407 101.599C31.8828 101.452 32.4157 101.671 32.3939 101.863C32.3707 102.067 32.265 102.349 32.111 102.424C31.9639 102.497 31.7077 102.348 31.3857 102.267Z" fill="#ABA99B"/>
<path d="M31.875 101.02C32.016 100.725 32.0942 100.38 32.2043 100.369C32.4221 100.349 32.6574 100.513 32.8853 100.601C32.7943 100.798 32.7507 101.088 32.5986 101.165C32.4526 101.24 32.1944 101.094 31.875 101.02Z" fill="#ABA99B"/>
<path d="M31.5923 98.0476C31.8726 97.7998 32.0752 97.6064 32.2979 97.4403C32.3289 97.4173 32.5395 97.5581 32.5334 97.5751C32.4535 97.7983 32.3858 98.0464 32.2325 98.2118C32.1759 98.2729 31.9031 98.1334 31.5923 98.0476Z" fill="#ABA99B"/>
<path d="M30.6442 103.127C30.598 103.026 30.5646 102.916 30.5032 102.824C30.2649 102.47 30.5397 102.387 30.7804 102.284C30.9676 102.603 30.9461 102.888 30.6442 103.127Z" fill="#ABA99B"/>
<path d="M32.5068 106.927C32.6341 106.754 32.6992 106.605 32.7485 106.611C32.866 106.623 32.9762 106.707 33.0892 106.763C33.0435 106.85 33.0096 107 32.9492 107.012C32.8388 107.033 32.7125 106.972 32.5068 106.927Z" fill="#ABA99B"/>
<path d="M31.285 104.528C31.3173 104.599 31.3694 104.668 31.3739 104.74C31.3767 104.784 31.3059 104.833 31.2682 104.88C31.1495 104.617 31.0308 104.354 30.9121 104.091C30.9721 104.096 31.0682 104.079 31.086 104.109C31.1647 104.242 31.2208 104.387 31.285 104.528Z" fill="#ABA99B"/>
<path d="M32.3461 103.518C32.5311 103.618 32.6662 103.655 32.7358 103.744C32.7737 103.792 32.7007 103.928 32.678 104.024C32.5562 103.991 32.4178 103.983 32.3209 103.915C32.2804 103.887 32.3288 103.732 32.3461 103.518Z" fill="#ABA99B"/>
<path d="M32.8085 102.262C32.9935 102.363 33.1286 102.4 33.1982 102.488C33.2361 102.537 33.1632 102.672 33.1404 102.768C33.0186 102.736 32.8803 102.728 32.7833 102.66C32.7428 102.631 32.7912 102.476 32.8085 102.262Z" fill="#ABA99B"/>
<path d="M33.1005 99.8059C32.8915 99.7197 32.7282 99.6874 32.7251 99.6441C32.7169 99.5254 32.7597 99.3925 32.8206 99.287C32.8346 99.2626 33.0602 99.2998 33.0841 99.3543C33.1294 99.4574 33.0988 99.5936 33.1005 99.8059Z" fill="#ABA99B"/>
<path d="M33.5682 98.55C33.3592 98.4638 33.196 98.4316 33.1929 98.3882C33.1848 98.2695 33.2275 98.1366 33.2884 98.0312C33.3023 98.0068 33.5279 98.044 33.5518 98.0985C33.5971 98.2013 33.5665 98.3378 33.5682 98.55Z" fill="#ABA99B"/>
<path d="M31.8159 106.365C31.8095 106.168 31.8071 106.097 31.8047 106.026C31.8806 106.066 31.9759 106.091 32.0263 106.152C32.0621 106.196 32.0378 106.289 32.0404 106.36C31.9485 106.362 31.8565 106.364 31.8159 106.365Z" fill="#ABA99B"/>
<path d="M30.6127 103.382C30.5765 103.369 30.5144 103.354 30.5151 103.344C30.5192 103.286 30.5379 103.229 30.5516 103.171L30.6916 103.223C30.6653 103.276 30.639 103.33 30.6127 103.382Z" fill="#ABA99B"/>
<path d="M26.2705 110.325C26.9766 110.46 27.1169 110.831 26.7589 111.618C26.6748 111.415 26.272 111.786 26.2883 111.337C26.2954 111.143 26.1746 110.892 26.0291 110.754C25.4733 110.229 26.3748 110.566 26.2705 110.325Z" fill="#ABA99B"/>
<path d="M26.1335 108.993C26.2529 109.088 26.3624 109.2 26.4934 109.273C26.8509 109.474 26.8763 109.692 26.5749 109.969C26.4642 110.071 26.3834 110.205 26.2889 110.325C26.1697 110.23 26.06 110.118 25.929 110.045C25.5717 109.844 25.5461 109.626 25.8477 109.349C25.9584 109.247 26.0392 109.113 26.1335 108.993Z" fill="#ABA99B"/>
<path d="M25.7699 108.708C25.3461 108.51 25.4257 108.286 25.6844 108.003C25.9941 107.664 25.9787 107.65 26.3966 108.007C26.7155 108.279 26.6956 108.282 26.2663 108.817C25.9789 109.176 25.9311 108.704 25.7699 108.708Z" fill="#ABA99B"/>
<path d="M28.6978 113.141C29.0297 113.139 29.2586 113.091 29.4548 113.151C29.65 113.211 29.6981 113.785 29.5173 113.853C29.3256 113.925 29.0266 113.96 28.889 113.857C28.7575 113.76 28.7733 113.464 28.6978 113.141Z" fill="#ABA99B"/>
<path d="M27.3428 111.813C27.6534 111.79 27.8775 111.729 28.0806 111.771C28.2746 111.811 28.3599 112.382 28.1813 112.468C27.9996 112.556 27.6972 112.608 27.5586 112.513C27.4231 112.42 27.4278 112.123 27.3428 111.813Z" fill="#ABA99B"/>
<path d="M27.2966 111.326C27.2954 110.994 27.2476 110.765 27.3073 110.569C27.3667 110.373 27.9408 110.325 28.0091 110.506C28.0813 110.698 28.1162 110.997 28.0136 111.134C27.9157 111.266 27.6198 111.25 27.2966 111.326Z" fill="#ABA99B"/>
<path d="M27.1551 109.997C27.1459 109.67 27.0582 109.327 27.1514 109.268C27.3355 109.15 27.6198 109.189 27.8629 109.163C27.8716 109.379 27.9652 109.657 27.8652 109.795C27.7693 109.929 27.4734 109.917 27.1551 109.997Z" fill="#ABA99B"/>
<path d="M25.5581 107.479C25.6943 107.131 25.7863 106.867 25.9088 106.617C25.9258 106.583 26.1777 106.612 26.1798 106.63C26.2106 106.865 26.2637 107.116 26.2026 107.333C26.1801 107.414 25.8737 107.414 25.5581 107.479Z" fill="#ABA99B"/>
<path d="M27.0165 112.43C26.929 112.361 26.849 112.278 26.7528 112.225C26.3789 112.018 26.5857 111.82 26.7528 111.617C27.0648 111.816 27.1757 112.079 27.0165 112.43Z" fill="#ABA99B"/>
<path d="M30.4116 114.964C30.4462 114.751 30.4364 114.588 30.4826 114.57C30.5934 114.527 30.7306 114.552 30.8574 114.55C30.8564 114.649 30.895 114.799 30.8464 114.837C30.7573 114.906 30.6165 114.91 30.4116 114.964Z" fill="#ABA99B"/>
<path d="M28.2392 113.385C28.2999 113.433 28.378 113.471 28.415 113.533C28.4377 113.571 28.3968 113.647 28.3844 113.705C28.1589 113.525 27.9333 113.346 27.7075 113.166C27.7632 113.143 27.8412 113.084 27.8708 113.103C28.0011 113.185 28.1177 113.289 28.2392 113.385Z" fill="#ABA99B"/>
<path d="M28.7197 112.002C28.9304 112.007 29.0673 111.978 29.1697 112.025C29.2256 112.051 29.2225 112.205 29.246 112.301C29.123 112.327 28.996 112.383 28.8787 112.367C28.8297 112.36 28.8019 112.2 28.7197 112.002Z" fill="#ABA99B"/>
<path d="M28.562 110.671C28.7726 110.676 28.9096 110.647 29.0119 110.694C29.0679 110.72 29.0648 110.874 29.0882 110.97C28.9653 110.996 28.8383 111.052 28.721 111.036C28.6719 111.029 28.6442 110.869 28.562 110.671Z" fill="#ABA99B"/>
<path d="M27.6952 108.358C27.4693 108.376 27.3089 108.422 27.2864 108.385C27.2246 108.283 27.202 108.145 27.2079 108.023C27.2094 107.995 27.4275 107.925 27.4738 107.962C27.5615 108.033 27.5966 108.169 27.6952 108.358Z" fill="#ABA99B"/>
<path d="M27.5424 107.027C27.3165 107.045 27.1561 107.091 27.1335 107.054C27.0717 106.952 27.0492 106.814 27.0551 106.692C27.0565 106.664 27.2749 106.594 27.3212 106.631C27.4086 106.702 27.4438 106.838 27.5424 107.027Z" fill="#ABA99B"/>
<path d="M29.5537 114.781C29.4577 114.608 29.4233 114.546 29.3887 114.484C29.4749 114.485 29.5709 114.464 29.6437 114.495C29.6956 114.518 29.7163 114.612 29.751 114.674C29.6702 114.717 29.5893 114.761 29.5537 114.781Z" fill="#ABA99B"/>
<path d="M27.1245 112.673C27.0857 112.678 27.0238 112.693 27.02 112.684C26.9967 112.63 26.9872 112.57 26.9731 112.512C27.0229 112.506 27.0724 112.501 27.1221 112.495C27.1228 112.554 27.1237 112.614 27.1245 112.673Z" fill="#ABA99B"/>
<path d="M76.2363 113.709V79.5837H81.3457L94.5176 103.467C94.7832 103.951 95.0254 104.443 95.2441 104.943C95.4629 105.443 95.6504 105.927 95.8066 106.396H95.9473C95.916 105.881 95.9004 105.342 95.9004 104.779C95.9004 104.217 95.9004 103.677 95.9004 103.162V79.5837H100.26V113.709H95.2207L81.9316 89.7322C81.6816 89.2634 81.4473 88.7791 81.2285 88.2791C81.0098 87.7791 80.8223 87.2947 80.666 86.8259H80.5254C80.5566 87.3416 80.5723 87.8884 80.5723 88.4666C80.5879 89.0291 80.5957 89.5759 80.5957 90.1072V113.709H76.2363ZM104.986 97.6306V95.6619C104.986 90.0056 106.229 85.8181 108.713 83.0994C111.213 80.3806 114.432 79.0212 118.369 79.0212C122.322 79.0212 125.541 80.3806 128.025 83.0994C130.525 85.8181 131.775 90.0056 131.775 95.6619V97.6306C131.775 103.287 130.525 107.474 128.025 110.193C125.541 112.912 122.322 114.271 118.369 114.271C114.432 114.271 111.213 112.912 108.713 110.193C106.229 107.474 104.986 103.287 104.986 97.6306ZM109.955 98.2166C109.955 102.451 110.713 105.552 112.229 107.521C113.76 109.474 115.807 110.451 118.369 110.451C120.932 110.451 122.971 109.474 124.486 107.521C126.018 105.552 126.783 102.451 126.783 98.2166V95.0994C126.783 90.865 126.018 87.7712 124.486 85.8181C122.971 83.8494 120.932 82.865 118.369 82.865C115.807 82.865 113.76 83.8494 112.229 85.8181C110.713 87.7712 109.955 90.865 109.955 95.0994V98.2166ZM146.268 113.709V79.5837H151.119V94.0681H165.814V79.5837H170.666V113.709H165.814V98.0994H151.119V113.709H146.268ZM176.611 113.709V79.5837H181.486V113.709H176.611ZM187.455 113.709V79.5837H197.135C201.432 79.5837 204.869 81.0056 207.447 83.8494C210.041 86.6931 211.338 90.6306 211.338 95.6619V97.6072C211.338 102.623 210.057 106.56 207.494 109.42C204.932 112.279 201.479 113.709 197.135 113.709H187.455ZM192.236 109.935H196.947C199.916 109.935 202.236 108.888 203.908 106.795C205.58 104.701 206.416 101.724 206.416 97.865V95.4275C206.416 91.5525 205.557 88.5837 203.838 86.5212C202.135 84.4587 199.838 83.4197 196.947 83.4041H192.236V109.935ZM216.111 113.709V79.5837H225.791C230.088 79.5837 233.525 81.0056 236.104 83.8494C238.697 86.6931 239.994 90.6306 239.994 95.6619V97.6072C239.994 102.623 238.713 106.56 236.15 109.42C233.588 112.279 230.135 113.709 225.791 113.709H216.111ZM220.893 109.935H225.604C228.572 109.935 230.893 108.888 232.564 106.795C234.236 104.701 235.072 101.724 235.072 97.865V95.4275C235.072 91.5525 234.213 88.5837 232.494 86.5212C230.791 84.4587 228.494 83.4197 225.604 83.4041H220.893V109.935ZM244.768 113.709V79.5837H264.713V83.5447H249.525V94.2791H262.533V98.0759H249.525V109.795H264.971V113.709H244.768ZM268.643 113.709V79.5837H273.752L286.924 103.467C287.189 103.951 287.432 104.443 287.65 104.943C287.869 105.443 288.057 105.927 288.213 106.396H288.354C288.322 105.881 288.307 105.342 288.307 104.779C288.307 104.217 288.307 103.677 288.307 103.162V79.5837H292.666V113.709H287.627L274.338 89.7322C274.088 89.2634 273.854 88.7791 273.635 88.2791C273.416 87.7791 273.229 87.2947 273.072 86.8259H272.932C272.963 87.3416 272.979 87.8884 272.979 88.4666C272.994 89.0291 273.002 89.5759 273.002 90.1072V113.709H268.643ZM308.189 113.709V79.5837H326.963V83.5447H313.041V94.7712H325.158V98.5916H313.041V113.709H308.189ZM330.424 113.709V79.5837H350.369V83.5447H335.182V94.2791H348.189V98.0759H335.182V109.795H350.627V113.709H330.424ZM354.299 113.709V79.5837H374.244V83.5447H359.057V94.2791H372.064V98.0759H359.057V109.795H374.502V113.709H354.299ZM377.307 104.498V103.279H382.018V104.334C382.018 106.412 382.619 107.967 383.822 108.998C385.025 110.013 386.705 110.521 388.861 110.521C391.002 110.521 392.643 110.021 393.783 109.021C394.939 108.006 395.518 106.662 395.518 104.99C395.518 103.443 394.979 102.217 393.9 101.31C392.838 100.388 390.76 99.4119 387.666 98.3806C384.307 97.2712 381.838 95.99 380.26 94.5369C378.697 93.0681 377.916 90.9587 377.916 88.2087C377.916 85.49 378.869 83.2791 380.775 81.5759C382.697 79.8728 385.338 79.0212 388.697 79.0212C391.994 79.0212 394.635 79.8728 396.619 81.5759C398.604 83.2634 399.596 85.5759 399.596 88.5134V89.4509H394.932V88.6541C394.932 86.8572 394.4 85.4353 393.338 84.3884C392.291 83.3416 390.752 82.8181 388.721 82.8181C386.611 82.8181 385.064 83.2791 384.08 84.2009C383.111 85.1228 382.627 86.3728 382.627 87.9509C382.627 89.4041 383.158 90.5603 384.221 91.4197C385.283 92.2791 387.377 93.2166 390.502 94.2322C393.814 95.3103 396.268 96.6462 397.861 98.24C399.455 99.8337 400.252 101.998 400.252 104.732C400.252 107.623 399.221 109.935 397.158 111.67C395.111 113.404 392.354 114.271 388.885 114.271C385.432 114.271 382.635 113.435 380.494 111.763C378.369 110.076 377.307 107.654 377.307 104.498Z" fill="black"/>
<path d="M450.541 105.601C452.517 108.6 450.302 113.545 445.594 116.646C440.887 119.747 435.469 119.83 433.494 116.831C431.519 113.832 433.734 108.887 438.441 105.786C443.148 102.686 448.566 102.603 450.541 105.601Z" fill="white"/>
<path d="M450.541 105.601C452.517 108.6 450.302 113.545 445.594 116.646C440.887 119.747 435.469 119.83 433.494 116.831C431.519 113.832 433.734 108.887 438.441 105.786C443.148 102.686 448.566 102.603 450.541 105.601Z" stroke="black" stroke-width="1.65854" stroke-miterlimit="10" stroke-linecap="round"/>
<path d="M445.848 107.656C446.792 105.541 447.167 103.101 446.798 100.586C445.821 93.9056 439.969 89.2304 433.727 90.144C427.487 91.0574 423.22 97.2136 424.198 103.894C425.176 110.575 431.028 115.25 437.269 114.336" fill="white"/>
<path d="M445.848 107.656C446.792 105.541 447.167 103.101 446.798 100.586C445.821 93.9056 439.969 89.2304 433.727 90.144C427.487 91.0574 423.22 97.2136 424.198 103.894C425.176 110.575 431.028 115.25 437.269 114.336" stroke="black" stroke-width="1.65854" stroke-miterlimit="10" stroke-linecap="round"/>
<path d="M439.396 90.8389C439.396 90.8389 433.351 88.3257 433.162 81.3381C432.972 74.3507 422.094 73.9822 427.071 87.9443L429.738 94.1541" fill="white"/>
<path d="M439.396 90.8389C439.396 90.8389 433.351 88.3257 433.162 81.3381C432.972 74.3506 422.094 73.9822 427.071 87.9443L429.738 94.1541" stroke="black" stroke-width="1.65854" stroke-miterlimit="10" stroke-linecap="round"/>
<path d="M433.591 93.5897C433.591 93.5897 426.008 89.3336 424.12 81.1132C422.232 72.8928 409.353 75.0496 418.532 90.3792L425.047 98.416" fill="white"/>
<path d="M433.591 93.5897C433.591 93.5897 426.008 89.3336 424.12 81.1132C422.232 72.8928 409.353 75.0496 418.532 90.3792L425.047 98.416" stroke="black" stroke-width="1.65854" stroke-miterlimit="10" stroke-linecap="round"/>
<path d="M429.341 96.1572C429.341 96.1572 423.163 87.6328 418.252 88.7073C410.084 90.494 411.158 100.403 414.467 101.937C417.777 103.472 419.29 98.4832 419.254 97.0863L424.629 101.285" fill="white"/>
<path d="M429.341 96.1572C429.341 96.1572 423.163 87.6328 418.252 88.7073C410.084 90.494 411.158 100.403 414.467 101.937C417.777 103.472 419.29 98.4832 419.254 97.0863L424.629 101.285" stroke="black" stroke-width="1.65854" stroke-miterlimit="10" stroke-linecap="round"/>
<path d="M427.001 103.484C427.001 103.484 423.621 105.419 420.411 103.925C417.377 102.512 416.233 100.802 414.299 102.407C410.988 105.156 415.738 116.836 429.461 110.957" fill="white"/>
<path d="M427.001 103.484C427.001 103.484 423.621 105.419 420.411 103.925C417.377 102.512 416.233 100.802 414.299 102.407C410.988 105.156 415.738 116.836 429.461 110.957" stroke="black" stroke-width="1.65854" stroke-miterlimit="10" stroke-linecap="round"/>
<path d="M444.044 100.911C443.478 101.353 443.522 101.747 444.2 102.284C444.182 102.065 444.71 102.212 444.49 101.819C444.396 101.65 444.388 101.371 444.455 101.182C444.71 100.461 444.062 101.173 444.044 100.911Z" fill="#ABA99B"/>
<path d="M443.588 99.6554C443.525 99.7937 443.478 99.9435 443.395 100.069C443.169 100.41 443.246 100.616 443.641 100.725C443.785 100.765 443.918 100.848 444.057 100.911C444.12 100.772 444.167 100.623 444.249 100.498C444.476 100.156 444.399 99.9504 444.004 99.8411C443.859 99.8009 443.726 99.7184 443.588 99.6554Z" fill="#ABA99B"/>
<path d="M443.753 99.2418C444.039 98.8722 443.866 98.709 443.507 98.5756C443.077 98.4156 443.084 98.3962 442.875 98.9042C442.715 99.2918 442.734 99.2852 443.361 99.5659C443.781 99.7538 443.607 99.3115 443.753 99.2418Z" fill="#ABA99B"/>
<path d="M443.176 104.518C442.88 104.669 442.655 104.731 442.508 104.873C442.361 105.015 442.58 105.548 442.772 105.526C442.976 105.503 443.258 105.398 443.333 105.244C443.406 105.096 443.257 104.84 443.176 104.518Z" fill="#ABA99B"/>
<path d="M443.767 102.724C443.48 102.845 443.253 102.893 443.092 103.023C442.937 103.148 443.122 103.694 443.32 103.69C443.522 103.685 443.815 103.593 443.895 103.445C443.973 103.301 443.833 103.039 443.767 102.724Z" fill="#ABA99B"/>
<path d="M443.603 102.267C443.452 101.971 443.39 101.746 443.248 101.599C443.105 101.452 442.573 101.671 442.594 101.863C442.618 102.067 442.723 102.349 442.877 102.424C443.024 102.497 443.281 102.348 443.603 102.267Z" fill="#ABA99B"/>
<path d="M443.113 101.02C442.972 100.725 442.894 100.38 442.783 100.369C442.566 100.349 442.33 100.513 442.103 100.6C442.193 100.798 442.237 101.087 442.389 101.165C442.535 101.239 442.793 101.094 443.113 101.02Z" fill="#ABA99B"/>
<path d="M443.396 98.0476C443.115 97.7998 442.913 97.6064 442.69 97.4403C442.659 97.4173 442.448 97.5581 442.454 97.5751C442.534 97.7983 442.602 98.0464 442.755 98.2118C442.812 98.2729 443.085 98.1334 443.396 98.0476Z" fill="#ABA99B"/>
<path d="M444.344 103.127C444.39 103.026 444.424 102.916 444.485 102.824C444.723 102.47 444.449 102.387 444.208 102.284C444.021 102.603 444.042 102.888 444.344 103.127Z" fill="#ABA99B"/>
<path d="M442.481 106.927C442.354 106.754 442.289 106.605 442.24 106.611C442.122 106.623 442.012 106.707 441.899 106.763C441.945 106.85 441.979 107 442.039 107.012C442.15 107.033 442.276 106.972 442.481 106.927Z" fill="#ABA99B"/>
<path d="M443.703 104.528C443.671 104.599 443.619 104.668 443.614 104.74C443.612 104.784 443.682 104.833 443.72 104.879C443.839 104.616 443.957 104.353 444.076 104.09C444.016 104.095 443.92 104.079 443.902 104.109C443.824 104.241 443.767 104.387 443.703 104.528Z" fill="#ABA99B"/>
<path d="M442.642 103.518C442.457 103.618 442.322 103.655 442.252 103.744C442.215 103.792 442.288 103.928 442.31 104.024C442.432 103.991 442.57 103.983 442.667 103.915C442.708 103.887 442.66 103.732 442.642 103.518Z" fill="#ABA99B"/>
<path d="M442.179 102.262C441.994 102.363 441.859 102.4 441.79 102.488C441.752 102.537 441.825 102.672 441.847 102.768C441.969 102.736 442.108 102.728 442.204 102.66C442.245 102.631 442.197 102.476 442.179 102.262Z" fill="#ABA99B"/>
<path d="M441.888 99.8057C442.097 99.7194 442.26 99.6872 442.263 99.6438C442.271 99.5251 442.229 99.3922 442.168 99.2868C442.154 99.2624 441.928 99.2996 441.904 99.3541C441.859 99.4571 441.889 99.5934 441.888 99.8057Z" fill="#ABA99B"/>
<path d="M441.42 98.5498C441.629 98.4636 441.792 98.4313 441.795 98.388C441.803 98.2693 441.761 98.1364 441.7 98.0309C441.686 98.0065 441.46 98.0437 441.436 98.0982C441.391 98.201 441.422 98.3375 441.42 98.5498Z" fill="#ABA99B"/>
<path d="M443.172 106.365C443.179 106.168 443.181 106.097 443.184 106.026C443.108 106.066 443.012 106.091 442.962 106.152C442.926 106.196 442.95 106.289 442.948 106.36C443.04 106.362 443.132 106.364 443.172 106.365Z" fill="#ABA99B"/>
<path d="M444.376 103.382C444.412 103.369 444.474 103.354 444.473 103.344C444.469 103.286 444.45 103.229 444.437 103.171L444.297 103.223C444.323 103.276 444.349 103.33 444.376 103.382Z" fill="#ABA99B"/>
<path d="M448.718 110.325C448.012 110.459 447.871 110.831 448.229 111.617C448.314 111.415 448.716 111.786 448.7 111.337C448.693 111.143 448.814 110.891 448.959 110.754C449.515 110.229 448.613 110.566 448.718 110.325Z" fill="#ABA99B"/>
<path d="M448.855 108.993C448.735 109.088 448.626 109.2 448.495 109.273C448.137 109.474 448.112 109.692 448.413 109.969C448.524 110.071 448.605 110.205 448.699 110.325C448.819 110.23 448.928 110.118 449.059 110.045C449.417 109.844 449.442 109.626 449.141 109.349C449.03 109.247 448.949 109.113 448.855 108.993Z" fill="#ABA99B"/>
<path d="M449.218 108.708C449.642 108.51 449.563 108.286 449.304 108.003C448.994 107.664 449.01 107.65 448.592 108.007C448.273 108.279 448.293 108.282 448.722 108.817C449.009 109.176 449.057 108.704 449.218 108.708Z" fill="#ABA99B"/>
<path d="M446.291 113.14C445.959 113.139 445.73 113.091 445.534 113.151C445.338 113.21 445.29 113.785 445.471 113.853C445.663 113.925 445.962 113.96 446.099 113.857C446.231 113.759 446.215 113.463 446.291 113.14Z" fill="#ABA99B"/>
<path d="M447.646 111.812C447.335 111.79 447.111 111.729 446.908 111.771C446.714 111.811 446.628 112.381 446.807 112.468C446.989 112.556 447.291 112.607 447.43 112.513C447.565 112.42 447.56 112.123 447.646 111.812Z" fill="#ABA99B"/>
<path d="M447.691 111.326C447.692 110.994 447.74 110.765 447.681 110.569C447.621 110.373 447.047 110.325 446.979 110.506C446.906 110.698 446.872 110.997 446.974 111.134C447.072 111.266 447.368 111.25 447.691 111.326Z" fill="#ABA99B"/>
<path d="M447.833 109.997C447.842 109.67 447.93 109.327 447.837 109.268C447.653 109.15 447.369 109.189 447.125 109.163C447.117 109.379 447.023 109.657 447.123 109.795C447.219 109.929 447.515 109.917 447.833 109.997Z" fill="#ABA99B"/>
<path d="M449.43 107.479C449.294 107.131 449.202 106.867 449.08 106.617C449.062 106.583 448.811 106.612 448.808 106.63C448.778 106.865 448.725 107.116 448.786 107.333C448.808 107.414 449.115 107.414 449.43 107.479Z" fill="#ABA99B"/>
<path d="M447.972 112.43C448.059 112.361 448.139 112.278 448.236 112.225C448.609 112.018 448.403 111.82 448.236 111.617C447.923 111.816 447.813 112.079 447.972 112.43Z" fill="#ABA99B"/>
<path d="M444.577 114.964C444.542 114.75 444.552 114.588 444.506 114.57C444.395 114.527 444.258 114.552 444.131 114.549C444.132 114.649 444.093 114.799 444.142 114.837C444.231 114.906 444.372 114.91 444.577 114.964Z" fill="#ABA99B"/>
<path d="M446.749 113.385C446.688 113.433 446.61 113.471 446.573 113.533C446.551 113.571 446.592 113.647 446.604 113.705C446.829 113.525 447.055 113.346 447.281 113.166C447.225 113.143 447.147 113.084 447.118 113.103C446.987 113.185 446.871 113.289 446.749 113.385Z" fill="#ABA99B"/>
<path d="M446.269 112.002C446.058 112.007 445.921 111.978 445.819 112.025C445.763 112.051 445.766 112.205 445.742 112.301C445.865 112.327 445.992 112.383 446.11 112.367C446.159 112.36 446.186 112.2 446.269 112.002Z" fill="#ABA99B"/>
<path d="M446.427 110.671C446.216 110.676 446.079 110.647 445.977 110.694C445.921 110.72 445.924 110.874 445.901 110.97C446.023 110.996 446.15 111.052 446.268 111.036C446.317 111.029 446.345 110.869 446.427 110.671Z" fill="#ABA99B"/>
<path d="M447.293 108.357C447.519 108.376 447.679 108.422 447.702 108.385C447.764 108.283 447.786 108.144 447.78 108.023C447.779 107.994 447.561 107.924 447.514 107.962C447.427 108.033 447.392 108.169 447.293 108.357Z" fill="#ABA99B"/>
<path d="M447.445 107.026C447.671 107.045 447.832 107.091 447.854 107.054C447.916 106.952 447.939 106.813 447.933 106.692C447.931 106.663 447.713 106.593 447.667 106.631C447.579 106.702 447.544 106.838 447.445 107.026Z" fill="#ABA99B"/>
<path d="M445.435 114.781C445.531 114.608 445.565 114.546 445.6 114.484C445.513 114.485 445.417 114.464 445.345 114.495C445.293 114.518 445.272 114.612 445.237 114.674C445.318 114.717 445.399 114.761 445.435 114.781Z" fill="#ABA99B"/>
<path d="M447.864 112.673C447.903 112.678 447.964 112.693 447.968 112.684C447.992 112.63 448.001 112.57 448.015 112.512C447.965 112.506 447.916 112.501 447.866 112.495C447.865 112.554 447.865 112.614 447.864 112.673Z" fill="#ABA99B"/>
<path d="M456.917 7.40232C444.263 3.03645 431.291 0.499821 418.12 0.162277C407.008 -0.12027 395.582 0.733958 384.582 5.89387C379.417 8.3163 374.369 11.7612 369.77 16.4983C365.013 21.4009 360.091 27.869 358.066 36.4409C357.099 40.5376 356.864 45.0692 357.772 48.9917C358.57 52.4317 360.129 55.1632 362.008 57.1838C366.172 61.6607 371.501 63.3606 376.435 65.1837C388.217 69.5414 400.386 71.9532 412.691 72.424C424.975 72.8947 437.387 71.4679 449.703 68.0944C455.827 66.4156 461.925 64.263 467.967 61.6389C472.736 59.568 478.081 57.1533 481.681 51.1038C483.338 48.3173 484.386 44.7767 484.487 41.0925C484.6 37.0201 483.54 33.1708 481.977 30.2247C480.23 26.9349 477.809 24.7616 475.267 23.1975C472.527 21.5096 469.623 20.3462 466.754 19.1842C454.749 14.3126 442.306 11.4937 429.703 10.7389C417.197 9.99122 404.537 11.2433 391.972 14.5536C388.92 15.3589 385.876 16.2852 382.84 17.3256C382.099 17.5795 382.118 19.4278 382.869 19.1689C395.087 14.9758 407.46 12.7113 419.751 12.4065C431.987 12.1005 444.135 13.7478 455.951 17.3042C458.9 18.1919 461.827 19.1986 464.729 20.3259C467.604 21.4414 470.495 22.5888 473.284 24.0834C478.061 26.6437 483.375 31.7121 483.318 40.8694C483.267 48.8782 478.372 53.9005 474.104 56.6395C471.6 58.2465 469.002 59.3395 466.42 60.4314C463.452 61.6871 460.471 62.8251 457.479 63.8486C445.609 67.9065 433.59 70.154 421.645 70.5923C409.641 71.0333 397.711 69.6241 386.082 66.3817C380.431 64.8085 374.758 62.9478 369.32 60.3087C365.139 58.2803 360.36 55.0365 358.842 48.0645C356.97 39.4665 360.75 30.479 364.921 24.5542C368.989 18.7759 373.78 14.3186 378.751 11.0597C388.778 4.48504 399.564 2.51104 410.018 2.06537C422.681 1.52759 435.251 3.05335 447.522 6.40772C450.577 7.24364 453.614 8.19195 456.632 9.23196C457.355 9.48141 457.637 7.64856 456.916 7.39949L456.917 7.40232Z" fill="black"/>
</svg>
