<svg width="438" height="32" viewBox="0 0 438 32" fill="none" xmlns="http://www.w3.org/2000/svg">
<path d="M0.241455 26.9011V1.30737H13.0735C16.05 1.30737 18.3528 2.12183 19.9817 3.75073C21.6106 5.36792 22.425 7.65308 22.425 10.6062C22.425 13.5593 21.6282 15.8445 20.0344 17.4617C18.4407 19.0789 16.0793 19.8875 12.9504 19.8875H9.18872V26.9011H0.241455ZM9.18872 13.9109H11.1047C12.0188 13.9109 12.6458 13.6414 12.9856 13.1023C13.3254 12.5632 13.4954 11.7781 13.4954 10.7468C13.4954 9.70386 13.3254 8.9187 12.9856 8.39136C12.6458 7.86401 12.0188 7.60034 11.1047 7.60034H9.18872V13.9109ZM19.8254 26.9011L28.8079 1.27222H38.5989L47.5813 26.9011H38.4407L33.7122 12.1003C33.5833 11.6667 33.4836 11.2683 33.4133 10.905C33.343 10.5417 33.2903 10.2546 33.2551 10.0437H33.1672C33.1438 10.2546 33.0911 10.5417 33.009 10.905C32.9387 11.2683 32.8391 11.6667 32.7102 12.1003L28.2102 26.9011H19.8254ZM26.2766 23.1921L27.595 17.321H39.2317L40.6204 23.1921H26.2766ZM52.0657 26.9011V17.8132L43.5403 1.30737H53.261L56.5481 7.93433C56.6653 8.18042 56.7649 8.42651 56.8469 8.67261C56.9407 8.90698 57.0227 9.14722 57.093 9.39331H57.1985C57.2805 9.14722 57.3625 8.90698 57.4446 8.67261C57.5266 8.43823 57.6262 8.19214 57.7434 7.93433L61.0481 1.30737H69.4153L61.1008 17.532V26.9011H52.0657ZM75.6067 26.9011L84.5891 1.27222H94.3801L103.363 26.9011H94.2219L89.4934 12.1003C89.3645 11.6667 89.2649 11.2683 89.1946 10.905C89.1243 10.5417 89.0715 10.2546 89.0364 10.0437H88.9485C88.925 10.2546 88.8723 10.5417 88.7903 10.905C88.72 11.2683 88.6204 11.6667 88.4915 12.1003L83.9915 26.9011H75.6067ZM82.0579 23.1921L83.3762 17.321H95.0129L96.4016 23.1921H82.0579ZM103.312 26.9011V1.30737H112.435L116.865 11.9246C117.005 12.2996 117.134 12.6804 117.251 13.0671C117.368 13.4539 117.474 13.8523 117.568 14.2625H117.691C117.667 13.8523 117.656 13.4714 117.656 13.1199C117.667 12.7683 117.673 12.3816 117.673 11.9597V1.30737H125.073V26.9011H115.968L111.45 16.3367C111.298 15.9734 111.169 15.6042 111.064 15.2292C110.958 14.8542 110.859 14.4675 110.765 14.0691H110.642C110.677 14.4792 110.695 14.8484 110.695 15.1765C110.706 15.4929 110.712 15.8679 110.712 16.3015V26.9011H103.312ZM133.531 26.9011V17.8132L125.005 1.30737H134.726L138.013 7.93433C138.13 8.18042 138.23 8.42651 138.312 8.67261C138.406 8.90698 138.488 9.14722 138.558 9.39331H138.663C138.745 9.14722 138.827 8.90698 138.909 8.67261C138.991 8.43823 139.091 8.19214 139.208 7.93433L142.513 1.30737H150.88L142.566 17.532V26.9011H133.531ZM148.861 14.8425V13.366C148.861 9.10034 149.997 5.95386 152.271 3.92651C154.544 1.88745 157.45 0.86792 160.99 0.86792C164.529 0.86792 167.441 1.88745 169.726 3.92651C172.023 5.95386 173.171 9.10034 173.171 13.366V14.8425C173.171 19.1082 172.023 22.2605 169.726 24.2996C167.441 26.3269 164.529 27.3406 160.99 27.3406C157.45 27.3406 154.544 26.3269 152.271 24.2996C149.997 22.2605 148.861 19.1082 148.861 14.8425ZM158.177 17.1628C158.177 18.698 158.417 19.7703 158.898 20.3796C159.39 20.9773 160.087 21.2761 160.99 21.2761C161.904 21.2761 162.607 20.9773 163.099 20.3796C163.603 19.7703 163.855 18.698 163.855 17.1628V11.0984C163.855 9.57495 163.603 8.5144 163.099 7.91675C162.607 7.31909 161.904 7.02026 160.99 7.02026C160.087 7.02026 159.39 7.31909 158.898 7.91675C158.417 8.5144 158.177 9.57495 158.177 11.0984V17.1628ZM174.738 26.9011V1.30737H183.861L188.29 11.9246C188.431 12.2996 188.56 12.6804 188.677 13.0671C188.794 13.4539 188.9 13.8523 188.993 14.2625H189.116C189.093 13.8523 189.081 13.4714 189.081 13.1199C189.093 12.7683 189.099 12.3816 189.099 11.9597V1.30737H196.499V26.9011H187.394L182.876 16.3367C182.724 15.9734 182.595 15.6042 182.49 15.2292C182.384 14.8542 182.284 14.4675 182.191 14.0691H182.068C182.103 14.4792 182.12 14.8484 182.12 15.1765C182.132 15.4929 182.138 15.8679 182.138 16.3015V26.9011H174.738ZM198.698 26.9011V1.30737H217.964V8.09253H207.347V10.905H216.47V17.0222H207.347V20.3093H218.228V26.9011H198.698ZM218.687 30.3113C219.273 29.5261 219.7 28.6941 219.97 27.8152C220.251 26.9363 220.392 25.9988 220.392 25.0027V19.0789H228.003L228.021 24.95C228.021 26.2625 227.734 27.5281 227.159 28.7468C226.597 29.9656 225.841 30.9675 224.892 31.7527L218.687 30.3113ZM237.095 26.9011L246.077 1.27222H255.868L264.851 26.9011H255.71L250.982 12.1003C250.853 11.6667 250.753 11.2683 250.683 10.905C250.613 10.5417 250.56 10.2546 250.525 10.0437H250.437C250.413 10.2546 250.361 10.5417 250.279 10.905C250.208 11.2683 250.109 11.6667 249.98 12.1003L245.48 26.9011H237.095ZM243.546 23.1921L244.865 17.321H256.501L257.89 23.1921H243.546ZM264.8 26.9011V1.30737H273.923L278.353 11.9246C278.493 12.2996 278.622 12.6804 278.74 13.0671C278.857 13.4539 278.962 13.8523 279.056 14.2625H279.179C279.156 13.8523 279.144 13.4714 279.144 13.1199C279.156 12.7683 279.161 12.3816 279.161 11.9597V1.30737H286.562V26.9011H277.456L272.939 16.3367C272.786 15.9734 272.657 15.6042 272.552 15.2292C272.447 14.8542 272.347 14.4675 272.253 14.0691H272.13C272.165 14.4792 272.183 14.8484 272.183 15.1765C272.195 15.4929 272.2 15.8679 272.2 16.3015V26.9011H264.8ZM295.019 26.9011V17.8132L286.493 1.30737H296.214L299.501 7.93433C299.618 8.18042 299.718 8.42651 299.8 8.67261C299.894 8.90698 299.976 9.14722 300.046 9.39331H300.152C300.234 9.14722 300.316 8.90698 300.398 8.67261C300.48 8.43823 300.579 8.19214 300.697 7.93433L304.001 1.30737H312.368L304.054 17.532V26.9011H295.019ZM316.325 26.9011L310.279 1.30737H318.945L321.863 14.7371C321.921 14.9949 321.962 15.2234 321.986 15.4226C322.021 15.6101 322.05 15.8503 322.073 16.1433H322.179C322.214 15.8503 322.243 15.6101 322.267 15.4226C322.302 15.2234 322.343 14.9949 322.39 14.7371L325.466 1.30737H334.062L337.279 14.7019C337.337 14.9714 337.378 15.2058 337.402 15.405C337.425 15.5925 337.454 15.8386 337.49 16.1433H337.595C337.63 15.8386 337.659 15.5925 337.683 15.405C337.718 15.2058 337.759 14.9714 337.806 14.7019L340.513 1.30737H348.247L342.341 26.9011H332.972L329.615 13.7C329.556 13.4539 329.509 13.2195 329.474 12.9968C329.439 12.7625 329.409 12.4988 329.386 12.2058H329.281C329.257 12.4988 329.228 12.7625 329.193 12.9968C329.157 13.2195 329.111 13.4539 329.052 13.7L325.695 26.9011H316.325ZM348.847 26.9011V1.30737H357.794V10.1492H362.488V1.30737H371.435V26.9011H362.488V17.2507H357.794V26.9011H348.847ZM373.616 26.9011V1.30737H392.882V8.09253H382.265V10.905H391.388V17.0222H382.265V20.3093H393.146V26.9011H373.616ZM394.484 26.9011V1.30737H406.806C409.712 1.30737 412.05 2.08081 413.82 3.62769C415.601 5.16284 416.491 7.30151 416.491 10.0437C416.491 12.8679 415.554 15.1003 413.679 16.741C411.816 18.3816 409.495 19.2019 406.718 19.2019H403.431V26.9011H394.484ZM403.431 13.4187H405.154C405.986 13.4187 406.577 13.1667 406.929 12.6628C407.292 12.1472 407.48 11.4148 407.491 10.4656C407.491 9.51636 407.31 8.78394 406.947 8.26831C406.583 7.75269 405.986 7.49487 405.154 7.49487H403.431V13.4187ZM407.773 26.9011L403.29 15.8093L411.728 14.28L417.581 26.9011H407.773ZM417.917 26.9011V1.30737H437.183V8.09253H426.566V10.905H435.689V17.0222H426.566V20.3093H437.447V26.9011H417.917Z" fill="black"/>
</svg>
