<svg width="1031" height="414" viewBox="0 0 1031 414" fill="none" xmlns="http://www.w3.org/2000/svg">
<path d="M73.3968 70.5669V65.9771H99.2269V67.686C99.2269 69.3787 99.6175 70.632 100.399 71.4458C101.213 72.2271 102.336 72.6177 103.768 72.6177C104.94 72.6177 105.867 72.3735 106.551 71.8853C107.235 71.3644 107.576 70.5994 107.576 69.5903C107.576 68.5487 107.17 67.7349 106.356 67.1489C105.575 66.563 102.482 65.4074 97.0784 63.6821C89.3636 61.2407 83.553 58.3761 79.6468 55.0884C75.7731 51.7681 73.8362 46.9015 73.8362 40.4888C73.8362 33.0669 76.5543 27.4028 81.9905 23.4966C87.4267 19.5578 94.4254 17.5884 102.987 17.5884C111.645 17.5884 118.709 19.2323 124.178 22.52C129.647 25.8078 132.381 30.5278 132.381 36.6802V40.4888H107.039V39.3657C107.039 38.2915 106.73 37.494 106.112 36.9731C105.526 36.4198 104.696 36.1431 103.621 36.1431C102.482 36.1431 101.668 36.3547 101.18 36.7778C100.724 37.1685 100.496 37.6893 100.496 38.3403C100.496 39.0239 100.871 39.561 101.619 39.9517C102.401 40.3097 106.047 41.3677 112.557 43.1255C119.23 44.9159 124.487 47.5526 128.328 51.0356C132.202 54.4862 134.139 59.6457 134.139 66.5142C134.139 74.229 131.339 80.1698 125.741 84.3364C120.174 88.4705 113.013 90.5376 104.256 90.5376C95.4997 90.5376 88.1592 88.8612 82.2347 85.5083C76.3428 82.1554 73.3968 77.175 73.3968 70.5669ZM136.362 89.561V18.4673H192.123V40.9282H163.901V44.5903H188.315V63.731H163.901V68.0767H193.1V89.561H136.362ZM195.323 89.561V18.4673H223.741L229.795 39.4634C230.088 40.5376 230.414 41.7746 230.772 43.1743C231.162 44.5415 231.488 45.7622 231.748 46.8364H232.041C231.976 45.7297 231.96 44.5741 231.992 43.3696C232.025 42.1652 232.041 41.0096 232.041 39.9028V18.4673H256.162V89.561H228.623L221.592 68.0767C221.234 67.0675 220.876 65.9771 220.518 64.8052C220.16 63.6333 219.867 62.5103 219.639 61.436H219.346C219.444 62.5428 219.492 63.5031 219.492 64.3169C219.492 65.0981 219.492 66.0584 219.492 67.1978V89.561H195.323ZM259.459 89.561V18.4673H293.151C302.819 18.4673 310.289 21.397 315.563 27.2563C320.869 33.0832 323.522 41.2863 323.522 51.8657V55.6743C323.522 66.2537 320.836 74.5545 315.465 80.5767C310.094 86.5662 302.656 89.561 293.151 89.561H259.459ZM287.487 70.6157H289.684C291.214 70.6157 292.386 69.8833 293.2 68.4185C294.013 66.9536 294.42 64.3332 294.42 60.5571V47.6665C294.42 43.7603 294.03 41.2375 293.248 40.0981C292.5 38.9588 291.312 38.3892 289.684 38.3892H287.487V70.6157ZM354.871 89.561V18.4673H384.315V89.561H354.871ZM387.807 89.561V18.4673H416.225L422.28 39.4634C422.573 40.5376 422.898 41.7746 423.256 43.1743C423.647 44.5415 423.972 45.7622 424.233 46.8364H424.526C424.461 45.7297 424.444 44.5741 424.477 43.3696C424.509 42.1652 424.526 41.0096 424.526 39.9028V18.4673H448.647V89.561H421.108L414.076 68.0767C413.718 67.0675 413.36 65.9771 413.002 64.8052C412.644 63.6333 412.351 62.5103 412.123 61.436H411.83C411.928 62.5428 411.977 63.5031 411.977 64.3169C411.977 65.0981 411.977 66.0584 411.977 67.1978V89.561H387.807ZM478.385 70.5669V65.9771H504.215V67.686C504.215 69.3787 504.606 70.632 505.387 71.4458C506.201 72.2271 507.324 72.6177 508.756 72.6177C509.928 72.6177 510.856 72.3735 511.539 71.8853C512.223 71.3644 512.565 70.5994 512.565 69.5903C512.565 68.5487 512.158 67.7349 511.344 67.1489C510.563 66.563 507.47 65.4074 502.067 63.6821C494.352 61.2407 488.541 58.3761 484.635 55.0884C480.761 51.7681 478.825 46.9015 478.825 40.4888C478.825 33.0669 481.543 27.4028 486.979 23.4966C492.415 19.5578 499.414 17.5884 507.975 17.5884C516.634 17.5884 523.698 19.2323 529.166 22.52C534.635 25.8078 537.369 30.5278 537.369 36.6802V40.4888H512.028V39.3657C512.028 38.2915 511.718 37.494 511.1 36.9731C510.514 36.4198 509.684 36.1431 508.61 36.1431C507.47 36.1431 506.657 36.3547 506.168 36.7778C505.713 37.1685 505.485 37.6893 505.485 38.3403C505.485 39.0239 505.859 39.561 506.608 39.9517C507.389 40.3097 511.035 41.3677 517.545 43.1255C524.218 44.9159 529.476 47.5526 533.317 51.0356C537.19 54.4862 539.127 59.6457 539.127 66.5142C539.127 74.229 536.328 80.1698 530.729 84.3364C525.162 88.4705 518.001 90.5376 509.244 90.5376C500.488 90.5376 493.147 88.8612 487.223 85.5083C481.331 82.1554 478.385 77.175 478.385 70.5669ZM541.35 89.561V18.4673H597.112V40.9282H568.889V44.5903H593.303V63.731H568.889V68.0767H598.088V89.561H541.35ZM598.944 55.9185V52.1099C598.944 39.6424 602.02 30.772 608.172 25.4985C614.357 20.1925 622.495 17.5396 632.586 17.5396C641.961 17.5396 649.367 19.5252 654.803 23.4966C660.272 27.4354 663.006 33.8807 663.006 42.8325V50.1079H636.053V39.7075C636.053 38.7635 635.793 37.9985 635.272 37.4126C634.784 36.8267 634.1 36.5337 633.221 36.5337C632.212 36.5337 631.414 36.9406 630.828 37.7544C630.275 38.5682 629.998 40.0493 629.998 42.1978V65.8794C629.998 68.2231 630.275 69.8345 630.828 70.7134C631.382 71.5923 632.179 72.0317 633.221 72.0317C634.198 72.0317 634.914 71.5923 635.369 70.7134C635.825 69.8345 636.053 68.2882 636.053 66.0747V58.4087H663.006V67.0024C663.039 74.5871 660.321 80.3976 654.852 84.4341C649.383 88.4705 641.961 90.4888 632.586 90.4888C622.365 90.4888 614.194 87.7869 608.075 82.3833C601.987 76.9797 598.944 68.158 598.944 55.9185ZM664.448 55.9185V52.1099C664.448 40.0981 667.621 31.3254 673.969 25.7915C680.349 20.2576 688.406 17.4907 698.139 17.4907C707.905 17.4907 715.961 20.2576 722.309 25.7915C728.689 31.3254 731.879 40.0981 731.879 52.1099V55.9185C731.879 67.9302 728.689 76.703 722.309 82.2368C715.961 87.7707 707.905 90.5376 698.139 90.5376C688.406 90.5376 680.349 87.7707 673.969 82.2368C667.621 76.703 664.448 67.9302 664.448 55.9185ZM694.77 65.8794C694.77 68.0929 695.03 69.6717 695.551 70.6157C696.072 71.5272 696.935 71.9829 698.139 71.9829C699.376 71.9829 700.255 71.5272 700.776 70.6157C701.297 69.6717 701.557 68.0929 701.557 65.8794V42.3442C701.557 40.1958 701.297 38.6821 700.776 37.8032C700.255 36.9243 699.376 36.4849 698.139 36.4849C696.935 36.4849 696.072 36.9243 695.551 37.8032C695.03 38.6821 694.77 40.1958 694.77 42.3442V65.8794ZM734.346 89.561V18.4673H762.764L768.819 39.4634C769.112 40.5376 769.437 41.7746 769.795 43.1743C770.186 44.5415 770.511 45.7622 770.772 46.8364H771.065C771 45.7297 770.983 44.5741 771.016 43.3696C771.048 42.1652 771.065 41.0096 771.065 39.9028V18.4673H795.186V89.561H767.647L760.616 68.0767C760.257 67.0675 759.899 65.9771 759.541 64.8052C759.183 63.6333 758.89 62.5103 758.662 61.436H758.369C758.467 62.5428 758.516 63.5031 758.516 64.3169C758.516 65.0981 758.516 66.0584 758.516 67.1978V89.561H734.346ZM798.483 89.561V18.4673H832.174C841.842 18.4673 849.313 21.397 854.586 27.2563C859.892 33.0832 862.545 41.2863 862.545 51.8657V55.6743C862.545 66.2537 859.86 74.5545 854.489 80.5767C849.117 86.5662 841.679 89.561 832.174 89.561H798.483ZM826.51 70.6157H828.707C830.237 70.6157 831.409 69.8833 832.223 68.4185C833.037 66.9536 833.444 64.3332 833.444 60.5571V47.6665C833.444 43.7603 833.053 41.2375 832.272 40.0981C831.523 38.9588 830.335 38.3892 828.707 38.3892H826.51V70.6157ZM862.815 70.5669V65.9771H888.645V67.686C888.645 69.3787 889.035 70.632 889.817 71.4458C890.631 72.2271 891.754 72.6177 893.186 72.6177C894.358 72.6177 895.285 72.3735 895.969 71.8853C896.653 71.3644 896.994 70.5994 896.994 69.5903C896.994 68.5487 896.588 67.7349 895.774 67.1489C894.992 66.563 891.9 65.4074 886.496 63.6821C878.782 61.2407 872.971 58.3761 869.065 55.0884C865.191 51.7681 863.254 46.9015 863.254 40.4888C863.254 33.0669 865.972 27.4028 871.409 23.4966C876.845 19.5578 883.843 17.5884 892.405 17.5884C901.063 17.5884 908.127 19.2323 913.596 22.52C919.065 25.8078 921.799 30.5278 921.799 36.6802V40.4888H896.457V39.3657C896.457 38.2915 896.148 37.494 895.53 36.9731C894.944 36.4198 894.114 36.1431 893.039 36.1431C891.9 36.1431 891.086 36.3547 890.598 36.7778C890.142 37.1685 889.914 37.6893 889.914 38.3403C889.914 39.0239 890.289 39.561 891.037 39.9517C891.819 40.3097 895.464 41.3677 901.975 43.1255C908.648 44.9159 913.905 47.5526 917.746 51.0356C921.62 54.4862 923.557 59.6457 923.557 66.5142C923.557 74.229 920.757 80.1698 915.159 84.3364C909.592 88.4705 902.431 90.5376 893.674 90.5376C884.918 90.5376 877.577 88.8612 871.653 85.5083C865.761 82.1554 862.815 77.175 862.815 70.5669ZM925.145 77.0122C925.145 73.2362 926.414 70.0623 928.953 67.4907C931.492 64.9191 935.106 63.6333 939.793 63.6333C944.513 63.6333 948.143 64.9191 950.682 67.4907C953.221 70.0623 954.491 73.2362 954.491 77.0122C954.491 80.8534 953.221 84.0597 950.682 86.6313C948.143 89.203 944.513 90.4888 939.793 90.4888C935.106 90.4888 931.492 89.1867 928.953 86.5825C926.414 83.9458 925.145 80.7557 925.145 77.0122Z" fill="black"/>
<path d="M3.13489 240.586V169.492H43.5646C51.4096 169.492 57.4969 171.982 61.8263 176.963C66.1883 181.943 68.3693 188.519 68.3693 196.689C68.3693 204.86 66.2697 211.387 62.0704 216.27C57.9038 221.152 51.5236 223.594 42.9298 223.594H32.09V240.586H3.13489ZM32.09 205.088H35.4103C36.9077 205.088 37.9493 204.355 38.5353 202.891C39.1538 201.393 39.463 199.554 39.463 197.373C39.463 195.094 39.1538 193.223 38.5353 191.758C37.9493 190.293 36.9077 189.561 35.4103 189.561H32.09V205.088ZM59.215 240.586L82.2618 169.492H113.317L135.436 240.586H107.262L97.8868 204.941C97.5288 203.607 97.2358 202.451 97.0079 201.475C96.8126 200.465 96.6987 199.863 96.6661 199.668H96.5685C96.5359 199.863 96.4057 200.449 96.1779 201.426C95.95 202.402 95.6896 203.558 95.3966 204.893L87.047 240.586H59.215ZM76.0118 232.676L79.2833 214.658H114.391L118.053 232.676H76.0118ZM145.373 240.586V213.975L122.766 169.492H153.918L160.852 183.555C161.08 184.076 161.291 184.548 161.486 184.971C161.682 185.361 161.861 185.801 162.024 186.289H162.219C162.382 185.801 162.544 185.361 162.707 184.971C162.902 184.548 163.114 184.076 163.342 183.555L169.983 169.492H197.326L174.817 213.926V240.586H145.373Z" fill="black"/>
<path d="M373.588 234.915C374.701 237.883 375.146 241.963 374.924 247.157C374.701 251.459 373.922 255.354 372.587 258.841C372.438 258.841 372.364 258.99 372.364 259.286H372.142V259.731C371.993 259.88 371.771 260.251 371.474 260.844C371.103 261.735 370.509 262.736 369.693 263.849C368.655 265.704 367.208 267.447 365.353 269.079C356.451 277.833 341.947 283.397 321.842 285.771C309.749 287.181 296.062 287.626 280.779 287.107C267.128 286.588 256.334 285.141 248.396 282.767C240.458 280.541 234.486 277.796 230.479 274.532C228.105 272.381 226.399 270.637 225.36 269.302C224.544 267.67 224.025 266.668 223.802 266.297C223.209 265.11 222.838 264.294 222.69 263.849C221.725 260.288 221.354 256.245 221.577 251.719C221.799 246.303 223.246 241.073 225.917 236.028C229.775 230.093 235.302 223.787 242.498 217.11C249.694 210.879 257.818 204.795 266.869 198.86C284.377 187.435 300.476 179.015 315.165 173.599L315.944 173.376C316.092 173.376 316.315 173.228 316.612 172.931C316.834 172.931 317.057 172.894 317.28 172.82C317.576 172.746 317.799 172.709 317.947 172.709C322.547 171.002 325.663 169.927 327.295 169.482C328.334 169.259 328.964 168.666 329.187 167.701C329.409 166.737 329.224 165.883 328.63 165.142C328.037 164.4 327.221 164.177 326.182 164.474C321.879 165.587 317.762 167.033 313.83 168.814C294.022 173.488 278.071 175.083 265.978 173.599C260.785 172.783 256.742 171.633 253.849 170.149C250.659 168.369 248.47 166.477 247.283 164.474C246.764 163.732 246.319 162.656 245.948 161.247C245.948 161.098 245.911 160.839 245.836 160.468C245.762 160.097 245.725 159.837 245.725 159.689V159.244C245.725 158.65 245.651 158.279 245.503 158.131C245.503 151.825 247.691 146.483 252.068 142.106C259.561 134.242 271.357 129.16 287.456 126.86C297.694 125.599 306.782 125.154 314.72 125.525C325.032 126.044 334.083 127.417 341.873 129.643C349.588 131.571 355.746 134.613 360.346 138.768C363.165 141.364 365.131 144.777 366.244 149.006C367.802 155.089 367.653 161.543 365.799 168.369C363.647 176.381 359.455 183.985 353.224 191.182C345.879 199.936 336.383 208.208 324.735 215.998C312.049 224.455 298.992 231.577 285.564 237.364H285.342C274.881 241.221 267.833 243.966 264.198 245.599C263.308 245.97 262.751 246.637 262.529 247.602C262.38 248.566 262.566 249.419 263.085 250.161C263.679 250.829 264.495 250.977 265.533 250.606C267.017 250.087 274.77 247.045 288.791 241.481C304.964 234.878 320.21 230.093 334.528 227.126C341.873 225.494 348.809 224.678 355.338 224.678C358.009 224.678 360.42 225.048 362.571 225.79C363.462 226.013 364.463 226.235 365.576 226.458L365.799 226.681H366.021C366.169 226.829 366.318 226.903 366.466 226.903C367.06 227.2 367.431 227.423 367.579 227.571C368.173 227.719 368.655 228.016 369.026 228.461C369.174 228.535 369.248 228.647 369.248 228.795L369.693 229.018L371.474 230.798H371.697V231.021C371.845 231.317 371.919 231.54 371.919 231.688C371.993 231.763 372.105 231.911 372.253 232.133C372.401 232.356 372.513 232.504 372.587 232.579C372.958 233.32 373.143 233.728 373.143 233.803L373.366 234.025C373.366 234.47 373.44 234.767 373.588 234.915Z" fill="white"/>
<path d="M499.536 135.318C501.391 137.618 502.355 140.103 502.43 142.774C502.504 145.445 501.725 147.967 500.093 150.341C498.609 152.789 496.569 154.978 493.972 156.907C491.45 158.836 488.445 160.505 484.958 161.914C481.546 163.324 478.578 164.437 476.056 165.253C473.608 165.995 470.603 166.811 467.042 167.701C462.665 168.888 455.617 170.557 445.898 172.709C436.254 174.86 428.946 176.678 423.976 178.162C422.269 178.607 421.119 179.052 420.526 179.497C420.378 179.645 420.229 179.72 420.081 179.72C418.894 180.536 418.523 181.611 418.968 182.947C419.413 184.282 420.378 184.801 421.861 184.505C422.306 184.505 422.603 184.356 422.752 184.06C422.9 184.06 428.093 182.91 438.331 180.61C447.234 178.681 452.39 177.642 453.799 177.494C465.892 176.233 474.016 178.792 478.17 185.172C480.099 187.843 480.767 190.625 480.173 193.519C479.654 196.412 478.504 199.008 476.723 201.308C475.017 203.608 472.903 205.611 470.38 207.318C465.707 210.508 459.03 213.327 450.35 215.775C443.153 215.998 436.18 216.665 429.429 217.778C423.493 218.372 416.779 219.818 409.286 222.118C407.803 222.563 407.209 223.565 407.506 225.123C407.877 226.532 408.73 227.126 410.065 226.903C428.316 225.419 441.892 223.453 450.795 221.005C457.472 220.857 463.333 221.154 468.377 221.895C473.422 222.563 477.985 224.158 482.065 226.681C486.22 229.277 489.187 233.098 490.968 238.143C492.822 243.113 493.342 248.121 492.526 253.166C491.413 259.175 488.631 264.517 484.179 269.19C479.728 273.79 474.424 277.388 468.266 279.985C462.108 282.507 455.877 284.399 449.571 285.66C443.339 286.921 437.292 287.552 431.432 287.552C410.065 287.849 393.521 282.618 381.8 271.861C378.387 268.597 375.308 264.628 372.563 259.954C369.818 255.206 368.186 250.718 367.667 246.489C366.628 238.254 368.149 226.792 372.23 212.103C374.455 204.461 377.348 196.597 380.91 188.511C384.545 180.424 388.811 172.301 393.707 164.14C398.678 155.979 404.427 148.82 410.956 142.663C417.558 136.505 424.31 132.388 431.209 130.31C440.928 127.194 452.724 125.748 466.597 125.97C483.66 125.97 494.64 129.086 499.536 135.318Z" fill="white"/>
<path d="M629.824 169.927C630.715 177.791 629.565 185.84 626.375 194.075L626.152 194.298V194.52C626.078 194.668 625.929 194.928 625.707 195.299C625.484 195.596 625.336 195.818 625.262 195.967C625.039 196.783 624.668 197.599 624.149 198.415C623.259 200.344 622.035 202.236 620.477 204.09C616.248 209.506 610.832 213.178 604.229 215.107C597.701 217.036 590.727 217.481 583.308 216.443C580.193 215.998 577.002 215.219 573.738 214.106C572.996 213.883 571.883 213.586 570.4 213.215C568.99 212.845 567.914 212.548 567.172 212.325C565.837 211.954 564.836 212.399 564.168 213.661V214.106C563.945 215.664 564.502 216.665 565.837 217.11C566.95 217.63 569.064 218.223 572.18 218.891V219.113C585.386 223.416 596.106 228.906 604.341 235.583C608.569 238.996 612.798 242.928 617.027 247.379C623.185 254.056 626.449 260.844 626.82 267.744C627.042 273.976 625.15 278.909 621.144 282.544C617.435 286.031 612.65 287.775 606.789 287.775C596.477 288.145 585.757 283.212 574.628 272.974C562.758 262.439 552.149 248.232 542.802 230.353L542.579 229.908C541.911 228.498 540.836 228.053 539.352 228.572C537.942 229.092 537.423 230.056 537.794 231.466C537.942 231.614 538.017 231.837 538.017 232.133C540.168 238.439 541.429 243.929 541.8 248.603C542.171 253.129 541.726 258.359 540.465 264.294C538.61 274.606 534.047 281.58 526.777 285.215C521.436 287.737 516.279 288.294 511.309 286.884C505.522 285.104 500.737 280.764 496.953 273.864C493.912 268.078 491.872 260.696 490.833 251.719C490.091 246.081 489.868 237.586 490.165 226.235C490.981 204.721 494.023 186.73 499.29 172.264C504.929 156.462 513.126 144.591 523.884 136.653C528.409 133.686 533.046 131.349 537.794 129.643C538.387 129.42 539.018 129.235 539.686 129.086C540.428 128.864 541.207 128.641 542.023 128.418C542.913 128.122 543.618 127.899 544.137 127.751C545.25 127.528 546.326 127.306 547.364 127.083C548.106 127.083 548.625 127.009 548.922 126.86H549.59C557.38 126.044 565.726 126.119 574.628 127.083C587.685 128.715 598.257 131.905 606.344 136.653C612.501 140.363 617.732 145.148 622.035 151.009C626.337 156.795 628.934 163.101 629.824 169.927ZM562.61 156.907C555.191 165.883 549.701 176.233 546.14 187.954C545.843 188.919 546.029 189.698 546.697 190.291C547.364 190.811 548.106 190.996 548.922 190.848C549.812 190.625 550.406 190.032 550.703 189.067C554.041 178.384 559.234 168.814 566.282 160.356C567.321 159.318 567.321 158.168 566.282 156.907C565.837 156.462 565.206 156.239 564.39 156.239C563.649 156.165 563.055 156.387 562.61 156.907Z" fill="white"/>
<path d="M693.788 125.97C700.688 125.97 707.068 127.343 712.929 130.088C718.79 132.758 723.686 136.357 727.618 140.882C731.624 145.408 735.037 150.638 737.856 156.573C740.675 162.434 742.715 168.554 743.976 174.934C745.312 181.24 745.979 187.621 745.979 194.075C745.979 201.939 744.904 210.396 742.752 219.447C738.078 239.404 729.139 255.948 715.933 269.079C702.802 282.136 688.706 288.665 673.646 288.665C657.102 288.665 643.822 280.764 633.807 264.962C628.02 255.837 624.348 245.079 622.79 232.69C621.232 220.3 621.937 207.8 624.905 195.188C629.653 175.157 638.555 158.613 651.612 145.556C664.744 132.499 678.802 125.97 693.788 125.97ZM690.116 184.727C681.288 198.823 674.536 213.586 669.862 229.018C669.64 229.834 669.788 230.538 670.308 231.132C670.827 231.651 671.495 231.911 672.311 231.911C673.646 231.911 674.425 231.317 674.648 230.13C679.47 215.07 685.998 200.789 694.233 187.287C694.827 186.396 694.827 185.543 694.233 184.727C693.714 183.837 693.009 183.392 692.119 183.392C691.229 183.392 690.561 183.837 690.116 184.727Z" fill="white"/>
<path d="M733.7 146.446C739.857 156.091 743.752 167.478 745.384 180.61C747.017 193.667 746.238 206.909 743.047 220.338C741.415 227.311 739.078 234.211 736.037 241.036C732.995 247.861 729.174 254.464 724.575 260.844C720.049 267.15 715.042 272.751 709.552 277.648C704.062 282.47 697.793 286.365 690.745 289.332C683.771 292.226 676.575 293.673 669.156 293.673C660.179 293.673 651.833 291.373 644.118 286.773C636.402 282.099 630.022 275.83 624.977 267.966C618.819 258.322 614.888 246.971 613.181 233.914C611.475 220.783 612.217 207.429 615.407 193.852C620.377 172.709 629.911 155.237 644.006 141.438C658.176 127.639 673.348 120.74 689.521 120.74C698.572 120.74 706.844 123.04 714.337 127.639C721.904 132.165 728.358 138.434 733.7 146.446ZM741.49 194.075C741.49 187.621 740.822 181.24 739.487 174.934C738.225 168.554 736.185 162.434 733.366 156.573C730.547 150.638 727.134 145.408 723.128 140.882C719.196 136.357 714.3 132.758 708.439 130.088C702.578 127.343 696.198 125.97 689.298 125.97C674.312 125.97 660.254 132.499 647.122 145.556C634.065 158.613 625.163 175.157 620.414 195.188C617.447 207.8 616.742 220.3 618.3 232.69C619.858 245.079 623.53 255.837 629.317 264.962C639.332 280.764 652.612 288.665 669.156 288.665C684.216 288.665 698.312 282.136 711.443 269.079C724.649 255.948 733.589 239.404 738.262 219.447C740.414 210.396 741.49 201.939 741.49 194.075ZM685.626 184.727C686.071 183.837 686.739 183.392 687.629 183.392C688.519 183.392 689.224 183.837 689.743 184.727C690.337 185.543 690.337 186.396 689.743 187.287C681.508 200.789 674.98 215.07 670.158 230.13C669.935 231.317 669.156 231.911 667.821 231.911C667.005 231.911 666.337 231.651 665.818 231.132C665.298 230.538 665.15 229.834 665.373 229.018C670.046 213.586 676.797 198.823 685.626 184.727Z" fill="black"/>
<path d="M629.452 185.617C627.004 196.82 622.181 205.685 614.985 212.214C607.789 218.668 598.627 221.895 587.498 221.895C595.066 225.679 601.743 230.242 607.529 235.583C622.218 248.492 628.673 261.104 626.892 273.419C625.928 279.651 622.849 284.547 617.656 288.108C612.537 291.595 606.676 293.227 600.073 293.005C594.435 292.708 588.685 291.113 582.825 288.22C577.038 285.252 571.622 281.431 566.577 276.758C561.607 272.01 557.155 267.224 553.224 262.402C549.292 257.58 545.693 252.572 542.429 247.379V247.936C542.726 251.942 542.318 257.543 541.205 264.739C539.202 272.603 536.346 278.909 532.636 283.657C528.927 288.405 523.511 291.298 516.389 292.337C509.786 293.302 503.629 291.855 497.916 287.997C492.426 284.214 488.16 277.982 485.119 269.302C480.816 256.986 479.555 239.738 481.335 217.555C481.855 210.879 482.596 204.535 483.561 198.526C484.525 192.443 485.898 186.137 487.678 179.608C489.459 173.08 491.536 167.108 493.91 161.692C496.358 156.202 499.437 150.972 503.147 146.001C506.856 140.956 511.01 136.728 515.61 133.315C520.21 129.828 525.626 127.009 531.857 124.857C538.163 122.706 545.026 121.556 552.445 121.408C577.817 120.592 597.625 126.044 611.869 137.766C618.175 142.737 623.035 148.894 626.447 156.239C630.676 165.067 631.677 174.86 629.452 185.617ZM625.334 169.927C624.444 163.101 621.848 156.795 617.545 151.009C613.242 145.148 608.011 140.363 601.854 136.653C593.767 131.905 583.196 128.715 570.138 127.083C561.236 126.119 552.89 126.044 545.1 126.86H544.432C544.135 127.009 543.616 127.083 542.874 127.083C541.836 127.306 540.76 127.528 539.647 127.751C531.264 130.273 524.513 133.241 519.394 136.653C498.547 151.862 487.307 181.723 485.675 226.235C485.378 237.586 485.601 246.081 486.343 251.719C486.788 255.799 487.53 259.731 488.569 263.515C489.607 267.299 491.091 271.119 493.02 274.977C494.949 278.761 497.545 281.802 500.81 284.102C504.074 286.402 507.82 287.552 512.049 287.552C518.652 287.552 523.993 285.401 528.074 281.098C532.154 276.795 534.788 271.193 535.975 264.294C537.236 258.359 537.681 253.129 537.31 248.603C536.939 243.929 535.678 238.439 533.527 232.133C533.527 231.837 533.452 231.614 533.304 231.466C533.081 230.65 533.23 229.945 533.749 229.351C534.343 228.758 535.01 228.461 535.752 228.461C536.791 228.461 537.57 228.943 538.089 229.908C538.238 230.056 538.312 230.205 538.312 230.353C547.659 248.232 558.268 262.439 570.138 272.974C581.267 283.212 591.987 288.145 602.299 287.775C608.16 287.775 612.945 286.031 616.654 282.544C620.66 278.909 622.552 273.976 622.33 267.744C621.959 260.844 618.695 254.056 612.537 247.379C605.637 240.109 598.812 234.359 592.061 230.13C585.31 225.827 577.186 222.155 567.69 219.113V218.891C564.574 218.223 562.46 217.63 561.347 217.11C560.012 216.665 559.455 215.664 559.678 214.106V213.661C560.346 212.399 561.347 211.954 562.683 212.325C562.831 212.399 563.091 212.474 563.461 212.548C563.832 212.622 564.092 212.696 564.24 212.77L567.69 213.661C567.839 213.735 568.098 213.809 568.469 213.883C568.84 213.957 569.1 214.032 569.248 214.106C572.512 215.219 575.703 215.998 578.818 216.443C586.237 217.481 593.211 217.036 599.739 215.107C606.342 213.178 611.758 209.506 615.987 204.09C617.545 202.236 618.769 200.344 619.659 198.415C620.178 197.673 620.623 196.709 620.994 195.522L621.439 194.743L621.662 194.52V194.298C621.81 194.298 621.885 194.223 621.885 194.075C625.075 185.84 626.225 177.791 625.334 169.927ZM558.12 156.907C558.565 156.387 559.159 156.165 559.9 156.239C560.717 156.239 561.347 156.462 561.792 156.907C562.831 158.168 562.831 159.318 561.792 160.356C554.744 168.814 549.551 178.384 546.213 189.067C545.693 190.328 544.952 190.959 543.987 190.959C543.245 190.959 542.615 190.662 542.095 190.069C541.576 189.475 541.428 188.77 541.65 187.954C545.211 176.233 550.701 165.883 558.12 156.907Z" fill="black"/>
<path d="M482.805 122.743C488.963 124.004 494.119 126.823 498.273 131.201C502.502 135.503 503.949 140.585 502.614 146.446C501.797 150.23 499.98 153.642 497.161 156.684C494.416 159.726 490.929 162.285 486.7 164.363C482.471 166.44 478.614 168.109 475.127 169.37C471.64 170.557 467.671 171.744 463.22 172.931C471.751 174.712 477.352 178.941 480.023 185.617C481.878 190.291 481.655 195.039 479.356 199.862C477.056 204.61 473.717 208.467 469.34 211.435C465.334 213.809 462.144 215.404 459.77 216.22C461.031 216.517 462.626 216.814 464.555 217.11C470.564 217.926 475.943 219.818 480.691 222.786C485.439 225.753 488.889 229.797 491.04 234.915C495.046 244.337 494.712 253.759 490.039 263.181C486.7 270.303 480.876 276.312 472.567 281.209C464.629 285.957 455.652 289.258 445.637 291.113C435.696 292.968 425.755 293.376 415.813 292.337C407.504 291.447 399.715 289.592 392.444 286.773C385.248 283.954 378.645 279.762 372.636 274.198C366.627 268.56 362.398 261.92 359.95 254.279C357.872 247.898 357.205 240.888 357.947 233.246C358.911 221.821 362.027 209.432 367.294 196.078C372.636 182.65 378.831 170.594 385.879 159.911C395.375 145.445 405.613 135.281 416.592 129.42C427.572 123.485 441.891 120.517 459.547 120.517C467.856 120.517 475.609 121.259 482.805 122.743ZM495.046 135.318C490.15 129.086 479.17 125.97 462.107 125.97C448.234 125.748 436.438 127.194 426.719 130.31C419.671 132.462 412.809 136.69 406.132 142.996C399.529 149.228 393.742 156.462 388.772 164.696C383.875 172.857 379.684 180.944 376.197 188.956C372.71 196.968 369.891 204.684 367.74 212.103C363.659 226.792 362.138 238.254 363.177 246.489C363.696 250.718 365.328 255.206 368.073 259.954C370.818 264.628 373.897 268.597 377.31 271.861C389.032 282.618 405.575 287.849 426.942 287.552C432.803 287.552 438.849 286.921 445.081 285.66C451.387 284.399 457.618 282.507 463.776 279.985C469.934 277.388 475.238 273.79 479.689 269.19C484.141 264.517 486.923 259.175 488.036 253.166C488.852 248.121 488.332 243.113 486.478 238.143C484.697 233.098 481.73 229.277 477.575 226.681C473.495 224.158 468.932 222.563 463.887 221.895C458.843 221.154 452.982 220.857 446.305 221.005C437.476 223.453 423.974 225.419 405.798 226.903H405.575C404.24 227.126 403.387 226.532 403.016 225.123C402.719 223.565 403.313 222.563 404.796 222.118C412.289 219.818 419.004 218.372 424.939 217.778C431.69 216.665 438.663 215.998 445.86 215.775C454.54 213.327 461.217 210.508 465.89 207.318C468.413 205.611 470.527 203.608 472.233 201.308C474.014 199.008 475.164 196.412 475.683 193.519C476.277 190.625 475.609 187.843 473.68 185.172C469.526 178.792 461.402 176.233 449.309 177.494C447.9 177.642 442.744 178.681 433.841 180.61C423.603 182.91 418.41 184.06 418.262 184.06C418.113 184.356 417.816 184.505 417.371 184.505C415.888 184.801 414.923 184.282 414.478 182.947C414.033 181.611 414.404 180.536 415.591 179.72L416.036 179.497C416.63 179.052 417.779 178.607 419.486 178.162C424.456 176.678 431.764 174.86 441.408 172.709C451.127 170.557 458.175 168.888 462.552 167.701C466.113 166.811 469.118 165.995 471.566 165.253C474.088 164.437 477.056 163.324 480.468 161.914C483.955 160.505 486.96 158.836 489.482 156.907C492.079 154.978 494.119 152.789 495.603 150.341C497.235 147.967 498.014 145.445 497.94 142.774C497.865 140.103 496.901 137.618 495.046 135.318Z" fill="black"/>
<path d="M370.879 227.348C375.479 233.135 376.703 242.112 374.551 254.279C373.735 258.656 372.177 262.662 369.877 266.297C367.577 269.858 364.833 272.9 361.642 275.422C358.527 277.945 354.854 280.207 350.625 282.21C346.397 284.139 342.205 285.697 338.051 286.884C333.896 288.071 329.371 289.073 324.474 289.889C319.652 290.705 315.312 291.298 311.454 291.669C307.596 291.966 303.627 292.189 299.547 292.337C284.784 292.782 270.873 292.189 257.816 290.557C253.958 289.963 250.62 289.37 247.801 288.776C245.056 288.183 241.829 287.367 238.119 286.328C234.484 285.289 231.331 284.028 228.66 282.544C226.064 280.986 223.504 279.169 220.982 277.091C218.459 275.014 216.456 272.455 214.972 269.413C213.489 266.371 212.524 262.996 212.079 259.286C211.56 255.577 211.708 250.94 212.524 245.376C213.489 240.183 216.085 234.73 220.314 229.018C224.543 223.231 229.439 217.889 235.003 212.993C240.642 208.096 246.873 203.274 253.699 198.526C260.598 193.778 266.867 189.809 272.505 186.619C278.218 183.355 283.522 180.536 288.419 178.162C280.852 179.052 274.842 179.497 270.391 179.497C266.978 179.497 263.677 179.274 260.487 178.829C257.297 178.31 253.995 177.494 250.583 176.381C247.244 175.268 244.314 173.599 241.791 171.373C239.343 169.074 237.637 166.329 236.673 163.138C234.966 157.797 235.411 152.455 238.008 147.114C240.679 141.772 244.462 137.284 249.359 133.649C259.448 126.304 273.136 122.075 290.422 120.963C301.773 120.221 312.122 120.369 321.47 121.408C342.539 123.633 356.561 129.791 363.534 139.881C365.463 143.145 366.761 146.706 367.429 150.564C368.913 159.021 367.837 167.441 364.202 175.825C360.567 184.134 355.336 191.886 348.511 199.083C339.46 208.727 328.221 217.555 314.793 225.568L314.125 226.013C314.422 225.939 314.867 225.827 315.46 225.679C316.128 225.531 316.61 225.419 316.907 225.345C327.664 222.526 336.307 220.783 342.836 220.115C356.561 218.483 365.908 220.894 370.879 227.348ZM369.098 234.915C368.95 234.767 368.876 234.47 368.876 234.025C368.802 233.803 368.468 233.246 367.874 232.356L367.207 231.021V230.798H366.984L365.203 229.018C365.055 228.869 364.907 228.795 364.758 228.795C364.091 228.127 363.534 227.719 363.089 227.571C362.941 227.422 362.57 227.2 361.976 226.903L361.531 226.681H361.309C360.641 226.458 359.565 226.161 358.081 225.79C355.93 225.048 353.519 224.678 350.848 224.678C333.859 224.678 311.677 230.279 284.301 241.481C270.28 247.045 262.527 250.087 261.043 250.606C260.005 250.977 259.189 250.829 258.595 250.161C258.076 249.419 257.89 248.566 258.039 247.602C258.261 246.637 258.818 245.97 259.708 245.599C263.343 243.966 270.391 241.221 280.852 237.364H281.074C287.38 234.619 293.575 231.651 299.658 228.461C305.742 225.197 312.233 221.302 319.133 216.777C326.032 212.177 332.19 207.466 337.605 202.644C343.095 197.821 347.992 192.406 352.295 186.396C356.672 180.387 359.676 174.378 361.309 168.369C363.163 161.543 363.312 155.089 361.754 149.006C360.715 145.296 358.712 142.032 355.744 139.213C352.851 136.319 349.661 134.094 346.174 132.536C342.762 130.978 338.681 129.68 333.933 128.641C329.185 127.528 325.105 126.786 321.692 126.415C318.279 126.044 314.459 125.748 310.23 125.525C302.292 125.154 293.204 125.599 282.966 126.86C279.331 127.454 275.77 128.233 272.283 129.197C268.796 130.088 265.087 131.386 261.155 133.092C257.297 134.799 253.921 136.765 251.028 138.99C248.135 141.216 245.723 143.998 243.795 147.336C241.94 150.601 241.013 154.199 241.013 158.131C241.161 158.279 241.235 158.65 241.235 159.244V160.134L241.458 160.802C241.903 162.879 242.793 164.734 244.128 166.366C245.538 167.924 247.244 169.185 249.247 170.149C251.325 171.04 253.291 171.744 255.145 172.264C257 172.783 259.114 173.228 261.488 173.599C273.581 175.083 289.532 173.488 309.34 168.814C313.272 167.033 317.389 165.587 321.692 164.474C322.731 164.177 323.547 164.4 324.14 165.142C324.734 165.883 324.919 166.737 324.697 167.701C324.474 168.666 323.844 169.259 322.805 169.482C321.173 169.927 318.057 171.002 313.457 172.709C313.309 172.709 313.086 172.746 312.79 172.82C312.567 172.894 312.344 172.931 312.122 172.931C311.825 173.228 311.603 173.376 311.454 173.376L310.675 173.599C300.808 177.308 290.199 182.353 278.848 188.733C267.498 195.039 256.369 202.532 245.464 211.212C234.558 219.818 226.546 228.09 221.427 236.028C218.756 241.073 217.309 246.303 217.087 251.719C216.864 256.245 217.235 260.288 218.2 263.849C218.348 264.294 218.719 265.11 219.312 266.297C219.535 266.668 220.054 267.67 220.87 269.302C228.957 280.059 247.43 285.994 276.289 287.107C291.572 287.626 305.259 287.181 317.352 285.771C337.457 283.397 351.961 277.833 360.863 269.079C362.718 267.447 364.165 265.704 365.203 263.849C366.02 262.736 366.613 261.735 366.984 260.844C367.281 260.251 367.503 259.88 367.652 259.731V259.286H367.874C367.874 258.99 367.948 258.841 368.097 258.841C369.432 255.354 370.211 251.459 370.434 247.157C370.656 241.963 370.211 237.883 369.098 234.915Z" fill="black"/>
<path d="M689.521 119.802C698.736 119.802 707.176 122.145 714.819 126.835L715.537 127.271C722.686 131.69 728.829 137.662 733.97 145.17L734.481 145.926L734.485 145.933L734.491 145.942C740.734 155.721 744.669 167.246 746.316 180.494L746.462 181.729C747.91 194.501 747.074 207.443 743.96 220.55L743.961 220.551C742.315 227.585 739.958 234.541 736.893 241.418C733.824 248.305 729.971 254.964 725.336 261.393C720.773 267.751 715.72 273.404 710.176 278.348L710.171 278.353C704.601 283.244 698.246 287.193 691.109 290.198L691.105 290.199C684.019 293.139 676.701 294.611 669.156 294.611C660.01 294.611 651.498 292.265 643.638 287.579L643.631 287.575C637.163 283.657 631.622 278.636 627.006 272.52C627.059 272.051 627.1 271.581 627.129 271.112C631.798 277.519 637.46 282.74 644.118 286.773C651.592 291.229 659.658 293.526 668.316 293.665L669.156 293.673C676.343 293.672 683.321 292.315 690.09 289.599L690.745 289.332C697.573 286.458 703.669 282.712 709.034 278.097L709.552 277.648C715.042 272.751 720.049 267.15 724.575 260.844C728.887 254.863 732.515 248.686 735.458 242.314L736.037 241.036C739.078 234.211 741.415 227.311 743.047 220.338C746.138 207.329 746.966 194.494 745.531 181.834L745.384 180.61C743.803 167.889 740.098 156.804 734.27 147.355L733.7 146.446C728.358 138.434 721.904 132.165 714.337 127.639C706.844 123.04 698.572 120.74 689.521 120.74C673.348 120.74 658.176 127.639 644.006 141.438C637.981 147.337 632.789 153.907 628.431 161.147C628.303 160.764 628.169 160.382 628.03 160.001C632.343 152.956 637.449 146.544 643.35 140.768L643.352 140.766C657.655 126.837 673.051 119.802 689.521 119.802ZM619.134 207.872C618.17 216.158 618.202 224.391 619.231 232.573C620.774 244.846 624.408 255.467 630.109 264.459C639.979 280.031 652.981 287.726 669.156 287.726L669.156 288.665L668.383 288.659C652.455 288.42 639.59 280.766 629.789 265.697L629.317 264.962C623.53 255.837 619.858 245.079 618.3 232.69C617.318 224.88 617.236 217.026 618.052 209.129C618.421 208.718 618.78 208.298 619.134 207.872ZM740.551 194.075C740.551 187.686 739.89 181.371 738.568 175.129L738.566 175.116C737.321 168.814 735.305 162.769 732.52 156.98L732.518 156.976C729.734 151.113 726.368 145.958 722.425 141.504L722.42 141.497C718.582 137.08 713.797 133.56 708.049 130.941L708.041 130.937C702.313 128.255 696.069 126.909 689.298 126.909C674.616 126.909 660.783 133.295 647.784 146.221C640.776 153.229 634.974 161.255 630.379 170.306C630.323 169.75 630.256 169.197 630.18 168.647C634.713 160.015 640.361 152.318 647.122 145.556C660.254 132.499 674.312 125.97 689.298 125.97L689.944 125.974C696.596 126.057 702.761 127.429 708.439 130.088C714.3 132.758 719.196 136.357 723.128 140.882C727.134 145.408 730.547 150.638 733.366 156.573C736.185 162.434 738.225 168.554 739.487 174.934C740.822 181.24 741.49 187.621 741.49 194.075C741.49 201.939 740.414 210.396 738.262 219.447C733.589 239.404 724.649 255.948 711.443 269.079L710.828 269.687C697.872 282.339 683.981 288.665 669.156 288.665L669.156 287.726C683.914 287.726 697.784 281.339 710.782 268.414C723.85 255.419 732.711 239.037 737.349 219.234L737.35 219.23C739.487 210.238 740.551 201.854 740.551 194.075ZM616.366 252.062C617.277 253.337 618.085 254.616 618.788 255.899C619.462 257.571 620.187 259.204 620.964 260.797C621.416 262.125 621.758 263.457 621.991 264.793C619.77 260.81 617.896 256.565 616.366 252.062ZM612.445 214.293C612.094 220.888 612.338 227.428 613.181 233.914C613.569 236.885 614.074 239.767 614.693 242.561C614.288 242.119 613.874 241.676 613.45 241.233C612.972 238.893 612.572 236.493 612.251 234.035C611.433 227.74 611.173 221.394 611.471 215.001C611.799 214.771 612.123 214.534 612.445 214.293ZM687.629 182.453C688.899 182.453 689.879 183.118 690.535 184.224C690.906 184.75 691.127 185.339 691.127 185.979C691.127 186.621 690.904 187.223 690.543 187.774L690.544 187.775C682.354 201.204 675.86 215.407 671.061 230.384C670.909 231.117 670.568 231.76 669.976 232.212C669.372 232.672 668.62 232.849 667.821 232.849C666.786 232.849 665.87 232.511 665.154 231.795L665.132 231.773L665.111 231.749C664.368 230.9 664.169 229.864 664.467 228.771L664.471 228.758L664.922 227.293C669.597 212.314 676.228 197.966 684.815 184.252C685.09 183.72 685.458 183.267 685.94 182.945C686.444 182.609 687.019 182.454 687.629 182.453ZM687.629 183.392C686.739 183.392 686.071 183.837 685.626 184.727C676.797 198.823 670.046 213.586 665.373 229.018C665.15 229.834 665.298 230.538 665.818 231.132C666.337 231.651 667.005 231.911 667.821 231.911C669.156 231.911 669.935 231.317 670.158 230.13C674.98 215.07 681.508 200.789 689.743 187.287C690.337 186.396 690.337 185.543 689.743 184.727C689.224 183.837 688.519 183.392 687.629 183.392ZM624.621 166.011C624.733 166.489 624.837 166.97 624.932 167.454C620.826 175.504 617.652 184.304 615.407 193.852C614.339 198.395 613.547 202.913 613.028 207.406C612.684 207.743 612.332 208.07 611.975 208.388C612.493 203.5 613.331 198.583 614.493 193.638C616.849 183.617 620.224 174.406 624.621 166.011ZM625.465 178.965C625.355 180.303 625.187 181.645 624.963 182.993C623.638 186.743 622.483 190.639 621.501 194.681L621.439 194.743L620.994 195.522C620.64 196.656 620.216 197.585 619.726 198.312C619.94 197.272 620.169 196.23 620.414 195.188C621.763 189.499 623.446 184.092 625.465 178.965Z" fill="black"/>
<path d="M542.429 247.379C545.693 252.572 549.292 257.58 553.224 262.402C557.155 267.224 561.607 272.01 566.577 276.758C571.622 281.431 577.038 285.252 582.825 288.22C588.685 291.113 594.435 292.708 600.073 293.005C606.47 293.22 612.17 291.696 617.174 288.43L617.656 288.108C622.687 284.659 625.733 279.956 626.795 274L626.892 273.419C627.003 272.651 627.082 271.882 627.129 271.112C627.409 271.495 627.691 271.875 627.978 272.25C627.935 272.685 627.883 273.119 627.821 273.553L627.82 273.562C626.816 280.05 623.593 285.174 618.187 288.882L618.184 288.884C612.889 292.49 606.829 294.171 600.042 293.942H600.033L600.024 293.941C594.24 293.637 588.367 292.001 582.41 289.061L582.403 289.058L582.397 289.054C576.53 286.045 571.043 282.174 565.939 277.445L565.935 277.441L565.929 277.436C560.933 272.664 556.455 267.85 552.496 262.995C549.259 259.025 546.247 254.929 543.459 250.708C543.456 254.47 543.011 259.201 542.132 264.882L542.126 264.927L542.115 264.971C540.09 272.919 537.188 279.355 533.376 284.235C529.489 289.209 523.836 292.199 516.524 293.265C509.682 294.264 503.29 292.758 497.391 288.775L497.383 288.77C492.03 285.081 487.86 279.194 484.819 271.215C485.055 270.94 485.284 270.662 485.51 270.383C488.522 278.501 492.657 284.373 497.916 287.997C503.629 291.855 509.786 293.302 516.389 292.337C523.289 291.331 528.587 288.584 532.284 284.096L532.636 283.657C536.23 279.057 539.023 272.996 541.015 265.472L541.205 264.739C542.318 257.543 542.726 251.942 542.429 247.936V247.379ZM558.74 213.428L558.849 213.221C559.251 212.462 559.805 211.854 560.548 211.524C561.296 211.191 562.113 211.193 562.933 211.421L563.021 211.446L563.102 211.486C563.099 211.485 563.109 211.489 563.135 211.499C563.161 211.508 563.198 211.521 563.247 211.535C563.345 211.563 563.476 211.594 563.645 211.628C563.965 211.692 564.279 211.771 564.532 211.876L568.021 212.777L568.11 212.821C568.112 212.822 568.122 212.827 568.143 212.835C568.169 212.844 568.205 212.856 568.254 212.87C568.352 212.898 568.484 212.929 568.653 212.963C568.982 213.029 569.304 213.111 569.56 213.22C572.771 214.314 575.901 215.078 578.951 215.514C586.25 216.535 593.086 216.094 599.473 214.207L599.476 214.206C604.878 212.628 609.453 209.854 613.216 205.876C613.15 206.386 613.087 206.896 613.028 207.406C609.321 211.035 604.892 213.602 599.739 215.107C593.415 216.976 586.672 217.452 579.512 216.535L578.818 216.443C575.703 215.998 572.512 215.219 569.248 214.106C569.1 214.032 568.84 213.957 568.469 213.883C568.191 213.828 567.975 213.772 567.822 213.716L567.69 213.661L564.24 212.77C564.129 212.715 563.955 212.66 563.718 212.604L563.461 212.548C563.184 212.492 562.968 212.437 562.815 212.381L562.683 212.325C561.347 211.954 560.346 212.399 559.678 213.661V214.106C559.455 215.664 560.012 216.665 561.347 217.11C562.46 217.63 564.574 218.223 567.69 218.891V219.113C577.186 222.155 585.31 225.827 592.061 230.13C598.812 234.359 605.637 240.109 612.537 247.379C615.137 250.199 617.22 253.04 618.788 255.899C619.462 257.571 620.187 259.204 620.964 260.797C621.748 263.1 622.205 265.415 622.33 267.744C622.552 273.976 620.66 278.909 616.654 282.544C612.945 286.031 608.16 287.775 602.299 287.775C591.987 288.145 581.267 283.212 570.138 272.974C558.268 262.439 547.659 248.232 538.312 230.353C538.312 230.205 538.238 230.056 538.089 229.908C537.602 229.004 536.887 228.523 535.944 228.467L535.752 228.461C535.01 228.461 534.343 228.758 533.749 229.351L533.656 229.464C533.213 230.034 533.096 230.701 533.304 231.466L533.356 231.525C533.47 231.671 533.527 231.874 533.527 232.133C535.678 238.439 536.939 243.929 537.31 248.603C537.681 253.129 537.236 258.359 535.975 264.294L535.86 264.937C534.622 271.542 532.027 276.929 528.074 281.098C523.993 285.401 518.652 287.552 512.049 287.552L512.049 286.614C518.427 286.614 523.511 284.545 527.393 280.452C531.324 276.306 533.889 270.885 535.051 264.134L535.053 264.117L535.057 264.099C536.305 258.225 536.737 253.089 536.375 248.679L536.374 248.678C536.012 244.107 534.775 238.697 532.639 232.437L532.589 232.289V232.133C532.589 232.108 532.586 232.089 532.585 232.074L532.464 231.953L532.399 231.713C532.101 230.619 532.299 229.583 533.043 228.733L533.063 228.71L533.086 228.688C533.83 227.944 534.728 227.523 535.752 227.523C536.422 227.523 537.053 227.68 537.61 228.025C538.128 228.346 538.536 228.803 538.85 229.351C539.01 229.535 539.154 229.77 539.216 230.054C548.216 247.239 558.368 260.973 569.662 271.283L570.762 272.272L570.767 272.278L570.773 272.283C581.804 282.432 592.295 287.195 602.265 286.837L602.282 286.836H602.299C607.96 286.836 612.502 285.159 616.011 281.861L616.024 281.85C619.793 278.43 621.607 273.78 621.392 267.777C621.032 261.165 617.902 254.584 611.856 248.025L610.572 246.688C604.153 240.092 597.815 234.842 591.563 230.926L591.556 230.921C584.887 226.671 576.841 223.03 567.404 220.007L566.752 219.798V219.644C564.062 219.047 562.118 218.496 560.99 217.978C560.181 217.695 559.515 217.213 559.108 216.481C558.711 215.766 558.625 214.929 558.74 214.05V213.428ZM489.665 263.949C490.673 267.444 492.07 270.978 493.856 274.551L494.212 275.228C496.034 278.57 498.414 281.267 501.35 283.335C504.446 285.517 508.002 286.614 512.049 286.614L512.049 287.552L511.262 287.539C507.354 287.404 503.87 286.258 500.81 284.102C497.75 281.946 495.276 279.138 493.39 275.678L493.02 274.977C491.367 271.671 490.041 268.391 489.042 265.139C489.258 264.746 489.465 264.349 489.665 263.949ZM479.761 228.248C480.073 228.505 480.376 228.771 480.671 229.045C480.197 243.138 481.173 254.878 483.601 264.265C483.376 264.611 483.144 264.953 482.904 265.292C480.248 255.487 479.208 243.131 479.761 228.248ZM622.854 251.823C624.599 254.764 625.914 257.699 626.794 260.628C625.302 257.831 623.989 254.896 622.854 251.823ZM485.549 235.854C485.888 236.587 486.198 237.349 486.478 238.143C486.487 238.167 486.495 238.192 486.504 238.216C486.563 243.181 486.776 247.281 487.142 250.52L487.273 251.597L487.275 251.607L487.276 251.617C487.392 252.687 487.53 253.747 487.688 254.796C487.513 255.52 487.314 256.234 487.089 256.938C486.828 255.474 486.609 253.988 486.43 252.483L486.343 251.719C485.828 247.806 485.564 242.518 485.549 235.854ZM612.445 214.293C612.424 214.695 612.404 215.097 612.387 215.498C606.403 219.785 599.293 222.183 591.086 222.716C597.43 226.187 603.12 230.239 608.148 234.878C610.39 236.849 612.447 238.817 614.317 240.783C614.437 241.38 614.563 241.972 614.693 242.561C612.574 240.245 610.187 237.919 607.529 235.583C601.743 230.242 595.066 225.679 587.498 221.895C597.358 221.895 605.672 219.36 612.445 214.293ZM545.1 126.86C552.89 126.044 561.236 126.119 570.138 127.083C583.196 128.715 593.767 131.905 601.854 136.653C608.011 140.363 613.242 145.148 617.545 151.009C621.323 156.09 623.785 161.572 624.932 167.454C624.694 167.919 624.461 168.388 624.23 168.858C623.226 162.655 620.752 156.894 616.792 151.568L616.788 151.564C612.558 145.802 607.42 141.102 601.37 137.457C593.431 132.798 583 129.637 570.03 128.015C561.187 127.057 552.911 126.986 545.198 127.794L545.149 127.798H544.614C544.155 127.962 543.579 128.014 542.975 128.019C541.975 128.233 540.942 128.448 539.874 128.662C531.578 131.161 524.941 134.086 519.935 137.419C499.453 152.369 488.242 181.85 486.613 226.269C486.6 226.766 486.588 227.257 486.577 227.743C486.282 227.407 485.976 227.079 485.662 226.759C485.666 226.585 485.671 226.411 485.675 226.235C487.307 181.723 498.547 151.862 519.394 136.653C524.513 133.241 531.264 130.273 539.647 127.751C540.76 127.528 541.836 127.306 542.874 127.083C543.616 127.083 544.135 127.009 544.432 126.86H545.1ZM495.465 158.411C494.921 159.494 494.403 160.587 493.91 161.692C491.536 167.108 489.459 173.08 487.678 179.608L487.349 180.83C485.727 186.924 484.465 192.823 483.561 198.526C482.596 204.535 481.855 210.879 481.335 217.555C481.188 219.389 481.063 221.189 480.957 222.955C480.869 222.899 480.78 222.842 480.691 222.786C480.479 222.653 480.265 222.524 480.051 222.396C480.151 220.784 480.266 219.146 480.4 217.48C480.921 210.782 481.665 204.415 482.634 198.379L482.821 197.229C483.778 191.466 485.097 185.51 486.773 179.361C488.564 172.795 490.656 166.778 493.051 161.315L493.053 161.31C493.252 160.864 493.456 160.421 493.663 159.978C494.29 159.473 494.891 158.951 495.465 158.411ZM630.918 167.267C631.903 173.112 631.718 179.296 630.371 185.808L630.369 185.818C628.153 195.955 624.005 204.252 617.903 210.67C617.949 210.156 617.999 209.642 618.052 209.129C623.569 202.982 627.37 195.145 629.452 185.617C630.683 179.665 630.925 174.008 630.18 168.647C630.423 168.184 630.669 167.724 630.918 167.267ZM557.407 156.296C558.066 155.528 558.96 155.211 559.963 155.303C560.865 155.313 561.689 155.555 562.328 156.123L562.456 156.243L562.488 156.275L562.516 156.311C563.117 157.04 563.509 157.847 563.51 158.715C563.51 159.583 563.116 160.34 562.497 160.975C555.537 169.332 550.408 178.787 547.108 189.347L547.096 189.387L547.081 189.424C546.488 190.864 545.489 191.897 543.987 191.897C542.956 191.897 542.074 191.469 541.389 190.687C540.645 189.837 540.447 188.8 540.745 187.707L540.752 187.681C544.347 175.847 549.895 165.386 557.396 156.309L557.407 156.296ZM559.9 156.239C559.159 156.165 558.565 156.387 558.12 156.907L557.43 157.752C550.36 166.531 545.1 176.599 541.65 187.954L541.613 188.106C541.447 188.858 541.608 189.512 542.095 190.069C542.582 190.625 543.167 190.92 543.849 190.955L543.987 190.959C544.891 190.959 545.6 190.405 546.113 189.297L546.213 189.067C549.551 178.384 554.744 168.814 561.792 160.356C562.766 159.383 562.827 158.311 561.975 157.142L561.792 156.907C561.347 156.462 560.717 156.239 559.9 156.239ZM552.414 120.47C577.928 119.649 597.989 125.128 612.466 137.041C618.881 142.102 623.827 148.372 627.298 155.843C627.967 157.241 628.556 158.662 629.067 160.106C628.853 160.451 628.641 160.799 628.431 161.147C627.876 159.48 627.216 157.843 626.447 156.239C623.141 149.124 618.478 143.122 612.456 138.235L611.869 137.766C597.625 126.044 577.817 120.592 552.445 121.408L551.06 121.447C544.17 121.704 537.769 122.84 531.857 124.857C525.626 127.009 520.21 129.828 515.61 133.315L514.753 133.965C510.493 137.26 506.624 141.272 503.147 146.001L502.518 146.854C502.55 146.719 502.584 146.583 502.614 146.446C502.746 145.865 502.849 145.292 502.927 144.727C506.55 139.928 510.591 135.87 515.051 132.561C519.738 129.009 525.243 126.149 531.551 123.97L531.554 123.97C537.958 121.785 544.914 120.621 552.414 120.47ZM621.885 194.075C621.885 194.223 621.81 194.298 621.662 194.298V194.52L621.439 194.743L620.994 195.522L620.852 195.956C620.528 196.895 620.152 197.68 619.726 198.312C619.94 197.272 620.169 196.23 620.414 195.188C620.489 194.874 620.564 194.56 620.64 194.248L620.687 194.168L620.724 194.132V193.916C620.77 193.73 620.815 193.545 620.862 193.359H621.152C622.511 189.784 623.477 186.251 624.051 182.758C624.503 181.477 624.974 180.213 625.465 178.965C625.056 183.931 623.863 188.967 621.885 194.075Z" fill="black"/>
<path d="M367.898 269.089C369.331 270.875 370.909 272.578 372.636 274.198C378.645 279.762 385.248 283.954 392.444 286.773C399.715 289.592 407.504 291.447 415.813 292.337C425.755 293.376 435.696 292.968 445.637 291.113C455.652 289.258 464.629 285.957 472.567 281.209C477.909 278.061 482.222 274.451 485.51 270.383C485.637 270.724 485.765 271.061 485.896 271.395C482.574 275.39 478.284 278.929 473.044 282.017L473.043 282.017C465.001 286.826 455.92 290.162 445.808 292.035L445.809 292.036C435.78 293.907 425.748 294.319 415.716 293.271L415.713 293.27C407.328 292.371 399.457 290.499 392.105 287.648L392.102 287.647C384.79 284.782 378.088 280.525 371.998 274.886L371.994 274.883C370.288 273.283 368.723 271.602 367.298 269.842C367.5 269.594 367.701 269.344 367.898 269.089ZM483.286 263.005C483.388 263.43 483.493 263.85 483.601 264.265C482.484 265.982 481.181 267.624 479.689 269.19C475.238 273.79 469.934 277.388 463.776 279.985L462.621 280.451C456.839 282.742 450.992 284.478 445.081 285.66C438.849 286.921 432.803 287.552 426.942 287.552C405.575 287.849 389.032 282.618 377.31 271.861C375.048 269.698 372.935 267.224 370.967 264.441C371.135 264.133 371.299 263.823 371.458 263.51C373.47 266.405 375.635 268.96 377.952 271.178C389.443 281.719 405.723 286.909 426.929 286.614L426.942 286.613C432.735 286.613 438.719 285.99 444.894 284.74H444.896C451.138 283.492 457.309 281.619 463.41 279.12C469.456 276.571 474.655 273.043 479.015 268.538C480.682 266.787 482.104 264.942 483.286 263.005ZM485.705 225.483C488.36 228.017 490.428 231.04 491.903 234.548L492.276 235.456C495.994 244.837 495.521 254.241 490.879 263.598C490.438 264.538 489.954 265.456 489.43 266.356C489.295 265.95 489.167 265.544 489.042 265.139C489.395 264.496 489.728 263.843 490.039 263.181C494.712 253.759 495.046 244.337 491.04 234.915C489.73 231.797 487.936 229.079 485.662 226.759C485.666 226.585 485.671 226.411 485.675 226.235C485.684 225.984 485.695 225.734 485.705 225.483ZM358.081 225.79C358.344 225.856 358.593 225.92 358.83 225.981C358.443 228.445 358.148 230.866 357.947 233.246C357.205 240.888 357.872 247.898 359.95 254.279C361.13 257.963 362.726 261.414 364.734 264.633C364.553 264.919 364.361 265.202 364.16 265.483C362.007 262.1 360.305 258.462 359.057 254.568C356.936 248.052 356.261 240.914 357.011 233.168L357.109 232.083C357.309 229.998 357.58 227.882 357.919 225.736C357.973 225.754 358.028 225.772 358.081 225.79ZM364.074 228.17C364.287 228.344 364.516 228.552 364.758 228.795C364.811 228.795 364.864 228.807 364.917 228.826C363.837 235.436 363.543 241.026 364.02 245.607L364.108 246.372L364.109 246.374C364.569 250.125 365.945 254.124 368.267 258.38C368.211 258.534 368.155 258.688 368.097 258.841C367.948 258.841 367.874 258.99 367.874 259.286L367.697 259.287C365.18 254.785 363.672 250.519 363.177 246.489C362.553 241.545 362.853 235.439 364.074 228.17ZM485.549 235.854C485.888 236.587 486.198 237.349 486.478 238.143C488.332 243.113 488.852 248.121 488.036 253.166C487.797 254.454 487.481 255.711 487.089 256.938C486.96 256.215 486.841 255.486 486.732 254.752C486.875 254.173 487.004 253.587 487.113 252.995C487.898 248.124 487.396 243.288 485.599 238.471L485.596 238.463L485.592 238.455C485.585 238.433 485.576 238.411 485.569 238.389C485.558 237.568 485.551 236.723 485.549 235.854ZM426.719 130.31C436.438 127.194 448.234 125.748 462.107 125.97C479.17 125.97 490.15 129.086 495.046 135.318C496.901 137.618 497.865 140.103 497.94 142.774C498.014 145.445 497.235 147.967 495.603 150.341L495.318 150.797C493.862 153.062 491.917 155.098 489.482 156.907C486.96 158.836 483.955 160.505 480.468 161.914C477.056 163.324 474.088 164.437 471.566 165.253C469.118 165.995 466.113 166.811 462.552 167.701C458.175 168.888 451.127 170.557 441.408 172.709C431.764 174.86 424.456 176.678 419.486 178.162L418.872 178.329C417.501 178.718 416.555 179.108 416.036 179.497L415.591 179.72C414.404 180.536 414.033 181.611 414.478 182.947C414.923 184.282 415.888 184.801 417.371 184.505C417.816 184.505 418.113 184.356 418.262 184.06C418.41 184.06 423.603 182.91 433.841 180.61C442.744 178.681 447.9 177.642 449.309 177.494C461.402 176.233 469.526 178.792 473.68 185.172C475.609 187.843 476.277 190.625 475.683 193.519L475.578 194.058C475.017 196.735 473.903 199.152 472.233 201.308L471.909 201.736C470.261 203.857 468.255 205.718 465.89 207.318C461.217 210.508 454.54 213.327 445.86 215.775C438.663 215.998 431.69 216.665 424.939 217.778C419.004 218.372 412.289 219.818 404.796 222.118L404.529 222.208C403.242 222.69 402.738 223.662 403.016 225.123C403.387 226.532 404.24 227.126 405.575 226.903H405.798L409.151 226.619C425.643 225.172 438.028 223.3 446.305 221.005C452.982 220.857 458.843 221.154 463.887 221.895C468.932 222.563 473.495 224.158 477.575 226.681C478.693 227.38 479.725 228.168 480.671 229.045C480.657 229.469 480.645 229.892 480.633 230.312C479.571 229.239 478.387 228.294 477.082 227.478C473.121 225.03 468.686 223.477 463.764 222.825L463.758 222.824L463.75 222.823C458.799 222.095 453.03 221.798 446.437 221.94C437.519 224.398 423.983 226.36 405.874 227.838L405.836 227.842H405.631C404.832 227.957 404.054 227.852 403.398 227.395C402.727 226.928 402.328 226.196 402.108 225.361L402.1 225.33L402.095 225.298C401.919 224.377 401.982 223.484 402.432 222.725C402.827 222.057 403.452 221.611 404.199 221.33L404.527 221.219C412.049 218.911 418.815 217.449 424.82 216.846C431.565 215.736 438.529 215.068 445.71 214.841C454.291 212.413 460.824 209.639 465.361 206.543L465.365 206.54C467.805 204.89 469.84 202.959 471.48 200.75L471.486 200.741L471.492 200.734C473.179 198.555 474.267 196.099 474.76 193.353L474.762 193.341L474.764 193.33C475.299 190.725 474.714 188.207 472.919 185.722L472.906 185.703L472.894 185.684C469.031 179.75 461.375 177.178 449.407 178.426L449.408 178.427C448.063 178.568 442.975 179.591 434.04 181.527L434.039 181.526C428.924 182.675 425.067 183.538 422.471 184.113C421.172 184.4 420.187 184.617 419.517 184.761C419.211 184.827 418.968 184.877 418.79 184.914C418.432 185.275 417.947 185.419 417.475 185.438C416.628 185.595 415.805 185.548 415.09 185.164C414.343 184.761 413.864 184.071 413.588 183.243C413.316 182.427 413.268 181.608 413.536 180.833C413.802 180.06 414.345 179.437 415.059 178.946L415.113 178.909L415.171 178.88L415.554 178.688C416.319 178.148 417.597 177.685 419.237 177.257C424.24 175.764 431.566 173.943 441.204 171.793H441.206C450.923 169.642 457.952 167.977 462.306 166.796L462.325 166.79C465.868 165.905 468.852 165.094 471.277 164.36L472.233 164.044C474.512 163.273 477.138 162.276 480.111 161.048L480.117 161.045C483.54 159.661 486.467 158.031 488.912 156.161L488.923 156.153C491.434 154.287 493.387 152.187 494.801 149.855L494.814 149.832L494.83 149.809C496.359 147.585 497.07 145.256 497.002 142.8C496.934 140.356 496.056 138.065 494.316 135.907L494.309 135.898C492.026 132.993 488.263 130.736 482.883 129.209C477.507 127.684 470.59 126.909 462.107 126.909H462.099L462.092 126.908C448.287 126.686 436.599 128.128 427.006 131.204L426.993 131.208C420.113 133.308 413.373 137.448 406.776 143.679C400.239 149.849 394.504 157.015 389.575 165.182L389.574 165.181C384.697 173.309 380.527 181.359 377.058 189.331C373.587 197.307 370.782 204.981 368.643 212.353L368.644 212.354C367.59 216.148 366.71 219.718 366.001 223.066C365.722 222.901 365.435 222.743 365.143 222.59C365.846 219.299 366.712 215.803 367.74 212.103C369.757 205.147 372.361 197.932 375.551 190.455L376.197 188.956C379.684 180.944 383.875 172.857 388.772 164.696C393.742 156.462 399.529 149.228 406.132 142.996C412.6 136.888 419.242 132.728 426.059 130.518L426.719 130.31ZM495.465 158.411C495.105 159.127 494.756 159.848 494.418 160.574C492.279 162.32 489.843 163.864 487.114 165.205C482.863 167.293 478.972 168.977 475.446 170.253L475.43 170.258C472.83 171.143 469.967 172.026 466.843 172.909C473.731 175.095 478.465 179.197 480.894 185.269L480.895 185.272C482.852 190.205 482.607 195.225 480.202 200.266L480.199 200.27C477.828 205.167 474.379 209.152 469.866 212.212L469.843 212.227L469.819 212.242C467.227 213.778 464.952 215.002 463.004 215.905C463.535 215.997 464.099 216.091 464.698 216.183C470.752 217.007 476.197 218.906 481.022 221.888C480.999 222.245 480.978 222.601 480.957 222.955L480.691 222.786C476.24 220.004 471.234 218.167 465.675 217.276L464.555 217.11C462.626 216.814 461.031 216.517 459.77 216.22C461.847 215.506 464.549 214.195 467.876 212.289L469.34 211.435C473.58 208.56 476.846 204.85 479.137 200.304L479.356 199.862C481.583 195.19 481.862 190.588 480.191 186.056L480.023 185.617C477.352 178.941 471.751 174.712 463.22 172.931C467.115 171.893 470.64 170.854 473.797 169.815L475.127 169.37C478.614 168.109 482.471 166.44 486.7 164.363C490.102 162.691 493.023 160.706 495.465 158.411ZM459.548 119.579C467.912 119.579 475.729 120.326 482.995 121.824C489.326 123.121 494.652 126.027 498.942 130.543C503.016 134.688 504.651 139.569 503.821 145.1C503.594 145.397 503.37 145.698 503.147 146.001C502.935 146.285 502.725 146.569 502.518 146.854C502.55 146.719 502.584 146.583 502.614 146.446C503.949 140.585 502.502 135.503 498.273 131.201C494.119 126.823 488.963 124.004 482.805 122.743C476.059 121.352 468.823 120.613 461.099 120.526L459.547 120.517C441.891 120.517 427.572 123.485 416.592 129.42L415.565 129.982C404.973 135.92 395.078 145.897 385.879 159.911L385.22 160.917C378.444 171.349 372.469 183.07 367.294 196.078C363.911 204.655 361.417 212.835 359.809 220.616C359.508 220.543 359.203 220.473 358.893 220.407C360.514 212.571 363.025 204.346 366.422 195.734L366.423 195.731C371.785 182.252 378.007 170.139 385.094 159.397L385.992 158.045C395.292 144.208 405.337 134.364 416.15 128.592C427.312 122.56 441.798 119.579 459.548 119.579Z" fill="black"/>
<path d="M290.36 120.027C301.755 119.282 312.161 119.429 321.573 120.475C342.393 122.675 356.644 128.721 363.963 138.861L364.306 139.347L364.325 139.374L364.342 139.403C366.33 142.768 367.667 146.437 368.353 150.402L368.488 151.212C369.8 159.589 368.65 167.925 365.062 176.198L365.061 176.201C361.379 184.617 356.085 192.457 349.194 199.723L349.195 199.724C341.086 208.365 331.245 216.343 319.681 223.664C329.077 221.291 336.768 219.792 342.74 219.181C349.467 218.383 355.239 218.537 360.002 219.697C359.936 220.004 359.872 220.311 359.809 220.616C355.194 219.485 349.537 219.318 342.836 220.115L341.587 220.253C335.218 221.005 326.992 222.702 316.907 225.345C316.61 225.419 316.128 225.531 315.46 225.679C314.867 225.827 314.422 225.939 314.125 226.013L314.793 225.568C328.221 217.555 339.46 208.727 348.511 199.083C355.123 192.111 360.238 184.618 363.857 176.602L364.202 175.825C367.837 167.441 368.913 159.021 367.429 150.564C366.803 146.947 365.623 143.591 363.889 140.496L363.534 139.881C356.778 130.106 343.408 124.022 323.424 121.628L321.47 121.408C312.122 120.369 301.773 120.221 290.422 120.963C273.136 122.075 259.448 126.304 249.359 133.649C244.462 137.284 240.679 141.772 238.008 147.114C235.411 152.455 234.966 157.797 236.673 163.138C237.637 166.329 239.343 169.074 241.791 171.373C244.314 173.599 247.244 175.268 250.583 176.381C253.995 177.494 257.297 178.31 260.487 178.829C263.677 179.274 266.978 179.497 270.391 179.497C274.842 179.497 280.852 179.052 288.419 178.162C283.522 180.536 278.218 183.355 272.505 186.619L271.441 187.226C266.081 190.308 260.167 194.075 253.699 198.526C246.873 203.274 240.642 208.096 235.003 212.993L233.968 213.916C228.83 218.558 224.278 223.593 220.314 229.018C216.085 234.73 213.489 240.183 212.524 245.376L212.379 246.408C211.692 251.516 211.592 255.809 212.079 259.286C212.524 262.996 213.489 266.371 214.972 269.413C216.456 272.455 218.459 275.014 220.982 277.091C223.504 279.169 226.064 280.986 228.66 282.544C231.331 284.028 234.484 285.289 238.119 286.328C241.829 287.367 245.056 288.183 247.801 288.776C250.62 289.37 253.958 289.963 257.816 290.557C270.057 292.087 283.048 292.704 296.789 292.408L299.547 292.337C303.627 292.189 307.596 291.966 311.454 291.669C315.312 291.298 319.652 290.705 324.474 289.889C328.758 289.175 332.759 288.319 336.475 287.321L338.051 286.884C341.945 285.771 345.873 284.333 349.833 282.568L350.625 282.21C354.854 280.207 358.527 277.945 361.642 275.422C363.964 273.587 366.048 271.475 367.898 269.089C368.098 269.339 368.301 269.587 368.506 269.833C366.647 272.205 364.556 274.312 362.232 276.151C359.05 278.727 355.313 281.029 351.028 283.058L351.015 283.064C346.747 285.011 342.511 286.585 338.308 287.786C334.116 288.984 329.556 289.992 324.63 290.813C319.791 291.632 315.428 292.23 311.543 292.604L311.535 292.604H311.526C307.655 292.902 303.673 293.125 299.581 293.274L299.575 293.275C284.769 293.722 270.81 293.126 257.699 291.488L257.674 291.484C253.804 290.889 250.448 290.293 247.607 289.695L247.603 289.693C244.834 289.094 241.587 288.274 237.866 287.232L237.861 287.23C234.173 286.176 230.95 284.89 228.204 283.364L228.191 283.357L228.178 283.349C225.538 281.765 222.94 279.92 220.385 277.816C217.755 275.65 215.669 272.982 214.129 269.824C212.595 266.679 211.604 263.201 211.148 259.398C210.615 255.572 210.774 250.844 211.596 245.24L211.598 245.223L211.602 245.205C212.6 239.833 215.274 234.25 219.559 228.461C223.829 222.619 228.771 217.228 234.383 212.289L234.388 212.284C240.054 207.363 246.313 202.521 253.163 197.756L253.167 197.754L255.731 196.005C261.646 192.01 267.084 188.608 272.043 185.802C275.999 183.542 279.763 181.494 283.333 179.657C278.13 180.173 273.814 180.435 270.391 180.435C266.938 180.435 263.593 180.21 260.357 179.759L260.346 179.757L260.336 179.755C257.094 179.227 253.745 178.399 250.292 177.273L250.286 177.271C246.834 176.12 243.792 174.39 241.171 172.077L241.16 172.067L241.15 172.057C238.582 169.645 236.786 166.758 235.774 163.41C233.995 157.829 234.471 152.243 237.164 146.704L237.169 146.694C239.906 141.218 243.787 136.616 248.799 132.895L248.806 132.89C259.085 125.408 272.964 121.147 290.36 120.027ZM241.235 159.244C241.235 158.65 241.161 158.279 241.013 158.131C241.013 154.199 241.94 150.601 243.795 147.336C245.603 144.207 247.835 141.566 250.491 139.414L251.028 138.99C253.921 136.765 257.297 134.799 261.155 133.092C264.841 131.493 268.331 130.251 271.626 129.369L272.283 129.197C275.77 128.233 279.331 127.454 282.966 126.86C293.204 125.599 302.292 125.154 310.23 125.525C314.459 125.748 318.279 126.044 321.692 126.415C325.105 126.786 329.185 127.528 333.933 128.641C338.681 129.68 342.762 130.978 346.174 132.536C349.661 134.094 352.851 136.319 355.744 139.213C358.712 142.032 360.715 145.296 361.754 149.006C363.312 155.089 363.163 161.543 361.309 168.369L361.152 168.932C359.488 174.753 356.535 180.575 352.295 186.396L351.481 187.517C347.378 193.081 342.752 198.123 337.605 202.644L336.581 203.547C331.417 208.055 325.601 212.464 319.133 216.777L317.843 217.617C311.423 221.786 305.361 225.401 299.658 228.461C294.335 231.252 288.927 233.874 283.434 236.324L281.074 237.364H280.852C270.391 241.221 263.343 243.966 259.708 245.599C258.818 245.97 258.261 246.637 258.039 247.602L258.015 247.782C257.915 248.673 258.108 249.466 258.595 250.161C259.189 250.829 260.005 250.977 261.043 250.606C262.157 250.217 266.796 248.408 274.96 245.181L284.301 241.481C311.677 230.279 333.859 224.678 350.848 224.678L351.345 224.682C353.819 224.725 356.064 225.095 358.081 225.79C358.344 225.856 358.593 225.92 358.83 225.981C358.781 226.292 358.734 226.603 358.688 226.913C358.427 226.845 358.149 226.775 357.853 226.701L357.814 226.691L357.776 226.677C355.738 225.975 353.432 225.616 350.848 225.616C334.039 225.616 311.99 231.164 284.657 242.349L284.648 242.353C270.657 247.905 262.878 250.956 261.358 251.489L261.359 251.49C260.734 251.713 260.099 251.808 259.484 251.697C258.854 251.582 258.318 251.262 257.894 250.784L257.858 250.744L257.827 250.699C257.158 249.743 256.929 248.642 257.111 247.459L257.117 247.424L257.125 247.39C257.412 246.149 258.159 245.236 259.324 244.742L260.051 244.421C263.89 242.747 270.724 240.099 280.527 236.484L280.684 236.426H280.876C287.101 233.711 293.217 230.78 299.223 227.63C305.276 224.382 311.74 220.503 318.618 215.992C325.484 211.414 331.604 206.731 336.982 201.943L336.986 201.939C342.422 197.164 347.27 191.802 351.531 185.85L351.536 185.844C355.859 179.91 358.806 174.003 360.403 168.123C362.22 161.437 362.357 155.152 360.847 149.247C359.856 145.716 357.948 142.6 355.098 139.893L355.089 139.884L355.081 139.876C352.263 137.058 349.166 134.9 345.791 133.392L345.785 133.389C342.448 131.866 338.434 130.586 333.733 129.558L333.725 129.556L333.719 129.555C328.994 128.447 324.954 127.713 321.591 127.348C318.201 126.979 314.399 126.684 310.187 126.462C302.318 126.094 293.289 126.535 283.095 127.79C279.5 128.378 275.98 129.149 272.533 130.102L272.524 130.104L272.515 130.106C269.085 130.982 265.423 132.263 261.528 133.953L261.527 133.952C257.73 135.632 254.424 137.562 251.6 139.734C248.809 141.881 246.478 144.568 244.607 147.806L244.606 147.805C242.878 150.85 241.993 154.201 241.954 157.876C242.03 158.043 242.074 158.206 242.1 158.336C242.154 158.606 242.173 158.916 242.173 159.244V159.98L242.348 160.505L242.364 160.554L242.375 160.605C242.788 162.528 243.607 164.239 244.837 165.75C246.155 167.202 247.752 168.385 249.639 169.296C251.677 170.169 253.596 170.855 255.399 171.36C257.21 171.867 259.286 172.304 261.631 172.671C273.544 174.127 289.332 172.564 309.039 167.92C312.996 166.135 317.135 164.683 321.457 163.565C322.089 163.388 322.724 163.348 323.33 163.513C323.953 163.683 324.468 164.05 324.873 164.556C325.654 165.532 325.895 166.682 325.611 167.912C325.464 168.548 325.169 169.112 324.7 169.553C324.246 169.98 323.68 170.245 323.051 170.387C321.466 170.819 318.388 171.88 313.784 173.588L313.626 173.647H313.457C313.457 173.647 313.447 173.647 313.425 173.649C313.403 173.652 313.372 173.656 313.333 173.662C313.253 173.676 313.149 173.697 313.017 173.73C312.854 173.78 312.689 173.817 312.521 173.84C312.433 173.915 312.343 173.986 312.253 174.046C312.125 174.131 311.915 174.251 311.652 174.295L310.973 174.49C301.168 178.178 290.614 183.197 279.308 189.551L279.304 189.553C268.002 195.832 256.916 203.297 246.048 211.947L246.045 211.949C235.201 220.506 227.281 228.693 222.237 236.504C219.64 241.42 218.24 246.503 218.024 251.758V251.765C217.806 256.199 218.169 260.129 219.096 263.568C219.223 263.944 219.559 264.69 220.14 265.854C220.391 266.281 220.907 267.277 221.669 268.8C225.559 273.939 231.984 278.007 241.077 280.928C250.203 283.86 261.944 285.614 276.325 286.169C291.571 286.687 305.208 286.242 317.242 284.839L319.101 284.609C338.144 282.128 351.79 276.686 360.205 268.411L360.224 268.392L360.244 268.375C361.914 266.905 363.222 265.357 364.186 263.734C364.364 264.036 364.548 264.335 364.734 264.633C363.744 266.197 362.454 267.679 360.863 269.079L360.442 269.487C351.506 278.006 337.143 283.435 317.352 285.771L315.066 286.024C304.311 287.152 292.334 287.542 279.136 287.193L276.289 287.107C247.43 285.994 228.957 280.059 220.87 269.302C220.054 267.67 219.535 266.668 219.312 266.297C218.719 265.11 218.348 264.294 218.2 263.849C217.296 260.51 216.913 256.748 217.052 252.562L217.087 251.719C217.309 246.303 218.756 241.073 221.427 236.028C226.386 228.338 234.06 220.335 244.45 212.018L245.464 211.212C255.688 203.075 266.108 195.981 276.723 189.93L278.848 188.733C290.199 182.353 300.808 177.308 310.675 173.599L311.454 173.376C311.603 173.376 311.825 173.228 312.122 172.931C312.344 172.931 312.567 172.894 312.79 172.82C313.012 172.764 313.193 172.73 313.332 172.716L313.457 172.709C318.057 171.002 321.173 169.927 322.805 169.482C323.779 169.273 324.394 168.738 324.65 167.877L324.697 167.701C324.905 166.797 324.755 165.991 324.247 165.282L324.14 165.142C323.547 164.4 322.731 164.177 321.692 164.474L320.887 164.687C316.875 165.769 313.026 167.145 309.34 168.814C289.532 173.488 273.581 175.083 261.488 173.599C259.411 173.274 257.533 172.893 255.853 172.455L255.145 172.264C253.291 171.744 251.325 171.04 249.247 170.149C247.244 169.185 245.538 167.924 244.128 166.366C242.877 164.836 242.016 163.11 241.546 161.189L241.458 160.802L241.235 160.134V159.244ZM365.35 221.638C367.868 222.918 369.961 224.622 371.613 226.764L371.838 227.053C376.5 233.159 377.609 242.373 375.475 254.442L375.473 254.451C374.748 258.343 373.447 261.955 371.573 265.283C371.369 265.006 371.167 264.725 370.967 264.441C372.675 261.311 373.872 257.924 374.551 254.279C376.635 242.492 375.552 233.699 371.3 227.9L370.879 227.348C369.37 225.389 367.458 223.804 365.143 222.59C365.21 222.274 365.28 221.957 365.35 221.638ZM364.074 228.17C364.287 228.344 364.516 228.552 364.758 228.795C364.907 228.795 365.055 228.869 365.203 229.018L366.984 230.798H367.207V231.021L367.874 232.356C368.468 233.246 368.802 233.803 368.876 234.025L368.879 234.186C368.896 234.542 368.969 234.786 369.098 234.915C370.211 237.883 370.656 241.963 370.434 247.157C370.211 251.459 369.432 255.354 368.097 258.841C367.948 258.841 367.874 258.99 367.874 259.286L367.697 259.287C367.521 258.973 367.35 258.66 367.184 258.348H367.207C367.243 258.301 367.283 258.253 367.331 258.207C368.557 254.903 369.284 251.209 369.496 247.116C369.713 242.053 369.279 238.158 368.263 235.368C368.137 235.182 368.064 234.984 368.021 234.81C367.975 234.627 367.951 234.433 367.942 234.236C367.909 234.173 367.854 234.071 367.765 233.924C367.609 233.664 367.387 233.316 367.094 232.876L367.062 232.828L367.035 232.776L366.435 231.576L364.592 229.733H364.37L364.095 229.459C364.026 229.39 363.96 229.326 363.896 229.265C363.953 228.903 364.012 228.538 364.074 228.17Z" fill="black"/>
<path d="M765.741 240.586V169.492H817.596V191.904H794.696V196.836H814.374V216.904H794.696V240.586H765.741ZM819.331 240.586V169.492H875.092V191.953H846.87V195.615H871.284V214.756H846.87V219.102H876.069V240.586H819.331ZM878.292 240.586V169.492H934.053V191.953H905.831V195.615H930.245V214.756H905.831V219.102H935.03V240.586H878.292ZM935.983 221.592V217.002H961.813V218.711C961.813 220.404 962.204 221.657 962.985 222.471C963.799 223.252 964.922 223.643 966.354 223.643C967.526 223.643 968.454 223.398 969.137 222.91C969.821 222.389 970.163 221.624 970.163 220.615C970.163 219.574 969.756 218.76 968.942 218.174C968.161 217.588 965.068 216.432 959.665 214.707C951.95 212.266 946.139 209.401 942.233 206.113C938.359 202.793 936.422 197.926 936.422 191.514C936.422 184.092 939.14 178.428 944.577 174.521C950.013 170.583 957.012 168.613 965.573 168.613C974.232 168.613 981.295 170.257 986.764 173.545C992.233 176.833 994.967 181.553 994.967 187.705V191.514H969.625V190.391C969.625 189.316 969.316 188.519 968.698 187.998C968.112 187.445 967.282 187.168 966.208 187.168C965.068 187.168 964.254 187.38 963.766 187.803C963.31 188.193 963.083 188.714 963.083 189.365C963.083 190.049 963.457 190.586 964.206 190.977C964.987 191.335 968.633 192.393 975.143 194.15C981.816 195.941 987.073 198.577 990.915 202.061C994.788 205.511 996.725 210.671 996.725 217.539C996.725 225.254 993.926 231.195 988.327 235.361C982.76 239.495 975.599 241.562 966.842 241.562C958.086 241.562 950.745 239.886 944.821 236.533C938.929 233.18 935.983 228.2 935.983 221.592ZM998.313 228.037C998.313 224.261 999.583 221.087 1002.12 218.516C1004.66 215.944 1008.27 214.658 1012.96 214.658C1017.68 214.658 1021.31 215.944 1023.85 218.516C1026.39 221.087 1027.66 224.261 1027.66 228.037C1027.66 231.878 1026.39 235.085 1023.85 237.656C1021.31 240.228 1017.68 241.514 1012.96 241.514C1008.27 241.514 1004.66 240.212 1002.12 237.607C999.583 234.971 998.313 231.781 998.313 228.037Z" fill="black"/>
<path d="M47.8968 372.617V368.027H73.7269V369.736C73.7269 371.429 74.1175 372.682 74.8987 373.496C75.7125 374.277 76.8356 374.667 78.2679 374.667C79.4398 374.667 80.3675 374.423 81.0511 373.935C81.7347 373.414 82.0765 372.649 82.0765 371.64C82.0765 370.598 81.6696 369.785 80.8558 369.199C80.0745 368.613 76.9821 367.457 71.5784 365.732C63.8636 363.291 58.053 360.426 54.1468 357.138C50.2731 353.818 48.3362 348.951 48.3362 342.539C48.3362 335.117 51.0543 329.453 56.4905 325.546C61.9267 321.608 68.9254 319.638 77.4866 319.638C86.1455 319.638 93.2093 321.282 98.678 324.57C104.147 327.858 106.881 332.578 106.881 338.73V342.539H81.5394V341.416C81.5394 340.341 81.2301 339.544 80.6116 339.023C80.0257 338.47 79.1956 338.193 78.1214 338.193C76.9821 338.193 76.1683 338.404 75.68 338.828C75.2243 339.218 74.9964 339.739 74.9964 340.39C74.9964 341.074 75.3707 341.611 76.1194 342.001C76.9007 342.36 80.5465 343.417 87.0569 345.175C93.7301 346.966 98.9873 349.602 102.828 353.085C106.702 356.536 108.639 361.695 108.639 368.564C108.639 376.279 105.839 382.22 100.241 386.386C94.6741 390.52 87.5127 392.587 78.7562 392.587C69.9997 392.587 62.6592 390.911 56.7347 387.558C50.8428 384.205 47.8968 379.225 47.8968 372.617ZM108.469 342.978V320.517H171.75V342.978H154.856V391.611H125.461V342.978H108.469ZM163.231 391.611L186.278 320.517H217.332L239.451 391.611H211.278L201.903 355.966C201.545 354.632 201.252 353.476 201.024 352.5C200.828 351.49 200.714 350.888 200.682 350.693H200.584C200.552 350.888 200.422 351.474 200.194 352.451C199.966 353.427 199.705 354.583 199.412 355.917L191.063 391.611H163.231ZM180.028 383.701L183.299 365.683H218.407L222.069 383.701H180.028ZM239.623 391.611V320.517H279.223C286.417 320.517 292.358 322.779 297.045 327.304C301.765 331.829 304.125 337.753 304.125 345.078C304.125 352.792 301.537 359.108 296.362 364.023C291.186 368.906 285.326 371.347 278.784 371.347H268.578V391.611H239.623ZM268.578 353.769H271.166C272.501 353.769 273.445 353.151 273.998 351.914C274.552 350.677 274.845 349.065 274.877 347.08C274.877 345.094 274.584 343.434 273.998 342.099C273.445 340.732 272.501 340.048 271.166 340.048H268.578V353.769ZM276 391.611L267.065 362.705L291.576 354.355L307.25 391.611H276ZM304.492 342.978V320.517H367.774V342.978H350.879V391.611H321.485V342.978H304.492ZM396.389 391.611V320.517H435.989C443.183 320.517 449.123 322.779 453.811 327.304C458.531 331.829 460.891 337.753 460.891 345.078C460.891 352.792 458.303 359.108 453.127 364.023C447.951 368.906 442.092 371.347 435.549 371.347H425.344V391.611H396.389ZM425.344 353.769H427.932C429.267 353.769 430.211 353.151 430.764 351.914C431.317 350.677 431.61 349.065 431.643 347.08C431.643 345.094 431.35 343.434 430.764 342.099C430.211 340.732 429.267 340.048 427.932 340.048H425.344V353.769ZM432.766 391.611L423.83 362.705L448.342 354.355L464.016 391.611H432.766ZM464.383 391.611V320.517H493.826V391.611H464.383ZM496.44 357.968V354.16C496.44 342.506 499.597 333.831 505.912 328.134C512.26 322.405 520.691 319.541 531.205 319.541C540.58 319.541 547.742 321.689 552.69 325.986C557.67 330.283 560.16 335.996 560.16 343.125V346.298H533.354V344.98C533.354 342.832 533.061 341.399 532.475 340.683C531.922 339.967 531.091 339.609 529.985 339.609C528.878 339.609 528.032 339.934 527.446 340.585C526.892 341.236 526.616 342.848 526.616 345.419V367.294C526.616 369.378 526.957 370.957 527.641 372.031C528.357 373.072 529.334 373.593 530.571 373.593C531.189 373.593 531.71 373.496 532.133 373.3C532.589 373.105 533.012 372.812 533.403 372.421V368.125H529.789V349.912L560.6 349.814V381.21C558.517 383.815 555.001 386.37 550.053 388.876C545.138 391.35 538.546 392.587 530.278 392.587C520.349 392.587 512.228 389.739 505.912 384.042C499.597 378.313 496.44 369.622 496.44 357.968ZM563.018 391.611V320.517H591.973V342.88H597.051V320.517H626.006V391.611H597.051V366.855H591.973V391.611H563.018ZM627.399 342.978V320.517H690.68V342.978H673.785V391.611H644.391V342.978H627.399ZM719.295 391.611V320.517H747.713L753.768 341.513C754.061 342.587 754.386 343.824 754.744 345.224C755.135 346.591 755.461 347.812 755.721 348.886H756.014C755.949 347.779 755.933 346.624 755.965 345.419C755.998 344.215 756.014 343.059 756.014 341.953V320.517H780.135V391.611H752.596L745.565 370.126C745.207 369.117 744.849 368.027 744.491 366.855C744.132 365.683 743.839 364.56 743.612 363.486H743.319C743.416 364.593 743.465 365.553 743.465 366.367C743.465 367.148 743.465 368.108 743.465 369.248V391.611H719.295ZM782.553 357.968V354.16C782.553 342.148 785.727 333.375 792.075 327.841C798.455 322.307 806.511 319.541 816.244 319.541C826.01 319.541 834.067 322.307 840.414 327.841C846.795 333.375 849.985 342.148 849.985 354.16V357.968C849.985 369.98 846.795 378.753 840.414 384.287C834.067 389.82 826.01 392.587 816.244 392.587C806.511 392.587 798.455 389.82 792.075 384.287C785.727 378.753 782.553 369.98 782.553 357.968ZM812.875 367.929C812.875 370.143 813.136 371.722 813.657 372.666C814.177 373.577 815.04 374.033 816.244 374.033C817.481 374.033 818.36 373.577 818.881 372.666C819.402 371.722 819.662 370.143 819.662 367.929V344.394C819.662 342.246 819.402 340.732 818.881 339.853C818.36 338.974 817.481 338.535 816.244 338.535C815.04 338.535 814.177 338.974 813.657 339.853C813.136 340.732 812.875 342.246 812.875 344.394V367.929ZM863.487 391.611L846.104 320.517H873.692L881.162 352.353C881.228 352.679 881.293 353.053 881.358 353.476C881.455 353.899 881.537 354.355 881.602 354.843H881.797C881.862 354.355 881.944 353.899 882.041 353.476C882.139 353.053 882.22 352.679 882.285 352.353L889.512 320.517H913.535L921.69 352.304C921.787 352.63 921.869 352.988 921.934 353.378C922.032 353.769 922.129 354.257 922.227 354.843H922.422C922.52 354.257 922.601 353.769 922.666 353.378C922.731 352.988 922.797 352.63 922.862 352.304L929.405 320.517H955.186L937.803 391.611H910.02L901.67 361.044C901.605 360.751 901.524 360.393 901.426 359.97C901.328 359.514 901.247 359.042 901.182 358.554H900.987C900.922 359.042 900.84 359.498 900.742 359.921C900.645 360.345 900.563 360.719 900.498 361.044L892.149 391.611H863.487ZM950.817 379.062C950.817 375.286 952.086 372.112 954.625 369.541C957.164 366.969 960.778 365.683 965.465 365.683C970.185 365.683 973.815 366.969 976.354 369.541C978.893 372.112 980.162 375.286 980.162 379.062C980.162 382.903 978.893 386.11 976.354 388.681C973.815 391.253 970.185 392.539 965.465 392.539C960.778 392.539 957.164 391.236 954.625 388.632C952.086 385.996 950.817 382.806 950.817 379.062Z" fill="black"/>
</svg>
