<svg width="1031" height="354" viewBox="0 0 1031 354" fill="none" xmlns="http://www.w3.org/2000/svg">
<path d="M73.3965 70.1377V65.5479H99.2266V67.2568C99.2266 68.9495 99.6172 70.2028 100.398 71.0166C101.212 71.7979 102.335 72.1885 103.768 72.1885C104.939 72.1885 105.867 71.9443 106.551 71.4561C107.234 70.9352 107.576 70.1702 107.576 69.1611C107.576 68.1195 107.169 67.3057 106.355 66.7197C105.574 66.1338 102.482 64.9782 97.0781 63.2529C89.3633 60.8115 83.5527 57.9469 79.6465 54.6592C75.7728 51.3389 73.8359 46.4723 73.8359 40.0596C73.8359 32.6377 76.554 26.9736 81.9902 23.0674C87.4264 19.1286 94.4251 17.1592 102.986 17.1592C111.645 17.1592 118.709 18.8031 124.178 22.0908C129.646 25.3786 132.381 30.0986 132.381 36.251V40.0596H107.039V38.9365C107.039 37.8623 106.73 37.0648 106.111 36.5439C105.525 35.9906 104.695 35.7139 103.621 35.7139C102.482 35.7139 101.668 35.9255 101.18 36.3486C100.724 36.7393 100.496 37.2601 100.496 37.9111C100.496 38.5947 100.87 39.1318 101.619 39.5225C102.4 39.8805 106.046 40.9385 112.557 42.6963C119.23 44.4867 124.487 47.1234 128.328 50.6064C132.202 54.057 134.139 59.2165 134.139 66.085C134.139 73.7998 131.339 79.7406 125.74 83.9072C120.174 88.0413 113.012 90.1084 104.256 90.1084C95.4993 90.1084 88.1589 88.432 82.2344 85.0791C76.3424 81.7262 73.3965 76.7458 73.3965 70.1377ZM136.361 89.1318V18.0381H192.123V40.499H163.9V44.1611H188.314V63.3018H163.9V67.6475H193.1V89.1318H136.361ZM195.322 89.1318V18.0381H223.74L229.795 39.0342C230.088 40.1084 230.413 41.3454 230.771 42.7451C231.162 44.1123 231.488 45.333 231.748 46.4072H232.041C231.976 45.3005 231.96 44.1449 231.992 42.9404C232.025 41.736 232.041 40.5804 232.041 39.4736V18.0381H256.162V89.1318H228.623L221.592 67.6475C221.234 66.6383 220.876 65.5479 220.518 64.376C220.16 63.2041 219.867 62.0811 219.639 61.0068H219.346C219.443 62.1136 219.492 63.0739 219.492 63.8877C219.492 64.6689 219.492 65.6292 219.492 66.7686V89.1318H195.322ZM259.459 89.1318V18.0381H293.15C302.818 18.0381 310.289 20.9678 315.562 26.8271C320.868 32.654 323.521 40.8571 323.521 51.4365V55.2451C323.521 65.8245 320.836 74.1253 315.465 80.1475C310.094 86.137 302.656 89.1318 293.15 89.1318H259.459ZM287.486 70.1865H289.684C291.214 70.1865 292.385 69.4541 293.199 67.9893C294.013 66.5244 294.42 63.904 294.42 60.1279V47.2373C294.42 43.3311 294.029 40.8083 293.248 39.6689C292.499 38.5296 291.311 37.96 289.684 37.96H287.486V70.1865ZM354.871 89.1318V18.0381H384.314V89.1318H354.871ZM387.807 89.1318V18.0381H416.225L422.279 39.0342C422.572 40.1084 422.898 41.3454 423.256 42.7451C423.646 44.1123 423.972 45.333 424.232 46.4072H424.525C424.46 45.3005 424.444 44.1449 424.477 42.9404C424.509 41.736 424.525 40.5804 424.525 39.4736V18.0381H448.646V89.1318H421.107L414.076 67.6475C413.718 66.6383 413.36 65.5479 413.002 64.376C412.644 63.2041 412.351 62.0811 412.123 61.0068H411.83C411.928 62.1136 411.977 63.0739 411.977 63.8877C411.977 64.6689 411.977 65.6292 411.977 66.7686V89.1318H387.807ZM478.385 70.1377V65.5479H504.215V67.2568C504.215 68.9495 504.605 70.2028 505.387 71.0166C506.201 71.7979 507.324 72.1885 508.756 72.1885C509.928 72.1885 510.855 71.9443 511.539 71.4561C512.223 70.9352 512.564 70.1702 512.564 69.1611C512.564 68.1195 512.158 67.3057 511.344 66.7197C510.562 66.1338 507.47 64.9782 502.066 63.2529C494.352 60.8115 488.541 57.9469 484.635 54.6592C480.761 51.3389 478.824 46.4723 478.824 40.0596C478.824 32.6377 481.542 26.9736 486.979 23.0674C492.415 19.1286 499.413 17.1592 507.975 17.1592C516.633 17.1592 523.697 18.8031 529.166 22.0908C534.635 25.3786 537.369 30.0986 537.369 36.251V40.0596H512.027V38.9365C512.027 37.8623 511.718 37.0648 511.1 36.5439C510.514 35.9906 509.684 35.7139 508.609 35.7139C507.47 35.7139 506.656 35.9255 506.168 36.3486C505.712 36.7393 505.484 37.2601 505.484 37.9111C505.484 38.5947 505.859 39.1318 506.607 39.5225C507.389 39.8805 511.035 40.9385 517.545 42.6963C524.218 44.4867 529.475 47.1234 533.316 50.6064C537.19 54.057 539.127 59.2165 539.127 66.085C539.127 73.7998 536.327 79.7406 530.729 83.9072C525.162 88.0413 518.001 90.1084 509.244 90.1084C500.488 90.1084 493.147 88.432 487.223 85.0791C481.331 81.7262 478.385 76.7458 478.385 70.1377ZM541.35 89.1318V18.0381H597.111V40.499H568.889V44.1611H593.303V63.3018H568.889V67.6475H598.088V89.1318H541.35ZM598.943 55.4893V51.6807C598.943 39.2132 602.02 30.3428 608.172 25.0693C614.357 19.7633 622.495 17.1104 632.586 17.1104C641.961 17.1104 649.367 19.096 654.803 23.0674C660.271 27.0062 663.006 33.4515 663.006 42.4033V49.6787H636.053V39.2783C636.053 38.3343 635.792 37.5693 635.271 36.9834C634.783 36.3975 634.1 36.1045 633.221 36.1045C632.212 36.1045 631.414 36.5114 630.828 37.3252C630.275 38.139 629.998 39.6201 629.998 41.7686V65.4502C629.998 67.7939 630.275 69.4053 630.828 70.2842C631.382 71.1631 632.179 71.6025 633.221 71.6025C634.197 71.6025 634.913 71.1631 635.369 70.2842C635.825 69.4053 636.053 67.859 636.053 65.6455V57.9795H663.006V66.5732C663.038 74.1579 660.32 79.9684 654.852 84.0049C649.383 88.0413 641.961 90.0596 632.586 90.0596C622.365 90.0596 614.194 87.3577 608.074 81.9541C601.987 76.5505 598.943 67.7288 598.943 55.4893ZM664.447 55.4893V51.6807C664.447 39.6689 667.621 30.8962 673.969 25.3623C680.349 19.8285 688.406 17.0615 698.139 17.0615C707.904 17.0615 715.961 19.8285 722.309 25.3623C728.689 30.8962 731.879 39.6689 731.879 51.6807V55.4893C731.879 67.501 728.689 76.2738 722.309 81.8076C715.961 87.3415 707.904 90.1084 698.139 90.1084C688.406 90.1084 680.349 87.3415 673.969 81.8076C667.621 76.2738 664.447 67.501 664.447 55.4893ZM694.77 65.4502C694.77 67.6637 695.03 69.2425 695.551 70.1865C696.072 71.098 696.934 71.5537 698.139 71.5537C699.376 71.5537 700.255 71.098 700.775 70.1865C701.296 69.2425 701.557 67.6637 701.557 65.4502V41.915C701.557 39.7666 701.296 38.2529 700.775 37.374C700.255 36.4951 699.376 36.0557 698.139 36.0557C696.934 36.0557 696.072 36.4951 695.551 37.374C695.03 38.2529 694.77 39.7666 694.77 41.915V65.4502ZM734.346 89.1318V18.0381H762.764L768.818 39.0342C769.111 40.1084 769.437 41.3454 769.795 42.7451C770.186 44.1123 770.511 45.333 770.771 46.4072H771.064C770.999 45.3005 770.983 44.1449 771.016 42.9404C771.048 41.736 771.064 40.5804 771.064 39.4736V18.0381H795.186V89.1318H767.646L760.615 67.6475C760.257 66.6383 759.899 65.5479 759.541 64.376C759.183 63.2041 758.89 62.0811 758.662 61.0068H758.369C758.467 62.1136 758.516 63.0739 758.516 63.8877C758.516 64.6689 758.516 65.6292 758.516 66.7686V89.1318H734.346ZM798.482 89.1318V18.0381H832.174C841.842 18.0381 849.312 20.9678 854.586 26.8271C859.892 32.654 862.545 40.8571 862.545 51.4365V55.2451C862.545 65.8245 859.859 74.1253 854.488 80.1475C849.117 86.137 841.679 89.1318 832.174 89.1318H798.482ZM826.51 70.1865H828.707C830.237 70.1865 831.409 69.4541 832.223 67.9893C833.036 66.5244 833.443 63.904 833.443 60.1279V47.2373C833.443 43.3311 833.053 40.8083 832.271 39.6689C831.523 38.5296 830.335 37.96 828.707 37.96H826.51V70.1865ZM862.814 70.1377V65.5479H888.645V67.2568C888.645 68.9495 889.035 70.2028 889.816 71.0166C890.63 71.7979 891.753 72.1885 893.186 72.1885C894.357 72.1885 895.285 71.9443 895.969 71.4561C896.652 70.9352 896.994 70.1702 896.994 69.1611C896.994 68.1195 896.587 67.3057 895.773 66.7197C894.992 66.1338 891.9 64.9782 886.496 63.2529C878.781 60.8115 872.971 57.9469 869.064 54.6592C865.191 51.3389 863.254 46.4723 863.254 40.0596C863.254 32.6377 865.972 26.9736 871.408 23.0674C876.844 19.1286 883.843 17.1592 892.404 17.1592C901.063 17.1592 908.127 18.8031 913.596 22.0908C919.064 25.3786 921.799 30.0986 921.799 36.251V40.0596H896.457V38.9365C896.457 37.8623 896.148 37.0648 895.529 36.5439C894.943 35.9906 894.113 35.7139 893.039 35.7139C891.9 35.7139 891.086 35.9255 890.598 36.3486C890.142 36.7393 889.914 37.2601 889.914 37.9111C889.914 38.5947 890.288 39.1318 891.037 39.5225C891.818 39.8805 895.464 40.9385 901.975 42.6963C908.648 44.4867 913.905 47.1234 917.746 50.6064C921.62 54.057 923.557 59.2165 923.557 66.085C923.557 73.7998 920.757 79.7406 915.158 83.9072C909.592 88.0413 902.43 90.1084 893.674 90.1084C884.917 90.1084 877.577 88.432 871.652 85.0791C865.76 81.7262 862.814 76.7458 862.814 70.1377ZM925.145 76.583C925.145 72.807 926.414 69.6331 928.953 67.0615C931.492 64.4899 935.105 63.2041 939.793 63.2041C944.513 63.2041 948.143 64.4899 950.682 67.0615C953.221 69.6331 954.49 72.807 954.49 76.583C954.49 80.4242 953.221 83.6305 950.682 86.2021C948.143 88.7738 944.513 90.0596 939.793 90.0596C935.105 90.0596 931.492 88.7575 928.953 86.1533C926.414 83.5166 925.145 80.3265 925.145 76.583Z" fill="black"/>
<path d="M3.13574 210.132V139.038H43.5654C51.4105 139.038 57.4977 141.528 61.8271 146.509C66.1891 151.489 68.3701 158.065 68.3701 166.235C68.3701 174.406 66.2705 180.933 62.0713 185.815C57.9046 190.698 51.5244 193.14 42.9307 193.14H32.0908V210.132H3.13574ZM32.0908 174.634H35.4111C36.9085 174.634 37.9502 173.901 38.5361 172.437C39.1546 170.939 39.4639 169.1 39.4639 166.919C39.4639 164.64 39.1546 162.769 38.5361 161.304C37.9502 159.839 36.9085 159.106 35.4111 159.106H32.0908V174.634ZM59.2158 210.132L82.2627 139.038H113.317L135.437 210.132H107.263L97.8877 174.487C97.5296 173.153 97.2367 171.997 97.0088 171.021C96.8135 170.011 96.6995 169.409 96.667 169.214H96.5693C96.5368 169.409 96.4066 169.995 96.1787 170.972C95.9508 171.948 95.6904 173.104 95.3975 174.438L87.0479 210.132H59.2158ZM76.0127 202.222L79.2842 184.204H114.392L118.054 202.222H76.0127ZM145.374 210.132V183.521L122.767 139.038H153.919L160.853 153.101C161.08 153.621 161.292 154.093 161.487 154.517C161.683 154.907 161.862 155.347 162.024 155.835H162.22C162.382 155.347 162.545 154.907 162.708 154.517C162.903 154.093 163.115 153.621 163.343 153.101L169.983 139.038H197.327L174.817 183.472V210.132H145.374Z" fill="black"/>
<path d="M765.739 210.132V139.038H817.594V161.45H794.694V166.382H814.372V186.45H794.694V210.132H765.739ZM819.329 210.132V139.038H875.09V161.499H846.868V165.161H871.282V184.302H846.868V188.647H876.067V210.132H819.329ZM878.29 210.132V139.038H934.051V161.499H905.829V165.161H930.243V184.302H905.829V188.647H935.028V210.132H878.29ZM935.981 191.138V186.548H961.811V188.257C961.811 189.95 962.202 191.203 962.983 192.017C963.797 192.798 964.92 193.188 966.352 193.188C967.524 193.188 968.452 192.944 969.135 192.456C969.819 191.935 970.161 191.17 970.161 190.161C970.161 189.119 969.754 188.306 968.94 187.72C968.159 187.134 965.066 185.978 959.663 184.253C951.948 181.812 946.137 178.947 942.231 175.659C938.357 172.339 936.42 167.472 936.42 161.06C936.42 153.638 939.139 147.974 944.575 144.067C950.011 140.129 957.01 138.159 965.571 138.159C974.23 138.159 981.293 139.803 986.762 143.091C992.231 146.379 994.965 151.099 994.965 157.251V161.06H969.624V159.937C969.624 158.862 969.314 158.065 968.696 157.544C968.11 156.991 967.28 156.714 966.206 156.714C965.066 156.714 964.252 156.925 963.764 157.349C963.308 157.739 963.081 158.26 963.081 158.911C963.081 159.595 963.455 160.132 964.204 160.522C964.985 160.881 968.631 161.938 975.141 163.696C981.814 165.487 987.071 168.123 990.913 171.606C994.786 175.057 996.723 180.216 996.723 187.085C996.723 194.8 993.924 200.741 988.325 204.907C982.758 209.041 975.597 211.108 966.84 211.108C958.084 211.108 950.743 209.432 944.819 206.079C938.927 202.726 935.981 197.746 935.981 191.138ZM998.311 197.583C998.311 193.807 999.581 190.633 1002.12 188.062C1004.66 185.49 1008.27 184.204 1012.96 184.204C1017.68 184.204 1021.31 185.49 1023.85 188.062C1026.39 190.633 1027.66 193.807 1027.66 197.583C1027.66 201.424 1026.39 204.631 1023.85 207.202C1021.31 209.774 1017.68 211.06 1012.96 211.06C1008.27 211.06 1004.66 209.757 1002.12 207.153C999.581 204.517 998.311 201.326 998.311 197.583Z" fill="black"/>
<path d="M47.8965 312.138V307.548H73.7266V309.257C73.7266 310.95 74.1172 312.203 74.8984 313.017C75.7122 313.798 76.8353 314.188 78.2676 314.188C79.4395 314.188 80.3672 313.944 81.0508 313.456C81.7344 312.935 82.0762 312.17 82.0762 311.161C82.0762 310.119 81.6693 309.306 80.8555 308.72C80.0742 308.134 76.9818 306.978 71.5781 305.253C63.8633 302.812 58.0527 299.947 54.1465 296.659C50.2728 293.339 48.3359 288.472 48.3359 282.06C48.3359 274.638 51.054 268.974 56.4902 265.067C61.9264 261.129 68.9251 259.159 77.4863 259.159C86.1452 259.159 93.209 260.803 98.6777 264.091C104.146 267.379 106.881 272.099 106.881 278.251V282.06H81.5391V280.937C81.5391 279.862 81.2298 279.065 80.6113 278.544C80.0254 277.991 79.1953 277.714 78.1211 277.714C76.9818 277.714 76.168 277.925 75.6797 278.349C75.224 278.739 74.9961 279.26 74.9961 279.911C74.9961 280.595 75.3704 281.132 76.1191 281.522C76.9004 281.881 80.5462 282.938 87.0566 284.696C93.7298 286.487 98.987 289.123 102.828 292.606C106.702 296.057 108.639 301.216 108.639 308.085C108.639 315.8 105.839 321.741 100.24 325.907C94.6738 330.041 87.5124 332.108 78.7559 332.108C69.9993 332.108 62.6589 330.432 56.7344 327.079C50.8424 323.726 47.8965 318.746 47.8965 312.138ZM108.469 282.499V260.038H171.75V282.499H154.855V331.132H125.461V282.499H108.469ZM163.23 331.132L186.277 260.038H217.332L239.451 331.132H211.277L201.902 295.487C201.544 294.153 201.251 292.997 201.023 292.021C200.828 291.011 200.714 290.409 200.682 290.214H200.584C200.551 290.409 200.421 290.995 200.193 291.972C199.965 292.948 199.705 294.104 199.412 295.438L191.062 331.132H163.23ZM180.027 323.222L183.299 305.204H218.406L222.068 323.222H180.027ZM239.623 331.132V260.038H279.223C286.417 260.038 292.357 262.3 297.045 266.825C301.765 271.35 304.125 277.274 304.125 284.599C304.125 292.313 301.537 298.629 296.361 303.544C291.186 308.427 285.326 310.868 278.783 310.868H268.578V331.132H239.623ZM268.578 293.29H271.166C272.501 293.29 273.445 292.672 273.998 291.435C274.551 290.198 274.844 288.586 274.877 286.601C274.877 284.615 274.584 282.955 273.998 281.62C273.445 280.253 272.501 279.569 271.166 279.569H268.578V293.29ZM276 331.132L267.064 302.226L291.576 293.876L307.25 331.132H276ZM304.492 282.499V260.038H367.773V282.499H350.879V331.132H321.484V282.499H304.492ZM396.389 331.132V260.038H435.988C443.182 260.038 449.123 262.3 453.811 266.825C458.531 271.35 460.891 277.274 460.891 284.599C460.891 292.313 458.303 298.629 453.127 303.544C447.951 308.427 442.092 310.868 435.549 310.868H425.344V331.132H396.389ZM425.344 293.29H427.932C429.266 293.29 430.21 292.672 430.764 291.435C431.317 290.198 431.61 288.586 431.643 286.601C431.643 284.615 431.35 282.955 430.764 281.62C430.21 280.253 429.266 279.569 427.932 279.569H425.344V293.29ZM432.766 331.132L423.83 302.226L448.342 293.876L464.016 331.132H432.766ZM464.383 331.132V260.038H493.826V331.132H464.383ZM496.439 297.489V293.681C496.439 282.027 499.597 273.352 505.912 267.655C512.26 261.926 520.691 259.062 531.205 259.062C540.58 259.062 547.742 261.21 552.689 265.507C557.67 269.804 560.16 275.517 560.16 282.646V285.819H533.354V284.501C533.354 282.353 533.061 280.92 532.475 280.204C531.921 279.488 531.091 279.13 529.984 279.13C528.878 279.13 528.031 279.455 527.445 280.106C526.892 280.757 526.615 282.369 526.615 284.94V306.815C526.615 308.899 526.957 310.478 527.641 311.552C528.357 312.593 529.333 313.114 530.57 313.114C531.189 313.114 531.71 313.017 532.133 312.821C532.589 312.626 533.012 312.333 533.402 311.942V307.646H529.789V289.433L560.6 289.335V320.731C558.516 323.336 555.001 325.891 550.053 328.397C545.137 330.871 538.546 332.108 530.277 332.108C520.349 332.108 512.227 329.26 505.912 323.563C499.597 317.834 496.439 309.143 496.439 297.489ZM563.018 331.132V260.038H591.973V282.401H597.051V260.038H626.006V331.132H597.051V306.376H591.973V331.132H563.018ZM627.398 282.499V260.038H690.68V282.499H673.785V331.132H644.391V282.499H627.398ZM719.295 331.132V260.038H747.713L753.768 281.034C754.061 282.108 754.386 283.345 754.744 284.745C755.135 286.112 755.46 287.333 755.721 288.407H756.014C755.949 287.3 755.932 286.145 755.965 284.94C755.997 283.736 756.014 282.58 756.014 281.474V260.038H780.135V331.132H752.596L745.564 309.647C745.206 308.638 744.848 307.548 744.49 306.376C744.132 305.204 743.839 304.081 743.611 303.007H743.318C743.416 304.114 743.465 305.074 743.465 305.888C743.465 306.669 743.465 307.629 743.465 308.769V331.132H719.295ZM782.553 297.489V293.681C782.553 281.669 785.727 272.896 792.074 267.362C798.454 261.828 806.511 259.062 816.244 259.062C826.01 259.062 834.066 261.828 840.414 267.362C846.794 272.896 849.984 281.669 849.984 293.681V297.489C849.984 309.501 846.794 318.274 840.414 323.808C834.066 329.341 826.01 332.108 816.244 332.108C806.511 332.108 798.454 329.341 792.074 323.808C785.727 318.274 782.553 309.501 782.553 297.489ZM812.875 307.45C812.875 309.664 813.135 311.243 813.656 312.187C814.177 313.098 815.04 313.554 816.244 313.554C817.481 313.554 818.36 313.098 818.881 312.187C819.402 311.243 819.662 309.664 819.662 307.45V283.915C819.662 281.767 819.402 280.253 818.881 279.374C818.36 278.495 817.481 278.056 816.244 278.056C815.04 278.056 814.177 278.495 813.656 279.374C813.135 280.253 812.875 281.767 812.875 283.915V307.45ZM863.486 331.132L846.104 260.038H873.691L881.162 291.874C881.227 292.2 881.292 292.574 881.357 292.997C881.455 293.42 881.536 293.876 881.602 294.364H881.797C881.862 293.876 881.943 293.42 882.041 292.997C882.139 292.574 882.22 292.2 882.285 291.874L889.512 260.038H913.535L921.689 291.825C921.787 292.151 921.868 292.509 921.934 292.899C922.031 293.29 922.129 293.778 922.227 294.364H922.422C922.52 293.778 922.601 293.29 922.666 292.899C922.731 292.509 922.796 292.151 922.861 291.825L929.404 260.038H955.186L937.803 331.132H910.02L901.67 300.565C901.605 300.272 901.523 299.914 901.426 299.491C901.328 299.035 901.247 298.563 901.182 298.075H900.986C900.921 298.563 900.84 299.019 900.742 299.442C900.645 299.866 900.563 300.24 900.498 300.565L892.148 331.132H863.486ZM950.816 318.583C950.816 314.807 952.086 311.633 954.625 309.062C957.164 306.49 960.777 305.204 965.465 305.204C970.185 305.204 973.814 306.49 976.354 309.062C978.893 311.633 980.162 314.807 980.162 318.583C980.162 322.424 978.893 325.631 976.354 328.202C973.814 330.774 970.185 332.06 965.465 332.06C960.777 332.06 957.164 330.757 954.625 328.153C952.086 325.517 950.816 322.326 950.816 318.583Z" fill="black"/>
<path d="M355.304 201.873C356.484 205.017 356.955 209.341 356.719 214.844C356.484 219.404 355.658 223.531 354.243 227.226C354.086 227.226 354.007 227.383 354.007 227.698H353.771V228.169C353.614 228.326 353.378 228.72 353.064 229.348C352.671 230.292 352.042 231.353 351.177 232.532C350.077 234.498 348.544 236.345 346.578 238.075C337.144 247.351 321.775 253.247 300.471 255.763C287.656 257.257 273.152 257.728 256.957 257.178C242.492 256.628 231.054 255.095 222.642 252.579C214.23 250.221 207.902 247.312 203.657 243.853C201.141 241.573 199.333 239.726 198.232 238.311C197.367 236.581 196.817 235.52 196.581 235.127C195.952 233.869 195.559 233.004 195.402 232.532C194.38 228.759 193.987 224.474 194.223 219.679C194.459 213.94 195.992 208.398 198.822 203.052C202.91 196.763 208.767 190.08 216.392 183.005C224.018 176.401 232.626 169.955 242.217 163.666C260.77 151.559 277.83 142.636 293.395 136.898L294.221 136.662C294.378 136.662 294.614 136.504 294.928 136.19C295.164 136.19 295.4 136.151 295.636 136.072C295.95 135.993 296.186 135.954 296.343 135.954C301.217 134.146 304.519 133.006 306.249 132.534C307.349 132.299 308.018 131.67 308.253 130.648C308.489 129.626 308.293 128.722 307.664 127.935C307.035 127.149 306.17 126.913 305.07 127.228C300.51 128.407 296.147 129.94 291.98 131.827C270.99 136.78 254.088 138.47 241.274 136.898C235.771 136.033 231.486 134.814 228.42 133.242C225.04 131.355 222.721 129.351 221.463 127.228C220.913 126.442 220.441 125.302 220.048 123.808C220.048 123.651 220.008 123.376 219.93 122.983C219.851 122.59 219.812 122.314 219.812 122.157V121.686C219.812 121.057 219.733 120.664 219.576 120.506C219.576 113.824 221.895 108.164 226.533 103.526C234.474 95.1924 246.973 89.8073 264.033 87.3703C274.882 86.0338 284.512 85.5621 292.924 85.9552C303.851 86.5055 313.442 87.9599 321.697 90.3183C329.873 92.3623 336.398 95.5855 341.272 99.9879C344.259 102.739 346.342 106.356 347.522 110.837C349.172 117.283 349.015 124.123 347.05 131.355C344.77 139.846 340.328 147.904 333.725 155.529C325.942 164.806 315.879 173.571 303.537 181.826C290.093 190.788 276.257 198.335 262.028 204.467H261.792C250.708 208.555 243.239 211.464 239.387 213.193C238.444 213.586 237.854 214.294 237.618 215.316C237.461 216.338 237.657 217.242 238.208 218.028C238.837 218.735 239.701 218.893 240.802 218.5C242.374 217.949 250.59 214.726 265.448 208.83C282.586 201.833 298.741 196.763 313.914 193.618C321.697 191.889 329.047 191.024 335.965 191.024C338.795 191.024 341.35 191.417 343.63 192.203C344.573 192.439 345.635 192.675 346.814 192.911L347.05 193.146H347.286C347.443 193.304 347.6 193.382 347.757 193.382C348.386 193.697 348.779 193.933 348.937 194.09C349.566 194.247 350.077 194.561 350.47 195.033C350.627 195.112 350.705 195.23 350.705 195.387L351.177 195.623L353.064 197.509H353.3V197.745C353.457 198.06 353.536 198.296 353.536 198.453C353.614 198.531 353.732 198.689 353.889 198.925C354.047 199.16 354.164 199.318 354.243 199.396C354.636 200.182 354.833 200.615 354.833 200.693L355.069 200.929C355.069 201.401 355.147 201.715 355.304 201.873Z" fill="white"/>
<path d="M488.767 96.3323C490.733 98.7694 491.755 101.403 491.833 104.233C491.912 107.063 491.086 109.736 489.357 112.252C487.785 114.846 485.623 117.165 482.871 119.209C480.198 121.253 477.014 123.022 473.32 124.516C469.703 126.009 466.559 127.189 463.886 128.053C461.292 128.84 458.108 129.704 454.334 130.648C449.696 131.905 442.227 133.674 431.929 135.954C421.709 138.234 413.965 140.16 408.698 141.732C406.89 142.204 405.672 142.676 405.043 143.147C404.885 143.305 404.728 143.383 404.571 143.383C403.313 144.248 402.92 145.388 403.392 146.803C403.863 148.218 404.885 148.768 406.458 148.454C406.929 148.454 407.244 148.297 407.401 147.982C407.558 147.982 413.061 146.764 423.91 144.327C433.344 142.283 438.808 141.182 440.301 141.025C453.116 139.688 461.724 142.401 466.126 149.161C468.17 151.992 468.878 154.94 468.249 158.006C467.699 161.072 466.48 163.823 464.593 166.26C462.785 168.697 460.545 170.82 457.872 172.628C452.919 176.008 445.844 178.996 436.646 181.59C429.02 181.826 421.63 182.533 414.476 183.713C408.187 184.342 401.073 185.875 393.133 188.312C391.56 188.783 390.931 189.845 391.246 191.495C391.639 192.989 392.543 193.618 393.958 193.382C413.297 191.81 427.684 189.727 437.118 187.132C444.193 186.975 450.403 187.29 455.749 188.076C461.095 188.783 465.93 190.473 470.254 193.146C474.656 195.898 477.801 199.947 479.687 205.292C481.653 210.56 482.203 215.866 481.338 221.212C480.159 227.58 477.211 233.24 472.494 238.193C467.777 243.067 462.156 246.88 455.631 249.631C449.106 252.304 442.503 254.309 435.82 255.645C429.217 256.982 422.81 257.65 416.599 257.65C393.958 257.964 376.427 252.422 364.006 241.023C360.39 237.564 357.127 233.358 354.218 228.405C351.31 223.374 349.58 218.618 349.03 214.136C347.929 205.41 349.541 193.264 353.865 177.699C356.223 169.601 359.289 161.268 363.062 152.699C366.915 144.13 371.435 135.522 376.623 126.874C381.891 118.227 387.983 110.64 394.901 104.115C401.898 97.5902 409.052 93.227 416.363 91.0258C426.662 87.724 439.161 86.191 453.862 86.4269C471.944 86.4269 483.579 89.7287 488.767 96.3323Z" fill="white"/>
<path d="M626.829 133.006C627.773 141.339 626.554 149.869 623.174 158.595L622.938 158.831V159.067C622.859 159.224 622.702 159.499 622.466 159.892C622.23 160.207 622.073 160.443 621.995 160.6C621.759 161.465 621.366 162.329 620.815 163.194C619.872 165.238 618.575 167.243 616.924 169.208C612.443 174.947 606.704 178.838 599.707 180.882C592.789 182.926 585.399 183.398 577.538 182.298C574.236 181.826 570.856 181 567.397 179.821C566.61 179.585 565.431 179.271 563.859 178.878C562.365 178.485 561.225 178.17 560.439 177.934C559.024 177.541 557.963 178.013 557.255 179.349V179.821C557.019 181.472 557.609 182.533 559.024 183.005C560.203 183.555 562.444 184.184 565.746 184.892V185.128C579.739 189.687 591.099 195.505 599.825 202.58C604.306 206.196 608.787 210.363 613.268 215.08C619.793 222.155 623.252 229.348 623.645 236.66C623.881 243.263 621.877 248.491 617.631 252.343C613.701 256.038 608.63 257.886 602.419 257.886C591.492 258.279 580.132 253.051 568.34 242.202C555.762 231.039 544.52 215.984 534.614 197.038L534.378 196.566C533.671 195.072 532.531 194.601 530.959 195.151C529.465 195.701 528.915 196.723 529.308 198.217C529.465 198.374 529.544 198.61 529.544 198.925C531.823 205.607 533.16 211.424 533.553 216.377C533.946 221.173 533.474 226.715 532.138 233.004C530.173 243.931 525.338 251.321 517.633 255.173C511.973 257.846 506.509 258.436 501.242 256.942C495.11 255.055 490.04 250.456 486.03 243.145C482.807 237.013 480.645 229.191 479.545 219.679C478.759 213.704 478.523 204.703 478.837 192.675C479.702 169.876 482.925 150.812 488.507 135.482C494.481 118.738 503.168 106.159 514.568 97.7474C519.363 94.6028 524.276 92.1264 529.308 90.3183C529.937 90.0825 530.605 89.8859 531.312 89.7287C532.099 89.4928 532.924 89.257 533.789 89.0212C534.732 88.7067 535.479 88.4709 536.029 88.3136C537.209 88.0778 538.348 87.8419 539.449 87.6061C540.235 87.6061 540.785 87.5275 541.1 87.3703H541.807C550.062 86.5055 558.906 86.5841 568.34 87.6061C582.176 89.3356 593.379 92.7161 601.948 97.7474C608.473 101.678 614.015 106.749 618.575 112.959C623.134 119.091 625.886 125.774 626.829 133.006ZM555.604 119.209C547.743 128.722 541.925 139.688 538.152 152.109C537.837 153.131 538.034 153.957 538.742 154.586C539.449 155.136 540.235 155.333 541.1 155.175C542.043 154.94 542.672 154.311 542.987 153.289C546.524 141.968 552.027 131.827 559.496 122.865C560.596 121.764 560.596 120.546 559.496 119.209C559.024 118.738 558.356 118.502 557.491 118.502C556.705 118.423 556.076 118.659 555.604 119.209Z" fill="white"/>
<path d="M694.61 86.4269C701.921 86.4269 708.682 87.8812 714.892 90.79C721.103 93.6201 726.291 97.4329 730.458 102.228C734.703 107.024 738.319 112.566 741.307 118.855C744.294 125.066 746.456 131.552 747.792 138.313C749.208 144.995 749.915 151.756 749.915 158.595C749.915 166.928 748.775 175.89 746.495 185.481C741.543 206.629 732.07 224.16 718.076 238.075C704.161 251.911 689.225 258.829 673.266 258.829C655.735 258.829 641.663 250.456 631.05 233.712C624.918 224.042 621.026 212.643 619.375 199.514C617.724 186.385 618.471 173.139 621.616 159.774C626.647 138.548 636.081 121.017 649.917 107.181C663.832 93.345 678.73 86.4269 694.61 86.4269ZM690.718 148.69C681.363 163.627 674.209 179.271 669.256 195.623C669.021 196.487 669.178 197.234 669.728 197.863C670.278 198.414 670.986 198.689 671.851 198.689C673.266 198.689 674.091 198.06 674.327 196.802C679.437 180.843 686.355 165.71 695.081 151.402C695.71 150.459 695.71 149.554 695.081 148.69C694.531 147.746 693.784 147.275 692.841 147.275C691.897 147.275 691.19 147.746 690.718 148.69Z" fill="white"/>
<path d="M736.903 108.125C743.428 118.344 747.555 130.412 749.285 144.327C751.014 158.163 750.189 172.196 746.808 186.425C745.079 193.815 742.602 201.126 739.379 208.358C736.156 215.591 732.107 222.588 727.233 229.348C722.438 236.031 717.131 241.966 711.314 247.155C705.496 252.265 698.853 256.392 691.385 259.536C683.995 262.602 676.369 264.135 668.508 264.135C658.996 264.135 650.151 261.698 641.975 256.824C633.799 251.872 627.039 245.229 621.693 236.895C615.168 226.676 611.001 214.647 609.193 200.811C607.385 186.896 608.171 172.746 611.552 158.359C616.819 135.954 626.921 117.44 641.857 102.818C656.873 88.1957 672.95 80.8845 690.088 80.8845C699.679 80.8845 708.444 83.3216 716.384 88.1957C724.403 92.9912 731.242 99.6341 736.903 108.125ZM745.157 158.595C745.157 151.756 744.45 144.995 743.035 138.313C741.698 131.552 739.536 125.066 736.549 118.855C733.562 112.566 729.945 107.024 725.7 102.228C721.534 97.4329 716.345 93.6201 710.134 90.79C703.924 87.8812 697.163 86.4269 689.852 86.4269C673.972 86.4269 659.074 93.345 645.159 107.181C631.323 121.017 621.889 138.548 616.858 159.774C613.713 173.139 612.967 186.385 614.617 199.514C616.268 212.643 620.16 224.042 626.292 233.712C636.905 250.456 650.977 258.829 668.508 258.829C684.467 258.829 699.404 251.911 713.318 238.075C727.312 224.16 736.785 206.629 741.737 185.481C744.017 175.89 745.157 166.928 745.157 158.595ZM685.96 148.69C686.432 147.746 687.14 147.275 688.083 147.275C689.026 147.275 689.773 147.746 690.323 148.69C690.952 149.554 690.952 150.459 690.323 151.402C681.597 165.71 674.679 180.843 669.569 196.802C669.333 198.06 668.508 198.689 667.093 198.689C666.228 198.689 665.521 198.414 664.97 197.863C664.42 197.234 664.263 196.487 664.499 195.623C669.451 179.271 676.605 163.627 685.96 148.69Z" fill="black"/>
<path d="M626.435 149.633C623.84 161.504 618.73 170.898 611.105 177.816C603.479 184.656 593.77 188.076 581.978 188.076C589.997 192.085 597.072 196.92 603.204 202.58C618.77 216.259 625.609 229.624 623.722 242.674C622.7 249.277 619.438 254.466 613.935 258.239C608.51 261.934 602.3 263.664 595.303 263.428C589.328 263.113 583.236 261.423 577.025 258.357C570.893 255.213 565.154 251.164 559.809 246.211C554.541 241.18 549.824 236.109 545.658 230.999C541.491 225.889 537.679 220.583 534.219 215.08V215.669C534.534 219.915 534.102 225.85 532.922 233.476C530.8 241.809 527.773 248.491 523.842 253.522C519.912 258.554 514.173 261.62 506.626 262.72C499.629 263.742 493.104 262.209 487.051 258.121C481.233 254.112 476.713 247.508 473.49 238.311C468.93 225.26 467.594 206.983 469.48 183.477C470.031 176.401 470.817 169.68 471.839 163.312C472.861 156.866 474.315 150.183 476.202 143.265C478.089 136.347 480.29 130.019 482.805 124.28C485.4 118.462 488.662 112.92 492.593 107.653C496.524 102.307 500.926 97.826 505.8 94.2097C510.674 90.5148 516.413 87.5275 523.017 85.2477C529.699 82.9678 536.971 81.7493 544.832 81.5921C571.719 80.7273 592.709 86.5055 607.803 98.9266C614.485 104.194 619.634 110.719 623.251 118.502C627.732 127.857 628.793 138.234 626.435 149.633ZM622.071 133.006C621.128 125.774 618.377 119.091 613.817 112.959C609.257 106.749 603.715 101.678 597.19 97.7474C588.621 92.7161 577.418 89.3356 563.582 87.6061C554.148 86.5841 545.304 86.5055 537.05 87.3703H536.342C536.028 87.5275 535.477 87.6061 534.691 87.6061C533.591 87.8419 532.451 88.0778 531.271 88.3136C522.388 90.9865 515.234 94.1311 509.81 97.7474C487.719 113.863 475.809 145.506 474.079 192.675C473.765 204.703 474.001 213.704 474.787 219.679C475.258 224.003 476.045 228.169 477.145 232.179C478.246 236.188 479.818 240.237 481.862 244.325C483.906 248.334 486.658 251.557 490.117 253.994C493.576 256.431 497.546 257.65 502.027 257.65C509.023 257.65 514.684 255.37 519.008 250.81C523.331 246.251 526.122 240.315 527.38 233.004C528.716 226.715 529.188 221.173 528.795 216.377C528.402 211.424 527.066 205.607 524.786 198.925C524.786 198.61 524.707 198.374 524.55 198.217C524.314 197.352 524.471 196.605 525.022 195.976C525.65 195.348 526.358 195.033 527.144 195.033C528.245 195.033 529.07 195.544 529.621 196.566C529.778 196.723 529.856 196.881 529.856 197.038C539.762 215.984 551.004 231.039 563.582 242.202C575.374 253.051 586.734 258.279 597.662 257.886C603.872 257.886 608.943 256.038 612.873 252.343C617.119 248.491 619.123 243.263 618.888 236.66C618.494 229.348 615.035 222.155 608.51 215.08C601.199 207.376 593.967 201.283 586.813 196.802C579.659 192.242 571.05 188.351 560.988 185.128V184.892C557.686 184.184 555.445 183.555 554.266 183.005C552.851 182.533 552.262 181.472 552.497 179.821V179.349C553.205 178.013 554.266 177.541 555.681 177.934C555.839 178.013 556.114 178.092 556.507 178.17C556.9 178.249 557.175 178.327 557.332 178.406L560.988 179.349C561.145 179.428 561.42 179.507 561.813 179.585C562.206 179.664 562.481 179.743 562.639 179.821C566.098 181 569.478 181.826 572.78 182.298C580.641 183.398 588.031 182.926 594.949 180.882C601.946 178.838 607.685 174.947 612.166 169.208C613.817 167.243 615.114 165.238 616.057 163.194C616.608 162.408 617.079 161.386 617.472 160.128L617.944 159.303L618.18 159.067V158.831C618.337 158.831 618.416 158.752 618.416 158.595C621.796 149.869 623.015 141.339 622.071 133.006ZM550.846 119.209C551.318 118.659 551.947 118.423 552.733 118.502C553.598 118.502 554.266 118.738 554.738 119.209C555.839 120.546 555.839 121.764 554.738 122.865C547.27 131.827 541.767 141.968 538.229 153.289C537.679 154.625 536.892 155.293 535.87 155.293C535.084 155.293 534.416 154.979 533.866 154.35C533.315 153.721 533.158 152.974 533.394 152.109C537.168 139.688 542.985 128.722 550.846 119.209Z" fill="black"/>
<path d="M471.038 83.0071C477.563 84.3436 483.027 87.3309 487.429 91.9692C491.91 96.5289 493.443 101.914 492.028 108.125C491.163 112.134 489.237 115.75 486.25 118.973C483.341 122.197 479.646 124.909 475.165 127.11C470.684 129.311 466.596 131.08 462.901 132.416C459.207 133.674 455.001 134.932 450.284 136.19C459.324 138.077 465.26 142.558 468.09 149.633C470.055 154.586 469.82 159.617 467.382 164.727C464.945 169.758 461.408 173.846 456.769 176.991C452.524 179.507 449.144 181.197 446.628 182.062C447.965 182.376 449.655 182.691 451.699 183.005C458.067 183.87 463.766 185.874 468.798 189.019C473.829 192.164 477.484 196.448 479.764 201.873C484.009 211.857 483.656 221.841 478.703 231.825C475.165 239.372 468.994 245.74 460.189 250.928C451.777 255.96 442.265 259.458 431.652 261.423C421.118 263.389 410.583 263.821 400.049 262.72C391.244 261.777 382.99 259.812 375.285 256.824C367.66 253.837 360.663 249.395 354.295 243.499C347.927 237.524 343.446 230.488 340.852 222.391C338.651 215.63 337.943 208.201 338.729 200.104C339.751 187.997 343.053 174.868 348.635 160.718C354.295 146.489 360.86 133.714 368.328 122.393C378.391 107.063 389.239 96.293 400.874 90.0825C412.509 83.7933 427.682 80.6487 446.392 80.6487C455.197 80.6487 463.412 81.4348 471.038 83.0071ZM484.009 96.3323C478.821 89.7287 467.186 86.4269 449.105 86.4269C434.404 86.191 421.904 87.724 411.605 91.0258C404.137 93.3057 396.865 97.7867 389.79 104.469C382.793 111.073 376.661 118.738 371.394 127.464C366.205 136.111 361.764 144.68 358.069 153.171C354.374 161.661 351.386 169.837 349.107 177.699C344.783 193.264 343.171 205.41 344.272 214.136C344.822 218.618 346.552 223.374 349.46 228.405C352.369 233.358 355.632 237.564 359.248 241.023C371.669 252.422 389.2 257.964 411.841 257.65C418.052 257.65 424.459 256.982 431.062 255.645C437.745 254.309 444.348 252.304 450.873 249.631C457.398 246.88 463.019 243.067 467.736 238.193C472.453 233.24 475.401 227.58 476.58 221.212C477.445 215.866 476.895 210.56 474.929 205.292C473.043 199.947 469.898 195.898 465.496 193.146C461.172 190.473 456.337 188.783 450.991 188.076C445.646 187.29 439.435 186.975 432.36 187.132C423.004 189.727 408.697 191.81 389.436 193.382H389.2C387.785 193.618 386.881 192.989 386.488 191.495C386.173 189.845 386.802 188.783 388.375 188.312C396.315 185.874 403.429 184.341 409.719 183.713C416.873 182.533 424.262 181.826 431.888 181.59C441.086 178.996 448.161 176.008 453.114 172.628C455.787 170.82 458.027 168.697 459.835 166.26C461.722 163.823 462.941 161.072 463.491 158.006C464.12 154.94 463.412 151.992 461.368 149.161C456.966 142.401 448.358 139.688 435.544 141.025C434.05 141.182 428.586 142.283 419.152 144.327C408.304 146.764 402.8 147.982 402.643 147.982C402.486 148.297 402.172 148.454 401.7 148.454C400.128 148.768 399.106 148.218 398.634 146.803C398.162 145.388 398.555 144.248 399.813 143.383L400.285 143.147C400.914 142.676 402.132 142.204 403.94 141.732C409.208 140.16 416.951 138.234 427.171 135.954C437.47 133.674 444.938 131.905 449.576 130.648C453.35 129.704 456.534 128.84 459.128 128.053C461.801 127.189 464.945 126.009 468.562 124.516C472.257 123.022 475.44 121.253 478.113 119.209C480.865 117.165 483.027 114.846 484.599 112.252C486.329 109.736 487.154 107.063 487.075 104.233C486.997 101.403 485.975 98.7694 484.009 96.3323Z" fill="black"/>
<path d="M352.433 193.854C357.307 199.986 358.605 209.498 356.325 222.391C355.46 227.029 353.809 231.274 351.372 235.127C348.935 238.9 346.026 242.123 342.646 244.796C339.344 247.469 335.452 249.867 330.971 251.989C326.49 254.033 322.049 255.684 317.646 256.942C313.244 258.2 308.448 259.261 303.26 260.126C298.15 260.991 293.551 261.62 289.463 262.013C285.375 262.327 281.169 262.563 276.845 262.72C261.201 263.192 246.461 262.563 232.624 260.834C228.536 260.205 224.999 259.576 222.011 258.947C219.103 258.318 215.683 257.453 211.752 256.353C207.9 255.252 204.559 253.916 201.729 252.343C198.977 250.692 196.265 248.766 193.592 246.565C190.919 244.364 188.797 241.652 187.224 238.428C185.652 235.205 184.63 231.628 184.158 227.698C183.608 223.767 183.765 218.853 184.63 212.957C185.652 207.454 188.404 201.676 192.885 195.623C197.366 189.491 202.554 183.831 208.45 178.642C214.425 173.453 221.029 168.343 228.261 163.312C235.572 158.281 242.215 154.075 248.19 150.694C254.243 147.235 259.864 144.248 265.053 141.732C257.034 142.676 250.666 143.147 245.95 143.147C242.333 143.147 238.835 142.912 235.455 142.44C232.074 141.89 228.576 141.025 224.959 139.846C221.422 138.666 218.317 136.898 215.644 134.539C213.049 132.102 211.241 129.193 210.219 125.813C208.411 120.153 208.883 114.492 211.634 108.832C214.464 103.172 218.474 98.4156 223.662 94.5635C234.354 86.7806 248.858 82.2996 267.176 81.1204C279.204 80.3342 290.17 80.4915 300.076 81.5921C322.402 83.9505 337.261 90.4755 344.65 101.167C346.694 104.626 348.07 108.4 348.778 112.488C350.35 121.45 349.21 130.373 345.358 139.256C341.506 148.061 335.963 156.276 328.731 163.902C319.14 174.122 307.23 183.477 293.001 191.967L292.293 192.439C292.607 192.36 293.079 192.242 293.708 192.085C294.416 191.928 294.927 191.81 295.241 191.731C306.64 188.744 315.799 186.896 322.717 186.189C337.261 184.459 347.166 187.014 352.433 193.854ZM350.547 201.873C350.389 201.715 350.311 201.401 350.311 200.929C350.232 200.693 349.878 200.104 349.249 199.16L348.542 197.745V197.509H348.306L346.419 195.623C346.262 195.465 346.105 195.387 345.948 195.387C345.24 194.679 344.65 194.247 344.179 194.09C344.021 193.932 343.628 193.697 342.999 193.382L342.528 193.146H342.292C341.584 192.911 340.445 192.596 338.872 192.203C336.592 191.417 334.037 191.024 331.207 191.024C313.205 191.024 289.699 196.959 260.69 208.83C245.832 214.726 237.616 217.949 236.044 218.5C234.944 218.893 234.079 218.735 233.45 218.028C232.9 217.242 232.703 216.338 232.86 215.316C233.096 214.294 233.686 213.586 234.629 213.193C238.481 211.464 245.95 208.555 257.034 204.467H257.27C263.952 201.558 270.517 198.414 276.963 195.033C283.41 191.574 290.288 187.447 297.599 182.651C304.911 177.777 311.436 172.785 317.175 167.675C322.992 162.565 328.181 156.826 332.74 150.459C337.379 144.091 340.562 137.723 342.292 131.355C344.257 124.123 344.415 117.283 342.764 110.837C341.663 106.906 339.54 103.447 336.396 100.46C333.33 97.3936 329.949 95.0352 326.255 93.3843C322.638 91.7334 318.314 90.3576 313.283 89.257C308.252 88.0778 303.928 87.2916 300.312 86.8986C296.695 86.5055 292.647 86.191 288.166 85.9552C279.754 85.5621 270.124 86.0338 259.275 87.3703C255.423 87.9992 251.649 88.8246 247.954 89.8466C244.259 90.79 240.329 92.1658 236.162 93.9739C232.074 95.782 228.497 97.8653 225.431 100.224C222.365 102.582 219.81 105.53 217.766 109.068C215.801 112.527 214.818 116.34 214.818 120.506C214.975 120.664 215.054 121.057 215.054 121.686V122.629L215.29 123.336C215.762 125.538 216.705 127.503 218.12 129.233C219.614 130.884 221.422 132.22 223.544 133.242C225.746 134.185 227.829 134.932 229.794 135.482C231.76 136.033 234 136.504 236.516 136.898C249.33 138.47 266.232 136.78 287.222 131.827C291.389 129.94 295.752 128.407 300.312 127.228C301.412 126.913 302.277 127.149 302.906 127.935C303.535 128.722 303.731 129.626 303.496 130.648C303.26 131.67 302.592 132.299 301.491 132.534C299.761 133.006 296.46 134.146 291.585 135.954C291.428 135.954 291.192 135.993 290.878 136.072C290.642 136.151 290.406 136.19 290.17 136.19C289.856 136.504 289.62 136.662 289.463 136.662L288.637 136.898C278.182 140.828 266.94 146.174 254.912 152.935C242.884 159.617 231.091 167.557 219.535 176.755C207.979 185.874 199.488 194.64 194.064 203.052C191.234 208.398 189.701 213.94 189.465 219.679C189.229 224.474 189.622 228.759 190.644 232.532C190.801 233.004 191.194 233.869 191.823 235.127C192.059 235.52 192.61 236.581 193.474 238.311C202.043 249.71 221.618 255.999 252.199 257.178C268.394 257.728 282.899 257.257 295.713 255.763C317.017 253.247 332.387 247.351 341.82 238.075C343.786 236.345 345.319 234.498 346.419 232.532C347.284 231.353 347.913 230.292 348.306 229.348C348.62 228.72 348.856 228.326 349.014 228.169V227.698H349.249C349.249 227.383 349.328 227.226 349.485 227.226C350.9 223.531 351.726 219.404 351.962 214.844C352.197 209.341 351.726 205.017 350.547 201.873Z" fill="black"/>
<path d="M690.087 79.8902C699.853 79.8902 708.796 82.3736 716.895 87.3428L717.656 87.805C725.232 92.4879 731.742 98.8167 737.189 106.772L737.73 107.573L737.735 107.581L737.741 107.59C744.357 117.952 748.527 130.165 750.271 144.204L750.427 145.512C751.961 159.046 751.075 172.76 747.775 186.65L747.776 186.651C746.032 194.105 743.534 201.476 740.287 208.763C737.034 216.061 732.952 223.117 728.04 229.93C723.204 236.668 717.85 242.657 711.975 247.897L711.97 247.901C706.068 253.085 699.333 257.269 691.771 260.453L691.766 260.455C684.258 263.57 676.503 265.13 668.508 265.13C658.817 265.13 649.796 262.644 641.467 257.678L641.46 257.674C634.606 253.523 628.734 248.201 623.843 241.721C623.899 241.224 623.943 240.726 623.973 240.228C628.921 247.018 634.921 252.551 641.975 256.824C649.896 261.546 658.443 263.98 667.618 264.128L668.508 264.135C676.124 264.135 683.518 262.697 690.691 259.819L691.385 259.536C698.62 256.49 705.08 252.521 710.766 247.631L711.314 247.155C717.131 241.966 722.438 236.031 727.233 229.348C731.803 223.01 735.647 216.465 738.765 209.712L739.379 208.358C742.602 201.126 745.079 193.815 746.808 186.425C750.083 172.64 750.96 159.04 749.439 145.624L749.285 144.327C747.609 130.847 743.683 119.1 737.507 109.088L736.903 108.125C731.242 99.6341 724.403 92.9912 716.384 88.1957C708.444 83.3216 699.679 80.8845 690.088 80.8845C672.95 80.8845 656.873 88.1957 641.857 102.818C635.473 109.069 629.971 116.03 625.353 123.703C625.217 123.296 625.075 122.892 624.927 122.488C629.498 115.023 634.909 108.228 641.162 102.107L641.164 102.105C656.321 87.3451 672.635 79.8903 690.087 79.8902ZM615.501 173.216C614.479 181.995 614.514 190.72 615.604 199.39C617.239 212.396 621.089 223.651 627.131 233.179C637.59 249.68 651.367 257.835 668.508 257.835L668.508 258.829L667.689 258.823C650.81 258.57 637.178 250.459 626.792 234.49L626.292 233.712C620.16 224.042 616.268 212.643 614.617 199.514C613.577 191.239 613.49 182.916 614.354 174.547C614.745 174.112 615.126 173.667 615.501 173.216ZM744.163 158.595C744.163 151.825 743.462 145.133 742.062 138.519L742.06 138.505C740.74 131.827 738.604 125.421 735.653 119.286L735.651 119.282C732.7 113.07 729.133 107.608 724.955 102.888L724.949 102.88C720.883 98.2 715.813 94.4699 709.722 91.6944L709.713 91.6905C703.643 88.8476 697.027 87.4215 689.851 87.4215C674.293 87.4216 659.635 94.189 645.86 107.886C638.435 115.312 632.286 123.818 627.417 133.408C627.358 132.819 627.287 132.233 627.206 131.65C632.01 122.503 637.994 114.346 645.159 107.181C659.074 93.345 673.972 86.4269 689.852 86.4269L690.536 86.4312C697.585 86.5193 704.118 87.9722 710.134 90.79C716.345 93.6201 721.534 97.4329 725.7 102.228C729.945 107.024 733.562 112.566 736.549 118.855C739.536 125.066 741.698 131.552 743.035 138.313C744.45 144.995 745.157 151.756 745.157 158.595C745.157 166.928 744.017 175.89 741.737 185.481C736.785 206.629 727.312 224.16 713.318 238.075L712.666 238.719C698.937 252.126 684.217 258.829 668.508 258.829L668.508 257.835C684.146 257.835 698.843 251.066 712.617 237.37C726.465 223.6 735.855 206.24 740.769 185.255L740.77 185.251C743.035 175.722 744.163 166.838 744.163 158.595ZM612.568 220.042C613.534 221.394 614.389 222.749 615.135 224.109C615.849 225.88 616.617 227.61 617.44 229.298C617.919 230.705 618.281 232.117 618.528 233.533C616.175 229.312 614.189 224.814 612.568 220.042ZM608.413 180.02C608.041 187.008 608.3 193.939 609.193 200.811C609.604 203.959 610.139 207.013 610.795 209.974C610.366 209.506 609.927 209.037 609.478 208.567C608.971 206.087 608.548 203.545 608.208 200.94C607.341 194.269 607.065 187.545 607.38 180.77C607.729 180.526 608.072 180.275 608.413 180.02ZM688.082 146.28C689.429 146.28 690.467 146.984 691.162 148.156C691.555 148.714 691.789 149.338 691.789 150.016C691.789 150.696 691.553 151.334 691.171 151.918L691.172 151.919C682.493 166.15 675.612 181.2 670.527 197.071C670.365 197.847 670.004 198.529 669.376 199.008C668.737 199.495 667.94 199.683 667.093 199.683C665.996 199.683 665.026 199.324 664.267 198.566L664.244 198.543L664.222 198.518C663.434 197.617 663.223 196.519 663.539 195.361L663.543 195.348L664.021 193.795C668.975 177.923 676.002 162.719 685.101 148.186C685.392 147.622 685.782 147.142 686.293 146.802C686.828 146.445 687.437 146.28 688.082 146.28ZM688.083 147.275C687.14 147.275 686.432 147.746 685.96 148.69C676.605 163.627 669.451 179.271 664.499 195.623C664.263 196.487 664.42 197.234 664.97 197.863C665.521 198.414 666.228 198.689 667.093 198.689C668.508 198.689 669.333 198.06 669.569 196.802C674.679 180.843 681.597 165.71 690.323 151.402C690.952 150.459 690.952 149.554 690.323 148.69C689.773 147.746 689.026 147.275 688.083 147.275ZM621.316 128.857C621.435 129.363 621.545 129.873 621.645 130.386C617.294 138.917 613.93 148.241 611.552 158.359C610.42 163.173 609.581 167.961 609.031 172.722C608.666 173.079 608.293 173.425 607.915 173.763C608.464 168.582 609.352 163.372 610.583 158.132C613.08 147.513 616.656 137.753 621.316 128.857ZM622.21 142.584C622.093 144.001 621.915 145.424 621.678 146.852C620.274 150.826 619.05 154.954 618.009 159.237L617.944 159.303L617.472 160.128C617.097 161.33 616.647 162.314 616.128 163.086C616.355 161.983 616.598 160.879 616.858 159.774C618.287 153.746 620.071 148.016 622.21 142.584Z" fill="black"/>
<path d="M534.219 215.08C537.679 220.583 541.491 225.889 545.658 230.999C549.824 236.109 554.541 241.18 559.809 246.211C565.154 251.164 570.893 255.213 577.025 258.357C583.236 261.423 589.328 263.113 595.303 263.428C602.081 263.656 608.122 262.041 613.424 258.58L613.935 258.239C619.266 254.584 622.494 249.6 623.62 243.289L623.722 242.674C623.84 241.86 623.923 241.045 623.973 240.228C624.269 240.635 624.569 241.038 624.873 241.435C624.828 241.896 624.773 242.356 624.706 242.816L624.705 242.826C623.641 249.7 620.227 255.13 614.497 259.059L614.494 259.061C608.883 262.883 602.462 264.664 595.269 264.421H595.261L595.251 264.42C589.122 264.098 582.898 262.365 576.585 259.248L576.579 259.245L576.572 259.241C570.355 256.053 564.541 251.951 559.133 246.94L559.128 246.935L559.122 246.93C553.828 241.874 549.083 236.772 544.887 231.627C541.457 227.42 538.265 223.08 535.311 218.607C535.308 222.594 534.836 227.607 533.905 233.627L533.898 233.675L533.886 233.721C531.741 242.144 528.665 248.964 524.626 254.135C520.508 259.406 514.517 262.574 506.769 263.704C499.519 264.763 492.745 263.167 486.494 258.945L486.486 258.94C480.814 255.031 476.395 248.794 473.172 240.338C473.421 240.047 473.665 239.752 473.904 239.456C477.096 248.059 481.478 254.281 487.051 258.121C493.104 262.209 499.629 263.742 506.626 262.72C513.937 261.654 519.551 258.743 523.468 253.988L523.842 253.522C527.65 248.648 530.61 242.225 532.721 234.252L532.922 233.476C534.102 225.85 534.534 219.915 534.219 215.669V215.08ZM551.503 179.103L551.619 178.884C552.045 178.079 552.632 177.435 553.42 177.085C554.212 176.733 555.078 176.735 555.947 176.976L556.04 177.002L556.126 177.045C556.123 177.044 556.133 177.049 556.161 177.059C556.188 177.069 556.228 177.082 556.279 177.097C556.383 177.126 556.522 177.16 556.701 177.196C557.04 177.263 557.373 177.348 557.641 177.459L561.338 178.413L561.433 178.46C561.435 178.461 561.446 178.466 561.468 178.474C561.495 178.484 561.534 178.497 561.585 178.511C561.689 178.541 561.829 178.574 562.008 178.61C562.356 178.68 562.697 178.767 562.97 178.883C566.372 180.042 569.688 180.852 572.92 181.313C580.655 182.396 587.899 181.928 594.667 179.929L594.67 179.928C600.394 178.256 605.242 175.316 609.23 171.1C609.16 171.641 609.093 172.182 609.031 172.722C605.103 176.567 600.409 179.287 594.949 180.882C588.247 182.863 581.103 183.367 573.515 182.396L572.78 182.298C569.478 181.826 566.098 181 562.639 179.821C562.481 179.743 562.206 179.664 561.813 179.585C561.518 179.526 561.29 179.467 561.128 179.408L560.988 179.349L557.332 178.406C557.214 178.347 557.03 178.289 556.779 178.23L556.507 178.17C556.212 178.111 555.984 178.053 555.822 177.994L555.681 177.934C554.266 177.541 553.205 178.013 552.497 179.349V179.821C552.262 181.472 552.851 182.533 554.266 183.005C555.445 183.555 557.686 184.184 560.988 184.892V185.128C571.05 188.351 579.659 192.242 586.813 196.802C593.967 201.283 601.199 207.376 608.51 215.08C611.266 218.068 613.473 221.078 615.135 224.109C615.849 225.88 616.617 227.61 617.44 229.298C618.271 231.739 618.755 234.192 618.888 236.66C619.123 243.263 617.119 248.491 612.873 252.343C608.943 256.038 603.872 257.886 597.662 257.886C586.734 258.279 575.374 253.051 563.582 242.202C551.004 231.039 539.762 215.984 529.856 197.038C529.856 196.881 529.778 196.723 529.621 196.566C529.105 195.608 528.347 195.099 527.347 195.039L527.144 195.033C526.358 195.033 525.65 195.348 525.022 195.976L524.923 196.096C524.453 196.699 524.329 197.407 524.55 198.217L524.605 198.28C524.726 198.434 524.786 198.65 524.786 198.925C527.066 205.607 528.402 211.424 528.795 216.377C529.188 221.173 528.716 226.715 527.38 233.004L527.258 233.685C525.947 240.685 523.196 246.393 519.008 250.81C514.684 255.37 509.023 257.65 502.027 257.65L502.027 256.656C508.785 256.656 514.172 254.464 518.286 250.126C522.451 245.733 525.17 239.988 526.401 232.835L526.404 232.817L526.407 232.797C527.73 226.573 528.188 221.131 527.805 216.458L527.804 216.456C527.419 211.612 526.108 205.879 523.845 199.246L523.792 199.089V198.924C523.792 198.898 523.789 198.877 523.788 198.861L523.66 198.733L523.591 198.479C523.275 197.32 523.485 196.222 524.273 195.321L524.295 195.297L524.319 195.274C525.108 194.485 526.059 194.039 527.144 194.039C527.854 194.039 528.522 194.206 529.112 194.571C529.662 194.911 530.094 195.395 530.427 195.976C530.596 196.171 530.748 196.42 530.814 196.721C540.351 214.931 551.11 229.485 563.077 240.41L564.242 241.458L564.248 241.464L564.255 241.47C575.944 252.224 587.06 257.272 597.626 256.892L597.643 256.891H597.662C603.66 256.891 608.474 255.114 612.192 251.619L612.206 251.607C616.2 247.983 618.121 243.056 617.894 236.695C617.513 229.689 614.195 222.715 607.789 215.765L606.428 214.347C599.626 207.358 592.911 201.795 586.285 197.645L586.278 197.64C579.211 193.136 570.684 189.278 560.684 186.075L559.994 185.853V185.69C557.143 185.057 555.083 184.473 553.888 183.924C553.03 183.625 552.324 183.114 551.893 182.339C551.472 181.581 551.382 180.693 551.503 179.762V179.103ZM478.307 232.639C479.376 236.342 480.855 240.087 482.748 243.873L483.126 244.591C485.056 248.132 487.578 250.989 490.689 253.181C493.97 255.493 497.738 256.656 502.027 256.656L502.027 257.65L501.192 257.636C497.051 257.493 493.359 256.279 490.117 253.994C486.874 251.71 484.253 248.734 482.254 245.067L481.862 244.325C480.11 240.821 478.706 237.345 477.647 233.899C477.876 233.483 478.095 233.063 478.307 232.639ZM467.812 194.808C468.143 195.079 468.464 195.361 468.777 195.651C468.274 210.586 469.309 223.026 471.881 232.974C471.643 233.339 471.397 233.702 471.143 234.061C468.328 223.672 467.226 210.579 467.812 194.808ZM619.443 219.789C621.293 222.905 622.686 226.015 623.618 229.119C622.037 226.155 620.646 223.045 619.443 219.789ZM473.946 202.867C474.305 203.644 474.633 204.452 474.929 205.292C474.939 205.318 474.948 205.344 474.958 205.37C475.02 210.632 475.246 214.976 475.633 218.408L475.772 219.549L475.774 219.56L475.775 219.571C475.899 220.705 476.044 221.828 476.212 222.94C476.027 223.707 475.815 224.464 475.577 225.21C475.301 223.657 475.068 222.083 474.879 220.488L474.787 219.679C474.241 215.533 473.961 209.929 473.946 202.867ZM608.413 180.02C608.391 180.446 608.369 180.871 608.351 181.297C602.01 185.839 594.476 188.381 585.78 188.945C592.503 192.623 598.531 196.917 603.86 201.833C606.236 203.921 608.415 206.007 610.397 208.091C610.524 208.723 610.657 209.35 610.795 209.974C608.55 207.52 606.02 205.055 603.204 202.58C597.072 196.92 589.997 192.085 581.978 188.076C592.426 188.076 601.236 185.389 608.413 180.02ZM537.05 87.3703C545.304 86.5055 554.148 86.5841 563.582 87.6061C577.418 89.3356 588.621 92.7161 597.19 97.7474C603.715 101.678 609.257 106.749 613.817 112.959C617.821 118.344 620.429 124.153 621.645 130.386C621.393 130.879 621.146 131.375 620.901 131.874C619.837 125.3 617.216 119.196 613.019 113.552L613.015 113.547C608.533 107.442 603.088 102.461 596.677 98.5994C588.265 93.6624 577.211 90.3121 563.468 88.5933C554.097 87.5786 545.327 87.5031 537.153 88.3594L537.102 88.3642H536.535C536.049 88.5378 535.438 88.5929 534.798 88.5982C533.738 88.8248 532.643 89.0524 531.512 89.2788C522.721 91.9275 515.688 95.0269 510.384 98.5587C488.679 114.401 476.799 145.641 475.073 192.711C475.059 193.237 475.047 193.757 475.035 194.272C474.722 193.916 474.398 193.569 474.065 193.229C474.07 193.045 474.074 192.86 474.079 192.675C475.809 145.506 487.719 113.863 509.81 97.7474C515.234 94.1311 522.388 90.9865 531.271 88.3136C532.451 88.0778 533.591 87.8419 534.691 87.6061C535.477 87.6061 536.028 87.5275 536.342 87.3703H537.05ZM484.453 120.803C483.877 121.951 483.327 123.11 482.805 124.28C480.29 130.019 478.089 136.347 476.202 143.265L475.853 144.56C474.135 151.018 472.797 157.269 471.839 163.312C470.817 169.68 470.031 176.401 469.48 183.477C469.324 185.42 469.192 187.327 469.08 189.199C468.986 189.139 468.892 189.078 468.798 189.019C468.573 188.879 468.347 188.741 468.119 188.606C468.225 186.898 468.348 185.162 468.489 183.397C469.042 176.299 469.83 169.552 470.856 163.156L471.055 161.938C472.069 155.831 473.466 149.519 475.243 143.004C477.141 136.045 479.357 129.67 481.895 123.881L481.897 123.875C482.108 123.403 482.324 122.933 482.543 122.464C483.208 121.929 483.844 121.375 484.453 120.803ZM627.989 130.188C629.032 136.382 628.836 142.934 627.408 149.835L627.406 149.845C625.059 160.587 620.663 169.38 614.197 176.18C614.245 175.636 614.298 175.092 614.354 174.547C620.2 168.033 624.228 159.73 626.435 149.633C627.739 143.326 627.995 137.331 627.206 131.65C627.464 131.16 627.724 130.672 627.989 130.188ZM550.092 118.562C550.789 117.748 551.737 117.412 552.799 117.51C553.755 117.521 554.628 117.776 555.305 118.379L555.441 118.506L555.475 118.54L555.505 118.578C556.141 119.35 556.558 120.206 556.558 121.125C556.558 122.045 556.141 122.847 555.485 123.52C548.11 132.376 542.675 142.395 539.178 153.585L539.165 153.627L539.148 153.667C538.52 155.193 537.462 156.287 535.871 156.287C534.778 156.287 533.843 155.834 533.117 155.005C532.329 154.104 532.119 153.006 532.435 151.847L532.443 151.82C536.252 139.28 542.13 128.195 550.08 118.576L550.092 118.562ZM552.733 118.502C551.947 118.423 551.318 118.659 550.846 119.209L550.116 120.105C542.624 129.408 537.05 140.076 533.394 152.109L533.354 152.27C533.179 153.067 533.35 153.76 533.866 154.35C534.382 154.939 535.001 155.252 535.724 155.289L535.87 155.293C536.828 155.293 537.58 154.706 538.123 153.532L538.229 153.289C541.767 141.968 547.27 131.827 554.738 122.865C555.77 121.833 555.834 120.697 554.931 119.458L554.738 119.209C554.266 118.738 553.598 118.502 552.733 118.502ZM544.8 80.598C571.837 79.7284 593.094 85.5347 608.435 98.1586C615.233 103.521 620.474 110.166 624.153 118.082C624.862 119.564 625.486 121.069 626.026 122.599C625.8 122.965 625.575 123.333 625.353 123.703C624.764 121.936 624.065 120.201 623.251 118.502C619.747 110.962 614.806 104.602 608.425 99.4237L607.803 98.9266C592.709 86.5055 571.719 80.7273 544.832 81.5921L543.365 81.6339C536.064 81.9057 529.281 83.1104 523.017 85.2477C516.413 87.5275 510.674 90.5148 505.8 94.2097L504.892 94.8984C500.378 98.39 496.278 102.641 492.593 107.653L491.927 108.557C491.961 108.413 491.997 108.269 492.028 108.125C492.168 107.509 492.278 106.902 492.36 106.303C496.2 101.218 500.481 96.9177 505.208 93.4109C510.175 89.6472 516.007 86.6158 522.693 84.3078L522.696 84.3068C529.482 81.9916 536.852 80.7581 544.8 80.598ZM618.416 158.595C618.416 158.752 618.337 158.831 618.18 158.831V159.067L617.944 159.303L617.472 160.128L617.321 160.588C616.979 161.584 616.579 162.415 616.128 163.086C616.355 161.983 616.598 160.879 616.858 159.774C616.937 159.442 617.016 159.11 617.097 158.779L617.147 158.694L617.185 158.655V158.427C617.234 158.23 617.283 158.033 617.332 157.837H617.64C619.079 154.048 620.103 150.304 620.712 146.603C621.19 145.246 621.689 143.906 622.21 142.584C621.777 147.845 620.513 153.183 618.416 158.595Z" fill="black"/>
<path d="M349.275 238.086C350.793 239.977 352.466 241.782 354.295 243.499C360.663 249.395 367.66 253.837 375.285 256.824C382.99 259.812 391.244 261.777 400.049 262.72C410.583 263.821 421.118 263.389 431.652 261.423C442.265 259.458 451.777 255.96 460.189 250.928C465.85 247.592 470.42 243.767 473.904 239.456C474.038 239.818 474.174 240.175 474.313 240.528C470.793 244.762 466.247 248.513 460.694 251.785L460.693 251.784C452.172 256.88 442.548 260.416 431.833 262.4L431.834 262.401C421.207 264.383 410.576 264.82 399.946 263.71L399.943 263.709C391.058 262.757 382.717 260.772 374.926 257.751L374.923 257.75C367.175 254.715 360.073 250.204 353.619 244.228L353.615 244.225C351.807 242.529 350.149 240.748 348.639 238.883C348.853 238.62 349.066 238.355 349.275 238.086ZM471.548 231.638C471.656 232.088 471.767 232.533 471.881 232.974C470.697 234.792 469.317 236.533 467.736 238.193C463.019 243.067 457.398 246.88 450.873 249.631L449.649 250.125C443.523 252.552 437.327 254.392 431.062 255.645C424.459 256.982 418.052 257.65 411.841 257.65C389.2 257.964 371.669 252.422 359.248 241.023C356.851 238.73 354.612 236.109 352.526 233.16C352.705 232.833 352.879 232.505 353.047 232.173C355.179 235.241 357.473 237.949 359.928 240.298C372.105 251.469 389.357 256.968 411.828 256.656L411.841 256.655C417.98 256.655 424.321 255.995 430.865 254.671H430.867C437.481 253.348 444.02 251.362 450.485 248.715C456.892 246.013 462.402 242.275 467.021 237.501C468.788 235.646 470.295 233.691 471.548 231.638ZM474.111 191.878C476.924 194.562 479.116 197.766 480.679 201.484L481.074 202.446C485.014 212.386 484.513 222.351 479.594 232.267C479.126 233.262 478.613 234.236 478.058 235.189C477.915 234.759 477.779 234.329 477.647 233.899C478.021 233.218 478.374 232.526 478.703 231.825C483.656 221.841 484.009 211.857 479.764 201.873C478.375 198.568 476.475 195.688 474.065 193.229C474.07 193.045 474.074 192.86 474.079 192.675C474.089 192.408 474.1 192.143 474.111 191.878ZM338.872 192.203C339.15 192.272 339.415 192.34 339.666 192.405C339.255 195.016 338.942 197.582 338.729 200.104C337.943 208.201 338.651 215.63 340.852 222.391C342.103 226.295 343.794 229.952 345.922 233.363C345.73 233.667 345.527 233.967 345.313 234.264C343.032 230.679 341.229 226.824 339.906 222.698C337.658 215.793 336.943 208.23 337.738 200.021L337.842 198.871C338.054 196.661 338.341 194.42 338.701 192.146C338.758 192.165 338.815 192.183 338.872 192.203ZM345.222 194.724C345.448 194.909 345.69 195.13 345.948 195.387C346.004 195.387 346.059 195.399 346.115 195.419C344.971 202.424 344.659 208.347 345.165 213.202L345.258 214.012L345.259 214.015C345.747 217.989 347.205 222.228 349.666 226.737C349.606 226.9 349.547 227.064 349.485 227.226C349.328 227.226 349.249 227.383 349.249 227.698L349.061 227.698C346.394 222.927 344.796 218.407 344.272 214.136C343.611 208.898 343.928 202.427 345.222 194.724ZM473.946 202.867C474.305 203.644 474.633 204.452 474.929 205.292C476.895 210.56 477.445 215.866 476.58 221.212C476.328 222.577 475.992 223.909 475.577 225.21C475.441 224.443 475.314 223.67 475.199 222.893C475.351 222.279 475.487 221.659 475.603 221.031C476.434 215.87 475.903 210.745 473.998 205.64L473.995 205.631L473.991 205.624C473.983 205.6 473.975 205.577 473.966 205.554C473.955 204.683 473.948 203.787 473.946 202.867ZM411.605 91.0258C421.904 87.724 434.404 86.191 449.105 86.4269C467.186 86.4269 478.821 89.7287 484.009 96.3323C485.975 98.7694 486.997 101.403 487.075 104.233C487.154 107.063 486.329 109.736 484.599 112.252L484.298 112.735C482.754 115.135 480.693 117.293 478.113 119.209C475.44 121.253 472.257 123.022 468.562 124.516C464.945 126.009 461.801 127.189 459.128 128.053C456.534 128.84 453.35 129.704 449.576 130.648C444.938 131.905 437.47 133.674 427.171 135.954C416.951 138.234 409.208 140.16 403.94 141.732L403.29 141.909C401.837 142.322 400.835 142.735 400.285 143.147L399.813 143.383C398.555 144.248 398.162 145.388 398.634 146.803C399.106 148.218 400.128 148.768 401.7 148.454C402.172 148.454 402.486 148.297 402.643 147.982C402.8 147.982 408.304 146.764 419.152 144.327C428.586 142.283 434.05 141.182 435.544 141.025C448.358 139.688 456.966 142.401 461.368 149.161C463.412 151.992 464.12 154.94 463.491 158.006L463.38 158.577C462.785 161.414 461.604 163.975 459.835 166.26L459.491 166.714C457.745 168.961 455.619 170.933 453.114 172.628C448.161 176.008 441.086 178.996 431.888 181.59C424.262 181.826 416.873 182.533 409.719 183.713C403.429 184.341 396.315 185.874 388.375 188.312L388.091 188.407C386.728 188.918 386.193 189.948 386.488 191.495C386.881 192.989 387.785 193.618 389.2 193.382H389.436L392.989 193.082C410.465 191.548 423.589 189.564 432.36 187.132C439.435 186.975 445.646 187.29 450.991 188.076C456.337 188.783 461.172 190.473 465.496 193.146C466.681 193.887 467.774 194.723 468.777 195.651C468.762 196.101 468.748 196.549 468.736 196.994C467.61 195.857 466.356 194.856 464.973 193.991C460.776 191.397 456.076 189.751 450.861 189.061L450.854 189.06L450.846 189.059C445.599 188.287 439.486 187.973 432.5 188.123C423.049 190.727 408.706 192.806 389.516 194.373L389.477 194.377H389.259C388.413 194.499 387.588 194.387 386.893 193.904C386.182 193.409 385.759 192.633 385.526 191.748L385.517 191.715L385.512 191.681C385.325 190.705 385.392 189.759 385.869 188.954C386.288 188.247 386.95 187.774 387.742 187.477L388.089 187.359C396.06 184.913 403.23 183.364 409.593 182.725C416.741 181.548 424.12 180.841 431.729 180.601C440.822 178.028 447.746 175.088 452.553 171.807L452.557 171.804C455.143 170.055 457.3 168.009 459.037 165.668L459.044 165.659L459.049 165.652C460.837 163.343 461.99 160.74 462.513 157.83L462.514 157.817L462.517 157.806C463.084 155.046 462.464 152.377 460.562 149.743L460.548 149.724L460.536 149.704C456.442 143.416 448.329 140.69 435.647 142.012L435.648 142.013C434.223 142.163 428.832 143.247 419.363 145.299L419.362 145.298C413.941 146.515 409.855 147.429 407.103 148.039C405.727 148.343 404.684 148.573 403.973 148.726C403.649 148.796 403.392 148.848 403.203 148.887C402.824 149.271 402.31 149.423 401.81 149.443C400.912 149.609 400.04 149.56 399.283 149.152C398.491 148.726 397.983 147.994 397.69 147.117C397.402 146.253 397.352 145.384 397.635 144.563C397.918 143.744 398.493 143.084 399.25 142.564L399.307 142.525L399.368 142.494L399.774 142.29C400.585 141.717 401.938 141.228 403.677 140.773C408.978 139.192 416.742 137.262 426.954 134.984H426.956C437.253 132.704 444.702 130.94 449.316 129.689L449.336 129.683C453.091 128.744 456.252 127.885 458.822 127.107L459.835 126.772C462.25 125.956 465.032 124.898 468.183 123.597L468.189 123.594C471.816 122.128 474.919 120.4 477.509 118.419L477.521 118.411C480.182 116.434 482.252 114.207 483.749 111.737L483.764 111.712L483.78 111.688C485.4 109.332 486.154 106.863 486.082 104.261C486.01 101.671 485.079 99.2432 483.235 96.9567L483.228 96.947C480.809 93.8686 476.822 91.4773 471.121 89.8594C465.423 88.2426 458.094 87.4215 449.104 87.4215H449.097L449.089 87.4205C434.46 87.1858 422.075 88.7139 411.909 91.973L411.896 91.9769C404.606 94.2023 397.463 98.5896 390.473 105.192C383.545 111.73 377.469 119.324 372.245 127.978L372.244 127.977C367.076 136.59 362.657 145.121 358.981 153.568C355.302 162.02 352.33 170.151 350.064 177.964L350.065 177.965C348.948 181.985 348.015 185.769 347.265 189.316C346.969 189.141 346.665 188.974 346.355 188.811C347.1 185.324 348.017 181.62 349.107 177.699C351.244 170.328 354.004 162.682 357.385 154.759L358.069 153.171C361.764 144.68 366.205 136.111 371.394 127.464C376.661 118.738 382.793 111.073 389.79 104.469C396.644 97.9956 403.682 93.5877 410.905 91.2458L411.605 91.0258ZM484.453 120.803C484.072 121.562 483.701 122.326 483.344 123.095C481.077 124.946 478.496 126.582 475.604 128.002C471.099 130.215 466.976 132 463.24 133.352L463.222 133.358C460.467 134.295 457.434 135.231 454.123 136.166C461.422 138.482 466.439 142.83 469.013 149.264L469.014 149.267C471.088 154.494 470.827 159.814 468.28 165.156L468.277 165.16C465.763 170.349 462.109 174.572 457.327 177.814L457.303 177.831L457.276 177.846C454.53 179.474 452.12 180.77 450.055 181.728C450.618 181.825 451.216 181.924 451.85 182.022C458.266 182.895 464.036 184.908 469.149 188.068C469.124 188.446 469.102 188.823 469.08 189.199L468.798 189.019C464.081 186.071 458.777 184.125 452.885 183.18L451.699 183.005C449.655 182.691 447.965 182.376 446.628 182.062C448.829 181.305 451.693 179.916 455.218 177.896L456.769 176.991C461.263 173.945 464.723 170.013 467.151 165.196L467.382 164.727C469.743 159.777 470.039 154.9 468.268 150.098L468.09 149.633C465.26 142.558 459.324 138.077 450.284 136.19C454.411 135.089 458.147 133.988 461.492 132.888L462.901 132.416C466.596 131.08 470.684 129.311 475.165 127.11C478.771 125.339 481.865 123.235 484.453 120.803ZM446.393 79.6543C455.256 79.6543 463.539 80.4455 471.239 82.033C477.948 83.4073 483.591 86.4873 488.137 91.2721C492.455 95.665 494.187 100.837 493.307 106.698C493.068 107.013 492.829 107.331 492.593 107.653C492.369 107.953 492.147 108.255 491.927 108.557C491.961 108.413 491.997 108.269 492.028 108.125C493.443 101.914 491.91 96.5289 487.429 91.9692C483.027 87.3309 477.563 84.3436 471.038 83.0071C463.889 81.5331 456.222 80.7503 448.036 80.6582L446.392 80.6487C427.682 80.6487 412.509 83.7933 400.874 90.0825L399.786 90.6779C388.562 96.9704 378.076 107.542 368.328 122.393L367.63 123.458C360.45 134.513 354.118 146.933 348.635 160.718C345.05 169.807 342.407 178.474 340.703 186.72C340.384 186.642 340.061 186.568 339.733 186.499C341.45 178.194 344.111 169.479 347.711 160.353L347.712 160.351C353.393 146.067 359.987 133.231 367.496 121.848L368.448 120.416C378.303 105.753 388.948 95.3213 400.406 89.205C412.233 82.8132 427.584 79.6543 446.393 79.6543Z" fill="black"/>
<path d="M267.11 80.129C279.185 79.3399 290.212 79.4956 300.186 80.6038C322.248 82.935 337.349 89.3417 345.105 100.087L345.469 100.601L345.488 100.631L345.507 100.662C347.613 104.227 349.03 108.114 349.757 112.316L349.9 113.175C351.29 122.052 350.071 130.885 346.27 139.652L346.269 139.655C342.367 148.573 336.757 156.881 329.455 164.581L329.456 164.582C320.863 173.738 310.434 182.192 298.18 189.949C308.138 187.435 316.287 185.847 322.616 185.2C329.744 184.353 335.861 184.517 340.907 185.746C340.838 186.072 340.77 186.396 340.703 186.72C335.813 185.522 329.818 185.345 322.717 186.189L321.393 186.335C314.645 187.132 305.928 188.931 295.241 191.731C294.927 191.81 294.416 191.928 293.708 192.085C293.079 192.242 292.607 192.36 292.293 192.439L293.001 191.967C307.23 183.477 319.14 174.122 328.731 163.902C335.737 156.514 341.158 148.574 344.992 140.08L345.358 139.256C349.21 130.373 350.35 121.45 348.778 112.488C348.114 108.655 346.864 105.099 345.026 101.819L344.65 101.167C337.492 90.8097 323.324 84.3622 302.147 81.8252L300.076 81.5921C290.17 80.4915 279.204 80.3342 267.176 81.1204C248.858 82.2996 234.354 86.7806 223.662 94.5635C218.474 98.4156 214.464 103.172 211.634 108.832C208.883 114.492 208.411 120.153 210.219 125.813C211.241 129.193 213.049 132.102 215.644 134.539C218.317 136.898 221.422 138.666 224.959 139.846C228.576 141.025 232.074 141.89 235.455 142.44C238.835 142.912 242.333 143.147 245.95 143.147C250.666 143.147 257.034 142.676 265.053 141.732C259.864 144.248 254.243 147.235 248.19 150.694L247.062 151.338C241.383 154.604 235.115 158.595 228.261 163.312C221.029 168.343 214.425 173.453 208.45 178.642L207.353 179.62C201.909 184.54 197.086 189.874 192.885 195.623C188.404 201.676 185.652 207.454 184.63 212.957L184.476 214.051C183.748 219.464 183.643 224.012 184.158 227.698C184.63 231.628 185.652 235.205 187.224 238.428C188.797 241.652 190.919 244.364 193.592 246.565C196.265 248.766 198.977 250.692 201.729 252.343C204.559 253.916 207.9 255.252 211.752 256.353C215.683 257.453 219.103 258.318 222.011 258.947C224.999 259.576 228.536 260.205 232.624 260.834C245.596 262.455 259.362 263.109 273.922 262.796L276.845 262.72C281.169 262.563 285.375 262.327 289.463 262.013C293.551 261.62 298.15 260.991 303.26 260.126C307.8 259.369 312.039 258.462 315.977 257.405L317.646 256.942C321.773 255.763 325.935 254.239 330.131 252.368L330.971 251.989C335.452 249.867 339.344 247.469 342.646 244.796C345.106 242.851 347.314 240.613 349.275 238.086C349.487 238.35 349.701 238.613 349.919 238.874C347.948 241.387 345.733 243.62 343.271 245.568C339.898 248.298 335.938 250.737 331.397 252.888L331.384 252.894C326.861 254.957 322.373 256.625 317.919 257.898C313.477 259.167 308.644 260.236 303.425 261.106C298.297 261.973 293.674 262.607 289.558 263.003L289.549 263.004H289.539C285.437 263.319 281.218 263.556 276.881 263.713L276.875 263.714C261.185 264.187 246.393 263.557 232.501 261.82L232.474 261.816C228.373 261.186 224.816 260.554 221.806 259.92L221.801 259.918C218.868 259.284 215.427 258.415 211.484 257.31L211.479 257.308C207.57 256.192 204.155 254.829 201.246 253.212L201.232 253.204L201.217 253.196C198.42 251.518 195.668 249.563 192.96 247.332C190.173 245.037 187.963 242.211 186.331 238.864C184.705 235.532 183.655 231.846 183.171 227.816C182.606 223.761 182.775 218.751 183.646 212.813L183.649 212.795L183.653 212.776C184.71 207.083 187.544 201.167 192.085 195.033C196.61 188.842 201.846 183.129 207.793 177.896L207.798 177.891C213.803 172.676 220.435 167.546 227.694 162.496L227.698 162.493L230.415 160.64C236.683 156.407 242.445 152.802 247.7 149.829C251.892 147.434 255.88 145.264 259.664 143.317C254.151 143.864 249.577 144.141 245.95 144.141C242.29 144.141 238.746 143.903 235.317 143.425L235.306 143.423L235.295 143.421C231.859 142.862 228.311 141.984 224.651 140.791L224.645 140.789C220.987 139.569 217.763 137.736 214.986 135.285L214.974 135.274L214.963 135.263C212.243 132.708 210.34 129.649 209.267 126.1C207.382 120.187 207.887 114.267 210.74 108.398L210.745 108.387C213.646 102.584 217.759 97.7083 223.069 93.7653L223.077 93.7595C233.969 85.8308 248.676 81.316 267.11 80.129ZM215.054 121.686C215.054 121.057 214.975 120.664 214.818 120.506C214.818 116.34 215.801 112.527 217.766 109.068C219.682 105.751 222.048 102.953 224.863 100.673L225.431 100.224C228.497 97.8653 232.074 95.782 236.162 93.9739C240.068 92.2788 243.767 90.9634 247.258 90.0283L247.954 89.8466C251.649 88.8246 255.423 87.9992 259.275 87.3703C270.124 86.0338 279.754 85.5621 288.166 85.9552C292.647 86.191 296.695 86.5055 300.312 86.8986C303.928 87.2916 308.252 88.0778 313.283 89.257C318.314 90.3576 322.638 91.7334 326.255 93.3843C329.949 95.0352 333.33 97.3936 336.396 100.46C339.54 103.447 341.663 106.906 342.764 110.837C344.415 117.283 344.257 124.123 342.292 131.355L342.126 131.952C340.362 138.121 337.234 144.29 332.74 150.459L331.878 151.645C327.53 157.541 322.628 162.885 317.175 167.675L316.089 168.632C310.617 173.409 304.454 178.082 297.599 182.651L296.233 183.542C289.43 187.96 283.007 191.79 276.963 195.033C271.322 197.991 265.592 200.769 259.77 203.365L257.27 204.467H257.034C245.95 208.555 238.481 211.464 234.629 213.193C233.686 213.586 233.096 214.294 232.86 215.316L232.835 215.506C232.729 216.45 232.934 217.291 233.45 218.028C234.079 218.735 234.944 218.893 236.044 218.5C237.224 218.087 242.14 216.17 250.791 212.751L260.69 208.83C289.699 196.959 313.205 191.024 331.207 191.024L331.734 191.028C334.356 191.074 336.735 191.466 338.872 192.203C339.15 192.272 339.415 192.34 339.666 192.405C339.614 192.735 339.564 193.064 339.515 193.392C339.239 193.321 338.944 193.246 338.631 193.168L338.589 193.157L338.548 193.143C336.389 192.398 333.946 192.018 331.207 192.018C313.396 192.018 290.031 197.897 261.067 209.75L261.057 209.754C246.232 215.637 237.988 218.87 236.378 219.435L236.378 219.436C235.716 219.672 235.043 219.773 234.392 219.655C233.724 219.533 233.156 219.194 232.707 218.688L232.669 218.645L232.636 218.598C231.927 217.585 231.685 216.418 231.877 215.165L231.883 215.128L231.892 215.092C232.196 213.776 232.988 212.809 234.222 212.286L234.993 211.945C239.061 210.171 246.302 207.365 256.691 203.534L256.857 203.473H257.061C263.656 200.597 270.137 197.49 276.502 194.152C282.916 190.711 289.766 186.6 297.054 181.82C304.329 176.969 310.815 172.006 316.514 166.932L316.518 166.928C322.278 161.869 327.415 156.186 331.931 149.879L331.936 149.874C336.517 143.585 339.64 137.325 341.333 131.094C343.258 124.01 343.403 117.35 341.803 111.093C340.752 107.351 338.731 104.049 335.711 101.18L335.701 101.171L335.693 101.163C332.706 98.1763 329.425 95.8895 325.849 94.2916L325.842 94.2886C322.306 92.6742 318.052 91.318 313.071 90.2283L313.063 90.2264L313.056 90.2254C308.049 89.0519 303.768 88.2738 300.204 87.8865C296.612 87.496 292.584 87.1827 288.12 86.9477C279.781 86.558 270.214 87.0254 259.411 88.3555C255.602 88.9782 251.872 89.7949 248.22 90.8051L248.21 90.807L248.2 90.8099C244.565 91.738 240.685 93.0949 236.558 94.8857L236.557 94.8848C232.534 96.665 229.03 98.7101 226.037 101.012C223.08 103.287 220.61 106.134 218.628 109.566L218.627 109.565C216.795 112.791 215.857 116.342 215.816 120.237C215.897 120.413 215.943 120.586 215.97 120.724C216.027 121.01 216.048 121.338 216.048 121.685V122.466L216.233 123.022L216.251 123.074L216.262 123.128C216.699 125.166 217.567 126.979 218.871 128.58C220.267 130.119 221.96 131.373 223.96 132.338C226.119 133.262 228.153 133.99 230.063 134.525C231.982 135.062 234.182 135.526 236.667 135.914C249.29 137.457 266.021 135.801 286.904 130.88C291.096 128.988 295.483 127.45 300.063 126.265C300.732 126.077 301.405 126.035 302.047 126.21C302.707 126.39 303.253 126.778 303.682 127.315C304.51 128.349 304.766 129.567 304.465 130.871C304.309 131.545 303.996 132.142 303.499 132.61C303.018 133.062 302.418 133.343 301.752 133.494C300.072 133.952 296.811 135.076 291.931 136.886L291.764 136.948H291.586C291.586 136.948 291.575 136.949 291.552 136.951C291.528 136.953 291.496 136.958 291.454 136.965C291.369 136.979 291.258 137.001 291.119 137.036C290.946 137.09 290.771 137.129 290.593 137.153C290.5 137.233 290.405 137.307 290.309 137.371C290.174 137.461 289.951 137.589 289.672 137.635L288.953 137.841C278.563 141.749 267.379 147.068 255.398 153.802L255.395 153.804C243.418 160.458 231.67 168.367 220.154 177.534L220.151 177.535C208.66 186.603 200.267 195.279 194.922 203.556C192.171 208.765 190.687 214.151 190.458 219.72V219.728C190.227 224.426 190.612 228.591 191.594 232.235C191.729 232.633 192.084 233.424 192.701 234.657C192.967 235.109 193.513 236.165 194.32 237.779C198.443 243.225 205.251 247.535 214.887 250.631C224.557 253.738 236.999 255.596 252.238 256.184C268.393 256.733 282.844 256.262 295.597 254.775L297.566 254.531C317.746 251.902 332.205 246.135 341.123 237.366L341.142 237.347L341.164 237.328C342.933 235.771 344.32 234.13 345.341 232.411C345.53 232.731 345.725 233.047 345.922 233.363C344.873 235.02 343.506 236.591 341.82 238.075L341.373 238.507C331.905 247.534 316.684 253.287 295.713 255.763L293.291 256.031C281.893 257.226 269.202 257.639 255.216 257.27L252.199 257.178C221.618 255.999 202.043 249.71 193.474 238.311C192.61 236.581 192.059 235.52 191.823 235.127C191.194 233.869 190.801 233.004 190.644 232.532C189.686 228.995 189.28 225.008 189.428 220.572L189.465 219.679C189.701 213.94 191.234 208.398 194.064 203.052C199.319 194.903 207.451 186.422 218.461 177.609L219.535 176.755C230.369 168.132 241.411 160.615 252.66 154.203L254.912 152.935C266.94 146.174 278.182 140.828 288.637 136.898L289.463 136.662C289.62 136.662 289.856 136.504 290.17 136.19C290.406 136.19 290.642 136.151 290.878 136.072C291.114 136.013 291.305 135.976 291.453 135.962L291.585 135.954C296.46 134.146 299.761 133.006 301.491 132.534C302.523 132.313 303.175 131.747 303.446 130.834L303.496 130.648C303.717 129.69 303.558 128.835 303.019 128.085L302.906 127.935C302.277 127.149 301.412 126.913 300.312 127.228L299.459 127.454C295.207 128.601 291.128 130.058 287.222 131.827C266.232 136.78 249.33 138.47 236.516 136.898C234.315 136.554 232.324 136.149 230.544 135.685L229.794 135.482C227.829 134.932 225.746 134.185 223.544 133.242C221.422 132.22 219.614 130.884 218.12 129.233C216.794 127.611 215.881 125.782 215.384 123.747L215.29 123.336L215.054 122.629V121.686ZM346.575 187.803C349.243 189.16 351.461 190.965 353.212 193.235L353.45 193.541C358.39 200.011 359.565 209.775 357.304 222.564L357.302 222.574C356.533 226.698 355.155 230.525 353.169 234.052C352.953 233.759 352.739 233.461 352.526 233.16C354.337 229.843 355.605 226.254 356.325 222.391C358.533 209.901 357.385 200.584 352.88 194.439L352.433 193.854C350.835 191.778 348.808 190.098 346.355 188.811C346.427 188.477 346.5 188.141 346.575 187.803ZM345.222 194.724C345.448 194.909 345.69 195.13 345.948 195.387C346.105 195.387 346.262 195.465 346.419 195.623L348.306 197.509H348.542V197.745L349.249 199.16C349.878 200.104 350.232 200.693 350.311 200.929L350.314 201.099C350.332 201.477 350.409 201.735 350.547 201.873C351.726 205.017 352.197 209.341 351.962 214.844C351.726 219.404 350.9 223.531 349.485 227.226C349.328 227.226 349.249 227.383 349.249 227.698L349.061 227.698C348.875 227.365 348.694 227.034 348.518 226.704H348.543C348.581 226.653 348.623 226.602 348.674 226.554C349.973 223.053 350.743 219.139 350.968 214.801C351.198 209.436 350.738 205.309 349.661 202.353C349.528 202.155 349.451 201.945 349.405 201.76C349.356 201.567 349.331 201.361 349.321 201.153C349.286 201.085 349.228 200.978 349.134 200.822C348.969 200.546 348.733 200.178 348.422 199.712L348.388 199.66L348.36 199.605L347.724 198.334L345.772 196.381H345.536L345.244 196.09C345.172 196.018 345.101 195.949 345.034 195.885C345.094 195.502 345.157 195.114 345.222 194.724Z" fill="black"/>
</svg>
