<svg width="420" height="586" viewBox="0 0 420 586" fill="none" xmlns="http://www.w3.org/2000/svg">
<path d="M178.934 575.597C159.231 575.597 139.883 572.22 121.427 565.568C103.468 559.089 86.8685 549.698 72.0633 537.651C57.248 525.584 44.7245 511.256 34.8476 495.041C24.6767 478.35 17.5986 460.148 13.8365 440.952C8.64453 414.546 8.72566 389.63 14.0596 366.916C19.5152 343.714 30.4568 322.632 46.5903 304.278C50.2612 300.1 54.4695 296.216 59.1747 292.667C59.7628 292.221 59.9961 291.46 59.7527 290.76C49.7745 262.712 34.6245 217.323 24.1697 173.171C16.2905 139.92 12.1126 111.821 11.7577 89.6537C11.5244 75.4367 12.8731 63.0552 15.753 52.8538C19.7383 38.7686 26.7859 27.969 36.7033 20.7388C46.4991 13.61 57.1162 10 68.2809 10C75.5415 10 82.8528 11.5718 90.012 14.6646C105.395 21.3168 119.714 34.753 133.789 55.7337C144.892 72.3033 155.611 93.3145 165.64 118.199C167.425 122.621 169.169 127.143 170.872 131.727C171.43 133.228 173.57 133.167 174.046 131.635C177.21 121.394 180.709 111.821 184.511 102.989C196.609 74.8283 212.134 53.5028 230.63 39.6002C241.39 31.508 252.473 27.4113 263.557 27.4113C273.332 27.4113 282.743 30.6765 290.774 36.8622C301.999 45.5019 310.386 59.7291 315.699 79.138C319.908 94.5516 322.23 113.565 322.392 134.13C322.625 162.442 319.005 192.032 312.018 220.061C311.805 220.923 312.302 221.815 313.154 222.069C319.938 224.097 326.357 227.504 332.167 232.219C341.233 239.561 348.058 249.509 351.526 260.4C351.729 261.039 352.296 261.505 352.966 261.576C355.034 261.799 357.073 262.103 359.07 262.499C374.95 265.652 388.741 274.465 398.943 287.982C407.451 299.258 411.081 314.864 409.722 334.344C408.698 348.997 404.703 365.861 398.456 381.822C391.672 399.152 382.647 414.748 372.354 426.927C364.658 436.033 356.383 443.091 347.662 448.019C347.277 448.243 346.993 448.597 346.871 449.023C341.446 468.564 333.719 486.168 323.852 501.49C311.805 520.2 296.422 535.745 278.129 547.711C243.195 570.547 205.31 575.465 179.674 575.577H179.624H178.934V575.597Z" fill="#EEE5BE"/>
<path d="M381.53 301.124C374.502 291.815 365.518 286.015 354.82 283.895C348.35 282.607 341.404 282.699 334.113 284.129C333.737 278.876 332.774 273.552 331.101 268.177C329.083 260.978 324.479 254.052 318.446 249.174C311.509 243.556 303.438 241.021 295.082 241.853C290.356 242.36 285.884 243.445 281.636 245.138C294.037 211.076 300.902 171.254 300.598 134.313C300.446 115.603 298.398 98.5064 294.676 84.8877C290.65 70.1637 284.86 59.8102 277.478 54.1315C270.745 48.9497 259.428 45.2383 243.74 57.0317C228.317 68.6223 215.134 86.9766 204.547 111.608C196.171 131.088 189.377 154.543 184.358 181.314C180.666 200.956 178.486 219.564 177.198 234.41C170.151 198.34 158.895 159.775 145.428 126.362C135.967 102.887 125.958 83.2145 115.686 67.8922C104.187 50.7344 92.6366 39.5596 81.3705 34.6921C70.2362 29.8754 59.5278 31.1126 49.5597 38.3732C43.6884 42.6525 39.3786 49.5277 36.7522 58.7961C34.4402 66.9491 33.3754 77.2214 33.5681 89.3089C33.9027 109.904 37.8778 136.432 45.3919 168.151C58.1183 221.876 77.801 277.182 86.8261 301.398C77.0405 306.042 68.9686 311.843 62.9756 318.677C35.3528 350.113 26.0134 389.843 35.2312 436.763C48.5659 504.674 108.943 553.805 178.943 553.805H179.581C202.276 553.704 235.719 549.404 266.191 529.488C297.779 508.832 318.719 476.301 328.475 432.778C337.814 429.797 347.143 423.003 355.702 412.872C364.473 402.499 372.231 389.022 378.153 373.892C383.619 359.929 387.107 345.347 387.979 332.843C388.932 318.951 386.701 307.979 381.53 301.124ZM295.802 248.941C309.532 247.572 321.042 258.635 324.236 270.124C324.246 270.165 324.256 270.195 324.266 270.236C332.835 297.626 320.535 324.285 308.63 350.062C305.912 355.954 303.103 362.038 300.619 367.98C298.459 372.341 296.207 376.488 293.916 380.301C289.484 387.694 284.708 394.265 279.516 400.085C279.465 400.136 279.415 400.197 279.364 400.258C275.277 404.821 270.937 408.938 266.283 412.649C256.112 420.762 238.305 423.703 226.086 414.576C221.066 410.702 216.473 402.752 217.345 396.222C235.009 392.855 248.506 387.176 257.643 379.216C266.486 371.509 271.11 361.724 271.363 350.143C271.728 333.624 260.888 318.88 240.506 307.725C242.067 304.805 243.609 301.783 245.211 298.629C253.171 283.013 261.882 265.926 275.845 256.323C276.494 256.131 277.082 255.745 277.539 255.218C282.822 251.932 288.835 249.681 295.802 248.941ZM52.328 166.499C36.2858 98.8005 36.7725 56.4841 53.7477 44.133C61.6472 38.3833 69.7495 37.4301 78.5311 41.2226C97.9705 49.6291 119.377 80.8112 138.806 129.019C156.197 172.167 169.857 223.995 175.363 267.64C175.596 269.506 177.239 270.875 179.105 270.753C180.981 270.642 182.451 269.11 182.461 267.224C182.461 266.829 182.958 227.382 191.385 182.51C199.092 141.492 215.175 87.4025 248.03 62.7205C257.876 55.3179 266.09 54.3546 273.117 59.7798C279.151 64.4343 284.231 73.7635 287.791 86.7738C291.35 99.8044 293.317 116.262 293.459 134.373C293.774 173.262 285.976 215.406 272.043 250.249C267.662 253.23 263.535 256.972 259.62 261.515C251.011 271.534 244.836 283.662 238.853 295.395C237.23 298.579 235.689 301.601 234.127 304.511C231.501 303.284 228.753 302.108 225.863 300.982C200.562 291.125 167.453 286.664 137.306 289.057C120.726 290.375 105.88 293.62 93.3566 298.548C84.3518 274.292 64.9023 219.584 52.328 166.499ZM179.531 546.656H178.932C112.35 546.656 54.9038 499.949 42.2281 435.374C33.4667 390.736 42.2484 353.054 68.3298 323.372C74.2214 316.669 82.415 311.031 92.4743 306.62C92.5149 306.61 92.5453 306.6 92.5859 306.59C92.7279 306.539 92.8698 306.468 93.0017 306.397C105.404 301.053 120.614 297.544 137.894 296.175C167.017 293.863 198.95 298.153 223.297 307.634C238.802 313.678 264.741 327.216 264.234 350.011C264.021 359.635 260.34 367.433 252.968 373.852C222.881 400.075 144.069 391.314 143.278 391.222C141.727 391.04 140.246 391.892 139.607 393.322C138.979 394.751 139.354 396.425 140.53 397.459C140.611 397.53 149.069 404.993 155.569 417.486C164.158 433.985 165.456 451.062 159.442 468.25C158.793 470.106 159.777 472.144 161.633 472.793C163.488 473.442 165.527 472.468 166.176 470.602C172.797 451.66 171.276 432.068 161.764 413.937C158.53 407.772 154.91 402.773 151.877 399.112C160.122 399.67 173 400.207 187.379 399.548C195.532 399.173 203.118 398.473 210.114 397.439C209.932 406.322 215.58 415.479 221.756 420.245C221.776 420.255 221.786 420.265 221.796 420.275C227.972 424.889 235.8 427.363 244.095 427.363C245.038 427.363 246.002 427.333 246.965 427.262C255.737 426.664 264.184 423.449 270.745 418.216C274.202 415.458 277.488 412.497 280.642 409.313C284.333 418.115 290.965 425.082 300.406 430.081C305.983 433.022 311.712 434.502 317.513 434.502C318.598 434.502 319.683 434.451 320.778 434.34C296.552 535.147 214.211 546.504 179.531 546.656ZM371.491 371.286C365.852 385.696 358.501 398.483 350.236 408.258C341.323 418.805 331.719 425.264 322.471 426.927C316.154 428.073 309.846 427.018 303.732 423.784C294.585 418.947 288.795 412.284 286.077 403.442C291.087 397.641 295.721 391.182 300.041 383.972C302.444 379.966 304.807 375.616 307.068 371.043C307.108 370.972 307.139 370.901 307.159 370.83C309.593 364.979 312.27 359.189 315.099 353.043C324.287 333.138 333.707 312.725 334.265 291.349C346.981 288.58 363.642 289.26 375.821 305.393C384.146 316.436 382.361 343.521 371.491 371.286Z" fill="black"/>
</svg>
