<?xml version="1.0" encoding="utf-8"?>
<!-- Generator: Adobe Illustrator 27.5.0, SVG Export Plug-In . SVG Version: 6.00 Build 0)  -->
<svg version="1.1" id="Layer_1" xmlns="http://www.w3.org/2000/svg" xmlns:xlink="http://www.w3.org/1999/xlink" x="0px" y="0px"
	 viewBox="0 0 1000 1000" style="enable-background:new 0 0 1000 1000;" xml:space="preserve">
<style type="text/css">
	.st0{fill:#F7E369;}
	.st1{fill:#F55C3C;}
	.st2{fill:#FFD939;}
	.st3{fill:#E26B00;}
	.st4{fill:#EA5467;}
	.st5{fill:#F9C0E1;}
	.st6{fill:#FFFFFF;}
	.st7{fill:#FCC5F5;}
	.st8{fill:#7346AE;}
	.st9{fill:#F232A0;}
	.st10{fill:#EDB5D8;}
	.st11{fill:#F7313D;}
	.st12{fill:#F9EAA2;}
	.st13{fill:#F8A4CB;}
	.st14{fill:#F19EF8;}
	.st15{fill:#8867CE;}
	.st16{fill:#3E6FD5;}
	.st17{fill:#FAF2E9;}
	.st18{fill:#663A92;}
	.st19{fill:#FF8D3D;}
	.st20{fill:#FADF46;}
	.st21{fill:#7903EA;}
	.st22{fill:#CEA7F2;}
	.st23{fill:#FDFEFC;}
	.st24{fill:#FF4C37;}
	.st25{fill:#FFCAC1;}
	.st26{fill:#E8C93D;}
	.st27{fill:#29864D;}
	.st28{fill:#F8F8F0;}
	.st29{fill:#F7851E;}
	.st30{fill:#F9F946;}
	.st31{fill:#F8862F;}
	.st32{fill:#FFE2D8;}
	.st33{fill:#4A89E5;}
	.st34{fill:#F97AC5;}
	.st35{fill:#FDFFFF;}
	.st36{fill:#F2C3B3;}
	.st37{fill:#F13830;}
	.st38{fill:#E2D25D;}
	.st39{fill:#F36525;}
	.st40{fill:#FFDCD7;}
	.st41{fill:#FB4321;}
	.st42{clip-path:url(#SVGID_00000119817551076044328040000015798195175335784102_);}
	.st43{fill:#3A3A3A;}
	.st44{fill:#2B2B2B;}
	.st45{fill:#5BAA41;}
	.st46{fill:#F277B4;}
	.st47{fill:#EEE5BE;}
	.st48{fill:#FDCA06;}
	.st49{fill:#EF7807;}
	.st50{fill:#CBF0E1;}
	.st51{fill:#56906A;}
	.st52{fill:#FFF8D9;}
	.st53{fill:#FFBC15;}
	.st54{fill:#28282B;}
	.st55{fill:#EF354C;}
	.st56{fill:#F39FC7;}
	.st57{fill:#F9AB4E;}
	.st58{fill:#EFFF7B;}
	.st59{fill:#50C096;}
	.st60{fill:#DBFAF0;}
	.st61{fill:#FFF8F8;}
	.st62{fill:#84322C;}
	.st63{fill:#F1F1F1;}
	.st64{fill:#F20000;}
	.st65{fill:#FFFA57;}
	.st66{fill:#3BBCF4;}
	.st67{fill:#EFF784;}
	.st68{fill:#F46CAD;}
	.st69{fill:#ECDED1;}
	.st70{fill:#398FAA;}
	.st71{fill:#FB5229;}
	.st72{fill:#FFDFD8;}
	.st73{fill:#EE4933;}
	.st74{fill:#8021E2;}
	.st75{fill:#D0B6F0;}
	.st76{fill:#418ADF;}
	.st77{fill:#E6F1FF;}
	.st78{fill:#FF6A36;}
	.st79{fill:#F9C77D;}
	.st80{fill:#6E579F;}
	.st81{fill:#FBB9F0;}
	.st82{fill:#EF4C23;}
	.st83{fill:#FFC7E7;}
	.st84{fill:#DAF1F7;}
	.st85{fill:#5353F9;}
	.st86{fill:#FF56C8;}
	.st87{fill:#FCF0FC;}
	.st88{fill:#E5B9FF;}
	.st89{fill:#7C63E5;}
	.st90{fill:#E8CA47;}
	.st91{fill:#DD2F5E;}
	.st92{fill:#DBC0FF;}
	.st93{fill:#844FDC;}
	.st94{fill:#E9F98F;}
	.st95{fill:#E8AD85;}
</style>
<g>
	<path class="st47" d="M469.37,778.88c-19.43,0-38.51-3.33-56.71-9.89c-17.71-6.39-34.08-15.65-48.68-27.53
		c-14.61-11.9-26.96-26.03-36.7-42.02c-10.03-16.46-17.01-34.41-20.72-53.34c-5.12-26.04-5.04-50.61,0.22-73.01
		c5.38-22.88,16.17-43.67,32.08-61.77c3.62-4.12,7.77-7.95,12.41-11.45c0.58-0.44,0.81-1.19,0.57-1.88
		c-9.84-27.66-24.78-72.42-35.09-115.96c-7.77-32.79-11.89-60.5-12.24-82.36c-0.23-14.02,1.1-26.23,3.94-36.29
		c3.93-13.89,10.88-24.54,20.66-31.67c9.66-7.03,20.13-10.59,31.14-10.59c7.16,0,14.37,1.55,21.43,4.6
		c15.17,6.56,29.29,19.81,43.17,40.5c10.95,16.34,21.52,37.06,31.41,61.6c1.76,4.36,3.48,8.82,5.16,13.34
		c0.55,1.48,2.66,1.42,3.13-0.09c3.12-10.1,6.57-19.54,10.32-28.25c11.93-27.77,27.24-48.8,45.48-62.51
		c10.61-7.98,21.54-12.02,32.47-12.02c9.64,0,18.92,3.22,26.84,9.32c11.07,8.52,19.34,22.55,24.58,41.69
		c4.15,15.2,6.44,33.95,6.6,54.23c0.23,27.92-3.34,57.1-10.23,84.74c-0.21,0.85,0.28,1.73,1.12,1.98c6.69,2,13.02,5.36,18.75,10.01
		c8.94,7.24,15.67,17.05,19.09,27.79c0.2,0.63,0.76,1.09,1.42,1.16c2.04,0.22,4.05,0.52,6.02,0.91
		c15.66,3.11,29.26,11.8,39.32,25.13c8.39,11.12,11.97,26.51,10.63,45.72c-1.01,14.45-4.95,31.08-11.11,46.82
		c-6.69,17.09-15.59,32.47-25.74,44.48c-7.59,8.98-15.75,15.94-24.35,20.8c-0.38,0.22-0.66,0.57-0.78,0.99
		c-5.35,19.27-12.97,36.63-22.7,51.74c-11.88,18.45-27.05,33.78-45.09,45.58c-34.45,22.52-71.81,27.37-97.09,27.48h-0.05H469.37z"/>
	<g>
		<path d="M669.16,508.21c-6.93-9.18-15.79-14.9-26.34-16.99c-6.38-1.27-13.23-1.18-20.42,0.23c-0.37-5.18-1.32-10.43-2.97-15.73
			c-1.99-7.1-6.53-13.93-12.48-18.74c-6.84-5.54-14.8-8.04-23.04-7.22c-4.66,0.5-9.07,1.57-13.26,3.24
			c12.23-33.59,19-72.86,18.7-109.29c-0.15-18.45-2.17-35.31-5.84-48.74c-3.97-14.52-9.68-24.73-16.96-30.33
			c-6.64-5.11-17.8-8.77-33.27,2.86c-15.21,11.43-28.21,29.53-38.65,53.82c-8.26,19.21-14.96,42.34-19.91,68.74
			c-3.64,19.37-5.79,37.72-7.06,52.36c-6.95-35.57-18.05-73.6-31.33-106.55c-9.33-23.15-19.2-42.55-29.33-57.66
			c-11.34-16.92-22.73-27.94-33.84-32.74c-10.98-4.75-21.54-3.53-31.37,3.63c-5.79,4.22-10.04,11-12.63,20.14
			c-2.28,8.04-3.33,18.17-3.14,30.09c0.33,20.31,4.25,46.47,11.66,77.75c12.55,52.98,31.96,107.52,40.86,131.4
			c-9.65,4.58-17.61,10.3-23.52,17.04c-27.24,31-36.45,70.18-27.36,116.45c13.15,66.97,72.69,115.42,141.72,115.42h0.63
			c22.38-0.1,55.36-4.34,85.41-23.98c31.15-20.37,51.8-52.45,61.42-95.37c9.21-2.94,18.41-9.64,26.85-19.63
			c8.65-10.23,16.3-23.52,22.14-38.44c5.39-13.77,8.83-28.15,9.69-40.48C676.46,525.79,674.26,514.97,669.16,508.21z M584.62,456.75
			c13.54-1.35,24.89,9.56,28.04,20.89c0.01,0.04,0.02,0.07,0.03,0.11c8.45,27.01-3.68,53.3-15.42,78.72
			c-2.68,5.81-5.45,11.81-7.9,17.67c-2.13,4.3-4.35,8.39-6.61,12.15c-4.37,7.29-9.08,13.77-14.2,19.51
			c-0.05,0.05-0.1,0.11-0.15,0.17c-4.03,4.5-8.31,8.56-12.9,12.22c-10.03,8-27.59,10.9-39.64,1.9c-4.95-3.82-9.48-11.66-8.62-18.1
			c17.42-3.32,30.73-8.92,39.74-16.77c8.72-7.6,13.28-17.25,13.53-28.67c0.36-16.29-10.33-30.83-30.43-41.83
			c1.54-2.88,3.06-5.86,4.64-8.97c7.85-15.4,16.44-32.25,30.21-41.72c0.64-0.19,1.22-0.57,1.67-1.09
			C571.82,459.7,577.75,457.48,584.62,456.75z M344.52,375.45c-15.82-66.76-15.34-108.49,1.4-120.67
			c7.79-5.67,15.78-6.61,24.44-2.87c19.17,8.29,40.28,39.04,59.44,86.58c17.15,42.55,30.62,93.66,36.05,136.7
			c0.23,1.84,1.85,3.19,3.69,3.07c1.85-0.11,3.3-1.62,3.31-3.48c0-0.39,0.49-39.29,8.8-83.54c7.6-40.45,23.46-93.79,55.86-118.13
			c9.71-7.3,17.81-8.25,24.74-2.9c5.95,4.59,10.96,13.79,14.47,26.62c3.51,12.85,5.45,29.08,5.59,46.94
			c0.31,38.35-7.38,79.91-21.12,114.27c-4.32,2.94-8.39,6.63-12.25,11.11c-8.49,9.88-14.58,21.84-20.48,33.41
			c-1.6,3.14-3.12,6.12-4.66,8.99c-2.59-1.21-5.3-2.37-8.15-3.48c-24.95-9.72-57.6-14.12-87.33-11.76
			c-16.35,1.3-30.99,4.5-43.34,9.36C376.1,481.75,356.92,427.8,344.52,375.45z M469.96,750.34h-0.59
			c-65.66,0-122.31-46.06-134.81-109.74c-8.64-44.02,0.02-81.18,25.74-110.45c5.81-6.61,13.89-12.17,23.81-16.52
			c0.04-0.01,0.07-0.02,0.11-0.03c0.14-0.05,0.28-0.12,0.41-0.19c12.23-5.27,27.23-8.73,44.27-10.08
			c28.72-2.28,60.21,1.95,84.22,11.3c15.29,5.96,40.87,19.31,40.37,41.79c-0.21,9.49-3.84,17.18-11.11,23.51
			c-29.67,25.86-107.39,17.22-108.17,17.13c-1.53-0.18-2.99,0.66-3.62,2.07c-0.62,1.41-0.25,3.06,0.91,4.08
			c0.08,0.07,8.42,7.43,14.83,19.75c8.47,16.27,9.75,33.11,3.82,50.06c-0.64,1.83,0.33,3.84,2.16,4.48
			c1.83,0.64,3.84-0.32,4.48-2.16c6.53-18.68,5.03-38-4.35-55.88c-3.19-6.08-6.76-11.01-9.75-14.62c8.13,0.55,20.83,1.08,35.01,0.43
			c8.04-0.37,15.52-1.06,22.42-2.08c-0.18,8.76,5.39,17.79,11.48,22.49c0.02,0.01,0.03,0.02,0.04,0.03
			c6.09,4.55,13.81,6.99,21.99,6.99c0.93,0,1.88-0.03,2.83-0.1c8.65-0.59,16.98-3.76,23.45-8.92c3.41-2.72,6.65-5.64,9.76-8.78
			c3.64,8.68,10.18,15.55,19.49,20.48c5.5,2.9,11.15,4.36,16.87,4.36c1.07,0,2.14-0.05,3.22-0.16
			C585.36,738.99,504.16,750.19,469.96,750.34z M659.26,577.4c-5.56,14.21-12.81,26.82-20.96,36.46
			c-8.79,10.4-18.26,16.77-27.38,18.41c-6.23,1.13-12.45,0.09-18.48-3.1c-9.02-4.77-14.73-11.34-17.41-20.06
			c4.94-5.72,9.51-12.09,13.77-19.2c2.37-3.95,4.7-8.24,6.93-12.75c0.04-0.07,0.07-0.14,0.09-0.21c2.4-5.77,5.04-11.48,7.83-17.54
			c9.06-19.63,18.35-39.76,18.9-60.84c12.54-2.73,28.97-2.06,40.98,13.85C671.74,523.31,669.98,550.02,659.26,577.4z"/>
	</g>
</g>
</svg>
