<svg width="22" height="22" viewBox="0 0 22 22" fill="none" xmlns="http://www.w3.org/2000/svg">
<mask id="path-1-outside-1_141_2085" maskUnits="userSpaceOnUse" x="0.154968" y="-0.0913086" width="24" height="22" fill="black">
<rect fill="white" x="0.154968" y="-0.0913086" width="24" height="22"/>
<path d="M3.95163 1.5868C3.94347 1.77707 3.94861 1.96794 3.94891 2.15821C3.95284 2.45647 4.16112 2.73355 4.44013 2.83246C4.5166 2.85878 4.59883 2.86664 4.67289 2.90083C4.77657 2.95467 4.84186 3.07234 4.83219 3.1891C4.83128 3.94563 4.83219 4.70216 4.83159 5.459C4.83582 5.58877 4.74483 5.71067 4.6218 5.74909C4.46612 5.7875 4.29926 5.72368 4.14661 5.78387C3.73973 5.91788 3.47433 6.33592 3.45589 6.75457C3.44742 7.08459 3.4571 7.41521 3.45105 7.74553C4.00695 7.63936 4.58129 7.77729 5.07825 8.03078C5.55767 8.26279 5.98541 8.58797 6.38049 8.94249C6.95876 8.55379 7.6643 8.35263 8.36106 8.40436C8.36923 7.8756 8.36258 7.34655 8.36469 6.81749C8.36499 6.42788 8.16246 6.02193 7.80577 5.84498C7.61382 5.8235 7.41914 5.84256 7.2275 5.82078C7.08723 5.79749 6.98023 5.66288 6.98597 5.52131C6.98506 4.7436 6.98597 3.9659 6.98567 3.18819C6.98174 3.09321 7.01741 2.99551 7.09207 2.9344C7.1619 2.87148 7.26075 2.86816 7.3469 2.84275C7.56243 2.77983 7.74078 2.60892 7.81997 2.39929C7.90673 2.1688 7.85595 1.91742 7.87015 1.67755C7.89041 1.27584 7.53673 0.906498 7.13469 0.91043C6.31973 0.90801 5.50447 0.908314 4.68951 0.910129C4.3177 0.905289 3.97884 1.21595 3.95163 1.5868ZM3.07501 8.59432C2.77695 8.8708 2.54147 9.23046 2.46832 9.6355C2.38247 10.1264 2.52485 10.6349 2.77998 11.0548C2.92235 11.2178 3.09979 11.347 3.28056 11.4647C3.8413 11.8116 4.48758 11.9946 5.13538 12.0908C5.08641 11.1095 5.34789 10.1216 5.84938 9.27916C5.51324 8.9921 5.1511 8.73075 4.75057 8.54169C4.38571 8.3729 3.97098 8.25553 3.56894 8.34537C3.39029 8.39256 3.21013 8.46395 3.07501 8.59432ZM6.6456 9.50392C6.39833 9.866 6.21696 10.2722 6.0906 10.6918C5.88323 11.3769 5.88595 12.1096 5.99961 12.8117C6.09846 13.3689 6.2626 13.9327 6.59874 14.3958C6.63653 14.4548 6.63804 14.5341 6.69245 14.5834C6.82092 14.7165 6.97932 14.8235 7.15948 14.871C7.43245 14.9542 7.74833 14.9972 8.0083 14.852C8.14493 14.7667 8.28307 14.6472 8.29819 14.4763C8.53155 13.9989 8.56118 13.4514 8.5252 12.9299C8.48712 12.4517 8.3916 11.9719 8.19118 11.5336C8.10563 11.3488 8.19481 11.1056 8.38041 11.0212C8.56571 10.9262 8.80875 11.0067 8.90457 11.1909C9.16363 11.7442 9.27971 12.3543 9.32233 12.9608C9.34893 13.2264 9.45655 13.4929 9.65998 13.6722C9.85133 13.8456 10.1179 13.9064 10.3704 13.9049C10.4831 13.9076 10.6013 13.8773 10.7098 13.9212C10.8721 13.979 10.9849 14.1517 10.9677 14.3244C10.9583 14.5105 10.7981 14.6702 10.6137 14.6862C10.121 14.7358 9.59318 14.6372 9.20021 14.3211C9.15849 14.4902 9.08866 14.6502 9.01763 14.8084C9.01098 15.783 9.01672 16.7583 9.0146 17.7329C9.65424 17.5103 10.124 16.9694 10.4408 16.3895C10.5399 16.1975 10.8078 16.1282 10.9888 16.2443C11.1645 16.3402 11.2325 16.5816 11.1403 16.7577C10.9296 17.1567 10.6548 17.5218 10.3305 17.8354C10.6769 17.823 11.016 17.7244 11.3259 17.5717C11.734 17.3702 12.1115 17.0983 12.4065 16.7495C12.8128 16.2749 13.0791 15.6865 13.1931 15.0737C13.3107 14.4385 13.2726 13.7621 13.0117 13.1659C12.8358 12.7636 12.5296 12.4127 12.1336 12.2164C12.1656 12.6035 12.162 12.995 12.1055 13.3794C12.0595 13.6178 11.772 13.7648 11.5538 13.6532C11.3842 13.5812 11.2926 13.3813 11.3307 13.204C11.4643 12.1368 11.179 11.01 10.4976 10.1709C10.1315 9.71747 9.64033 9.37112 9.09803 9.16028C8.94115 9.10674 8.78426 9.03717 8.61498 9.04383C7.93303 8.91648 7.19727 9.08134 6.6456 9.50392ZM1.261 12.7134C1.09746 13.08 1.12406 13.5234 1.33415 13.8664C1.60288 14.3072 2.05873 14.6054 2.53996 14.7703C3.02997 14.9152 3.5502 14.9173 4.05471 14.8665C4.61696 14.8018 5.17528 14.6696 5.6937 14.4394C5.44885 13.9572 5.29831 13.4318 5.21065 12.8994C4.80801 12.8525 4.40869 12.772 4.02086 12.6538C3.46647 12.4804 2.92205 12.2354 2.47739 11.8555C1.98497 11.9638 1.4738 12.2312 1.261 12.7134ZM3.98912 15.6687C3.36732 15.7195 2.72678 15.6853 2.13611 15.4703C2.07293 15.5925 2.01489 15.7228 2.0161 15.8635C2.00764 16.1539 2.16785 16.4146 2.34922 16.6291C2.58621 16.9092 2.8891 17.1397 3.23945 17.2574C3.32772 17.2798 3.38273 17.3684 3.47705 17.3757C4.04081 17.497 4.62966 17.4262 5.1771 17.2619C5.58881 17.1406 6.00536 16.9522 6.27439 16.604C6.49687 16.3309 6.62806 15.95 6.51199 15.6043C6.44911 15.4004 6.29464 15.2455 6.13201 15.1163C5.45641 15.4222 4.7273 15.6049 3.98912 15.6687ZM7.23384 15.6109C7.32876 16.1971 7.08059 16.797 6.66857 17.2099C6.38593 17.503 6.0241 17.7087 5.64171 17.8424C4.96066 18.0889 4.21885 18.2045 3.49851 18.0914C3.49972 18.4362 3.49458 18.781 3.50093 19.1259C3.5103 19.5116 3.73701 19.8987 4.09975 20.05C4.25573 20.1214 4.43015 20.1199 4.59822 20.1171C5.52472 20.1165 6.45093 20.1171 7.37743 20.1168C7.65795 20.1235 7.9291 19.9771 8.09566 19.7542C8.2465 19.56 8.31935 19.3125 8.31905 19.0681C8.32026 17.8717 8.31935 16.6754 8.31965 15.479C7.98774 15.6551 7.5978 15.6766 7.23384 15.6109ZM13.7239 16.0749C13.4863 16.6724 13.1142 17.2147 12.6378 17.6467C13.46 18.5133 14.3907 19.2868 15.4412 19.8615C16.6023 20.5025 17.9254 20.8815 19.2575 20.8362C20.1807 20.8068 21.0951 20.5845 21.9367 20.2058C22.2115 20.0751 22.4061 19.798 22.4454 19.4973C22.4862 19.2212 22.388 18.9323 22.1985 18.7296C22.0189 18.539 21.7559 18.432 21.4944 18.4416C21.2469 18.4398 21.0347 18.5838 20.8055 18.6555C19.8137 19.023 18.7074 19.0754 17.6887 18.7859C16.9574 18.5862 16.2755 18.2341 15.6519 17.807C14.9388 17.3146 14.2998 16.7211 13.7239 16.0749Z"/>
<path d="M3.95163 1.5868C3.97884 1.21595 4.3177 0.905289 4.68951 0.910129C5.50447 0.908314 6.31973 0.90801 7.13469 0.91043C7.53673 0.906498 7.89041 1.27584 7.87015 1.67755C7.85595 1.91742 7.90673 2.1688 7.81997 2.39929C7.74078 2.60892 7.56243 2.77983 7.3469 2.84275C7.26075 2.86816 7.1619 2.87148 7.09207 2.9344C7.01741 2.99551 6.98174 3.09321 6.98567 3.18819C6.98597 3.9659 6.98506 4.7436 6.98597 5.52131C6.98023 5.66288 7.08723 5.79749 7.2275 5.82078C7.41914 5.84256 7.61382 5.8235 7.80577 5.84498C8.16246 6.02193 8.36499 6.42788 8.36469 6.81749C8.36258 7.34655 8.36923 7.8756 8.36106 8.40436C7.6643 8.35263 6.95876 8.55379 6.38049 8.94249C5.98541 8.58797 5.55767 8.26279 5.07825 8.03078C4.58129 7.77729 4.00695 7.63936 3.45105 7.74553C3.4571 7.41521 3.44742 7.08459 3.45589 6.75457C3.47433 6.33592 3.73973 5.91788 4.14661 5.78387C4.29926 5.72368 4.46612 5.7875 4.6218 5.74909C4.74483 5.71067 4.83582 5.58877 4.83159 5.459C4.83219 4.70216 4.83128 3.94563 4.83219 3.1891C4.84186 3.07234 4.77657 2.95467 4.67289 2.90083C4.59883 2.86664 4.5166 2.85878 4.44013 2.83246C4.16112 2.73355 3.95284 2.45647 3.94891 2.15821C3.94861 1.96794 3.94347 1.77707 3.95163 1.5868Z"/>
<path d="M7.23384 15.6109C7.5978 15.6766 7.98774 15.6551 8.31965 15.479C8.31935 16.6754 8.32026 17.8717 8.31905 19.0681C8.31935 19.3125 8.2465 19.56 8.09566 19.7542C7.9291 19.9771 7.65795 20.1235 7.37743 20.1168C6.45093 20.1171 5.52472 20.1165 4.59822 20.1171C4.43015 20.1199 4.25573 20.1214 4.09975 20.05C3.73701 19.8987 3.5103 19.5116 3.50093 19.1259C3.49458 18.781 3.49972 18.4362 3.49851 18.0914C4.21885 18.2045 4.96066 18.0889 5.64171 17.8424C6.0241 17.7087 6.38593 17.503 6.66857 17.2099C7.08059 16.797 7.32876 16.1971 7.23384 15.6109Z"/>
<path d="M3.07501 8.59432C3.21013 8.46395 3.39029 8.39256 3.56894 8.34537C3.97098 8.25553 4.38571 8.3729 4.75057 8.54169C5.1511 8.73075 5.51324 8.9921 5.84938 9.27916C5.34789 10.1216 5.08641 11.1095 5.13538 12.0908C4.48758 11.9946 3.8413 11.8116 3.28056 11.4647C3.09979 11.347 2.92235 11.2178 2.77998 11.0548C2.52485 10.6349 2.38247 10.1264 2.46832 9.6355C2.54147 9.23046 2.77695 8.8708 3.07501 8.59432Z"/>
<path d="M6.6456 9.50392C7.19727 9.08134 7.93303 8.91648 8.61498 9.04383C8.78426 9.03717 8.94115 9.10674 9.09803 9.16028C9.64033 9.37112 10.1315 9.71747 10.4976 10.1709C11.179 11.01 11.4643 12.1368 11.3307 13.204C11.2926 13.3813 11.3842 13.5812 11.5538 13.6532C11.772 13.7648 12.0595 13.6178 12.1055 13.3794C12.162 12.995 12.1656 12.6035 12.1336 12.2164C12.5296 12.4127 12.8358 12.7636 13.0117 13.1659C13.2726 13.7621 13.3107 14.4385 13.1931 15.0737C13.0791 15.6865 12.8128 16.2749 12.4065 16.7495C12.1115 17.0983 11.734 17.3702 11.3259 17.5717C11.016 17.7244 10.6769 17.823 10.3305 17.8354C10.6548 17.5218 10.9296 17.1567 11.1403 16.7577C11.2325 16.5816 11.1645 16.3402 10.9888 16.2443C10.8078 16.1282 10.5399 16.1975 10.4408 16.3895C10.124 16.9694 9.65424 17.5103 9.0146 17.7329C9.01672 16.7583 9.01098 15.783 9.01763 14.8084C9.08866 14.6502 9.15849 14.4902 9.20021 14.3211C9.59318 14.6372 10.121 14.7358 10.6137 14.6862C10.7981 14.6702 10.9583 14.5105 10.9677 14.3244C10.9849 14.1517 10.8721 13.979 10.7098 13.9212C10.6013 13.8773 10.4831 13.9076 10.3704 13.9049C10.1179 13.9064 9.85133 13.8456 9.65998 13.6722C9.45655 13.4929 9.34893 13.2264 9.32233 12.9608C9.27971 12.3543 9.16363 11.7442 8.90457 11.1909C8.80875 11.0067 8.56571 10.9262 8.38041 11.0212C8.19481 11.1056 8.10563 11.3488 8.19118 11.5336C8.3916 11.9719 8.48712 12.4517 8.5252 12.9299C8.56118 13.4514 8.53155 13.9989 8.29819 14.4763C8.28307 14.6472 8.14493 14.7667 8.0083 14.852C7.74833 14.9972 7.43245 14.9542 7.15948 14.871C6.97932 14.8235 6.82092 14.7165 6.69245 14.5834C6.63804 14.5341 6.63653 14.4548 6.59874 14.3958C6.2626 13.9327 6.09846 13.3689 5.99961 12.8117C5.88595 12.1096 5.88323 11.3769 6.0906 10.6918C6.21696 10.2722 6.39833 9.866 6.6456 9.50392Z"/>
<path d="M1.261 12.7134C1.4738 12.2312 1.98497 11.9638 2.47739 11.8555C2.92205 12.2354 3.46647 12.4804 4.02086 12.6538C4.40869 12.772 4.80801 12.8525 5.21065 12.8994C5.29831 13.4318 5.44885 13.9572 5.6937 14.4394C5.17528 14.6696 4.61696 14.8018 4.05471 14.8665C3.5502 14.9173 3.02997 14.9152 2.53996 14.7703C2.05873 14.6054 1.60288 14.3072 1.33415 13.8664C1.12406 13.5234 1.09746 13.08 1.261 12.7134Z"/>
<path d="M3.98912 15.6687C4.7273 15.6049 5.45641 15.4222 6.13201 15.1163C6.29464 15.2455 6.44911 15.4004 6.51199 15.6043C6.62806 15.95 6.49687 16.3309 6.27439 16.604C6.00536 16.9522 5.58881 17.1406 5.1771 17.2619C4.62966 17.4262 4.04081 17.497 3.47705 17.3757C3.38273 17.3684 3.32772 17.2798 3.23945 17.2574C2.8891 17.1397 2.58621 16.9092 2.34922 16.6291C2.16785 16.4146 2.00764 16.1539 2.0161 15.8635C2.01489 15.7228 2.07293 15.5925 2.13611 15.4703C2.72678 15.6853 3.36732 15.7195 3.98912 15.6687Z"/>
<path d="M13.7239 16.0749C14.2998 16.7211 14.9388 17.3146 15.6519 17.807C16.2755 18.2341 16.9574 18.5862 17.6887 18.7859C18.7074 19.0754 19.8137 19.023 20.8055 18.6555C21.0347 18.5838 21.2469 18.4398 21.4944 18.4416C21.7559 18.432 22.0189 18.539 22.1985 18.7296C22.388 18.9323 22.4862 19.2212 22.4454 19.4973C22.4061 19.798 22.2115 20.0751 21.9367 20.2058C21.0951 20.5845 20.1807 20.8068 19.2575 20.8362C17.9254 20.8815 16.6023 20.5025 15.4412 19.8615C14.3907 19.2868 13.46 18.5133 12.6378 17.6467C13.1142 17.2147 13.4863 16.6724 13.7239 16.0749Z"/>
</mask>
<path d="M3.95163 1.5868C3.94347 1.77707 3.94861 1.96794 3.94891 2.15821C3.95284 2.45647 4.16112 2.73355 4.44013 2.83246C4.5166 2.85878 4.59883 2.86664 4.67289 2.90083C4.77657 2.95467 4.84186 3.07234 4.83219 3.1891C4.83128 3.94563 4.83219 4.70216 4.83159 5.459C4.83582 5.58877 4.74483 5.71067 4.6218 5.74909C4.46612 5.7875 4.29926 5.72368 4.14661 5.78387C3.73973 5.91788 3.47433 6.33592 3.45589 6.75457C3.44742 7.08459 3.4571 7.41521 3.45105 7.74553C4.00695 7.63936 4.58129 7.77729 5.07825 8.03078C5.55767 8.26279 5.98541 8.58797 6.38049 8.94249C6.95876 8.55379 7.6643 8.35263 8.36106 8.40436C8.36923 7.8756 8.36258 7.34655 8.36469 6.81749C8.36499 6.42788 8.16246 6.02193 7.80577 5.84498C7.61382 5.8235 7.41914 5.84256 7.2275 5.82078C7.08723 5.79749 6.98023 5.66288 6.98597 5.52131C6.98506 4.7436 6.98597 3.9659 6.98567 3.18819C6.98174 3.09321 7.01741 2.99551 7.09207 2.9344C7.1619 2.87148 7.26075 2.86816 7.3469 2.84275C7.56243 2.77983 7.74078 2.60892 7.81997 2.39929C7.90673 2.1688 7.85595 1.91742 7.87015 1.67755C7.89041 1.27584 7.53673 0.906498 7.13469 0.91043C6.31973 0.90801 5.50447 0.908314 4.68951 0.910129C4.3177 0.905289 3.97884 1.21595 3.95163 1.5868ZM3.07501 8.59432C2.77695 8.8708 2.54147 9.23046 2.46832 9.6355C2.38247 10.1264 2.52485 10.6349 2.77998 11.0548C2.92235 11.2178 3.09979 11.347 3.28056 11.4647C3.8413 11.8116 4.48758 11.9946 5.13538 12.0908C5.08641 11.1095 5.34789 10.1216 5.84938 9.27916C5.51324 8.9921 5.1511 8.73075 4.75057 8.54169C4.38571 8.3729 3.97098 8.25553 3.56894 8.34537C3.39029 8.39256 3.21013 8.46395 3.07501 8.59432ZM6.6456 9.50392C6.39833 9.866 6.21696 10.2722 6.0906 10.6918C5.88323 11.3769 5.88595 12.1096 5.99961 12.8117C6.09846 13.3689 6.2626 13.9327 6.59874 14.3958C6.63653 14.4548 6.63804 14.5341 6.69245 14.5834C6.82092 14.7165 6.97932 14.8235 7.15948 14.871C7.43245 14.9542 7.74833 14.9972 8.0083 14.852C8.14493 14.7667 8.28307 14.6472 8.29819 14.4763C8.53155 13.9989 8.56118 13.4514 8.5252 12.9299C8.48712 12.4517 8.3916 11.9719 8.19118 11.5336C8.10563 11.3488 8.19481 11.1056 8.38041 11.0212C8.56571 10.9262 8.80875 11.0067 8.90457 11.1909C9.16363 11.7442 9.27971 12.3543 9.32233 12.9608C9.34893 13.2264 9.45655 13.4929 9.65998 13.6722C9.85133 13.8456 10.1179 13.9064 10.3704 13.9049C10.4831 13.9076 10.6013 13.8773 10.7098 13.9212C10.8721 13.979 10.9849 14.1517 10.9677 14.3244C10.9583 14.5105 10.7981 14.6702 10.6137 14.6862C10.121 14.7358 9.59318 14.6372 9.20021 14.3211C9.15849 14.4902 9.08866 14.6502 9.01763 14.8084C9.01098 15.783 9.01672 16.7583 9.0146 17.7329C9.65424 17.5103 10.124 16.9694 10.4408 16.3895C10.5399 16.1975 10.8078 16.1282 10.9888 16.2443C11.1645 16.3402 11.2325 16.5816 11.1403 16.7577C10.9296 17.1567 10.6548 17.5218 10.3305 17.8354C10.6769 17.823 11.016 17.7244 11.3259 17.5717C11.734 17.3702 12.1115 17.0983 12.4065 16.7495C12.8128 16.2749 13.0791 15.6865 13.1931 15.0737C13.3107 14.4385 13.2726 13.7621 13.0117 13.1659C12.8358 12.7636 12.5296 12.4127 12.1336 12.2164C12.1656 12.6035 12.162 12.995 12.1055 13.3794C12.0595 13.6178 11.772 13.7648 11.5538 13.6532C11.3842 13.5812 11.2926 13.3813 11.3307 13.204C11.4643 12.1368 11.179 11.01 10.4976 10.1709C10.1315 9.71747 9.64033 9.37112 9.09803 9.16028C8.94115 9.10674 8.78426 9.03717 8.61498 9.04383C7.93303 8.91648 7.19727 9.08134 6.6456 9.50392ZM1.261 12.7134C1.09746 13.08 1.12406 13.5234 1.33415 13.8664C1.60288 14.3072 2.05873 14.6054 2.53996 14.7703C3.02997 14.9152 3.5502 14.9173 4.05471 14.8665C4.61696 14.8018 5.17528 14.6696 5.6937 14.4394C5.44885 13.9572 5.29831 13.4318 5.21065 12.8994C4.80801 12.8525 4.40869 12.772 4.02086 12.6538C3.46647 12.4804 2.92205 12.2354 2.47739 11.8555C1.98497 11.9638 1.4738 12.2312 1.261 12.7134ZM3.98912 15.6687C3.36732 15.7195 2.72678 15.6853 2.13611 15.4703C2.07293 15.5925 2.01489 15.7228 2.0161 15.8635C2.00764 16.1539 2.16785 16.4146 2.34922 16.6291C2.58621 16.9092 2.8891 17.1397 3.23945 17.2574C3.32772 17.2798 3.38273 17.3684 3.47705 17.3757C4.04081 17.497 4.62966 17.4262 5.1771 17.2619C5.58881 17.1406 6.00536 16.9522 6.27439 16.604C6.49687 16.3309 6.62806 15.95 6.51199 15.6043C6.44911 15.4004 6.29464 15.2455 6.13201 15.1163C5.45641 15.4222 4.7273 15.6049 3.98912 15.6687ZM7.23384 15.6109C7.32876 16.1971 7.08059 16.797 6.66857 17.2099C6.38593 17.503 6.0241 17.7087 5.64171 17.8424C4.96066 18.0889 4.21885 18.2045 3.49851 18.0914C3.49972 18.4362 3.49458 18.781 3.50093 19.1259C3.5103 19.5116 3.73701 19.8987 4.09975 20.05C4.25573 20.1214 4.43015 20.1199 4.59822 20.1171C5.52472 20.1165 6.45093 20.1171 7.37743 20.1168C7.65795 20.1235 7.9291 19.9771 8.09566 19.7542C8.2465 19.56 8.31935 19.3125 8.31905 19.0681C8.32026 17.8717 8.31935 16.6754 8.31965 15.479C7.98774 15.6551 7.5978 15.6766 7.23384 15.6109ZM13.7239 16.0749C13.4863 16.6724 13.1142 17.2147 12.6378 17.6467C13.46 18.5133 14.3907 19.2868 15.4412 19.8615C16.6023 20.5025 17.9254 20.8815 19.2575 20.8362C20.1807 20.8068 21.0951 20.5845 21.9367 20.2058C22.2115 20.0751 22.4061 19.798 22.4454 19.4973C22.4862 19.2212 22.388 18.9323 22.1985 18.7296C22.0189 18.539 21.7559 18.432 21.4944 18.4416C21.2469 18.4398 21.0347 18.5838 20.8055 18.6555C19.8137 19.023 18.7074 19.0754 17.6887 18.7859C16.9574 18.5862 16.2755 18.2341 15.6519 17.807C14.9388 17.3146 14.2998 16.7211 13.7239 16.0749Z" fill="black"/>
<path d="M3.95163 1.5868C3.97884 1.21595 4.3177 0.905289 4.68951 0.910129C5.50447 0.908314 6.31973 0.90801 7.13469 0.91043C7.53673 0.906498 7.89041 1.27584 7.87015 1.67755C7.85595 1.91742 7.90673 2.1688 7.81997 2.39929C7.74078 2.60892 7.56243 2.77983 7.3469 2.84275C7.26075 2.86816 7.1619 2.87148 7.09207 2.9344C7.01741 2.99551 6.98174 3.09321 6.98567 3.18819C6.98597 3.9659 6.98506 4.7436 6.98597 5.52131C6.98023 5.66288 7.08723 5.79749 7.2275 5.82078C7.41914 5.84256 7.61382 5.8235 7.80577 5.84498C8.16246 6.02193 8.36499 6.42788 8.36469 6.81749C8.36258 7.34655 8.36923 7.8756 8.36106 8.40436C7.6643 8.35263 6.95876 8.55379 6.38049 8.94249C5.98541 8.58797 5.55767 8.26279 5.07825 8.03078C4.58129 7.77729 4.00695 7.63936 3.45105 7.74553C3.4571 7.41521 3.44742 7.08459 3.45589 6.75457C3.47433 6.33592 3.73973 5.91788 4.14661 5.78387C4.29926 5.72368 4.46612 5.7875 4.6218 5.74909C4.74483 5.71067 4.83582 5.58877 4.83159 5.459C4.83219 4.70216 4.83128 3.94563 4.83219 3.1891C4.84186 3.07234 4.77657 2.95467 4.67289 2.90083C4.59883 2.86664 4.5166 2.85878 4.44013 2.83246C4.16112 2.73355 3.95284 2.45647 3.94891 2.15821C3.94861 1.96794 3.94347 1.77707 3.95163 1.5868Z" fill="#7F4F14"/>
<path d="M7.23384 15.6109C7.5978 15.6766 7.98774 15.6551 8.31965 15.479C8.31935 16.6754 8.32026 17.8717 8.31905 19.0681C8.31935 19.3125 8.2465 19.56 8.09566 19.7542C7.9291 19.9771 7.65795 20.1235 7.37743 20.1168C6.45093 20.1171 5.52472 20.1165 4.59822 20.1171C4.43015 20.1199 4.25573 20.1214 4.09975 20.05C3.73701 19.8987 3.5103 19.5116 3.50093 19.1259C3.49458 18.781 3.49972 18.4362 3.49851 18.0914C4.21885 18.2045 4.96066 18.0889 5.64171 17.8424C6.0241 17.7087 6.38593 17.503 6.66857 17.2099C7.08059 16.797 7.32876 16.1971 7.23384 15.6109Z" fill="#7F4F14"/>
<path d="M3.07501 8.59432C3.21013 8.46395 3.39029 8.39256 3.56894 8.34537C3.97098 8.25553 4.38571 8.3729 4.75057 8.54169C5.1511 8.73075 5.51324 8.9921 5.84938 9.27916C5.34789 10.1216 5.08641 11.1095 5.13538 12.0908C4.48758 11.9946 3.8413 11.8116 3.28056 11.4647C3.09979 11.347 2.92235 11.2178 2.77998 11.0548C2.52485 10.6349 2.38247 10.1264 2.46832 9.6355C2.54147 9.23046 2.77695 8.8708 3.07501 8.59432Z" fill="white"/>
<path d="M6.6456 9.50392C7.19727 9.08134 7.93303 8.91648 8.61498 9.04383C8.78426 9.03717 8.94115 9.10674 9.09803 9.16028C9.64033 9.37112 10.1315 9.71747 10.4976 10.1709C11.179 11.01 11.4643 12.1368 11.3307 13.204C11.2926 13.3813 11.3842 13.5812 11.5538 13.6532C11.772 13.7648 12.0595 13.6178 12.1055 13.3794C12.162 12.995 12.1656 12.6035 12.1336 12.2164C12.5296 12.4127 12.8358 12.7636 13.0117 13.1659C13.2726 13.7621 13.3107 14.4385 13.1931 15.0737C13.0791 15.6865 12.8128 16.2749 12.4065 16.7495C12.1115 17.0983 11.734 17.3702 11.3259 17.5717C11.016 17.7244 10.6769 17.823 10.3305 17.8354C10.6548 17.5218 10.9296 17.1567 11.1403 16.7577C11.2325 16.5816 11.1645 16.3402 10.9888 16.2443C10.8078 16.1282 10.5399 16.1975 10.4408 16.3895C10.124 16.9694 9.65424 17.5103 9.0146 17.7329C9.01672 16.7583 9.01098 15.783 9.01763 14.8084C9.08866 14.6502 9.15849 14.4902 9.20021 14.3211C9.59318 14.6372 10.121 14.7358 10.6137 14.6862C10.7981 14.6702 10.9583 14.5105 10.9677 14.3244C10.9849 14.1517 10.8721 13.979 10.7098 13.9212C10.6013 13.8773 10.4831 13.9076 10.3704 13.9049C10.1179 13.9064 9.85133 13.8456 9.65998 13.6722C9.45655 13.4929 9.34893 13.2264 9.32233 12.9608C9.27971 12.3543 9.16363 11.7442 8.90457 11.1909C8.80875 11.0067 8.56571 10.9262 8.38041 11.0212C8.19481 11.1056 8.10563 11.3488 8.19118 11.5336C8.3916 11.9719 8.48712 12.4517 8.5252 12.9299C8.56118 13.4514 8.53155 13.9989 8.29819 14.4763C8.28307 14.6472 8.14493 14.7667 8.0083 14.852C7.74833 14.9972 7.43245 14.9542 7.15948 14.871C6.97932 14.8235 6.82092 14.7165 6.69245 14.5834C6.63804 14.5341 6.63653 14.4548 6.59874 14.3958C6.2626 13.9327 6.09846 13.3689 5.99961 12.8117C5.88595 12.1096 5.88323 11.3769 6.0906 10.6918C6.21696 10.2722 6.39833 9.866 6.6456 9.50392Z" fill="white"/>
<path d="M1.261 12.7134C1.4738 12.2312 1.98497 11.9638 2.47739 11.8555C2.92205 12.2354 3.46647 12.4804 4.02086 12.6538C4.40869 12.772 4.80801 12.8525 5.21065 12.8994C5.29831 13.4318 5.44885 13.9572 5.6937 14.4394C5.17528 14.6696 4.61696 14.8018 4.05471 14.8665C3.5502 14.9173 3.02997 14.9152 2.53996 14.7703C2.05873 14.6054 1.60288 14.3072 1.33415 13.8664C1.12406 13.5234 1.09746 13.08 1.261 12.7134Z" fill="white"/>
<path d="M3.98912 15.6687C4.7273 15.6049 5.45641 15.4222 6.13201 15.1163C6.29464 15.2455 6.44911 15.4004 6.51199 15.6043C6.62806 15.95 6.49687 16.3309 6.27439 16.604C6.00536 16.9522 5.58881 17.1406 5.1771 17.2619C4.62966 17.4262 4.04081 17.497 3.47705 17.3757C3.38273 17.3684 3.32772 17.2798 3.23945 17.2574C2.8891 17.1397 2.58621 16.9092 2.34922 16.6291C2.16785 16.4146 2.00764 16.1539 2.0161 15.8635C2.01489 15.7228 2.07293 15.5925 2.13611 15.4703C2.72678 15.6853 3.36732 15.7195 3.98912 15.6687Z" fill="white"/>
<path d="M13.7239 16.0749C14.2998 16.7211 14.9388 17.3146 15.6519 17.807C16.2755 18.2341 16.9574 18.5862 17.6887 18.7859C18.7074 19.0754 19.8137 19.023 20.8055 18.6555C21.0347 18.5838 21.2469 18.4398 21.4944 18.4416C21.7559 18.432 22.0189 18.539 22.1985 18.7296C22.388 18.9323 22.4862 19.2212 22.4454 19.4973C22.4061 19.798 22.2115 20.0751 21.9367 20.2058C21.0951 20.5845 20.1807 20.8068 19.2575 20.8362C17.9254 20.8815 16.6023 20.5025 15.4412 19.8615C14.3907 19.2868 13.46 18.5133 12.6378 17.6467C13.1142 17.2147 13.4863 16.6724 13.7239 16.0749Z" fill="#FFCA05"/>
<path d="M3.95163 1.5868C3.94347 1.77707 3.94861 1.96794 3.94891 2.15821C3.95284 2.45647 4.16112 2.73355 4.44013 2.83246C4.5166 2.85878 4.59883 2.86664 4.67289 2.90083C4.77657 2.95467 4.84186 3.07234 4.83219 3.1891C4.83128 3.94563 4.83219 4.70216 4.83159 5.459C4.83582 5.58877 4.74483 5.71067 4.6218 5.74909C4.46612 5.7875 4.29926 5.72368 4.14661 5.78387C3.73973 5.91788 3.47433 6.33592 3.45589 6.75457C3.44742 7.08459 3.4571 7.41521 3.45105 7.74553C4.00695 7.63936 4.58129 7.77729 5.07825 8.03078C5.55767 8.26279 5.98541 8.58797 6.38049 8.94249C6.95876 8.55379 7.6643 8.35263 8.36106 8.40436C8.36923 7.8756 8.36258 7.34655 8.36469 6.81749C8.36499 6.42788 8.16246 6.02193 7.80577 5.84498C7.61382 5.8235 7.41914 5.84256 7.2275 5.82078C7.08723 5.79749 6.98023 5.66288 6.98597 5.52131C6.98506 4.7436 6.98597 3.9659 6.98567 3.18819C6.98174 3.09321 7.01741 2.99551 7.09207 2.9344C7.1619 2.87148 7.26075 2.86816 7.3469 2.84275C7.56243 2.77983 7.74078 2.60892 7.81997 2.39929C7.90673 2.1688 7.85595 1.91742 7.87015 1.67755C7.89041 1.27584 7.53673 0.906498 7.13469 0.91043C6.31973 0.90801 5.50447 0.908314 4.68951 0.910129C4.3177 0.905289 3.97884 1.21595 3.95163 1.5868ZM3.07501 8.59432C2.77695 8.8708 2.54147 9.23046 2.46832 9.6355C2.38247 10.1264 2.52485 10.6349 2.77998 11.0548C2.92235 11.2178 3.09979 11.347 3.28056 11.4647C3.8413 11.8116 4.48758 11.9946 5.13538 12.0908C5.08641 11.1095 5.34789 10.1216 5.84938 9.27916C5.51324 8.9921 5.1511 8.73075 4.75057 8.54169C4.38571 8.3729 3.97098 8.25553 3.56894 8.34537C3.39029 8.39256 3.21013 8.46395 3.07501 8.59432ZM6.6456 9.50392C6.39833 9.866 6.21696 10.2722 6.0906 10.6918C5.88323 11.3769 5.88595 12.1096 5.99961 12.8117C6.09846 13.3689 6.2626 13.9327 6.59874 14.3958C6.63653 14.4548 6.63804 14.5341 6.69245 14.5834C6.82092 14.7165 6.97932 14.8235 7.15948 14.871C7.43245 14.9542 7.74833 14.9972 8.0083 14.852C8.14493 14.7667 8.28307 14.6472 8.29819 14.4763C8.53155 13.9989 8.56118 13.4514 8.5252 12.9299C8.48712 12.4517 8.3916 11.9719 8.19118 11.5336C8.10563 11.3488 8.19481 11.1056 8.38041 11.0212C8.56571 10.9262 8.80875 11.0067 8.90457 11.1909C9.16363 11.7442 9.27971 12.3543 9.32233 12.9608C9.34893 13.2264 9.45655 13.4929 9.65998 13.6722C9.85133 13.8456 10.1179 13.9064 10.3704 13.9049C10.4831 13.9076 10.6013 13.8773 10.7098 13.9212C10.8721 13.979 10.9849 14.1517 10.9677 14.3244C10.9583 14.5105 10.7981 14.6702 10.6137 14.6862C10.121 14.7358 9.59318 14.6372 9.20021 14.3211C9.15849 14.4902 9.08866 14.6502 9.01763 14.8084C9.01098 15.783 9.01672 16.7583 9.0146 17.7329C9.65424 17.5103 10.124 16.9694 10.4408 16.3895C10.5399 16.1975 10.8078 16.1282 10.9888 16.2443C11.1645 16.3402 11.2325 16.5816 11.1403 16.7577C10.9296 17.1567 10.6548 17.5218 10.3305 17.8354C10.6769 17.823 11.016 17.7244 11.3259 17.5717C11.734 17.3702 12.1115 17.0983 12.4065 16.7495C12.8128 16.2749 13.0791 15.6865 13.1931 15.0737C13.3107 14.4385 13.2726 13.7621 13.0117 13.1659C12.8358 12.7636 12.5296 12.4127 12.1336 12.2164C12.1656 12.6035 12.162 12.995 12.1055 13.3794C12.0595 13.6178 11.772 13.7648 11.5538 13.6532C11.3842 13.5812 11.2926 13.3813 11.3307 13.204C11.4643 12.1368 11.179 11.01 10.4976 10.1709C10.1315 9.71747 9.64033 9.37112 9.09803 9.16028C8.94115 9.10674 8.78426 9.03717 8.61498 9.04383C7.93303 8.91648 7.19727 9.08134 6.6456 9.50392ZM1.261 12.7134C1.09746 13.08 1.12406 13.5234 1.33415 13.8664C1.60288 14.3072 2.05873 14.6054 2.53996 14.7703C3.02997 14.9152 3.5502 14.9173 4.05471 14.8665C4.61696 14.8018 5.17528 14.6696 5.6937 14.4394C5.44885 13.9572 5.29831 13.4318 5.21065 12.8994C4.80801 12.8525 4.40869 12.772 4.02086 12.6538C3.46647 12.4804 2.92205 12.2354 2.47739 11.8555C1.98497 11.9638 1.4738 12.2312 1.261 12.7134ZM3.98912 15.6687C3.36732 15.7195 2.72678 15.6853 2.13611 15.4703C2.07293 15.5925 2.01489 15.7228 2.0161 15.8635C2.00764 16.1539 2.16785 16.4146 2.34922 16.6291C2.58621 16.9092 2.8891 17.1397 3.23945 17.2574C3.32772 17.2798 3.38273 17.3684 3.47705 17.3757C4.04081 17.497 4.62966 17.4262 5.1771 17.2619C5.58881 17.1406 6.00536 16.9522 6.27439 16.604C6.49687 16.3309 6.62806 15.95 6.51199 15.6043C6.44911 15.4004 6.29464 15.2455 6.13201 15.1163C5.45641 15.4222 4.7273 15.6049 3.98912 15.6687ZM7.23384 15.6109C7.32876 16.1971 7.08059 16.797 6.66857 17.2099C6.38593 17.503 6.0241 17.7087 5.64171 17.8424C4.96066 18.0889 4.21885 18.2045 3.49851 18.0914C3.49972 18.4362 3.49458 18.781 3.50093 19.1259C3.5103 19.5116 3.73701 19.8987 4.09975 20.05C4.25573 20.1214 4.43015 20.1199 4.59822 20.1171C5.52472 20.1165 6.45093 20.1171 7.37743 20.1168C7.65795 20.1235 7.9291 19.9771 8.09566 19.7542C8.2465 19.56 8.31935 19.3125 8.31905 19.0681C8.32026 17.8717 8.31935 16.6754 8.31965 15.479C7.98774 15.6551 7.5978 15.6766 7.23384 15.6109ZM13.7239 16.0749C13.4863 16.6724 13.1142 17.2147 12.6378 17.6467C13.46 18.5133 14.3907 19.2868 15.4412 19.8615C16.6023 20.5025 17.9254 20.8815 19.2575 20.8362C20.1807 20.8068 21.0951 20.5845 21.9367 20.2058C22.2115 20.0751 22.4061 19.798 22.4454 19.4973C22.4862 19.2212 22.388 18.9323 22.1985 18.7296C22.0189 18.539 21.7559 18.432 21.4944 18.4416C21.2469 18.4398 21.0347 18.5838 20.8055 18.6555C19.8137 19.023 18.7074 19.0754 17.6887 18.7859C16.9574 18.5862 16.2755 18.2341 15.6519 17.807C14.9388 17.3146 14.2998 16.7211 13.7239 16.0749Z" stroke="black" stroke-width="3" mask="url(#path-1-outside-1_141_2085)"/>
<path d="M3.95163 1.5868C3.97884 1.21595 4.3177 0.905289 4.68951 0.910129C5.50447 0.908314 6.31973 0.90801 7.13469 0.91043C7.53673 0.906498 7.89041 1.27584 7.87015 1.67755C7.85595 1.91742 7.90673 2.1688 7.81997 2.39929C7.74078 2.60892 7.56243 2.77983 7.3469 2.84275C7.26075 2.86816 7.1619 2.87148 7.09207 2.9344C7.01741 2.99551 6.98174 3.09321 6.98567 3.18819C6.98597 3.9659 6.98506 4.7436 6.98597 5.52131C6.98023 5.66288 7.08723 5.79749 7.2275 5.82078C7.41914 5.84256 7.61382 5.8235 7.80577 5.84498C8.16246 6.02193 8.36499 6.42788 8.36469 6.81749C8.36258 7.34655 8.36923 7.8756 8.36106 8.40436C7.6643 8.35263 6.95876 8.55379 6.38049 8.94249C5.98541 8.58797 5.55767 8.26279 5.07825 8.03078C4.58129 7.77729 4.00695 7.63936 3.45105 7.74553C3.4571 7.41521 3.44742 7.08459 3.45589 6.75457C3.47433 6.33592 3.73973 5.91788 4.14661 5.78387C4.29926 5.72368 4.46612 5.7875 4.6218 5.74909C4.74483 5.71067 4.83582 5.58877 4.83159 5.459C4.83219 4.70216 4.83128 3.94563 4.83219 3.1891C4.84186 3.07234 4.77657 2.95467 4.67289 2.90083C4.59883 2.86664 4.5166 2.85878 4.44013 2.83246C4.16112 2.73355 3.95284 2.45647 3.94891 2.15821C3.94861 1.96794 3.94347 1.77707 3.95163 1.5868Z" stroke="black" stroke-width="3" mask="url(#path-1-outside-1_141_2085)"/>
<path d="M7.23384 15.6109C7.5978 15.6766 7.98774 15.6551 8.31965 15.479C8.31935 16.6754 8.32026 17.8717 8.31905 19.0681C8.31935 19.3125 8.2465 19.56 8.09566 19.7542C7.9291 19.9771 7.65795 20.1235 7.37743 20.1168C6.45093 20.1171 5.52472 20.1165 4.59822 20.1171C4.43015 20.1199 4.25573 20.1214 4.09975 20.05C3.73701 19.8987 3.5103 19.5116 3.50093 19.1259C3.49458 18.781 3.49972 18.4362 3.49851 18.0914C4.21885 18.2045 4.96066 18.0889 5.64171 17.8424C6.0241 17.7087 6.38593 17.503 6.66857 17.2099C7.08059 16.797 7.32876 16.1971 7.23384 15.6109Z" stroke="black" stroke-width="3" mask="url(#path-1-outside-1_141_2085)"/>
<path d="M3.07501 8.59432C3.21013 8.46395 3.39029 8.39256 3.56894 8.34537C3.97098 8.25553 4.38571 8.3729 4.75057 8.54169C5.1511 8.73075 5.51324 8.9921 5.84938 9.27916C5.34789 10.1216 5.08641 11.1095 5.13538 12.0908C4.48758 11.9946 3.8413 11.8116 3.28056 11.4647C3.09979 11.347 2.92235 11.2178 2.77998 11.0548C2.52485 10.6349 2.38247 10.1264 2.46832 9.6355C2.54147 9.23046 2.77695 8.8708 3.07501 8.59432Z" stroke="black" stroke-width="3" mask="url(#path-1-outside-1_141_2085)"/>
<path d="M6.6456 9.50392C7.19727 9.08134 7.93303 8.91648 8.61498 9.04383C8.78426 9.03717 8.94115 9.10674 9.09803 9.16028C9.64033 9.37112 10.1315 9.71747 10.4976 10.1709C11.179 11.01 11.4643 12.1368 11.3307 13.204C11.2926 13.3813 11.3842 13.5812 11.5538 13.6532C11.772 13.7648 12.0595 13.6178 12.1055 13.3794C12.162 12.995 12.1656 12.6035 12.1336 12.2164C12.5296 12.4127 12.8358 12.7636 13.0117 13.1659C13.2726 13.7621 13.3107 14.4385 13.1931 15.0737C13.0791 15.6865 12.8128 16.2749 12.4065 16.7495C12.1115 17.0983 11.734 17.3702 11.3259 17.5717C11.016 17.7244 10.6769 17.823 10.3305 17.8354C10.6548 17.5218 10.9296 17.1567 11.1403 16.7577C11.2325 16.5816 11.1645 16.3402 10.9888 16.2443C10.8078 16.1282 10.5399 16.1975 10.4408 16.3895C10.124 16.9694 9.65424 17.5103 9.0146 17.7329C9.01672 16.7583 9.01098 15.783 9.01763 14.8084C9.08866 14.6502 9.15849 14.4902 9.20021 14.3211C9.59318 14.6372 10.121 14.7358 10.6137 14.6862C10.7981 14.6702 10.9583 14.5105 10.9677 14.3244C10.9849 14.1517 10.8721 13.979 10.7098 13.9212C10.6013 13.8773 10.4831 13.9076 10.3704 13.9049C10.1179 13.9064 9.85133 13.8456 9.65998 13.6722C9.45655 13.4929 9.34893 13.2264 9.32233 12.9608C9.27971 12.3543 9.16363 11.7442 8.90457 11.1909C8.80875 11.0067 8.56571 10.9262 8.38041 11.0212C8.19481 11.1056 8.10563 11.3488 8.19118 11.5336C8.3916 11.9719 8.48712 12.4517 8.5252 12.9299C8.56118 13.4514 8.53155 13.9989 8.29819 14.4763C8.28307 14.6472 8.14493 14.7667 8.0083 14.852C7.74833 14.9972 7.43245 14.9542 7.15948 14.871C6.97932 14.8235 6.82092 14.7165 6.69245 14.5834C6.63804 14.5341 6.63653 14.4548 6.59874 14.3958C6.2626 13.9327 6.09846 13.3689 5.99961 12.8117C5.88595 12.1096 5.88323 11.3769 6.0906 10.6918C6.21696 10.2722 6.39833 9.866 6.6456 9.50392Z" stroke="black" stroke-width="3" mask="url(#path-1-outside-1_141_2085)"/>
<path d="M1.261 12.7134C1.4738 12.2312 1.98497 11.9638 2.47739 11.8555C2.92205 12.2354 3.46647 12.4804 4.02086 12.6538C4.40869 12.772 4.80801 12.8525 5.21065 12.8994C5.29831 13.4318 5.44885 13.9572 5.6937 14.4394C5.17528 14.6696 4.61696 14.8018 4.05471 14.8665C3.5502 14.9173 3.02997 14.9152 2.53996 14.7703C2.05873 14.6054 1.60288 14.3072 1.33415 13.8664C1.12406 13.5234 1.09746 13.08 1.261 12.7134Z" stroke="black" stroke-width="3" mask="url(#path-1-outside-1_141_2085)"/>
<path d="M3.98912 15.6687C4.7273 15.6049 5.45641 15.4222 6.13201 15.1163C6.29464 15.2455 6.44911 15.4004 6.51199 15.6043C6.62806 15.95 6.49687 16.3309 6.27439 16.604C6.00536 16.9522 5.58881 17.1406 5.1771 17.2619C4.62966 17.4262 4.04081 17.497 3.47705 17.3757C3.38273 17.3684 3.32772 17.2798 3.23945 17.2574C2.8891 17.1397 2.58621 16.9092 2.34922 16.6291C2.16785 16.4146 2.00764 16.1539 2.0161 15.8635C2.01489 15.7228 2.07293 15.5925 2.13611 15.4703C2.72678 15.6853 3.36732 15.7195 3.98912 15.6687Z" stroke="black" stroke-width="3" mask="url(#path-1-outside-1_141_2085)"/>
<path d="M13.7239 16.0749C14.2998 16.7211 14.9388 17.3146 15.6519 17.807C16.2755 18.2341 16.9574 18.5862 17.6887 18.7859C18.7074 19.0754 19.8137 19.023 20.8055 18.6555C21.0347 18.5838 21.2469 18.4398 21.4944 18.4416C21.7559 18.432 22.0189 18.539 22.1985 18.7296C22.388 18.9323 22.4862 19.2212 22.4454 19.4973C22.4061 19.798 22.2115 20.0751 21.9367 20.2058C21.0951 20.5845 20.1807 20.8068 19.2575 20.8362C17.9254 20.8815 16.6023 20.5025 15.4412 19.8615C14.3907 19.2868 13.46 18.5133 12.6378 17.6467C13.1142 17.2147 13.4863 16.6724 13.7239 16.0749Z" stroke="black" stroke-width="3" mask="url(#path-1-outside-1_141_2085)"/>
</svg>
