<svg width="1000" height="1000" viewBox="0 0 1000 1000" fill="none" xmlns="http://www.w3.org/2000/svg">
<g clip-path="url(#clip0_42_1840)">
<path d="M199.697 218.926C190.19 222.815 172.973 217.39 166.007 208.333C157.589 197.554 146.85 187.429 132.309 182.837C101.768 173.262 85.8008 193.684 77.9358 221.089C70.6651 246.276 82.2307 267.814 112.773 277.389C127.259 281.966 141.398 281.348 152.779 276.744C162.286 272.855 179.502 278.28 186.469 287.337C194.818 298.155 207.114 307.016 221.654 311.608C252.196 321.183 280.932 308.068 285.916 282.326C290.901 256.584 270.231 227.911 239.689 218.335C225.148 213.743 211.023 214.307 199.697 218.926Z" fill="black" stroke="black" stroke-width="2" stroke-miterlimit="10"/>
<path d="M835.026 475.247C824.76 475.606 810.484 464.56 807.081 453.653C802.911 440.627 796.339 427.412 784.285 418.073C758.941 398.523 736.895 412.16 720.035 435.152C704.5 456.269 707.9 480.477 733.243 500.028C745.252 509.334 758.732 513.646 771.002 513.263C781.268 512.904 795.544 523.95 798.947 534.857C803.038 547.896 811.509 560.463 823.563 569.802C848.906 589.352 880.406 586.988 893.988 564.56C907.57 542.132 898.096 508.078 872.752 488.528C860.698 479.189 847.251 474.832 835.026 475.247Z" fill="black" stroke="black" stroke-width="2" stroke-miterlimit="10"/>
<path d="M681.932 119.786C679.077 129.065 664.795 138.399 654.001 138.065C641.078 137.76 627.242 139.542 615.172 147.419C589.872 164.007 595.232 187.915 610.552 210.086C624.606 230.493 647.279 234.945 672.58 218.357C684.606 210.511 692.627 199.805 696.081 188.727C698.935 179.448 713.217 170.114 724.011 170.448C736.923 170.827 750.767 167.149 762.837 159.272C788.137 142.685 795.769 113.82 779.939 94.7518C764.109 75.6836 730.764 73.6115 705.463 90.1991C693.394 98.0763 685.342 108.739 681.932 119.786Z" fill="black" stroke="black" stroke-width="2" stroke-miterlimit="10"/>
<path d="M141.946 766.772C143.418 776.938 133.987 792.329 123.514 796.896C111.018 802.455 98.5942 810.424 90.6193 823.421C73.9363 850.737 89.8862 871.172 114.573 885.436C137.251 898.587 160.947 892.578 177.63 865.262C185.578 852.315 188.401 838.446 186.688 826.29C185.217 816.124 194.647 800.733 205.121 796.165C217.638 790.683 229.212 780.898 237.187 767.901C253.87 740.585 248.1 709.529 224.329 698.462C200.559 687.395 167.736 700.51 151.053 727.826C143.078 740.823 140.206 754.664 141.946 766.772Z" fill="black" stroke="black" stroke-width="2" stroke-miterlimit="10"/>
<path d="M809.869 771.174C818.342 776.981 823.27 794.346 819.532 805.143C815.152 818.099 812.593 832.635 816.747 847.307C825.53 878.086 851.366 880.204 878.584 871.716C903.623 863.95 915.262 842.452 906.479 811.673C902.343 797.055 894.058 785.581 883.957 778.603C875.484 772.796 870.556 755.431 874.295 744.634C878.745 731.713 879.392 716.572 875.238 701.9C866.456 671.121 839.707 654.319 815.461 664.3C791.215 674.281 778.617 707.307 787.4 738.086C791.554 752.758 799.786 764.249 809.869 771.174Z" fill="black" stroke="black" stroke-width="2" stroke-miterlimit="10"/>
<path fill-rule="evenodd" clip-rule="evenodd" d="M740.633 999.554H584.612C584.412 998.885 584.236 998.209 584.084 997.525C579.928 978.82 595.368 961.66 618.628 959.183C629.711 958.025 640.532 960.384 649.279 965.203C656.586 969.244 669.706 967.866 674.945 962.491C681.232 956.09 690.529 951.558 701.572 950.407C724.831 947.93 738.855 958.997 741.318 977.996C742.334 985.747 742.3 993.171 740.633 999.554Z" fill="black"/>
<path d="M740.633 999.554V1000.55H741.405L741.6 999.807L740.633 999.554ZM584.612 999.554L583.653 999.84L583.866 1000.55H584.612V999.554ZM584.084 997.525L585.06 997.308L585.06 997.308L584.084 997.525ZM618.628 959.183L618.524 958.188L618.522 958.188L618.628 959.183ZM649.279 965.203L649.763 964.328L649.762 964.327L649.279 965.203ZM674.945 962.491L674.232 961.79L674.229 961.793L674.945 962.491ZM701.572 950.407L701.675 951.402L701.678 951.402L701.572 950.407ZM741.318 977.996L740.326 978.125L740.326 978.126L741.318 977.996ZM740.633 998.554H584.612V1000.55H740.633V998.554ZM583.108 997.742C583.265 998.449 583.447 999.148 583.653 999.84L585.57 999.268C585.377 998.622 585.207 997.968 585.06 997.308L583.108 997.742ZM618.522 958.188C594.899 960.704 578.777 978.25 583.108 997.742L585.06 997.308C581.079 979.389 595.838 962.615 618.734 960.177L618.522 958.188ZM649.762 964.327C640.836 959.409 629.809 957.01 618.524 958.188L618.732 960.177C629.612 959.041 640.229 961.358 648.797 966.079L649.762 964.327ZM674.229 961.793C671.839 964.245 667.516 965.884 662.783 966.383C658.064 966.881 653.182 966.218 649.763 964.328L648.795 966.078C652.684 968.229 658.014 968.897 662.992 968.372C667.955 967.849 672.812 966.112 675.661 963.189L674.229 961.793ZM701.468 949.413C690.217 950.585 680.697 955.208 674.232 961.79L675.659 963.192C681.767 956.973 690.841 952.531 701.675 951.402L701.468 949.413ZM742.309 977.868C741.049 968.145 736.812 960.357 729.827 955.336C722.854 950.323 713.267 948.156 701.466 949.413L701.678 951.402C713.136 950.181 722.191 952.309 728.66 956.96C735.118 961.603 739.124 968.848 740.326 978.125L742.309 977.868ZM741.6 999.807C743.312 993.254 743.335 985.689 742.309 977.866L740.326 978.126C741.333 985.805 741.289 993.088 739.665 999.301L741.6 999.807Z" fill="black"/>
<path d="M415.438 563.395C424.155 566.652 432.276 580.844 431.345 591.152C430.321 603.499 431.243 616.838 438.096 628.831C452.534 653.976 475.711 650.201 497.79 636.8C518.111 624.509 523.653 603.069 509.216 577.924C502.39 565.973 492.601 557.693 482.198 553.762C473.482 550.505 465.36 536.313 466.291 526.004C467.385 513.673 464.65 500.219 457.797 488.226C443.36 463.081 416.176 454.145 397.037 468.21C377.897 482.276 374.027 514.061 388.464 539.206C395.317 551.199 405.063 559.506 415.438 563.395Z" fill="black" stroke="black" stroke-width="2" stroke-miterlimit="10"/>
<path d="M166.759 388.937C157.096 376.955 163.264 388.937 154.776 368.466C146.288 347.996 138.069 340.056 131.034 326.528C116.208 298.16 90.4775 300.312 65.5377 314.129C42.5865 326.798 35.5355 351.204 50.3612 379.571C57.3679 393.051 67.8029 402.612 79.1057 407.404C88.5779 411.377 96.9159 427.387 95.438 438.716C93.6922 452.27 75.3464 479.757 82.3811 493.286C97.2068 521.653 128.057 548.406 149.784 533.728C171.511 519.05 196.687 455.924 181.862 427.557C174.827 414.028 179.241 404.415 166.759 388.937Z" fill="black" stroke="black" stroke-width="2" stroke-miterlimit="10"/>
<path d="M504.905 833.053C515.722 828.944 505.721 830.556 522.329 829.267C538.937 827.979 546.529 823.958 557.837 822.088C581.567 818.113 586.033 799.225 581.98 778.179C578.282 758.823 562.488 748.09 538.758 752.064C527.491 753.926 518.224 759.151 512.163 766.11C507.113 771.951 493.728 774.174 485.977 770.474C476.699 766.064 461.338 746.54 450.03 748.41C426.3 752.385 399.985 768.188 405.403 787.138C410.822 806.088 450.055 838.808 473.785 834.833C485.093 832.963 490.933 838.361 504.905 833.053Z" fill="black" stroke="black" stroke-width="2" stroke-miterlimit="10"/>
<path fill-rule="evenodd" clip-rule="evenodd" d="M998.555 142.477V295.478C996.699 299.429 994.514 302.689 992.33 305.947C989.192 310.628 986.059 315.303 983.912 322.009C972.834 356.863 901.371 387.242 871.981 381.432C842.591 375.621 839.464 329.069 850.542 294.215C853.963 283.529 870.551 276.722 885.24 270.694C893.359 267.363 900.898 264.269 905.311 260.891C915.69 252.972 921.966 233.325 917.566 222.444C912.356 209.421 911.714 193.263 917.009 176.731C928.087 141.877 953.557 127.956 982.303 136.377C988.072 138.057 993.541 140.079 998.555 142.477Z" fill="black"/>
<path d="M998.555 142.477H999.555V141.847L998.987 141.575L998.555 142.477ZM998.555 295.478L999.46 295.903L999.555 295.701V295.478H998.555ZM992.33 305.947L993.161 306.504L993.161 306.504L992.33 305.947ZM983.912 322.009L982.96 321.704L982.959 321.706L983.912 322.009ZM871.981 381.432L871.787 382.413L871.787 382.413L871.981 381.432ZM850.542 294.215L849.589 293.91L849.589 293.912L850.542 294.215ZM885.24 270.694L884.86 269.769L884.86 269.769L885.24 270.694ZM905.311 260.891L904.705 260.096L904.703 260.097L905.311 260.891ZM917.566 222.444L916.637 222.816L916.639 222.819L917.566 222.444ZM917.009 176.731L917.961 177.036L917.962 177.034L917.009 176.731ZM982.303 136.377L982.022 137.336L982.023 137.337L982.303 136.377ZM997.555 142.477V295.478H999.555V142.477H997.555ZM993.161 306.504C995.34 303.252 997.567 299.932 999.46 295.903L997.65 295.053C995.831 298.925 993.687 302.127 991.499 305.39L993.161 306.504ZM984.864 322.314C986.964 315.756 990.023 311.185 993.161 306.504L991.499 305.39C988.362 310.071 985.154 314.849 982.96 321.704L984.864 322.314ZM871.787 382.413C879.338 383.905 889.476 383.062 900.539 380.473C911.625 377.879 923.73 373.51 935.254 367.868C946.775 362.226 957.744 355.296 966.542 347.566C975.329 339.846 982.019 331.267 984.865 322.312L982.959 321.706C980.266 330.178 973.869 338.467 965.222 346.064C956.587 353.651 945.776 360.488 934.374 366.071C922.973 371.654 911.01 375.969 900.084 378.526C889.136 381.088 879.32 381.863 872.175 380.451L871.787 382.413ZM849.589 293.912C844.01 311.464 841.997 331.983 845.103 348.895C848.203 365.776 856.492 379.389 871.787 382.413L872.175 380.451C858.08 377.664 850.111 365.095 847.07 348.534C844.034 332.003 845.996 311.82 851.495 294.518L849.589 293.912ZM884.86 269.769C877.532 272.776 869.641 276.012 863.156 279.847C856.703 283.663 851.418 288.198 849.589 293.91L851.494 294.52C853.086 289.546 857.806 285.334 864.174 281.568C870.511 277.821 878.258 274.64 885.619 271.62L884.86 269.769ZM904.703 260.097C900.421 263.375 893.036 266.414 884.86 269.769L885.619 271.62C893.682 268.311 901.374 265.164 905.919 261.685L904.703 260.097ZM916.639 222.819C918.716 227.954 918.309 235.322 916.028 242.474C913.751 249.611 909.681 256.299 904.705 260.096L905.918 261.686C911.321 257.563 915.577 250.468 917.933 243.082C920.285 235.71 920.816 227.815 918.493 222.07L916.639 222.819ZM916.057 176.426C910.698 193.157 911.333 209.556 916.637 222.816L918.494 222.073C913.379 209.285 912.73 193.368 917.961 177.036L916.057 176.426ZM982.584 135.417C967.982 131.139 954.134 132.521 942.517 139.468C930.912 146.407 921.649 158.831 916.056 176.428L917.962 177.034C923.447 159.777 932.458 147.813 943.544 141.184C954.618 134.562 967.878 133.193 982.022 137.336L982.584 135.417ZM998.987 141.575C993.916 139.149 988.395 137.109 982.583 135.417L982.023 137.337C987.75 139.005 993.167 141.008 998.124 143.379L998.987 141.575Z" fill="black"/>
<path fill-rule="evenodd" clip-rule="evenodd" d="M0 295.478V142.477C22.1672 153.082 35.4337 171.054 26.3992 199.479C24.3863 205.767 23.1613 211.546 21.8843 217.571C19.7913 227.446 17.5587 237.98 11.4889 252.487C6.15724 265.23 5.14938 266.662 5.01909 268.171C4.91056 269.427 5.41106 270.736 4.52821 278.681C3.73904 285.782 2.07533 291.061 0 295.478Z" fill="black"/>
<path d="M0 295.478H-1V299.958L0.905068 295.903L0 295.478ZM0 142.477L0.43155 141.575L-1 140.89V142.477H0ZM26.3992 199.479L27.3516 199.784L27.3523 199.782L26.3992 199.479ZM21.8843 217.571L22.8626 217.779L22.8626 217.779L21.8843 217.571ZM11.4889 252.487L10.5664 252.101L10.5664 252.101L11.4889 252.487ZM5.01909 268.171L6.01538 268.257L6.01538 268.257L5.01909 268.171ZM4.52821 278.681L3.53433 278.57L4.52821 278.681ZM1 295.478V142.477H-1V295.478H1ZM27.3523 199.782C31.9349 185.364 30.8904 173.48 25.7842 163.828C20.6919 154.203 11.6316 146.933 0.43155 141.575L-0.43155 143.379C10.5356 148.626 19.1921 155.645 24.0163 164.763C28.8265 173.855 29.8981 185.169 25.4462 199.176L27.3523 199.782ZM22.8626 217.779C24.1406 211.749 25.3563 206.017 27.3516 199.784L25.4469 199.174C23.4164 205.517 22.1821 211.344 20.9061 217.364L22.8626 217.779ZM12.4114 252.873C18.5189 238.275 20.7669 227.666 22.8626 217.779L20.9061 217.364C18.8158 227.226 16.5985 237.684 10.5664 252.101L12.4114 252.873ZM6.01538 268.257C6.06327 267.702 6.2616 267.136 7.21984 264.942C8.15274 262.807 9.74174 259.254 12.4114 252.873L10.5664 252.101C7.90438 258.463 6.32362 261.998 5.38711 264.142C4.47594 266.227 4.1052 267.131 4.0228 268.084L6.01538 268.257ZM5.52209 278.791C5.96641 274.793 6.06526 272.441 6.06402 270.917C6.0634 270.155 6.03768 269.606 6.01987 269.183C6.00162 268.751 5.99465 268.497 6.01538 268.257L4.0228 268.084C3.98927 268.473 4.00416 268.853 4.02164 269.268C4.03955 269.692 4.06344 270.203 4.06402 270.918C4.06518 272.349 3.97285 274.624 3.53433 278.57L5.52209 278.791ZM0.905068 295.903C3.02795 291.385 4.72102 286 5.52209 278.791L3.53433 278.57C2.75705 285.565 1.12271 290.737 -0.905068 295.053L0.905068 295.903Z" fill="black"/>
<path d="M681.244 719.142C693.589 710.264 681.434 715.695 702.087 708.438C722.74 701.181 731.019 693.506 744.746 687.304C773.532 674.226 772.811 648.73 760.541 623.378C749.295 600.051 725.607 591.767 696.82 604.846C683.143 611.023 673.145 620.794 667.803 631.682C663.369 640.808 647.124 648.16 636.029 646.086C622.756 643.625 596.643 624.034 582.917 630.236C554.13 643.314 526.063 672.286 539.357 694.515C552.651 716.744 613.543 745.013 642.33 731.935C656.057 725.733 665.298 730.611 681.244 719.142Z" fill="black" stroke="black" stroke-width="2" stroke-miterlimit="10"/>
<path fill-rule="evenodd" clip-rule="evenodd" d="M365.977 46.0157C366.017 46.6619 366.37 47.289 366.521 51.39C366.776 58.3347 364.944 62.1947 363.116 66.0475C361.875 68.6611 360.637 71.2713 360.052 74.8391C357.054 93.3739 323.054 114.19 307.691 113.455C292.328 112.721 287.23 89.3159 290.227 70.781C291.159 65.0962 299.07 60.3887 306.074 56.2203C309.946 53.9162 313.541 51.7769 315.528 49.7282C320.202 44.9242 321.907 34.4737 318.852 29.2802C315.225 23.0592 313.68 14.9022 315.122 6.10775C315.412 4.31491 315.786 2.61137 316.237 0.998535H371.876C372.216 3.5541 372.162 6.38701 371.655 9.52021C371.107 12.865 370.921 15.8925 370.727 19.0484C370.408 24.221 370.069 29.7385 368.08 37.5634C366.334 44.4366 365.93 45.24 365.977 46.0157Z" fill="black"/>
<path d="M366.521 51.39L367.52 51.3533L367.52 51.3533L366.521 51.39ZM365.977 46.0157L364.979 46.0769L364.979 46.0769L365.977 46.0157ZM363.116 66.0475L362.212 65.6187L362.212 65.6187L363.116 66.0475ZM360.052 74.8391L359.065 74.6774L359.065 74.6794L360.052 74.8391ZM307.691 113.455L307.739 112.456L307.739 112.456L307.691 113.455ZM290.227 70.781L289.24 70.6193L289.24 70.6213L290.227 70.781ZM306.074 56.2203L306.586 57.0797L306.586 57.0797L306.074 56.2203ZM315.528 49.7282L314.811 49.0309L314.81 49.0321L315.528 49.7282ZM318.852 29.2802L317.988 29.7839L317.99 29.7872L318.852 29.2802ZM315.122 6.10775L316.109 6.26962L316.11 6.2674L315.122 6.10775ZM316.237 0.998535V-0.00146484H315.478L315.274 0.729104L316.237 0.998535ZM371.876 0.998535L372.867 0.866589L372.751 -0.00146484H371.876V0.998535ZM371.655 9.52021L372.642 9.68192L372.642 9.67986L371.655 9.52021ZM370.727 19.0484L371.725 19.1098L371.725 19.1098L370.727 19.0484ZM368.08 37.5634L367.111 37.3171L367.111 37.3171L368.08 37.5634ZM367.52 51.3533C367.444 49.2765 367.315 48.056 367.196 47.2596C367.137 46.8615 367.081 46.5756 367.04 46.363C366.997 46.1404 366.981 46.0419 366.976 45.9545L364.979 46.0769C364.994 46.3127 365.036 46.5349 365.076 46.7398C365.117 46.9546 365.166 47.2029 365.218 47.555C365.323 48.259 365.447 49.4024 365.521 51.4267L367.52 51.3533ZM364.019 66.4762C365.867 62.5813 367.784 58.5432 367.52 51.3533L365.521 51.4267C365.767 58.1263 364.021 61.8081 362.212 65.6187L364.019 66.4762ZM361.039 75.0008C361.598 71.5868 362.779 69.0902 364.019 66.4762L362.212 65.6187C360.972 68.2319 359.675 70.9559 359.065 74.6774L361.039 75.0008ZM307.644 114.454C311.691 114.648 316.851 113.427 322.301 111.268C327.772 109.1 333.622 105.95 339.076 102.197C344.528 98.4449 349.611 94.071 353.53 89.4417C357.439 84.8238 360.249 79.8826 361.039 74.9987L359.065 74.6794C358.356 79.063 355.792 83.6744 352.003 88.1494C348.224 92.6131 343.285 96.8725 337.942 100.549C332.6 104.225 326.883 107.301 321.564 109.408C316.224 111.524 311.373 112.63 307.739 112.456L307.644 114.454ZM289.24 70.6213C287.72 80.0183 288.245 90.673 291.128 99.1163C294.001 107.53 299.351 114.058 307.644 114.454L307.739 112.456C300.669 112.118 295.788 106.576 293.02 98.4701C290.263 90.3937 289.737 80.0786 291.214 70.9406L289.24 70.6213ZM305.563 55.361C302.076 57.436 298.28 59.6925 295.243 62.1553C292.235 64.5949 289.769 67.3942 289.24 70.6193L291.214 70.9427C291.617 68.483 293.572 66.0862 296.503 63.7087C299.406 61.3546 303.068 59.1731 306.586 57.0797L305.563 55.361ZM314.81 49.0321C312.939 50.962 309.487 53.0256 305.563 55.361L306.586 57.0797C310.405 54.8069 314.144 52.5918 316.246 50.4244L314.81 49.0321ZM317.99 29.7872C319.351 32.1004 319.711 35.7411 319.101 39.4896C318.493 43.223 316.961 46.8214 314.811 49.0309L316.245 50.4255C318.769 47.8309 320.426 43.8021 321.075 39.8109C321.723 35.8348 321.408 31.6536 319.714 28.7732L317.99 29.7872ZM314.136 5.94589C312.659 14.947 314.233 23.3431 317.988 29.7839L319.716 28.7765C316.217 22.7753 314.701 14.8573 316.109 6.26962L314.136 5.94589ZM315.274 0.729104C314.812 2.3801 314.431 4.12041 314.135 5.9481L316.11 6.2674C316.394 4.50941 316.759 2.84263 317.2 1.26797L315.274 0.729104ZM316.237 1.99854H371.876V-0.00146484H316.237V1.99854ZM372.642 9.67986C373.162 6.46419 373.222 3.53215 372.867 0.866589L370.885 1.13048C371.21 3.57604 371.161 6.30983 370.668 9.36056L372.642 9.67986ZM371.725 19.1098C371.919 15.9492 372.103 12.9699 372.642 9.68192L370.668 9.35851C370.111 12.7602 369.922 15.8359 369.729 18.987L371.725 19.1098ZM369.05 37.8097C371.062 29.8901 371.406 24.2956 371.725 19.1098L369.729 18.987C369.411 24.1464 369.076 29.5868 367.111 37.3171L369.05 37.8097ZM366.976 45.9545C366.964 45.7668 366.993 45.5513 367.321 44.3376C367.633 43.1849 368.174 41.2559 369.05 37.8097L367.111 37.3171C366.24 40.7441 365.705 42.6534 365.391 43.8147C365.093 44.9149 364.943 45.4889 364.979 46.0769L366.976 45.9545Z" fill="black"/>
<path d="M171.433 566.134C161.916 574.675 171.586 569.034 154.976 576.971C138.367 584.909 132.141 592.075 121.227 598.503C98.345 612.043 101.257 633.293 113.811 653.377C125.325 671.86 145.879 676.64 168.761 663.1C179.636 656.697 187.11 647.622 190.59 638.037C193.471 630.005 206.386 622.388 215.849 623.117C227.169 623.972 250.774 637.986 261.688 631.558C284.57 618.018 305.411 591.255 292.284 573.875C279.156 556.495 225.689 538.375 202.807 551.915C191.893 558.343 183.725 555.102 171.433 566.134Z" fill="black" stroke="black" stroke-width="2" stroke-miterlimit="10"/>
<path d="M646.125 473.237C634.835 473.101 644.492 475.213 628.953 470.445C613.414 465.678 605.085 466.614 594.15 464.269C571.186 459.394 560.378 474.945 556.534 495.5C552.971 514.395 563.473 529.786 586.437 534.661C597.331 536.999 607.613 535.568 615.603 531.418C622.275 527.92 635.222 530.688 640.936 536.817C647.783 544.138 654.748 567.354 665.683 569.699C688.647 574.574 718.187 569.636 720.043 550.495C721.898 531.353 697.978 487.622 675.014 482.747C664.079 480.402 660.707 473.414 646.125 473.237Z" fill="black" stroke="black" stroke-width="2" stroke-miterlimit="10"/>
<path d="M561.764 253.429C549.987 252.368 559.898 255.359 544.061 249.117C528.225 242.875 519.452 243.175 508.225 239.837C484.644 232.879 472.094 248.237 466.409 269.387C461.151 288.826 470.865 305.75 494.446 312.708C505.631 316.036 521.515 320.785 530.196 317.101C537.447 313.992 544.844 318.377 550.312 325.242C556.865 333.443 563.113 352.4 574.34 355.739C597.921 362.697 629.166 359.943 632.66 340.108C643.063 314.633 614.736 272.666 591.155 265.708C579.928 262.37 576.976 254.799 561.764 253.429Z" fill="black" stroke="black" stroke-width="2" stroke-miterlimit="10"/>
<path d="M797.02 943.779C790.937 937.995 797.175 941.879 786.426 936.357C775.678 930.835 771.728 926.015 764.687 921.591C749.928 912.274 752.24 898.385 760.857 885.444C768.761 873.533 782.338 870.784 797.097 880.101C804.113 884.508 814.088 890.755 816.19 897.11C817.929 902.435 823.733 904.326 829.956 904.025C837.4 903.678 850.438 898.129 857.479 902.553C872.238 911.87 885.408 929.824 876.466 940.981C867.753 958.465 832.098 963.018 817.339 953.701C810.299 949.277 804.878 951.25 797.02 943.779Z" fill="black" stroke="black" stroke-width="2" stroke-miterlimit="10"/>
<path fill-rule="evenodd" clip-rule="evenodd" d="M998.556 578.566V650.658C996.822 651.837 995.071 652.796 993.33 653.497C989.834 654.914 987.463 656.776 985.089 658.641C981.589 661.389 978.083 664.143 970.956 665.483C966.748 666.274 966.029 666.06 965.362 666.168C964.562 666.299 963.837 666.895 957.244 670.256C949.739 674.082 944.202 675.699 939.012 677.215C935.845 678.139 932.806 679.026 929.529 680.355C911.356 687.676 900.229 676.453 894.103 660.111C888.448 645.095 894.859 630.929 913.031 623.608L913.128 623.568C921.741 620.076 933.912 615.141 941.052 617.391C947.041 619.304 952.573 615.26 956.386 609.397C957.826 607.189 959.162 604.135 960.585 600.879C963.679 593.804 967.19 585.773 973.113 583.372C981.057 580.172 990.305 578.332 998.556 578.566Z" fill="black"/>
<path d="M998.556 578.566H999.556V577.594L998.584 577.566L998.556 578.566ZM998.556 650.658L999.118 651.485L999.556 651.187V650.658H998.556ZM993.33 653.497L992.957 652.57L992.955 652.571L993.33 653.497ZM985.089 658.641L984.471 657.854L984.471 657.854L985.089 658.641ZM970.956 665.483L971.141 666.466L971.141 666.466L970.956 665.483ZM965.362 666.168L965.523 667.155L965.523 667.155L965.362 666.168ZM957.244 670.256L957.699 671.147L957.699 671.147L957.244 670.256ZM939.012 677.215L939.292 678.174L939.292 678.174L939.012 677.215ZM929.529 680.355L929.902 681.282L929.904 681.282L929.529 680.355ZM894.103 660.111L895.04 659.76L895.039 659.759L894.103 660.111ZM913.031 623.608L913.405 624.535L913.407 624.534L913.031 623.608ZM913.128 623.568L912.753 622.642L912.753 622.642L913.128 623.568ZM941.052 617.391L941.356 616.439L941.352 616.437L941.052 617.391ZM956.386 609.397L955.548 608.851L955.547 608.852L956.386 609.397ZM960.585 600.879L961.502 601.279L961.502 601.279L960.585 600.879ZM973.113 583.372L972.74 582.444L972.738 582.445L973.113 583.372ZM997.556 578.566V650.658H999.556V578.566H997.556ZM997.994 649.831C996.309 650.976 994.621 651.899 992.957 652.57L993.704 654.425C995.521 653.693 997.335 652.697 999.118 651.485L997.994 649.831ZM992.955 652.571C989.314 654.046 986.845 655.99 984.471 657.854L985.706 659.427C988.081 657.563 990.354 655.783 993.706 654.424L992.955 652.571ZM984.471 657.854C981.008 660.574 977.657 663.205 970.772 664.5L971.141 666.466C978.509 665.08 982.17 662.204 985.706 659.427L984.471 657.854ZM970.772 664.5C968.693 664.891 967.499 665.029 966.757 665.084C966.385 665.112 966.121 665.12 965.893 665.127C965.675 665.134 965.441 665.142 965.201 665.181L965.523 667.155C965.616 667.14 965.723 667.134 965.959 667.126C966.184 667.119 966.488 667.11 966.905 667.079C967.741 667.017 969.011 666.866 971.141 666.466L970.772 664.5ZM965.201 665.181C964.603 665.279 964.06 665.559 963.007 666.117C961.898 666.704 960.078 667.689 956.79 669.365L957.699 671.147C961.004 669.462 962.842 668.467 963.943 667.884C965.101 667.271 965.32 667.188 965.523 667.155L965.201 665.181ZM956.79 669.365C949.372 673.147 943.909 674.743 938.731 676.255L939.292 678.174C944.495 676.655 950.106 675.017 957.699 671.147L956.79 669.365ZM938.731 676.255C935.569 677.178 932.484 678.078 929.153 679.428L929.904 681.282C933.129 679.975 936.12 679.1 939.292 678.174L938.731 676.255ZM929.155 679.427C920.333 682.981 913.365 682 907.858 678.278C902.286 674.511 898.069 667.843 895.04 659.76L893.167 660.462C896.263 668.721 900.673 675.835 906.738 679.935C912.87 684.079 920.552 685.049 929.902 681.282L929.155 679.427ZM895.039 659.759C892.296 652.474 892.5 645.472 895.526 639.421C898.558 633.358 904.484 628.129 913.405 624.535L912.658 622.68C903.406 626.407 897.04 631.922 893.737 638.526C890.429 645.143 890.256 652.732 893.167 660.464L895.039 659.759ZM913.407 624.534L913.504 624.495L912.753 622.642L912.656 622.681L913.407 624.534ZM913.504 624.495C917.82 622.745 922.962 620.661 927.909 619.29C932.901 617.907 937.48 617.314 940.751 618.345L941.352 616.437C937.483 615.218 932.407 615.968 927.375 617.363C922.298 618.77 917.049 620.9 912.753 622.642L913.504 624.495ZM940.748 618.344C947.419 620.474 953.35 615.901 957.224 609.942L955.547 608.852C951.797 614.62 946.663 618.133 941.356 616.439L940.748 618.344ZM957.223 609.944C958.719 607.65 960.09 604.509 961.502 601.279L959.669 600.478C958.233 603.762 956.933 606.728 955.548 608.851L957.223 609.944ZM961.502 601.279C963.055 597.727 964.677 594.022 966.635 590.905C968.599 587.778 970.817 585.382 973.489 584.299L972.738 582.445C969.487 583.763 966.987 586.583 964.941 589.841C962.889 593.108 961.209 596.956 959.669 600.478L961.502 601.279ZM973.487 584.3C981.319 581.144 990.43 579.336 998.527 579.565L998.584 577.566C990.179 577.328 980.796 579.199 972.74 582.444L973.487 584.3Z" fill="black"/>
<path d="M684.451 868.351C685.999 856.98 682.662 866.457 689.412 851.378C696.163 836.299 696.259 827.78 699.99 817.042C707.777 794.486 693.44 781.641 673.185 775.196C654.57 769.241 637.733 777.912 629.946 800.468C626.227 811.166 620.921 826.357 624.11 834.936C626.805 842.103 622.227 849.082 615.33 854.08C607.09 860.072 588.434 865.293 584.702 876.031C576.916 898.587 578.207 929.002 597.284 933.265C621.525 944.474 663.463 918.861 671.249 896.305C674.981 885.567 682.451 883.039 684.451 868.351Z" fill="black" stroke="black" stroke-width="2" stroke-miterlimit="10"/>
<path d="M510.729 93.5397C520.421 89.5271 512.82 94.6805 524.579 85.2074C536.338 75.7343 543.846 73.6687 552.469 67.8733C570.596 55.746 585.284 65.4321 595.69 81.8371C605.282 96.9063 601.533 113.805 583.406 125.933C574.815 131.708 562.621 139.93 554.297 139.106C547.334 138.391 542.231 144.06 539.416 151.318C536.036 159.995 535.759 177.699 527.135 183.495C509.008 195.622 481.824 201.553 473.62 185.682C458.075 166.862 470.963 123.836 489.09 111.709C497.714 105.914 498.212 98.7227 510.729 93.5397Z" fill="black" stroke="black" stroke-width="2" stroke-miterlimit="10"/>
<path fill-rule="evenodd" clip-rule="evenodd" d="M998.555 473.002V525.61C987.167 534.295 974.396 536.487 962.491 524.096C959.937 521.427 957.422 519.28 954.801 517.043C950.505 513.376 945.922 509.464 940.41 502.605C935.569 496.579 935.134 495.701 934.427 495.234C933.838 494.845 933.061 494.741 929.391 492.185C923.175 487.856 921.014 483.731 918.856 479.614C917.393 476.821 915.932 474.031 913.207 471.184C899.029 456.427 895.861 414.402 913.89 400.275C924.598 387.377 948.323 398.274 962.501 413.032C967.116 417.856 967.022 427.012 966.939 435.076C966.901 438.789 966.865 442.27 967.292 444.991C968.414 452.21 971.953 458.431 978.478 459.174C984.841 459.923 992.356 466.714 998.555 473.002Z" fill="black"/>
<path d="M998.555 473.002H999.555V472.592L999.267 472.3L998.555 473.002ZM998.555 525.61L999.161 526.406L999.555 526.105V525.61H998.555ZM962.491 524.096L961.768 524.787L961.77 524.789L962.491 524.096ZM954.801 517.043L954.152 517.804L954.152 517.804L954.801 517.043ZM940.41 502.605L939.631 503.231L939.631 503.231L940.41 502.605ZM934.427 495.234L934.978 494.4L934.978 494.4L934.427 495.234ZM929.391 492.185L928.819 493.006L928.819 493.006L929.391 492.185ZM918.856 479.614L917.971 480.078L917.971 480.078L918.856 479.614ZM913.207 471.184L913.93 470.493L913.929 470.491L913.207 471.184ZM913.89 400.275L914.507 401.062L914.591 400.996L914.659 400.914L913.89 400.275ZM962.501 413.032L963.224 412.34L963.222 412.339L962.501 413.032ZM966.939 435.076L967.939 435.087L967.939 435.087L966.939 435.076ZM967.292 444.991L968.281 444.837L968.28 444.836L967.292 444.991ZM978.478 459.174L978.595 458.181L978.591 458.18L978.478 459.174ZM997.555 473.002V525.61H999.555V473.002H997.555ZM961.77 524.789C967.877 531.146 974.3 533.846 980.731 533.757C987.125 533.668 993.369 530.823 999.161 526.406L997.948 524.815C992.353 529.083 986.518 531.676 980.703 531.757C974.924 531.837 969.009 529.437 963.212 523.403L961.77 524.789ZM954.152 517.804C956.777 520.044 959.254 522.16 961.768 524.787L963.213 523.405C960.62 520.694 958.068 518.517 955.45 516.282L954.152 517.804ZM939.631 503.231C945.204 510.167 949.846 514.128 954.152 517.804L955.45 516.282C951.164 512.624 946.64 508.762 941.19 501.978L939.631 503.231ZM933.876 496.068C934.062 496.191 934.241 496.371 935.079 497.449C935.878 498.476 937.204 500.21 939.631 503.231L941.19 501.978C938.775 498.973 937.462 497.255 936.657 496.221C935.891 495.236 935.499 494.744 934.978 494.4L933.876 496.068ZM928.819 493.006C930.676 494.299 931.82 494.985 932.588 495.401C932.972 495.609 933.256 495.747 933.468 495.851C933.689 495.959 933.791 496.012 933.876 496.068L934.978 494.4C934.769 494.261 934.553 494.155 934.348 494.055C934.134 493.95 933.884 493.829 933.541 493.643C932.855 493.271 931.776 492.628 929.962 491.364L928.819 493.006ZM917.971 480.078C920.15 484.237 922.402 488.536 928.819 493.006L929.962 491.364C923.948 487.176 921.878 483.226 919.742 479.15L917.971 480.078ZM912.485 471.875C915.101 474.61 916.507 477.284 917.971 480.078L919.742 479.15C918.279 476.357 916.762 473.453 913.93 470.493L912.485 471.875ZM913.273 399.488C903.882 406.846 900.158 421.293 900.471 435.515C900.785 449.753 905.151 464.242 912.486 471.877L913.929 470.491C907.086 463.369 902.779 449.467 902.471 435.471C902.162 421.459 905.869 407.831 914.507 401.062L913.273 399.488ZM963.222 412.339C956.042 404.866 946.431 398.349 937.205 395.332C928.009 392.325 918.865 392.716 913.121 399.636L914.659 400.914C919.623 394.935 927.696 394.327 936.583 397.233C945.441 400.129 954.782 406.44 961.78 413.725L963.222 412.339ZM967.939 435.087C967.98 431.071 968.027 426.688 967.472 422.701C966.919 418.724 965.747 414.978 963.224 412.34L961.778 413.723C963.87 415.909 964.959 419.153 965.491 422.977C966.022 426.789 965.981 431.017 965.939 435.066L967.939 435.087ZM968.28 444.836C967.869 442.215 967.901 438.828 967.939 435.087L965.939 435.066C965.901 438.749 965.862 442.325 966.304 445.146L968.28 444.836ZM978.591 458.18C972.777 457.518 969.384 451.944 968.281 444.837L966.304 445.144C967.443 452.475 971.128 459.344 978.365 460.167L978.591 458.18ZM999.267 472.3C996.158 469.147 992.687 465.834 989.177 463.21C985.689 460.604 982.045 458.587 978.595 458.181L978.361 460.167C981.274 460.51 984.569 462.263 987.98 464.812C991.367 467.343 994.753 470.57 997.843 473.704L999.267 472.3Z" fill="black"/>
<path d="M291.998 354.964C286.084 365.47 278.906 369.739 267.945 371.268C254.839 373.194 245.166 385.376 234.337 395.419C211.65 416.55 220.267 440.028 239.575 459.773C257.3 477.955 281.904 478.274 304.591 457.144C315.382 447.139 321.632 434.938 323.205 423.151C324.483 413.285 337.295 401.387 348.255 399.858C361.362 398.008 390.589 397.482 401.418 387.439C424.105 366.309 429.377 346.997 414.4 323.531C395.112 307.008 338.329 300.878 315.643 322.008C304.814 332.052 293.532 343.216 291.998 354.964Z" fill="black" stroke="black" stroke-width="2" stroke-miterlimit="10"/>
<path d="M89.2577 702.288C90.7707 709.245 94.078 712.904 99.9928 715.677C107.048 719.047 110.391 727.605 114.755 735.158C123.884 751.031 114.957 762.774 100.649 770.547C87.5049 777.715 73.5779 773.607 64.4492 757.734C60.0994 750.209 58.6901 742.238 59.846 735.315C60.8351 729.526 55.674 720.581 49.7593 717.809C42.6902 714.481 26.3034 709.091 21.9388 701.538C12.8101 685.665 13.1841 673.852 25.6954 663.225C39.4329 657.266 72.5094 663.703 81.6381 679.577C86.0027 687.13 90.4284 695.393 89.2577 702.288Z" fill="black" stroke="black" stroke-width="2" stroke-miterlimit="10"/>
<path d="M318.067 844.184C308.779 847.418 302.084 846.154 294.555 841.172C285.499 835.275 273.007 837.503 260.962 837.801C235.681 838.477 228.276 857.488 229.426 879.987C230.451 900.676 245.327 914.153 270.609 913.477C282.61 913.183 293.019 909.095 300.344 902.735C306.452 897.39 320.711 897.03 328.24 902.012C337.254 907.956 355.413 923.412 367.458 923.115C392.74 922.438 406.39 913.474 409.897 891.036C407.021 870.519 375.601 836.117 350.319 836.793C338.274 837.09 325.348 837.828 318.067 844.184Z" fill="black" stroke="black" stroke-width="2" stroke-miterlimit="10"/>
<path d="M356.219 720.905C349.998 725.066 347.698 729.712 347.275 736.57C346.707 744.774 339.629 751.341 333.928 758.523C321.932 773.572 306.989 769.358 293.847 758.349C281.748 748.245 280.378 733.031 292.375 717.982C298.053 710.826 305.307 706.376 312.527 704.841C318.573 703.579 325.326 695.082 325.75 688.225C326.27 680.024 325.202 661.91 330.902 654.728C342.899 639.679 354.6 635.495 369.838 643.647C380.985 654.797 387.486 689.65 375.489 704.699C369.789 711.88 363.417 719.395 356.219 720.905Z" fill="black" stroke="black" stroke-width="2" stroke-miterlimit="10"/>
<path d="M779.52 303.352C781.2 295.148 785.041 290.801 791.966 287.462C800.225 283.406 804.037 273.295 809.066 264.353C819.585 245.561 808.901 231.862 791.939 222.903C776.356 214.64 760.015 219.653 749.497 238.445C744.484 247.353 742.941 256.75 744.403 264.879C745.652 271.676 739.705 282.265 732.78 285.604C724.504 289.61 705.285 296.163 700.256 305.105C689.737 323.897 690.35 337.788 705.238 350.128C721.502 356.961 760.359 348.96 770.878 330.168C775.908 321.227 780.999 311.448 779.52 303.352Z" fill="black" stroke="black" stroke-width="2" stroke-miterlimit="10"/>
<path fill-rule="evenodd" clip-rule="evenodd" d="M175.844 64.1053C182.191 70.8012 184.649 77.3154 183.039 87.2362C177.93 95.6894 179.475 108.83 181.309 121.006C185.104 146.572 225.292 172.105 246.451 171.368C268.413 163.866 275.02 148.54 271.225 122.975C269.764 113.272 257.548 101.434 248.811 92.9658C246.583 90.8068 244.581 88.8669 243.042 87.2373C236.694 80.5414 234.533 66.1265 238.831 59.0325C243.935 50.5343 246.207 39.3343 244.379 27.2035C242.691 15.8378 238.553 7.0372 232.63 0.998535L177.059 0.998535C168.854 7.26196 164.42 16.8535 166.504 30.8913C166.859 33.2501 167.144 35.6387 167.428 38.0157C168.609 47.9077 169.766 57.5982 175.844 64.1053Z" fill="black"/>
<path d="M183.039 87.2362L183.894 87.7535L183.995 87.5877L184.026 87.3965L183.039 87.2362ZM175.844 64.1053L175.113 64.7879L175.118 64.7933L175.844 64.1053ZM181.309 121.006L182.298 120.859L182.298 120.857L181.309 121.006ZM246.451 171.368L246.486 172.367L246.634 172.362L246.775 172.314L246.451 171.368ZM271.225 122.975L272.214 122.828L272.213 122.826L271.225 122.975ZM248.811 92.9658L248.115 93.6839L248.115 93.6839L248.811 92.9658ZM243.042 87.2373L243.769 86.5505L243.767 86.5494L243.042 87.2373ZM238.831 59.0325L239.686 59.5506L239.688 59.5473L238.831 59.0325ZM244.379 27.2035L243.389 27.3504L243.39 27.3526L244.379 27.2035ZM232.63 0.998535L233.344 0.298331L233.05 -0.00146484L232.63 -0.00146484V0.998535ZM177.059 0.998535L177.059 -0.00146484L176.721 -0.00146484L176.452 0.203662L177.059 0.998535ZM166.504 30.8913L165.515 31.0381L165.515 31.0402L166.504 30.8913ZM167.428 38.0157L168.421 37.8971L168.421 37.8971L167.428 38.0157ZM184.026 87.3965C184.85 82.319 184.643 78.0435 183.376 74.1518C182.11 70.2633 179.81 66.8361 176.57 63.4173L175.118 64.7933C178.225 68.0705 180.327 71.2483 181.474 74.771C182.62 78.2906 182.838 82.2326 182.051 87.076L184.026 87.3965ZM182.298 120.857C181.381 114.769 180.548 108.508 180.57 102.729C180.593 96.9406 181.476 91.7546 183.894 87.7535L182.183 86.719C179.492 91.1711 178.594 96.782 178.57 102.721C178.547 108.67 179.403 115.067 180.32 121.155L182.298 120.857ZM246.416 170.368C241.316 170.546 234.981 169.137 228.247 166.475C221.527 163.818 214.474 159.938 207.953 155.239C194.856 145.802 184.135 133.236 182.298 120.859L180.32 121.153C182.277 134.342 193.548 147.324 206.784 156.862C213.429 161.65 220.627 165.613 227.512 168.335C234.384 171.051 241.007 172.558 246.486 172.367L246.416 170.368ZM270.235 123.121C272.12 135.814 271.393 145.8 267.6 153.503C263.825 161.169 256.933 166.731 246.128 170.421L246.775 172.314C257.932 168.503 265.324 162.651 269.394 154.387C273.445 146.16 274.125 135.701 272.214 122.828L270.235 123.121ZM248.115 93.6839C252.491 97.9248 257.688 102.964 261.976 108.145C266.29 113.359 269.549 118.562 270.236 123.123L272.213 122.826C271.439 117.685 267.86 112.118 263.517 106.87C259.147 101.589 253.868 96.4749 249.507 92.2477L248.115 93.6839ZM242.315 87.9241C243.873 89.5732 245.893 91.5302 248.115 93.6839L249.507 92.2477C247.273 90.0833 245.29 88.1605 243.769 86.5505L242.315 87.9241ZM237.976 58.5143C235.656 62.3428 235.142 67.9905 235.956 73.432C236.771 78.8886 238.957 84.3823 242.316 87.9253L243.767 86.5494C240.779 83.3963 238.711 78.3347 237.934 73.1363C237.154 67.9229 237.708 62.8162 239.686 59.5506L237.976 58.5143ZM243.39 27.3526C245.187 39.2762 242.947 50.2376 237.974 58.5176L239.688 59.5473C244.924 50.8311 247.227 39.3924 245.367 27.0545L243.39 27.3526ZM231.916 1.69874C237.658 7.55306 241.725 16.1416 243.389 27.3504L245.368 27.0567C243.657 15.5339 239.448 6.52134 233.344 0.298331L231.916 1.69874ZM177.059 1.99854L232.63 1.99854L232.63 -0.00146484L177.059 -0.00146484L177.059 1.99854ZM167.493 30.7444C165.457 17.031 169.778 7.81485 177.666 1.79341L176.452 0.203662C167.93 6.70907 163.383 16.6759 165.515 31.0381L167.493 30.7444ZM168.421 37.8971C168.137 35.5228 167.85 33.1189 167.493 30.7424L165.515 31.0402C165.867 33.3813 166.151 35.7547 166.435 38.1342L168.421 37.8971ZM176.575 63.4227C173.687 60.3308 171.937 56.4516 170.765 52.0714C169.591 47.6805 169.013 42.8586 168.421 37.8971L166.435 38.1342C167.024 43.0648 167.615 48.0342 168.833 52.5883C170.055 57.1531 171.923 61.3727 175.113 64.7879L176.575 63.4227Z" fill="black"/>
<path d="M408.529 202.79C404.757 210.609 405.191 216.608 408.801 223.713C413.059 232.25 409.845 242.981 408.37 253.514C405.227 275.619 387.808 280.195 368.192 276.918C350.151 273.933 339.832 259.527 342.974 237.423C344.442 226.928 349.077 218.212 355.393 212.429C360.696 207.611 362.451 195.143 358.841 188.037C354.536 179.532 342.813 162.048 344.288 151.514C347.43 129.41 356.669 118.343 376.7 117.53C394.404 122.122 421.407 153.146 418.264 175.25C416.789 185.783 414.838 197.046 408.529 202.79Z" fill="black" stroke="black" stroke-width="2" stroke-miterlimit="10"/>
<path fill-rule="evenodd" clip-rule="evenodd" d="M896.591 50.3649C888.845 47.4828 884.299 43.2129 881.681 34.5984C882.456 25.7844 876.03 15.8248 869.753 6.75499C868.312 4.66344 866.518 2.74495 864.446 0.998535L790.397 0.998535C783.603 12.9028 786.2 25.4602 796.657 40.637C801.658 47.8642 816.153 52.568 826.52 55.9325C829.164 56.7903 831.539 57.5611 833.42 58.2645C841.166 61.1465 848.59 71.8881 847.931 79.2889C847.178 88.1373 849.768 98.0416 856.024 107.077C869.16 126.143 887.152 129.877 903.009 119.477C920.272 108.192 930.34 92.4607 917.204 73.395C915.988 71.6379 914.817 69.8292 913.651 68.0294C908.799 60.539 904.046 53.2012 896.591 50.3649Z" fill="black"/>
<path d="M881.681 34.5984L880.685 34.5108L880.668 34.7038L880.724 34.8892L881.681 34.5984ZM896.591 50.3649L896.947 49.4302L896.94 49.4277L896.591 50.3649ZM869.753 6.75499L868.929 7.32235L868.93 7.32407L869.753 6.75499ZM864.446 0.998535L865.09 0.233791L864.811 -0.00146484L864.446 -0.00146484V0.998535ZM790.397 0.998535V-0.00146484L789.816 -0.00146484L789.528 0.5029L790.397 0.998535ZM796.657 40.637L795.833 41.2044L795.834 41.2061L796.657 40.637ZM826.52 55.9325L826.212 56.8837L826.212 56.8837L826.52 55.9325ZM833.42 58.2645L833.07 59.2011L833.071 59.2017L833.42 58.2645ZM847.931 79.2889L846.935 79.2003L846.935 79.2041L847.931 79.2889ZM856.024 107.077L856.847 106.51L856.846 106.508L856.024 107.077ZM903.009 119.477L902.462 118.64L902.461 118.641L903.009 119.477ZM917.204 73.395L918.028 72.8276L918.026 72.8259L917.204 73.395ZM913.651 68.0294L914.49 67.4857L914.49 67.4857L913.651 68.0294ZM880.724 34.8892C882.068 39.3098 883.927 42.6831 886.496 45.328C889.062 47.9705 892.278 49.8271 896.242 51.3021L896.94 49.4277C893.158 48.0206 890.228 46.3012 887.93 43.9347C885.635 41.5705 883.912 38.5015 882.638 34.3076L880.724 34.8892ZM868.93 7.32407C872.069 11.8592 875.204 16.5604 877.462 21.2094C879.723 25.867 881.049 30.3663 880.685 34.5108L882.677 34.686C883.088 30.0165 881.588 25.129 879.261 20.3359C876.929 15.5341 873.713 10.7207 870.575 6.18591L868.93 7.32407ZM863.801 1.76328C865.816 3.46076 867.546 5.31449 868.929 7.32235L870.576 6.18762C869.077 4.01238 867.221 2.02914 865.09 0.233791L863.801 1.76328ZM790.397 1.99854L864.446 1.99854V-0.00146484L790.397 -0.00146484V1.99854ZM797.48 40.0697C792.296 32.5452 789.117 25.7496 788.044 19.4233C786.976 13.1275 787.983 7.24619 791.265 1.49417L789.528 0.5029C786.017 6.65517 784.926 13.0048 786.072 19.7579C787.213 26.4806 790.561 33.5521 795.833 41.2044L797.48 40.0697ZM826.829 54.9814C821.636 53.296 815.473 51.2951 809.987 48.8216C804.463 46.3309 799.813 43.4404 797.479 40.068L795.834 41.2061C798.502 45.0609 803.6 48.1359 809.165 50.6449C814.769 53.1712 821.037 55.2044 826.212 56.8837L826.829 54.9814ZM833.77 57.3278C831.864 56.615 829.465 55.8368 826.829 54.9814L826.212 56.8837C828.862 57.7439 831.214 58.5072 833.07 59.2011L833.77 57.3278ZM848.927 79.3776C849.286 75.3494 847.458 70.5796 844.65 66.5139C841.834 62.4358 837.893 58.862 833.769 57.3272L833.071 59.2017C836.692 60.5491 840.337 63.787 843.004 67.6504C845.681 71.5262 847.235 75.8276 846.935 79.2003L848.927 79.3776ZM856.846 106.508C850.71 97.6446 848.196 87.9685 848.928 79.3738L846.935 79.2041C846.16 88.306 848.827 98.4385 855.201 107.646L856.846 106.508ZM902.461 118.641C894.732 123.71 886.553 125.297 878.737 123.356C870.909 121.412 863.314 115.896 856.847 106.51L855.2 107.644C861.87 117.324 869.839 123.208 878.255 125.297C886.684 127.39 895.43 125.644 903.558 120.313L902.461 118.641ZM916.381 73.9624C922.787 83.2606 923.47 91.6129 920.575 98.9883C917.651 106.438 911.015 113.049 902.462 118.64L903.556 120.314C912.266 114.62 919.295 107.723 922.437 99.7191C925.608 91.6412 924.757 82.5951 918.028 72.8276L916.381 73.9624ZM912.811 68.573C913.976 70.3706 915.156 72.1922 916.382 73.9641L918.026 72.8259C916.82 71.0835 915.657 69.2878 914.49 67.4857L912.811 68.573ZM896.236 51.2995C899.756 52.6391 902.68 55.056 905.344 58.1093C908.015 61.1709 910.377 64.8147 912.811 68.573L914.49 67.4857C912.073 63.7536 909.633 59.9834 906.851 56.7945C904.061 53.5972 900.881 50.9271 896.947 49.4303L896.236 51.2995Z" fill="black"/>
<path fill-rule="evenodd" clip-rule="evenodd" d="M998.555 732.244V929.07C990.553 931.153 981.244 931.026 971.516 929.401C948.268 925.554 934.971 906.991 939.02 878.507C940.912 864.982 946.884 853.75 955.023 846.299C961.857 840.09 964.118 824.023 959.466 814.867C958.339 812.64 956.817 809.936 955.124 806.926C948.483 795.122 939.198 778.618 940.713 767.802C944.762 739.318 956.667 725.057 982.48 724.009C987.445 725.297 992.978 728.198 998.555 732.244Z" fill="black"/>
<path d="M998.555 732.244H999.555V731.734L999.142 731.434L998.555 732.244ZM998.555 929.07L998.807 930.037L999.555 929.843V929.07H998.555ZM971.516 929.401L971.681 928.415L971.68 928.414L971.516 929.401ZM939.02 878.507L940.01 878.647L940.01 878.645L939.02 878.507ZM955.023 846.299L954.351 845.559L954.348 845.561L955.023 846.299ZM959.466 814.867L958.573 815.318L958.574 815.32L959.466 814.867ZM955.124 806.926L955.996 806.436L955.996 806.436L955.124 806.926ZM940.713 767.802L939.723 767.662L939.722 767.664L940.713 767.802ZM982.48 724.009L982.731 723.041L982.588 723.004L982.439 723.01L982.48 724.009ZM997.555 732.244V929.07H999.555V732.244H997.555ZM998.303 928.102C990.483 930.137 981.327 930.026 971.681 928.415L971.351 930.387C981.161 932.026 990.622 932.168 998.807 930.037L998.303 928.102ZM971.68 928.414C960.291 926.53 951.417 921.061 945.866 912.642C940.309 904.213 938.01 892.713 940.01 878.647L938.03 878.366C935.98 892.785 938.306 904.808 944.197 913.743C950.095 922.689 959.493 928.425 971.353 930.388L971.68 928.414ZM940.01 878.645C941.873 865.328 947.747 854.316 955.699 847.036L954.348 845.561C946.021 853.185 939.95 864.636 938.03 878.368L940.01 878.645ZM955.696 847.039C959.356 843.713 961.688 837.879 962.542 831.828C963.398 825.761 962.805 819.232 960.357 814.414L958.574 815.32C960.778 819.658 961.381 825.74 960.561 831.548C959.74 837.372 957.524 842.676 954.351 845.559L955.696 847.039ZM960.358 814.415C959.219 812.165 957.685 809.439 955.996 806.436L954.253 807.416C955.95 810.433 957.459 813.116 958.573 815.318L960.358 814.415ZM955.996 806.436C952.67 800.525 948.717 793.496 945.78 786.602C942.827 779.669 940.986 773.059 941.703 767.941L939.722 767.664C938.924 773.362 940.969 780.412 943.94 787.385C946.927 794.398 950.937 801.523 954.253 807.416L955.996 806.436ZM941.703 767.943C943.715 753.791 947.659 743.338 954.169 736.296C960.652 729.284 969.8 725.525 982.521 725.008L982.439 723.01C969.347 723.542 959.636 727.436 952.701 734.938C945.793 742.41 941.76 753.329 939.723 767.662L941.703 767.943ZM982.229 724.977C987.031 726.223 992.45 729.051 997.968 733.053L999.142 731.434C993.506 727.346 987.859 724.371 982.731 723.041L982.229 724.977Z" fill="black"/>
<path fill-rule="evenodd" clip-rule="evenodd" d="M998.554 5.2959V90.05C988.135 91.4516 977.348 91.9238 970.718 88.5182C945.154 75.3193 935.606 59.384 943.112 34.6644C951.693 21.8251 975.776 8.94075 998.554 5.2959Z" fill="black"/>
<path d="M998.554 5.2959H999.554V4.12316L998.396 4.30846L998.554 5.2959ZM998.554 90.05L998.688 91.041L999.554 90.9244V90.05H998.554ZM970.718 88.5182L970.26 89.4067L970.261 89.4077L970.718 88.5182ZM943.112 34.6644L942.281 34.1087L942.198 34.232L942.155 34.3738L943.112 34.6644ZM997.554 5.2959V90.05H999.554V5.2959H997.554ZM998.421 89.0589C993.235 89.7565 987.994 90.2175 983.243 90.0872C978.476 89.9564 974.296 89.2317 971.175 87.6287L970.261 89.4077C973.771 91.2102 978.299 91.9523 983.188 92.0864C988.092 92.221 993.454 91.7451 998.688 91.041L998.421 89.0589ZM971.177 87.6296C958.476 81.072 949.904 73.9074 945.396 65.4416C940.909 57.0127 940.37 47.1362 944.069 34.9549L942.155 34.3738C938.348 46.9121 938.83 57.3632 943.631 66.3815C948.413 75.363 957.397 82.7655 970.26 89.4067L971.177 87.6296ZM943.943 35.22C948.103 28.9965 956.105 22.6611 965.979 17.4153C975.831 12.1807 987.442 8.08685 998.712 6.28334L998.396 4.30846C986.889 6.1498 975.069 10.3205 965.04 15.6491C955.032 20.9666 946.702 27.493 942.281 34.1087L943.943 35.22Z" fill="black"/>
<path fill-rule="evenodd" clip-rule="evenodd" d="M0 90.0506V5.29654C11.9847 3.37876 23.608 4.01888 32.4216 8.56932C44.6134 14.8319 57.4902 21.9819 61.804 32.0951C69.7192 40.0021 77.2025 42.0184 87.3797 40.6392C97.2112 39.3804 106.718 44.6376 116.423 50.0042C118.755 51.2938 121.098 52.5896 123.46 53.8029C149.024 67.0017 147.205 90.1393 134.898 112.618C123.613 133.305 101.708 139.752 76.1434 126.553C63.9953 120.316 55.3547 110.979 50.9972 100.841C47.3835 92.3447 32.9557 84.9219 22.7785 86.3011C20.305 86.6322 17.2507 87.1788 13.8514 87.7872C9.61747 88.5449 4.84844 89.3984 0 90.0506Z" fill="black"/>
<path d="M0 90.0506H-1V91.1941L0.133321 91.0417L0 90.0506ZM0 5.29654L-0.158008 4.3091L-1 4.44383V5.29654H0ZM32.4216 8.56932L31.9628 9.45788L31.9646 9.45883L32.4216 8.56932ZM61.804 32.0951L60.8842 32.4874L60.9602 32.6656L61.0973 32.8026L61.804 32.0951ZM87.3797 40.6392L87.2527 39.6473L87.2454 39.6483L87.3797 40.6392ZM116.423 50.0042L116.907 49.1291L116.907 49.1291L116.423 50.0042ZM123.46 53.8029L123.919 52.9143L123.917 52.9134L123.46 53.8029ZM134.898 112.618L134.021 112.138L134.02 112.14L134.898 112.618ZM76.1434 126.553L76.6022 125.665L76.6002 125.664L76.1434 126.553ZM50.9972 100.841L50.0769 101.232L50.0784 101.236L50.9972 100.841ZM22.7785 86.3011L22.9112 87.2922L22.9128 87.292L22.7785 86.3011ZM13.8514 87.7872L13.6752 86.8028L13.6752 86.8028L13.8514 87.7872ZM1 90.0506V5.29654H-1V90.0506H1ZM0.158008 6.28397C12.0397 4.38268 23.4173 5.04583 31.9628 9.45788L32.8803 7.68076C23.7988 2.99193 11.9298 2.37484 -0.158008 4.3091L0.158008 6.28397ZM31.9646 9.45883C38.0608 12.5902 44.2659 15.9129 49.4796 19.6975C54.701 23.4877 58.8307 27.6732 60.8842 32.4874L62.7238 31.7027C60.4635 26.4038 55.9979 21.9577 50.6545 18.079C45.3034 14.1946 38.9742 10.811 32.8785 7.67981L31.9646 9.45883ZM61.0973 32.8026C65.1387 36.8398 69.1206 39.4225 73.4393 40.802C77.755 42.1806 82.3288 42.3328 87.514 41.6302L87.2454 39.6483C82.2534 40.3248 77.997 40.1584 74.0479 38.8969C70.1019 37.6364 66.3845 35.2573 62.5108 31.3876L61.0973 32.8026ZM87.5067 41.6311C92.2031 41.0298 96.8647 41.9783 101.594 43.7722C106.334 45.57 111.073 48.1885 115.939 50.8793L116.907 49.1291C112.068 46.4534 107.201 43.7599 102.303 41.9022C97.3954 40.0405 92.3879 38.9898 87.2527 39.6473L87.5067 41.6311ZM115.939 50.8793C118.268 52.1676 120.625 53.4709 123.003 54.6924L123.917 52.9134C121.571 51.7083 119.241 50.4199 116.907 49.1291L115.939 50.8793ZM123.001 54.6914C135.53 61.1602 141.229 69.9777 142.387 79.8471C143.555 89.7955 140.129 100.981 134.021 112.138L135.775 113.099C141.974 101.777 145.611 90.1539 144.374 79.614C143.127 68.9951 136.954 59.6444 123.919 52.9143L123.001 54.6914ZM134.02 112.14C128.492 122.273 120.407 128.853 110.63 131.323C100.841 133.797 89.2257 132.182 76.6022 125.665L75.6847 127.442C88.6253 134.123 100.745 135.884 111.12 133.262C121.509 130.637 130.019 123.65 135.776 113.097L134.02 112.14ZM76.6002 125.664C64.6384 119.522 56.173 110.35 51.9159 100.446L50.0784 101.236C54.5365 111.608 63.3522 121.11 75.6867 127.443L76.6002 125.664ZM51.9174 100.45C49.9818 95.8986 45.2404 91.7768 39.807 88.9787C34.3601 86.1736 27.999 84.5845 22.6442 85.3101L22.9128 87.292C27.7352 86.6385 33.6766 88.0712 38.8913 90.7568C44.1196 93.4493 48.3989 97.287 50.0769 101.232L51.9174 100.45ZM22.6458 85.3099C20.1457 85.6446 17.0669 86.1958 13.6752 86.8028L14.0275 88.7715C17.4344 88.1618 20.4643 87.6198 22.9112 87.2922L22.6458 85.3099ZM13.6752 86.8028C9.43851 87.561 4.69031 88.4106 -0.133321 89.0595L0.133321 91.0417C5.00658 90.3861 9.79643 89.5287 14.0275 88.7715L13.6752 86.8028Z" fill="black"/>
<path d="M533.867 440.853C527.515 443.496 524.612 447.277 523.007 453.386C521.033 460.684 513.477 465.345 507.056 470.806C493.553 482.239 480.827 475.775 470.938 463.502C461.827 452.232 463.304 438.267 476.807 426.833C483.204 421.392 490.54 418.672 497.326 418.574C503.003 418.514 510.609 412.055 512.214 405.946C514.145 398.643 516.412 382.115 522.833 376.654C536.337 365.221 547.636 363.533 559.926 373.602C567.99 385.646 567.64 418.239 554.137 429.673C547.715 435.133 540.628 440.775 533.867 440.853Z" fill="black" stroke="black" stroke-width="2" stroke-miterlimit="10"/>
<path fill-rule="evenodd" clip-rule="evenodd" d="M532.439 999.554H466.304C467.321 993.452 469.564 987.997 472.719 983.56C476.894 977.737 475.994 965.178 470.974 958.988C469.757 957.481 468.162 955.677 466.388 953.669C459.427 945.793 449.696 934.782 449.085 926.329C447.522 904.057 454.234 891.299 473.649 886.303C491.922 887.079 524.831 911.75 526.394 934.022C527.161 944.63 527.616 956.051 522.652 962.991C520.603 971.427 522.286 977.202 527.306 983.392C530.813 987.782 531.945 993.46 532.439 999.554Z" fill="black"/>
<path d="M532.439 999.554V1000.55H533.524L533.436 999.473L532.439 999.554ZM466.304 999.554L465.317 999.389L465.123 1000.55H466.304V999.554ZM472.719 983.56L471.907 982.977L471.904 982.98L472.719 983.56ZM470.974 958.988L470.196 959.616L470.197 959.617L470.974 958.988ZM466.388 953.669L465.638 954.331L465.638 954.331L466.388 953.669ZM449.085 926.329L448.088 926.399L448.088 926.401L449.085 926.329ZM473.649 886.303L473.691 885.304L473.543 885.297L473.4 885.334L473.649 886.303ZM526.394 934.022L525.397 934.092L525.397 934.094L526.394 934.022ZM522.652 962.991L521.839 962.409L521.726 962.566L521.68 962.755L522.652 962.991ZM527.306 983.392L528.087 982.768L528.082 982.762L527.306 983.392ZM532.439 998.554H466.304V1000.55H532.439V998.554ZM467.29 999.718C468.285 993.755 470.473 988.445 473.534 984.139L471.904 982.98C468.655 987.55 466.358 993.149 465.317 999.389L467.29 999.718ZM473.532 984.143C475.811 980.964 476.631 976.097 476.292 971.34C475.952 966.569 474.43 961.662 471.751 958.358L470.197 959.617C472.538 962.504 473.976 966.971 474.297 971.482C474.62 976.009 473.802 980.333 471.907 982.977L473.532 984.143ZM471.752 958.359C470.518 956.832 468.906 955.009 467.137 953.007L465.638 954.331C467.418 956.345 468.996 958.131 470.196 959.616L471.752 958.359ZM467.137 953.007C463.65 949.062 459.515 944.381 456.173 939.64C452.806 934.864 450.367 930.191 450.082 926.257L448.088 926.401C448.414 930.92 451.146 935.98 454.538 940.792C457.954 945.638 462.165 950.401 465.638 954.331L467.137 953.007ZM450.083 926.259C449.307 915.214 450.6 906.694 454.36 900.347C458.1 894.037 464.371 889.723 473.898 887.271L473.4 885.334C463.511 887.879 456.719 892.443 452.64 899.328C448.581 906.177 447.3 915.172 448.088 926.399L450.083 926.259ZM473.606 887.302C477.985 887.488 483.328 889.116 488.941 891.853C494.54 894.584 500.347 898.39 505.642 902.865C516.283 911.858 524.644 923.365 525.397 934.092L527.392 933.952C526.581 922.406 517.706 910.442 506.933 901.338C501.521 896.764 495.577 892.865 489.818 890.056C484.072 887.253 478.449 885.506 473.691 885.304L473.606 887.302ZM525.397 934.094C525.78 939.398 526.079 944.837 525.675 949.801C525.271 954.774 524.167 959.153 521.839 962.409L523.465 963.572C526.1 959.888 527.252 955.087 527.669 949.963C528.087 944.83 527.775 939.254 527.391 933.95L525.397 934.094ZM521.68 962.755C520.628 967.088 520.518 970.807 521.356 974.269C522.193 977.728 523.958 980.851 526.529 984.022L528.082 982.762C525.634 979.743 524.047 976.883 523.3 973.799C522.554 970.717 522.627 967.33 523.624 963.226L521.68 962.755ZM526.524 984.016C529.835 988.161 530.951 993.582 531.443 999.635L533.436 999.473C532.938 993.339 531.79 987.403 528.087 982.768L526.524 984.016Z" fill="black"/>
<path d="M113.441 911.206C118.139 916.104 122.651 917.423 128.841 916.718C136.256 915.928 143.239 921.211 150.552 925.166C165.885 933.5 164.484 947.508 156.73 960.982C149.62 973.382 136.252 977.01 120.919 968.676C113.632 964.736 108.512 958.963 106.001 952.758C103.919 947.559 95.2644 942.872 89.0747 943.577C81.6701 944.408 65.6639 948.224 58.3509 944.269C43.0176 935.935 37.4324 926.148 42.3032 911.254C50.4979 899.539 80.5915 888.226 95.9248 896.56C103.238 900.516 110.955 905.018 113.441 911.206Z" fill="black" stroke="black" stroke-width="2" stroke-miterlimit="10"/>
<path fill-rule="evenodd" clip-rule="evenodd" d="M0 473.002V525.61C2.17453 523.952 4.29857 522.057 6.35645 519.981C18.1758 508.096 18.1345 491.854 3.95651 477.097L3.88093 477.018C2.66894 475.751 1.36647 474.389 0 473.002Z" fill="black"/>
<path d="M0 525.61H-1V527.631L0.606431 526.406L0 525.61ZM0 473.002L0.712174 472.3L-1 470.563V473.002H0ZM6.35645 519.981L5.64739 519.276L5.6463 519.277L6.35645 519.981ZM3.95651 477.097L3.23384 477.788L3.23539 477.79L3.95651 477.097ZM3.88093 477.018L3.15825 477.709L3.15826 477.709L3.88093 477.018ZM1 525.61V473.002H-1V525.61H1ZM0.606431 526.406C2.82282 524.715 4.98127 522.788 7.06659 520.685L5.6463 519.277C3.61587 521.325 1.52624 523.189 -0.606431 524.815L0.606431 526.406ZM7.0655 520.686C13.1435 514.575 16.2228 507.282 15.9046 499.575C15.587 491.882 11.8903 483.911 4.67763 476.404L3.23539 477.79C10.2008 485.04 13.6137 492.569 13.9063 499.657C14.1984 506.733 11.3886 513.503 5.64739 519.276L7.0655 520.686ZM4.67919 476.406L4.60361 476.327L3.15826 477.709L3.23384 477.788L4.67919 476.406ZM4.60361 476.327C3.39227 475.06 2.08475 473.693 0.712174 472.3L-0.712174 473.704C0.648201 475.085 1.94561 476.441 3.15825 477.709L4.60361 476.327Z" fill="black"/>
<path fill-rule="evenodd" clip-rule="evenodd" d="M0 650.657V578.565C10.6244 578.867 19.5976 582.608 22.0107 591.313C31.2317 608.865 16.3667 639.531 0 650.657Z" fill="black"/>
<path d="M0 650.657H-1V652.546L0.562204 651.484L0 650.657ZM0 578.565L0.0283781 577.566L-1 577.537V578.565H0ZM22.0107 591.313L21.047 591.58L21.0756 591.683L21.1254 591.778L22.0107 591.313ZM1 650.657V578.565H-1V650.657H1ZM-0.0283781 579.565C10.4807 579.863 18.8192 583.543 21.047 591.58L22.9743 591.046C20.376 581.672 10.7681 577.871 0.0283781 577.566L-0.0283781 579.565ZM21.1254 591.778C25.5315 600.165 24.2421 611.869 19.6754 623.016C15.1205 634.134 7.42014 644.404 -0.562204 649.83L0.562204 651.484C8.9466 645.785 16.8621 635.158 21.5261 623.774C26.1783 612.418 27.7108 600.013 22.8959 590.848L21.1254 591.778Z" fill="black"/>
<path fill-rule="evenodd" clip-rule="evenodd" d="M0 929.07V732.244C20.0452 746.784 40.6537 776.104 37.4856 798.389C35.5846 811.963 33.071 826.475 24.9412 833.877C20.0798 843.954 20.6389 851.684 25.2908 860.84C29.7153 869.709 27.88 880.417 26.0065 891.347C25.5563 893.974 25.1039 896.613 24.7356 899.242C22.2445 916.765 12.7913 925.74 0 929.07Z" fill="black"/>
<path d="M0 929.07H-1V930.363L0.251917 930.037L0 929.07ZM0 732.244L0.587177 731.434L-1 730.283V732.244H0ZM37.4856 798.389L36.4955 798.248L36.4952 798.25L37.4856 798.389ZM24.9412 833.877L24.2679 833.138L24.1247 833.268L24.0405 833.443L24.9412 833.877ZM25.2908 860.84L26.1857 860.394L26.1823 860.387L25.2908 860.84ZM26.0065 891.347L26.9921 891.516L26.9921 891.516L26.0065 891.347ZM24.7356 899.242L25.7257 899.383L25.7259 899.381L24.7356 899.242ZM1 929.07V732.244H-1V929.07H1ZM-0.587177 733.053C9.32344 740.242 19.3977 751.107 26.5935 762.932C33.8037 774.78 38.0323 787.439 36.4955 798.248L38.4756 798.53C40.107 787.054 35.6154 773.91 28.302 761.892C20.9744 749.851 10.7218 738.786 0.587177 731.434L-0.587177 733.053ZM36.4952 798.25C35.5447 805.037 34.4495 811.99 32.5917 818.159C30.7312 824.337 28.1381 829.614 24.2679 833.138L25.6144 834.617C29.8742 830.738 32.6028 825.058 34.5067 818.736C36.4135 812.404 37.5254 805.314 38.4759 798.527L36.4952 798.25ZM24.0405 833.443C21.5583 838.588 20.4302 843.198 20.5489 847.73C20.6675 852.259 22.0292 856.628 24.3993 861.293L26.1823 860.387C23.9005 855.896 22.6567 851.822 22.5482 847.678C22.4397 843.537 23.4627 839.243 25.8418 834.312L24.0405 833.443ZM24.396 861.286C26.5095 865.523 27.1481 870.237 27.0108 875.294C26.8731 880.361 25.9602 885.698 25.0208 891.178L26.9921 891.516C27.9262 886.066 28.8678 880.584 29.01 875.348C29.1526 870.101 28.4967 865.026 26.1856 860.394L24.396 861.286ZM25.0208 891.178C24.5711 893.802 24.116 896.456 23.7453 899.104L25.7259 899.381C26.0917 896.769 26.5415 894.145 26.9921 891.516L25.0208 891.178ZM23.7456 899.102C22.5218 907.709 19.6006 914.141 15.4801 918.817C11.3604 923.493 5.98591 926.478 -0.251917 928.102L0.251917 930.037C6.80542 928.331 12.5531 925.164 16.9807 920.139C21.4074 915.115 24.4583 908.298 25.7257 899.383L23.7456 899.102Z" fill="black"/>
<path fill-rule="evenodd" clip-rule="evenodd" d="M863.207 1000H790.99C792.661 997.291 794.823 994.613 797.495 991.943C812.031 984.176 845.949 986.696 863.207 1000Z" fill="black"/>
<path d="M863.207 1000V1001H866.142L863.817 999.208L863.207 1000ZM790.99 1000L790.139 999.475L789.199 1001H790.99V1000ZM797.495 991.943L797.024 991.061L796.893 991.131L796.788 991.236L797.495 991.943ZM863.207 999H790.99V1001H863.207V999ZM791.841 1000.52C793.465 997.893 795.575 995.275 798.202 992.65L796.788 991.236C794.071 993.951 791.857 996.689 790.139 999.475L791.841 1000.52ZM797.966 992.825C804.977 989.079 816.853 987.751 829.225 989.064C841.575 990.375 854.166 994.293 862.596 1000.79L863.817 999.208C854.989 992.402 841.993 988.408 829.436 987.075C816.9 985.744 804.549 987.04 797.024 991.061L797.966 992.825Z" fill="black"/>
<path fill-rule="evenodd" clip-rule="evenodd" d="M686.003 13.6401C678.696 9.59896 665.577 10.9771 660.337 16.3522C654.091 22.7466 644.788 27.2382 633.704 28.3953C611.296 30.7819 589.866 18.6185 584.611 0.998535H740.632C737.855 11.6274 730.547 19.3669 716.014 20.9147C704.931 22.0718 694.784 18.413 686.003 13.6401Z" fill="black"/>
<path d="M660.337 16.3522L661.052 17.051L661.053 17.0502L660.337 16.3522ZM686.003 13.6401L685.519 14.5152L685.525 14.5187L686.003 13.6401ZM633.704 28.3953L633.601 27.4007L633.599 27.4009L633.704 28.3953ZM584.611 0.998535V-0.00146484H583.27L583.653 1.2843L584.611 0.998535ZM740.632 0.998535L741.6 1.25135L741.927 -0.00146484L740.632 -0.00146484V0.998535ZM716.014 20.9147L716.118 21.9093L716.12 21.9091L716.014 20.9147ZM661.053 17.0502C663.443 14.5983 667.766 12.9587 672.499 12.4595C677.218 11.9619 682.1 12.6246 685.519 14.5152L686.487 12.765C682.598 10.6144 677.268 9.94559 672.29 10.4706C667.327 10.9939 662.47 12.731 659.621 15.6542L661.053 17.0502ZM633.808 29.3899C645.096 28.2115 654.624 23.6314 661.052 17.051L659.622 15.6534C653.557 21.8618 644.48 26.2649 633.601 27.4007L633.808 29.3899ZM583.653 1.2843C589.081 19.4868 611.06 31.8127 633.81 29.3897L633.599 27.4009C611.532 29.7511 590.65 17.7503 585.57 0.712771L583.653 1.2843ZM584.611 1.99854H740.632V-0.00146484H584.611V1.99854ZM716.12 21.9091C723.546 21.1181 729.211 18.7341 733.386 15.1179C737.56 11.5023 740.171 6.71819 741.6 1.25135L739.665 0.745718C738.316 5.9077 735.884 10.3078 732.077 13.6062C728.27 16.9039 723.014 19.1635 715.908 19.9203L716.12 21.9091ZM685.525 14.5187C694.39 19.3371 704.749 23.0962 716.118 21.9093L715.91 19.9201C705.113 21.0473 695.178 17.4888 686.48 12.7615L685.525 14.5187Z" fill="black"/>
<path fill-rule="evenodd" clip-rule="evenodd" d="M532.438 0.998535C532.621 3.24638 532.717 5.55075 532.813 7.86786C532.899 9.93393 532.985 12.0101 533.134 14.0654C534.697 36.337 518.625 44.4655 498.758 45.3751C480.492 46.2397 467.381 34.3191 465.818 12.0475C465.539 8.19877 465.72 4.4926 466.303 0.998535H532.438Z" fill="black"/>
<path d="M532.438 0.998535L533.435 0.917615L533.361 -0.00146484H532.438V0.998535ZM532.813 7.86786L531.814 7.90939L531.814 7.90939L532.813 7.86786ZM533.134 14.0654L534.131 13.9954L534.131 13.9933L533.134 14.0654ZM498.758 45.3751L498.712 44.3762L498.711 44.3762L498.758 45.3751ZM465.818 12.0475L466.815 11.9775L466.815 11.9752L465.818 12.0475ZM466.303 0.998535V-0.00146484H465.456L465.317 0.834026L466.303 0.998535ZM531.442 1.07946C531.622 3.30423 531.717 5.58864 531.814 7.90939L533.812 7.82633C533.716 5.51287 533.619 3.18853 533.435 0.917615L531.442 1.07946ZM531.814 7.90939C531.9 9.97283 531.987 12.0644 532.136 14.1375L534.131 13.9933C533.984 11.9559 533.898 9.89502 533.812 7.82632L531.814 7.90939ZM532.136 14.1354C532.898 24.987 529.375 32.2458 523.366 36.9432C517.295 41.6895 508.552 43.9257 498.712 44.3762L498.804 46.3741C508.831 45.915 518.058 43.632 524.598 38.5188C531.201 33.3567 534.933 25.4154 534.131 13.9954L532.136 14.1354ZM498.711 44.3762C489.816 44.7973 482.256 42.1086 476.725 36.6741C471.185 31.2301 467.585 22.9352 466.815 11.9775L464.82 12.1175C465.615 23.4313 469.352 32.2326 475.324 38.1007C481.306 43.9782 489.434 46.8176 498.805 46.374L498.711 44.3762ZM466.815 11.9752C466.542 8.20378 466.72 4.57713 467.289 1.16304L465.317 0.834026C464.721 4.40807 464.536 8.19376 464.821 12.1197L466.815 11.9752ZM466.303 1.99854H532.438V-0.00146484H466.303V1.99854Z" fill="black"/>
<path fill-rule="evenodd" clip-rule="evenodd" d="M371.877 999.192H316.238C320.452 984.131 331.48 976.981 345.239 978.885C359.008 980.77 370.205 986.63 371.877 999.192Z" fill="black"/>
<path d="M371.877 999.192V1000.19H373.019L372.869 999.061L371.877 999.192ZM316.238 999.192L315.275 998.923L314.92 1000.19H316.238V999.192ZM345.239 978.885L345.102 979.876L345.103 979.876L345.239 978.885ZM371.877 998.192H316.238V1000.19H371.877V998.192ZM345.376 977.895C338.286 976.913 331.83 978.26 326.593 981.852C321.36 985.442 317.432 991.213 315.275 998.923L317.201 999.462C319.258 992.111 322.951 986.776 327.725 983.501C332.495 980.229 338.433 978.953 345.102 979.876L345.376 977.895ZM372.869 999.061C371.992 992.472 368.6 987.627 363.663 984.212C358.757 980.819 352.345 978.849 345.375 977.895L345.103 979.876C351.902 980.807 357.973 982.708 362.526 985.857C367.048 988.985 370.091 993.351 370.886 999.324L372.869 999.061Z" fill="black"/>
<path fill-rule="evenodd" clip-rule="evenodd" d="M232.63 999.228H177.059C183.797 994.084 193.078 991.185 203.38 989.911C215.047 988.45 225.231 991.683 232.63 999.228Z" fill="black"/>
<path d="M232.63 999.228V1000.23H235.011L233.344 998.527L232.63 999.228ZM177.059 999.228L176.452 998.433L174.101 1000.23H177.059V999.228ZM203.38 989.911L203.503 990.903L203.505 990.903L203.38 989.911ZM232.63 998.228H177.059V1000.23H232.63V998.228ZM177.665 1000.02C184.206 995.029 193.29 992.166 203.503 990.903L203.258 988.918C192.865 990.204 183.387 993.139 176.452 998.433L177.665 1000.02ZM203.505 990.903C214.903 989.476 224.763 992.634 231.916 999.928L233.344 998.527C225.699 990.732 215.191 987.424 203.256 988.919L203.505 990.903Z" fill="black"/>
</g>
<defs>
<clipPath id="clip0_42_1840">
<rect width="1000" height="1000" fill="white"/>
</clipPath>
</defs>
</svg>
