<svg width="63" height="18" viewBox="0 0 63 18" fill="none" xmlns="http://www.w3.org/2000/svg">
<path d="M10.9514 16.7724C10.9821 16.7549 11.0138 16.7348 11.0455 16.7126C11.0674 16.6972 11.0894 16.6797 11.1119 16.6622C11.1201 16.656 11.1278 16.6499 11.1359 16.6437C11.5351 16.313 11.9833 15.6229 12.3024 14.7862C12.304 14.7821 12.3055 14.778 12.307 14.7739C12.3299 14.7139 12.3517 14.6533 12.3736 14.5918C12.8458 13.2284 12.9925 11.4883 12.1969 10.0659C11.6966 9.17076 10.983 8.42081 10.1549 7.89565C9.44481 7.43775 9.01249 6.66437 8.99446 5.82001C8.98113 4.83831 8.71565 3.83793 8.2153 2.94282C7.42692 1.53417 5.85192 0.747988 4.43366 0.434761C3.93732 0.325132 3.42113 0.257581 2.91238 0.274551C2.55989 0.286418 2.16288 0.315334 1.84831 0.49156C0.769065 1.09496 -0.819438 4.65441 0.602753 7.19806C1.1031 8.09317 1.81665 8.84312 2.64479 9.36828C3.35486 9.82618 3.78719 10.5996 3.80521 11.4439C3.81855 12.4256 4.08403 13.426 4.58438 14.3211C6.00657 16.8648 9.8716 17.3753 10.9508 16.7719L10.9514 16.7724Z" fill="#FFC900"/>
<path d="M10.9514 16.7724C10.9821 16.7549 11.0138 16.7348 11.0455 16.7126C11.0674 16.6972 11.0894 16.6797 11.1119 16.6622C11.1201 16.656 11.1278 16.6499 11.1359 16.6437C11.5351 16.313 11.9833 15.6229 12.3024 14.7862C12.304 14.7821 12.3055 14.778 12.307 14.7739C12.3299 14.7139 12.3517 14.6533 12.3736 14.5918C12.8458 13.2284 12.9925 11.4883 12.1969 10.0659C11.6966 9.17076 10.983 8.42081 10.1549 7.89565C9.44481 7.43775 9.01249 6.66437 8.99446 5.82001C8.98113 4.83831 8.71565 3.83793 8.2153 2.94282C7.42692 1.53417 5.85192 0.747988 4.43366 0.434761C3.93732 0.325132 3.42113 0.257581 2.91238 0.274551C2.55989 0.286418 2.16288 0.315334 1.84831 0.49156C0.769065 1.09496 -0.819438 4.65441 0.602753 7.19806C1.1031 8.09317 1.81665 8.84312 2.64479 9.36828C3.35486 9.82618 3.78719 10.5996 3.80521 11.4439C3.81855 12.4256 4.08403 13.426 4.58438 14.3211C6.00657 16.8648 9.8716 17.3753 10.9508 16.7719L10.9514 16.7724ZM5.11428 14.0253C4.65928 13.211 4.43002 12.3238 4.42112 11.4471C4.3927 10.3942 3.84701 9.41831 2.95528 8.87439C2.21341 8.40737 1.56618 7.72792 1.122 6.93357C-0.129632 4.69477 1.32067 1.50673 2.13496 1.05173C2.99581 0.57045 6.44978 1.0433 7.68956 3.26164C8.14456 4.07594 8.37383 4.96319 8.38273 5.83987C8.39017 6.90408 8.92504 7.86057 9.8276 8.42444C10.5695 8.89146 11.2059 9.55095 11.6609 10.3653C12.9125 12.6041 11.4663 15.7895 10.6346 16.2548C9.82032 16.7098 6.35407 16.2437 5.11429 14.0258L5.11428 14.0253Z" fill="black" stroke="black" stroke-width="0.0697925"/>
<path d="M4.40202 6.98977L4.71552 6.46971" stroke="black" stroke-width="0.488547" stroke-miterlimit="10" stroke-linecap="round"/>
<path d="M3.27355 6.06076C3.97788 6.05855 4.54706 5.48578 4.54485 4.78145C4.54263 4.07712 3.96987 3.50794 3.26554 3.51015C2.56121 3.51237 1.99203 4.08513 1.99424 4.78946C1.99645 5.49379 2.56922 6.06297 3.27355 6.06076Z" fill="white" stroke="black" stroke-width="0.488547" stroke-miterlimit="10"/>
<path d="M5.50792 4.85006C6.21225 4.84785 6.78143 4.27509 6.77922 3.57076C6.77701 2.86643 6.20424 2.29725 5.49991 2.29946C4.79558 2.30167 4.2264 2.87444 4.22862 3.57877C4.23083 4.2831 4.80359 4.85228 5.50792 4.85006Z" fill="white" stroke="black" stroke-width="0.488547" stroke-miterlimit="10"/>
<path d="M5.38665 2.35335C5.07895 2.76219 5.06181 3.34024 5.38188 3.77273C5.65513 4.14184 6.10196 4.30696 6.52653 4.23799C6.83423 3.82915 6.85137 3.2511 6.53129 2.81861C6.25804 2.4495 5.81122 2.28438 5.38665 2.35335Z" fill="black"/>
<path d="M3.21967 3.56054C2.92374 3.96525 2.91066 4.53099 3.22456 4.9553C3.4834 5.30498 3.89897 5.46969 4.3021 5.42487C4.59802 5.02016 4.6111 4.45442 4.2972 4.03011C4.03836 3.68044 3.62279 3.51572 3.21967 3.56054Z" fill="black"/>
<path d="M4.78924 6.79246C5.08002 6.87046 5.41765 6.85403 5.69813 6.75374C5.98067 6.65242 6.33078 6.37 6.4847 6.10819" stroke="black" stroke-width="0.488547" stroke-miterlimit="10" stroke-linecap="round"/>
<path d="M7.53679 14.2556C7.44028 14.3615 7.4388 14.5434 7.54414 14.6399C7.96707 15.0249 8.43748 15.3575 8.88455 15.6005C8.96774 15.6572 9.05836 15.6328 9.13713 15.589C9.17652 15.5668 9.20457 15.5247 9.23364 15.4831C9.30851 15.3379 9.25014 15.1884 9.13567 15.1232C8.71937 14.8893 8.29055 14.5858 7.90974 14.2283C7.80388 14.1328 7.63228 14.1508 7.53679 14.2556Z" fill="black"/>
<path d="M6.78677 13.7127L6.80672 13.7014C6.93349 13.6041 6.95764 13.4611 6.88034 13.323C6.77176 13.1763 6.68364 13.0182 6.59553 12.8607C6.43011 12.5645 6.28465 12.2575 6.1495 11.9705C6.09215 11.821 5.93829 11.7779 5.78834 11.8353C5.63889 11.8926 5.59582 12.0465 5.65317 12.1965C5.7792 12.5143 5.95595 12.8304 6.13218 13.146C6.23112 13.3235 6.31975 13.4815 6.43916 13.6482C6.52404 13.7545 6.66707 13.7787 6.78575 13.7127L6.78677 13.7127Z" fill="black"/>
<path d="M5.44036 10.8943L5.49969 10.8613C5.59841 10.8062 5.65282 10.6723 5.63707 10.5519C5.5391 10.192 5.39142 9.83427 5.20385 9.49872C5.11573 9.34066 5.0271 9.18261 4.91904 9.0364C4.82179 8.90963 4.65932 8.8963 4.55198 8.98272C4.42521 9.07997 4.41189 9.24244 4.49831 9.34978C4.59555 9.47655 4.67285 9.61466 4.75014 9.75328C4.91556 10.0494 5.0421 10.3673 5.13684 10.6764C5.1548 10.8475 5.31138 10.9413 5.43985 10.8943L5.44036 10.8943Z" fill="black"/>
<path d="M10.7089 14.7624C10.7704 14.7796 10.8093 14.758 10.8487 14.7358C10.9274 14.692 10.9846 14.6083 10.991 14.5268C11.0181 14.02 10.9814 13.4442 10.8746 12.882C10.8475 12.7411 10.7109 12.6365 10.5511 12.6744C10.4103 12.7015 10.3057 12.8381 10.3436 12.9979C10.4482 13.5089 10.4827 14.034 10.4642 14.5111C10.46 14.6428 10.5572 14.7695 10.7089 14.7629L10.7089 14.7624Z" fill="black"/>
<path d="M7.6463 7.26537C7.49686 7.32272 7.45379 7.47657 7.4998 7.60607C7.56797 7.77546 7.6566 7.93352 7.7442 8.09055C7.93177 8.4261 8.15873 8.73898 8.41476 9.01078C8.48985 9.09817 8.63237 9.1218 8.75053 9.05584L8.80987 9.02286C8.90638 8.917 8.91868 8.75453 8.83277 8.64771C8.59992 8.41581 8.41405 8.13098 8.24863 7.83481C8.17134 7.69671 8.09456 7.5586 8.0367 7.40864C7.93945 7.28187 7.79472 7.207 7.64579 7.26486L7.6463 7.26537Z" fill="black"/>
<path d="M9.53574 9.8312C9.40897 9.92845 9.39564 10.0909 9.46212 10.2096C9.65558 10.4636 9.821 10.7598 9.98692 11.0555C10.075 11.2135 10.1637 11.3716 10.2313 11.54C10.2887 11.6894 10.4425 11.7325 10.5925 11.6751L10.6124 11.6638C10.7311 11.5973 10.7747 11.4434 10.7277 11.314C10.6595 11.1446 10.56 10.9676 10.4606 10.7896C10.2838 10.4735 10.0876 10.1692 9.90279 9.88436C9.8174 9.77703 9.64359 9.74478 9.53625 9.8312L9.53574 9.8312Z" fill="black"/>
<path d="M7.76779 11.1224C7.90589 11.0452 7.94947 10.8913 7.87218 10.7537L7.03331 9.25354C6.95602 9.11544 6.80217 9.07186 6.66458 9.14915C6.52699 9.22644 6.4829 9.38029 6.56019 9.51788L7.39906 11.0181C7.47532 11.1567 7.62917 11.1997 7.76779 11.1224Z" fill="black"/>
<path d="M9.44552 14.1227C9.58362 14.0454 9.6272 13.8916 9.54991 13.754L8.71104 12.2538C8.63375 12.1157 8.4799 12.0721 8.34232 12.1494C8.20473 12.2267 8.16063 12.3805 8.23792 12.5181L9.07679 14.0183C9.15306 14.1569 9.30691 14.2 9.44552 14.1227Z" fill="black"/>
<path d="M58.0873 13.1236V6.16738H55.9102V3.99023H62.8399V6.16738H60.6893V13.1236H58.0873Z" fill="black"/>
<path d="M51.7875 13.2829C51.0706 13.2829 50.4556 13.1679 49.9422 12.9378C49.4289 12.7077 49.0307 12.3404 48.7475 11.8359C48.4731 11.3315 48.3359 10.6721 48.3359 9.85791V3.99023H50.9379V9.92428C50.9379 10.296 50.9954 10.5969 51.1105 10.827C51.2344 11.0571 51.4556 11.1722 51.7742 11.1722C52.0928 11.1722 52.3141 11.0571 52.438 10.827C52.5708 10.5969 52.6371 10.296 52.6371 9.92428V3.99023H55.2391V9.85791C55.2391 10.6721 55.1019 11.3315 54.8276 11.8359C54.5532 12.3404 54.1594 12.7077 53.6461 12.9378C53.1327 13.1679 52.5132 13.2829 51.7875 13.2829Z" fill="black"/>
<path d="M40.2822 13.1236V3.99023H42.6718L44.1719 6.92407C44.2161 7.01257 44.2692 7.11878 44.3312 7.24268C44.402 7.36658 44.4684 7.49491 44.5303 7.62766C44.6011 7.76041 44.6586 7.88432 44.7029 7.99937L44.7693 7.98609C44.7693 7.80024 44.7693 7.61439 44.7693 7.42853C44.7693 7.23383 44.7693 7.06567 44.7693 6.92407V3.99023H47.2119V13.1236H44.8224L43.2028 10.057C43.1143 9.88003 43.0346 9.70746 42.9638 9.5393C42.9019 9.3623 42.8399 9.19414 42.778 9.03484L42.7116 9.04812C42.7205 9.21627 42.7249 9.39327 42.7249 9.57913C42.7249 9.75613 42.7249 9.91544 42.7249 10.057V13.1236H40.2822Z" fill="black"/>
<path d="M31.6562 13.1236L33.9927 3.99023H37.4044L39.7409 13.1236H36.9929L36.7407 11.7961H34.5768L34.3246 13.1236H31.6562ZM34.9618 9.77826H36.3557L36.0238 7.93299C36.0061 7.84449 35.984 7.72944 35.9574 7.58784C35.9397 7.44623 35.9132 7.29578 35.8778 7.13648C35.8512 6.96832 35.8247 6.80459 35.7981 6.64529C35.7716 6.47714 35.745 6.32668 35.7185 6.19393H35.599C35.5813 6.36208 35.5548 6.55236 35.5194 6.76477C35.484 6.96832 35.4486 7.17188 35.4132 7.37543C35.3778 7.57899 35.3424 7.76484 35.307 7.93299L34.9618 9.77826Z" fill="black"/>
<path d="M25.2246 13.1236V3.99023H31.3711V6.11428H27.8266V7.44181H30.8135V9.5393H27.8266V10.9996H31.4507V13.1236H25.2246Z" fill="black"/>
<path d="M17.8896 13.1236V3.99023H22.005C22.5802 3.99023 23.0582 4.11856 23.4387 4.37522C23.8193 4.63187 24.1025 4.99031 24.2883 5.45052C24.4742 5.91073 24.5671 6.44616 24.5671 7.05682C24.5671 7.69404 24.4698 8.2516 24.2751 8.72951C24.0804 9.20742 23.7883 9.57913 23.3989 9.84463C23.0183 10.1101 22.5448 10.2429 21.9784 10.2429H20.4916V13.1236H17.8896ZM20.4916 8.21177H21.3147C21.5448 8.21177 21.7085 8.11 21.8059 7.90644C21.9032 7.70289 21.9519 7.44181 21.9519 7.1232C21.9519 6.90195 21.9298 6.71167 21.8855 6.55236C21.8501 6.39306 21.7837 6.26916 21.6864 6.18066C21.5979 6.09215 21.474 6.0479 21.3147 6.0479H20.4916V8.21177Z" fill="black"/>
</svg>
