<svg width="775" height="74" viewBox="0 0 775 74" fill="none" xmlns="http://www.w3.org/2000/svg">
<path d="M0.312042 72.5039V1.41016H40.7417C48.5868 1.41016 54.674 3.90039 59.0034 8.88086C63.3654 13.8613 65.5464 20.4368 65.5464 28.6074C65.5464 36.778 63.4468 43.3047 59.2476 48.1875C55.0809 53.0703 48.7007 55.5117 40.107 55.5117H29.2671V72.5039H0.312042ZM29.2671 37.0059H32.5874C34.0848 37.0059 35.1265 36.2734 35.7124 34.8086C36.3309 33.3112 36.6402 31.472 36.6402 29.291C36.6402 27.0124 36.3309 25.1406 35.7124 23.6758C35.1265 22.2109 34.0848 21.4785 32.5874 21.4785H29.2671V37.0059ZM68.062 72.5039V1.41016H123.824V23.8711H95.6011V27.5332H120.015V46.6738H95.6011V51.0195H124.8V72.5039H68.062ZM123.849 72.5039L146.896 1.41016H177.951L200.07 72.5039H171.896L162.521 36.8594C162.163 35.5247 161.87 34.3691 161.642 33.3926C161.447 32.3835 161.333 31.7812 161.3 31.5859H161.203C161.17 31.7812 161.04 32.3672 160.812 33.3438C160.584 34.3203 160.324 35.4759 160.031 36.8105L151.681 72.5039H123.849ZM140.646 64.5938L143.918 46.5762H179.025L182.687 64.5938H140.646ZM200.242 72.5039V1.41016H228.66L234.714 22.4062C235.007 23.4805 235.333 24.7174 235.691 26.1172C236.082 27.4844 236.407 28.7051 236.668 29.7793H236.96C236.895 28.6725 236.879 27.5169 236.912 26.3125C236.944 25.1081 236.96 23.9525 236.96 22.8457V1.41016H261.082V72.5039H233.543L226.511 51.0195C226.153 50.0104 225.795 48.9199 225.437 47.748C225.079 46.5762 224.786 45.4531 224.558 44.3789H224.265C224.363 45.4857 224.412 46.446 224.412 47.2598C224.412 48.041 224.412 49.0013 224.412 50.1406V72.5039H200.242ZM264.33 44.8184V1.41016H293.187V49.6523C293.187 51.7031 293.366 53.0703 293.724 53.7539C294.082 54.4375 294.668 54.7793 295.482 54.7793C296.361 54.7793 296.979 54.4375 297.337 53.7539C297.696 53.0703 297.875 51.7031 297.875 49.6523V1.41016H326.83V44.8184C326.83 54.584 324.095 61.8105 318.626 66.498C313.19 71.153 305.654 73.4805 296.019 73.4805C285.863 73.4805 278.034 71.153 272.533 66.498C267.064 61.8105 264.33 54.584 264.33 44.8184ZM328.173 23.8711V1.41016H391.455V23.8711H374.56V72.5039H345.166V23.8711H328.173ZM420.07 72.5039V1.41016H461.037L466.896 25.0918C467.189 26.2311 467.449 27.3379 467.677 28.4121C467.938 29.4538 468.166 30.5931 468.361 31.8301H468.556C468.784 30.5931 469.012 29.4538 469.24 28.4121C469.5 27.3379 469.777 26.2311 470.07 25.0918L475.978 1.41016H516.847V72.5039H488.38V45.3555C488.38 44.2161 488.38 42.9629 488.38 41.5957C488.38 40.2285 488.429 38.9915 488.527 37.8848H488.234C488.039 39.0566 487.811 40.3099 487.55 41.6445C487.322 42.9792 487.095 44.2161 486.867 45.3555L481.007 72.5039H455.08L449.123 45.3555C448.895 44.2161 448.651 42.9629 448.39 41.5957C448.13 40.2285 447.918 38.9915 447.755 37.8848H447.462C447.528 38.9915 447.576 40.2285 447.609 41.5957C447.641 42.9629 447.658 44.2161 447.658 45.3555V72.5039H420.07ZM520.144 72.5039V1.41016H575.906V23.8711H547.683V27.5332H572.097V46.6738H547.683V51.0195H576.882V72.5039H520.144ZM575.931 72.5039L598.978 1.41016H630.033L652.152 72.5039H623.978L614.603 36.8594C614.245 35.5247 613.952 34.3691 613.724 33.3926C613.529 32.3835 613.415 31.7812 613.382 31.5859H613.285C613.252 31.7812 613.122 32.3672 612.894 33.3438C612.666 34.3203 612.406 35.4759 612.113 36.8105L603.763 72.5039H575.931ZM592.728 64.5938L596 46.5762H631.107L634.769 64.5938H592.728ZM652.324 72.5039V1.41016H680.742L686.796 22.4062C687.089 23.4805 687.415 24.7174 687.773 26.1172C688.164 27.4844 688.489 28.7051 688.75 29.7793H689.042C688.977 28.6725 688.961 27.5169 688.994 26.3125C689.026 25.1081 689.042 23.9525 689.042 22.8457V1.41016H713.164V72.5039H685.625L678.593 51.0195C678.235 50.0104 677.877 48.9199 677.519 47.748C677.161 46.5762 676.868 45.4531 676.64 44.3789H676.347C676.445 45.4857 676.494 46.446 676.494 47.2598C676.494 48.041 676.494 49.0013 676.494 50.1406V72.5039H652.324ZM714.214 53.5098V48.9199H740.044V50.6289C740.044 52.3216 740.435 53.5749 741.216 54.3887C742.03 55.1699 743.153 55.5605 744.585 55.5605C745.757 55.5605 746.685 55.3164 747.369 54.8281C748.052 54.3073 748.394 53.5423 748.394 52.5332C748.394 51.4915 747.987 50.6777 747.173 50.0918C746.392 49.5059 743.3 48.3503 737.896 46.625C730.181 44.1836 724.371 41.319 720.464 38.0312C716.591 34.7109 714.654 29.8444 714.654 23.4316C714.654 16.0098 717.372 10.3457 722.808 6.43945C728.244 2.50065 735.243 0.53125 743.804 0.53125C752.463 0.53125 759.527 2.17513 764.996 5.46289C770.464 8.75065 773.199 13.4707 773.199 19.623V23.4316H747.857V22.3086C747.857 21.2344 747.548 20.4368 746.929 19.916C746.343 19.3626 745.513 19.0859 744.439 19.0859C743.3 19.0859 742.486 19.2975 741.998 19.7207C741.542 20.1113 741.314 20.6322 741.314 21.2832C741.314 21.9668 741.688 22.5039 742.437 22.8945C743.218 23.2526 746.864 24.3105 753.375 26.0684C760.048 27.8587 765.305 30.4954 769.146 33.9785C773.02 37.429 774.957 42.5885 774.957 49.457C774.957 57.1719 772.157 63.1126 766.558 67.2793C760.992 71.4134 753.83 73.4805 745.074 73.4805C736.317 73.4805 728.977 71.804 723.052 68.4512C717.16 65.0983 714.214 60.1178 714.214 53.5098Z" fill="black"/>
</svg>
