<svg width="56" height="12" viewBox="0 0 56 12" fill="none" xmlns="http://www.w3.org/2000/svg">
<path d="M49.3189 11.5052V2.97058H46.6478V0.299438H55.1498V2.97058H52.5112V11.5052H49.3189Z" fill="black"/>
<path d="M41.5894 11.7006C40.7098 11.7006 39.9552 11.5595 39.3254 11.2772C38.6956 10.9949 38.207 10.5442 37.8595 9.92532C37.5229 9.30639 37.3546 8.49745 37.3546 7.49849V0.299438H40.547V7.57993C40.547 8.03597 40.6175 8.40516 40.7587 8.68747C40.9107 8.96979 41.1822 9.11095 41.5731 9.11095C41.964 9.11095 42.2354 8.96979 42.3874 8.68747C42.5503 8.40516 42.6318 8.03597 42.6318 7.57993V0.299438H45.8241V7.49849C45.8241 8.49745 45.6558 9.30639 45.3192 9.92532C44.9826 10.5442 44.4994 10.9949 43.8696 11.2772C43.2398 11.5595 42.4797 11.7006 41.5894 11.7006Z" fill="black"/>
<path d="M27.4733 11.5052V0.299438H30.4051L32.2455 3.89896C32.2998 4.00755 32.365 4.13785 32.441 4.28986C32.5279 4.44188 32.6093 4.59932 32.6853 4.7622C32.7722 4.92507 32.8428 5.07709 32.897 5.21825L32.9785 5.20196C32.9785 4.97394 32.9785 4.74591 32.9785 4.51789C32.9785 4.279 32.9785 4.0727 32.9785 3.89896V0.299438H35.9754V11.5052H33.0436L31.0566 7.7428C30.948 7.52564 30.8503 7.3139 30.7634 7.10759C30.6874 6.89043 30.6114 6.68412 30.5354 6.48867L30.4539 6.50496C30.4648 6.71126 30.4702 6.92843 30.4702 7.15645C30.4702 7.37362 30.4702 7.56907 30.4702 7.7428V11.5052H27.4733Z" fill="black"/>
<path d="M16.891 11.5052L19.7576 0.299438H23.9435L26.81 11.5052H23.4385L23.1291 9.87646H20.4742L20.1648 11.5052H16.891ZM20.9466 7.40077H22.6567L22.2496 5.13681C22.2278 5.02823 22.2007 4.88707 22.1681 4.71334C22.1464 4.5396 22.1138 4.35501 22.0704 4.15956C22.0378 3.95326 22.0052 3.75238 21.9727 3.55693C21.9401 3.35062 21.9075 3.16603 21.8749 3.00315H21.7284C21.7066 3.20946 21.6741 3.44292 21.6306 3.70351C21.5872 3.95326 21.5438 4.203 21.5003 4.45274C21.4569 4.70248 21.4135 4.9305 21.37 5.13681L20.9466 7.40077Z" fill="black"/>
<path d="M8.99927 11.5052V0.299438H16.5404V2.90543H12.1916V4.53417H15.8563V7.10759H12.1916V8.89921H16.6381V11.5052H8.99927Z" fill="black"/>
<path d="M0 11.5052V0.299438H5.04911C5.7549 0.299438 6.34125 0.456884 6.80815 0.771774C7.27506 1.08666 7.62253 1.52643 7.85055 2.09106C8.07858 2.65569 8.19259 3.31262 8.19259 4.06184C8.19259 4.84364 8.07315 5.52771 7.83426 6.11406C7.59538 6.70041 7.23706 7.15645 6.75929 7.4822C6.29238 7.80795 5.71147 7.97083 5.01653 7.97083H3.19234V11.5052H0ZM3.19234 5.47885H4.20216C4.48448 5.47885 4.68536 5.35398 4.8048 5.10424C4.92424 4.85449 4.98396 4.53417 4.98396 4.14328C4.98396 3.87182 4.95681 3.63836 4.90252 3.44292C4.85909 3.24747 4.77765 3.09545 4.65821 2.98687C4.54963 2.87828 4.39761 2.82399 4.20216 2.82399H3.19234V5.47885Z" fill="black"/>
</svg>
