<svg width="1514" height="83" viewBox="0 0 1514 83" fill="none" xmlns="http://www.w3.org/2000/svg">
<path d="M0.896851 54.4043V49.8145H26.7269V51.5234C26.7269 53.2161 27.1176 54.4694 27.8988 55.2832C28.7126 56.0645 29.8357 56.4551 31.2679 56.4551C32.4398 56.4551 33.3676 56.2109 34.0511 55.7227C34.7347 55.2018 35.0765 54.4368 35.0765 53.4277C35.0765 52.3861 34.6696 51.5723 33.8558 50.9863C33.0746 50.4004 29.9821 49.2448 24.5785 47.5195C16.8636 45.0781 11.0531 42.2135 7.14685 38.9258C3.27315 35.6055 1.3363 30.7389 1.3363 24.3262C1.3363 16.9043 4.0544 11.2402 9.4906 7.33398C14.9268 3.39518 21.9255 1.42578 30.4867 1.42578C39.1455 1.42578 46.2094 3.06966 51.6781 6.35742C57.1469 9.64518 59.8812 14.3652 59.8812 20.5176V24.3262H34.5394V23.2031C34.5394 22.1289 34.2302 21.3314 33.6117 20.8105C33.0258 20.2572 32.1957 19.9805 31.1215 19.9805C29.9821 19.9805 29.1683 20.1921 28.6801 20.6152C28.2243 21.0059 27.9965 21.5267 27.9965 22.1777C27.9965 22.8613 28.3708 23.3984 29.1195 23.7891C29.9008 24.1471 33.5466 25.2051 40.057 26.9629C46.7302 28.7533 51.9873 31.39 55.8285 34.873C59.7022 38.3236 61.639 43.4831 61.639 50.3516C61.639 58.0664 58.8396 64.0072 53.2406 68.1738C47.6742 72.3079 40.5127 74.375 31.7562 74.375C22.9997 74.375 15.6592 72.6986 9.73474 69.3457C3.84281 65.9928 0.896851 61.0124 0.896851 54.4043ZM63.8617 73.3984V2.30469H119.623V24.7656H91.4008V28.4277H115.815V47.5684H91.4008V51.9141H120.6V73.3984H63.8617ZM121.455 39.7559V35.9473C121.455 23.4798 124.532 14.6094 130.684 9.33594C136.869 4.02995 145.007 1.37695 155.098 1.37695C164.473 1.37695 171.879 3.36263 177.315 7.33398C182.784 11.2728 185.518 17.7181 185.518 26.6699V33.9453H158.565V23.5449C158.565 22.6009 158.304 21.8359 157.784 21.25C157.295 20.6641 156.612 20.3711 155.733 20.3711C154.724 20.3711 153.926 20.778 153.34 21.5918C152.787 22.4056 152.51 23.8867 152.51 26.0352V49.7168C152.51 52.0605 152.787 53.6719 153.34 54.5508C153.894 55.4297 154.691 55.8691 155.733 55.8691C156.709 55.8691 157.425 55.4297 157.881 54.5508C158.337 53.6719 158.565 52.1257 158.565 49.9121V42.2461H185.518V50.8398C185.55 58.4245 182.832 64.235 177.364 68.2715C171.895 72.3079 164.473 74.3262 155.098 74.3262C144.877 74.3262 136.706 71.6243 130.586 66.2207C124.499 60.8171 121.455 51.9954 121.455 39.7559ZM187.789 45.7129V2.30469H216.647V50.5469C216.647 52.5977 216.826 53.9648 217.184 54.6484C217.542 55.332 218.128 55.6738 218.942 55.6738C219.821 55.6738 220.439 55.332 220.797 54.6484C221.155 53.9648 221.334 52.5977 221.334 50.5469V2.30469H250.289V45.7129C250.289 55.4785 247.555 62.7051 242.086 67.3926C236.65 72.0475 229.114 74.375 219.479 74.375C209.323 74.375 201.494 72.0475 195.993 67.3926C190.524 62.7051 187.789 55.4785 187.789 45.7129ZM253.537 73.3984V2.30469H293.137C300.331 2.30469 306.272 4.56706 310.959 9.0918C315.679 13.6165 318.039 19.541 318.039 26.8652C318.039 34.5801 315.452 40.8952 310.276 45.8105C305.1 50.6934 299.241 53.1348 292.698 53.1348H282.493V73.3984H253.537ZM282.493 35.5566H285.08C286.415 35.5566 287.359 34.9382 287.912 33.7012C288.466 32.4642 288.759 30.8529 288.791 28.8672C288.791 26.8815 288.498 25.2214 287.912 23.8867C287.359 22.5195 286.415 21.8359 285.08 21.8359H282.493V35.5566ZM289.914 73.3984L280.979 44.4922L305.491 36.1426L321.164 73.3984H289.914ZM321.532 73.3984V2.30469H350.975V73.3984H321.532ZM352.563 24.7656V2.30469H415.844V24.7656H398.95V73.3984H369.555V24.7656H352.563ZM435.01 73.3984V46.7871L412.403 2.30469H443.555L450.489 16.3672C450.717 16.888 450.928 17.36 451.123 17.7832C451.319 18.1738 451.498 18.6133 451.661 19.1016H451.856C452.019 18.6133 452.181 18.1738 452.344 17.7832C452.539 17.36 452.751 16.888 452.979 16.3672L459.62 2.30469H486.963L464.453 46.7383V73.3984H435.01ZM513.088 54.8438C513.088 49.6029 514.716 45.3223 517.971 42.002C521.226 38.6816 525.832 35.459 531.789 32.334L540.627 27.6953C544.078 25.8398 546.454 24.0169 547.756 22.2266C549.058 20.4036 549.709 18.6947 549.709 17.0996C549.709 15.8952 549.563 14.9837 549.27 14.3652C548.977 13.7467 548.44 13.4375 547.659 13.4375C546.877 13.4375 546.308 13.7467 545.95 14.3652C545.592 14.9512 545.412 15.8138 545.412 16.9531C545.412 19.2643 546.422 21.429 548.44 23.4473C550.458 25.4655 553.144 28.4928 556.496 32.5293L590.969 73.3984H561.33L531.594 38.877C527.655 34.3522 524.758 30.6087 522.903 27.6465C521.08 24.6517 520.168 21.4453 520.168 18.0273C520.168 12.5911 522.431 8.37565 526.955 5.38086C531.48 2.35352 538.56 0.839844 548.196 0.839844C557.571 0.839844 564.325 2.25586 568.459 5.08789C572.593 7.88737 574.661 12.1354 574.661 17.832C574.661 22.5521 573.065 26.4909 569.875 29.6484C566.685 32.806 562.356 35.8496 556.887 38.7793L550.344 42.2949C544.452 45.4199 541.002 47.4707 539.993 48.4473C538.983 49.4238 538.479 50.6445 538.479 52.1094C538.479 53.9648 539.032 55.2669 540.139 56.0156C541.246 56.7318 542.662 57.0898 544.387 57.0898C547.74 57.0898 551.89 55.5111 556.838 52.3535C561.819 49.1634 564.927 43.8249 566.164 36.3379H590.969C590.969 45.9082 586.07 54.6484 576.272 62.5586C566.474 70.4362 555.715 74.375 543.996 74.375C533.124 74.375 525.246 72.5846 520.364 69.0039C515.513 65.4232 513.088 60.7031 513.088 54.8438ZM621.928 73.3984V2.30469H662.358C670.203 2.30469 676.29 4.79492 680.62 9.77539C684.981 14.7559 687.162 21.3314 687.162 29.502C687.162 37.6725 685.063 44.1992 680.864 49.082C676.697 53.9648 670.317 56.4062 661.723 56.4062H650.883V73.3984H621.928ZM650.883 37.9004H654.203C655.701 37.9004 656.743 37.168 657.328 35.7031C657.947 34.2057 658.256 32.3665 658.256 30.1855C658.256 27.9069 657.947 26.0352 657.328 24.5703C656.743 23.1055 655.701 22.373 654.203 22.373H650.883V37.9004ZM689.678 73.3984V2.30469H729.278C736.472 2.30469 742.412 4.56706 747.1 9.0918C751.82 13.6165 754.18 19.541 754.18 26.8652C754.18 34.5801 751.592 40.8952 746.416 45.8105C741.241 50.6934 735.381 53.1348 728.838 53.1348H718.633V73.3984H689.678ZM718.633 35.5566H721.221C722.556 35.5566 723.5 34.9382 724.053 33.7012C724.606 32.4642 724.899 30.8529 724.932 28.8672C724.932 26.8815 724.639 25.2214 724.053 23.8867C723.5 22.5195 722.556 21.8359 721.221 21.8359H718.633V35.5566ZM726.055 73.3984L717.12 44.4922L741.631 36.1426L757.305 73.3984H726.055ZM757.672 73.3984V2.30469H787.116V73.3984H757.672ZM787.385 2.30469H816.731L824.885 32.627C824.983 32.985 825.08 33.4082 825.178 33.8965C825.308 34.3522 825.455 34.8893 825.618 35.5078H825.813C825.976 34.8893 826.106 34.3522 826.203 33.8965C826.334 33.4082 826.464 32.985 826.594 32.627L834.407 2.30469H862.727L841.047 73.8379H809.065L787.385 2.30469ZM850.692 73.3984L873.739 2.30469H904.793L926.912 73.3984H898.739L889.364 37.7539C889.006 36.4193 888.713 35.2637 888.485 34.2871C888.289 33.278 888.175 32.6758 888.143 32.4805H888.045C888.013 32.6758 887.883 33.2617 887.655 34.2383C887.427 35.2148 887.166 36.3704 886.873 37.7051L878.524 73.3984H850.692ZM867.489 65.4883L870.76 47.4707H905.868L909.53 65.4883H867.489ZM921.42 39.7559V35.9473C921.42 23.4798 924.496 14.6094 930.649 9.33594C936.834 4.02995 944.972 1.37695 955.063 1.37695C964.438 1.37695 971.843 3.36263 977.28 7.33398C982.748 11.2728 985.483 17.7181 985.483 26.6699V33.9453H958.53V23.5449C958.53 22.6009 958.269 21.8359 957.748 21.25C957.26 20.6641 956.577 20.3711 955.698 20.3711C954.689 20.3711 953.891 20.778 953.305 21.5918C952.752 22.4056 952.475 23.8867 952.475 26.0352V49.7168C952.475 52.0605 952.752 53.6719 953.305 54.5508C953.858 55.4297 954.656 55.8691 955.698 55.8691C956.674 55.8691 957.39 55.4297 957.846 54.5508C958.302 53.6719 958.53 52.1257 958.53 49.9121V42.2461H985.483V50.8398C985.515 58.4245 982.797 64.235 977.328 68.2715C971.86 72.3079 964.438 74.3262 955.063 74.3262C944.842 74.3262 936.671 71.6243 930.551 66.2207C924.464 60.8171 921.42 51.9954 921.42 39.7559ZM1003.23 73.3984V46.7871L980.625 2.30469H1011.78L1018.71 16.3672C1018.94 16.888 1019.15 17.36 1019.35 17.7832C1019.54 18.1738 1019.72 18.6133 1019.88 19.1016H1020.08C1020.24 18.6133 1020.4 18.1738 1020.57 17.7832C1020.76 17.36 1020.97 16.888 1021.2 16.3672L1027.84 2.30469H1055.19L1032.68 46.7383V73.3984H1003.23ZM1049.25 80.6738C1050.49 78.7858 1051.37 76.7839 1051.89 74.668C1052.44 72.5846 1052.72 70.5176 1052.72 68.4668V49.375H1077.18V68.2715C1077.18 70.8105 1076.71 73.4635 1075.77 76.2305C1074.86 79.0299 1073.59 81.1784 1071.96 82.6758L1049.25 80.6738ZM1110.88 73.3984V2.30469H1150.14C1158.31 2.30469 1164.05 4.01367 1167.37 7.43164C1170.69 10.8171 1172.35 15.1465 1172.35 20.4199C1172.35 24.3913 1171.49 27.679 1169.76 30.2832C1168.04 32.8874 1165.65 34.7754 1162.59 35.9473V36.1426C1166.23 36.9889 1169.32 38.7305 1171.86 41.3672C1174.44 43.9714 1175.72 47.9102 1175.72 53.1836C1175.72 59.4336 1173.52 64.3652 1169.13 67.9785C1164.73 71.5918 1158.6 73.3984 1150.72 73.3984H1110.88ZM1138.9 55.5762H1141.93C1143.36 55.5762 1144.45 55.0553 1145.2 54.0137C1145.98 52.972 1146.38 51.6699 1146.38 50.1074C1146.38 48.5775 1145.98 47.3079 1145.2 46.2988C1144.45 45.2572 1143.36 44.7363 1141.93 44.7363H1138.9V55.5762ZM1138.9 31.748H1141.69C1142.89 31.748 1143.77 31.276 1144.32 30.332C1144.91 29.388 1145.2 28.0859 1145.2 26.4258C1145.2 24.7656 1144.91 23.4798 1144.32 22.5684C1143.77 21.6569 1142.89 21.2012 1141.69 21.2012H1138.9V31.748ZM1177.02 45.7129V2.30469H1205.87V50.5469C1205.87 52.5977 1206.05 53.9648 1206.41 54.6484C1206.77 55.332 1207.35 55.6738 1208.17 55.6738C1209.05 55.6738 1209.67 55.332 1210.02 54.6484C1210.38 53.9648 1210.56 52.5977 1210.56 50.5469V2.30469H1239.52V45.7129C1239.52 55.4785 1236.78 62.7051 1231.31 67.3926C1225.88 72.0475 1218.34 74.375 1208.71 74.375C1198.55 74.375 1190.72 72.0475 1185.22 67.3926C1179.75 62.7051 1177.02 55.4785 1177.02 45.7129ZM1242.91 73.3984V2.30469H1272.35V73.3984H1242.91ZM1275.85 73.3984V2.30469H1304.8V50.9375H1328.63V73.3984H1275.85ZM1318.74 24.7656V2.30469H1382.02V24.7656H1365.13V73.3984H1335.73V24.7656H1318.74ZM1377.85 53.8184V31.9434H1415.4V53.8184H1377.85ZM1419.38 73.3984V2.30469H1448.82V73.3984H1419.38ZM1452.31 73.3984V2.30469H1480.73L1486.79 23.3008C1487.08 24.375 1487.41 25.612 1487.76 27.0117C1488.15 28.3789 1488.48 29.5996 1488.74 30.6738H1489.03C1488.97 29.5671 1488.95 28.4115 1488.98 27.207C1489.02 26.0026 1489.03 24.847 1489.03 23.7402V2.30469H1513.15V73.3984H1485.62L1478.58 51.9141C1478.23 50.9049 1477.87 49.8145 1477.51 48.6426C1477.15 47.4707 1476.86 46.3477 1476.63 45.2734H1476.34C1476.44 46.3802 1476.48 47.3405 1476.48 48.1543C1476.48 48.9355 1476.48 49.8958 1476.48 51.0352V73.3984H1452.31Z" fill="black"/>
</svg>
