<svg width="535" height="30" viewBox="0 0 535 30" fill="none" xmlns="http://www.w3.org/2000/svg">
<path d="M0.48291 21.0435V19.6763H9.9751V20.3403C9.9751 21.1997 10.203 21.8377 10.6587 22.2544C11.1274 22.6711 11.7785 22.8794 12.6118 22.8794C13.38 22.8794 13.9725 22.7297 14.3892 22.4302C14.8188 22.1307 15.0337 21.7075 15.0337 21.1606C15.0337 20.5096 14.8188 20.0213 14.3892 19.6958C13.9725 19.3703 12.5858 18.8885 10.229 18.2505C7.24723 17.4302 4.9165 16.3299 3.23682 14.9497C1.55713 13.5695 0.710775 11.6164 0.697754 9.09033C0.697754 6.19971 1.77848 3.97965 3.93994 2.43018C6.1014 0.880697 8.90739 0.105957 12.3579 0.105957C15.8215 0.105957 18.634 0.822103 20.7954 2.25439C22.9699 3.67367 24.0571 5.67887 24.0571 8.27002V9.44189H14.7603V8.91455C14.7603 8.27653 14.5715 7.77523 14.1938 7.41064C13.8162 7.04606 13.2629 6.86377 12.5337 6.86377C11.7915 6.86377 11.2511 6.99398 10.9126 7.25439C10.5741 7.50179 10.4048 7.84033 10.4048 8.27002C10.4048 8.75179 10.6196 9.09684 11.0493 9.30518C11.492 9.51351 12.9894 9.94971 15.5415 10.6138C18.2759 11.3299 20.4829 12.3976 22.1626 13.8169C23.8423 15.2231 24.6886 17.313 24.7017 20.0864C24.7017 23.1593 23.5884 25.4901 21.3618 27.0786C19.1353 28.6672 16.2576 29.4614 12.729 29.4614C9.2264 29.4614 6.30973 28.7648 3.979 27.3716C1.64827 25.9784 0.48291 23.869 0.48291 21.0435ZM26.0454 28.9927V0.555176H47.5103V8.21143H35.772V11.1997H45.8892V18.0747H35.772V21.5708H47.8228V28.9927H26.0454ZM49.3032 28.9927V0.555176H59.3813V21.3364H69.772V28.9927H49.3032ZM70.8813 28.9927V0.555176H91.3306V8.19189H80.9595V12.0396H90.022V19.1099H80.9595V28.9927H70.8813ZM91.8149 20.6138V12.8599H105.252V20.6138H91.8149ZM106.206 15.5942V13.9536C106.206 9.09684 107.436 5.57471 109.897 3.38721C112.358 1.18669 115.633 0.0864258 119.721 0.0864258C123.484 0.0864258 126.472 0.952311 128.686 2.68408C130.913 4.40283 132.026 6.97445 132.026 10.3989V12.3521H122.358V9.63721C122.358 8.71273 122.143 8.04215 121.713 7.62549C121.284 7.1958 120.646 6.98096 119.799 6.98096C118.888 6.98096 118.172 7.28044 117.651 7.87939C117.143 8.46533 116.889 9.5721 116.889 11.1997V18.3677C116.889 19.9562 117.13 21.076 117.612 21.7271C118.107 22.3651 118.862 22.6841 119.877 22.6841C120.724 22.6841 121.349 22.4237 121.752 21.9028C122.156 21.369 122.358 20.5291 122.358 19.3833V17.313H132.026V19.5786C132.039 22.6776 130.932 25.0994 128.706 26.8442C126.479 28.589 123.484 29.4614 119.721 29.4614C115.581 29.4614 112.293 28.3481 109.858 26.1216C107.423 23.882 106.206 20.3729 106.206 15.5942ZM133.018 17.645V0.555176H143.057V19.0122C143.057 20.4836 143.252 21.4601 143.643 21.9419C144.047 22.4106 144.607 22.645 145.323 22.645C146.052 22.645 146.612 22.4106 147.002 21.9419C147.406 21.4601 147.608 20.4836 147.608 19.0122V0.555176H157.549V17.645C157.549 21.7466 156.436 24.7414 154.209 26.6294C151.983 28.5174 149.047 29.4614 145.401 29.4614C141.625 29.4614 138.617 28.5174 136.377 26.6294C134.138 24.7414 133.018 21.7466 133.018 17.645ZM158.561 21.0435V19.6763H168.053V20.3403C168.053 21.1997 168.281 21.8377 168.737 22.2544C169.206 22.6711 169.857 22.8794 170.69 22.8794C171.458 22.8794 172.051 22.7297 172.467 22.4302C172.897 22.1307 173.112 21.7075 173.112 21.1606C173.112 20.5096 172.897 20.0213 172.467 19.6958C172.051 19.3703 170.664 18.8885 168.307 18.2505C165.325 17.4302 162.995 16.3299 161.315 14.9497C159.635 13.5695 158.789 11.6164 158.776 9.09033C158.776 6.19971 159.857 3.97965 162.018 2.43018C164.18 0.880697 166.986 0.105957 170.436 0.105957C173.9 0.105957 176.712 0.822103 178.874 2.25439C181.048 3.67367 182.135 5.67887 182.135 8.27002V9.44189H172.838V8.91455C172.838 8.27653 172.65 7.77523 172.272 7.41064C171.894 7.04606 171.341 6.86377 170.612 6.86377C169.87 6.86377 169.329 6.99398 168.991 7.25439C168.652 7.50179 168.483 7.84033 168.483 8.27002C168.483 8.75179 168.698 9.09684 169.127 9.30518C169.57 9.51351 171.068 9.94971 173.62 10.6138C176.354 11.3299 178.561 12.3976 180.241 13.8169C181.92 15.2231 182.767 17.313 182.78 20.0864C182.78 23.1593 181.667 25.4901 179.44 27.0786C177.213 28.6672 174.336 29.4614 170.807 29.4614C167.305 29.4614 164.388 28.7648 162.057 27.3716C159.726 25.9784 158.561 23.869 158.561 21.0435ZM182.542 8.21143V0.555176H207.19V8.21143H199.983V28.9927H189.788V8.21143H182.542ZM207.245 15.5942V13.9536C207.245 9.20101 208.508 5.70492 211.034 3.46533C213.56 1.21273 216.789 0.0864258 220.721 0.0864258C224.653 0.0864258 227.889 1.21273 230.428 3.46533C232.967 5.70492 234.237 9.20101 234.237 13.9536V15.5942C234.237 20.3468 232.967 23.8494 230.428 26.1021C227.889 28.3416 224.653 29.4614 220.721 29.4614C216.789 29.4614 213.56 28.3416 211.034 26.1021C208.508 23.8494 207.245 20.3468 207.245 15.5942ZM217.733 18.27C217.733 19.9106 217.987 21.0565 218.495 21.7075C219.015 22.3586 219.758 22.6841 220.721 22.6841C221.685 22.6841 222.427 22.3586 222.948 21.7075C223.482 21.0565 223.749 19.9106 223.749 18.27V11.3169C223.749 9.68929 223.482 8.56299 222.948 7.93799C222.427 7.29997 221.685 6.98096 220.721 6.98096C219.758 6.98096 219.015 7.29997 218.495 7.93799C217.987 8.56299 217.733 9.68929 217.733 11.3169V18.27ZM235.952 28.9927V0.555176H248.159C252.091 0.555176 255.249 1.70752 257.631 4.01221C260.027 6.31689 261.225 9.61117 261.225 13.895V15.5356C261.225 19.8065 260.021 23.1203 257.612 25.4771C255.203 27.8208 252.052 28.9927 248.159 28.9927H235.952ZM245.795 22.1958H247.319C248.413 22.1958 249.305 21.7791 249.995 20.9458C250.685 20.1125 251.03 18.6997 251.03 16.7075V12.8794C251.03 10.8612 250.691 9.47445 250.014 8.71924C249.337 7.96403 248.439 7.58643 247.319 7.58643H245.795V22.1958ZM262.881 28.9927V0.555176H273.077V28.9927H262.881ZM273.034 28.9927L282.956 0.516113H293.952L303.834 28.9927H293.581L288.463 12.7231C288.307 12.2284 288.19 11.7856 288.112 11.395C288.034 10.9914 287.975 10.6789 287.936 10.4575H287.858C287.832 10.6789 287.773 10.9914 287.682 11.395C287.591 11.7856 287.48 12.2284 287.35 12.7231L282.487 28.9927H273.034ZM280.163 24.9497L281.608 18.3677H294.616L296.159 24.9497H280.163ZM303.811 28.9927V0.555176H313.889V21.3364H324.28V28.9927H303.811ZM335.327 28.9927V0.555176H349.292C352.638 0.555176 355.112 1.20622 356.713 2.5083C358.328 3.81038 359.135 5.61377 359.135 7.91846C359.135 9.49398 358.797 10.8026 358.12 11.8442C357.443 12.8859 356.557 13.6086 355.463 14.0122V14.0903C356.805 14.4289 357.931 15.145 358.842 16.2388C359.767 17.3195 360.229 18.8625 360.229 20.8677C360.229 23.4067 359.278 25.3989 357.377 26.8442C355.476 28.2765 352.905 28.9927 349.663 28.9927H335.327ZM345.17 22.645H347.612C348.432 22.645 349.044 22.3976 349.448 21.9028C349.864 21.395 350.073 20.7244 350.073 19.8911C350.073 19.0968 349.864 18.4523 349.448 17.9575C349.044 17.4497 348.432 17.1958 347.612 17.1958H345.17V22.645ZM345.17 12.0981H347.319C348.087 12.0981 348.64 11.8833 348.979 11.4536C349.318 11.0109 349.487 10.4054 349.487 9.63721C349.487 8.85596 349.318 8.25049 348.979 7.8208C348.64 7.37809 348.087 7.15674 347.319 7.15674H345.17V12.0981ZM367.92 28.9927V18.856L358.467 0.555176H369.424L372.999 7.78174C373.129 8.05518 373.239 8.3221 373.331 8.58252C373.422 8.82992 373.513 9.09033 373.604 9.36377H373.702C373.793 9.09033 373.877 8.82992 373.956 8.58252C374.047 8.3221 374.164 8.05518 374.307 7.78174L377.881 0.555176H387.315L378.116 18.563V28.9927H367.92ZM396.936 28.9927V0.555176H409.143C413.075 0.555176 416.233 1.70752 418.616 4.01221C421.012 6.31689 422.209 9.61117 422.209 13.895V15.5356C422.209 19.8065 421.005 23.1203 418.596 25.4771C416.187 27.8208 413.036 28.9927 409.143 28.9927H396.936ZM406.78 22.1958H408.303C409.397 22.1958 410.289 21.7791 410.979 20.9458C411.669 20.1125 412.014 18.6997 412.014 16.7075V12.8794C412.014 10.8612 411.676 9.47445 410.999 8.71924C410.321 7.96403 409.423 7.58643 408.303 7.58643H406.78V22.1958ZM423.944 28.9927V0.555176H445.409V8.21143H433.67V11.1997H443.788V18.0747H433.67V21.5708H445.721V28.9927H423.944ZM446.186 21.0435V19.6763H455.678V20.3403C455.678 21.1997 455.906 21.8377 456.362 22.2544C456.831 22.6711 457.482 22.8794 458.315 22.8794C459.083 22.8794 459.676 22.7297 460.092 22.4302C460.522 22.1307 460.737 21.7075 460.737 21.1606C460.737 20.5096 460.522 20.0213 460.092 19.6958C459.676 19.3703 458.289 18.8885 455.932 18.2505C452.95 17.4302 450.62 16.3299 448.94 14.9497C447.26 13.5695 446.414 11.6164 446.401 9.09033C446.401 6.19971 447.482 3.97965 449.643 2.43018C451.805 0.880697 454.611 0.105957 458.061 0.105957C461.525 0.105957 464.337 0.822103 466.499 2.25439C468.673 3.67367 469.76 5.67887 469.76 8.27002V9.44189H460.463V8.91455C460.463 8.27653 460.275 7.77523 459.897 7.41064C459.519 7.04606 458.966 6.86377 458.237 6.86377C457.495 6.86377 456.954 6.99398 456.616 7.25439C456.277 7.50179 456.108 7.84033 456.108 8.27002C456.108 8.75179 456.323 9.09684 456.752 9.30518C457.195 9.51351 458.693 9.94971 461.245 10.6138C463.979 11.3299 466.186 12.3976 467.866 13.8169C469.545 15.2231 470.392 17.313 470.405 20.0864C470.405 23.1593 469.292 25.4901 467.065 27.0786C464.838 28.6672 461.961 29.4614 458.432 29.4614C454.93 29.4614 452.013 28.7648 449.682 27.3716C447.351 25.9784 446.186 23.869 446.186 21.0435ZM471.67 28.9927V0.555176H481.866V28.9927H471.67ZM483.542 15.5942V13.9536C483.542 9.26611 484.792 5.78304 487.292 3.50439C489.792 1.22575 493.131 0.0864258 497.311 0.0864258C501.087 0.0864258 504.023 0.945801 506.12 2.66455C508.216 4.3833 509.225 6.66195 509.147 9.50049V10.3403H499.499V9.94971C499.499 8.97314 499.29 8.27653 498.874 7.85986C498.457 7.43018 497.786 7.21533 496.862 7.21533C495.976 7.21533 495.273 7.5083 494.752 8.09424C494.245 8.66715 493.991 9.79346 493.991 11.4731V18.2114C493.991 19.839 494.303 20.9784 494.928 21.6294C495.553 22.2804 496.374 22.606 497.389 22.606C497.871 22.606 498.275 22.5474 498.6 22.4302C498.939 22.313 499.277 22.1242 499.616 21.8638V19.3442H497.038V12.7427L509.245 12.7036V24.9888C508.294 26.0565 506.842 27.0721 504.889 28.0356C502.949 28.9862 500.423 29.4614 497.311 29.4614C493.131 29.4614 489.792 28.3221 487.292 26.0435C484.792 23.7648 483.542 20.2817 483.542 15.5942ZM510.764 28.9927V0.555176H520.999L525.725 12.0786C525.881 12.4953 526.025 12.925 526.155 13.3677C526.285 13.8104 526.402 14.2596 526.506 14.7153H526.643C526.617 14.2466 526.604 13.8169 526.604 13.4263C526.617 13.0226 526.624 12.5864 526.624 12.1177V0.555176H534.963V28.9927H524.788L519.924 17.5083C519.768 17.1047 519.625 16.6945 519.495 16.2778C519.377 15.8612 519.267 15.425 519.163 14.9692H519.026C519.065 15.438 519.084 15.8481 519.084 16.1997C519.097 16.5513 519.104 16.9614 519.104 17.4302V28.9927H510.764Z" fill="black"/>
</svg>
