<?xml version="1.0" encoding="utf-8"?>
<!-- Generator: Adobe Illustrator 27.5.0, SVG Export Plug-In . SVG Version: 6.00 Build 0)  -->
<svg version="1.1" id="Layer_1" xmlns="http://www.w3.org/2000/svg" xmlns:xlink="http://www.w3.org/1999/xlink" x="0px" y="0px"
	 viewBox="0 0 1000 1000" style="enable-background:new 0 0 1000 1000;" xml:space="preserve">
<style type="text/css">
	.st0{fill:#F7E369;}
	.st1{fill:#F55C3C;}
	.st2{fill:#FFD939;}
	.st3{fill:#E26B00;}
	.st4{fill:#EA5467;}
	.st5{fill:#F9C0E1;}
	.st6{fill:#FFFFFF;}
	.st7{fill:#FCC5F5;}
	.st8{fill:#7346AE;}
	.st9{fill:#F232A0;}
	.st10{fill:#EDB5D8;}
	.st11{fill:#F7313D;}
	.st12{fill:#F9EAA2;}
	.st13{fill:#F8A4CB;}
	.st14{fill:#F19EF8;}
	.st15{fill:#8867CE;}
	.st16{fill:#3E6FD5;}
	.st17{fill:#FAF2E9;}
	.st18{fill:#663A92;}
	.st19{fill:#FF8D3D;}
	.st20{fill:#FADF46;}
	.st21{fill:#7903EA;}
	.st22{fill:#CEA7F2;}
	.st23{fill:#FDFEFC;}
	.st24{fill:#FF4C37;}
	.st25{fill:#FFCAC1;}
	.st26{fill:#E8C93D;}
	.st27{fill:#29864D;}
	.st28{fill:#F8F8F0;}
	.st29{fill:#F7851E;}
	.st30{fill:#F9F946;}
	.st31{fill:#F8862F;}
	.st32{fill:#FFE2D8;}
	.st33{fill:#4A89E5;}
	.st34{fill:#F97AC5;}
	.st35{fill:#FDFFFF;}
	.st36{fill:#F2C3B3;}
	.st37{fill:#F13830;}
	.st38{fill:#E2D25D;}
	.st39{fill:#F36525;}
	.st40{fill:#FFDCD7;}
	.st41{fill:#FB4321;}
	.st42{clip-path:url(#SVGID_00000170975637599196312210000000259019753698182546_);}
	.st43{fill:#3A3A3A;}
	.st44{fill:#2B2B2B;}
	.st45{fill:#5BAA41;}
	.st46{fill:#F277B4;}
	.st47{fill:#EEE5BE;}
	.st48{fill:#FDCA06;}
	.st49{fill:#EF7807;}
	.st50{fill:#CBF0E1;}
	.st51{fill:#56906A;}
	.st52{fill:#FFF8D9;}
	.st53{fill:#FFBC15;}
	.st54{fill:#28282B;}
	.st55{fill:#EF354C;}
	.st56{fill:#F39FC7;}
	.st57{fill:#F9AB4E;}
	.st58{fill:#EFFF7B;}
	.st59{fill:#50C096;}
	.st60{fill:#DBFAF0;}
	.st61{fill:#FFF8F8;}
	.st62{fill:#84322C;}
	.st63{fill:#F1F1F1;}
	.st64{fill:#F20000;}
	.st65{fill:#FFFA57;}
	.st66{fill:#3BBCF4;}
	.st67{fill:#EFF784;}
	.st68{fill:#F46CAD;}
	.st69{fill:#ECDED1;}
	.st70{fill:#398FAA;}
	.st71{fill:#FB5229;}
	.st72{fill:#FFDFD8;}
	.st73{fill:#EE4933;}
	.st74{fill:#8021E2;}
	.st75{fill:#D0B6F0;}
	.st76{fill:#418ADF;}
	.st77{fill:#E6F1FF;}
	.st78{fill:#FF6A36;}
	.st79{fill:#F9C77D;}
	.st80{fill:#6E579F;}
	.st81{fill:#FBB9F0;}
	.st82{fill:#EF4C23;}
	.st83{fill:#FFC7E7;}
	.st84{fill:#DAF1F7;}
	.st85{fill:#5353F9;}
	.st86{fill:#FF56C8;}
	.st87{fill:#FCF0FC;}
	.st88{fill:#E5B9FF;}
	.st89{fill:#7C63E5;}
	.st90{fill:#E8CA47;}
	.st91{fill:#DD2F5E;}
	.st92{fill:#DBC0FF;}
	.st93{fill:#844FDC;}
	.st94{fill:#E9F98F;}
	.st95{fill:#E8AD85;}
</style>
<g>
	<path class="st7" d="M500,797.58c-79.45,0-154.18-30.95-210.42-87.16c-56.2-56.2-87.15-130.93-87.15-210.43
		c0-79.48,30.95-154.2,87.14-210.4c56.21-56.21,130.94-87.17,210.43-87.17c79.5,0,154.22,30.96,210.41,87.18
		c56.2,56.17,87.16,130.89,87.16,210.39c0,79.52-30.96,154.25-87.17,210.43C654.19,766.62,579.47,797.58,500,797.58z"/>
	<g>
		<g>
			<g>
				<g>
					<path class="st46" d="M679.04,320.95c-47.82-47.84-111.4-74.18-179.04-74.18c-67.64,0-131.22,26.33-179.06,74.18
						c-47.82,47.82-74.15,111.4-74.15,179.04s26.33,131.25,74.15,179.06c47.84,47.82,111.43,74.18,179.06,74.18
						c67.63,0,131.22-26.36,179.04-74.18c47.84-47.82,74.18-111.43,74.18-179.06S726.88,368.76,679.04,320.95z M500,723.65
						c-123.32,0-223.66-100.32-223.66-223.66c0-123.32,100.34-223.64,223.66-223.64c123.32,0,223.66,100.32,223.66,223.64
						C723.67,623.34,623.32,723.65,500,723.65z"/>
				</g>
			</g>
			<g>
				<g>
					<path class="st46" d="M500.59,662.91c-50.32,0-99.87-20-135.92-56.9c-27.52-28.18-45.89-65.04-51.72-103.81
						c-1.21-8.07,4.35-15.6,12.42-16.81c8.07-1.22,15.6,4.35,16.81,12.42c4.92,32.69,20.41,63.78,43.64,87.55
						c42.43,43.44,107.05,59.12,164.63,39.95c56.4-18.77,98.54-68.82,107.37-127.51c1.21-8.07,8.75-13.63,16.81-12.42
						c8.07,1.21,13.63,8.74,12.42,16.81c-10.46,69.57-60.42,128.91-127.26,151.16C540.46,659.78,520.46,662.91,500.59,662.91z"/>
				</g>
			</g>
			<g>
				<g>
					<g>
						<circle class="st46" cx="409.19" cy="419.44" r="29.88"/>
					</g>
				</g>
			</g>
			<g>
				<g>
					<g>
						<circle class="st46" cx="598.14" cy="419.44" r="29.88"/>
					</g>
				</g>
			</g>
		</g>
	</g>
</g>
</svg>
