<?xml version="1.0" encoding="utf-8"?>
<!-- Generator: Adobe Illustrator 27.5.0, SVG Export Plug-In . SVG Version: 6.00 Build 0)  -->
<svg version="1.1" id="Layer_1" xmlns="http://www.w3.org/2000/svg" xmlns:xlink="http://www.w3.org/1999/xlink" x="0px" y="0px"
	 viewBox="0 0 1000 1000" style="enable-background:new 0 0 1000 1000;" xml:space="preserve">
<style type="text/css">
	.st0{fill:#F7E369;}
	.st1{fill:#F55C3C;}
	.st2{fill:#FFD939;}
	.st3{fill:#E26B00;}
	.st4{fill:#EA5467;}
	.st5{fill:#F9C0E1;}
	.st6{fill:#FFFFFF;}
	.st7{fill:#FCC5F5;}
	.st8{fill:#7346AE;}
	.st9{fill:#F232A0;}
	.st10{fill:#EDB5D8;}
	.st11{fill:#F7313D;}
	.st12{fill:#F9EAA2;}
	.st13{fill:#F8A4CB;}
	.st14{fill:#F19EF8;}
	.st15{fill:#8867CE;}
	.st16{fill:#3E6FD5;}
	.st17{fill:#FAF2E9;}
	.st18{fill:#663A92;}
	.st19{fill:#FF8D3D;}
	.st20{fill:#FADF46;}
	.st21{fill:#7903EA;}
	.st22{fill:#CEA7F2;}
	.st23{fill:#FDFEFC;}
	.st24{fill:#FF4C37;}
	.st25{fill:#FFCAC1;}
	.st26{fill:#E8C93D;}
	.st27{fill:#29864D;}
	.st28{fill:#F8F8F0;}
	.st29{fill:#F7851E;}
	.st30{fill:#F9F946;}
	.st31{fill:#F8862F;}
	.st32{fill:#FFE2D8;}
	.st33{fill:#4A89E5;}
	.st34{fill:#F97AC5;}
	.st35{fill:#FDFFFF;}
	.st36{fill:#F2C3B3;}
	.st37{fill:#F13830;}
	.st38{fill:#E2D25D;}
	.st39{fill:#F36525;}
	.st40{fill:#FFDCD7;}
	.st41{fill:#FB4321;}
	.st42{clip-path:url(#SVGID_00000085252245990734770920000005516461679602618520_);}
	.st43{fill:#3A3A3A;}
	.st44{fill:#2B2B2B;}
	.st45{fill:#5BAA41;}
	.st46{fill:#F277B4;}
	.st47{fill:#EEE5BE;}
	.st48{fill:#FDCA06;}
	.st49{fill:#EF7807;}
	.st50{fill:#CBF0E1;}
	.st51{fill:#56906A;}
	.st52{fill:#FFF8D9;}
	.st53{fill:#FFBC15;}
	.st54{fill:#28282B;}
	.st55{fill:#EF354C;}
	.st56{fill:#F39FC7;}
	.st57{fill:#F9AB4E;}
	.st58{fill:#EFFF7B;}
	.st59{fill:#50C096;}
	.st60{fill:#DBFAF0;}
	.st61{fill:#FFF8F8;}
	.st62{fill:#84322C;}
	.st63{fill:#F1F1F1;}
	.st64{fill:#F20000;}
	.st65{fill:#FFFA57;}
	.st66{fill:#3BBCF4;}
	.st67{fill:#EFF784;}
	.st68{fill:#F46CAD;}
	.st69{fill:#ECDED1;}
	.st70{fill:#398FAA;}
	.st71{fill:#FB5229;}
	.st72{fill:#FFDFD8;}
	.st73{fill:#EE4933;}
	.st74{fill:#8021E2;}
	.st75{fill:#D0B6F0;}
	.st76{fill:#418ADF;}
	.st77{fill:#E6F1FF;}
	.st78{fill:#FF6A36;}
	.st79{fill:#F9C77D;}
	.st80{fill:#6E579F;}
	.st81{fill:#FBB9F0;}
	.st82{fill:#EF4C23;}
	.st83{fill:#FFC7E7;}
	.st84{fill:#DAF1F7;}
	.st85{fill:#5353F9;}
	.st86{fill:#FF56C8;}
	.st87{fill:#FCF0FC;}
	.st88{fill:#E5B9FF;}
	.st89{fill:#7C63E5;}
	.st90{fill:#E8CA47;}
	.st91{fill:#DD2F5E;}
	.st92{fill:#DBC0FF;}
	.st93{fill:#844FDC;}
	.st94{fill:#E9F98F;}
	.st95{fill:#E8AD85;}
</style>
<g>
	<path class="st94" d="M506.83,843.44c-10.93,0-21.66-4.4-29.44-12.07l-46.91-46.33l-62.78,19.51c-4.05,1.29-8.28,1.94-12.56,1.94
		c-6.95,0-13.85-1.74-19.96-5.05c-10.01-5.39-17.5-14.81-20.52-25.82l-17.35-63.54l-64.23-14.45c-11.19-2.55-20.91-9.59-26.76-19.31
		c-5.83-9.69-7.5-21.5-4.58-32.41l16.65-63.56l-48.36-44.71c-8.32-7.74-13.2-18.58-13.46-29.82c-0.28-11.25,4.08-22.32,11.97-30.38
		l46.41-46.95l-19.54-62.84c-3.38-10.73-2.24-22.56,3.12-32.49c5.46-10,14.78-17.42,25.63-20.46c0.07-0.02,63.74-17.4,63.74-17.4
		l14.45-64.22c2.56-11.15,9.55-20.83,19.2-26.67c6.51-3.96,14.05-6.07,21.76-6.07c3.55,0,7.1,0.45,10.53,1.34l63.8,16.71
		l44.72-48.37c7.77-8.35,18.66-13.24,29.93-13.47c0.1,0,0.63-0.01,0.74-0.01c11.02,0,21.8,4.4,29.58,12.07l46.89,46.34l62.91-19.57
		c4.07-1.26,8.24-1.88,12.44-1.88c7.12,0,14.15,1.82,20.35,5.26c9.84,5.41,17.22,14.82,20.16,25.77l17.32,63.37l64.22,14.45
		c10.98,2.47,20.66,9.4,26.57,19.01c0.04,0.06,0.07,0.12,0.11,0.17c5.83,9.62,7.55,21.39,4.73,32.28l-16.72,63.84l48.36,44.69
		c8.33,7.75,13.2,18.6,13.46,29.84c0.27,11.24-4.09,22.3-11.96,30.35c-0.1,0.1-46.42,46.97-46.42,46.97l19.56,62.9
		c3.35,10.89,2.15,22.76-3.29,32.66c-5.33,9.8-14.69,17.23-25.61,20.25l-63.61,17.37l-14.44,64.13
		c-2.45,11.13-9.46,20.89-19.26,26.8c-6.47,3.93-14.01,6.04-21.7,6.04c-3.63,0-7.25-0.47-10.76-1.4l-63.58-16.66l-44.71,48.37
		c-7.77,8.35-18.65,13.23-29.91,13.46c-0.21,0-0.41,0.01-0.62,0.01H506.83z"/>
	<g>
		<g>
			<path class="st95" d="M809.66,484.32l-61.54-56.87l21.24-81.12c0.81-3.14,0.32-6.52-1.36-9.29c-1.69-2.76-4.47-4.77-7.64-5.48
				l-81.77-18.4l-22.09-80.81c-0.83-3.14-2.96-5.85-5.8-7.41c-2.84-1.58-6.27-1.93-9.39-0.96l-80.06,24.9l-59.63-58.93
				c-2.31-2.28-5.57-3.49-8.71-3.46c-3.24,0.07-6.35,1.48-8.58,3.87l-56.91,61.54l-81.09-21.24c-3.14-0.81-6.53-0.32-9.29,1.36
				c-2.78,1.68-4.77,4.45-5.5,7.65l-18.4,81.77l-80.89,22.09c-3.14,0.88-5.83,3.02-7.4,5.88c-1.55,2.86-1.86,6.28-0.9,9.31
				l24.9,80.06l-58.93,59.62c-2.26,2.31-3.52,5.5-3.44,8.73c0.07,3.24,1.46,6.35,3.86,8.58l61.54,56.89l-21.22,81.02
				c-0.85,3.12-0.37,6.53,1.31,9.32c1.68,2.79,4.47,4.8,7.68,5.53l81.79,18.4l22.09,80.89c0.86,3.16,3.01,5.85,5.88,7.4
				c2.86,1.55,6.27,1.88,9.29,0.9l80.04-24.88l59.65,58.92c2.24,2.21,5.3,3.46,8.44,3.46h0.28c3.22-0.07,6.35-1.48,8.56-3.86
				l56.89-61.56l81.02,21.22c3.16,0.85,6.57,0.37,9.36-1.33c2.81-1.7,4.82-4.5,5.5-7.66l18.42-81.77l80.87-22.09
				c3.12-0.86,5.82-2.98,7.36-5.82c1.56-2.84,1.91-6.25,0.95-9.37l-24.9-80.04l58.92-59.62l0.02-0.02c2.26-2.31,3.52-5.48,3.44-8.73
				C813.45,489.65,812.06,486.55,809.66,484.32z M735.54,551.05c-3.14,3.16-4.29,7.78-2.96,12.05l24.08,77.47l-78.3,21.37
				c-4.27,1.18-7.55,4.62-8.53,8.96l-17.82,79.13l-78.48-20.54c-4.34-1.11-8.89,0.22-11.87,3.47l-55.05,59.57l-57.67-56.97
				c-2.29-2.28-5.33-3.51-8.48-3.51c-1.2,0-2.41,0.18-3.59,0.53l-77.45,24.1l-21.37-78.25c-1.16-4.3-4.6-7.58-8.98-8.58l-79.13-17.8
				l20.56-78.48c1.11-4.32-0.23-8.89-3.49-11.88l-59.55-55.06l57.11-57.79c3.02-3.17,4.12-7.73,2.82-11.93l-24.08-77.47l78.28-21.37
				c4.27-1.18,7.55-4.62,8.54-8.96l17.8-79.14l78.5,20.58c4.32,1.1,8.88-0.23,11.85-3.49l55.06-59.57l57.65,56.99
				c3.16,3.14,7.78,4.27,12.08,2.96l77.43-24.08l21.39,78.25c1.18,4.29,4.59,7.56,8.96,8.58l79.14,17.8l-20.56,78.48
				c-1.11,4.27,0.22,8.81,3.49,11.88l59.55,55.05L735.54,551.05z"/>
		</g>
		<g>
			<path class="st95" d="M509.04,623.62c-36.85,1.12-72.82-12.45-99.72-37.66c-26.94-25.25-42.53-59.34-44.04-96.08
				c-0.06-1.44,1.06-2.66,2.51-2.7l13.34-0.3c1.39-0.03,2.56,1.05,2.62,2.45c2.82,65.59,57.82,117.34,123.76,115.85
				c65.94-1.49,118.53-55.68,118.38-121.34c0-1.39,1.11-2.53,2.51-2.56l13.34-0.3c1.44-0.03,2.62,1.13,2.63,2.57
				c0.16,36.31-13.52,70.66-38.68,96.99C580.19,607.22,545.9,622.5,509.04,623.62z"/>
		</g>
		<g>
			<path class="st95" d="M547.13,525.56l-65.01,1.47c-1.42,0.03-2.59-1.09-2.63-2.51l-0.3-13.34c-0.03-1.42,1.09-2.59,2.51-2.63
				l41.51-0.94l-33.97-70.9c-0.61-1.28-0.07-2.81,1.21-3.43l12.03-5.76c1.28-0.61,2.81-0.07,3.43,1.21l44.13,92.1
				C551.07,523,549.53,525.51,547.13,525.56z"/>
		</g>
		<g>
			<g>
				
					<ellipse transform="matrix(0.9997 -0.0227 0.0227 0.9997 -10.0551 9.8501)" class="st95" cx="429.71" cy="448.71" rx="24.31" ry="24.31"/>
			</g>
			<g>
				
					<ellipse transform="matrix(0.9997 -0.0227 0.0227 0.9997 -9.9408 13.212)" class="st95" cx="578.15" cy="445.35" rx="24.31" ry="24.31"/>
			</g>
		</g>
	</g>
</g>
</svg>
