<?xml version="1.0" encoding="utf-8"?>
<!-- Generator: Adobe Illustrator 27.5.0, SVG Export Plug-In . SVG Version: 6.00 Build 0)  -->
<svg version="1.1" id="Layer_1" xmlns="http://www.w3.org/2000/svg" xmlns:xlink="http://www.w3.org/1999/xlink" x="0px" y="0px"
	 viewBox="0 0 1000 1000" style="enable-background:new 0 0 1000 1000;" xml:space="preserve">
<style type="text/css">
	.st0{fill:#F7E369;}
	.st1{fill:#F55C3C;}
	.st2{fill:#FFD939;}
	.st3{fill:#E26B00;}
	.st4{fill:#EA5467;}
	.st5{fill:#F9C0E1;}
	.st6{fill:#FFFFFF;}
	.st7{fill:#FCC5F5;}
	.st8{fill:#7346AE;}
	.st9{fill:#F232A0;}
	.st10{fill:#EDB5D8;}
	.st11{fill:#F7313D;}
	.st12{fill:#F9EAA2;}
	.st13{fill:#F8A4CB;}
	.st14{fill:#F19EF8;}
	.st15{fill:#8867CE;}
	.st16{fill:#3E6FD5;}
	.st17{fill:#FAF2E9;}
	.st18{fill:#663A92;}
	.st19{fill:#FF8D3D;}
	.st20{fill:#FADF46;}
	.st21{fill:#7903EA;}
	.st22{fill:#CEA7F2;}
	.st23{fill:#FDFEFC;}
	.st24{fill:#FF4C37;}
	.st25{fill:#FFCAC1;}
	.st26{fill:#E8C93D;}
	.st27{fill:#29864D;}
	.st28{fill:#F8F8F0;}
	.st29{fill:#F7851E;}
	.st30{fill:#F9F946;}
	.st31{fill:#F8862F;}
	.st32{fill:#FFE2D8;}
	.st33{fill:#4A89E5;}
	.st34{fill:#F97AC5;}
	.st35{fill:#FDFFFF;}
	.st36{fill:#F2C3B3;}
	.st37{fill:#F13830;}
	.st38{fill:#E2D25D;}
	.st39{fill:#F36525;}
	.st40{fill:#FFDCD7;}
	.st41{fill:#FB4321;}
	.st42{clip-path:url(#SVGID_00000091716844896595503520000009062177797796956044_);}
	.st43{fill:#3A3A3A;}
	.st44{fill:#2B2B2B;}
	.st45{fill:#5BAA41;}
	.st46{fill:#F277B4;}
	.st47{fill:#EEE5BE;}
	.st48{fill:#FDCA06;}
	.st49{fill:#EF7807;}
	.st50{fill:#CBF0E1;}
	.st51{fill:#56906A;}
	.st52{fill:#FFF8D9;}
	.st53{fill:#FFBC15;}
	.st54{fill:#28282B;}
	.st55{fill:#EF354C;}
	.st56{fill:#F39FC7;}
	.st57{fill:#F9AB4E;}
	.st58{fill:#EFFF7B;}
	.st59{fill:#50C096;}
	.st60{fill:#DBFAF0;}
	.st61{fill:#FFF8F8;}
	.st62{fill:#84322C;}
	.st63{fill:#F1F1F1;}
	.st64{fill:#F20000;}
	.st65{fill:#FFFA57;}
	.st66{fill:#3BBCF4;}
	.st67{fill:#EFF784;}
	.st68{fill:#F46CAD;}
	.st69{fill:#ECDED1;}
	.st70{fill:#398FAA;}
	.st71{fill:#FB5229;}
	.st72{fill:#FFDFD8;}
	.st73{fill:#EE4933;}
	.st74{fill:#8021E2;}
	.st75{fill:#D0B6F0;}
	.st76{fill:#418ADF;}
	.st77{fill:#E6F1FF;}
	.st78{fill:#FF6A36;}
	.st79{fill:#F9C77D;}
	.st80{fill:#6E579F;}
	.st81{fill:#FBB9F0;}
	.st82{fill:#EF4C23;}
	.st83{fill:#FFC7E7;}
	.st84{fill:#DAF1F7;}
	.st85{fill:#5353F9;}
	.st86{fill:#FF56C8;}
	.st87{fill:#FCF0FC;}
	.st88{fill:#E5B9FF;}
	.st89{fill:#7C63E5;}
	.st90{fill:#E8CA47;}
	.st91{fill:#DD2F5E;}
	.st92{fill:#DBC0FF;}
	.st93{fill:#844FDC;}
	.st94{fill:#E9F98F;}
	.st95{fill:#E8AD85;}
</style>
<g>
	<path class="st90" d="M617.09,490.15c-1.61-0.9-1.61-3.19,0-4.1c32.35-18.18,54.26-52.84,54.26-92.52
		c0-57.36-45.77-104.23-102.71-106c-1.57-0.05-2.65-1.6-2.14-3.09c2.13-6.22,3.87-12.99,4.92-20.34c3.1-21.7-3.06-42.73-17.36-59.21
		c-15.32-17.66-38.12-27.79-62.54-27.79c-17.31,0-33.68,5.12-47.44,14.81c-20.95,14.26-32.38,33.19-41.6,48.45
		c-1.39,2.3-2.7,4.48-4.01,6.57c-2.27,3.63-4.49,7.25-6.59,10.78c-43.14,72.54-63.23,149.07-63.23,240.84
		c0,84.59,18.01,156.85,56.66,227.42c2.04,3.73,4.14,7.44,6.23,11.03c2.03,3.55,4.21,7.09,6.67,10.83c2.03,3.09,4.23,6.27,6.72,9.72
		c1.02,1.42,2.12,2.78,3.25,4.1c0.79,0.93,1.62,1.93,2.45,2.98c4.43,5.87,9.27,12.95,15.2,22.25c0.37,0.57,0.74,1.14,1.13,1.7
		c5.8,8.38,12.96,15.36,21.31,20.76c13.55,8.87,29.37,13.56,45.78,13.56c30.41,0,58.2-16.02,72.53-41.81
		c0.38-0.69,0.75-1.39,1.11-2.1c6.94-13.88,13.15-36.19,3.31-63.67c-3.19-8.9-7.48-16.63-11.53-23.08c-1-1.59,0.18-3.65,2.06-3.58
		c1.25,0.04,2.51,0.07,3.77,0.07c58.48,0,106.05-47.57,106.05-106.05C671.34,542.98,649.44,508.33,617.09,490.15z"/>
	<path class="st91" d="M471.95,757.45c-5.7-8.93-11.7-17.94-18.03-26.28c-1.47-1.86-2.97-3.7-4.53-5.51
		c-1.89-2.63-3.73-5.26-5.48-7.93c-1.75-2.66-3.42-5.35-4.97-8.08c-1.95-3.34-3.82-6.66-5.64-9.97
		c-34.5-62.99-49.94-126.48-49.94-201.14c0-81.21,17.1-148.23,55.54-212.88c1.92-3.23,3.9-6.46,5.94-9.72
		c9.41-15.07,16.91-30.08,30.41-39.08c16.5-12,45.01-1.5,42.01,19.51c-3,21.01-18.01,36.01-25.11,55.11
		c-1.41,3.24-2.78,6.48-4.11,9.72c-22.58,55.05-32.9,111.35-32.9,177.34c0,68.01,10.32,124.76,32.9,178.47
		c1.33,3.16,2.7,6.32,4.14,9.5c0.95,2.01,1.99,4,3.1,5.96c1.11,1.97,2.3,3.93,3.53,5.89c1.18,2.33,2.5,4.6,3.89,6.84
		c8.57,14.8,25.07,31.3,16.07,49.31c-7.5,13.5-27.01,18.01-40.66,8.96C475.78,761.99,473.72,760.01,471.95,757.45z"/>
	
		<ellipse transform="matrix(0.1602 -0.9871 0.9871 0.1602 86.2946 888.4902)" class="st91" cx="565.29" cy="393.53" rx="51.35" ry="51.35"/>
	
		<ellipse transform="matrix(0.1602 -0.9871 0.9871 0.1602 -100.3951 1047.3265)" class="st91" cx="565.29" cy="582.66" rx="51.35" ry="51.35"/>
</g>
</svg>
