<svg width="42" height="31" viewBox="0 0 42 31" fill="none" xmlns="http://www.w3.org/2000/svg">
<g clip-path="url(#clip0_73_430)">
<path d="M8.75958 1.16C8.71333 1.15109 8.66582 1.15109 8.61958 1.16C8.61958 1.25 8.69958 1.37 8.72958 1.46L8.99958 1.4C8.90958 1.4 8.99958 1.4 8.99958 1.46C7.99958 1.7 8.55958 2.03 8.46958 2.05C8.46958 2.53 8.12958 2.6 8.06958 3.05H8.39958C8.45958 3.2 8.10958 4.44 7.83958 4.46C7.27958 4.92 7.55958 5.72 6.98957 6.09C6.23957 7.09 6.29958 8.31 5.89958 9.44C5.74958 9.61 5.46958 9.8 5.62958 10.03H5.55958V10.19C5.47977 10.3446 5.43813 10.516 5.43813 10.69C5.43813 10.864 5.47977 11.0354 5.55958 11.19C5.36958 11.19 5.37957 11.51 5.19957 11.56C4.77373 12.5421 4.5493 13.5996 4.53958 14.67C4.53958 14.67 4.33958 14.67 4.33958 14.77L4.57958 14.83C4.12958 15.17 4.57958 15.76 4.04958 16.05L4.30958 16.24C4.04957 16.8 3.99958 17.45 3.99958 18.1L3.48958 18.84L3.59958 19.84L2.51958 20.11H1.17958L0.0695752 19.57C0.389575 19.4 -0.000424802 19.15 0.249575 19C0.639575 19 0.00957519 18.57 0.349575 18.56C0.529575 18.42 0.179575 18.26 0.149575 18.14C0.149575 18.19 0.489575 18.14 0.329575 18C0.329575 18 -0.0904248 17.79 0.0795752 17.71C0.249575 17.63 0.159575 17.45 0.199575 17.32H0.0495752C0.259575 16.83 0.0495752 16.2 0.419575 15.8C0.0595752 15.61 0.739575 15.95 0.419575 15.8L0.489575 15.63H0.449575C0.359575 15.51 -0.100425 15.32 0.319575 15.28C0.739575 15.24 0.219575 15.09 0.499575 15.21C0.0495752 14.64 0.919575 14.57 0.499575 13.96L0.569575 13.85H0.289575C0.519575 13.85 0.199575 13.55 0.439575 13.61C0.679575 13.67 0.599575 13.53 0.699575 13.49C0.579575 13.49 0.539575 13.49 0.529575 13.49C0.499823 13.4471 0.466361 13.407 0.429575 13.37C0.769575 13.22 0.429575 12.91 0.789575 12.83L0.609575 12.72C0.999575 12.55 0.379575 12.08 0.909575 12C0.909575 11.62 0.809575 11.37 0.759575 11C0.839575 10.83 0.759575 10.53 1.15958 10.53C1.42958 10.31 1.07958 10.08 1.15958 9.87C1.54958 10.02 1.27958 9.74 1.48958 9.73C1.12958 9.64 1.56958 9.6 1.28958 9.49H1.49958L1.65958 9.17C1.82958 9.23 1.65958 9.11 1.74958 9.08L1.56958 9L1.81958 9.1C1.88958 9.1 1.81958 9.1 1.81958 9.02H1.89958C2.03958 8.97 1.89958 8.85 1.70958 8.77C1.75958 8.77 1.89958 8.77 1.88958 8.77C1.87958 8.77 1.74958 8.71 1.67958 8.71C1.77958 8.71 1.92958 8.71 1.87958 8.56L1.99958 8.69C1.91958 8.59 2.23958 8.69 1.99958 8.46L1.64958 8.34L1.76958 8.49L1.48958 8.22C1.48958 8.22 1.57958 8.22 1.66958 8.22C1.54958 8.07 1.86958 8.22 1.60958 8.03L1.85958 8.09L1.62958 8C1.75958 8.07 1.99958 8.19 2.12958 8.1L2.20958 8L1.93958 7.94C2.05958 7.94 2.38958 8 2.14958 7.83L2.34958 7.89C2.45957 7.83 2.01958 7.75 2.20958 7.73L2.36958 7.81C2.36958 7.58 2.12958 7.32 2.44958 7.21H2.52958C2.62958 7.21 2.61958 7.04 2.60958 6.99V6.87H2.75958V6.74H2.86958C3.01958 6.68 2.98957 6.56 2.86958 6.44H2.75958C2.57305 6.33317 2.37924 6.23961 2.17958 6.16C2.17958 6.08 1.94958 6.03 2.12958 5.97C2.19913 6.03226 2.28668 6.07078 2.37958 6.08C2.27958 5.92 2.37958 6 2.10958 5.81C2.19706 5.88787 2.30077 5.94532 2.41318 5.97818C2.5256 6.01104 2.64392 6.01849 2.75958 6C2.82958 5.79 2.52958 5.65 2.75958 5.57H3.10958C3.17957 5.51 2.74958 5.34 2.91958 5.35C3.08958 5.36 2.75958 5.27 2.91958 5.16C3.07958 5.16 2.91958 5.06 2.99958 5L2.93958 4.87C2.63958 4.73 2.99958 4.78 3.02958 4.74L2.81958 4.7C2.94702 4.67875 3.06805 4.62906 3.17365 4.55462C3.27926 4.48018 3.36673 4.38289 3.42958 4.27C3.58958 4.27 3.56958 4.27 3.53958 4.13H3.42958C3.54701 4.06669 3.64909 3.97834 3.72858 3.8712C3.80807 3.76406 3.86304 3.64074 3.88958 3.51L3.73958 3.37C3.7902 3.41241 3.8499 3.44258 3.91407 3.45819C3.97823 3.4738 4.04513 3.47442 4.10958 3.46C4.10958 3.4 4.10958 3.26 4.16958 3.16H4.24958C4.20737 3.35623 4.15395 3.54988 4.08958 3.74L4.27958 3.82L4.46957 3.74L4.25958 3.6C4.56958 3.52 4.43958 3.36 4.51958 3.26C4.59958 3.16 4.51958 3.1 4.39958 3.04V3C4.54706 2.98806 4.69196 2.95436 4.82958 2.9V3.01L4.99958 3C5.14958 3 4.55958 2.79 5.04958 2.74H5.27958C5.08958 2.63 5.46957 2.56 5.65957 2.52L4.99958 2.42C5.07958 2.3 5.27957 2.21 5.21957 2.06C5.27487 2.07762 5.33428 2.07762 5.38958 2.06L5.32958 2H5.44957C5.35957 1.88 5.11958 1.81 4.90957 1.69H4.96957C4.66957 1.54 5.46957 1.42 5.38958 1.28C5.18958 1.28 5.30958 1.14 5.38958 1.28C5.33 1.26993 5.26915 1.26993 5.20958 1.28C5.20958 1.22 5.35958 1.28 5.56958 1.18C5.25958 1 5.59958 0.94 5.66958 0.83C5.73958 0.72 5.82958 0.83 5.80958 0.93H6.06958C6.06958 0.88 5.76958 0.93 5.90957 0.82C6.04957 0.71 6.17957 0.95 6.30958 0.82C6.43958 0.69 6.30958 0.54 6.48957 0.54C6.48957 0.46 7.37958 0.42 7.14958 0.23L7.28958 0.3C7.28958 0.3 7.36958 0.23 7.35958 0.18L7.27958 0C7.33958 0 7.50958 0.06 7.60958 0H7.51958C7.61958 0 7.76958 0 7.62958 0.07C7.98422 0.0754934 8.33873 0.0520827 8.68958 0C8.73211 0.0659197 8.76033 0.140042 8.77239 0.217563C8.78444 0.295084 8.78008 0.374274 8.75958 0.45H8.60958C8.74958 0.45 8.60958 0.59 8.85958 0.65C8.57958 0.69 8.99958 0.85 8.99958 1H8.79958L8.75958 1.16ZM18.4696 15.47V15.33C18.479 15.3256 18.4892 15.3232 18.4996 15.3232C18.51 15.3232 18.5202 15.3256 18.5296 15.33C18.4096 15.09 18.7196 14.98 18.8896 14.86C19.4596 13.93 19.5496 12.86 20.3796 12.04C20.9796 11.8 20.7796 11.04 21.3796 10.68C21.6496 10.68 22.0596 9.6 21.9996 9.45H21.6696C21.7696 9.01 22.1296 8.98 22.0996 8.54V8.59C22.1896 8.59 21.6096 8.21 22.6296 8.1H22.4196C22.4196 8 22.2796 7.89 22.2996 7.8H22.4396L22.4996 7.6H22.6996C22.6296 7.5 22.2596 7.32 22.5396 7.29C22.2596 7.2 22.4296 7.13 22.2896 7.08H22.4396C22.4697 6.93941 22.4447 6.79261 22.3696 6.67C22.0368 6.6968 21.7024 6.6968 21.3696 6.67C21.4996 6.59 21.3696 6.67 21.2596 6.6H21.3196C21.2096 6.6 21.0596 6.6 20.9896 6.6H21.0496C21.0496 6.6 21.1096 6.6 21.0496 6.66C21.0496 6.71 21.0496 6.74 20.9796 6.76L20.9996 6.84C21.2196 7.03 20.4196 6.98 20.3696 7.05C20.1596 7.05 20.3196 7.24 20.1796 7.28C20.0396 7.32 19.9496 7.28 19.7996 7.28C19.6496 7.28 19.9596 7.35 19.9496 7.39H19.7096C19.7096 7.32 19.6296 7.31 19.5696 7.29C19.5096 7.27 19.1696 7.38 19.4196 7.56C19.2196 7.56 19.1196 7.56 19.0696 7.56C19.1292 7.55047 19.19 7.55047 19.2496 7.56C19.3196 7.7 18.5496 7.7 18.8296 7.87H18.7696C18.9566 7.96493 19.1312 8.08247 19.2896 8.22H19.1796L19.2396 8.33C19.2095 8.32987 19.1798 8.3236 19.1523 8.31156C19.1248 8.29952 19.1001 8.28197 19.0796 8.26C19.1296 8.4 18.9396 8.46 18.8496 8.55L19.4996 8.77C19.3096 8.77 18.9496 8.77 19.1296 8.91H18.8996C18.4196 8.91 18.9896 9.12 18.8396 9.13H18.5696L18.6896 9C18.5467 9.01545 18.4025 9.01545 18.2596 9C18.3596 9.07 18.4096 9.15 18.3596 9.21C18.3096 9.27 18.3596 9.45 18.0896 9.46L18.2896 9.62H18.0996L17.9996 9.61C18.0696 9.51 18.1096 9.27 18.1796 9.13L18.0996 9.08C18.0996 9.17 18.0996 9.3 18.0296 9.34C17.9647 9.34208 17.9002 9.33072 17.8399 9.30663C17.7797 9.28253 17.7251 9.24623 17.6796 9.2L17.8196 9.35C17.6896 9.63 17.6896 9.63 17.3396 9.81H17.4396C17.4396 9.89 17.4396 9.98 17.3296 9.91C17.2567 9.99971 17.1631 10.0703 17.0568 10.1156C16.9505 10.1609 16.8347 10.1796 16.7196 10.17L16.9096 10.31C16.9096 10.31 16.5396 10.22 16.8096 10.39V10.52C16.8096 10.52 16.8696 10.66 16.7196 10.65C16.5696 10.71 16.8996 10.75 16.7196 10.81C16.5396 10.87 16.9596 11.01 16.8796 11.04L16.5496 10.94C16.3196 10.94 16.5996 11.14 16.5496 11.3C16.3203 11.2951 16.1018 11.202 15.9396 11.04C16.1696 11.26 16.0996 11.17 16.1696 11.34C16.0854 11.3081 16.01 11.2567 15.9496 11.19C15.7696 11.19 16.0196 11.3 15.9496 11.36C16.1333 11.468 16.3073 11.5918 16.4696 11.73H16.5496C16.6196 11.86 16.6396 11.96 16.4896 11.98L16.3696 12V12.11L16.2396 12V12.14C16.2396 12.14 16.2396 12.29 16.1396 12.3H16.0696C15.7496 12.3 15.9896 12.61 15.9196 12.79L15.7796 12.68C15.5996 12.68 16.0096 12.83 15.8896 12.86L15.6996 12.76C15.9196 12.96 15.6096 12.76 15.4896 12.76L15.7496 12.87L15.6496 12.92C15.5196 12.97 15.3096 12.8 15.1896 12.72L15.3496 12.89L15.1196 12.78C15.3496 12.96 15.0596 12.78 15.1196 12.95C15.0396 12.95 14.9996 12.87 14.9496 12.87L15.1896 13.17L15.0896 13.02L15.4096 13.2C15.5996 13.42 15.3096 13.29 15.4096 13.4L15.3396 13.31C15.3396 13.44 15.2196 13.37 15.1196 13.38C15.1896 13.38 15.2896 13.38 15.3096 13.48C15.3296 13.58 15.1896 13.48 15.1496 13.48C15.3496 13.61 15.4296 13.74 15.2896 13.74H15.2196C15.2196 13.74 15.2996 13.81 15.2196 13.81L14.9996 13.58L15.1996 13.75C15.1196 13.75 15.2596 13.89 15.0996 13.8L14.8896 14.02L14.6996 13.92C14.9496 14.09 14.5296 14.01 14.8596 14.18C14.6496 14.13 14.8596 14.44 14.5196 14.18C14.3996 14.33 14.6996 14.62 14.4096 14.73C14.0596 14.63 14.0396 14.89 13.9396 15C13.9396 15.33 13.9396 15.56 13.9396 15.89C13.4196 15.8 13.8596 16.37 13.5196 16.4L13.6696 16.54C13.3296 16.54 13.5696 16.87 13.2096 16.88C13.2696 16.96 13.2796 16.99 13.2796 17C13.3365 17.0141 13.3906 17.0378 13.4396 17.07C13.3396 17.07 13.3796 17.21 13.1696 17.07C12.9596 16.94 13.1696 17.27 12.9796 17.21L13.2296 17.32L13.1396 17.38V17.33C13.4496 18 12.6096 17.75 12.8896 18.33C12.6596 18.14 12.9796 18.47 12.6996 18.33C12.4196 18.19 12.6996 18.54 12.6996 18.67L12.5896 18.78C12.2796 18.51 12.8296 19.03 12.5896 18.78C12.1396 18.96 12.1696 19.55 11.8296 19.86H11.9296C11.8596 19.94 11.9296 20.13 11.7196 20.12C11.5096 20.11 11.8496 20.41 11.8496 20.45C11.8496 20.49 11.6096 20.52 11.6496 20.45C11.6896 20.38 11.9196 20.82 11.7096 20.87C11.3896 20.74 11.8196 21.36 11.4796 21.17C11.1596 21.17 11.4796 21.56 11.1696 21.61L11.9996 22.52L13.1696 23.05L14.2396 23.27L14.4896 22.36L15.1996 21.93L15.9396 20.32L15.7496 20.06C16.3596 20.01 16.0696 19.34 16.5696 19.18L16.3596 19.06C16.3596 18.96 16.5296 19.06 16.5796 19.06C16.8573 18.1334 17.3086 17.268 17.9096 16.51C18.0996 16.51 18.1396 16.25 18.3296 16.27C18.2901 16.1348 18.2822 15.9924 18.3065 15.8537C18.3308 15.715 18.3866 15.5837 18.4696 15.47ZM41.3896 15.54C41.0224 15.4496 40.6642 15.3258 40.3196 15.17C40.5196 15.17 40.3196 15.11 40.2496 15.05V15.12C40.1196 15.12 40.0196 14.98 39.9396 14.97C39.9396 14.97 39.9396 14.97 39.9396 15.04C39.9396 15.11 39.9396 15.04 39.9396 15.1C39.9009 15.1458 39.8482 15.1775 39.7896 15.19L39.6996 15.06C39.7896 15.35 38.9796 15.06 38.8796 15.06C38.6796 14.97 38.6896 15.24 38.5196 15.25C38.3496 15.26 38.2996 15.13 38.1296 15.09C37.9596 15.05 38.2496 15.21 38.2096 15.26L37.9996 15.19C38.0696 15.12 37.9996 15.07 37.9296 15.03C37.8596 14.99 37.4396 15.03 37.5696 15.28C37.3196 15.28 37.2496 15.17 37.1696 15.21C37.0896 15.25 37.2996 15.21 37.3396 15.29C37.1996 15.23 37.3396 15.34 37.3396 15.35C37.3396 15.53 36.4996 15.25 36.6596 15.54C36.7696 15.76 36.9496 15.93 36.9496 16.1L36.8796 16V16.13C36.8501 16.1205 36.8235 16.1035 36.8025 16.0808C36.7815 16.058 36.7667 16.0302 36.7596 16C36.6996 16.18 36.4596 16.17 36.2996 16.24L36.8296 16.7C36.6196 16.65 36.2296 16.54 36.3296 16.7L36.1296 16.56C35.6496 16.37 36.0696 16.83 35.8996 16.79L35.6396 16.67L35.7596 16.59C35.6003 16.5714 35.445 16.5275 35.2996 16.46C35.2996 16.57 35.2996 16.68 35.2496 16.73C35.1996 16.78 35.1196 17 34.7796 16.91L34.8696 17.15H34.6396L34.5396 17C34.6896 16.91 34.9096 16.67 35.0896 16.54L34.9996 16.49C34.8896 16.57 34.8196 16.72 34.7396 16.75C34.6596 16.78 34.4796 16.63 34.4596 16.48V16.68C34.2336 16.897 33.9328 17.0187 33.6196 17.02L33.6996 17.08C33.6996 17.18 33.6196 17.28 33.5096 17.16C33.3836 17.229 33.2443 17.2701 33.1011 17.2804C32.9579 17.2908 32.8141 17.2702 32.6796 17.22L32.7796 17.44C32.7196 17.44 32.4496 17.21 32.6096 17.5V17.66C32.5396 17.66 32.6096 17.82 32.4196 17.76C32.2196 17.76 32.5396 17.94 32.2996 17.94C32.0596 17.94 32.4096 18.23 32.2996 18.24L32.0496 18C31.7996 17.94 31.9596 18.24 31.7496 18.39C31.6381 18.3502 31.538 18.2839 31.4579 18.1968C31.3777 18.1097 31.32 18.0044 31.2896 17.89C31.3696 18.21 31.3596 18.09 31.2896 18.3C31.2256 18.233 31.1808 18.1501 31.1596 18.06C30.9696 18.01 31.1596 18.2 31.0696 18.25C31.1794 18.4349 31.2731 18.629 31.3496 18.83H31.4196C31.4196 19 31.3396 19.11 31.1696 19.08L31.1096 18.98L31.0296 19.1L30.9996 19L30.8696 19.15C30.8696 19.15 30.7596 19.31 30.6496 19.29L30.5996 19.22C30.2596 19.13 30.2896 19.53 30.0796 19.71L29.9996 19.59C29.8296 19.5 30.1296 19.83 29.9996 19.82L29.8796 19.64C29.9496 19.93 29.7396 19.64 29.6196 19.64L29.8096 19.86H29.6696C29.4996 19.86 29.3996 19.62 29.3296 19.48L29.3796 19.72L29.2196 19.52C29.3296 19.8 29.1396 19.52 29.1196 19.72C29.0596 19.65 29.0596 19.59 28.9996 19.58V19.98V19.78L29.1996 20.09C29.1996 20.39 29.0296 20.16 29.0096 20.29V20.17C28.9396 20.32 28.8496 20.17 28.7296 20.17C28.7896 20.17 28.8796 20.27 28.8596 20.34C28.8396 20.41 28.7696 20.25 28.7096 20.24C28.8396 20.45 28.8196 20.61 28.7096 20.57C28.7042 20.5436 28.7042 20.5164 28.7096 20.49C28.7096 20.54 28.7096 20.6 28.7096 20.57L28.5796 20.34L28.6496 20.59C28.5596 20.59 28.6496 20.77 28.5096 20.59V20.52L28.1296 20.7L27.9996 20.53C28.1296 20.79 27.7496 20.53 27.9996 20.86C27.8196 20.74 27.8296 21.15 27.6296 20.78C27.3896 20.9 27.4896 21.32 27.0996 21.34C26.8096 21.11 26.5996 21.34 26.4096 21.47C26.1933 21.7989 25.9596 22.116 25.7096 22.42C25.2196 22.15 25.2796 22.92 24.8896 22.84L24.9396 23.04C24.6196 22.89 24.5996 23.36 24.2196 23.25C24.2306 23.3028 24.2306 23.3572 24.2196 23.41C24.2196 23.41 24.2696 23.41 24.3496 23.53C24.2396 23.53 24.1796 23.68 24.0496 23.46C23.9196 23.25 23.9296 23.68 23.7396 23.55L23.9296 23.75H23.7896V23.68C23.6196 24.51 22.9196 23.96 22.7896 24.73C22.6896 24.44 22.7896 24.92 22.5996 24.66C22.2496 24.41 22.4296 24.88 22.3896 25.03C22.3949 25.0462 22.3949 25.0638 22.3896 25.08L22.1996 25.17C22.0796 24.76 22.2696 25.52 22.1996 25.17C21.5896 25.22 21.1996 25.86 20.5996 26.09L20.6796 26.16C20.5396 26.23 20.4496 26.44 20.2596 26.37C20.0696 26.3 20.1896 26.74 20.1596 26.78C20.1596 27 19.8596 26.78 19.9096 26.78C19.9596 26.78 19.9096 27.28 19.6696 27.26C19.4296 27.01 19.4296 27.83 19.2096 27.51C18.8596 27.43 18.9196 27.94 18.5596 27.88V27.83L18.7696 29.1L19.6096 30.1L20.6096 30.7L21.5296 29.8L22.5996 29.56L24.5996 28.07V27.73C25.2796 27.88 25.4696 27.04 26.1096 27.05L25.9796 26.84C26.0896 26.74 26.1696 26.84 26.2196 26.89C27.2069 25.975 28.3137 25.198 29.5096 24.58C29.6996 24.65 29.9496 24.37 30.1196 24.46C30.2788 24.0542 30.5913 23.7273 30.9896 23.55L31.1196 23.4V23.46C31.1196 23.16 31.5696 23.15 31.8396 23.08C33.1296 22.26 34.0396 21.08 35.4896 20.53C36.2996 20.47 36.6596 19.53 37.4896 19.38C37.7496 19.5 38.9896 18.43 39.0496 18.26L38.7196 18.11C39.1496 17.66 39.5496 17.75 39.8396 17.26V17.33C39.9396 17.33 39.5896 16.76 40.7496 16.97C40.7496 16.97 40.7496 16.9 40.8296 16.97L40.4696 17C40.4696 16.89 40.4696 16.73 40.5696 16.65C40.6696 16.57 40.6496 16.71 40.6796 16.75L40.8796 16.55L41.0696 16.66C41.0696 16.52 40.8096 16.2 41.1296 16.26C40.8996 16.08 41.1296 16.06 41.0296 15.95L41.1496 16.03C41.2496 15.91 41.4196 15.7 41.3896 15.54Z" fill="#121212"/>
</g>
<defs>
<clipPath id="clip0_73_430">
<rect width="41.39" height="30.73" fill="white"/>
</clipPath>
</defs>
</svg>
