<svg width="70" height="83" viewBox="0 0 70 83" fill="none" xmlns="http://www.w3.org/2000/svg">
<g filter="url(#filter0_d_41_1724)">
<mask id="path-1-outside-1_41_1724" maskUnits="userSpaceOnUse" x="1" y="-1" width="67" height="80" fill="black">
<rect fill="white" x="1" y="-1" width="67" height="80"/>
<path d="M21.8915 32.2248C26.4042 20.1482 21.8915 4 21.8915 4C21.8915 4 29.366 23.6113 42.5504 28.9991C50.0564 32.0664 63.2093 30.6119 63.2093 30.6119C63.2093 30.6119 52.4396 39.0624 48.9069 46.7403C44.4354 56.459 47.3178 74.1587 47.3178 74.1587C47.3178 74.1587 39.0412 57.258 29.0426 53.1917C19.52 49.319 6 53.1917 6 53.1917C6 53.1917 17.8336 43.084 21.8915 32.2248Z"/>
</mask>
<path d="M21.8915 32.2248C26.4042 20.1482 21.8915 4 21.8915 4C21.8915 4 29.366 23.6113 42.5504 28.9991C50.0564 32.0664 63.2093 30.6119 63.2093 30.6119C63.2093 30.6119 52.4396 39.0624 48.9069 46.7403C44.4354 56.459 47.3178 74.1587 47.3178 74.1587C47.3178 74.1587 39.0412 57.258 29.0426 53.1917C19.52 49.319 6 53.1917 6 53.1917C6 53.1917 17.8336 43.084 21.8915 32.2248Z" fill="#FFD25C"/>
<path d="M21.8915 4L25.6292 2.57542C24.8678 0.5777 22.6701 -0.468154 20.6396 0.200951C18.6091 0.870057 17.4637 3.01756 18.0391 5.07658L21.8915 4ZM21.8915 32.2248L18.1445 30.8246L18.1445 30.8246L21.8915 32.2248ZM6 53.1917L3.40208 50.1502C1.97116 51.3724 1.58569 53.4268 2.47621 55.0846C3.36674 56.7424 5.29239 57.5553 7.10148 57.0371L6 53.1917ZM29.0426 53.1917L30.5495 49.4864L30.5495 49.4864L29.0426 53.1917ZM47.3178 74.1587L43.7254 75.9179C44.5975 77.6987 46.6427 78.5718 48.532 77.9699C50.4213 77.368 51.5845 75.4729 51.2658 73.5157L47.3178 74.1587ZM48.9069 46.7403L52.5408 48.4123L52.5408 48.4123L48.9069 46.7403ZM63.2093 30.6119L65.6785 33.7588C67.0843 32.6557 67.588 30.7539 66.9124 29.0996C66.2367 27.4453 64.5458 26.4397 62.7696 26.6361L63.2093 30.6119ZM42.5504 28.9991L44.0635 25.2963L44.0635 25.2963L42.5504 28.9991ZM21.8915 4C18.0391 5.07658 18.0388 5.07579 18.0386 5.07506C18.0386 5.07489 18.0384 5.07422 18.0383 5.0739C18.0381 5.07325 18.038 5.07284 18.038 5.07267C18.0379 5.07233 18.0381 5.07296 18.0385 5.07454C18.0394 5.0777 18.0413 5.08466 18.0442 5.09537C18.05 5.11678 18.0598 5.15312 18.0731 5.20377C18.0998 5.30509 18.1408 5.46353 18.1927 5.6742C18.2965 6.0958 18.4439 6.72501 18.6092 7.52293C18.9404 9.12249 19.339 11.38 19.6043 13.9884C20.1453 19.3085 20.0822 25.6392 18.1445 30.8246L25.6384 33.6249C28.2135 26.7338 28.1503 18.9521 27.5632 13.179C27.2644 10.2408 26.8169 7.7064 26.443 5.90078C26.2556 4.9961 26.0858 4.26939 25.9604 3.76071C25.8978 3.50625 25.8461 3.30596 25.8089 3.16483C25.7903 3.09426 25.7753 3.03845 25.7644 2.99801C25.7589 2.9778 25.7544 2.96142 25.7509 2.94896C25.7492 2.94274 25.7478 2.93749 25.7466 2.93323C25.746 2.9311 25.7455 2.92921 25.745 2.92758C25.7448 2.92676 25.7445 2.92572 25.7444 2.92531C25.7441 2.92434 25.7439 2.92342 21.8915 4ZM18.1445 30.8246C16.3761 35.5571 12.7949 40.3565 9.43933 44.1175C7.79342 45.9622 6.26586 47.4867 5.15338 48.5465C4.59821 49.0754 4.1493 49.4858 3.84431 49.7596C3.69189 49.8965 3.57564 49.999 3.50031 50.0649C3.46265 50.0978 3.43523 50.1216 3.41866 50.1359C3.41037 50.1431 3.4048 50.1479 3.40201 50.1503C3.40061 50.1515 3.39992 50.1521 3.39993 50.152C3.39993 50.152 3.40011 50.1519 3.40047 50.1516C3.40065 50.1514 3.40105 50.1511 3.40114 50.151C3.40159 50.1506 3.40208 50.1502 6 53.1917C8.59792 56.2332 8.5985 56.2327 8.59913 56.2322C8.5994 56.232 8.60007 56.2314 8.60061 56.2309C8.60169 56.23 8.60295 56.2289 8.60439 56.2277C8.60727 56.2252 8.61087 56.2221 8.61518 56.2184C8.62379 56.211 8.63526 56.2012 8.64948 56.1889C8.67794 56.1643 8.71747 56.13 8.76747 56.0862C8.86746 55.9988 9.00942 55.8735 9.1885 55.7127C9.5465 55.3914 10.0538 54.9273 10.6714 54.3389C11.9046 53.1641 13.589 51.483 15.4088 49.4434C18.9844 45.4357 23.349 39.7516 25.6384 33.6249L18.1445 30.8246ZM6 53.1917C7.10148 57.0371 7.10069 57.0373 7.09994 57.0375C7.09976 57.0376 7.09907 57.0378 7.0987 57.0379C7.09798 57.0381 7.09746 57.0382 7.09713 57.0383C7.09649 57.0385 7.09665 57.0384 7.09761 57.0382C7.09952 57.0376 7.1046 57.0362 7.11281 57.0339C7.12921 57.0293 7.15805 57.0214 7.19879 57.0104C7.2803 56.9883 7.40928 56.9541 7.58152 56.9105C7.92627 56.8232 8.44261 56.6986 9.09695 56.5588C10.4098 56.2784 12.2559 55.9413 14.3717 55.7172C18.7283 55.2557 23.6945 55.3348 27.5357 56.897L30.5495 49.4864C24.8681 47.1759 18.3131 47.255 13.529 47.7617C11.0744 48.0217 8.94536 48.4107 7.42564 48.7354C6.66369 48.8981 6.04938 49.0459 5.61756 49.1553C5.40151 49.21 5.23072 49.2552 5.10953 49.288C5.04893 49.3044 5.00068 49.3177 4.96534 49.3275C4.94767 49.3325 4.93322 49.3365 4.92206 49.3397C4.91648 49.3412 4.91173 49.3426 4.9078 49.3437C4.90584 49.3443 4.90408 49.3448 4.90253 49.3452C4.90176 49.3454 4.90075 49.3457 4.90037 49.3458C4.89942 49.3461 4.89852 49.3464 6 53.1917ZM27.5357 56.897C31.3733 58.4577 35.3757 62.8203 38.6546 67.4965C40.2214 69.7311 41.4999 71.8559 42.3867 73.4238C42.8288 74.2053 43.1702 74.8425 43.3981 75.2783C43.512 75.496 43.5973 75.663 43.6524 75.7721C43.68 75.8266 43.7 75.8667 43.7122 75.8913C43.7184 75.9036 43.7225 75.912 43.7247 75.9165C43.7258 75.9188 43.7265 75.92 43.7266 75.9202C43.7266 75.9204 43.7266 75.9202 43.7264 75.9198C43.7263 75.9197 43.7261 75.9192 43.726 75.9191C43.7257 75.9185 43.7254 75.9179 47.3178 74.1587C50.9102 72.3994 50.9098 72.3987 50.9094 72.3979C50.9092 72.3975 50.9088 72.3967 50.9085 72.396C50.9078 72.3946 50.9069 72.3929 50.906 72.391C50.9041 72.3871 50.9017 72.3822 50.8988 72.3763C50.893 72.3645 50.8851 72.3487 50.8753 72.3289C50.8556 72.2893 50.8279 72.2339 50.7924 72.1637C50.7214 72.0232 50.6191 71.8231 50.4872 71.5708C50.2234 71.0664 49.84 70.3515 49.35 69.4851C48.3725 67.757 46.9569 65.4025 45.2048 62.9036C41.8457 58.113 36.7105 51.992 30.5495 49.4864L27.5357 56.897ZM47.3178 74.1587C51.2658 73.5157 51.2659 73.5163 51.266 73.5168C51.266 73.5169 51.2661 73.5174 51.2661 73.5175C51.2661 73.5178 51.2661 73.5179 51.2661 73.5177C51.266 73.5173 51.2658 73.5158 51.2654 73.5133C51.2646 73.5083 51.2631 73.499 51.261 73.4857C51.2568 73.4591 51.2502 73.4162 51.2413 73.3578C51.2236 73.2409 51.1971 73.0619 51.1644 72.8271C51.099 72.3574 51.0086 71.6656 50.913 70.8015C50.7214 69.069 50.5109 66.6647 50.4339 63.9794C50.2745 58.4184 50.7191 52.3717 52.5408 48.4123L45.2731 45.0684C42.6233 50.8277 42.2733 58.4901 42.4372 64.2086C42.5219 67.1631 42.7525 69.7911 42.9616 71.681C43.0663 72.6281 43.1663 73.395 43.241 73.9312C43.2783 74.1994 43.3094 74.4102 43.3317 74.5573C43.3429 74.6308 43.3519 74.6885 43.3583 74.7295C43.3615 74.75 43.3641 74.7663 43.3661 74.7783C43.367 74.7844 43.3678 74.7893 43.3684 74.7932C43.3688 74.7951 43.369 74.7968 43.3693 74.7982C43.3694 74.7989 43.3695 74.7998 43.3696 74.8001C43.3697 74.8009 43.3698 74.8016 47.3178 74.1587ZM52.5408 48.4123C53.9833 45.2769 57.1041 41.6716 60.183 38.6533C61.6715 37.1941 63.0591 35.9591 64.0736 35.09C64.5796 34.6565 64.9898 34.3167 65.2693 34.0885C65.409 33.9744 65.5159 33.8884 65.5856 33.8327C65.6204 33.8048 65.646 33.7845 65.6616 33.7721C65.6695 33.7659 65.6748 33.7617 65.6777 33.7595C65.6791 33.7583 65.6799 33.7577 65.68 33.7576C65.6801 33.7576 65.68 33.7576 65.6797 33.7578C65.6796 33.7579 65.6793 33.7582 65.6792 33.7582C65.6789 33.7585 65.6785 33.7588 63.2093 30.6119C60.7401 27.465 60.7396 27.4654 60.7391 27.4658C60.7388 27.466 60.7383 27.4664 60.7378 27.4668C60.7369 27.4675 60.7358 27.4683 60.7346 27.4693C60.7321 27.4712 60.729 27.4737 60.7252 27.4767C60.7177 27.4826 60.7075 27.4906 60.6949 27.5006C60.6696 27.5207 60.6342 27.5488 60.5893 27.5847C60.4995 27.6565 60.3716 27.7595 60.2099 27.8915C59.8867 28.1554 59.4278 28.5358 58.869 29.0145C57.7538 29.9698 56.2282 31.3273 54.5826 32.9405C51.3936 36.0669 47.3632 40.5258 45.2731 45.0684L52.5408 48.4123ZM63.2093 30.6119C62.7696 26.6361 62.7701 26.6361 62.7706 26.636C62.7707 26.636 62.7711 26.636 62.7713 26.636C62.7717 26.6359 62.7718 26.6359 62.7718 26.6359C62.7717 26.6359 62.7709 26.636 62.7693 26.6362C62.766 26.6365 62.7597 26.6372 62.7503 26.6382C62.7315 26.6402 62.7006 26.6434 62.6582 26.6477C62.5733 26.6563 62.4424 26.669 62.2699 26.6846C61.9248 26.7158 61.4145 26.7579 60.7755 26.7998C59.494 26.8837 57.7115 26.9651 55.7133 26.9558C51.5646 26.9364 47.0598 26.5207 44.0635 25.2963L41.0372 32.7018C45.547 34.5447 51.3716 34.9355 55.6758 34.9557C57.9041 34.9661 59.879 34.8756 61.2982 34.7827C62.0095 34.7361 62.5855 34.6886 62.989 34.6522C63.1908 34.634 63.3498 34.6185 63.4612 34.6073C63.517 34.6017 63.5609 34.5971 63.5923 34.5938C63.6081 34.5921 63.6207 34.5907 63.6302 34.5897C63.6349 34.5892 63.6388 34.5888 63.6419 34.5884C63.6435 34.5883 63.6449 34.5881 63.646 34.588C63.6466 34.5879 63.6473 34.5879 63.6476 34.5878C63.6483 34.5877 63.6489 34.5877 63.2093 30.6119ZM44.0635 25.2963C38.6633 23.0895 34.0591 17.735 30.6602 12.3454C29.0092 9.7276 27.7393 7.2576 26.8832 5.4423C26.4565 4.53736 26.1359 3.80214 25.9251 3.30146C25.8198 3.0513 25.7422 2.86022 25.6927 2.73637C25.6679 2.67447 25.6502 2.62942 25.6396 2.60224C25.6343 2.58865 25.6308 2.57953 25.629 2.57502C25.6282 2.57277 25.6277 2.57166 25.6278 2.57172C25.6278 2.57175 25.6279 2.57207 25.6281 2.57269C25.6283 2.573 25.6285 2.57368 25.6286 2.57384C25.6289 2.57459 25.6292 2.57542 21.8915 4C18.1537 5.42458 18.1541 5.42556 18.1545 5.42661C18.1547 5.42706 18.1551 5.4282 18.1555 5.4291C18.1562 5.43091 18.157 5.43302 18.1579 5.43543C18.1597 5.44025 18.162 5.44626 18.1648 5.45345C18.1704 5.46783 18.1778 5.48693 18.187 5.51061C18.2055 5.55797 18.2314 5.6237 18.2646 5.70675C18.331 5.87281 18.4268 6.10833 18.5516 6.40493C18.8012 6.99779 19.1675 7.8368 19.6475 8.8546C20.6049 10.8848 22.0276 13.6544 23.8934 16.6128C27.5278 22.3758 33.2531 29.5209 41.0372 32.7018L44.0635 25.2963Z" fill="white" mask="url(#path-1-outside-1_41_1724)"/>
</g>
<path d="M21.8915 32.2248C26.4042 20.1482 21.8915 4 21.8915 4C21.8915 4 29.366 23.6113 42.5504 28.9991C50.0564 32.0664 63.2093 30.6119 63.2093 30.6119C63.2093 30.6119 52.4396 39.0624 48.9069 46.7403C44.4354 56.459 47.3178 74.1587 47.3178 74.1587C47.3178 74.1587 39.0412 57.258 29.0426 53.1917C19.52 49.319 6 53.1917 6 53.1917C6 53.1917 17.8336 43.084 21.8915 32.2248Z" fill="#FFD25C"/>
<path d="M21.8915 4L23.7603 3.28771C23.3796 2.28885 22.2808 1.76592 21.2655 2.10048C20.2503 2.43503 19.6776 3.50878 19.9653 4.53829L21.8915 4ZM21.8915 32.2248L20.018 31.5247L20.018 31.5247L21.8915 32.2248ZM6 53.1917L4.70104 51.671C3.98558 52.2821 3.79285 53.3092 4.23811 54.1381C4.68337 54.9671 5.6462 55.3735 6.55074 55.1144L6 53.1917ZM29.0426 53.1917L29.7961 51.3391L29.7961 51.3391L29.0426 53.1917ZM47.3178 74.1587L45.5216 75.0383C45.9577 75.9287 46.9802 76.3653 47.9249 76.0643C48.8696 75.7634 49.4512 74.8158 49.2918 73.8372L47.3178 74.1587ZM48.9069 46.7403L50.7239 47.5763L50.7239 47.5763L48.9069 46.7403ZM63.2093 30.6119L64.4439 32.1854C65.1468 31.6338 65.3986 30.6829 65.0608 29.8557C64.723 29.0286 63.8775 28.5258 62.9894 28.624L63.2093 30.6119ZM42.5504 28.9991L43.3069 27.1477L43.3069 27.1477L42.5504 28.9991ZM21.8915 4C19.9653 4.53829 19.9652 4.53792 19.9651 4.53762C19.9651 4.5376 19.965 4.53736 19.965 4.53732C19.965 4.53724 19.965 4.5374 19.9651 4.53781C19.9654 4.53862 19.9658 4.5404 19.9666 4.54314C19.9681 4.54863 19.9707 4.55795 19.9742 4.57103C19.9813 4.5972 19.9924 4.6384 20.0071 4.69403C20.0364 4.80531 20.08 4.97421 20.1346 5.19583C20.2438 5.6392 20.3969 6.29279 20.5676 7.11739C20.9095 8.76847 21.3203 11.0952 21.594 13.786C22.1466 19.2194 22.115 25.9128 20.018 31.5247L23.7649 32.9248C26.1806 26.4601 26.1491 19.0412 25.5735 13.3813C25.283 10.5256 24.8477 8.06042 24.4845 6.30632C24.3027 5.42833 24.1384 4.72599 24.0185 4.23908C23.9585 3.99557 23.9096 3.80574 23.875 3.67457C23.8577 3.60898 23.844 3.55803 23.8343 3.52235C23.8295 3.50451 23.8256 3.49049 23.8228 3.48036C23.8214 3.47529 23.8203 3.4712 23.8194 3.46809C23.819 3.46653 23.8186 3.46522 23.8183 3.46416C23.8182 3.46363 23.818 3.46302 23.818 3.46275C23.8178 3.4622 23.8177 3.46171 21.8915 4ZM20.018 31.5247C18.1193 36.6057 14.3423 41.6263 10.9317 45.449C9.24232 47.3424 7.67554 48.9061 6.53289 49.9946C5.96211 50.5384 5.4986 50.9622 5.18035 51.2479C5.02127 51.3907 4.8986 51.4989 4.8171 51.5702C4.77635 51.6058 4.74591 51.6323 4.72636 51.6491C4.71659 51.6576 4.70955 51.6637 4.7053 51.6673C4.70318 51.6691 4.70175 51.6703 4.70104 51.671C4.70068 51.6713 4.70051 51.6714 4.70051 51.6714C4.7005 51.6714 4.70064 51.6713 4.70064 51.6713C4.70082 51.6711 4.70104 51.671 6 53.1917C7.29896 54.7125 7.29927 54.7122 7.29963 54.7119C7.29981 54.7117 7.30022 54.7114 7.30058 54.7111C7.3013 54.7105 7.30219 54.7097 7.30327 54.7088C7.30543 54.7069 7.3083 54.7045 7.31188 54.7014C7.31905 54.6952 7.32903 54.6866 7.34178 54.6756C7.36726 54.6536 7.40376 54.6219 7.45068 54.5809C7.5445 54.4988 7.68003 54.3792 7.85245 54.2245C8.1972 53.915 8.6899 53.4643 9.29192 52.8908C10.4949 51.7448 12.1401 50.1028 13.9164 48.1119C17.4371 44.1659 21.6058 38.703 23.7649 32.9248L20.018 31.5247ZM6 53.1917C6.55074 55.1144 6.55037 55.1145 6.55005 55.1146C6.55001 55.1146 6.54974 55.1147 6.54966 55.1147C6.5495 55.1147 6.54955 55.1147 6.5498 55.1147C6.5503 55.1145 6.55161 55.1141 6.55372 55.1135C6.55794 55.1124 6.56537 55.1103 6.57594 55.1073C6.59708 55.1014 6.63077 55.0921 6.67647 55.0798C6.7679 55.055 6.90734 55.0181 7.09053 54.9717C7.45705 54.8788 7.99788 54.7485 8.67912 54.603C10.0437 54.3115 11.9606 53.9614 14.161 53.7283C18.6245 53.2555 23.9879 53.2951 28.2892 55.0444L29.7961 51.3391C24.5747 49.2156 18.4169 49.2551 13.7397 49.7506C11.3698 50.0016 9.31147 50.3776 7.84347 50.6912C7.10842 50.8483 6.5186 50.9902 6.10855 51.0941C5.90345 51.146 5.74312 51.1885 5.63185 51.2186C5.57621 51.2336 5.53281 51.2456 5.50221 51.2541C5.48691 51.2584 5.4748 51.2618 5.46595 51.2643C5.46153 51.2655 5.45792 51.2666 5.45513 51.2674C5.45374 51.2678 5.45255 51.2681 5.45157 51.2684C5.45109 51.2685 5.45051 51.2687 5.45026 51.2688C5.44973 51.2689 5.44926 51.269 6 53.1917ZM28.2892 55.0444C32.7076 56.8413 36.9932 61.6434 40.2921 66.3483C41.9053 68.6489 43.218 70.8312 44.1275 72.4391C44.5816 73.2419 44.9335 73.8985 45.1704 74.3514C45.2888 74.5778 45.3783 74.7531 45.4374 74.87C45.467 74.9285 45.4889 74.9723 45.503 75.0007C45.51 75.0149 45.5151 75.0252 45.5183 75.0315C45.5198 75.0346 45.5209 75.0368 45.5214 75.0379C45.5217 75.0385 45.5219 75.0388 45.5219 75.0389C45.5219 75.0389 45.5218 75.0388 45.5219 75.0388C45.5218 75.0386 45.5216 75.0383 47.3178 74.1587C49.114 73.2791 49.1138 73.2787 49.1136 73.2782C49.1134 73.2779 49.1132 73.2774 49.1129 73.2769C49.1125 73.276 49.1119 73.2748 49.1111 73.2733C49.1097 73.2703 49.1077 73.2663 49.1053 73.2614C49.1004 73.2514 49.0934 73.2374 49.0845 73.2195C49.0667 73.1836 49.0409 73.1321 49.0074 73.0658C48.9404 72.9332 48.8423 72.7413 48.7149 72.4977C48.4601 72.0104 48.0872 71.3149 47.6092 70.4697C46.6544 68.7817 45.2731 66.4846 43.5672 64.0519C40.2282 59.2898 35.3762 53.6085 29.7961 51.3391L28.2892 55.0444ZM47.3178 74.1587C49.2918 73.8372 49.2918 73.8375 49.2919 73.8377C49.2919 73.8376 49.2919 73.8377 49.2919 73.8377C49.2919 73.8376 49.2918 73.8372 49.2917 73.8366C49.2915 73.8353 49.2911 73.8329 49.2906 73.8295C49.2895 73.8228 49.2877 73.8118 49.2854 73.7967C49.2806 73.7665 49.2734 73.7199 49.2639 73.6577C49.245 73.5332 49.2174 73.3463 49.1835 73.1032C49.1158 72.6168 49.0231 71.9062 48.9252 71.0214C48.7292 69.2495 48.5136 66.7893 48.4347 64.0367C48.2742 58.4363 48.6951 51.9857 50.7239 47.5763L47.09 45.9044C44.6472 51.2137 44.2736 58.4722 44.4364 64.1513C44.5191 67.0385 44.7447 69.6106 44.9494 71.4611C45.0519 72.3875 45.1494 73.1356 45.2218 73.6552C45.258 73.915 45.288 74.1179 45.3091 74.2574C45.3197 74.3272 45.3281 74.3812 45.334 74.4185C45.3369 74.4372 45.3392 74.4518 45.3409 74.4621C45.3417 74.4672 45.3424 74.4713 45.3429 74.4743C45.3431 74.4758 45.3433 74.4771 45.3435 74.478C45.3435 74.4785 45.3436 74.4791 45.3437 74.4793C45.3437 74.4798 45.3438 74.4801 47.3178 74.1587ZM50.7239 47.5763C52.3283 44.0891 55.6765 40.2704 58.7829 37.2251C60.3106 35.7274 61.7328 34.4618 62.7724 33.5712C63.2917 33.1264 63.714 32.7764 64.0045 32.5392C64.1497 32.4207 64.2618 32.3304 64.3365 32.2707C64.3739 32.2408 64.4019 32.2186 64.42 32.2043C64.429 32.1971 64.4355 32.1919 64.4396 32.1888C64.4416 32.1872 64.4429 32.1861 64.4437 32.1855C64.444 32.1853 64.4442 32.1851 64.4443 32.1851C64.4443 32.1851 64.4442 32.1851 64.4442 32.1851C64.444 32.1852 64.4439 32.1854 63.2093 30.6119C61.9747 29.0385 61.9744 29.0387 61.9741 29.0389C61.9739 29.039 61.9736 29.0393 61.9733 29.0395C61.9727 29.04 61.9719 29.0406 61.971 29.0414C61.9691 29.0429 61.9665 29.0449 61.9633 29.0474C61.957 29.0524 61.948 29.0595 61.9366 29.0685C61.9137 29.0866 61.8808 29.1128 61.8384 29.1467C61.7536 29.2145 61.6309 29.3133 61.4747 29.4408C61.1625 29.6957 60.7158 30.066 60.1702 30.5334C59.0801 31.4671 57.589 32.794 55.9827 34.3687C52.8212 37.468 49.0182 41.7136 47.09 45.9044L50.7239 47.5763ZM63.2093 30.6119C62.9894 28.624 62.9897 28.624 62.9899 28.624C62.9899 28.624 62.99 28.624 62.99 28.624C62.99 28.624 62.9897 28.624 62.9893 28.624C62.9885 28.6241 62.9869 28.6243 62.9845 28.6246C62.9797 28.6251 62.9718 28.6259 62.9608 28.6271C62.9388 28.6294 62.9047 28.633 62.859 28.6376C62.7674 28.6468 62.6295 28.6603 62.4497 28.6765C62.0899 28.709 61.5633 28.7525 60.9062 28.7955C59.5902 28.8817 57.7597 28.9654 55.7039 28.9558C51.5164 28.9361 46.6816 28.5267 43.3069 27.1477L41.7938 30.8504C45.9252 32.5387 51.4198 32.9357 55.6852 32.9557C57.856 32.9659 59.7828 32.8777 61.1675 32.787C61.8608 32.7416 62.4203 32.6954 62.8092 32.6603C63.0037 32.6428 63.1557 32.628 63.2605 32.6174C63.3129 32.6121 63.3535 32.6079 63.3818 32.6049C63.396 32.6034 63.407 32.6022 63.4149 32.6013C63.4189 32.6009 63.422 32.6006 63.4244 32.6003C63.4256 32.6002 63.4266 32.6001 63.4274 32.6C63.4277 32.5999 63.4282 32.5999 63.4284 32.5999C63.4288 32.5998 63.4291 32.5998 63.2093 30.6119ZM43.3069 27.1477C37.3107 24.6973 32.4263 18.8952 28.9685 13.4123C27.2638 10.7093 25.9557 8.1644 25.0743 6.29537C24.6342 5.36222 24.3022 4.60105 24.0818 4.07733C23.9716 3.81555 23.8894 3.61337 23.8357 3.47897C23.8088 3.41178 23.789 3.36155 23.7765 3.32933C23.7702 3.31322 23.7657 3.30161 23.763 3.29463C23.7616 3.29114 23.7607 3.28881 23.7603 3.28765C23.7601 3.28707 23.76 3.28678 23.76 3.28679C23.76 3.2868 23.7601 3.28703 23.7601 3.28703C23.7602 3.28733 23.7603 3.28771 21.8915 4C20.0226 4.71229 20.0228 4.71282 20.023 4.71342C20.0231 4.71372 20.0234 4.7144 20.0236 4.715C20.0241 4.7162 20.0247 4.7177 20.0254 4.7195C20.0267 4.7231 20.0286 4.72788 20.0309 4.73384C20.0355 4.74575 20.0419 4.76236 20.0502 4.78352C20.0667 4.82583 20.0905 4.88639 20.1216 4.96415C20.1838 5.11966 20.2751 5.34407 20.395 5.62906C20.6348 6.19888 20.9897 7.01194 21.4564 8.00153C22.3885 9.97799 23.773 12.6727 25.5851 15.546C29.1606 21.2156 34.6057 27.913 41.7938 30.8505L43.3069 27.1477Z" fill="black"/>
<defs>
<filter id="filter0_d_41_1724" x="0" y="-0.000915527" width="69.209" height="82.1602" filterUnits="userSpaceOnUse" color-interpolation-filters="sRGB">
<feFlood flood-opacity="0" result="BackgroundImageFix"/>
<feColorMatrix in="SourceAlpha" type="matrix" values="0 0 0 0 0 0 0 0 0 0 0 0 0 0 0 0 0 0 127 0" result="hardAlpha"/>
<feOffset dy="2"/>
<feGaussianBlur stdDeviation="1"/>
<feComposite in2="hardAlpha" operator="out"/>
<feColorMatrix type="matrix" values="0 0 0 0 0 0 0 0 0 0 0 0 0 0 0 0 0 0 0.25 0"/>
<feBlend mode="normal" in2="BackgroundImageFix" result="effect1_dropShadow_41_1724"/>
<feBlend mode="normal" in="SourceGraphic" in2="effect1_dropShadow_41_1724" result="shape"/>
</filter>
</defs>
</svg>
