<svg width="102" height="124" viewBox="0 0 102 124" fill="none" xmlns="http://www.w3.org/2000/svg">
<g filter="url(#filter0_d_41_1739)">
<mask id="path-1-outside-1_41_1739" maskUnits="userSpaceOnUse" x="1" y="-0.238281" width="100" height="120" fill="black">
<rect fill="white" x="1" y="-0.238281" width="100" height="120"/>
<path d="M31 49.1641C38.0993 30.1656 31 4.76172 31 4.76172C31 4.76172 42.7588 35.6137 63.5 44.0896C75.3083 48.915 96 46.6268 96 46.6268C96 46.6268 79.0574 59.9208 73.5 71.9996C66.4655 87.2888 71 115.133 71 115.133C71 115.133 57.9795 88.5458 42.25 82.1487C27.2693 76.0562 6 82.1487 6 82.1487C6 82.1487 24.6163 66.2475 31 49.1641Z"/>
</mask>
<path d="M31 49.1641C38.0993 30.1656 31 4.76172 31 4.76172C31 4.76172 42.7588 35.6137 63.5 44.0896C75.3083 48.915 96 46.6268 96 46.6268C96 46.6268 79.0574 59.9208 73.5 71.9996C66.4655 87.2888 71 115.133 71 115.133C71 115.133 57.9795 88.5458 42.25 82.1487C27.2693 76.0562 6 82.1487 6 82.1487C6 82.1487 24.6163 66.2475 31 49.1641Z" fill="#00BEFD"/>
<path d="M31 4.76172L34.7377 3.33714C33.9763 1.33942 31.7786 0.293565 29.7481 0.96267C27.7176 1.63178 26.5722 3.77928 27.1476 5.8383L31 4.76172ZM31 49.1641L34.7469 50.5643L34.7469 50.5643L31 49.1641ZM6 82.1487L3.40208 79.1072C1.97116 80.3295 1.58569 82.3838 2.47622 84.0416C3.36674 85.6994 5.29239 86.5123 7.10149 85.9941L6 82.1487ZM42.25 82.1487L40.7431 85.854L40.7431 85.854L42.25 82.1487ZM71 115.133L67.4076 116.893C68.2797 118.673 70.3249 119.547 72.2142 118.945C74.1035 118.343 75.2667 116.448 74.948 114.49L71 115.133ZM73.5 71.9996L69.8662 70.3277L69.8662 70.3277L73.5 71.9996ZM96 46.6268L98.4692 49.7737C99.8751 48.6706 100.379 46.7688 99.7031 45.1145C99.0275 43.4602 97.3365 42.4546 95.5603 42.6511L96 46.6268ZM63.5 44.0896L61.9869 47.7923L61.9869 47.7923L63.5 44.0896ZM31 4.76172C27.1476 5.8383 27.1474 5.83754 27.1472 5.83688C27.1472 5.83679 27.147 5.83622 27.147 5.83604C27.1469 5.83567 27.1469 5.83568 27.147 5.83608C27.1472 5.83686 27.1478 5.83917 27.1489 5.84299C27.151 5.85062 27.1547 5.86428 27.1601 5.88385C27.1707 5.92299 27.1876 5.98573 27.2101 6.07112C27.2551 6.24192 27.3226 6.50317 27.4073 6.84714C27.5768 7.53535 27.8152 8.55315 28.0814 9.83901C28.6147 12.4144 29.2558 16.0452 29.6828 20.2432C30.5471 28.7425 30.484 39.1176 27.2531 47.764L34.7469 50.5643C38.6153 40.2122 38.5522 28.3861 37.6417 19.4338C37.1812 14.906 36.4912 10.9984 35.9152 8.21686C35.6269 6.82424 35.3661 5.70894 35.1751 4.93366C35.0796 4.54589 35.0014 4.24279 34.9459 4.03219C34.9181 3.92688 34.896 3.84465 34.8802 3.7865C34.8723 3.75742 34.866 3.73435 34.8613 3.71742C34.859 3.70895 34.8571 3.70202 34.8556 3.69663C34.8549 3.69394 34.8542 3.69164 34.8537 3.68972C34.8534 3.68876 34.8531 3.68762 34.853 3.68714C34.8527 3.68609 34.8524 3.68514 31 4.76172ZM27.2531 47.764C24.3217 55.6086 18.4634 63.4123 13.1214 69.3997C10.4823 72.3577 8.03422 74.8009 6.24951 76.5011C5.35824 77.3502 4.63529 78.0112 4.14029 78.4556C3.89287 78.6777 3.70263 78.8455 3.57705 78.9553C3.51426 79.0102 3.46766 79.0506 3.43819 79.0761C3.42345 79.0889 3.41299 79.0979 3.40693 79.1031C3.4039 79.1057 3.40198 79.1073 3.40116 79.108C3.40075 79.1084 3.40063 79.1085 3.40078 79.1083C3.40085 79.1083 3.40118 79.108 3.40122 79.108C3.40161 79.1076 3.40208 79.1072 6 82.1487C8.59792 85.1903 8.59853 85.1897 8.59921 85.1892C8.59953 85.1889 8.60028 85.1882 8.60092 85.1877C8.60221 85.1866 8.60378 85.1852 8.60563 85.1837C8.60933 85.1805 8.61416 85.1764 8.6201 85.1712C8.63199 85.161 8.64833 85.147 8.66901 85.1291C8.71037 85.0934 8.76909 85.0424 8.84421 84.9767C8.99445 84.8453 9.2104 84.6547 9.48448 84.4087C10.0325 83.9167 10.8138 83.202 11.7676 82.2934C13.6729 80.4783 16.2779 77.8785 19.0908 74.7257C24.6529 68.4916 31.2946 59.8031 34.7469 50.5643L27.2531 47.764ZM6 82.1487C7.10149 85.9941 7.10072 85.9943 7.10003 85.9945C7.09991 85.9945 7.0993 85.9947 7.09906 85.9948C7.09857 85.9949 7.0984 85.995 7.09855 85.9949C7.09885 85.9948 7.10042 85.9944 7.10324 85.9936C7.1089 85.992 7.11959 85.989 7.1352 85.9846C7.16644 85.9759 7.21736 85.9619 7.28715 85.943C7.42675 85.9052 7.64164 85.8482 7.92515 85.7764C8.49246 85.6328 9.33283 85.4302 10.3931 85.2037C12.5177 84.7498 15.5031 84.2046 18.9286 83.8418C25.9048 83.1029 34.1728 83.182 40.7431 85.854L43.7569 78.4434C35.3465 75.023 25.4896 75.1021 18.0859 75.8863C14.3215 76.285 11.0533 76.8822 8.72175 77.3802C7.55391 77.6297 6.61557 77.8555 5.96119 78.0213C5.63387 78.1042 5.37717 78.1721 5.19789 78.2206C5.10824 78.2449 5.03791 78.2643 4.98774 78.2783C4.96265 78.2852 4.94261 78.2909 4.9277 78.2951C4.92025 78.2972 4.91408 78.299 4.90921 78.3003C4.90678 78.301 4.90467 78.3016 4.90288 78.3021C4.90199 78.3024 4.9009 78.3027 4.90045 78.3028C4.89944 78.3031 4.89851 78.3034 6 82.1487ZM40.7431 85.854C47.4462 88.5801 54.0673 95.9471 59.2484 103.336C61.7665 106.928 63.817 110.336 65.2382 112.848C65.9474 114.102 66.4965 115.127 66.8653 115.832C67.0496 116.185 67.1887 116.457 67.28 116.637C67.3256 116.728 67.3593 116.795 67.3806 116.838C67.3913 116.86 67.399 116.875 67.4035 116.884C67.4057 116.889 67.4072 116.892 67.4079 116.893C67.4083 116.894 67.4084 116.894 67.4084 116.894C67.4083 116.894 67.4082 116.894 67.4082 116.894C67.4079 116.893 67.4076 116.893 71 115.133C74.5924 113.374 74.592 113.373 74.5916 113.372C74.5913 113.372 74.5909 113.371 74.5904 113.37C74.5896 113.369 74.5886 113.366 74.5873 113.364C74.5849 113.359 74.5816 113.352 74.5775 113.344C74.5694 113.328 74.5581 113.305 74.5437 113.276C74.5149 113.218 74.4735 113.135 74.4199 113.029C74.3128 112.817 74.1567 112.512 73.9543 112.125C73.5496 111.351 72.9586 110.248 72.2014 108.91C70.6897 106.237 68.502 102.599 65.7987 98.7435C60.5373 91.2398 52.7834 82.1144 43.7569 78.4434L40.7431 85.854ZM71 115.133C74.948 114.49 74.9481 114.491 74.9482 114.491C74.9482 114.491 74.9482 114.492 74.9482 114.492C74.9482 114.492 74.9481 114.491 74.948 114.491C74.9477 114.489 74.9472 114.486 74.9464 114.481C74.9448 114.471 74.9422 114.454 74.9386 114.431C74.9313 114.385 74.9202 114.313 74.9056 114.217C74.8764 114.025 74.8334 113.734 74.7806 113.355C74.675 112.597 74.5302 111.487 74.3772 110.104C74.0707 107.333 73.7337 103.487 73.6104 99.1853C73.3584 90.3918 74.0306 80.4162 77.1338 73.6715L69.8662 70.3277C65.9349 78.8722 65.3572 90.4635 65.6137 99.4145C65.7447 103.985 66.1018 108.055 66.4257 110.984C66.5878 112.45 66.7423 113.635 66.8572 114.459C66.9146 114.871 66.9622 115.194 66.996 115.417C67.0129 115.528 67.0263 115.615 67.0358 115.675C67.0406 115.705 67.0444 115.729 67.0471 115.746C67.0484 115.754 67.0495 115.761 67.0503 115.766C67.0508 115.769 67.0511 115.771 67.0514 115.772C67.0515 115.773 67.0517 115.774 67.0517 115.775C67.0519 115.776 67.052 115.776 71 115.133ZM77.1338 73.6715C79.5888 68.3358 84.759 62.4194 89.6342 57.6401C92.0208 55.3004 94.2433 53.3224 95.8682 51.9305C96.6794 51.2356 97.3386 50.6894 97.7909 50.3201C98.0169 50.1355 98.1911 49.9953 98.3065 49.9031C98.3642 49.8569 98.4072 49.8228 98.4346 49.8011C98.4483 49.7902 98.4581 49.7825 98.4639 49.7779C98.4668 49.7756 98.4687 49.7741 98.4696 49.7734C98.4701 49.7731 98.4702 49.7729 98.4702 49.773C98.4701 49.773 98.4699 49.7732 98.4699 49.7732C98.4696 49.7734 98.4692 49.7737 96 46.6268C93.5308 43.4799 93.5303 43.4803 93.5297 43.4808C93.5295 43.481 93.5288 43.4815 93.5283 43.4819C93.5272 43.4828 93.5258 43.4838 93.5242 43.4851C93.521 43.4876 93.5167 43.491 93.5115 43.4951C93.501 43.5034 93.4864 43.5149 93.4679 43.5296C93.4308 43.5589 93.378 43.6009 93.3102 43.6551C93.1747 43.7634 92.9795 43.9207 92.7314 44.1232C92.2355 44.5281 91.5276 45.1148 90.6636 45.855C88.938 47.3332 86.5776 49.4336 84.0338 51.9273C79.0484 56.8146 72.9686 63.5846 69.8662 70.3277L77.1338 73.6715ZM96 46.6268C95.5603 42.6511 95.5608 42.651 95.5612 42.651C95.5613 42.651 95.5616 42.6509 95.5617 42.6509C95.5618 42.6509 95.5616 42.6509 95.5611 42.651C95.5602 42.6511 95.5579 42.6513 95.5545 42.6517C95.5476 42.6524 95.5358 42.6537 95.5192 42.6555C95.4861 42.659 95.4338 42.6644 95.3632 42.6715C95.2221 42.6858 95.0081 42.7067 94.7283 42.7319C94.1686 42.7824 93.3471 42.8503 92.321 42.9175C90.2655 43.0521 87.4063 43.1828 84.1968 43.1678C77.6257 43.137 70.1606 42.4903 65.0131 40.3868L61.9869 47.7923C68.6477 50.5143 77.4326 51.1362 84.1594 51.1677C87.5989 51.1838 90.6506 51.044 92.8438 50.9004C93.9421 50.8285 94.8294 50.7553 95.4474 50.6995C95.7565 50.6716 95.9985 50.6481 96.1663 50.6311C96.2501 50.6227 96.3155 50.6159 96.3613 50.611C96.3843 50.6086 96.4023 50.6067 96.4154 50.6052C96.422 50.6045 96.4273 50.604 96.4313 50.6035C96.4333 50.6033 96.435 50.6031 96.4364 50.6029C96.4371 50.6029 96.4379 50.6028 96.4383 50.6027C96.439 50.6027 96.4397 50.6026 96 46.6268ZM65.0131 40.3868C55.8344 36.6359 48.27 27.6992 42.8554 19.1135C40.1967 14.8976 38.1551 10.926 36.7793 8.00862C36.0926 6.55265 35.5752 5.36628 35.2325 4.55221C35.0613 4.14535 34.9339 3.83201 34.8512 3.62508C34.8098 3.52164 34.7796 3.44484 34.7607 3.3963C34.7512 3.37203 34.7445 3.35483 34.7407 3.3449C34.7388 3.33994 34.7376 3.33679 34.7371 3.33549C34.7368 3.33484 34.7368 3.33465 34.7369 3.33492C34.7369 3.33506 34.7371 3.33562 34.7372 3.33568C34.7374 3.33635 34.7377 3.33714 31 4.76172C27.2623 6.1863 27.2627 6.18732 27.2631 6.18846C27.2633 6.189 27.2638 6.19026 27.2642 6.19133C27.265 6.19348 27.266 6.19611 27.2672 6.1992C27.2696 6.20538 27.2727 6.21343 27.2765 6.22333C27.2841 6.24312 27.2946 6.2703 27.3081 6.30467C27.3349 6.37339 27.3732 6.47087 27.4231 6.59546C27.5227 6.8446 27.6682 7.20238 27.859 7.65568C28.2405 8.56193 28.8037 9.85209 29.5435 11.4209C31.0206 14.5532 33.2151 18.8243 36.0887 23.3809C41.7387 32.3401 50.4243 43.0673 61.9869 47.7923L65.0131 40.3868Z" fill="white" mask="url(#path-1-outside-1_41_1739)"/>
</g>
<path d="M31 49.1641C38.0993 30.1656 31 4.76172 31 4.76172C31 4.76172 42.7588 35.6137 63.5 44.0896C75.3083 48.915 96 46.6268 96 46.6268C96 46.6268 79.0574 59.9208 73.5 71.9996C66.4655 87.2888 71 115.133 71 115.133C71 115.133 57.9795 88.5458 42.25 82.1487C27.2693 76.0562 6 82.1487 6 82.1487C6 82.1487 24.6163 66.2475 31 49.1641Z" fill="#00BEFD"/>
<path d="M31 4.76172L32.8689 4.04943C32.4882 3.05057 31.3893 2.52764 30.3741 2.86219C29.3588 3.19675 28.7861 4.2705 29.0738 5.30001L31 4.76172ZM31 49.1641L32.8735 49.8642L32.8735 49.8642L31 49.1641ZM6 82.1487L4.70104 80.628C3.98558 81.2391 3.79285 82.2663 4.23811 83.0952C4.68337 83.9241 5.6462 84.3305 6.55074 84.0714L6 82.1487ZM42.25 82.1487L41.4965 84.0014L41.4965 84.0014L42.25 82.1487ZM71 115.133L69.2038 116.013C69.6399 116.903 70.6624 117.34 71.6071 117.039C72.5518 116.738 73.1334 115.79 72.974 114.812L71 115.133ZM73.5 71.9996L71.6831 71.1637L71.6831 71.1637L73.5 71.9996ZM96 46.6268L97.2346 48.2003C97.9375 47.6487 98.1894 46.6978 97.8515 45.8707C97.5137 45.0435 96.6682 44.5407 95.7802 44.6389L96 46.6268ZM63.5 44.0896L62.7434 45.9409L62.7434 45.9409L63.5 44.0896ZM31 4.76172C29.0738 5.30001 29.0737 5.29968 29.0736 5.29944C29.0737 5.2995 29.0736 5.29936 29.0736 5.29946C29.0737 5.29966 29.0739 5.30025 29.0741 5.30122C29.0747 5.30315 29.0756 5.30662 29.077 5.3116C29.0797 5.32156 29.0841 5.33757 29.0901 5.35951C29.102 5.4034 29.1202 5.47102 29.144 5.56139C29.1917 5.74214 29.2618 6.01385 29.3492 6.36877C29.5241 7.07875 29.7681 8.12092 30.0399 9.43347C30.5838 12.0604 31.2372 15.7604 31.6725 20.0408C32.5484 28.6534 32.5168 39.3912 29.1265 48.464L32.8735 49.8642C36.5825 39.9385 36.5509 28.4752 35.652 19.6361C35.1999 15.1908 34.5221 11.3524 33.9568 8.62239C33.6739 7.25647 33.4187 6.16554 33.2331 5.41203C33.1403 5.03521 33.0648 4.74257 33.0119 4.54192C32.9855 4.44159 32.9647 4.36424 32.9502 4.31083C32.9429 4.28413 32.9373 4.26342 32.9332 4.24881C32.9312 4.24151 32.9296 4.23573 32.9284 4.2315C32.9279 4.22938 32.9274 4.22765 32.927 4.2263C32.9268 4.22563 32.9266 4.22491 32.9265 4.22457C32.9263 4.22395 32.9262 4.22343 31 4.76172ZM29.1265 48.464C26.0649 56.6572 20.0108 64.6822 14.6138 70.7312C11.9312 73.7379 9.4439 76.2202 7.62903 77.9492C6.72214 78.8131 5.9846 79.4876 5.47634 79.9438C5.22225 80.1719 5.02558 80.3454 4.89384 80.4606C4.82797 80.5183 4.77834 80.5613 4.74589 80.5894C4.72967 80.6034 4.71774 80.6137 4.71022 80.6201C4.70647 80.6233 4.70381 80.6256 4.70228 80.6269C4.70151 80.6276 4.70102 80.628 4.70081 80.6282C4.70071 80.6283 4.70077 80.6282 4.70072 80.6283C4.70084 80.6282 4.70104 80.628 6 82.1487C7.29896 83.6695 7.2993 83.6692 7.29971 83.6689C7.29994 83.6687 7.30042 83.6682 7.30089 83.6679C7.30181 83.6671 7.30302 83.666 7.30451 83.6648C7.30749 83.6622 7.31159 83.6587 7.31681 83.6542C7.32724 83.6452 7.34211 83.6324 7.36131 83.6158C7.39969 83.5827 7.45538 83.5344 7.52742 83.4713C7.67149 83.3453 7.88102 83.1605 8.14844 82.9204C8.6832 82.4403 9.44993 81.739 10.3881 80.8453C12.2632 79.0589 14.829 76.4983 17.5985 73.3942C23.1055 67.2218 29.5514 58.7545 32.8735 49.8642L29.1265 48.464ZM6 82.1487C6.55074 84.0714 6.5504 84.0715 6.55014 84.0716C6.55016 84.0716 6.54998 84.0716 6.55002 84.0716C6.55009 84.0716 6.5505 84.0715 6.55122 84.0713C6.55266 84.0709 6.55537 84.0701 6.55936 84.069C6.56733 84.0667 6.58035 84.0631 6.59834 84.058C6.6343 84.048 6.69008 84.0326 6.76484 84.0124C6.91435 83.9719 7.1397 83.9122 7.43416 83.8377C8.02324 83.6885 8.8881 83.4801 9.97523 83.2479C12.1516 82.7829 15.2077 82.2247 18.7179 81.8529C25.801 81.1027 34.4662 81.1422 41.4965 84.0014L43.0035 80.2961C35.0531 77.0627 25.5934 77.1023 18.2966 77.8752C14.6169 78.2649 11.4194 78.8491 9.13957 79.3361C7.99864 79.5799 7.08479 79.7999 6.45218 79.9601C6.13581 80.0402 5.88957 80.1054 5.72021 80.1512C5.63552 80.1741 5.57004 80.1922 5.52461 80.2049C5.50189 80.2112 5.48418 80.2162 5.47159 80.2197C5.46529 80.2215 5.46027 80.2229 5.45655 80.224C5.45468 80.2245 5.45314 80.225 5.45193 80.2253C5.45132 80.2255 5.45065 80.2257 5.45035 80.2258C5.44976 80.2259 5.44926 80.2261 6 82.1487ZM41.4965 84.0014C48.7805 86.9637 55.6848 94.7702 60.886 102.188C63.4503 105.845 65.5352 109.311 66.979 111.864C67.7002 113.139 68.2598 114.183 68.6375 114.905C68.8264 115.266 68.9697 115.547 69.0649 115.735C69.1126 115.83 69.1482 115.901 69.1714 115.948C69.183 115.971 69.1916 115.988 69.197 115.999C69.1997 116.005 69.2016 116.009 69.2028 116.011C69.2033 116.012 69.2037 116.013 69.2039 116.013C69.204 116.013 69.204 116.013 69.204 116.013C69.2039 116.013 69.2038 116.013 71 115.133C72.7962 114.254 72.796 114.253 72.7957 114.253C72.7955 114.252 72.7952 114.252 72.7949 114.251C72.7943 114.25 72.7935 114.248 72.7925 114.246C72.7904 114.242 72.7876 114.236 72.784 114.229C72.7768 114.214 72.7664 114.193 72.7529 114.166C72.726 114.112 72.6865 114.033 72.6349 113.931C72.5318 113.727 72.38 113.43 72.1821 113.052C71.7863 112.295 71.2058 111.212 70.4606 109.894C68.9715 107.262 66.8181 103.681 64.1611 99.8917C58.9198 92.4166 51.4491 83.7308 43.0035 80.2961L41.4965 84.0014ZM71 115.133C72.974 114.812 72.974 114.812 72.974 114.812C72.974 114.812 72.974 114.812 72.974 114.812C72.9739 114.812 72.9738 114.811 72.9736 114.809C72.9732 114.807 72.9725 114.803 72.9716 114.797C72.9697 114.785 72.9668 114.767 72.9629 114.742C72.9551 114.693 72.9434 114.617 72.9282 114.517C72.8978 114.317 72.8537 114.018 72.7998 113.631C72.6918 112.856 72.5446 111.728 72.3893 110.324C72.0784 107.514 71.7365 103.611 71.6113 99.2426C71.3581 90.4097 72.0067 80.0302 75.3169 72.8356L71.6831 71.1637C67.9588 79.2582 67.3575 90.4456 67.6129 99.3572C67.742 103.861 68.094 107.875 68.4135 110.764C68.5734 112.209 68.7255 113.375 68.838 114.183C68.8943 114.587 68.9408 114.902 68.9734 115.117C68.9897 115.224 69.0026 115.307 69.0115 115.364C69.016 115.392 69.0195 115.414 69.0219 115.429C69.0231 115.437 69.0241 115.443 69.0248 115.447C69.0251 115.449 69.0254 115.451 69.0256 115.452C69.0257 115.453 69.0258 115.454 69.0258 115.454C69.0259 115.454 69.026 115.455 71 115.133ZM75.3169 72.8356C77.9337 67.148 83.3313 61.0182 88.2341 56.2119C90.66 53.8337 92.917 51.8251 94.567 50.4116C95.3914 49.7054 96.0628 49.1491 96.526 48.7709C96.7576 48.5818 96.937 48.4374 97.0574 48.3411C97.1177 48.2929 97.1631 48.2568 97.1929 48.2332C97.2078 48.2214 97.2188 48.2127 97.2258 48.2072C97.2293 48.2045 97.2318 48.2025 97.2333 48.2013C97.234 48.2008 97.2345 48.2004 97.2347 48.2002C97.2348 48.2001 97.2348 48.2001 97.2348 48.2001C97.2348 48.2002 97.2346 48.2003 96 46.6268C94.7654 45.0534 94.7651 45.0536 94.7648 45.0539C94.7646 45.054 94.7642 45.0544 94.7638 45.0547C94.7629 45.0553 94.7619 45.0561 94.7606 45.0572C94.7579 45.0592 94.7543 45.0621 94.7496 45.0658C94.7402 45.0732 94.7269 45.0837 94.7095 45.0975C94.6749 45.1249 94.6245 45.1649 94.5593 45.2171C94.4288 45.3214 94.2388 45.4744 93.9963 45.6724C93.5112 46.0684 92.8155 46.645 91.9647 47.3739C90.2644 48.8305 87.9384 50.9003 85.4339 53.3555C80.4761 58.2158 74.6237 64.7724 71.6831 71.1637L75.3169 72.8356ZM96 46.6268C95.7802 44.6389 95.7804 44.6389 95.7805 44.6389C95.7804 44.6389 95.7805 44.6389 95.7804 44.6389C95.7801 44.639 95.7796 44.639 95.7787 44.6391C95.7769 44.6393 95.774 44.6396 95.7697 44.6401C95.7613 44.641 95.7479 44.6424 95.7298 44.6444C95.6934 44.6482 95.6379 44.654 95.564 44.6614C95.4162 44.6764 95.1952 44.6979 94.9081 44.7238C94.3338 44.7756 93.4959 44.8449 92.4517 44.9132C90.3618 45.0501 87.4544 45.183 84.1875 45.1677C77.5774 45.1368 69.7824 44.4963 64.2566 42.2382L62.7434 45.9409C69.0259 48.5083 77.4809 49.1364 84.1687 49.1677C87.5507 49.1835 90.5543 49.0461 92.7131 48.9047C93.7933 48.8339 94.6642 48.7621 95.2676 48.7076C95.5694 48.6804 95.8044 48.6575 95.9655 48.6412C96.046 48.6331 96.1081 48.6267 96.1508 48.6221C96.1721 48.6199 96.1886 48.6181 96.2002 48.6169C96.206 48.6162 96.2105 48.6157 96.2138 48.6154C96.2154 48.6152 96.2167 48.6151 96.2177 48.6149C96.2182 48.6149 96.2188 48.6148 96.219 48.6148C96.2195 48.6147 96.2198 48.6147 96 46.6268ZM64.2566 42.2382C54.4819 38.2438 46.6372 28.8595 41.1637 20.1803C38.4513 15.8793 36.3715 11.8328 34.9703 8.8617C34.2704 7.37751 33.7415 6.16519 33.3891 5.32807C33.213 4.9096 33.0811 4.58516 32.9941 4.36768C32.9507 4.25894 32.9184 4.17698 32.8975 4.12339C32.8871 4.0966 32.8794 4.0769 32.8747 4.06451C32.8723 4.05831 32.8706 4.05394 32.8696 4.05142C32.8691 4.05016 32.8688 4.04936 32.8687 4.04903C32.8686 4.04886 32.8687 4.04896 32.8687 4.04888C32.8687 4.0491 32.8689 4.04943 31 4.76172C29.1311 5.47401 29.1314 5.47458 29.1316 5.47527C29.1318 5.47565 29.1321 5.47646 29.1324 5.47723C29.133 5.47877 29.1337 5.48079 29.1347 5.48327C29.1366 5.48823 29.1392 5.49505 29.1425 5.50372C29.1492 5.52105 29.1588 5.54573 29.1712 5.57757C29.1961 5.64125 29.2324 5.73356 29.2801 5.85286C29.3755 6.09145 29.5165 6.43812 29.7024 6.87981C30.0741 7.76302 30.6259 9.02723 31.3524 10.5678C32.8042 13.6464 34.9605 17.8426 37.7803 22.314C43.3716 31.1799 51.7768 41.4594 62.7434 45.9409L64.2566 42.2382Z" fill="black"/>
<defs>
<filter id="filter0_d_41_1739" x="0" y="0.760742" width="102" height="122.373" filterUnits="userSpaceOnUse" color-interpolation-filters="sRGB">
<feFlood flood-opacity="0" result="BackgroundImageFix"/>
<feColorMatrix in="SourceAlpha" type="matrix" values="0 0 0 0 0 0 0 0 0 0 0 0 0 0 0 0 0 0 127 0" result="hardAlpha"/>
<feOffset dy="2"/>
<feGaussianBlur stdDeviation="1"/>
<feComposite in2="hardAlpha" operator="out"/>
<feColorMatrix type="matrix" values="0 0 0 0 0 0 0 0 0 0 0 0 0 0 0 0 0 0 0.25 0"/>
<feBlend mode="normal" in2="BackgroundImageFix" result="effect1_dropShadow_41_1739"/>
<feBlend mode="normal" in="SourceGraphic" in2="effect1_dropShadow_41_1739" result="shape"/>
</filter>
</defs>
</svg>
