<?xml version="1.0" encoding="utf-8"?>
<!-- Generator: Adobe Illustrator 27.5.0, SVG Export Plug-In . SVG Version: 6.00 Build 0)  -->
<svg version="1.1" id="Layer_1" xmlns="http://www.w3.org/2000/svg" xmlns:xlink="http://www.w3.org/1999/xlink" x="0px" y="0px"
	 viewBox="0 0 1000 1000" style="enable-background:new 0 0 1000 1000;" xml:space="preserve">
<style type="text/css">
	.st0{fill:#F7E369;}
	.st1{fill:#F55C3C;}
	.st2{fill:#FFD939;}
	.st3{fill:#E26B00;}
	.st4{fill:#EA5467;}
	.st5{fill:#F9C0E1;}
	.st6{fill:#FFFFFF;}
	.st7{fill:#FCC5F5;}
	.st8{fill:#7346AE;}
	.st9{fill:#F232A0;}
	.st10{fill:#EDB5D8;}
	.st11{fill:#F7313D;}
	.st12{fill:#F9EAA2;}
	.st13{fill:#F8A4CB;}
	.st14{fill:#F19EF8;}
	.st15{fill:#8867CE;}
	.st16{fill:#3E6FD5;}
	.st17{fill:#FAF2E9;}
	.st18{fill:#663A92;}
	.st19{fill:#FF8D3D;}
	.st20{fill:#FADF46;}
	.st21{fill:#7903EA;}
	.st22{fill:#CEA7F2;}
	.st23{fill:#FDFEFC;}
	.st24{fill:#FF4C37;}
	.st25{fill:#FFCAC1;}
	.st26{fill:#E8C93D;}
	.st27{fill:#29864D;}
	.st28{fill:#F8F8F0;}
	.st29{fill:#F7851E;}
	.st30{fill:#F9F946;}
	.st31{fill:#F8862F;}
	.st32{fill:#FFE2D8;}
	.st33{fill:#4A89E5;}
	.st34{fill:#F97AC5;}
	.st35{fill:#FDFFFF;}
	.st36{fill:#F2C3B3;}
	.st37{fill:#F13830;}
	.st38{fill:#E2D25D;}
	.st39{fill:#F36525;}
	.st40{fill:#FFDCD7;}
	.st41{fill:#FB4321;}
	.st42{clip-path:url(#SVGID_00000010270730062740083980000008121097390052948883_);}
	.st43{fill:#3A3A3A;}
	.st44{fill:#2B2B2B;}
	.st45{fill:#5BAA41;}
	.st46{fill:#F277B4;}
	.st47{fill:#EEE5BE;}
	.st48{fill:#FDCA06;}
	.st49{fill:#EF7807;}
	.st50{fill:#CBF0E1;}
	.st51{fill:#56906A;}
	.st52{fill:#FFF8D9;}
	.st53{fill:#FFBC15;}
	.st54{fill:#28282B;}
	.st55{fill:#EF354C;}
	.st56{fill:#F39FC7;}
	.st57{fill:#F9AB4E;}
	.st58{fill:#EFFF7B;}
	.st59{fill:#50C096;}
	.st60{fill:#DBFAF0;}
	.st61{fill:#FFF8F8;}
	.st62{fill:#84322C;}
	.st63{fill:#F1F1F1;}
	.st64{fill:#F20000;}
	.st65{fill:#FFFA57;}
	.st66{fill:#3BBCF4;}
	.st67{fill:#EFF784;}
	.st68{fill:#F46CAD;}
	.st69{fill:#ECDED1;}
	.st70{fill:#398FAA;}
	.st71{fill:#FB5229;}
	.st72{fill:#FFDFD8;}
	.st73{fill:#EE4933;}
	.st74{fill:#8021E2;}
	.st75{fill:#D0B6F0;}
	.st76{fill:#418ADF;}
	.st77{fill:#E6F1FF;}
	.st78{fill:#FF6A36;}
	.st79{fill:#F9C77D;}
	.st80{fill:#6E579F;}
	.st81{fill:#FBB9F0;}
	.st82{fill:#EF4C23;}
	.st83{fill:#FFC7E7;}
	.st84{fill:#DAF1F7;}
	.st85{fill:#5353F9;}
	.st86{fill:#FF56C8;}
	.st87{fill:#FCF0FC;}
	.st88{fill:#E5B9FF;}
	.st89{fill:#7C63E5;}
	.st90{fill:#E8CA47;}
	.st91{fill:#DD2F5E;}
	.st92{fill:#DBC0FF;}
	.st93{fill:#844FDC;}
	.st94{fill:#E9F98F;}
	.st95{fill:#E8AD85;}
</style>
<g>
	<path class="st40" d="M353.29,791.74c-12.43,0-24.01-6.69-30.22-17.45L176.36,520.18c-6.21-10.76-6.21-24.14,0-34.9l146.71-254.11
		c6.21-10.76,17.8-17.45,30.22-17.45h293.42c12.43,0,24.01,6.69,30.22,17.45l146.71,254.11c6.21,10.76,6.21,24.14,0,34.9
		L676.93,774.29c-6.21,10.76-17.8,17.45-30.22,17.45H353.29z"/>
	<path class="st41" d="M809.28,493.57L662.57,239.47c-3.27-5.67-9.32-9.16-15.87-9.16H353.29c-6.55,0-12.59,3.49-15.87,9.16
		L190.72,493.57c-3.27,5.67-3.27,12.65,0,18.32L337.43,766c3.27,5.67,9.32,9.16,15.87,9.16h293.42c6.55,0,12.59-3.49,15.87-9.16
		l146.71-254.11C812.55,506.22,812.55,499.24,809.28,493.57z"/>
	<g>
		<defs>
			<path id="SVGID_1_" d="M809.28,493.57L662.57,239.47c-3.27-5.67-9.32-9.16-15.87-9.16H353.29c-6.55,0-12.59,3.49-15.87,9.16
				L190.72,493.57c-3.27,5.67-3.27,12.65,0,18.32L337.43,766c3.27,5.67,9.32,9.16,15.87,9.16h293.42c6.55,0,12.59-3.49,15.87-9.16
				l146.71-254.11C812.55,506.22,812.55,499.24,809.28,493.57z"/>
		</defs>
		<clipPath id="SVGID_00000168088461396458422120000009074210564969227667_">
			<use xlink:href="#SVGID_1_"  style="overflow:visible;"/>
		</clipPath>
		<g style="clip-path:url(#SVGID_00000168088461396458422120000009074210564969227667_);">
			<path class="st43" d="M277.12,518.77c0.47,3.3,1.96,6.16,4.48,8.57c2.52,2.41,5.92,4.26,10.22,5.54c4.3,1.28,9.3,1.93,15.01,1.93
				c5.35,0,9.93-0.46,13.76-1.38c3.82-0.92,6.77-2.29,8.84-4.13c2.07-1.83,3.1-4.03,3.1-6.6c0-2.09-0.58-3.84-1.73-5.23
				c-1.15-1.39-3.1-2.53-5.86-3.42c-2.75-0.89-6.57-1.57-11.44-2.04l-21.85-2.04c-10.85-1-19.68-2.96-26.49-5.9
				c-6.81-2.93-11.83-6.82-15.05-11.67c-3.22-4.85-4.83-10.68-4.83-17.49c0-8.02,2.36-14.87,7.07-20.55
				c4.71-5.68,11.4-10.01,20.04-12.97c8.65-2.96,18.76-4.44,30.34-4.44c11.27,0,21.31,1.62,30.15,4.87
				c8.83,3.25,15.83,7.82,20.99,13.72c5.16,5.89,8,12.67,8.53,20.32h-33.17c-0.37-2.78-1.68-5.2-3.93-7.27
				c-2.25-2.07-5.34-3.66-9.28-4.76c-3.93-1.1-8.57-1.65-13.91-1.65c-4.93,0-9.17,0.43-12.73,1.3c-3.57,0.86-6.3,2.16-8.22,3.89
				c-1.91,1.73-2.87,3.83-2.87,6.29c0,1.94,0.54,3.56,1.61,4.87c1.07,1.31,2.91,2.4,5.5,3.26c2.59,0.86,6.12,1.53,10.57,2l23.5,2.28
				c11.16,1.05,20.09,2.86,26.8,5.42c6.71,2.57,11.58,6.08,14.62,10.53c3.04,4.45,4.56,10.09,4.56,16.9
				c0,8.17-2.46,15.37-7.39,21.58c-4.93,6.21-11.87,11.02-20.83,14.42c-8.96,3.41-19.31,5.11-31.05,5.11
				c-12.1,0-22.82-1.72-32.15-5.15c-9.33-3.43-16.61-8.27-21.85-14.5c-5.24-6.24-7.99-13.44-8.25-21.62H277.12z"/>
			<path class="st43" d="M371.99,439.54h122.54v29H371.99V439.54z M416.95,453.85h32.62v103.6h-32.62V453.85z"/>
			<path class="st43" d="M570.93,560.04c-13.83,0-26.06-2.57-36.67-7.7c-10.61-5.13-18.83-12.35-24.64-21.65
				c-5.82-9.3-8.72-20.03-8.72-32.19c0-12.16,2.91-22.89,8.72-32.19c5.82-9.3,14.03-16.52,24.64-21.65
				c10.61-5.13,22.83-7.7,36.67-7.7s26.04,2.57,36.63,7.7c10.58,5.14,18.8,12.35,24.64,21.65c5.84,9.3,8.77,20.03,8.77,32.19
				c0,12.16-2.92,22.89-8.77,32.19c-5.84,9.3-14.06,16.52-24.64,21.65C596.97,557.47,584.76,560.04,570.93,560.04z M570.93,530.88
				c7.55,0,14.11-1.3,19.69-3.89c5.58-2.59,9.88-6.33,12.89-11.2c3.01-4.87,4.52-10.64,4.52-17.29c0-6.65-1.51-12.42-4.52-17.29
				c-3.01-4.87-7.31-8.61-12.89-11.2c-5.58-2.59-12.14-3.89-19.69-3.89c-7.6,0-14.19,1.3-19.77,3.89
				c-5.58,2.59-9.86,6.33-12.85,11.2c-2.99,4.87-4.48,10.64-4.48,17.29c0,6.66,1.49,12.42,4.48,17.29
				c2.99,4.87,7.27,8.61,12.85,11.2C556.74,529.58,563.33,530.88,570.93,530.88z"/>
			<path class="st43" d="M726.25,439.54c9.8,0,18.29,1.68,25.47,5.03c7.18,3.35,12.68,8.1,16.51,14.23
				c3.83,6.13,5.74,13.26,5.74,21.38c0,8.12-1.91,15.25-5.74,21.38c-3.83,6.13-9.33,10.87-16.51,14.23
				c-7.18,3.35-15.67,5.03-25.47,5.03h-51.09v-26.1h49.2c3.46,0,6.45-0.58,8.96-1.73c2.52-1.15,4.43-2.82,5.74-4.99
				c1.31-2.17,1.97-4.78,1.97-7.82c0-2.99-0.66-5.57-1.97-7.74c-1.31-2.17-3.22-3.85-5.74-5.03c-2.51-1.18-5.5-1.77-8.96-1.77h-46.3
				l14.62-15.09v106.9h-32.62v-117.9H726.25z"/>
		</g>
		<g style="clip-path:url(#SVGID_00000168088461396458422120000009074210564969227667_);">
			<path class="st43" d="M277.12,663.46c0.47,3.3,1.96,6.16,4.48,8.57c2.52,2.41,5.92,4.26,10.22,5.54c4.3,1.28,9.3,1.93,15.01,1.93
				c5.35,0,9.93-0.46,13.76-1.38c3.82-0.92,6.77-2.29,8.84-4.13c2.07-1.83,3.1-4.03,3.1-6.6c0-2.09-0.58-3.84-1.73-5.23
				c-1.15-1.39-3.1-2.53-5.86-3.42c-2.75-0.89-6.57-1.57-11.44-2.04l-21.85-2.04c-10.85-1-19.68-2.96-26.49-5.9
				c-6.81-2.93-11.83-6.82-15.05-11.67c-3.22-4.85-4.83-10.68-4.83-17.49c0-8.02,2.36-14.87,7.07-20.55
				c4.71-5.68,11.4-10.01,20.04-12.97c8.65-2.96,18.76-4.44,30.34-4.44c11.27,0,21.31,1.62,30.15,4.87
				c8.83,3.25,15.83,7.82,20.99,13.72c5.16,5.9,8,12.67,8.53,20.32h-33.17c-0.37-2.78-1.68-5.2-3.93-7.27
				c-2.25-2.07-5.34-3.66-9.28-4.76c-3.93-1.1-8.57-1.65-13.91-1.65c-4.93,0-9.17,0.43-12.73,1.3c-3.57,0.86-6.3,2.16-8.22,3.89
				c-1.91,1.73-2.87,3.83-2.87,6.29c0,1.94,0.54,3.56,1.61,4.87c1.07,1.31,2.91,2.4,5.5,3.26c2.59,0.86,6.12,1.53,10.57,2l23.5,2.28
				c11.16,1.05,20.09,2.86,26.8,5.42c6.71,2.57,11.58,6.08,14.62,10.53c3.04,4.45,4.56,10.09,4.56,16.9
				c0,8.17-2.46,15.37-7.39,21.58c-4.93,6.21-11.87,11.02-20.83,14.42c-8.96,3.41-19.31,5.11-31.05,5.11
				c-12.1,0-22.82-1.72-32.15-5.15c-9.33-3.43-16.61-8.27-21.85-14.5c-5.24-6.24-7.99-13.44-8.25-21.62H277.12z"/>
			<path class="st43" d="M371.99,584.23h122.54v29H371.99V584.23z M416.95,598.54h32.62v103.6h-32.62V598.54z"/>
			<path class="st43" d="M570.93,704.73c-13.83,0-26.06-2.57-36.67-7.7c-10.61-5.13-18.83-12.35-24.64-21.65
				c-5.82-9.3-8.72-20.03-8.72-32.19c0-12.16,2.91-22.89,8.72-32.19c5.82-9.3,14.03-16.52,24.64-21.65
				c10.61-5.13,22.83-7.7,36.67-7.7s26.04,2.57,36.63,7.7c10.58,5.14,18.8,12.35,24.64,21.65c5.84,9.3,8.77,20.03,8.77,32.19
				c0,12.16-2.92,22.89-8.77,32.19c-5.84,9.3-14.06,16.52-24.64,21.65C596.97,702.16,584.76,704.73,570.93,704.73z M570.93,675.57
				c7.55,0,14.11-1.3,19.69-3.89c5.58-2.59,9.88-6.33,12.89-11.2c3.01-4.87,4.52-10.64,4.52-17.29c0-6.65-1.51-12.42-4.52-17.29
				c-3.01-4.87-7.31-8.61-12.89-11.2c-5.58-2.59-12.14-3.89-19.69-3.89c-7.6,0-14.19,1.3-19.77,3.89
				c-5.58,2.59-9.86,6.33-12.85,11.2c-2.99,4.87-4.48,10.64-4.48,17.29c0,6.66,1.49,12.42,4.48,17.29
				c2.99,4.87,7.27,8.61,12.85,11.2C556.74,674.27,563.33,675.57,570.93,675.57z"/>
			<path class="st43" d="M726.25,584.23c9.8,0,18.29,1.68,25.47,5.03c7.18,3.35,12.68,8.1,16.51,14.23
				c3.83,6.13,5.74,13.26,5.74,21.38c0,8.12-1.91,15.25-5.74,21.38c-3.83,6.13-9.33,10.87-16.51,14.23
				c-7.18,3.35-15.67,5.03-25.47,5.03h-51.09v-26.1h49.2c3.46,0,6.45-0.58,8.96-1.73c2.52-1.15,4.43-2.82,5.74-4.99
				c1.31-2.17,1.97-4.78,1.97-7.82c0-2.99-0.66-5.57-1.97-7.74c-1.31-2.17-3.22-3.85-5.74-5.03c-2.51-1.18-5.5-1.77-8.96-1.77h-46.3
				l14.62-15.09v106.9h-32.62v-117.9H726.25z"/>
		</g>
		<g style="clip-path:url(#SVGID_00000168088461396458422120000009074210564969227667_);">
			<path class="st43" d="M277.12,808.15c0.47,3.3,1.96,6.16,4.48,8.57c2.52,2.41,5.92,4.26,10.22,5.54c4.3,1.28,9.3,1.93,15.01,1.93
				c5.35,0,9.93-0.46,13.76-1.38c3.82-0.92,6.77-2.29,8.84-4.13c2.07-1.83,3.1-4.03,3.1-6.6c0-2.09-0.58-3.84-1.73-5.23
				c-1.15-1.39-3.1-2.53-5.86-3.42c-2.75-0.89-6.57-1.57-11.44-2.04l-21.85-2.04c-10.85-1-19.68-2.96-26.49-5.9
				c-6.81-2.93-11.83-6.82-15.05-11.67c-3.22-4.85-4.83-10.68-4.83-17.49c0-8.02,2.36-14.87,7.07-20.55
				c4.71-5.68,11.4-10.01,20.04-12.97c8.65-2.96,18.76-4.44,30.34-4.44c11.27,0,21.31,1.62,30.15,4.87
				c8.83,3.25,15.83,7.82,20.99,13.72c5.16,5.9,8,12.67,8.53,20.32h-33.17c-0.37-2.78-1.68-5.2-3.93-7.27
				c-2.25-2.07-5.34-3.66-9.28-4.76c-3.93-1.1-8.57-1.65-13.91-1.65c-4.93,0-9.17,0.43-12.73,1.3c-3.57,0.86-6.3,2.16-8.22,3.89
				c-1.91,1.73-2.87,3.83-2.87,6.29c0,1.94,0.54,3.56,1.61,4.87c1.07,1.31,2.91,2.4,5.5,3.26c2.59,0.86,6.12,1.53,10.57,2l23.5,2.28
				c11.16,1.05,20.09,2.86,26.8,5.42c6.71,2.57,11.58,6.08,14.62,10.53c3.04,4.45,4.56,10.09,4.56,16.9
				c0,8.17-2.46,15.37-7.39,21.58c-4.93,6.21-11.87,11.02-20.83,14.42c-8.96,3.41-19.31,5.11-31.05,5.11
				c-12.1,0-22.82-1.72-32.15-5.15c-9.33-3.43-16.61-8.27-21.85-14.5c-5.24-6.24-7.99-13.44-8.25-21.62H277.12z"/>
			<path class="st43" d="M371.99,728.92h122.54v29H371.99V728.92z M416.95,743.23h32.62v103.6h-32.62V743.23z"/>
			<path class="st43" d="M570.93,849.42c-13.83,0-26.06-2.57-36.67-7.7c-10.61-5.13-18.83-12.35-24.64-21.65
				c-5.82-9.3-8.72-20.03-8.72-32.19c0-12.16,2.91-22.89,8.72-32.19c5.82-9.3,14.03-16.52,24.64-21.65
				c10.61-5.13,22.83-7.7,36.67-7.7s26.04,2.57,36.63,7.7c10.58,5.14,18.8,12.35,24.64,21.65c5.84,9.3,8.77,20.03,8.77,32.19
				c0,12.16-2.92,22.89-8.77,32.19c-5.84,9.3-14.06,16.52-24.64,21.65C596.97,846.85,584.76,849.42,570.93,849.42z M570.93,820.26
				c7.55,0,14.11-1.3,19.69-3.89c5.58-2.59,9.88-6.33,12.89-11.2c3.01-4.87,4.52-10.64,4.52-17.29c0-6.65-1.51-12.42-4.52-17.29
				c-3.01-4.87-7.31-8.61-12.89-11.2c-5.58-2.59-12.14-3.89-19.69-3.89c-7.6,0-14.19,1.3-19.77,3.89
				c-5.58,2.59-9.86,6.33-12.85,11.2c-2.99,4.87-4.48,10.64-4.48,17.29c0,6.66,1.49,12.42,4.48,17.29
				c2.99,4.87,7.27,8.61,12.85,11.2C556.74,818.96,563.33,820.26,570.93,820.26z"/>
			<path class="st43" d="M726.25,728.92c9.8,0,18.29,1.68,25.47,5.03c7.18,3.35,12.68,8.1,16.51,14.23
				c3.83,6.13,5.74,13.26,5.74,21.38c0,8.12-1.91,15.25-5.74,21.38c-3.83,6.13-9.33,10.87-16.51,14.23
				c-7.18,3.35-15.67,5.03-25.47,5.03h-51.09v-26.1h49.2c3.46,0,6.45-0.58,8.96-1.73c2.52-1.15,4.43-2.82,5.74-4.99
				c1.31-2.17,1.97-4.78,1.97-7.82c0-2.99-0.66-5.57-1.97-7.74c-1.31-2.17-3.22-3.85-5.74-5.03c-2.51-1.18-5.5-1.77-8.96-1.77h-46.3
				l14.62-15.09v106.9h-32.62v-117.9H726.25z"/>
		</g>
		<g style="clip-path:url(#SVGID_00000168088461396458422120000009074210564969227667_);">
			<path class="st43" d="M277.12,232.4c0.47,3.3,1.96,6.16,4.48,8.57c2.52,2.41,5.92,4.26,10.22,5.54c4.3,1.28,9.3,1.93,15.01,1.93
				c5.35,0,9.93-0.46,13.76-1.38c3.82-0.92,6.77-2.29,8.84-4.13c2.07-1.83,3.1-4.03,3.1-6.6c0-2.09-0.58-3.84-1.73-5.23
				c-1.15-1.39-3.1-2.53-5.86-3.42c-2.75-0.89-6.57-1.57-11.44-2.04l-21.85-2.04c-10.85-1-19.68-2.96-26.49-5.9
				c-6.81-2.93-11.83-6.82-15.05-11.67c-3.22-4.85-4.83-10.68-4.83-17.49c0-8.02,2.36-14.87,7.07-20.55
				c4.71-5.68,11.4-10.01,20.04-12.97c8.65-2.96,18.76-4.44,30.34-4.44c11.27,0,21.31,1.62,30.15,4.87
				c8.83,3.25,15.83,7.82,20.99,13.72c5.16,5.9,8,12.67,8.53,20.32h-33.17c-0.37-2.78-1.68-5.2-3.93-7.27
				c-2.25-2.07-5.34-3.66-9.28-4.76c-3.93-1.1-8.57-1.65-13.91-1.65c-4.93,0-9.17,0.43-12.73,1.3c-3.57,0.86-6.3,2.16-8.22,3.89
				c-1.91,1.73-2.87,3.83-2.87,6.29c0,1.94,0.54,3.56,1.61,4.87c1.07,1.31,2.91,2.4,5.5,3.26c2.59,0.86,6.12,1.53,10.57,2l23.5,2.28
				c11.16,1.05,20.09,2.86,26.8,5.42c6.71,2.57,11.58,6.08,14.62,10.53c3.04,4.45,4.56,10.09,4.56,16.9
				c0,8.17-2.46,15.37-7.39,21.58c-4.93,6.21-11.87,11.02-20.83,14.42c-8.96,3.41-19.31,5.11-31.05,5.11
				c-12.1,0-22.82-1.72-32.15-5.15c-9.33-3.43-16.61-8.27-21.85-14.5c-5.24-6.24-7.99-13.44-8.25-21.62H277.12z"/>
			<path class="st43" d="M371.99,153.17h122.54v29H371.99V153.17z M416.95,167.48h32.62v103.6h-32.62V167.48z"/>
			<path class="st43" d="M570.93,273.67c-13.83,0-26.06-2.57-36.67-7.7c-10.61-5.13-18.83-12.35-24.64-21.65
				c-5.82-9.3-8.72-20.03-8.72-32.19c0-12.16,2.91-22.89,8.72-32.19c5.82-9.3,14.03-16.52,24.64-21.65
				c10.61-5.13,22.83-7.7,36.67-7.7s26.04,2.57,36.63,7.7c10.58,5.14,18.8,12.35,24.64,21.65c5.84,9.3,8.77,20.03,8.77,32.19
				c0,12.16-2.92,22.89-8.77,32.19c-5.84,9.3-14.06,16.52-24.64,21.65C596.97,271.1,584.76,273.67,570.93,273.67z M570.93,244.51
				c7.55,0,14.11-1.3,19.69-3.89c5.58-2.59,9.88-6.33,12.89-11.2c3.01-4.87,4.52-10.64,4.52-17.29c0-6.65-1.51-12.42-4.52-17.29
				c-3.01-4.87-7.31-8.61-12.89-11.2c-5.58-2.59-12.14-3.89-19.69-3.89c-7.6,0-14.19,1.3-19.77,3.89
				c-5.58,2.59-9.86,6.33-12.85,11.2c-2.99,4.87-4.48,10.64-4.48,17.29c0,6.66,1.49,12.42,4.48,17.29
				c2.99,4.87,7.27,8.61,12.85,11.2C556.74,243.21,563.33,244.51,570.93,244.51z"/>
			<path class="st43" d="M726.25,153.17c9.8,0,18.29,1.68,25.47,5.03c7.18,3.35,12.68,8.1,16.51,14.23
				c3.83,6.13,5.74,13.26,5.74,21.38c0,8.12-1.91,15.25-5.74,21.38c-3.83,6.13-9.33,10.87-16.51,14.23
				c-7.18,3.35-15.67,5.03-25.47,5.03h-51.09v-26.1h49.2c3.46,0,6.45-0.58,8.96-1.73c2.52-1.15,4.43-2.82,5.74-4.99
				c1.31-2.17,1.97-4.78,1.97-7.82c0-2.99-0.66-5.57-1.97-7.74c-1.31-2.17-3.22-3.85-5.74-5.03c-2.51-1.18-5.5-1.77-8.96-1.77h-46.3
				l14.62-15.09v106.9h-32.62v-117.9H726.25z"/>
		</g>
		<g style="clip-path:url(#SVGID_00000168088461396458422120000009074210564969227667_);">
			<path class="st43" d="M277.12,377.1c0.47,3.3,1.96,6.16,4.48,8.57c2.52,2.41,5.92,4.26,10.22,5.54c4.3,1.28,9.3,1.93,15.01,1.93
				c5.35,0,9.93-0.46,13.76-1.38c3.82-0.92,6.77-2.29,8.84-4.13c2.07-1.83,3.1-4.03,3.1-6.6c0-2.09-0.58-3.84-1.73-5.23
				c-1.15-1.39-3.1-2.53-5.86-3.42c-2.75-0.89-6.57-1.57-11.44-2.04l-21.85-2.04c-10.85-1-19.68-2.96-26.49-5.9
				c-6.81-2.93-11.83-6.82-15.05-11.67c-3.22-4.85-4.83-10.68-4.83-17.49c0-8.02,2.36-14.87,7.07-20.55
				c4.71-5.68,11.4-10.01,20.04-12.97c8.65-2.96,18.76-4.44,30.34-4.44c11.27,0,21.31,1.62,30.15,4.87
				c8.83,3.25,15.83,7.82,20.99,13.72c5.16,5.9,8,12.67,8.53,20.32h-33.17c-0.37-2.78-1.68-5.2-3.93-7.27
				c-2.25-2.07-5.34-3.66-9.28-4.76c-3.93-1.1-8.57-1.65-13.91-1.65c-4.93,0-9.17,0.43-12.73,1.3c-3.57,0.86-6.3,2.16-8.22,3.89
				c-1.91,1.73-2.87,3.83-2.87,6.29c0,1.94,0.54,3.56,1.61,4.87c1.07,1.31,2.91,2.4,5.5,3.26c2.59,0.86,6.12,1.53,10.57,2l23.5,2.28
				c11.16,1.05,20.09,2.86,26.8,5.42c6.71,2.57,11.58,6.08,14.62,10.53c3.04,4.45,4.56,10.09,4.56,16.9
				c0,8.17-2.46,15.37-7.39,21.58c-4.93,6.21-11.87,11.02-20.83,14.42c-8.96,3.41-19.31,5.11-31.05,5.11
				c-12.1,0-22.82-1.72-32.15-5.15c-9.33-3.43-16.61-8.27-21.85-14.5c-5.24-6.24-7.99-13.44-8.25-21.62H277.12z"/>
			<path class="st43" d="M371.99,297.86h122.54v29H371.99V297.86z M416.95,312.17h32.62v103.6h-32.62V312.17z"/>
			<path class="st43" d="M570.93,418.36c-13.83,0-26.06-2.57-36.67-7.7c-10.61-5.13-18.83-12.35-24.64-21.65
				c-5.82-9.3-8.72-20.03-8.72-32.19c0-12.16,2.91-22.89,8.72-32.19c5.82-9.3,14.03-16.52,24.64-21.65
				c10.61-5.13,22.83-7.7,36.67-7.7s26.04,2.57,36.63,7.7c10.58,5.14,18.8,12.35,24.64,21.65c5.84,9.3,8.77,20.03,8.77,32.19
				c0,12.16-2.92,22.89-8.77,32.19c-5.84,9.3-14.06,16.52-24.64,21.65C596.97,415.79,584.76,418.36,570.93,418.36z M570.93,389.2
				c7.55,0,14.11-1.3,19.69-3.89c5.58-2.59,9.88-6.33,12.89-11.2c3.01-4.87,4.52-10.64,4.52-17.29c0-6.65-1.51-12.42-4.52-17.29
				c-3.01-4.87-7.31-8.61-12.89-11.2c-5.58-2.59-12.14-3.89-19.69-3.89c-7.6,0-14.19,1.3-19.77,3.89
				c-5.58,2.59-9.86,6.33-12.85,11.2c-2.99,4.87-4.48,10.64-4.48,17.29c0,6.66,1.49,12.42,4.48,17.29
				c2.99,4.87,7.27,8.61,12.85,11.2C556.74,387.9,563.33,389.2,570.93,389.2z"/>
			<path class="st43" d="M726.25,297.86c9.8,0,18.29,1.68,25.47,5.03c7.18,3.35,12.68,8.1,16.51,14.23
				c3.83,6.13,5.74,13.26,5.74,21.38c0,8.12-1.91,15.25-5.74,21.38c-3.83,6.13-9.33,10.87-16.51,14.23
				c-7.18,3.35-15.67,5.03-25.47,5.03h-51.09v-26.1h49.2c3.46,0,6.45-0.58,8.96-1.73c2.52-1.15,4.43-2.82,5.74-4.99
				c1.31-2.17,1.97-4.78,1.97-7.82c0-2.99-0.66-5.57-1.97-7.74c-1.31-2.17-3.22-3.85-5.74-5.03c-2.51-1.18-5.5-1.77-8.96-1.77h-46.3
				l14.62-15.09v106.9h-32.62v-117.9H726.25z"/>
		</g>
	</g>
	<g>
		<path class="st43" d="M588.13,421.52c-1.04-11.36-10.27-20.65-20.58-20.71c-4.11,0-7.94,1.29-11.39,3.82
			c-0.38,0.29-0.84,0.43-1.3,0.43c-0.33,0-0.66-0.07-0.97-0.23c-0.73-0.35-1.21-1.09-1.23-1.91c-0.12-3.84-0.87-11-4.54-15.8
			c-3.8-4.88-8.94-7.59-14.53-7.63c-3.71,0-7.52,1.45-11.06,4.2c-0.4,0.31-0.87,0.46-1.35,0.46c-0.31,0-0.61-0.06-0.9-0.18
			c-0.74-0.33-1.24-1.04-1.31-1.85c-0.16-2.21-0.66-4.46-1.48-6.68c-2.81-7.69-9.84-15.48-19.2-15.53h-0.33
			c-11.77,0.16-20.64,12.67-20.7,23.76c0,0-0.01,3.61-0.03,7.8c-0.01,0.81-0.45,1.56-1.17,1.94c-0.32,0.17-0.68,0.26-1.03,0.26
			c-0.43,0-0.87-0.13-1.24-0.38c-3.3-2.25-6.89-3.44-10.39-3.46c-5.56,0.02-11.25,2.83-15.63,7.69c-2.84,3.15-4.9,6.87-5.95,10.75
			c-0.01,0.06-0.04,0.12-0.06,0.18c-0.08,0.22-0.12,0.4-0.13,0.45c-0.01,0.08-0.02,0.15-0.04,0.23c-0.35,1.52-0.54,3-0.55,4.38
			c0,0.08,0,0.15-0.02,0.23c-3.24,28.48-2.97,62.99,0.74,92.31c0.02,0.13,0.02,0.26,0.01,0.4c-0.13,2.47-1.57,4.55-3.85,5.56
			c-0.87,0.39-1.78,0.59-2.69,0.59c-1.57,0-3.05-0.58-4.29-1.68l-12.98-11.58c-5.1-4.56-12.49-7.38-19.28-7.38
			c-1,0-1.97,0.07-2.89,0.19c-5.03,0.68-9,3.07-11.48,6.92c-5.33,8.24-1.39,23.6,5.59,30.38l35.75,34.8
			c1.11,1.08,1.95,2.36,2.49,3.79c1.46,3.88,4.89,11.56,11.42,19.45c0.46,0.55,0.62,1.28,0.43,1.97
			c-4.7,17.57-1.25,33.86,9.48,44.71c0.13,0.13,0.29,0.26,0.45,0.39c3.07,2.18,6.23,4.03,9.42,5.49c3.21,1.49,6.53,2.67,10.17,3.62
			c10.19,2.23,25.77,4.88,42.22,4.88c0.66,0,1.32-0.01,1.98-0.01c20.62-0.27,36.43-4.83,46.97-13.54c0.67-0.55,1.31-1.12,1.92-1.69
			c8.85-8.27,13.16-19.73,12.8-34.05c-0.01-0.09-0.01-0.17-0.02-0.28c-0.23-2.3-0.64-4.73-1.24-7.44c-0.14-0.65,0.01-1.31,0.41-1.84
			c1.72-2.2,3.19-4.45,4.5-6.86c4.06-7.47,6.67-16.91,8.46-30.6C592.19,516.47,592.41,468.83,588.13,421.52z M434.74,565.56
			c-0.91-2.41-2.31-4.54-4.17-6.36l-35.75-34.8c-4.75-4.62-7.94-16.33-4.58-21.52c1.02-1.58,2.51-2.69,4.45-3.31
			c0.16-0.05,0.33-0.1,0.49-0.15c0.17-0.05,0.34-0.09,0.51-0.12c0.34-0.07,0.7-0.14,1.07-0.19c0.59-0.07,1.19-0.12,1.81-0.13h0.22
			c1.25,0,2.53,0.14,3.83,0.4c3.89,0.78,7.82,2.66,10.67,5.21l7.93,7.07c0.04,0.03,0.07,0.07,0.1,0.1l5.04,5.09
			c5.61,5.67,12.88,9.54,20.67,11.11c2.59,0.53,5.24,0.8,7.91,0.8c1.91,0,3.83-0.14,5.71-0.42c0.08-0.01,0.16-0.03,0.24-0.05
			c0.62-0.13,1.17-0.43,1.63-0.85c0.84-0.79,1.25-1.94,1.09-3.08c-0.14-0.93-0.63-1.75-1.38-2.32c-0.46-0.34-0.98-0.57-1.53-0.65
			c-0.18-0.03-0.36-0.04-0.54-0.04c-0.17,0-0.35,0.01-0.53,0.04c-1.56,0.23-3.13,0.34-4.71,0.34c-2.14,0-4.26-0.21-6.34-0.62
			c-1.26-0.24-2.51-0.56-3.74-0.95c-0.76-0.24-1.34-0.88-1.49-1.67c-0.15-0.79,0.13-1.59,0.75-2.11c2.87-2.41,4.53-5.79,4.68-9.54
			c0.01-0.07,0.01-0.15,0.02-0.23c0.01-0.05,0.01-0.1,0.02-0.23l0.01-0.18c-0.01-0.12-0.02-0.25-0.02-0.37v-0.12
			c-3.86-30.17-3.99-66.61-0.32-95.1c0.01-0.09,0.03-0.18,0.05-0.27c0.73-2.84,2.31-5.71,4.45-8.08c2.5-2.77,5.4-4.59,8.21-5.16
			c0.65-0.13,1.28-0.2,1.92-0.2h0.23c0.64,0.01,1.28,0.07,1.93,0.22c2.84,0.59,5.7,2.43,8.09,5.22c2.32,2.72,3.94,6.09,4.42,9.24
			c0.01,0.06,0.01,0.12,0.02,0.18c1.84,24.72,1.37,58.2-1.22,87.36c-0.08,0.94,0.21,1.85,0.81,2.58c0.53,0.64,1.26,1.05,2.06,1.2
			c0.12,0.01,0.23,0.04,0.35,0.04c0.1,0.01,0.2,0.01,0.3,0.01c0.22,0,0.44-0.02,0.65-0.06c0.66-0.12,1.26-0.43,1.75-0.89
			c0.63-0.59,1.02-1.39,1.1-2.26c0.97-10.9,3.93-49.33,1.41-85.94c-0.01-0.04-0.01-0.09-0.01-0.13c-0.01-0.77-0.07-1.58-0.17-2.4
			c-0.01-0.04-0.01-0.08-0.01-0.12c-0.17-2.19-0.34-4.18-0.52-6.08c-0.02-0.21-0.01-0.41,0.03-0.62c0.04-0.23,0.06-0.46,0.06-0.68
			l-0.01-0.08c-0.03-1.6-0.11-5.76-0.13-9.89c0.01-3.83,0.03-7.66,0.04-9.26l0.01-0.79c0.04-6.81,5.11-14.98,11.69-16.51
			c0.68-0.16,1.37-0.25,2.08-0.26h0.19c0.55,0,1.09,0.05,1.62,0.15c5.18,0.94,9.26,6.02,11,10.77c0.73,2.01,1.12,4.07,1.11,5.96
			c-0.03,1.81,0.32,4.43,0.7,7.28c0.35,2.64,0.65,4.93,0.63,6.1c-0.04,2.87-0.1,6.2-0.08,9.55c-0.13,7.59-0.51,16.26-0.92,25.44
			c-0.75,16.97-1.6,36.21-0.92,52.78c0.04,0.94,0.44,1.81,1.13,2.44c0.49,0.46,1.12,0.76,1.81,0.87c0.22,0.04,0.46,0.06,0.69,0.06
			l0.02,0.01c0.01,0,0.01,0,0.01,0h0.01c0.21-0.01,0.4-0.04,0.6-0.08c0.61-0.14,1.17-0.44,1.64-0.87c0.74-0.7,1.15-1.7,1.11-2.72
			c-0.67-16.27,0.18-35.39,0.92-52.31l0.01-0.14c0.4-9.15,0.79-17.79,0.91-25.44c-0.01-3.08,0.03-6.02,0.07-8.74
			c0.01-0.31,0.07-0.61,0.21-0.9c2.17-4.68,6.79-9.62,11.56-10.5c0.49-0.09,0.98-0.14,1.48-0.14c0.41,0,0.81,0.03,1.2,0.08
			c0.14,0.01,0.26,0.04,0.4,0.06h0.02c3.61,0.63,6.08,3.15,7.32,4.74c2.17,2.85,3.12,8.54,3.09,12.91v0.12
			c0,0.02,0.88,19.09,0.88,19.09c0.01,0.04,0.02,0.14,0.02,0.18c1.86,17.53,1.68,46.96-0.43,71.56c-0.08,0.94,0.21,1.85,0.81,2.57
			c0.53,0.64,1.26,1.05,2.07,1.2c0.11,0.01,0.23,0.04,0.35,0.04c0.1,0.01,0.21,0.01,0.31,0.01c0.21,0,0.43-0.02,0.63-0.07
			c0.65-0.12,1.24-0.43,1.73-0.89c0.64-0.59,1.03-1.39,1.1-2.27c2.12-24.72,2.31-54.54,0.46-72.49c-0.01-0.1-0.01-0.19-0.01-0.28
			c0.09-3.75,1.64-7.61,4.27-10.56c2.16-2.44,4.79-4,7.55-4.51c0.64-0.12,1.28-0.19,1.92-0.2c0,0,0.21,0,0.22,0
			c0.68,0.01,1.34,0.07,1.98,0.21c6.29,1.24,11.06,8,11.62,14.11c4.24,46.79,4.03,93.88-0.58,129.18c-0.01,0.03-0.01,0.06-0.01,0.1
			c-1.67,12.73-4.03,21.38-7.65,28.04c-7.22,13.27-19.34,20.07-35.98,23.36c-10.67,2.11-23.19,2.78-37.47,2.78
			c-0.84,0-1.69,0-2.55-0.01c-4.11-0.02-7.97-0.32-11.58-0.83c-1.2-0.17-2.36-0.36-3.5-0.59
			C449.59,598.08,437.82,573.73,434.74,565.56z M556.22,629.57c-9.6,7.92-24.49,11.94-44.25,11.94c-16.9,0-32.79-2.92-40.76-4.67
			c-0.03,0-0.06-0.01-0.09-0.01c-3.1-0.81-5.98-1.85-8.82-3.16c-2.64-1.21-5.28-2.73-7.85-4.53c-0.12-0.09-0.23-0.18-0.33-0.29
			c-7.25-7.58-10.35-18.46-8.73-30.63c0.1-0.79,0.63-1.46,1.37-1.75c0.26-0.1,0.54-0.15,0.81-0.15c0.5,0,1,0.17,1.39,0.49
			c12.74,10.4,28.84,15.73,47.85,15.84c0.96,0.01,1.93,0.01,2.89,0.01c22.85,0,48.47-1.62,65.2-13.64c0.38-0.28,0.83-0.42,1.28-0.42
			c0.34,0,0.69,0.08,1.01,0.24c0.73,0.38,1.2,1.14,1.2,1.96C568.41,613.2,564.31,622.88,556.22,629.57z"/>
		<path class="st40" d="M568.39,600.81c0.01,12.39-4.08,22.07-12.17,28.76c-9.6,7.92-24.49,11.94-44.25,11.94
			c-16.9,0-32.79-2.92-40.76-4.67c-0.03,0-0.06-0.01-0.09-0.01c-3.1-0.81-5.98-1.85-8.82-3.16c-2.64-1.21-5.28-2.73-7.85-4.53
			c-0.12-0.09-0.23-0.18-0.33-0.29c-7.25-7.58-10.35-18.46-8.73-30.63c0.1-0.79,0.63-1.46,1.37-1.75c0.26-0.1,0.54-0.15,0.81-0.15
			c0.5,0,1,0.17,1.39,0.49c12.74,10.4,28.84,15.73,47.85,15.84c0.96,0.01,1.93,0.01,2.89,0.01c22.85,0,48.47-1.62,65.2-13.64
			c0.38-0.28,0.83-0.42,1.28-0.42c0.34,0,0.69,0.08,1.01,0.24C567.93,599.23,568.39,599.99,568.39,600.81z"/>
		<path class="st40" d="M580.57,551.34c-0.01,0.03-0.01,0.06-0.01,0.1c-1.67,12.73-4.03,21.38-7.65,28.04
			c-11.84,21.77-36.89,26.14-73.47,26.14c-0.84,0-1.69,0-2.55-0.01c-43.73-0.26-58.6-30.72-62.12-40.05
			c-0.91-2.41-2.31-4.54-4.17-6.36l-35.75-34.8c-4.75-4.62-7.94-16.33-4.58-21.52c1.36-2.1,3.55-3.37,6.5-3.77
			c0.59-0.07,1.19-0.12,1.81-0.13h0.22c5.01,0,10.71,2.2,14.52,5.61l7.93,7.07c0.04,0.03,0.07,0.07,0.1,0.1l5.04,5.09
			c7.47,7.56,17.89,11.91,28.56,11.91c1.91,0,3.83-0.14,5.71-0.42c0.72-0.1,1.37-0.42,1.89-0.9c0.84-0.79,1.25-1.94,1.09-3.08
			c-0.14-0.93-0.63-1.75-1.38-2.32c-0.62-0.46-1.34-0.7-2.08-0.7c-0.17,0-0.34,0.01-0.53,0.04c-1.56,0.23-3.13,0.34-4.71,0.34
			c-3.41,0-6.8-0.53-10.06-1.57c-0.76-0.24-1.34-0.88-1.49-1.67c-0.15-0.79,0.13-1.59,0.75-2.11c2.87-2.41,4.53-5.79,4.68-9.54
			c0.01-0.07,0.01-0.15,0.02-0.23c0.01-0.05,0.01-0.1,0.02-0.23l0.01-0.18c-0.01-0.12-0.02-0.25-0.02-0.37v-0.12
			c-3.86-30.17-3.99-66.61-0.32-95.1c0.02-0.09,0.03-0.18,0.05-0.27c0.73-2.84,2.31-5.71,4.45-8.08c3.06-3.41,6.75-5.36,10.1-5.36
			h0.23c3.45,0.02,7.11,2,10.04,5.44c2.32,2.72,3.93,6.09,4.42,9.24c0.01,0.06,0.01,0.12,0.02,0.18c1.84,24.72,1.37,58.2-1.22,87.36
			c-0.08,0.94,0.21,1.85,0.81,2.58c0.6,0.72,1.45,1.16,2.38,1.24c0.1,0.01,0.2,0.01,0.3,0.01c0.91,0,1.77-0.34,2.42-0.95
			c0.63-0.59,1.02-1.39,1.1-2.26c0.97-10.9,3.93-49.33,1.41-85.94c-0.01-0.04-0.01-0.09-0.01-0.13c-0.01-0.77-0.07-1.58-0.17-2.4
			c-0.01-0.04-0.01-0.08-0.01-0.12c-0.17-2.19-0.34-4.18-0.52-6.08c-0.02-0.21-0.01-0.41,0.03-0.62c0.04-0.23,0.06-0.46,0.06-0.68
			l-0.01-0.08c-0.03-1.6-0.11-5.76-0.13-9.89c0.02-3.83,0.03-7.66,0.04-9.26l0.01-0.79c0.04-7.51,6.2-16.66,13.76-16.77h0.19
			c5.95,0.04,10.73,5.68,12.65,10.92c0.73,2.01,1.12,4.07,1.11,5.96c-0.03,1.81,0.32,4.43,0.7,7.28c0.35,2.64,0.65,4.93,0.63,6.1
			c-0.04,2.87-0.1,6.2-0.08,9.55c-0.12,7.59-0.51,16.26-0.92,25.44c-0.75,16.97-1.6,36.21-0.92,52.78c0.04,0.94,0.44,1.81,1.13,2.44
			c0.65,0.61,1.52,0.92,2.5,0.92l0.02,0.01c0.84-0.04,1.64-0.37,2.26-0.95c0.74-0.7,1.15-1.7,1.11-2.72
			c-0.67-16.27,0.18-35.39,0.92-52.31l0.01-0.14c0.4-9.15,0.79-17.79,0.91-25.44c-0.01-3.08,0.03-6.02,0.07-8.74
			c0.01-0.31,0.07-0.61,0.21-0.9c2.39-5.15,7.76-10.64,13.02-10.64c4.51,0.02,7.55,3.06,8.96,4.88c2.17,2.85,3.12,8.54,3.09,12.91
			v0.12c0,0.02,0.88,19.09,0.88,19.09c0.01,0.04,0.02,0.14,0.02,0.18c1.86,17.53,1.68,46.96-0.43,71.56
			c-0.08,0.94,0.21,1.85,0.82,2.57c0.6,0.72,1.45,1.16,2.39,1.24c0.1,0.01,0.21,0.01,0.31,0.01c0.89,0,1.73-0.34,2.39-0.95
			c0.64-0.59,1.03-1.39,1.1-2.27c2.12-24.72,2.31-54.54,0.46-72.49c-0.01-0.1-0.01-0.19-0.01-0.28c0.09-3.75,1.64-7.61,4.27-10.56
			c2.65-3,6-4.66,9.45-4.71c0,0,0.21,0,0.22,0c7.27,0.04,13.01,7.58,13.63,14.32C585.39,468.95,585.18,516.04,580.57,551.34z"/>
	</g>
</g>
</svg>
