<?xml version="1.0" encoding="utf-8"?>
<!-- Generator: Adobe Illustrator 27.5.0, SVG Export Plug-In . SVG Version: 6.00 Build 0)  -->
<svg version="1.1" id="Layer_1" xmlns="http://www.w3.org/2000/svg" xmlns:xlink="http://www.w3.org/1999/xlink" x="0px" y="0px"
	 viewBox="0 0 1000 1000" style="enable-background:new 0 0 1000 1000;" xml:space="preserve">
<style type="text/css">
	.st0{fill:#339E4F;}
	.st1{fill:#FFFFF8;}
	.st2{fill:#F9D409;}
	.st3{fill:#E88303;}
	.st4{fill:#EE4256;}
	.st5{fill:#F9CFD5;}
	.st6{fill:#FF4C37;}
	.st7{fill:#45AA4F;}
	.st8{fill:#E9F4CC;}
	.st9{fill:#313838;}
	.st10{fill:#F6D4E2;}
	.st11{fill:#1F3D5B;}
	.st12{fill:#F4F3D9;}
	.st13{fill:#5C4772;}
	.st14{fill:#FC4970;}
	.st15{fill:#E2D25D;}
	.st16{fill:#E8F9F0;}
	.st17{fill:#5FA080;}
	.st18{fill:#5B7BD5;}
	.st19{fill:#FFD311;}
	.st20{fill:#6E39CF;}
	.st21{fill:#DBC1FE;}
	.st22{fill:#FFC406;}
	.st23{fill:#4A5FC5;}
	.st24{fill:#43BA8C;}
	.st25{fill:#EAFCB9;}
	.st26{fill:#23AF84;}
	.st27{fill:#A3E2CF;}
	.st28{fill:#F9F946;}
	.st29{fill:#E6EFFF;}
	.st30{fill:#176EEA;}
	.st31{fill:#FFF8D2;}
	.st32{fill:#FF1071;}
	.st33{fill:#FFC7E7;}
	.st34{fill:#FFDEDC;}
	.st35{fill:#FF4631;}
	.st36{fill:#E8FBB8;}
	.st37{fill:#AE3FAC;}
	.st38{fill:#FFFFFF;}
	.st39{fill:#3E6FD5;}
	.st40{fill:#EAC6FF;}
	.st41{fill:#2A75B7;}
	.st42{fill:#FEC305;}
	.st43{fill:#F8840D;}
	.st44{fill:#FCFCEB;}
	.st45{fill:#F7851E;}
	.st46{fill:#F4F47D;}
	.st47{fill:#398AFF;}
	.st48{fill:#E9EFA5;}
	.st49{fill:#F9A7D2;}
	.st50{fill:#1E1E1E;}
	.st51{fill:#EEE5BE;}
	.st52{fill:#FF8939;}
	.st53{fill:#EFFF7B;}
	.st54{fill:#F7F7F7;}
	.st55{fill:#6A49A4;}
	.st56{fill:#FCC5F5;}
	.st57{fill:#F9F4C7;}
	.st58{fill:#FFC2CB;}
	.st59{fill:#F75263;}
	.st60{fill:#FFF68A;}
	.st61{fill:#F9D4F7;}
	.st62{fill:#54D689;}
	.st63{fill:#020202;}
	.st64{fill:#E429FF;}
	.st65{fill:#F958E9;}
	.st66{fill:#7FA5EA;}
	.st67{fill:#F7C759;}
	.st68{fill:#F76F59;}
	.st69{fill:#AD59F7;}
	.st70{fill:#F4D953;}
	.st71{fill:#F13830;}
	.st72{fill:#135C91;}
	.st73{fill:#3B77D7;}
	.st74{fill:#EAFFFF;}
	.st75{fill:#FFE2D8;}
	.st76{fill:#CC7D3B;}
	.st77{fill:#F29CC9;}
	.st78{fill:#FFD9FC;}
	.st79{fill:#E13078;}
	.st80{fill:#EAE4F4;}
	.st81{fill:#442DB7;}
	.st82{fill:#528FEF;}
	.st83{fill:#E6E654;}
	.st84{fill:#FF5783;}
	.st85{fill:#FFDA64;}
	.st86{fill:#FFDFCE;}
	.st87{fill:#FF6F59;}
	.st88{fill:#E0EB5B;}
	.st89{fill:#0064F4;}
	.st90{fill:#FCE263;}
	.st91{fill:#3983FA;}
	.st92{fill:#FFADE4;}
	.st93{fill:#E24752;}
	.st94{fill:#D9EB5B;}
	.st95{fill:#D8E96C;}
	.st96{fill:#E65065;}
	.st97{fill:#E8CB00;}
	.st98{fill:#E81B31;}
	.st99{fill:#28C78B;}
	.st100{fill:#ECEF7A;}
</style>
<g>
	<path class="st57" d="M187.71,703.05c-16.02,0-31.17-6.67-43.79-19.3c-1.37-1.36-2.71-2.82-4-4.36c-1.59-1.35-3.13-2.77-4.61-4.25
		c-9.81-9.81-16.6-22.41-20.18-37.46c-1.21-4.71-2.35-11.92-2.59-31.02c-0.16-13.36,0.1-24.38,0.79-32.75l0.03-0.28
		c1.34-14.34,3.88-32.91,7.56-55.19c5.6-34.16,7.91-41.03,10.15-45.96l0.2-0.45l0.33-0.65c6.08-12.09,17.05-20.67,30.94-24.26
		l1.17-0.32l1.44-0.26c3.06-0.53,6-0.78,8.86-0.78c10.07,0,19.39,3.21,26.96,9c7.1-7.1,15.17-12.31,24.17-15.61l0.68-0.24
		c5.59-1.87,11.79-2.67,20.74-2.67h0.85l0.57,0.03c11.33,0.5,21.89,4.04,31.09,10.33c-0.01-0.45-0.02-0.9-0.02-1.35
		c0-20.78,10.2-38.25,27.99-47.95l0.6-0.34l0.51-0.25c7.1-3.53,14.35-5.32,21.53-5.32c1.29,0,2.6,0.07,3.99,0.2
		c13.94,1,26.05,6.92,35.06,17.16c0.61,0.69,1.21,1.4,1.8,2.15c1.08,0.85,2.13,1.74,3.13,2.67c12.02-34.04,25.63-60.63,40.59-79.27
		l0.33-0.4c16-19.13,33.78-30.86,52.84-34.85c3.73-0.75,5.54-1.07,6.7-1.24c3.22-0.57,6.53-0.85,9.83-0.85
		c9.91,0,19.97,2.59,29.9,7.69c9.09,4.46,16.89,10.55,23.24,18.13c12.14,10.16,20.4,23.96,24.58,41.08l0.05,0.21
		c3.32,14.14,3.35,28.48,0.08,42.62c-5.35,24.63-17.05,46.92-34.92,66.6c1.55,1.54,3.05,3.15,4.49,4.82
		c9.27,7.96,16.85,18.15,22.56,30.32c1.76,3.77,3.29,7.61,4.58,11.51c8.54-16.74,20.08-31.84,34.46-45.09
		c15.49-14.17,33.73-22.74,54.28-25.53c3.06-0.46,6.31-0.69,9.68-0.69c4.51,0,9.3,0.44,14.25,1.3c13.9,2.25,26.81,8.69,37.35,18.64
		l0.18,0.17c1.91,1.84,3.69,3.73,5.32,5.66c0.26,0.22,0.52,0.45,0.79,0.67c14.34-26.31,15.98-28.76,17.47-30.89
		c4.89-7.09,11.5-11.08,16.27-13.5l0.61-0.34l0.91-0.42c6.14-2.8,12.62-4.22,19.28-4.22c5.14,0,10.25,0.85,15.18,2.54
		c8.89,2.97,16.42,8.37,21.85,15.56c5.8,4.37,10.41,10.08,13.57,16.84c3.51,7.36,4.98,15.58,4.98,46.05c0,3.42,0.04,6.77,0.11,10.06
		c2.31-0.37,4.67-0.56,7.07-0.56c3.46,0,6.96,0.39,10.4,1.16c11.25,2.51,20.69,8.49,27.26,17.14c6.2,4.71,11.07,10.94,14.27,18.36
		l0.11,0.26c9.04,21.57-2.03,43.91-12.69,60.95c-16.34,26.5-35.13,46.99-55.77,60.75l-3.21,2.04c-19,12.04-36.88,23.36-62.25,23.36
		c-16.06,0-36.7-2.24-54.45-19.6c-11.41,6.61-23.38,11.26-35.79,13.88l-0.32,0.07c-6.69,1.32-13.33,2-19.73,2
		c-11.8,0-23.04-2.27-33.39-6.75c-8.77-3.63-16.66-8.5-23.57-14.55c-11.72,7.41-23.82,12.57-36.1,15.38
		c-6.95,1.57-13.9,2.35-20.72,2.35c-7.84,0-15.76-1.02-23.56-3.04l-0.23-0.06c-5.09-1.37-9.94-3.07-14.5-5.1
		c-7.76,4.23-16.11,7.62-24.99,10.11c-7.66,2.21-15.54,3.33-23.43,3.33c-7.81,0-15.74-1.11-23.56-3.3
		c-5.86-1.6-11.45-3.63-16.71-6.07c-6.22,3.06-13.04,4.66-19.98,4.66c-4.55,0-9.12-0.67-13.58-1.99c-1.89-0.56-3.72-1.23-5.49-1.99
		c-11.25,5.82-23.35,9.02-35.75,9.36c-0.79,0.03-1.59,0.03-2.35,0.03c-20.57,0-38.32-7.73-51.37-22.36c-0.56-0.6-1.09-1.2-1.59-1.79
		c-2.47-2.07-4.81-4.34-6.99-6.79c-2.45-2.65-4.68-5.49-6.7-8.51c-6.06,9.22-9.94,13.7-12.99,16.76
		c-17.49,17.73-35.93,26.78-54.67,26.78H187.71z"/>
	<path class="st58" d="M860.37,563.1c-1.91-4.43-5.03-7.8-9.22-9.93c-2.82-5.5-7.7-9.16-14.25-10.62c-1.63-0.37-3.25-0.54-4.77-0.54
		c-5.23,0-9.85,2.04-13.42,5.91c-0.71,0.73-2.19,2.39-8.77,12.77c-2.11,3.44-4,6.51-5.72,9.24c-0.15-1.01-0.32-2.02-0.49-3.07
		c-3.03-17.29-4.58-37.52-4.58-60.16c0-27.22-1.29-32.51-2.52-35.05c-1.87-4.06-4.9-7.2-8.9-9.16c-2.28-4.69-6.23-8.08-11.44-9.8
		c-2.3-0.8-4.64-1.18-6.92-1.18c-2.95,0-5.83,0.65-8.56,1.89l-0.19,0.11c-3.68,1.83-5.8,3.44-7.12,5.38
		c-1.61,2.3-6.58,10.97-30.29,54.85L712.79,533c0.24-1.76,0.34-3.53,0.34-5.25c0-12.38-4.6-23.07-13.72-31.82
		c-1.23-1.14-2.47-2.21-3.76-3.2c-1.42-1.87-3.05-3.68-4.84-5.4c-6.88-6.49-14.94-10.54-23.91-11.95c-3.53-0.62-6.88-0.95-9.98-0.95
		c-2.15,0-4.21,0.15-6.02,0.43c-15.29,2.04-28.92,8.41-40.46,18.96c-16.62,15.31-28.7,33.5-35.93,54.16
		c-1.48,4.49-2.71,9.2-3.63,14.1c-2.21,3.23-4.9,7.87-8.19,14.64c-5.27,11.14-11.31,20.12-17.76,26.6
		c-7.96,7.42-16.04,11.29-24.62,11.78c7.76-15.22,13.09-29.67,15.87-43.09c3.7-19.07,1.81-36.77-5.61-52.63
		c-4.47-9.53-10.32-17.2-17.5-22.94c-6.84-8.47-15.46-14.51-25.78-18.04c-1.14-0.39-2.3-0.73-3.44-1.03
		c28.68-21.24,46.42-46.89,52.76-76.35c2.41-10.3,2.41-20.73-0.02-31.07c-3.05-12.51-9.07-22.19-17.87-28.83
		c-4.32-5.72-9.83-10.21-16.47-13.44c-6.3-3.27-12.45-4.94-18.32-4.94c-1.91,0-3.81,0.17-5.65,0.52c-0.75,0.11-2.17,0.34-5.59,1.03
		c-13.24,2.77-26.12,11.55-38.33,26.14c-16.99,21.16-32.34,54.96-45.6,100.47c-11.35,38.96-20.62,75.64-27.74,109.65
		c-0.3,0.56-0.77,1.38-1.46,2.52c-1.01,1.7-2.26,3.93-3.68,6.62c-1.44,2.71-2.62,5.01-3.59,6.92c-6,12-13.63,23.91-22.68,35.37
		c-3.29,4.17-6.56,7.01-9.78,8.47c0-1.66,0.06-3.55,0.19-5.76c0.75-12.32,3.12-26.57,7.1-42.51c0.58-2.56,3.85-14.23,9.72-34.68
		c9.16-31.18,8.64-37.65,7.46-41.13c-1.68-5.46-5.16-9.72-10.21-12.47c-1.2-2.3-2.82-4.32-4.82-6c0.11,0.02,0.22,0.06,0.32,0.13
		c2.82,1.27,5.81,1.91,8.88,1.91c3.85,0,7.87-1.03,12.02-3.1c9.29-4.86,14.21-13.14,14.21-23.97c0-7.2-2.28-13.44-6.75-18.51
		c-1.74-2-3.72-3.63-5.89-4.95c-0.8-1.27-1.68-2.49-2.71-3.65c-4.56-5.18-10.56-8.04-17.85-8.49c-0.6-0.06-1.2-0.11-1.83-0.11
		c-3.16,0-6.54,0.88-10.04,2.62l-0.19,0.11c-9.55,5.18-14.6,13.93-14.6,25.33c0,4.99,1.53,9.87,4.56,14.51
		c2.28,3.53,5.07,6.26,8.3,8.13c0.11,0.15,0.19,0.3,0.3,0.47c1.5,2.32,3.25,4.32,5.18,5.93c-2.37-0.9-4.73-1.36-7.1-1.36
		c-2.95,0-5.85,0.71-8.6,2.09c-5.29,2.62-9.03,6.99-11.16,12.96c-1.81,5.01-4.32,13.14-7.59,24.55
		c0.95-13.18-2.54-23.82-10.32-31.61c-1.53-1.53-3.12-2.88-4.79-4.06c-1.12-1.61-2.39-3.12-3.81-4.54
		c-6.45-6.45-14.19-9.91-22.98-10.3h-0.28c-5.91,0-9.72,0.39-12.53,1.33c-13.89,5.1-24.83,18.58-32.55,39.99
		c0.26-6.13-0.39-9.07-1.23-11.05c-2.11-4.9-5.35-8.43-9.46-10.38c-3.48-6.69-9.37-10.36-16.77-10.36c-1.4,0-2.86,0.13-4.36,0.39
		l-0.24,0.04l-0.24,0.07c-8.56,2.15-12.6,7.09-14.49,10.86l-0.11,0.22c-1.25,2.75-3.31,9.76-8.19,39.52
		c-3.61,21.87-6.06,39.8-7.33,53.39c-0.62,7.61-0.86,17.8-0.71,30.32c0.21,17.05,1.14,22.53,1.83,25.11
		c2.45,10.47,6.97,19.03,13.39,25.46c1.55,1.55,3.12,2.92,4.73,4.17c1.2,1.57,2.49,3.05,3.87,4.43
		c7.78,7.78,16.38,11.74,25.54,11.74h0.02c11.59,0,23.87-6.49,36.42-19.22c5.46-5.46,13.91-18.47,25.78-39.67l7.5-12.73h6.13
		c1.66,0,3.27-0.04,4.86-0.15c-0.47,9.55,0.19,18.02,2.02,25.33c2.15,7.85,5.81,14.58,10.75,19.87c1.91,2.17,3.96,4.06,6.17,5.72
		c0.75,1.01,1.57,1.96,2.43,2.88c8.15,9.22,19.01,13.89,32.25,13.89c0.49,0,1.01,0,1.53-0.02c13.42-0.34,25.99-5.4,37.35-15.01
		c0.04-0.02,0.09-0.06,0.13-0.09c2.73,4.24,6.79,7.25,11.91,8.77c2.11,0.62,4.21,0.92,6.26,0.92c3.74,0,7.27-1.03,10.49-3.07
		l0.32-0.24c2.71-1.96,4.84-4.39,6.43-7.27c7.27,5.78,16.15,10.15,26.4,12.94c5.53,1.55,11.12,2.34,16.6,2.34
		c5.5,0,11.03-0.8,16.36-2.34c10.66-2.99,20.32-7.57,28.68-13.59l2.54-1.83c6.11,4.54,13.48,8,22.04,10.3
		c5.65,1.46,11.42,2.22,17.09,2.22c4.97,0,10-0.58,14.96-1.7c11.74-2.69,23.39-8.26,34.81-16.64c3.2-2.49,6.26-5.16,9.16-8.02
		c2.39,2.86,5.03,5.46,7.89,7.74c6.26,7.74,14.15,13.59,23.63,17.48c7.14,3.12,14.99,4.71,23.33,4.71c4.69,0,9.61-0.49,14.73-1.5
		c16.19-3.42,31.43-11.27,45.56-23.37c0.95,2.67,2.49,5.16,4.6,7.29c1.81,1.81,3.68,3.38,5.59,4.71c0.82,1.38,1.83,2.69,3.01,3.89
		c11.09,11.12,24.25,12.64,36.81,12.64c17.91,0,31.39-8.56,48.46-19.37l2.69-1.7c17.54-11.7,33.76-29.52,48.2-52.96
		C860.39,583.14,863.81,571.32,860.37,563.1z"/>
	<g>
		<path class="st59" d="M860.37,563.1c-1.91-4.43-5.03-7.8-9.22-9.93c-2.82-5.5-7.7-9.16-14.25-10.62
			c-1.63-0.37-3.25-0.54-4.77-0.54c-5.23,0-9.85,2.04-13.42,5.91c-0.71,0.73-2.19,2.39-8.77,12.77c-2.11,3.44-4,6.51-5.72,9.24
			c-0.15-1.01-0.32-2.02-0.49-3.07c-3.03-17.29-4.58-37.52-4.58-60.16c0-27.22-1.29-32.51-2.52-35.05c-1.87-4.06-4.9-7.2-8.9-9.16
			c-2.28-4.69-6.23-8.08-11.44-9.8c-2.3-0.8-4.64-1.18-6.92-1.18c-2.95,0-5.83,0.65-8.56,1.89l-0.19,0.11
			c-3.68,1.83-5.8,3.44-7.12,5.38c-1.61,2.3-6.58,10.97-30.29,54.85L712.79,533c0.24-1.76,0.34-3.53,0.34-5.25
			c0-12.38-4.6-23.07-13.72-31.82c-1.23-1.14-2.47-2.21-3.76-3.2c-1.42-1.87-3.05-3.68-4.84-5.4c-6.88-6.49-14.94-10.54-23.91-11.95
			c-3.53-0.62-6.88-0.95-9.98-0.95c-2.15,0-4.21,0.15-6.02,0.43c-15.29,2.04-28.92,8.41-40.46,18.96
			c-16.62,15.31-28.7,33.5-35.93,54.16c-1.48,4.49-2.71,9.2-3.63,14.1c-2.21,3.23-4.9,7.87-8.19,14.64
			c-5.27,11.14-11.31,20.12-17.76,26.6c-7.96,7.42-16.04,11.29-24.62,11.78c7.76-15.22,13.09-29.67,15.87-43.09
			c3.7-19.07,1.81-36.77-5.61-52.63c-4.47-9.53-10.32-17.2-17.5-22.94c-6.84-8.47-15.46-14.51-25.78-18.04
			c-1.14-0.39-2.3-0.73-3.44-1.03c28.68-21.24,46.42-46.89,52.76-76.35c2.41-10.3,2.41-20.73-0.02-31.07
			c-3.05-12.51-9.07-22.19-17.87-28.83c-4.32-5.72-9.83-10.21-16.47-13.44c-6.3-3.27-12.45-4.94-18.32-4.94
			c-1.91,0-3.81,0.17-5.65,0.52c-0.75,0.11-2.17,0.34-5.59,1.03c-13.24,2.77-26.12,11.55-38.33,26.14
			c-16.99,21.16-32.34,54.96-45.6,100.47c-11.35,38.96-20.62,75.64-27.74,109.65c-0.3,0.56-0.77,1.38-1.46,2.52
			c-1.01,1.7-2.26,3.93-3.68,6.62c-1.44,2.71-2.62,5.01-3.59,6.92c-6,12-13.63,23.91-22.68,35.37c-3.29,4.17-6.56,7.01-9.78,8.47
			c0-1.66,0.06-3.55,0.19-5.76c0.75-12.32,3.12-26.57,7.1-42.51c0.58-2.56,3.85-14.23,9.72-34.68c9.16-31.18,8.64-37.65,7.46-41.13
			c-1.68-5.46-5.16-9.72-10.21-12.47c-1.2-2.3-2.82-4.32-4.82-6c0.11,0.02,0.22,0.06,0.32,0.13c2.82,1.27,5.81,1.91,8.88,1.91
			c3.85,0,7.87-1.03,12.02-3.1c9.29-4.86,14.21-13.14,14.21-23.97c0-7.2-2.28-13.44-6.75-18.51c-1.74-2-3.72-3.63-5.89-4.95
			c-0.8-1.27-1.68-2.49-2.71-3.65c-4.56-5.18-10.56-8.04-17.85-8.49c-0.6-0.06-1.2-0.11-1.83-0.11c-3.16,0-6.54,0.88-10.04,2.62
			l-0.19,0.11c-9.55,5.18-14.6,13.93-14.6,25.33c0,4.99,1.53,9.87,4.56,14.51c2.28,3.53,5.07,6.26,8.3,8.13
			c0.11,0.15,0.19,0.3,0.3,0.47c1.5,2.32,3.25,4.32,5.18,5.93c-2.37-0.9-4.73-1.36-7.1-1.36c-2.95,0-5.85,0.71-8.6,2.09
			c-5.29,2.62-9.03,6.99-11.16,12.96c-1.81,5.01-4.32,13.14-7.59,24.55c0.95-13.18-2.54-23.82-10.32-31.61
			c-1.53-1.53-3.12-2.88-4.79-4.06c-1.12-1.61-2.39-3.12-3.81-4.54c-6.45-6.45-14.19-9.91-22.98-10.3h-0.28
			c-5.91,0-9.72,0.39-12.53,1.33c-13.89,5.1-24.83,18.58-32.55,39.99c0.26-6.13-0.39-9.07-1.23-11.05
			c-2.11-4.9-5.35-8.43-9.46-10.38c-3.48-6.69-9.37-10.36-16.77-10.36c-1.4,0-2.86,0.13-4.36,0.39l-0.24,0.04l-0.24,0.07
			c-8.56,2.15-12.6,7.09-14.49,10.86l-0.11,0.22c-1.25,2.75-3.31,9.76-8.19,39.52c-3.61,21.87-6.06,39.8-7.33,53.39
			c-0.62,7.61-0.86,17.8-0.71,30.32c0.21,17.05,1.14,22.53,1.83,25.11c2.45,10.47,6.97,19.03,13.39,25.46
			c1.55,1.55,3.12,2.92,4.73,4.17c1.2,1.57,2.49,3.05,3.87,4.43c7.78,7.78,16.38,11.74,25.54,11.74h0.02
			c11.59,0,23.87-6.49,36.42-19.22c5.46-5.46,13.91-18.47,25.78-39.67l7.5-12.73h6.13c1.66,0,3.27-0.04,4.86-0.15
			c-0.47,9.55,0.19,18.02,2.02,25.33c2.15,7.85,5.81,14.58,10.75,19.87c1.91,2.17,3.96,4.06,6.17,5.72
			c0.75,1.01,1.57,1.96,2.43,2.88c8.15,9.22,19.01,13.89,32.25,13.89c0.49,0,1.01,0,1.53-0.02c13.42-0.34,25.99-5.4,37.35-15.01
			c0.04-0.02,0.09-0.06,0.13-0.09c2.73,4.24,6.79,7.25,11.91,8.77c2.11,0.62,4.21,0.92,6.26,0.92c3.74,0,7.27-1.03,10.49-3.07
			l0.32-0.24c2.71-1.96,4.84-4.39,6.43-7.27c7.27,5.78,16.15,10.15,26.4,12.94c5.53,1.55,11.12,2.34,16.6,2.34
			c5.5,0,11.03-0.8,16.36-2.34c10.66-2.99,20.32-7.57,28.68-13.59l2.54-1.83c6.11,4.54,13.48,8,22.04,10.3
			c5.65,1.46,11.42,2.22,17.09,2.22c4.97,0,10-0.58,14.96-1.7c11.74-2.69,23.39-8.26,34.81-16.64c3.2-2.49,6.26-5.16,9.16-8.02
			c2.39,2.86,5.03,5.46,7.89,7.74c6.26,7.74,14.15,13.59,23.63,17.48c7.14,3.12,14.99,4.71,23.33,4.71c4.69,0,9.61-0.49,14.73-1.5
			c16.19-3.42,31.43-11.27,45.56-23.37c0.95,2.67,2.49,5.16,4.6,7.29c1.81,1.81,3.68,3.38,5.59,4.71c0.82,1.38,1.83,2.69,3.01,3.89
			c11.09,11.12,24.25,12.64,36.81,12.64c17.91,0,31.39-8.56,48.46-19.37l2.69-1.7c17.54-11.7,33.76-29.52,48.2-52.96
			C860.39,583.14,863.81,571.32,860.37,563.1z M314.8,456.22c-0.52-0.79-0.95-1.59-1.35-2.39c-1.42-2.82-2.15-5.7-2.15-8.6
			c0-9.05,3.74-15.61,11.22-19.65c3.12-1.57,5.93-2.19,8.43-1.87c3.05,0.17,5.76,0.88,8.17,2.11c2.02,1.03,3.83,2.43,5.4,4.21
			c3.42,3.89,5.14,8.64,5.14,14.25c0,8.43-3.57,14.51-10.75,18.25c-5.61,2.82-10.77,3.12-15.44,0.92
			C320.02,462.22,317.14,459.82,314.8,456.22z M835.54,588.39c-14.04,22.77-29.48,39.78-46.31,51
			c-17.78,11.24-30.72,19.99-47.58,19.99c-12.77,0-23.2-1.7-32.25-10.75c-0.02-0.02-0.02-0.02-0.04-0.04
			c-0.65-0.67-1.23-1.38-1.72-2.11v-0.02c-1.08-1.68-1.76-3.53-2.02-5.42c-0.65-4.19,0.67-8.64,3.91-11.89l2.62-2.62
			c2.71-2.71,6.26-3.96,9.87-3.83c2.3,0.06,4.62,0.71,6.75,1.89c0.17,0.09,0.34,0.19,0.54,0.28c2.75,1.38,5.89,2.02,9.4,1.87h0.13
			c8.36-0.34,14.86-5.33,19.52-14.96c3.1-6.23,4.21-15.74,3.27-28.53c-0.73-7.93-1.55-15.31-2.39-22.1v-0.02
			c-1.27-10.3-2.67-19.31-4.15-27c-0.32-0.92-1.03-0.47-2.13,1.4c-1.08,1.87-4.75,8.28-10.99,19.2
			c-5.35,9.53-9.35,16.49-12.02,20.92c0,0.04-0.02,0.09-0.04,0.13c-4.69,11.22-12.96,24.02-24.81,38.36
			c-18.08,22.15-38.21,35.56-60.35,40.23c-12.79,2.49-24.17,1.57-34.14-2.8c-14.43-5.91-24.68-16.71-30.81-32.4
			c-4.9,6-10.38,11.33-16.4,16.02c-10.62,7.8-21.37,12.94-32.29,15.46c-9.68,2.17-19.33,2.02-29-0.49
			c-8.11-2.17-14.96-5.44-20.6-9.8l-2.8-2.34l-6.56,4.67c-7.78,5.61-16.68,9.85-26.66,12.64c-9.68,2.79-19.5,2.79-29.48,0
			c-10.3-2.8-18.86-7.18-25.74-13.09l-5.61-4.69l-0.47,2.34c-0.92,4.69-3.1,8.26-6.54,10.77c-3.44,2.17-7.25,2.64-11.46,1.4
			c-4.21-1.25-7.25-3.76-9.14-7.48c-0.88-1.57-1.42-3.91-1.57-7.07c-2.71,3.05-5.1,5.4-7.22,7.07
			c-10.3,8.73-21.44,13.24-33.45,13.54c-12.02,0.32-21.59-3.57-28.77-11.68c-3.7-3.98-6.45-8.77-8.36-14.3
			c-0.34-0.99-0.71-1.98-1.01-3.01c-1.72-6.9-2.3-15.01-1.78-24.25c0.3-5.5,0.99-11.42,2.09-17.74c-1.85,0.6-3.72,1.14-5.61,1.59
			c-5.01,1.25-10.45,1.87-16.38,1.87h-9.83l-9.35,15.91c-11.55,20.58-19.8,33.37-24.79,38.38c-19.97,20.25-37.58,22.75-52.87,7.48
			c-4.54-4.56-7.93-10.3-10.23-17.26c-0.56-1.66-1.03-3.4-1.46-5.2c-0.95-3.44-1.48-11.31-1.63-23.63
			c-0.15-12.32,0.06-22.23,0.69-29.69c1.25-13.42,3.68-31.05,7.27-52.89c3.57-21.82,6.15-34.44,7.72-37.88
			c1.85-3.74,5.29-6.23,10.28-7.48c4.26-0.73,7.74-0.11,10.47,1.89c1.85,1.38,3.35,3.38,4.49,6.04c1.57,3.76,0.8,14.36-2.32,31.84
			c-5.93,33.67-8.73,62.82-8.43,87.46c0,13.42,0.32,20.75,0.95,21.99c2.17,4.69,5.76,5.46,10.75,2.34c1.1-0.75,2.26-1.76,3.48-3.05
			c5.33-5.61,11.83-16.28,19.46-32.04c2.95-6.32,5.01-10.86,6.15-13.61c0.67-1.61,1.03-2.62,1.1-3.01c0.15-1.08-1.18-3.98-3.98-8.64
			c-4-5.85-6.84-11.22-8.56-16.17v-0.02c-0.3-0.86-0.56-1.7-0.8-2.52c-3.44-12.79-2.49-26.68,2.8-41.65
			c7.18-21.82,17.16-35.09,29.95-39.78c1.87-0.62,5.29-0.92,10.3-0.92c3.46,0.15,6.69,0.88,9.72,2.22h0.02
			c3.25,1.4,6.23,3.46,8.97,6.19c6.54,6.56,9.35,15.61,8.41,27.15c-0.62,11.52-3.89,25.41-9.8,41.62l-4.69,14.04
			c1.57,0,3.12-0.15,4.69-0.47c3.72-0.62,7.16-1.87,10.28-3.74c2.15-1.12,4.08-2.11,5.76-2.95c2.04-1.01,3.76-1.83,5.12-2.43
			c0.32-1.27,0.67-2.52,1.01-3.83c7.8-28.7,13.24-47.41,16.38-56.14c1.55-4.39,4.19-7.48,7.93-9.35c3.74-1.87,7.65-1.87,11.7,0
			c0.47,0.24,0.88,0.54,1.31,0.8c2.99,1.89,5.1,4.54,6.17,8.08c1.27,3.74-1.25,16.21-7.48,37.43c-5.91,20.58-9.2,32.27-9.83,35.09
			c-4.04,16.21-6.45,30.72-7.25,43.52c-0.77,12.77,0.39,19.95,3.5,21.5c0.95,0.62,2.73,0.95,5.4,0.95c2.6,0,4.67-0.32,6.21-0.9
			c0.02-0.02,0.06-0.02,0.09-0.04c4.99-1.55,9.85-5.29,14.51-11.22c9.35-11.85,17.16-24.02,23.39-36.49
			c0.92-1.87,2.11-4.13,3.5-6.77c1.4-2.67,2.58-4.77,3.5-6.34c0.95-1.55,1.57-2.64,1.87-3.27c0.04-0.04,0.09-0.09,0.13-0.13v-0.02
			c7.1-34.1,16.38-70.87,27.86-110.26c13.09-44.91,27.91-77.66,44.44-98.26c11.22-13.42,22.77-21.35,34.62-23.84
			c3.12-0.62,4.84-0.95,5.16-0.95c4.99-0.99,10.28-0.41,15.85,1.78c1.4,0.56,2.82,1.2,4.26,1.96c11.55,5.61,19.03,15.44,22.47,29.48
			c2.19,9.35,2.19,18.73,0,28.08c-6.86,31.8-27.46,58.63-61.77,80.48c-12.15,7.78-24.47,13.7-36.96,17.76l-8.88,2.82l-2.34,7.48
			l-1.87,7.95c1.87-1.25,3.74-2.64,5.61-4.21c6.56-5.31,13.89-10.15,21.99-14.51c13.09-6.67,26.19-8.79,39.28-6.39
			c2.54,0.45,5.07,1.1,7.59,1.89c0.28,0.09,0.58,0.19,0.86,0.28c13.72,4.69,24.02,14.36,30.87,29.03
			c6.86,14.64,8.58,30.87,5.14,48.66c-3.12,14.96-9.5,31.18-19.18,48.66l-2.82,4.67l3.29,1.87c4.26,2.56,9.03,3.96,14.32,4.17
			c0.52,0.02,1.05,0.04,1.59,0.04c10.9,0,21.2-4.52,30.87-13.57c7.16-7.16,13.57-16.68,19.18-28.53c3.23-6.6,6-11.57,8.43-14.86
			c0-0.02,0.02-0.02,0.02-0.04c0.9-5.07,2.13-9.93,3.68-14.58c6.86-19.65,18.23-36.81,34.16-51.47
			c10.6-9.65,22.92-15.44,36.96-17.31c4.04-0.62,8.73-0.45,14.02,0.47c2.49,0.41,4.9,1.01,7.2,1.87c0,0,0,0,0.02,0
			c4.88,1.81,9.33,4.62,13.37,8.43c7.78,7.48,11.7,16.53,11.7,27.13c0,6.56-1.87,13.57-5.61,21.05c-2.49,4.99-5.78,9.5-9.83,13.57
			c-2.82,3.12-6.71,6.39-11.7,9.83c-12.79,8.43-33.69,15.91-62.7,22.47l-4.21,0.92v6.08c0.62,10.92,3.74,19.48,9.35,25.74
			c4.26,4.26,10.02,6.6,17.26,6.97c0,0,0,0.02,0.02,0.02c0.15,0,0.32,0.02,0.49,0.02c9.68,0.32,19.33-2.64,29-8.88
			c6.88-4.69,12.64-9.91,17.31-15.67c4.69-5.76,11.55-16,20.6-30.64c3.63-6.36,6.54-10.69,8.69-12.92l22.1-40.89
			c19.03-35.24,29-53.34,29.93-54.27c0.62-0.95,2.19-2.02,4.69-3.27c3.42-1.57,7.03-1.72,10.75-0.47c1.08,0.34,2.04,0.8,2.92,1.33
			c2.26,1.31,3.91,3.2,5.03,5.68c1.25,2.49,1.89,13.27,1.89,32.29c0,23.07,1.55,43.49,4.67,61.28c2.8,16.86,3.91,28.7,3.29,35.56
			l-0.49,3.74l3.29-3.27c2.19-2.6,5.78-7.83,10.81-15.65c2.82-4.41,6.06-9.63,9.78-15.69c4.34-6.86,7.01-10.77,7.93-11.7
			c3.12-3.44,7.18-4.6,12.17-3.53c1.74,0.39,3.31,0.99,4.67,1.78h0.02c2.54,1.44,4.41,3.57,5.61,6.41
			C848.33,562.97,844.89,573.42,835.54,588.39z"/>
		<path class="st60" d="M349.65,444.29c0,8.43-3.57,14.51-10.75,18.25c-5.61,2.82-10.77,3.12-15.44,0.92
			c-3.44-1.25-6.32-3.65-8.66-7.25c-0.52-0.79-0.95-1.59-1.35-2.39c-1.42-2.82-2.15-5.7-2.15-8.6c0-9.05,3.74-15.61,11.22-19.65
			c3.12-1.57,5.93-2.19,8.43-1.87c3.05,0.17,5.76,0.88,8.17,2.11c2.02,1.03,3.83,2.43,5.4,4.21
			C347.93,433.93,349.65,438.68,349.65,444.29z"/>
		<g>
			<path class="st60" d="M845.84,557.04c-1.2-2.84-3.07-4.97-5.61-6.41h-0.02c-1.35-0.8-2.92-1.4-4.67-1.78
				c-4.99-1.08-9.05,0.09-12.17,3.53c-0.92,0.92-3.59,4.84-7.93,11.7c-3.72,6.06-6.97,11.29-9.78,15.69
				c-5.03,7.83-8.62,13.05-10.81,15.65l-3.29,3.27l0.49-3.74c0.62-6.86-0.49-18.7-3.29-35.56c-3.12-17.78-4.67-38.21-4.67-61.28
				c0-19.03-0.65-29.8-1.89-32.29c-1.12-2.47-2.77-4.36-5.03-5.68c-0.88-0.54-1.85-0.99-2.92-1.33c-3.72-1.25-7.33-1.1-10.75,0.47
				c-2.49,1.25-4.06,2.32-4.69,3.27c-0.92,0.92-10.9,19.03-29.93,54.27l-22.1,40.89c-2.15,2.24-5.05,6.56-8.69,12.92
				c-9.05,14.64-15.91,24.88-20.6,30.64c-4.67,5.76-10.43,10.99-17.31,15.67c-9.68,6.24-19.33,9.2-29,8.88
				c-0.17,0-0.34-0.02-0.49-0.02c-0.02,0-0.02-0.02-0.02-0.02c-7.25-0.37-13.01-2.71-17.26-6.97c-5.61-6.26-8.73-14.81-9.35-25.74
				v-6.08l4.21-0.92c29-6.56,49.9-14.04,62.7-22.47c4.99-3.44,8.88-6.71,11.7-9.83c4.04-4.06,7.33-8.58,9.83-13.57
				c3.74-7.48,5.61-14.49,5.61-21.05c0-10.6-3.91-19.65-11.7-27.13c-4.04-3.81-8.49-6.62-13.37-8.43c-0.02,0-0.02,0-0.02,0
				c-2.3-0.86-4.71-1.46-7.2-1.87c-5.29-0.92-9.98-1.1-14.02-0.47c-14.04,1.87-26.36,7.65-36.96,17.31
				c-15.93,14.66-27.31,31.82-34.16,51.47c-1.55,4.64-2.77,9.5-3.68,14.58c0,0.02-0.02,0.02-0.02,0.04
				c-2.43,3.29-5.2,8.26-8.43,14.86c-5.61,11.85-12.02,21.37-19.18,28.53c-9.68,9.05-19.97,13.57-30.87,13.57
				c-0.54,0-1.08-0.02-1.59-0.04c-5.29-0.22-10.06-1.61-14.32-4.17l-3.29-1.87l2.82-4.67c9.68-17.48,16.06-33.69,19.18-48.66
				c3.44-17.78,1.72-34.01-5.14-48.66c-6.86-14.66-17.16-24.34-30.87-29.03c-0.28-0.09-0.58-0.19-0.86-0.28
				c-2.52-0.8-5.05-1.44-7.59-1.89c-13.09-2.41-26.19-0.28-39.28,6.39c-8.11,4.37-15.44,9.2-21.99,14.51
				c-1.87,1.57-3.74,2.97-5.61,4.21l1.87-7.95l2.34-7.48l8.88-2.82c12.49-4.06,24.81-9.98,36.96-17.76
				c34.31-21.84,54.91-48.68,61.77-80.48c2.19-9.35,2.19-18.73,0-28.08c-3.44-14.04-10.92-23.87-22.47-29.48
				c-1.44-0.75-2.86-1.4-4.26-1.96c-5.57-2.19-10.86-2.77-15.85-1.78c-0.32,0-2.04,0.32-5.16,0.95
				c-11.85,2.49-23.39,10.43-34.62,23.84c-16.53,20.6-31.35,53.34-44.44,98.26c-11.48,39.39-20.77,76.15-27.86,110.26V563
				c-0.04,0.04-0.09,0.09-0.13,0.13c-0.3,0.62-0.92,1.72-1.87,3.27c-0.92,1.57-2.11,3.68-3.5,6.34c-1.4,2.64-2.58,4.9-3.5,6.77
				c-6.24,12.47-14.04,24.64-23.39,36.49c-4.67,5.93-9.52,9.68-14.51,11.22c-0.02,0.02-0.06,0.02-0.09,0.04
				c-1.55,0.58-3.61,0.9-6.21,0.9c-2.67,0-4.45-0.32-5.4-0.95c-3.12-1.55-4.28-8.73-3.5-21.5c0.8-12.79,3.2-27.31,7.25-43.52
				c0.62-2.82,3.91-14.51,9.83-35.09c6.23-21.22,8.75-33.69,7.48-37.43c-1.08-3.55-3.18-6.19-6.17-8.08
				c-0.43-0.26-0.84-0.56-1.31-0.8c-4.04-1.87-7.96-1.87-11.7,0c-3.74,1.87-6.39,4.97-7.93,9.35c-3.14,8.73-8.58,27.43-16.38,56.14
				c-0.34,1.31-0.69,2.56-1.01,3.83c-1.35,0.6-3.07,1.42-5.12,2.43c-1.68,0.84-3.61,1.83-5.76,2.95c-3.12,1.87-6.56,3.12-10.28,3.74
				c-1.57,0.32-3.12,0.47-4.69,0.47l4.69-14.04c5.91-16.21,9.18-30.1,9.8-41.62c0.95-11.55-1.87-20.6-8.41-27.15
				c-2.73-2.73-5.72-4.79-8.97-6.19h-0.02c-3.03-1.33-6.26-2.07-9.72-2.22c-5.01,0-8.43,0.3-10.3,0.92
				c-12.79,4.69-22.77,17.95-29.95,39.78c-5.29,14.96-6.24,28.85-2.8,41.65c0.24,0.82,0.49,1.66,0.8,2.52v0.02
				c1.72,4.95,4.56,10.32,8.56,16.17c2.79,4.67,4.13,7.57,3.98,8.64c-0.06,0.39-0.43,1.4-1.1,3.01c-1.14,2.75-3.2,7.29-6.15,13.61
				c-7.63,15.76-14.13,26.42-19.46,32.04c-1.23,1.29-2.39,2.3-3.48,3.05c-4.99,3.12-8.58,2.34-10.75-2.34
				c-0.62-1.25-0.95-8.58-0.95-21.99c-0.3-24.64,2.49-53.79,8.43-87.46c3.12-17.48,3.89-28.08,2.32-31.84
				c-1.14-2.67-2.64-4.67-4.49-6.04c-2.73-2-6.21-2.62-10.47-1.89c-4.99,1.25-8.43,3.74-10.28,7.48
				c-1.57,3.44-4.15,16.06-7.72,37.88c-3.59,21.84-6.02,39.48-7.27,52.89c-0.62,7.46-0.84,17.37-0.69,29.69
				c0.15,12.32,0.69,20.19,1.63,23.63c0.43,1.81,0.9,3.55,1.46,5.2c2.3,6.97,5.7,12.71,10.23,17.26
				c15.29,15.27,32.9,12.77,52.87-7.48c4.99-5.01,13.24-17.8,24.79-38.38l9.35-15.91h9.83c5.93,0,11.37-0.62,16.38-1.87
				c1.89-0.45,3.76-0.99,5.61-1.59c-1.1,6.32-1.78,12.23-2.09,17.74c-0.52,9.24,0.06,17.35,1.78,24.25c0.3,1.03,0.67,2.02,1.01,3.01
				c1.91,5.53,4.67,10.32,8.36,14.3c7.18,8.11,16.75,12,28.77,11.68c12.02-0.3,23.16-4.82,33.45-13.54
				c2.13-1.68,4.52-4.02,7.22-7.07c0.15,3.16,0.69,5.5,1.57,7.07c1.89,3.72,4.92,6.23,9.14,7.48c4.21,1.25,8.02,0.77,11.46-1.4
				c3.44-2.52,5.61-6.08,6.54-10.77l0.47-2.34l5.61,4.69c6.88,5.91,15.44,10.3,25.74,13.09c9.98,2.79,19.8,2.79,29.48,0
				c9.98-2.8,18.88-7.03,26.66-12.64l6.56-4.67l2.8,2.34c5.63,4.36,12.49,7.63,20.6,9.8c9.68,2.52,19.33,2.67,29,0.49
				c10.92-2.52,21.67-7.65,32.29-15.46c6.02-4.69,11.5-10.02,16.4-16.02c6.13,15.69,16.38,26.49,30.81,32.4
				c9.98,4.37,21.35,5.29,34.14,2.8c22.15-4.67,42.27-18.08,60.35-40.23c11.85-14.34,20.12-27.13,24.81-38.36
				c0.02-0.04,0.04-0.09,0.04-0.13c2.67-4.43,6.66-11.39,12.02-20.92c6.24-10.92,9.91-17.33,10.99-19.2c1.1-1.87,1.81-2.32,2.13-1.4
				c1.48,7.7,2.88,16.7,4.15,27v0.02c0.84,6.79,1.66,14.17,2.39,22.1c0.95,12.79-0.17,22.3-3.27,28.53
				c-4.67,9.63-11.16,14.62-19.52,14.96h-0.13c-3.5,0.15-6.64-0.49-9.4-1.87c-0.19-0.09-0.37-0.19-0.54-0.28
				c-2.13-1.18-4.45-1.83-6.75-1.89c-3.61-0.13-7.16,1.12-9.87,3.83l-2.62,2.62c-3.25,3.25-4.56,7.7-3.91,11.89
				c0.26,1.89,0.95,3.74,2.02,5.42v0.02c0.49,0.73,1.08,1.44,1.72,2.11c0.02,0.02,0.02,0.02,0.04,0.04
				c9.05,9.05,19.48,10.75,32.25,10.75c16.86,0,29.8-8.75,47.58-19.99c16.84-11.22,32.27-28.23,46.31-51
				C844.89,573.42,848.33,562.97,845.84,557.04z M615.74,544.87c5.29-10.6,11.22-18.71,17.78-24.32c5.31-4.37,10.99-7.4,17.07-9.12
				c6.08-1.72,10.69-1.48,13.8,0.69c4.47,3.29,5.38,7.72,2.73,13.27c-0.13,0.26-0.26,0.52-0.39,0.77
				c-4.36,8.43-13.72,15.29-28.08,20.6c-1.4,0.52-2.73,0.99-4,1.44c-13.67,4.82-21.24,6.54-22.66,5.1
				C611.68,553,612.92,550.18,615.74,544.87z M433.78,428.38c10.6-28.06,21.52-47.71,32.75-58.93c6.23-6.26,11.55-9.35,15.91-9.35
				c2.82,0,4.84,0.45,6.08,1.4c3.91,3.35,5.76,8.26,5.57,14.73c-0.13,4.34-1.23,9.44-3.23,15.2c-3.74,11.85-10.92,23.24-21.52,34.16
				c-6.56,6.86-14.19,13.24-22.94,19.18c-0.06,0.04-0.13,0.09-0.19,0.13c-12.96,8.34-19.91,12.04-20.83,11.09
				C424.11,454.74,426.92,445.54,433.78,428.38z M236.26,534.92c-1.25,2.8-2.19,4.6-2.82,5.38c-0.62,0.77-1.1,0.62-1.4-0.47
				c-0.3-1.1-0.47-3.2-0.47-6.3c0-11.87,2.97-21.84,8.9-29.95c0.92-1.55,1.7-2.34,2.32-2.34s0.95,2.02,0.95,6.08
				C243.74,514.47,241.24,523.67,236.26,534.92z M452.04,619.26c-1.46,1.23-3.2,2.39-5.22,3.5c-3.18,1.76-7.05,3.4-11.63,4.92
				c-2.9,0.82-5.65,1.27-8.28,1.29c-5.27,0.09-10-1.42-14.17-4.56c-4.06-3.12-6.08-6.56-6.08-10.3c0-2.49,1.25-5.14,3.74-7.96
				c2.49-2.79,5.14-4.52,7.96-5.14c3.74-0.95,8.26-0.47,13.57,1.4c3.74,1.87,9.35,5.78,16.84,11.7l4.69,4.21L452.04,619.26z
				 M486.65,576.24c-2.15,5.61-4.97,11.09-8.49,16.51c-0.58,0.88-1.18,1.78-1.81,2.67l-1.4,1.4l-7.48-6.08
				c-10.51-8.58-20.58-14.43-30.21-17.54c-4.15-1.33-8.21-2.17-12.19-2.49c-0.22-0.04-0.43-0.04-0.65-0.07
				c-4.06-0.32-8.43,0.15-13.09,1.4c-2.19,0.62-4.21,1.25-6.08,1.87c0-1.57,2.32-7.65,7.01-18.25c4.04-8.41,9.68-16.36,16.83-23.84
				c7.18-7.5,14.19-12.97,21.07-16.38c10.9-4.99,20.1-5.76,27.61-2.34c6.54,2.82,11.22,9.98,14.02,21.52
				c0.3,1.51,0.54,3.05,0.71,4.6C493.81,550.46,491.85,562.8,486.65,576.24z"/>
		</g>
		<path class="st59" d="M486.65,576.24c-2.15,5.61-4.97,11.09-8.49,16.51c-0.58,0.88-1.18,1.78-1.81,2.67l-1.4,1.4l-7.48-6.08
			c-10.51-8.58-20.58-14.43-30.21-17.54c-4.15-1.33-8.21-2.17-12.19-2.49c-0.22-0.04-0.43-0.04-0.65-0.07
			c-4.06-0.32-8.43,0.15-13.09,1.4c-2.19,0.62-4.21,1.25-6.08,1.87c0-1.57,2.32-7.65,7.01-18.25c4.04-8.41,9.68-16.36,16.83-23.84
			c7.18-7.5,14.19-12.97,21.07-16.38c10.9-4.99,20.1-5.76,27.61-2.34c6.54,2.82,11.22,9.98,14.02,21.52c0.3,1.51,0.54,3.05,0.71,4.6
			C493.81,550.46,491.85,562.8,486.65,576.24z"/>
		<path class="st59" d="M667.13,525.39c-0.13,0.26-0.26,0.52-0.39,0.77c-4.36,8.43-13.72,15.29-28.08,20.6
			c-1.4,0.52-2.73,0.99-4,1.44c-13.67,4.82-21.24,6.54-22.66,5.1c-0.32-0.3,0.92-3.12,3.74-8.43c5.29-10.6,11.22-18.71,17.78-24.32
			c5.31-4.37,10.99-7.4,17.07-9.12c6.08-1.72,10.69-1.48,13.8,0.69C668.87,515.42,669.77,519.84,667.13,525.39z"/>
		<path class="st59" d="M243.74,507.31c0,7.16-2.49,16.36-7.48,27.61c-1.25,2.8-2.19,4.6-2.82,5.38c-0.62,0.77-1.1,0.62-1.4-0.47
			c-0.3-1.1-0.47-3.2-0.47-6.3c0-11.87,2.97-21.84,8.9-29.95c0.92-1.55,1.7-2.34,2.32-2.34S243.74,503.25,243.74,507.31z"/>
		<path class="st59" d="M453.43,618.34l-1.4,0.92c-1.46,1.23-3.2,2.39-5.22,3.5c-3.18,1.76-7.05,3.4-11.63,4.92
			c-2.9,0.82-5.65,1.27-8.28,1.29c-5.27,0.09-10-1.42-14.17-4.56c-4.06-3.12-6.08-6.56-6.08-10.3c0-2.49,1.25-5.14,3.74-7.96
			c2.49-2.79,5.14-4.52,7.96-5.14c3.74-0.95,8.26-0.47,13.57,1.4c3.74,1.87,9.35,5.78,16.84,11.7L453.43,618.34z"/>
		<path class="st59" d="M494.09,376.22c-0.13,4.34-1.23,9.44-3.23,15.2c-3.74,11.85-10.92,23.24-21.52,34.16
			c-6.56,6.86-14.19,13.24-22.94,19.18c-0.06,0.04-0.13,0.09-0.19,0.13c-12.96,8.34-19.91,12.04-20.83,11.09
			c-1.27-1.25,1.55-10.45,8.41-27.61c10.6-28.06,21.52-47.71,32.75-58.93c6.23-6.26,11.55-9.35,15.91-9.35
			c2.82,0,4.84,0.45,6.08,1.4C492.43,364.85,494.28,369.75,494.09,376.22z"/>
	</g>
</g>
</svg>
