<svg width="249" height="246" viewBox="0 0 249 246" fill="none" xmlns="http://www.w3.org/2000/svg"><path d="M186.684 7.211c6.55-5.15 15.022-7.668 23.328-7.143 9.122.427 18.312 3.913 24.705 10.57 7.342 7.285 11.039 17.403 12.795 27.408 2.385 13.864 1.608 28.067-.261 41.945-2.134 15.042-5.62 29.937-10.926 44.189 2.208 2.322 4.209 4.835 6.196 7.344 1.436 1.743 1.745 4.291.762 6.323-1.239 2.887-4.903 4.404-7.814 3.181-2.65-.991-3.766-3.804-5.694-5.66-7.548-7.295-15.401-14.532-24.754-19.475-3.398-1.375-6.717-2.99-10.302-3.834-8.04-1.949-16.424-1.984-24.622-1.208-4.661 1.149-8.989 3.338-13.247 5.498-2.729 1.473-6.511.535-8.069-2.189-1.83-2.71-.915-6.75 1.908-8.405 3.107-1.777 6.397-3.22 9.687-4.615-.433-13.127.118-26.294 1.932-39.308 1.5-10.437 3.772-20.835 7.686-30.659 3.649-9.082 8.827-17.899 16.69-23.962m5.079 12.912c-4.932 5.17-8.108 11.723-10.567 18.355-2.926 8.174-4.721 16.716-5.945 25.298-1.544 11.169-2.124 22.47-1.859 33.741 4.308-.22 8.64-.255 12.948.094-.379-5.877-.389-11.783.098-17.654.015-1.41 1.76-1.615 2.842-1.718 6.457-.34 13.13 1.148 19.419-.899 3.29-.957 5.989-4.168 5.611-7.698-.423-3.785-3.157-6.73-5.744-9.288-4.362-4.379-9.731-7.619-13.946-12.145-.944-1.08-2.011-2.553-1.337-4.046 3.614-11.065 8.507-21.88 15.731-31.09-6.467-.432-12.859 2.366-17.251 7.05M34.786 59.284c18.799-2.833 38.768.452 55.02 10.535 13.179 8.056 23.476 20.639 28.821 35.102 11.015 3.745 20.432 12.597 23.727 23.873.536 1.949-.335 3.943-1.687 5.332-2.724 2.479-7.597 1.394-8.792-2.136-2.321-7.099-7.883-12.931-14.743-15.827-6.987-3.01-15.096-3.422-22.32-1.002-5.915 1.944-11.143 6.107-13.96 11.699-3.33 6.736-3.605 14.635-2.056 21.886 1.623 7.526 6.083 14.477 12.525 18.763 5.035 3.461 11.325 5.155 17.407 4.173 7.229-.697 13.858-5.022 17.56-11.228 1.471-2.003 1.938-4.85 4.318-6.063 2.454-1.394 5.63-.378 7.268 1.797.811 1.63 1.141 3.594.354 5.297-3.172 6.986-8.34 13.182-15.097 16.942-6.431 3.608-13.994 4.934-21.307 4.379-10.887-1.114-20.869-7.531-27.114-16.397-6.196-8.782-8.615-19.863-7.632-30.481.654-7.899 3.782-15.568 9.053-21.518-23.176-1.316-45.963 4.517-67.83 11.562-1.608.544-3.408 1.148-5.06.397-1.712-.609-2.72-2.248-3.241-3.898v-1.615c.266-1.36.998-2.617 2.183-3.363 27.09-18.842 62.854-25.503 94.61-15.788 2.061.805 4.23 1.36 6.448.879-7.907-8.16-16.833-15.499-27.046-20.595-12.687-6.588-26.75-9.862-40.686-12.617-1.623-.358-3.664-.377-4.667-1.934-1.736-3.083.398-7.639 3.944-8.154m137.726 124.828c.275-3.333 3.113-6.215 6.476-6.461 2.572-.22 5.286 1.031 6.629 3.27 3.417 5.273 8.477 9.593 14.472 11.64 4.553 1.635 9.5 1.973 14.285 1.394 2.581-.388 5.325.786 6.81 2.931 1.795 2.484 1.707 6.176-.255 8.542-1.215 1.532-3.093 2.504-5.036 2.681-5.443.628-11.025.446-16.355-.894-3.614 4.472-7.484 8.753-11.846 12.519-6.353 6.961-14.093 12.621-22.6 16.686-17.806 8.395-37.987 10.614-57.46 9.171-12.53-.933-24.956-3.402-36.841-7.472-10.42-3.716-20.845-8.567-28.55-16.721-6.177 2.916-12.88 4.61-19.64 5.449-3.689.251-7.23-2.754-7.46-6.46-.448-3.579 2.345-7.187 5.925-7.673 7.248-1.027 14.747-2.897 20.51-7.649 3.305-2.74 5.621-6.588 6.703-10.727.688-3.26 3.92-5.778 7.273-5.528 4.047.084 7.435 4.095 6.746 8.096-1.19 5.537-3.82 10.736-7.44 15.086 18.608 14.07 42.546 19.819 65.633 18.685 20.348-.781 40.844-7.379 56.535-20.595 3.354-2.489 5.493-6.19 7.455-9.789-3.398-2.631-6.516-5.651-9.073-9.107-1.563-2.037-3.211-4.364-2.896-7.074" fill="#000"/><path d="M191.763 20.123c4.392-4.684 10.784-7.482 17.251-7.05-7.224 9.21-12.117 20.025-15.731 31.09-.674 1.493.393 2.966 1.337 4.046 4.215 4.526 9.584 7.766 13.946 12.145 2.587 2.558 5.321 5.503 5.744 9.289.378 3.53-2.321 6.74-5.611 7.697-6.289 2.047-12.962.56-19.419.899-1.082.103-2.827.309-2.842 1.718-.487 5.871-.477 11.777-.098 17.654-4.308-.349-8.64-.315-12.948-.094-.265-11.271.315-22.572 1.859-33.741 1.224-8.582 3.019-17.124 5.945-25.298 2.459-6.632 5.635-13.186 10.567-18.355" fill="#fff"/><path d="M94.812 115.161c7.224-2.42 15.333-2.008 22.32 1.002 6.86 2.896 12.422 8.728 14.743 15.827 1.195 3.53 6.068 4.615 8.792 2.136 1.441 7.398.521 15.278-2.793 22.062-1.638-2.175-4.814-3.191-7.268-1.797-2.38 1.213-2.847 4.06-4.318 6.063-3.702 6.206-10.331 10.531-17.56 11.228-6.082.982-12.372-.712-17.407-4.173-6.442-4.286-10.902-11.237-12.525-18.763-1.549-7.251-1.273-15.15 2.056-21.886 2.817-5.592 8.045-9.755 13.96-11.699" fill="#FFCA05"/></svg>
