<svg width="1280" height="82" viewBox="0 0 1280 82" fill="none" xmlns="http://www.w3.org/2000/svg">
<path d="M23.5638 72.0991V45.4878L0.95636 1.00537H32.1087L39.0423 15.0679C39.2702 15.5887 39.4818 16.0607 39.6771 16.4839C39.8724 16.8745 40.0514 17.314 40.2142 17.8022H40.4095C40.5722 17.314 40.735 16.8745 40.8978 16.4839C41.0931 16.0607 41.3047 15.5887 41.5325 15.0679L48.1732 1.00537H75.5169L53.0071 45.439V72.0991H23.5638ZM67.4857 38.4565V34.6479C67.4857 22.6362 70.6595 13.8634 77.0071 8.32959C83.3873 2.79574 91.444 0.0288086 101.177 0.0288086C110.943 0.0288086 118.999 2.79574 125.347 8.32959C131.727 13.8634 134.917 22.6362 134.917 34.6479V38.4565C134.917 50.4683 131.727 59.241 125.347 64.7749C118.999 70.3088 110.943 73.0757 101.177 73.0757C91.444 73.0757 83.3873 70.3088 77.0071 64.7749C70.6595 59.241 67.4857 50.4683 67.4857 38.4565ZM97.8079 48.4175C97.8079 50.631 98.0683 52.2098 98.5892 53.1538C99.11 54.0653 99.9726 54.521 101.177 54.521C102.414 54.521 103.293 54.0653 103.814 53.1538C104.335 52.2098 104.595 50.631 104.595 48.4175V24.8823C104.595 22.7339 104.335 21.2202 103.814 20.3413C103.293 19.4624 102.414 19.0229 101.177 19.0229C99.9726 19.0229 99.11 19.4624 98.5892 20.3413C98.0683 21.2202 97.8079 22.7339 97.8079 24.8823V48.4175ZM137.335 44.4136V1.00537H166.193V49.2476C166.193 51.2983 166.372 52.6655 166.73 53.3491C167.088 54.0327 167.674 54.3745 168.488 54.3745C169.367 54.3745 169.985 54.0327 170.343 53.3491C170.701 52.6655 170.88 51.2983 170.88 49.2476V1.00537H199.835V44.4136C199.835 54.1792 197.101 61.4058 191.632 66.0933C186.196 70.7482 178.66 73.0757 169.025 73.0757C158.868 73.0757 151.04 70.7482 145.538 66.0933C140.07 61.4058 137.335 54.1792 137.335 44.4136ZM203.083 72.0991V1.00537H242.683C249.877 1.00537 255.818 3.26774 260.505 7.79248C265.225 12.3172 267.585 18.2417 267.585 25.5659C267.585 33.2808 264.997 39.5959 259.822 44.5112C254.646 49.394 248.786 51.8354 242.243 51.8354H232.038V72.0991H203.083ZM232.038 34.2573H234.626C235.961 34.2573 236.905 33.6388 237.458 32.4019C238.012 31.1649 238.305 29.5535 238.337 27.5679C238.337 25.5822 238.044 23.922 237.458 22.5874C236.905 21.2202 235.961 20.5366 234.626 20.5366H232.038V34.2573ZM239.46 72.0991L230.525 43.1929L255.036 34.8433L270.71 72.0991H239.46ZM298.642 72.0991V1.00537H339.609L345.468 24.687C345.761 25.8263 346.021 26.9331 346.249 28.0073C346.51 29.049 346.738 30.1883 346.933 31.4253H347.128C347.356 30.1883 347.584 29.049 347.812 28.0073C348.072 26.9331 348.349 25.8263 348.642 24.687L354.55 1.00537H395.419V72.0991H366.952V44.9507C366.952 43.8114 366.952 42.5581 366.952 41.1909C366.952 39.8237 367.001 38.5868 367.099 37.48H366.806C366.611 38.6519 366.383 39.9051 366.122 41.2397C365.895 42.5744 365.667 43.8114 365.439 44.9507L359.579 72.0991H333.652L327.695 44.9507C327.467 43.8114 327.223 42.5581 326.962 41.1909C326.702 39.8237 326.49 38.5868 326.327 37.48H326.034C326.1 38.5868 326.148 39.8237 326.181 41.1909C326.214 42.5581 326.23 43.8114 326.23 44.9507V72.0991H298.642ZM397.837 38.4565V34.6479C397.837 22.6362 401.011 13.8634 407.359 8.32959C413.739 2.79574 421.796 0.0288086 431.529 0.0288086C441.294 0.0288086 449.351 2.79574 455.699 8.32959C462.079 13.8634 465.269 22.6362 465.269 34.6479V38.4565C465.269 50.4683 462.079 59.241 455.699 64.7749C449.351 70.3088 441.294 73.0757 431.529 73.0757C421.796 73.0757 413.739 70.3088 407.359 64.7749C401.011 59.241 397.837 50.4683 397.837 38.4565ZM428.159 48.4175C428.159 50.631 428.42 52.2098 428.941 53.1538C429.462 54.0653 430.324 54.521 431.529 54.521C432.766 54.521 433.645 54.0653 434.165 53.1538C434.686 52.2098 434.947 50.631 434.947 48.4175V24.8823C434.947 22.7339 434.686 21.2202 434.165 20.3413C433.645 19.4624 432.766 19.0229 431.529 19.0229C430.324 19.0229 429.462 19.4624 428.941 20.3413C428.42 21.2202 428.159 22.7339 428.159 24.8823V48.4175ZM467.736 72.0991V1.00537H496.154L502.208 22.0015C502.501 23.0757 502.827 24.3127 503.185 25.7124C503.576 27.0796 503.901 28.3003 504.161 29.3745H504.454C504.389 28.2677 504.373 27.1121 504.406 25.9077C504.438 24.7033 504.454 23.5477 504.454 22.4409V1.00537H528.576V72.0991H501.036L494.005 50.6147C493.647 49.6056 493.289 48.5151 492.931 47.3433C492.573 46.1714 492.28 45.0483 492.052 43.9741H491.759C491.857 45.0809 491.906 46.0412 491.906 46.855C491.906 47.6362 491.906 48.5965 491.906 49.7358V72.0991H467.736ZM531.872 72.0991V1.00537H587.634V23.4663H559.411V27.1284H583.826V46.269H559.411V50.6147H588.611V72.0991H531.872ZM608.607 72.0991V45.4878L585.999 1.00537H617.152L624.085 15.0679C624.313 15.5887 624.525 16.0607 624.72 16.4839C624.915 16.8745 625.094 17.314 625.257 17.8022H625.452C625.615 17.314 625.778 16.8745 625.941 16.4839C626.136 16.0607 626.348 15.5887 626.576 15.0679L633.216 1.00537H660.56L638.05 45.439V72.0991H608.607ZM654.628 79.3745C655.865 77.4865 656.744 75.4845 657.265 73.3687C657.818 71.2853 658.095 69.2183 658.095 67.1675V48.0757H682.558V66.9722C682.558 69.5112 682.086 72.1642 681.142 74.9312C680.23 77.7306 678.961 79.8791 677.333 81.3765L654.628 79.3745ZM713.077 72.0991L736.124 1.00537H767.179L789.298 72.0991H761.124L751.749 36.4546C751.391 35.12 751.098 33.9644 750.87 32.9878C750.675 31.9787 750.561 31.3765 750.529 31.1812H750.431C750.398 31.3765 750.268 31.9624 750.04 32.939C749.812 33.9155 749.552 35.0711 749.259 36.4058L740.909 72.0991H713.077ZM729.874 64.189L733.146 46.1714H768.253L771.915 64.189H729.874ZM789.47 72.0991V1.00537H817.888L823.943 22.0015C824.236 23.0757 824.561 24.3127 824.919 25.7124C825.31 27.0796 825.635 28.3003 825.896 29.3745H826.189C826.124 28.2677 826.107 27.1121 826.14 25.9077C826.173 24.7033 826.189 23.5477 826.189 22.4409V1.00537H850.31V72.0991H822.771L815.74 50.6147C815.381 49.6056 815.023 48.5151 814.665 47.3433C814.307 46.1714 814.014 45.0483 813.786 43.9741H813.493C813.591 45.0809 813.64 46.0412 813.64 46.855C813.64 47.6362 813.64 48.5965 813.64 49.7358V72.0991H789.47ZM872.747 72.0991V45.4878L850.14 1.00537H881.292L888.226 15.0679C888.454 15.5887 888.665 16.0607 888.861 16.4839C889.056 16.8745 889.235 17.314 889.398 17.8022H889.593C889.756 17.314 889.919 16.8745 890.081 16.4839C890.277 16.0607 890.488 15.5887 890.716 15.0679L897.357 1.00537H924.701L902.191 45.439V72.0991H872.747ZM937.079 72.0991L919.697 1.00537H947.284L954.755 32.8413C954.82 33.1668 954.885 33.5412 954.951 33.9644C955.048 34.3875 955.13 34.8433 955.195 35.3315H955.39C955.455 34.8433 955.536 34.3875 955.634 33.9644C955.732 33.5412 955.813 33.1668 955.878 32.8413L963.105 1.00537H987.128L995.283 32.7925C995.38 33.118 995.462 33.4761 995.527 33.8667C995.624 34.2573 995.722 34.7456 995.82 35.3315H996.015C996.113 34.7456 996.194 34.2573 996.259 33.8667C996.324 33.4761 996.389 33.118 996.454 32.7925L1003 1.00537H1028.78L1011.4 72.0991H983.613L975.263 41.5327C975.198 41.2397 975.117 40.8817 975.019 40.4585C974.921 40.0028 974.84 39.5308 974.775 39.0425H974.579C974.514 39.5308 974.433 39.9865 974.335 40.4097C974.238 40.8328 974.156 41.2072 974.091 41.5327L965.742 72.0991H937.079ZM1029.54 72.0991V1.00537H1058.49V23.3687H1063.57V1.00537H1092.52V72.0991H1063.57V47.3433H1058.49V72.0991H1029.54ZM1095.82 72.0991V1.00537H1151.58V23.4663H1123.36V27.1284H1147.77V46.269H1123.36V50.6147H1152.56V72.0991H1095.82ZM1154.78 72.0991V1.00537H1194.38C1201.58 1.00537 1207.52 3.26774 1212.2 7.79248C1216.92 12.3172 1219.28 18.2417 1219.28 25.5659C1219.28 33.2808 1216.7 39.5959 1211.52 44.5112C1206.35 49.394 1200.49 51.8354 1193.94 51.8354H1183.74V72.0991H1154.78ZM1183.74 34.2573H1186.33C1187.66 34.2573 1188.6 33.6388 1189.16 32.4019C1189.71 31.1649 1190 29.5535 1190.04 27.5679C1190.04 25.5822 1189.74 23.922 1189.16 22.5874C1188.6 21.2202 1187.66 20.5366 1186.33 20.5366H1183.74V34.2573ZM1191.16 72.0991L1182.22 43.1929L1206.74 34.8433L1222.41 72.0991H1191.16ZM1222.63 72.0991V1.00537H1278.39V23.4663H1250.17V27.1284H1274.58V46.269H1250.17V50.6147H1279.37V72.0991H1222.63Z" fill="black"/>
</svg>
