<svg width="133" height="183" viewBox="0 0 133 183" fill="none" xmlns="http://www.w3.org/2000/svg">
<path d="M126.392 41.0108C132.48 59.514 133.31 80.073 128.882 102.688C127.38 110.437 125.443 117.751 123.07 124.631C120.698 131.431 117.614 138.231 113.819 145.032C110.102 151.753 105.398 157.683 99.7043 162.823C94.0901 167.963 87.7642 171.798 80.7267 174.328C71.6333 177.808 62.184 178.559 52.3789 176.582C45.974 175.238 40.1226 172.589 34.8247 168.635C29.5268 164.681 25.0987 159.779 21.5404 153.927C13.7912 141.039 10.3119 125.896 11.1027 108.5C11.3399 100.751 12.6841 91.6177 15.1354 81.101C17.9821 70.0307 21.2241 60.8582 24.8614 53.5835C27.9453 47.4158 31.5431 41.5644 35.6549 36.0292C39.8458 30.4941 44.5507 25.3939 49.7695 20.7285C55.0674 15.9841 60.9979 12.2677 67.561 9.5792C74.1241 6.89071 80.8058 5.62554 87.6061 5.78369C88.3178 5.78369 90.9667 6.17905 95.553 6.96979C109.47 10.1327 119.749 21.4797 126.392 41.0108ZM84.5659 62.1201C75.133 77.6975 59.9014 118.602 58.9757 134.891C58.7385 135.998 58.9757 136.908 59.6874 137.619C60.4781 138.252 61.3479 138.45 62.2968 138.212C63.2457 137.975 63.8387 137.264 64.0759 136.078C65.397 119.472 80.4705 78.9627 89.1917 64.4923C89.6662 63.5434 89.5871 62.634 88.9545 61.7642C88.401 60.8944 87.6893 60.4991 86.8195 60.5781C85.9497 60.5781 85.1985 61.0921 84.5659 62.1201Z" fill="white"/>
<path d="M129.909 51.9231C133.862 72.8775 132.558 94.9785 125.994 118.226C124.018 125.026 121.606 131.471 118.759 137.559C115.992 143.648 112.552 149.5 108.44 155.114C104.328 160.728 99.8212 165.551 94.9187 169.584C90.0161 173.617 84.3229 176.859 77.8388 179.31C71.4339 181.682 64.5941 182.868 57.3193 182.868C45.7746 182.868 35.6137 179.547 26.8366 172.905C18.1385 166.263 11.5359 157.288 7.02871 145.981C1.25636 131.431 -0.443711 115.221 1.92849 97.3507C5.24957 74.5776 11.9708 55.4023 22.0922 39.8249C29.2878 28.6755 38.065 19.3844 48.4236 11.9515C58.7822 4.43957 69.7338 0.683594 81.2785 0.683594C84.3624 0.683594 87.9602 1.07896 92.072 1.86969H92.3093C95.6303 2.50228 99.2677 4.04421 103.221 6.49548C116.506 14.4028 125.401 29.5453 129.909 51.9231ZM121.606 41.011C114.964 21.4799 104.684 10.1329 90.7673 6.96992L86.9718 6.25826C85.0741 5.94197 83.6903 5.78382 82.8205 5.78382C76.0202 5.62567 69.3385 6.89085 62.7754 9.57934C56.2123 12.2678 50.2818 15.9843 44.9839 20.7287C39.7651 25.394 35.0602 30.4942 30.8693 36.0294C26.7575 41.5645 23.1597 47.4159 20.0758 53.5836C16.3594 61.0165 13.1964 69.9518 10.587 80.3895C7.97759 90.7481 6.55427 100.118 6.31705 108.5C5.52632 125.896 9.00555 141.039 16.7547 153.928C21.2619 161.44 27.0738 167.251 34.1904 171.363C41.3861 175.475 49.3329 177.531 58.031 177.531C65.7802 177.531 72.9758 176.029 79.618 173.024C86.2602 169.94 91.9534 165.986 96.6978 161.163C101.442 156.26 105.673 150.488 109.389 143.846C113.185 137.125 116.229 130.403 118.522 123.682C120.815 116.961 122.673 109.963 124.097 102.688C128.525 80.0732 127.695 59.5141 121.606 41.011ZM80.7465 59.7479C81.3 58.7199 82.0512 58.2059 83.0001 58.2059C83.8699 58.2059 84.5815 58.6408 85.1351 59.5106C85.7676 60.3805 85.8467 61.2503 85.3723 62.1201C76.651 76.5905 60.9402 118.7 59.6191 135.306C59.3819 136.808 58.5912 137.559 57.2469 137.559C56.4562 137.559 55.7445 137.204 55.1119 136.492C54.4793 135.78 54.2817 134.99 54.5189 134.12C55.4446 117.831 71.3136 75.3253 80.7465 59.7479Z" fill="black"/>
</svg>
