<svg xmlns="http://www.w3.org/2000/svg" viewBox="0 0 64 64" width="64" height="64"><path d="M32 4 C44 4 56 24 56 40 A24 24 0 0 1 8 40 C8 24 20 4 32 4 Z" fill="#4ccc6a" stroke="#161616" stroke-width="3" stroke-linejoin="round" /><path d="M32 12 C40 12 50 28 50 40 A18 18 0 0 1 14 40 C14 28 24 12 32 12 Z" fill="#d6f57a" stroke="#161616" stroke-width="3" stroke-linejoin="round" /><circle cx="32" cy="42" r="9" fill="#a05a2c" stroke="#161616" stroke-width="3"/><ellipse cx="24" cy="26" rx="4.5" ry="5.3999999999999995" fill="#ffffff" stroke="#161616" stroke-width="3"/><circle cx="25.2" cy="27" r="2.25" fill="#161616"/><circle cx="26.4" cy="24.8" r="0.8099999999999999" fill="#ffffff"/><ellipse cx="40" cy="26" rx="4.5" ry="5.3999999999999995" fill="#ffffff" stroke="#161616" stroke-width="3"/><circle cx="41.2" cy="27" r="2.25" fill="#161616"/><circle cx="42.400000000000006" cy="24.8" r="0.8099999999999999" fill="#ffffff"/><path d="M27 37 Q32 42 37 37" fill="none" stroke="#161616" stroke-width="3" stroke-linecap="round"/></svg>
