<svg xmlns="http://www.w3.org/2000/svg" viewBox="0 0 64 64" width="64" height="64"><path d="M32 8 A24 24 0 1 0 32 56 A24 24 0 1 0 32 8 Z M32 24 A8 8 0 1 1 32 40 A8 8 0 1 1 32 24 Z" fill="#f5c78a" stroke="#161616" stroke-width="3" stroke-linejoin="round" fill-rule="evenodd"/><path d="M12 30 C10 18 22 10 32 12 C42 10 54 18 52 30 C48 34 44 30 40 33 C36 30 32 36 28 33 C24 30 18 34 12 30 Z" fill="#ff90e8" stroke="#161616" stroke-width="3" stroke-linejoin="round" /><ellipse cx="20" cy="34" rx="5" ry="6" fill="#ffffff" stroke="#161616" stroke-width="3"/><circle cx="21.2" cy="35" r="2.5" fill="#161616"/><circle cx="22.4" cy="32.8" r="0.8999999999999999" fill="#ffffff"/><ellipse cx="44" cy="34" rx="5" ry="6" fill="#ffffff" stroke="#161616" stroke-width="3"/><circle cx="45.2" cy="35" r="2.5" fill="#161616"/><circle cx="46.400000000000006" cy="32.8" r="0.8999999999999999" fill="#ffffff"/><path d="M28 48 Q32 53 36 48" fill="none" stroke="#161616" stroke-width="3" stroke-linecap="round"/></svg>
