<svg xmlns="http://www.w3.org/2000/svg" viewBox="0 0 64 64" width="64" height="64"><path d="M32 6 C46 6 52 26 52 40 A20 20 0 0 1 12 40 C12 26 18 6 32 6 Z" fill="#ffffff" stroke="#161616" stroke-width="3" stroke-linejoin="round" /><path d="M22 46 C22 36 42 36 42 46 A10 10 0 0 1 22 46 Z" fill="#ffc900" stroke="#161616" stroke-width="3" stroke-linejoin="round" /><ellipse cx="23" cy="30" rx="5" ry="6" fill="#ffffff" stroke="#161616" stroke-width="3"/><circle cx="24.2" cy="31" r="2.5" fill="#161616"/><circle cx="25.4" cy="28.8" r="0.8999999999999999" fill="#ffffff"/><ellipse cx="41" cy="30" rx="5" ry="6" fill="#ffffff" stroke="#161616" stroke-width="3"/><circle cx="42.2" cy="31" r="2.5" fill="#161616"/><circle cx="43.400000000000006" cy="28.8" r="0.8999999999999999" fill="#ffffff"/><path d="M27 41 Q32 46 37 41" fill="none" stroke="#161616" stroke-width="3" stroke-linecap="round"/></svg>
