<svg width="11" height="11" viewBox="0 0 11 11" fill="none" xmlns="http://www.w3.org/2000/svg">
<path d="M5.42383 2.81592H6.42383V3.81592H5.42383V2.81592ZM5.42383 4.81592H6.42383V7.81592H5.42383V4.81592ZM5.92383 0.315918C3.16383 0.315918 0.923828 2.55592 0.923828 5.31592C0.923828 8.07592 3.16383 10.3159 5.92383 10.3159C8.68383 10.3159 10.9238 8.07592 10.9238 5.31592C10.9238 2.55592 8.68383 0.315918 5.92383 0.315918ZM5.92383 9.31592C3.71883 9.31592 1.92383 7.52092 1.92383 5.31592C1.92383 3.11092 3.71883 1.31592 5.92383 1.31592C8.12883 1.31592 9.92383 3.11092 9.92383 5.31592C9.92383 7.52092 8.12883 9.31592 5.92383 9.31592Z" fill="#5F646D"/>
</svg>
