<svg width="1349" height="1216" viewBox="0 0 1349 1216" fill="none"
    xmlns="http://www.w3.org/2000/svg" preserveAspectRatio="none">
    <g filter="url(#filter0_f_515_88368)">
        <path
            d="M768.954 537.517C518.815 959.078 983.995 948.606 1008 948.606C-80.2208 1391.07 25.303 434.959 467.893 199.818C642.429 107.09 1019.5 115.26 768.954 537.517Z"
            fill="#FF90E8" />
    </g>
    <g filter="url(#filter1_f_515_88368)">
        <ellipse cx="997.252" cy="648.089" rx="239.292" ry="206.921"
            transform="rotate(-46.4328 997.252 648.089)" fill="#90A8ED" />
    </g>
    <g filter="url(#filter2_f_515_88368)">
        <path
            d="M1071 834.073C1071 911.353 979.842 974 867.394 974C754.945 974 601.615 852.098 678.976 646.24C723.314 528.256 809.67 717.22 895.871 757.707C982.071 798.194 1071 756.794 1071 834.073Z"
            fill="#F1F333" />
    </g>
    <defs>
        <filter id="filter0_f_515_88368" x="0" y="0" width="1160" height="1216"
            filterUnits="userSpaceOnUse" color-interpolation-filters="sRGB">
            <feFlood flood-opacity="0" result="BackgroundImageFix" />
            <feBlend mode="normal" in="SourceGraphic" in2="BackgroundImageFix" result="shape" />
            <feGaussianBlur stdDeviation="76" result="effect1_foregroundBlur_515_88368" />
        </filter>
        <filter id="filter1_f_515_88368" x="646.366" y="295.584" width="701.772" height="705.01"
            filterUnits="userSpaceOnUse" color-interpolation-filters="sRGB">
            <feFlood flood-opacity="0" result="BackgroundImageFix" />
            <feBlend mode="normal" in="SourceGraphic" in2="BackgroundImageFix" result="shape" />
            <feGaussianBlur stdDeviation="64" result="effect1_foregroundBlur_515_88368" />
        </filter>
        <filter id="filter2_f_515_88368" x="530" y="480" width="669" height="622"
            filterUnits="userSpaceOnUse" color-interpolation-filters="sRGB">
            <feFlood flood-opacity="0" result="BackgroundImageFix" />
            <feBlend mode="normal" in="SourceGraphic" in2="BackgroundImageFix" result="shape" />
            <feGaussianBlur stdDeviation="64" result="effect1_foregroundBlur_515_88368" />
        </filter>
    </defs>
</svg>