<svg width="1000" height="1000" viewBox="0 0 1000 1000" className="fill-pink-1" xmlns="http://www.w3.org/2000/svg">
<g clip-path="url(#clip0_5152_5029)">
<path d="M199.697 218.926C190.19 222.815 172.973 217.39 166.007 208.333C157.589 197.554 146.85 187.429 132.309 182.837C101.768 173.262 85.8008 193.684 77.9358 221.089C70.6651 246.276 82.2307 267.814 112.773 277.389C127.259 281.966 141.398 281.348 152.779 276.744C162.286 272.855 179.502 278.28 186.469 287.337C194.818 298.155 207.114 307.016 221.654 311.608C252.196 321.183 280.932 308.068 285.916 282.326C290.901 256.584 270.231 227.911 239.689 218.335C225.148 213.743 211.023 214.307 199.697 218.926Z"  stroke="black" stroke-width="2" stroke-miterlimit="10"/>
<path d="M835.026 475.247C824.76 475.607 810.484 464.56 807.081 453.653C802.911 440.628 796.339 427.413 784.285 418.074C758.941 398.524 736.895 412.161 720.035 435.153C704.5 456.269 707.9 480.478 733.243 500.028C745.252 509.334 758.732 513.646 771.002 513.263C781.268 512.904 795.544 523.95 798.947 534.857C803.038 547.896 811.509 560.464 823.563 569.802C848.906 589.353 880.406 586.988 893.988 564.56C907.57 542.132 898.096 508.079 872.752 488.529C860.698 479.19 847.251 474.832 835.026 475.247Z"  stroke="black" stroke-width="2" stroke-miterlimit="10"/>
<path d="M681.932 119.786C679.077 129.065 664.795 138.399 654.001 138.065C641.078 137.76 627.242 139.542 615.172 147.419C589.872 164.007 595.232 187.915 610.552 210.086C624.606 230.493 647.279 234.945 672.58 218.357C684.606 210.511 692.627 199.805 696.081 188.727C698.935 179.448 713.217 170.114 724.011 170.448C736.923 170.827 750.767 167.149 762.837 159.272C788.137 142.685 795.769 113.82 779.939 94.7518C764.109 75.6836 730.764 73.6115 705.463 90.1991C693.394 98.0763 685.342 108.739 681.932 119.786Z"  stroke="black" stroke-width="2" stroke-miterlimit="10"/>
<path d="M141.945 766.772C143.417 776.938 133.986 792.329 123.513 796.896C111.017 802.455 98.5932 810.424 90.6183 823.421C73.9353 850.737 89.8852 871.172 114.572 885.436C137.25 898.587 160.946 892.578 177.63 865.262C185.577 852.315 188.4 838.446 186.687 826.29C185.216 816.124 194.646 800.733 205.12 796.165C217.637 790.683 229.211 780.898 237.186 767.901C253.869 740.585 248.099 709.529 224.329 698.462C200.558 687.395 167.735 700.51 151.052 727.826C143.077 740.823 140.205 754.664 141.945 766.772Z"  stroke="black" stroke-width="2" stroke-miterlimit="10"/>
<path d="M809.868 771.174C818.341 776.981 823.269 794.346 819.531 805.143C815.151 818.099 812.592 832.635 816.746 847.307C825.529 878.086 851.365 880.204 878.584 871.716C903.623 863.95 915.261 842.452 906.478 811.673C902.342 797.055 894.057 785.581 883.956 778.603C875.483 772.796 870.555 755.431 874.294 744.634C878.744 731.713 879.391 716.572 875.237 701.9C866.455 671.121 839.706 654.319 815.46 664.3C791.214 674.281 778.616 707.307 787.399 738.086C791.553 752.758 799.785 764.249 809.868 771.174Z"  stroke="black" stroke-width="2" stroke-miterlimit="10"/>
<path fill-rule="evenodd" clip-rule="evenodd" d="M740.633 999.554H584.612C584.412 998.885 584.236 998.209 584.084 997.525C579.928 978.82 595.368 961.66 618.628 959.183C629.711 958.025 640.532 960.384 649.279 965.203C656.586 969.244 669.706 967.866 674.945 962.491C681.232 956.09 690.529 951.558 701.572 950.407C724.831 947.93 738.855 958.997 741.318 977.996C742.334 985.747 742.3 993.171 740.633 999.554Z" />
<path d="M740.633 999.554V1000.55H741.405L741.6 999.807L740.633 999.554ZM584.612 999.554L583.653 999.84L583.866 1000.55H584.612V999.554ZM584.084 997.525L585.06 997.308H585.06L584.084 997.525ZM618.628 959.183L618.524 958.188L618.522 958.188L618.628 959.183ZM649.279 965.203L649.763 964.328L649.762 964.327L649.279 965.203ZM674.945 962.491L674.232 961.79L674.229 961.793L674.945 962.491ZM701.572 950.407L701.675 951.402L701.678 951.402L701.572 950.407ZM741.318 977.996L740.326 978.125L740.326 978.126L741.318 977.996ZM740.633 998.554H584.612V1000.55H740.633V998.554ZM583.108 997.742C583.265 998.449 583.447 999.148 583.653 999.84L585.57 999.268C585.377 998.622 585.207 997.968 585.06 997.308L583.108 997.742ZM618.522 958.188C594.899 960.704 578.777 978.25 583.108 997.742L585.06 997.308C581.079 979.389 595.838 962.615 618.734 960.177L618.522 958.188ZM649.762 964.327C640.836 959.409 629.809 957.01 618.524 958.188L618.732 960.177C629.612 959.041 640.229 961.358 648.797 966.079L649.762 964.327ZM674.229 961.793C671.839 964.245 667.516 965.884 662.783 966.383C658.064 966.881 653.182 966.218 649.763 964.328L648.795 966.078C652.684 968.229 658.014 968.897 662.992 968.372C667.955 967.849 672.812 966.112 675.661 963.189L674.229 961.793ZM701.468 949.413C690.217 950.585 680.697 955.208 674.232 961.79L675.659 963.192C681.767 956.973 690.841 952.531 701.675 951.402L701.468 949.413ZM742.309 977.868C741.049 968.145 736.812 960.357 729.827 955.336C722.854 950.323 713.267 948.156 701.466 949.413L701.678 951.402C713.136 950.181 722.191 952.309 728.66 956.96C735.118 961.603 739.124 968.848 740.326 978.125L742.309 977.868ZM741.6 999.807C743.312 993.254 743.335 985.689 742.309 977.866L740.326 978.126C741.333 985.805 741.289 993.088 739.665 999.301L741.6 999.807Z" />
<path d="M415.437 563.395C424.154 566.652 432.275 580.844 431.344 591.152C430.32 603.499 431.242 616.838 438.095 628.831C452.533 653.976 475.71 650.201 497.789 636.8C518.11 624.509 523.652 603.069 509.215 577.924C502.389 565.973 492.6 557.693 482.197 553.762C473.481 550.505 465.359 536.313 466.29 526.004C467.384 513.673 464.649 500.219 457.796 488.226C443.359 463.081 416.175 454.145 397.036 468.21C377.896 482.276 374.026 514.061 388.463 539.206C395.316 551.199 405.062 559.506 415.437 563.395Z"  stroke="black" stroke-width="2" stroke-miterlimit="10"/>
<path d="M166.758 388.937C157.095 376.955 163.263 388.937 154.775 368.466C146.287 347.996 138.068 340.056 131.033 326.528C116.207 298.16 90.4766 300.312 65.5367 314.129C42.5855 326.798 35.5345 351.204 50.3602 379.571C57.367 393.051 67.8019 402.612 79.1047 407.404C88.577 411.377 96.9149 427.387 95.437 438.716C93.6912 452.27 75.3454 479.757 82.3802 493.286C97.2058 521.653 128.056 548.406 149.783 533.728C171.51 519.05 196.686 455.924 181.861 427.557C174.826 414.028 179.24 404.415 166.758 388.937Z"  stroke="black" stroke-width="2" stroke-miterlimit="10"/>
<path d="M504.906 833.053C515.723 828.944 505.721 830.556 522.33 829.267C538.938 827.979 546.529 823.958 557.838 822.088C581.568 818.113 586.034 799.225 581.981 778.179C578.283 758.823 562.489 748.09 538.759 752.064C527.492 753.926 518.225 759.151 512.164 766.11C507.114 771.951 493.729 774.174 485.978 770.474C476.7 766.064 461.339 746.54 450.031 748.41C426.301 752.385 399.986 768.188 405.404 787.138C410.823 806.088 450.056 838.808 473.786 834.833C485.094 832.963 490.934 838.361 504.906 833.053Z"  stroke="black" stroke-width="2" stroke-miterlimit="10"/>
<path fill-rule="evenodd" clip-rule="evenodd" d="M998.555 142.477V295.478C996.699 299.429 994.514 302.689 992.33 305.947C989.192 310.628 986.059 315.303 983.912 322.009C972.834 356.863 901.371 387.242 871.981 381.432C842.591 375.621 839.464 329.069 850.542 294.215C853.963 283.529 870.551 276.722 885.24 270.694C893.359 267.363 900.898 264.269 905.311 260.891C915.69 252.972 921.966 233.325 917.566 222.444C912.356 209.421 911.714 193.263 917.009 176.731C928.087 141.877 953.557 127.956 982.303 136.377C988.072 138.057 993.541 140.079 998.555 142.477Z" />
<path d="M998.555 142.477H999.555V141.847L998.987 141.575L998.555 142.477ZM998.555 295.478L999.46 295.903L999.555 295.701V295.478H998.555ZM992.33 305.947L993.161 306.504H993.161L992.33 305.947ZM983.912 322.009L982.96 321.704L982.959 321.706L983.912 322.009ZM871.981 381.432L871.787 382.413L871.981 381.432ZM850.542 294.215L849.589 293.91L849.589 293.912L850.542 294.215ZM885.24 270.694L884.86 269.769L885.24 270.694ZM905.311 260.891L904.705 260.096L904.703 260.097L905.311 260.891ZM917.566 222.444L916.637 222.816L916.639 222.819L917.566 222.444ZM917.009 176.731L917.961 177.036L917.962 177.034L917.009 176.731ZM982.303 136.377L982.022 137.336L982.023 137.337L982.303 136.377ZM997.555 142.477V295.478H999.555V142.477H997.555ZM993.161 306.504C995.34 303.252 997.567 299.932 999.46 295.903L997.65 295.053C995.831 298.925 993.687 302.127 991.499 305.39L993.161 306.504ZM984.864 322.314C986.964 315.756 990.023 311.185 993.161 306.504L991.499 305.39C988.362 310.071 985.154 314.849 982.96 321.704L984.864 322.314ZM871.787 382.413C879.338 383.905 889.476 383.062 900.539 380.473C911.625 377.879 923.73 373.51 935.254 367.868C946.775 362.226 957.744 355.296 966.542 347.566C975.329 339.846 982.019 331.267 984.865 322.312L982.959 321.706C980.266 330.178 973.869 338.467 965.222 346.064C956.587 353.651 945.776 360.488 934.374 366.071C922.973 371.654 911.01 375.969 900.084 378.526C889.136 381.088 879.32 381.863 872.175 380.451L871.787 382.413ZM849.589 293.912C844.01 311.464 841.997 331.983 845.103 348.895C848.203 365.776 856.492 379.389 871.787 382.413L872.175 380.451C858.08 377.664 850.111 365.095 847.07 348.534C844.034 332.003 845.996 311.82 851.495 294.518L849.589 293.912ZM884.86 269.769C877.532 272.776 869.641 276.012 863.156 279.847C856.703 283.663 851.418 288.198 849.589 293.91L851.494 294.52C853.086 289.546 857.806 285.334 864.174 281.568C870.511 277.821 878.258 274.64 885.619 271.62L884.86 269.769ZM904.703 260.097C900.421 263.375 893.036 266.414 884.86 269.769L885.619 271.62C893.682 268.311 901.374 265.164 905.919 261.685L904.703 260.097ZM916.639 222.819C918.716 227.954 918.309 235.322 916.028 242.474C913.751 249.611 909.681 256.299 904.705 260.096L905.918 261.686C911.321 257.563 915.577 250.468 917.933 243.082C920.285 235.71 920.816 227.815 918.493 222.07L916.639 222.819ZM916.057 176.426C910.698 193.157 911.333 209.556 916.637 222.816L918.494 222.073C913.379 209.285 912.73 193.368 917.961 177.036L916.057 176.426ZM982.584 135.417C967.982 131.139 954.134 132.521 942.517 139.468C930.912 146.407 921.649 158.831 916.056 176.428L917.962 177.034C923.447 159.777 932.458 147.813 943.544 141.184C954.618 134.562 967.878 133.193 982.022 137.336L982.584 135.417ZM998.987 141.575C993.916 139.149 988.395 137.109 982.583 135.417L982.023 137.337C987.75 139.005 993.167 141.008 998.124 143.379L998.987 141.575Z" />
<path fill-rule="evenodd" clip-rule="evenodd" d="M0 295.478V142.478C22.1672 153.082 35.4337 171.055 26.3992 199.479C24.3863 205.767 23.1613 211.547 21.8843 217.571C19.7913 227.446 17.5587 237.98 11.4889 252.487C6.15724 265.23 5.14938 266.663 5.01909 268.171C4.91056 269.427 5.41106 270.736 4.52821 278.681C3.73904 285.782 2.07533 291.062 0 295.478Z" />
<path d="M0 295.478H-1V299.958L0.905068 295.904L0 295.478ZM0 142.478L0.43155 141.575L-1 140.891V142.478H0ZM26.3992 199.479L27.3516 199.784L27.3523 199.782L26.3992 199.479ZM21.8843 217.571L22.8626 217.779L21.8843 217.571ZM11.4889 252.487L10.5664 252.101L11.4889 252.487ZM5.01909 268.171L6.01538 268.257L5.01909 268.171ZM4.52821 278.681L3.53433 278.57L4.52821 278.681ZM1 295.478V142.478H-1V295.478H1ZM27.3523 199.782C31.9349 185.364 30.8904 173.48 25.7842 163.828C20.6919 154.203 11.6316 146.933 0.43155 141.575L-0.43155 143.38C10.5356 148.626 19.1921 155.645 24.0163 164.763C28.8265 173.855 29.8981 185.17 25.4462 199.176L27.3523 199.782ZM22.8626 217.779C24.1406 211.749 25.3563 206.017 27.3516 199.784L25.4469 199.174C23.4164 205.517 22.1821 211.344 20.9061 217.364L22.8626 217.779ZM12.4114 252.873C18.5189 238.276 20.7669 227.667 22.8626 217.779L20.9061 217.364C18.8158 227.226 16.5985 237.684 10.5664 252.101L12.4114 252.873ZM6.01538 268.257C6.06327 267.703 6.2616 267.136 7.21984 264.942C8.15274 262.807 9.74174 259.254 12.4114 252.873L10.5664 252.101C7.90438 258.464 6.32362 261.998 5.38711 264.142C4.47594 266.227 4.1052 267.131 4.0228 268.085L6.01538 268.257ZM5.52209 278.791C5.96641 274.793 6.06526 272.441 6.06402 270.917C6.0634 270.155 6.03768 269.606 6.01987 269.184C6.00162 268.751 5.99465 268.497 6.01538 268.257L4.0228 268.085C3.98927 268.473 4.00416 268.853 4.02164 269.268C4.03955 269.693 4.06344 270.203 4.06402 270.919C4.06518 272.349 3.97285 274.624 3.53433 278.57L5.52209 278.791ZM0.905068 295.904C3.02795 291.386 4.72102 286 5.52209 278.791L3.53433 278.57C2.75705 285.565 1.12271 290.737 -0.905068 295.053L0.905068 295.904Z" />
<path d="M681.244 719.143C693.589 710.264 681.435 715.696 702.088 708.438C722.741 701.181 731.019 693.506 744.746 687.304C773.533 674.226 772.812 648.73 760.542 623.378C749.296 600.051 725.608 591.768 696.821 604.846C683.143 611.023 673.145 620.794 667.804 631.682C663.369 640.808 647.124 648.16 636.03 646.086C622.756 643.626 596.644 624.034 582.917 630.236C554.13 643.314 526.064 672.286 539.358 694.515C552.652 716.744 613.544 745.014 642.33 731.935C656.057 725.733 665.299 730.611 681.244 719.143Z"  stroke="black" stroke-width="2" stroke-miterlimit="10"/>
<path fill-rule="evenodd" clip-rule="evenodd" d="M365.978 46.0157C366.018 46.6619 366.37 47.289 366.521 51.39C366.776 58.3347 364.945 62.1947 363.116 66.0475C361.876 68.6611 360.637 71.2713 360.052 74.8391C357.055 93.3739 323.055 114.19 307.692 113.455C292.329 112.721 287.23 89.3159 290.228 70.781C291.159 65.0962 299.07 60.3887 306.075 56.2203C309.947 53.9162 313.542 51.7769 315.528 49.7282C320.202 44.9242 321.908 34.4737 318.853 29.2802C315.225 23.0592 313.68 14.9022 315.123 6.10775C315.413 4.31491 315.786 2.61137 316.237 0.998535H371.876C372.216 3.5541 372.162 6.38701 371.656 9.52021C371.108 12.865 370.921 15.8925 370.727 19.0484C370.409 24.221 370.069 29.7385 368.081 37.5634C366.334 44.4366 365.93 45.24 365.978 46.0157Z" />
<path d="M366.521 51.39L367.52 51.3533L366.521 51.39ZM365.978 46.0157L364.98 46.0769V46.0769L365.978 46.0157ZM363.116 66.0475L362.213 65.6187L363.116 66.0475ZM360.052 74.8391L359.066 74.6774L359.065 74.6794L360.052 74.8391ZM307.692 113.455L307.74 112.456L307.692 113.455ZM290.228 70.781L289.241 70.6193L289.241 70.6213L290.228 70.781ZM306.075 56.2203L306.586 57.0797L306.075 56.2203ZM315.528 49.7282L314.812 49.0309L314.811 49.0321L315.528 49.7282ZM318.853 29.2802L317.989 29.7839L317.991 29.7872L318.853 29.2802ZM315.123 6.10775L316.11 6.26962L316.11 6.2674L315.123 6.10775ZM316.237 0.998535V-0.00146484H315.479L315.274 0.729104L316.237 0.998535ZM371.876 0.998535L372.868 0.866589L372.752 -0.00146484H371.876V0.998535ZM371.656 9.52021L372.643 9.68192L372.643 9.67986L371.656 9.52021ZM370.727 19.0484L371.725 19.1098L370.727 19.0484ZM368.081 37.5634L367.112 37.3171V37.3171L368.081 37.5634ZM367.52 51.3533C367.444 49.2765 367.316 48.056 367.197 47.2596C367.137 46.8615 367.081 46.5756 367.04 46.3629C366.998 46.1404 366.981 46.0419 366.976 45.9545L364.98 46.0769C364.994 46.3127 365.037 46.5349 365.076 46.7398C365.117 46.9546 365.166 47.2029 365.219 47.555C365.324 48.259 365.447 49.4024 365.522 51.4267L367.52 51.3533ZM364.02 66.4762C365.868 62.5813 367.785 58.5432 367.52 51.3533L365.522 51.4267C365.768 58.1263 364.021 61.8081 362.213 65.6187L364.02 66.4762ZM361.039 75.0008C361.599 71.5868 362.779 69.0902 364.02 66.4762L362.213 65.6187C360.973 68.2319 359.675 70.9559 359.066 74.6774L361.039 75.0008ZM307.644 114.454C311.691 114.648 316.852 113.427 322.301 111.268C327.772 109.1 333.623 105.95 339.076 102.197C344.528 98.4449 349.611 94.071 353.53 89.4417C357.44 84.8238 360.25 79.8826 361.04 74.9987L359.065 74.6794C358.356 79.063 355.792 83.6744 352.004 88.1494C348.225 92.6131 343.285 96.8725 337.942 100.549C332.601 104.225 326.883 107.301 321.565 109.408C316.225 111.524 311.374 112.63 307.74 112.456L307.644 114.454ZM289.241 70.6213C287.721 80.0183 288.245 90.673 291.128 99.1163C294.001 107.53 299.352 114.058 307.644 114.454L307.74 112.456C300.669 112.118 295.789 106.576 293.021 98.4701C290.263 90.3937 289.737 80.0786 291.215 70.9406L289.241 70.6213ZM305.563 55.361C302.076 57.436 298.281 59.6925 295.244 62.1553C292.236 64.5949 289.769 67.3942 289.241 70.6193L291.215 70.9427C291.618 68.483 293.572 66.0862 296.504 63.7087C299.406 61.3546 303.068 59.1731 306.586 57.0797L305.563 55.361ZM314.811 49.0321C312.939 50.962 309.488 53.0256 305.563 55.361L306.586 57.0797C310.405 54.8069 314.145 52.5918 316.246 50.4244L314.811 49.0321ZM317.991 29.7872C319.351 32.1004 319.712 35.7411 319.102 39.4896C318.494 43.223 316.961 46.8214 314.812 49.0309L316.245 50.4255C318.769 47.8309 320.426 43.8021 321.076 39.8109C321.723 35.8348 321.409 31.6536 319.715 28.7732L317.991 29.7872ZM314.136 5.94589C312.66 14.947 314.233 23.3431 317.989 29.7839L319.717 28.7765C316.217 22.7753 314.701 14.8573 316.11 6.26962L314.136 5.94589ZM315.274 0.729104C314.812 2.3801 314.431 4.12041 314.136 5.9481L316.11 6.2674C316.394 4.50941 316.76 2.84263 317.2 1.26797L315.274 0.729104ZM316.237 1.99854H371.876V-0.00146484H316.237V1.99854ZM372.643 9.67986C373.163 6.46419 373.222 3.53215 372.868 0.866589L370.885 1.13048C371.211 3.57604 371.162 6.30983 370.669 9.36056L372.643 9.67986ZM371.725 19.1098C371.92 15.9492 372.104 12.9699 372.643 9.68192L370.669 9.35851C370.111 12.7602 369.923 15.8359 369.729 18.987L371.725 19.1098ZM369.05 37.8097C371.063 29.8901 371.406 24.2956 371.725 19.1098L369.729 18.987C369.412 24.1464 369.076 29.5868 367.112 37.3171L369.05 37.8097ZM366.976 45.9545C366.965 45.7668 366.993 45.5513 367.322 44.3376C367.634 43.1849 368.174 41.2559 369.05 37.8097L367.112 37.3171C366.241 40.7441 365.706 42.6534 365.391 43.8147C365.093 44.9149 364.944 45.4889 364.98 46.0769L366.976 45.9545Z" />
<path d="M171.434 566.134C161.917 574.675 171.587 569.034 154.977 576.971C138.368 584.909 132.142 592.075 121.228 598.503C98.3459 612.043 101.258 633.293 113.812 653.377C125.326 671.86 145.88 676.64 168.762 663.1C179.637 656.697 187.111 647.622 190.591 638.037C193.472 630.005 206.387 622.388 215.85 623.117C227.17 623.972 250.775 637.986 261.689 631.558C284.571 618.018 305.412 591.255 292.285 573.875C279.157 556.495 225.69 538.375 202.808 551.915C191.894 558.343 183.726 555.102 171.434 566.134Z"  stroke="black" stroke-width="2" stroke-miterlimit="10"/>
<path d="M646.126 473.237C634.836 473.1 644.493 475.213 628.954 470.445C613.415 465.678 605.086 466.614 594.151 464.269C571.187 459.394 560.379 474.945 556.535 495.5C552.972 514.395 563.474 529.785 586.438 534.66C597.332 536.999 607.614 535.568 615.604 531.417C622.276 527.919 635.223 530.687 640.937 536.817C647.784 544.138 654.749 567.354 665.684 569.699C688.648 574.574 718.188 569.636 720.043 550.494C721.899 531.353 697.979 487.622 675.015 482.747C664.08 480.402 660.708 473.414 646.126 473.237Z"  stroke="black" stroke-width="2" stroke-miterlimit="10"/>
<path d="M561.764 253.429C549.987 252.368 559.898 255.359 544.061 249.117C528.224 242.875 519.451 243.175 508.224 239.837C484.643 232.879 472.094 248.237 466.408 269.387C461.151 288.826 470.864 305.75 494.445 312.708C505.63 316.036 521.514 320.785 530.195 317.101C537.447 313.992 544.844 318.377 550.311 325.242C556.864 333.443 563.112 352.4 574.339 355.739C597.92 362.697 629.166 359.943 632.66 340.108C643.063 314.633 614.735 272.666 591.154 265.708C579.927 262.37 576.975 254.799 561.764 253.429Z"  stroke="black" stroke-width="2" stroke-miterlimit="10"/>
<path d="M797.02 943.779C790.937 937.995 797.175 941.879 786.426 936.357C775.678 930.835 771.728 926.015 764.687 921.591C749.928 912.274 752.24 898.385 760.857 885.444C768.761 873.533 782.338 870.784 797.097 880.101C804.113 884.508 814.088 890.755 816.19 897.11C817.929 902.435 823.733 904.326 829.956 904.025C837.4 903.678 850.438 898.129 857.479 902.553C872.238 911.87 885.408 929.824 876.466 940.981C867.753 958.465 832.098 963.018 817.339 953.701C810.299 949.277 804.878 951.25 797.02 943.779Z"  stroke="black" stroke-width="2" stroke-miterlimit="10"/>
<path fill-rule="evenodd" clip-rule="evenodd" d="M998.555 578.566V650.658C996.821 651.837 995.07 652.796 993.329 653.497C989.833 654.914 987.462 656.776 985.088 658.641C981.588 661.389 978.082 664.143 970.955 665.483C966.747 666.274 966.028 666.06 965.361 666.168C964.561 666.299 963.836 666.895 957.244 670.256C949.738 674.082 944.201 675.699 939.011 677.215C935.844 678.139 932.805 679.026 929.528 680.355C911.355 687.676 900.228 676.453 894.102 660.111C888.447 645.095 894.858 630.929 913.03 623.608L913.127 623.568C921.74 620.076 933.911 615.141 941.051 617.391C947.04 619.304 952.572 615.26 956.385 609.397C957.825 607.189 959.161 604.135 960.584 600.879C963.678 593.804 967.189 585.773 973.112 583.372C981.056 580.172 990.304 578.332 998.555 578.566Z" />
<path d="M998.555 578.566H999.555V577.594L998.583 577.566L998.555 578.566ZM998.555 650.658L999.117 651.485L999.555 651.187V650.658H998.555ZM993.329 653.497L992.956 652.57L992.954 652.571L993.329 653.497ZM985.088 658.641L984.47 657.854L985.088 658.641ZM970.955 665.483L971.14 666.466L970.955 665.483ZM965.361 666.168L965.522 667.155H965.522L965.361 666.168ZM957.244 670.256L957.698 671.147L957.244 670.256ZM939.011 677.215L939.291 678.174H939.291L939.011 677.215ZM929.528 680.355L929.901 681.282L929.903 681.282L929.528 680.355ZM894.102 660.111L895.039 659.76L895.038 659.759L894.102 660.111ZM913.03 623.608L913.404 624.535L913.406 624.534L913.03 623.608ZM913.127 623.568L912.752 622.642H912.752L913.127 623.568ZM941.051 617.391L941.355 616.439L941.351 616.437L941.051 617.391ZM956.385 609.397L955.547 608.851L955.546 608.852L956.385 609.397ZM960.584 600.879L961.501 601.279L960.584 600.879ZM973.112 583.372L972.739 582.444L972.737 582.445L973.112 583.372ZM997.555 578.566V650.658H999.555V578.566H997.555ZM997.993 649.831C996.308 650.976 994.62 651.899 992.956 652.57L993.703 654.425C995.52 653.693 997.334 652.697 999.117 651.485L997.993 649.831ZM992.954 652.571C989.313 654.046 986.844 655.99 984.47 657.854L985.705 659.427C988.08 657.563 990.353 655.783 993.705 654.424L992.954 652.571ZM984.47 657.854C981.007 660.574 977.656 663.205 970.771 664.5L971.14 666.466C978.508 665.08 982.169 662.204 985.705 659.427L984.47 657.854ZM970.771 664.5C968.692 664.891 967.498 665.029 966.756 665.084C966.384 665.112 966.12 665.12 965.892 665.127C965.674 665.134 965.44 665.142 965.2 665.181L965.522 667.155C965.615 667.14 965.722 667.134 965.958 667.126C966.184 667.119 966.487 667.11 966.904 667.079C967.74 667.017 969.01 666.866 971.14 666.466L970.771 664.5ZM965.2 665.181C964.602 665.279 964.059 665.559 963.006 666.117C961.897 666.704 960.077 667.689 956.789 669.365L957.698 671.147C961.003 669.462 962.841 668.467 963.942 667.884C965.1 667.271 965.319 667.188 965.522 667.155L965.2 665.181ZM956.789 669.365C949.371 673.147 943.908 674.743 938.73 676.255L939.291 678.174C944.494 676.655 950.105 675.017 957.698 671.147L956.789 669.365ZM938.73 676.255C935.568 677.178 932.483 678.078 929.152 679.428L929.903 681.282C933.128 679.975 936.119 679.101 939.291 678.174L938.73 676.255ZM929.154 679.427C920.332 682.981 913.364 682 907.857 678.278C902.285 674.511 898.068 667.843 895.039 659.76L893.166 660.462C896.262 668.721 900.672 675.835 906.737 679.935C912.869 684.079 920.551 685.049 929.901 681.282L929.154 679.427ZM895.038 659.759C892.295 652.474 892.499 645.472 895.525 639.421C898.557 633.358 904.483 628.129 913.404 624.535L912.657 622.68C903.405 626.407 897.039 631.922 893.736 638.526C890.428 645.143 890.255 652.732 893.166 660.464L895.038 659.759ZM913.406 624.534L913.503 624.495L912.752 622.642L912.655 622.681L913.406 624.534ZM913.503 624.495C917.819 622.745 922.961 620.661 927.908 619.29C932.9 617.907 937.479 617.314 940.75 618.345L941.351 616.437C937.482 615.218 932.406 615.968 927.374 617.363C922.297 618.77 917.048 620.9 912.752 622.642L913.503 624.495ZM940.747 618.344C947.418 620.474 953.349 615.901 957.223 609.942L955.546 608.852C951.796 614.62 946.662 618.133 941.355 616.439L940.747 618.344ZM957.222 609.944C958.718 607.65 960.089 604.509 961.501 601.279L959.668 600.478C958.233 603.762 956.932 606.728 955.547 608.851L957.222 609.944ZM961.501 601.279C963.054 597.727 964.676 594.022 966.634 590.905C968.598 587.778 970.816 585.382 973.488 584.299L972.737 582.445C969.486 583.763 966.986 586.583 964.94 589.841C962.889 593.108 961.208 596.956 959.668 600.478L961.501 601.279ZM973.486 584.3C981.318 581.144 990.429 579.336 998.526 579.565L998.583 577.566C990.178 577.328 980.795 579.199 972.739 582.444L973.486 584.3Z" />
<path d="M684.451 868.351C685.999 856.98 682.662 866.457 689.412 851.378C696.163 836.299 696.259 827.78 699.99 817.042C707.777 794.486 693.44 781.641 673.185 775.196C654.57 769.241 637.733 777.912 629.946 800.468C626.227 811.166 620.921 826.357 624.11 834.936C626.805 842.103 622.227 849.082 615.33 854.08C607.09 860.072 588.434 865.293 584.702 876.031C576.916 898.587 578.207 929.002 597.284 933.265C621.525 944.474 663.463 918.861 671.249 896.305C674.981 885.567 682.451 883.039 684.451 868.351Z"  stroke="black" stroke-width="2" stroke-miterlimit="10"/>
<path d="M510.729 93.5397C520.421 89.5271 512.82 94.6805 524.579 85.2074C536.338 75.7343 543.846 73.6687 552.469 67.8733C570.596 55.7461 585.284 65.4321 595.69 81.8371C605.282 96.9063 601.533 113.805 583.406 125.933C574.815 131.708 562.621 139.93 554.297 139.106C547.334 138.391 542.231 144.06 539.416 151.318C536.036 159.995 535.759 177.699 527.135 183.495C509.008 195.622 481.824 201.553 473.62 185.682C458.075 166.862 470.963 123.836 489.09 111.709C497.714 105.914 498.212 98.7226 510.729 93.5397Z"  stroke="black" stroke-width="2" stroke-miterlimit="10"/>
<path fill-rule="evenodd" clip-rule="evenodd" d="M998.555 473.002V525.61C987.167 534.295 974.396 536.487 962.491 524.096C959.937 521.427 957.422 519.28 954.801 517.043C950.505 513.376 945.922 509.464 940.41 502.605C935.569 496.579 935.134 495.701 934.427 495.234C933.838 494.845 933.061 494.741 929.391 492.185C923.175 487.856 921.014 483.731 918.856 479.614C917.393 476.821 915.932 474.031 913.207 471.184C899.029 456.427 895.861 414.402 913.89 400.275C924.598 387.377 948.323 398.274 962.501 413.032C967.116 417.856 967.022 427.012 966.939 435.076C966.901 438.789 966.865 442.27 967.292 444.991C968.414 452.21 971.953 458.431 978.478 459.174C984.841 459.923 992.356 466.714 998.555 473.002Z" />
<path d="M998.555 473.002H999.555V472.592L999.267 472.3L998.555 473.002ZM998.555 525.61L999.161 526.406L999.555 526.105V525.61H998.555ZM962.491 524.096L961.768 524.787L961.77 524.789L962.491 524.096ZM954.801 517.043L954.152 517.804L954.801 517.043ZM940.41 502.605L939.631 503.231L940.41 502.605ZM934.427 495.234L934.978 494.4H934.978L934.427 495.234ZM929.391 492.185L928.819 493.006L929.391 492.185ZM918.856 479.614L917.971 480.078L918.856 479.614ZM913.207 471.184L913.93 470.493L913.929 470.491L913.207 471.184ZM913.89 400.275L914.507 401.062L914.591 400.996L914.659 400.914L913.89 400.275ZM962.501 413.032L963.224 412.34L963.222 412.339L962.501 413.032ZM966.939 435.076L967.939 435.087L966.939 435.076ZM967.292 444.991L968.281 444.837L968.28 444.836L967.292 444.991ZM978.478 459.174L978.595 458.181L978.591 458.18L978.478 459.174ZM997.555 473.002V525.61H999.555V473.002H997.555ZM961.77 524.789C967.877 531.146 974.3 533.846 980.731 533.757C987.125 533.668 993.369 530.823 999.161 526.406L997.948 524.815C992.353 529.083 986.518 531.676 980.703 531.757C974.924 531.837 969.009 529.437 963.212 523.403L961.77 524.789ZM954.152 517.804C956.777 520.044 959.254 522.16 961.768 524.787L963.213 523.405C960.62 520.694 958.068 518.517 955.45 516.282L954.152 517.804ZM939.631 503.231C945.204 510.167 949.846 514.128 954.152 517.804L955.45 516.282C951.164 512.624 946.64 508.762 941.19 501.978L939.631 503.231ZM933.876 496.068C934.062 496.191 934.241 496.371 935.079 497.449C935.878 498.476 937.204 500.21 939.631 503.231L941.19 501.978C938.775 498.973 937.462 497.255 936.657 496.221C935.891 495.236 935.499 494.744 934.978 494.4L933.876 496.068ZM928.819 493.006C930.676 494.299 931.82 494.985 932.588 495.401C932.972 495.609 933.256 495.747 933.468 495.851C933.689 495.959 933.791 496.012 933.876 496.068L934.978 494.4C934.769 494.261 934.553 494.155 934.348 494.055C934.134 493.95 933.884 493.829 933.541 493.643C932.855 493.271 931.776 492.628 929.962 491.364L928.819 493.006ZM917.971 480.078C920.15 484.237 922.402 488.536 928.819 493.006L929.962 491.364C923.948 487.176 921.878 483.226 919.742 479.15L917.971 480.078ZM912.485 471.875C915.101 474.61 916.507 477.284 917.971 480.078L919.742 479.15C918.279 476.357 916.762 473.453 913.93 470.493L912.485 471.875ZM913.273 399.488C903.882 406.846 900.158 421.293 900.471 435.515C900.785 449.753 905.151 464.242 912.486 471.877L913.929 470.491C907.086 463.369 902.779 449.467 902.471 435.471C902.162 421.459 905.869 407.831 914.507 401.062L913.273 399.488ZM963.222 412.339C956.042 404.866 946.431 398.349 937.205 395.332C928.009 392.325 918.865 392.716 913.121 399.636L914.659 400.914C919.623 394.935 927.696 394.327 936.583 397.233C945.441 400.129 954.782 406.44 961.78 413.725L963.222 412.339ZM967.939 435.087C967.98 431.071 968.027 426.688 967.472 422.701C966.919 418.724 965.747 414.978 963.224 412.34L961.778 413.723C963.87 415.909 964.959 419.153 965.491 422.977C966.022 426.789 965.981 431.017 965.939 435.066L967.939 435.087ZM968.28 444.836C967.869 442.215 967.901 438.828 967.939 435.087L965.939 435.066C965.901 438.749 965.862 442.325 966.304 445.146L968.28 444.836ZM978.591 458.18C972.777 457.518 969.384 451.944 968.281 444.837L966.304 445.144C967.443 452.475 971.128 459.344 978.365 460.167L978.591 458.18ZM999.267 472.3C996.158 469.147 992.687 465.834 989.177 463.21C985.689 460.604 982.045 458.587 978.595 458.181L978.361 460.167C981.274 460.51 984.569 462.263 987.98 464.812C991.367 467.343 994.753 470.57 997.843 473.704L999.267 472.3Z" />
<path d="M291.999 354.964C286.085 365.47 278.907 369.739 267.946 371.268C254.84 373.194 245.167 385.376 234.338 395.419C211.651 416.55 220.268 440.028 239.576 459.773C257.301 477.955 281.905 478.274 304.592 457.144C315.383 447.139 321.633 434.938 323.206 423.151C324.484 413.285 337.296 401.387 348.256 399.858C361.363 398.008 390.59 397.482 401.419 387.439C424.106 366.309 429.378 346.997 414.401 323.531C395.113 307.008 338.33 300.878 315.644 322.008C304.815 332.052 293.533 343.216 291.999 354.964Z"  stroke="black" stroke-width="2" stroke-miterlimit="10"/>
<path d="M89.2587 702.288C90.7717 709.245 94.079 712.904 99.9938 715.677C107.049 719.047 110.392 727.605 114.756 735.158C123.885 751.031 114.958 762.774 100.65 770.547C87.5059 777.715 73.5789 773.607 64.4502 757.734C60.1004 750.209 58.691 742.238 59.847 735.315C60.8361 729.526 55.675 720.581 49.7603 717.809C42.6912 714.481 26.3044 709.091 21.9398 701.538C12.8111 685.665 13.1851 673.852 25.6963 663.225C39.4339 657.266 72.5104 663.703 81.6391 679.577C86.0037 687.13 90.4294 695.393 89.2587 702.288Z"  stroke="black" stroke-width="2" stroke-miterlimit="10"/>
<path d="M318.068 844.185C308.779 847.418 302.085 846.154 294.556 841.172C285.5 835.275 273.008 837.503 260.963 837.801C235.681 838.477 228.276 857.488 229.426 879.987C230.452 900.676 245.328 914.153 270.61 913.477C282.611 913.183 293.02 909.095 300.344 902.735C306.453 897.39 320.711 897.03 328.24 902.012C337.255 907.956 355.414 923.412 367.459 923.115C392.741 922.438 406.391 913.474 409.898 891.036C407.021 870.519 375.602 836.117 350.32 836.793C338.275 837.09 325.348 837.828 318.068 844.185Z"  stroke="black" stroke-width="2" stroke-miterlimit="10"/>
<path d="M356.219 720.905C349.998 725.066 347.698 729.712 347.274 736.57C346.707 744.774 339.628 751.341 333.928 758.523C321.931 773.572 306.988 769.358 293.847 758.349C281.748 748.245 280.378 733.031 292.374 717.982C298.053 710.826 305.306 706.376 312.526 704.841C318.572 703.579 325.326 695.082 325.749 688.225C326.269 680.024 325.201 661.91 330.902 654.728C342.898 639.679 354.6 635.495 369.838 643.647C380.984 654.797 387.486 689.65 375.489 704.699C369.789 711.88 363.417 719.395 356.219 720.905Z"  stroke="black" stroke-width="2" stroke-miterlimit="10"/>
<path d="M779.519 303.352C781.199 295.147 785.041 290.8 791.965 287.462C800.225 283.405 804.036 273.295 809.066 264.353C819.584 245.561 808.901 231.862 791.939 222.902C776.355 214.64 760.015 219.653 749.496 238.445C744.483 247.353 742.94 256.749 744.402 264.879C745.651 271.676 739.704 282.265 732.779 285.604C724.503 289.61 705.285 296.163 700.255 305.105C689.737 323.896 690.349 337.788 705.238 350.128C721.502 356.961 760.359 348.96 770.877 330.168C775.907 321.226 780.998 311.447 779.519 303.352Z"  stroke="black" stroke-width="2" stroke-miterlimit="10"/>
<path fill-rule="evenodd" clip-rule="evenodd" d="M175.843 64.1053C182.19 70.8012 184.648 77.3154 183.038 87.2362C177.929 95.6894 179.474 108.83 181.308 121.006C185.103 146.572 225.291 172.105 246.45 171.368C268.412 163.866 275.019 148.54 271.224 122.975C269.763 113.272 257.547 101.434 248.81 92.9658C246.582 90.8068 244.58 88.8669 243.041 87.2373C236.693 80.5414 234.532 66.1265 238.83 59.0325C243.934 50.5343 246.206 39.3343 244.378 27.2035C242.69 15.8378 238.552 7.0372 232.629 0.998535H177.058C168.853 7.26196 164.419 16.8535 166.503 30.8913C166.858 33.2501 167.143 35.6387 167.427 38.0157C168.608 47.9077 169.765 57.5982 175.843 64.1053Z" />
<path d="M183.038 87.2362L183.893 87.7535L183.994 87.5877L184.025 87.3965L183.038 87.2362ZM175.843 64.1053L175.112 64.7879L175.117 64.7933L175.843 64.1053ZM181.308 121.006L182.297 120.859L182.297 120.857L181.308 121.006ZM246.45 171.368L246.485 172.367L246.633 172.362L246.774 172.314L246.45 171.368ZM271.224 122.975L272.213 122.828L272.212 122.826L271.224 122.975ZM248.81 92.9658L248.114 93.6839L248.81 92.9658ZM243.041 87.2373L243.768 86.5505L243.766 86.5494L243.041 87.2373ZM238.83 59.0325L239.685 59.5506L239.687 59.5473L238.83 59.0325ZM244.378 27.2035L243.388 27.3504L243.389 27.3526L244.378 27.2035ZM232.629 0.998535L233.343 0.298331L233.049 -0.00146484H232.629V0.998535ZM177.058 0.998535V-0.00146484H176.72L176.451 0.203662L177.058 0.998535ZM166.503 30.8913L165.514 31.0381L165.514 31.0402L166.503 30.8913ZM167.427 38.0157L168.42 37.8971L167.427 38.0157ZM184.025 87.3965C184.849 82.319 184.642 78.0435 183.375 74.1518C182.109 70.2633 179.809 66.8361 176.569 63.4173L175.117 64.7933C178.224 68.0705 180.326 71.2483 181.473 74.771C182.619 78.2906 182.837 82.2326 182.051 87.076L184.025 87.3965ZM182.297 120.857C181.38 114.769 180.547 108.508 180.569 102.729C180.592 96.9406 181.475 91.7546 183.893 87.7535L182.182 86.719C179.491 91.1711 178.593 96.782 178.569 102.721C178.546 108.67 179.402 115.067 180.319 121.155L182.297 120.857ZM246.415 170.368C241.315 170.546 234.98 169.137 228.246 166.475C221.526 163.818 214.473 159.938 207.952 155.239C194.855 145.802 184.134 133.236 182.297 120.859L180.319 121.153C182.276 134.342 193.547 147.324 206.783 156.862C213.428 161.65 220.626 165.613 227.511 168.335C234.383 171.051 241.006 172.558 246.485 172.367L246.415 170.368ZM270.234 123.121C272.119 135.814 271.392 145.8 267.599 153.503C263.824 161.169 256.932 166.731 246.127 170.421L246.774 172.314C257.931 168.503 265.323 162.651 269.393 154.387C273.444 146.16 274.124 135.701 272.213 122.828L270.234 123.121ZM248.114 93.6839C252.49 97.9248 257.687 102.964 261.975 108.145C266.29 113.359 269.548 118.562 270.235 123.123L272.212 122.826C271.438 117.685 267.859 112.118 263.516 106.87C259.146 101.589 253.867 96.4749 249.506 92.2477L248.114 93.6839ZM242.314 87.9241C243.872 89.5732 245.892 91.5302 248.114 93.6839L249.506 92.2477C247.272 90.0833 245.289 88.1605 243.768 86.5505L242.314 87.9241ZM237.975 58.5143C235.655 62.3428 235.141 67.9905 235.955 73.432C236.77 78.8886 238.957 84.3823 242.315 87.9253L243.766 86.5494C240.778 83.3963 238.71 78.3347 237.933 73.1363C237.153 67.9229 237.707 62.8162 239.685 59.5506L237.975 58.5143ZM243.389 27.3526C245.186 39.2762 242.946 50.2376 237.973 58.5176L239.687 59.5473C244.923 50.8311 247.226 39.3924 245.366 27.0545L243.389 27.3526ZM231.915 1.69874C237.657 7.55306 241.725 16.1416 243.388 27.3504L245.367 27.0567C243.656 15.5339 239.447 6.52134 233.343 0.298331L231.915 1.69874ZM177.058 1.99854H232.629V-0.00146484H177.058V1.99854ZM167.492 30.7444C165.456 17.031 169.777 7.81485 177.665 1.79341L176.451 0.203662C167.929 6.70907 163.382 16.6759 165.514 31.0381L167.492 30.7444ZM168.42 37.8971C168.136 35.5228 167.849 33.1189 167.492 30.7424L165.514 31.0402C165.866 33.3813 166.15 35.7547 166.434 38.1342L168.42 37.8971ZM176.574 63.4227C173.686 60.3308 171.936 56.4516 170.765 52.0714C169.59 47.6805 169.012 42.8586 168.42 37.8971L166.434 38.1342C167.023 43.0648 167.614 48.0342 168.832 52.5883C170.054 57.1531 171.922 61.3727 175.112 64.7879L176.574 63.4227Z" />
<path d="M408.529 202.789C404.757 210.609 405.191 216.608 408.801 223.713C413.059 232.25 409.845 242.981 408.37 253.514C405.227 275.618 387.808 280.195 368.192 276.918C350.151 273.932 339.832 259.527 342.974 237.423C344.442 226.928 349.077 218.211 355.393 212.429C360.696 207.611 362.451 195.142 358.841 188.037C354.536 179.532 342.813 162.047 344.288 151.514C347.43 129.41 356.669 118.343 376.7 117.53C394.404 122.121 421.407 153.145 418.264 175.25C416.789 185.783 414.838 197.045 408.529 202.789Z"  stroke="black" stroke-width="2" stroke-miterlimit="10"/>
<path fill-rule="evenodd" clip-rule="evenodd" d="M896.592 50.3649C888.846 47.4828 884.3 43.2129 881.682 34.5984C882.457 25.7844 876.031 15.8248 869.754 6.75499C868.312 4.66344 866.519 2.74495 864.447 0.998535L790.398 0.998535C783.604 12.9028 786.201 25.4602 796.657 40.637C801.659 47.8642 816.154 52.568 826.521 55.9325C829.165 56.7903 831.54 57.5611 833.421 58.2645C841.167 61.1465 848.591 71.8881 847.932 79.2889C847.179 88.1373 849.769 98.0416 856.025 107.077C869.161 126.143 887.153 129.877 903.01 119.477C920.273 108.192 930.341 92.4607 917.205 73.395C915.989 71.6379 914.818 69.8292 913.652 68.0294C908.8 60.539 904.047 53.2012 896.592 50.3649Z" />
<path d="M881.682 34.5984L880.686 34.5108L880.669 34.7038L880.725 34.8892L881.682 34.5984ZM896.592 50.3649L896.948 49.4302L896.941 49.4277L896.592 50.3649ZM869.754 6.75499L868.93 7.32235L868.931 7.32407L869.754 6.75499ZM864.447 0.998535L865.091 0.233791L864.812 -0.00146484H864.447V0.998535ZM790.398 0.998535V-0.00146484H789.817L789.529 0.5029L790.398 0.998535ZM796.657 40.637L795.834 41.2044L795.835 41.2061L796.657 40.637ZM826.521 55.9325L826.213 56.8837L826.521 55.9325ZM833.421 58.2645L833.071 59.2011L833.072 59.2017L833.421 58.2645ZM847.932 79.2889L846.936 79.2003L846.936 79.2041L847.932 79.2889ZM856.025 107.077L856.848 106.51L856.847 106.508L856.025 107.077ZM903.01 119.477L902.463 118.64L902.462 118.641L903.01 119.477ZM917.205 73.395L918.029 72.8276L918.027 72.8259L917.205 73.395ZM913.652 68.0294L914.491 67.4857L913.652 68.0294ZM880.725 34.8892C882.069 39.3098 883.928 42.6831 886.497 45.328C889.063 47.9705 892.279 49.8271 896.243 51.3021L896.941 49.4277C893.159 48.0206 890.229 46.3012 887.931 43.9347C885.636 41.5705 883.913 38.5015 882.639 34.3076L880.725 34.8892ZM868.931 7.32407C872.07 11.8592 875.205 16.5604 877.463 21.2094C879.724 25.867 881.05 30.3663 880.686 34.5108L882.678 34.686C883.089 30.0165 881.589 25.129 879.262 20.3359C876.93 15.5341 873.714 10.7207 870.576 6.18591L868.931 7.32407ZM863.802 1.76328C865.817 3.46076 867.547 5.31449 868.93 7.32235L870.577 6.18762C869.078 4.01238 867.222 2.02914 865.091 0.233791L863.802 1.76328ZM790.398 1.99854H864.447V-0.00146484H790.398V1.99854ZM797.481 40.0697C792.297 32.5452 789.118 25.7496 788.045 19.4233C786.977 13.1275 787.984 7.24619 791.266 1.49417L789.529 0.5029C786.018 6.65517 784.927 13.0048 786.073 19.7579C787.214 26.4806 790.562 33.5521 795.834 41.2044L797.481 40.0697ZM826.83 54.9813C821.637 53.296 815.474 51.2951 809.988 48.8216C804.464 46.3309 799.814 43.4404 797.48 40.068L795.835 41.2061C798.503 45.0609 803.601 48.1359 809.166 50.6449C814.77 53.1712 821.038 55.2044 826.213 56.8837L826.83 54.9813ZM833.771 57.3278C831.865 56.615 829.466 55.8368 826.83 54.9813L826.213 56.8837C828.863 57.7439 831.215 58.5072 833.071 59.2011L833.771 57.3278ZM848.928 79.3776C849.287 75.3494 847.459 70.5796 844.651 66.5139C841.835 62.4358 837.894 58.8619 833.77 57.3272L833.072 59.2017C836.693 60.5491 840.338 63.787 843.005 67.6504C845.682 71.5262 847.236 75.8276 846.936 79.2003L848.928 79.3776ZM856.847 106.508C850.711 97.6446 848.197 87.9685 848.929 79.3738L846.936 79.2041C846.161 88.306 848.828 98.4385 855.202 107.646L856.847 106.508ZM902.462 118.641C894.733 123.71 886.554 125.297 878.738 123.356C870.91 121.412 863.315 115.896 856.848 106.51L855.201 107.644C861.871 117.324 869.84 123.208 878.256 125.297C886.685 127.39 895.431 125.644 903.559 120.313L902.462 118.641ZM916.382 73.9624C922.788 83.2606 923.471 91.6129 920.576 98.9883C917.652 106.438 911.016 113.049 902.463 118.64L903.557 120.314C912.267 114.62 919.296 107.723 922.438 99.7191C925.609 91.6412 924.758 82.5951 918.029 72.8276L916.382 73.9624ZM912.812 68.573C913.977 70.3706 915.157 72.1922 916.383 73.9641L918.027 72.8259C916.821 71.0835 915.658 69.2878 914.491 67.4857L912.812 68.573ZM896.237 51.2995C899.757 52.6391 902.681 55.056 905.345 58.1093C908.016 61.1709 910.378 64.8147 912.812 68.573L914.491 67.4857C912.074 63.7536 909.634 59.9834 906.852 56.7945C904.062 53.5972 900.882 50.9271 896.948 49.4303L896.237 51.2995Z" />
<path fill-rule="evenodd" clip-rule="evenodd" d="M998.554 732.244V929.07C990.552 931.153 981.244 931.026 971.516 929.401C948.268 925.554 934.97 906.991 939.02 878.507C940.911 864.982 946.884 853.75 955.023 846.299C961.856 840.09 964.117 824.023 959.465 814.867C958.338 812.64 956.817 809.936 955.124 806.926C948.482 795.122 939.197 778.618 940.712 767.802C944.762 739.318 956.667 725.057 982.479 724.009C987.445 725.297 992.978 728.198 998.554 732.244Z" />
<path d="M998.554 732.244H999.554V731.734L999.141 731.434L998.554 732.244ZM998.554 929.07L998.806 930.037L999.554 929.843V929.07H998.554ZM971.516 929.401L971.681 928.415L971.679 928.414L971.516 929.401ZM939.02 878.507L940.01 878.647L940.01 878.645L939.02 878.507ZM955.023 846.299L954.35 845.559L954.348 845.561L955.023 846.299ZM959.465 814.867L958.573 815.318L958.574 815.32L959.465 814.867ZM955.124 806.926L955.995 806.436L955.124 806.926ZM940.712 767.802L939.722 767.662L939.722 767.664L940.712 767.802ZM982.479 724.009L982.731 723.041L982.587 723.004L982.439 723.01L982.479 724.009ZM997.554 732.244V929.07H999.554V732.244H997.554ZM998.302 928.102C990.483 930.137 981.327 930.026 971.681 928.415L971.351 930.387C981.16 932.026 990.621 932.168 998.806 930.037L998.302 928.102ZM971.679 928.414C960.291 926.53 951.416 921.061 945.866 912.642C940.308 904.213 938.01 892.713 940.01 878.647L938.03 878.366C935.98 892.785 938.305 904.808 944.196 913.743C950.094 922.689 959.493 928.425 971.352 930.388L971.679 928.414ZM940.01 878.645C941.873 865.328 947.747 854.316 955.698 847.036L954.348 845.561C946.021 853.185 939.95 864.636 938.029 878.368L940.01 878.645ZM955.695 847.039C959.356 843.713 961.687 837.879 962.541 831.828C963.397 825.761 962.804 819.231 960.357 814.414L958.574 815.32C960.778 819.658 961.38 825.74 960.561 831.548C959.739 837.372 957.524 842.676 954.35 845.559L955.695 847.039ZM960.357 814.415C959.218 812.165 957.685 809.439 955.995 806.436L954.252 807.416C955.949 810.433 957.458 813.116 958.573 815.318L960.357 814.415ZM955.995 806.436C952.67 800.525 948.716 793.496 945.779 786.602C942.826 779.669 940.986 773.059 941.703 767.941L939.722 767.664C938.924 773.362 940.969 780.412 943.939 787.385C946.927 794.398 950.936 801.523 954.252 807.416L955.995 806.436ZM941.702 767.943C943.714 753.791 947.658 743.338 954.169 736.296C960.651 729.284 969.8 725.525 982.52 725.008L982.439 723.01C969.346 723.542 959.636 727.436 952.7 734.938C945.793 742.41 941.76 753.329 939.722 767.662L941.702 767.943ZM982.228 724.977C987.031 726.223 992.449 729.051 997.967 733.053L999.141 731.434C993.506 727.346 987.859 724.371 982.731 723.041L982.228 724.977Z" />
<path fill-rule="evenodd" clip-rule="evenodd" d="M998.555 5.2959V90.0499C988.136 91.4516 977.349 91.9238 970.719 88.5182C945.155 75.3193 935.607 59.384 943.113 34.6644C951.694 21.8251 975.777 8.94075 998.555 5.2959Z" />
<path d="M998.555 5.2959H999.555V4.12316L998.397 4.30846L998.555 5.2959ZM998.555 90.0499L998.689 91.041L999.555 90.9244V90.0499H998.555ZM970.719 88.5182L970.261 89.4067L970.262 89.4077L970.719 88.5182ZM943.113 34.6644L942.282 34.1087L942.199 34.232L942.156 34.3738L943.113 34.6644ZM997.555 5.2959V90.0499H999.555V5.2959H997.555ZM998.422 89.0589C993.236 89.7565 987.995 90.2175 983.244 90.0872C978.477 89.9564 974.297 89.2317 971.176 87.6287L970.262 89.4077C973.772 91.2102 978.3 91.9523 983.189 92.0864C988.093 92.221 993.455 91.7451 998.689 91.041L998.422 89.0589ZM971.178 87.6296C958.477 81.072 949.904 73.9074 945.397 65.4416C940.91 57.0127 940.371 47.1362 944.07 34.9549L942.156 34.3738C938.349 46.9121 938.831 57.3632 943.632 66.3815C948.414 75.363 957.398 82.7655 970.261 89.4067L971.178 87.6296ZM943.944 35.22C948.104 28.9965 956.106 22.6611 965.98 17.4153C975.832 12.1807 987.443 8.08685 998.713 6.28334L998.397 4.30846C986.89 6.1498 975.07 10.3205 965.041 15.6491C955.033 20.9666 946.703 27.493 942.282 34.1087L943.944 35.22Z" />
<path fill-rule="evenodd" clip-rule="evenodd" d="M0 90.0503V5.29629C11.9847 3.37852 23.608 4.01864 32.4216 8.56908C44.6134 14.8316 57.4902 21.9817 61.804 32.0948C69.7192 40.0019 77.2025 42.0181 87.3797 40.639C97.2112 39.3801 106.718 44.6374 116.423 50.004C118.755 51.2935 121.098 52.5893 123.46 53.8026C149.024 67.0015 147.205 90.1391 134.898 112.618C123.613 133.305 101.708 139.752 76.1434 126.553C63.9953 120.315 55.3547 110.979 50.9972 100.841C47.3835 92.3444 32.9557 84.9217 22.7785 86.3008C20.305 86.632 17.2507 87.1786 13.8514 87.7869C9.61747 88.5446 4.84844 89.3981 0 90.0503Z" />
<path d="M0 90.0503H-1V91.1939L0.133321 91.0414L0 90.0503ZM0 5.29629L-0.158008 4.30885L-1 4.44359V5.29629H0ZM32.4216 8.56908L31.9628 9.45764L31.9646 9.45859L32.4216 8.56908ZM61.804 32.0948L60.8842 32.4872L60.9602 32.6654L61.0973 32.8023L61.804 32.0948ZM87.3797 40.639L87.2527 39.647L87.2454 39.648L87.3797 40.639ZM116.423 50.004L116.907 49.1289L116.423 50.004ZM123.46 53.8026L123.919 52.9141L123.917 52.9131L123.46 53.8026ZM134.898 112.618L134.021 112.138L134.02 112.139L134.898 112.618ZM76.1434 126.553L76.6022 125.664L76.6002 125.663L76.1434 126.553ZM50.9972 100.841L50.0769 101.232L50.0784 101.236L50.9972 100.841ZM22.7785 86.3008L22.9112 87.292L22.9128 87.2918L22.7785 86.3008ZM13.8514 87.7869L13.6752 86.8026H13.6752L13.8514 87.7869ZM1 90.0503V5.29629H-1V90.0503H1ZM0.158008 6.28373C12.0397 4.38244 23.4173 5.04559 31.9628 9.45763L32.8803 7.68052C23.7988 2.99168 11.9298 2.37459 -0.158008 4.30885L0.158008 6.28373ZM31.9646 9.45859C38.0608 12.59 44.2659 15.9126 49.4796 19.6973C54.701 23.4875 58.8307 27.673 60.8842 32.4872L62.7238 31.7025C60.4635 26.4036 55.9979 21.9575 50.6545 18.0787C45.3034 14.1944 38.9742 10.8108 32.8785 7.67957L31.9646 9.45859ZM61.0973 32.8023C65.1387 36.8396 69.1206 39.4222 73.4393 40.8018C77.755 42.1804 82.3288 42.3326 87.514 41.6299L87.2454 39.648C82.2534 40.3245 77.997 40.1581 74.0479 38.8966C70.1019 37.6361 66.3845 35.2571 62.5108 31.3874L61.0973 32.8023ZM87.5067 41.6309C92.2031 41.0295 96.8647 41.978 101.594 43.7719C106.334 45.5698 111.073 48.1882 115.939 50.8791L116.907 49.1289C112.068 46.4531 107.201 43.7597 102.303 41.9019C97.3954 40.0403 92.3879 38.9896 87.2527 39.6471L87.5067 41.6309ZM115.939 50.8791C118.268 52.1673 120.625 53.4707 123.003 54.6921L123.917 52.9131C121.571 51.708 119.241 50.4197 116.907 49.1289L115.939 50.8791ZM123.001 54.6912C135.53 61.1599 141.229 69.9775 142.387 79.8469C143.555 89.7952 140.129 100.981 134.021 112.138L135.775 113.098C141.974 101.776 145.611 90.1536 144.374 79.6137C143.127 68.9949 136.954 59.6442 123.919 52.9141L123.001 54.6912ZM134.02 112.139C128.492 122.273 120.407 128.853 110.63 131.323C100.841 133.797 89.2257 132.182 76.6022 125.664L75.6847 127.442C88.6253 134.123 100.745 135.884 111.12 133.262C121.509 130.637 130.019 123.65 135.776 113.097L134.02 112.139ZM76.6002 125.663C64.6384 119.521 56.173 110.35 51.9159 100.446L50.0784 101.236C54.5365 111.607 63.3522 121.109 75.6867 127.443L76.6002 125.663ZM51.9174 100.449C49.9818 95.8984 45.2404 91.7766 39.807 88.9784C34.3601 86.1733 27.999 84.5842 22.6442 85.3099L22.9128 87.2918C27.7352 86.6383 33.6766 88.0709 38.8913 90.7565C44.1196 93.449 48.3989 97.2868 50.0769 101.232L51.9174 100.449ZM22.6458 85.3097C20.1457 85.6444 17.0669 86.1956 13.6752 86.8026L14.0275 88.7713C17.4344 88.1616 20.4643 87.6196 22.9112 87.292L22.6458 85.3097ZM13.6752 86.8026C9.43851 87.5608 4.69031 88.4104 -0.133321 89.0593L0.133321 91.0414C5.00658 90.3859 9.79643 89.5285 14.0275 88.7713L13.6752 86.8026Z" />
<path d="M533.867 440.853C527.514 443.496 524.611 447.277 523.007 453.386C521.032 460.684 513.477 465.345 507.055 470.805C493.552 482.239 480.827 475.774 470.937 463.502C461.827 452.232 463.304 438.267 476.807 426.833C483.204 421.392 490.539 418.671 497.325 418.574C503.003 418.514 510.609 412.055 512.214 405.946C514.145 398.643 516.411 382.114 522.833 376.654C536.336 365.22 547.636 363.533 559.925 373.602C567.99 385.645 567.639 418.239 554.136 429.672C547.715 435.133 540.628 440.774 533.867 440.853Z"  stroke="black" stroke-width="2" stroke-miterlimit="10"/>
<path fill-rule="evenodd" clip-rule="evenodd" d="M532.439 999.554H466.303C467.321 993.452 469.563 987.997 472.719 983.56C476.893 977.737 475.994 965.178 470.974 958.988C469.756 957.481 468.162 955.677 466.387 953.669C459.427 945.793 449.696 934.782 449.085 926.329C447.521 904.057 454.233 891.299 473.648 886.303C491.921 887.079 524.83 911.75 526.394 934.022C527.16 944.63 527.615 956.051 522.651 962.991C520.603 971.427 522.285 977.202 527.305 983.392C530.812 987.782 531.944 993.46 532.439 999.554Z" />
<path d="M532.439 999.554V1000.55H533.523L533.435 999.473L532.439 999.554ZM466.303 999.554L465.317 999.389L465.123 1000.55H466.303V999.554ZM472.719 983.56L471.906 982.977L471.904 982.98L472.719 983.56ZM470.974 958.988L470.196 959.616L470.197 959.617L470.974 958.988ZM466.387 953.669L465.638 954.331L466.387 953.669ZM449.085 926.329L448.087 926.399L448.087 926.401L449.085 926.329ZM473.648 886.303L473.691 885.304L473.543 885.297L473.399 885.334L473.648 886.303ZM526.394 934.022L525.396 934.092L525.396 934.094L526.394 934.022ZM522.651 962.991L521.838 962.409L521.725 962.566L521.68 962.755L522.651 962.991ZM527.305 983.392L528.086 982.768L528.082 982.762L527.305 983.392ZM532.439 998.554H466.303V1000.55H532.439V998.554ZM467.29 999.718C468.284 993.755 470.472 988.445 473.534 984.139L471.904 982.98C468.654 987.55 466.358 993.149 465.317 999.389L467.29 999.718ZM473.532 984.143C475.811 980.964 476.63 976.097 476.292 971.34C475.952 966.569 474.43 961.662 471.75 958.358L470.197 959.617C472.538 962.504 473.975 966.971 474.297 971.482C474.619 976.009 473.802 980.333 471.906 982.977L473.532 984.143ZM471.751 958.359C470.517 956.832 468.906 955.009 467.136 953.007L465.638 954.331C467.418 956.345 468.995 958.131 470.196 959.616L471.751 958.359ZM467.136 953.007C463.65 949.062 459.514 944.381 456.172 939.64C452.806 934.864 450.366 930.191 450.082 926.257L448.087 926.401C448.414 930.92 451.145 935.98 454.537 940.792C457.954 945.638 462.164 950.401 465.638 954.331L467.136 953.007ZM450.082 926.259C449.307 915.214 450.599 906.694 454.36 900.347C458.099 894.037 464.371 889.723 473.898 887.271L473.399 885.334C463.511 887.879 456.719 892.443 452.639 899.328C448.581 906.177 447.299 915.172 448.087 926.399L450.082 926.259ZM473.606 887.302C477.985 887.488 483.328 889.116 488.94 891.853C494.54 894.584 500.347 898.39 505.642 902.865C516.283 911.858 524.643 923.365 525.396 934.092L527.391 933.952C526.581 922.406 517.705 910.442 506.933 901.338C501.521 896.764 495.576 892.865 489.817 890.056C484.071 887.253 478.448 885.506 473.691 885.304L473.606 887.302ZM525.396 934.094C525.78 939.398 526.079 944.837 525.675 949.801C525.27 954.774 524.167 959.153 521.838 962.409L523.465 963.572C526.1 959.888 527.251 955.087 527.668 949.963C528.086 944.83 527.774 939.254 527.391 933.95L525.396 934.094ZM521.68 962.755C520.627 967.088 520.518 970.807 521.356 974.269C522.193 977.728 523.957 980.851 526.528 984.022L528.082 982.762C525.633 979.743 524.046 976.883 523.3 973.799C522.554 970.717 522.627 967.33 523.623 963.226L521.68 962.755ZM526.524 984.016C529.835 988.161 530.951 993.582 531.442 999.635L533.435 999.473C532.937 993.339 531.789 987.403 528.086 982.768L526.524 984.016Z" />
<path d="M113.44 911.206C118.138 916.104 122.651 917.423 128.84 916.718C136.255 915.928 143.238 921.211 150.552 925.166C165.885 933.5 164.484 947.508 156.73 960.982C149.62 973.382 136.252 977.01 120.919 968.676C113.632 964.736 108.512 958.963 106 952.758C103.918 947.559 95.264 942.872 89.0742 943.577C81.6696 944.408 65.6635 948.224 58.3504 944.269C43.0171 935.935 37.4319 926.148 42.3028 911.254C50.4974 899.539 80.591 888.226 95.9243 896.56C103.237 900.516 110.954 905.018 113.44 911.206Z"  stroke="black" stroke-width="2" stroke-miterlimit="10"/>
<path fill-rule="evenodd" clip-rule="evenodd" d="M0 473.002V525.61C2.17453 523.952 4.29857 522.057 6.35645 519.981C18.1758 508.096 18.1345 491.854 3.95651 477.097L3.88093 477.018C2.66894 475.751 1.36647 474.389 0 473.002Z" />
<path d="M0 525.61H-1V527.631L0.606431 526.406L0 525.61ZM0 473.002L0.712174 472.3L-1 470.563V473.002H0ZM6.35645 519.981L5.64739 519.276L5.6463 519.277L6.35645 519.981ZM3.95651 477.097L3.23384 477.788L3.23539 477.79L3.95651 477.097ZM3.88093 477.018L3.15825 477.709L3.15826 477.709L3.88093 477.018ZM1 525.61V473.002H-1V525.61H1ZM0.606431 526.406C2.82282 524.715 4.98127 522.788 7.06659 520.685L5.6463 519.277C3.61587 521.325 1.52624 523.189 -0.606431 524.815L0.606431 526.406ZM7.0655 520.686C13.1435 514.575 16.2228 507.282 15.9046 499.575C15.587 491.882 11.8903 483.911 4.67764 476.404L3.23539 477.79C10.2008 485.04 13.6137 492.569 13.9063 499.657C14.1984 506.733 11.3886 513.503 5.64739 519.276L7.0655 520.686ZM4.67919 476.406L4.60361 476.327L3.15826 477.709L3.23384 477.788L4.67919 476.406ZM4.60361 476.327C3.39227 475.06 2.08475 473.693 0.712174 472.3L-0.712174 473.704C0.648201 475.085 1.94561 476.441 3.15825 477.709L4.60361 476.327Z" />
<path fill-rule="evenodd" clip-rule="evenodd" d="M0 650.657V578.565C10.6244 578.867 19.5976 582.608 22.0107 591.313C31.2317 608.865 16.3667 639.531 0 650.657Z" />
<path d="M0 650.657H-1V652.546L0.562204 651.484L0 650.657ZM0 578.565L0.0283781 577.566L-1 577.537V578.565H0ZM22.0107 591.313L21.047 591.58L21.0756 591.683L21.1254 591.778L22.0107 591.313ZM1 650.657V578.565H-1V650.657H1ZM-0.0283781 579.565C10.4807 579.863 18.8192 583.543 21.047 591.58L22.9743 591.046C20.376 581.672 10.7681 577.871 0.0283781 577.566L-0.0283781 579.565ZM21.1254 591.778C25.5315 600.165 24.2421 611.869 19.6754 623.016C15.1205 634.134 7.42014 644.404 -0.562204 649.83L0.562204 651.484C8.9466 645.785 16.8621 635.158 21.5261 623.774C26.1783 612.418 27.7108 600.013 22.8959 590.848L21.1254 591.778Z" />
<path fill-rule="evenodd" clip-rule="evenodd" d="M0 929.07V732.244C20.0452 746.784 40.6537 776.104 37.4856 798.389C35.5846 811.963 33.071 826.475 24.9412 833.877C20.0798 843.954 20.6389 851.684 25.2908 860.84C29.7153 869.709 27.88 880.417 26.0065 891.347C25.5563 893.974 25.1039 896.613 24.7356 899.242C22.2445 916.765 12.7913 925.74 0 929.07Z" />
<path d="M0 929.07H-1V930.363L0.251917 930.037L0 929.07ZM0 732.244L0.587177 731.434L-1 730.283V732.244H0ZM37.4856 798.389L36.4955 798.248L36.4952 798.25L37.4856 798.389ZM24.9412 833.877L24.2679 833.138L24.1247 833.268L24.0405 833.443L24.9412 833.877ZM25.2908 860.84L26.1857 860.394L26.1823 860.387L25.2908 860.84ZM26.0065 891.347L26.9921 891.516L26.0065 891.347ZM24.7356 899.242L25.7257 899.383L25.7259 899.381L24.7356 899.242ZM1 929.07V732.244H-1V929.07H1ZM-0.587177 733.053C9.32344 740.242 19.3977 751.107 26.5935 762.932C33.8037 774.78 38.0323 787.439 36.4955 798.248L38.4756 798.53C40.107 787.054 35.6154 773.91 28.302 761.892C20.9744 749.851 10.7218 738.786 0.587177 731.434L-0.587177 733.053ZM36.4952 798.25C35.5447 805.037 34.4495 811.99 32.5917 818.159C30.7312 824.337 28.1381 829.614 24.2679 833.138L25.6144 834.617C29.8742 830.738 32.6028 825.058 34.5067 818.736C36.4135 812.404 37.5254 805.314 38.4759 798.527L36.4952 798.25ZM24.0405 833.443C21.5583 838.588 20.4302 843.198 20.5489 847.73C20.6675 852.259 22.0292 856.628 24.3993 861.293L26.1823 860.387C23.9005 855.896 22.6567 851.822 22.5482 847.678C22.4397 843.537 23.4627 839.243 25.8418 834.312L24.0405 833.443ZM24.396 861.286C26.5095 865.523 27.1481 870.237 27.0108 875.294C26.8731 880.361 25.9602 885.698 25.0208 891.178L26.9921 891.516C27.9262 886.066 28.8678 880.584 29.01 875.348C29.1526 870.101 28.4967 865.026 26.1856 860.394L24.396 861.286ZM25.0208 891.178C24.5711 893.802 24.116 896.456 23.7453 899.104L25.7259 899.381C26.0917 896.769 26.5415 894.145 26.9921 891.516L25.0208 891.178ZM23.7456 899.102C22.5218 907.709 19.6006 914.141 15.4801 918.817C11.3604 923.493 5.98591 926.478 -0.251917 928.102L0.251917 930.037C6.80542 928.331 12.5531 925.164 16.9807 920.139C21.4074 915.115 24.4583 908.298 25.7257 899.383L23.7456 899.102Z" />
<path fill-rule="evenodd" clip-rule="evenodd" d="M863.207 1000H790.99C792.661 997.291 794.823 994.613 797.495 991.943C812.031 984.176 845.949 986.696 863.207 1000Z" />
<path d="M863.207 1000V1001H866.142L863.817 999.208L863.207 1000ZM790.99 1000L790.139 999.475L789.199 1001H790.99V1000ZM797.495 991.943L797.024 991.061L796.893 991.131L796.788 991.236L797.495 991.943ZM863.207 999H790.99V1001H863.207V999ZM791.841 1000.52C793.465 997.893 795.575 995.275 798.202 992.65L796.788 991.236C794.071 993.951 791.857 996.689 790.139 999.475L791.841 1000.52ZM797.966 992.825C804.977 989.079 816.853 987.751 829.225 989.064C841.575 990.375 854.166 994.293 862.596 1000.79L863.817 999.208C854.989 992.402 841.993 988.408 829.436 987.075C816.9 985.744 804.549 987.04 797.024 991.061L797.966 992.825Z" />
<path fill-rule="evenodd" clip-rule="evenodd" d="M686.004 13.6401C678.697 9.59896 665.578 10.9771 660.338 16.3522C654.091 22.7466 644.789 27.2382 633.705 28.3953C611.297 30.7819 589.867 18.6185 584.612 0.998535H740.633C737.856 11.6274 730.548 19.3669 716.015 20.9147C704.932 22.0718 694.785 18.413 686.004 13.6401Z" />
<path d="M660.338 16.3522L661.053 17.051L661.054 17.0502L660.338 16.3522ZM686.004 13.6401L685.52 14.5152L685.526 14.5187L686.004 13.6401ZM633.705 28.3953L633.602 27.4007L633.6 27.4009L633.705 28.3953ZM584.612 0.998535V-0.00146484H583.271L583.654 1.2843L584.612 0.998535ZM740.633 0.998535L741.601 1.25135L741.928 -0.00146484H740.633V0.998535ZM716.015 20.9147L716.119 21.9093L716.121 21.9091L716.015 20.9147ZM661.054 17.0502C663.444 14.5983 667.767 12.9587 672.5 12.4595C677.219 11.9619 682.101 12.6246 685.52 14.5152L686.488 12.765C682.599 10.6144 677.269 9.94559 672.291 10.4706C667.328 10.9939 662.471 12.731 659.622 15.6542L661.054 17.0502ZM633.809 29.3899C645.097 28.2115 654.625 23.6314 661.053 17.051L659.622 15.6534C653.558 21.8618 644.481 26.2649 633.602 27.4007L633.809 29.3899ZM583.654 1.2843C589.082 19.4868 611.061 31.8127 633.811 29.3897L633.6 27.4009C611.533 29.7511 590.651 17.7503 585.571 0.712771L583.654 1.2843ZM584.612 1.99854H740.633V-0.00146484H584.612V1.99854ZM716.121 21.9091C723.547 21.1181 729.212 18.7341 733.387 15.1179C737.561 11.5023 740.172 6.71819 741.601 1.25135L739.666 0.745718C738.317 5.9077 735.885 10.3078 732.078 13.6062C728.271 16.9039 723.015 19.1635 715.909 19.9203L716.121 21.9091ZM685.526 14.5187C694.391 19.3371 704.749 23.0962 716.119 21.9093L715.911 19.9201C705.114 21.0473 695.179 17.4888 686.481 12.7615L685.526 14.5187Z" />
<path fill-rule="evenodd" clip-rule="evenodd" d="M532.438 0.998535C532.62 3.24638 532.716 5.55075 532.813 7.86786C532.898 9.93393 532.985 12.0101 533.133 14.0654C534.697 36.337 518.625 44.4655 498.758 45.3751C480.492 46.2397 467.381 34.3191 465.817 12.0475C465.539 8.19877 465.72 4.4926 466.302 0.998535H532.438Z" />
<path d="M532.438 0.998535L533.435 0.917615L533.36 -0.00146484H532.438V0.998535ZM532.813 7.86786L531.813 7.90939V7.90939L532.813 7.86786ZM533.133 14.0654L534.131 13.9954L534.131 13.9933L533.133 14.0654ZM498.758 45.3751L498.712 44.3762L498.71 44.3762L498.758 45.3751ZM465.817 12.0475L466.815 11.9775L466.815 11.9752L465.817 12.0475ZM466.302 0.998535V-0.00146484H465.455L465.316 0.834026L466.302 0.998535ZM531.441 1.07946C531.622 3.30423 531.717 5.58864 531.813 7.90939L533.812 7.82633C533.715 5.51287 533.619 3.18853 533.435 0.917615L531.441 1.07946ZM531.813 7.90939C531.899 9.97283 531.986 12.0644 532.136 14.1375L534.131 13.9933C533.983 11.9559 533.898 9.89502 533.812 7.82632L531.813 7.90939ZM532.136 14.1354C532.897 24.987 529.375 32.2458 523.366 36.9432C517.295 41.6895 508.551 43.9257 498.712 44.3762L498.803 46.3741C508.831 45.915 518.057 43.632 524.598 38.5188C531.201 33.3567 534.932 25.4154 534.131 13.9954L532.136 14.1354ZM498.71 44.3762C489.816 44.7973 482.256 42.1086 476.725 36.6741C471.184 31.2301 467.584 22.9352 466.815 11.9775L464.82 12.1175C465.614 23.4313 469.351 32.2326 475.323 38.1007C481.305 43.9782 489.433 46.8176 498.805 46.374L498.71 44.3762ZM466.815 11.9752C466.542 8.20377 466.719 4.57713 467.289 1.16304L465.316 0.834026C464.72 4.40807 464.536 8.19376 464.82 12.1197L466.815 11.9752ZM466.302 1.99854H532.438V-0.00146484H466.302V1.99854Z" />
<path fill-rule="evenodd" clip-rule="evenodd" d="M371.876 999.192H316.237C320.451 984.131 331.479 976.981 345.238 978.885C359.007 980.77 370.204 986.63 371.876 999.192Z" />
<path d="M371.876 999.192V1000.19H373.018L372.868 999.061L371.876 999.192ZM316.237 999.192L315.274 998.923L314.919 1000.19H316.237V999.192ZM345.238 978.885L345.101 979.876L345.102 979.876L345.238 978.885ZM371.876 998.192H316.237V1000.19H371.876V998.192ZM345.375 977.895C338.285 976.913 331.829 978.26 326.592 981.852C321.359 985.442 317.431 991.213 315.274 998.923L317.2 999.462C319.257 992.111 322.95 986.776 327.724 983.501C332.494 980.229 338.432 978.953 345.101 979.876L345.375 977.895ZM372.868 999.061C371.991 992.472 368.599 987.627 363.662 984.212C358.756 980.819 352.344 978.849 345.374 977.895L345.102 979.876C351.901 980.807 357.972 982.708 362.525 985.857C367.047 988.985 370.09 993.351 370.885 999.324L372.868 999.061Z" />
<path fill-rule="evenodd" clip-rule="evenodd" d="M232.629 999.228H177.058C183.796 994.084 193.077 991.185 203.379 989.911C215.046 988.45 225.23 991.683 232.629 999.228Z" />
<path d="M232.629 999.228V1000.23H235.01L233.343 998.527L232.629 999.228ZM177.058 999.228L176.451 998.433L174.1 1000.23H177.058V999.228ZM203.379 989.911L203.502 990.903L203.504 990.903L203.379 989.911ZM232.629 998.228H177.058V1000.23H232.629V998.228ZM177.664 1000.02C184.205 995.029 193.289 992.166 203.502 990.903L203.257 988.918C192.864 990.204 183.386 993.139 176.451 998.433L177.664 1000.02ZM203.504 990.903C214.902 989.476 224.762 992.634 231.915 999.928L233.343 998.527C225.698 990.732 215.19 987.424 203.255 988.919L203.504 990.903Z" />
</g>
<defs>
<clipPath id="clip0_5152_5029">
<rect width="1000" height="1000" fill="white"/>
</clipPath>
</defs>
</svg>
