<svg width="1170" height="969" viewBox="0 0 1170 969" fill="none" xmlns="http://www.w3.org/2000/svg">
<path d="M728.432 719.03C722.1 700.91 723.891 680.167 733.21 663.418C741.54 647.733 756.395 636.193 773.084 630.716L803.534 628.672C814.501 630.845 824.828 635.258 835.059 639.653C887.225 662.771 934.636 696.193 975.736 735.856C1026.62 785.014 1067.14 844.721 1095.55 909.647C1116.35 957.107 1130.81 1007.27 1139.71 1058.32C1141.56 1068.34 1142.78 1078.47 1144.54 1088.5L1148.55 1148.29C1145.32 1170.81 1130.36 1191.23 1109.8 1200.69C1091.04 1209.58 1068.22 1209.24 1049.84 1199.5C1033.84 1191.35 1021.39 1176.54 1015.97 1159.33C1012.4 1148.71 1012.76 1137.37 1011.41 1126.36C1004.04 1052.48 983.554 978.996 945.023 915.249C922.674 878.186 894.38 844.739 861.38 816.868C832.749 793.168 801.061 772.547 766.069 759.793C748.574 752.371 734.527 737.143 728.432 719.03ZM758.348 703.927C760.893 716.733 771.003 727.405 783.419 730.977C812.862 742.37 840.152 758.929 865.399 777.882C927.157 824.327 975.008 888.529 1004.45 960.106C1027.4 1015.2 1040.1 1074.24 1045.16 1133.64C1045.65 1140.57 1045.97 1147.78 1049.28 1154.05C1055.95 1168.21 1072.67 1176.62 1087.91 1173.26C1104.41 1170.25 1117.11 1154.04 1116.19 1137.17C1110.34 1055.44 1091.28 973.987 1054.88 900.396C1025.34 840.403 984.257 786.076 933.919 742.236C895.913 709.512 853.234 681.614 806.336 663.747C793.434 658.367 777.518 661.49 767.853 671.684C759.566 679.922 755.917 692.467 758.348 703.927Z" fill="black"/>
<path d="M758.348 703.927C755.917 692.467 759.566 679.922 767.853 671.684C777.518 661.49 793.434 658.367 806.336 663.747C853.234 681.614 895.913 709.512 933.919 742.236C984.257 786.076 1025.34 840.403 1054.88 900.396C1091.28 973.987 1110.34 1055.44 1116.19 1137.17C1117.11 1154.04 1104.41 1170.25 1087.91 1173.26C1072.67 1176.62 1055.95 1168.21 1049.28 1154.05C1045.97 1147.78 1045.65 1140.57 1045.16 1133.64C1040.1 1074.24 1027.4 1015.2 1004.45 960.106C975.008 888.529 927.157 824.327 865.399 777.882C840.152 758.929 812.862 742.37 783.419 730.977C771.003 727.405 760.893 716.733 758.348 703.927Z" fill="#FFCA05"/>
<path d="M195.881 495.02C193.226 478.013 198.329 460.166 209.292 446.969C223.177 429.865 243.934 419.968 264.85 414.073C294.296 405.832 325.984 409.753 354.566 419.853C383.166 429.791 409.294 445.361 435.054 461.019C429.195 447.508 425.709 432.689 427.206 417.955C429.131 399.565 438.578 381.697 453.733 370.804C468.155 360.534 486.488 357.491 503.945 358.407C481.631 341.671 458.982 325.312 435.127 310.821C428.664 306.799 421.685 303.572 415.709 298.794C405.235 290.598 397.499 278.951 394.223 266.105C390.023 249.682 392.747 231.913 400.659 217.064C410.706 197.875 428.881 183.393 449.579 176.907C470.995 169.923 494.338 171.304 515.97 176.988L564.017 197.855C594.366 215.205 621.485 238.747 641.11 267.712C655.508 288.839 666.287 312.564 671.491 337.566C704.193 352.501 734.938 372.52 759.783 398.629C775.785 415.578 789.249 435.214 797.429 457.065C803.764 472.848 806.464 489.783 807.562 506.611C824.241 516.6 838.375 530.933 847.527 548.057C858.128 567.43 862.399 589.636 862.838 611.47C863.264 625.811 861.398 640.149 857.803 654.01L840.013 694.97C820.722 726.312 791.291 751.721 756.597 764.793C734.022 773.051 708.835 775.796 685.399 769.108C663.706 763.228 644.727 749.13 631.593 731.1C597.645 740.209 561.108 742.874 526.815 733.391C493.577 724.484 464.183 703.418 443.404 676.291C427.552 655.539 418.666 629.003 421.954 602.984C378.47 589.483 334.486 576.797 289.351 570.251C264.822 567.414 240.635 557.903 222.17 541.256C208.771 529.176 198.488 512.986 195.881 495.02ZM227.556 487.289C227.99 498.182 234.241 507.942 241.75 515.53C255.347 528.976 274.104 536.182 292.892 538.343C339.727 545.039 385.445 557.98 430.543 572.104C439.676 549.224 456.757 530.346 476.246 515.571C461.646 514.053 448.728 506.325 436.204 499.239C407.714 482.343 379.953 463.646 348.779 451.897C330.029 444.826 309.867 440.278 289.773 442.125C279.71 442.995 269.915 445.707 260.575 449.401C251.073 453.47 241.649 458.604 234.98 466.647C230.12 472.314 227.027 479.74 227.556 487.289ZM424.621 252.396C424.929 261.365 429.88 269.959 437.375 274.94C486.155 302.857 530.533 337.632 574.137 372.856C579.998 377.322 585.083 382.968 591.902 386.048C616.705 399.238 640.157 416.599 656.007 440.056C666.818 456.123 673.177 476.373 668.218 495.497C674.405 502.066 680.252 509.324 683.366 517.93C689.613 533.008 687.864 550.416 680.851 564.832C672.537 582.003 658.298 595.463 642.943 606.452C617.025 624.564 587.438 636.769 557.367 646.36C549.407 648.849 539.928 643.975 537.518 635.961C534.718 628.393 538.778 619.347 546.143 616.194C576.191 606.293 606.449 594.666 631.301 574.732C641.475 566.355 651.342 556.107 654.402 542.902C656.681 532.952 651.429 522.685 643.425 516.751C630.372 506.18 612.99 502.997 596.604 503.801C577.187 504.425 558.183 509.438 540.169 516.357C517.303 525.679 495.498 538.597 478.572 556.694C468.313 567.726 459.966 581.027 457.033 595.973C451.614 610.18 453.045 626.302 459.17 640.112C467.346 658.393 481.935 673.133 498.029 684.802C520.893 701.333 549.713 708.308 577.642 707.08C611.16 705.875 643.886 695.634 673.417 680.281C682.963 676.414 694.775 683.897 695.191 694.194C695.715 700.33 692.402 706.563 686.946 709.447C679.544 713.474 671.861 717.025 664.016 720.1C672.78 728.834 683.564 735.831 695.741 738.65C716.53 743.849 738.463 738.736 757.187 729.394C784.226 715.742 806.26 692.74 819.142 665.477C828.877 645.094 832.44 621.964 829.776 599.516C827.749 578.821 819.711 557.947 803.984 543.64C801.108 558.363 797.301 572.956 791.754 586.91C789.178 593.477 781.802 597.75 774.755 596.65C765.405 595.726 758.511 585.386 761.262 576.504C769.335 554.457 775.272 531.17 774.966 507.511C774.496 479.467 762.98 452.312 745.254 430.654C722.702 403.241 692.556 382.815 660.535 367.889C655.014 365.007 648.075 363.993 644.183 358.695C641.139 354.994 640.88 350.098 640.216 345.588C636.329 325.746 628.139 306.831 617.16 289.816C599.972 262.824 575.24 241.038 547.392 225.362C528.984 215.015 509.049 206.121 487.761 204.469C472.761 203.235 457.004 206.233 444.612 214.954C432.496 223.219 423.82 237.462 424.621 252.396ZM460.452 436.25C465.196 426.691 479.716 424.358 486.855 432.648C501.543 453.653 521.301 473.33 546.858 479.96C575.997 471.546 608.011 467.466 637.454 477.313C635.066 464.486 627.036 453.575 618.17 444.287C606.641 432.392 592.783 422.975 578.253 415.109C558.75 404.704 537.954 396.365 516.183 392.215C504.798 390.303 492.836 389.264 481.632 392.58C473.785 394.871 467.082 400.534 463.556 407.864C458.801 416.477 458.288 426.789 460.452 436.25ZM498.756 500.514C501.234 499.329 503.686 498.081 505.844 496.391C501.706 493.692 497.749 490.758 493.841 487.74C497.22 491.155 498.766 495.787 498.756 500.514Z" fill="black"/>
<path d="M227.556 487.289C227.027 479.74 230.12 472.314 234.98 466.647C241.649 458.604 251.073 453.47 260.575 449.401C269.915 445.707 279.71 442.995 289.773 442.125C309.867 440.278 330.029 444.826 348.779 451.897C379.953 463.646 407.714 482.343 436.204 499.239C448.728 506.325 461.646 514.053 476.246 515.571C456.757 530.346 439.676 549.224 430.543 572.104C385.445 557.98 339.727 545.039 292.892 538.343C274.104 536.182 255.347 528.976 241.75 515.53C234.241 507.942 227.99 498.182 227.556 487.289Z" fill="white"/>
<path d="M424.621 252.396C423.82 237.462 432.496 223.219 444.612 214.954C457.004 206.233 472.761 203.235 487.761 204.469C509.049 206.121 528.984 215.015 547.392 225.362C575.24 241.038 599.972 262.824 617.16 289.816C628.139 306.831 636.329 325.746 640.216 345.588C640.88 350.098 641.139 354.994 644.183 358.695C648.075 363.993 655.014 365.007 660.535 367.889C692.556 382.815 722.702 403.241 745.254 430.654C762.98 452.312 774.496 479.467 774.966 507.511C775.272 531.17 769.335 554.457 761.262 576.504C758.511 585.386 765.405 595.726 774.755 596.65C781.802 597.75 789.178 593.477 791.754 586.91C797.301 572.956 801.108 558.363 803.984 543.64C819.711 557.947 827.749 578.821 829.776 599.516C832.44 621.964 828.877 645.094 819.142 665.477C806.26 692.74 784.226 715.742 757.187 729.394C738.463 738.736 716.53 743.849 695.741 738.65C683.564 735.831 672.78 728.834 664.016 720.1C671.861 717.025 679.544 713.474 686.946 709.447C692.402 706.563 695.715 700.33 695.191 694.194C694.775 683.897 682.963 676.414 673.417 680.281C643.886 695.634 611.16 705.875 577.642 707.08C549.713 708.308 520.893 701.333 498.029 684.802C481.935 673.133 467.346 658.393 459.17 640.112C453.045 626.302 451.614 610.18 457.033 595.973C459.966 581.027 468.313 567.726 478.572 556.694C495.498 538.597 517.303 525.679 540.169 516.357C558.183 509.438 577.187 504.425 596.604 503.801C612.99 502.997 630.372 506.18 643.425 516.751C651.429 522.685 656.681 532.952 654.402 542.902C651.342 556.107 641.475 566.355 631.301 574.732C606.449 594.666 576.191 606.293 546.143 616.194C538.778 619.347 534.718 628.393 537.518 635.961C539.928 643.975 549.407 648.849 557.367 646.36C587.438 636.769 617.025 624.564 642.943 606.452C658.298 595.463 672.537 582.003 680.851 564.832C687.864 550.416 689.613 533.008 683.366 517.93C680.252 509.324 674.405 502.066 668.218 495.497C673.177 476.373 666.818 456.123 656.007 440.056C640.157 416.599 616.705 399.238 591.902 386.048C585.083 382.968 579.998 377.322 574.137 372.856C530.533 337.632 486.155 302.857 437.375 274.94C429.88 269.959 424.929 261.365 424.621 252.396Z" fill="white"/>
<path d="M460.452 436.25C458.288 426.789 458.801 416.477 463.556 407.864C467.082 400.534 473.785 394.871 481.632 392.58C492.836 389.264 504.798 390.303 516.183 392.215C537.954 396.365 558.75 404.704 578.253 415.109C592.783 422.975 606.641 432.392 618.17 444.287C627.036 453.575 635.066 464.486 637.454 477.313C608.011 467.466 575.997 471.546 546.858 479.96C521.301 473.33 501.543 453.653 486.855 432.648C479.716 424.358 465.196 426.691 460.452 436.25Z" fill="white"/>
<path d="M498.756 500.514C498.766 495.787 497.22 491.155 493.841 487.74C497.749 490.758 501.706 493.692 505.844 496.391C503.686 498.081 501.234 499.329 498.756 500.514Z" fill="white"/>
</svg>
