<svg width="18" height="20" viewBox="0 0 18 20" fill="none" xmlns="http://www.w3.org/2000/svg">
<path d="M17.0403 6.1398L6.69797 0.181001C6.27918 -0.0603335 5.75879 -0.0603335 5.34001 0.181001L0.67906 2.86727C0.260197 3.10869 0 3.55856 0 4.04139V15.9585C0 16.4414 0.260357 16.8914 0.679301 17.1328L5.34313 19.8191C5.55252 19.9398 5.78716 20.0001 6.02195 20C6.25675 20 6.49162 19.9396 6.70101 19.819L17.0404 13.8603C17.4593 13.6188 17.7195 13.169 17.7195 12.6861V7.314C17.7195 6.83117 17.4592 6.38122 17.0403 6.1398Z" fill="#37364C"/>
<path d="M10.6107 16.9681C10.9619 16.7657 10.9619 16.2597 10.6107 16.0573L6.96694 13.9574C6.61571 13.755 6.17673 14.008 6.17673 14.4128V18.6126C6.17673 19.0175 6.61571 19.2704 6.96694 19.068L10.6107 16.9681Z" fill="#FF85A6"/>
<path d="M5.45318 0.652559L1.2659 3.06574C0.991441 3.22396 0.991441 3.61944 1.2659 3.77766L5.16028 6.02206C5.69462 6.33003 6.35293 6.33003 6.88726 6.02206L10.7801 3.77854C11.0546 3.62032 11.0546 3.22484 10.7801 3.06662L6.59125 0.652479C6.23913 0.449541 5.80529 0.449621 5.45318 0.652559Z" fill="#F6B40E"/>
<path d="M0.4984 16.1064C0.4984 16.305 0.604498 16.4884 0.776708 16.5877L5.20831 19.1416C5.50272 19.3113 5.87078 19.0992 5.87078 18.7598V7.70772C5.87078 7.13506 5.56475 6.60592 5.06791 6.31963L1.15214 4.06291C0.86157 3.89549 0.4984 4.10475 0.4984 4.43967V16.1064Z" fill="#74ACDF"/>
<path d="M17.2306 12.0705V7.08507C17.2306 6.89781 17.1305 6.72479 16.9681 6.63112L12.518 4.06651C12.2248 3.89757 11.8584 4.10875 11.8584 4.44671V9.57968C11.8584 9.76694 11.9584 9.93997 12.1209 10.0336L16.443 12.5246C16.793 12.7263 17.2306 12.474 17.2306 12.0705Z" fill="white"/>
<path d="M6.95459 12.5301L11.2448 10.0576C11.437 9.94681 11.5554 9.74212 11.5554 9.52062V4.56307C11.5554 4.17175 11.131 3.92714 10.7915 4.1228L7.12865 6.23377C6.53958 6.57326 6.17673 7.20063 6.17673 7.8796V12.0818C6.17673 12.4802 6.60889 12.7294 6.95459 12.5301Z" fill="white"/>
<path d="M6.88098 13.5587L11.4253 16.1777C11.5975 16.277 11.8098 16.277 11.982 16.1777L16.5677 13.5349C16.7951 13.4038 16.7951 13.0764 16.5677 12.9454L11.9821 10.3027C11.8099 10.2034 11.5976 10.2034 11.4254 10.3027L6.88098 12.9217C6.63528 13.0632 6.63528 13.4171 6.88098 13.5587Z" fill="white"/>
<path d="M13.6535 11.0224L11.7176 7.66711L9.7817 11.0224L11.7176 12.2541L13.6535 11.0224ZM11.8594 9.89688V8.47407L13.0861 10.5977L11.8594 9.89688ZM13.1996 10.9799L11.8594 11.8293V10.2224L13.1996 10.9799ZM11.5757 9.89688L10.3559 10.5906L11.5757 8.47407V9.89688ZM11.5757 10.2224V11.8293L10.2354 10.9799L11.5757 10.2224Z" fill="#37364C"/>
<path d="M11.7175 12.6505L9.78161 11.4187L11.7175 14.2431L13.6534 11.4187L11.7175 12.6505ZM11.5686 12.8911L11.5757 12.8982V13.5424L10.7956 12.3956L11.5686 12.8911ZM12.6465 12.3956L11.8593 13.5424V12.8982L11.8664 12.8911L12.6465 12.3956Z" fill="#37364C"/>
</svg>
