<svg width="177" height="198" viewBox="0 0 177 198" fill="none" xmlns="http://www.w3.org/2000/svg">
<path d="M175.444 73.2354C175.595 78.8042 175.704 84.3643 175.854 89.9365C175.995 95.1725 176.552 100.638 176.414 105.921C176.337 108.832 175.081 109.456 172.907 110.908C156.076 122.148 134.181 125.904 114.263 123.393C93.4559 120.769 74.8649 109.518 53.7723 108.502C39.4977 107.815 25.3015 110.422 12.4283 116.52C10.8466 117.269 7.72523 119.36 6.4246 119.754C5.00774 120.184 3.44677 119.674 3.26003 118.07C2.93858 115.309 3.16529 112.231 3.06339 109.447C2.77569 101.589 2.46522 93.6985 2.21484 85.8338C6.51433 83.0945 11.1645 80.8502 15.9645 79.111C22.5083 76.7399 29.5561 75.1902 36.3542 74.5135C44.5922 73.6936 52.8129 74.0547 61.0078 75.1251C60.8184 76.264 61.2062 77.1958 62.426 77.3987C63.6601 77.604 64.6266 76.2997 65.6272 76.175C67.2401 75.974 70.2619 77.2706 71.9264 77.6448C71.249 78.4123 70.66 79.2497 69.8214 79.8425C69.1905 81.4305 67.2293 81.9905 67.8241 83.9541C68.007 84.558 68.765 85.4903 69.4651 85.3802C70.0745 85.2844 74.7763 80.2286 75.706 79.3246C77.1335 79.3675 78.5881 79.617 79.9055 80.1645C79.2197 82.1172 77.2374 86.5818 76.9795 88.2611C76.6237 90.5778 78.2847 91.4754 80.0015 90.0244L83.895 81.4244L87.0446 82.2643C87.0938 84.3941 86.6406 90.6275 87.5801 92.1225C88.389 93.4095 89.9649 92.6284 90.5712 91.5645C90.6701 88.8866 90.5889 86.2013 90.6142 83.5241L95.4436 84.784C95.8485 85.802 97.2417 89.5165 97.8553 90.0364C98.7193 90.7682 100.246 90.5458 100.598 89.4149C101.001 88.1227 100.424 87.1931 100.063 86.0438C115.025 89.8452 131.026 90.9453 146.093 87.034C152.7 85.3188 159.509 82.5893 165.506 79.3608C168.945 77.5097 172.124 75.2688 175.444 73.2354Z" fill="#3F96D7"/>
<path d="M174.392 36.2805C169.77 39.1963 165.079 42.1131 160.045 44.2959C147.632 49.6794 132.075 51.6228 118.677 49.6858C117.098 49.4575 113.729 48.4243 112.45 48.459C113.596 47.2439 115.6 47.1822 116.619 45.8042C118.058 43.8606 116.073 42.4796 114.123 43.0989L105.406 47.4114C104.938 47.3984 103.58 45.1624 103.004 44.7845L110.451 37.3267C110.968 35.4942 109.343 34.0574 107.63 35.1351L99.9583 42.5441C99.1683 41.9373 98.3123 41.3791 97.3455 41.0938C97.2641 40.8742 97.371 40.6823 97.431 40.4792C98.2067 37.8532 100.583 34.1452 101.061 31.7176C101.517 29.3969 99.1949 27.9885 97.7845 30.1223L93.7313 39.6055L90.8225 39.4301V28.1965C90.8225 28.077 90.3483 27.4759 90.1885 27.3622C89.1578 26.6288 88.3915 27.3778 87.51 27.9263L87.2418 39.4198L84.3233 39.8408C83.0603 36.4445 81.4992 33.099 80.0001 29.78C78.6994 28.4406 76.7723 29.1417 76.7973 31.0857L80.5253 41.3142C80.4011 41.3662 80.1787 41.2822 80.1138 41.3199L75.7043 39.8501C74.53 38.5595 72.6246 36.2846 71.4028 35.2276C69.3254 33.4305 66.8325 35.216 68.5652 37.7504C66.1944 37.3347 63.8762 36.7081 61.4961 36.3155C43.7485 33.3876 23.936 35.7825 7.59716 43.2393L0.953332 46.5693C0.697142 38.0451 0.533907 29.5598 0.332059 21.0487C0.269549 18.4124 -0.210726 15.5126 0.108646 12.8636C0.274295 11.4896 1.14924 10.9805 2.2094 10.3449C6.16702 7.9721 14.685 4.48275 19.0975 3.94441C19.4367 3.90303 21.4304 2.99167 22.573 2.77494C36.7309 0.0892559 50.0317 -1.21215 65.0344 1.49082C78.678 3.94888 91.675 9.85467 105.308 12.8706C125.209 17.273 144.194 15.8946 162.709 7.2743C164.996 6.20937 168.631 3.73078 170.668 3.05563C172.324 2.5068 173.359 3.20154 173.552 4.88949C173.956 8.41916 173.638 12.8226 173.753 16.4464C173.962 23.0102 174.196 29.7158 174.392 36.2805Z" fill="#3F96D7"/>
<path d="M68.5669 37.7508C69.9923 39.8357 72.7332 41.8716 74.3435 43.8377C74.5992 44.1498 74.8373 44.4798 75.0483 44.8243L73.1643 47.1842C72.9917 47.3041 72.421 46.9269 72.2059 46.8144C70.3731 45.8563 65.4915 42.3378 64.0093 41.9951C62.1844 41.5732 60.5781 42.9714 61.552 44.6622C62.4178 46.1653 69.1612 49.0751 70.7881 50.5539L69.5945 53.8941C69.2484 54.1949 61.7013 52.9325 60.4809 52.8709C59.0381 52.7982 57.2102 52.5097 57.2095 54.4437C57.2091 55.4886 57.7044 55.8987 58.6492 56.1725C61.0574 56.8702 65.0254 57.2539 67.6496 57.6716C68.0241 57.7313 68.4037 57.6967 68.7782 57.6973L68.7555 61.4571L58.438 63.4225C56.5624 64.4997 56.8218 66.9494 59.2231 66.9535L69.4045 65.2557L70.4677 68.4943C67.921 70.3995 64.549 71.8623 62.0718 73.7756C61.6318 74.1153 61.1002 74.5706 61.0078 75.1263C52.813 74.0559 44.5923 73.6947 36.3543 74.5147C29.5562 75.1913 22.5084 76.741 15.9646 79.1121C11.1646 80.8514 6.51441 83.0956 2.21493 85.835C1.79754 72.7249 1.348 59.6436 0.955078 46.5697L7.59891 43.2398C23.9378 35.7829 43.7503 33.3881 61.4979 36.3159C63.878 36.7085 66.1961 37.3351 68.5669 37.7508Z" fill="#FDFDFD"/>
<path d="M174.393 36.2808C174.761 48.5957 175.11 60.9192 175.443 73.2363C172.123 75.2697 168.944 77.5106 165.505 79.3617C159.508 82.5903 152.699 85.3198 146.092 87.0349C131.025 90.9463 115.024 89.8462 100.062 86.0448C99.2914 83.5936 98.1907 81.2332 97.3809 78.7928C98.0919 78.4168 99.9525 76.8907 100.582 77.4382C102.137 79.3755 103.526 81.5031 105.11 83.4113C106.094 84.5953 107.621 86.8601 109.31 85.3184C109.929 84.7529 110.165 83.9777 109.691 83.2387L103.236 74.7672C103.068 74.14 104.93 72.9005 105.221 72.1898L113.498 77.7523C115.524 78.932 117.551 76.3471 115.813 74.8087L107.228 69.0062L108.266 65.6931C108.725 65.2931 118.226 68.0672 119.643 67.7199C121.039 67.4049 120.99 65.1236 119.783 64.5394L108.88 61.4757C108.801 61.2634 109.091 61.0365 109.091 60.9528V57.9082C112.597 57.5122 116.239 57.6136 119.669 56.8323C121.179 55.8267 120.982 53.7481 119.044 53.516L108.489 54.0996L107.425 50.7851C108.732 50.5605 111.33 48.4898 112.451 48.4593C113.729 48.4246 117.099 49.4577 118.678 49.6861C132.075 51.6231 147.632 49.6796 160.046 44.2961C165.08 42.1134 169.771 39.1966 174.393 36.2808Z" fill="#FDFDFD"/>
<path d="M80.1159 41.3201C80.1809 41.2824 80.4033 41.3664 80.5274 41.3144L76.7995 31.0858C76.7744 29.1419 78.7015 28.4407 80.0022 29.7802C81.5013 33.0992 83.0625 36.4446 84.3254 39.841L87.2439 39.42L87.5122 27.9264C88.3937 27.378 89.16 26.629 90.1907 27.3624C90.3505 27.476 90.8247 28.0772 90.8247 28.1967V39.4303L93.7334 39.6056L97.7866 30.1224C99.1971 27.9886 101.519 29.3971 101.063 31.7177C100.585 34.1453 98.2089 37.8534 97.4332 40.4794C97.3732 40.6824 97.2662 40.8744 97.3476 41.094C98.3144 41.3793 99.1704 41.9375 99.9605 42.5443L107.632 35.1353C109.345 34.0576 110.97 35.4943 110.453 37.3269L103.006 44.7847C103.582 45.1626 104.94 47.3986 105.408 47.4116L114.125 43.0991C116.075 42.4797 118.06 43.8608 116.621 45.8043C115.602 47.1823 113.598 47.2441 112.452 48.4592C111.331 48.4896 108.734 50.5604 107.426 50.785L108.49 54.0995L119.045 53.5159C120.984 53.7481 121.181 55.8266 119.67 56.8322C116.24 57.6135 112.599 57.5121 109.092 57.9081V60.9527C109.092 61.0364 108.802 61.2634 108.881 61.4756L119.784 64.5393C120.991 65.1235 121.041 67.4048 119.645 67.7198C118.228 68.0671 108.726 65.293 108.267 65.693L107.23 69.0061L115.814 74.8086C117.552 76.347 115.526 78.9319 113.5 77.7522L105.223 72.1897C104.932 72.9004 103.069 74.1399 103.237 74.7671L109.692 83.2386C110.166 83.9776 109.93 84.7528 109.311 85.3183C107.622 86.86 106.095 84.5952 105.112 83.4112C103.527 81.503 102.139 79.3754 100.583 77.4381C99.9539 76.8907 98.0933 78.4167 97.3822 78.7928C98.1921 81.2331 99.2927 83.5935 100.063 86.0447C100.425 87.194 101.002 88.1236 100.599 89.4157C100.246 90.5467 98.7197 90.7691 97.8557 90.0372C97.2421 89.5174 95.8489 85.8029 95.444 84.7848C95.1717 84.1003 94.0139 80.3045 93.6285 80.1811L90.6166 80.5874C90.6048 81.5641 90.6238 82.5482 90.6146 83.525C90.5893 86.2022 90.6705 88.8875 90.5716 91.5654C89.9653 92.6292 88.3894 93.4104 87.5805 92.1234C86.641 90.6284 87.0943 84.395 87.045 82.2651C87.0321 81.7076 87.0602 81.1445 87.0431 80.5873L84.1066 80.1647L83.8954 81.4252L80.002 90.0253C78.2852 91.4762 76.6241 90.5787 76.9799 88.262C77.2378 86.5826 79.2201 82.1181 79.9059 80.1654C80.0019 79.8919 80.7314 79.3463 80.4476 78.9021C80.3616 78.7675 77.8581 77.2641 77.6989 77.2759C77.5854 77.2843 76.1862 78.5621 75.9779 78.7651C75.8089 78.9299 75.7851 79.2489 75.7064 79.3255C74.7767 80.2294 70.0749 85.2853 69.4655 85.3811C68.7654 85.4912 68.0074 84.5588 67.8245 83.9549C67.2297 81.9914 69.1909 81.4314 69.8218 79.8434C70.6604 79.2505 71.2494 78.4132 71.9268 77.6457C72.8262 76.6268 73.7694 75.6377 74.6532 74.6011L72.4241 72.2128L65.6276 76.1759C64.627 76.3006 63.6604 77.6049 62.4264 77.3996C61.2066 77.1967 60.8188 76.2649 61.0081 75.126C61.1005 74.5704 61.6322 74.1151 62.0721 73.7753C64.5493 71.8621 67.9213 70.3992 70.4681 68.494L69.4048 65.2555L59.2234 66.9533C56.8222 66.9492 56.5627 64.4995 58.4383 63.4222L68.7558 61.4569L68.7785 57.697C68.404 57.6964 68.0244 57.731 67.6499 57.6714C65.0258 57.2536 61.0577 56.8699 58.6495 56.1722C57.7048 55.8985 57.2094 55.4884 57.2098 54.4435C57.2105 52.5095 59.0384 52.7979 60.4812 52.8707C61.7016 52.9322 69.2487 54.1946 69.5949 53.8939L70.7884 50.5537C69.1615 49.0748 62.4181 46.165 61.5523 44.6619C60.5784 42.9711 62.1847 41.573 64.0096 41.9948C65.4918 42.3375 70.3734 45.8561 72.2062 46.8142C72.4213 46.9266 72.9921 47.3039 73.1646 47.1839L75.0486 44.824C74.8376 44.4796 74.5995 44.1496 74.3438 43.8374C72.7335 41.8714 69.9927 39.8354 68.5672 37.7505C66.8345 35.2162 69.3274 33.4307 71.4048 35.2278C72.6266 36.2847 74.532 38.5596 75.7064 39.8503C76.4322 40.6479 77.2307 41.6603 77.8271 42.5646C78.0629 42.7293 79.7596 41.5272 80.1159 41.3201ZM87.2117 43.0615C73.8656 44.3652 67.8551 60.492 75.9222 70.8158C85.4084 82.9557 104.578 76.1337 105.532 61.1715C106.219 50.3851 98.0886 41.9989 87.2117 43.0615Z" fill="black"/>
<path d="M71.9262 77.6459C70.2617 77.2716 67.2399 75.975 65.627 76.176L72.4235 72.2129L74.6526 74.6012C73.7687 75.6378 72.8255 76.627 71.9262 77.6459Z" fill="#FDFDFD"/>
<path d="M95.4447 84.7844L90.6153 83.5245C90.6245 82.5477 90.6055 81.5636 90.6172 80.5869L93.6292 80.1807C94.0146 80.3041 95.1725 84.0999 95.4447 84.7844Z" fill="#FDFDFD"/>
<path d="M79.9046 80.1649C78.5872 79.6174 77.1326 79.3679 75.7051 79.325C75.7838 79.2485 75.8076 78.9295 75.9766 78.7647C76.1849 78.5616 77.5841 77.2839 77.6976 77.2755C77.8568 77.2637 80.3603 78.767 80.4463 78.9016C80.7301 79.3459 80.0006 79.8915 79.9046 80.1649Z" fill="#FDFDFD"/>
<path d="M83.8945 81.4246L84.1057 80.1641L87.0422 80.5866C87.0593 81.1439 87.0313 81.7069 87.0442 82.2645L83.8945 81.4246Z" fill="#FDFDFD"/>
<path d="M80.1145 41.3199C79.7582 41.527 78.0617 42.7291 77.8258 42.5644C77.2295 41.6602 76.4309 40.6477 75.7051 39.8501L80.1145 41.3199Z" fill="#FDFDFD"/>
<path d="M87.2115 43.0611C98.0885 41.9986 106.219 50.3848 105.532 61.1711C104.578 76.1334 85.4082 82.9554 75.922 70.8155C67.855 60.4917 73.8654 44.3649 87.2115 43.0611ZM80.9092 52.0874C79.4655 52.2563 76.3835 53.1642 77.2862 55.1735C77.9354 56.6186 79.2725 55.2982 80.0659 55.0231C80.8668 54.7455 81.9983 54.5912 82.7923 54.9166C83.5068 55.2093 84.4343 56.8558 85.5862 55.7137C86.8212 54.4892 84.0513 52.3128 82.9033 52.0762C82.2711 51.9459 81.5482 52.0127 80.9092 52.0874ZM92.7756 53.5574C92.2705 54.1747 92.3023 55.6245 93.2478 55.8049C94.6588 56.0742 95.3858 54.369 97.6977 55.1289C98.5197 55.3991 99.4945 56.7135 100.494 55.7142C102.091 54.1181 98.7495 52.442 97.4206 52.2571C96.1827 52.0849 93.5886 52.5636 92.7756 53.5574ZM91.5594 63.7871C91.0015 63.6309 88.9727 63.7871 88.1998 63.7871C88.1247 63.7871 87.8007 64.3331 87.8839 63.6831C88.1116 61.9036 89.0672 59.8202 89.3759 58.0122C89.295 56.6494 87.2397 56.2934 86.7268 57.6947C86.2524 58.9908 85.1278 63.4546 84.9898 64.791C84.9194 65.4723 84.9997 65.9809 85.5799 66.4051C86.3864 66.9946 86.7656 66.5174 87.5617 66.5068C88.9944 66.4876 92.3562 67.1585 92.4515 65.1151C92.4685 64.7521 91.8296 63.8627 91.5594 63.7871ZM78.5944 58.3693C76.7925 58.5262 77.0185 60.8721 78.6154 61.8228C80.4434 62.9111 82.9387 62.8587 84.5291 61.3761C85.4465 60.5209 85.8677 58.859 84.3693 58.5691C83.2927 58.3608 83.0098 60.0231 81.5034 59.989C79.7646 59.9497 79.7687 58.267 78.5944 58.3693ZM99.7831 61.6169C100.75 60.6234 100.857 58.8853 99.2326 58.6213C98.1161 58.4398 97.9906 60.0374 97.01 60.217C94.8318 60.616 94.528 58.4768 93.6502 58.3254C92.2755 58.0883 91.8249 59.3415 92.3461 60.4823C93.5907 63.2067 97.7489 63.7061 99.7831 61.6169ZM83.2018 66.9758C82.0318 67.3347 82.5172 69.0185 83.0544 69.7723C83.3594 70.2004 84.6748 70.984 85.1785 71.2178C88.1765 72.609 91.5261 72.6236 93.978 70.1951C94.6327 69.5467 95.2908 68.663 94.3862 67.8887C93.0958 66.7842 92.4391 68.164 91.6508 68.7079C90.0253 69.8293 87.5321 69.6413 85.9252 68.5814C84.9934 67.9668 84.51 66.5745 83.2018 66.9758Z" fill="#FFCC00"/>
<path d="M91.5578 63.7861C91.828 63.8618 92.4669 64.7512 92.45 65.1142C92.3546 67.1576 88.9928 66.4868 87.5601 66.5059C86.764 66.5165 86.3848 66.9937 85.5783 66.4042C84.9981 65.98 84.9178 65.4714 84.9882 64.7902C85.1262 63.4537 86.2509 58.9899 86.7253 57.6938C87.2381 56.2925 89.2934 56.6485 89.3743 58.0113C89.0656 59.8193 88.11 61.9027 87.8823 63.6822C87.7991 64.3322 88.1231 63.7862 88.1982 63.7862C88.9711 63.7862 91 63.63 91.5578 63.7861Z" fill="black"/>
<path d="M83.2005 66.9767C84.5086 66.5754 84.992 67.9678 85.9238 68.5824C87.5308 69.6422 90.024 69.8303 91.6494 68.7088C92.4377 68.1649 93.0945 66.7852 94.3849 67.8897C95.2894 68.664 94.6313 69.5477 93.9767 70.1961C91.5248 72.6245 88.1752 72.61 85.1772 71.2188C84.6735 70.985 83.3581 70.2013 83.053 69.7733C82.5158 69.0194 82.0305 67.3356 83.2005 66.9767Z" fill="black"/>
<path d="M99.7824 61.6166C97.7481 63.7058 93.59 63.2064 92.3453 60.482C91.8242 59.3412 92.2747 58.0879 93.6495 58.3251C94.5273 58.4765 94.8311 60.6157 97.0093 60.2167C97.9898 60.037 98.1153 58.4395 99.2318 58.621C100.856 58.885 100.75 60.6231 99.7824 61.6166Z" fill="black"/>
<path d="M80.9088 52.0871C81.5478 52.0124 82.2707 51.9456 82.9029 52.0759C84.0509 52.3126 86.8207 54.4889 85.5858 55.7134C84.4339 56.8555 83.5064 55.209 82.7919 54.9163C81.9979 54.5909 80.8663 54.7452 80.0655 55.0228C79.272 55.2979 77.935 56.6183 77.2857 55.1732C76.3831 53.1639 79.4651 52.256 80.9088 52.0871Z" fill="black"/>
<path d="M78.5958 58.3692C79.7701 58.267 79.766 59.9496 81.5048 59.9889C83.0113 60.023 83.2941 58.3607 84.3708 58.569C85.8691 58.8589 85.4479 60.5209 84.5305 61.3761C82.9401 62.8587 80.4448 62.911 78.6169 61.8228C77.0199 60.872 76.7939 58.5262 78.5958 58.3692Z" fill="black"/>
<path d="M92.7737 53.5579C93.5868 52.5641 96.1809 52.0854 97.4188 52.2576C98.7476 52.4425 102.09 54.1186 100.493 55.7147C99.4927 56.714 98.5179 55.3996 97.6959 55.1294C95.3839 54.3695 94.657 56.0747 93.2459 55.8054C92.3005 55.625 92.2687 54.1752 92.7737 53.5579Z" fill="black"/>
<path d="M32.7361 154.371C15.4649 154.371 1.4668 163.327 1.4668 174.376C1.4668 185.425 15.4671 195.247 32.7361 195.247C50.0052 195.247 64.0055 185.423 64.0055 174.376C64.0055 163.33 50.0052 154.371 32.7361 154.371Z" fill="#00BCFF"/>
<path d="M22.5645 168.193C22.5489 168.224 22.2427 168.539 22.4424 168.794C22.9262 169.411 24.4196 169.766 25.9308 169.427C26.8296 169.225 27.9835 168.308 29.0997 167.423C30.3091 166.462 31.5096 165.499 32.7168 165.117C33.995 164.711 34.8139 164.884 35.3554 165.048C35.9479 165.226 36.6469 165.617 37.7609 166.451C39.8579 168.027 48.286 175.385 49.744 176.657C50.9157 176.126 56.5056 173.869 63.589 172.307C62.9721 168.53 60.7019 164.929 57.2157 162.102C52.3581 164.141 46.027 165.364 40.2218 162.53C40.193 162.519 37.0507 161.032 33.9529 161.105C29.3482 161.212 27.3533 163.204 25.2429 165.315L22.5689 168.197L22.5645 168.193Z" fill="white"/>
<path d="M49.3944 177.456C49.2946 177.367 39.4817 168.782 37.2582 167.111C35.9711 166.145 35.2565 165.899 34.5043 165.803C34.1137 165.752 33.5723 165.826 33.195 165.93C32.1609 166.212 30.8095 167.115 29.6089 168.067C28.3662 169.057 27.1946 169.989 26.105 170.233C24.7158 170.543 23.0182 170.177 22.2437 169.654C21.9309 169.443 21.7089 169.199 21.6024 168.952C21.3162 168.289 21.8443 167.759 21.9309 167.67L24.6382 164.741C24.9533 164.428 25.2706 164.113 25.5946 163.802C24.7203 163.915 23.9125 164.139 23.1269 164.357C22.1461 164.632 21.2008 164.894 20.2466 164.894C19.8471 164.894 17.7123 164.543 17.3062 164.434C14.8541 163.764 12.078 163.109 8.86479 161.609C5.01465 164.474 2.50707 167.994 1.76367 171.942C2.31623 172.088 3.7653 172.419 4.14033 172.501C12.8525 174.438 15.5665 176.433 16.0591 176.85C16.5917 176.258 17.3617 175.883 18.2183 175.883C19.1836 175.883 20.0513 176.369 20.5794 177.116C21.0787 176.721 21.7666 176.384 22.6565 176.386C23.0604 176.386 23.4798 176.462 23.9036 176.604C24.8867 176.941 25.3949 177.596 25.6567 178.188C25.9851 178.04 26.3912 177.929 26.8683 177.931C27.3388 177.931 27.827 178.037 28.3174 178.25C29.9241 178.941 30.1726 180.518 30.0284 181.708C30.1437 181.694 30.2591 181.69 30.3745 181.69C32.2785 181.69 33.8274 183.239 33.8274 185.145C33.8274 185.735 33.6765 186.29 33.4147 186.776C33.934 187.067 35.2543 187.726 36.4149 187.58C37.3403 187.462 37.6931 187.147 37.8174 186.967C37.9039 186.845 37.9949 186.701 37.9106 186.599L35.4518 183.869C35.4518 183.869 35.048 183.485 35.1811 183.339C35.3187 183.188 35.5694 183.405 35.747 183.552C36.9985 184.597 38.5253 186.173 38.5253 186.173C38.5519 186.19 38.6518 186.39 39.2176 186.49C39.7036 186.576 40.5646 186.528 41.1616 186.037C41.3103 185.913 41.4612 185.76 41.5899 185.6C41.5788 185.609 41.5699 185.618 41.561 185.622C42.1912 184.817 41.49 184.005 41.49 184.005L38.6207 180.782C38.6207 180.782 38.2102 180.403 38.35 180.25C38.4742 180.117 38.7383 180.316 38.9181 180.467C39.8257 181.226 41.1105 182.516 42.3399 183.72C42.5818 183.896 43.6625 184.564 45.0938 183.625C45.9637 183.055 46.1368 182.354 46.1124 181.828C46.0525 181.129 45.5066 180.629 45.5066 180.629L41.5876 176.688C41.5876 176.688 41.1727 176.335 41.3191 176.156C41.439 176.005 41.7075 176.222 41.885 176.369C43.1321 177.414 46.514 180.514 46.514 180.514C46.5629 180.547 47.7301 181.379 49.1747 180.461C49.6918 180.13 50.0202 179.633 50.0491 179.054C50.0979 178.051 49.3922 177.456 49.3922 177.456H49.3944Z" fill="white"/>
<path d="M30.3816 182.451C29.7736 182.445 29.1079 182.806 29.0213 182.753C28.9725 182.722 29.0591 182.478 29.1145 182.336C29.1745 182.196 29.9733 179.788 28.0227 178.952C26.5293 178.311 25.615 179.032 25.3021 179.358C25.22 179.442 25.1823 179.436 25.1734 179.329C25.1423 178.894 24.9493 177.722 23.66 177.327C21.8181 176.764 20.6331 178.049 20.3336 178.515C20.1982 177.465 19.3106 176.651 18.2254 176.648C17.0449 176.648 16.0862 177.603 16.084 178.785C16.084 179.966 17.0404 180.925 18.2232 180.925C18.7979 180.925 19.3172 180.696 19.7011 180.328C19.7144 180.339 19.7189 180.359 19.7122 180.399C19.6212 180.929 19.457 182.849 21.4697 183.632C22.2775 183.945 22.9632 183.712 23.5313 183.315C23.6999 183.195 23.7288 183.246 23.7044 183.406C23.6311 183.9 23.7243 184.957 25.2067 185.558C26.334 186.017 27.002 185.549 27.4413 185.143C27.6322 184.97 27.6832 184.999 27.6943 185.267C27.7476 186.697 28.9348 187.833 30.3772 187.835C31.864 187.835 33.069 186.634 33.069 185.15C33.069 183.663 31.8662 182.474 30.3794 182.458L30.3816 182.451Z" fill="white"/>
<path d="M32.7301 153.544C15.1304 153.544 0.863814 162.904 0.863814 174.386C0.863814 174.683 0.859375 175.502 0.859375 175.606C0.859375 187.789 13.3285 197.653 32.7256 197.653C52.1228 197.653 64.5941 187.789 64.5941 175.608V174.386C64.5941 162.904 50.3276 153.544 32.7301 153.544ZM63.1584 172.076C56.2326 173.616 51.0665 175.85 49.7728 176.427C46.7504 173.789 39.7646 167.715 37.8717 166.295C36.791 165.48 36.0521 165.052 35.4041 164.859C35.1134 164.77 34.7117 164.671 34.1947 164.671C33.7132 164.671 33.1961 164.757 32.6569 164.93C31.4341 165.318 30.2158 166.286 29.0375 167.222L28.9776 167.271C27.8791 168.143 26.7452 169.047 25.8864 169.237C25.5114 169.322 25.1252 169.366 24.7413 169.366C23.7782 169.366 22.915 169.087 22.591 168.674C22.5378 168.605 22.5733 168.494 22.6975 168.336L22.7131 168.314L25.3738 165.449C27.4575 163.366 29.4236 161.4 33.9528 161.295C34.0283 161.293 34.1037 161.291 34.1792 161.291C36.9974 161.293 39.8157 162.553 40.133 162.702C42.776 163.991 45.5054 164.646 48.246 164.648C51.0976 164.648 54.0401 163.945 57.1335 162.522C60.3645 165.239 62.506 168.512 63.1584 172.078V172.076ZM32.7345 154.773C42.0769 154.773 50.4341 157.452 56.055 161.668C53.3389 162.844 50.7492 163.437 48.2505 163.437C45.6941 163.434 43.1399 162.82 40.6589 161.61C40.528 161.548 37.4168 160.081 34.1792 160.079C34.0948 160.079 34.0083 160.079 33.924 160.081C30.1204 160.17 27.9768 161.522 26.5366 162.704C25.1363 162.74 23.9269 163.077 22.8507 163.377C21.8898 163.643 21.0621 163.874 20.2543 163.874C19.9214 163.874 19.3223 163.843 19.269 163.841C18.3414 163.812 13.6813 162.669 9.95991 161.264C15.5676 157.279 23.6939 154.771 32.7367 154.771L32.7345 154.773ZM8.85479 162.099C12.7404 163.687 17.456 164.917 18.9473 165.012C19.3622 165.039 19.8061 165.088 20.2499 165.088C21.2396 165.088 22.2271 164.81 23.1813 164.544C23.745 164.386 24.3685 164.213 25.0232 164.089C24.8478 164.26 24.6725 164.435 24.4972 164.611L21.7966 167.533C21.5835 167.748 21.122 168.321 21.426 169.027C21.5458 169.311 21.7921 169.584 22.1361 169.814C22.7796 170.247 23.9336 170.542 25.0032 170.542C25.4093 170.542 25.7954 170.502 26.146 170.422C27.28 170.169 28.4672 169.222 29.7254 168.221C30.7285 167.424 32.1531 166.413 33.2449 166.115C33.5512 166.033 33.924 165.98 34.2258 165.98C34.3167 165.98 34.4011 165.984 34.4787 165.995C35.1977 166.086 35.8945 166.33 37.1394 167.265C39.3585 168.931 49.1714 177.517 49.2668 177.601C49.2735 177.606 49.8993 178.147 49.8549 179.044C49.8305 179.545 49.5531 179.989 49.0693 180.297C48.6499 180.564 48.2194 180.699 47.7822 180.699C47.1254 180.699 46.6749 180.391 46.6438 180.371C46.6083 180.342 43.2464 177.257 42.0081 176.221C41.8106 176.057 41.6198 175.91 41.4267 175.91C41.3224 175.91 41.2315 175.955 41.1693 176.032C40.974 176.272 41.1915 176.605 41.4489 176.822L45.3767 180.772C45.3767 180.772 45.8672 181.229 45.9204 181.835C45.9515 182.49 45.6386 183.038 44.9884 183.464C44.5246 183.77 44.0564 183.923 43.597 183.923C42.9934 183.923 42.5696 183.648 42.4764 183.584L41.9127 183.029C40.8831 182.015 39.8201 180.968 39.0412 180.32C38.8504 180.162 38.6484 180.016 38.4554 180.016C38.3599 180.016 38.2734 180.051 38.2068 180.122C38.1181 180.22 38.0559 180.397 38.2778 180.692C38.3666 180.814 38.4753 180.914 38.4753 180.914L41.3402 184.134C41.3624 184.163 41.9305 184.838 41.4045 185.508L41.3025 185.637C41.2159 185.73 41.1249 185.819 41.0362 185.894C40.548 186.296 39.8956 186.338 39.6359 186.338C39.4961 186.338 39.3652 186.327 39.2476 186.305C38.9658 186.253 38.7749 186.176 38.6817 186.067L38.6462 186.032C38.4909 185.87 37.0462 184.394 35.8501 183.397C35.6926 183.264 35.4951 183.1 35.2931 183.1C35.1933 183.1 35.1045 183.14 35.0335 183.216C34.7983 183.475 35.1533 183.861 35.3042 184.003L37.7475 186.7C37.7453 186.724 37.7142 186.779 37.6565 186.864C37.5677 186.986 37.2726 187.281 36.3849 187.392C36.2784 187.405 36.1675 187.412 36.061 187.412C35.1467 187.412 34.1703 186.968 33.6665 186.702C33.8951 186.218 34.0149 185.685 34.0149 185.153C34.0149 183.14 32.3817 181.505 30.369 181.502C30.3268 181.502 30.2802 181.502 30.238 181.505C30.3024 180.586 30.1737 178.846 28.3873 178.081C27.8725 177.859 27.3599 177.743 26.8628 177.743C26.4722 177.743 26.0972 177.81 25.7444 177.945C25.3738 177.226 24.7591 176.702 23.9602 176.43C23.5164 176.276 23.077 176.199 22.6509 176.199C21.9075 176.199 21.2218 176.418 20.6116 176.851C20.0257 176.123 19.1425 175.693 18.2127 175.693C17.3983 175.693 16.615 176.019 16.0358 176.594C15.2746 176.012 12.2567 174.095 4.17693 172.26C3.79081 172.173 2.91426 171.923 2.36392 171.761C3.12064 168.135 5.42628 164.821 8.8437 162.103L8.85479 162.099ZM23.8426 183.131L23.756 183.054H23.6673C23.5963 183.054 23.5208 183.082 23.421 183.153C23.0082 183.444 22.6154 183.584 22.2138 183.584C21.9919 183.584 21.7655 183.54 21.5392 183.453C19.6662 182.723 19.8127 180.956 19.9059 180.424C19.9192 180.315 19.8926 180.233 19.8238 180.175L19.6907 180.067L19.5664 180.184C19.2002 180.537 18.7231 180.728 18.2216 180.728C17.1498 180.728 16.2755 179.856 16.2777 178.782C16.2777 177.71 17.152 176.838 18.2261 176.84C19.1958 176.84 20.0213 177.568 20.1434 178.538L20.2099 179.059L20.4962 178.618C20.5273 178.567 21.315 177.377 22.7597 177.379C23.0348 177.379 23.3189 177.424 23.6051 177.512C24.7569 177.863 24.9521 178.908 24.981 179.343C25.001 179.596 25.1829 179.609 25.2162 179.609C25.3161 179.609 25.3893 179.547 25.4403 179.492C25.6578 179.266 26.1305 178.888 26.8717 178.888C27.2112 178.888 27.5707 178.97 27.9435 179.13C29.7742 179.916 28.9443 182.241 28.9354 182.266C28.7779 182.652 28.7712 182.821 28.9199 182.92L28.9909 182.954H29.0442C29.1263 182.954 29.2283 182.918 29.3992 182.86C29.6478 182.774 30.0228 182.645 30.3756 182.645C31.7537 182.661 32.8743 183.784 32.8743 185.144C32.8743 186.52 31.7515 187.638 30.3734 187.638C29.0264 187.638 27.9302 186.589 27.8814 185.255C27.8769 185.139 27.8658 184.838 27.6084 184.838C27.5041 184.838 27.4109 184.902 27.3066 184.997C27.0092 185.273 26.632 185.55 26.0817 185.55C25.8309 185.55 25.5602 185.492 25.2739 185.375C23.8515 184.798 23.8315 183.821 23.8892 183.429C23.9047 183.324 23.9092 183.216 23.8382 183.129L23.8426 183.131ZM32.7345 193.978C15.8117 193.978 2.09319 185.202 2.09319 174.377C2.09319 173.942 2.12426 173.509 2.16642 173.081C2.30179 173.114 3.64656 173.434 3.92395 173.498C12.1768 175.331 14.9041 177.237 15.3656 177.599C15.2103 177.974 15.1282 178.378 15.1282 178.786C15.1282 180.493 16.5151 181.882 18.2194 181.882C18.4102 181.882 18.6011 181.864 18.7875 181.829C19.0449 183.085 19.866 184.037 21.1198 184.525C21.4859 184.665 21.8565 184.738 22.2227 184.738C22.4579 184.738 22.6953 184.709 22.9261 184.651C23.1591 185.239 23.6784 185.974 24.8456 186.447C25.2539 186.611 25.6623 186.697 26.0595 186.697C26.3835 186.697 26.7008 186.64 27.0026 186.529C27.5618 187.889 28.891 188.792 30.3734 188.792C31.3565 188.792 32.2996 188.393 32.9875 187.685C33.5756 188.013 34.8183 188.606 36.0743 188.608C36.2363 188.608 36.3872 188.597 36.5425 188.579C37.7896 188.422 38.3688 187.933 38.6351 187.554C38.6839 187.487 38.7261 187.416 38.7638 187.343C39.0567 187.427 39.3807 187.496 39.7535 187.498C40.4348 187.498 41.0872 187.265 41.7485 186.786C42.3987 186.318 42.8603 185.645 42.9268 185.073C42.9268 185.066 42.9268 185.057 42.9291 185.049C43.1488 185.093 43.3729 185.115 43.597 185.115C44.2983 185.115 44.9884 184.898 45.6475 184.465C46.919 183.633 47.1387 182.543 47.1187 181.831C47.3429 181.877 47.5692 181.902 47.7956 181.902C48.4524 181.902 49.1004 181.704 49.7151 181.312C50.5029 180.808 50.9777 180.036 51.051 179.139C51.0976 178.529 50.9467 177.912 50.6271 177.384C52.753 176.467 57.6129 174.694 63.3359 173.405C63.3603 173.729 63.3736 174.055 63.3736 174.384C63.3736 185.208 49.6552 193.985 32.7345 193.985V193.978Z" fill="#0A0080"/>
<path d="M173.841 159.959C172.684 158.508 170.927 157.784 168.57 157.784C166.213 157.784 164.458 158.51 163.302 159.959C162.144 161.408 161.564 163.121 161.564 165.098C161.564 167.076 162.144 168.829 163.302 170.26C164.458 171.687 166.216 172.401 168.57 172.401C170.925 172.401 172.684 171.687 173.841 170.26C174.999 168.829 175.576 167.111 175.576 165.098C175.576 163.086 174.999 161.408 173.841 159.959ZM170.973 168.276C170.412 169.019 169.609 169.395 168.557 169.395C167.505 169.395 166.702 169.019 166.136 168.276C165.57 167.533 165.288 166.472 165.288 165.098C165.288 163.725 165.57 162.668 166.136 161.927C166.702 161.186 167.509 160.815 168.557 160.815C169.604 160.815 170.41 161.186 170.973 161.927C171.535 162.668 171.817 163.727 171.817 165.098C171.817 166.47 171.535 167.533 170.973 168.276Z" fill="#0A0080"/>
<path d="M144.268 158.746C143.094 158.151 141.752 157.852 140.24 157.852C137.917 157.852 136.277 158.457 135.321 159.667C134.719 160.441 134.384 161.431 134.304 162.634H137.777C137.862 162.101 138.032 161.682 138.29 161.371C138.647 160.952 139.257 160.741 140.116 160.741C140.884 160.741 141.465 160.847 141.865 161.063C142.26 161.276 142.46 161.666 142.46 162.23C142.46 162.694 142.202 163.031 141.685 163.253C141.397 163.379 140.917 163.484 140.247 163.568L139.016 163.719C137.617 163.896 136.557 164.192 135.838 164.604C134.524 165.361 133.867 166.586 133.867 168.277C133.867 169.58 134.273 170.587 135.092 171.297C135.907 172.009 136.943 172.307 138.194 172.364C146.043 172.717 145.957 168.228 146.028 167.296V162.132C146.028 160.475 145.44 159.347 144.268 158.748V158.746ZM142.444 166.584C142.42 167.786 142.076 168.614 141.414 169.069C140.751 169.524 140.03 169.75 139.244 169.75C138.747 169.75 138.325 169.611 137.979 169.34C137.633 169.067 137.46 168.621 137.46 168.006C137.46 167.318 137.744 166.81 138.31 166.479C138.645 166.286 139.195 166.122 139.963 165.991L140.782 165.838C141.19 165.76 141.51 165.676 141.745 165.587C141.982 165.503 142.211 165.388 142.44 165.243V166.582L142.444 166.584Z" fill="#0A0080"/>
<path d="M126.369 160.926C127.268 160.926 127.925 161.203 128.353 161.758C128.644 162.167 128.826 162.63 128.897 163.143H132.769C132.558 161.188 131.875 159.825 130.719 159.053C129.56 158.283 128.078 157.897 126.265 157.897C124.132 157.897 122.459 158.552 121.247 159.859C120.036 161.168 119.428 162.999 119.428 165.351C119.428 167.432 119.976 169.132 121.074 170.439C122.173 171.746 123.884 172.401 126.209 172.401C128.535 172.401 130.297 171.618 131.482 170.047C132.225 169.075 132.642 168.043 132.729 166.953H128.87C128.79 167.674 128.566 168.262 128.191 168.715C127.82 169.166 127.192 169.394 126.305 169.394C125.055 169.394 124.203 168.824 123.753 167.681C123.504 167.071 123.378 166.265 123.378 165.26C123.378 164.255 123.504 163.365 123.753 162.724C124.223 161.527 125.095 160.926 126.369 160.926Z" fill="#0A0080"/>
<path d="M118.389 157.897C110.433 157.897 110.906 164.938 110.906 164.938V172.093H114.516V165.384C114.516 164.284 114.656 163.471 114.929 162.941C115.424 162.002 116.394 161.532 117.836 161.532C117.945 161.532 118.087 161.539 118.262 161.547C118.437 161.556 118.637 161.572 118.868 161.598V157.926C118.708 157.915 118.604 157.91 118.559 157.904C118.513 157.899 118.457 157.897 118.389 157.897Z" fill="#0A0080"/>
<path d="M108.012 160.565C107.388 159.642 106.596 158.965 105.642 158.535C104.686 158.109 103.612 157.896 102.42 157.896C100.409 157.896 98.7761 158.528 97.5157 159.795C96.2574 161.064 95.625 162.884 95.625 165.261C95.625 167.797 96.324 169.626 97.7198 170.751C99.1134 171.874 100.724 172.439 102.549 172.439C104.759 172.439 106.479 171.772 107.706 170.438C108.369 169.737 108.784 169.042 108.96 168.356H105.129C104.978 168.574 104.817 168.758 104.637 168.902C104.126 169.322 103.434 169.45 102.62 169.45C101.85 169.45 101.244 169.335 100.698 168.991C99.7969 168.436 99.2887 167.5 99.2355 166.126H109.224C109.237 164.941 109.199 164.034 109.104 163.403C108.94 162.329 108.571 161.384 108.012 160.57V160.565ZM99.3242 163.756C99.4529 162.864 99.7747 162.158 100.278 161.635C100.787 161.113 101.499 160.851 102.42 160.851C103.265 160.851 103.975 161.098 104.548 161.593C105.118 162.085 105.436 162.809 105.502 163.756H99.3265H99.3242Z" fill="#0A0080"/>
<path d="M88.4551 157.849C86.7797 157.849 85.3306 158.584 84.3564 159.76C83.4311 158.584 82.0064 157.849 80.2555 157.849C76.7294 157.849 74.457 160.439 74.457 163.867V172.091H77.7568V163.79C77.7568 162.274 78.7821 161.227 80.2578 161.227C82.4325 161.227 82.6566 163.031 82.6566 163.79V172.091H85.9564V163.79C85.9564 162.274 87.006 161.227 88.4551 161.227C90.6298 161.227 90.8806 163.031 90.8806 163.79V172.091H94.176V163.867C94.176 160.332 92.0545 157.849 88.4529 157.849H88.4551Z" fill="#0A0080"/>
<path d="M156.857 156.094L156.853 159.961C156.451 159.313 155.927 158.808 155.282 158.446C154.638 158.082 153.899 157.898 153.067 157.898C151.263 157.898 149.827 158.57 148.749 159.908C147.67 161.251 147.131 163.186 147.131 165.525C147.131 167.555 147.679 169.22 148.773 170.516C149.867 171.809 152.013 172.377 153.919 172.377C160.565 172.377 160.488 166.679 160.488 166.679V153.562C160.488 153.562 156.855 153.173 156.855 156.094H156.857ZM156.163 168.307C155.637 169.062 154.862 169.439 153.848 169.439C152.834 169.439 152.077 169.058 151.578 168.301C151.079 167.54 150.83 166.435 150.83 165.17C150.83 163.994 151.074 163.013 151.565 162.221C152.055 161.428 152.823 161.031 153.872 161.031C154.56 161.031 155.164 161.249 155.685 161.683C156.531 162.405 156.957 163.701 156.957 165.376C156.957 166.574 156.691 167.553 156.163 168.307Z" fill="#0A0080"/>
<path d="M82.0841 177.611C79.1105 177.471 77.6104 178.179 76.6317 178.926C75.2803 179.958 74.457 181.485 74.457 183.924V196.464H76.2057C76.6739 196.464 77.1421 196.302 77.4861 195.985C77.8722 195.63 78.0653 195.195 78.0653 194.684V189.998C78.4914 190.732 79.0528 191.271 79.7629 191.622C80.4353 191.935 81.212 192.092 82.0952 192.092C83.7573 192.092 85.122 191.431 86.1805 190.102C87.2413 188.737 87.7716 186.962 87.7716 184.763C87.7716 182.564 87.2701 180.997 86.0674 179.532C85.0954 178.347 83.6175 177.679 82.0863 177.611H82.0841ZM83.3157 187.903C82.7853 188.637 82.0597 189.003 81.141 189.003C80.1512 189.003 79.3901 188.639 78.8597 187.903C78.3294 187.239 78.0631 186.25 78.0631 184.918C78.0631 183.491 78.3094 182.442 78.8042 181.778C79.3368 181.048 80.0802 180.677 81.0344 180.677C81.9887 180.677 82.7853 181.046 83.3157 181.778C83.8483 182.513 84.1123 183.558 84.1123 184.918C84.1123 186.178 83.8483 187.168 83.3157 187.903Z" fill="#0A0080"/>
<path d="M113.088 178.904C111.861 177.974 110.607 177.488 108.452 177.546C106.264 177.606 104.673 178.219 103.684 179.559C102.694 180.901 102.201 182.654 102.201 184.814C102.201 186.662 102.574 188.151 103.32 189.29C104.067 190.421 104.962 191.198 106.005 191.613C107.043 192.032 108.095 192.119 109.156 191.877C110.214 191.631 111.058 191.025 111.683 190.049V190.934C111.612 192.05 111.344 192.887 110.878 193.446C110.405 194.001 109.886 194.342 109.311 194.465C108.743 194.584 108.166 194.518 107.596 194.254C107.021 193.994 106.597 193.617 106.32 193.131H102.516C103.502 196.091 105.27 197.398 108.457 197.629C113.596 198 115.234 193.648 115.23 191.3V183.922C115.23 181.483 114.435 179.921 113.093 178.9L113.088 178.904ZM111.577 186.152C111.437 186.968 111.213 187.572 110.898 187.954C110.239 188.859 109.211 189.181 107.827 188.923C106.435 188.659 105.741 187.326 105.741 184.922C105.741 183.806 105.947 182.812 106.366 181.938C106.784 181.07 107.58 180.631 108.761 180.631C109.628 180.631 110.29 180.946 110.74 181.572C111.193 182.2 111.481 182.914 111.601 183.717C111.723 184.519 111.712 185.331 111.575 186.15L111.577 186.152Z" fill="#0A0080"/>
<path d="M99.1133 178.537C97.9394 177.945 96.5968 177.643 95.0856 177.643C92.7622 177.643 91.1245 178.249 90.1703 179.461C89.5711 180.233 89.2338 181.222 89.154 182.425H92.6268C92.7112 181.895 92.882 181.473 93.1372 181.165C93.4945 180.745 94.1048 180.532 94.9636 180.532C95.7336 180.532 96.315 180.639 96.7122 180.854C97.1072 181.067 97.3047 181.458 97.3047 182.021C97.3047 182.483 97.0473 182.825 96.5302 183.042C96.2418 183.169 95.7624 183.273 95.0923 183.357L93.8629 183.506C92.4649 183.683 91.4019 183.979 90.6874 184.391C89.3714 185.148 88.7168 186.371 88.7168 188.062C88.7168 189.364 89.1229 190.372 89.9417 191.082C90.7561 191.794 91.7925 192.092 93.0463 192.149C100.893 192.5 100.804 188.013 100.875 187.081V181.917C100.875 180.262 100.292 179.134 99.1177 178.535L99.1133 178.537ZM97.2892 186.373C97.267 187.578 96.9208 188.403 96.2617 188.858C95.6004 189.313 94.877 189.54 94.0915 189.54C93.5944 189.54 93.175 189.4 92.8266 189.129C92.4804 188.856 92.3073 188.412 92.3073 187.798C92.3073 187.11 92.5913 186.602 93.1572 186.273C93.4945 186.08 94.0426 185.916 94.8104 185.785L95.6315 185.634C96.0398 185.556 96.3616 185.474 96.5924 185.386C96.8298 185.299 97.0606 185.184 97.2892 185.039V186.377V186.373Z" fill="#0A0080"/>
<path d="M128.876 179.676C127.717 178.225 125.96 177.499 123.603 177.499C121.246 177.499 119.493 178.222 118.337 179.676C117.179 181.125 116.6 182.836 116.6 184.813C116.6 186.79 117.179 188.541 118.337 189.973C119.493 191.397 121.251 192.112 123.603 192.112C125.955 192.112 127.715 191.397 128.876 189.973C130.032 188.541 130.609 186.824 130.609 184.813C130.609 182.803 130.032 181.125 128.876 179.676ZM126.006 187.989C125.445 188.734 124.642 189.109 123.594 189.109C122.547 189.109 121.739 188.734 121.173 187.989C120.605 187.245 120.323 186.187 120.323 184.813C120.323 183.44 120.605 182.383 121.173 181.642C121.737 180.901 122.545 180.53 123.594 180.53C124.644 180.53 125.447 180.901 126.006 181.642C126.568 182.383 126.847 183.44 126.847 184.813C126.847 186.187 126.568 187.245 126.006 187.989Z" fill="#0A0080"/>
</svg>
