<svg width="104" height="26" viewBox="0 0 104 26" fill="none" xmlns="http://www.w3.org/2000/svg">
<path d="M18.0934 23.8918C18.1345 23.8684 18.177 23.8415 18.2194 23.8118C18.2488 23.7912 18.2782 23.7677 18.3084 23.7443C18.3193 23.7361 18.3296 23.7278 18.3405 23.7195C18.8749 23.2768 19.4749 22.3529 19.9022 21.2328C19.9042 21.2273 19.9063 21.2218 19.9083 21.2163C19.9389 21.136 19.9682 21.0549 19.9974 20.9725C20.6296 19.1472 20.8261 16.8177 19.7609 14.9134C19.0911 13.7151 18.1358 12.7111 17.0271 12.008C16.0765 11.395 15.4977 10.3596 15.4736 9.22921C15.4558 7.91494 15.1003 6.57568 14.4305 5.37733C13.375 3.49149 11.2665 2.43898 9.36778 2.01964C8.7033 1.87287 8.01224 1.78244 7.33114 1.80516C6.85925 1.82105 6.32774 1.85976 5.90661 2.09568C4.46175 2.90349 2.33513 7.66874 4.2391 11.0741C4.90894 12.2724 5.86422 13.2764 6.9729 13.9795C7.92352 14.5925 8.5023 15.6279 8.52643 16.7583C8.54428 18.0725 8.89971 19.4118 9.56955 20.6102C11.4735 24.0155 16.6479 24.6989 18.0927 23.8911L18.0934 23.8918Z" fill="#FFC900"/>
<path d="M18.0934 23.8918C18.1345 23.8684 18.177 23.8415 18.2194 23.8118C18.2488 23.7912 18.2782 23.7677 18.3084 23.7443C18.3193 23.7361 18.3296 23.7278 18.3405 23.7195C18.8749 23.2768 19.4749 22.3529 19.9022 21.2328C19.9042 21.2273 19.9063 21.2218 19.9083 21.2163C19.9389 21.136 19.9682 21.0549 19.9974 20.9725C20.6296 19.1472 20.8261 16.8177 19.7609 14.9134C19.0911 13.7151 18.1358 12.7111 17.0271 12.008C16.0765 11.395 15.4977 10.3596 15.4736 9.22921C15.4558 7.91494 15.1003 6.57568 14.4305 5.37733C13.375 3.49149 11.2665 2.43898 9.36778 2.01964C8.7033 1.87287 8.01224 1.78244 7.33114 1.80516C6.85925 1.82105 6.32774 1.85976 5.90661 2.09568C4.46175 2.90349 2.33513 7.66874 4.2391 11.0741C4.90894 12.2724 5.86422 13.2764 6.9729 13.9795C7.92352 14.5925 8.5023 15.6279 8.52643 16.7583C8.54428 18.0725 8.89971 19.4118 9.56955 20.6102C11.4735 24.0155 16.6479 24.6989 18.0927 23.8911L18.0934 23.8918ZM10.279 20.2142C9.66983 19.124 9.3629 17.9362 9.35098 16.7625C9.31294 15.353 8.5824 14.0465 7.38858 13.3183C6.39539 12.6931 5.5289 11.7834 4.93425 10.72C3.25861 7.72278 5.20022 3.45475 6.29037 2.84561C7.44283 2.2013 12.0669 2.83433 13.7267 5.80416C14.3358 6.89431 14.6427 8.08213 14.6546 9.25579C14.6646 10.6805 15.3807 11.961 16.589 12.7159C17.5822 13.3411 18.4342 14.2241 19.0433 15.3142C20.7189 18.3114 18.7828 22.576 17.6694 23.1989C16.5792 23.8081 11.9387 23.184 10.279 20.2149L10.279 20.2142Z" fill="black"/>
<path fill-rule="evenodd" clip-rule="evenodd" d="M9.93952 9.77632C10.118 9.88389 10.1754 10.1158 10.0679 10.2942L9.64815 10.9904C9.54058 11.1689 9.30871 11.2264 9.13026 11.1188C8.95181 11.0112 8.89435 10.7793 9.00193 10.6009L9.42162 9.90465C9.5292 9.7262 9.76107 9.66875 9.93952 9.77632Z" fill="black"/>
<path d="M7.81571 9.55187C8.75864 9.5489 9.52063 8.78211 9.51767 7.83918C9.51471 6.89625 8.74791 6.13425 7.80498 6.13721C6.86205 6.14018 6.10006 6.90697 6.10302 7.8499C6.10598 8.79283 6.87278 9.55483 7.81571 9.55187Z" fill="white"/>
<path fill-rule="evenodd" clip-rule="evenodd" d="M7.80577 6.46662C7.04497 6.46901 6.43015 7.0877 6.43254 7.8485C6.43493 8.6093 7.05362 9.22412 7.81443 9.22173C8.57523 9.21934 9.19004 8.60065 9.18765 7.83985C9.18526 7.07904 8.56657 6.46423 7.80577 6.46662ZM5.773 7.85057C5.76947 6.72552 6.67864 5.81061 7.8037 5.80708C8.92876 5.80354 9.84366 6.71272 9.84719 7.83777C9.85073 8.96283 8.94156 9.87774 7.8165 9.88127C6.69144 9.8848 5.77654 8.97563 5.773 7.85057Z" fill="black"/>
<path d="M10.8069 7.93077C11.7499 7.92781 12.5118 7.16101 12.5089 6.21808C12.5059 5.27515 11.7391 4.51316 10.7962 4.51612C9.85326 4.51908 9.09127 5.28588 9.09423 6.22881C9.09719 7.17174 9.86399 7.93373 10.8069 7.93077Z" fill="white"/>
<path fill-rule="evenodd" clip-rule="evenodd" d="M10.797 4.84552C10.0362 4.84791 9.42136 5.4666 9.42375 6.22741C9.42614 6.98821 10.0448 7.60302 10.8056 7.60063C11.5664 7.59824 12.1813 6.97955 12.1789 6.21875C12.1765 5.45795 11.5578 4.84313 10.797 4.84552ZM8.76421 6.22948C8.76068 5.10442 9.66985 4.18952 10.7949 4.18598C11.92 4.18245 12.8349 5.09162 12.8384 6.21668C12.8419 7.34174 11.9328 8.25664 10.8077 8.26018C9.68265 8.26371 8.76775 7.35454 8.76421 6.22948Z" fill="black"/>
<path d="M10.6438 4.58807C10.2319 5.13541 10.2089 5.90929 10.6374 6.48829C11.0032 6.98243 11.6014 7.2035 12.1698 7.11116C12.5818 6.56381 12.6047 5.78994 12.1762 5.21094C11.8104 4.7168 11.2122 4.49573 10.6438 4.58807Z" fill="black"/>
<path d="M7.74335 6.20445C7.34718 6.74626 7.32966 7.50365 7.7499 8.07171C8.09643 8.53984 8.65277 8.76035 9.19246 8.70035C9.58864 8.15854 9.60615 7.40115 9.18591 6.83309C8.83939 6.36496 8.28304 6.14445 7.74335 6.20445Z" fill="black"/>
<path fill-rule="evenodd" clip-rule="evenodd" d="M12.3053 9.28987C12.485 9.39547 12.545 9.6267 12.4394 9.80632C12.3069 10.0316 12.1036 10.2463 11.8908 10.4201C11.6776 10.5941 11.4288 10.7483 11.1885 10.8345L11.1881 10.8346C10.7421 10.9941 10.2118 11.0204 9.74656 10.8956C9.54531 10.8416 9.42592 10.6347 9.47991 10.4334C9.53389 10.2322 9.7408 10.1128 9.94205 10.1668C10.2554 10.2508 10.6289 10.2332 10.9339 10.1242C11.0717 10.0747 11.2463 9.97207 11.4136 9.83554C11.5812 9.6987 11.7152 9.54915 11.7889 9.42389C11.8945 9.24427 12.1257 9.18427 12.3053 9.28987Z" fill="black"/>
<path d="M13.5205 20.5213C13.3913 20.663 13.3893 20.9066 13.5303 21.0358C14.0965 21.5512 14.7263 21.9965 15.3248 22.3218C15.4362 22.3976 15.5575 22.365 15.663 22.3064C15.7157 22.2767 15.7532 22.2203 15.7922 22.1647C15.8924 21.9702 15.8142 21.7701 15.661 21.6828C15.1037 21.3697 14.5296 20.9633 14.0198 20.4847C13.878 20.3569 13.6483 20.381 13.5205 20.5213Z" fill="black"/>
<path fill-rule="evenodd" clip-rule="evenodd" d="M13.4767 20.4811C13.6242 20.3193 13.8915 20.288 14.0605 20.4405L14.0614 20.4413L14.0614 20.4413C14.5673 20.9162 15.1374 21.3198 15.6909 21.6308L15.6913 21.631C15.8715 21.7337 15.9615 21.9684 15.846 22.1924L15.8423 22.1996L15.8419 22.1993C15.8393 22.2029 15.8367 22.2067 15.834 22.2105C15.7993 22.2605 15.7554 22.3237 15.6929 22.3589L15.6927 22.359C15.5818 22.4207 15.4337 22.4666 15.2942 22.3734C14.6921 22.0458 14.0594 21.5982 13.4905 21.0803L13.4904 21.0802C13.3222 20.9261 13.3279 20.6444 13.4767 20.4812M13.9798 20.5291C13.8653 20.4263 13.6735 20.4432 13.5654 20.5619L13.5654 20.5619C13.4558 20.6821 13.4576 20.8874 13.5713 20.9917C14.1341 21.504 14.7599 21.9465 15.354 22.2694L15.3593 22.2723L15.3591 22.2725C15.4416 22.3286 15.5349 22.3095 15.6342 22.2543C15.6716 22.2332 15.7006 22.1921 15.7412 22.134C15.8235 21.9702 15.7573 21.8067 15.632 21.7352C15.0711 21.4201 14.4933 21.0111 13.9798 20.5291Z" fill="black"/>
<path d="M12.5172 19.7959L12.5439 19.7807C12.7137 19.6505 12.746 19.459 12.6425 19.2741C12.4971 19.0777 12.3792 18.8661 12.2612 18.6552C12.0398 18.2587 11.845 17.8477 11.6641 17.4634C11.5873 17.2634 11.3813 17.2057 11.1806 17.2825C10.9805 17.3592 10.9228 17.5652 10.9996 17.766C11.1683 18.1915 11.405 18.6147 11.6409 19.0372C11.7734 19.2748 11.892 19.4864 12.0519 19.7095C12.1655 19.8519 12.357 19.8842 12.5159 19.7959L12.5172 19.7959Z" fill="black"/>
<path fill-rule="evenodd" clip-rule="evenodd" d="M11.7198 17.439C11.675 17.3239 11.5915 17.2472 11.489 17.2117C11.3871 17.1765 11.2708 17.1832 11.1597 17.2257C11.0434 17.2703 10.9659 17.3542 10.9302 17.4574C10.8949 17.5592 10.9017 17.6756 10.9442 17.7866C11.1136 18.2139 11.3508 18.6388 11.585 19.0582L11.5891 19.0656C11.7215 19.303 11.8416 19.5174 12.0037 19.7437L12.0056 19.7462C12.1351 19.9084 12.3512 19.9473 12.5315 19.855L12.5337 19.855L12.5741 19.8321L12.581 19.8275C12.676 19.7546 12.7358 19.6618 12.7552 19.5582C12.7746 19.4549 12.7528 19.3466 12.6954 19.2441L12.6913 19.2377C12.5497 19.0464 12.4343 18.84 12.317 18.6303L12.3141 18.6252C12.3141 18.6252 12.3141 18.6252 12.3141 18.6252M11.2026 17.3377C11.1188 17.3698 11.0675 17.4273 11.0435 17.4966C11.0191 17.567 11.0219 17.6539 11.0561 17.7435C11.2226 18.1632 11.4562 18.5816 11.6918 19.0035L11.6938 19.0072C11.8261 19.2445 11.9431 19.453 12.1002 19.6725C12.1947 19.7897 12.353 19.8173 12.4873 19.7427L12.5008 19.7352L12.5019 19.7352L12.5112 19.7299C12.5839 19.6731 12.6242 19.606 12.6373 19.5361C12.6505 19.4658 12.6372 19.3871 12.5925 19.3059C12.4475 19.1093 12.3295 18.8984 12.214 18.6918L12.2095 18.6837C11.9869 18.2851 11.7913 17.8723 11.6104 17.4882L11.6085 17.4842C11.5764 17.4004 11.519 17.349 11.4498 17.325C11.3793 17.3006 11.2923 17.3034 11.2026 17.3377Z" fill="black"/>
<path d="M10.7159 16.0214L10.7954 15.9773C10.9275 15.9035 11.0004 15.7242 10.9793 15.563C10.8481 15.0812 10.6504 14.6023 10.3993 14.1531C10.2813 13.9415 10.1627 13.7299 10.018 13.5341C9.88782 13.3644 9.67031 13.3466 9.52661 13.4623C9.35689 13.5925 9.33906 13.81 9.45475 13.9537C9.58494 14.1234 9.68842 14.3083 9.7919 14.4939C10.0134 14.8904 10.1828 15.3158 10.3096 15.7298C10.3336 15.9588 10.5433 16.0844 10.7152 16.0214L10.7159 16.0214Z" fill="black"/>
<path fill-rule="evenodd" clip-rule="evenodd" d="M9.48918 13.4154C9.65968 13.2786 9.91515 13.3022 10.0652 13.4979L10.0659 13.4987C10.2131 13.698 10.3335 13.9129 10.4513 14.124C10.7046 14.5773 10.9042 15.0607 11.0368 15.5475L11.0389 15.5554C11.0624 15.7352 10.9824 15.9415 10.8242 16.0298L10.7312 16.0815L10.725 16.0816C10.5159 16.1504 10.2804 15.9972 10.2502 15.7422C10.1246 15.3331 9.95719 14.9137 9.73917 14.5233C9.6355 14.3374 9.53412 14.1565 9.40721 13.9909C9.27057 13.8206 9.29408 13.5655 9.48918 13.4154ZM9.96974 13.5704C9.85956 13.4272 9.68061 13.4152 9.56383 13.5092L9.56273 13.5101C9.41913 13.6202 9.40696 13.7994 9.50107 13.9163L9.50196 13.9174C9.63522 14.0911 9.74069 14.2798 9.84387 14.4649M9.96974 13.5704C10.1116 13.7625 10.2284 13.9706 10.3466 14.1825C10.5947 14.6264 10.7901 15.0994 10.9199 15.5749C10.9369 15.7163 10.8709 15.8664 10.7657 15.9251L10.6919 15.9662C10.5615 16.0121 10.3892 15.9178 10.3688 15.7237L10.37 15.7236L10.3665 15.7124C10.2387 15.2954 10.0678 14.8658 9.84387 14.4649" fill="black"/>
<path d="M17.7691 21.2001C17.8515 21.2232 17.9035 21.1942 17.9563 21.1645C18.0617 21.1059 18.1382 20.9938 18.1468 20.8847C18.1831 20.2062 18.134 19.4354 17.991 18.6826C17.9547 18.4941 17.7718 18.3541 17.558 18.4048C17.3695 18.4411 17.2294 18.624 17.2802 18.8378C17.4202 19.522 17.4663 20.2249 17.4415 20.8636C17.4359 21.0399 17.5661 21.2097 17.7691 21.2008L17.7691 21.2001Z" fill="black"/>
<path fill-rule="evenodd" clip-rule="evenodd" d="M17.5451 18.3455C17.794 18.2871 18.0074 18.4515 18.0496 18.6706L18.0496 18.6707C18.1934 19.4281 18.2429 20.2038 18.2063 20.8872L18.2062 20.8887L18.2062 20.8887C18.1959 21.0202 18.1059 21.149 17.9852 21.2161C17.9852 21.2162 17.9851 21.2162 17.9851 21.2162L17.984 21.2168C17.9323 21.2459 17.8646 21.284 17.7646 21.2602C17.5242 21.2668 17.3748 21.0635 17.3813 20.861L17.3813 20.8606C17.4059 20.2265 17.3601 19.5287 17.2213 18.85C17.1628 18.6014 17.3265 18.3882 17.5451 18.3455ZM17.7086 21.1365L17.7086 21.1203L17.7849 21.1417C17.8422 21.1577 17.875 21.1406 17.9265 21.1116L17.9268 21.1114C18.0167 21.0614 18.0795 20.9665 18.0866 20.88C18.1225 20.2067 18.0738 19.441 17.9318 18.6932C17.9014 18.5357 17.7496 18.4202 17.5715 18.4624L17.569 18.463L17.569 18.463C17.4114 18.4933 17.2959 18.6451 17.3382 18.8233L17.3386 18.8251L17.3386 18.8251C17.4796 19.5143 17.526 20.222 17.5011 20.865C17.4971 20.9948 17.5795 21.1138 17.7086 21.1365Z" fill="black"/>
<path d="M13.668 11.1629C13.4679 11.2396 13.4102 11.4456 13.4718 11.619C13.5631 11.8457 13.6818 12.0573 13.799 12.2676C14.0501 12.7168 14.354 13.1357 14.6968 13.4995C14.7973 13.6165 14.9881 13.6482 15.1463 13.5599L15.2257 13.5157C15.3549 13.374 15.3714 13.1565 15.2564 13.0135C14.9446 12.703 14.6958 12.3217 14.4743 11.9252C14.3709 11.7403 14.2681 11.5554 14.1906 11.3547C14.0604 11.1849 13.8667 11.0847 13.6673 11.1622L13.668 11.1629Z" fill="black"/>
<path fill-rule="evenodd" clip-rule="evenodd" d="M13.6456 11.1071C13.8796 11.0161 14.0993 11.1379 14.2382 11.319L14.2434 11.3258L14.2466 11.3339C14.3223 11.5301 14.423 11.7114 14.5267 11.8967C14.747 12.2913 14.9927 12.6671 15.2987 12.9718L15.3034 12.9765C15.4391 13.1453 15.4167 13.3961 15.27 13.5569L15.2634 13.5642L15.1755 13.613M13.5669 11.1478L13.5595 11.1405L13.6456 11.1071M13.7137 11.2103L13.6895 11.2196C13.5268 11.2821 13.4754 11.449 13.5279 11.5986C13.6162 11.8175 13.7306 12.0226 13.8463 12.23L13.8514 12.2391C14.1002 12.6843 14.4012 13.0991 14.7404 13.4592L14.7423 13.4612C14.822 13.554 14.9807 13.5844 15.1171 13.5083L15.1877 13.4691C15.2928 13.3474 15.302 13.1694 15.2116 13.0543C14.8953 12.7385 14.644 12.3526 14.422 11.9552C14.3202 11.7733 14.2167 11.5874 14.1379 11.3853C14.023 11.2392 13.868 11.1636 13.7137 11.2103Z" fill="black"/>
<path d="M16.1974 14.5994C16.0276 14.7296 16.0098 14.9471 16.0988 15.106C16.3578 15.4461 16.5793 15.8426 16.8014 16.2384C16.9194 16.45 17.038 16.6616 17.1286 16.887C17.2054 17.0871 17.4113 17.1448 17.6121 17.068L17.6388 17.0528C17.7977 16.9638 17.856 16.7578 17.793 16.5845C17.7018 16.3577 17.5686 16.1208 17.4355 15.8825C17.1989 15.4593 16.9362 15.0519 16.6888 14.6706C16.5744 14.5269 16.3417 14.4837 16.198 14.5994L16.1974 14.5994Z" fill="black"/>
<path fill-rule="evenodd" clip-rule="evenodd" d="M16.1778 14.5399C16.3516 14.417 16.6082 14.4735 16.7355 14.6336L16.7392 14.6381C16.9866 15.0193 17.25 15.4284 17.4877 15.8535C17.4908 15.859 17.4938 15.8645 17.4969 15.87C17.6265 16.102 17.7577 16.3367 17.8485 16.5624L17.8493 16.5643C17.9204 16.7601 17.857 16.9994 17.6681 17.1053C17.6681 17.1054 17.6682 17.1053 17.6681 17.1053L17.6336 17.125C17.5226 17.1674 17.406 17.1736 17.3041 17.1383C17.2011 17.1027 17.1173 17.0254 17.0726 16.9093C16.9852 16.6919 16.871 16.487 16.7547 16.2785L16.749 16.2681L16.7399 16.2519C16.5203 15.8607 16.3035 15.4742 16.051 15.1426L16.0458 15.1359C15.9446 14.9552 15.9638 14.7032 16.1607 14.5522L16.1778 14.5399ZM16.64 14.7061C16.5424 14.586 16.3486 14.5554 16.2355 14.6465L16.2191 14.6596C16.0918 14.769 16.0773 14.9419 16.149 15.0735C16.4055 15.411 16.6251 15.8024 16.8424 16.1895L16.8535 16.2094C16.856 16.2138 16.8586 16.2184 16.861 16.2229C16.9763 16.4295 17.0938 16.6403 17.1841 16.865C17.2162 16.9488 17.2741 17.001 17.3433 17.025C17.4128 17.049 17.4981 17.0467 17.5864 17.0139L17.609 17.001C17.7375 16.929 17.7911 16.7569 17.7369 16.6062C17.649 16.388 17.5212 16.1594 17.3902 15.925L17.383 15.912C17.148 15.4917 16.887 15.0868 16.64 14.7061Z" fill="black"/>
<path d="M13.8296 16.3272C14.0145 16.2237 14.0729 16.0177 13.9694 15.8335L12.8463 13.8252C12.7429 13.6403 12.5369 13.5819 12.3527 13.6854C12.1685 13.7889 12.1095 13.9948 12.2129 14.179L13.336 16.1874C13.4381 16.373 13.6441 16.4307 13.8296 16.3272Z" fill="black"/>
<path fill-rule="evenodd" clip-rule="evenodd" d="M12.3238 13.6325C12.5371 13.5127 12.7796 13.5816 12.8992 13.7953L14.0222 15.8036C14.0221 15.8036 14.0222 15.8036 14.0222 15.8036C14.1419 16.0168 14.073 16.2593 13.8594 16.3789C13.6453 16.4983 13.4025 16.4309 13.2841 16.2159C13.284 16.2159 13.2841 16.216 13.2841 16.2159L12.1612 14.2078C12.1612 14.2078 12.1612 14.2078 12.1612 14.2078M12.7945 13.8538C12.7071 13.6977 12.5377 13.6499 12.3826 13.7371C12.2269 13.8245 12.1786 13.9941 12.2657 14.1491L13.3888 16.1576C13.4747 16.3136 13.6439 16.3618 13.8009 16.2742C13.957 16.1868 14.0048 16.0175 13.9176 15.8623L12.7945 13.8538C12.7945 13.8538 12.7945 13.8538 12.7945 13.8538Z" fill="black"/>
<path d="M16.0777 20.3438C16.2626 20.2403 16.3209 20.0343 16.2174 19.8501L15.0944 17.8418C14.9909 17.6569 14.7849 17.5985 14.6008 17.702C14.4166 17.8055 14.3575 18.0114 14.461 18.1956L15.584 20.204C15.6861 20.3896 15.8921 20.4473 16.0777 20.3438Z" fill="black"/>
<path fill-rule="evenodd" clip-rule="evenodd" d="M14.5709 17.6491C14.7842 17.5293 15.0267 17.5982 15.1462 17.8119L16.2692 19.8202C16.389 20.0334 16.3201 20.2759 16.1065 20.3955C15.8924 20.5149 15.6495 20.4475 15.5311 20.2325C15.5311 20.2325 15.5312 20.2326 15.5311 20.2325L14.4082 18.2244C14.4082 18.2244 14.4082 18.2244 14.4082 18.2244M15.0416 17.8704C14.9542 17.7143 14.7848 17.6665 14.6296 17.7537C14.474 17.8411 14.4257 18.0107 14.5128 18.1657L15.6359 20.1742C15.7217 20.3302 15.891 20.3784 16.048 20.2908C16.2041 20.2035 16.2518 20.0341 16.1647 19.8789L15.0416 17.8704C15.0416 17.8704 15.0416 17.8704 15.0416 17.8704Z" fill="black"/>
<path d="M93.5445 20.3169V8.97317H89.9941V5.42285H101.295V8.97317H97.7875V20.3169H93.5445Z" fill="white"/>
<path d="M83.2653 20.5767C82.0963 20.5767 81.0932 20.389 80.2562 20.0138C79.4191 19.6386 78.7696 19.0396 78.3078 18.217C77.8604 17.3944 77.6367 16.3192 77.6367 14.9914V5.42285H81.8798V15.0996C81.8798 15.7058 81.9736 16.1965 82.1612 16.5717C82.3633 16.947 82.7241 17.1346 83.2436 17.1346C83.7632 17.1346 84.124 16.947 84.326 16.5717C84.5425 16.1965 84.6508 15.7058 84.6508 15.0996V5.42285H88.8938V14.9914C88.8938 16.3192 88.6701 17.3944 88.2227 18.217C87.7753 19.0396 87.1331 19.6386 86.296 20.0138C85.459 20.389 84.4487 20.5767 83.2653 20.5767Z" fill="white"/>
<path d="M64.5049 20.3169V5.42285H68.4016L70.8478 10.2071C70.92 10.3514 71.0066 10.5246 71.1076 10.7267C71.2231 10.9287 71.3313 11.138 71.4323 11.3545C71.5478 11.571 71.6416 11.773 71.7138 11.9606L71.822 11.939C71.822 11.6359 71.822 11.3328 71.822 11.0298C71.822 10.7123 71.822 10.438 71.822 10.2071V5.42285H75.8053V20.3169H71.9086L69.2675 15.3161C69.1232 15.0275 68.9933 14.7461 68.8778 14.4718C68.7768 14.1832 68.6758 13.909 68.5748 13.6492L68.4665 13.6709C68.481 13.9451 68.4882 14.2337 68.4882 14.5368C68.4882 14.8254 68.4882 15.0852 68.4882 15.3161V20.3169H64.5049Z" fill="white"/>
<path d="M50.458 20.3169L54.2681 5.42285H59.8317L63.6418 20.3169H59.1606L58.7493 18.1521H55.2206L54.8093 20.3169H50.458ZM55.8484 14.8615H58.1215L57.5803 11.8524C57.5514 11.7081 57.5154 11.5205 57.4721 11.2895C57.4432 11.0586 57.3999 10.8133 57.3422 10.5535C57.2989 10.2793 57.2556 10.0123 57.2123 9.75251C57.169 9.4783 57.1257 9.23295 57.0824 9.01647H56.8876C56.8587 9.29068 56.8154 9.60097 56.7577 9.94734C56.6999 10.2793 56.6422 10.6112 56.5845 10.9432C56.5267 11.2751 56.469 11.5782 56.4113 11.8524L55.8484 14.8615Z" fill="white"/>
<path d="M39.9502 20.3169V5.42285H49.9734V8.88658H44.1933V11.0514H49.0641V14.4718H44.1933V16.8532H50.1032V20.3169H39.9502Z" fill="white"/>
<path d="M28 20.3169V5.42285H34.711C35.6491 5.42285 36.4284 5.63212 37.049 6.05065C37.6696 6.46919 38.1314 7.05369 38.4345 7.80416C38.7376 8.55464 38.8891 9.42779 38.8891 10.4236C38.8891 11.4627 38.7303 12.372 38.4128 13.1513C38.0953 13.9306 37.6191 14.5368 36.984 14.9698C36.3635 15.4027 35.5913 15.6192 34.6677 15.6192H32.2431V20.3169H28ZM32.2431 12.307H33.5853C33.9605 12.307 34.2275 12.141 34.3862 11.8091C34.545 11.4772 34.6244 11.0514 34.6244 10.5318C34.6244 10.171 34.5883 9.86075 34.5161 9.60097C34.4584 9.34119 34.3502 9.13914 34.1914 8.99482C34.0471 8.8505 33.845 8.77834 33.5853 8.77834H32.2431V12.307Z" fill="white"/>
</svg>
