<svg width="175" height="200" viewBox="0 0 175 200" fill="none" xmlns="http://www.w3.org/2000/svg">
<path d="M40.7868 0.171157C44.1617 -0.0137212 47.7699 -0.0587299 51.1553 0.0850483C75.2446 1.10806 95.5288 14.161 119.743 15.4862C137.461 16.4559 154.16 12.144 169.279 3.05576C170.258 2.76546 171.343 3.12366 171.577 4.19094C172.167 6.87946 171.729 10.8673 171.819 13.7191C172.76 43.5255 173.948 73.4883 174.314 103.321C174.335 105.029 174.996 106.268 173.693 107.88C172.448 109.42 167.055 112.531 165.107 113.638C146.557 124.184 127.6 127.142 106.507 123.521C90.2077 120.723 75.4853 113.157 59.0171 110.93C41.948 108.621 27.3481 111.123 11.8185 118.14C10.2749 118.837 7.54593 120.622 6.14501 120.988C3.7507 121.615 3.16908 119.872 3.01223 117.872C2.51873 111.579 2.81568 104.685 2.61251 98.3141C1.79556 72.696 0.882954 47.0648 0.325699 21.394C0.272957 18.9643 -0.293777 15.3244 0.201671 12.9714C0.27119 12.6412 0.451245 12.2368 0.639346 11.9539C1.2245 11.0735 5.09957 9.19563 6.27145 8.6466C16.3525 3.9238 29.6624 0.780572 40.7868 0.171157ZM84.23 110.562C84.3957 110.675 84.5439 111.023 84.8936 111.246C85.6504 111.728 87.1435 112.381 87.9889 111.986C110.478 98.188 135.616 85.5939 155.408 67.9734C157.187 66.3895 159.655 64.7896 156.846 62.5792C152.704 59.3201 147.459 56.1882 143.073 53.0678C128.463 42.6731 114.047 32.0121 99.3394 21.7526C96.0843 19.482 92.0127 16.1906 88.6543 14.351C86.5791 13.2143 86.2901 13.8251 84.3735 14.818C70.4352 22.0388 55.5125 31.857 42.4917 40.7091C34.115 46.4039 23.6814 53.4087 16.5303 60.4838C15.3923 61.6097 14.9411 62.5695 16.3412 63.7962C18.817 65.9655 24.0873 68.5238 27.1176 70.4827C46.7029 83.1426 64.9543 97.5236 84.23 110.562Z" fill="#177D32"/>
<path d="M84.2277 110.562C64.9521 97.5227 46.7006 83.1417 27.1153 70.4818C24.085 68.5229 18.8147 65.9645 16.3389 63.7953C14.9388 62.5686 15.39 61.6088 16.528 60.4829C23.6791 53.4078 34.1127 46.403 42.4895 40.7082C55.5102 31.8561 70.4329 22.0379 84.3712 14.8171C86.2878 13.8242 86.5768 13.2134 88.652 14.3501C92.0104 16.1897 96.082 19.4811 99.3371 21.7517C114.045 32.0112 128.461 42.6722 143.071 53.0669C147.457 56.1873 152.702 59.3191 156.844 62.5783C159.653 64.7887 157.184 66.3885 155.405 67.9725C135.614 85.593 110.476 98.187 87.9866 111.985C87.1413 112.38 85.6481 111.727 84.8913 111.245C84.5416 111.022 84.3934 110.674 84.2277 110.562ZM153.322 64.7512L87.0979 17.9691C86.5288 17.9127 82.3294 20.3651 81.4609 20.8462C70.3877 26.9804 59.2457 33.8949 48.6889 40.8787C38.8964 47.357 29.2104 54.0625 20.4841 61.9408C33.8581 70.4143 46.9497 79.2958 59.8379 88.4849C68.9664 94.9933 77.7651 102.041 87.3177 107.91C108.451 95.5349 130.678 83.6282 149.68 68.0683C150.825 67.1311 152.121 66.1835 153.191 65.18C153.337 65.0425 153.437 64.8924 153.322 64.7512Z" fill="#020301"/>
<path d="M153.322 64.7508C153.437 64.8921 153.337 65.0421 153.191 65.1797C152.121 66.1831 150.825 67.1308 149.68 68.068C130.678 83.6279 108.451 95.5345 87.3179 107.91C77.7654 102.041 68.9667 94.993 59.8381 88.4845C46.9499 79.2954 33.8584 70.414 20.4844 61.9404C29.2107 54.0621 38.8967 47.3567 48.6892 40.8784C59.246 33.8945 70.3879 26.9801 81.4612 20.8458C82.3297 20.3647 86.5291 17.9124 87.0982 17.9687L153.322 64.7508ZM85.9231 28.0119C63.8424 28.5745 48.9329 51.2577 55.0951 72.0225C62.549 97.1395 94.5952 105.61 112.476 85.331C131.077 64.2346 114.49 27.2841 85.9231 28.0119Z" fill="#FFCC00"/>
<path d="M85.9257 28.0125C114.493 27.2847 131.08 64.2353 112.478 85.3317C94.5979 105.61 62.5516 97.1402 55.0977 72.0232C48.9355 51.2584 63.845 28.5751 85.9257 28.0125ZM116.528 61.0043C116.12 57.8639 115.526 54.7729 114.398 51.8067C106.617 31.3499 82.2209 25.0359 66.0969 40.3072C64.1801 42.1226 62.2114 44.5038 61.2347 46.9752C79.4543 45.5186 97.6681 48.3306 112.937 58.6725C113.411 58.9931 116.246 61.2884 116.528 61.0043ZM57.9031 57.4719C58.1343 57.7054 63.5666 56.8842 64.4438 56.8389C75.3906 56.2733 86.9166 58.0997 96.9809 62.3633C104.064 65.3638 110.342 69.4801 116.46 74.081C116.896 74.1237 117.431 72.7528 117.605 72.3717C118.068 71.3603 119.352 68.2289 118.827 67.3348C110.286 58.0579 98.7252 53.0268 86.4235 50.8841C79.4187 49.6641 71.5526 48.9852 64.4544 49.5733C63.3779 49.6625 60.7623 49.8542 59.8786 50.1949C59.1515 50.4751 58.6142 52.6966 58.4216 53.5193C58.2912 54.076 57.6751 57.2416 57.9031 57.4719ZM57.303 60.6117C55.8107 84.5601 83.2837 102.022 103.875 88.1626C108.276 85.2003 111.903 81.0303 114.218 76.2464L114.034 75.8778C104.182 68.1443 92.7301 62.3202 80.2178 60.4162C74.9957 59.6216 69.9064 59.6935 64.6582 59.9638C62.1993 60.0904 59.731 60.1028 57.303 60.6117Z" fill="#020301"/>
<path d="M57.3005 60.6117C59.7285 60.1028 62.1968 60.0904 64.6557 59.9637C69.9039 59.6935 74.9932 59.6215 80.2152 60.4162C92.7276 62.3202 104.18 68.1443 114.032 75.8778L114.216 76.2464C111.9 81.0302 108.274 85.2003 103.873 88.1626C83.2811 102.022 55.8082 84.5601 57.3005 60.6117ZM69.3115 71.584C69.7927 70.8323 68.9712 69.744 69.156 69.0535C69.3924 68.1697 71.5124 68.4309 71.203 67.3558C71.0281 66.748 68.8012 67.0667 68.2804 66.3221C67.8686 65.7334 68.3201 64.397 67.6729 64.0073C66.4812 63.29 66.4822 65.875 65.4417 66.1689C64.8456 66.3373 62.3661 65.4231 62.4863 66.9366C62.5567 67.8233 64.2218 67.7974 64.7577 68.3853C64.143 68.9877 63.1626 70.5152 64.0151 71.2123C64.8981 71.9343 65.8797 70.3774 66.7377 70.3759C67.6824 70.3743 68.1395 72.0395 69.3115 71.584ZM88.4884 68.2552C88.226 68.0854 88.2392 65.859 87.1139 65.9799C86.3694 66.0599 86.2807 67.4747 85.7566 67.7596C85.1702 68.0782 83.2503 67.8273 83.2573 68.802C83.2753 69.5455 84.7898 69.7112 84.8978 70.2844C84.9634 70.6329 83.2712 72.9506 85.2255 72.6476C85.9643 72.5331 86.1466 71.6449 87.3689 72.181C87.8665 72.3993 88.5477 73.5296 89.0991 72.7683C89.6698 71.9802 88.9425 71.1092 89.1115 70.5078C89.2831 69.8973 90.7536 69.6176 90.76 69.0126C90.5914 67.8019 88.9017 68.5228 88.4884 68.2552ZM103.674 78.0183C103.304 77.7778 103.557 74.188 101.974 76.0771C101.619 76.5007 101.353 77.5416 100.936 77.7419C100.295 78.0499 98.8411 77.5691 98.4237 78.1965C97.6454 79.3665 99.8841 79.8052 100.076 80.4861C100.214 80.9742 99.1118 83.2921 100.005 83.4575C100.571 83.5622 102.265 81.8738 103.216 82.3116C103.601 82.489 104.575 84.1696 105.209 83.2609C105.814 82.3938 104.323 81.3766 104.497 80.6949C104.821 79.4267 107.233 80.2026 106.74 78.6008C106.551 77.9845 104.212 78.3683 103.674 78.0183ZM75.9855 76.3901C75.2747 75.9062 74.7302 77.8274 74.0568 78.1101C73.3591 78.403 71.9461 77.5609 71.6508 78.6162C71.3198 79.7994 73.0968 79.8954 73.1831 80.5192C73.2912 81.3017 72.1538 82.6063 72.8721 83.6653C73.2817 83.9504 74.7697 82.2834 75.0828 82.2276C75.576 82.1395 76.104 83.5385 76.9188 83.4728C78.0152 83.3845 76.9685 81.8434 77.0649 81.1119C77.1529 80.4445 77.95 80.341 78.2853 79.8296C79.1335 78.5364 76.9029 78.9252 76.5046 78.4712C76.2138 78.1397 76.1323 76.49 75.9855 76.3901ZM91.7849 82.0031C91.0147 81.4878 90.6536 83.5199 90.1262 83.7712C89.5688 84.0367 87.8776 83.6337 87.6439 84.4138C87.3999 85.2283 88.8511 85.197 89.0542 85.893C89.2337 86.5081 88.6695 87.5204 88.8782 88.2396C89.625 88.4918 90.3229 87.4777 90.8886 87.4473C91.4494 87.4172 92.0349 88.5158 92.7182 88.4627C93.7393 88.3834 92.8131 86.8566 93.0679 86.09C93.2413 85.5681 94.1863 85.6386 94.5084 85.243C95.4204 84.1227 93.143 84.3627 92.5041 83.8847C91.9726 83.4871 91.8777 82.0652 91.7849 82.0031Z" fill="#013690"/>
<path d="M57.8997 57.4709C57.6718 57.2406 58.2878 54.0749 58.4182 53.5183C58.6108 52.6955 59.1481 50.4741 59.8752 50.1938C60.7589 49.8532 63.3745 49.6615 64.451 49.5723C71.5493 48.9842 79.4153 49.663 86.4201 50.8831C98.7218 53.0258 110.282 58.0568 118.824 67.3337C119.349 68.2279 118.064 71.3593 117.602 72.3707C117.427 72.7518 116.893 74.1227 116.457 74.0799C110.338 69.479 104.06 65.3628 96.9775 62.3623C86.9132 58.0986 75.3872 56.2723 64.4404 56.8379C63.5632 56.8832 58.1309 57.7044 57.8997 57.4709ZM68.2971 54.1439C68.8596 54.3621 69.4272 55.5727 70.0563 55.3902C71.0046 55.115 69.8128 53.7883 69.781 53.5874C69.732 53.2773 70.6882 52.5862 70.331 51.3808C69.9993 50.2612 67.7181 49.8269 67.0273 50.6933C66.5685 51.2687 66.7058 55.2754 67.0326 55.5105C67.7932 56.0576 68.5628 54.9352 68.2971 54.1439ZM71.5459 50.2239C71.2747 50.3131 71.2482 50.4604 71.2042 50.7124C71.0958 51.3337 70.8795 54.3837 71.0318 54.8373C71.3506 55.7869 73.6197 55.5175 74.3256 54.6654C76.162 52.4484 74.1938 49.3527 71.5459 50.2239ZM76.82 51.6499C81.0814 52.384 77.1745 49.5323 75.8778 50.8124C75.4963 51.189 75.4229 54.7377 75.5997 55.2589C75.8203 55.909 78.8345 56.2623 78.1751 54.9711C77.7093 54.059 76.1519 55.289 76.6097 53.5192C78.9415 53.8661 79.3251 52.3115 76.8176 52.4794L76.82 51.6499ZM65.103 51.3074C62.8783 49.2893 60.3654 52.6479 62.1526 54.9851C64.204 57.6677 67.9931 53.9292 65.103 51.3074ZM80.5362 51.0533C79.0331 50.1188 78.9043 55.1337 79.1392 55.8772C79.5676 57.2334 80.765 54.9449 80.3548 54.1439C81.0186 54.5468 81.1839 55.3129 82.0837 54.771C82.2688 54.6595 82.1112 54.273 82.4296 54.3529C82.4159 54.9022 81.7718 56.9745 82.9332 56.6215C83.5299 56.4402 84.2315 52.2787 84.0725 51.786C83.5308 50.1071 81.8497 53.7195 81.3939 53.3125C81.4106 52.9679 80.6388 51.1171 80.5362 51.0533ZM86.3827 54.5619C91.0658 55.3653 86.5393 52.5792 85.5489 53.1946C85.1604 53.436 84.5274 56.4882 84.7451 56.8206C84.8778 57.0232 87.2666 57.426 87.4221 57.2613C87.8261 55.8053 86.1114 56.7409 85.9679 55.5993L87.7317 56.0164C87.924 56.0082 87.8615 55.6428 87.813 55.5193C87.5485 54.8448 86.6388 55.0689 86.3827 54.5619ZM93.2441 55.1824C93.8088 53.7074 91.6024 52.6859 90.5382 53.207C89.9037 53.5178 88.5537 57.7756 88.8774 58.0941C90.1282 58.4667 89.9279 56.9937 90.3221 56.7331C90.7685 56.4379 92.239 56.8744 92.8242 56.015C93.1111 56.3872 91.1479 58.942 92.5181 58.9335C93.2459 58.9289 93.3599 56.983 93.8628 57.4708C94.1507 57.75 94.1082 60.137 95.0075 59.7554C95.6986 59.4622 95.1215 58.1371 95.1814 57.768C95.233 57.4497 97.0661 56.9262 96.5255 55.1227C96.2694 54.2682 94.552 53.8309 93.8618 54.2448C93.5045 54.459 93.6476 55.1453 93.2441 55.1824ZM100.105 58.9254C101.23 55.3266 97.5625 54.6598 96.1158 57.7454C95.0918 59.9294 96.1214 61.4202 98.4475 60.4922L99.685 59.5505C98.2262 62.0138 101.385 63.9896 102.898 61.618C104.104 59.7262 101.217 59.6071 101.374 60.4535C101.406 60.6235 101.814 60.8357 101.767 61.103C101.668 61.6688 99.944 61.6981 100.676 60.0174C100.791 59.7528 101.669 58.8088 101.913 58.7451C102.323 58.6377 104.437 60.2625 103.967 58.504C103.502 56.7646 100.739 57.808 100.105 58.9254ZM105.716 64.3306C105.675 63.9772 105.636 62.6213 105.703 62.3799C105.749 62.2123 107.27 62.1455 107.191 60.2723C107.146 59.2018 106.066 58.3773 105.096 58.8223C104.725 58.9924 102.593 62.7782 102.596 63.1979C102.598 63.6911 103.248 63.8689 103.601 63.6671C103.824 63.5399 104.085 62.3535 104.466 62.2527C104.593 63.1516 104.39 65.0909 105.716 64.3306C105.819 65.2418 107.012 66.2128 107.888 66.1971C108.124 66.1928 108.284 66.0203 108.418 65.9938C108.484 66.1447 108.433 66.4712 108.573 66.7655C109.285 68.2588 111.376 67.889 111.471 66.0683C111.492 65.6811 110.702 63.8946 111.639 64.1227C111.894 64.1848 111.817 64.9873 112.47 64.7444C113.714 63.1524 111.435 62.126 110.398 63.504C109.592 64.5753 110.087 65.2798 110.288 66.4085C109.246 66.1218 109.54 65.7716 108.418 65.9938C108.313 65.7506 108.344 65.6496 108.123 65.3627C107.556 64.63 106.795 65.0003 107.381 63.7076C107.599 63.5512 108.995 64.9358 109.249 64.0146C109.453 63.2773 108.208 62.8971 108.199 62.7475C108.092 61.1247 109.907 63.2001 110.403 62.4689C110.952 61.6595 109.381 60.6245 108.71 60.5862C107.455 60.5145 106.632 63.805 105.716 64.3306ZM113.977 64.7786C112.117 65.1099 113.14 67.4864 112.892 67.867C112.452 68.5412 111.418 66.8279 111.136 67.7867C110.77 69.0369 113.136 70.4711 113.873 68.6429C114.205 67.8173 113.793 66.5944 113.922 66.4082C114.326 65.8251 114.763 66.5497 114.999 66.5917C115.892 66.7502 115.649 64.481 113.977 64.7786ZM116.056 66.8706C113.666 67.3448 112.906 71.8253 115.784 71.3897C118.075 71.043 118.843 66.3176 116.056 66.8706Z" fill="#F6F6F6"/>
<path d="M116.526 61.004C116.244 61.2881 113.408 58.9928 112.935 58.6722C97.6657 48.3303 79.452 45.5183 61.2324 46.9749C62.2091 44.5035 64.1778 42.1223 66.0946 40.3069C82.2186 25.0356 106.614 31.3496 114.396 51.8064C115.524 54.7726 116.118 57.8636 116.526 61.004ZM100.936 41.0467C97.7661 41.5922 98.9987 39.9073 97.505 38.3485C96.8605 38.6721 96.5653 40.2811 96.1562 40.5303C95.7572 40.7734 92.461 40.3974 93.2887 41.8378C93.3955 42.0238 94.4437 42.3534 94.643 42.5557C95.4368 43.3618 93.9026 44.611 94.386 45.6183C94.9795 46.8552 96.6282 44.5204 97.0609 44.5961C97.5524 44.6821 98.3095 46.4271 99.0695 45.9441C99.9533 45.3824 98.9245 43.8322 99.088 43.2623C99.2801 42.5926 101.542 42.3627 100.936 41.0467Z" fill="#013690"/>
<path d="M103.671 78.0181C104.21 78.3681 106.549 77.9844 106.738 78.6007C107.231 80.2024 104.819 79.4265 104.495 80.6947C104.321 81.3764 105.811 82.3936 105.206 83.2607C104.573 84.1694 103.599 82.4889 103.214 82.3114C102.263 81.8736 100.569 83.562 100.003 83.4573C99.1096 83.2919 100.212 80.9741 100.074 80.4859C99.882 79.8051 97.6432 79.3664 98.4216 78.1963C98.8389 77.5689 100.293 78.0498 100.934 77.7417C101.351 77.5414 101.617 76.5005 101.972 76.0769C103.555 74.1879 103.302 77.7776 103.671 78.0181Z" fill="#F6F6F6"/>
<path d="M69.3138 71.5834C68.1418 72.0388 67.6848 70.3735 66.74 70.3751C65.882 70.3766 64.9004 71.9336 64.0174 71.2116C63.1649 70.5145 64.1453 68.987 64.76 68.3846C64.2241 67.7966 62.559 67.8226 62.4886 66.9358C62.3685 65.4223 64.8479 66.3366 65.444 66.1682C66.4845 65.8743 66.4835 63.2893 67.6752 64.0066C68.3224 64.3962 67.8709 65.7326 68.2827 66.3214C68.8035 67.066 71.0304 66.7473 71.2053 67.355C71.5147 68.4302 69.3947 68.169 69.1583 69.0528C68.9735 69.7433 69.795 70.8317 69.3138 71.5834Z" fill="#F6F6F6"/>
<path d="M88.4889 68.2552C88.9022 68.5227 90.592 67.8019 90.7605 69.0126C90.7541 69.6176 89.2836 69.8973 89.112 70.5078C88.943 71.1091 89.6704 71.9802 89.0996 72.7683C88.5482 73.5296 87.8671 72.3993 87.3694 72.181C86.1472 71.6449 85.9648 72.5331 85.226 72.6476C83.2717 72.9505 84.9639 70.6329 84.8983 70.2843C84.7903 69.7112 83.2758 69.5455 83.2578 68.8019C83.2508 67.8273 85.1708 68.0782 85.7571 67.7595C86.2812 67.4747 86.3699 66.0598 87.1144 65.9798C88.2397 65.8589 88.2265 68.0854 88.4889 68.2552Z" fill="#F6F6F6"/>
<path d="M75.987 76.3898C76.1338 76.4897 76.2153 78.1394 76.5062 78.4709C76.9044 78.9249 79.135 78.5361 78.2869 79.8293C77.9515 80.3407 77.1544 80.4442 77.0664 81.1116C76.9701 81.8431 78.0167 83.3841 76.9204 83.4725C76.1055 83.5382 75.5775 82.1392 75.0843 82.2273C74.7713 82.2831 73.2832 83.9501 72.8737 83.665C72.1554 82.606 73.2927 81.3014 73.1846 80.5189C73.0983 79.8951 71.3214 79.7991 71.6524 78.616C71.9476 77.5606 73.3606 78.4027 74.0583 78.1098C74.7317 77.8271 75.2762 75.9059 75.987 76.3898Z" fill="#F6F6F6"/>
<path d="M91.7857 82.0027C91.8786 82.0648 91.9734 83.4868 92.5049 83.8844C93.1439 84.3624 95.4213 84.1224 94.5092 85.2428C94.1872 85.6383 93.2422 85.5678 93.0687 86.0897C92.814 86.8563 93.7402 88.3831 92.719 88.4624C92.0358 88.5155 91.4503 87.4169 90.8894 87.447C90.3238 87.4774 89.6259 88.4915 88.8791 88.2393C88.6704 87.5201 89.2346 86.5078 89.055 85.8927C88.8519 85.1967 87.4007 85.228 87.6447 84.4135C87.8785 83.6334 89.5697 84.0364 90.127 83.7709C90.6545 83.5196 91.0155 81.4875 91.7857 82.0027Z" fill="#F6F6F6"/>
<path d="M100.938 41.0464C101.544 42.3624 99.2824 42.5923 99.0903 43.262C98.9268 43.8318 99.9556 45.382 99.0718 45.9438C98.3118 46.4268 97.5547 44.6817 97.0632 44.5958C96.6305 44.5201 94.9818 46.8548 94.3883 45.618C93.9048 44.6107 95.4391 43.3615 94.6453 42.5554C94.446 42.3531 93.3978 42.0235 93.291 41.8375C92.4634 40.3971 95.7595 40.773 96.1585 40.53C96.5676 40.2808 96.8628 38.6718 97.5073 38.3481C99.001 39.907 97.7684 41.5919 100.938 41.0464Z" fill="#F6F6F6"/>
<path d="M100.105 58.9265C100.739 57.809 103.503 56.7657 103.968 58.505C104.438 60.2636 102.324 58.6387 101.913 58.7462C101.67 58.8098 100.792 59.7538 100.677 60.0184C99.9445 61.6992 101.668 61.6698 101.768 61.104C101.815 60.8368 101.406 60.6246 101.375 60.4545C101.217 59.6082 104.104 59.7273 102.898 61.6191C101.386 63.9907 98.2267 62.0148 99.6855 59.5516L98.448 60.4933C96.1219 61.4212 95.0923 59.9305 96.1163 57.7465C97.563 54.6608 101.231 55.3277 100.105 58.9265ZM98.3811 59.4891C98.8542 59.1054 99.692 57.0923 98.7297 56.863C97.8142 56.6448 96.5004 59.2683 96.9847 59.7585C97.1089 59.8843 98.1225 59.6987 98.3811 59.4891Z" fill="#020301"/>
<path d="M93.2443 55.1834C93.6477 55.1463 93.5047 54.46 93.8619 54.2459C94.5522 53.832 96.2695 54.2693 96.5256 55.1238C97.0662 56.9272 95.2332 57.4507 95.1815 57.7691C95.1217 58.1382 95.6987 59.4633 95.0077 59.7565C94.1083 60.1381 94.1509 57.7511 93.8629 57.4719C93.3601 56.9841 93.246 58.93 92.5182 58.9346C91.148 58.9431 93.1112 56.3883 92.8243 56.0161C92.2391 56.8754 90.7686 56.439 90.3222 56.7342C89.928 56.9948 90.1283 58.4678 88.8775 58.0952C88.5538 57.7767 89.9038 53.5189 90.5384 53.2081C91.6025 52.687 93.8089 53.7085 93.2443 55.1834ZM90.7485 55.5991C91.3535 56.1723 93.1053 54.1929 90.9677 54.365C90.9826 54.6307 90.6381 55.4945 90.7485 55.5991ZM94.0738 56.4297C95.997 56.8121 95.2535 54.8852 94.498 55.3988C94.4519 55.4301 94.2644 56.2433 94.0738 56.4297Z" fill="#020301"/>
<path d="M80.5382 51.0546C80.6408 51.1184 81.4126 52.9692 81.3959 53.3137C81.8516 53.7207 83.5327 50.1083 84.0745 51.7873C84.2334 52.2799 83.5319 56.4414 82.9351 56.6228C81.7737 56.9758 82.4178 54.9035 82.4315 54.3541C82.1132 54.2742 82.2708 54.6608 82.0857 54.7723C81.1859 55.3141 81.0206 54.5481 80.3568 54.1452C80.767 54.9462 79.5695 57.2346 79.1411 55.8785C78.9063 55.1349 79.035 50.1201 80.5382 51.0546Z" fill="#020301"/>
<path d="M68.2966 54.1448C68.5623 54.9361 67.7927 56.0585 67.0321 55.5114C66.7052 55.2763 66.568 51.2696 67.0268 50.6941C67.7176 49.8277 69.9988 50.262 70.3305 51.3816C70.6877 52.5871 69.7315 53.2781 69.7805 53.5882C69.8123 53.7892 71.004 55.1159 70.0558 55.391C69.4267 55.5736 68.8591 54.363 68.2966 54.1448ZM68.0879 52.6906C70.0833 52.5961 68.6666 50.7723 67.8794 51.4436C67.8089 51.5039 68.1902 52.4104 68.0879 52.6906Z" fill="#020301"/>
<path d="M71.5472 50.2249C74.1951 49.3537 76.1632 52.4493 74.3268 54.6663C73.621 55.5185 71.3518 55.7879 71.033 54.8382C70.8808 54.3847 71.097 51.3346 71.2054 50.7133C71.2494 50.4613 71.2759 50.3141 71.5472 50.2249ZM73.6521 51.6998C73.4719 51.5208 72.6551 51.3366 72.4733 51.4601C71.2169 56.5109 75.1849 53.2231 73.6521 51.6998Z" fill="#020301"/>
<path d="M65.1044 51.3081C67.9946 53.93 64.2055 57.6685 62.1541 54.9858C60.3669 52.6487 62.8797 49.29 65.1044 51.3081ZM63.4511 51.8788C62.2367 52.1806 63.0634 55.1796 64.4164 54.7469C65.6862 54.3408 64.5018 51.6178 63.4511 51.8788Z" fill="#020301"/>
<path d="M105.716 64.3312C104.39 65.0915 104.593 63.1522 104.466 62.2533C104.086 62.3541 103.824 63.5405 103.602 63.6677C103.248 63.8695 102.599 63.6917 102.596 63.1985C102.593 62.7788 104.725 58.993 105.096 58.8229C106.066 58.3779 107.146 59.2024 107.191 60.2729C107.27 62.1461 105.749 62.2129 105.703 62.3805C105.636 62.6219 105.676 63.9778 105.716 64.3312C106.633 63.8056 107.456 60.5151 108.71 60.5867C109.381 60.6251 110.952 61.66 110.403 62.4695C109.907 63.2006 108.093 61.1252 108.199 62.7481C108.209 62.8977 109.454 63.2779 109.25 64.0152C108.995 64.9364 107.599 63.5517 107.381 63.7082C106.795 65.0008 107.556 64.6306 108.123 65.3633C108.345 65.6501 108.313 65.7512 108.418 65.9944C109.54 65.7722 109.246 66.1224 110.288 66.4091C110.087 65.2803 109.593 64.5759 110.399 63.5045C111.435 62.1266 113.714 63.153 112.47 64.745C111.817 64.9879 111.894 64.1854 111.639 64.1233C110.702 63.8952 111.492 65.6817 111.472 66.0689C111.376 67.8896 109.285 68.2594 108.573 66.766C108.433 66.4717 108.484 66.1453 108.418 65.9944C108.285 66.0209 108.125 66.1934 107.889 66.1976C107.013 66.2134 105.82 65.2424 105.716 64.3312ZM104.885 61.4197C105.793 61.6829 106.697 60.332 105.818 59.9674C105.158 59.6935 104.892 61.0159 104.885 61.4197Z" fill="#020301"/>
<path d="M76.8233 51.6503L76.8209 52.4798C79.3284 52.3118 78.9448 53.8664 76.613 53.5195C76.1552 55.2893 77.7126 54.0593 78.1784 54.9714C78.8379 56.2626 75.8236 55.9093 75.603 55.2592C75.4262 54.738 75.4996 51.1893 75.8812 50.8127C77.1778 49.5326 81.0847 52.3844 76.8233 51.6503Z" fill="#020301"/>
<path d="M116.058 66.8711C118.845 66.3181 118.077 71.0435 115.786 71.3902C112.908 71.8258 113.668 67.3452 116.058 66.8711ZM115.081 70.3546C115.749 70.8298 117.71 68.6651 116.746 67.9552C115.83 67.2802 114.273 69.7798 115.081 70.3546Z" fill="#020301"/>
<path d="M86.3832 54.5637C86.6393 55.0707 87.549 54.8466 87.8135 55.5212C87.862 55.6447 87.9245 56.0101 87.7322 56.0183L85.9684 55.6011C86.1119 56.7427 87.8266 55.8072 87.4226 57.2632C87.2671 57.4279 84.8783 57.025 84.7456 56.8224C84.5279 56.4901 85.1609 53.4378 85.5494 53.1965C86.5398 52.5811 91.0664 55.3672 86.3832 54.5637Z" fill="#020301"/>
<path d="M113.979 64.7789C115.651 64.4812 115.893 66.7505 115.001 66.5919C114.764 66.5499 114.328 65.8254 113.923 66.4084C113.794 66.5946 114.207 67.8176 113.874 68.6432C113.138 70.4713 110.771 69.0372 111.138 67.7869C111.419 66.8282 112.454 68.5415 112.893 67.8673C113.141 67.4866 112.119 65.1101 113.979 64.7789Z" fill="#020301"/>
<path d="M98.3793 59.4896C98.1207 59.6992 97.1071 59.8848 96.9829 59.759C96.4986 59.2688 97.8124 56.6452 98.7279 56.8634C99.6902 57.0928 98.8524 59.1059 98.3793 59.4896Z" fill="#F6F6F6"/>
<path d="M90.7464 55.5987C90.6361 55.4942 90.9806 54.6304 90.9657 54.3647C93.1033 54.1926 91.3515 56.1719 90.7464 55.5987Z" fill="#F6F6F6"/>
<path d="M94.0742 56.4301C94.2649 56.2438 94.4523 55.4306 94.4984 55.3992C95.2539 54.8856 95.9974 56.8126 94.0742 56.4301Z" fill="#F6F6F6"/>
<path d="M68.0883 52.6909C68.1906 52.4107 67.8093 51.5042 67.8799 51.444C68.667 50.7726 70.0837 52.5964 68.0883 52.6909Z" fill="#F6F6F6"/>
<path d="M73.6514 51.6999C75.1842 53.2231 71.2162 56.511 72.4726 51.4601C72.6544 51.3366 73.4712 51.5208 73.6514 51.6999Z" fill="#F6F6F6"/>
<path d="M63.4497 51.8794C64.5004 51.6184 65.6849 54.3414 64.415 54.7475C63.062 55.1802 62.2354 52.1811 63.4497 51.8794Z" fill="#F6F6F6"/>
<path d="M104.887 61.42C104.893 61.0162 105.159 59.6938 105.819 59.9677C106.698 60.3323 105.795 61.6832 104.887 61.42Z" fill="#F6F6F6"/>
<path d="M115.083 70.354C114.274 69.7792 115.832 67.2796 116.748 67.9545C117.711 68.6645 115.751 70.8292 115.083 70.354Z" fill="#F6F6F6"/>
<path d="M56.5927 188.12C54.8658 188.12 53.2415 187.448 52.0203 186.227L45.4182 179.625C44.9546 179.16 44.1467 179.162 43.6834 179.625L37.0571 186.251C35.8359 187.472 34.2116 188.144 32.4847 188.144H31.1836L39.5454 196.506C42.1568 199.117 46.3908 199.117 49.0024 196.506L57.388 188.12H56.5927Z" fill="#32BCAD"/>
<path d="M32.4843 164.768C34.2112 164.768 35.8355 165.44 37.0567 166.661L43.683 173.288C44.1602 173.766 44.9394 173.768 45.4178 173.288L52.0199 166.685C53.2412 165.464 54.8654 164.792 56.5923 164.792H57.3876L49.0022 156.406C46.3904 153.795 42.1564 153.795 39.5451 156.406L31.1836 164.768L32.4843 164.768Z" fill="#32BCAD"/>
<path d="M64.3227 171.728L59.2553 166.66C59.1438 166.705 59.0229 166.733 58.8953 166.733H56.5913C55.4002 166.733 54.2341 167.216 53.3924 168.058L46.7905 174.66C46.1727 175.278 45.3608 175.587 44.5498 175.587C43.738 175.587 42.9267 175.278 42.3091 174.661L35.6822 168.034C34.8405 167.192 33.6745 166.709 32.4833 166.709H29.6503C29.5294 166.709 29.4165 166.68 29.3099 166.64L24.2223 171.728C21.6108 174.339 21.6108 178.573 24.2223 181.185L29.3097 186.272C29.4165 186.232 29.5294 186.203 29.6503 186.203H32.4833C33.6745 186.203 34.8405 185.72 35.6822 184.878L42.3085 178.252C43.5062 177.055 45.594 177.055 46.7905 178.253L53.3924 184.854C54.2341 185.696 55.4002 186.179 56.5913 186.179H58.8953C59.0229 186.179 59.1438 186.207 59.2553 186.252L64.3227 181.185C66.9341 178.573 66.9341 174.339 64.3227 171.728Z" fill="#32BCAD"/>
<path d="M74.6309 198.511V171.42C74.6309 166.435 78.6717 162.395 83.6562 162.395L91.655 162.407C96.6251 162.416 100.649 166.448 100.649 171.419V177.185C100.649 182.17 96.6081 186.211 91.6235 186.211H80.3209" stroke="#32BCAD" stroke-width="1.66858" stroke-miterlimit="10" stroke-linecap="round" stroke-linejoin="round"/>
<path d="M102.885 162.391H106.354C108.4 162.391 110.058 164.049 110.058 166.095V186.332" stroke="#32BCAD" stroke-width="1.66858" stroke-miterlimit="10" stroke-linecap="round" stroke-linejoin="round"/>
<path d="M109.316 159.255L107.742 157.681C107.352 157.291 107.352 156.658 107.742 156.267L109.315 154.695C109.706 154.304 110.34 154.304 110.73 154.695L112.303 156.267C112.694 156.658 112.694 157.291 112.303 157.681L110.729 159.255C110.339 159.645 109.706 159.645 109.316 159.255Z" fill="#32BCAD"/>
<path d="M116.715 162.372H120.156C121.926 162.372 123.624 163.075 124.875 164.327L132.924 172.375C133.966 173.418 135.656 173.418 136.699 172.375L144.718 164.356C145.97 163.105 147.667 162.402 149.437 162.402H152.235" stroke="#32BCAD" stroke-width="1.66858" stroke-miterlimit="10" stroke-linecap="round" stroke-linejoin="round"/>
<path d="M116.715 186.155H120.156C121.926 186.155 123.624 185.451 124.875 184.2L132.924 176.152C133.966 175.109 135.656 175.109 136.699 176.152L144.718 184.171C145.97 185.422 147.667 186.125 149.437 186.125H152.235" stroke="#32BCAD" stroke-width="1.66858" stroke-miterlimit="10" stroke-linecap="round" stroke-linejoin="round"/>
</svg>
