<svg width="94" height="161" viewBox="0 0 94 161" fill="none" xmlns="http://www.w3.org/2000/svg">
<path d="M1.90469 1.80664C0.0446852 12.9066 0.0446682 24.1766 1.82467 35.2866C3.57467 46.2366 7.1247 56.9066 12.2347 66.7466C17.1947 76.2966 23.7347 85.0366 31.4947 92.4966C39.1047 99.8266 47.8747 105.987 57.3447 110.687C66.7447 115.347 76.8347 118.647 87.2147 120.227C88.6147 120.437 90.0247 120.627 91.4247 120.787V116.307C80.0347 116.457 68.8247 118.977 58.3647 123.437C48.0447 127.827 38.5347 134.217 30.5647 142.107C26.0447 146.577 22.0247 151.567 18.6147 156.927C17.9647 157.947 18.4047 159.397 19.4147 159.997C20.4947 160.627 21.8247 160.217 22.4747 159.197C25.4247 154.557 28.5247 150.637 32.3847 146.637C34.2547 144.707 36.2147 142.857 38.2547 141.107C40.4047 139.267 42.1647 137.897 44.4547 136.297C53.4147 130.007 63.0147 125.627 73.5747 123.057C75.0747 122.697 76.5847 122.367 78.0947 122.087C78.8347 121.947 79.5747 121.827 80.3147 121.707C80.6647 121.647 81.0147 121.597 81.3647 121.547C81.5247 121.527 81.6747 121.497 81.8347 121.477C81.4547 121.527 82.1047 121.437 82.1847 121.437C85.2447 121.047 88.3247 120.837 91.4147 120.797C92.6247 120.787 93.6547 119.777 93.6547 118.557C93.6547 117.227 92.6247 116.457 91.4147 116.317C89.1247 116.057 86.7147 115.677 84.1947 115.177C81.6847 114.677 79.2047 114.087 76.7447 113.397C74.2847 112.707 71.8547 111.927 69.4547 111.047C66.9747 110.147 64.9547 109.317 62.6747 108.277C58.0547 106.177 53.5947 103.737 49.3447 100.977C44.9947 98.1566 41.2647 95.3267 37.4247 91.8967C29.6147 84.9267 23.2347 77.1167 18.0647 68.0867C12.7347 58.7867 9.03468 48.8567 6.89468 38.2667C5.83468 33.0167 5.24468 28.1267 5.02468 22.7167C4.80468 17.3367 5.02471 11.9466 5.68471 6.59662C5.81471 5.58662 6.01468 4.25665 6.21468 3.00665C6.41468 1.81665 5.90468 0.59664 4.64468 0.24664C3.57468 -0.0433598 2.09467 0.616647 1.88467 1.81665" fill="#241F21"/>
</svg>
