<svg width="64" height="107" viewBox="0 0 64 107" fill="none" xmlns="http://www.w3.org/2000/svg">
<path d="M62.2684 104.687C61.064 90.04 57.3568 75.4226 49.9135 62.6519C43.5562 51.7588 34.3963 42.4084 23.2191 36.4736C17.0153 33.1854 10.329 31.0243 3.35329 30.1779C3.98715 30.5507 4.62102 30.9236 5.25488 31.2964C5.05016 30.9053 4.85759 30.5213 4.65288 30.1302C3.62609 31.1505 2.59681 32.1612 1.57971 33.1791C11.2163 37.6744 22.3333 38.6351 32.5972 35.788C42.4281 33.0636 50.9066 26.8364 56.7815 18.5363C59.9802 14.0189 62.3292 8.85413 63.6162 3.45843C63.8994 2.27962 63.2652 1.02876 62.0738 0.697142C60.9481 0.379508 59.5861 1.0632 59.3125 2.2395C59.0483 3.37206 58.7282 4.48814 58.3643 5.59488C58.1919 6.12513 58 6.6604 57.8057 7.18598C57.7132 7.42691 57.6232 7.67752 57.5211 7.92095C57.4641 8.0597 57.4071 8.19844 57.3501 8.33718C57.3336 8.39311 57.1386 8.83624 57.2669 8.53437C56.366 10.6378 55.2775 12.6556 54.0525 14.5847C53.428 15.5628 52.7547 16.5122 52.057 17.4472C52.0355 17.4837 51.8028 17.7817 51.9946 17.5253C51.925 17.6157 51.8555 17.706 51.7835 17.7867C51.6204 17.9943 51.4547 18.1922 51.2916 18.3998C50.9051 18.8615 50.5161 19.3136 50.115 19.7585C48.5583 21.4845 46.8672 23.0903 45.0534 24.5419C44.933 24.6352 44.8222 24.7259 44.7018 24.8191C44.7018 24.8191 44.4103 25.0496 44.5716 24.9148C44.762 24.7725 44.3884 25.0449 44.3547 25.0743C44.2583 25.1407 44.1715 25.2045 44.0872 25.278C43.6004 25.6315 43.111 25.9753 42.6191 26.3094C41.6497 26.9534 40.6605 27.5611 39.6395 28.1254C38.6016 28.7044 37.5293 29.2304 36.4347 29.7104C36.1834 29.8169 35.9249 29.9356 35.6614 30.0349C35.2965 30.1811 35.925 29.9356 35.5478 30.0747C35.3979 30.1342 35.248 30.1937 35.0957 30.2435C34.5034 30.4694 33.899 30.6881 33.2895 30.8875C30.9749 31.6425 28.5979 32.1968 26.1901 32.5525C26.0302 32.5733 25.8703 32.5941 25.7226 32.622C25.6839 32.6321 25.2817 32.6744 25.604 32.6425C25.3229 32.674 25.0515 32.7031 24.7704 32.7346C24.1355 32.7959 23.498 32.8476 22.8652 32.8773C21.6312 32.939 20.3944 32.9498 19.1546 32.9096C16.3306 32.8154 14.1185 32.5315 11.4353 31.9048C10.0719 31.5868 8.73212 31.2007 7.4185 30.7561C6.04645 30.2854 4.99494 29.8556 3.84553 29.3271C2.92987 28.9034 1.87976 28.9174 1.13441 29.6685C0.413077 30.3927 0.315901 31.4923 0.772302 32.376C0.935072 32.685 1.09071 33.0063 1.25348 33.3153C1.83537 34.4041 2.70043 34.593 3.84411 34.7407C4.03591 34.7633 4.21806 34.7884 4.40018 34.8135C4.07716 34.763 4.44395 34.8228 4.49737 34.8296C4.87381 34.887 5.24055 34.9469 5.60982 35.0164C6.42115 35.1573 7.2303 35.3298 8.04199 35.5119C10.9632 36.1801 13.8285 37.1108 16.5963 38.263C16.5963 38.263 17.2706 38.5531 16.8981 38.3914C17.0369 38.4484 17.1756 38.5054 17.3072 38.5746C17.6456 38.7244 17.9963 38.8815 18.3275 39.0435C19.0435 39.3744 19.7548 39.7272 20.4468 40.085C21.8185 40.7934 23.1543 41.5628 24.4712 42.3784C25.7514 43.1725 27.003 44.0153 28.2259 44.907C28.531 45.1274 28.8386 45.3576 29.134 45.5806C29.2513 45.6742 29.3782 45.7652 29.4955 45.8588C30.0766 46.3073 29.3366 45.7244 29.6665 46.0004C30.2892 46.4898 30.9048 46.9914 31.5132 47.5051C33.8565 49.4906 36.0557 51.6373 38.0935 53.9189C40.3321 56.4171 41.8949 58.4602 43.7284 61.2287C47.7761 67.3177 50.8211 73.8423 53.049 80.6821C55.5956 88.4723 57.1219 96.6303 57.7834 104.641C57.8784 105.804 58.7034 106.954 59.9959 106.918C61.1137 106.887 62.3717 105.961 62.2734 104.706" fill="#241F21"/>
</svg>
