<svg width="89" height="59" viewBox="0 0 89 59" fill="none" xmlns="http://www.w3.org/2000/svg">
<path d="M3.76274 0.68603C16.1414 3.54023 28.1276 8.1218 39.2397 14.2108C50.3519 20.2998 60.5991 27.855 69.6382 36.666C74.8018 41.7009 79.5491 47.1515 83.872 52.9212C84.7441 54.0902 84.1302 55.929 82.9674 56.6517C81.624 57.4841 80.1227 56.9594 79.2506 55.7905C75.6507 50.9814 71.8328 46.5645 67.4695 42.1755C63.1062 37.7865 58.5085 33.7545 53.6338 30.0202C48.7591 26.2858 43.9682 23.1353 38.6083 20.0801C33.2642 17.0395 27.7163 14.3547 22.0113 12.0494C15.8051 9.54529 9.27084 7.50948 2.55219 5.96658C1.13331 5.63764 0.191426 4.18559 0.526102 2.74153C0.860779 1.29748 2.34356 0.346889 3.77264 0.675401L3.76274 0.68603Z" fill="black"/>
<path d="M47.7436 53.3845C60.2578 53.2503 72.7722 53.1263 85.2863 52.9921L82.7718 56.4935C80.0303 43.3286 77.2836 30.1588 74.5471 16.9886C74.2492 15.5607 74.8935 14.0578 76.3758 13.6026C77.6911 13.2004 79.4343 13.9602 79.7374 15.3929C82.4789 28.5578 85.2257 41.7276 87.9622 54.8979C88.302 56.5334 87.3105 58.3777 85.4477 58.3993C72.9336 58.5335 60.4192 58.6575 47.9051 58.7917C46.4403 58.8068 45.1664 57.6904 45.1219 56.2009C45.0775 54.7114 46.2789 53.3997 47.7436 53.3845Z" fill="black"/>
</svg>
