<svg width="188" height="190" viewBox="0 0 188 190" fill="none" xmlns="http://www.w3.org/2000/svg">
<path d="M96.9608 19.1315C100.911 31.5636 106.601 43.4792 113.756 54.3902C120.883 65.2585 129.489 75.2179 139.23 83.8182C144.796 88.7339 150.771 93.1866 157.027 97.1902C158.285 97.9976 160.119 97.232 160.761 95.9891C161.5 94.5496 160.836 93.0615 159.568 92.2457C154.356 88.9181 149.518 85.3303 144.676 81.1997C139.861 77.0944 135.322 72.6539 131.104 67.9378C127.015 63.3742 123.258 58.5608 119.702 53.3102C116.146 48.0771 112.931 42.6027 110.111 36.9372C107.035 30.783 104.408 24.2516 102.263 17.5083C101.811 16.0817 100.245 15.2254 98.809 15.6684C97.3817 16.1024 96.5177 17.6958 96.9608 19.1315Z" fill="#241F21"/>
<path d="M154.463 60.2642C155.381 73.0462 156.299 85.8456 157.216 98.6276C158.334 97.6894 159.461 96.7422 160.579 95.8041C146.906 93.9466 133.224 92.0983 119.551 90.2409C118.072 90.0378 116.588 90.8067 116.248 92.3615C115.944 93.7309 116.872 95.4623 118.36 95.6563C132.033 97.5138 145.714 99.3621 159.396 101.228C161.095 101.466 162.897 100.316 162.758 98.4044C161.841 85.6224 160.923 72.823 160.006 60.0411C159.902 58.548 158.653 57.3286 157.123 57.3814C155.654 57.4406 154.35 58.7627 154.463 60.2642Z" fill="#241F21"/>
<path d="M4.74274 107.665C5.81201 107.473 6.18544 107.396 7.29948 107.229C8.28274 107.076 9.28419 106.939 10.2772 106.811C12.2634 106.556 14.2516 106.354 16.2503 106.194C20.1436 105.898 24.053 105.784 27.9526 105.863C35.7519 106.022 43.2752 106.936 51.0679 108.672C67.2989 112.3 82.8244 119.503 96.0408 129.592C103.846 135.547 111.128 142.652 117.062 150.198C117.957 151.326 119.56 151.997 120.889 151.086C122.023 150.313 122.737 148.481 121.786 147.267C110.371 132.762 95.8028 120.854 79.2154 112.722C64.1017 105.31 47.5356 101.187 30.7367 100.419C21.482 99.9946 12.229 100.7 3.11953 102.363C1.64186 102.632 0.885642 104.51 1.27972 105.816C1.76339 107.391 3.26506 107.934 4.74274 107.665Z" fill="#241F21"/>
<path d="M105.451 113.005C110.999 125.548 115.859 138.381 119.993 151.454C120.838 150.264 121.692 149.065 122.537 147.876C109.916 147.359 97.2663 147.641 84.6837 148.725C81.0975 149.036 77.5225 149.408 73.9412 149.841C72.46 150.023 71.2266 151.141 71.2815 152.724C71.3379 154.122 72.6656 155.566 74.1643 155.383C86.7027 153.854 99.3253 153.109 111.963 153.17C115.562 153.191 119.164 153.265 122.76 153.418C124.558 153.494 125.806 151.43 125.304 149.839C121.17 136.767 116.311 123.933 110.762 111.39C110.155 110.022 108.857 109.077 107.299 109.542C106.002 109.944 104.853 111.628 105.451 113.005Z" fill="#241F21"/>
</svg>
