<svg width="252" height="123" viewBox="0 0 252 123" fill="none" xmlns="http://www.w3.org/2000/svg">
<path d="M17.6462 114.911C28.2236 102.088 40.201 90.4465 53.3571 80.2962C66.4916 70.1529 80.7479 61.4004 95.797 54.3847C110.911 47.3479 126.796 42.0191 143.103 38.536C159.284 35.0699 175.876 33.4889 192.417 33.657C208.982 33.8287 225.499 35.8681 241.608 39.7007C243.616 40.1815 245.632 40.684 247.625 41.2294C250.802 42.0703 251.86 37.1025 248.705 36.2546C232.348 31.8815 215.515 29.3837 198.589 28.7317C181.661 28.0688 164.69 29.3311 148.02 32.395C131.418 35.4487 115.183 40.3656 99.6874 47.0729C84.0978 53.8226 69.2436 62.2801 55.5173 72.2935C41.7406 82.3354 29.0488 93.9113 17.857 106.755C16.4919 108.322 15.1555 109.904 13.8262 111.508C11.7433 114.026 15.5383 117.425 17.6284 114.893" fill="#241F21"/>
<path d="M48.152 104.331C36.6794 109.453 24.5211 112.433 12.0446 113.116C12.9299 113.927 13.8151 114.737 14.7004 115.548C14.8115 105.692 16.2476 95.9065 18.9683 86.3236C19.3367 84.997 18.3012 83.5782 17.0244 83.2892C15.6112 82.9849 14.3727 83.9139 13.99 85.2331C11.1771 95.1566 9.72676 105.449 9.61242 115.772C9.603 117.137 10.9638 118.27 12.279 118.2C25.1759 117.488 37.9453 114.441 49.7386 109.166C50.9493 108.629 51.8921 107.342 51.3701 105.959C50.9256 104.778 49.4671 103.747 48.1628 104.328" fill="#241F21"/>
</svg>
