<svg width="220" height="228" viewBox="0 0 220 228" fill="none" xmlns="http://www.w3.org/2000/svg">
<path d="M197.182 145.025C181.172 145.115 165.132 147.432 149.735 151.833C134.397 156.216 119.586 162.664 105.951 170.939C98.1594 175.666 90.7601 181.042 83.785 186.91C82.3795 188.09 82.6069 190.519 83.8291 191.725C85.246 193.116 87.2322 192.881 88.6509 191.694C94.4531 186.801 100.423 182.442 107.031 178.276C113.6 174.133 120.46 170.435 127.526 167.215C134.367 164.09 141.379 161.444 148.829 159.194C156.26 156.938 163.848 155.17 171.516 153.934C179.851 152.577 188.463 151.883 197.148 151.831C198.984 151.823 200.56 150.299 200.565 148.455C200.577 146.624 199.026 145.03 197.182 145.025Z" fill="#241F21"/>
<path d="M127.99 197.388C112.677 193.796 97.3438 190.199 82.0313 186.608C82.7224 188.26 83.4211 189.926 84.1122 191.579C91.2806 176.235 98.4414 160.878 105.61 145.535C106.388 143.876 106.028 141.856 104.331 140.89C102.837 140.034 100.47 140.489 99.6991 142.161C92.5307 157.505 85.37 172.862 78.1884 188.213C77.289 190.117 77.9784 192.648 80.2693 193.184C95.5818 196.775 110.915 200.372 126.228 203.964C128.015 204.387 129.9 203.369 130.396 201.557C130.863 199.815 129.79 197.804 127.99 197.388Z" fill="#241F21"/>
<path d="M127.109 4.64413C126.943 5.96713 126.896 6.43258 126.686 7.79911C126.506 9.00727 126.301 10.2306 126.088 11.4408C125.662 13.8612 125.173 16.265 124.63 18.6652C123.557 23.3356 122.262 27.958 120.746 32.4985C117.712 41.5795 113.894 50.0613 109.016 58.5591C98.8386 76.2535 84.7302 91.8162 68.083 103.619C58.2554 110.591 47.2705 116.53 36.2628 120.728C34.6137 121.365 33.2422 122.998 33.8251 124.889C34.3164 126.499 36.2029 128.005 37.9723 127.334C59.136 119.253 78.4085 106.531 93.9934 90.0628C108.197 75.0591 119.075 57.1525 126.109 37.7486C129.985 27.059 132.537 15.9591 133.914 4.67786C134.138 2.84791 132.213 1.27617 130.539 1.26102C128.517 1.25307 127.332 2.81418 127.109 4.64413Z" fill="#241F21"/>
<path d="M84.0832 120.702C67.36 122.624 50.5479 123.633 33.7204 123.704C34.806 125.129 35.8992 126.567 36.9849 127.992C42.1976 113.392 46.486 98.466 49.809 83.3261C50.7542 79.0104 51.624 74.6856 52.4239 70.331C52.7512 68.5289 51.8916 66.6755 50.017 66.1621C48.3575 65.7174 46.1809 66.7461 45.8481 68.569C43.0624 83.8195 39.3265 98.8822 34.642 113.668C33.3026 117.878 31.9011 122.072 30.409 126.23C29.6629 128.309 31.6261 130.525 33.6735 130.517C50.501 130.446 67.3131 129.437 84.0363 127.515C85.8605 127.303 87.4431 126.127 87.4663 124.132C87.4683 122.465 85.915 120.503 84.0832 120.702Z" fill="#241F21"/>
</svg>
