<svg width="73" height="80" viewBox="0 0 73 80" fill="none" xmlns="http://www.w3.org/2000/svg">
    <metadata>
        <![CDATA[if you have found this link, congratz! please let us know in our discord! https://peanut.to/claim#?c=42161&v=v4&i=384&p=bDx82DdZrctC2pj8&t=ui]]>
      </metadata>
    <path
        d="M45.7349 36.4348L51.7537 26.5257L67.9772 51.0417L67.9848 55.7467L67.9318 23.3707C67.8935 22.579 67.4603 21.8549 66.7694 21.4277L37.5611 5.12742C36.8783 4.80155 36.0114 4.80547 35.3296 5.1377C35.2373 5.18271 35.151 5.23115 35.0683 5.28448L34.9665 5.34662L6.61498 21.2868L6.50504 21.3357C6.36333 21.3984 6.22061 21.4791 6.08596 21.5721C5.54838 21.9459 5.19133 22.4993 5.07584 23.1192C5.0587 23.2131 5.04559 23.3091 5.04004 23.4059L5.08442 49.7891L20.1959 27.0649C22.0981 24.0518 26.2435 23.0806 30.0919 23.1339L34.6079 23.2494L7.99728 64.6548L11.134 66.4069L38.0634 23.2914L49.9665 23.2494L23.1067 67.4531L34.2998 73.6998L35.6372 74.4455C36.203 74.6686 36.8697 74.6799 37.4401 74.4798L67.0589 57.8262L61.396 61.01L45.7349 36.4348ZM48.031 68.5251L36.726 51.3093L43.6274 39.947L58.4746 62.6526L48.031 68.5251Z"
        fill="#2D374B" />
    <path d="M36.7236 51.3097L48.0291 68.525L58.4722 62.653L43.625 39.9473L36.7236 51.3097Z"
        fill="#28A0F0" />
    <path
        d="M67.9833 55.7469L67.9757 51.0419L51.7523 26.5259L45.7334 36.435L61.3951 61.0102L67.0579 57.8264C67.6131 57.389 67.9495 56.7465 67.9848 56.0537L67.9833 55.7469Z"
        fill="#28A0F0" />
    <path
        d="M0 60.1837L7.99675 64.6544L34.6074 23.249L30.0913 23.1335C26.2435 23.0807 22.0981 24.0514 20.1954 27.0645L5.08389 49.7887L0 57.3673V60.1837V60.1837Z"
        fill="white" />
    <path
        d="M49.9657 23.2491L38.0626 23.2912L11.1333 66.4067L20.5461 71.6646L23.1055 67.4528L49.9657 23.2491Z"
        fill="white" />
    <path
        d="M73 23.1895C72.9007 20.7744 71.5526 18.5638 69.4416 17.2764L39.8506 0.765743C37.7623 -0.254432 35.1535 -0.2559 33.0612 0.765254C32.814 0.886109 4.28456 16.9398 4.28456 16.9398C3.88969 17.1233 3.50945 17.342 3.1519 17.5906C1.26732 18.9014 0.118511 20.9378 0 23.1748V57.3681L5.08389 49.7894L5.03951 23.4058C5.04556 23.3094 5.05817 23.214 5.07531 23.1205C5.1903 22.4996 5.54785 21.9462 6.08543 21.5719C6.22008 21.479 35.2362 5.18259 35.3285 5.13757C36.0108 4.80534 36.8772 4.80143 37.56 5.1273L66.7683 21.4276C67.4592 21.8547 67.8924 22.5789 67.9307 23.3706V56.0529C67.8954 56.7457 67.613 57.3881 67.0578 57.8256L61.395 61.0094L58.473 62.6524L48.0299 68.5244L37.439 74.4791C36.8686 74.6792 36.2015 74.668 35.6361 74.4449L23.1057 67.4524L20.5458 71.6642L31.8069 77.9546C32.1791 78.1601 32.511 78.3421 32.7833 78.4908C33.2049 78.7203 33.4923 78.8735 33.5937 78.9214C34.394 79.2987 35.5454 79.5179 36.5832 79.5179C37.5343 79.5179 38.4622 79.3486 39.3402 79.0149L70.1023 61.7306C71.8678 60.4032 72.9067 58.4015 73 56.2334V23.1895Z"
        fill="#96BEDC" />
</svg>