<svg width="75" height="75" viewBox="0 0 75 75" fill="none" xmlns="http://www.w3.org/2000/svg">
<path d="M22.0368 42.6942C24.2801 42.6942 26.3434 41.9384 27.9989 40.6668L14.3232 26.9912C13.0397 28.6347 12.2959 30.71 12.2959 32.9533C12.2959 38.3156 16.6625 42.6942 22.0368 42.6942Z" fill="#041427"/>
<path d="M62.6922 32.9416C62.6922 30.6983 61.9365 28.635 60.6649 26.9795L46.9893 40.6431C48.6327 41.9267 50.7081 42.6705 52.9514 42.6705C58.3256 42.6945 62.6922 38.3159 62.6922 32.9416Z" fill="#041427"/>
<path d="M69.5777 18.0542L63.5317 24.1003C65.535 26.4995 66.7347 29.5705 66.7347 32.9294C66.7347 40.535 60.5446 46.725 52.9391 46.725C49.5921 46.725 46.5091 45.5134 44.1099 43.5221L37.488 50.1439L30.8661 43.5221C28.4669 45.5254 25.3959 46.725 22.0369 46.725C14.4314 46.725 8.24136 40.535 8.24136 32.9294C8.24136 29.5825 9.45298 26.4995 11.4443 24.1003L8.34933 21.0053L5.41027 18.0662C1.97937 23.7404 0 30.3863 0 37.5C0 58.2054 16.7826 75 37.5 75C58.2174 75 75 58.2174 75 37.5C74.988 30.3743 73.0086 23.7404 69.5777 18.0542Z" fill="#041427"/>
<path d="M64.6111 11.6123C57.7973 4.46257 48.1524 0 37.4878 0C26.8232 0 17.1783 4.46257 10.3645 11.6123C9.44076 12.596 8.56504 13.6156 7.7373 14.6833L37.4878 44.4578L67.2383 14.6833C66.4345 13.6037 65.5468 12.596 64.6111 11.6123ZM37.4878 4.90643C46.269 4.90643 54.4144 8.28935 60.5444 14.4554L37.4878 37.512L14.4312 14.4554C20.5612 8.27735 28.7186 4.90643 37.4878 4.90643Z" fill="#041427"/>
</svg>
