<svg width="50" height="21" viewBox="0 0 50 21" fill="none" xmlns="http://www.w3.org/2000/svg">
<path d="M9.98255 20.5C15.515 20.5 20 16.0228 20 10.5C20 4.97714 15.515 0.5 9.98255 0.5C4.73366 0.5 0.427651 4.52992 0 9.65941H13.2408V11.3406H7.19141e-08C0.427651 16.4701 4.73366 20.5 9.98255 20.5Z" fill="#0052FF"/>
<path d="M25 20.5C30.5228 20.5 35 16.0228 35 10.5C35 4.97715 30.5228 0.5 25 0.5C19.4772 0.5 15 4.97715 15 10.5C15 16.0228 19.4772 20.5 25 20.5Z" fill="#FF0420"/>
<path d="M22.0842 13.156C21.4882 13.156 21.0002 13.016 20.6202 12.736C20.2442 12.452 20.0562 12.044 20.0562 11.52C20.0562 11.408 20.0682 11.276 20.0922 11.116C20.1562 10.756 20.2482 10.324 20.3682 9.81595C20.7082 8.43995 21.5882 7.75195 23.0042 7.75195C23.3882 7.75195 23.7362 7.81595 24.0402 7.94795C24.3442 8.07195 24.5842 8.26395 24.7602 8.51995C24.9362 8.77195 25.0242 9.07195 25.0242 9.41995C25.0242 9.52395 25.0122 9.65595 24.9882 9.81595C24.9122 10.26 24.8242 10.696 24.7162 11.116C24.5402 11.8 24.2402 12.316 23.8082 12.656C23.3802 12.992 22.8042 13.156 22.0842 13.156ZM22.1922 12.076C22.4722 12.076 22.7082 11.992 22.9042 11.828C23.1042 11.664 23.2482 11.412 23.3322 11.068C23.4482 10.596 23.5362 10.188 23.5962 9.83595C23.6162 9.73195 23.6282 9.62395 23.6282 9.51195C23.6282 9.05595 23.3922 8.82795 22.9162 8.82795C22.6362 8.82795 22.3962 8.91195 22.1962 9.07595C22.0002 9.23995 21.8602 9.49195 21.7762 9.83595C21.6842 10.172 21.5962 10.58 21.5042 11.068C21.4842 11.168 21.4722 11.272 21.4722 11.384C21.4682 11.848 21.7122 12.076 22.1922 12.076Z" fill="white"/>
<path d="M25.3718 13.0841C25.3158 13.0841 25.2758 13.0681 25.2438 13.0321C25.2198 12.9921 25.2118 12.9481 25.2198 12.8961L26.2558 8.01612C26.2638 7.96012 26.2918 7.91613 26.3398 7.88013C26.3838 7.84413 26.4318 7.82812 26.4838 7.82812H28.4798C29.0358 7.82812 29.4798 7.94413 29.8158 8.17213C30.1558 8.40413 30.3278 8.73613 30.3278 9.17213C30.3278 9.29613 30.3118 9.42813 30.2838 9.56413C30.1598 10.1401 29.9078 10.5641 29.5238 10.8401C29.1478 11.1161 28.6318 11.2521 27.9758 11.2521H26.9638L26.6198 12.8961C26.6078 12.9521 26.5838 12.9961 26.5358 13.0321C26.4918 13.0681 26.4438 13.0841 26.3918 13.0841H25.3718ZM28.0278 10.2161C28.2398 10.2161 28.4198 10.1601 28.5758 10.0441C28.7358 9.92813 28.8398 9.76413 28.8918 9.54813C28.9078 9.46413 28.9158 9.38813 28.9158 9.32413C28.9158 9.18013 28.8718 9.06813 28.7878 8.99213C28.7038 8.91213 28.5558 8.87213 28.3518 8.87213H27.4518L27.1678 10.2161H28.0278Z" fill="white"/>
<rect x="30" y="0.5" width="20" height="20" rx="10" fill="#EFEFF0"/>
<path d="M39.9456 4.07227L39.8594 4.36523V12.8655L39.9456 12.9516L43.8913 10.6193L39.9456 4.07227Z" fill="#343434"/>
<path d="M39.9458 4.07227L36 10.6193L39.9458 12.9516V8.82576V4.07227Z" fill="#8C8C8C"/>
<path d="M39.9456 13.6983L39.897 13.7576V16.7855L39.9456 16.9274L43.8937 11.3672L39.9456 13.6983Z" fill="#3C3C3B"/>
<path d="M39.9458 16.9274V13.6983L36 11.3672L39.9458 16.9274Z" fill="#8C8C8C"/>
<path d="M39.9458 12.951L43.8915 10.6187L39.9458 8.8252V12.951Z" fill="#141414"/>
<path d="M36 10.6187L39.9458 12.951V8.8252L36 10.6187Z" fill="#393939"/>
</svg>
