<svg width="21" height="17" viewBox="0 0 21 17" fill="none" xmlns="http://www.w3.org/2000/svg">
<path d="M3.31704 12.9847C3.44024 12.8615 3.60963 12.7896 3.78929 12.7896H20.0819C20.3796 12.7896 20.5285 13.149 20.318 13.3594L17.0995 16.5779C16.9763 16.7011 16.8069 16.7729 16.6273 16.7729H0.334689C0.0369667 16.7729 -0.111894 16.4136 0.0985644 16.2032L3.31704 12.9847Z" fill="url(#paint0_linear_5979_22367)"/>
<path d="M3.31704 0.968009C3.44537 0.844813 3.61477 0.772949 3.78929 0.772949H20.0819C20.3796 0.772949 20.5285 1.13227 20.318 1.34273L17.0995 4.56121C16.9763 4.6844 16.8069 4.75627 16.6273 4.75627H0.334689C0.0369667 4.75627 -0.111894 4.39695 0.0985644 4.18649L3.31704 0.968009Z" fill="url(#paint1_linear_5979_22367)"/>
<path d="M17.0995 6.93785C16.9763 6.81466 16.8069 6.74279 16.6273 6.74279H0.334689C0.0369667 6.74279 -0.111894 7.10211 0.0985644 7.31257L3.31704 10.531C3.44024 10.6542 3.60963 10.7261 3.78929 10.7261H20.0819C20.3796 10.7261 20.5285 10.3668 20.318 10.1563L17.0995 6.93785Z" fill="url(#paint2_linear_5979_22367)"/>
<defs>
<linearGradient id="paint0_linear_5979_22367" x1="18.5255" y1="-55.2178" x2="-24.3655" y2="-34.7651" gradientUnits="userSpaceOnUse">
<stop stop-color="#00FFA3"/>
<stop offset="1" stop-color="#DC1FFF"/>
</linearGradient>
<linearGradient id="paint1_linear_5979_22367" x1="13.5951" y1="-17.2892" x2="-29.2959" y2="3.16351" gradientUnits="userSpaceOnUse">
<stop stop-color="#00FFA3"/>
<stop offset="1" stop-color="#DC1FFF"/>
</linearGradient>
<linearGradient id="paint2_linear_5979_22367" x1="16.0446" y1="-2.44491" x2="4.76881" y2="19.1527" gradientUnits="userSpaceOnUse">
<stop stop-color="#00FFA3"/>
<stop offset="1" stop-color="#DC1FFF"/>
</linearGradient>
</defs>
</svg>
