<svg width="23" height="25" viewBox="0 0 23 25" fill="none" xmlns="http://www.w3.org/2000/svg">
<path d="M22.4997 7.72095C21.3747 6.68221 19.8185 5.09598 18.551 3.971L18.476 3.9185C18.3512 3.81829 18.2105 3.7397 18.0598 3.686C15.0036 3.11601 0.77999 0.457292 0.502493 0.491041C0.424737 0.501931 0.350414 0.530123 0.284996 0.57354L0.213747 0.629789C0.126015 0.718888 0.0593808 0.826528 0.0187498 0.944785L0 0.993535V1.30103C1.60123 5.75972 7.92365 20.3658 9.16863 23.7932C9.24363 24.0257 9.38613 24.4682 9.65237 24.4907H9.71237C9.85487 24.4907 10.4624 23.6882 10.4624 23.6882C10.4624 23.6882 21.3222 10.5184 22.421 9.11593C22.5632 8.94317 22.6887 8.75735 22.7959 8.56094C22.8233 8.40726 22.8104 8.24912 22.7585 8.10191C22.7066 7.9547 22.6174 7.82345 22.4997 7.72095ZM13.2486 9.25468L17.8835 5.41098L20.6022 7.91594L13.2486 9.25468ZM11.4486 9.00343L3.4687 2.46352L16.3798 4.84473L11.4486 9.00343ZM12.1686 10.7172L20.336 9.40092L10.9986 20.6508L12.1686 10.7172ZM2.38497 3.11601L10.7811 10.2409L9.56612 20.6583L2.38497 3.11601Z" fill="#FF060A"/>
</svg>
