<svg width="305" height="107" viewBox="0 0 305 107" fill="none" xmlns="http://www.w3.org/2000/svg">
<path d="M298.687 15.4926H64.449L40.3731 1.62238C38.5303 0.560674 36.4288 0 34.2948 0C32.1609 0 30.0575 0.561434 28.2151 1.62314L6.07939 14.3792C2.32915 16.5403 0 20.5679 0 24.8892V81.4809C0 85.8037 2.33029 89.8313 6.08129 91.9924L28.2314 104.749C30.0731 105.81 32.1739 106.371 34.3074 106.371C36.4409 106.371 38.5448 105.81 40.3879 104.748L64.4566 90.879H298.687C301.865 90.879 304.442 88.3073 304.442 85.1351V21.2361C304.442 18.0639 301.865 15.4926 298.687 15.4926Z" fill="white"/>
<path d="M102.705 21.3596H110.114C115.268 21.3596 118.005 24.1724 118.005 30.1207V41.6153C118.005 47.5632 115.268 50.3764 110.114 50.3764H102.705V21.3596ZM107.697 46.2769H109.429C112.086 46.2769 113.012 45.2719 113.012 42.218V29.518C113.012 26.4633 112.087 25.4584 109.429 25.4584H107.697V46.2769Z" fill="#36364C"/>
<path d="M122.84 50.3764V21.3596H136.208V25.6995H127.833V33.1747H134.275V37.5154H127.833V46.0353H136.771V50.376H122.84L122.84 50.3764Z" fill="#36364C"/>
<path d="M152.513 21.3596H157.425L151.346 50.3764H146.353L140.273 21.3596H145.186L148.809 41.4941H148.89L152.513 21.3596H152.513Z" fill="#36364C"/>
<path d="M171.883 31.045V28.7936C171.883 26.3424 170.755 25.2976 169.467 25.2976C167.454 25.2976 166.81 26.3424 166.81 28.5125V43.2224C166.81 45.3926 167.454 46.4374 169.467 46.4374C171.279 46.4374 171.883 45.3926 171.883 43.5038V40.0071H176.875V43.3428C176.875 47.4423 174.46 50.7781 169.466 50.7781C164.232 50.7781 161.816 47.4423 161.816 43.3428V28.3925C161.816 24.293 164.232 20.9573 169.466 20.9573C174.46 20.9573 176.875 24.5741 176.875 28.9151V31.0454L171.883 31.045Z" fill="#36364C"/>
<path d="M181.953 28.3925C181.953 24.293 184.369 20.9573 189.603 20.9573C194.837 20.9573 197.253 24.293 197.253 28.3925V43.3428C197.253 47.4423 194.837 50.7781 189.603 50.7781C184.369 50.7781 181.953 47.4423 181.953 43.3428V28.3925ZM186.945 43.2224C186.945 45.3926 187.59 46.4374 189.603 46.4374C191.616 46.4374 192.26 45.3926 192.26 43.2224V28.5125C192.26 26.3424 191.616 25.2976 189.603 25.2976C187.59 25.2976 186.945 26.3424 186.945 28.5125V43.2224Z" fill="#36364C"/>
<path d="M202.887 50.3764V21.3596H207.517L213.597 37.9578H213.677V21.3596H218.187V50.3764H213.839L207.477 32.251H207.397V50.3764H202.887Z" fill="#36364C"/>
<path d="M224.631 50.3764V21.3596H229.261L235.341 37.9578H235.421V21.3596H239.931V50.3764H235.583L229.221 32.251H229.141V50.3764H224.631H224.631Z" fill="#36364C"/>
<path d="M246.379 50.3764V21.3596H259.747V25.6995H251.372V33.1747H257.814V37.5154H251.372V46.0353H260.31V50.376H246.379L246.379 50.3764Z" fill="#36364C"/>
<path d="M275.127 31.045V28.7936C275.127 26.3424 273.999 25.2976 272.711 25.2976C270.698 25.2976 270.054 26.3424 270.054 28.5125V43.2224C270.054 45.3926 270.698 46.4374 272.711 46.4374C274.523 46.4374 275.127 45.3926 275.127 43.5038V40.0071H280.119V43.3428C280.119 47.4423 277.704 50.7781 272.711 50.7781C267.477 50.7781 265.061 47.4423 265.061 43.3428V28.3925C265.061 24.293 267.477 20.9573 272.711 20.9573C277.704 20.9573 280.119 24.5741 280.119 28.9151V31.0454L275.127 31.045Z" fill="#36364C"/>
<path d="M288.902 25.6995H284.07V21.3596H298.726V25.6995H293.894V50.3764H288.902V25.6995Z" fill="#36364C"/>
<path d="M153.017 56.0659H102.705V85.0827H153.017V56.0659Z" fill="#74ACDF"/>
<path d="M113.047 79.4922H110.062L113.37 61.5715H117.199L120.506 79.4922H117.522L116.975 75.5207H113.593L113.046 79.4922H113.047ZM114.041 72.8401H116.528L115.309 65.1454H115.26L114.041 72.8401Z" fill="white"/>
<path d="M126.871 79.4922H123.787V61.5715H128.114C131.57 61.5715 133.336 63.036 133.336 66.8583C133.336 69.7375 132.217 70.9039 131.172 71.3756L133.783 79.4922H130.65L128.462 72.0706C128.064 72.12 127.418 72.145 126.871 72.145V79.4922ZM126.871 69.6133H127.964C129.631 69.6133 130.252 68.9927 130.252 66.8583C130.252 64.7238 129.631 64.1033 127.964 64.1033H126.871V69.6133Z" fill="white"/>
<path d="M140.973 70.4083H146.021V79.4926H144.529L143.957 78.1523C143.037 79.2446 142.291 79.741 140.849 79.741C138.412 79.741 136.721 78.0035 136.721 75.1493V65.9157C136.721 63.384 138.213 61.324 141.247 61.324C144.33 61.324 145.872 63.5579 145.872 66.2385V67.3802H142.937C142.937 64.6996 142.39 64.0046 141.172 64.0046C140.426 64.0046 139.804 64.4512 139.804 65.9655V75.174C139.804 76.3156 140.177 77.0604 141.246 77.0604C142.49 77.0604 142.937 76.3654 142.937 74.5785V72.8409H140.973V70.4083H140.973Z" fill="white"/>
<path d="M86.6871 34.9194L37.5743 6.6227C35.5856 5.47668 33.1144 5.47668 31.1258 6.6227L8.99224 19.379C7.00318 20.5255 5.76758 22.6618 5.76758 24.9546V81.5456C5.76758 83.8388 7.00394 85.9755 8.99338 87.1219L31.1406 99.8786C32.1349 100.451 33.2491 100.738 34.3641 100.737C35.4791 100.737 36.5944 100.451 37.5888 99.8779L86.6875 71.5816C88.6769 70.4352 89.9125 68.2989 89.9125 66.0061V40.4953C89.9125 38.2025 88.6765 36.0658 86.6875 34.9194H86.6871Z" fill="#37364C"/>
<path d="M56.1512 86.3413C57.819 85.3803 57.819 82.9773 56.1512 82.0163L47.4997 77.0303L38.8482 72.0443C37.1803 71.0832 35.0957 72.2847 35.0957 74.2068V94.1508C35.0957 96.0732 37.1803 97.2743 38.8482 96.3133L56.1512 86.3413Z" fill="#FF85A6"/>
<path d="M31.6644 8.86427L11.7802 20.3238C10.4769 21.0751 10.4769 22.9531 11.7802 23.7045L30.2735 34.3625C32.811 35.825 35.9371 35.825 38.4745 34.3625L56.9606 23.7087C58.2639 22.9573 58.2639 21.0793 56.9606 20.328L37.0688 8.86389C35.3967 7.90019 33.3369 7.90019 31.6648 8.86389L31.6644 8.86427Z" fill="#F6B40E"/>
<path d="M8.13281 53.0904V82.2501C8.13281 83.1929 8.63664 84.0639 9.45442 84.5353L30.4988 96.6634C31.8969 97.469 33.6447 96.462 33.6447 94.8503V42.367C33.6447 39.6476 32.1915 37.1349 29.8321 35.7754L11.2372 25.0589C9.8574 24.2638 8.13281 25.2575 8.13281 26.848V53.0904Z" fill="#74ACDF"/>
<path d="M87.5912 63.0849V39.4103C87.5912 38.5211 87.1159 37.6994 86.3446 37.2546L65.2127 25.0761C63.8203 24.2738 62.0801 25.2766 62.0801 26.8815V51.2565C62.0801 52.1458 62.5554 52.9674 63.3267 53.4122L83.8513 65.2409C85.5135 66.1989 87.5916 65.0013 87.5916 63.0853L87.5912 63.0849Z" fill="white"/>
<path d="M38.7896 65.2676L59.1627 53.5263C60.0752 53.0002 60.6377 52.0281 60.6377 50.9763V27.4343C60.6377 25.5761 58.6224 24.4145 57.01 25.3436L39.6161 35.368C36.8188 36.9801 35.0957 39.9593 35.0957 43.1835V63.1385C35.0957 65.0306 37.1479 66.2139 38.7896 65.2676Z" fill="white"/>
<path d="M38.4434 70.1533L60.0232 82.5901C60.841 83.0615 61.8491 83.0615 62.6668 82.5901L84.443 70.0401C85.5226 69.4179 85.5226 67.8627 84.443 67.2409L62.6672 54.6912C61.8494 54.2198 60.8414 54.2198 60.0236 54.6912L38.4434 67.1281C37.2767 67.8004 37.2767 69.4809 38.4434 70.1533Z" fill="white"/>
<path d="M70.6028 58.1101L61.4098 42.177L52.2168 58.1101L61.4098 63.9591L70.6028 58.1101ZM62.083 52.7655V46.009L67.9086 56.0934L62.083 52.7655ZM68.4474 57.9084L62.083 61.9421V54.3115L68.4474 57.9084ZM60.7359 52.7655L54.9437 56.0596L60.7359 46.009V52.7655ZM60.7359 54.3115V61.9421L54.3714 57.9084L60.7359 54.3115Z" fill="#37364C"/>
<path d="M61.4098 65.841L52.2168 59.9919L61.4098 73.4039L70.6028 59.9919L61.4098 65.841ZM60.7028 66.984L60.7362 67.0174V70.0764L57.0321 64.6308L60.7028 66.984ZM65.8214 64.6308L62.0833 70.0764V67.0174L62.1168 66.984L65.821 64.6311L65.8214 64.6308Z" fill="#37364C"/>
</svg>
