<svg width="240" height="50" viewBox="0 0 240 50" fill="none" xmlns="http://www.w3.org/2000/svg">
<path d="M213.85 48.4858V11.649H202.321V0.119873H239.018V11.649H227.629V48.4858H213.85Z" fill="black"/>
<path d="M180.488 49.3294C176.692 49.3294 173.435 48.7202 170.716 47.5016C167.998 46.2831 165.889 44.3382 164.389 41.6668C162.937 38.9954 162.21 35.5039 162.21 31.1922V0.119873H175.989V31.5437C175.989 33.5121 176.294 35.1055 176.903 36.324C177.559 37.5426 178.731 38.1518 180.418 38.1518C182.105 38.1518 183.277 37.5426 183.933 36.324C184.636 35.1055 184.987 33.5121 184.987 31.5437V0.119873H198.766V31.1922C198.766 35.5039 198.039 38.9954 196.587 41.6668C195.134 44.3382 193.048 46.2831 190.33 47.5016C187.612 48.7202 184.331 49.3294 180.488 49.3294Z" fill="black"/>
<path d="M119.562 48.4858V0.119873H132.215L140.159 15.656C140.394 16.1247 140.675 16.6871 141.003 17.3432C141.378 17.9993 141.729 18.6789 142.057 19.3819C142.432 20.0849 142.737 20.741 142.971 21.3503L143.323 21.28C143.323 20.2958 143.323 19.3116 143.323 18.3274C143.323 17.2964 143.323 16.4059 143.323 15.656V0.119873H156.258V48.4858H143.604L135.027 32.2467C134.559 31.3094 134.137 30.3955 133.762 29.505C133.434 28.5677 133.106 27.6772 132.778 26.8336L132.426 26.9039C132.473 27.7944 132.497 28.7317 132.497 29.7159C132.497 30.6532 132.497 31.4968 132.497 32.2467V48.4858H119.562Z" fill="black"/>
<path d="M73.8857 48.4858L86.2584 0.119873H104.325L116.698 48.4858H102.146L100.81 41.4559H89.3516L88.0159 48.4858H73.8857ZM91.3903 30.7704H98.7717L97.0142 20.9988C96.9205 20.5301 96.8033 19.9209 96.6627 19.171C96.569 18.4211 96.4284 17.6244 96.2409 16.7808C96.1003 15.8904 95.9597 15.0233 95.8191 14.1797C95.6785 13.2893 95.538 12.4926 95.3974 11.7896H94.7647C94.6709 12.68 94.5303 13.6877 94.3429 14.8124C94.1554 15.8904 93.9679 16.9683 93.7805 18.0462C93.593 19.1241 93.4055 20.1083 93.2181 20.9988L91.3903 30.7704Z" fill="black"/>
<path d="M39.8242 48.4858V0.119873H72.3728V11.3678H53.6029V18.3977H69.4202V29.505H53.6029V37.2379H72.7946V48.4858H39.8242Z" fill="black"/>
<path d="M0.981934 48.4861V0.120117H22.7747C25.8211 0.120117 28.3518 0.799677 30.3671 2.1588C32.3823 3.51792 33.882 5.416 34.8662 7.85305C35.8504 10.2901 36.3425 13.1255 36.3425 16.3593C36.3425 19.7336 35.827 22.6862 34.7959 25.217C33.7649 27.7478 32.2183 29.7162 30.1562 31.1221C28.1409 32.5281 25.6336 33.2311 22.6341 33.2311H14.7606V48.4861H0.981934ZM14.7606 22.4753H19.1192C20.3377 22.4753 21.2047 21.9364 21.7203 20.8584C22.2358 19.7805 22.4935 18.398 22.4935 16.7108C22.4935 15.5391 22.3764 14.5315 22.1421 13.6879C21.9546 12.8443 21.6031 12.1882 21.0876 11.7195C20.6189 11.2508 19.9628 11.0165 19.1192 11.0165H14.7606V22.4753Z" fill="black"/>
</svg>
