<svg width="82" height="25" viewBox="0 0 82 25" fill="none" xmlns="http://www.w3.org/2000/svg">
<path d="M15.9466 23.6856C15.9905 23.6605 16.036 23.6317 16.0814 23.6C16.1129 23.5779 16.1444 23.5528 16.1766 23.5277C16.1883 23.5189 16.1993 23.5101 16.211 23.5012C16.7829 23.0273 17.4251 22.0386 17.8824 20.8397C17.8846 20.8339 17.8868 20.828 17.889 20.8221C17.9217 20.7361 17.953 20.6494 17.9843 20.5612C18.661 18.6076 18.8712 16.1145 17.7312 14.0764C17.0143 12.7938 15.9919 11.7193 14.8054 10.9668C13.788 10.3108 13.1685 9.20264 13.1427 7.99282C13.1236 6.58622 12.7432 5.15286 12.0263 3.87033C10.8967 1.85199 8.63999 0.725531 6.60788 0.276733C5.89671 0.119654 5.15711 0.022865 4.42816 0.04718C3.92311 0.0641841 3.35426 0.105616 2.90354 0.358116C1.35717 1.22268 -0.918865 6.32273 1.11888 9.96732C1.83578 11.2499 2.85818 12.3244 4.04475 13.0769C5.06216 13.7329 5.6816 14.8411 5.70743 16.0509C5.72653 17.4575 6.10692 18.8908 6.82383 20.1734C8.86157 23.818 14.3995 24.5494 15.9458 23.6848L15.9466 23.6856Z" fill="#FFC900"/>
<path d="M15.9466 23.6856C15.9905 23.6605 16.036 23.6317 16.0814 23.6C16.1129 23.5779 16.1444 23.5528 16.1766 23.5277C16.1883 23.5189 16.1993 23.5101 16.211 23.5012C16.7829 23.0273 17.4251 22.0386 17.8824 20.8397C17.8846 20.8339 17.8868 20.828 17.889 20.8221C17.9217 20.7361 17.953 20.6494 17.9843 20.5612C18.661 18.6076 18.8712 16.1145 17.7312 14.0764C17.0143 12.7938 15.9919 11.7193 14.8054 10.9668C13.788 10.3108 13.1685 9.20264 13.1427 7.99282C13.1236 6.58622 12.7432 5.15286 12.0263 3.87033C10.8967 1.85199 8.63999 0.725531 6.60788 0.276733C5.89671 0.119654 5.15711 0.022865 4.42816 0.04718C3.92311 0.0641841 3.35426 0.105616 2.90354 0.358116C1.35717 1.22268 -0.918865 6.32273 1.11888 9.96732C1.83578 11.2499 2.85818 12.3244 4.04475 13.0769C5.06216 13.7329 5.6816 14.8411 5.70743 16.0509C5.72653 17.4575 6.10692 18.8908 6.82383 20.1734C8.86157 23.818 14.3995 24.5494 15.9458 23.6848L15.9466 23.6856ZM7.58309 19.7496C6.93116 18.5828 6.60266 17.3116 6.58991 16.0554C6.54919 14.5469 5.76732 13.1485 4.48963 12.3692C3.42666 11.7 2.49929 10.7265 1.86286 9.58836C0.0695015 6.38056 2.14752 1.81267 3.31426 1.16074C4.54769 0.471151 9.49662 1.14865 11.273 4.32714C11.9249 5.49388 12.2534 6.76516 12.2662 8.02127C12.2768 9.5461 13.0432 10.9166 14.3364 11.7245C15.3994 12.3937 16.3112 13.3386 16.9632 14.5053C18.7565 17.7131 16.6844 22.2773 15.4927 22.944C14.326 23.596 9.35947 22.9281 7.58309 19.7503L7.58309 19.7496Z" fill="black" stroke="black" stroke-width="0.1"/>
<path d="M6.56252 9.66902L7.0117 8.92387" stroke="black" stroke-width="0.7" stroke-miterlimit="10" stroke-linecap="round"/>
<path d="M4.94588 8.33778C5.95505 8.33461 6.77058 7.51394 6.76741 6.50476C6.76424 5.49558 5.94357 4.68005 4.9344 4.68322C3.92522 4.68639 3.10969 5.50706 3.11286 6.51624C3.11603 7.52542 3.9367 8.34095 4.94588 8.33778Z" fill="white" stroke="black" stroke-width="0.7" stroke-miterlimit="10"/>
<path d="M8.14833 6.6034C9.15751 6.60023 9.97304 5.77956 9.96987 4.77039C9.9667 3.76121 9.14603 2.94568 8.13685 2.94885C7.12767 2.95202 6.31214 3.77269 6.31531 4.78187C6.31848 5.79105 7.13915 6.60658 8.14833 6.6034Z" fill="white" stroke="black" stroke-width="0.7" stroke-miterlimit="10"/>
<path d="M7.97405 3.02566C7.53318 3.61146 7.50861 4.43971 7.96723 5.05939C8.35874 5.58824 8.99897 5.82484 9.6073 5.72602C10.0482 5.14022 10.0727 4.31198 9.61412 3.69229C9.22261 3.16344 8.58239 2.92684 7.97405 3.02566Z" fill="black"/>
<path d="M4.86884 4.75557C4.44483 5.33544 4.42609 6.14604 4.87585 6.75401C5.24673 7.25503 5.84216 7.49103 6.41977 7.42681C6.84377 6.84694 6.86252 6.03634 6.41275 5.42837C6.04188 4.92735 5.44645 4.69134 4.86884 4.75557Z" fill="black"/>
<path d="M7.11799 9.38612C7.53462 9.49788 8.01838 9.47433 8.42026 9.33064C8.82508 9.18546 9.32673 8.78082 9.54728 8.40569" stroke="black" stroke-width="0.7" stroke-miterlimit="10" stroke-linecap="round"/>
<path d="M11.0537 20.0792C10.9154 20.2309 10.9133 20.4915 11.0642 20.6298C11.6702 21.1815 12.3442 21.6581 12.9848 22.0063C13.104 22.0874 13.2338 22.0525 13.3467 21.9897C13.4031 21.958 13.4433 21.8976 13.485 21.838C13.5923 21.6299 13.5086 21.4158 13.3446 21.3223C12.7481 20.9872 12.1337 20.5523 11.5881 20.0401C11.4364 19.9033 11.1905 19.929 11.0537 20.0792Z" fill="black"/>
<path d="M9.9795 19.3016L10.0081 19.2853C10.1897 19.146 10.2243 18.9411 10.1136 18.7432C9.958 18.5329 9.83174 18.3065 9.70549 18.0807C9.46848 17.6564 9.26005 17.2165 9.0664 16.8053C8.98424 16.5911 8.76378 16.5294 8.54893 16.6116C8.3348 16.6938 8.27309 16.9142 8.35526 17.1291C8.53583 17.5844 8.78908 18.0374 9.04159 18.4896C9.18336 18.7439 9.31035 18.9704 9.48143 19.2092C9.60305 19.3615 9.808 19.3961 9.97803 19.3016L9.9795 19.3016Z" fill="black"/>
<path d="M8.05046 15.2632L8.13548 15.216C8.27693 15.137 8.35489 14.9451 8.33232 14.7726C8.19194 14.2569 7.98035 13.7444 7.71159 13.2636C7.58533 13.0371 7.45834 12.8107 7.3035 12.6012C7.16417 12.4195 6.93137 12.4004 6.77758 12.5243C6.59594 12.6636 6.57685 12.8964 6.70068 13.0502C6.84001 13.2318 6.95076 13.4297 7.06151 13.6283C7.29852 14.0527 7.47983 14.5081 7.61557 14.9511C7.64131 15.1962 7.86566 15.3306 8.04973 15.2632L8.05046 15.2632Z" fill="black"/>
<path d="M15.5998 20.8056C15.6879 20.8303 15.7436 20.7993 15.8001 20.7675C15.9129 20.7048 15.9948 20.5848 16.0039 20.4681C16.0428 19.7419 15.9903 18.9169 15.8372 18.1113C15.7984 17.9095 15.6027 17.7596 15.3738 17.8139C15.172 17.8527 15.0221 18.0485 15.0764 18.2774C15.2263 19.0096 15.2757 19.7619 15.2492 20.4455C15.2432 20.6342 15.3825 20.8158 15.5998 20.8063L15.5998 20.8056Z" fill="black"/>
<path d="M11.211 10.0631C10.9969 10.1453 10.9352 10.3657 11.0011 10.5513C11.0988 10.794 11.2258 11.0205 11.3513 11.2455C11.62 11.7262 11.9452 12.1745 12.3121 12.564C12.4197 12.6892 12.6239 12.7231 12.7932 12.6286L12.8782 12.5813C13.0165 12.4296 13.0341 12.1968 12.911 12.0438C12.5774 11.7115 12.311 11.3034 12.074 10.879C11.9633 10.6812 11.8533 10.4833 11.7704 10.2684C11.631 10.0868 11.4237 9.97949 11.2103 10.0624L11.211 10.0631Z" fill="black"/>
<path d="M13.9186 13.7402C13.7369 13.8796 13.7178 14.1124 13.8131 14.2824C14.0903 14.6464 14.3273 15.0708 14.565 15.4944C14.6913 15.7209 14.8183 15.9473 14.9152 16.1886C14.9974 16.4027 15.2178 16.4644 15.4327 16.3822L15.4613 16.366C15.6313 16.2707 15.6938 16.0503 15.6264 15.8648C15.5287 15.622 15.3862 15.3685 15.2437 15.1134C14.9905 14.6605 14.7094 14.2245 14.4445 13.8164C14.3221 13.6626 14.0731 13.6164 13.9193 13.7402L13.9186 13.7402Z" fill="black"/>
<path d="M11.3847 15.5902C11.5826 15.4795 11.645 15.2591 11.5343 15.0619L10.3324 12.9124C10.2216 12.7146 10.0012 12.6521 9.80403 12.7629C9.60689 12.8736 9.54371 13.094 9.65445 13.2912L10.8564 15.4407C10.9657 15.6393 11.1861 15.701 11.3847 15.5902Z" fill="black"/>
<path d="M13.7888 19.8883C13.9867 19.7776 14.0492 19.5572 13.9384 19.36L12.7365 17.2105C12.6257 17.0127 12.4053 16.9502 12.2081 17.061C12.011 17.1717 11.9478 17.3921 12.0586 17.5893L13.2605 19.7388C13.3698 19.9374 13.5902 19.9991 13.7888 19.8883Z" fill="black"/>
<path d="M75.8788 17.5336V8.99902H73.2077V6.32788H81.7098V8.99902H79.0712V17.5336H75.8788Z" fill="black"/>
<path d="M68.1493 17.7291C67.2698 17.7291 66.5151 17.5879 65.8853 17.3056C65.2556 17.0233 64.7669 16.5727 64.4195 15.9538C64.0829 15.3348 63.9146 14.5259 63.9146 13.5269V6.32788H67.1069V13.6084C67.1069 14.0644 67.1775 14.4336 67.3186 14.7159C67.4706 14.9982 67.7421 15.1394 68.133 15.1394C68.5239 15.1394 68.7954 14.9982 68.9474 14.7159C69.1102 14.4336 69.1917 14.0644 69.1917 13.6084V6.32788H72.384V13.5269C72.384 14.5259 72.2157 15.3348 71.8791 15.9538C71.5425 16.5727 71.0593 17.0233 70.4295 17.3056C69.7997 17.5879 69.0397 17.7291 68.1493 17.7291Z" fill="black"/>
<path d="M54.0333 17.5336V6.32788H56.965L58.8055 9.92741C58.8598 10.036 58.9249 10.1663 59.0009 10.3183C59.0878 10.4703 59.1692 10.6278 59.2452 10.7906C59.3321 10.9535 59.4027 11.1055 59.457 11.2467L59.5384 11.2304C59.5384 11.0024 59.5384 10.7744 59.5384 10.5463C59.5384 10.3074 59.5384 10.1011 59.5384 9.92741V6.32788H62.5353V17.5336H59.6036L57.6165 13.7712C57.5079 13.5541 57.4102 13.3423 57.3233 13.136C57.2473 12.9189 57.1713 12.7126 57.0953 12.5171L57.0139 12.5334C57.0247 12.7397 57.0302 12.9569 57.0302 13.1849C57.0302 13.4021 57.0302 13.5975 57.0302 13.7712V17.5336H54.0333Z" fill="black"/>
<path d="M43.4509 17.5336L46.3175 6.32788H50.5034L53.37 17.5336H49.9985L49.689 15.9049H47.0342L46.7247 17.5336H43.4509ZM47.5065 13.4292H49.2167L48.8095 11.1653C48.7878 11.0567 48.7606 10.9155 48.7281 10.7418C48.7063 10.568 48.6738 10.3835 48.6303 10.188C48.5978 9.9817 48.5652 9.78082 48.5326 9.58537C48.5 9.37906 48.4675 9.19447 48.4349 9.0316H48.2883C48.2666 9.2379 48.234 9.47136 48.1906 9.73196C48.1471 9.9817 48.1037 10.2314 48.0603 10.4812C48.0168 10.7309 47.9734 10.9589 47.93 11.1653L47.5065 13.4292Z" fill="black"/>
<path d="M35.5592 17.5336V6.32788H43.1003V8.93387H38.7515V10.5626H42.4162V13.136H38.7515V14.9277H43.198V17.5336H35.5592Z" fill="black"/>
<path d="M26.5599 17.5336V6.32788H31.609C32.3148 6.32788 32.9012 6.48533 33.3681 6.80022C33.835 7.11511 34.1825 7.55487 34.4105 8.1195C34.6385 8.68413 34.7525 9.34106 34.7525 10.0903C34.7525 10.8721 34.6331 11.5562 34.3942 12.1425C34.1553 12.7288 33.797 13.1849 33.3192 13.5106C32.8523 13.8364 32.2714 13.9993 31.5765 13.9993H29.7523V17.5336H26.5599ZM29.7523 11.5073H30.7621C31.0444 11.5073 31.2453 11.3824 31.3647 11.1327C31.4842 10.8829 31.5439 10.5626 31.5439 10.1717C31.5439 9.90026 31.5168 9.66681 31.4625 9.47136C31.419 9.27591 31.3376 9.12389 31.2181 9.01531C31.1096 8.90673 30.9575 8.85243 30.7621 8.85243H29.7523V11.5073Z" fill="black"/>
</svg>
