<svg width="34" height="42" viewBox="0 0 34 42" fill="none" xmlns="http://www.w3.org/2000/svg">
<path d="M18.9615 0.868896H19.8202C20.6866 0.926234 21.5446 1.07028 22.3963 1.2325C23.2501 1.47304 24.1088 1.71148 24.9299 2.04921C25.2621 2.26597 25.6187 2.43799 25.9641 2.63098C26.3019 2.87291 26.6647 3.07569 27.006 3.31203C27.9935 4.08609 28.8954 4.98321 29.6072 6.02158C29.8648 6.39777 30.1128 6.78095 30.3621 7.16274C30.6093 7.53543 30.7681 7.95777 30.984 8.34795C31.2131 8.76749 31.3587 9.22479 31.5648 9.65552C31.8852 10.2967 32.021 11.0085 32.2773 11.6756C32.3838 11.9532 32.4145 12.2504 32.4785 12.5392C32.81 13.751 32.989 15.0005 33.1095 16.25C33.1401 17.229 33.2585 18.2051 33.2446 19.1861C33.1875 20.6643 33.1506 22.1509 32.8734 23.6088C32.6923 24.5346 32.6311 25.4842 32.3692 26.3932C32.0293 27.6015 31.7765 28.8405 31.2911 30.0026C30.9875 30.7627 30.6567 31.5109 30.3614 32.2738C30.1817 32.7465 30.0006 33.224 29.9317 33.7282C29.8391 33.8289 29.8015 34.0058 29.9449 34.0827C29.9247 35.1099 30.1539 36.1203 30.3816 37.1153C30.6079 37.8313 30.8579 38.5403 31.0348 39.271C31.1755 39.7332 31.2375 40.2248 31.4652 40.6562C32.5935 42.9092 33.1381 45.4796 32.8616 47.9968C32.5837 50.5861 31.5286 53.0789 29.9143 55.1116C29.3662 55.7024 28.8466 56.3206 28.2623 56.8772C27.3375 57.7617 26.3332 58.57 25.2273 59.2147C23.5635 59.9916 21.8447 60.6432 20.1092 61.2383C19.6043 61.3201 19.105 61.4495 18.5917 61.4732C18.0763 61.5026 17.5693 61.6537 17.0519 61.611C15.7955 61.5026 14.5078 61.5383 13.2912 61.1614C12.2166 60.9516 11.2144 60.4866 10.229 60.0251C9.61957 59.7384 9.03179 59.4105 8.43703 59.0972C8.09509 58.9203 7.8193 58.6448 7.49964 58.4344C6.98776 58.0952 6.55737 57.654 6.10608 57.2415C5.18261 56.3828 4.39425 55.3885 3.69921 54.3375C3.25628 53.6523 2.78689 52.9747 2.48603 52.2104C2.02917 51.2847 1.70881 50.2994 1.38776 49.3205C1.26379 48.6618 1.06879 48.0178 0.987308 47.3514C0.850807 46.6319 0.795789 45.9033 0.7547 45.174V44.7419C0.830611 43.6224 0.944129 42.5057 1.0855 41.3932C1.16211 40.6688 1.35851 39.9654 1.52217 39.2578C1.70672 38.5529 2.01037 37.888 2.25342 37.2034C2.58005 36.3196 2.79803 35.4022 3.06685 34.5001C3.26394 33.8387 3.45337 33.1744 3.64071 32.5101C3.82805 31.8486 3.85452 31.1571 3.936 30.4781C4.03559 29.6307 3.97291 28.7769 3.94575 27.928C3.94087 27.2022 3.78418 26.4904 3.702 25.7723C3.64419 25.2045 3.49028 24.65 3.45755 24.0794C3.44014 23.7263 3.3113 23.3907 3.29667 23.0375C3.26533 22.3355 3.12048 21.6426 3.12187 20.9384C3.12605 19.8168 3.0961 18.6911 3.22982 17.5751C3.46869 15.5494 3.95132 13.5524 4.66655 11.6435C4.95 10.9876 5.23484 10.3303 5.57261 9.70027C5.72025 9.35135 5.91735 9.02761 6.12836 8.71505C6.48145 8.08293 6.93831 7.52005 7.34155 6.9215C8.2685 5.71531 9.38279 4.66366 10.5967 3.75255C11.2304 3.21624 11.9672 2.82956 12.6887 2.43029C13.4221 2.10305 14.1547 1.76951 14.9159 1.5122C15.1186 1.48353 15.3178 1.43598 15.5065 1.35557C16.6347 1.06049 17.795 0.882182 18.9615 0.868896ZM13.3615 3.26029C12.7194 3.63229 12.0278 3.92736 11.4435 4.39236C10.3432 5.25592 9.24768 6.15374 8.38341 7.26483C7.77612 8.06965 7.16465 8.87727 6.68551 9.7674C6.51976 10.1688 6.25511 10.5198 6.10608 10.9281C5.64434 12.0001 5.16729 13.0727 4.89081 14.2111C4.58229 15.2159 4.42141 16.2577 4.29954 17.2996C4.23686 17.8597 4.15189 18.4177 4.13866 18.982C4.10871 20.0056 4.18532 21.0279 4.21945 22.0502C4.2863 22.6579 4.34202 23.2683 4.45832 23.8689C4.5607 24.6535 4.67839 25.4366 4.8128 26.2163C4.85041 26.8575 4.91379 27.498 5.0092 28.1343C5.05725 28.9111 4.96811 29.6866 4.94025 30.4634C4.8525 31.2242 4.79888 31.9927 4.63939 32.7437C4.21527 34.2624 3.82735 35.793 3.31339 37.2852C2.89623 38.5117 2.32724 39.7081 2.18935 41.0115C1.95395 41.9016 1.9059 42.826 1.79029 43.7364C1.72413 44.1335 1.83417 44.5314 1.78751 44.9286C1.73388 45.3971 1.87108 45.8565 1.88222 46.3236C1.94838 46.9333 2.03195 47.5437 2.18656 48.1388C2.26874 48.6199 2.35997 49.1037 2.53408 49.5617C2.70889 50.0015 2.79455 50.4756 3.02228 50.8938C3.30851 51.4574 3.50212 52.0643 3.81273 52.616C4.45832 53.7117 5.2042 54.7466 6.01624 55.7241C6.57129 56.2653 7.13262 56.8016 7.71971 57.3079C8.28451 57.8043 8.92941 58.1966 9.56873 58.5868C10.0855 58.9553 10.6865 59.1721 11.2687 59.4112C12.2235 59.8545 13.2473 60.1825 14.294 60.2971C14.3212 60.4279 14.5726 60.4237 14.6722 60.3601L14.7188 60.3929C16.1368 60.6468 17.5868 60.5391 19.011 60.4048C19.5904 60.2831 20.167 60.151 20.7472 60.0335C21.4784 59.8126 22.2055 59.5699 22.9054 59.2609C23.4326 58.9707 23.9981 58.7525 24.5009 58.4183C25.2538 58.0148 25.9342 57.4911 26.6034 56.9632C27.2671 56.4429 27.8236 55.8066 28.417 55.2109C28.5555 55.0466 28.6642 54.8599 28.8049 54.6969C30.1309 53.06 31.1149 51.1266 31.5537 49.0576C32.1477 46.2991 31.7424 43.3574 30.5271 40.8227C30.4004 40.5346 30.1873 40.28 30.1476 39.9598C29.8607 38.8928 29.502 37.846 29.2171 36.7783C29.0862 36.0014 28.9595 35.2197 28.9267 34.4316C28.933 33.1751 29.2234 31.9172 29.7861 30.7935C29.908 30.5397 30.0988 30.3208 30.1734 30.0446C30.6086 28.9202 30.913 27.7518 31.241 26.5932C31.4032 25.9457 31.4952 25.2828 31.6379 24.6311C31.9465 23.0201 32.0816 21.3824 32.1679 19.7462C32.2424 18.603 32.0878 17.4625 32.0635 16.32C31.9639 15.3865 31.8211 14.4558 31.6331 13.5356C31.562 12.9314 31.3482 12.3588 31.1881 11.7749C30.8266 10.4834 30.344 9.2171 29.6468 8.06825C29.1712 7.1068 28.4622 6.29149 27.7999 5.45799C26.8214 4.49514 25.7587 3.56935 24.4682 3.06101C24.2084 2.97081 23.9911 2.7939 23.7335 2.7009C22.3051 2.20025 20.7966 1.91356 19.2812 1.91705C17.2434 1.92894 15.1931 2.35128 13.3615 3.26029Z" fill="black"/>
<path d="M18.6746 3.47076C18.9782 3.32462 19.4553 3.49593 19.4588 3.87632C19.4852 4.11546 19.2784 4.27209 19.1516 4.4448C18.9894 4.64338 18.8501 4.90769 18.5806 4.96923C18.1724 5.06432 17.7811 4.52801 18.0429 4.17979C18.2261 3.92387 18.3995 3.63578 18.6746 3.47076Z" fill="black"/>
<path d="M20.4992 3.64627C20.6448 3.59033 20.8161 3.59872 20.9637 3.64557C21.2374 3.81059 21.2604 4.16161 21.3886 4.42592C21.7305 5.11467 21.7591 5.9139 21.6866 6.66628C21.6449 7.2865 21.3865 7.89834 20.9547 8.34655C20.3488 8.89894 19.4664 9.16326 18.6634 8.96957C17.7448 8.75071 16.8987 8.23956 16.2559 7.54802C16.0769 7.36132 15.9021 7.08932 16.0288 6.82501C16.1612 6.47399 16.6758 6.3712 16.9189 6.66558C17.4203 7.30189 18.1272 7.81093 18.9343 7.94938C19.4253 8.03329 19.9992 7.91931 20.314 7.50117C20.6977 7.011 20.6747 6.34882 20.6629 5.75937C20.6678 5.18739 20.3042 4.70631 20.2116 4.15601C20.1677 3.94065 20.3209 3.74486 20.4992 3.64627Z" fill="black"/>
<path d="M14.847 4.46508C15.1276 4.36299 15.5365 4.46298 15.6131 4.78812C15.6639 5.0881 15.494 5.365 15.3651 5.62301C14.9494 6.36491 14.5204 7.11519 13.9089 7.71514C13.4548 8.17034 12.9116 8.60107 12.2549 8.68568C11.7541 8.76259 11.1831 8.61645 10.869 8.19481C10.6343 7.87526 10.4469 7.49278 10.4525 7.08792C10.4504 6.86906 10.5758 6.6467 10.7819 6.56209C11.025 6.50266 11.3251 6.61034 11.4289 6.85088C11.5006 7.12148 11.5334 7.44942 11.7869 7.62004C12.0069 7.7515 12.2716 7.63752 12.4756 7.52704C12.9812 7.23546 13.3413 6.75858 13.7153 6.32155C14.0273 5.89572 14.3086 5.44191 14.5043 4.94965C14.5796 4.76715 14.6638 4.56297 14.847 4.46508Z" fill="black"/>
<path d="M24.7377 4.4455C24.9174 4.33852 25.1556 4.39585 25.315 4.51962C25.7127 4.814 26.0804 5.1783 26.2866 5.6363C26.3917 5.95306 26.5735 6.25652 26.5665 6.60055C26.5791 7.06554 26.5498 7.5655 26.2824 7.96266C26.0609 8.27942 25.7392 8.52765 25.3777 8.65911C24.7802 8.80035 24.1311 8.76889 23.5649 8.52345C23.2453 8.39759 23.1457 7.94938 23.3379 7.67808C23.5092 7.48648 23.8087 7.43194 24.0371 7.55081C24.4355 7.7445 24.9606 7.79275 25.3206 7.49418C25.5957 7.25993 25.5804 6.85577 25.5038 6.53412C25.4007 6.13136 25.2182 5.71252 24.861 5.47548C24.6708 5.34262 24.432 5.18669 24.432 4.92518C24.4111 4.71191 24.5859 4.56157 24.7377 4.4455Z" fill="black"/>
<path d="M26.421 9.52267C26.5519 9.4919 26.6996 9.44225 26.8277 9.51008C27.1752 9.68349 27.4016 10.0135 27.6759 10.2771C28.2233 10.7995 28.6196 11.4554 28.9685 12.121C29.2067 12.7643 29.3453 13.4832 29.1607 14.1593C29.0312 14.6467 28.7067 15.1075 28.2359 15.3089C27.8584 15.4179 27.4663 14.9725 27.6154 14.6089C27.74 14.3537 28.0541 14.2397 28.1342 13.9551C28.286 13.4685 28.2275 12.9168 27.9712 12.4755C27.6265 11.8525 27.2602 11.2127 26.6961 10.761C26.4948 10.5911 26.2657 10.4366 26.1361 10.2002C25.9955 9.9471 26.203 9.64713 26.421 9.52267Z" fill="black"/>
<path d="M16.4662 10.0863C17.4482 9.89816 18.4315 10.2135 19.3195 10.6128C19.5542 10.7191 19.7951 10.9414 19.7436 11.2267C19.6914 11.6162 19.1718 11.7994 18.8647 11.577C18.2713 11.1813 17.5338 11.0904 16.8374 11.1043C16.3199 11.1113 15.8129 11.3449 15.4759 11.7393C15.331 11.9127 15.3101 12.1602 15.1527 12.3245C14.8853 12.5748 14.3769 12.4119 14.2975 12.0546C14.2508 11.8308 14.3609 11.6169 14.4667 11.4281C14.7014 11.0218 15.0281 10.6533 15.4459 10.4338C15.7795 10.3002 16.1054 10.1324 16.4662 10.0863Z" fill="black"/>
<path d="M28.7742 17.3373C29.0479 17.1863 29.4477 17.3346 29.511 17.6569C29.6733 18.3415 29.7485 19.0512 29.7102 19.7546C29.6747 20.7168 29.6072 21.6922 29.3063 22.6131C29.0988 23.2487 28.8515 23.8808 28.4859 24.4423C28.3006 24.6262 28.215 24.9514 27.9232 24.9912C27.5471 25.0758 27.1745 24.6577 27.3048 24.292C27.3939 24.1144 27.5471 23.9815 27.653 23.8151C27.8953 23.4753 28.0242 23.0746 28.1621 22.6844C28.4734 21.7845 28.6586 20.8391 28.6893 19.8868C28.7018 19.4414 28.6551 18.998 28.6342 18.554C28.6238 18.2911 28.5054 18.0478 28.4866 17.787C28.4727 17.5891 28.6363 17.4492 28.7742 17.3373Z" fill="black"/>
<path d="M7.3903 21.2419C7.76985 21.0727 8.25875 21.4188 8.16125 21.8425C8.0916 22.253 7.54073 22.3607 7.26355 22.0866C6.97662 21.8614 7.11521 21.4097 7.3903 21.2419Z" fill="black"/>
<path d="M5.78293 21.9992C6.04479 21.8607 6.40972 22.0327 6.48842 22.3187C6.59845 22.6236 6.36445 22.9718 6.05454 23.0208C5.71259 23.0522 5.3797 22.704 5.457 22.36C5.496 22.1922 5.6534 22.0943 5.78293 21.9992Z" fill="black"/>
<path d="M21.8823 22.1621C22.0913 22.111 22.3517 22.1544 22.4722 22.3516C22.6832 22.6802 22.4381 23.1585 22.0704 23.2291C21.7876 23.2585 21.5202 23.0229 21.4721 22.7495C21.4331 22.4858 21.6671 22.2649 21.8823 22.1621Z" fill="black"/>
<path d="M7.59365 23.2564C7.87292 23.1438 8.27407 23.2662 8.34023 23.5906C8.42659 23.9144 8.15498 24.2095 7.86457 24.2983C7.57485 24.3423 7.29558 24.0913 7.24544 23.813C7.21619 23.5683 7.41606 23.3872 7.59365 23.2564Z" fill="black"/>
<path d="M23.6081 23.6815C23.9988 23.4809 24.5364 23.8501 24.432 24.2955C24.3393 24.7304 23.7286 24.8311 23.457 24.5045C23.1986 24.2696 23.3086 23.8221 23.6081 23.6815Z" fill="black"/>
<path d="M21.8635 24.0927C22.2612 23.9647 22.6749 24.443 22.507 24.8213C22.3573 25.1429 21.8412 25.2464 21.6072 24.9625C21.3781 24.6884 21.461 24.1479 21.8635 24.0927Z" fill="black"/>
<path d="M26.8841 27.5259C27.2699 27.3141 27.7748 27.7189 27.6404 28.1385C27.5367 28.5825 27.5081 29.0419 27.3709 29.4775C27.0102 30.6893 26.531 31.8913 25.7496 32.8954C25.2677 33.5107 24.6444 34.0652 23.8672 34.2491C23.2794 34.4078 22.5843 34.3183 22.1526 33.8547C21.3767 33.0485 21.0536 31.8913 21.0599 30.7907C21.0605 30.511 21.009 30.2089 21.142 29.9502C21.3677 29.5775 22.0272 29.7488 22.0857 30.167C22.1184 30.5851 22.0557 31.0082 22.1296 31.4242C22.2222 31.9759 22.3914 32.5395 22.7508 32.9779C22.9346 33.2066 23.2341 33.3485 23.5294 33.2863C23.9793 33.194 24.3324 32.8667 24.6402 32.5437C25.6396 31.4641 26.1849 30.0467 26.5108 28.63C26.6229 28.2566 26.4837 27.7518 26.8841 27.5259Z" fill="black"/>
<path d="M7.17719 28.1553C7.45228 28.0546 7.86248 28.1539 7.92794 28.479C7.95998 28.8314 7.87919 29.1817 7.87153 29.5342C7.85273 30.1201 7.87083 30.7075 7.89033 31.2934C7.9558 31.899 7.96555 32.5234 8.19119 33.0975C8.30959 33.4981 8.51852 33.8799 8.82843 34.1631C9.01925 34.3281 9.33334 34.4148 9.37304 34.7015C9.43989 35.1134 8.9322 35.4623 8.57702 35.2427C8.03171 34.8924 7.56162 34.3911 7.32971 33.7771C7.19669 33.4723 7.06715 33.1597 7.03721 32.8255C7.00238 32.4241 6.86519 32.0374 6.86519 31.6326C6.85404 30.9571 6.8227 30.2809 6.85265 29.6055C6.87006 29.2328 6.81087 28.8538 6.89722 28.4874C6.93204 28.3392 7.05601 28.2343 7.17719 28.1553Z" fill="black"/>
<path d="M6.91533 37.4048C7.22385 37.1013 7.58948 36.8454 7.99967 36.7041C8.23019 36.6314 8.43982 36.7699 8.62716 36.8853C8.66616 37.0747 8.756 37.2852 8.6578 37.4726C8.56587 37.6516 8.35137 37.6915 8.18423 37.7698C7.86665 37.8845 7.65494 38.1656 7.44462 38.4166C7.0191 38.9291 6.7259 39.5675 6.67576 40.2374C6.60611 40.6479 5.95774 40.7639 5.74533 40.4094C5.59768 40.1675 5.65131 39.8668 5.71956 39.6081C5.95008 38.7998 6.31222 38.0026 6.91533 37.4048Z" fill="black"/>
<path d="M26.6884 36.9006C26.9161 36.7888 27.24 36.851 27.3486 37.0999C27.5206 37.4761 27.7163 37.846 27.8201 38.2495C27.8967 38.5334 27.903 38.8312 27.9789 39.1158C28.0583 39.3529 27.8946 39.6109 27.6815 39.7102C27.4245 39.7962 27.0861 39.6864 26.9907 39.4144C26.8653 39.0788 26.9085 38.704 26.7762 38.3697C26.6431 38.0383 26.4363 37.7292 26.3792 37.3712C26.3625 37.1621 26.5359 37.0111 26.6884 36.9006Z" fill="black"/>
<path d="M21.8963 37.8348C22.0669 37.767 22.2918 37.7719 22.4256 37.9145C22.7348 38.2578 22.92 38.6879 23.1269 39.0969C23.3734 39.5584 23.5238 40.0654 23.6464 40.5723C23.6931 40.7667 23.7188 41.0163 23.5489 41.1611C23.3107 41.4149 22.8385 41.3072 22.709 40.9926C22.5648 40.6311 22.5036 40.2402 22.3329 39.8885C22.1637 39.5277 22.0425 39.1403 21.8092 38.813C21.7027 38.6487 21.5585 38.4774 21.5864 38.2676C21.6017 38.0781 21.7584 37.9453 21.8963 37.8348Z" fill="black"/>
<path d="M12.5529 38.0278C12.8447 37.8838 13.2974 38.0649 13.3155 38.4215C13.3037 38.6578 13.1853 38.8746 13.1595 39.1102C12.9715 40.3115 12.9207 41.5534 13.1804 42.7491C13.2842 43.2224 13.4527 43.6818 13.693 44.1035C13.8957 44.4258 13.6053 44.9125 13.2257 44.8831C12.991 44.8845 12.8078 44.7034 12.7173 44.5013C12.4937 44.0161 12.2925 43.5182 12.1483 43.0036C12.0884 42.5491 11.9735 42.0981 11.9972 41.6366C11.9679 40.6213 12.0348 39.6046 12.2026 38.6033C12.2305 38.3683 12.3468 38.1502 12.5529 38.0278Z" fill="black"/>
<path d="M9.74702 38.5802C9.965 38.5033 10.2575 38.5333 10.3808 38.7543C10.5618 39.076 10.5187 39.4619 10.5479 39.8172C10.6364 40.5548 10.4414 41.3002 10.1287 41.9638C9.85079 42.512 9.45034 43.0518 8.86046 43.2812C8.17448 43.5441 7.3903 43.4245 6.74819 43.0952C6.36376 42.8959 6.02251 42.5896 5.8289 42.1974C5.652 41.8107 6.09424 41.3114 6.49817 41.4646C6.74192 41.5604 6.80669 41.8491 6.99472 42.0107C7.42233 42.3757 8.07837 42.4973 8.58328 42.2232C8.93498 42.0344 9.14252 41.6687 9.28389 41.3086C9.57779 40.6136 9.56038 39.8458 9.45313 39.113C9.3995 38.8984 9.56316 38.6725 9.74702 38.5802Z" fill="black"/>
<path d="M17.9656 39.0634C18.1878 38.9802 18.5026 38.9795 18.66 39.1864C19.4121 40.4024 19.7373 41.8331 19.8425 43.2469C19.8745 44.107 19.4274 45.0048 18.6502 45.4041C18.0541 45.7194 17.3486 45.6796 16.703 45.5838C16.2956 45.4838 15.8297 45.3565 15.5852 44.9852C15.3575 44.6398 15.6757 44.1231 16.0811 44.1629C16.2942 44.214 16.43 44.4139 16.6347 44.4853C17.0804 44.6314 17.5763 44.6461 18.0227 44.4965C18.3654 44.3853 18.6704 44.1154 18.763 43.7581C18.8654 43.3546 18.754 42.9427 18.715 42.5386C18.6878 42.1547 18.5569 41.7911 18.4977 41.4128C18.4232 40.9688 18.208 40.5702 18.0332 40.1612C17.9593 39.9717 17.7678 39.8605 17.6912 39.6752C17.6543 39.4473 17.749 39.1704 17.9656 39.0634Z" fill="black"/>
<path d="M22.4256 43.0511C22.7571 42.8938 23.2174 43.1406 23.2181 43.5175C22.9367 44.4923 22.8309 45.525 22.9611 46.534C23.0398 46.9969 23.1478 47.4892 23.4716 47.8472C23.716 48.108 24.1179 48.1269 24.4452 48.0486C24.9014 47.9486 25.3373 47.7416 25.6897 47.4312C25.8701 47.2794 25.9 47.0018 26.1159 46.8843C26.3367 46.7361 26.6703 46.7844 26.8152 47.0158C26.9872 47.2899 26.8806 47.6486 26.6856 47.8808C26.0846 48.6171 25.1667 49.0786 24.223 49.145C23.5614 49.1848 22.9131 48.8331 22.5328 48.2975C22.0077 47.5934 21.883 46.6858 21.8531 45.8299C21.8085 45.03 21.9548 44.2356 22.1491 43.4637C22.1943 43.3028 22.2702 43.1315 22.4256 43.0511Z" fill="black"/>
<path d="M4.59343 45.4999C4.85947 45.4236 5.21813 45.5369 5.29404 45.8306C5.33791 46.2005 5.21882 46.569 5.25922 46.9403C5.31424 47.4465 5.29334 47.9752 5.50297 48.4499C5.66454 48.7667 5.36159 49.2037 5.00711 49.1499C4.72714 49.1268 4.52239 48.8821 4.44509 48.6268C4.30441 48.1269 4.30371 47.6032 4.25218 47.0899C4.21387 46.6921 4.23477 46.2914 4.2682 45.8942C4.27098 45.704 4.45066 45.5901 4.59343 45.4999Z" fill="black"/>
<path d="M29.0625 45.8572C29.1266 45.6194 29.4017 45.5796 29.5988 45.5096C29.7555 45.5824 29.9582 45.6222 30.0327 45.8005C30.1956 46.1383 30.2117 46.5214 30.291 46.8837C30.4505 47.6172 30.4241 48.3772 30.3447 49.1191C30.1963 49.761 29.9303 50.4043 29.4456 50.8651C29.0611 51.2294 28.5179 51.4574 27.9859 51.3679C27.6063 51.256 27.5172 50.6588 27.8438 50.4372C28.082 50.2931 28.4023 50.3687 28.6252 50.1883C29.0333 49.8666 29.291 49.3604 29.3195 48.8408C29.3773 48.1276 29.4212 47.3885 29.197 46.6983C29.1189 46.427 28.9971 46.1439 29.0625 45.8572Z" fill="black"/>
<path d="M9.19127 46.4767C9.44616 46.3487 9.81249 46.4375 9.90511 46.7305C10.2819 47.95 10.3717 49.2681 10.1015 50.5204C9.93088 51.2721 9.51093 52.0293 8.79291 52.3713C8.36739 52.5908 7.86875 52.6034 7.4098 52.4936C6.62144 52.3237 5.87834 51.8888 5.38249 51.2455C5.1854 50.9924 5.1067 50.563 5.37691 50.333C5.62276 50.1071 6.04758 50.2232 6.18826 50.5134C6.37072 50.9231 6.79415 51.1448 7.18415 51.3161C7.59644 51.4721 8.093 51.6154 8.50111 51.3756C8.90921 51.0665 9.03248 50.5323 9.12789 50.0554C9.28389 49.0184 9.18152 47.95 8.88902 46.9473C8.86464 46.7445 9.03318 46.5746 9.19127 46.4767Z" fill="black"/>
<path d="M12.1225 48.0849C12.3148 47.9801 12.5773 48.0591 12.695 48.243C12.8928 48.5436 12.9207 48.9156 13.0063 49.2576C13.0718 49.5848 13.2173 49.9023 13.1971 50.2414C13.1449 50.5386 12.8134 50.7497 12.5244 50.6365C12.1929 50.5505 12.1386 50.1617 12.0815 49.8771C12.0237 49.4289 11.8203 49.0128 11.7855 48.5625C11.7555 48.3339 11.9554 48.1912 12.1225 48.0849Z" fill="black"/>
<path d="M19.791 49.3562C20.1064 49.2394 20.5535 49.4429 20.5285 49.8205C20.376 50.5358 20.245 51.2833 19.8488 51.9119C19.6412 52.1972 19.4615 52.5062 19.2143 52.76C18.816 53.1474 18.3702 53.5012 17.8451 53.697C17.2977 53.9802 16.6779 54.0606 16.0713 54.0907C15.3428 54.0893 14.606 54.0341 13.9054 53.8243C13.6338 53.7341 13.319 53.6152 13.2013 53.3285C13.0634 52.9978 13.3559 52.5866 13.7111 52.6048C13.888 52.6272 14.0447 52.7188 14.2042 52.7929C14.5879 52.9936 15.0295 53.0251 15.4543 53.0523C16.1521 53.0768 16.875 53.0202 17.5185 52.7272C18.3215 52.316 18.9664 51.5867 19.2484 50.7239C19.3585 50.3638 19.4288 49.9932 19.5124 49.6268C19.5799 49.5149 19.6823 49.4261 19.791 49.3562Z" fill="black"/>
<path d="M25.1395 53.7446C25.4453 53.6565 25.8248 53.883 25.836 54.218C25.8422 54.5158 25.6284 54.7508 25.4606 54.9752C24.666 55.9199 23.9027 56.9142 22.911 57.6631C22.4653 57.982 21.9325 58.2651 21.3663 58.1784C20.6775 58.1372 20.1524 57.5219 20.018 56.8765C19.9372 56.3534 20.0152 55.7416 20.4219 55.3668C20.7256 55.1018 21.2437 55.3822 21.2583 55.7668C21.2973 55.9828 21.055 56.1052 21.0397 56.3087C21.009 56.5709 21.0501 56.8737 21.2542 57.0611C21.4401 57.2065 21.6922 57.1478 21.8865 57.0513C22.3963 56.7988 22.8232 56.408 23.1923 55.9793C23.7822 55.3095 24.471 54.7081 24.8993 53.9124C24.9515 53.825 25.0518 53.7844 25.1395 53.7446Z" fill="black"/>
<path d="M11.2966 54.6011C11.516 54.5214 11.8126 54.5997 11.9213 54.8214C12.1058 55.1752 12.1971 55.5759 12.2228 55.9723C12.2082 56.5233 12.0055 57.1044 11.557 57.4477C11.1273 57.7911 10.534 57.8701 10.0117 57.7295C9.07566 57.4897 8.28451 56.8855 7.58321 56.2422C7.30255 55.9695 6.98288 55.7234 6.77535 55.3871C6.56502 55.0214 6.97662 54.5291 7.37149 54.6641C7.73782 54.7585 7.91889 55.1263 8.17935 55.3675C8.76644 55.9171 9.40855 56.4562 10.1899 56.6933C10.417 56.7317 10.7004 56.8205 10.894 56.6457C11.1524 56.3856 11.2583 55.9682 11.1308 55.6199C11.0751 55.4535 10.9922 55.2969 10.9595 55.1249C10.9275 54.8948 11.1141 54.7067 11.2966 54.6011Z" fill="black"/>
<path d="M18.3869 55.1563C18.662 55.057 19.0298 55.1815 19.1273 55.4752C19.1642 55.6094 19.169 55.7794 19.0722 55.8919C18.6941 56.2975 18.5088 56.8527 18.0847 57.2205C17.6794 57.5771 17.2149 57.8715 16.7169 58.0784C16.1514 58.2428 15.5288 58.2686 14.971 58.0568C14.5761 57.905 14.115 57.7925 13.856 57.4282C13.6227 57.0792 14.0154 56.5758 14.4075 56.6625C14.6388 56.7359 14.8205 56.9121 15.0462 57.0002C15.5497 57.231 16.1618 57.2303 16.6514 56.9625C17.1194 56.7121 17.5171 56.3373 17.8166 55.8996C17.9851 55.6381 18.068 55.2794 18.3869 55.1563Z" fill="black"/>
<path d="M14.9159 1.5122C15.1033 1.42899 15.3018 1.37375 15.5065 1.35557C15.3178 1.43598 15.1186 1.48353 14.9159 1.5122Z" fill="#403201"/>
<path d="M13.3615 3.26029C15.1931 2.35128 17.2434 1.92894 19.2812 1.91705C20.7966 1.91356 22.3051 2.20025 23.7335 2.7009C23.9911 2.7939 24.2084 2.97081 24.4682 3.06101C25.7587 3.56935 26.8214 4.49514 27.7999 5.45799C28.4622 6.29149 29.1712 7.1068 29.6468 8.06825C30.344 9.2171 30.8266 10.4834 31.1881 11.7749C31.3482 12.3588 31.562 12.9314 31.6331 13.5356C31.8211 14.4558 31.9639 15.3865 32.0635 16.32C32.0878 17.4625 32.2424 18.603 32.1679 19.7462C32.0816 21.3824 31.9465 23.0201 31.6379 24.6311C31.4952 25.2828 31.4032 25.9457 31.241 26.5932C30.913 27.7518 30.6086 28.9202 30.1734 30.0446C30.0988 30.3208 29.908 30.5397 29.7861 30.7935C29.2234 31.9172 28.933 33.1751 28.9267 34.4316C28.9595 35.2197 29.0862 36.0014 29.2171 36.7783C29.502 37.846 29.8607 38.8928 30.1476 39.9598C30.1873 40.28 30.4004 40.5346 30.5271 40.8227C31.7424 43.3574 32.1477 46.2991 31.5537 49.0576C31.1149 51.1266 30.1309 53.06 28.8049 54.6969C28.6642 54.8599 28.5555 55.0466 28.417 55.2109C27.8236 55.8066 27.2671 56.4429 26.6034 56.9632C25.9342 57.4911 25.2538 58.0148 24.5009 58.4183C23.9981 58.7525 23.4326 58.9707 22.9054 59.2609C22.2055 59.5699 21.4784 59.8126 20.7472 60.0335C20.167 60.151 19.5904 60.2831 19.011 60.4048C17.5868 60.5391 16.1368 60.6468 14.7188 60.3929L14.6722 60.3601C14.5663 60.272 14.4208 60.2999 14.294 60.2971C13.2473 60.1825 12.2235 59.8545 11.2687 59.4112C10.6865 59.1721 10.0855 58.9553 9.56873 58.5868C8.92941 58.1966 8.28451 57.8043 7.71971 57.3079C7.13262 56.8016 6.57129 56.2653 6.01624 55.7241C5.2042 54.7466 4.45832 53.7117 3.81273 52.616C3.50212 52.0643 3.30851 51.4574 3.02228 50.8938C2.79455 50.4756 2.70889 50.0015 2.53408 49.5617C2.35997 49.1037 2.26874 48.6199 2.18656 48.1388C2.03195 47.5437 1.94838 46.9333 1.88222 46.3236C1.87108 45.8565 1.73388 45.3971 1.78751 44.9286C1.83417 44.5314 1.72413 44.1335 1.79029 43.7364C1.9059 42.826 1.95395 41.9016 2.18935 41.0115C2.32724 39.7081 2.89623 38.5117 3.31339 37.2852C3.82735 35.793 4.21527 34.2624 4.63939 32.7437C4.79888 31.9927 4.8525 31.2242 4.94025 30.4634C5.05238 29.6936 5.09765 28.9069 5.0092 28.1343C4.91379 27.498 4.85041 26.8575 4.8128 26.2163C4.67839 25.4366 4.5607 24.6535 4.45832 23.8689C4.34202 23.2683 4.2863 22.6579 4.21945 22.0502C4.18532 21.0279 4.10871 20.0056 4.13866 18.982C4.15189 18.4177 4.23686 17.8597 4.29954 17.2996C4.42141 16.2577 4.58229 15.2159 4.89081 14.2111C5.16729 13.0727 5.64434 12.0001 6.10608 10.9281C6.25511 10.5198 6.51976 10.1688 6.68551 9.7674C7.16465 8.87727 7.77612 8.06965 8.38341 7.26483C9.24768 6.15374 10.3432 5.25592 11.4435 4.39236C12.0278 3.92736 12.7194 3.63229 13.3615 3.26029ZM18.6746 3.47076C18.3995 3.63578 18.2261 3.92387 18.0429 4.17979C17.7811 4.52801 18.1724 5.06432 18.5806 4.96923C18.8501 4.90769 18.9894 4.64338 19.1516 4.4448C19.2784 4.27209 19.4852 4.11546 19.4588 3.87632C19.4553 3.49593 18.9782 3.32462 18.6746 3.47076ZM20.4992 3.64627C20.3209 3.74486 20.1677 3.94065 20.2116 4.15601C20.3042 4.70631 20.6678 5.18739 20.6629 5.75937C20.6747 6.34882 20.6977 7.011 20.314 7.50117C19.9992 7.91931 19.4253 8.03329 18.9343 7.94938C18.1272 7.81093 17.4203 7.30189 16.9189 6.66558C16.6758 6.3712 16.1612 6.47399 16.0288 6.82501C15.9021 7.08932 16.0769 7.36132 16.2559 7.54802C16.8987 8.23956 17.7448 8.75071 18.6634 8.96957C19.4664 9.16326 20.3488 8.89894 20.9547 8.34655C21.3865 7.89834 21.6449 7.2865 21.6866 6.66628C21.7591 5.9139 21.7305 5.11467 21.3886 4.42592C21.2604 4.16161 21.2374 3.81059 20.9637 3.64557C20.8161 3.59872 20.6448 3.59033 20.4992 3.64627ZM14.847 4.46508C14.6638 4.56297 14.5796 4.76715 14.5043 4.94965C14.3086 5.44191 14.0273 5.89572 13.7153 6.32155C13.3413 6.75858 12.9812 7.23546 12.4756 7.52704C12.2716 7.63752 12.0069 7.7515 11.7869 7.62004C11.5334 7.44942 11.5006 7.12148 11.4289 6.85088C11.3251 6.61034 11.025 6.50266 10.7819 6.56209C10.5758 6.6467 10.4504 6.86906 10.4525 7.08792C10.4469 7.49278 10.6343 7.87526 10.869 8.19481C11.1831 8.61645 11.7541 8.76259 12.2549 8.68568C12.9116 8.60107 13.4548 8.17034 13.9089 7.71514C14.5204 7.11519 14.9494 6.36491 15.3651 5.62301C15.494 5.365 15.6639 5.0881 15.6131 4.78812C15.5365 4.46298 15.1276 4.36299 14.847 4.46508ZM24.7377 4.4455C24.5859 4.56157 24.4111 4.71191 24.432 4.92518C24.432 5.18669 24.6708 5.34262 24.861 5.47548C25.2182 5.71252 25.4007 6.13136 25.5038 6.53412C25.5804 6.85577 25.5957 7.25993 25.3206 7.49418C24.9606 7.79275 24.4355 7.7445 24.0371 7.55081C23.8087 7.43194 23.5092 7.48648 23.3379 7.67808C23.1457 7.94938 23.2453 8.39759 23.5649 8.52345C24.1311 8.76889 24.7802 8.80035 25.3777 8.65911C25.7392 8.52765 26.0609 8.27942 26.2824 7.96266C26.5498 7.5655 26.5791 7.06554 26.5665 6.60055C26.5735 6.25652 26.3917 5.95306 26.2866 5.6363C26.0804 5.1783 25.7127 4.814 25.315 4.51962C25.1556 4.39585 24.9174 4.33852 24.7377 4.4455ZM26.421 9.52267C26.203 9.64713 25.9955 9.9471 26.1361 10.2002C26.2657 10.4366 26.4948 10.5911 26.6961 10.761C27.2602 11.2127 27.6265 11.8525 27.9712 12.4755C28.2275 12.9168 28.286 13.4685 28.1342 13.9551C28.0541 14.2397 27.74 14.3537 27.6154 14.6089C27.4663 14.9725 27.8584 15.4179 28.2359 15.3089C28.7067 15.1075 29.0312 14.6467 29.1607 14.1593C29.3453 13.4832 29.2067 12.7643 28.9685 12.121C28.6196 11.4554 28.2233 10.7995 27.6759 10.2771C27.4016 10.0135 27.1752 9.68349 26.8277 9.51008C26.6996 9.44225 26.5519 9.4919 26.421 9.52267ZM16.4662 10.0863C16.1054 10.1324 15.7795 10.3002 15.4459 10.4338C15.0281 10.6533 14.7014 11.0218 14.4667 11.4281C14.3609 11.6169 14.2508 11.8308 14.2975 12.0546C14.3769 12.4119 14.8853 12.5748 15.1527 12.3245C15.3101 12.1602 15.331 11.9127 15.4759 11.7393C15.8129 11.3449 16.3199 11.1113 16.8374 11.1043C17.5338 11.0904 18.2713 11.1813 18.8647 11.577C19.1718 11.7994 19.6914 11.6162 19.7436 11.2267C19.7951 10.9414 19.5542 10.7191 19.3195 10.6128C18.4315 10.2135 17.4482 9.89816 16.4662 10.0863ZM28.7742 17.3373C28.6363 17.4492 28.4727 17.5891 28.4866 17.787C28.5054 18.0478 28.6238 18.2911 28.6342 18.554C28.6551 18.998 28.7018 19.4414 28.6893 19.8868C28.6586 20.8391 28.4734 21.7845 28.1621 22.6844C28.0242 23.0746 27.8953 23.4753 27.653 23.8151C27.5471 23.9815 27.3939 24.1144 27.3048 24.292C27.1745 24.6577 27.5471 25.0758 27.9232 24.9912C28.215 24.9514 28.3006 24.6262 28.4859 24.4423C28.8515 23.8808 29.0988 23.2487 29.3063 22.6131C29.6072 21.6922 29.6747 20.7168 29.7102 19.7546C29.7485 19.0512 29.6733 18.3415 29.511 17.6569C29.4477 17.3346 29.0479 17.1863 28.7742 17.3373ZM7.3903 21.2419C7.11521 21.4097 6.97662 21.8614 7.26355 22.0866C7.54073 22.3607 8.0916 22.253 8.16125 21.8425C8.25875 21.4188 7.76985 21.0727 7.3903 21.2419ZM5.78293 21.9992C5.6534 22.0943 5.496 22.1922 5.457 22.36C5.3797 22.704 5.71259 23.0522 6.05454 23.0208C6.36445 22.9718 6.59845 22.6236 6.48842 22.3187C6.40972 22.0327 6.04479 21.8607 5.78293 21.9992ZM21.8823 22.1621C21.6671 22.2649 21.4331 22.4858 21.4721 22.7495C21.5202 23.0229 21.7876 23.2585 22.0704 23.2291C22.4381 23.1585 22.6832 22.6802 22.4722 22.3516C22.3517 22.1544 22.0913 22.111 21.8823 22.1621ZM7.59365 23.2564C7.41606 23.3872 7.21619 23.5683 7.24544 23.813C7.29558 24.0913 7.57485 24.3423 7.86457 24.2983C8.15498 24.2095 8.42659 23.9144 8.34023 23.5906C8.27407 23.2662 7.87292 23.1438 7.59365 23.2564ZM23.6081 23.6815C23.3086 23.8221 23.1986 24.2696 23.457 24.5045C23.7286 24.8311 24.3393 24.7304 24.432 24.2955C24.5364 23.8501 23.9988 23.4809 23.6081 23.6815ZM21.8635 24.0927C21.461 24.1479 21.3781 24.6884 21.6072 24.9625C21.8412 25.2464 22.3573 25.1429 22.507 24.8213C22.6749 24.443 22.2612 23.9647 21.8635 24.0927ZM26.8841 27.5259C26.4837 27.7518 26.6229 28.2566 26.5108 28.63C26.1849 30.0467 25.6396 31.4641 24.6402 32.5437C24.3324 32.8667 23.9793 33.194 23.5294 33.2863C23.2341 33.3485 22.9346 33.2066 22.7508 32.9779C22.3914 32.5395 22.2222 31.9759 22.1296 31.4242C22.0557 31.0082 22.1184 30.5851 22.0857 30.167C22.0272 29.7488 21.3677 29.5775 21.142 29.9502C21.009 30.2089 21.0605 30.511 21.0599 30.7907C21.0536 31.8913 21.3767 33.0485 22.1526 33.8547C22.5843 34.3183 23.2794 34.4078 23.8672 34.2491C24.6444 34.0652 25.2677 33.5107 25.7496 32.8954C26.531 31.8913 27.0102 30.6893 27.3709 29.4775C27.5081 29.0419 27.5367 28.5825 27.6404 28.1385C27.7748 27.7189 27.2699 27.3141 26.8841 27.5259ZM7.17719 28.1553C7.05601 28.2343 6.93204 28.3392 6.89722 28.4874C6.81087 28.8538 6.87006 29.2328 6.85265 29.6055C6.8227 30.2809 6.85404 30.9571 6.86519 31.6326C6.86519 32.0374 7.00238 32.4241 7.03721 32.8255C7.06715 33.1597 7.19669 33.4723 7.32971 33.7771C7.56162 34.3911 8.03171 34.8924 8.57702 35.2427C8.9322 35.4623 9.43989 35.1134 9.37304 34.7015C9.33334 34.4148 9.01925 34.3281 8.82843 34.1631C8.51852 33.8799 8.30959 33.4981 8.19119 33.0975C7.96555 32.5234 7.9558 31.899 7.89033 31.2934C7.87083 30.7075 7.85273 30.1201 7.87153 29.5342C7.87919 29.1817 7.95998 28.8314 7.92794 28.479C7.86248 28.1539 7.45228 28.0546 7.17719 28.1553ZM6.91533 37.4048C6.31222 38.0026 5.95008 38.7998 5.71956 39.6081C5.65131 39.8668 5.59768 40.1675 5.74533 40.4094C5.95774 40.7639 6.60611 40.6479 6.67576 40.2374C6.7259 39.5675 7.0191 38.9291 7.44462 38.4166C7.65494 38.1656 7.86665 37.8845 8.18423 37.7698C8.35137 37.6915 8.56587 37.6516 8.6578 37.4726C8.756 37.2852 8.66616 37.0747 8.62716 36.8853C8.43982 36.7699 8.23019 36.6314 7.99967 36.7041C7.58948 36.8454 7.22385 37.1013 6.91533 37.4048ZM26.6884 36.9006C26.5359 37.0111 26.3625 37.1621 26.3792 37.3712C26.4363 37.7292 26.6431 38.0383 26.7762 38.3697C26.9085 38.704 26.8653 39.0788 26.9907 39.4144C27.0861 39.6864 27.4245 39.7962 27.6815 39.7102C27.8946 39.6109 28.0583 39.3529 27.9789 39.1158C27.903 38.8312 27.8967 38.5334 27.8201 38.2495C27.7163 37.846 27.5206 37.4761 27.3486 37.0999C27.24 36.851 26.9161 36.7888 26.6884 36.9006ZM21.8963 37.8348C21.7584 37.9453 21.6017 38.0781 21.5864 38.2676C21.5585 38.4774 21.7027 38.6487 21.8092 38.813C22.0425 39.1403 22.1637 39.5277 22.3329 39.8885C22.5036 40.2402 22.5648 40.6311 22.709 40.9926C22.8385 41.3072 23.3107 41.4149 23.5489 41.1611C23.7188 41.0163 23.6931 40.7667 23.6464 40.5723C23.5238 40.0654 23.3734 39.5584 23.1269 39.0969C22.92 38.6879 22.7348 38.2578 22.4256 37.9145C22.2918 37.7719 22.0669 37.767 21.8963 37.8348ZM12.5529 38.0278C12.3468 38.1502 12.2305 38.3683 12.2026 38.6033C12.0348 39.6046 11.9679 40.6213 11.9972 41.6366C11.9735 42.0981 12.0884 42.5491 12.1483 43.0036C12.2925 43.5182 12.4937 44.0161 12.7173 44.5013C12.8078 44.7034 12.991 44.8845 13.2257 44.8831C13.6053 44.9125 13.8957 44.4258 13.693 44.1035C13.4527 43.6818 13.2842 43.2224 13.1804 42.7491C12.9207 41.5534 12.9715 40.3115 13.1595 39.1102C13.1853 38.8746 13.3037 38.6578 13.3155 38.4215C13.2974 38.0649 12.8447 37.8838 12.5529 38.0278ZM9.74702 38.5802C9.56316 38.6725 9.3995 38.8984 9.45313 39.113C9.56038 39.8458 9.57779 40.6136 9.28389 41.3086C9.14252 41.6687 8.93498 42.0344 8.58328 42.2232C8.07837 42.4973 7.42233 42.3757 6.99472 42.0107C6.80669 41.8491 6.74192 41.5604 6.49817 41.4646C6.09424 41.3114 5.652 41.8107 5.8289 42.1974C6.02251 42.5896 6.36376 42.8959 6.74819 43.0952C7.3903 43.4245 8.17448 43.5441 8.86046 43.2812C9.45034 43.0518 9.85079 42.512 10.1287 41.9638C10.4414 41.3002 10.6364 40.5548 10.5479 39.8172C10.5187 39.4619 10.5618 39.076 10.3808 38.7543C10.2575 38.5333 9.965 38.5033 9.74702 38.5802ZM17.9656 39.0634C17.749 39.1704 17.6543 39.4473 17.6912 39.6752C17.7678 39.8605 17.9593 39.9717 18.0332 40.1612C18.208 40.5702 18.4232 40.9688 18.4977 41.4128C18.5569 41.7911 18.6878 42.1547 18.715 42.5386C18.754 42.9427 18.8654 43.3546 18.763 43.7581C18.6704 44.1154 18.3654 44.3853 18.0227 44.4965C17.5763 44.6461 17.0804 44.6314 16.6347 44.4853C16.43 44.4139 16.2942 44.214 16.0811 44.1629C15.6757 44.1231 15.3575 44.6398 15.5852 44.9852C15.8297 45.3565 16.2956 45.4838 16.703 45.5838C17.3486 45.6796 18.0541 45.7194 18.6502 45.4041C19.4274 45.0048 19.8745 44.107 19.8425 43.2469C19.7373 41.8331 19.4121 40.4024 18.66 39.1864C18.5026 38.9795 18.1878 38.9802 17.9656 39.0634ZM22.4256 43.0511C22.2702 43.1315 22.1943 43.3028 22.1491 43.4637C21.9548 44.2356 21.8085 45.03 21.8531 45.8299C21.883 46.6858 22.0077 47.5934 22.5328 48.2975C22.9131 48.8331 23.5614 49.1848 24.223 49.145C25.1667 49.0786 26.0846 48.6171 26.6856 47.8808C26.8806 47.6486 26.9872 47.2899 26.8152 47.0158C26.6703 46.7844 26.3367 46.7361 26.1159 46.8843C25.9 47.0018 25.8701 47.2794 25.6897 47.4312C25.3373 47.7416 24.9014 47.9486 24.4452 48.0486C24.1179 48.1269 23.716 48.108 23.4716 47.8472C23.1478 47.4892 23.0398 46.9969 22.9611 46.534C22.8309 45.525 22.9367 44.4923 23.2181 43.5175C23.2174 43.1406 22.7571 42.8938 22.4256 43.0511ZM4.59343 45.4999C4.45066 45.5901 4.27098 45.704 4.2682 45.8942C4.23477 46.2914 4.21387 46.6921 4.25218 47.0899C4.30371 47.6032 4.30441 48.1269 4.44509 48.6268C4.52239 48.8821 4.72714 49.1268 5.00711 49.1499C5.36159 49.2037 5.66454 48.7667 5.50297 48.4499C5.29334 47.9752 5.31424 47.4465 5.25922 46.9403C5.21882 46.569 5.33791 46.2005 5.29404 45.8306C5.21813 45.5369 4.85947 45.4236 4.59343 45.4999ZM29.0625 45.8572C28.9971 46.1439 29.1189 46.427 29.197 46.6983C29.4212 47.3885 29.3773 48.1276 29.3195 48.8408C29.291 49.3604 29.0333 49.8666 28.6252 50.1883C28.4023 50.3687 28.082 50.2931 27.8438 50.4372C27.5172 50.6588 27.6063 51.256 27.9859 51.3679C28.5179 51.4574 29.0611 51.2294 29.4456 50.8651C29.9303 50.4043 30.1963 49.761 30.3447 49.1191C30.4241 48.3772 30.4505 47.6172 30.291 46.8837C30.2117 46.5214 30.1956 46.1383 30.0327 45.8005C29.9582 45.6222 29.7555 45.5824 29.5988 45.5096C29.4017 45.5796 29.1266 45.6194 29.0625 45.8572ZM9.19127 46.4767C9.03318 46.5746 8.86464 46.7445 8.88902 46.9473C9.18152 47.95 9.28389 49.0184 9.12789 50.0554C9.03248 50.5323 8.90921 51.0665 8.50111 51.3756C8.093 51.6154 7.59644 51.4721 7.18415 51.3161C6.79415 51.1448 6.37072 50.9231 6.18826 50.5134C6.04758 50.2232 5.62276 50.1071 5.37691 50.333C5.1067 50.563 5.1854 50.9924 5.38249 51.2455C5.87834 51.8888 6.62144 52.3237 7.4098 52.4936C7.86875 52.6034 8.36739 52.5908 8.79291 52.3713C9.51093 52.0293 9.93088 51.2721 10.1015 50.5204C10.3717 49.2681 10.2819 47.95 9.90511 46.7305C9.81249 46.4375 9.44616 46.3487 9.19127 46.4767ZM12.1225 48.0849C11.9554 48.1912 11.7555 48.3339 11.7855 48.5625C11.8203 49.0128 12.0237 49.4289 12.0815 49.8771C12.1386 50.1617 12.1929 50.5505 12.5244 50.6365C12.8134 50.7497 13.1449 50.5386 13.1971 50.2414C13.2173 49.9023 13.0718 49.5848 13.0063 49.2576C12.9207 48.9156 12.8928 48.5436 12.695 48.243C12.5773 48.0591 12.3148 47.9801 12.1225 48.0849ZM19.791 49.3562C19.6823 49.4261 19.5799 49.5149 19.5124 49.6268C19.4288 49.9932 19.3585 50.3638 19.2484 50.7239C18.9664 51.5867 18.3215 52.316 17.5185 52.7272C16.875 53.0202 16.1521 53.0768 15.4543 53.0523C15.0295 53.0251 14.5879 52.9936 14.2042 52.7929C14.0447 52.7188 13.888 52.6272 13.7111 52.6048C13.3559 52.5866 13.0634 52.9978 13.2013 53.3285C13.319 53.6152 13.6338 53.7341 13.9054 53.8243C14.606 54.0341 15.3428 54.0893 16.0713 54.0907C16.6779 54.0606 17.2977 53.9802 17.8451 53.697C18.3702 53.5012 18.816 53.1474 19.2143 52.76C19.4615 52.5062 19.6412 52.1972 19.8488 51.9119C20.245 51.2833 20.376 50.5358 20.5285 49.8205C20.5535 49.4429 20.1064 49.2394 19.791 49.3562ZM25.1395 53.7446C25.0518 53.7844 24.9515 53.825 24.8993 53.9124C24.471 54.7081 23.7822 55.3095 23.1923 55.9793C22.8232 56.408 22.3963 56.7988 21.8865 57.0513C21.6922 57.1478 21.4401 57.2065 21.2542 57.0611C21.0501 56.8737 21.009 56.5709 21.0397 56.3087C21.055 56.1052 21.2973 55.9828 21.2583 55.7668C21.2437 55.3822 20.7256 55.1018 20.4219 55.3668C20.0152 55.7416 19.9372 56.3534 20.018 56.8765C20.1524 57.5219 20.6775 58.1372 21.3663 58.1784C21.9325 58.2651 22.4653 57.982 22.911 57.6631C23.9027 56.9142 24.666 55.9199 25.4606 54.9752C25.6284 54.7508 25.8422 54.5158 25.836 54.218C25.8248 53.883 25.4453 53.6565 25.1395 53.7446ZM11.2966 54.6011C11.1141 54.7067 10.9275 54.8948 10.9595 55.1249C10.9922 55.2969 11.0751 55.4535 11.1308 55.6199C11.2583 55.9682 11.1524 56.3856 10.894 56.6457C10.7004 56.8205 10.417 56.7317 10.1899 56.6933C9.40855 56.4562 8.76644 55.9171 8.17935 55.3675C7.91889 55.1263 7.73782 54.7585 7.37149 54.6641C6.97662 54.5291 6.56502 55.0214 6.77535 55.3871C6.98288 55.7234 7.30255 55.9695 7.58321 56.2422C8.28451 56.8855 9.07566 57.4897 10.0117 57.7295C10.534 57.8701 11.1273 57.7911 11.557 57.4477C12.0055 57.1044 12.2082 56.5233 12.2228 55.9723C12.1971 55.5759 12.1058 55.1752 11.9213 54.8214C11.8126 54.5997 11.516 54.5214 11.2966 54.6011ZM18.3869 55.1563C18.068 55.2794 17.9851 55.6381 17.8166 55.8996C17.5171 56.3373 17.1194 56.7121 16.6514 56.9625C16.1618 57.2303 15.5497 57.231 15.0462 57.0002C14.8205 56.9121 14.6388 56.7359 14.4075 56.6625C14.0154 56.5758 13.6227 57.0792 13.856 57.4282C14.115 57.7925 14.5761 57.905 14.971 58.0568C15.5288 58.2686 16.1514 58.2428 16.7169 58.0784C17.2149 57.8715 17.6794 57.5771 18.0847 57.2205C18.5088 56.8527 18.6941 56.2975 19.0722 55.8919C19.169 55.7794 19.1642 55.6094 19.1273 55.4752C19.0298 55.1815 18.662 55.057 18.3869 55.1563Z" fill="#FFCA05"/>
<path d="M29.9317 33.7282C29.8391 33.8289 29.8015 34.0058 29.9449 34.0827C29.9582 33.9638 29.9533 33.845 29.9317 33.7282Z" fill="#3F3201"/>
<path d="M14.6722 60.3601C14.5663 60.272 14.4208 60.2999 14.294 60.2971C14.3212 60.4279 14.5726 60.4237 14.6722 60.3601Z" fill="#4F3E01"/>
<path d="M14.847 4.46508C15.1276 4.36299 15.5365 4.46298 15.6131 4.78812C15.6639 5.0881 15.494 5.365 15.3651 5.62301C14.9494 6.36491 14.5204 7.11519 13.9089 7.71514C13.4548 8.17034 12.9116 8.60107 12.2549 8.68568C11.7541 8.76259 11.1831 8.61645 10.869 8.19481C10.6343 7.87526 10.4469 7.49278 10.4525 7.08792C10.4504 6.86906 10.5758 6.6467 10.7819 6.56209C11.025 6.50266 11.3251 6.61034 11.4289 6.85088C11.5006 7.12148 11.5334 7.44942 11.7869 7.62004C12.0069 7.7515 12.2716 7.63752 12.4756 7.52704C12.9812 7.23546 13.3413 6.75858 13.7153 6.32155C14.0273 5.89572 14.3086 5.44191 14.5043 4.94965C14.5796 4.76715 14.6638 4.56297 14.847 4.46508Z" fill="black"/>
<path d="M20.4992 3.64627C20.6448 3.59033 20.8161 3.59872 20.9637 3.64557C21.2374 3.81059 21.2604 4.16161 21.3886 4.42592C21.7305 5.11467 21.7591 5.9139 21.6866 6.66628C21.6449 7.2865 21.3865 7.89834 20.9547 8.34655C20.3488 8.89894 19.4664 9.16326 18.6634 8.96957C17.7448 8.75071 16.8987 8.23956 16.2559 7.54802C16.0769 7.36132 15.9021 7.08932 16.0288 6.82501C16.1612 6.47399 16.6758 6.3712 16.9189 6.66558C17.4203 7.30189 18.1272 7.81093 18.9343 7.94938C19.4253 8.03329 19.9992 7.91931 20.314 7.50117C20.6977 7.011 20.6747 6.34882 20.6629 5.75937C20.6678 5.18739 20.3042 4.70631 20.2116 4.15601C20.1677 3.94065 20.3209 3.74486 20.4992 3.64627Z" fill="black"/>
<path d="M24.7377 4.4455C24.9174 4.33852 25.1556 4.39585 25.315 4.51962C25.7127 4.814 26.0804 5.1783 26.2866 5.6363C26.3917 5.95306 26.5735 6.25652 26.5665 6.60055C26.5791 7.06554 26.5498 7.5655 26.2824 7.96266C26.0609 8.27942 25.7392 8.52765 25.3777 8.65911C24.7802 8.80035 24.1311 8.76889 23.5649 8.52345C23.2453 8.39759 23.1457 7.94938 23.3379 7.67808C23.5092 7.48648 23.8087 7.43194 24.0371 7.55081C24.4355 7.7445 24.9606 7.79275 25.3206 7.49418C25.5957 7.25993 25.5804 6.85577 25.5038 6.53412C25.4007 6.13136 25.2182 5.71252 24.861 5.47548C24.6708 5.34262 24.432 5.18669 24.432 4.92518C24.4111 4.71191 24.5859 4.56157 24.7377 4.4455Z" fill="black"/>
<path d="M26.421 9.52267C26.5519 9.4919 26.6996 9.44225 26.8277 9.51008C27.1752 9.68349 27.4016 10.0135 27.6759 10.2771C28.2233 10.7995 28.6196 11.4554 28.9685 12.121C29.2067 12.7643 29.3453 13.4832 29.1607 14.1593C29.0312 14.6467 28.7067 15.1075 28.2359 15.3089C27.8584 15.4179 27.4663 14.9725 27.6154 14.6089C27.74 14.3537 28.0541 14.2397 28.1342 13.9551C28.286 13.4685 28.2275 12.9168 27.9712 12.4755C27.6265 11.8525 27.2602 11.2127 26.6961 10.761C26.4948 10.5911 26.2657 10.4366 26.1361 10.2002C25.9955 9.9471 26.203 9.64713 26.421 9.52267Z" fill="black"/>
<path d="M16.4662 10.0863C17.4482 9.89816 18.4315 10.2135 19.3195 10.6128C19.5542 10.7191 19.7951 10.9414 19.7436 11.2267C19.6914 11.6162 19.1718 11.7994 18.8647 11.577C18.2713 11.1813 17.5338 11.0904 16.8374 11.1043C16.3199 11.1113 15.8129 11.3449 15.4759 11.7393C15.331 11.9127 15.3101 12.1602 15.1527 12.3245C14.8853 12.5748 14.3769 12.4119 14.2975 12.0546C14.2508 11.8308 14.3609 11.6169 14.4667 11.4281C14.7014 11.0218 15.0281 10.6533 15.4459 10.4338C15.7795 10.3002 16.1054 10.1324 16.4662 10.0863Z" fill="black"/>
<path d="M28.7742 17.3373C29.0479 17.1863 29.4477 17.3346 29.511 17.6569C29.6733 18.3415 29.7485 19.0512 29.7102 19.7546C29.6747 20.7168 29.6072 21.6922 29.3063 22.6131C29.0988 23.2487 28.8515 23.8808 28.4859 24.4423C28.3006 24.6262 28.215 24.9514 27.9232 24.9912C27.5471 25.0758 27.1745 24.6577 27.3048 24.292C27.3939 24.1144 27.5471 23.9815 27.653 23.8151C27.8953 23.4753 28.0242 23.0746 28.1621 22.6844C28.4734 21.7845 28.6586 20.8391 28.6893 19.8868C28.7018 19.4414 28.6551 18.998 28.6342 18.554C28.6238 18.2911 28.5054 18.0478 28.4866 17.787C28.4727 17.5891 28.6363 17.4492 28.7742 17.3373Z" fill="black"/>
<path d="M7.3903 21.2419C7.76985 21.0727 8.25875 21.4188 8.16125 21.8425C8.0916 22.253 7.54073 22.3607 7.26355 22.0866C6.97662 21.8614 7.11521 21.4097 7.3903 21.2419Z" fill="black"/>
<path d="M21.8823 22.1621C22.0913 22.111 22.3517 22.1544 22.4722 22.3516C22.6832 22.6802 22.4381 23.1585 22.0704 23.2291C21.7876 23.2585 21.5202 23.0229 21.4721 22.7495C21.4331 22.4858 21.6671 22.2649 21.8823 22.1621Z" fill="black"/>
<path d="M7.59365 23.2564C7.87292 23.1438 8.27407 23.2662 8.34023 23.5906C8.42659 23.9144 8.15498 24.2095 7.86457 24.2983C7.57485 24.3423 7.29558 24.0913 7.24544 23.813C7.21619 23.5683 7.41606 23.3872 7.59365 23.2564Z" fill="black"/>
<path d="M23.6081 23.6815C23.9988 23.4809 24.5364 23.8501 24.432 24.2955C24.3393 24.7304 23.7286 24.8311 23.457 24.5045C23.1986 24.2696 23.3086 23.8221 23.6081 23.6815Z" fill="black"/>
<path d="M21.8635 24.0927C22.2612 23.9647 22.6749 24.443 22.507 24.8213C22.3573 25.1429 21.8412 25.2464 21.6072 24.9625C21.3781 24.6884 21.461 24.1479 21.8635 24.0927Z" fill="black"/>
<path d="M26.8841 27.5259C27.2699 27.3141 27.7748 27.7189 27.6404 28.1385C27.5367 28.5825 27.5081 29.0419 27.3709 29.4775C27.0102 30.6893 26.531 31.8913 25.7496 32.8954C25.2677 33.5107 24.6444 34.0652 23.8672 34.2491C23.2794 34.4078 22.5843 34.3183 22.1526 33.8547C21.3767 33.0485 21.0536 31.8913 21.0599 30.7907C21.0605 30.511 21.009 30.2089 21.142 29.9502C21.3677 29.5775 22.0272 29.7488 22.0857 30.167C22.1184 30.5851 22.0557 31.0082 22.1296 31.4242C22.2222 31.9759 22.3914 32.5395 22.7508 32.9779C22.9346 33.2066 23.2341 33.3485 23.5294 33.2863C23.9793 33.194 24.3324 32.8667 24.6402 32.5437C25.6396 31.4641 26.1849 30.0467 26.5108 28.63C26.6229 28.2566 26.4837 27.7518 26.8841 27.5259Z" fill="black"/>
<path d="M7.17719 28.1553C7.45228 28.0546 7.86248 28.1539 7.92794 28.479C7.95998 28.8314 7.87919 29.1817 7.87153 29.5342C7.85273 30.1201 7.87083 30.7075 7.89033 31.2934C7.9558 31.899 7.96555 32.5234 8.19119 33.0975C8.30959 33.4981 8.51852 33.8799 8.82843 34.1631C9.01925 34.3281 9.33334 34.4148 9.37304 34.7015C9.43989 35.1134 8.9322 35.4623 8.57702 35.2427C8.03171 34.8924 7.56162 34.3911 7.32971 33.7771C7.19669 33.4723 7.06715 33.1597 7.03721 32.8255C7.00238 32.4241 6.86519 32.0374 6.86519 31.6326C6.85404 30.9571 6.8227 30.2809 6.85265 29.6055C6.87006 29.2328 6.81087 28.8538 6.89722 28.4874C6.93204 28.3392 7.05601 28.2343 7.17719 28.1553Z" fill="black"/>
<path d="M6.91533 37.4048C7.22385 37.1013 7.58948 36.8454 7.99967 36.7041C8.23019 36.6314 8.43982 36.7699 8.62716 36.8853C8.66616 37.0747 8.756 37.2852 8.6578 37.4726C8.56587 37.6516 8.35137 37.6915 8.18423 37.7698C7.86665 37.8845 7.65494 38.1656 7.44462 38.4166C7.0191 38.9291 6.7259 39.5675 6.67576 40.2374C6.60611 40.6479 5.95774 40.7639 5.74533 40.4094C5.59768 40.1675 5.65131 39.8668 5.71956 39.6081C5.95008 38.7998 6.31222 38.0026 6.91533 37.4048Z" fill="black"/>
<path d="M26.6884 36.9006C26.9161 36.7888 27.24 36.851 27.3486 37.0999C27.5206 37.4761 27.7163 37.846 27.8201 38.2495C27.8967 38.5334 27.903 38.8312 27.9789 39.1158C28.0583 39.3529 27.8946 39.6109 27.6815 39.7102C27.4245 39.7962 27.0861 39.6864 26.9907 39.4144C26.8653 39.0788 26.9085 38.704 26.7762 38.3697C26.6431 38.0383 26.4363 37.7292 26.3792 37.3712C26.3625 37.1621 26.5359 37.0111 26.6884 36.9006Z" fill="black"/>
<path d="M21.8963 37.8348C22.0669 37.767 22.2918 37.7719 22.4256 37.9145C22.7348 38.2578 22.92 38.6879 23.1269 39.0969C23.3734 39.5584 23.5238 40.0654 23.6464 40.5723C23.6931 40.7667 23.7188 41.0163 23.5489 41.1611C23.3107 41.4149 22.8385 41.3072 22.709 40.9926C22.5648 40.6311 22.5036 40.2402 22.3329 39.8885C22.1637 39.5277 22.0425 39.1403 21.8092 38.813C21.7027 38.6487 21.5585 38.4774 21.5864 38.2676C21.6017 38.0781 21.7584 37.9453 21.8963 37.8348Z" fill="black"/>
<path d="M12.5529 38.0278C12.8447 37.8838 13.2974 38.0649 13.3155 38.4215C13.3037 38.6578 13.1853 38.8746 13.1595 39.1102C12.9715 40.3115 12.9207 41.5534 13.1804 42.7491C13.2842 43.2224 13.4527 43.6818 13.693 44.1035C13.8957 44.4258 13.6053 44.9125 13.2257 44.8831C12.991 44.8845 12.8078 44.7034 12.7173 44.5013C12.4937 44.0161 12.2925 43.5182 12.1483 43.0036C12.0884 42.5491 11.9735 42.0981 11.9972 41.6366C11.9679 40.6213 12.0348 39.6046 12.2026 38.6033C12.2305 38.3683 12.3468 38.1502 12.5529 38.0278Z" fill="black"/>
<path d="M9.74702 38.5802C9.965 38.5033 10.2575 38.5333 10.3808 38.7543C10.5618 39.076 10.5187 39.4619 10.5479 39.8172C10.6364 40.5548 10.4414 41.3002 10.1287 41.9638C9.85079 42.512 9.45034 43.0518 8.86046 43.2812C8.17448 43.5441 7.3903 43.4245 6.74819 43.0952C6.36376 42.8959 6.02251 42.5896 5.8289 42.1974C5.652 41.8107 6.09424 41.3114 6.49817 41.4646C6.74192 41.5604 6.80669 41.8491 6.99472 42.0107C7.42233 42.3757 8.07837 42.4973 8.58328 42.2232C8.93498 42.0344 9.14252 41.6687 9.28389 41.3086C9.57779 40.6136 9.56038 39.8458 9.45313 39.113C9.3995 38.8984 9.56316 38.6725 9.74702 38.5802Z" fill="black"/>
<path d="M17.9656 39.0634C18.1878 38.9802 18.5026 38.9795 18.66 39.1864C19.4121 40.4024 19.7373 41.8331 19.8425 43.2469C19.8745 44.107 19.4274 45.0048 18.6502 45.4041C18.0541 45.7194 17.3486 45.6796 16.703 45.5838C16.2956 45.4838 15.8297 45.3565 15.5852 44.9852C15.3575 44.6398 15.6757 44.1231 16.0811 44.1629C16.2942 44.214 16.43 44.4139 16.6347 44.4853C17.0804 44.6314 17.5763 44.6461 18.0227 44.4965C18.3654 44.3853 18.6704 44.1154 18.763 43.7581C18.8654 43.3546 18.754 42.9427 18.715 42.5386C18.6878 42.1547 18.5569 41.7911 18.4977 41.4128C18.4232 40.9688 18.208 40.5702 18.0332 40.1612C17.9593 39.9717 17.7678 39.8605 17.6912 39.6752C17.6543 39.4473 17.749 39.1704 17.9656 39.0634Z" fill="black"/>
<path d="M20.335 10.5915C20.9431 10.1525 21.7276 9.9964 22.4634 10.1107C23.0281 10.1914 23.5605 10.4536 23.982 10.8364C24.4537 11.2587 24.7909 11.8097 25.0458 12.3842C25.2799 12.9221 25.4405 13.49 25.5548 14.0648C25.8368 15.5397 25.8381 17.0581 25.6654 18.5464C25.5792 19.3201 25.3997 20.0788 25.2365 20.8385C25.4601 21.0423 25.6824 21.2477 25.8946 21.4632C25.9553 21.5233 26.0066 21.5919 26.0513 21.6647V22.1207C25.9857 22.2683 25.8564 22.3859 25.7007 22.43C25.5136 22.4855 25.2985 22.4339 25.1607 22.2951C24.9244 22.0622 24.6985 21.814 24.421 21.6282C23.5305 20.9825 22.5619 20.3822 21.4664 20.1729C20.6549 20.0125 19.8055 20.1454 19.0527 20.4753C18.7152 20.6059 18.4148 20.8107 18.1135 21.0076C17.8135 21.2029 17.3653 21.0116 17.2961 20.6611C17.2432 20.4478 17.3307 20.2052 17.5135 20.0817C17.7417 19.9256 17.9758 19.778 18.218 19.6441C18.0956 18.4386 18.0499 17.2227 18.1458 16.0136C18.2376 14.8741 18.4266 13.7307 18.8461 12.6624C19.1634 11.8675 19.6272 11.0961 20.335 10.5915ZM20.9767 11.4978C20.4819 11.8436 20.1642 12.3815 19.9308 12.9266C19.5166 13.926 19.3374 15.0058 19.2495 16.0786C19.1676 17.1228 19.1914 18.1731 19.2887 19.2156C19.7111 19.0882 20.1499 19.0173 20.5902 19C20.4936 18.4798 20.442 17.9517 20.4273 17.4229C20.4306 17.3203 20.5462 17.2851 20.6291 17.2652C21.1488 17.1698 21.692 17.2237 22.2009 17.0604C22.4487 16.9836 22.701 16.8321 22.7888 16.5734C22.8956 16.2922 22.7562 15.9921 22.5636 15.786C22.0896 15.2693 21.4279 14.9897 20.8886 14.5537C20.7773 14.4567 20.6392 14.3225 20.6872 14.1599C20.9053 13.12 21.2428 12.0899 21.8098 11.1852C21.5128 11.2234 21.2209 11.3214 20.9767 11.4978Z" fill="black"/>
<path d="M10.8003 10.1842C11.5961 10.0447 12.455 10.2247 13.1027 10.7159C13.7226 11.1784 14.1306 11.8694 14.3957 12.585C14.6627 13.3094 14.7936 14.0772 14.855 14.8447C14.9147 15.6312 14.8981 16.4222 14.8259 17.2073C15.7648 17.5042 16.5662 18.2603 16.8401 19.2159C16.8757 19.3645 16.8087 19.5102 16.7229 19.6274C16.7013 19.6395 16.6805 19.6523 16.6599 19.6656C16.4996 19.7956 16.2447 19.7858 16.0938 19.6457C16.0018 19.5732 15.962 19.4599 15.9234 19.3537C15.723 18.8158 15.282 18.3857 14.7597 18.1577C14.1678 17.8988 13.4784 17.8667 12.8673 18.0784C12.4122 18.2358 12.0071 18.5526 11.774 18.9778C11.5083 19.4543 11.4567 20.0213 11.5175 20.5556C11.5827 21.1363 11.8292 21.7056 12.2484 22.1184C12.6088 22.4871 13.0978 22.7415 13.6152 22.7811C14.0826 22.8023 14.5703 22.7017 14.9549 22.4247C15.2817 22.2007 15.5115 21.8646 15.6796 21.5112C15.8151 21.2291 16.2479 21.1958 16.432 21.4459C16.5365 21.5756 16.5649 21.7608 16.4963 21.9139C16.356 22.2219 16.1712 22.5106 15.9443 22.7621C15.5519 23.202 15.0153 23.5012 14.4411 23.6269H13.1089C12.3734 23.447 11.715 22.9914 11.27 22.3806C10.8199 21.7735 10.6008 21.02 10.578 20.2698C10.3142 20.1794 10.0419 20.1144 9.76577 20.0772C9.0068 19.9736 8.23411 20.1294 7.53096 20.4162C7.31355 20.5226 7.09614 20.6291 6.88787 20.7529C6.63749 20.895 6.28918 20.7944 6.14979 20.5435C6.00158 20.3006 6.08221 19.9465 6.32867 19.8005C6.57122 19.6565 6.81997 19.5223 7.07818 19.4086C7.04913 18.3188 7.0821 17.2253 7.22639 16.1436C7.3599 15.1341 7.57437 14.1305 7.93281 13.1755C8.23966 12.3744 8.65424 11.5931 9.27677 10.9922C9.69526 10.5872 10.2231 10.2854 10.8003 10.1842ZM10.1823 11.6679C9.73835 12.0255 9.4364 12.5249 9.19254 13.0324C8.8599 13.7418 8.64739 14.5008 8.49004 15.2664C8.24325 16.5137 8.15087 17.789 8.17927 19.0595C8.60985 18.9667 9.0525 18.9236 9.4932 18.9455C9.43509 18.4184 9.42236 17.8863 9.44815 17.3569C9.44978 17.3017 9.49581 17.2612 9.54477 17.2446C9.67633 17.1959 9.81898 17.2002 9.95707 17.1946C10.3703 17.1926 10.7888 17.2214 11.1969 17.1391C11.3624 17.1028 11.5289 17.0483 11.6644 16.9431C11.8635 16.7932 11.967 16.5212 11.9017 16.2782C11.8305 16.0012 11.6317 15.7808 11.43 15.5881C11.0258 15.2027 10.5404 14.9159 10.1307 14.5374C10.04 14.442 9.929 14.33 9.93618 14.1886C9.99951 13.9345 10.0831 13.6853 10.1686 13.4378C10.4477 12.664 10.7957 11.905 11.2912 11.2443C10.8868 11.2525 10.4934 11.4125 10.1823 11.6679Z" fill="black"/>
<path d="M20.9767 11.4978C21.2209 11.3214 21.5128 11.2234 21.8098 11.1852C21.2428 12.0899 20.9053 13.12 20.6872 14.1599C20.6392 14.3225 20.7773 14.4567 20.8886 14.5537C21.4279 14.9897 22.0896 15.2693 22.5636 15.786C22.7562 15.9921 22.8956 16.2922 22.7888 16.5734C22.701 16.8321 22.4487 16.9836 22.2009 17.0604C21.692 17.2237 21.1488 17.1698 20.6291 17.2652C20.5462 17.2851 20.4306 17.3203 20.4273 17.4229C20.442 17.9517 20.4936 18.4798 20.5902 19C20.1499 19.0173 19.7111 19.0882 19.2887 19.2156C19.1914 18.1731 19.1676 17.1228 19.2495 16.0786C19.3374 15.0058 19.5166 13.926 19.9308 12.9266C20.1642 12.3815 20.4819 11.8436 20.9767 11.4978Z" fill="white"/>
<path d="M10.1823 11.6679C10.4934 11.4125 10.8868 11.2525 11.2912 11.2443C10.7957 11.905 10.4477 12.664 10.1686 13.4378C10.0831 13.6853 9.99951 13.9345 9.93618 14.1886C9.929 14.33 10.04 14.442 10.1307 14.5374C10.5404 14.9159 11.0258 15.2027 11.43 15.5881C11.6317 15.7808 11.8305 16.0012 11.9017 16.2782C11.967 16.5212 11.8635 16.7932 11.6644 16.9431C11.5289 17.0483 11.3624 17.1028 11.1969 17.1391C10.7888 17.2214 10.3703 17.1926 9.95707 17.1946C9.81898 17.2002 9.67633 17.1959 9.54477 17.2446C9.49581 17.2612 9.44978 17.3017 9.44815 17.3569C9.42236 17.8863 9.43509 18.4184 9.4932 18.9455C9.0525 18.9236 8.60985 18.9667 8.17927 19.0595C8.15087 17.789 8.24325 16.5137 8.49004 15.2664C8.64739 14.5008 8.8599 13.7418 9.19254 13.0324C9.4364 12.5249 9.73835 12.0255 10.1823 11.6679Z" fill="white"/>
<path d="M12.8673 18.0784C13.4784 17.8667 14.1678 17.8988 14.7597 18.1577C15.282 18.3857 15.723 18.8158 15.9234 19.3537C15.962 19.4599 16.0018 19.5732 16.0938 19.6457C16.2447 19.7858 16.4996 19.7956 16.6599 19.6656C16.6713 19.6692 16.6942 19.6767 16.7056 19.6803C16.8123 20.2865 16.734 20.926 16.465 21.4809L16.432 21.4459C16.2479 21.1958 15.8151 21.2291 15.6796 21.5112C15.5115 21.8646 15.2817 22.2007 14.9549 22.4247C14.5703 22.7017 14.0826 22.8023 13.6152 22.7811C13.0978 22.7415 12.6088 22.4871 12.2484 22.1184C11.8292 21.7056 11.5827 21.1363 11.5175 20.5556C11.4567 20.0213 11.5083 19.4543 11.774 18.9778C12.0071 18.5526 12.4122 18.2358 12.8673 18.0784Z" fill="#FFCA05"/>
<path d="M11.1503 24.8479C11.2917 24.674 11.5547 24.6183 11.7523 24.7242C11.947 24.8197 12.0615 25.0547 12.0137 25.2687C11.9184 25.7162 11.6561 26.1124 11.3167 26.4109C11.8046 26.8247 12.3305 27.197 12.9037 27.4806C13.8338 27.95 14.8906 28.1637 15.9278 28.0691C17.1016 27.9814 18.221 27.5252 19.2059 26.8891C18.7569 26.4834 18.4545 25.8816 18.501 25.2639C18.5157 25.0075 18.7556 24.7951 19.009 24.8097C19.2762 24.8103 19.5093 25.0625 19.4885 25.3325C19.474 25.6786 19.6745 26.0036 19.9462 26.2014C20.3387 26.4951 20.9106 26.4779 21.3054 26.1972C21.4674 26.093 21.5671 25.8962 21.7663 25.8528C22.0273 25.7738 22.3163 25.9609 22.3756 26.2244V26.453C22.3529 26.5252 22.3221 26.5961 22.273 26.654C21.8285 27.1795 21.1293 27.4608 20.4484 27.4132C20.433 28.0277 20.3564 28.6389 20.2541 29.2447C20.0459 30.4338 19.7152 31.6106 19.1745 32.6916C18.7252 33.5751 18.1174 34.4058 17.288 34.9594C16.7161 35.3466 16.0445 35.569 15.3598 35.6279H14.7225C13.931 35.5807 13.1577 35.2812 12.5445 34.7726C11.7016 34.0843 11.1544 33.0995 10.783 32.0862C10.403 31.0398 10.1894 29.9384 10.0714 28.8325C10.0063 28.2087 9.97065 27.5809 9.98028 26.9535C9.62235 26.9891 9.26121 26.9697 8.90553 26.9221C8.6451 26.8969 8.43855 26.6307 8.47736 26.3691C8.50013 26.1134 8.74452 25.9039 8.99918 25.9295C9.40361 25.9719 9.82376 26.014 10.2186 25.8874C10.5412 25.7903 10.8344 25.5666 10.9774 25.2538C11.0422 25.1214 11.0505 24.9622 11.1503 24.8479ZM10.9594 27.4284C10.9527 27.5168 10.9562 27.6059 10.9636 27.6942C10.9896 27.6454 11.0034 27.5916 11.0085 27.5369C11.0162 27.4971 11.0326 27.3915 10.9594 27.4284ZM17.8509 28.6713C16.7383 29.064 15.5288 29.1941 14.363 29.0031C13.5121 28.8636 12.6987 28.5405 11.9543 28.107C11.9425 28.3174 11.9312 28.5279 11.9184 28.7383C12.7988 29.0417 13.7113 29.2443 14.6301 29.3871C16.1408 29.6186 17.6806 29.6386 19.1982 29.4658C19.3031 28.9578 19.3794 28.4437 19.4253 27.9267C18.925 28.2236 18.3999 28.4803 17.8509 28.6713ZM11.132 29.345C11.258 30.1871 11.4434 31.0233 11.742 31.821C12.2446 31.4717 12.8482 31.2668 13.4605 31.2687C14.1244 31.2593 14.7738 31.4681 15.355 31.7809C15.8402 31.3519 16.415 31.0175 17.041 30.8514C17.6299 30.6979 18.2563 30.7261 18.84 30.8899C18.8762 30.7582 18.9173 30.628 18.9554 30.4969C16.5173 30.7306 14.0285 30.4781 11.6955 29.7199C11.4739 29.6574 11.2831 29.5176 11.132 29.345ZM16.1286 32.4309C15.9907 32.5494 15.846 32.6663 15.7459 32.8214C15.4493 33.2805 15.2004 33.7687 14.9518 34.2553C14.8348 34.4663 14.5528 34.5554 14.3354 34.456C14.0862 34.3569 13.9608 34.037 14.0766 33.7929C14.277 33.3798 14.4964 32.9761 14.7257 32.5789C14.3405 32.3953 13.9213 32.2675 13.4922 32.2684C13.014 32.2655 12.5339 32.4387 12.1721 32.756C12.4168 33.1908 12.7119 33.6048 13.0913 33.9299C13.5288 34.3135 14.0833 34.5602 14.6606 34.6172C15.4374 34.7053 16.2453 34.4971 16.8739 34.0251C17.6132 33.4773 18.1113 32.6663 18.4769 31.831C18.2421 31.7689 17.9978 31.7427 17.7553 31.753C17.1539 31.7734 16.5923 32.0593 16.1286 32.4309Z" fill="black"/>
<path d="M10.9594 27.4284C11.0326 27.3915 11.0162 27.4971 11.0085 27.5369C11.0034 27.5916 10.9896 27.6454 10.9636 27.6942C10.9562 27.6059 10.9527 27.5168 10.9594 27.4284Z" fill="#43161D"/>
<path d="M17.8509 28.6713C18.3999 28.4803 18.925 28.2236 19.4253 27.9267C19.3794 28.4437 19.3031 28.9578 19.1982 29.4658C17.6806 29.6386 16.1408 29.6186 14.6301 29.3871C13.7113 29.2443 12.7988 29.0417 11.9184 28.7383C11.9312 28.5279 11.9425 28.3174 11.9543 28.107C12.6987 28.5405 13.5121 28.8636 14.363 29.0031C15.5288 29.1941 16.7383 29.064 17.8509 28.6713Z" fill="#FFF8F5"/>
<path d="M11.132 29.345C11.2831 29.5176 11.4739 29.6574 11.6955 29.7199C14.0285 30.4781 16.5173 30.7306 18.9554 30.4969C18.9173 30.628 18.8762 30.7582 18.84 30.8899C18.2563 30.7261 17.6299 30.6979 17.041 30.8514C16.415 31.0175 15.8402 31.3519 15.355 31.7809C14.7738 31.4681 14.1244 31.2593 13.4605 31.2687C12.8482 31.2668 12.2446 31.4717 11.742 31.821C11.4434 31.0233 11.258 30.1871 11.132 29.345Z" fill="#C34155"/>
<path d="M16.1286 32.4309C16.5923 32.0593 17.1539 31.7734 17.7553 31.753C17.9978 31.7427 18.2421 31.7689 18.4769 31.831C18.1113 32.6663 17.6132 33.4773 16.8739 34.0251C16.2453 34.4971 15.4374 34.7053 14.6606 34.6172C14.0833 34.5602 13.5288 34.3135 13.0913 33.9299C12.7119 33.6048 12.4168 33.1908 12.1721 32.756C12.5339 32.4387 13.014 32.2655 13.4922 32.2684C13.9213 32.2675 14.3405 32.3953 14.7257 32.5789C14.4964 32.9761 14.277 33.3798 14.0766 33.7929C13.9608 34.037 14.0862 34.3569 14.3354 34.456C14.5528 34.5554 14.8348 34.4663 14.9518 34.2553C15.2004 33.7687 15.4493 33.2805 15.7459 32.8214C15.846 32.6663 15.9907 32.5494 16.1286 32.4309Z" fill="#F7B5C4"/>
</svg>
