<svg width="255" height="199" viewBox="0 0 255 199" fill="none" xmlns="http://www.w3.org/2000/svg">
<mask id="path-1-outside-1_70_1921" maskUnits="userSpaceOnUse" x="-0.672821" y="47.9351" width="89" height="84" fill="black">
<rect fill="white" x="-0.672821" y="47.9351" width="89" height="84"/>
<path d="M13.9573 54.5125C13.9262 55.2358 13.9458 55.9612 13.9469 56.6845C13.9619 57.8181 14.7535 58.8713 15.814 59.2473C16.1047 59.3473 16.4172 59.3772 16.6987 59.5071C17.0928 59.7118 17.341 60.159 17.3042 60.6029C17.3008 63.4784 17.3042 66.354 17.3019 69.2307C17.318 69.7239 16.9722 70.1873 16.5045 70.3333C15.9128 70.4793 15.2786 70.2367 14.6983 70.4655C13.1518 70.9749 12.143 72.5639 12.0729 74.1551C12.0408 75.4095 12.0775 76.6662 12.0545 77.9218C14.1675 77.5182 16.3506 78.0425 18.2395 79.006C20.0618 79.8879 21.6876 81.1239 23.1893 82.4714C25.3873 80.994 28.069 80.2294 30.7174 80.426C30.7485 78.4162 30.7232 76.4052 30.7312 74.3943C30.7324 72.9134 29.9625 71.3704 28.6068 70.6978C27.8771 70.6162 27.1372 70.6886 26.4088 70.6058C25.8756 70.5173 25.4689 70.0056 25.4907 69.4675C25.4873 66.5115 25.4907 63.5555 25.4896 60.5994C25.4746 60.2384 25.6102 59.867 25.894 59.6348C26.1594 59.3956 26.5351 59.383 26.8626 59.2864C27.6818 59.0472 28.3597 58.3976 28.6608 57.6008C28.9905 56.7247 28.7975 55.7692 28.8515 54.8575C28.9285 53.3306 27.5842 51.9267 26.056 51.9417C22.9584 51.9325 19.8596 51.9336 16.7619 51.9405C15.3487 51.9221 14.0607 53.1029 13.9573 54.5125ZM10.6252 81.148C9.49232 82.1989 8.59727 83.566 8.31921 85.1055C7.9929 86.9716 8.53407 88.9043 9.50381 90.5002C10.045 91.1199 10.7194 91.6109 11.4065 92.0581C13.5379 93.3769 15.9944 94.0725 18.4567 94.4382C18.2705 90.7083 19.2644 86.9532 21.1706 83.7511C19.8929 82.66 18.5164 81.6666 16.994 80.948C15.6072 80.3064 14.0308 79.8603 12.5026 80.2018C11.8236 80.3811 11.1388 80.6525 10.6252 81.148ZM24.197 84.6054C23.2571 85.9816 22.5677 87.5258 22.0874 89.1205C21.2992 91.7247 21.3096 94.5094 21.7416 97.178C22.1173 99.2959 22.7412 101.439 24.0189 103.199C24.1625 103.424 24.1682 103.725 24.3751 103.912C24.8634 104.418 25.4654 104.825 26.1502 105.006C27.1878 105.322 28.3884 105.485 29.3766 104.933C29.8959 104.609 30.421 104.155 30.4784 103.505C31.3655 101.691 31.4781 99.6098 31.3413 97.6276C31.1966 95.8098 30.8335 93.9863 30.0717 92.3203C29.7465 91.6178 30.0855 90.6934 30.791 90.3726C31.4953 90.0116 32.4191 90.3174 32.7833 91.0176C33.768 93.1205 34.2092 95.4396 34.3712 97.7449C34.4723 98.7544 34.8813 99.7673 35.6546 100.449C36.3819 101.108 37.3953 101.339 38.3547 101.333C38.7833 101.344 39.2325 101.229 39.645 101.395C40.262 101.615 40.6906 102.272 40.6251 102.928C40.5895 103.635 39.9805 104.242 39.2796 104.303C37.4068 104.492 35.4007 104.117 33.907 102.915C33.7484 103.558 33.483 104.166 33.213 104.768C33.1877 108.472 33.2096 112.179 33.2015 115.884C35.6328 115.037 37.4183 112.982 38.6224 110.777C38.9993 110.047 40.0173 109.784 40.7055 110.226C41.3731 110.59 41.6316 111.508 41.2811 112.177C40.4803 113.693 39.4359 115.081 38.203 116.273C39.5198 116.226 40.8089 115.851 41.9866 115.271C43.5377 114.505 44.9728 113.471 46.0942 112.146C47.6385 110.342 48.6507 108.105 49.0839 105.776C49.5308 103.361 49.3861 100.791 48.3945 98.5244C47.7258 96.9952 46.5619 95.6615 45.0567 94.9153C45.1785 96.387 45.1647 97.8748 44.9498 99.3362C44.7752 100.242 43.6825 100.801 42.853 100.377C42.2084 100.103 41.8602 99.3431 42.005 98.6693C42.5129 94.6129 41.4282 90.33 38.8384 87.1406C37.447 85.4171 35.5799 84.1006 33.5186 83.2992C32.9223 83.0957 32.326 82.8313 31.6826 82.8566C29.0905 82.3725 26.2939 82.9991 24.197 84.6054ZM3.73019 96.8044C3.10859 98.1979 3.2097 99.8834 4.00824 101.187C5.02968 102.862 6.76235 103.996 8.59152 104.623C10.454 105.174 12.4314 105.182 14.3491 104.988C16.4862 104.742 18.6083 104.24 20.5788 103.365C19.6482 101.532 19.076 99.5351 18.7428 97.5115C17.2123 97.3333 15.6945 97.0274 14.2204 96.5779C12.1131 95.9191 10.0438 94.9877 8.35368 93.5436C6.48199 93.9553 4.53907 94.9716 3.73019 96.8044ZM14.0997 108.038C11.7363 108.231 9.30159 108.101 7.05648 107.283C6.81635 107.748 6.59574 108.243 6.60034 108.778C6.56817 109.882 7.17713 110.873 7.86652 111.688C8.76732 112.753 9.91859 113.629 11.2503 114.076C11.5858 114.161 11.7949 114.498 12.1534 114.526C14.2962 114.987 16.5344 114.718 18.6152 114.093C20.1801 113.632 21.7634 112.916 22.786 111.593C23.6317 110.554 24.1303 109.107 23.6891 107.793C23.4501 107.018 22.863 106.429 22.2448 105.938C19.6769 107.101 16.9055 107.795 14.0997 108.038ZM26.4329 107.818C26.7937 110.046 25.8503 112.326 24.2843 113.896C23.21 115.01 21.8347 115.792 20.3812 116.3C17.7926 117.237 14.973 117.676 12.2349 117.246C12.2395 118.557 12.22 119.868 12.2441 121.178C12.2797 122.644 13.1415 124.116 14.5203 124.691C15.1131 124.962 15.7761 124.956 16.4149 124.946C19.9365 124.944 23.457 124.946 26.9786 124.945C28.0449 124.97 29.0755 124.414 29.7086 123.566C30.282 122.828 30.5589 121.888 30.5577 120.959C30.5623 116.411 30.5589 111.864 30.56 107.317C29.2984 107.986 27.8163 108.067 26.4329 107.818ZM51.1015 109.582C50.1984 111.853 48.784 113.914 46.9732 115.556C50.0984 118.85 53.6361 121.79 57.6288 123.974C62.0421 126.411 67.0712 127.852 72.1347 127.679C75.6437 127.568 79.1194 126.722 82.3181 125.283C83.3625 124.786 84.1025 123.733 84.2518 122.59C84.407 121.54 84.0335 120.442 83.3131 119.672C82.6306 118.948 81.631 118.541 80.6371 118.577C79.6961 118.571 78.8896 119.118 78.0186 119.39C74.2488 120.787 70.0436 120.986 66.1715 119.886C63.3921 119.127 60.8 117.789 58.4297 116.165C55.7192 114.293 53.2903 112.038 51.1015 109.582Z"/>
<path d="M13.9573 54.5125C14.0607 53.1029 15.3487 51.9221 16.7619 51.9405C19.8596 51.9336 22.9584 51.9325 26.056 51.9417C27.5842 51.9267 28.9285 53.3306 28.8515 54.8575C28.7975 55.7692 28.9905 56.7247 28.6608 57.6008C28.3597 58.3976 27.6818 59.0472 26.8626 59.2864C26.5351 59.383 26.1594 59.3956 25.894 59.6348C25.6102 59.867 25.4746 60.2384 25.4896 60.5994C25.4907 63.5555 25.4873 66.5115 25.4907 69.4675C25.4689 70.0056 25.8756 70.5173 26.4088 70.6058C27.1372 70.6886 27.8771 70.6162 28.6068 70.6978C29.9625 71.3704 30.7324 72.9134 30.7312 74.3943C30.7232 76.4052 30.7485 78.4162 30.7174 80.426C28.069 80.2294 25.3873 80.994 23.1893 82.4714C21.6876 81.1239 20.0618 79.8879 18.2395 79.006C16.3506 78.0425 14.1675 77.5182 12.0545 77.9218C12.0775 76.6662 12.0408 75.4095 12.0729 74.1551C12.143 72.5639 13.1518 70.9749 14.6983 70.4655C15.2786 70.2367 15.9128 70.4793 16.5045 70.3333C16.9722 70.1873 17.318 69.7239 17.3019 69.2307C17.3042 66.354 17.3008 63.4784 17.3042 60.6029C17.341 60.159 17.0928 59.7118 16.6987 59.5071C16.4172 59.3772 16.1047 59.3473 15.814 59.2473C14.7535 58.8713 13.9619 57.8181 13.9469 56.6845C13.9458 55.9612 13.9262 55.2358 13.9573 54.5125Z"/>
<path d="M26.4329 107.818C27.8163 108.067 29.2984 107.986 30.56 107.317C30.5589 111.864 30.5623 116.411 30.5577 120.959C30.5589 121.888 30.282 122.828 29.7086 123.566C29.0755 124.414 28.0449 124.97 26.9786 124.945C23.457 124.946 19.9365 124.944 16.4149 124.946C15.7761 124.956 15.1131 124.962 14.5203 124.691C13.1415 124.116 12.2797 122.644 12.2441 121.178C12.22 119.868 12.2395 118.557 12.2349 117.246C14.973 117.676 17.7926 117.237 20.3812 116.3C21.8347 115.792 23.21 115.01 24.2843 113.896C25.8503 112.326 26.7937 110.046 26.4329 107.818Z"/>
<path d="M10.6252 81.148C11.1388 80.6525 11.8236 80.3811 12.5026 80.2018C14.0308 79.8603 15.6072 80.3064 16.994 80.948C18.5164 81.6666 19.8929 82.66 21.1706 83.7511C19.2644 86.9532 18.2705 90.7083 18.4567 94.4382C15.9944 94.0725 13.5379 93.3769 11.4065 92.0581C10.7194 91.6109 10.045 91.1199 9.50381 90.5002C8.53407 88.9043 7.9929 86.9716 8.31921 85.1055C8.59727 83.566 9.49232 82.1989 10.6252 81.148Z"/>
<path d="M24.197 84.6054C26.2939 82.9991 29.0905 82.3725 31.6826 82.8566C32.326 82.8313 32.9223 83.0957 33.5186 83.2992C35.5799 84.1006 37.447 85.4171 38.8384 87.1406C41.4282 90.33 42.5129 94.6129 42.005 98.6693C41.8602 99.3431 42.2084 100.103 42.853 100.377C43.6825 100.801 44.7752 100.242 44.9498 99.3362C45.1647 97.8748 45.1785 96.387 45.0567 94.9153C46.5619 95.6615 47.7258 96.9952 48.3945 98.5244C49.3861 100.791 49.5308 103.361 49.0839 105.776C48.6507 108.105 47.6385 110.342 46.0942 112.146C44.9728 113.471 43.5377 114.505 41.9866 115.271C40.8089 115.851 39.5198 116.226 38.203 116.273C39.4359 115.081 40.4803 113.693 41.2811 112.177C41.6316 111.508 41.3731 110.59 40.7055 110.226C40.0173 109.784 38.9993 110.047 38.6224 110.777C37.4183 112.982 35.6328 115.037 33.2015 115.884C33.2096 112.179 33.1877 108.472 33.213 104.768C33.483 104.166 33.7484 103.558 33.907 102.915C35.4007 104.117 37.4068 104.492 39.2796 104.303C39.9805 104.242 40.5895 103.635 40.6251 102.928C40.6906 102.272 40.262 101.615 39.645 101.395C39.2325 101.229 38.7833 101.344 38.3547 101.333C37.3953 101.339 36.3819 101.108 35.6546 100.449C34.8813 99.7673 34.4723 98.7544 34.3712 97.7449C34.2092 95.4396 33.768 93.1205 32.7833 91.0176C32.4191 90.3174 31.4953 90.0116 30.791 90.3726C30.0855 90.6934 29.7465 91.6178 30.0717 92.3203C30.8335 93.9863 31.1966 95.8098 31.3413 97.6276C31.4781 99.6098 31.3655 101.691 30.4784 103.505C30.421 104.155 29.8959 104.609 29.3766 104.933C28.3884 105.485 27.1878 105.322 26.1502 105.006C25.4654 104.825 24.8634 104.418 24.3751 103.912C24.1682 103.725 24.1625 103.424 24.0189 103.199C22.7412 101.439 22.1173 99.2959 21.7416 97.178C21.3096 94.5094 21.2992 91.7247 22.0874 89.1205C22.5677 87.5258 23.2571 85.9816 24.197 84.6054Z"/>
<path d="M3.73019 96.8044C4.53907 94.9716 6.48199 93.9553 8.35368 93.5436C10.0438 94.9877 12.1131 95.9191 14.2204 96.5779C15.6945 97.0274 17.2123 97.3333 18.7428 97.5115C19.076 99.5351 19.6482 101.532 20.5788 103.365C18.6083 104.24 16.4862 104.742 14.3491 104.988C12.4314 105.182 10.454 105.174 8.59152 104.623C6.76235 103.996 5.02968 102.862 4.00824 101.187C3.2097 99.8834 3.10859 98.1979 3.73019 96.8044Z"/>
<path d="M14.0997 108.038C16.9055 107.795 19.6769 107.101 22.2448 105.938C22.863 106.429 23.4501 107.018 23.6891 107.793C24.1303 109.107 23.6317 110.554 22.786 111.593C21.7634 112.916 20.1801 113.632 18.6152 114.093C16.5344 114.718 14.2962 114.987 12.1534 114.526C11.7949 114.498 11.5858 114.161 11.2503 114.076C9.91859 113.629 8.76732 112.753 7.86652 111.688C7.17713 110.873 6.56817 109.882 6.60034 108.778C6.59574 108.243 6.81635 107.748 7.05648 107.283C9.30159 108.101 11.7363 108.231 14.0997 108.038Z"/>
<path d="M51.1015 109.582C53.2903 112.038 55.7192 114.293 58.4297 116.165C60.8 117.789 63.3921 119.127 66.1715 119.886C70.0436 120.986 74.2488 120.787 78.0186 119.39C78.8896 119.118 79.6961 118.571 80.6371 118.577C81.631 118.541 82.6306 118.948 83.3131 119.672C84.0335 120.442 84.407 121.54 84.2518 122.59C84.1025 123.733 83.3625 124.786 82.3181 125.283C79.1194 126.722 75.6437 127.568 72.1347 127.679C67.0712 127.852 62.0421 126.411 57.6288 123.974C53.6361 121.79 50.0984 118.85 46.9732 115.556C48.784 113.914 50.1984 111.853 51.1015 109.582Z"/>
</mask>
<path d="M13.9573 54.5125C13.9262 55.2358 13.9458 55.9612 13.9469 56.6845C13.9619 57.8181 14.7535 58.8713 15.814 59.2473C16.1047 59.3473 16.4172 59.3772 16.6987 59.5071C17.0928 59.7118 17.341 60.159 17.3042 60.6029C17.3008 63.4784 17.3042 66.354 17.3019 69.2307C17.318 69.7239 16.9722 70.1873 16.5045 70.3333C15.9128 70.4793 15.2786 70.2367 14.6983 70.4655C13.1518 70.9749 12.143 72.5639 12.0729 74.1551C12.0408 75.4095 12.0775 76.6662 12.0545 77.9218C14.1675 77.5182 16.3506 78.0425 18.2395 79.006C20.0618 79.8879 21.6876 81.1239 23.1893 82.4714C25.3873 80.994 28.069 80.2294 30.7174 80.426C30.7485 78.4162 30.7232 76.4052 30.7312 74.3943C30.7324 72.9134 29.9625 71.3704 28.6068 70.6978C27.8771 70.6162 27.1372 70.6886 26.4088 70.6058C25.8756 70.5173 25.4689 70.0056 25.4907 69.4675C25.4873 66.5115 25.4907 63.5555 25.4896 60.5994C25.4746 60.2384 25.6102 59.867 25.894 59.6348C26.1594 59.3956 26.5351 59.383 26.8626 59.2864C27.6818 59.0472 28.3597 58.3976 28.6608 57.6008C28.9905 56.7247 28.7975 55.7692 28.8515 54.8575C28.9285 53.3306 27.5842 51.9267 26.056 51.9417C22.9584 51.9325 19.8596 51.9336 16.7619 51.9405C15.3487 51.9221 14.0607 53.1029 13.9573 54.5125ZM10.6252 81.148C9.49232 82.1989 8.59727 83.566 8.31921 85.1055C7.9929 86.9716 8.53407 88.9043 9.50381 90.5002C10.045 91.1199 10.7194 91.6109 11.4065 92.0581C13.5379 93.3769 15.9944 94.0725 18.4567 94.4382C18.2705 90.7083 19.2644 86.9532 21.1706 83.7511C19.8929 82.66 18.5164 81.6666 16.994 80.948C15.6072 80.3064 14.0308 79.8603 12.5026 80.2018C11.8236 80.3811 11.1388 80.6525 10.6252 81.148ZM24.197 84.6054C23.2571 85.9816 22.5677 87.5258 22.0874 89.1205C21.2992 91.7247 21.3096 94.5094 21.7416 97.178C22.1173 99.2959 22.7412 101.439 24.0189 103.199C24.1625 103.424 24.1682 103.725 24.3751 103.912C24.8634 104.418 25.4654 104.825 26.1502 105.006C27.1878 105.322 28.3884 105.485 29.3766 104.933C29.8959 104.609 30.421 104.155 30.4784 103.505C31.3655 101.691 31.4781 99.6098 31.3413 97.6276C31.1966 95.8098 30.8335 93.9863 30.0717 92.3203C29.7465 91.6178 30.0855 90.6934 30.791 90.3726C31.4953 90.0116 32.4191 90.3174 32.7833 91.0176C33.768 93.1205 34.2092 95.4396 34.3712 97.7449C34.4723 98.7544 34.8813 99.7673 35.6546 100.449C36.3819 101.108 37.3953 101.339 38.3547 101.333C38.7833 101.344 39.2325 101.229 39.645 101.395C40.262 101.615 40.6906 102.272 40.6251 102.928C40.5895 103.635 39.9805 104.242 39.2796 104.303C37.4068 104.492 35.4007 104.117 33.907 102.915C33.7484 103.558 33.483 104.166 33.213 104.768C33.1877 108.472 33.2096 112.179 33.2015 115.884C35.6328 115.037 37.4183 112.982 38.6224 110.777C38.9993 110.047 40.0173 109.784 40.7055 110.226C41.3731 110.59 41.6316 111.508 41.2811 112.177C40.4803 113.693 39.4359 115.081 38.203 116.273C39.5198 116.226 40.8089 115.851 41.9866 115.271C43.5377 114.505 44.9728 113.471 46.0942 112.146C47.6385 110.342 48.6507 108.105 49.0839 105.776C49.5308 103.361 49.3861 100.791 48.3945 98.5244C47.7258 96.9952 46.5619 95.6615 45.0567 94.9153C45.1785 96.387 45.1647 97.8748 44.9498 99.3362C44.7752 100.242 43.6825 100.801 42.853 100.377C42.2084 100.103 41.8602 99.3431 42.005 98.6693C42.5129 94.6129 41.4282 90.33 38.8384 87.1406C37.447 85.4171 35.5799 84.1006 33.5186 83.2992C32.9223 83.0957 32.326 82.8313 31.6826 82.8566C29.0905 82.3725 26.2939 82.9991 24.197 84.6054ZM3.73019 96.8044C3.10859 98.1979 3.2097 99.8834 4.00824 101.187C5.02968 102.862 6.76235 103.996 8.59152 104.623C10.454 105.174 12.4314 105.182 14.3491 104.988C16.4862 104.742 18.6083 104.24 20.5788 103.365C19.6482 101.532 19.076 99.5351 18.7428 97.5115C17.2123 97.3333 15.6945 97.0274 14.2204 96.5779C12.1131 95.9191 10.0438 94.9877 8.35368 93.5436C6.48199 93.9553 4.53907 94.9716 3.73019 96.8044ZM14.0997 108.038C11.7363 108.231 9.30159 108.101 7.05648 107.283C6.81635 107.748 6.59574 108.243 6.60034 108.778C6.56817 109.882 7.17713 110.873 7.86652 111.688C8.76732 112.753 9.91859 113.629 11.2503 114.076C11.5858 114.161 11.7949 114.498 12.1534 114.526C14.2962 114.987 16.5344 114.718 18.6152 114.093C20.1801 113.632 21.7634 112.916 22.786 111.593C23.6317 110.554 24.1303 109.107 23.6891 107.793C23.4501 107.018 22.863 106.429 22.2448 105.938C19.6769 107.101 16.9055 107.795 14.0997 108.038ZM26.4329 107.818C26.7937 110.046 25.8503 112.326 24.2843 113.896C23.21 115.01 21.8347 115.792 20.3812 116.3C17.7926 117.237 14.973 117.676 12.2349 117.246C12.2395 118.557 12.22 119.868 12.2441 121.178C12.2797 122.644 13.1415 124.116 14.5203 124.691C15.1131 124.962 15.7761 124.956 16.4149 124.946C19.9365 124.944 23.457 124.946 26.9786 124.945C28.0449 124.97 29.0755 124.414 29.7086 123.566C30.282 122.828 30.5589 121.888 30.5577 120.959C30.5623 116.411 30.5589 111.864 30.56 107.317C29.2984 107.986 27.8163 108.067 26.4329 107.818ZM51.1015 109.582C50.1984 111.853 48.784 113.914 46.9732 115.556C50.0984 118.85 53.6361 121.79 57.6288 123.974C62.0421 126.411 67.0712 127.852 72.1347 127.679C75.6437 127.568 79.1194 126.722 82.3181 125.283C83.3625 124.786 84.1025 123.733 84.2518 122.59C84.407 121.54 84.0335 120.442 83.3131 119.672C82.6306 118.948 81.631 118.541 80.6371 118.577C79.6961 118.571 78.8896 119.118 78.0186 119.39C74.2488 120.787 70.0436 120.986 66.1715 119.886C63.3921 119.127 60.8 117.789 58.4297 116.165C55.7192 114.293 53.2903 112.038 51.1015 109.582Z" fill="black"/>
<path d="M13.9573 54.5125C14.0607 53.1029 15.3487 51.9221 16.7619 51.9405C19.8596 51.9336 22.9584 51.9325 26.056 51.9417C27.5842 51.9267 28.9285 53.3306 28.8515 54.8575C28.7975 55.7692 28.9905 56.7247 28.6608 57.6008C28.3597 58.3976 27.6818 59.0472 26.8626 59.2864C26.5351 59.383 26.1594 59.3956 25.894 59.6348C25.6102 59.867 25.4746 60.2384 25.4896 60.5994C25.4907 63.5555 25.4873 66.5115 25.4907 69.4675C25.4689 70.0056 25.8756 70.5173 26.4088 70.6058C27.1372 70.6886 27.8771 70.6162 28.6068 70.6978C29.9625 71.3704 30.7324 72.9134 30.7312 74.3943C30.7232 76.4052 30.7485 78.4162 30.7174 80.426C28.069 80.2294 25.3873 80.994 23.1893 82.4714C21.6876 81.1239 20.0618 79.8879 18.2395 79.006C16.3506 78.0425 14.1675 77.5182 12.0545 77.9218C12.0775 76.6662 12.0408 75.4095 12.0729 74.1551C12.143 72.5639 13.1518 70.9749 14.6983 70.4655C15.2786 70.2367 15.9128 70.4793 16.5045 70.3333C16.9722 70.1873 17.318 69.7239 17.3019 69.2307C17.3042 66.354 17.3008 63.4784 17.3042 60.6029C17.341 60.159 17.0928 59.7118 16.6987 59.5071C16.4172 59.3772 16.1047 59.3473 15.814 59.2473C14.7535 58.8713 13.9619 57.8181 13.9469 56.6845C13.9458 55.9612 13.9262 55.2358 13.9573 54.5125Z" fill="#7F4F14"/>
<path d="M26.4329 107.818C27.8163 108.067 29.2984 107.986 30.56 107.317C30.5589 111.864 30.5623 116.411 30.5577 120.959C30.5589 121.888 30.282 122.828 29.7086 123.566C29.0755 124.414 28.0449 124.97 26.9786 124.945C23.457 124.946 19.9365 124.944 16.4149 124.946C15.7761 124.956 15.1131 124.962 14.5203 124.691C13.1415 124.116 12.2797 122.644 12.2441 121.178C12.22 119.868 12.2395 118.557 12.2349 117.246C14.973 117.676 17.7926 117.237 20.3812 116.3C21.8347 115.792 23.21 115.01 24.2843 113.896C25.8503 112.326 26.7937 110.046 26.4329 107.818Z" fill="#7F4F14"/>
<path d="M10.6252 81.148C11.1388 80.6525 11.8236 80.3811 12.5026 80.2018C14.0308 79.8603 15.6072 80.3064 16.994 80.948C18.5164 81.6666 19.8929 82.66 21.1706 83.7511C19.2644 86.9532 18.2705 90.7083 18.4567 94.4382C15.9944 94.0725 13.5379 93.3769 11.4065 92.0581C10.7194 91.6109 10.045 91.1199 9.50381 90.5002C8.53407 88.9043 7.9929 86.9716 8.31921 85.1055C8.59727 83.566 9.49232 82.1989 10.6252 81.148Z" fill="white"/>
<path d="M24.197 84.6054C26.2939 82.9991 29.0905 82.3725 31.6826 82.8566C32.326 82.8313 32.9223 83.0957 33.5186 83.2992C35.5799 84.1006 37.447 85.4171 38.8384 87.1406C41.4282 90.33 42.5129 94.6129 42.005 98.6693C41.8602 99.3431 42.2084 100.103 42.853 100.377C43.6825 100.801 44.7752 100.242 44.9498 99.3362C45.1647 97.8748 45.1785 96.387 45.0567 94.9153C46.5619 95.6615 47.7258 96.9952 48.3945 98.5244C49.3861 100.791 49.5308 103.361 49.0839 105.776C48.6507 108.105 47.6385 110.342 46.0942 112.146C44.9728 113.471 43.5377 114.505 41.9866 115.271C40.8089 115.851 39.5198 116.226 38.203 116.273C39.4359 115.081 40.4803 113.693 41.2811 112.177C41.6316 111.508 41.3731 110.59 40.7055 110.226C40.0173 109.784 38.9993 110.047 38.6224 110.777C37.4183 112.982 35.6328 115.037 33.2015 115.884C33.2096 112.179 33.1877 108.472 33.213 104.768C33.483 104.166 33.7484 103.558 33.907 102.915C35.4007 104.117 37.4068 104.492 39.2796 104.303C39.9805 104.242 40.5895 103.635 40.6251 102.928C40.6906 102.272 40.262 101.615 39.645 101.395C39.2325 101.229 38.7833 101.344 38.3547 101.333C37.3953 101.339 36.3819 101.108 35.6546 100.449C34.8813 99.7673 34.4723 98.7544 34.3712 97.7449C34.2092 95.4396 33.768 93.1205 32.7833 91.0176C32.4191 90.3174 31.4953 90.0116 30.791 90.3726C30.0855 90.6934 29.7465 91.6178 30.0717 92.3203C30.8335 93.9863 31.1966 95.8098 31.3413 97.6276C31.4781 99.6098 31.3655 101.691 30.4784 103.505C30.421 104.155 29.8959 104.609 29.3766 104.933C28.3884 105.485 27.1878 105.322 26.1502 105.006C25.4654 104.825 24.8634 104.418 24.3751 103.912C24.1682 103.725 24.1625 103.424 24.0189 103.199C22.7412 101.439 22.1173 99.2959 21.7416 97.178C21.3096 94.5094 21.2992 91.7247 22.0874 89.1205C22.5677 87.5258 23.2571 85.9816 24.197 84.6054Z" fill="white"/>
<path d="M3.73019 96.8044C4.53907 94.9716 6.48199 93.9553 8.35368 93.5436C10.0438 94.9877 12.1131 95.9191 14.2204 96.5779C15.6945 97.0274 17.2123 97.3333 18.7428 97.5115C19.076 99.5351 19.6482 101.532 20.5788 103.365C18.6083 104.24 16.4862 104.742 14.3491 104.988C12.4314 105.182 10.454 105.174 8.59152 104.623C6.76235 103.996 5.02968 102.862 4.00824 101.187C3.2097 99.8834 3.10859 98.1979 3.73019 96.8044Z" fill="white"/>
<path d="M14.0997 108.038C16.9055 107.795 19.6769 107.101 22.2448 105.938C22.863 106.429 23.4501 107.018 23.6891 107.793C24.1303 109.107 23.6317 110.554 22.786 111.593C21.7634 112.916 20.1801 113.632 18.6152 114.093C16.5344 114.718 14.2962 114.987 12.1534 114.526C11.7949 114.498 11.5858 114.161 11.2503 114.076C9.91859 113.629 8.76732 112.753 7.86652 111.688C7.17713 110.873 6.56817 109.882 6.60034 108.778C6.59574 108.243 6.81635 107.748 7.05648 107.283C9.30159 108.101 11.7363 108.231 14.0997 108.038Z" fill="white"/>
<path d="M51.1015 109.582C53.2903 112.038 55.7192 114.293 58.4297 116.165C60.8 117.789 63.3921 119.127 66.1715 119.886C70.0436 120.986 74.2488 120.787 78.0186 119.39C78.8896 119.118 79.6961 118.571 80.6371 118.577C81.631 118.541 82.6306 118.948 83.3131 119.672C84.0335 120.442 84.407 121.54 84.2518 122.59C84.1025 123.733 83.3625 124.786 82.3181 125.283C79.1194 126.722 75.6437 127.568 72.1347 127.679C67.0712 127.852 62.0421 126.411 57.6288 123.974C53.6361 121.79 50.0984 118.85 46.9732 115.556C48.784 113.914 50.1984 111.853 51.1015 109.582Z" fill="#FFCA05"/>
<path d="M13.9573 54.5125C13.9262 55.2358 13.9458 55.9612 13.9469 56.6845C13.9619 57.8181 14.7535 58.8713 15.814 59.2473C16.1047 59.3473 16.4172 59.3772 16.6987 59.5071C17.0928 59.7118 17.341 60.159 17.3042 60.6029C17.3008 63.4784 17.3042 66.354 17.3019 69.2307C17.318 69.7239 16.9722 70.1873 16.5045 70.3333C15.9128 70.4793 15.2786 70.2367 14.6983 70.4655C13.1518 70.9749 12.143 72.5639 12.0729 74.1551C12.0408 75.4095 12.0775 76.6662 12.0545 77.9218C14.1675 77.5182 16.3506 78.0425 18.2395 79.006C20.0618 79.8879 21.6876 81.1239 23.1893 82.4714C25.3873 80.994 28.069 80.2294 30.7174 80.426C30.7485 78.4162 30.7232 76.4052 30.7312 74.3943C30.7324 72.9134 29.9625 71.3704 28.6068 70.6978C27.8771 70.6162 27.1372 70.6886 26.4088 70.6058C25.8756 70.5173 25.4689 70.0056 25.4907 69.4675C25.4873 66.5115 25.4907 63.5555 25.4896 60.5994C25.4746 60.2384 25.6102 59.867 25.894 59.6348C26.1594 59.3956 26.5351 59.383 26.8626 59.2864C27.6818 59.0472 28.3597 58.3976 28.6608 57.6008C28.9905 56.7247 28.7975 55.7692 28.8515 54.8575C28.9285 53.3306 27.5842 51.9267 26.056 51.9417C22.9584 51.9325 19.8596 51.9336 16.7619 51.9405C15.3487 51.9221 14.0607 53.1029 13.9573 54.5125ZM10.6252 81.148C9.49232 82.1989 8.59727 83.566 8.31921 85.1055C7.9929 86.9716 8.53407 88.9043 9.50381 90.5002C10.045 91.1199 10.7194 91.6109 11.4065 92.0581C13.5379 93.3769 15.9944 94.0725 18.4567 94.4382C18.2705 90.7083 19.2644 86.9532 21.1706 83.7511C19.8929 82.66 18.5164 81.6666 16.994 80.948C15.6072 80.3064 14.0308 79.8603 12.5026 80.2018C11.8236 80.3811 11.1388 80.6525 10.6252 81.148ZM24.197 84.6054C23.2571 85.9816 22.5677 87.5258 22.0874 89.1205C21.2992 91.7247 21.3096 94.5094 21.7416 97.178C22.1173 99.2959 22.7412 101.439 24.0189 103.199C24.1625 103.424 24.1682 103.725 24.3751 103.912C24.8634 104.418 25.4654 104.825 26.1502 105.006C27.1878 105.322 28.3884 105.485 29.3766 104.933C29.8959 104.609 30.421 104.155 30.4784 103.505C31.3655 101.691 31.4781 99.6098 31.3413 97.6276C31.1966 95.8098 30.8335 93.9863 30.0717 92.3203C29.7465 91.6178 30.0855 90.6934 30.791 90.3726C31.4953 90.0116 32.4191 90.3174 32.7833 91.0176C33.768 93.1205 34.2092 95.4396 34.3712 97.7449C34.4723 98.7544 34.8813 99.7673 35.6546 100.449C36.3819 101.108 37.3953 101.339 38.3547 101.333C38.7833 101.344 39.2325 101.229 39.645 101.395C40.262 101.615 40.6906 102.272 40.6251 102.928C40.5895 103.635 39.9805 104.242 39.2796 104.303C37.4068 104.492 35.4007 104.117 33.907 102.915C33.7484 103.558 33.483 104.166 33.213 104.768C33.1877 108.472 33.2096 112.179 33.2015 115.884C35.6328 115.037 37.4183 112.982 38.6224 110.777C38.9993 110.047 40.0173 109.784 40.7055 110.226C41.3731 110.59 41.6316 111.508 41.2811 112.177C40.4803 113.693 39.4359 115.081 38.203 116.273C39.5198 116.226 40.8089 115.851 41.9866 115.271C43.5377 114.505 44.9728 113.471 46.0942 112.146C47.6385 110.342 48.6507 108.105 49.0839 105.776C49.5308 103.361 49.3861 100.791 48.3945 98.5244C47.7258 96.9952 46.5619 95.6615 45.0567 94.9153C45.1785 96.387 45.1647 97.8748 44.9498 99.3362C44.7752 100.242 43.6825 100.801 42.853 100.377C42.2084 100.103 41.8602 99.3431 42.005 98.6693C42.5129 94.6129 41.4282 90.33 38.8384 87.1406C37.447 85.4171 35.5799 84.1006 33.5186 83.2992C32.9223 83.0957 32.326 82.8313 31.6826 82.8566C29.0905 82.3725 26.2939 82.9991 24.197 84.6054ZM3.73019 96.8044C3.10859 98.1979 3.2097 99.8834 4.00824 101.187C5.02968 102.862 6.76235 103.996 8.59152 104.623C10.454 105.174 12.4314 105.182 14.3491 104.988C16.4862 104.742 18.6083 104.24 20.5788 103.365C19.6482 101.532 19.076 99.5351 18.7428 97.5115C17.2123 97.3333 15.6945 97.0274 14.2204 96.5779C12.1131 95.9191 10.0438 94.9877 8.35368 93.5436C6.48199 93.9553 4.53907 94.9716 3.73019 96.8044ZM14.0997 108.038C11.7363 108.231 9.30159 108.101 7.05648 107.283C6.81635 107.748 6.59574 108.243 6.60034 108.778C6.56817 109.882 7.17713 110.873 7.86652 111.688C8.76732 112.753 9.91859 113.629 11.2503 114.076C11.5858 114.161 11.7949 114.498 12.1534 114.526C14.2962 114.987 16.5344 114.718 18.6152 114.093C20.1801 113.632 21.7634 112.916 22.786 111.593C23.6317 110.554 24.1303 109.107 23.6891 107.793C23.4501 107.018 22.863 106.429 22.2448 105.938C19.6769 107.101 16.9055 107.795 14.0997 108.038ZM26.4329 107.818C26.7937 110.046 25.8503 112.326 24.2843 113.896C23.21 115.01 21.8347 115.792 20.3812 116.3C17.7926 117.237 14.973 117.676 12.2349 117.246C12.2395 118.557 12.22 119.868 12.2441 121.178C12.2797 122.644 13.1415 124.116 14.5203 124.691C15.1131 124.962 15.7761 124.956 16.4149 124.946C19.9365 124.944 23.457 124.946 26.9786 124.945C28.0449 124.97 29.0755 124.414 29.7086 123.566C30.282 122.828 30.5589 121.888 30.5577 120.959C30.5623 116.411 30.5589 111.864 30.56 107.317C29.2984 107.986 27.8163 108.067 26.4329 107.818ZM51.1015 109.582C50.1984 111.853 48.784 113.914 46.9732 115.556C50.0984 118.85 53.6361 121.79 57.6288 123.974C62.0421 126.411 67.0712 127.852 72.1347 127.679C75.6437 127.568 79.1194 126.722 82.3181 125.283C83.3625 124.786 84.1025 123.733 84.2518 122.59C84.407 121.54 84.0335 120.442 83.3131 119.672C82.6306 118.948 81.631 118.541 80.6371 118.577C79.6961 118.571 78.8896 119.118 78.0186 119.39C74.2488 120.787 70.0436 120.986 66.1715 119.886C63.3921 119.127 60.8 117.789 58.4297 116.165C55.7192 114.293 53.2903 112.038 51.1015 109.582Z" stroke="black" stroke-width="13" mask="url(#path-1-outside-1_70_1921)"/>
<path d="M13.9573 54.5125C14.0607 53.1029 15.3487 51.9221 16.7619 51.9405C19.8596 51.9336 22.9584 51.9325 26.056 51.9417C27.5842 51.9267 28.9285 53.3306 28.8515 54.8575C28.7975 55.7692 28.9905 56.7247 28.6608 57.6008C28.3597 58.3976 27.6818 59.0472 26.8626 59.2864C26.5351 59.383 26.1594 59.3956 25.894 59.6348C25.6102 59.867 25.4746 60.2384 25.4896 60.5994C25.4907 63.5555 25.4873 66.5115 25.4907 69.4675C25.4689 70.0056 25.8756 70.5173 26.4088 70.6058C27.1372 70.6886 27.8771 70.6162 28.6068 70.6978C29.9625 71.3704 30.7324 72.9134 30.7312 74.3943C30.7232 76.4052 30.7485 78.4162 30.7174 80.426C28.069 80.2294 25.3873 80.994 23.1893 82.4714C21.6876 81.1239 20.0618 79.8879 18.2395 79.006C16.3506 78.0425 14.1675 77.5182 12.0545 77.9218C12.0775 76.6662 12.0408 75.4095 12.0729 74.1551C12.143 72.5639 13.1518 70.9749 14.6983 70.4655C15.2786 70.2367 15.9128 70.4793 16.5045 70.3333C16.9722 70.1873 17.318 69.7239 17.3019 69.2307C17.3042 66.354 17.3008 63.4784 17.3042 60.6029C17.341 60.159 17.0928 59.7118 16.6987 59.5071C16.4172 59.3772 16.1047 59.3473 15.814 59.2473C14.7535 58.8713 13.9619 57.8181 13.9469 56.6845C13.9458 55.9612 13.9262 55.2358 13.9573 54.5125Z" stroke="black" stroke-width="13" mask="url(#path-1-outside-1_70_1921)"/>
<path d="M26.4329 107.818C27.8163 108.067 29.2984 107.986 30.56 107.317C30.5589 111.864 30.5623 116.411 30.5577 120.959C30.5589 121.888 30.282 122.828 29.7086 123.566C29.0755 124.414 28.0449 124.97 26.9786 124.945C23.457 124.946 19.9365 124.944 16.4149 124.946C15.7761 124.956 15.1131 124.962 14.5203 124.691C13.1415 124.116 12.2797 122.644 12.2441 121.178C12.22 119.868 12.2395 118.557 12.2349 117.246C14.973 117.676 17.7926 117.237 20.3812 116.3C21.8347 115.792 23.21 115.01 24.2843 113.896C25.8503 112.326 26.7937 110.046 26.4329 107.818Z" stroke="black" stroke-width="13" mask="url(#path-1-outside-1_70_1921)"/>
<path d="M10.6252 81.148C11.1388 80.6525 11.8236 80.3811 12.5026 80.2018C14.0308 79.8603 15.6072 80.3064 16.994 80.948C18.5164 81.6666 19.8929 82.66 21.1706 83.7511C19.2644 86.9532 18.2705 90.7083 18.4567 94.4382C15.9944 94.0725 13.5379 93.3769 11.4065 92.0581C10.7194 91.6109 10.045 91.1199 9.50381 90.5002C8.53407 88.9043 7.9929 86.9716 8.31921 85.1055C8.59727 83.566 9.49232 82.1989 10.6252 81.148Z" stroke="black" stroke-width="13" mask="url(#path-1-outside-1_70_1921)"/>
<path d="M24.197 84.6054C26.2939 82.9991 29.0905 82.3725 31.6826 82.8566C32.326 82.8313 32.9223 83.0957 33.5186 83.2992C35.5799 84.1006 37.447 85.4171 38.8384 87.1406C41.4282 90.33 42.5129 94.6129 42.005 98.6693C41.8602 99.3431 42.2084 100.103 42.853 100.377C43.6825 100.801 44.7752 100.242 44.9498 99.3362C45.1647 97.8748 45.1785 96.387 45.0567 94.9153C46.5619 95.6615 47.7258 96.9952 48.3945 98.5244C49.3861 100.791 49.5308 103.361 49.0839 105.776C48.6507 108.105 47.6385 110.342 46.0942 112.146C44.9728 113.471 43.5377 114.505 41.9866 115.271C40.8089 115.851 39.5198 116.226 38.203 116.273C39.4359 115.081 40.4803 113.693 41.2811 112.177C41.6316 111.508 41.3731 110.59 40.7055 110.226C40.0173 109.784 38.9993 110.047 38.6224 110.777C37.4183 112.982 35.6328 115.037 33.2015 115.884C33.2096 112.179 33.1877 108.472 33.213 104.768C33.483 104.166 33.7484 103.558 33.907 102.915C35.4007 104.117 37.4068 104.492 39.2796 104.303C39.9805 104.242 40.5895 103.635 40.6251 102.928C40.6906 102.272 40.262 101.615 39.645 101.395C39.2325 101.229 38.7833 101.344 38.3547 101.333C37.3953 101.339 36.3819 101.108 35.6546 100.449C34.8813 99.7673 34.4723 98.7544 34.3712 97.7449C34.2092 95.4396 33.768 93.1205 32.7833 91.0176C32.4191 90.3174 31.4953 90.0116 30.791 90.3726C30.0855 90.6934 29.7465 91.6178 30.0717 92.3203C30.8335 93.9863 31.1966 95.8098 31.3413 97.6276C31.4781 99.6098 31.3655 101.691 30.4784 103.505C30.421 104.155 29.8959 104.609 29.3766 104.933C28.3884 105.485 27.1878 105.322 26.1502 105.006C25.4654 104.825 24.8634 104.418 24.3751 103.912C24.1682 103.725 24.1625 103.424 24.0189 103.199C22.7412 101.439 22.1173 99.2959 21.7416 97.178C21.3096 94.5094 21.2992 91.7247 22.0874 89.1205C22.5677 87.5258 23.2571 85.9816 24.197 84.6054Z" stroke="black" stroke-width="13" mask="url(#path-1-outside-1_70_1921)"/>
<path d="M3.73019 96.8044C4.53907 94.9716 6.48199 93.9553 8.35368 93.5436C10.0438 94.9877 12.1131 95.9191 14.2204 96.5779C15.6945 97.0274 17.2123 97.3333 18.7428 97.5115C19.076 99.5351 19.6482 101.532 20.5788 103.365C18.6083 104.24 16.4862 104.742 14.3491 104.988C12.4314 105.182 10.454 105.174 8.59152 104.623C6.76235 103.996 5.02968 102.862 4.00824 101.187C3.2097 99.8834 3.10859 98.1979 3.73019 96.8044Z" stroke="black" stroke-width="13" mask="url(#path-1-outside-1_70_1921)"/>
<path d="M14.0997 108.038C16.9055 107.795 19.6769 107.101 22.2448 105.938C22.863 106.429 23.4501 107.018 23.6891 107.793C24.1303 109.107 23.6317 110.554 22.786 111.593C21.7634 112.916 20.1801 113.632 18.6152 114.093C16.5344 114.718 14.2962 114.987 12.1534 114.526C11.7949 114.498 11.5858 114.161 11.2503 114.076C9.91859 113.629 8.76732 112.753 7.86652 111.688C7.17713 110.873 6.56817 109.882 6.60034 108.778C6.59574 108.243 6.81635 107.748 7.05648 107.283C9.30159 108.101 11.7363 108.231 14.0997 108.038Z" stroke="black" stroke-width="13" mask="url(#path-1-outside-1_70_1921)"/>
<path d="M51.1015 109.582C53.2903 112.038 55.7192 114.293 58.4297 116.165C60.8 117.789 63.3921 119.127 66.1715 119.886C70.0436 120.986 74.2488 120.787 78.0186 119.39C78.8896 119.118 79.6961 118.571 80.6371 118.577C81.631 118.541 82.6306 118.948 83.3131 119.672C84.0335 120.442 84.407 121.54 84.2518 122.59C84.1025 123.733 83.3625 124.786 82.3181 125.283C79.1194 126.722 75.6437 127.568 72.1347 127.679C67.0712 127.852 62.0421 126.411 57.6288 123.974C53.6361 121.79 50.0984 118.85 46.9732 115.556C48.784 113.914 50.1984 111.853 51.1015 109.582Z" stroke="black" stroke-width="13" mask="url(#path-1-outside-1_70_1921)"/>
<path d="M135.546 0.568359H138.345C141.169 0.755246 143.965 1.22474 146.741 1.75349C149.524 2.53751 152.323 3.31468 155 4.41549C156.082 5.12201 157.245 5.68267 158.37 6.3117C159.471 7.10027 160.654 7.76121 161.766 8.53155C164.985 11.0545 167.925 13.9786 170.245 17.3631C171.084 18.5892 171.893 19.8382 172.705 21.0826C173.511 22.2973 174.029 23.6739 174.732 24.9457C175.479 26.3131 175.954 27.8037 176.625 29.2076C177.67 31.2975 178.112 33.6177 178.948 35.7919C179.295 36.6967 179.395 37.6653 179.604 38.6066C180.684 42.5563 181.267 46.6291 181.66 50.7018C181.76 53.8926 182.146 57.0742 182.101 60.2718C181.914 65.0898 181.794 69.9352 180.891 74.6871C180.3 77.7046 180.101 80.7997 179.247 83.7625C178.14 87.7008 177.316 91.7394 175.733 95.5272C174.744 98.0046 173.665 100.443 172.703 102.93C172.117 104.47 171.527 106.027 171.302 107.67C171 107.998 170.878 108.575 171.346 108.826C171.28 112.174 172.027 115.467 172.769 118.71C173.507 121.044 174.321 123.355 174.898 125.737C175.357 127.243 175.559 128.845 176.301 130.252C179.978 137.595 181.753 145.973 180.852 154.178C179.946 162.617 176.507 170.742 171.246 177.368C169.459 179.293 167.766 181.308 165.861 183.122C162.847 186.005 159.574 188.64 155.969 190.741C150.546 193.273 144.944 195.398 139.287 197.337C137.641 197.604 136.014 198.025 134.341 198.103C132.661 198.199 131.008 198.691 129.322 198.552C125.227 198.199 121.03 198.315 117.064 197.086C113.562 196.403 110.295 194.887 107.083 193.383C105.097 192.448 103.181 191.38 101.242 190.358C100.128 189.782 99.229 188.884 98.1871 188.198C96.5187 187.093 95.1159 185.654 93.6449 184.31C90.635 181.511 88.0654 178.27 85.8 174.845C84.3563 172.611 82.8263 170.403 81.8457 167.912C80.3566 164.894 79.3124 161.683 78.266 158.492C77.8619 156.345 77.2263 154.246 76.9607 152.074C76.5158 149.729 76.3365 147.354 76.2026 144.977V143.568C76.45 139.92 76.82 136.28 77.2808 132.654C77.5305 130.293 78.1706 128 78.7041 125.693C79.3056 123.396 80.2953 121.229 81.0875 118.997C82.1521 116.117 82.8626 113.126 83.7388 110.186C84.3812 108.03 84.9987 105.865 85.6093 103.7C86.2199 101.544 86.3062 99.29 86.5717 97.077C86.8963 94.3148 86.692 91.532 86.6035 88.7651C86.5876 86.3994 86.0769 84.0793 85.809 81.7387C85.6206 79.888 85.119 78.0807 85.0123 76.2209C84.9555 75.07 84.5356 73.976 84.4879 72.8251C84.3858 70.5369 83.9136 68.2783 83.9182 65.9832C83.9318 62.3275 83.8342 58.6582 84.27 55.0207C85.0486 48.4182 86.6217 41.909 88.9529 35.6871C89.8768 33.5493 90.8052 31.4069 91.9061 29.3534C92.3874 28.2162 93.0298 27.1609 93.7176 26.1422C94.8684 24.0819 96.3575 22.2472 97.6718 20.2963C100.693 16.3648 104.325 12.9371 108.282 9.96739C110.347 8.21931 112.749 6.95897 115.101 5.6576C117.491 4.59098 119.879 3.50385 122.36 2.66514C123.02 2.57169 123.67 2.41671 124.285 2.15462C127.962 1.19283 131.744 0.611662 135.546 0.568359ZM117.293 8.3629C115.2 9.57538 112.946 10.5372 111.042 12.0528C107.455 14.8675 103.885 17.7938 101.068 21.4153C99.0883 24.0386 97.0953 26.6709 95.5335 29.5722C94.9933 30.8804 94.1307 32.0246 93.6449 33.3556C92.1399 36.8494 90.585 40.3456 89.6838 44.0559C88.6783 47.331 88.1539 50.7269 87.7567 54.1228C87.5524 55.9483 87.2754 57.767 87.2323 59.6063C87.1347 62.9429 87.3844 66.2749 87.4956 69.607C87.7135 71.5875 87.8951 73.5772 88.2742 75.5349C88.6079 78.0921 88.9915 80.6447 89.4296 83.1859C89.5522 85.2758 89.7588 87.3635 90.0697 89.4375C90.2264 91.9696 89.9358 94.4971 89.845 97.0292C89.559 99.5088 89.3842 102.014 88.8644 104.461C87.482 109.412 86.2176 114.401 84.5424 119.264C83.1827 123.262 81.3281 127.161 80.8787 131.409C80.1114 134.311 79.9548 137.324 79.578 140.291C79.3624 141.586 79.721 142.882 79.5689 144.177C79.3941 145.704 79.8413 147.201 79.8776 148.724C80.0933 150.711 80.3657 152.701 80.8696 154.64C81.1375 156.208 81.4348 157.786 82.0023 159.278C82.5721 160.712 82.8513 162.257 83.5936 163.62C84.5265 165.457 85.1576 167.435 86.17 169.233C88.2742 172.805 90.7053 176.178 93.3521 179.364C95.1613 181.128 96.9908 182.876 98.9044 184.526C100.745 186.144 102.847 187.423 104.931 188.695C106.615 189.896 108.574 190.602 110.472 191.382C113.584 192.827 116.921 193.896 120.333 194.269C120.421 194.696 121.241 194.682 121.565 194.475L121.717 194.582C126.339 195.409 131.065 195.058 135.707 194.62C137.596 194.224 139.475 193.793 141.366 193.41C143.75 192.69 146.119 191.899 148.401 190.892C150.119 189.946 151.962 189.235 153.601 188.145C156.055 186.83 158.273 185.123 160.454 183.403C162.618 181.707 164.431 179.633 166.365 177.691C166.817 177.156 167.171 176.547 167.63 176.016C171.952 170.681 175.159 164.379 176.589 157.635C178.525 148.644 177.204 139.056 173.243 130.794C172.83 129.855 172.135 129.026 172.006 127.982C171.071 124.504 169.902 121.092 168.973 117.612C168.547 115.08 168.134 112.532 168.027 109.963C168.047 105.868 168.994 101.767 170.828 98.1049C171.225 97.2776 171.847 96.5642 172.09 95.664C173.509 91.9992 174.501 88.1908 175.57 84.4143C176.099 82.3039 176.398 80.1433 176.864 78.0192C177.869 72.7681 178.31 67.4304 178.591 62.0973C178.834 58.371 178.33 54.6538 178.251 50.9297C177.926 47.8871 177.461 44.8536 176.848 41.8543C176.616 39.8852 175.919 38.0186 175.397 36.1155C174.219 31.906 172.646 27.7786 170.374 24.034C168.824 20.9002 166.513 18.2428 164.354 15.5261C161.165 12.3878 157.701 9.37026 153.495 7.71335C152.648 7.41935 151.94 6.84273 151.1 6.53961C146.444 4.90777 141.527 3.97334 136.588 3.98474C129.946 4.02348 123.263 5.40006 117.293 8.3629Z" fill="black"/>
<path d="M134.611 9.0489C135.601 8.57257 137.155 9.13095 137.167 10.3708C137.253 11.1502 136.579 11.6608 136.166 12.2237C135.637 12.871 135.183 13.7325 134.304 13.933C132.974 14.243 131.698 12.4949 132.552 11.3599C133.149 10.5258 133.714 9.58677 134.611 9.0489Z" fill="black"/>
<path d="M140.558 9.62096C141.033 9.43863 141.591 9.46598 142.072 9.61868C142.964 10.1565 143.039 11.3007 143.457 12.1622C144.571 14.4071 144.664 17.0121 144.428 19.4644C144.292 21.486 143.45 23.4802 142.043 24.9411C140.068 26.7416 137.192 27.6031 134.574 26.9718C131.58 26.2584 128.822 24.5924 126.727 22.3384C126.144 21.7298 125.574 20.8433 125.987 19.9818C126.419 18.8377 128.096 18.5026 128.888 19.4621C130.523 21.5361 132.827 23.1953 135.458 23.6466C137.058 23.9201 138.928 23.5486 139.954 22.1857C141.205 20.588 141.13 18.4297 141.092 16.5084C141.107 14.6441 139.923 13.0761 139.621 11.2824C139.478 10.5805 139.977 9.94231 140.558 9.62096Z" fill="black"/>
<path d="M122.135 12.2898C123.05 11.957 124.382 12.283 124.632 13.3427C124.798 14.3205 124.244 15.223 123.824 16.064C122.469 18.4821 121.071 20.9276 119.078 22.8831C117.598 24.3668 115.827 25.7707 113.686 26.0465C112.054 26.2972 110.193 25.8208 109.169 24.4465C108.404 23.405 107.794 22.1583 107.812 20.8387C107.805 20.1254 108.213 19.4006 108.885 19.1248C109.678 18.9311 110.656 19.2821 110.994 20.0661C111.228 20.9481 111.335 22.017 112.161 22.5731C112.878 23.0016 113.741 22.6301 114.406 22.27C116.054 21.3196 117.227 19.7653 118.446 18.3408C119.463 16.9528 120.38 15.4737 121.018 13.8692C121.263 13.2744 121.538 12.6089 122.135 12.2898Z" fill="black"/>
<path d="M154.373 12.226C154.959 11.8773 155.735 12.0642 156.255 12.4676C157.551 13.4271 158.75 14.6145 159.421 16.1073C159.764 17.1397 160.357 18.1289 160.334 19.2502C160.375 20.7658 160.279 22.3953 159.408 23.6899C158.686 24.7223 157.637 25.5314 156.459 25.9599C154.512 26.4202 152.396 26.3177 150.55 25.5177C149.509 25.1075 149.184 23.6466 149.81 22.7623C150.369 22.1378 151.345 21.96 152.089 22.3475C153.388 22.9788 155.099 23.136 156.273 22.1629C157.17 21.3994 157.12 20.082 156.87 19.0337C156.534 17.7209 155.939 16.3557 154.775 15.5831C154.155 15.1501 153.377 14.6418 153.377 13.7894C153.308 13.0943 153.878 12.6043 154.373 12.226Z" fill="black"/>
<path d="M159.86 28.7746C160.286 28.6743 160.768 28.5125 161.185 28.7335C162.318 29.2988 163.056 30.3745 163.95 31.2337C165.734 32.9362 167.026 35.074 168.163 37.2437C168.939 39.3405 169.391 41.6834 168.79 43.8873C168.367 45.4758 167.31 46.9778 165.775 47.6341C164.545 47.9897 163.267 46.5379 163.753 45.3528C164.159 44.5209 165.183 44.1494 165.444 43.2218C165.938 41.6355 165.748 39.8373 164.912 38.3992C163.789 36.3685 162.595 34.2832 160.756 32.8109C160.1 32.257 159.353 31.7533 158.931 30.983C158.473 30.158 159.149 29.1802 159.86 28.7746Z" fill="black"/>
<path d="M127.413 30.6115C130.613 29.9984 133.819 31.0263 136.713 32.3277C137.478 32.6741 138.263 33.3989 138.095 34.3287C137.925 35.5982 136.232 36.1953 135.231 35.4706C133.297 34.1806 130.893 33.8843 128.623 33.9299C126.936 33.9527 125.284 34.7139 124.185 35.9993C123.713 36.5645 123.645 37.3713 123.132 37.9069C122.26 38.7228 120.603 38.1918 120.344 37.0272C120.192 36.2979 120.551 35.6005 120.896 34.9851C121.661 33.661 122.725 32.4599 124.087 31.7442C125.175 31.3089 126.237 30.7619 127.413 30.6115Z" fill="black"/>
<path d="M167.53 54.2458C168.422 53.7535 169.725 54.2367 169.931 55.2874C170.46 57.5186 170.705 59.8319 170.581 62.1247C170.465 65.2607 170.245 68.4401 169.264 71.4417C168.588 73.5134 167.782 75.5737 166.59 77.4038C165.986 78.0032 165.707 79.063 164.756 79.1929C163.53 79.4687 162.316 78.1058 162.74 76.9138C163.031 76.3349 163.53 75.9019 163.875 75.3595C164.665 74.2518 165.085 72.9459 165.534 71.6741C166.549 68.7409 167.153 65.6596 167.253 62.5554C167.294 61.1036 167.142 59.6587 167.073 58.2115C167.039 57.3545 166.654 56.5614 166.592 55.7113C166.547 55.0663 167.08 54.6105 167.53 54.2458Z" fill="black"/>
<path d="M97.8307 66.9723C99.0678 66.4208 100.661 67.549 100.344 68.9301C100.117 70.2679 98.321 70.6189 97.4176 69.7255C96.4824 68.9916 96.9341 67.5193 97.8307 66.9723Z" fill="black"/>
<path d="M92.5917 69.4406C93.4452 68.9893 94.6346 69.55 94.8911 70.4822C95.2498 71.4759 94.4871 72.6108 93.4769 72.7704C92.3624 72.8729 91.2774 71.738 91.5293 70.6166C91.6564 70.0696 92.1694 69.7506 92.5917 69.4406Z" fill="black"/>
<path d="M145.066 69.9716C145.747 69.8053 146.596 69.9466 146.989 70.5893C147.677 71.6605 146.878 73.2194 145.679 73.4496C144.758 73.5453 143.886 72.7772 143.729 71.8861C143.602 71.0269 144.365 70.3067 145.066 69.9716Z" fill="black"/>
<path d="M98.4935 73.5384C99.4038 73.1715 100.711 73.5704 100.927 74.6279C101.208 75.6831 100.323 76.6449 99.3766 76.9343C98.4323 77.0779 97.522 76.2597 97.3586 75.3526C97.2632 74.5549 97.9147 73.9646 98.4935 73.5384Z" fill="black"/>
<path d="M150.691 74.9241C151.965 74.27 153.717 75.4734 153.377 76.9252C153.075 78.3428 151.084 78.671 150.199 77.6066C149.356 76.8409 149.715 75.3822 150.691 74.9241Z" fill="black"/>
<path d="M145.005 76.2643C146.301 75.8472 147.649 77.4061 147.102 78.6391C146.614 79.6875 144.932 80.0248 144.17 79.0995C143.423 78.206 143.693 76.4443 145.005 76.2643Z" fill="black"/>
<path d="M161.369 87.4547C162.627 86.7641 164.272 88.0837 163.834 89.4511C163.496 90.8984 163.403 92.3958 162.956 93.8156C161.78 97.7653 160.218 101.683 157.671 104.956C156.101 106.962 154.069 108.769 151.536 109.368C149.62 109.886 147.354 109.594 145.947 108.083C143.418 105.455 142.365 101.683 142.385 98.0958C142.388 97.1842 142.22 96.1996 142.653 95.3563C143.389 94.1415 145.538 94.6999 145.729 96.0628C145.836 97.4257 145.631 98.8046 145.872 100.161C146.174 101.959 146.726 103.796 147.897 105.225C148.496 105.97 149.472 106.433 150.435 106.23C151.901 105.929 153.052 104.862 154.055 103.81C157.313 100.291 159.09 95.6708 160.152 91.0534C160.518 89.8363 160.064 88.1908 161.369 87.4547Z" fill="black"/>
<path d="M97.1361 89.5059C98.0327 89.1777 99.3697 89.5013 99.5831 90.5611C99.6875 91.7097 99.4242 92.8516 99.3993 94.0002C99.338 95.9101 99.397 97.8246 99.4605 99.7345C99.6739 101.708 99.7057 103.743 100.441 105.615C100.827 106.92 101.508 108.165 102.518 109.088C103.14 109.626 104.164 109.908 104.293 110.843C104.511 112.185 102.856 113.322 101.699 112.607C99.9213 111.465 98.3891 109.831 97.6332 107.83C97.1997 106.836 96.7775 105.817 96.6798 104.728C96.5664 103.42 96.1192 102.159 96.1192 100.84C96.0828 98.6382 95.9807 96.4343 96.0783 94.2327C96.1351 93.0179 95.9421 91.7827 96.2236 90.5884C96.3371 90.1053 96.7411 89.7634 97.1361 89.5059Z" fill="black"/>
<path d="M96.2826 119.654C97.2882 118.665 98.4799 117.831 99.8169 117.37C100.568 117.133 101.252 117.584 101.862 117.96C101.989 118.578 102.282 119.264 101.962 119.875C101.662 120.458 100.963 120.588 100.418 120.844C99.3834 121.217 98.6933 122.134 98.0078 122.952C96.6208 124.622 95.6652 126.703 95.5017 128.887C95.2747 130.224 93.1614 130.603 92.4691 129.447C91.9879 128.659 92.1626 127.679 92.3851 126.835C93.1364 124.201 94.3168 121.602 96.2826 119.654Z" fill="black"/>
<path d="M160.731 118.011C161.473 117.646 162.529 117.849 162.883 118.66C163.444 119.886 164.082 121.092 164.42 122.407C164.67 123.332 164.69 124.303 164.937 125.231C165.196 126.003 164.663 126.844 163.968 127.168C163.131 127.448 162.027 127.091 161.716 126.204C161.308 125.11 161.449 123.888 161.017 122.799C160.584 121.719 159.909 120.711 159.723 119.544C159.669 118.863 160.234 118.371 160.731 118.011Z" fill="black"/>
<path d="M145.112 121.055C145.668 120.834 146.401 120.85 146.837 121.315C147.845 122.434 148.448 123.836 149.123 125.169C149.926 126.673 150.417 128.326 150.816 129.978C150.968 130.612 151.052 131.425 150.498 131.897C149.722 132.724 148.183 132.374 147.761 131.348C147.291 130.17 147.091 128.896 146.535 127.749C145.983 126.573 145.588 125.311 144.828 124.244C144.481 123.708 144.011 123.15 144.102 122.466C144.151 121.849 144.662 121.416 145.112 121.055Z" fill="black"/>
<path d="M114.658 121.685C115.609 121.215 117.084 121.805 117.144 122.968C117.105 123.738 116.719 124.445 116.635 125.213C116.022 129.128 115.856 133.176 116.703 137.073C117.041 138.616 117.591 140.113 118.374 141.488C119.034 142.538 118.088 144.125 116.851 144.029C116.086 144.033 115.489 143.443 115.194 142.784C114.465 141.203 113.809 139.58 113.339 137.903C113.144 136.421 112.769 134.951 112.846 133.447C112.751 130.138 112.969 126.824 113.516 123.56C113.607 122.794 113.986 122.083 114.658 121.685Z" fill="black"/>
<path d="M105.512 123.485C106.223 123.234 107.176 123.332 107.578 124.053C108.168 125.101 108.027 126.359 108.123 127.517C108.411 129.921 107.775 132.351 106.756 134.514C105.85 136.3 104.545 138.06 102.623 138.807C100.387 139.664 97.8307 139.275 95.7378 138.201C94.4848 137.552 93.3725 136.553 92.7415 135.275C92.1649 134.014 93.6063 132.387 94.9229 132.886C95.7174 133.199 95.9285 134.14 96.5414 134.666C97.9351 135.856 100.073 136.253 101.719 135.359C102.865 134.744 103.542 133.552 104.003 132.378C104.961 130.113 104.904 127.61 104.554 125.222C104.38 124.522 104.913 123.786 105.512 123.485Z" fill="black"/>
<path d="M132.3 125.06C133.024 124.789 134.05 124.786 134.563 125.461C137.015 129.424 138.075 134.087 138.418 138.696C138.522 141.499 137.065 144.425 134.531 145.727C132.588 146.755 130.289 146.625 128.185 146.313C126.857 145.987 125.338 145.572 124.541 144.362C123.799 143.236 124.836 141.551 126.158 141.681C126.852 141.848 127.295 142.5 127.962 142.732C129.415 143.208 131.031 143.256 132.486 142.769C133.603 142.406 134.597 141.526 134.899 140.362C135.233 139.047 134.87 137.704 134.742 136.387C134.654 135.136 134.227 133.951 134.034 132.718C133.791 131.27 133.09 129.971 132.52 128.638C132.28 128.02 131.655 127.658 131.406 127.054C131.285 126.311 131.594 125.409 132.3 125.06Z" fill="black"/>
<path d="M146.837 138.058C147.917 137.545 149.418 138.349 149.42 139.578C148.503 142.755 148.158 146.121 148.582 149.41C148.839 150.919 149.191 152.523 150.246 153.69C151.043 154.54 152.353 154.602 153.42 154.346C154.906 154.02 156.327 153.346 157.476 152.334C158.064 151.839 158.162 150.935 158.865 150.552C159.585 150.068 160.672 150.226 161.144 150.98C161.705 151.874 161.358 153.043 160.722 153.799C158.763 156.199 155.771 157.703 152.696 157.92C150.539 158.05 148.426 156.904 147.186 155.158C145.475 152.863 145.069 149.904 144.971 147.115C144.826 144.507 145.302 141.918 145.936 139.402C146.083 138.878 146.331 138.32 146.837 138.058Z" fill="black"/>
<path d="M88.7146 146.039C89.5817 145.791 90.7507 146.16 90.9981 147.117C91.1412 148.323 90.753 149.524 90.8847 150.734C91.064 152.384 90.9959 154.107 91.6791 155.655C92.2058 156.687 91.2183 158.111 90.0629 157.936C89.1504 157.861 88.483 157.063 88.2311 156.231C87.7725 154.602 87.7703 152.895 87.6023 151.222C87.4774 149.925 87.5455 148.619 87.6545 147.324C87.6636 146.705 88.2492 146.333 88.7146 146.039Z" fill="black"/>
<path d="M168.469 147.204C168.678 146.429 169.575 146.299 170.217 146.071C170.728 146.308 171.389 146.438 171.632 147.019C172.163 148.12 172.215 149.369 172.474 150.549C172.993 152.94 172.907 155.418 172.648 157.836C172.165 159.928 171.298 162.025 169.718 163.527C168.465 164.714 166.694 165.457 164.96 165.165C163.723 164.801 163.432 162.854 164.497 162.132C165.273 161.662 166.318 161.908 167.044 161.32C168.374 160.272 169.214 158.622 169.307 156.929C169.496 154.604 169.639 152.195 168.908 149.945C168.653 149.061 168.256 148.138 168.469 147.204Z" fill="black"/>
<path d="M103.701 149.223C104.532 148.806 105.726 149.095 106.028 150.05C107.256 154.025 107.548 158.321 106.668 162.403C106.112 164.853 104.743 167.321 102.402 168.436C101.015 169.151 99.3902 169.192 97.8943 168.835C95.3247 168.281 92.9026 166.863 91.2864 164.766C90.644 163.941 90.3875 162.542 91.2683 161.792C92.0696 161.056 93.4542 161.434 93.9128 162.38C94.5075 163.716 95.8876 164.438 97.1588 164.997C98.5026 165.505 100.121 165.972 101.451 165.19C102.781 164.183 103.183 162.442 103.494 160.887C104.003 157.507 103.669 154.025 102.716 150.757C102.636 150.096 103.186 149.542 103.701 149.223Z" fill="black"/>
<path d="M113.255 154.465C113.882 154.123 114.737 154.381 115.121 154.98C115.766 155.96 115.856 157.172 116.136 158.287C116.349 159.354 116.823 160.388 116.758 161.494C116.587 162.462 115.507 163.151 114.565 162.781C113.484 162.501 113.307 161.234 113.121 160.306C112.933 158.845 112.27 157.489 112.156 156.022C112.059 155.276 112.71 154.811 113.255 154.465Z" fill="black"/>
<path d="M138.25 158.608C139.278 158.228 140.735 158.891 140.653 160.122C140.156 162.453 139.73 164.89 138.438 166.938C137.762 167.868 137.176 168.876 136.37 169.703C135.072 170.966 133.619 172.119 131.907 172.757C130.123 173.68 128.103 173.942 126.126 174.04C123.751 174.036 121.35 173.856 119.066 173.172C118.181 172.878 117.155 172.49 116.771 171.556C116.322 170.478 117.275 169.138 118.433 169.197C119.009 169.27 119.52 169.569 120.04 169.81C121.291 170.464 122.73 170.567 124.115 170.656C126.389 170.735 128.745 170.551 130.843 169.596C133.46 168.256 135.562 165.879 136.481 163.066C136.84 161.892 137.069 160.685 137.342 159.49C137.562 159.126 137.895 158.836 138.25 158.608Z" fill="black"/>
<path d="M155.683 172.912C156.679 172.625 157.916 173.363 157.953 174.455C157.973 175.426 157.276 176.192 156.729 176.923C154.139 180.002 151.651 183.243 148.419 185.684C146.966 186.723 145.23 187.646 143.384 187.364C141.139 187.229 139.428 185.224 138.99 183.12C138.726 181.415 138.98 179.421 140.306 178.199C141.296 177.336 142.985 178.25 143.032 179.503C143.159 180.207 142.37 180.606 142.32 181.269C142.22 182.124 142.354 183.111 143.019 183.722C143.625 184.196 144.447 184.004 145.08 183.69C146.741 182.867 148.133 181.593 149.336 180.196C151.259 178.013 153.504 176.053 154.9 173.459C155.07 173.174 155.397 173.042 155.683 172.912Z" fill="black"/>
<path d="M110.563 175.704C111.278 175.444 112.245 175.699 112.599 176.422C113.201 177.575 113.498 178.881 113.582 180.173C113.534 181.969 112.874 183.863 111.412 184.982C110.011 186.101 108.077 186.359 106.375 185.901C103.324 185.119 100.745 183.15 98.4595 181.053C97.5447 180.164 96.5028 179.362 95.8263 178.266C95.1408 177.074 96.4824 175.469 97.7694 175.909C98.9634 176.217 99.5536 177.415 100.403 178.202C102.316 179.993 104.409 181.75 106.956 182.523C107.696 182.648 108.62 182.938 109.251 182.368C110.093 181.52 110.438 180.16 110.023 179.025C109.841 178.482 109.571 177.972 109.464 177.411C109.36 176.661 109.968 176.048 110.563 175.704Z" fill="black"/>
<path d="M133.673 177.513C134.57 177.19 135.768 177.596 136.086 178.553C136.207 178.99 136.222 179.544 135.907 179.911C134.674 181.233 134.071 183.043 132.688 184.241C131.367 185.404 129.853 186.363 128.23 187.038C126.387 187.573 124.357 187.658 122.539 186.967C121.252 186.473 119.749 186.106 118.905 184.918C118.145 183.781 119.425 182.14 120.703 182.423C121.456 182.662 122.049 183.236 122.784 183.523C124.426 184.276 126.421 184.273 128.017 183.4C129.542 182.584 130.838 181.363 131.814 179.936C132.364 179.084 132.634 177.915 133.673 177.513Z" fill="black"/>
<path d="M122.36 2.66514C122.97 2.39392 123.617 2.21387 124.285 2.15462C123.67 2.41671 123.02 2.57169 122.36 2.66514Z" fill="#403201"/>
<path d="M117.293 8.3629C123.263 5.40006 129.946 4.02348 136.588 3.98474C141.527 3.97334 146.444 4.90777 151.1 6.53961C151.94 6.84273 152.648 7.41935 153.495 7.71335C157.701 9.37026 161.165 12.3878 164.354 15.5261C166.513 18.2428 168.824 20.9002 170.374 24.034C172.646 27.7786 174.219 31.906 175.397 36.1155C175.919 38.0186 176.616 39.8852 176.848 41.8543C177.461 44.8536 177.926 47.8871 178.251 50.9297C178.33 54.6538 178.834 58.371 178.591 62.0973C178.31 67.4304 177.869 72.7681 176.864 78.0192C176.398 80.1433 176.099 82.3039 175.57 84.4143C174.501 88.1908 173.509 91.9992 172.09 95.664C171.847 96.5642 171.225 97.2776 170.828 98.1049C168.994 101.767 168.047 105.868 168.027 109.963C168.134 112.532 168.547 115.08 168.973 117.612C169.902 121.092 171.071 124.504 172.006 127.982C172.135 129.026 172.83 129.855 173.243 130.794C177.204 139.056 178.525 148.644 176.589 157.635C175.159 164.379 171.952 170.681 167.63 176.016C167.171 176.547 166.817 177.156 166.365 177.691C164.431 179.633 162.618 181.707 160.454 183.403C158.273 185.123 156.055 186.83 153.601 188.145C151.962 189.235 150.119 189.946 148.401 190.892C146.119 191.899 143.75 192.69 141.366 193.41C139.475 193.793 137.596 194.224 135.707 194.62C131.065 195.058 126.339 195.409 121.717 194.582L121.565 194.475C121.22 194.187 120.746 194.279 120.333 194.269C116.921 193.896 113.584 192.827 110.472 191.382C108.574 190.602 106.615 189.896 104.931 188.695C102.847 187.423 100.745 186.144 98.9044 184.526C96.9908 182.876 95.1613 181.128 93.3521 179.364C90.7053 176.178 88.2742 172.805 86.17 169.233C85.1576 167.435 84.5265 165.457 83.5936 163.62C82.8513 162.257 82.5721 160.712 82.0023 159.278C81.4348 157.786 81.1375 156.208 80.8696 154.64C80.3657 152.701 80.0933 150.711 79.8776 148.724C79.8413 147.201 79.3941 145.704 79.5689 144.177C79.721 142.882 79.3624 141.586 79.578 140.291C79.9548 137.324 80.1114 134.311 80.8787 131.409C81.3281 127.161 83.1827 123.262 84.5424 119.264C86.2176 114.401 87.482 109.412 88.8644 104.461C89.3842 102.014 89.559 99.5088 89.845 97.0292C90.2105 94.5199 90.358 91.9559 90.0697 89.4375C89.7588 87.3635 89.5522 85.2758 89.4296 83.1859C88.9915 80.6447 88.6079 78.0921 88.2742 75.5349C87.8951 73.5772 87.7135 71.5875 87.4956 69.607C87.3844 66.2749 87.1347 62.9429 87.2323 59.6063C87.2754 57.767 87.5524 55.9483 87.7567 54.1228C88.1539 50.7269 88.6783 47.331 89.6838 44.0559C90.585 40.3456 92.1399 36.8494 93.6449 33.3556C94.1307 32.0246 94.9933 30.8804 95.5335 29.5722C97.0953 26.6709 99.0883 24.0386 101.068 21.4153C103.885 17.7938 107.455 14.8675 111.042 12.0528C112.946 10.5372 115.2 9.57538 117.293 8.3629ZM134.611 9.0489C133.714 9.58677 133.149 10.5258 132.552 11.3599C131.698 12.4949 132.974 14.243 134.304 13.933C135.183 13.7325 135.637 12.871 136.166 12.2237C136.579 11.6608 137.253 11.1502 137.167 10.3708C137.155 9.13095 135.601 8.57257 134.611 9.0489ZM140.558 9.62096C139.977 9.94231 139.478 10.5805 139.621 11.2824C139.923 13.0761 141.107 14.6441 141.092 16.5084C141.13 18.4297 141.205 20.588 139.954 22.1857C138.928 23.5486 137.058 23.9201 135.458 23.6466C132.827 23.1953 130.523 21.5361 128.888 19.4621C128.096 18.5026 126.419 18.8377 125.987 19.9818C125.574 20.8433 126.144 21.7298 126.727 22.3384C128.822 24.5924 131.58 26.2584 134.574 26.9718C137.192 27.6031 140.068 26.7416 142.043 24.9411C143.45 23.4802 144.292 21.486 144.428 19.4644C144.664 17.0121 144.571 14.4071 143.457 12.1622C143.039 11.3007 142.964 10.1565 142.072 9.61868C141.591 9.46598 141.033 9.43863 140.558 9.62096ZM122.135 12.2898C121.538 12.6089 121.263 13.2744 121.018 13.8692C120.38 15.4737 119.463 16.9528 118.446 18.3408C117.227 19.7653 116.054 21.3196 114.406 22.27C113.741 22.6301 112.878 23.0016 112.161 22.5731C111.335 22.017 111.228 20.9481 110.994 20.0661C110.656 19.2821 109.678 18.9311 108.885 19.1248C108.213 19.4006 107.805 20.1254 107.812 20.8387C107.794 22.1583 108.404 23.405 109.169 24.4465C110.193 25.8208 112.054 26.2972 113.686 26.0465C115.827 25.7707 117.598 24.3668 119.078 22.8831C121.071 20.9276 122.469 18.4821 123.824 16.064C124.244 15.223 124.798 14.3205 124.632 13.3427C124.382 12.283 123.05 11.957 122.135 12.2898ZM154.373 12.226C153.878 12.6043 153.308 13.0943 153.377 13.7894C153.377 14.6418 154.155 15.1501 154.775 15.5831C155.939 16.3557 156.534 17.7209 156.87 19.0337C157.12 20.082 157.17 21.3994 156.273 22.1629C155.099 23.136 153.388 22.9788 152.089 22.3475C151.345 21.96 150.369 22.1378 149.81 22.7623C149.184 23.6466 149.509 25.1075 150.55 25.5177C152.396 26.3177 154.512 26.4202 156.459 25.9599C157.637 25.5314 158.686 24.7223 159.408 23.6899C160.279 22.3953 160.375 20.7658 160.334 19.2502C160.357 18.1289 159.764 17.1397 159.421 16.1073C158.75 14.6145 157.551 13.4271 156.255 12.4676C155.735 12.0642 154.959 11.8773 154.373 12.226ZM159.86 28.7746C159.149 29.1802 158.473 30.158 158.931 30.983C159.353 31.7533 160.1 32.257 160.756 32.8109C162.595 34.2832 163.789 36.3685 164.912 38.3992C165.748 39.8373 165.938 41.6355 165.444 43.2218C165.183 44.1494 164.159 44.5209 163.753 45.3528C163.267 46.5379 164.545 47.9897 165.775 47.6341C167.31 46.9778 168.367 45.4758 168.79 43.8873C169.391 41.6834 168.939 39.3405 168.163 37.2437C167.026 35.074 165.734 32.9362 163.95 31.2337C163.056 30.3745 162.318 29.2988 161.185 28.7335C160.768 28.5125 160.286 28.6743 159.86 28.7746ZM127.413 30.6115C126.237 30.7619 125.175 31.3089 124.087 31.7442C122.725 32.4599 121.661 33.661 120.896 34.9851C120.551 35.6005 120.192 36.2979 120.344 37.0272C120.603 38.1918 122.26 38.7228 123.132 37.9069C123.645 37.3713 123.713 36.5645 124.185 35.9993C125.284 34.7139 126.936 33.9527 128.623 33.9299C130.893 33.8843 133.297 34.1806 135.231 35.4706C136.232 36.1953 137.925 35.5982 138.095 34.3287C138.263 33.3989 137.478 32.6741 136.713 32.3277C133.819 31.0263 130.613 29.9984 127.413 30.6115ZM167.53 54.2458C167.08 54.6105 166.547 55.0663 166.592 55.7113C166.654 56.5614 167.039 57.3545 167.073 58.2115C167.142 59.6587 167.294 61.1036 167.253 62.5554C167.153 65.6596 166.549 68.7409 165.534 71.6741C165.085 72.9459 164.665 74.2518 163.875 75.3595C163.53 75.9019 163.031 76.3349 162.74 76.9138C162.316 78.1058 163.53 79.4687 164.756 79.1929C165.707 79.063 165.986 78.0032 166.59 77.4038C167.782 75.5737 168.588 73.5134 169.264 71.4417C170.245 68.4401 170.465 65.2607 170.581 62.1247C170.705 59.8319 170.46 57.5186 169.931 55.2874C169.725 54.2367 168.422 53.7535 167.53 54.2458ZM97.8307 66.9723C96.9341 67.5193 96.4824 68.9916 97.4176 69.7255C98.321 70.6189 100.117 70.2679 100.344 68.9301C100.661 67.549 99.0678 66.4208 97.8307 66.9723ZM92.5917 69.4406C92.1694 69.7506 91.6564 70.0696 91.5293 70.6166C91.2774 71.738 92.3624 72.8729 93.4769 72.7704C94.4871 72.6108 95.2498 71.4759 94.8911 70.4822C94.6346 69.55 93.4452 68.9893 92.5917 69.4406ZM145.066 69.9716C144.365 70.3067 143.602 71.0269 143.729 71.8861C143.886 72.7772 144.758 73.5453 145.679 73.4496C146.878 73.2194 147.677 71.6605 146.989 70.5893C146.596 69.9466 145.747 69.8053 145.066 69.9716ZM98.4935 73.5384C97.9147 73.9646 97.2632 74.5549 97.3586 75.3526C97.522 76.2597 98.4323 77.0779 99.3766 76.9343C100.323 76.6449 101.208 75.6831 100.927 74.6279C100.711 73.5704 99.4038 73.1715 98.4935 73.5384ZM150.691 74.9241C149.715 75.3822 149.356 76.8409 150.199 77.6066C151.084 78.671 153.075 78.3428 153.377 76.9252C153.717 75.4734 151.965 74.27 150.691 74.9241ZM145.005 76.2643C143.693 76.4443 143.423 78.206 144.17 79.0995C144.932 80.0248 146.614 79.6875 147.102 78.6391C147.649 77.4061 146.301 75.8472 145.005 76.2643ZM161.369 87.4547C160.064 88.1908 160.518 89.8363 160.152 91.0534C159.09 95.6708 157.313 100.291 154.055 103.81C153.052 104.862 151.901 105.929 150.435 106.23C149.472 106.433 148.496 105.97 147.897 105.225C146.726 103.796 146.174 101.959 145.872 100.161C145.631 98.8046 145.836 97.4257 145.729 96.0628C145.538 94.6999 143.389 94.1415 142.653 95.3563C142.22 96.1996 142.388 97.1842 142.385 98.0958C142.365 101.683 143.418 105.455 145.947 108.083C147.354 109.594 149.62 109.886 151.536 109.368C154.069 108.769 156.101 106.962 157.671 104.956C160.218 101.683 161.78 97.7653 162.956 93.8156C163.403 92.3958 163.496 90.8984 163.834 89.4511C164.272 88.0837 162.627 86.7641 161.369 87.4547ZM97.1361 89.5059C96.7411 89.7634 96.3371 90.1053 96.2236 90.5884C95.9421 91.7827 96.1351 93.0179 96.0783 94.2327C95.9807 96.4343 96.0828 98.6382 96.1192 100.84C96.1192 102.159 96.5664 103.42 96.6798 104.728C96.7775 105.817 97.1997 106.836 97.6332 107.83C98.3891 109.831 99.9213 111.465 101.699 112.607C102.856 113.322 104.511 112.185 104.293 110.843C104.164 109.908 103.14 109.626 102.518 109.088C101.508 108.165 100.827 106.92 100.441 105.615C99.7057 103.743 99.6739 101.708 99.4605 99.7345C99.397 97.8246 99.338 95.9101 99.3993 94.0002C99.4242 92.8516 99.6875 91.7097 99.5831 90.5611C99.3697 89.5013 98.0327 89.1777 97.1361 89.5059ZM96.2826 119.654C94.3168 121.602 93.1364 124.201 92.3851 126.835C92.1626 127.679 91.9879 128.659 92.4691 129.447C93.1614 130.603 95.2747 130.224 95.5017 128.887C95.6652 126.703 96.6208 124.622 98.0078 122.952C98.6933 122.134 99.3834 121.217 100.418 120.844C100.963 120.588 101.662 120.458 101.962 119.875C102.282 119.264 101.989 118.578 101.862 117.96C101.252 117.584 100.568 117.133 99.8169 117.37C98.4799 117.831 97.2882 118.665 96.2826 119.654ZM160.731 118.011C160.234 118.371 159.669 118.863 159.723 119.544C159.909 120.711 160.584 121.719 161.017 122.799C161.449 123.888 161.308 125.11 161.716 126.204C162.027 127.091 163.131 127.448 163.968 127.168C164.663 126.844 165.196 126.003 164.937 125.231C164.69 124.303 164.67 123.332 164.42 122.407C164.082 121.092 163.444 119.886 162.883 118.66C162.529 117.849 161.473 117.646 160.731 118.011ZM145.112 121.055C144.662 121.416 144.151 121.849 144.102 122.466C144.011 123.15 144.481 123.708 144.828 124.244C145.588 125.311 145.983 126.573 146.535 127.749C147.091 128.896 147.291 130.17 147.761 131.348C148.183 132.374 149.722 132.724 150.498 131.897C151.052 131.425 150.968 130.612 150.816 129.978C150.417 128.326 149.926 126.673 149.123 125.169C148.448 123.836 147.845 122.434 146.837 121.315C146.401 120.85 145.668 120.834 145.112 121.055ZM114.658 121.685C113.986 122.083 113.607 122.794 113.516 123.56C112.969 126.824 112.751 130.138 112.846 133.447C112.769 134.951 113.144 136.421 113.339 137.903C113.809 139.58 114.465 141.203 115.194 142.784C115.489 143.443 116.086 144.033 116.851 144.029C118.088 144.125 119.034 142.538 118.374 141.488C117.591 140.113 117.041 138.616 116.703 137.073C115.856 133.176 116.022 129.128 116.635 125.213C116.719 124.445 117.105 123.738 117.144 122.968C117.084 121.805 115.609 121.215 114.658 121.685ZM105.512 123.485C104.913 123.786 104.38 124.522 104.554 125.222C104.904 127.61 104.961 130.113 104.003 132.378C103.542 133.552 102.865 134.744 101.719 135.359C100.073 136.253 97.9351 135.856 96.5414 134.666C95.9285 134.14 95.7174 133.199 94.9229 132.886C93.6063 132.387 92.1649 134.014 92.7415 135.275C93.3725 136.553 94.4848 137.552 95.7378 138.201C97.8307 139.275 100.387 139.664 102.623 138.807C104.545 138.06 105.85 136.3 106.756 134.514C107.775 132.351 108.411 129.921 108.123 127.517C108.027 126.359 108.168 125.101 107.578 124.053C107.176 123.332 106.223 123.234 105.512 123.485ZM132.3 125.06C131.594 125.409 131.285 126.311 131.406 127.054C131.655 127.658 132.28 128.02 132.52 128.638C133.09 129.971 133.791 131.27 134.034 132.718C134.227 133.951 134.654 135.136 134.742 136.387C134.87 137.704 135.233 139.047 134.899 140.362C134.597 141.526 133.603 142.406 132.486 142.769C131.031 143.256 129.415 143.208 127.962 142.732C127.295 142.5 126.852 141.848 126.158 141.681C124.836 141.551 123.799 143.236 124.541 144.362C125.338 145.572 126.857 145.987 128.185 146.313C130.289 146.625 132.588 146.755 134.531 145.727C137.065 144.425 138.522 141.499 138.418 138.696C138.075 134.087 137.015 129.424 134.563 125.461C134.05 124.786 133.024 124.789 132.3 125.06ZM146.837 138.058C146.331 138.32 146.083 138.878 145.936 139.402C145.302 141.918 144.826 144.507 144.971 147.115C145.069 149.904 145.475 152.863 147.186 155.158C148.426 156.904 150.539 158.05 152.696 157.92C155.771 157.703 158.763 156.199 160.722 153.799C161.358 153.043 161.705 151.874 161.144 150.98C160.672 150.226 159.585 150.068 158.865 150.552C158.162 150.935 158.064 151.839 157.476 152.334C156.327 153.346 154.906 154.02 153.42 154.346C152.353 154.602 151.043 154.54 150.246 153.69C149.191 152.523 148.839 150.919 148.582 149.41C148.158 146.121 148.503 142.755 149.42 139.578C149.418 138.349 147.917 137.545 146.837 138.058ZM88.7146 146.039C88.2492 146.333 87.6636 146.705 87.6545 147.324C87.5455 148.619 87.4774 149.925 87.6023 151.222C87.7703 152.895 87.7725 154.602 88.2311 156.231C88.483 157.063 89.1504 157.861 90.0629 157.936C91.2183 158.111 92.2058 156.687 91.6791 155.655C90.9959 154.107 91.064 152.384 90.8847 150.734C90.753 149.524 91.1412 148.323 90.9981 147.117C90.7507 146.16 89.5817 145.791 88.7146 146.039ZM168.469 147.204C168.256 148.138 168.653 149.061 168.908 149.945C169.639 152.195 169.496 154.604 169.307 156.929C169.214 158.622 168.374 160.272 167.044 161.32C166.318 161.908 165.273 161.662 164.497 162.132C163.432 162.854 163.723 164.801 164.96 165.165C166.694 165.457 168.465 164.714 169.718 163.527C171.298 162.025 172.165 159.928 172.648 157.836C172.907 155.418 172.993 152.94 172.474 150.549C172.215 149.369 172.163 148.12 171.632 147.019C171.389 146.438 170.728 146.308 170.217 146.071C169.575 146.299 168.678 146.429 168.469 147.204ZM103.701 149.223C103.186 149.542 102.636 150.096 102.716 150.757C103.669 154.025 104.003 157.507 103.494 160.887C103.183 162.442 102.781 164.183 101.451 165.19C100.121 165.972 98.5026 165.505 97.1588 164.997C95.8876 164.438 94.5075 163.716 93.9128 162.38C93.4542 161.434 92.0696 161.056 91.2683 161.792C90.3875 162.542 90.644 163.941 91.2864 164.766C92.9026 166.863 95.3247 168.281 97.8943 168.835C99.3902 169.192 101.015 169.151 102.402 168.436C104.743 167.321 106.112 164.853 106.668 162.403C107.548 158.321 107.256 154.025 106.028 150.05C105.726 149.095 104.532 148.806 103.701 149.223ZM113.255 154.465C112.71 154.811 112.059 155.276 112.156 156.022C112.27 157.489 112.933 158.845 113.121 160.306C113.307 161.234 113.484 162.501 114.565 162.781C115.507 163.151 116.587 162.462 116.758 161.494C116.823 160.388 116.349 159.354 116.136 158.287C115.856 157.172 115.766 155.96 115.121 154.98C114.737 154.381 113.882 154.123 113.255 154.465ZM138.25 158.608C137.895 158.836 137.562 159.126 137.342 159.49C137.069 160.685 136.84 161.892 136.481 163.066C135.562 165.879 133.46 168.256 130.843 169.596C128.745 170.551 126.389 170.735 124.115 170.656C122.73 170.567 121.291 170.464 120.04 169.81C119.52 169.569 119.009 169.27 118.433 169.197C117.275 169.138 116.322 170.478 116.771 171.556C117.155 172.49 118.181 172.878 119.066 173.172C121.35 173.856 123.751 174.036 126.126 174.04C128.103 173.942 130.123 173.68 131.907 172.757C133.619 172.119 135.072 170.966 136.37 169.703C137.176 168.876 137.762 167.868 138.438 166.938C139.73 164.89 140.156 162.453 140.653 160.122C140.735 158.891 139.278 158.228 138.25 158.608ZM155.683 172.912C155.397 173.042 155.07 173.174 154.9 173.459C153.504 176.053 151.259 178.013 149.336 180.196C148.133 181.593 146.741 182.867 145.08 183.69C144.447 184.004 143.625 184.196 143.019 183.722C142.354 183.111 142.22 182.124 142.32 181.269C142.37 180.606 143.159 180.207 143.032 179.503C142.985 178.25 141.296 177.336 140.306 178.199C138.98 179.421 138.726 181.415 138.99 183.12C139.428 185.224 141.139 187.229 143.384 187.364C145.23 187.646 146.966 186.723 148.419 185.684C151.651 183.243 154.139 180.002 156.729 176.923C157.276 176.192 157.973 175.426 157.953 174.455C157.916 173.363 156.679 172.625 155.683 172.912ZM110.563 175.704C109.968 176.048 109.36 176.661 109.464 177.411C109.571 177.972 109.841 178.482 110.023 179.025C110.438 180.16 110.093 181.52 109.251 182.368C108.62 182.938 107.696 182.648 106.956 182.523C104.409 181.75 102.316 179.993 100.403 178.202C99.5536 177.415 98.9634 176.217 97.7694 175.909C96.4824 175.469 95.1408 177.074 95.8263 178.266C96.5028 179.362 97.5447 180.164 98.4595 181.053C100.745 183.15 103.324 185.119 106.375 185.901C108.077 186.359 110.011 186.101 111.412 184.982C112.874 183.863 113.534 181.969 113.582 180.173C113.498 178.881 113.201 177.575 112.599 176.422C112.245 175.699 111.278 175.444 110.563 175.704ZM133.673 177.513C132.634 177.915 132.364 179.084 131.814 179.936C130.838 181.363 129.542 182.584 128.017 183.4C126.421 184.273 124.426 184.276 122.784 183.523C122.049 183.236 121.456 182.662 120.703 182.423C119.425 182.14 118.145 183.781 118.905 184.918C119.749 186.106 121.252 186.473 122.539 186.967C124.357 187.658 126.387 187.573 128.23 187.038C129.853 186.363 131.367 185.404 132.688 184.241C134.071 183.043 134.674 181.233 135.907 179.911C136.222 179.544 136.207 178.99 136.086 178.553C135.768 177.596 134.57 177.19 133.673 177.513Z" fill="#FFCA05"/>
<path d="M171.302 107.67C171 107.998 170.878 108.575 171.346 108.826C171.389 108.438 171.373 108.051 171.302 107.67Z" fill="#3F3201"/>
<path d="M121.565 194.475C121.22 194.187 120.746 194.279 120.333 194.269C120.421 194.696 121.241 194.682 121.565 194.475Z" fill="#4F3E01"/>
<path d="M140.023 32.3087C142.005 30.878 144.562 30.3692 146.96 30.7418C148.801 31.0047 150.536 31.8595 151.91 33.1071C153.447 34.4835 154.546 36.2794 155.377 38.1519C156.14 39.9051 156.664 41.7563 157.036 43.6299C157.955 48.4372 157.96 53.3861 157.397 58.2371C157.116 60.759 156.531 63.2318 155.999 65.7079C156.728 66.3722 157.452 67.0417 158.144 67.7443C158.342 67.9402 158.509 68.1637 158.654 68.4011V69.8872C158.441 70.3684 158.019 70.7516 157.512 70.8953C156.902 71.0763 156.201 70.9081 155.752 70.4556C154.981 69.6966 154.245 68.8876 153.341 68.2819C150.438 66.1774 147.281 64.2208 143.71 63.5384C141.065 63.0157 138.297 63.449 135.843 64.5242C134.743 64.95 133.764 65.6174 132.782 66.2593C131.804 66.8959 130.343 66.2721 130.118 65.1299C129.945 64.4347 130.231 63.6438 130.826 63.2414C131.57 62.7326 132.333 62.2514 133.123 61.815C132.724 57.8858 132.575 53.9227 132.887 49.9818C133.186 46.2677 133.802 42.5409 135.17 39.0588C136.204 36.4678 137.716 33.9534 140.023 32.3087ZM142.114 35.2628C140.501 36.3901 139.466 38.1433 138.705 39.92C137.355 43.1774 136.771 46.6967 136.485 50.1937C136.218 53.5969 136.295 57.0204 136.612 60.4183C137.989 60.0032 139.419 59.7722 140.855 59.7157C140.54 58.02 140.372 56.2987 140.324 54.5752C140.334 54.2409 140.711 54.126 140.981 54.061C142.675 53.7502 144.446 53.9258 146.104 53.3936C146.912 53.1434 147.735 52.6495 148.021 51.8064C148.369 50.8899 147.914 49.9116 147.287 49.2398C145.742 47.5558 143.585 46.6446 141.827 45.2234C141.464 44.9073 141.014 44.4698 141.171 43.9396C141.881 40.5502 142.982 37.1927 144.83 34.244C143.862 34.3686 142.91 34.6879 142.114 35.2628Z" fill="black"/>
<path d="M108.945 30.9813C111.539 30.5267 114.339 31.1133 116.45 32.7143C118.47 34.2217 119.8 36.4742 120.664 38.8065C121.534 41.1676 121.961 43.6703 122.161 46.1719C122.356 48.7353 122.302 51.3135 122.066 53.8726C125.127 54.8403 127.739 57.3046 128.631 60.4194C128.747 60.9037 128.529 61.3785 128.249 61.7607C128.179 61.8001 128.111 61.8416 128.044 61.8852C127.522 62.3089 126.691 62.277 126.199 61.8203C125.899 61.584 125.769 61.2146 125.644 60.8686C124.99 59.1154 123.553 57.7134 121.85 56.9704C119.921 56.1262 117.674 56.0219 115.682 56.7117C114.199 57.2248 112.879 58.2574 112.119 59.6434C111.253 61.1965 111.085 63.0445 111.283 64.786C111.496 66.6787 112.299 68.5342 113.665 69.8797C114.84 71.0816 116.434 71.9108 118.12 72.0396C119.644 72.1088 121.233 71.781 122.487 70.8783C123.552 70.148 124.301 69.0526 124.849 67.9008C125.29 66.9811 126.701 66.8725 127.301 67.6879C127.642 68.1105 127.734 68.7141 127.511 69.2134C127.053 70.2172 126.451 71.1582 125.712 71.9779C124.433 73.4118 122.684 74.3869 120.812 74.7967H116.47C114.073 74.2102 111.926 72.7252 110.476 70.7346C109.009 68.7556 108.295 66.2998 108.221 63.8546C107.361 63.5597 106.473 63.3479 105.573 63.2265C103.099 62.8891 100.581 63.3968 98.2891 64.3315C97.5805 64.6785 96.8718 65.0256 96.193 65.429C95.3769 65.8921 94.2416 65.5642 93.7873 64.7467C93.3042 63.9547 93.567 62.8007 94.3704 62.3249C95.1609 61.8554 95.9717 61.4179 96.8133 61.0475C96.7186 57.4952 96.8261 53.9312 97.2964 50.4055C97.7316 47.1151 98.4306 43.8438 99.5989 40.7312C100.599 38.1199 101.95 35.5736 103.979 33.6149C105.343 32.2949 107.064 31.3113 108.945 30.9813ZM106.931 35.8174C105.484 36.983 104.5 38.6107 103.705 40.2649C102.621 42.577 101.928 45.051 101.415 47.5462C100.611 51.6116 100.31 55.7685 100.402 59.9095C101.806 59.6072 103.248 59.4667 104.685 59.538C104.495 57.8198 104.454 56.0858 104.538 54.3602C104.543 54.1803 104.693 54.0483 104.853 53.994C105.282 53.8354 105.747 53.8492 106.197 53.8311C107.544 53.8247 108.908 53.9184 110.238 53.6501C110.777 53.532 111.32 53.3542 111.762 53.0114C112.411 52.5228 112.748 51.6361 112.535 50.8441C112.303 49.9414 111.655 49.2228 110.998 48.5948C109.68 47.3386 108.098 46.404 106.763 45.1702C106.467 44.8594 106.105 44.4942 106.129 44.0333C106.335 43.2051 106.608 42.3929 106.886 41.586C107.796 39.0641 108.93 36.5902 110.545 34.4367C109.227 34.4633 107.945 34.9849 106.931 35.8174Z" fill="black"/>
<path d="M142.114 35.2628C142.91 34.6879 143.862 34.3686 144.83 34.244C142.982 37.1927 141.881 40.5502 141.171 43.9396C141.014 44.4698 141.464 44.9073 141.827 45.2234C143.585 46.6446 145.742 47.5558 147.287 49.2398C147.914 49.9116 148.369 50.8899 148.021 51.8064C147.735 52.6495 146.912 53.1434 146.104 53.3936C144.446 53.9258 142.675 53.7502 140.981 54.061C140.711 54.126 140.334 54.2409 140.324 54.5752C140.372 56.2987 140.54 58.02 140.855 59.7157C139.419 59.7722 137.989 60.0032 136.612 60.4183C136.295 57.0204 136.218 53.5969 136.485 50.1937C136.771 46.6967 137.355 43.1774 138.705 39.92C139.466 38.1433 140.501 36.3901 142.114 35.2628Z" fill="white"/>
<path d="M106.931 35.8174C107.945 34.9849 109.227 34.4633 110.545 34.4367C108.93 36.5902 107.796 39.0641 106.886 41.586C106.608 42.3929 106.335 43.2051 106.129 44.0333C106.105 44.4942 106.467 44.8594 106.763 45.1702C108.098 46.404 109.68 47.3386 110.998 48.5948C111.655 49.2228 112.303 49.9414 112.535 50.8441C112.748 51.6361 112.411 52.5228 111.762 53.0114C111.32 53.3542 110.777 53.532 110.238 53.6501C108.908 53.9184 107.544 53.8247 106.197 53.8311C105.747 53.8492 105.282 53.8354 104.853 53.994C104.693 54.0483 104.543 54.1803 104.538 54.3602C104.454 56.0858 104.495 57.8198 104.685 59.538C103.248 59.4667 101.806 59.6072 100.402 59.9095C100.31 55.7685 100.611 51.6116 101.415 47.5462C101.928 45.051 102.621 42.577 103.705 40.2649C104.5 38.6107 105.484 36.983 106.931 35.8174Z" fill="white"/>
<path d="M115.682 56.7117C117.674 56.0219 119.921 56.1262 121.85 56.9704C123.553 57.7134 124.99 59.1154 125.644 60.8686C125.769 61.2146 125.899 61.584 126.199 61.8203C126.691 62.277 127.522 62.3089 128.044 61.8852C128.081 61.8969 128.156 61.9214 128.193 61.9331C128.541 63.9089 128.286 65.9932 127.409 67.8018L127.301 67.6879C126.701 66.8725 125.29 66.9811 124.849 67.9008C124.301 69.0526 123.552 70.148 122.487 70.8783C121.233 71.781 119.644 72.1088 118.12 72.0396C116.434 71.9108 114.84 71.0816 113.665 69.8797C112.299 68.5342 111.496 66.6787 111.283 64.786C111.085 63.0445 111.253 61.1965 112.119 59.6434C112.879 58.2574 114.199 57.2248 115.682 56.7117Z" fill="#FFCA05"/>
<path d="M110.086 78.7767C110.547 78.2101 111.404 78.0286 112.048 78.3737C112.683 78.6849 113.056 79.451 112.9 80.1485C112.59 81.6068 111.735 82.8984 110.629 83.8713C112.219 85.2199 113.933 86.4334 115.801 87.3578C118.833 88.8878 122.277 89.5843 125.658 89.2762C129.484 88.9902 133.133 87.5034 136.343 85.4299C134.879 84.1077 133.894 82.1461 134.045 80.1327C134.093 79.297 134.875 78.6047 135.701 78.6522C136.572 78.6543 137.332 79.4764 137.264 80.3564C137.217 81.4844 137.87 82.5439 138.756 83.1886C140.035 84.1457 141.899 84.0898 143.186 83.1749C143.714 82.8351 144.039 82.1935 144.688 82.0521C145.539 81.7947 146.481 82.4046 146.674 83.2635V84.0085C146.6 84.2438 146.5 84.4749 146.34 84.6638C144.891 86.3764 142.612 87.2934 140.393 87.1383C140.343 89.1411 140.093 91.1334 139.759 93.1077C139.081 96.9835 138.003 100.819 136.24 104.343C134.776 107.222 132.795 109.93 130.092 111.734C128.228 112.996 126.039 113.721 123.807 113.913H121.73C119.15 113.759 116.629 112.783 114.63 111.126C111.883 108.882 110.1 105.672 108.889 102.369C107.651 98.9589 106.954 95.369 106.57 91.7644C106.357 89.731 106.241 87.6849 106.273 85.6399C105.106 85.756 103.929 85.6926 102.77 85.5375C101.921 85.4552 101.248 84.5878 101.374 83.7352C101.448 82.9016 102.245 82.2189 103.075 82.3022C104.393 82.4405 105.763 82.5776 107.049 82.1651C108.101 81.8485 109.057 81.1193 109.523 80.1C109.734 79.6684 109.761 79.1492 110.086 78.7767ZM109.464 87.1879C109.442 87.476 109.454 87.7662 109.478 88.0542C109.563 87.8949 109.607 87.7197 109.624 87.5414C109.649 87.4116 109.703 87.0676 109.464 87.1879ZM131.926 91.2389C128.3 92.5189 124.358 92.9431 120.558 92.3205C117.784 91.8657 115.133 90.8126 112.707 89.3996C112.668 90.0855 112.632 90.7714 112.59 91.4573C115.459 92.446 118.434 93.1066 121.429 93.572C126.352 94.3264 131.371 94.3919 136.318 93.8284C136.66 92.1727 136.908 90.4971 137.058 88.8119C135.427 89.7795 133.716 90.6163 131.926 91.2389ZM110.027 93.4348C110.437 96.1794 111.042 98.905 112.015 101.505C113.653 100.367 115.62 99.6986 117.616 99.7049C119.78 99.6743 121.897 100.355 123.791 101.374C125.373 99.9761 127.246 98.886 129.287 98.3447C131.206 97.8445 133.248 97.9363 135.15 98.4703C135.268 98.0408 135.402 97.6166 135.526 97.1893C127.58 97.9511 119.467 97.128 111.863 94.6567C111.141 94.4531 110.519 93.9972 110.027 93.4348ZM126.313 103.493C125.863 103.879 125.392 104.26 125.065 104.766C124.098 106.262 123.287 107.853 122.477 109.439C122.095 110.127 121.177 110.417 120.468 110.094C119.656 109.771 119.247 108.728 119.624 107.932C120.278 106.586 120.993 105.27 121.74 103.975C120.485 103.377 119.118 102.96 117.72 102.963C116.161 102.954 114.596 103.518 113.417 104.553C114.214 105.97 115.176 107.319 116.413 108.379C117.839 109.629 119.646 110.433 121.528 110.619C124.06 110.906 126.693 110.228 128.742 108.689C131.152 106.904 132.775 104.26 133.967 101.538C133.202 101.335 132.405 101.25 131.615 101.283C129.655 101.35 127.824 102.282 126.313 103.493Z" fill="black"/>
<path d="M109.464 87.1879C109.703 87.0676 109.649 87.4116 109.624 87.5414C109.607 87.7197 109.563 87.8949 109.478 88.0542C109.454 87.7662 109.442 87.476 109.464 87.1879Z" fill="#43161D"/>
<path d="M131.926 91.2389C133.716 90.6163 135.427 89.7795 137.058 88.8119C136.908 90.4971 136.66 92.1727 136.318 93.8284C131.371 94.3919 126.352 94.3264 121.429 93.572C118.434 93.1066 115.459 92.446 112.59 91.4573C112.632 90.7714 112.668 90.0855 112.707 89.3996C115.133 90.8126 117.784 91.8657 120.558 92.3205C124.358 92.9431 128.3 92.5189 131.926 91.2389Z" fill="#FFF8F5"/>
<path d="M110.027 93.4348C110.519 93.9972 111.141 94.4531 111.863 94.6567C119.467 97.128 127.58 97.9511 135.526 97.1893C135.402 97.6166 135.268 98.0408 135.15 98.4703C133.248 97.9363 131.206 97.8445 129.287 98.3447C127.246 98.886 125.373 99.9761 123.791 101.374C121.897 100.355 119.78 99.6743 117.616 99.7049C115.62 99.6986 113.653 100.367 112.015 101.505C111.042 98.905 110.437 96.1794 110.027 93.4348Z" fill="#C34155"/>
<path d="M126.313 103.493C127.824 102.282 129.655 101.35 131.615 101.283C132.405 101.25 133.202 101.335 133.967 101.538C132.775 104.26 131.152 106.904 128.742 108.689C126.693 110.228 124.06 110.906 121.528 110.619C119.646 110.433 117.839 109.629 116.413 108.379C115.176 107.319 114.214 105.97 113.417 104.553C114.596 103.518 116.161 102.954 117.72 102.963C119.118 102.96 120.485 103.377 121.74 103.975C120.993 105.27 120.278 106.586 119.624 107.932C119.247 108.728 119.656 109.771 120.468 110.094C121.177 110.417 122.095 110.127 122.477 109.439C123.287 107.853 124.098 106.262 125.065 104.766C125.392 104.26 125.863 103.879 126.313 103.493Z" fill="#F7B5C4"/>
<path d="M213.48 80.4468C215.309 79.9423 217.342 80.2562 218.932 81.286C220.424 82.2113 221.464 83.7526 221.894 85.4346V88.4511C221.607 89.5181 221.103 90.5073 220.602 91.4872C217.977 96.4786 214.367 100.933 210.184 104.723C204.999 109.416 198.843 113.017 192.252 115.388C187.434 117.126 182.392 118.22 177.298 118.759C176.299 118.876 175.292 118.929 174.291 119.036H168.367C166.168 118.569 164.254 116.958 163.457 114.868C162.704 112.959 162.889 110.711 163.971 108.963C164.88 107.439 166.424 106.309 168.157 105.888C169.228 105.607 170.344 105.717 171.438 105.657C178.773 105.42 186.155 103.885 192.696 100.507C196.499 98.5488 199.985 95.9799 202.952 92.91C205.478 90.2435 207.722 87.2549 209.211 83.8886C210.059 82.2125 211.653 80.928 213.48 80.4468ZM214.771 83.4969C213.492 83.6631 212.372 84.5896 211.938 85.7903C210.619 88.6184 208.806 91.2001 206.77 93.5644C201.781 99.3474 195.133 103.641 187.879 106.071C182.294 107.97 176.388 108.831 170.497 108.937C169.81 108.939 169.097 108.923 168.456 109.208C167.016 109.773 166.076 111.365 166.307 112.89C166.494 114.538 168.009 115.898 169.679 115.918C177.777 115.882 185.936 114.542 193.434 111.44C199.546 108.923 205.175 105.231 209.832 100.557C213.31 97.0261 216.344 93.0018 218.416 88.4952C219.032 87.2584 218.829 85.6683 217.888 84.6477C217.131 83.7759 215.918 83.333 214.771 83.4969Z" fill="black"/>
<path d="M214.771 83.4969C215.918 83.333 217.131 83.7759 217.888 84.6477C218.829 85.6683 219.032 87.2584 218.416 88.4952C216.344 93.0018 213.31 97.0261 209.832 100.557C205.175 105.231 199.546 108.923 193.434 111.44C185.936 114.542 177.777 115.882 169.679 115.918C168.009 115.898 166.494 114.538 166.307 112.89C166.076 111.365 167.016 109.773 168.456 109.208C169.097 108.923 169.81 108.939 170.497 108.937C176.388 108.831 182.294 107.97 187.879 106.071C195.133 103.641 201.781 99.3474 206.77 93.5644C208.806 91.2001 210.619 88.6184 211.938 85.7903C212.372 84.5896 213.492 83.6631 214.771 83.4969Z" fill="#FFCA05"/>
<path d="M212.768 23.1166C214.205 22.2063 216.024 21.9662 217.652 22.4404C219.749 23.0258 221.464 24.5178 222.822 26.1819C224.728 28.5268 225.621 31.5539 225.83 34.5428C226.055 37.5269 225.673 40.5086 225.267 43.4604C226.262 42.3972 227.468 41.4977 228.862 41.0533C230.605 40.5038 232.597 40.6567 234.181 41.6016C235.68 42.5047 236.678 44.0469 237.282 45.6656C237.921 42.9838 238.512 40.2864 238.887 37.5532C238.997 36.8089 239.015 36.0492 239.213 35.3193C239.543 34.047 240.294 32.8871 241.33 32.0843C242.653 31.057 244.372 30.6042 246.029 30.7368C248.164 30.8921 250.193 31.9697 251.596 33.5907C253.072 35.2572 253.866 37.4277 254.203 39.6126V44.79C253.825 48.2244 252.758 51.6099 250.905 54.5295C249.557 56.6666 247.83 58.5779 245.769 60.0341C245.702 63.5868 245.098 67.1623 243.709 70.4426C242.803 72.5606 241.553 74.5544 239.894 76.1563C238.713 77.3521 237.284 78.2636 235.801 79.0257C235.552 80.9311 234.809 82.7767 233.617 84.2807C232.279 86.0045 230.434 87.266 228.471 88.1655C227.188 88.7688 225.815 89.1642 224.417 89.384H220.003C216.402 88.8691 212.94 87.2015 210.389 84.571C208.751 82.8496 207.511 80.6742 207.194 78.2863C206.873 76.0882 207.404 73.8125 208.521 71.9119C206.359 69.1931 204.679 65.9856 204.188 62.5034C203.687 59.1394 204.439 55.6452 206.08 52.6934C207.338 50.4392 209.393 48.5888 211.882 47.8625C211.394 43.3887 210.812 38.9019 209.628 34.5524C208.919 32.2169 208.829 29.6498 209.611 27.3203C210.179 25.63 211.242 24.0603 212.768 23.1166ZM214.716 25.6837C213.746 26.152 213.107 27.1029 212.715 28.0825C212.031 29.8445 212.116 31.8287 212.66 33.617C213.897 38.1266 214.524 42.7807 215.019 47.4252C217.453 47.3524 219.837 48.1575 221.944 49.3426C221.507 47.9592 221.699 46.4839 221.848 45.0695C222.258 41.8214 222.86 38.5686 222.697 35.2799C222.6 33.3016 222.219 31.2947 221.26 29.5458C220.785 28.6678 220.153 27.8865 219.451 27.1853C218.708 26.4841 217.871 25.8319 216.88 25.544C216.175 25.3265 215.379 25.3385 214.716 25.6837ZM243.77 34.3003C242.969 34.6814 242.385 35.4686 242.228 36.3442C241.618 41.8656 240.213 47.258 238.736 52.5978C238.562 53.305 238.25 53.9883 238.24 54.7278C238.021 57.4956 237.37 60.3053 235.868 62.6658C234.837 64.2785 233.251 65.6523 231.322 65.9557C230.97 66.7752 230.543 67.5911 229.885 68.2123C228.764 69.3722 227.117 69.8991 225.534 69.831C223.65 69.7533 221.869 68.9924 220.268 68.0331C217.606 66.3965 215.334 64.1949 213.281 61.8463C212.742 61.2228 212.811 60.1715 213.442 59.6375C214.018 59.0856 214.998 59.0976 215.574 59.6411C217.655 61.9753 219.9 64.2606 222.686 65.7287C223.846 66.3213 225.163 66.8122 226.481 66.5697C227.473 66.3846 228.197 65.5042 228.419 64.5449C228.864 62.9454 228.468 61.2443 227.75 59.7904C226.929 58.0547 225.726 56.5292 224.389 55.1686C222.644 53.4627 220.614 51.9946 218.307 51.1727C216.903 50.6769 215.369 50.444 213.898 50.7665C212.397 50.8346 210.992 51.5991 209.981 52.6982C208.646 54.1591 207.884 56.0621 207.46 57.9806C206.861 60.7043 207.364 63.5916 208.575 66.0752C210.004 69.0664 212.221 71.63 214.775 73.7026C215.502 74.4158 215.288 75.7812 214.371 76.2244C213.836 76.5135 213.14 76.4585 212.664 76.0775C212.007 75.565 211.383 75.0083 210.795 74.4182C210.348 75.5566 210.139 76.8098 210.363 78.0247C210.71 80.114 212.037 81.9011 213.621 83.2307C215.923 85.1444 218.876 86.2363 221.855 86.3306C224.086 86.4107 226.323 85.8229 228.253 84.6976C230.05 83.699 231.626 82.1484 232.303 80.1594C230.855 80.4783 229.383 80.7077 227.899 80.7543C227.202 80.7794 226.525 80.2788 226.347 79.5967C226.063 78.7127 226.728 77.6806 227.642 77.5803C229.958 77.4441 232.303 77.0654 234.436 76.1061C236.96 74.9593 238.968 72.8461 240.234 70.3864C241.831 67.2626 242.496 63.7254 242.588 60.2348C242.632 59.6208 242.451 58.9518 242.778 58.3904C242.994 57.9687 243.427 57.7525 243.81 57.5147C245.456 56.3811 246.848 54.8938 247.958 53.2286C249.729 50.6076 250.73 47.5077 251.054 44.3659C251.268 42.2897 251.289 40.1323 250.601 38.1373C250.122 36.7289 249.23 35.4184 247.951 34.6384C246.725 33.8655 245.092 33.6397 243.77 34.3003ZM228.513 44.7876C229.566 44.8414 230.35 46.0658 229.879 47.0394C228.553 49.198 227.547 51.764 227.952 54.3419C229.863 56.6523 231.493 59.3938 231.76 62.4508C232.828 61.7293 233.501 60.5717 233.994 59.4022C234.619 57.8887 234.927 56.2616 235.068 54.6346C235.243 52.4569 235.18 50.2433 234.699 48.1062C234.424 46.9988 234.048 45.8735 233.306 44.9883C232.789 44.3671 232.012 43.9824 231.209 43.9514C230.24 43.8594 229.285 44.219 228.513 44.7876ZM224.195 50.7904C224.4 50.9684 224.61 51.1416 224.848 51.2706C224.93 50.7892 225.04 50.315 225.16 49.8419C224.983 50.2827 224.624 50.6052 224.195 50.7904Z" fill="black"/>
<path d="M214.716 25.6837C215.379 25.3385 216.175 25.3265 216.88 25.544C217.871 25.8319 218.708 26.4841 219.451 27.1853C220.153 27.8865 220.785 28.6678 221.26 29.5458C222.219 31.2947 222.6 33.3016 222.697 35.2799C222.86 38.5686 222.258 41.8214 221.848 45.0695C221.699 46.4839 221.507 47.9592 221.944 49.3426C219.837 48.1575 217.453 47.3524 215.019 47.4252C214.524 42.7807 213.897 38.1266 212.66 33.617C212.116 31.8287 212.031 29.8445 212.715 28.0825C213.107 27.1029 213.746 26.152 214.716 25.6837Z" fill="white"/>
<path d="M243.77 34.3003C245.092 33.6397 246.725 33.8655 247.951 34.6384C249.23 35.4184 250.122 36.7289 250.601 38.1373C251.289 40.1323 251.268 42.2897 251.054 44.3659C250.73 47.5077 249.729 50.6076 247.958 53.2286C246.848 54.8938 245.456 56.3811 243.81 57.5147C243.427 57.7525 242.994 57.9687 242.778 58.3904C242.451 58.9518 242.632 59.6208 242.588 60.2348C242.496 63.7254 241.831 67.2626 240.234 70.3864C238.968 72.8461 236.96 74.9593 234.436 76.1061C232.303 77.0654 229.958 77.4441 227.642 77.5803C226.728 77.6806 226.063 78.7127 226.347 79.5967C226.525 80.2788 227.202 80.7794 227.899 80.7543C229.383 80.7077 230.855 80.4783 232.303 80.1594C231.626 82.1484 230.05 83.699 228.253 84.6976C226.323 85.8229 224.086 86.4107 221.855 86.3306C218.876 86.2363 215.923 85.1444 213.621 83.2307C212.037 81.9011 210.71 80.114 210.363 78.0247C210.139 76.8098 210.348 75.5566 210.795 74.4182C211.383 75.0083 212.007 75.565 212.664 76.0775C213.14 76.4585 213.836 76.5135 214.371 76.2244C215.288 75.7812 215.502 74.4158 214.775 73.7026C212.221 71.63 210.004 69.0664 208.575 66.0752C207.364 63.5916 206.861 60.7043 207.46 57.9806C207.884 56.0621 208.646 54.1591 209.981 52.6982C210.992 51.5991 212.397 50.8346 213.898 50.7665C215.369 50.444 216.903 50.6769 218.307 51.1727C220.614 51.9946 222.644 53.4627 224.389 55.1686C225.726 56.5292 226.929 58.0547 227.75 59.7904C228.468 61.2443 228.864 62.9454 228.419 64.5449C228.197 65.5042 227.473 66.3846 226.481 66.5697C225.163 66.8122 223.846 66.3213 222.686 65.7287C219.9 64.2606 217.655 61.9753 215.574 59.6411C214.998 59.0976 214.018 59.0856 213.442 59.6375C212.811 60.1715 212.742 61.2228 213.281 61.8463C215.334 64.1949 217.606 66.3965 220.268 68.0331C221.869 68.9924 223.65 69.7533 225.534 69.831C227.117 69.8991 228.764 69.3722 229.885 68.2123C230.543 67.5911 230.97 66.7752 231.322 65.9557C233.251 65.6523 234.837 64.2785 235.868 62.6658C237.37 60.3053 238.021 57.4956 238.24 54.7278C238.25 53.9883 238.562 53.305 238.736 52.5978C240.213 47.258 241.618 41.8656 242.228 36.3442C242.385 35.4686 242.969 34.6814 243.77 34.3003Z" fill="white"/>
<path d="M228.513 44.7876C229.285 44.219 230.24 43.8594 231.209 43.9514C232.012 43.9824 232.789 44.3671 233.306 44.9883C234.048 45.8735 234.424 46.9988 234.699 48.1062C235.18 50.2433 235.243 52.4569 235.068 54.6346C234.927 56.2616 234.619 57.8887 233.994 59.4022C233.501 60.5717 232.828 61.7293 231.76 62.4508C231.493 59.3938 229.863 56.6523 227.952 54.3419C227.547 51.764 228.553 49.198 229.879 47.0394C230.35 46.0658 229.566 44.8414 228.513 44.7876Z" fill="white"/>
<path d="M224.195 50.7904C224.624 50.6052 224.983 50.2827 225.16 49.8419C225.04 50.315 224.93 50.7892 224.848 51.2706C224.61 51.1416 224.4 50.9684 224.195 50.7904Z" fill="white"/>
</svg>
