<svg width="338" height="220" viewBox="0 0 338 220" fill="none" xmlns="http://www.w3.org/2000/svg">
<path d="M279.965 79.5547H280.793C283.38 79.7285 285.882 80.9354 287.596 82.8958C288.916 84.3824 289.775 86.2749 290.004 88.2543C290.309 90.6823 289.668 93.2068 288.266 95.2051C285.093 99.7864 281.53 104.088 277.745 108.17C272.812 113.453 267.434 118.337 261.567 122.558C253.859 128.098 245.214 132.515 235.908 134.539C228.311 136.225 220.329 136.169 212.775 134.27C210.954 133.789 209.048 133.386 207.47 132.293C204.959 130.643 203.351 127.789 203.074 124.801V123.661C203.202 120.757 204.61 117.919 206.928 116.16C209.359 114.258 212.7 113.631 215.653 114.505C218.7 115.443 221.887 115.922 225.074 115.882C230.777 115.816 236.364 114.152 241.458 111.644C246.417 109.203 250.969 105.996 255.175 102.417C258.237 99.8116 261.113 96.9902 263.838 94.0314C266.857 90.7203 269.722 87.2575 272.28 83.572C274.052 81.136 276.967 79.621 279.965 79.5547ZM279.054 82.9796C277.444 83.2592 275.953 84.1659 274.972 85.4787C272.114 89.5923 268.9 93.45 265.49 97.1071C260.032 102.898 253.979 108.191 247.149 112.292C242.219 115.233 236.859 117.547 231.198 118.587C225.836 119.592 220.23 119.359 215.004 117.762C213.49 117.266 211.796 117.323 210.336 117.974C208.597 118.715 207.221 120.25 206.667 122.065C206.164 123.659 206.288 125.451 207.038 126.947C207.8 128.552 209.25 129.798 210.933 130.334C216.053 131.925 221.445 132.639 226.799 132.409C232.71 132.169 238.54 130.782 244.029 128.594C248.497 126.803 252.758 124.509 256.776 121.855C262.765 117.909 268.235 113.206 273.264 108.093C277.374 103.87 281.222 99.382 284.67 94.5954C285.37 93.5954 286.152 92.6159 286.493 91.4217C287.252 89.0031 286.477 86.1738 284.551 84.523C283.085 83.1912 280.994 82.6036 279.054 82.9796Z" fill="black"/>
<path d="M279.054 82.9796C280.994 82.6036 283.085 83.1912 284.551 84.523C286.477 86.1738 287.252 89.0031 286.493 91.4217C286.152 92.6159 285.37 93.5954 284.67 94.5954C281.222 99.382 277.374 103.87 273.264 108.093C268.235 113.206 262.765 117.909 256.776 121.855C252.758 124.509 248.497 126.803 244.029 128.594C238.54 130.782 232.71 132.169 226.799 132.409C221.445 132.639 216.053 131.925 210.933 130.334C209.25 129.798 207.8 128.552 207.038 126.947C206.288 125.451 206.164 123.659 206.667 122.065C207.221 120.25 208.597 118.715 210.336 117.974C211.796 117.323 213.49 117.266 215.004 117.762C220.23 119.359 225.836 119.592 231.198 118.587C236.859 117.547 242.219 115.233 247.149 112.292C253.979 108.191 260.032 102.898 265.49 97.1071C268.9 93.45 272.114 89.5923 274.972 85.4787C275.953 84.1659 277.444 83.2592 279.054 82.9796Z" fill="#FFCA05"/>
<path d="M56.9913 70.9023H58.2003C60.8149 71.0018 63.3948 72.1209 65.1824 74.0529C65.9308 74.8074 66.4402 75.7481 67.0062 76.6368C70.5185 82.087 74.57 87.1838 79.0508 91.8622C82.2361 95.1548 85.6446 98.239 89.3534 100.929C93.9474 104.262 99.0083 107.031 104.473 108.611C109.295 110.025 114.428 110.428 119.397 109.624C120.395 109.473 121.381 109.207 122.396 109.173C125.173 109.032 127.987 110.106 129.952 112.083C131.383 113.476 132.345 115.341 132.642 117.321C133.015 119.6 132.439 121.994 131.161 123.904C129.77 126.002 127.541 127.512 125.088 128.043C117.75 129.594 110.094 129.588 102.761 128.018C94.4819 126.27 86.6822 122.626 79.6938 117.887C70.8329 111.88 63.1622 104.237 56.5464 95.8367C53.9412 92.503 51.4807 89.0495 49.2891 85.427C48.4983 84.15 48.0313 82.6916 47.8773 81.2V80.1156C47.9779 77.8095 48.9526 75.5555 50.5846 73.9266C52.2653 72.1746 54.6031 71.1738 56.9913 70.9023ZM56.7067 74.2486C54.6723 74.5674 52.7636 75.8349 51.8219 77.6943C51.0185 79.178 50.8959 81.009 51.4933 82.5874C51.7574 83.3245 52.2055 83.9717 52.6111 84.6346C53.3061 85.76 54.056 86.8507 54.7855 87.954C60.3652 96.0182 66.893 103.451 74.3798 109.782C81.7424 115.982 90.1599 121.098 99.4265 123.817C107.022 126.078 115.142 126.564 122.94 125.143C124.223 124.94 125.534 124.66 126.625 123.914C128.36 122.81 129.525 120.81 129.518 118.735C129.536 117.029 128.775 115.341 127.512 114.203C125.995 112.783 123.799 112.165 121.761 112.506C119.334 112.989 116.862 113.302 114.383 113.283C108.113 113.349 101.922 111.646 96.3009 108.923C88.5846 105.145 81.8666 99.5775 75.9819 93.3554C71.7055 88.7985 67.819 83.8675 64.4168 78.6192C63.8539 77.7685 63.4043 76.8246 62.6622 76.1111C61.1293 74.5706 58.8339 73.8966 56.7067 74.2486Z" fill="black"/>
<path d="M56.7067 74.2486C58.8339 73.8966 61.1293 74.5706 62.6622 76.1111C63.4043 76.8246 63.8539 77.7685 64.4168 78.6192C67.819 83.8675 71.7055 88.7985 75.9819 93.3554C81.8666 99.5775 88.5846 105.145 96.3009 108.923C101.922 111.646 108.113 113.349 114.383 113.283C116.862 113.302 119.334 112.989 121.761 112.506C123.799 112.165 125.995 112.783 127.512 114.203C128.775 115.341 129.536 117.029 129.518 118.735C129.525 120.81 128.36 122.81 126.625 123.914C125.534 124.66 124.223 124.94 122.94 125.143C115.142 126.564 107.022 126.078 99.4265 123.817C90.1599 121.098 81.7424 115.982 74.3798 109.782C66.893 103.451 60.3652 96.0182 54.7855 87.954C54.056 86.8507 53.3061 85.76 52.6111 84.6346C52.2055 83.9717 51.7574 83.3245 51.4933 82.5874C50.8959 81.009 51.0185 79.178 51.8219 77.6943C52.7636 75.8349 54.6723 74.5674 56.7067 74.2486Z" fill="#FFCA05"/>
<path d="M179.344 6.55225H181.905C185 6.69723 188.056 7.26612 191.101 7.79876C194.041 8.61821 196.977 9.46603 199.828 10.5597C200.657 10.8276 201.234 11.5383 202.045 11.8424C202.978 12.2159 203.838 12.7454 204.645 13.3395C205.531 13.9982 206.555 14.4442 207.427 15.1234C209.125 16.4629 210.759 17.8875 212.27 19.4381C214.351 21.4947 216.127 23.8348 217.711 26.2885C218.631 27.7367 219.689 29.1093 220.387 30.6851C220.719 31.4384 221.092 32.1712 221.494 32.8898C222.387 34.5413 222.926 36.3535 223.792 38.0177C224.145 38.6716 224.296 39.4029 224.546 40.0962C225.099 41.4909 225.367 42.9785 225.96 44.359C226.372 45.3518 226.455 46.4281 226.678 47.4682C227.255 49.293 227.587 51.1778 227.917 53.0594C228.42 55.4405 228.614 57.8721 228.917 60.2831C229.03 64.1724 229.555 68.049 229.374 71.943C229.246 75.0002 229.156 78.0605 228.857 81.1051C228.63 83.4295 228.215 85.7303 227.822 88.0311C227.472 90.0466 227.255 92.0842 226.838 94.0872C226.581 95.3353 226.189 96.5471 225.873 97.781C225.052 100.925 224.263 104.084 223.171 107.15C222.064 110.038 220.802 112.864 219.653 115.736C218.894 117.727 218.006 119.719 217.763 121.856C217.62 122.182 217.508 122.615 217.784 122.911C217.754 124.848 217.957 126.783 218.293 128.69C218.755 130.9 219.066 133.156 219.862 135.28C220.315 136.354 220.502 137.512 220.941 138.59C221.375 140.189 221.799 141.792 222.226 143.395C222.409 144.045 222.513 144.725 222.806 145.342C225.971 151.501 227.986 158.302 228.284 165.239C228.734 174.794 225.891 184.353 220.818 192.415C219.47 194.497 218.06 196.568 216.287 198.317C214.66 200.148 213.022 201.979 211.196 203.62C208.9 205.698 206.558 207.756 203.932 209.416C203.024 209.977 202.199 210.67 201.242 211.149C195.903 213.604 190.426 215.754 184.865 217.653C184.021 217.862 183.275 218.386 182.386 218.416C181.162 218.46 180.014 218.977 178.789 218.994C176.791 219.092 174.82 219.553 172.812 219.487C168.936 219.337 165.037 219.249 161.214 218.531C160.32 218.387 159.486 218.014 158.598 217.848C157.409 217.703 156.288 217.267 155.161 216.888C150.504 215.228 146.1 212.955 141.763 210.602C140.677 210.056 139.844 209.145 138.821 208.502C137.164 207.468 135.784 206.07 134.343 204.77C129.451 200.4 125.678 194.96 122.336 189.36C121.664 188.195 121.202 186.928 120.631 185.715C119.737 183.989 119.114 182.142 118.454 180.32C118.069 179.451 117.927 178.496 117.527 177.632C116.97 176.343 116.937 174.918 116.53 173.588C116.077 172.052 115.921 170.454 115.637 168.884C115.443 167.827 115.343 166.755 115.183 165.695C114.997 164.47 115.144 163.222 114.931 162.001V161.033C115.138 156.641 115.672 152.271 116.2 147.908C116.315 146.62 116.689 145.377 116.924 144.11C117.367 142.482 117.634 140.805 118.235 139.225C119.348 136.119 120.661 133.081 121.537 129.893C122.71 125.638 124.004 121.417 125.184 117.164C125.747 115.037 125.84 112.829 126.1 110.653C126.559 107.06 126.188 103.435 126.105 99.8312C125.89 97.9417 125.605 96.0602 125.342 94.177C125.178 92.0023 124.52 89.8938 124.436 87.7112C124.402 86.6364 123.94 85.6342 123.903 84.561C123.815 82.0286 123.274 79.534 123.268 76.9984C123.276 73.418 123.207 69.8298 123.535 66.2604C124.28 58.9894 125.976 51.8239 128.472 44.9578C129.095 43.2385 129.97 41.6264 130.67 39.9402C131.036 39.0278 131.632 38.2336 132.007 37.3274C132.464 36.2558 133.045 35.2394 133.728 34.2955C134.049 33.87 134.261 33.3767 134.525 32.9166C135.724 31.1327 137.023 29.4166 138.231 27.6358C140.019 25.3949 141.961 23.2738 144.036 21.2945C146.191 19.2695 148.55 17.4809 150.886 15.6718C152.452 14.4426 154.259 13.5869 155.96 12.5705C157.564 11.6108 159.368 11.0671 161.033 10.2335C162.263 9.78436 163.46 9.24699 164.712 8.85932C165.428 8.68125 166.142 8.5016 166.847 8.2794C169.48 7.57183 172.166 7.07701 174.88 6.80123C176.356 6.53964 177.857 6.68147 179.344 6.55225ZM168.391 11.6723C165.426 12.3436 162.6 13.4877 159.819 14.6963C157.332 16.1461 154.628 17.2619 152.379 19.0915C149.134 21.6333 145.914 24.254 143.181 27.3569C141.505 29.2369 140.114 31.3439 138.583 33.3405C137.878 34.245 137.403 35.3009 136.725 36.2243C136.153 37.006 135.773 37.9026 135.369 38.7772C134.978 39.5746 134.443 40.2964 134.106 41.1221C133.366 42.9423 132.479 44.7009 131.82 46.5542C131.138 48.1915 130.481 49.843 130.023 51.5607C129.508 53.4722 128.915 55.3649 128.5 57.3016C127.907 60.2737 127.545 63.2852 127.196 66.2951C126.523 71.1567 127.024 76.0671 127.166 80.9444C127.422 82.9489 127.552 84.9739 127.975 86.9532C128.256 89.2666 128.629 91.5673 128.984 93.8697C129.11 94.5473 129.268 95.2218 129.304 95.9136C129.38 98.0016 129.664 100.077 129.935 102.148C130.118 105.121 129.785 108.093 129.634 111.058C129.355 113.434 129.158 115.829 128.686 118.178C126.901 124.55 125.296 130.992 122.91 137.176C121.765 140.374 120.428 143.563 120.068 146.972C119.972 147.914 119.583 148.794 119.466 149.733C119.138 152.109 118.872 154.492 118.596 156.873C118.556 157.779 118.43 158.704 118.638 159.599C118.723 160.162 118.591 160.728 118.569 161.292C118.432 162.732 118.848 164.144 118.902 165.578C118.932 166.577 119.135 167.559 119.271 168.547C119.398 170.046 119.834 171.494 120.144 172.96C120.423 175.52 121.513 177.879 122.238 180.325C122.502 181.288 123.077 182.12 123.457 183.037C124.306 184.903 124.996 186.852 126.081 188.602C127.866 191.501 129.774 194.331 131.935 196.968C132.688 197.928 133.395 198.941 134.336 199.735C136.591 201.85 138.808 204.018 141.27 205.898C142.315 206.656 143.432 207.312 144.484 208.062C145.557 208.574 146.478 209.34 147.53 209.895C149.2 210.814 151.021 211.404 152.753 212.189C155.609 213.513 158.679 214.31 161.762 214.895C162.531 215.049 163.309 215.172 164.084 215.298C165.666 215.549 167.257 215.792 168.862 215.806C170.179 215.812 171.494 215.804 172.811 215.809C174.761 215.82 176.695 215.502 178.641 215.417C179.721 215.38 180.724 214.903 181.799 214.826C182.745 214.75 183.603 214.268 184.551 214.198C185.574 214.126 186.486 213.614 187.476 213.403C189.293 212.829 191.073 212.148 192.836 211.427C194.895 210.33 197.062 209.424 199.024 208.149C200.399 207.488 201.613 206.56 202.859 205.692C204.257 204.687 205.636 203.65 206.944 202.529C208.993 200.804 210.76 198.772 212.665 196.903C213.198 195.947 213.991 195.175 214.624 194.286C218.874 188.737 222.053 182.309 223.497 175.453C224.836 169.193 224.706 162.647 223.268 156.418C222.324 152.322 220.868 148.324 218.781 144.668C218.577 144.299 218.579 143.866 218.486 143.467C217.42 139.797 216.246 136.157 215.22 132.475C214.875 130.375 214.543 128.269 214.34 126.151C214.025 123.39 214.359 120.593 214.953 117.891C215.63 115.016 216.667 112.186 218.301 109.71C218.497 108.996 218.829 108.333 219.069 107.633C220.288 104.307 221.196 100.878 222.168 97.4721C222.778 95.4645 223.033 93.3764 223.476 91.3294C224.322 87.3282 224.845 83.2641 225.192 79.192C225.421 76.2042 225.676 73.2147 225.689 70.2174C225.687 67.4281 225.385 64.6515 225.298 61.8653C225.282 61.2917 225.269 60.7181 225.206 60.1476C224.91 58.017 224.669 55.8802 224.259 53.7669C224.123 52.5582 223.746 51.3968 223.623 50.1897C223.286 48.2608 222.592 46.4218 222.089 44.5355C221.117 41.1426 219.91 37.8065 218.322 34.65C217.595 33.1939 216.68 31.8418 215.972 30.3778C214.313 27.6027 212.205 25.1333 210.199 22.6104C208.381 20.8454 206.468 19.1781 204.495 17.5881C203.996 17.1689 203.37 16.9451 202.844 16.5622C201.364 15.4685 199.673 14.7074 197.969 14.0376C197.316 13.7981 196.792 13.3033 196.132 13.0795C193.263 12.0583 190.305 11.2751 187.295 10.8024C181.019 9.7749 174.561 10.2098 168.391 11.6723Z" fill="black"/>
<path d="M178.343 15.5694C178.928 15.4465 179.574 15.5032 180.095 15.8168C180.915 16.2691 181.105 17.5093 180.509 18.2153C179.584 19.0757 179.126 20.4892 177.846 20.9147C176.545 21.3008 175.179 19.8006 175.663 18.5415C175.917 17.9836 176.324 17.5124 176.695 17.0286C177.157 16.4613 177.633 15.8357 178.343 15.5694Z" fill="black"/>
<path d="M184.668 16.2375C185.139 16.1351 185.653 16.1477 186.118 16.2785C187.033 16.767 187.156 17.8906 187.526 18.7542C189.056 21.6822 189.026 25.1491 188.51 28.3339C187.992 30.4015 186.891 32.4485 185.054 33.6226C183.021 34.9226 180.475 35.5483 178.098 34.9684C174.802 34.2056 171.775 32.3697 169.498 29.8783C169.026 29.3677 168.563 28.7358 168.627 28.003C168.7 26.9093 169.867 26.0568 170.934 26.3121C171.579 26.4193 171.999 26.9708 172.399 27.4373C173.3 28.6003 174.514 29.4749 175.768 30.2218C177.586 31.2414 179.804 31.8481 181.854 31.2083C183.113 30.8411 184.089 29.8089 184.565 28.6097C185.204 27.0118 185.114 25.2547 185.087 23.5685C185.06 21.6018 183.791 19.9487 183.494 18.0435C183.357 17.2477 183.983 16.5385 184.668 16.2375Z" fill="black"/>
<path d="M199.509 19.0127C200.17 18.8157 200.906 18.9055 201.452 19.3452C203.087 20.5554 204.629 22.1155 205.199 24.1185C205.516 24.8481 205.863 25.5903 205.88 26.4003C205.949 28.0314 205.888 29.7727 205.024 31.2115C204.273 32.447 203.048 33.372 201.701 33.8731C199.615 34.3806 197.358 34.2498 195.365 33.435C194.176 32.9859 193.81 31.3139 194.585 30.3495C195.146 29.831 196.013 29.6025 196.736 29.9004C197.418 30.1509 198.087 30.4992 198.83 30.5275C199.888 30.6126 201.074 30.3526 201.778 29.5032C202.404 28.7279 202.379 27.6595 202.207 26.7313C201.972 25.5699 201.502 24.4415 200.776 23.5007C200.208 22.7427 199.214 22.4575 198.67 21.6775C198.322 21.1984 198.254 20.5145 198.546 19.9928C198.8 19.6068 199.195 19.3467 199.509 19.0127Z" fill="black"/>
<path d="M164.49 19.2349C165.57 18.74 167.263 19.2538 167.342 20.5964C167.295 21.9974 166.429 23.1856 165.773 24.3706C164.288 27.0417 162.541 29.6293 160.182 31.6102C158.843 32.7795 157.245 33.7581 155.451 33.985C153.858 34.2198 152.097 33.8385 150.935 32.6739C150.034 31.6748 149.386 30.4298 149.157 29.0998C149.039 28.356 149.115 27.494 149.69 26.9472C150.321 26.2112 151.507 26.4319 152.169 27.0055C152.775 27.5208 152.647 28.3891 152.95 29.0604C153.202 29.7885 153.828 30.5543 154.681 30.4582C155.828 30.3416 156.807 29.6356 157.665 28.9154C158.83 27.8202 159.88 26.6084 160.877 25.3587C161.897 23.86 162.861 22.3062 163.509 20.6059C163.69 20.0653 164.035 19.5752 164.49 19.2349Z" fill="black"/>
<path d="M205.361 36.9209C205.826 36.8216 206.339 36.6199 206.796 36.8594C207.7 37.2723 208.337 38.0634 209.031 38.7441C209.717 39.5305 210.514 40.2129 211.172 41.026C212.438 42.5908 213.484 44.3259 214.403 46.1129C215.135 48.171 215.616 50.4072 215.179 52.585C214.843 54.4824 213.693 56.2915 211.938 57.1613C210.609 57.6956 209.075 56.1244 209.582 54.8023C209.937 53.8977 211.03 53.5715 211.344 52.6402C211.971 50.9571 211.789 48.9841 210.92 47.4177C209.847 45.4652 208.731 43.4844 207.113 41.9242C206.271 41.0812 205.188 40.4807 204.495 39.4895C204.189 39.0467 204.089 38.4368 204.398 37.9672C204.661 37.5811 204.923 37.121 205.361 36.9209Z" fill="black"/>
<path d="M170.84 38.8072C173.771 38.3722 176.698 39.1996 179.385 40.3153C180.333 40.6746 181.46 41.1237 181.807 42.1732C182.148 43.2968 181.137 44.3763 180.041 44.4409C179.033 44.5528 178.311 43.7223 177.447 43.3709C175.425 42.583 173.216 42.3182 171.061 42.4963C169.422 42.6224 167.882 43.4591 166.811 44.6899C166.257 45.3013 166.262 46.25 165.611 46.789C164.641 47.5769 162.925 47.0096 162.667 45.7694C162.509 44.9862 162.887 44.225 163.279 43.5695C163.996 42.2835 165.032 41.1867 166.243 40.3547C166.841 39.9355 167.577 39.811 168.222 39.4879C169.034 39.0751 169.95 38.9459 170.84 38.8072Z" fill="black"/>
<path d="M214.034 64.1677C214.707 64.0337 215.508 64.1755 215.934 64.7602C216.533 65.6254 216.458 66.7222 216.716 67.7008C216.85 69.0087 217.055 70.3167 216.995 71.6357C216.898 75.1531 216.729 78.7161 215.754 82.12C215.31 83.5225 214.829 84.9187 214.245 86.2708C213.566 87.4291 213.179 88.778 212.211 89.7504C211.798 90.1365 211.714 90.8298 211.11 91.0079C209.871 91.6477 208.288 90.4957 208.392 89.1436C208.423 88.2974 209.225 87.831 209.623 87.1644C210.571 85.8658 211.069 84.3231 211.584 82.8181C212.686 79.627 213.307 76.2656 213.373 72.8885C213.389 71.3599 213.225 69.8377 213.156 68.3122C213.102 67.2643 212.331 66.2068 212.832 65.1747C213.159 64.7775 213.506 64.2874 214.034 64.1677Z" fill="black"/>
<path d="M138.324 78.0101C139.214 77.6618 140.354 77.9691 140.83 78.8296C141.334 79.6427 141.04 80.8325 140.18 81.2816C139.253 81.7954 137.973 81.3573 137.47 80.4464C137.025 79.575 137.583 78.5081 138.324 78.0101Z" fill="black"/>
<path d="M132.829 80.5504C133.852 80.2652 135.054 80.9412 135.211 82.0176C135.468 83.2136 134.272 84.5027 133.054 84.2017C131.927 83.9527 131.039 82.5203 131.722 81.4707C132.042 81.1146 132.428 80.8089 132.829 80.5504Z" fill="black"/>
<path d="M189.116 81.3384C189.914 80.9964 191.041 81.1303 191.507 81.9482C192.208 83.1175 191.3 84.7659 190.001 84.9865C188.801 85.059 187.629 83.7668 188.009 82.5754C188.225 82.0507 188.704 81.704 189.116 81.3384Z" fill="black"/>
<path d="M138.969 85.1189C139.994 84.5862 141.634 85.1551 141.715 86.4363C141.89 87.4716 141.019 88.299 140.152 88.6756C138.841 89.0286 137.343 87.4527 137.98 86.1779C138.204 85.7413 138.629 85.4577 138.969 85.1189Z" fill="black"/>
<path d="M195.575 86.5167C196.647 86.077 198.052 86.7026 198.338 87.8514C198.666 88.8316 197.91 89.8985 196.936 90.0923C195.759 90.3618 194.395 89.4131 194.405 88.1698C194.474 87.4748 194.905 86.7767 195.575 86.5167Z" fill="black"/>
<path d="M189.094 88.0689C190.513 87.4039 192.129 89.0444 191.628 90.4611C191.268 91.3814 190.133 91.7817 189.215 91.5689C187.69 91.1639 187.478 88.5086 189.094 88.0689Z" fill="black"/>
<path d="M207.268 99.9526C207.81 99.8249 208.45 99.795 208.912 100.162C209.445 100.625 209.923 101.311 209.704 102.053C209.336 103.509 209.243 105.019 208.838 106.469C208.031 109.266 207.034 112.019 205.714 114.618C204.271 117.382 202.449 120.031 199.938 121.928C197.948 123.39 195.356 124.252 192.893 123.699C191.22 123.334 189.967 122.027 189.04 120.663C187.266 117.966 186.437 114.704 186.495 111.493C186.487 110.434 186.268 109.219 186.954 108.311C187.88 107.375 189.725 107.895 190.086 109.148C190.215 109.767 190.117 110.405 190.128 111.034C190.026 113.403 190.508 115.817 191.611 117.922C192.158 118.918 192.929 119.968 194.104 120.231C195.367 120.494 196.584 119.818 197.557 119.079C199.826 117.237 201.515 114.775 202.837 112.192C204.193 109.365 205.219 106.369 205.817 103.29C206.014 102.491 205.866 101.625 206.186 100.859C206.501 100.518 206.793 100.061 207.268 99.9526Z" fill="black"/>
<path d="M137.544 102.269C138.49 101.902 139.885 102.201 140.22 103.276C140.363 103.962 140.218 104.666 140.175 105.356C139.884 107.925 140.057 110.512 140.082 113.087C140.294 114.755 140.289 116.457 140.718 118.089C140.83 118.954 141.3 119.711 141.495 120.555C141.901 121.501 142.486 122.38 143.192 123.13C143.796 123.802 144.87 123.975 145.234 124.869C145.575 125.66 145.11 126.517 144.502 127.024C144.124 127.195 143.716 127.302 143.304 127.341C142.788 127.34 142.359 127.024 141.967 126.73C140.338 125.527 138.89 123.964 138.17 122.048C137.638 120.899 137.162 119.693 137.074 118.419C136.943 117.106 136.495 115.837 136.495 114.509C136.457 112.14 136.333 109.77 136.446 107.402C136.515 106.092 136.304 104.761 136.596 103.468C136.689 102.934 137.148 102.587 137.544 102.269Z" fill="black"/>
<path d="M140.384 132.239C141.208 131.996 142.106 132.359 142.686 132.947C142.91 133.533 143.09 134.214 142.856 134.823C142.569 135.522 141.757 135.678 141.137 135.947C140.281 136.221 139.688 136.927 139.092 137.556C138.288 138.508 137.474 139.48 136.963 140.629C136.515 141.642 136.006 142.671 135.934 143.796C135.882 144.32 135.861 144.901 135.497 145.32C134.942 145.919 134.011 146.089 133.254 145.82C132.581 145.552 132.244 144.799 132.22 144.112C132.179 142.906 132.655 141.773 133.027 140.649C133.887 138.262 135.189 135.982 137.091 134.27C138.061 133.41 139.177 132.709 140.384 132.239Z" fill="black"/>
<path d="M206.325 132.895C206.845 132.718 207.458 132.642 207.965 132.912C208.479 133.155 208.725 133.703 208.934 134.199C209.237 134.979 209.663 135.704 209.947 136.494C210.325 137.528 210.577 138.612 210.647 139.712C210.677 140.202 210.97 140.642 210.958 141.138C210.89 141.831 210.431 142.488 209.792 142.774C208.895 143.049 207.722 142.665 207.384 141.727C206.929 140.512 207.104 139.149 206.593 137.945C206.105 136.866 205.487 135.821 205.24 134.652C205.132 133.881 205.782 133.323 206.325 132.895Z" fill="black"/>
<path d="M189.434 136.155C190.075 136.007 190.862 135.938 191.341 136.486C192.426 137.751 193.135 139.274 193.851 140.764C194.394 141.66 194.663 142.676 195.031 143.648C195.283 144.643 195.666 145.617 195.742 146.65C195.807 147.4 195.233 148.059 194.552 148.291C193.845 148.463 193.038 148.226 192.557 147.678C192.122 147.096 192.025 146.357 191.795 145.687C191.549 145.013 191.439 144.29 191.1 143.651C190.398 142.2 189.939 140.61 188.933 139.324C188.569 138.806 188.214 138.169 188.386 137.517C188.509 136.922 189.069 136.59 189.434 136.155Z" fill="black"/>
<path d="M156.613 136.803C157.553 136.489 158.838 136.874 159.142 137.9C159.382 138.692 158.87 139.416 158.747 140.178C158.116 143.861 157.876 147.637 158.362 151.353C158.682 153.717 159.311 156.077 160.53 158.146C161.148 159.134 160.484 160.553 159.395 160.854C158.704 161.043 157.92 160.781 157.498 160.2C156.827 159.316 156.567 158.211 156.071 157.234C155.724 156.011 155.08 154.864 154.976 153.578C154.904 152.628 154.596 151.709 154.576 150.752C154.557 148.013 154.461 145.26 154.815 142.537C155.011 141.009 155.036 139.436 155.542 137.966C155.695 137.43 156.201 137.124 156.613 136.803Z" fill="black"/>
<path d="M146.657 138.806C147.24 138.637 147.94 138.596 148.456 138.97C148.897 139.294 149.098 139.838 149.222 140.352C149.471 141.491 149.372 142.665 149.496 143.817C149.651 145.142 149.366 146.464 149.057 147.747C148.429 150.168 147.251 152.514 145.362 154.192C143.739 155.614 141.443 156.033 139.354 155.708C137.118 155.374 134.893 154.352 133.477 152.542C133.103 152.011 132.619 151.446 132.69 150.751C132.761 149.611 133.953 148.521 135.114 148.913C135.716 149.071 136.031 149.652 136.35 150.135C136.962 151.132 138.086 151.687 139.187 151.964C140.707 152.358 142.437 151.966 143.539 150.822C144.428 149.87 144.947 148.642 145.33 147.415C145.698 146.144 145.971 144.814 145.835 143.488C145.75 142.55 145.767 141.604 145.587 140.678C145.401 139.92 145.993 139.111 146.657 138.806Z" fill="black"/>
<path d="M175.845 140.4C176.668 140.233 177.721 140.287 178.174 141.121C179.002 142.701 179.891 144.266 180.426 145.981C180.782 147.142 181.175 148.3 181.369 149.503C181.5 150.24 181.772 150.951 181.817 151.706C181.936 153.219 182.323 154.719 182.181 156.246C181.982 158.189 181.159 160.1 179.741 161.467C178.459 162.768 176.649 163.474 174.839 163.574C172.652 163.652 170.359 163.473 168.416 162.378C167.718 161.982 167.052 161.355 166.956 160.518C166.814 159.44 167.749 158.345 168.845 158.372C169.693 158.45 170.155 159.316 170.955 159.524C172.73 160.072 174.743 160.089 176.436 159.268C177.497 158.764 178.308 157.746 178.481 156.575C178.691 155.151 178.302 153.737 178.182 152.322C178.112 151.247 177.702 150.237 177.545 149.176C177.362 147.969 176.974 146.794 176.42 145.706C176.032 144.914 175.826 143.987 175.135 143.384C174.096 142.578 174.661 140.738 175.845 140.4Z" fill="black"/>
<path d="M191.577 154.407C192.194 154.281 192.908 154.319 193.391 154.771C193.75 155.122 194.164 155.551 194.121 156.096C194.067 156.701 193.709 157.229 193.638 157.834C193.475 159.095 193.202 160.34 193.065 161.604C192.984 163.985 192.927 166.426 193.653 168.725C193.944 169.798 194.451 170.851 195.299 171.596C196.357 172.362 197.778 172.254 198.968 171.89C200.547 171.448 202.097 170.674 203.201 169.441C203.527 168.772 203.891 168.027 204.656 167.775C205.566 167.368 206.736 167.907 207.001 168.869C207.283 169.861 206.826 170.895 206.159 171.625C204.574 173.476 202.395 174.792 200.053 175.448C198.623 175.818 197.093 176.067 195.644 175.653C193.627 175.142 191.983 173.643 191.007 171.844C189.644 169.408 189.349 166.555 189.277 163.815C189.188 161.156 189.701 158.525 190.335 155.957C190.499 155.305 190.869 154.577 191.577 154.407Z" fill="black"/>
<path d="M128.396 163.112C129.383 162.738 130.875 163.262 130.973 164.439C131.033 165.759 130.664 167.072 130.84 168.394C131.042 169.954 130.947 171.582 131.548 173.067C131.704 173.483 131.96 173.926 131.813 174.386C131.649 174.967 131.293 175.561 130.694 175.772C129.852 176.095 128.874 175.667 128.391 174.942C127.918 174.326 127.809 173.538 127.69 172.796C127.437 171.741 127.486 170.648 127.351 169.579C127.147 167.797 127.163 165.999 127.36 164.218C127.488 163.698 128.013 163.429 128.396 163.112Z" fill="black"/>
<path d="M215.031 163.774C215.469 163.385 216.073 163.284 216.619 163.126C217.118 163.361 217.774 163.462 218.036 164.015C218.721 165.268 218.732 166.736 219.049 168.101C219.463 169.951 219.47 171.863 219.372 173.747C219.301 174.81 219.304 175.903 218.894 176.905C218.26 179.17 217.018 181.375 215.013 182.691C213.824 183.463 212.361 183.882 210.946 183.652C209.549 183.289 209.236 181.061 210.489 180.333C211.308 179.89 212.361 180.139 213.116 179.542C214.471 178.524 215.348 176.899 215.562 175.229C215.764 173.008 215.934 170.745 215.51 168.539C215.308 167.422 214.785 166.385 214.647 165.255C214.592 164.743 214.624 164.144 215.031 163.774Z" fill="black"/>
<path d="M144.933 166.391C145.846 166.098 146.953 166.498 147.224 167.477C147.879 169.672 148.306 171.949 148.431 174.242C148.47 176.701 148.353 179.2 147.653 181.573C147.167 183.163 146.346 184.671 145.166 185.853C143.733 187.238 141.688 188.042 139.688 187.792C136.873 187.514 134.179 186.238 132.163 184.259C131.528 183.595 130.843 182.878 130.678 181.939C130.5 181.176 130.754 180.272 131.458 179.863C132.17 179.402 133.143 179.607 133.737 180.168C134.213 180.571 134.283 181.263 134.748 181.679C136.128 183.006 137.962 183.783 139.833 184.098C140.847 184.222 142.033 184.065 142.733 183.245C143.735 182.158 144.116 180.68 144.408 179.271C144.758 177.399 144.72 175.482 144.649 173.587C144.506 172.312 144.245 171.053 144.067 169.783C143.981 169.018 143.35 168.284 143.701 167.507C143.984 167.026 144.386 166.568 144.933 166.391Z" fill="black"/>
<path d="M155.047 172.09C155.76 171.793 156.69 172.085 157.077 172.769C157.554 173.533 157.722 174.436 157.916 175.304C158.106 176.381 158.43 177.427 158.687 178.489C158.859 179.191 158.895 180.026 158.333 180.574C157.722 181.375 156.476 181.326 155.743 180.727C155.053 179.991 154.978 178.927 154.77 177.991C154.585 176.86 154.169 175.788 153.921 174.674C153.809 174.08 153.696 173.385 154.077 172.862C154.377 172.577 154.716 172.335 155.047 172.09Z" fill="black"/>
<path d="M181.966 176.622C182.909 176.303 184.232 176.639 184.552 177.678C184.814 178.44 184.329 179.162 184.248 179.911C184.108 181.135 183.65 182.29 183.267 183.455C182.84 184.733 182.081 185.863 181.261 186.922C180.18 188.702 178.466 189.968 176.763 191.107C175.055 191.849 173.371 192.793 171.477 192.945C170.25 193.135 169.011 193.255 167.768 193.186C165.616 193.124 163.447 192.901 161.375 192.291C160.44 191.985 159.403 191.602 158.887 190.702C158.305 189.604 159.141 188.135 160.353 187.996C161.099 187.948 161.755 188.381 162.411 188.673C163.394 189.218 164.527 189.347 165.625 189.476C167.694 189.673 169.802 189.607 171.836 189.156C174.845 188.537 177.354 186.395 178.973 183.855C180.079 182.137 180.497 180.114 180.907 178.146C180.859 177.444 181.487 177.017 181.966 176.622Z" fill="black"/>
<path d="M200.812 191.982C201.886 191.629 203.247 192.44 203.3 193.611C203.332 194.632 202.613 195.441 202.035 196.207C199.287 199.48 196.624 202.89 193.23 205.534C192.122 206.363 190.892 207.077 189.545 207.43C187.817 207.763 185.834 207.44 184.56 206.141C183.865 205.388 183.277 204.507 182.958 203.528C182.529 201.976 182.659 200.257 183.349 198.799C183.701 198.216 184.105 197.556 184.798 197.349C186.009 197.01 187.392 198.158 187.183 199.428C187.139 199.964 186.549 200.233 186.457 200.753C186.301 201.68 186.405 202.726 187.033 203.468C187.56 204.017 188.414 204.009 189.072 203.719C191.087 202.84 192.722 201.302 194.148 199.661C196.195 197.341 198.623 195.261 200.055 192.474C200.28 192.272 200.548 192.125 200.812 191.982Z" fill="black"/>
<path d="M152.218 194.949C152.97 194.759 153.913 195.025 154.284 195.751C154.894 196.889 155.184 198.175 155.337 199.45C155.413 200.668 155.099 201.891 154.604 202.999C153.828 204.647 152.195 205.821 150.403 206.108C148.648 206.414 146.877 205.878 145.288 205.166C142.475 203.861 140.084 201.825 137.87 199.686C137.347 199.158 136.787 198.66 136.34 198.063C135.88 197.428 135.778 196.41 136.413 195.852C136.722 195.561 137.004 195.135 137.485 195.17C138.641 195.011 139.546 195.877 140.216 196.7C140.92 197.622 141.83 198.348 142.7 199.105C144.167 200.34 145.766 201.472 147.577 202.14C148.32 202.435 149.132 202.531 149.927 202.521C150.936 202.346 151.376 201.256 151.619 200.383C151.931 199.25 151.346 198.192 150.974 197.162C150.637 196.226 151.386 195.286 152.218 194.949Z" fill="black"/>
<path d="M176.969 196.979C178.081 196.49 179.719 197.154 179.763 198.485C179.874 199.155 179.446 199.669 178.981 200.079C178.39 201.008 177.794 201.94 177.191 202.866C176.176 204.288 174.705 205.295 173.221 206.177C172.127 206.834 170.939 207.452 169.635 207.506C169.011 207.547 168.391 207.665 167.763 207.66C166.117 207.58 164.562 206.973 163.061 206.338C162.235 205.976 161.372 205.481 160.979 204.63C160.476 203.364 161.87 201.834 163.179 202.245C163.887 202.487 164.438 203.033 165.128 203.317C166.538 204.012 168.192 204.176 169.711 203.769C171.876 203.093 173.642 201.505 174.963 199.707C175.621 198.791 175.853 197.482 176.969 196.979Z" fill="black"/>
<path d="M164.712 8.85932C165.398 8.58512 166.117 8.39917 166.847 8.2794C166.142 8.5016 165.428 8.68125 164.712 8.85932Z" fill="#FFCA05"/>
<path d="M168.391 11.6723C174.561 10.2098 181.019 9.7749 187.295 10.8024C190.305 11.2751 193.263 12.0583 196.132 13.0795C196.792 13.3033 197.316 13.7981 197.969 14.0376C199.673 14.7074 201.364 15.4685 202.844 16.5622C203.37 16.9451 203.996 17.1689 204.495 17.5881C206.468 19.1781 208.381 20.8454 210.199 22.6104C212.205 25.1333 214.313 27.6027 215.972 30.3778C216.68 31.8418 217.595 33.1939 218.322 34.65C219.91 37.8065 221.117 41.1426 222.089 44.5355C222.592 46.4218 223.286 48.2608 223.623 50.1897C223.746 51.3968 224.123 52.5582 224.259 53.7669C224.669 55.8802 224.91 58.017 225.206 60.1476C225.269 60.7181 225.282 61.2917 225.298 61.8653C225.385 64.6515 225.687 67.4281 225.689 70.2174C225.676 73.2147 225.421 76.2042 225.192 79.192C224.845 83.2641 224.322 87.3282 223.476 91.3294C223.033 93.3764 222.778 95.4645 222.168 97.4721C221.196 100.878 220.288 104.307 219.069 107.633C218.829 108.333 218.497 108.996 218.301 109.71C216.667 112.186 215.63 115.016 214.953 117.891C214.359 120.593 214.025 123.39 214.34 126.151C214.543 128.269 214.875 130.375 215.22 132.475C216.246 136.157 217.42 139.797 218.486 143.467C218.579 143.866 218.577 144.299 218.781 144.668C220.868 148.324 222.324 152.322 223.268 156.418C224.706 162.647 224.836 169.193 223.497 175.453C222.053 182.309 218.874 188.737 214.624 194.286C213.991 195.175 213.198 195.947 212.665 196.903C210.76 198.772 208.993 200.804 206.944 202.529C205.636 203.65 204.257 204.687 202.859 205.692C201.613 206.56 200.399 207.488 199.024 208.149C197.062 209.424 194.895 210.33 192.836 211.427C191.073 212.148 189.293 212.829 187.476 213.403C186.486 213.614 185.574 214.126 184.551 214.198C183.603 214.268 182.745 214.75 181.799 214.826C180.724 214.903 179.721 215.38 178.641 215.417C176.695 215.502 174.761 215.82 172.811 215.809C171.494 215.804 170.179 215.812 168.862 215.806C167.257 215.792 165.666 215.549 164.084 215.298C164.039 215.254 163.946 215.165 163.9 215.12C163.186 215.051 162.471 214.991 161.762 214.895C158.679 214.31 155.609 213.513 152.753 212.189C151.021 211.404 149.2 210.814 147.53 209.895C146.478 209.34 145.557 208.574 144.484 208.062C143.432 207.312 142.315 206.656 141.27 205.898C138.808 204.018 136.591 201.85 134.336 199.735C133.395 198.941 132.688 197.928 131.935 196.968C129.774 194.331 127.866 191.501 126.081 188.602C124.996 186.852 124.306 184.903 123.457 183.037C123.077 182.12 122.502 181.288 122.238 180.325C121.513 177.879 120.423 175.52 120.144 172.96C119.834 171.494 119.398 170.046 119.271 168.547C119.135 167.559 118.932 166.577 118.902 165.578C118.848 164.144 118.432 162.732 118.569 161.292C118.591 160.728 118.723 160.162 118.638 159.599C118.43 158.704 118.556 157.779 118.596 156.873C118.872 154.492 119.138 152.109 119.466 149.733C119.583 148.794 119.972 147.914 120.068 146.972C120.428 143.563 121.765 140.374 122.91 137.176C125.296 130.992 126.901 124.55 128.686 118.178C129.158 115.829 129.355 113.434 129.634 111.058C129.839 109.271 130.112 107.482 130.102 105.679C130.063 104.501 130.009 103.323 129.935 102.148C129.664 100.077 129.38 98.0016 129.304 95.9136C129.268 95.2218 129.11 94.5473 128.984 93.8697C128.629 91.5673 128.256 89.2666 127.975 86.9532C127.552 84.9739 127.422 82.9489 127.166 80.9444C127.024 76.0671 126.523 71.1567 127.196 66.2951C127.545 63.2852 127.907 60.2737 128.5 57.3016C128.915 55.3649 129.508 53.4722 130.023 51.5607C130.481 49.843 131.138 48.1915 131.82 46.5542C132.479 44.7009 133.366 42.9423 134.106 41.1221C134.443 40.2964 134.978 39.5746 135.369 38.7772C135.773 37.9026 136.153 37.006 136.725 36.2243C137.403 35.3009 137.878 34.245 138.583 33.3405C140.114 31.3439 141.505 29.2369 143.181 27.3569C145.914 24.254 149.134 21.6333 152.379 19.0915C154.628 17.2619 157.332 16.1461 159.819 14.6963C162.6 13.4877 165.426 12.3436 168.391 11.6723ZM178.343 15.5694C177.633 15.8357 177.157 16.4613 176.695 17.0286C176.324 17.5124 175.917 17.9836 175.663 18.5415C175.179 19.8006 176.545 21.3008 177.846 20.9147C179.126 20.4892 179.584 19.0757 180.509 18.2153C181.105 17.5093 180.915 16.2691 180.095 15.8168C179.574 15.5032 178.928 15.4465 178.343 15.5694ZM184.668 16.2375C183.983 16.5385 183.357 17.2477 183.494 18.0435C183.791 19.9487 185.06 21.6018 185.087 23.5685C185.114 25.2547 185.204 27.0118 184.565 28.6097C184.089 29.8089 183.113 30.8411 181.854 31.2083C179.804 31.8481 177.586 31.2414 175.768 30.2218C174.514 29.4749 173.3 28.6003 172.399 27.4373C171.999 26.9708 171.579 26.4193 170.934 26.3121C169.867 26.0568 168.7 26.9093 168.627 28.003C168.563 28.7358 169.026 29.3677 169.498 29.8783C171.775 32.3697 174.802 34.2056 178.098 34.9684C180.475 35.5483 183.021 34.9226 185.054 33.6226C186.891 32.4485 187.992 30.4015 188.51 28.3339C189.026 25.1491 189.056 21.6822 187.526 18.7542C187.156 17.8906 187.033 16.767 186.118 16.2785C185.653 16.1477 185.139 16.1351 184.668 16.2375ZM199.509 19.0127C199.195 19.3467 198.8 19.6068 198.546 19.9928C198.254 20.5145 198.322 21.1984 198.67 21.6775C199.214 22.4575 200.208 22.7427 200.776 23.5007C201.502 24.4415 201.972 25.5699 202.207 26.7313C202.379 27.6595 202.404 28.7279 201.778 29.5032C201.074 30.3526 199.888 30.6126 198.83 30.5275C198.087 30.4992 197.418 30.1509 196.736 29.9004C196.013 29.6025 195.146 29.831 194.585 30.3495C193.81 31.3139 194.176 32.9859 195.365 33.435C197.358 34.2498 199.615 34.3806 201.701 33.8731C203.048 33.372 204.273 32.447 205.024 31.2115C205.888 29.7727 205.949 28.0314 205.88 26.4003C205.863 25.5903 205.516 24.8481 205.199 24.1185C204.629 22.1155 203.087 20.5554 201.452 19.3452C200.906 18.9055 200.17 18.8157 199.509 19.0127ZM164.49 19.2349C164.035 19.5752 163.69 20.0653 163.509 20.6059C162.861 22.3062 161.897 23.86 160.877 25.3587C159.88 26.6084 158.83 27.8202 157.665 28.9154C156.807 29.6356 155.828 30.3416 154.681 30.4582C153.828 30.5543 153.202 29.7885 152.95 29.0604C152.647 28.3891 152.775 27.5208 152.169 27.0055C151.507 26.4319 150.321 26.2112 149.69 26.9472C149.115 27.494 149.039 28.356 149.157 29.0998C149.386 30.4298 150.034 31.6748 150.935 32.6739C152.097 33.8385 153.858 34.2198 155.451 33.985C157.245 33.7581 158.843 32.7795 160.182 31.6102C162.541 29.6293 164.288 27.0417 165.773 24.3706C166.429 23.1856 167.295 21.9974 167.342 20.5964C167.263 19.2538 165.57 18.74 164.49 19.2349ZM205.361 36.9209C204.923 37.121 204.661 37.5811 204.398 37.9672C204.089 38.4368 204.189 39.0467 204.495 39.4895C205.188 40.4807 206.271 41.0812 207.113 41.9242C208.731 43.4844 209.847 45.4652 210.92 47.4177C211.789 48.9841 211.971 50.9571 211.344 52.6402C211.03 53.5715 209.937 53.8977 209.582 54.8023C209.075 56.1244 210.609 57.6956 211.938 57.1613C213.693 56.2915 214.843 54.4824 215.179 52.585C215.616 50.4072 215.135 48.171 214.403 46.1129C213.484 44.3259 212.438 42.5908 211.172 41.026C210.514 40.2129 209.717 39.5305 209.031 38.7441C208.337 38.0634 207.7 37.2723 206.796 36.8594C206.339 36.6199 205.826 36.8216 205.361 36.9209ZM170.84 38.8072C169.95 38.9459 169.034 39.0751 168.222 39.4879C167.577 39.811 166.841 39.9355 166.243 40.3547C165.032 41.1867 163.996 42.2835 163.279 43.5695C162.887 44.225 162.509 44.9862 162.667 45.7694C162.925 47.0096 164.641 47.5769 165.611 46.789C166.262 46.25 166.257 45.3013 166.811 44.6899C167.882 43.4591 169.422 42.6224 171.061 42.4963C173.216 42.3182 175.425 42.583 177.447 43.3709C178.311 43.7223 179.033 44.5528 180.041 44.4409C181.137 44.3763 182.148 43.2968 181.807 42.1732C181.46 41.1237 180.333 40.6746 179.385 40.3153C176.698 39.1996 173.771 38.3722 170.84 38.8072ZM214.034 64.1677C213.506 64.2874 213.159 64.7775 212.832 65.1747C212.331 66.2068 213.102 67.2643 213.156 68.3122C213.225 69.8377 213.389 71.3599 213.373 72.8885C213.307 76.2656 212.686 79.627 211.584 82.8181C211.069 84.3231 210.571 85.8658 209.623 87.1644C209.225 87.831 208.423 88.2974 208.392 89.1436C208.288 90.4957 209.871 91.6477 211.11 91.0079C211.714 90.8298 211.798 90.1365 212.211 89.7504C213.179 88.778 213.566 87.4291 214.245 86.2708C214.829 84.9187 215.31 83.5225 215.754 82.12C216.729 78.7161 216.898 75.1531 216.995 71.6357C217.055 70.3167 216.85 69.0087 216.716 67.7008C216.458 66.7222 216.533 65.6254 215.934 64.7602C215.508 64.1755 214.707 64.0337 214.034 64.1677ZM138.324 78.0101C137.583 78.5081 137.025 79.575 137.47 80.4464C137.973 81.3573 139.253 81.7954 140.18 81.2816C141.04 80.8325 141.334 79.6427 140.83 78.8296C140.354 77.9691 139.214 77.6618 138.324 78.0101ZM132.829 80.5504C132.428 80.8089 132.042 81.1146 131.722 81.4707C131.039 82.5203 131.927 83.9527 133.054 84.2017C134.272 84.5027 135.468 83.2136 135.211 82.0176C135.054 80.9412 133.852 80.2652 132.829 80.5504ZM189.116 81.3384C188.704 81.704 188.225 82.0507 188.009 82.5754C187.629 83.7668 188.801 85.059 190.001 84.9865C191.3 84.7659 192.208 83.1175 191.507 81.9482C191.041 81.1303 189.914 80.9964 189.116 81.3384ZM138.969 85.1189C138.629 85.4577 138.204 85.7413 137.98 86.1779C137.343 87.4527 138.841 89.0286 140.152 88.6756C141.019 88.299 141.89 87.4716 141.715 86.4363C141.634 85.1551 139.994 84.5862 138.969 85.1189ZM195.575 86.5167C194.905 86.7767 194.474 87.4748 194.405 88.1698C194.395 89.4131 195.759 90.3618 196.936 90.0923C197.91 89.8985 198.666 88.8316 198.338 87.8514C198.052 86.7026 196.647 86.077 195.575 86.5167ZM189.094 88.0689C187.478 88.5086 187.69 91.1639 189.215 91.5689C190.133 91.7817 191.268 91.3814 191.628 90.4611C192.129 89.0444 190.513 87.4039 189.094 88.0689ZM207.268 99.9526C206.793 100.061 206.501 100.518 206.186 100.859C205.866 101.625 206.014 102.491 205.817 103.29C205.219 106.369 204.193 109.365 202.837 112.192C201.515 114.775 199.826 117.237 197.557 119.079C196.584 119.818 195.367 120.494 194.104 120.231C192.929 119.968 192.158 118.918 191.611 117.922C190.508 115.817 190.026 113.403 190.128 111.034C190.117 110.405 190.215 109.767 190.086 109.148C189.725 107.895 187.88 107.375 186.954 108.311C186.268 109.219 186.487 110.434 186.495 111.493C186.437 114.704 187.266 117.966 189.04 120.663C189.967 122.027 191.22 123.334 192.893 123.699C195.356 124.252 197.948 123.39 199.938 121.928C202.449 120.031 204.271 117.382 205.714 114.618C207.034 112.019 208.031 109.266 208.838 106.469C209.243 105.019 209.336 103.509 209.704 102.053C209.923 101.311 209.445 100.625 208.912 100.162C208.45 99.795 207.81 99.8249 207.268 99.9526ZM137.544 102.269C137.148 102.587 136.689 102.934 136.596 103.468C136.304 104.761 136.515 106.092 136.446 107.402C136.333 109.77 136.457 112.14 136.495 114.509C136.495 115.837 136.943 117.106 137.074 118.419C137.162 119.693 137.638 120.899 138.17 122.048C138.89 123.964 140.338 125.527 141.967 126.73C142.359 127.024 142.788 127.34 143.304 127.341C143.716 127.302 144.124 127.195 144.502 127.024C145.11 126.517 145.575 125.66 145.234 124.869C144.87 123.975 143.796 123.802 143.192 123.13C142.486 122.38 141.901 121.501 141.495 120.555C141.3 119.711 140.83 118.954 140.718 118.089C140.289 116.457 140.294 114.755 140.082 113.087C140.057 110.512 139.884 107.925 140.175 105.356C140.218 104.666 140.363 103.962 140.22 103.276C139.885 102.201 138.49 101.902 137.544 102.269ZM140.384 132.239C139.177 132.709 138.061 133.41 137.091 134.27C135.189 135.982 133.887 138.262 133.027 140.649C132.655 141.773 132.179 142.906 132.22 144.112C132.244 144.799 132.581 145.552 133.254 145.82C134.011 146.089 134.942 145.919 135.497 145.32C135.861 144.901 135.882 144.32 135.934 143.796C136.006 142.671 136.515 141.642 136.963 140.629C137.474 139.48 138.288 138.508 139.092 137.556C139.688 136.927 140.281 136.221 141.137 135.947C141.757 135.678 142.569 135.522 142.856 134.823C143.09 134.214 142.91 133.533 142.686 132.947C142.106 132.359 141.208 131.996 140.384 132.239ZM206.325 132.895C205.782 133.323 205.132 133.881 205.24 134.652C205.487 135.821 206.105 136.866 206.593 137.945C207.104 139.149 206.929 140.512 207.384 141.727C207.722 142.665 208.895 143.049 209.792 142.774C210.431 142.488 210.89 141.831 210.958 141.138C210.97 140.642 210.677 140.202 210.647 139.712C210.577 138.612 210.325 137.528 209.947 136.494C209.663 135.704 209.237 134.979 208.934 134.199C208.725 133.703 208.479 133.155 207.965 132.912C207.458 132.642 206.845 132.718 206.325 132.895ZM189.434 136.155C189.069 136.59 188.509 136.922 188.386 137.517C188.214 138.169 188.569 138.806 188.933 139.324C189.939 140.61 190.398 142.2 191.1 143.651C191.439 144.29 191.549 145.013 191.795 145.687C192.025 146.357 192.122 147.096 192.557 147.678C193.038 148.226 193.845 148.463 194.552 148.291C195.233 148.059 195.807 147.4 195.742 146.65C195.666 145.617 195.283 144.643 195.031 143.648C194.663 142.676 194.394 141.66 193.851 140.764C193.135 139.274 192.426 137.751 191.341 136.486C190.862 135.938 190.075 136.007 189.434 136.155ZM156.613 136.803C156.201 137.124 155.695 137.43 155.542 137.966C155.036 139.436 155.011 141.009 154.815 142.537C154.461 145.26 154.557 148.013 154.576 150.752C154.596 151.709 154.904 152.628 154.976 153.578C155.08 154.864 155.724 156.011 156.071 157.234C156.567 158.211 156.827 159.316 157.498 160.2C157.92 160.781 158.704 161.043 159.395 160.854C160.484 160.553 161.148 159.134 160.53 158.146C159.311 156.077 158.682 153.717 158.362 151.353C157.876 147.637 158.116 143.861 158.747 140.178C158.87 139.416 159.382 138.692 159.142 137.9C158.838 136.874 157.553 136.489 156.613 136.803ZM146.657 138.806C145.993 139.111 145.401 139.92 145.587 140.678C145.767 141.604 145.75 142.55 145.835 143.488C145.971 144.814 145.698 146.144 145.33 147.415C144.947 148.642 144.428 149.87 143.539 150.822C142.437 151.966 140.707 152.358 139.187 151.964C138.086 151.687 136.962 151.132 136.35 150.135C136.031 149.652 135.716 149.071 135.114 148.913C133.953 148.521 132.761 149.611 132.69 150.751C132.619 151.446 133.103 152.011 133.477 152.542C134.893 154.352 137.118 155.374 139.354 155.708C141.443 156.033 143.739 155.614 145.362 154.192C147.251 152.514 148.429 150.168 149.057 147.747C149.366 146.464 149.651 145.142 149.496 143.817C149.372 142.665 149.471 141.491 149.222 140.352C149.098 139.838 148.897 139.294 148.456 138.97C147.94 138.596 147.24 138.637 146.657 138.806ZM175.845 140.4C174.661 140.738 174.096 142.578 175.135 143.384C175.826 143.987 176.032 144.914 176.42 145.706C176.974 146.794 177.362 147.969 177.545 149.176C177.702 150.237 178.112 151.247 178.182 152.322C178.302 153.737 178.691 155.151 178.481 156.575C178.308 157.746 177.497 158.764 176.436 159.268C174.743 160.089 172.73 160.072 170.955 159.524C170.155 159.316 169.693 158.45 168.845 158.372C167.749 158.345 166.814 159.44 166.956 160.518C167.052 161.355 167.718 161.982 168.416 162.378C170.359 163.473 172.652 163.652 174.839 163.574C176.649 163.474 178.459 162.768 179.741 161.467C181.159 160.1 181.982 158.189 182.181 156.246C182.323 154.719 181.936 153.219 181.817 151.706C181.772 150.951 181.5 150.24 181.369 149.503C181.175 148.3 180.782 147.142 180.426 145.981C179.891 144.266 179.002 142.701 178.174 141.121C177.721 140.287 176.668 140.233 175.845 140.4ZM191.577 154.407C190.869 154.577 190.499 155.305 190.335 155.957C189.701 158.525 189.188 161.156 189.277 163.815C189.349 166.555 189.644 169.408 191.007 171.844C191.983 173.643 193.627 175.142 195.644 175.653C197.093 176.067 198.623 175.818 200.053 175.448C202.395 174.792 204.574 173.476 206.159 171.625C206.826 170.895 207.283 169.861 207.001 168.869C206.736 167.907 205.566 167.368 204.656 167.775C203.891 168.027 203.527 168.772 203.201 169.441C202.097 170.674 200.547 171.448 198.968 171.89C197.778 172.254 196.357 172.362 195.299 171.596C194.451 170.851 193.944 169.798 193.653 168.725C192.927 166.426 192.984 163.985 193.065 161.604C193.202 160.34 193.475 159.095 193.638 157.834C193.709 157.229 194.067 156.701 194.121 156.096C194.164 155.551 193.75 155.122 193.391 154.771C192.908 154.319 192.194 154.281 191.577 154.407ZM128.396 163.112C128.013 163.429 127.488 163.698 127.36 164.218C127.163 165.999 127.147 167.797 127.351 169.579C127.486 170.648 127.437 171.741 127.69 172.796C127.809 173.538 127.918 174.326 128.391 174.942C128.874 175.667 129.852 176.095 130.694 175.772C131.293 175.561 131.649 174.967 131.813 174.386C131.96 173.926 131.704 173.483 131.548 173.067C130.947 171.582 131.042 169.954 130.84 168.394C130.664 167.072 131.033 165.759 130.973 164.439C130.875 163.262 129.383 162.738 128.396 163.112ZM215.031 163.774C214.624 164.144 214.592 164.743 214.647 165.255C214.785 166.385 215.308 167.422 215.51 168.539C215.934 170.745 215.764 173.008 215.562 175.229C215.348 176.899 214.471 178.524 213.116 179.542C212.361 180.139 211.308 179.89 210.489 180.333C209.236 181.061 209.549 183.289 210.946 183.652C212.361 183.882 213.824 183.463 215.013 182.691C217.018 181.375 218.26 179.17 218.894 176.905C219.304 175.903 219.301 174.81 219.372 173.747C219.47 171.863 219.463 169.951 219.049 168.101C218.732 166.736 218.721 165.268 218.036 164.015C217.774 163.462 217.118 163.361 216.619 163.126C216.073 163.284 215.469 163.385 215.031 163.774ZM144.933 166.391C144.386 166.568 143.984 167.026 143.701 167.507C143.35 168.284 143.981 169.018 144.067 169.783C144.245 171.053 144.506 172.312 144.649 173.587C144.72 175.482 144.758 177.399 144.408 179.271C144.116 180.68 143.735 182.158 142.733 183.245C142.033 184.065 140.847 184.222 139.833 184.098C137.962 183.783 136.128 183.006 134.748 181.679C134.283 181.263 134.213 180.571 133.737 180.168C133.143 179.607 132.17 179.402 131.458 179.863C130.754 180.272 130.5 181.176 130.678 181.939C130.843 182.878 131.528 183.595 132.163 184.259C134.179 186.238 136.873 187.514 139.688 187.792C141.688 188.042 143.733 187.238 145.166 185.853C146.346 184.671 147.167 183.163 147.653 181.573C148.353 179.2 148.47 176.701 148.431 174.242C148.306 171.949 147.879 169.672 147.224 167.477C146.953 166.498 145.846 166.098 144.933 166.391ZM155.047 172.09C154.716 172.335 154.377 172.577 154.077 172.862C153.696 173.385 153.809 174.08 153.921 174.674C154.169 175.788 154.585 176.86 154.77 177.991C154.978 178.927 155.053 179.991 155.743 180.727C156.476 181.326 157.722 181.375 158.333 180.574C158.895 180.026 158.859 179.191 158.687 178.489C158.43 177.427 158.106 176.381 157.916 175.304C157.722 174.436 157.554 173.533 157.077 172.769C156.69 172.085 155.76 171.793 155.047 172.09ZM181.966 176.622C181.487 177.017 180.859 177.444 180.907 178.146C180.497 180.114 180.079 182.137 178.973 183.855C177.354 186.395 174.845 188.537 171.836 189.156C169.802 189.607 167.694 189.673 165.625 189.476C164.527 189.347 163.394 189.218 162.411 188.673C161.755 188.381 161.099 187.948 160.353 187.996C159.141 188.135 158.305 189.604 158.887 190.702C159.403 191.602 160.44 191.985 161.375 192.291C163.447 192.901 165.616 193.124 167.768 193.186C169.011 193.255 170.25 193.135 171.477 192.945C173.371 192.793 175.055 191.849 176.763 191.107C178.466 189.968 180.18 188.702 181.261 186.922C182.081 185.863 182.84 184.733 183.267 183.455C183.65 182.29 184.108 181.135 184.248 179.911C184.329 179.162 184.814 178.44 184.552 177.678C184.232 176.639 182.909 176.303 181.966 176.622ZM200.812 191.982C200.548 192.125 200.28 192.272 200.055 192.474C198.623 195.261 196.195 197.341 194.148 199.661C192.722 201.302 191.087 202.84 189.072 203.719C188.414 204.009 187.56 204.017 187.033 203.468C186.405 202.726 186.301 201.68 186.457 200.753C186.549 200.233 187.139 199.964 187.183 199.428C187.392 198.158 186.009 197.01 184.798 197.349C184.105 197.556 183.701 198.216 183.349 198.799C182.659 200.257 182.529 201.976 182.958 203.528C183.277 204.507 183.865 205.388 184.56 206.141C185.834 207.44 187.817 207.763 189.545 207.43C190.892 207.077 192.122 206.363 193.23 205.534C196.624 202.89 199.287 199.48 202.035 196.207C202.613 195.441 203.332 194.632 203.3 193.611C203.247 192.44 201.886 191.629 200.812 191.982ZM152.218 194.949C151.386 195.286 150.637 196.226 150.974 197.162C151.346 198.192 151.931 199.25 151.619 200.383C151.376 201.256 150.936 202.346 149.927 202.521C149.132 202.531 148.32 202.435 147.577 202.14C145.766 201.472 144.167 200.34 142.7 199.105C141.83 198.348 140.92 197.622 140.216 196.7C139.546 195.877 138.641 195.011 137.485 195.17C137.004 195.135 136.722 195.561 136.413 195.852C135.778 196.41 135.88 197.428 136.34 198.063C136.787 198.66 137.347 199.158 137.87 199.686C140.084 201.825 142.475 203.861 145.288 205.166C146.877 205.878 148.648 206.414 150.403 206.108C152.195 205.821 153.828 204.647 154.604 202.999C155.099 201.891 155.413 200.668 155.337 199.45C155.184 198.175 154.894 196.889 154.284 195.751C153.913 195.025 152.97 194.759 152.218 194.949ZM176.969 196.979C175.853 197.482 175.621 198.791 174.963 199.707C173.642 201.505 171.876 203.093 169.711 203.769C168.192 204.176 166.538 204.012 165.128 203.317C164.438 203.033 163.887 202.487 163.179 202.245C161.87 201.834 160.476 203.364 160.979 204.63C161.372 205.481 162.235 205.976 163.061 206.338C164.562 206.973 166.117 207.58 167.763 207.66C168.391 207.665 169.011 207.547 169.635 207.506C170.939 207.452 172.127 206.834 173.221 206.177C174.705 205.295 176.176 204.288 177.191 202.866C177.794 201.94 178.39 201.008 178.981 200.079C179.446 199.669 179.874 199.155 179.763 198.485C179.719 197.154 178.081 196.49 176.969 196.979Z" fill="#FFCA05"/>
<path d="M217.763 121.856C217.62 122.182 217.508 122.615 217.784 122.911C217.842 122.56 217.849 122.199 217.763 121.856Z" fill="#FFCA05"/>
<path d="M283.075 12.6224C285.156 12.2641 287.357 12.7025 289.135 13.8463C290.978 14.9854 292.229 16.8457 293.098 18.7924C294.451 21.8609 295.095 25.1902 295.471 28.507C296.041 34.036 295.9 39.6844 294.625 45.1112C294.685 45.0924 294.808 45.0578 294.869 45.0405C295.909 41.078 296.857 37.0888 297.672 33.0728C298.253 30.108 298.796 27.1244 298.976 24.103C299.077 22.4595 299.62 20.8271 300.621 19.5088C301.932 17.7161 303.988 16.5707 306.135 16.1104C310.623 15.141 315.647 16.9761 318.286 20.7768C320.128 23.3535 320.69 26.6483 320.386 29.7561C319.774 37.4344 316.126 44.5597 311.364 50.4862C312.919 49.2403 314.41 47.9189 315.916 46.6133C318.92 43.9674 321.88 41.2634 324.63 38.3504C325.669 37.1862 327.192 36.4682 328.757 36.4415C330.662 36.3723 332.516 37.1768 333.949 38.4007C335.622 39.8179 336.729 41.8243 337.239 43.9438V49.0093C336.622 51.96 335.044 54.6231 333.119 56.9061C329.695 60.9346 325.236 63.912 320.656 66.4667C320.631 66.5217 320.581 66.6332 320.555 66.6882C319.643 72.024 317.614 77.256 314.2 81.4966C311.282 85.1276 307.253 87.8835 302.745 89.0995C302.36 91.5396 301.43 93.9388 299.758 95.7881C297.714 98.148 294.773 99.5667 291.744 100.158H284.718C279.516 99.2556 274.588 96.4432 271.456 92.1476C269.402 89.2488 267.93 85.8236 267.771 82.2398C267.62 79.1053 268.652 75.9535 270.571 73.4804C270.927 73.0829 270.723 72.5142 270.711 72.0397C270.41 69.254 268.747 66.8579 266.89 64.8562C264.735 62.5466 262.263 60.5732 259.939 58.4443C258.338 57.0003 256.81 55.4386 255.641 53.616C253.415 50.1626 253.29 45.4097 255.497 41.9186C256.66 40.0489 258.608 38.66 260.794 38.3112C263.208 37.8854 265.665 38.6097 267.785 39.7409C271.128 41.5682 273.866 44.3036 276.319 47.1805C277.266 41.9752 277.642 36.5561 276.474 31.354C276.085 29.6524 275.369 28.0372 275.09 26.3073C274.553 23.3771 274.782 20.2112 276.247 17.5716C277.617 15.0027 280.188 13.0796 283.075 12.6224ZM282.139 17.1615C280.477 18.0367 279.407 19.7728 279.053 21.5844C278.609 23.7589 279.025 26.0088 279.75 28.0749C281.144 32.2527 281.417 36.7227 281.161 41.0937C280.934 44.643 280.366 48.1703 279.469 51.6112C279.038 53.1415 278.559 54.6593 278.096 56.1802C276.176 53.6962 274.432 51.0629 272.306 48.7391C270.191 46.4263 267.865 44.1779 264.969 42.8817C263.679 42.3302 262.18 41.983 260.818 42.4874C259.677 42.9037 258.871 43.925 258.43 45.0248C257.76 46.7531 257.801 48.7469 258.535 50.4485C259.224 51.9961 260.405 53.2468 261.58 54.4346C264.916 57.6398 268.728 60.3925 271.544 64.1036C273.428 66.5563 274.74 69.5368 274.815 72.6634C275.062 75.0485 276.037 77.3298 277.415 79.2797C278.082 80.1595 277.791 81.5642 276.851 82.1314C276.022 82.6954 274.798 82.4927 274.18 81.7119C273.459 80.7314 272.86 79.6662 272.326 78.5726C271.654 80.5178 271.662 82.6546 272.229 84.6248C273.089 87.6179 274.797 90.3911 277.2 92.3896C279.416 94.2672 282.134 95.51 284.974 96.0819C288.146 96.7025 291.609 96.5171 294.479 94.9192C296.393 93.8712 297.834 92.0455 298.433 89.948C297.868 89.9873 297.305 90.0564 296.738 90.0627C295.741 90.0737 294.812 89.241 294.753 88.237C294.594 87.1026 295.595 85.9933 296.733 86.0122C301.306 85.8016 305.891 84.1299 309.218 80.9231C311.53 78.7675 313.238 76.0383 314.489 73.1521C315.721 70.2155 316.567 67.0952 316.788 63.912C319.094 62.7273 321.359 61.4546 323.503 59.995C326.132 58.1882 328.639 56.1362 330.595 53.5956C332.101 51.6143 333.321 49.2764 333.431 46.7437C333.534 44.7687 332.792 42.6963 331.244 41.4205C330.493 40.8093 329.504 40.3238 328.515 40.5438C327.785 40.7025 327.399 41.3922 326.886 41.862C322.473 46.376 317.699 50.5129 312.849 54.543C311.447 55.7418 309.19 55.7418 307.798 54.5305C306.206 53.2389 305.93 50.6622 307.24 49.0769C309.474 46.5127 311.428 43.6956 312.98 40.6679C314.925 36.9034 316.242 32.757 316.401 28.5007C316.467 26.8133 316.162 25.0755 315.294 23.6096C313.525 20.5348 309.447 19.1632 306.135 20.3117C305.063 20.7092 304.059 21.4178 303.535 22.4611C302.948 23.4824 303.021 24.6922 302.908 25.825C302.576 29.1732 301.94 32.4821 301.249 35.7737C300.504 39.2397 299.676 42.6885 298.777 46.1184C298.587 46.8694 298.168 47.556 297.601 48.0808C296.358 49.2623 294.393 49.4194 292.864 48.7501C291.574 48.1766 290.643 46.8709 290.549 45.4585C290.458 44.4419 290.896 43.4882 291.039 42.4968C291.821 38.3127 291.894 34.0156 291.533 29.7812C291.208 26.565 290.676 23.3111 289.355 20.3369C288.801 19.1553 288.091 17.9612 286.95 17.2621C285.526 16.3414 283.608 16.3366 282.139 17.1615Z" fill="black"/>
<path d="M280.488 54.8541C281.171 54.6451 281.879 54.8934 282.554 55.0144C285.837 55.7764 289.03 57.3539 291.274 59.9196C292.9 61.7626 293.913 64.1099 294.22 66.5437C294.55 69.0717 294.203 71.6437 293.52 74.0869C293.332 74.9118 292.566 75.5418 291.731 75.6188C290.767 75.7225 289.794 75.0265 289.59 74.0775C289.381 73.3516 289.764 72.6524 289.882 71.9485C290.505 69.2603 290.555 66.242 289.107 63.8004C287.336 60.8749 283.972 59.332 280.709 58.7899C279.824 58.6579 279.111 57.8551 279.052 56.9673C278.954 56.0372 279.592 55.1102 280.488 54.8541Z" fill="black"/>
<path d="M282.139 17.1615C283.608 16.3366 285.526 16.3414 286.95 17.2621C288.091 17.9612 288.801 19.1553 289.355 20.3369C290.676 23.3111 291.208 26.565 291.533 29.7812C291.894 34.0156 291.821 38.3127 291.039 42.4968C290.896 43.4882 290.458 44.4419 290.549 45.4585C290.643 46.8709 291.574 48.1766 292.864 48.7501C294.393 49.4194 296.358 49.2623 297.601 48.0808C298.168 47.556 298.587 46.8694 298.777 46.1184C299.676 42.6885 300.504 39.2397 301.249 35.7737C301.94 32.4821 302.576 29.1732 302.908 25.825C303.021 24.6922 302.948 23.4824 303.535 22.4611C304.059 21.4178 305.063 20.7092 306.135 20.3117C309.447 19.1632 313.525 20.5348 315.294 23.6096C316.162 25.0755 316.467 26.8133 316.401 28.5007C316.242 32.757 314.925 36.9034 312.98 40.6679C311.428 43.6956 309.474 46.5127 307.24 49.0769C305.93 50.6622 306.206 53.2389 307.798 54.5305C309.19 55.7418 311.447 55.7418 312.849 54.543C317.699 50.5129 322.473 46.376 326.886 41.862C327.399 41.3922 327.785 40.7025 328.515 40.5438C329.504 40.3238 330.493 40.8093 331.244 41.4205C332.792 42.6963 333.534 44.7687 333.431 46.7437C333.321 49.2764 332.101 51.6143 330.595 53.5956C328.639 56.1362 326.132 58.1882 323.503 59.995C321.359 61.4546 319.094 62.7273 316.788 63.912C316.567 67.0952 315.721 70.2155 314.489 73.1521C313.238 76.0383 311.53 78.7675 309.218 80.9231C305.891 84.1299 301.306 85.8016 296.733 86.0122C295.595 85.9933 294.594 87.1026 294.753 88.237C294.812 89.241 295.741 90.0737 296.738 90.0627C297.305 90.0564 297.868 89.9873 298.433 89.948C297.834 92.0455 296.393 93.8712 294.479 94.9192C291.609 96.5171 288.146 96.7025 284.974 96.0819C282.134 95.51 279.416 94.2672 277.2 92.3896C274.797 90.3911 273.089 87.6179 272.229 84.6248C271.662 82.6546 271.654 80.5178 272.326 78.5726C272.86 79.6662 273.459 80.7314 274.18 81.7119C274.798 82.4927 276.022 82.6954 276.851 82.1314C277.791 81.5642 278.082 80.1595 277.415 79.2797C276.037 77.3298 275.062 75.0485 274.815 72.6634C274.74 69.5368 273.428 66.5563 271.544 64.1036C268.728 60.3925 264.916 57.6398 261.58 54.4346C260.405 53.2468 259.224 51.9961 258.535 50.4485C257.801 48.7469 257.76 46.7531 258.43 45.0248C258.871 43.925 259.677 42.9037 260.818 42.4874C262.18 41.983 263.679 42.3302 264.969 42.8817C267.865 44.1779 270.191 46.4263 272.306 48.7391C274.432 51.0629 276.176 53.6962 278.096 56.1802C278.559 54.6593 279.038 53.1415 279.469 51.6112C280.366 48.1703 280.934 44.643 281.161 41.0937C281.417 36.7227 281.144 32.2527 279.75 28.0749C279.025 26.0088 278.609 23.7589 279.053 21.5844C279.407 19.7728 280.477 18.0367 282.139 17.1615ZM280.488 54.8541C279.592 55.1102 278.954 56.0372 279.052 56.9673C279.111 57.8551 279.824 58.6579 280.709 58.7899C283.972 59.332 287.336 60.8749 289.107 63.8004C290.555 66.242 290.505 69.2603 289.882 71.9485C289.764 72.6524 289.381 73.3516 289.59 74.0775C289.794 75.0265 290.767 75.7225 291.731 75.6188C292.566 75.5418 293.332 74.9118 293.52 74.0869C294.203 71.6437 294.55 69.0717 294.22 66.5437C293.913 64.1099 292.9 61.7626 291.274 59.9196C289.03 57.3539 285.837 55.7764 282.554 55.0144C281.879 54.8934 281.171 54.6451 280.488 54.8541Z" fill="white"/>
<path d="M51.4519 0.874869C53.4992 0.348524 55.7298 0.599913 57.6208 1.53634C60.0899 2.72101 61.9571 4.99922 62.7707 7.58852C63.7691 10.6837 63.4263 14.0634 62.3947 17.1052C61.3869 19.9694 61.0093 23.0175 60.9809 26.042C60.9603 29.1372 61.2921 32.2293 61.8655 35.2711C62.8165 34.1823 63.7849 33.106 64.8244 32.0989C67.1245 29.9008 69.7168 27.8724 72.772 26.8433C75.0879 26.0562 77.7561 26.0467 79.9266 27.2613C82.1651 28.4915 83.6248 30.8153 84.1635 33.2616V38.0993C83.6643 40.6509 82.0877 42.8332 80.2995 44.6636C76.704 48.4172 72.1544 51.2783 69.2224 55.6399C68.1213 57.3195 67.4136 59.2835 67.4388 61.304C69.1639 63.4267 70.2555 66.0615 70.4435 68.7891C70.6947 72.0901 69.6615 75.3614 68.0565 78.2178C65.1087 83.6226 59.4233 87.2458 53.3918 88.2592H46.422C43.3921 87.7155 40.4554 86.3078 38.3796 84.0123C36.6687 82.1378 35.634 79.7151 35.2912 77.2201C30.5094 75.9144 26.2441 72.9433 23.2742 69.0075C20.0784 64.8077 18.1621 59.7438 17.3028 54.5731C15.1259 53.4261 13.0264 52.1299 11.0265 50.697C7.8512 48.4109 4.89236 45.7226 2.77393 42.4137C1.16576 39.8904 0.124715 36.9146 0.312704 33.8964C0.446981 31.2379 1.58281 28.6046 3.5559 26.7852C5.03927 25.3821 7.05818 24.4661 9.12763 24.5463C10.6631 24.5855 12.1544 25.2816 13.197 26.3971C14.1117 27.3744 15.039 28.3422 16.0184 29.2551C19.448 32.5231 23.0072 35.6561 26.6722 38.6617C22.4606 33.5256 19.1732 27.4954 17.9189 20.942C17.4765 18.392 17.1906 15.7477 17.7498 13.1913C18.219 10.9446 19.3612 8.83289 21.0357 7.24915C23.4637 4.91909 26.9297 3.74227 30.2819 3.9858C32.5804 4.14606 34.8836 5.00864 36.5408 6.63324C38.021 8.03945 38.9056 10.0176 39.051 12.0412C39.2532 15.5151 39.9167 18.9403 40.6165 22.3435C41.3369 25.7985 42.1804 29.2252 43.0556 32.6441C43.122 32.8767 43.1725 33.1516 43.4379 33.2522C42.4948 29.197 42.1567 25.0176 42.291 20.8603C42.4016 17.3644 42.8044 13.8638 43.7112 10.4795C44.3226 8.26098 45.1519 6.05505 46.5437 4.19477C47.7427 2.58274 49.493 1.37136 51.4519 0.874869ZM51.9558 4.97093C50.8327 5.37787 49.9559 6.27187 49.3603 7.28214C48.2624 9.12356 47.6779 11.2117 47.2261 13.2888C46.4836 16.9103 46.2577 20.6246 46.3715 24.3137C46.4757 27.0114 46.7601 29.717 47.4425 32.3346C47.7332 33.4643 47.4615 34.7102 46.7475 35.6309C45.1993 37.7332 41.5865 37.8102 40.0036 35.7079C39.3227 34.8862 39.171 33.8068 38.8946 32.8138C37.9088 28.9503 36.9815 25.071 36.2217 21.1572C35.6467 18.194 35.1475 15.2072 34.9705 12.1905C34.8442 10.6272 33.7715 9.23197 32.3371 8.61293C28.8048 7.04803 24.1446 8.61293 22.4274 12.0994C21.1921 14.4499 21.448 17.2089 21.8445 19.7369C22.8792 25.7309 25.8855 31.2301 29.6863 35.931C30.2108 36.6129 30.8822 37.1974 31.2455 37.9893C31.6957 39.0137 31.7052 40.2313 31.2329 41.2479C30.6847 42.4923 29.4351 43.402 28.0734 43.5214C26.9818 43.644 25.8539 43.2936 25.0229 42.5803C22.7702 40.742 20.5602 38.8519 18.377 36.9319C15.5824 34.4384 12.7895 31.9308 10.2398 29.186C9.72951 28.6031 8.86539 28.4695 8.14661 28.6832C7.17982 28.944 6.38679 29.6165 5.75647 30.3675C4.59537 31.8318 4.18464 33.7832 4.45161 35.6121C4.81811 38.2909 6.30148 40.6681 8.04709 42.6824C11.2982 46.326 15.4703 49.0048 19.7514 51.2972C20.2063 51.558 20.7276 51.7277 21.132 52.0639C21.3311 54.7663 21.9898 57.4216 22.9298 59.9591C24.4811 64.1007 27.0039 68.0145 30.6721 70.5944C33.7241 72.7799 37.4539 73.8986 41.1868 74.1028C41.9751 74.0903 42.7792 74.5051 43.1062 75.2372C43.6354 76.1909 43.1741 77.5076 42.1836 77.9538C41.3811 78.3592 40.468 78.0622 39.6165 78.0528C40.141 79.8534 41.261 81.4952 42.8376 82.5416C45.1014 84.1223 47.9654 84.6203 50.6857 84.4883C54.6967 84.2778 58.6397 82.6768 61.5922 79.9539C63.469 78.2382 64.8228 76.0118 65.6948 73.6425C66.4973 71.4287 66.6885 68.9384 65.8828 66.6963C65.3409 67.771 64.7564 68.8347 64.025 69.7962C63.3489 70.684 61.8845 70.8316 61.082 70.035C60.3395 69.4192 60.1815 68.2533 60.7171 67.4583C62.0867 65.5226 63.0819 63.2821 63.3663 60.9206C63.4184 58.8561 63.9603 56.812 64.9097 54.9769C66.3599 52.1707 68.5604 49.8344 70.889 47.7274C73.238 45.5545 75.7972 43.5952 77.9536 41.2212C78.7987 40.2518 79.6012 39.1975 79.9962 37.9579C80.5522 36.2107 80.4669 34.2326 79.617 32.5923C79.1352 31.6574 78.3295 30.853 77.3059 30.534C76.1068 30.1522 74.813 30.3958 73.663 30.8278C71.6741 31.6244 69.9317 32.9206 68.3646 34.3567C67.8622 35.0669 67.066 35.4817 66.5305 36.1636C64.1198 38.679 62.1483 41.559 60.063 44.3353C59.8103 43.3203 59.4628 42.332 59.1705 41.3265C58.3127 38.6052 57.7535 35.799 57.368 32.9756C56.6113 27.2141 56.6224 21.1949 58.5876 15.6581C59.2526 13.5763 59.5828 11.2996 58.9841 9.16127C58.5418 7.52724 57.4802 6.01734 55.951 5.23018C54.7346 4.59228 53.2402 4.4603 51.9558 4.97093Z" fill="black"/>
<path d="M56.2748 42.9683C56.9952 42.7971 57.8214 42.8269 58.3996 43.3439C59.3316 44.0666 59.3474 45.5765 58.4912 46.3652C57.8893 46.9764 56.9715 46.8994 56.2038 47.1288C53.3808 47.839 50.5515 49.3143 49.0112 51.8659C47.5784 54.2431 47.58 57.1765 48.1582 59.8114C48.2766 60.5467 48.6542 61.2553 48.5436 62.0142C48.4109 62.96 47.5215 63.7409 46.5547 63.7142C45.6638 63.744 44.8107 63.114 44.5801 62.2561C43.6607 59.0855 43.3352 55.632 44.3273 52.4378C45.1472 49.7197 46.9986 47.3676 49.343 45.7792C51.4124 44.3526 53.812 43.4413 56.2748 42.9683Z" fill="black"/>
<path d="M51.9558 4.97093C53.2402 4.4603 54.7346 4.59228 55.951 5.23018C57.4802 6.01734 58.5418 7.52724 58.9841 9.16127C59.5828 11.2996 59.2526 13.5763 58.5876 15.6581C56.6224 21.1949 56.6113 27.2141 57.368 32.9756C57.7535 35.799 58.3127 38.6052 59.1705 41.3265C59.4628 42.332 59.8103 43.3203 60.063 44.3353C62.1483 41.559 64.1198 38.679 66.5305 36.1636C67.066 35.4817 67.8622 35.0669 68.3646 34.3567C69.9317 32.9206 71.6741 31.6244 73.663 30.8278C74.813 30.3958 76.1068 30.1522 77.3059 30.534C78.3295 30.853 79.1352 31.6574 79.617 32.5923C80.4669 34.2326 80.5522 36.2107 79.9962 37.9579C79.6012 39.1975 78.7987 40.2518 77.9536 41.2212C75.7972 43.5952 73.238 45.5545 70.889 47.7274C68.5604 49.8344 66.3599 52.1707 64.9097 54.9769C63.9603 56.812 63.4184 58.8561 63.3663 60.9206C63.0819 63.2821 62.0867 65.5226 60.7171 67.4583C60.1815 68.2533 60.3395 69.4192 61.082 70.035C61.8845 70.8316 63.3489 70.684 64.025 69.7962C64.7564 68.8347 65.3409 67.771 65.8828 66.6963C66.6885 68.9384 66.4973 71.4287 65.6948 73.6425C64.8228 76.0118 63.469 78.2382 61.5922 79.9539C58.6397 82.6768 54.6967 84.2778 50.6857 84.4883C47.9654 84.6203 45.1014 84.1223 42.8376 82.5416C41.261 81.4952 40.141 79.8534 39.6165 78.0528C40.468 78.0622 41.3811 78.3592 42.1836 77.9538C43.1741 77.5076 43.6354 76.1909 43.1062 75.2372C42.7792 74.5051 41.9751 74.0903 41.1868 74.1028C37.4539 73.8986 33.7241 72.7799 30.6721 70.5944C27.0039 68.0145 24.4811 64.1007 22.9298 59.9591C21.9898 57.4216 21.3311 54.7663 21.132 52.0639C20.7276 51.7277 20.2063 51.558 19.7514 51.2972C15.4703 49.0048 11.2982 46.326 8.04709 42.6824C6.30148 40.6681 4.81811 38.2909 4.45161 35.6121C4.18464 33.7832 4.59537 31.8318 5.75647 30.3675C6.38679 29.6165 7.17982 28.944 8.14661 28.6832C8.86539 28.4695 9.72951 28.6031 10.2398 29.186C12.7895 31.9308 15.5824 34.4384 18.377 36.9319C20.5602 38.8519 22.7702 40.742 25.0229 42.5803C25.8539 43.2936 26.9818 43.644 28.0734 43.5214C29.4351 43.402 30.6847 42.4923 31.2329 41.2479C31.7052 40.2313 31.6957 39.0137 31.2455 37.9893C30.8822 37.1974 30.2108 36.6129 29.6863 35.931C25.8855 31.2301 22.8792 25.7309 21.8445 19.7369C21.448 17.2089 21.1921 14.4499 22.4274 12.0994C24.1446 8.61293 28.8048 7.04803 32.3371 8.61293C33.7715 9.23197 34.8442 10.6272 34.9705 12.1905C35.1475 15.2072 35.6467 18.194 36.2217 21.1572C36.9815 25.071 37.9088 28.9503 38.8946 32.8138C39.171 33.8068 39.3227 34.8862 40.0036 35.7079C41.5865 37.8102 45.1993 37.7332 46.7475 35.6309C47.4615 34.7102 47.7332 33.4643 47.4425 32.3346C46.7601 29.717 46.4757 27.0114 46.3715 24.3137C46.2577 20.6246 46.4836 16.9103 47.2261 13.2888C47.6779 11.2117 48.2624 9.12356 49.3603 7.28214C49.9559 6.27187 50.8327 5.37787 51.9558 4.97093ZM56.2748 42.9683C53.812 43.4413 51.4124 44.3526 49.343 45.7792C46.9986 47.3676 45.1472 49.7197 44.3273 52.4378C43.3352 55.632 43.6607 59.0855 44.5801 62.2561C44.8107 63.114 45.6638 63.744 46.5547 63.7142C47.5215 63.7409 48.4109 62.96 48.5436 62.0142C48.6542 61.2553 48.2766 60.5467 48.1582 59.8114C47.58 57.1765 47.5784 54.2431 49.0112 51.8659C50.5515 49.3143 53.3808 47.839 56.2038 47.1288C56.9715 46.8994 57.8893 46.9764 58.4912 46.3652C59.3474 45.5765 59.3316 44.0666 58.3996 43.3439C57.8214 42.8269 56.9952 42.7971 56.2748 42.9683Z" fill="white"/>
<path d="M183.557 36.5635C187.29 34.3673 192.401 34.8961 195.608 37.8033C198.584 40.4579 200.13 44.3126 201.02 48.1129C202.218 53.4058 202.29 58.9014 201.734 64.281C201.454 67.2014 200.788 70.0645 200.167 72.9262C200.708 73.4535 201.282 73.9456 201.818 74.4804C202.284 74.9505 202.821 75.3853 203.074 76.0184V77.3435C202.662 78.601 200.948 79.1533 199.914 78.2969C199.128 77.5683 198.406 76.7647 197.554 76.1095C195.631 74.6963 193.635 73.3654 191.486 72.3194C188.874 71.0517 185.952 70.2672 183.032 70.5596C180.321 70.8475 177.693 71.8626 175.469 73.4344C174.992 73.7782 174.401 74.0088 173.805 73.9075C172.943 73.8017 172.225 73.0716 172.098 72.2196C171.951 71.4483 172.334 70.6389 172.978 70.2055C173.739 69.6737 174.539 69.2007 175.345 68.7394C174.976 65.0111 174.793 61.2563 175.007 57.5117C175.227 53.5439 175.781 49.5628 177.035 45.7801C177.525 44.2567 178.189 42.7921 178.976 41.401C180.106 39.4721 181.604 37.6961 183.557 36.5635ZM183.634 41.7844C181.926 43.8498 181 46.428 180.325 48.9855C178.847 54.916 178.745 61.1079 179.285 67.1691C180.734 66.743 182.239 66.4962 183.751 66.4522C183.447 64.8113 183.287 63.1469 183.204 61.481C183.203 61.2518 183.163 61.0124 183.235 60.7906C183.538 60.5026 183.977 60.4439 184.374 60.3807C185.905 60.2059 187.465 60.2397 188.971 59.8768C189.647 59.7094 190.323 59.4508 190.848 58.9793C191.443 58.4431 191.742 57.5808 191.54 56.7963C191.33 56.0001 190.787 55.3449 190.195 54.794C188.615 53.3382 186.651 52.4039 184.959 51.098C184.537 50.7131 183.913 50.2562 184.105 49.5996C184.858 46.0049 186.033 42.4543 187.961 39.3061C186.251 39.5015 184.711 40.4696 183.634 41.7844Z" fill="black"/>
<path d="M144.924 37.6535C146.632 36.28 148.789 35.4514 150.988 35.4265C153.63 35.3486 156.323 36.2521 158.278 38.0501C160.51 40.0509 161.85 42.845 162.666 45.6846C163.661 49.1897 163.929 52.8593 163.862 56.4878C163.787 59.7432 163.411 62.9882 162.781 66.1819C162.296 68.8232 161.464 71.3822 160.713 73.9559C161.535 74.808 162.344 75.6762 163.08 76.6046C163.792 77.5521 163.401 78.98 162.399 79.5544H160.432C159.302 78.6715 158.587 77.3523 157.408 76.5091C154.354 73.9383 150.972 71.513 147.014 70.6022C143.332 69.7678 139.394 70.6169 136.181 72.528C135.839 72.7161 135.495 72.9262 135.102 72.9761C134.283 73.0951 133.418 72.6705 133.025 71.9404C132.501 71.0414 132.835 69.7751 133.73 69.2448C134.553 68.7527 135.416 68.3222 136.284 67.9124C136.128 62.5578 136.46 57.1665 137.597 51.9206C138.24 48.9738 139.144 46.068 140.487 43.3621C141.603 41.2159 143.002 39.1592 144.924 37.6535ZM148.783 40.0348C147.2 40.7487 146.001 42.0943 145.067 43.5237C143.344 46.2576 142.345 49.3748 141.631 52.5038C140.6 57.1298 140.25 61.885 140.328 66.6167C141.806 66.295 143.323 66.1878 144.834 66.2245C144.644 64.3647 144.603 62.4932 144.693 60.626C145.055 60.2603 145.599 60.2573 146.079 60.2279C147.943 60.1648 149.879 60.4233 151.671 59.777C152.614 59.4552 153.374 58.5577 153.363 57.5367C153.341 56.4996 152.655 55.6431 151.977 54.9204C150.894 53.8392 149.635 52.9592 148.421 52.0337C147.807 51.571 147.197 51.0877 146.707 50.4898C146.479 50.2078 146.301 49.8258 146.46 49.4674C147.488 45.9344 148.906 42.4587 151.096 39.4751C150.3 39.5177 149.507 39.694 148.783 40.0348Z" fill="black"/>
<path d="M183.634 41.7844C184.711 40.4696 186.251 39.5015 187.961 39.3061C186.033 42.4543 184.858 46.0049 184.105 49.5996C183.913 50.2562 184.537 50.7131 184.959 51.098C186.651 52.4039 188.615 53.3382 190.195 54.794C190.787 55.3449 191.33 56.0001 191.54 56.7963C191.742 57.5808 191.443 58.4431 190.848 58.9793C190.323 59.4508 189.647 59.7094 188.971 59.8768C187.465 60.2397 185.905 60.2059 184.374 60.3807C183.977 60.4439 183.538 60.5026 183.235 60.7906C183.163 61.0124 183.203 61.2518 183.204 61.481C183.287 63.1469 183.447 64.8113 183.751 66.4522C182.239 66.4962 180.734 66.743 179.285 67.1691C178.745 61.1079 178.847 54.916 180.325 48.9855C181 46.428 181.926 43.8498 183.634 41.7844Z" fill="white"/>
<path d="M148.783 40.0348C149.507 39.694 150.3 39.5177 151.096 39.4751C148.906 42.4587 147.488 45.9344 146.46 49.4674C146.301 49.8258 146.479 50.2078 146.707 50.4898C147.197 51.0877 147.807 51.571 148.421 52.0337C149.635 52.9592 150.894 53.8392 151.977 54.9204C152.655 55.6431 153.341 56.4996 153.363 57.5367C153.374 58.5577 152.614 59.4552 151.671 59.777C149.879 60.4233 147.943 60.1648 146.079 60.2279C145.599 60.2573 145.055 60.2603 144.693 60.626C144.603 62.4932 144.644 64.3647 144.834 66.2245C143.323 66.1878 141.806 66.295 140.328 66.6167C140.25 61.885 140.6 57.1298 141.631 52.5038C142.345 49.3748 143.344 46.2576 145.067 43.5237C146.001 42.0943 147.2 40.7487 148.783 40.0348Z" fill="white"/>
<path d="M151.273 89.7218C151.505 88.7074 152.621 87.9842 153.646 88.2691C154.64 88.4664 155.354 89.5136 155.151 90.5076C154.811 92.1981 153.826 93.7228 152.517 94.8404C154.638 96.5952 156.942 98.159 159.483 99.2469C162.944 100.776 166.808 101.363 170.571 100.939C174.799 100.527 178.801 98.8618 182.375 96.6312C180.941 95.3304 179.925 93.5302 179.752 91.5923C179.699 90.9083 179.662 90.1444 180.1 89.5652C180.595 88.8483 181.586 88.5462 182.405 88.8514C183.193 89.1488 183.764 89.9628 183.692 90.8128C183.644 92.4016 184.794 93.8418 186.224 94.4475C187.781 95.0972 189.708 94.7606 190.938 93.6023C191.325 93.2407 191.69 92.7961 192.235 92.6724C193.046 92.422 193.948 92.7789 194.432 93.4567V95.6654C192.758 97.7489 190.014 98.8571 187.354 98.7209C187.225 102.296 186.655 105.85 185.811 109.325C184.525 114.446 182.55 119.54 179.105 123.627C176.756 126.448 173.506 128.569 169.878 129.32H163.159C162.018 129.059 160.898 128.694 159.848 128.174C156.959 126.786 154.651 124.41 152.947 121.741C150.793 118.328 149.488 114.46 148.603 110.55C147.625 106.103 147.16 101.546 147.175 96.9959C145.772 97.1071 144.353 97.0523 142.966 96.8222C141.96 96.6375 141.275 95.5683 141.457 94.5837C141.61 93.6132 142.566 92.8337 143.561 92.9495C145.184 93.1201 146.886 93.2735 148.45 92.699C149.796 92.2294 150.933 91.118 151.273 89.7218ZM168.13 105.02C163.489 105.054 158.902 103.694 154.904 101.384C154.863 102.104 154.821 102.824 154.781 103.545C156.161 104.023 157.568 104.414 158.984 104.763C166.624 106.654 174.602 107.146 182.421 106.26C182.793 104.422 183.073 102.569 183.257 100.703C178.703 103.404 173.456 105.036 168.13 105.02ZM151.816 106.153C152.281 109.181 152.972 112.188 154.055 115.06C155.499 114.1 157.138 113.418 158.861 113.163C161.783 112.712 164.791 113.409 167.395 114.742C167.579 114.833 167.822 115.005 167.987 114.781C169.477 113.51 171.194 112.504 173.04 111.834C175.591 110.901 178.442 110.851 181.045 111.608C181.176 111.181 181.306 110.754 181.438 110.326C171.643 111.228 161.632 110.129 152.336 106.897C152.275 106.582 152.056 106.354 151.816 106.153ZM173.007 116.139C171.714 116.835 170.478 117.694 169.522 118.817C168.299 120.573 167.365 122.505 166.353 124.382C165.791 125.446 164.21 125.671 163.334 124.864C162.719 124.327 162.484 123.389 162.821 122.641C163.561 121.083 164.422 119.585 165.271 118.083C163.989 117.508 162.627 117.067 161.215 116.987C159.267 116.854 157.239 117.46 155.767 118.754C156.293 119.623 156.831 120.489 157.483 121.271C158.989 123.162 161.037 124.679 163.402 125.304C166.691 126.177 170.373 125.614 173.185 123.679C176.175 121.663 178.151 118.521 179.61 115.301C177.398 114.739 175.013 115.065 173.007 116.139Z" fill="black"/>
<path d="M168.13 105.02C173.456 105.036 178.703 103.404 183.257 100.703C183.073 102.569 182.793 104.422 182.421 106.26C174.602 107.146 166.624 106.654 158.984 104.763C157.568 104.414 156.161 104.023 154.781 103.545C154.821 102.824 154.863 102.104 154.904 101.384C158.902 103.694 163.489 105.054 168.13 105.02Z" fill="#FFF7F4"/>
<path d="M151.816 106.153C152.056 106.354 152.275 106.582 152.336 106.897C161.632 110.129 171.643 111.228 181.438 110.326C181.306 110.754 181.176 111.181 181.045 111.608C178.442 110.851 175.591 110.901 173.04 111.834C171.194 112.504 169.477 113.51 167.987 114.781C167.822 115.005 167.579 114.833 167.395 114.742C164.791 113.409 161.783 112.712 158.861 113.163C157.138 113.418 155.499 114.1 154.055 115.06C152.972 112.188 152.281 109.181 151.816 106.153Z" fill="#C24255"/>
<path d="M173.007 116.139C175.013 115.065 177.398 114.739 179.61 115.301C178.151 118.521 176.175 121.663 173.185 123.679C170.373 125.614 166.691 126.177 163.402 125.304C161.037 124.679 158.989 123.162 157.483 121.271C156.831 120.489 156.293 119.623 155.767 118.754C157.239 117.46 159.267 116.854 161.215 116.987C162.627 117.067 163.989 117.508 165.271 118.083C164.422 119.585 163.561 121.083 162.821 122.641C162.484 123.389 162.719 124.327 163.334 124.864C164.21 125.671 165.791 125.446 166.353 124.382C167.365 122.505 168.299 120.573 169.522 118.817C170.478 117.694 171.714 116.835 173.007 116.139Z" fill="#F7B4C3"/>
<path d="M154.152 68.6589C158.434 66.2736 164.056 66.7125 168.001 69.5855C169.919 70.9873 171.402 73.0016 172.101 75.278C172.322 75.9504 172.04 76.6734 171.548 77.1455C171.072 77.4691 170.475 77.6774 169.905 77.4943C169.235 77.327 168.759 76.7413 168.58 76.0941C167.814 73.8998 165.969 72.1902 163.819 71.3757C161.104 70.3275 157.854 70.4995 155.397 72.1239C153.708 73.1989 152.604 75.0428 152.246 76.9955C151.893 78.9435 152.054 80.9878 152.704 82.8568C153.612 85.4221 155.69 87.5721 158.284 88.4325C160.186 89.0387 162.318 88.8145 164.101 87.9384C165.712 87.1412 166.873 85.662 167.614 84.0534C168.17 82.8663 170.004 82.7905 170.696 83.8908C170.997 84.3944 171.106 85.0306 170.858 85.5784C170.217 87.0275 169.292 88.3583 168.146 89.4522C166.421 91.1114 164.111 92.0506 161.754 92.3237H159.244C156.171 91.937 153.325 90.2384 151.408 87.82C149.417 85.3558 148.459 82.167 148.458 79.0177V78.9482C148.485 77.3838 148.704 75.8084 149.265 74.3403C150.145 71.9408 151.913 69.887 154.152 68.6589Z" fill="black"/>
<path d="M155.397 72.1239C157.854 70.4995 161.104 70.3275 163.819 71.3757C165.969 72.1902 167.814 73.8998 168.58 76.0941C168.759 76.7413 169.235 77.327 169.905 77.4943C170.475 77.6774 171.072 77.4691 171.548 77.1455C171.956 79.4139 171.665 81.7992 170.696 83.8908C170.004 82.7905 168.17 82.8663 167.614 84.0534C166.873 85.662 165.712 87.1412 164.101 87.9384C162.318 88.8145 160.186 89.0387 158.284 88.4325C155.69 87.5721 153.612 85.4221 152.704 82.8568C152.054 80.9878 151.893 78.9435 152.246 76.9955C152.604 75.0428 153.708 73.1989 155.397 72.1239Z" fill="#FFCA05"/>
</svg>
