<?xml version="1.0" encoding="utf-8"?>
<!-- Generator: Adobe Illustrator 26.5.0, SVG Export Plug-In . SVG Version: 6.00 Build 0)  -->
<svg version="1.1" id="Layer_1" xmlns="http://www.w3.org/2000/svg"
    xmlns:xlink="http://www.w3.org/1999/xlink" x="0px" y="0px"
    viewBox="0 0 400 400" style="enable-background:new 0 0 400 400;" xml:space="preserve">
<style type="text/css">
	.st0{fill-opacity:0;stroke:#000000;stroke-width:26;stroke-linecap:round;stroke-linejoin:round;}
	.st1{fill-opacity:0;stroke:#90A8ED;stroke-width:20;stroke-linecap:round;stroke-linejoin:round;}
	.st2{fill:#F1F333;stroke:#000000;stroke-width:3;stroke-miterlimit:10;}
	.st3{fill:#FFC900;stroke:#000000;stroke-miterlimit:10;}
	.st4{fill-opacity:0;stroke:#000000;stroke-width:3;stroke-linecap:round;stroke-linejoin:round;}
</style>
<g>
	<g transform="matrix(1,0,0,1,0,0)">
		<g transform="matrix(1,0,0,1,329.2156066894531,273.2033996582031)">
			
				<g transform="matrix(-0.17166933417320251,-0.7292032241821289,1.234702467918396,-0.5804815292358398,-12.354924201965332,-52.480255126953125)">
			</g>
			<g transform="matrix(1,0,0,1,0,0)">
				<g transform="matrix(1,0,0,1,0,0)">
				</g>
			</g>
			<g transform="matrix(1,0,0,1,0,0)">
				<g transform="matrix(1,0,0,1,-200,-200)">
				</g>
			</g>
			<g transform="matrix(1,0,0,1,-135,0)">
				<g transform="matrix(1,0,0,1,0,0)">
				</g>
			</g>
		</g>
		<g transform="matrix(1,0,0,1,0,0)">
			<g transform="matrix(1,0,0,1,329.2156066894531,273.2033996582031)">
				<path class="st0" d="M7.9,15.5C0.6,0.2-11.7-22.8-26.8-38.4C-50.6-63-78.4-66.6-79.7-66.8"/>
				<path class="st1" d="M7.9,15.5C0.6,0.2-11.7-22.8-26.8-38.4C-50.6-63-78.4-66.6-79.7-66.8"/>
				
					<g transform="matrix(-0.17166933417320251,-0.7292032241821289,1.234702467918396,-0.5804815292358398,-12.354924201965332,-52.480255126953125)">
				</g>
			</g>
		</g>
	</g>
	<g transform="matrix(1,0,0,1,0,0)">
		<g transform="matrix(1,0,0,1,329.2156066894531,273.2033996582031)">
			
				<g transform="matrix(-0.17166933417320251,-0.7292032241821289,1.234702467918396,-0.5804815292358398,-12.354924201965332,-52.480255126953125)">
			</g>
			<g transform="matrix(1,0,0,1,0,0)">
				<g transform="matrix(1,0,0,1,0,0)">
				</g>
			</g>
			<g transform="matrix(1,0,0,1,0,0)">
				<g transform="matrix(1,0,0,1,-200,-200)">
				</g>
			</g>
			<g transform="matrix(1,0,0,1,-135,0)">
				<g transform="matrix(1,0,0,1,0,0)">
				</g>
			</g>
		</g>
		<g transform="matrix(1,0,0,1,0,0)">
			<g transform="matrix(1,0,0,1,329.2156066894531,273.2033996582031)">
				<path class="st0" d="M-173.2-58.1c-17.4,4.7-43.2,13.6-58.5,27.3c-24.1,21.7-19.4,53.5-19.2,54.9"/>
				<path class="st1" d="M-173.2-58.1c-17.4,4.7-43.2,13.6-58.5,27.3c-24.1,21.7-19.4,53.5-19.2,54.9"/>
				
					<g transform="matrix(-0.17166933417320251,-0.7292032241821289,1.234702467918396,-0.5804815292358398,-12.354924201965332,-52.480255126953125)">
				</g>
			</g>
		</g>
	</g>
	
		<g transform="matrix(0.9945219159126282,-0.10452846437692642,0.10452846437692642,0.9945219159126282,43.65632629394531,26.1407470703125)">
		<g transform="matrix(1,0,0,1,130,148.05499267578125)">
			<path class="st2" d="M70.5,55.8C59.4,41.2,60.8,9,73.1-7.2C88-26.6,100.4-49.9,101.6-77c2.4-57.1-40.2-75.2-91.1-76.1
				c-46.8-0.9-78.6,29-81,86.1c-1.2,27.1,6.4,51.2,19.6,68.7c11.1,14.6,9.7,46.8-2.7,63C-68.4,84-78,109.3-79.2,136.5
				c-2.4,57.1,33.5,100.6,80.2,97.3s86.6-52.2,89-109.3C91.2,97.3,83.7,73.3,70.5,55.8z"/>
		</g>
		<g>
			<path class="st3" d="M144.3,374.4l-2.2,0.2c-5.3,0.6-10.2-3.2-10.9-8.5l-3.5-29.1c-0.7-5.3,3.2-10.2,8.5-10.8l2.2-0.3
				c5.3-0.6,10.2,3.2,10.9,8.5l3.5,29.1C153.5,368.8,149.6,373.7,144.3,374.4z"/>
			<path class="st3" d="M175.4,342.3l-2.1,0.2c-5.1,0.6-9.9-3.1-10.5-8.2l-3.4-28.1c-0.6-5.1,3.1-9.8,8.2-10.5l2.1-0.3
				c5.1-0.6,9.9,3.1,10.5,8.2l3.4,28.1C184.2,336.9,180.5,341.7,175.4,342.3z"/>
			<path class="st3" d="M201.2,302.7l-2.1,0.2c-5.1,0.6-9.9-3.1-10.5-8.2l-3.4-28.1c-0.6-5.1,3.1-9.8,8.2-10.5l2.1-0.3
				c5.1-0.6,9.9,3.1,10.5,8.2l3.4,28.1C210,297.3,206.3,302.1,201.2,302.7z"/>
			<path class="st3" d="M109.2,340.9l-2.2,0.2c-5.3,0.6-10.2-3.2-10.9-8.5l-3.5-29.1c-0.7-5.3,3.2-10.2,8.5-10.8l2.2-0.3
				c5.3-0.6,10.2,3.2,10.9,8.5l3.5,29.1C118.3,335.3,114.4,340.3,109.2,340.9z"/>
			<path class="st3" d="M139.2,308.7l-2.2,0.2c-5.3,0.6-10.2-3.2-10.9-8.5l-3.5-29.1c-0.7-5.3,3.2-10.2,8.5-10.8l2.2-0.3
				c5.3-0.6,10.2,3.2,10.9,8.5l3.5,29.1C148.4,303.1,144.5,308.1,139.2,308.7z"/>
			<path class="st3" d="M165.9,267.8l-2.2,0.2c-5.3,0.6-10.2-3.2-10.9-8.5l-3.5-29.1c-0.7-5.3,3.2-10.2,8.5-10.8l2.2-0.3
				c5.3-0.6,10.2,3.2,10.9,8.5l3.5,29.1C175.1,262.3,171.2,267.2,165.9,267.8z"/>
		</g>
	</g>
	<g>
		
			<g transform="matrix(0.9945219159126282,-0.10452846437692642,0.10452846437692642,0.9945219159126282,72.7201919555664,15.6641845703125)">
			<g transform="matrix(1,0,0,1,130,229.57699584960938)">
				<path class="st4" d="M-32.8-87.9c5.2-8.2,13.2-13.5,22.4-13.7S7.2-97,13.2-89.2"/>
			</g>
		</g>
		
			<g transform="matrix(0.9945219159126282,-0.10452846437692642,0.10452846437692642,0.9945219159126282,72.720458984375,15.664337158203125)">
			<g transform="matrix(1,0,0,1,0,0)">
				<g transform="matrix(1,0,0,1,100.62699890136719,212.38099670410156)">
					<path d="M-20.5-92.9c0,2.1-1.7,3.7-3.8,3.7s-3.8-1.7-3.8-3.7c0-2.1,1.7-3.7,3.8-3.7C-22.2-96.7-20.5-95-20.5-92.9z"/>
				</g>
				<g transform="matrix(1,0,0,1,159.3730010986328,212.38099670410156)">
					<path d="M6.4-92.9c0,2.1-1.7,3.7-3.8,3.7c-2.1,0-3.8-1.7-3.8-3.7c0-2.1,1.7-3.7,3.8-3.7C4.7-96.6,6.4-94.9,6.4-92.9z"/>
				</g>
			</g>
		</g>
	</g>
</g>
</svg>