<svg width="148" height="180" viewBox="0 0 148 180" fill="none" xmlns="http://www.w3.org/2000/svg">
<g clip-path="url(#clip0_1829_13397)">
<path fill-rule="evenodd" clip-rule="evenodd" d="M71.3803 152.077C73.6156 152.077 75.9612 152.089 78.1268 152.1C78.9048 152.1 79.7815 152.095 80.484 152.124C81.0239 152.147 81.68 152.1 82.1445 152.147H83.5321C84.5771 152.218 85.837 152.13 86.8589 152.229C87.4453 152.235 88.0317 152.241 88.6123 152.253C90.1392 152.405 91.9971 152.27 93.5066 152.417C94.2614 152.44 95.0162 152.458 95.771 152.481C96.2528 152.528 96.8102 152.493 97.3443 152.546C99.1384 152.727 101.17 152.657 102.935 152.838C103.818 152.926 104.648 152.874 105.525 152.961C106.251 153.038 107.063 153.026 107.836 153.108C110.007 153.342 112.376 153.383 114.489 153.629C114.936 153.682 115.29 153.659 115.737 153.711C117.439 153.91 119.209 153.992 120.911 154.209C122.333 154.391 123.831 154.502 125.253 154.707C128.511 155.187 131.762 155.609 134.723 156.183C139.205 157.056 143.525 158.022 146.085 159.762C147.066 160.43 148.018 161.513 147.24 162.591C146.114 164.161 143.42 165.074 140.587 165.877C138.77 166.392 136.743 166.849 134.676 167.253C133.318 167.517 131.884 167.71 130.519 167.962C130.084 168.044 129.683 168.062 129.225 168.126C128.058 168.302 126.775 168.472 125.573 168.647C123.819 168.905 122.037 168.999 120.214 169.227C118.118 169.497 115.784 169.602 113.607 169.854C112.695 169.959 111.755 169.965 110.884 170.065C109.775 170.182 108.625 170.182 107.557 170.293C106.175 170.44 104.666 170.405 103.307 170.545C100.903 170.656 98.5055 170.768 96.1019 170.879C93.3905 170.961 90.6792 171.043 87.9736 171.131C87.3117 171.137 86.6498 171.143 85.988 171.154C85.2797 171.225 84.3797 171.125 83.6308 171.195C83.2127 171.236 82.5857 171.172 82.1038 171.219C81.5871 171.271 80.8497 171.236 80.2575 171.242C79.0557 171.254 77.6507 171.231 76.3792 171.266C75.1541 171.295 73.8536 171.266 72.5937 171.266C71.8332 171.266 70.8694 171.312 70.1901 171.242H68.2973C66.602 171.213 64.9125 171.189 63.2172 171.16C61.905 171.031 60.3549 171.16 59.0601 171.037H58.3228C57.3532 170.943 56.1862 171.008 55.2282 170.914H54.6302C53.8348 170.832 52.9291 170.897 52.0872 170.809C51.495 170.75 50.8332 170.791 50.1945 170.727C48.4237 170.545 46.4323 170.598 44.6963 170.416C44.3421 170.405 43.988 170.387 43.6338 170.375C42.4204 170.246 41.0966 170.264 39.8484 170.123C38.7104 170 37.4679 169.989 36.2893 169.854C35.4359 169.754 34.5011 169.731 33.6128 169.626C31.3659 169.35 28.9797 169.21 26.8199 168.917C24.9562 168.665 23.1622 168.519 21.3681 168.249C16.915 167.581 12.6593 166.843 9.03636 165.812C6.86495 165.197 4.80965 164.5 3.44526 163.522C3.05627 163.241 2.71372 162.896 2.47568 162.568C1.95314 161.841 2.29569 160.933 2.84725 160.359C4.24648 158.907 6.9172 158.098 9.77371 157.302C13.0134 156.4 16.8976 155.744 20.8108 155.158C22.1171 154.965 23.4466 154.824 24.7356 154.637C26.9186 154.32 29.2468 154.186 31.482 153.91C32.022 153.869 32.5619 153.828 33.0961 153.787C35.6333 153.483 38.4549 153.424 41.085 153.143C43.4712 153.002 45.8575 152.868 48.2437 152.727C48.9695 152.657 49.7416 152.692 50.4151 152.622C51.4137 152.522 52.4646 152.592 53.4168 152.499C55.7856 152.423 58.1602 152.346 60.529 152.27C61.1328 152.212 61.7831 152.282 62.3289 152.229H63.2985C64.0126 152.159 64.9357 152.235 65.6557 152.165C67.0084 152.153 68.367 152.136 69.7198 152.124C70.0798 152.124 71.1597 152.165 71.3803 152.1V152.077Z" fill="#010101"/>
<path fill-rule="evenodd" clip-rule="evenodd" d="M139.745 82.6149C139.629 82.0936 139.71 81.6426 139.582 81.1564C139.304 80.0611 139.071 79.0244 138.659 78.0755C137.063 74.4088 133.666 72.6809 129.852 71.2224C128.272 70.6191 126.374 70.502 124.586 70.0451C124.092 69.9221 123.57 69.9514 123.099 69.8401C122.525 69.8108 121.944 69.7874 121.369 69.7581C121.166 69.7581 120.818 69.7112 120.684 69.7991C120.452 69.7874 120.458 69.7288 120.324 69.6351C120.394 69.3129 120.725 69.1958 120.847 68.9029C120.858 68.7975 120.876 68.6862 120.887 68.5808C121.056 68.1415 121.52 67.6026 121.77 67.2043C122.269 66.4077 122.681 65.6111 123.175 64.8086C123.459 64.3518 124.046 63.6723 124.179 63.1452C125.724 63.5142 125.817 62.0498 126.229 61.0365C126.757 59.7538 127.216 58.4183 127.756 57.1004C127.936 56.667 128.168 56.1808 128.319 55.7239C128.476 55.2436 128.098 54.8687 128.238 54.5056C128.441 53.9902 128.743 53.4337 128.963 52.9241C129.352 52.0221 129.643 51.0966 130.008 50.2063C130.757 48.3671 131.152 46.3463 131.779 44.4076C132.348 42.6386 132.522 40.7526 132.987 38.89C133.144 38.2515 133.08 37.6482 133.231 36.9805C133.411 36.178 133.324 35.1881 133.509 34.3447V33.3723C133.66 32.6812 133.608 31.1583 133.469 30.4905C133.295 29.6529 133.451 28.7392 133.266 27.9367C133.103 27.0171 132.946 26.0975 132.784 25.1779C132.563 24.3872 132.348 23.5203 132.139 22.7413C132.017 22.2844 132.035 21.9037 131.895 21.482C131.733 21.0017 131.367 20.7732 131.21 20.3046C130.723 18.8286 130.31 17.4463 129.724 16.0874C129.108 14.664 128.284 13.3461 127.471 12.1102C127.065 11.4894 126.699 10.8392 126.026 10.4878C125.869 10.4058 125.468 10.2125 125.219 10.3648C124.899 10.3179 124.51 9.67359 124.336 9.43344C123.947 8.91214 123.395 8.49041 123.006 7.97497C122.792 7.68796 122.536 7.28966 122.24 7.08465C121.799 6.76836 120.986 6.83864 120.713 7.24866C120.371 7.12565 120.109 6.7625 119.831 6.55749C119.256 6.14748 118.658 5.74918 118.06 5.38017C117.282 4.89987 116.399 4.63043 115.528 4.24385C114.617 3.83969 113.705 3.35939 112.713 3.02552C112.411 2.92595 112.149 2.94938 111.83 2.86152C111.023 2.63894 109.595 2.58622 108.695 2.77951C108.376 2.8498 107.929 2.70337 107.69 2.86152H107.168C107.702 1.54362 106.425 0.952026 105.2 0.952026H104.555C103.975 1.08089 103.388 1.07503 102.825 1.23318C101.397 1.63733 99.9918 2.07663 98.6449 2.53351C98.2791 2.65651 97.9598 2.6858 97.5998 2.81466C95.829 3.47654 94.0408 4.03298 92.5312 4.9643C90.6559 6.12405 88.8619 7.43023 87.1027 8.73642C86.4292 9.23429 85.8428 9.84931 85.1751 10.3589L84.5307 11.0091C83.8107 11.5597 83.2011 12.204 82.4812 12.7545C82.3767 12.8776 82.2664 13.0006 82.1619 13.1177C81.6451 13.516 80.8613 14.2599 80.4723 14.7812C79.7002 15.8121 78.8699 16.843 78.179 17.9441C77.6042 18.8637 77.0875 19.8126 76.5301 20.7439C75.9553 21.6987 75.578 22.7764 75.1251 23.8249C73.9117 26.6071 72.913 29.6705 71.9086 32.7105C71.5196 33.8878 71.3222 35.1178 70.9855 36.3186C70.5849 37.7536 70.6487 39.3468 70.3004 40.8639C70.2597 41.3617 70.2191 41.8655 70.1785 42.3634C70.0856 43.0252 69.9927 43.6871 69.8998 44.349C69.5804 45.9598 69.2553 47.5647 68.936 49.1754C68.8663 49.6616 68.8024 50.1477 68.7328 50.6339C68.5063 51.5184 68.3728 52.4321 68.0883 53.2697C67.618 54.6813 66.9736 56.0519 66.3988 57.364C65.1447 60.2516 63.8152 62.9753 62.2185 65.5174C61.2954 66.9934 60.2039 68.3816 59.2807 69.8577C58.7176 70.7597 58.2705 71.6969 57.7131 72.6165C57.2022 73.4541 56.6274 74.3327 56.2268 75.2523C55.4024 75.4338 54.4502 75.5451 53.6142 75.7384C53.1265 75.8497 52.6678 75.6271 52.1685 75.7384C50.9144 76.0137 49.0972 75.6564 48.2263 75.3343C46.8387 74.8188 45.5614 74.2858 44.4873 73.4658C43.8254 72.962 43.0938 71.6266 42.6352 70.871C42.1823 70.1154 42.0894 69.3012 41.8688 68.2762C41.8282 68.077 41.8804 67.7607 41.9094 67.626C42.0836 66.8118 41.863 65.9274 41.4276 65.6404C41.1431 65.4529 40.5857 65.4295 40.2606 65.5994C40.0632 65.7048 39.9819 65.9625 39.8193 66.0855C39.6335 66.2203 39.3723 66.2085 39.1342 66.2905C38.5246 66.4897 37.8279 66.6888 37.166 66.8587C35.9526 67.1691 34.6404 66.847 34.1934 67.913C34.025 68.3172 33.9611 69.1021 34.0715 69.6175C34.1643 70.0568 34.0889 70.4258 34.1934 70.8358C34.3966 71.6559 34.6288 72.47 34.9191 73.1905C35.4533 74.5084 35.8713 75.3518 36.6493 76.3944C37.1544 77.0739 37.973 77.5542 38.6988 78.0169C39.8716 78.7608 41.1431 79.3992 42.5191 79.9615C43.5293 80.3774 44.6324 80.4653 45.7355 80.7757C46.7284 81.0569 48.5398 81.3615 49.759 81.1799C50.357 81.092 50.9783 81.2092 51.4892 81.0979C52.1743 80.9514 53.1323 81.0452 53.5387 80.6527H53.62C53.5387 81.1389 53.2832 81.5899 53.1381 82.0292C52.842 82.9254 52.6272 83.8391 52.3717 84.747C52.035 85.9477 52.0175 87.2539 51.7272 88.5191C51.6285 88.9467 51.6924 89.3918 51.6053 89.7784V90.3056C51.4718 90.9147 51.4311 92.2971 51.5647 92.9414C51.5763 93.3865 51.5937 93.8317 51.6053 94.2827C51.8666 95.4542 51.7505 96.8014 52.0059 97.9318C52.1917 98.7577 52.1279 99.525 52.3253 100.327C53.0162 103.057 53.2658 106.044 54.2935 108.44C54.9553 109.98 55.7798 111.386 56.7087 112.657C57.1093 113.208 57.6725 113.659 58.0731 114.198C58.4563 114.713 58.9324 115.111 59.362 115.574C59.513 115.744 59.6117 115.931 59.8033 116.06C59.722 116.488 59.1879 116.804 58.9208 117.074C58.0905 117.911 57.2603 118.714 56.3081 119.428C55.4721 120.055 54.7289 120.822 53.8929 121.455C53.7303 121.631 53.5735 121.806 53.411 121.982C52.5923 122.609 51.5821 123.704 50.9609 124.536C50.717 124.782 50.479 125.022 50.2351 125.268C49.759 125.901 49.2191 126.457 48.7488 127.095C48.0231 128.068 47.0245 128.888 46.5368 130.1C46.3103 130.657 46.3974 131.617 46.6587 132.045C46.9954 132.601 47.5354 133.052 47.9882 133.503C48.6849 134.206 49.3642 134.921 50.0784 135.612C50.3919 135.917 50.9144 136.467 51.6866 136.262C52.3717 136.075 52.8362 135.43 53.2136 134.921C53.469 134.663 53.7245 134.405 53.9799 134.148C54.5605 133.369 55.3095 132.683 55.9888 131.998C56.7203 131.266 57.4983 130.475 58.3228 129.848C58.4563 129.702 58.5898 129.55 58.7234 129.403C59.1008 129.023 59.5072 128.63 59.931 128.308C60.2503 127.968 60.5755 127.634 60.8948 127.295C61.3593 126.826 61.8586 126.357 62.3811 125.953C62.7353 125.684 63.0314 125.291 63.3855 125.022C64.3261 124.313 65.2608 123.569 66.242 122.913C66.6368 122.65 67.4032 122.328 67.6877 121.982C68.0883 122.052 68.4018 122.322 68.7328 122.468C69.3714 122.749 70.0275 122.978 70.6603 123.241C71.0493 123.4 71.4209 123.429 71.8273 123.564C72.7563 123.874 73.7897 124.138 74.7651 124.413C75.1715 124.53 75.607 124.46 76.0134 124.618C76.2108 124.694 76.3734 124.917 76.6172 124.981C77.1804 124.993 77.7436 125.01 78.3067 125.022C79.166 125.215 80.1008 125.268 80.9194 125.467C81.3026 125.561 81.8483 125.444 82.1677 125.631H82.6089C82.0632 126.492 81.8832 127.547 81.8832 128.999C81.8948 129.392 81.9122 129.784 81.9238 130.176C82.3941 132.227 82.8237 134.031 83.7759 135.571C85.2913 138.025 87.6368 139.818 90.0057 141.411C93.1118 143.502 96.3689 145.318 100.056 146.846C100.729 147.128 101.49 147.268 102.227 147.456C102.442 147.467 102.657 147.485 102.872 147.497C103.133 147.555 103.713 147.614 104.039 147.538C106.169 147.046 107.882 146.636 109.345 145.511C110.175 144.872 111.017 142.77 110.553 141.212C110.309 140.392 109.926 139.671 109.467 139.062C108.765 138.125 107.22 138.172 105.931 137.803C103.87 137.217 101.792 136.672 100.143 135.653C98.401 134.575 96.9205 133.293 95.5213 131.881C94.7549 131.108 93.9827 130.311 93.3499 129.409C92.717 128.501 92.2003 127.488 91.6197 126.527C91.3817 126.135 91.2772 125.608 90.9753 125.268C91.0972 125.081 91.8926 125.098 92.1829 125.022C93.135 124.817 94.0872 124.618 95.0394 124.413C96.8334 123.862 98.5868 123.37 100.027 122.468C100.543 122.146 101.002 121.73 101.472 121.373C102.134 120.875 102.901 120.231 103.121 119.305C103.33 118.409 102.593 118.017 102.157 117.724C101.577 117.331 100.921 116.775 100.63 116.101C100.317 115.387 100.329 114.461 99.9047 113.87C99.5099 113.319 98.7668 113.055 98.2152 112.651C97.9888 112.423 97.7624 112.194 97.5301 111.96C97.1702 111.597 96.7928 111.281 96.4851 110.865C96.1077 110.361 95.5387 109.998 95.1961 109.447C94.9523 109.055 94.871 108.598 94.7549 108.071C94.6156 107.45 94.8362 106.741 94.6736 106.202C94.3775 105.353 94.0814 104.498 93.7911 103.649C93.5763 103.004 93.5299 102.389 93.3499 101.704C93.1989 101.118 93.0538 100.035 93.2279 99.3083C93.4718 98.3184 93.7621 97.4105 94.2324 96.6315C95.6664 94.2534 97.4779 92.1565 100.102 90.9909C101.408 90.411 102.866 90.0654 104.323 89.6496C104.805 89.5676 105.287 89.4856 105.769 89.4036C106.425 89.2513 107.824 89.3157 108.422 89.4446C108.73 89.4739 109.037 89.4973 109.345 89.5266C110.617 89.837 111.94 89.9717 113.044 90.4579C113.287 90.5692 113.7 90.7566 113.885 90.944C113.978 91.0378 114.019 91.19 114.129 91.2662C114.594 91.6001 115.407 91.4653 115.697 91.0612C116.097 90.5106 116.005 89.919 115.859 89.2337V88.7065C115.772 88.3082 115.749 87.8104 115.656 87.4062C115.645 87.1778 115.627 86.9493 115.616 86.715C115.494 85.6197 115.372 84.5244 115.256 83.4291C115.035 82.5153 115.012 81.543 114.774 80.5883C114.64 80.0435 114.483 79.3875 114.454 78.8018C114.896 78.7081 115.337 78.6144 115.784 78.5206C116.185 78.4796 116.591 78.4386 116.992 78.3976H117.799C118.437 78.3976 119.244 78.3156 119.807 78.4386H120.493C120.876 78.5265 121.323 78.4621 121.741 78.5616C123.192 78.9072 124.696 79.0302 126.002 79.452C126.426 79.5925 126.809 79.6101 127.21 79.7741C128.034 80.1138 128.731 80.5004 129.381 80.9924C129.602 81.1564 129.863 81.3439 130.026 81.5606C130.554 82.2752 130.815 83.1011 131.071 84.1144C131.152 84.4424 131.123 84.8114 131.193 85.1277C131.367 85.9184 131.03 86.7912 130.833 87.2774C130.27 88.6304 129.625 89.7316 129.103 91.1315C128.853 91.7992 128.569 92.8535 128.899 93.6443C129.335 94.6869 131.268 95.8115 132.882 95.2667C134.096 94.8567 134.862 93.9371 135.78 93.2401C136.163 92.9473 136.453 92.6017 136.784 92.2678C136.917 92.1448 137.051 92.0218 137.185 91.9046C138.131 90.6395 139.008 89.3743 139.559 87.6874C139.989 86.3812 140.099 84.1085 139.762 82.5739L139.745 82.6149ZM39.6626 68.6218H39.5813V68.5398H39.6626V68.6218ZM54.4618 78.6846C54.4618 78.6846 54.4328 78.7139 54.4212 78.7257C54.2412 78.3684 53.9625 78.2863 53.6955 78.0345H53.6548V77.9935C54.0554 77.9408 54.4618 77.8881 54.8624 77.8295C54.8218 78.1048 54.6302 78.5031 54.4618 78.6788V78.6846Z" fill="#FFCA06" stroke="#231F20" stroke-width="0.085" stroke-miterlimit="10"/>
<path fill-rule="evenodd" clip-rule="evenodd" d="M95.0331 24.7269C96.2581 21.7279 95.1202 18.0671 92.7397 17.1006C92.1708 16.8722 91.3986 16.8898 90.609 16.8956C90.4058 17.0245 90.0632 16.9542 89.8019 17.0186C89.2794 17.1533 88.7162 17.3291 88.2343 17.4638C87.8744 17.5634 87.6131 17.4989 87.3518 17.6688C87.2067 17.8152 87.0557 17.9675 86.9106 18.1139C83.1367 20.5447 80.8434 23.245 78.6662 27.2807C78.074 28.3818 77.6327 29.5123 77.3018 30.9298C77.058 31.9607 77.3889 33.0619 77.9463 33.4426C78.434 33.7764 79.1307 33.7647 79.7577 33.9697C80.7912 34.3095 81.8827 34.614 82.8929 34.9831C83.2122 35.1002 84.0367 35.3521 84.5011 35.2291C85.0585 35.0768 85.3198 34.5848 85.6275 34.1747C85.79 34.0283 85.9468 33.876 86.1094 33.7296C86.5158 33.2903 86.9512 32.8217 87.4389 32.4703C88.0776 32.0075 88.7917 31.6151 89.5697 31.2929C90.2025 31.0352 90.9109 31.0059 91.4218 30.6428C91.9617 30.262 92.2985 29.5767 92.6701 29.0203C93.5468 27.6907 94.4002 26.2849 95.0447 24.721L95.0331 24.7269ZM104.201 42.293C104.99 42.826 106.703 42.7323 107.736 43.0252C108.857 43.3415 109.96 43.5758 111.075 43.9155C111.499 44.0443 112.23 44.2494 112.805 44.0795C114.146 43.6812 114.663 42.3574 115.255 41.1977C116.143 39.4815 116.741 37.5544 117.386 35.5571C117.752 34.4208 117.862 33.179 118.152 31.99C118.193 31.5858 118.234 31.1758 118.274 30.7716C118.634 29.155 118.274 27.2338 117.833 26.0272C117.537 25.2189 117.293 24.5336 116.544 24.1997C116.318 24.1001 115.987 24.1177 115.661 24.1177C115.522 24.2114 115.319 24.1821 115.139 24.2407C114.825 24.3461 114.489 24.4691 114.175 24.6039C113.217 25.0256 112.358 25.664 111.563 26.2673C110.622 26.9819 109.914 28.048 109.229 29.0261C108.41 30.1976 107.696 31.4628 106.935 32.7163C106.778 32.9798 106.715 33.2551 106.575 33.5304C106.111 34.4266 105.71 35.3579 105.246 36.2892C104.648 37.5017 104.148 38.7552 103.719 40.1844C103.463 41.0278 103.649 41.9181 104.201 42.293ZM53.9736 40.8345C53.8923 40.4421 53.933 39.8915 53.8517 39.4932V38.884C53.6833 38.0992 53.7762 37.2323 53.573 36.4884C53.1027 34.7839 52.0519 33.753 50.7165 32.9213C50.1649 32.5757 49.5843 32.3941 48.667 32.3941C48.3651 32.3941 47.9355 32.3473 47.7439 32.4761C47.2446 32.4585 47.3258 31.9782 47.1807 31.6268C46.8962 30.9474 46.5072 30.2855 46.095 29.7173C44.8641 28.048 42.9075 26.9351 39.9814 26.9585C39.7723 27.0932 39.4008 27.0112 39.1395 27.0815C38.5067 27.2455 37.8332 27.3685 37.2468 27.6087C36.5036 27.9191 35.8766 28.3701 35.2786 28.827C34.9302 29.0964 34.6864 29.7056 34.2741 29.8813C33.351 30.098 32.4221 30.3148 31.4989 30.5315C29.7165 31.1114 28.3521 31.9138 27.5161 33.4543C27.0167 34.3798 26.6336 35.5219 26.6336 36.9453C26.6336 37.4256 26.5465 38.1753 26.7555 38.4857C26.6568 38.7903 26.3955 39.007 26.233 39.2589C25.9194 39.7334 25.6407 40.2371 25.3505 40.7174C25.1414 41.0688 25.0369 41.4261 24.8686 41.8127C24.3634 42.9666 23.8757 44.1732 23.5042 45.5028C22.4649 49.1871 24.735 52.4672 26.1575 54.3884C26.5058 54.857 27.0167 55.226 27.3651 55.6887C27.8412 56.3272 28.4566 56.8719 29.0953 57.3522C29.3856 57.5689 29.6468 57.9204 30.0184 58.0434C29.9487 58.3948 29.8849 58.7462 29.8152 59.0977C29.6759 59.7244 29.9023 60.7143 30.0184 61.1653C30.1461 61.6808 30.1403 62.1025 30.2971 62.5828C30.7558 63.9886 31.5338 65.0663 32.7472 65.7048C33.2929 65.9918 33.9374 66.1148 34.5993 66.2729C34.907 66.2846 35.2147 66.3022 35.5224 66.3139C35.9753 66.4193 37.3861 66.3432 37.8564 66.2319C38.6924 66.0328 39.5691 65.9683 40.3065 65.6638C42.9075 64.586 44.7887 62.8171 46.2576 60.5913C46.8556 59.6893 47.291 58.6584 47.6626 57.5103C47.7961 57.1003 47.7555 56.7372 47.8658 56.292C47.9239 56.046 48.1213 54.816 47.9471 54.5465C47.9587 53.9667 48.4522 53.8671 48.7541 53.5742C49.4566 52.8772 50.1882 52.1157 50.7629 51.3016C51.7325 49.9368 52.5396 48.4725 53.213 46.7973C53.4453 46.2174 53.5091 45.6434 53.6949 45.0108C53.9504 44.1615 54.2 42.7089 53.9736 41.6018V40.8287V40.8345ZM94.0228 99.9408V100.427C93.9416 100.778 93.9358 101.587 94.0228 101.967C94.1273 102.418 94.1854 102.946 94.3015 103.344C94.5163 104.059 94.766 104.838 95.3059 105.212C94.8008 107.895 95.5556 111.626 96.9955 112.716C97.3612 112.991 97.8083 113.249 98.2844 113.407C98.534 113.489 98.9114 113.43 99.1262 113.571H100.334C100.404 113.624 100.485 114.028 100.537 114.139C100.7 114.531 100.845 114.947 101.019 115.357C101.507 116.476 102.389 117.513 103.353 118.157C104.055 118.626 104.892 118.924 105.803 119.17C106.291 119.305 107.051 119.323 107.533 119.293C108.561 119.229 109.635 119.364 110.471 119.088C112.404 118.456 113.972 116.652 114.733 114.83C115.063 114.034 115.058 113.161 115.296 112.235C115.389 111.878 115.534 111.462 115.574 111.099C116.712 111.099 117.926 111.117 118.832 110.818C120.062 110.408 120.986 109.781 121.926 109.113C122.245 108.885 122.646 108.727 122.93 108.463C123.36 108.534 123.633 108.897 123.935 109.113C124.295 109.365 124.725 109.529 125.224 109.641C126.205 109.863 127.337 108.791 127.836 108.422C129.392 107.28 129.985 105.482 130.571 103.35C130.699 102.893 130.658 102.495 130.774 102.008C130.931 101.323 131.07 99.5718 130.896 98.7635C130.803 98.1426 130.71 97.5218 130.618 96.895C130.066 94.8801 129.247 92.666 127.802 91.5824C127.163 91.1021 126.42 90.6804 125.59 90.4051C125.212 90.2821 124.783 90.2528 124.382 90.1591C124.045 90.083 123.447 90.1415 123.174 90.2001C122.838 90.2763 122.588 90.2235 122.292 90.3231C121.2 90.6746 120.457 91.272 119.639 91.8636C119.232 92.1565 118.634 92.4669 118.35 92.8769C118.251 93.0175 118.251 93.2225 118.146 93.3631C117.984 93.4216 117.746 93.1932 117.583 93.1171C117.119 92.912 116.689 92.7246 116.254 92.5079C114.593 91.6703 112.799 91.0084 110.947 90.3993C109.008 89.7608 106.018 89.7784 104.114 90.3993C103.028 90.7566 102.041 91.0143 101.06 91.4536C99.0682 92.338 97.1813 94.0835 95.9504 95.7528C95.3118 96.6197 94.6789 97.4925 94.3015 98.6347C94.2086 99.0681 94.1157 99.5015 94.0228 99.935V99.9408ZM50.9197 138.476C50.5423 137.609 49.9966 136.778 49.5147 136.004C48.0109 133.591 46.1182 131.219 43.3604 130.083C43.0237 129.989 42.6927 129.895 42.356 129.802C41.4735 129.585 40.3994 129.843 39.8246 130.083C38.1989 130.768 37.1945 131.969 36.7707 133.855C36.492 135.079 37.1945 136.555 37.5371 137.387C36.521 136.953 35.4818 136.766 34.2799 136.496C34.0187 136.438 33.0839 136.532 32.9504 136.619C32.6253 136.578 32.2711 135.395 32.1085 135.079C31.5454 133.984 31.017 132.836 30.4597 131.752C30.2274 131.301 30.0765 130.844 29.8152 130.411C28.1199 127.605 26.082 125.227 23.5042 123.312C23.0281 122.96 22.581 122.521 22.0991 122.175C20.8451 121.291 19.4342 120.6 17.797 120.108C16.3571 119.674 13.5412 120.09 12.2059 120.389C11.6717 120.512 10.5628 120.324 10.1157 120.512C9.71512 120.676 9.65706 120.998 9.38998 121.285C9.25064 121.379 9.04743 121.349 8.86745 121.408C8.38556 121.566 7.88045 121.73 7.42178 121.935C5.56969 122.755 4.12982 124.073 3.11959 125.748C2.10356 127.435 1.9526 131.57 2.59706 133.861C2.88736 134.909 3.28216 135.905 3.68277 136.824C4.19369 138.008 4.6988 139.138 5.33165 140.192C5.55227 140.556 5.63356 140.966 5.85418 141.329C6.33027 142.119 6.73087 142.98 7.21857 143.765C8.39717 145.646 9.84865 147.333 11.1608 149.078C11.3059 149.213 11.4569 149.347 11.602 149.482C12.0317 149.916 12.4381 150.326 12.9316 150.7C13.1696 150.882 13.3728 151.169 13.6167 151.351C14.3947 151.936 15.1262 152.546 15.91 153.137L16.3106 153.541C16.8099 153.916 17.5531 154.514 17.9189 155C18.2034 155.38 18.5285 155.814 18.7259 156.259C19.3645 157.735 19.6839 159.463 20.578 160.681C21.356 161.742 22.7842 161.993 24.079 162.55C25.7975 163.282 27.5393 163.961 29.4262 164.576C30.1113 164.723 30.7906 164.875 31.4757 165.022C31.7544 165.051 32.0389 165.074 32.3176 165.104C33.5658 165.396 35.6037 165.379 36.6604 164.94C37.5661 164.565 38.2396 163.891 38.7911 163.153C38.9769 162.977 39.1685 162.802 39.3543 162.626C40.1091 161.619 40.771 161.015 41.1658 159.586C41.4328 158.614 41.0845 157.278 41.3283 156.218C41.4851 155.521 41.7289 154.965 42.0947 154.473C42.3386 154.139 42.8959 154.203 43.343 154.068C44.1732 153.817 44.9744 153.559 45.6363 153.137C47.9239 151.684 48.7541 148 48.6902 144.129C50.1824 143.924 52.1506 142.594 51.6687 140.561C51.4887 139.812 51.2274 139.15 50.9429 138.494L50.9197 138.476ZM132.023 141.399C131.262 140.157 129.938 139.823 128.324 139.413C128.092 139.355 126.977 139.162 126.716 139.331H126.315C126.048 138.845 125.781 138.359 125.508 137.873C124.8 136.801 123.888 135.899 122.652 135.36C121.572 134.886 119.412 134.569 117.99 134.956C117.426 135.102 116.863 135.255 116.3 135.401C116.126 135.466 115.789 135.659 115.493 135.565C115.011 135.413 114.599 134.909 114.204 134.634C113.391 134.06 112.561 133.451 111.51 133.134C110.866 132.941 109.896 132.988 109.258 133.134C108.961 133.175 108.665 133.216 108.375 133.257C107.423 133.527 106.5 133.878 105.722 134.353C105.362 134.575 104.967 134.769 104.595 135.003C104.514 135.056 104.369 135.225 104.276 135.249C104.038 135.302 103.695 134.921 103.51 134.845C102.999 134.634 102.412 134.979 102.221 135.249C101.71 135.975 102.192 136.625 102.703 136.953C103.057 137.182 103.167 137.633 103.585 137.803C103.968 137.961 104.427 137.879 104.752 137.803C105.002 137.744 105.42 137.873 105.635 137.926H106.238C106.715 138.031 107.493 137.967 107.969 137.926C108.201 137.902 108.572 137.984 108.735 137.885H109.42C109.618 138.025 109.803 139.173 109.902 139.507C110.483 141.44 110.483 144.187 109.542 145.716C108.828 146.87 106.953 147.696 105.443 148.071C104.363 148.334 103.208 147.795 102.389 148.393C101.658 148.926 101.582 150.279 101.989 151.233C102.546 152.534 103.725 152.961 105.042 153.506C105.431 153.664 105.919 153.881 106.407 153.91V153.951C105.524 154.543 104.874 155.457 104.032 156.101C103.649 156.394 103.399 156.833 102.906 157.032C102.465 157.214 101.896 157.032 101.379 157.155C100.822 157.278 100.253 157.308 99.73 157.477C96.0723 158.684 93.9067 160.014 92.4494 163.481C92.0662 164.395 91.625 166.445 91.9269 167.862V168.431C91.9966 168.887 92.0604 169.35 92.1301 169.807C92.2694 170.27 92.4901 170.727 92.612 171.225C92.8036 172.021 92.6642 173.632 92.4901 174.388C92.4146 174.727 92.3565 175.178 92.4494 175.565C92.6526 176.432 93.0881 177.099 93.7383 177.509C94.5976 178.06 95.7472 178.13 96.9142 178.4C97.2742 178.429 97.6399 178.452 97.9999 178.482C98.6443 178.628 99.3991 178.529 100.09 178.687C100.421 178.763 100.903 178.786 101.257 178.81H102.023C102.575 178.933 103.742 178.886 104.276 178.769C104.613 178.757 104.944 178.74 105.281 178.728C106.093 178.546 106.976 178.511 107.731 178.324C108.375 178.218 109.02 178.107 109.658 178.001C110.93 177.644 112.114 177.281 113.235 176.783C119.075 174.194 122.118 168.975 124.574 162.948C125.061 161.742 125.288 160.388 125.619 159.053C125.648 158.772 125.671 158.485 125.7 158.204C125.967 157.032 125.886 155.539 125.862 154.227C126.966 154.227 128.104 154.133 128.8 153.699C130.321 152.751 130.995 149.927 131.616 148.018C131.697 147.666 131.779 147.315 131.86 146.963C132.348 145.452 132.946 142.916 132.023 141.405V141.399Z" fill="white"/>
<path fill-rule="evenodd" clip-rule="evenodd" d="M140.953 80.3891C139.049 75.8086 135.943 73.1787 131.467 71.2223C129.829 70.5019 128.006 70.1739 126.119 69.6819C125.167 69.5589 124.215 69.4359 123.263 69.3187H122.822C122.909 69.0551 123.118 68.8736 123.263 68.6685C123.623 68.1531 123.983 67.6084 124.308 67.0871C125.289 65.5232 126.166 63.889 127.124 62.3016C127.71 61.3352 128.186 60.2399 128.651 59.1797C129.22 57.8852 129.887 56.538 130.462 55.2025C131.362 53.1056 132.018 50.8681 132.755 48.6306C133.475 46.4517 133.771 44.1029 134.364 41.7775C134.526 40.6822 134.683 39.5869 134.846 38.4916C134.938 37.449 135.031 36.4064 135.124 35.3696V34.5965C135.2 34.2567 135.078 33.7296 135.165 33.3371C135.275 32.8334 135.269 31.8552 135.165 31.3515C135.153 30.6896 135.136 30.0277 135.124 29.3659C135.02 28.8856 135.118 28.335 135.002 27.8254C134.735 26.6129 134.724 25.3009 134.439 24.1763C134.201 23.2391 134.16 22.3781 133.876 21.4995C133.365 19.9063 132.906 18.3365 132.268 16.8722C131.408 14.9041 130.288 13.0825 129.092 11.4366C128.715 10.9153 128.186 10.4818 127.803 9.97809C127.408 9.45093 126.915 8.95306 126.398 8.56062C126.055 8.29704 125.852 7.84603 125.515 7.5883C123.971 6.42855 122.34 5.42109 120.65 4.38434C120.389 4.2262 120.116 4.16176 119.843 4.02119C118.821 3.48231 117.689 3.01958 116.586 2.56271C115.314 2.03555 113.904 1.77783 112.528 1.38539C111.872 1.19796 111.163 1.17453 110.519 1.02224C109.77 0.940233 109.015 0.85823 108.266 0.776227H107.54C107.18 0.694225 106.64 0.735226 106.211 0.735226C105.299 0.735226 104.341 0.688367 103.557 0.85823C103.279 0.869945 102.994 0.887517 102.716 0.899231C101.589 1.15695 100.416 1.16281 99.3366 1.46739C98.1986 1.78955 96.9852 2.00041 95.9169 2.43971C94.8486 2.87901 93.7513 3.33002 92.7411 3.78104C90.5058 4.77093 88.5201 6.00682 86.6274 7.34815C86.1862 7.66445 85.774 8.08032 85.3385 8.40247C84.6476 8.91792 84.0496 9.50365 83.3703 10.025C83.2252 10.189 83.0742 10.3471 82.9291 10.5111C82.2672 11.0148 81.5008 11.788 81.0015 12.4557C80.7228 12.7369 80.4383 13.0239 80.1596 13.3051C79.4049 14.3125 78.5108 15.2321 77.785 16.2689C75.4568 19.6075 73.4538 23.1805 71.7933 27.2221C70.8934 29.4186 70.3012 31.7908 69.6219 34.1982C69.1923 35.7093 69.111 37.3318 68.7394 38.9016C68.5826 39.5518 68.7046 40.1843 68.5362 40.8462C68.2169 42.1407 68.2749 43.7046 67.973 45.0225C67.944 45.3329 67.9208 45.6434 67.8917 45.9538C67.7001 46.7914 67.7059 47.6934 67.4911 48.5486C66.9628 50.6455 66.6028 52.6898 65.8422 54.5524C65.3023 55.8879 64.832 57.3346 64.1121 58.5295C63.2876 59.9001 62.4574 61.2825 61.6213 62.6238C60.6576 64.1701 59.7925 65.734 58.7648 67.2101C57.8707 68.4928 56.8663 69.7287 56.0302 71.0642C55.7458 71.5211 55.5484 71.9779 55.2639 72.4407C54.9445 72.9678 54.6775 73.5243 54.3814 74.1041C54.2769 74.3092 54.1201 74.5083 54.062 74.7543C53.5685 74.766 53.1157 74.8363 52.5757 74.8363C48.0123 74.8363 45.4054 73.7 43.8494 70.66C43.4604 69.9044 43.1469 68.8677 43.1237 67.7782C43.1179 67.4561 42.9669 66.8528 43.1237 66.6009V65.5876C43.1759 65.4763 43.7507 65.1952 43.8901 65.1014C44.2675 64.832 44.5752 64.4454 44.9351 64.1701C45.1964 63.971 45.5041 63.7425 45.7015 63.479C46.6305 62.2372 47.5188 61.0716 48.1168 59.4608C48.2677 59.0508 48.2794 58.6935 48.3955 58.2425C48.5987 57.481 48.709 56.1983 48.5174 55.3197C48.4593 55.0444 48.529 54.775 48.3955 54.5875C48.4535 54.3122 49.3592 53.7206 49.6031 53.5332C49.9398 53.2755 50.2708 52.8596 50.5262 52.5199C50.8804 52.0513 51.3507 51.6296 51.6932 51.1434C52.9009 49.4096 53.7021 47.4299 54.4278 45.1807C54.7239 44.2728 54.7994 43.2946 55.0316 42.3398C55.0723 41.9064 55.1129 41.473 55.1536 41.0395C55.2813 40.4596 55.3277 39.3936 55.1942 38.7669C55.0955 38.2983 55.1826 37.9058 55.0723 37.4665C54.7239 36.1076 54.3639 34.8835 53.6672 33.8994C52.8776 32.7865 51.4726 32.1364 50.0502 31.6678C49.6089 31.5741 49.1677 31.4804 48.7206 31.3866C48.4709 31.3281 48.1865 31.4159 47.9949 31.3046C47.8439 31.1055 47.8555 30.7833 47.751 30.5315C47.6059 30.1742 47.4317 29.77 47.2285 29.4361C46.5782 28.3643 45.6377 27.4974 44.5752 26.8413C43.9307 26.443 43.1179 26.2146 42.3225 25.992C41.5735 25.7812 40.0059 25.7226 39.1873 25.91C38.5544 26.0565 38.0203 26.0448 37.4571 26.2322C35.9302 26.7418 34.7458 27.4798 33.5962 28.3408C33.1375 28.6864 32.5918 29.0789 32.2666 29.5592C31.3783 29.5767 30.5481 29.8169 29.892 30.0863C27.4129 31.1055 26.0485 32.4585 25.1892 35.1178C24.9802 35.7562 24.7015 36.9042 24.8699 37.7126C24.9396 38.064 24.7886 38.5092 24.9512 38.7669C24.9221 39.1476 23.9468 39.8622 23.7029 40.1843C22.9075 41.2504 22.1585 42.3926 21.6941 43.7925C21.4792 44.4485 21.4154 45.1455 21.2528 45.8601C21.038 46.7797 21.2122 48.4139 21.4154 49.1871C22.0076 51.4421 22.774 52.7249 23.9468 54.3415C24.1906 54.6754 24.4983 54.9741 24.7538 55.3138C24.9163 55.4603 25.0731 55.6126 25.2357 55.759C25.7234 56.4092 26.9484 57.4928 27.6858 57.8676C26.9716 61.4172 29.0095 64.3283 30.9022 65.6989C31.5757 66.185 32.4524 66.8645 33.4336 66.9992C33.4336 68.7915 33.242 70.6835 33.6775 72.2298C34.0665 73.6238 34.4497 75.0003 35.1231 76.1249C36.8185 78.9306 39.0363 81.0099 42.2006 82.3337C42.9263 82.6383 43.6404 82.7496 44.4533 82.9839C45.4635 83.2709 46.6247 83.388 47.9136 83.388H49.278C49.7773 83.2767 50.3869 83.2475 50.8862 83.183C50.8165 83.7395 50.6598 84.3193 50.5262 84.8465C50.3811 85.4205 50.3753 86.0063 50.2476 86.551C50.143 87.5526 50.0327 88.5542 49.9282 89.5558C49.9166 90.124 49.8992 90.6921 49.8876 91.2603C49.7657 91.805 49.7715 92.8652 49.8876 93.4099V94.3822C50.0269 95.0207 49.9515 95.7997 50.0908 96.4089C50.1198 96.7486 50.1431 97.0825 50.1721 97.4222C50.4508 98.6112 50.4914 99.8413 50.8165 100.989C51.9371 104.99 53.1099 108.276 55.0374 111.415C55.589 112.312 56.0941 113.167 56.6863 114.01C57.0114 114.473 57.4353 114.895 57.772 115.351C58.0565 115.738 58.3468 116.254 58.7358 116.529C58.5849 116.746 58.3062 116.822 58.0913 116.974C57.6559 117.279 57.2379 117.624 56.8024 117.946C55.5309 118.889 54.4801 120.113 53.226 121.068C52.9996 121.314 52.7731 121.554 52.5409 121.8C51.8035 122.363 51.0836 123.13 50.532 123.868C50.2766 124.126 50.0211 124.383 49.7657 124.641C48.8716 125.836 47.7568 126.855 46.8685 128.05C46.5898 128.431 46.2531 128.771 45.986 129.145C45.8525 129.333 45.7828 129.556 45.626 129.714C45.4344 129.784 44.9526 129.438 44.7435 129.35C43.8959 128.987 42.9669 128.847 41.9683 128.618C41.2426 128.454 40.2265 128.583 39.6343 128.741C37.6545 129.263 36.4701 130.106 35.7328 131.863C35.5179 132.373 35.0302 133.843 35.2915 134.622C35.2799 134.634 35.2625 134.651 35.2509 134.663C34.9896 134.657 34.5309 134.528 34.3277 134.663C33.9503 134.634 33.5962 133.392 33.4452 133.041C32.8414 131.652 31.9473 130.188 31.1113 128.981C27.947 124.436 23.8016 120.729 17.9202 118.919C15.1798 118.075 11.9982 118.62 10.1171 119.809C9.73387 120.055 9.32165 120.242 9.07199 120.623C7.30119 120.623 6.15162 121.191 5.04849 121.882C3.06287 123.124 1.73912 124.67 0.949517 127.113C0.74631 127.746 0.786951 128.343 0.630192 129.058C0.46182 129.819 0.496656 131.6 0.670833 132.344C0.891458 133.298 0.984352 134.259 1.27465 135.143C2.4997 138.88 4.22986 141.973 6.26193 144.878C6.8251 145.687 7.48117 146.436 8.07338 147.233C8.26497 147.491 8.56107 147.707 8.75847 147.965C9.49002 148.943 10.3609 149.787 11.2086 150.642C11.6963 151.134 12.1375 151.679 12.6949 152.1C12.991 152.399 13.2871 152.698 13.5774 152.991C14.6979 153.846 15.6907 154.818 16.8345 155.667C17.2467 155.978 17.6241 156.376 18.0828 156.64C18.3847 158.069 18.5647 159.656 19.0059 160.898C19.0988 161.162 19.0698 161.314 19.2091 161.507C19.6155 162.075 20.7709 162.081 21.5025 162.357C21.607 162.398 21.7289 162.544 21.8218 162.603C22.0366 162.737 22.2456 162.79 22.4662 162.925C24.7073 164.307 27.2271 165.221 29.9849 166.129C30.7571 166.381 31.5177 166.369 32.3595 166.574C34.1129 166.996 36.8823 166.855 38.3106 166.252C38.8273 166.035 39.3324 165.725 39.7563 165.402C39.9711 165.174 40.1859 164.945 40.4007 164.711C40.7375 164.512 40.9465 164.512 41.1671 164.184C41.3761 163.862 41.4458 163.505 41.6084 163.13C42.0554 162.087 42.3689 161.004 42.7347 159.803C42.9089 159.229 43.3269 157.026 42.8973 156.394V156.312C45.7247 155.662 48.0703 153.383 49.0922 150.876C49.3012 150.355 49.7541 148.867 49.5741 148.035C49.5102 147.737 49.5334 147.379 49.4521 147.063C49.3592 146.671 49.2664 146.278 49.1735 145.886C49.7076 145.821 50.1605 145.552 50.5378 145.318C51.8268 144.515 52.3609 143.824 52.9125 142.278C53.1099 141.727 53.3073 140.772 53.1563 140.046V139.56C53.0286 138.98 52.9415 137.926 52.6338 137.533C52.6512 136.889 53.1563 136.696 53.4408 136.315C53.9517 135.635 54.5846 135.085 55.0897 134.405C55.2755 134.23 55.4671 134.054 55.6529 133.878C56.1115 133.263 56.6863 132.754 57.2205 132.215C57.6559 131.775 58.0507 131.295 58.55 130.914L59.9144 129.538C61.1685 128.583 62.2368 127.365 63.4908 126.416C64.3675 125.754 65.1513 124.958 66.0222 124.307C66.3474 124.061 66.8873 123.839 67.0266 123.417C67.4447 123.534 67.8453 123.85 68.1936 124.067C68.6813 124.366 69.4071 124.688 69.9238 124.916C71.654 125.684 73.4828 126.234 75.393 126.861C76.6412 127.271 78.0056 127.306 79.3352 127.634C79.7648 127.74 80.8796 127.658 81.1873 127.839H81.5066C81.4195 128.208 81.315 128.63 81.2279 129.017C81.077 129.667 81.1757 130.651 81.3092 131.207C81.4253 131.682 81.4079 132.068 81.553 132.508C81.8898 133.538 82.2846 134.54 82.8013 135.389C83.1729 135.999 83.4458 136.602 83.8464 137.176C86.1339 140.456 89.153 142.934 92.5727 145.089C93.7919 145.856 95.075 146.46 96.4743 147.075C97.0316 147.321 97.7283 147.737 98.4018 147.807C98.9592 150.454 100.875 153.412 103.348 154.057C103.366 154.789 103.076 154.865 102.745 155.316C102.402 155.773 101.92 156.423 101.34 156.616C100.887 156.646 100.428 156.669 99.9752 156.698C98.9302 156.933 97.9025 157.015 97.0026 157.39C93.9487 158.649 91.7076 160.558 90.6509 163.838C90.349 164.77 90.0065 166.574 90.291 167.816C90.4245 168.407 90.5464 169.046 90.7322 169.561C91.0515 170.446 91.3825 171.605 91.9805 172.197C91.9398 172.619 91.725 172.982 91.6205 173.374C91.3012 174.581 91.4289 176.777 91.9805 177.55C92.1837 177.832 93.0604 178.599 93.3855 178.728C94.2448 178.874 95.1041 179.027 95.9575 179.173C96.2652 179.202 96.573 179.226 96.8807 179.255C97.8212 179.472 98.9534 179.36 99.9346 179.577H100.742C101.322 179.706 103.337 179.706 103.917 179.577H104.643C105.096 179.507 105.619 179.565 106.089 179.454C106.588 179.343 107.134 179.378 107.656 179.249C108.841 178.962 110.048 178.845 111.157 178.476C116.743 176.631 120.801 173.843 123.663 169.268C124.285 168.278 124.836 167.171 125.312 166.064C125.544 165.525 125.649 165.004 125.875 164.442C126.398 163.165 126.63 161.677 127.002 160.224C127.17 159.563 127.083 158.936 127.246 158.239C127.455 157.325 127.507 156.16 127.489 155.117C128.134 155.123 129.62 155.246 130.021 155.076C130.996 154.672 131.432 153.407 131.914 152.481C132.61 151.128 132.976 149.576 133.4 147.895C133.568 147.233 133.487 146.606 133.644 145.909C133.806 145.171 133.824 143.484 133.644 142.746C133.348 141.54 132.906 140.673 132.279 139.823C131.606 138.916 130.091 138.195 128.744 137.955C128.331 137.885 127.408 137.75 127.054 137.996C126.601 137.972 126.59 137.404 126.41 137.106C126.009 136.438 125.405 135.571 124.801 135.12C122.827 133.626 119.814 132.83 116.638 133.779C116.098 133.937 115.256 134.001 114.867 134.306C114.577 134.241 114.089 133.439 113.863 133.21C113.236 132.584 112.406 132.033 111.529 131.67C111.088 131.547 110.646 131.424 110.199 131.307C109.421 131.108 108.225 131.207 107.546 131.389C107.076 131.518 106.681 131.541 106.257 131.711C105.067 132.209 104.074 132.888 103.122 133.62C102.896 133.79 102.327 134.329 102.158 134.552C101.996 134.774 101.822 135.05 101.595 135.202C101.554 135.237 101.583 135.22 101.514 135.243C101.131 134.88 100.329 134.546 99.8649 134.23C98.8257 133.527 97.8793 132.672 97.0084 131.793C96.782 131.576 96.5555 131.36 96.3233 131.143C95.7253 130.346 95.0808 129.585 94.5525 128.706C94.3145 128.314 94.1229 127.833 93.9487 127.406C93.8616 127.183 93.8732 126.902 93.7455 126.715C93.7571 126.621 93.7513 126.598 93.7861 126.551C94.7905 126.211 95.795 125.877 96.7994 125.537C98.965 124.635 101.032 123.634 102.913 122.456C103.453 122.117 103.97 121.783 104.481 121.443C104.707 121.291 104.957 121.203 105.125 120.998C105.502 121.027 105.874 121.156 106.211 121.244C106.913 121.42 108.365 121.467 109.108 121.285C109.729 121.133 110.362 120.998 110.919 120.758C113.131 119.797 115.024 118.075 115.947 115.808C116.156 115.287 116.18 114.713 116.307 114.104C116.406 113.641 116.197 113.173 116.145 112.804C118.095 112.645 119.855 112.007 121.173 111.181C121.643 110.888 122.27 110.613 122.578 110.168C122.932 110.203 123.141 110.455 123.42 110.572C123.733 110.707 124.11 110.736 124.465 110.818C125.428 111.04 126.682 110.56 127.199 110.291C129.411 109.131 130.543 106.659 131.379 104.123C131.513 103.567 131.647 103.016 131.78 102.459C131.861 102.137 131.745 101.675 131.902 101.405V100.96C131.937 100.896 132.703 100.439 132.825 100.351C133.423 99.9291 133.969 99.4195 134.555 98.9744C135.037 98.6112 135.455 98.1075 135.885 97.674C137.412 96.1394 138.666 94.4877 139.827 92.5606C140.495 91.4477 140.948 90.0888 141.354 88.7475C142.126 86.2171 141.894 82.5504 140.994 80.3891H140.953ZM35.4831 29.7173C35.9592 29.0906 37.8519 28.4814 38.7809 28.2178C39.1815 28.1651 39.5879 28.1124 39.9885 28.0538C43.1005 28.0538 44.7958 29.278 45.6957 31.5038C45.2429 31.6385 44.7842 31.7732 44.3313 31.9079C43.7972 32.1305 43.2688 32.4292 42.8044 32.7221C42.5663 32.8744 42.2934 32.9505 42.1193 33.1673C41.7593 33.1204 41.5909 32.7748 41.3529 32.5991C40.9058 32.2711 40.4472 31.9197 39.9885 31.6268C39.0712 31.0411 38.0261 30.6018 36.9752 30.1683C36.4817 30.0336 35.9824 29.8989 35.4889 29.7642C35.4599 29.7407 35.4773 29.7642 35.4889 29.7232L35.4831 29.7173ZM31.1809 32.0309C32.226 31.7029 34.0432 31.6678 35.1638 31.9899C36.5398 32.3824 37.7764 32.8803 38.8622 33.5714C39.3847 33.9053 39.8317 34.3797 40.3485 34.7077C40.1337 35.0299 39.8085 35.2876 39.5821 35.5981C38.9318 36.5118 38.1887 37.6716 38.0551 39.048C37.0159 38.5092 35.936 38.0289 34.7167 37.6306C33.8923 37.3611 33.0795 37.3553 32.1853 37.1444C31.7093 37.0331 30.3565 36.8457 29.7353 36.9804C29.2824 37.0507 28.8237 37.1151 28.3709 37.1854C27.947 37.3025 27.529 37.5251 27.0819 37.5896C27.0761 34.3973 28.754 32.7924 31.1809 32.0309ZM34.3568 64.9726C32.0054 64.217 29.7817 62.3368 29.8107 59.2148C30.3275 59.3027 30.8326 59.6541 31.3377 59.824C32.5047 60.2106 34.3045 60.2281 35.5992 59.988C35.8373 59.9411 35.994 60.0641 36.2437 59.988C36.7082 59.8474 37.2655 59.2324 37.0101 58.5295C36.8185 58.0023 36.1566 57.563 35.2799 57.7563C34.9722 57.8266 34.3742 57.9731 33.991 57.9203C33.6542 57.8676 33.1724 57.9203 32.824 57.8383C32.1853 57.6861 31.5989 57.5513 31.0532 57.3112C28.0341 55.9816 25.1195 52.924 23.8539 49.8079C23.6797 49.3862 23.6042 48.8825 23.4939 48.4315C23.2907 47.6173 23.3952 46.3521 23.5752 45.6317C23.7029 45.1338 23.7203 44.6945 23.8945 44.2552C24.5157 42.7147 25.4563 41.309 26.7104 40.4011C27.2793 39.9852 27.9761 39.6513 28.7192 39.4288C29.7759 39.1066 31.3087 39.212 32.3363 39.4698C33.0388 39.6455 33.6542 39.663 34.3045 39.8739C35.6805 40.3191 36.8881 40.9165 37.9216 41.7014C38.3454 42.0235 38.537 42.5156 38.8447 42.9607C39.0479 43.2477 39.3905 43.4703 39.5705 43.7749C39.9595 44.4309 40.122 45.7898 39.8143 46.6567C39.466 47.6232 38.6415 48.4608 37.6429 48.7653C37.0972 48.9293 36.383 48.7478 35.994 48.6013C34.6877 48.1269 33.5497 47.3654 33.0214 46.1295C32.8008 45.6141 32.7079 45.0166 32.5802 44.4251V43.8569C32.4931 43.4469 32.4698 43.113 32.2608 42.8436C31.6222 42.0177 30.461 42.7089 30.2926 43.4937C30.2462 43.6987 30.3333 44.1205 30.3739 44.3079C30.3855 44.5539 30.4029 44.7941 30.4145 45.0401C30.519 45.4969 30.6352 45.989 30.7745 46.3814C31.5815 48.6072 32.9982 49.9017 35.1986 50.7217C36.0173 51.0263 37.341 51.2488 38.3338 50.9267C40.6446 50.177 42.2412 48.2147 42.1948 45.0459C45.4228 45.4267 47.3504 43.4469 48.6683 41.596C49.0341 41.0805 50.1721 39.9735 49.5508 39.0422C49.1444 38.4389 48.0645 38.4389 47.6581 39.0422C46.6711 40.5065 45.9918 41.8244 44.2791 42.5741C42.9727 43.1423 41.7245 42.8377 41.0626 41.883C40.8594 41.596 40.482 41.309 40.3369 40.9927C39.7447 39.663 40.7781 37.9117 41.26 37.2205C42.3922 35.5922 43.7682 34.5086 45.8815 33.8526C46.8569 33.5539 48.3548 33.5304 49.3418 33.8526C49.9282 34.0459 50.5785 34.2684 51.072 34.5847C52.3435 35.3931 53.406 38.4506 52.9241 40.7525C52.8951 41.104 52.8718 41.4554 52.8428 41.8068C52.5815 42.9197 52.4596 44.0502 52.1171 45.0928C51.1301 48.121 49.6554 50.833 47.333 52.514C46.5318 53.0939 45.626 53.5976 44.5578 53.8905C44.221 53.9842 44.0585 53.9139 43.832 53.8495C43.1295 53.6562 42.5954 54.2068 42.4676 54.6227C42.3573 54.9858 42.4909 55.3373 42.6302 55.554C43.205 56.456 44.639 56.2744 45.6841 55.9171C45.8873 55.8469 46.0789 55.7121 46.3286 55.6711C46.3286 56.3799 46.4156 57.0945 46.2473 57.7388C45.2951 61.4055 42.8508 63.7367 39.4137 64.8789C38.0493 65.3299 35.8082 65.4704 34.3451 65.0019L34.3568 64.9726ZM51.5249 80.7932C50.2998 80.8518 48.8425 81.4317 47.4259 81.1154C47.0775 81.1037 46.7292 81.0861 46.3808 81.0744C45.2545 80.8108 44.1688 80.7054 43.205 80.3012C39.9537 78.9482 37.7126 76.7692 36.3714 73.4833C35.9882 72.5402 35.8953 71.4918 35.6457 70.4023C35.4483 69.5413 35.6224 68.3522 35.6457 67.4795C37.1262 67.4736 38.508 67.4561 39.6692 67.0753C40.0466 66.9523 40.5285 66.9465 40.7955 66.7122H40.8768C40.8884 72.1595 43.3559 74.7836 47.1878 76.3651C47.9832 76.6931 48.9064 76.7634 49.8005 76.9743C50.1605 77.0621 50.9327 76.9333 51.2055 77.0973H53.017C52.657 77.8587 52.3319 78.6729 52.0126 79.4519C51.8268 79.9029 51.7397 80.3774 51.5307 80.7932H51.5249ZM19.4356 154.865C19.2382 154.666 18.9362 154.461 18.7098 154.297C17.9318 153.735 17.2177 153.131 16.4571 152.551C16.0565 152.247 15.7314 151.802 15.3308 151.497C14.9244 151.187 14.5238 150.841 14.1638 150.484C13.9896 150.296 13.8154 150.103 13.6413 149.916C12.8226 149.295 11.8124 148.188 11.1912 147.362C10.9763 147.145 10.7615 146.928 10.5467 146.712C9.97191 145.944 9.29842 145.253 8.73525 144.48C7.0167 142.119 5.42007 139.636 4.18922 136.772C3.73055 135.706 3.43445 134.54 3.10351 133.363C2.99901 132.994 3.03384 132.689 2.94095 132.308C2.86547 131.986 2.65065 130.704 2.77838 130.282C3.0919 129.245 3.34736 128.085 3.90473 127.283C4.21825 126.832 4.70014 126.375 5.23428 126.147C5.47233 126.047 5.82068 126.082 6.04131 125.942C9.39713 125.965 11.8182 128.138 13.8038 129.632C14.0477 129.813 14.2451 130.1 14.4889 130.282C14.9127 130.604 15.2727 130.973 15.6965 131.295C15.9114 131.524 16.1262 131.752 16.341 131.986C16.9274 132.431 17.508 133.017 17.9492 133.609C18.0828 133.732 18.2163 133.855 18.3498 133.972C18.6518 134.277 18.9362 134.599 19.1917 134.944C19.72 135.647 20.469 136.221 21.0032 136.93C22.5417 138.992 24.3067 140.895 25.7872 143.016C26.6233 144.216 27.4884 145.388 28.3186 146.583C28.6495 147.057 28.9747 147.538 29.2824 148C29.4217 148.205 29.4972 148.457 29.683 148.609C29.5727 148.891 29.1256 149.019 28.876 149.178C28.307 149.541 27.7264 149.927 27.1458 150.314C25.5202 151.403 23.8887 152.551 22.2398 153.6C21.6882 153.951 21.1657 154.314 20.6316 154.654C20.3297 154.847 19.9929 154.976 19.7491 155.222C19.5459 155.164 19.5575 154.988 19.4297 154.859L19.4356 154.865ZM21.8102 158.438C21.4967 158.637 21.0786 158.772 20.8464 159.047H20.7651C20.6722 158.508 20.5793 157.964 20.4864 157.425C21.0438 157.138 21.5373 156.698 22.054 156.37C23.8074 155.252 25.5027 154.068 27.2387 152.961C28.0573 152.44 28.8469 151.889 29.654 151.38C30.0081 151.151 30.519 150.97 30.7803 150.648H30.8616C30.8616 151.017 30.9487 152.071 31.1054 152.311C31.0822 152.686 30.7803 152.686 30.5423 152.838C29.892 153.254 29.2359 153.67 28.5741 154.098C26.931 155.146 25.2763 156.253 23.6274 157.302C23.0178 157.688 22.4082 158.063 21.816 158.438H21.8102ZM38.0551 163.874C37.1842 164.424 34.6819 164.84 33.1898 164.483C32.5221 164.36 31.8486 164.237 31.1809 164.12C29.0153 163.493 26.9774 162.854 25.1486 161.888C24.6493 161.624 24.1093 161.378 23.6216 161.074C23.3545 160.91 23.0643 160.629 22.7391 160.547V160.465C23.5055 160.09 24.2022 159.533 24.9105 159.088C26.3272 158.186 27.738 157.302 29.1314 156.411C29.8804 155.937 30.6119 155.457 31.3435 154.994C31.7093 154.76 32.1621 154.601 32.4698 154.303C33.0562 154.467 33.8807 155.322 34.3626 155.679C35.9534 156.868 37.4745 158.397 38.4209 160.224C39.0596 161.46 39.286 163.1 38.0609 163.874H38.0551ZM40.7897 157.706C40.7375 157.905 40.6097 158.18 40.5459 158.397C40.4762 158.631 40.511 158.912 40.3833 159.088C40.3601 159.158 40.3775 159.129 40.3427 159.17C40.1395 158.403 39.3673 157.647 38.9376 157.062C37.4745 155.082 35.4076 153.442 33.3059 152.112C33.213 151.515 33.1201 150.923 33.0272 150.326C32.9227 149.857 32.9924 149.424 32.824 149.025C32.5918 148.469 32.0112 148.158 31.6977 147.684C30.6758 146.155 29.6365 144.667 28.6031 143.18C26.9542 140.819 25.1602 138.646 23.4591 136.362C22.832 135.524 22.0424 134.81 21.4096 133.966C21.1425 133.697 20.8754 133.427 20.6025 133.152C20.0045 132.355 19.244 131.623 18.5124 130.961C18.1583 130.645 17.8854 130.194 17.508 129.907C16.5268 129.157 15.6907 128.261 14.6921 127.511C12.4859 125.86 10.088 123.809 6.44772 123.657V123.616C6.93542 123.476 7.39989 123.171 7.89339 123.007C8.11982 122.931 8.5901 122.954 8.77589 122.843C10.297 122.855 11.2782 123.241 12.3117 123.692C12.9271 123.962 13.5658 124.12 14.1231 124.465C14.9418 124.969 15.7372 125.485 16.4978 126.047C17.3048 126.644 17.955 127.47 18.7505 128.074C19.3427 128.525 19.8478 129.046 20.44 129.491C20.5329 129.597 20.6258 129.708 20.7187 129.813C21.1831 130.165 21.5373 130.663 21.9669 130.991C22.4256 131.342 22.8262 131.787 23.1746 132.25C23.2965 132.355 23.4184 132.467 23.5345 132.572C23.8713 133.023 24.2429 133.415 24.5796 133.872C25.1428 134.628 25.9092 135.261 26.4723 136.022C27.3606 137.229 28.2664 138.435 29.1256 139.671C29.9036 140.79 30.5249 141.985 31.2564 143.162C31.7383 143.929 32.3131 144.656 32.824 145.394C33.4394 146.278 33.962 147.21 34.5948 148.071C35.0999 148.762 35.7676 149.33 36.2843 150.015C36.4062 150.121 36.5282 150.232 36.6443 150.337C37.1842 151.058 37.8461 151.684 38.3745 152.405C39.0247 153.301 39.5705 154.168 40.1046 155.205C40.2846 155.562 40.9349 157.103 40.7897 157.677V157.706ZM50.921 140.995C50.6888 141.979 49.516 143.109 48.1052 142.781C47.7975 142.711 47.6001 142.729 47.3794 142.576C47.1994 142.453 47.0717 142.184 46.9382 142.008C46.6595 141.633 46.015 141.083 45.6086 140.831C44.819 140.339 44.0004 140.919 43.8378 141.604C43.7623 141.92 43.9249 142.295 44.041 142.453C44.25 142.746 44.6855 142.957 44.9642 143.186C45.2312 143.402 45.3648 143.754 45.568 144.035C45.6725 144.129 45.7828 144.222 45.8873 144.316C46.6537 145.376 46.9556 146.36 47.2923 147.883C47.4317 148.516 47.2227 149.289 47.0891 149.711C46.6711 151.034 45.748 152.452 44.4358 152.833C43.6578 153.055 42.6941 152.762 42.1831 152.551C40.8246 151.977 40.2672 151.298 39.4486 150.197C39.0479 149.658 38.5312 149.201 38.119 148.656C37.9855 148.533 37.8519 148.41 37.7184 148.293C37.1494 147.538 36.4527 146.887 35.9069 146.102C35.5005 145.517 35.187 144.902 34.7806 144.316C34.2116 143.502 33.5846 142.693 33.0504 141.844C32.3944 140.796 31.8544 139.718 31.1577 138.722C30.2055 137.352 29.2127 135.999 28.2199 134.663C27.6683 133.919 26.9252 133.292 26.3678 132.554C25.7059 131.67 24.9686 130.815 24.1964 130.042C23.2791 129.116 22.3443 128.156 21.2993 127.365C20.887 127.049 20.5503 126.586 20.1323 126.27C19.662 125.912 19.2672 125.444 18.8027 125.092C18.6576 124.981 18.4195 124.876 18.3208 124.729C17.9086 124.126 17.4267 122.486 18.4021 122.175C18.4718 122.117 18.6111 122.105 18.6808 122.052C20.7883 122.052 21.8973 123.159 23.1455 124.038C25.9324 126.012 28.098 128.525 29.9385 131.459C30.4087 132.209 30.9429 133.017 31.3028 133.855C31.7905 134.974 32.2376 136.122 32.6324 137.346C32.853 138.025 32.824 139.009 33.3581 139.372C34.0607 139.853 34.9374 139.372 35.1289 138.722C35.2335 138.359 35.0593 137.896 34.9664 137.586C34.9025 137.363 34.9257 137.135 34.8038 136.977V136.895C35.9592 136.965 37.1494 137.252 37.939 137.744C38.2003 137.908 38.3338 138.23 38.5835 138.394C38.9376 138.629 39.5473 138.57 39.8724 138.353C40.3078 138.06 40.4414 137.234 40.1162 136.731C39.5531 135.87 38.4615 135.536 37.4629 135.108C37.5036 134.429 37.4223 133.574 37.6255 132.959C38.1132 131.459 39.9653 130.387 42.1715 130.932C42.7231 131.067 43.3095 131.201 43.8204 131.418C46.6189 132.601 48.9644 134.751 50.1721 137.545C50.3637 137.99 50.5901 138.488 50.7353 139.003C50.8281 139.331 50.7759 139.583 50.8572 139.935C50.9094 140.163 50.9675 140.696 50.8978 140.989L50.921 140.995ZM60.8143 125.537C60.4311 126.246 59.6706 126.808 59.0435 127.283C58.7474 127.582 58.4513 127.88 58.161 128.173C57.1972 128.911 56.3554 129.872 55.5077 130.727C54.9155 131.324 54.2827 131.916 53.7775 132.595C53.4408 132.935 53.1099 133.269 52.7731 133.609C52.4944 133.984 51.8442 134.821 51.4842 135.067C51.4726 135.079 51.4552 135.097 51.4436 135.108C50.9501 134.113 49.725 132.718 48.8716 132.068C48.4593 131.758 48.1052 131.196 47.5826 131.014C47.6465 130.452 48.1168 130.159 48.3897 129.796C48.9528 129.04 49.6437 128.39 50.2011 127.646C50.7352 126.931 51.3565 126.328 51.8906 125.619C52.0532 125.473 52.21 125.321 52.3725 125.174C52.6802 124.758 53.0576 124.442 53.4176 124.079C53.7892 123.704 54.1201 123.306 54.5439 122.984C55.2348 122.456 55.7806 121.689 56.4715 121.156C57.1101 120.67 57.6791 120.09 58.3236 119.616C58.6661 119.358 59.0725 119.153 59.3686 118.842H59.4906C59.717 119.071 59.9434 119.299 60.1757 119.534C60.4834 119.944 60.7737 120.412 60.9827 120.91C61.5285 122.257 61.4646 124.337 60.8201 125.537H60.8143ZM125.428 150.847C125.55 150.413 125.515 150.033 125.632 149.588C126.119 147.666 126.16 145.476 126.636 143.502C126.833 142.693 126.81 141.862 126.996 141.106C127.06 140.843 126.996 140.538 127.118 140.333C127.13 140.292 127.147 140.251 127.159 140.21C127.309 140.21 127.466 140.192 127.559 140.128C129.626 140.116 130.793 141.165 131.298 142.723C131.53 143.437 131.554 144.761 131.379 145.564C131.257 146.102 131.35 146.589 131.217 147.104C130.857 148.533 130.642 149.933 130.05 151.122C129.754 151.708 129.429 152.276 129.127 152.827C128.116 152.838 125.73 152.774 125.103 153.231C124.557 153.629 124.552 154.736 125.185 155.058C125.132 165.162 120.296 172.22 113.282 175.301C111.895 175.91 110.385 176.274 108.818 176.719C108.214 176.889 107.645 176.848 107.006 177C106.129 177.211 105.05 177.111 104.109 177.322H102.901C102.396 177.433 100.916 177.392 100.411 177.281H99.6849C98.8605 177.094 97.9025 177.176 97.1129 177C96.3639 176.83 95.6208 176.848 94.9415 176.678C94.6976 176.619 94.4364 176.678 94.2564 176.555C93.2055 176.432 93.7861 174.03 93.8964 173.31C94.5061 173.017 95.6788 173.175 96.4278 173.351C96.7239 173.38 97.02 173.403 97.3103 173.433C98.5295 173.72 100.045 173.696 101.531 173.679C105.386 173.632 109.3 172.9 112.069 171.693C113.782 170.943 115.413 170.077 116.812 169.016C117.776 168.284 118.717 166.949 119.425 165.935C120.058 165.022 120.685 164.073 121.277 163.095C121.887 162.075 122.131 160.851 122.607 159.686C123.094 158.491 123.594 157.255 124.012 155.995C124.569 154.309 124.929 152.587 125.417 150.841L125.428 150.847ZM104.481 135.436C104.614 135.302 104.748 135.167 104.881 135.032C105.607 134.493 106.437 134.001 107.372 133.691C107.674 133.591 108.005 133.556 108.295 133.486C108.481 133.445 108.725 133.527 108.858 133.445C111.512 133.515 112.893 135.149 113.683 137.094C113.997 137.867 114.031 139.554 114.647 139.976C115.39 140.479 116.58 139.812 116.418 138.921C116.307 138.318 116.238 137.709 116.058 137.135C115.976 136.877 115.843 136.608 115.779 136.321C116.429 136.057 117.184 135.934 117.91 135.753C118.444 135.618 119.535 135.548 120.122 135.671C120.714 135.799 121.155 135.747 121.649 135.917C123.251 136.461 124.54 137.791 124.946 139.525C125.005 139.765 124.871 140.105 124.825 140.298C124.662 140.977 124.656 141.68 124.505 142.324C124.348 142.986 124.424 143.607 124.261 144.269C123.855 145.956 123.791 147.825 123.379 149.459C123.152 150.343 123.123 151.146 122.856 151.971C122.52 153.02 122.282 154.109 121.933 155.175C121.486 156.523 120.964 157.835 120.447 159.112C120.11 159.937 119.907 160.758 119.564 161.548C119.181 162.427 118.566 163.264 118.037 164.02C117.236 165.174 116.371 166.556 115.262 167.388C113.544 168.682 111.395 169.596 109.149 170.352C108.556 170.551 108.005 170.586 107.378 170.756C106.542 170.984 105.52 170.99 104.603 171.201C104.295 171.213 103.987 171.23 103.679 171.242C103.168 171.359 102.541 171.242 101.99 171.365C101.485 171.476 100.422 171.517 99.8997 171.406H99.1334C98.2683 171.213 97.3045 171.236 96.4801 171.043C95.9169 170.99 95.3537 170.938 94.7905 170.879C94.5119 170.879 93.9835 170.961 93.7861 170.838C93.4726 170.686 93.3274 170.118 93.1823 169.784C92.5901 168.431 92.0559 166.299 92.7004 164.512C93.6003 162.005 95.255 160.517 97.647 159.522C98.0419 159.358 98.4192 159.328 98.8547 159.199C99.6385 158.959 100.567 158.877 101.589 158.877H102.315C103.203 159.076 104.086 159.059 104.887 159.322C107.343 160.131 109.45 161.332 110.838 163.218C110.977 163.405 111.186 163.592 111.32 163.786C111.465 163.997 111.535 164.225 111.68 164.436C111.976 164.846 112.754 165.016 113.248 164.682C114.368 163.92 113.172 162.614 112.766 162.046C111.761 160.646 110.42 159.563 108.945 158.637C108.4 158.297 107.54 158.075 107.053 157.706C107.024 157.688 107.233 157.349 107.296 157.261C107.622 156.798 107.924 156.3 108.179 155.761C108.388 155.322 108.527 154.789 108.661 154.303C108.672 154.156 108.69 154.004 108.702 153.858C108.794 153.682 109.613 153.424 109.828 153.289C110.327 152.985 110.809 152.628 111.274 152.276C111.448 152.1 111.622 151.925 111.796 151.749C112.022 151.573 112.29 151.386 112.441 151.14C112.638 150.818 112.638 150.244 112.441 149.921C112.179 149.5 111.419 149.219 110.873 149.558C110.437 149.828 110.124 150.343 109.706 150.654C108.702 151.397 107.691 151.86 106.246 152.194C105.717 152.317 104.922 152.182 104.556 152.071C103.366 151.72 102.803 151.573 102.466 150.326C102.414 150.138 102.309 149.757 102.385 149.476C102.431 149.295 102.547 149.142 102.629 148.99C103.453 148.645 104.806 148.896 105.764 148.668C107.233 148.317 108.359 147.895 109.381 147.128C110.391 146.372 110.995 145.095 111.349 143.678C111.709 142.26 111.279 140.479 110.908 139.46C110.786 139.126 110.763 138.775 110.588 138.488C110.484 138.312 110.257 138.236 110.147 138.084C110.008 137.89 109.973 137.691 109.787 137.557C109.253 137.176 108.313 137.527 107.535 137.352C106.739 137.176 105.938 137.111 105.201 136.865C104.678 136.678 104.155 136.485 103.633 136.297C103.749 135.958 104.208 135.653 104.475 135.448L104.481 135.436ZM94.7905 132.836C95.0634 133.199 95.5918 133.65 95.9575 133.931C96.1607 134.136 96.3581 134.335 96.5613 134.54C97.4206 135.19 98.2567 135.905 99.174 136.485C100.782 137.51 102.565 138.342 104.521 138.998C105.189 139.22 105.915 139.314 106.611 139.484C106.925 139.56 107.36 139.454 107.616 139.607C107.883 139.607 108.44 139.531 108.62 139.648C109.143 140.304 109.352 142.793 109.021 143.783C108.568 145.154 107.436 145.874 106.042 146.296C105.624 146.425 105.259 146.354 104.794 146.46C104.446 146.542 103.348 146.594 102.942 146.501C102.536 146.407 102.077 146.448 101.653 146.337C100.765 146.108 99.8823 145.968 99.0405 145.687C96.2536 144.749 93.7919 143.391 91.6031 141.832C90.9702 141.381 90.4071 140.796 89.7916 140.333C88.6769 139.484 87.6144 138.418 86.7784 137.293C86.4707 136.883 86.0701 136.502 85.774 136.075C84.9321 134.862 84.3225 133.626 83.7651 132.098C83.5793 131.588 83.2194 130.188 83.4051 129.38C83.4806 129.04 83.5967 128.694 83.649 128.366C84.0264 128.284 84.2586 128.132 84.6128 128.044C84.9321 127.968 85.3966 128.079 85.6578 127.921C89.6871 127.927 91.7715 129.011 93.5016 131.33C93.8906 131.852 94.3957 132.303 94.7905 132.83V132.836ZM129.574 101.844C129.295 103.075 128.958 104.123 128.529 105.13C127.942 106.495 127.321 107.678 126.038 108.334C125.753 108.481 124.714 108.739 124.308 108.457H124.267C124.383 108.129 124.697 107.889 124.871 107.608C125.347 106.835 125.614 105.863 125.875 104.89C126.067 104.17 125.875 103.49 125.434 103.186C124.871 102.805 124.041 103.133 123.785 103.549C123.698 103.695 123.576 104.041 123.623 104.281C123.629 104.316 123.687 104.428 123.663 104.527C123.553 105.037 123.379 105.57 123.181 106.027C122.961 106.524 122.56 106.876 122.258 107.286C121.289 108.586 119.82 109.564 118.119 110.127C117.283 110.402 115.129 110.835 114.02 110.572C112.812 110.285 111.738 109.922 110.6 109.6C109.845 109.383 109.044 109.418 108.225 109.236C107 108.961 105.566 110.074 106.298 111.181C106.855 112.03 107.569 111.392 108.469 111.544V111.585C108.092 111.708 107.836 112.06 107.546 112.276C106.774 112.856 106.1 113.694 105.694 114.631C105.34 115.451 105.648 116.295 106.379 116.5C107.058 116.687 107.552 116.183 107.709 115.808C107.79 115.615 107.773 115.445 107.871 115.281C108.028 115.023 108.214 114.754 108.394 114.508C109.032 113.647 111.221 112.276 112.859 112.804C113.294 112.944 113.608 113.19 113.944 113.413C114.293 114.965 113.242 116.148 112.499 116.904C111.616 117.794 110.617 118.491 109.282 118.93C108.882 119.065 108.133 119.176 107.715 119.094C107.14 118.977 106.623 119.077 106.106 118.93C104.742 118.544 103.389 117.735 102.646 116.74C102.181 116.119 101.787 115.451 101.52 114.631C100.649 111.931 102.332 109.125 103.331 107.614C103.598 107.204 103.836 106.811 104.173 106.478C104.417 106.237 104.713 106.132 104.858 105.786C105.055 105.3 104.8 104.668 104.498 104.445C103.488 103.707 102.536 104.902 102.123 105.458C101.2 106.712 100.353 108.03 99.7082 109.594C99.5456 110.162 99.3888 110.73 99.2263 111.298C99.1508 111.579 99.2379 111.96 99.1043 112.189V112.634C97.229 112.142 95.8298 109.207 96.573 106.548C97.0374 104.873 97.7458 103.537 98.6224 102.29C98.9244 101.862 99.3134 101.493 99.6269 101.071C99.8823 100.732 100.289 100.398 100.631 100.14C100.724 100.035 100.817 99.9233 100.91 99.8178C101.067 99.6948 101.282 99.5777 101.392 99.4137C101.531 99.2087 101.624 98.7108 101.514 98.4004C101.357 97.9728 100.724 97.4222 100.027 97.7092C99.714 97.8381 99.3772 98.1661 99.145 98.4004C98.1115 99.4195 97.1071 100.491 96.2885 101.727C96.0156 102.143 95.7775 102.606 95.5221 103.028C95.3769 103.268 95.3421 103.596 95.1621 103.801C95.1505 103.813 95.1331 103.83 95.1215 103.842C94.9996 103.262 94.9008 102.6 94.7615 101.973V101.159C94.7615 99.8588 94.9589 98.8572 95.3247 97.9552C96.5265 95.0031 98.6108 93.1698 101.52 91.9514C102.495 91.5414 103.587 91.3774 104.695 91.1021C105.189 91.0494 105.688 90.9967 106.182 90.9381C107.082 90.9381 108.167 90.7917 108.998 90.9791C110.078 91.2251 111.186 91.2251 112.173 91.5473C114.223 92.215 116.04 92.9706 117.683 94.0191C118.479 94.5287 119.315 95.1847 119.977 95.8466C120.36 96.2332 120.766 96.895 121.341 97.0649C122.287 97.3402 123.019 96.2859 122.671 95.4834C122.531 95.1613 122.183 94.9094 121.945 94.6693C121.364 94.0835 120.743 93.3865 120.017 92.9648C120.162 92.5489 120.72 92.3029 121.062 92.0744C121.533 91.7581 122.038 91.4184 122.63 91.2251C124.296 90.6863 126.009 91.969 126.851 92.6016C127.96 93.4392 128.709 94.7805 129.185 96.2507C129.33 96.6959 129.307 97.1059 129.429 97.592C129.597 98.2832 129.754 99.4371 129.591 100.146C129.469 100.655 129.713 101.306 129.591 101.85L129.574 101.844ZM116.865 86.3518V85.0515C116.766 84.5888 116.731 83.224 116.824 82.7789V82.0467C116.894 81.5605 116.958 81.0744 117.027 80.5882C117.132 80.2075 117.242 79.8326 117.347 79.4519C122.264 79.3523 126.508 79.9791 129.371 82.0467C130.34 82.7496 131.606 84.1378 131.019 85.9828C130.642 87.1777 129.916 88.0739 129.127 88.8646C128.982 89.0286 128.831 89.1868 128.685 89.3508C128.337 89.6144 127.803 89.9248 127.559 90.2821C127.205 90.2177 126.944 89.919 126.677 89.7549C126.16 89.4328 125.492 89.2044 124.865 89.0228C122.653 88.3902 120.789 89.4855 119.559 90.3641C119.036 90.7331 118.496 91.0787 118.154 91.6234C117.677 91.5648 117.277 91.1607 116.865 90.9733C116.876 89.9775 116.905 88.8646 116.905 87.8103C116.905 87.3417 116.952 86.7501 116.865 86.3518ZM139.426 86.633C139.299 87.207 139.31 87.6932 139.148 88.2145C138.521 90.206 137.69 91.723 136.21 92.8418C135.385 93.4626 134.747 93.7438 133.679 94.1421C133.307 94.2827 132.616 94.4701 132.07 94.3061C131.757 94.2124 130.712 93.9488 130.543 93.7379C130.421 93.5856 130.404 93.3806 130.3 93.2108C130.044 92.789 129.655 92.1506 129.254 91.8694C129.324 91.6293 129.562 91.559 129.736 91.4243C129.963 91.1958 130.189 90.9674 130.421 90.7331C130.601 90.5984 130.81 90.4637 130.944 90.288C131.687 89.2922 132.477 88.4136 132.993 87.166C133.191 86.6916 133.185 86.2288 133.313 85.6665C133.441 85.1101 133.371 84.2373 133.232 83.757C133.081 83.2299 132.895 82.691 132.628 82.2576C131.048 79.6686 128.128 78.6729 124.865 77.7533C124.128 77.6303 123.39 77.5073 122.653 77.3901C122.409 77.3784 122.171 77.3608 121.927 77.3491C120.975 77.1324 119.826 77.1851 118.711 77.1851C118.148 77.1851 117.439 77.1207 116.94 77.2261H116.174C115.233 77.4311 114.171 77.3608 113.277 77.5483H112.551C111.993 77.6771 111.227 77.8119 110.943 78.2394C110.397 79.0536 111.094 79.8795 111.784 80.0259C112.255 80.1255 112.673 79.7213 113.189 79.8619C113.486 79.9439 113.95 80.0962 114.194 80.2661C114.386 80.4008 114.478 80.6702 114.716 80.7522C114.664 81.2267 114.612 81.7011 114.554 82.1697V83.6282C114.583 84.7938 114.606 85.9535 114.635 87.1191C114.647 87.7166 114.664 88.3082 114.676 88.9056C114.676 89.1106 114.716 89.4621 114.635 89.5968V90.001C114.072 89.8135 113.509 89.6202 112.946 89.4328C112.11 89.1575 111.21 89.0755 110.333 88.8646C109.996 88.8353 109.665 88.8119 109.329 88.7826C108.092 88.4956 105.787 88.5893 104.626 88.8646C104.37 88.8939 104.115 88.9173 103.859 88.9466C103.151 89.1282 102.414 89.2454 101.729 89.4738C98.6224 90.5164 96.1143 92.2502 94.4132 94.7044C93.6758 95.7704 93.1591 97.0766 92.7643 98.4765C92.6365 98.9392 92.6772 99.3551 92.5611 99.853C92.4101 100.521 92.3985 101.962 92.5611 102.653C92.7236 103.344 92.8456 104.07 93.043 104.679C93.2926 105.441 93.4552 106.583 94.21 106.829C94.2041 107.579 93.9951 108.481 94.1693 109.266C94.6744 111.533 95.5105 113.079 97.1419 114.174C97.5948 114.479 98.158 114.731 98.6689 114.947C98.8779 115.035 99.1101 115.023 99.2727 115.152C99.4585 115.264 99.7546 116.464 99.9172 116.734C100.463 117.648 101.096 118.538 101.926 119.17C102.187 119.37 102.39 119.698 102.733 119.821C102.634 120.078 102.269 120.166 102.048 120.307C101.52 120.641 100.956 120.939 100.399 121.279C98.425 122.492 96.0969 123.399 93.7223 124.202C93.2288 124.366 92.7817 124.401 92.2766 124.565C91.2025 124.916 89.9484 125.045 88.7756 125.338C88.2415 125.467 87.6725 125.426 87.1674 125.543C86.5403 125.584 85.9075 125.625 85.2747 125.666H84.4676C84.1599 125.737 83.5735 125.731 83.26 125.666C82.6794 125.543 82.0407 125.696 81.5298 125.584C80.8447 125.438 80.2177 125.578 79.5616 125.42C78.325 125.127 77.0302 124.993 75.9039 124.647C74.7021 124.278 73.5873 124.05 72.4842 123.593C70.1618 122.626 67.9498 121.519 66.0106 120.143C65.3023 119.639 64.6462 119.036 63.9611 118.52C63.009 117.8 61.9813 116.962 61.2672 116.007C61.064 115.82 60.8666 115.627 60.6634 115.439C60.135 114.736 59.4906 114.121 58.9738 113.413C57.8417 111.861 56.8953 110.197 55.8793 108.504C55.56 107.971 55.3684 107.386 55.1129 106.8C54.3001 104.937 53.6266 102.934 53.0228 100.796C52.6048 99.3024 52.5757 97.6799 52.2158 96.0926C52.1054 95.5947 52.1635 95.0617 52.0938 94.5931V93.8609C51.9661 93.2869 51.9719 91.354 52.0938 90.78C52.1925 90.3114 52.088 89.8135 52.1751 89.4035C52.1867 89.1048 52.2041 88.8061 52.2158 88.5132C52.3899 87.74 52.4016 86.8556 52.5757 86.1175C52.7673 85.3268 52.7673 84.6005 52.9763 83.8449C53.0983 83.4115 53.3015 82.9604 53.4176 82.5446V82.1814C53.5453 81.7011 53.7021 81.1622 53.8995 80.6819C54.4452 79.3406 54.9678 77.9993 55.5484 76.6638C55.7458 76.2128 56.0941 75.7676 56.2741 75.3225C56.5586 74.602 56.8547 73.9694 57.2379 73.3368C58.4629 71.3219 59.897 69.5179 61.1801 67.5791C62.858 65.037 64.385 62.3778 65.9642 59.7478C66.2951 59.1972 66.5041 58.6057 66.7712 58.0023C67.5782 56.1456 68.2749 54.1365 68.9426 52.0806C69.5 50.3527 69.5813 48.4315 70.0283 46.563C70.1967 45.8484 70.1502 45.0928 70.307 44.4133C70.336 44.0736 70.3593 43.7397 70.3883 43.4C70.5392 42.7147 70.5567 41.8654 70.7076 41.2094C70.7366 40.8579 70.7599 40.5065 70.7889 40.1551C70.934 39.1827 71.085 38.2104 71.2301 37.2323C71.9443 34.3973 72.4203 31.5975 73.4422 29.0788C74.4176 26.6832 75.3407 24.2583 76.618 22.1438C77.2393 21.1187 77.8257 20.041 78.5108 19.0628C78.8998 18.5005 79.3642 17.9558 79.759 17.3993C80.4499 16.4329 81.2279 15.5777 81.9304 14.6405C82.2498 14.3184 82.5749 13.9904 82.8942 13.6682C83.1787 13.2933 83.7361 12.649 84.1019 12.3679C84.6766 11.9286 85.1353 11.3429 85.7101 10.9094C86.7319 10.1362 87.7131 9.29864 88.764 8.55476C91.0631 6.92642 93.6584 5.77253 96.4452 4.61864C97.8561 4.0329 99.4643 3.81032 101.032 3.40031C101.479 3.28316 101.938 3.29488 102.361 3.19531C103.058 3.12502 103.755 3.06059 104.452 2.9903C104.736 2.92587 105.16 3.07816 105.375 2.9493C112.98 2.97858 118.334 5.20437 122.827 8.3849C123.147 8.61334 123.367 8.96478 123.669 9.19907C124.627 9.92538 125.562 10.7103 126.282 11.6709C126.456 11.8466 126.63 12.0223 126.804 12.198C127.745 13.4632 128.581 14.7811 129.417 16.1751C129.626 16.5266 129.731 16.8839 129.899 17.2705C130.433 18.4947 130.979 19.8126 131.426 21.1656C131.646 21.8275 131.71 22.4542 131.908 23.1512C132.599 25.6055 132.912 28.5283 132.912 31.5916C132.912 32.8275 133.022 34.4207 132.79 35.4868V36.0549C132.686 37.0682 132.575 38.0816 132.471 39.0949C132.279 39.9208 132.279 40.8111 132.07 41.6487C131.501 43.8803 131.194 46.1237 130.503 48.2206C129.202 52.1684 127.809 55.9054 126.038 59.3378C125.475 60.4273 125.016 61.5167 124.389 62.5418C123.443 64.094 122.537 65.6637 121.533 67.1691C121.236 67.6142 120.923 68.0594 120.609 68.5104C120.447 68.7447 120.203 68.9204 120.128 69.2426C118.223 69.2426 116.301 69.3773 114.699 69.7697C114.415 69.84 114.142 69.7814 113.892 69.8927C113.416 70.0977 112.986 70.8592 113.329 71.5152C113.666 72.1595 114.502 72.1068 115.256 71.9194C115.523 71.8901 115.791 71.8667 116.063 71.8374C116.749 71.6792 117.59 71.7085 118.316 71.5562H118.961C119.419 71.4566 120.499 71.4215 120.929 71.5152H121.974C122.682 71.5679 123.396 71.6206 124.105 71.6792C125.457 71.9838 126.81 72.0482 128.047 72.4524C132.181 73.7937 135.716 75.6915 137.818 79.0653C138.515 80.1841 138.979 81.461 139.345 82.9194C139.595 83.921 139.618 85.6197 139.386 86.6506L139.426 86.633ZM97.769 13.8146C99.8765 13.0356 101.473 11.7411 102.913 10.2827C103.441 9.75552 104.086 9.1815 104.481 8.53719C105.073 7.57659 104.295 6.77999 103.273 6.79171C103.227 6.82685 103.203 6.82685 103.11 6.83271C102.954 6.985 102.721 7.06114 102.588 7.23686C102.001 8.02175 101.351 8.79491 100.579 9.3865C100.498 9.48022 100.416 9.57394 100.335 9.66765C99.6327 10.2007 98.9476 10.6458 98.1638 11.1261C97.6645 11.4307 96.3872 12.0926 95.5105 11.8173C94.9821 11.6533 94.7847 11.0148 94.8254 10.2768C94.837 10.1128 94.8544 9.95467 94.866 9.79066C94.7615 9.35722 94.5525 9.11121 94.1809 8.94135C94.0474 8.87692 93.8151 8.75977 93.5771 8.81834C92.1024 9.17564 92.532 11.6884 93.1358 12.6725C93.9255 13.9552 95.8937 14.5 97.7574 13.8088L97.769 13.8146ZM110.234 9.84338C111.076 10.3705 111.831 9.49779 112.324 9.15221C112.632 8.93549 112.934 8.83591 113.091 8.46105C113.48 7.51216 112.621 6.903 111.802 6.92057C111.697 6.99671 111.564 6.97914 111.442 7.04357C111.117 7.21343 110.002 8.01589 109.834 8.3029C109.497 8.87692 109.857 9.60908 110.234 9.84338ZM104.243 13.5745C105.102 15.6363 107.128 17.7859 109.189 18.6469C110.693 19.2737 112.713 19.0335 113.892 18.2838C114.612 17.8269 115.251 17.1065 115.703 16.3743C115.93 16.0053 116.046 15.6246 116.226 15.197C116.615 14.2774 117.178 12.116 116.87 10.6927C116.696 9.87266 116.888 9.2635 116.47 8.70705C116.29 8.4669 115.947 8.44347 115.628 8.3439C115.558 8.39076 115.454 8.34976 115.349 8.3849C115.129 8.45519 114.827 8.65434 114.705 8.83006C114.223 9.54465 114.914 11.3956 114.624 12.6432C114.217 14.3769 113.788 15.935 112.33 16.5793C111.663 16.8722 110.71 16.7843 110.078 16.5383C108.632 15.9819 107.593 14.8514 106.82 13.6155C106.553 13.1879 106.379 12.4382 105.979 12.157C105.055 11.5127 103.766 12.4147 104.248 13.5745H104.243ZM121.207 21.4057C121.527 21.4585 121.852 21.5112 122.171 21.5698C122.81 21.7162 123.547 21.4526 123.942 21.2886C125.423 20.6677 125.963 19.5255 126.357 17.7976C126.433 17.4638 126.415 16.9952 126.357 16.7023C126.27 16.2747 126.34 15.9467 126.235 15.566C125.986 14.6464 125.626 13.9552 125.15 13.2933C124.813 12.8248 124.592 12.4382 123.785 12.444C123.46 12.6725 123.129 12.69 122.943 13.0532C122.496 13.9318 123.39 14.5468 123.669 14.9978C124.151 15.7827 124.337 17.4228 123.913 18.4068C123.495 19.3674 122.386 19.5314 121.3 19.057C120.865 18.8637 120.522 18.4537 120.133 18.2838C119.814 18.1491 119.297 18.1959 119.048 18.3658C118.612 18.6587 118.386 19.4963 118.769 20.0293C119.199 20.6326 120.435 21.148 121.219 21.4057H121.207ZM75.0098 34.2626C75.3698 34.3973 75.8923 34.2626 76.3393 34.2626C76.9548 34.2626 77.8663 34.327 78.4295 34.4676C79.1378 34.6375 79.881 34.6902 80.5602 34.9128C81.6692 35.2759 82.7549 35.7269 83.7361 36.1721C83.6548 36.5528 83.5735 36.9277 83.4922 37.3084C83.4284 37.5954 83.4632 37.9117 83.4109 38.1577C83.26 38.8664 83.5387 40.1199 83.6896 40.6295C84.3457 42.8319 85.3559 44.2611 87.1093 45.3329C87.9802 45.866 90.0297 46.3931 91.4928 46.0241C92.7353 45.7078 93.6642 45.2451 94.5467 44.6066C94.9009 44.3489 95.3885 44.0678 95.5918 43.6753C95.9866 42.9139 95.2899 41.7834 94.3841 42.0118C93.8558 42.1466 93.6003 42.5859 93.2171 42.8612C92.6307 43.2829 91.9166 43.5816 91.127 43.7925C90.3084 44.0092 89.3039 43.7983 88.7117 43.5465C87.1848 42.9021 86.3139 41.7775 85.8146 40.0965C85.6462 39.5283 85.5417 38.2631 85.6927 37.5837C86.2442 35.1588 87.3474 33.3254 89.391 32.4292C91.3128 31.5916 93.641 32.3062 94.5757 33.5656C95.1389 34.3212 95.5163 35.1295 95.7834 36.2014C95.9401 36.8222 95.7079 37.8766 96.0272 38.351C96.1898 38.597 96.6833 38.966 97.1942 38.8372C98.1696 38.5912 98.3205 37.2908 98.036 36.0784C97.7109 34.6785 97.3277 33.548 96.631 32.5464C96.4278 32.2594 96.1317 31.8904 95.8646 31.6561C95.7311 31.5389 95.6034 31.4862 95.5047 31.3339C95.5047 31.3339 95.8008 30.4963 95.8646 30.3206C96.2594 29.2839 96.5323 28.13 96.8284 26.9526C96.9097 26.3552 96.991 25.7636 97.0723 25.1662V24.475C97.2348 23.7955 97.0955 22.7236 96.9503 22.1203C96.8226 21.5873 96.8284 21.1422 96.6717 20.6619C95.9575 18.5415 94.7383 17.0186 92.6133 16.3216C91.9979 16.1166 91.2547 16.1049 90.4419 16.1166C90.3432 16.1751 90.1865 16.1166 90.0413 16.1576C89.6639 16.2396 89.2923 16.3216 88.915 16.4036C88.0325 16.6906 87.1616 17.042 86.4242 17.4989C82.8129 19.7364 80.2816 23.1454 78.5049 27.2338C78.1798 27.9835 77.8489 28.8153 77.5818 29.6294C77.4599 29.9926 77.4541 30.3089 77.338 30.6838C77.2218 31.0645 77.0593 31.5214 77.0593 31.9841C77.0477 31.9958 77.0302 32.0134 77.0186 32.0251C76.1884 32.0075 75.2188 31.8845 74.6847 32.2711C73.9589 32.7983 74.2957 33.9873 75.004 34.2567L75.0098 34.2626ZM80.4383 28.4228C81.884 25.0373 84.0438 21.7865 86.9119 19.8653C87.5331 19.4494 88.2415 19.0687 88.9614 18.7699C89.3504 18.6645 89.7394 18.5532 90.1284 18.4478H90.3316V18.4888C89.8787 18.7641 89.4433 19.2444 89.124 19.6661C88.9614 19.8126 88.8046 19.9648 88.6421 20.1113C88.2124 20.6853 87.6957 21.1949 87.2777 21.7748C87.0048 22.1496 86.5287 23.0282 86.192 23.2742C86.3139 23.5495 86.8945 23.6432 87.1151 23.8424C87.8757 24.5101 88.4969 25.4883 88.764 26.6422C88.8859 27.1752 88.6885 27.7551 88.5608 28.0597C87.6725 30.1917 84.7231 29.3717 83.0916 28.5868C82.6329 29.5357 82.2382 30.4846 81.8027 31.5096C81.6401 31.8904 81.3731 32.3472 81.3208 32.81C80.6473 32.7045 80.0261 32.3648 79.2713 32.3648C79.3236 31.0586 80.0087 29.4361 80.4383 28.4287V28.4228ZM100.341 22.3371C100.753 22.0266 101.287 21.8275 101.868 21.6869C102.565 21.517 103.47 21.6869 103.999 21.8509C105.148 22.1965 106.008 22.6006 106.855 23.2274C107.192 23.4792 107.447 23.8775 107.778 24.1177C108.318 24.5101 109.16 24.3344 109.468 23.8365C110.043 22.8994 109.05 22.1496 108.545 21.7689C106.948 20.5564 105.172 19.303 102.315 19.3733C102.118 19.4963 101.235 19.4845 100.951 19.5783C99.8243 19.9414 99.0521 20.4744 98.338 21.2417C98.0419 21.558 97.6354 22.0735 97.8967 22.7002C98.0767 23.1337 98.7734 23.6315 99.4237 23.3094C99.8359 23.1044 99.9926 22.6006 100.347 22.3371H100.341ZM117.91 48.9879C117.794 48.5018 117.184 47.5236 116.824 47.2834C116.917 46.8148 117.352 46.3638 117.59 45.9831C117.782 45.6668 117.881 45.3329 118.072 45.0108C118.38 44.5012 118.717 43.8979 118.955 43.3473C119.344 42.457 119.622 41.596 120 40.6705C122.177 35.3228 123.768 23.1161 115.698 23.1864C115.46 23.3387 115.059 23.2625 114.775 23.3504C114.362 23.4792 113.921 23.6198 113.526 23.7955C112.359 24.3168 111.43 25.131 110.472 25.8632C110.31 26.0389 110.153 26.2146 109.99 26.3903C109.491 26.8941 109.009 27.3568 108.585 27.9308C108.167 28.4873 107.662 29.0144 107.256 29.5943C105.944 31.4862 104.864 33.6359 103.917 35.8792C103.505 36.8515 103.209 37.9117 102.872 38.9192C102.727 39.3643 102.745 39.9559 102.512 40.3366H101.223C100.289 40.5475 99.8591 40.3601 99.534 41.227C99.4701 41.3968 99.4121 41.678 99.4933 41.9181C99.8417 42.9256 100.771 42.6093 101.943 42.6093H102.547C103.546 42.8319 104.533 42.8377 105.444 43.1364C108.481 44.1263 111.07 45.3271 113.364 47.0316C114.02 47.5177 114.856 48.2792 115.332 48.9411C115.703 49.4506 115.883 50.0891 116.58 50.2824C117.259 50.4698 118.072 49.6557 117.91 48.9821V48.9879ZM113.892 27.0815C113.137 28.1417 112.377 29.2311 111.68 30.3675C111.395 30.8243 111.233 31.4335 110.873 31.8259C111.152 32.0895 111.604 32.2125 111.918 32.4351C112.864 33.1087 113.66 34.0752 113.967 35.3989C114.066 35.8206 113.909 36.2892 113.805 36.5352C113.178 38.0464 111.349 37.7301 109.822 37.3084C109.445 37.203 108.934 37.2381 108.655 37.0272C108.278 37.0565 108.243 37.695 108.133 37.9996C107.819 38.8372 107.227 40.3074 107.25 41.3675C106.472 41.1742 105.677 40.7642 104.8 40.7174C104.788 40.7056 104.771 40.6881 104.759 40.6764C104.783 40.2781 104.939 39.9442 105.038 39.622C105.375 38.5853 105.653 37.6247 106.042 36.6992C106.855 34.7605 107.685 32.9915 108.777 31.3456C109.195 30.7072 109.689 30.0922 110.141 29.4771C110.304 29.3131 110.461 29.155 110.623 28.991C111.099 28.3525 111.721 27.6848 112.353 27.2045C112.859 26.8238 113.381 26.4431 113.921 26.1092C114.258 25.9627 114.589 25.8105 114.925 25.664C114.995 25.6875 114.966 25.6699 115.007 25.705C114.554 26.0213 114.206 26.6305 113.88 27.0815H113.892ZM124.906 24.0415C124.679 24.0298 124.453 24.0123 124.221 24.0005C123.884 24.27 123.187 24.5218 123.379 25.3009C123.53 25.9217 124.145 26.6012 124.465 27.1284C125.19 28.3291 125.55 29.688 125.91 31.2636C126.195 32.5112 125.655 34.081 125.028 34.5496C124.604 34.8659 124 34.9596 123.779 35.4809C123.472 36.2189 124.163 37.2615 124.987 37.0624C126.944 36.5821 128.163 34.5379 128.163 32.0309C128.163 31.5214 128.192 31.0528 128.082 30.6135C127.693 29.0261 127.286 27.6145 126.555 26.3962C126.154 25.7343 125.62 24.311 124.906 24.0415ZM78.2669 37.3435C78.2205 37.3787 78.1972 37.3787 78.1043 37.3845C77.8082 37.654 77.5063 37.7828 77.3786 38.2339C77.158 39.0422 78.145 39.8505 78.9055 39.5752C80.0958 39.1359 79.8113 37.2967 78.2611 37.3435H78.2669ZM74.8066 40.2663C76.2058 39.9559 76.0955 38.0113 74.5627 37.9527C74.1563 38.2046 73.8138 38.146 73.599 38.6439C73.2738 39.3877 74.0054 40.4421 74.8066 40.2663ZM124.79 41.5667C124.476 41.7893 124.186 41.801 123.983 42.1348C123.727 42.5683 123.907 43.3649 123.779 43.9213C123.53 45.0049 123.385 46.0475 123.054 47.0433C122.2 49.6439 121.022 51.6179 119.553 53.5742C119.332 53.8671 118.723 54.4469 118.426 54.6695C118.194 54.8394 117.904 54.9624 117.741 55.1967C117.283 55.8527 117.706 56.7079 118.264 56.9422C118.514 57.0476 118.903 57.0476 119.146 56.9422C119.326 56.866 119.419 56.702 119.547 56.579C119.669 56.456 119.849 56.3974 119.988 56.2979C120.4 55.9874 120.801 55.5364 121.115 55.1205C121.26 54.9741 121.411 54.8218 121.556 54.6754C122.049 54.0076 122.56 53.3165 123.001 52.6077C124.157 50.7568 124.877 48.5896 125.574 46.2818C125.771 45.6317 125.817 44.9288 125.974 44.2552C125.986 44.0268 126.003 43.7983 126.015 43.564C126.108 43.154 126.137 42.5156 125.974 42.1876C125.783 41.801 125.37 41.5608 124.766 41.5784L124.79 41.5667ZM76.5367 42.498C76.3393 43.0954 76.9722 44.1498 77.7444 43.9565C78.1856 43.8452 78.6269 43.6109 78.7894 43.2243C79.19 42.2754 78.412 41.6135 77.5005 41.6428C77.0883 41.9474 76.7341 41.9064 76.5367 42.4921V42.498ZM101.746 57.5455C102.251 57.3346 103.168 57.0769 103.476 56.6962C103.749 56.8016 103.935 57.1003 104.161 57.2643C104.963 57.8325 107.517 59.3905 108.022 57.6275C108.388 56.3564 106.942 56.2627 106.292 55.964C105.073 55.3958 103.912 53.9784 103.314 52.76C102.872 51.858 103.29 50.7568 102.187 50.4464C101.322 50.2062 100.62 51.1493 100.823 52.0279C101.02 52.8948 101.444 54.4645 101.99 54.9097C101.856 55.2318 100.805 55.4954 100.422 55.6418C99.592 55.9523 98.6341 56.0636 97.647 56.292C97.2058 56.3037 96.7645 56.3213 96.3175 56.333C95.9517 56.415 95.2957 56.374 94.9125 56.292C94.5351 56.2627 94.1635 56.2393 93.7861 56.21C92.8746 55.9874 91.9456 55.8879 91.0922 55.6008C88.0847 54.5934 85.4256 53.0412 83.5329 50.8974C83.3587 50.7334 83.1845 50.5753 83.0103 50.4113C82.4878 49.7142 82.0001 49.0641 81.524 48.3026C81.3731 48.0625 81.1582 47.8457 81.0828 47.5294C81.0479 47.4884 81.0654 47.5177 81.0421 47.4474C81.6866 47.0316 82.8304 45.5555 83.0916 44.7706C83.3819 43.9038 82.6039 43.2946 81.8027 43.3122C81.6634 43.4117 81.4602 43.4176 81.3208 43.5172C80.9376 43.7925 80.7867 44.3899 80.5138 44.7765C80.0203 45.4852 79.2829 46.112 78.383 46.399C77.367 46.727 76.2116 46.0182 75.5265 45.7898C74.8356 45.5614 74.2202 45.8308 73.9589 46.276C73.6976 46.7211 73.9067 47.3069 74.1621 47.5763C74.7195 48.1562 76.4438 48.49 77.4192 48.7126C77.7792 48.7946 78.772 48.6716 78.9462 48.5486C79.2075 48.6189 79.6545 49.6615 79.8287 49.9251C80.5719 51.0497 81.4718 52.0689 82.4007 53.006C84.6476 55.2728 87.568 56.7957 90.9644 57.9145C91.8586 58.2074 92.8223 58.2542 93.7803 58.4827C94.2041 58.5822 94.6686 58.5119 95.0692 58.6057C95.5105 58.7052 96.6949 58.6467 97.0781 58.5647C97.6064 58.4475 98.0709 58.5647 98.5644 58.4416C99.6965 58.1605 100.788 57.9555 101.74 57.5513L101.746 57.5455ZM107.535 47.6466C107.163 47.9043 106.797 47.9395 106.611 48.3788C106.304 49.0816 107.006 50.136 107.778 49.9602C109.241 49.6322 109.358 47.5939 107.535 47.6466ZM71.0676 64.0003C71.3753 65.1366 71.7527 65.8687 72.3565 66.6771C72.5249 66.9055 72.7165 67.1808 72.9603 67.3272C73.2216 67.4854 73.6164 67.4326 73.9647 67.4092C74.1737 67.2101 74.4292 67.1164 74.5685 66.8411C74.9924 65.9859 74.2028 65.529 73.9241 65.1366C73.5583 64.627 73.3667 63.93 73.1983 63.2271C73.1867 62.9166 73.1693 62.6062 73.1577 62.2958C73.1287 62.1728 73.0764 61.874 73.1171 61.6866C73.1867 61.3762 73.1171 60.9779 73.1983 60.6323C73.3319 59.8591 73.4654 59.0918 73.599 58.3186C73.9241 57.1296 74.1795 55.9171 74.5627 54.7515C74.7543 54.1658 75.0446 53.5215 75.2072 52.924C75.4452 52.0513 74.5918 51.571 73.8428 51.5827C73.6338 51.7409 73.3551 51.776 73.1983 51.9869C72.7861 52.5609 72.641 53.6328 72.3913 54.3825C71.9385 55.7649 71.6017 57.2702 71.2243 58.7638C71.0211 59.5663 71.085 60.439 70.905 61.2766C70.7947 61.7862 70.8992 62.8581 70.9863 63.2622C71.0153 63.5082 71.0385 63.7484 71.0676 63.9944V64.0003ZM107.134 51.7877C106.989 51.6881 106.751 51.6823 106.571 51.6237C106.466 51.6881 106.251 51.653 106.129 51.7057C105.566 51.94 105.421 52.4379 105.485 53.2052C105.607 53.3341 105.665 53.5449 105.804 53.6503C106.321 54.0428 107.169 54.0018 107.535 53.4863C107.97 52.8772 107.587 52.0806 107.134 51.7819V51.7877ZM110.194 51.8697C109.979 51.9576 109.683 52.268 109.59 52.4789C109.23 53.3106 110.13 54.3591 111.076 54.1014C112.423 53.7324 112.069 51.7643 110.513 51.7877C110.426 51.8404 110.298 51.8229 110.194 51.8697ZM84.218 61.3176C84.5547 61.3996 84.9321 61.2004 85.1005 61.0716C85.4024 60.8549 85.4256 60.4331 85.5824 60.0583C85.7391 59.6893 85.9655 59.2851 86.0642 58.8809C86.1107 58.6994 86.0178 58.5412 85.983 58.4358C85.7798 57.8501 85.472 57.5982 84.6534 57.6216C84.485 57.7505 84.218 57.7798 84.0902 57.9438C83.8638 58.2308 83.7999 58.5939 83.649 58.9571C83.2542 59.8943 82.9232 60.9954 84.2122 61.3117L84.218 61.3176ZM94.2274 61.1595C93.8964 61.3937 93.5713 61.3937 93.3855 61.7686C93.2288 62.0791 93.3565 62.4481 93.2636 62.8639C93.101 63.602 93.043 64.34 92.8223 65.0136C92.085 67.2686 90.767 69.1371 88.9208 70.2852C88.3866 70.619 87.2661 71.2575 86.2268 71.0173C83.6432 70.414 83.0568 67.2745 83.7767 64.2814C83.9741 63.4731 83.1845 62.6765 82.3717 62.9049C81.4892 63.1509 81.5821 64.1174 81.3673 65.0546C80.7751 67.6318 81.8317 70.168 82.8536 71.5445C84.0206 73.1143 86.7726 73.782 89.0485 72.8038C91.8295 71.6031 93.6003 69.1196 94.7557 66.2729C94.895 65.9273 94.9241 65.6227 95.0344 65.2596C95.406 64.053 96.2478 61.1243 94.2274 61.1653V61.1595ZM115.901 64.0354C116.046 63.7015 116.29 63.3677 116.383 62.9811C116.435 62.7761 116.342 62.5711 116.301 62.4539C116.098 61.8799 115.767 61.6632 114.972 61.6808C114.757 61.8506 114.478 61.9033 114.327 62.1259C114.136 62.4129 114.066 62.7702 113.927 63.0982C113.631 63.7777 113.236 64.4981 112.841 65.1249C111.57 67.1691 110.078 69.0258 108.138 70.3965C107.36 70.9471 105.264 72.3528 103.958 71.4098C102.791 70.5663 102.669 67.7548 103.151 65.9742C103.279 65.5173 103.441 65.0019 103.552 64.5567C103.726 63.848 103.139 63.3384 102.71 63.2154C101.415 62.8522 101.287 64.4454 101.061 65.242C100.324 67.8134 100.643 70.8416 101.903 72.5461C103.047 74.0866 105.555 74.2623 107.535 73.3954C110.768 71.9838 113.282 68.6978 115.053 65.7692C115.39 65.2127 115.628 64.6387 115.895 64.0237L115.901 64.0354ZM65.639 76.7751C66.0513 76.4939 66.0977 75.8672 66.3648 75.4338C66.7015 74.8832 67.4737 73.905 67.973 73.5243C68.5826 73.0615 69.1806 72.5812 69.9412 72.265C70.3592 72.0951 71.1082 72.1888 71.4682 71.9428C71.8688 71.6675 71.9152 71.1931 71.8688 70.5663C71.4798 70.1505 71.3056 69.8224 70.4638 69.8342C70.3012 69.9396 70.0225 69.8927 69.8193 69.9572C69.4245 70.0743 69.0297 70.1973 68.6523 70.3613C67.0266 71.0759 65.6913 72.47 64.7507 73.8933C64.3908 74.438 63.4618 75.6798 64.0656 76.5291C64.3559 76.9391 65.1455 77.1031 65.6332 76.7751H65.639ZM73.8428 79.1298C74.0808 78.5616 74.1157 78.011 74.284 77.3433C74.5976 76.1015 74.8356 74.7075 73.1577 74.7485C73.1113 74.7836 73.088 74.7836 72.9951 74.7895C72.7629 75.012 72.4842 75.1116 72.3507 75.4396C72.3216 75.6681 72.2984 75.8965 72.2694 76.1308C72.1475 76.7107 72.0256 77.2964 71.9094 77.8763C71.5088 79.0829 70.6321 80.5296 69.6974 81.2032C68.1936 82.2868 66.4054 81.4785 65.5984 80.3129C65.2152 79.7623 65.3662 79.1005 64.7159 78.7725C63.9437 78.3859 62.8986 79.2059 63.067 80.0318C63.1947 80.6585 63.4734 81.2032 63.7928 81.6543C64.9075 83.2299 67.8395 84.9226 70.307 83.4817C71.9268 82.5329 73.088 80.9514 73.8428 79.1415V79.1298ZM80.3164 77.2203C80.4325 77.0328 80.6009 76.8395 80.6764 76.6111C80.9492 75.7852 80.177 75.1643 79.3874 75.1936C79.1262 75.3752 78.8475 75.3869 78.6617 75.6388C78.0753 76.4529 77.785 77.4838 77.3728 78.4796C76.7864 79.9029 76.4032 81.4844 75.9678 83.1069C75.811 83.6809 75.8575 84.3076 75.7239 84.8934C75.6368 85.2799 75.6949 86.2698 75.7645 86.5978V87.166C76.0258 88.3199 75.7994 89.5734 76.8909 89.8838C77.6573 90.1005 78.4701 89.2746 78.2553 88.5073C77.3438 85.1452 78.6443 80.9748 79.701 78.5264C79.881 78.1164 80.0667 77.6186 80.3048 77.2261L80.3164 77.2203ZM100.178 81.5605C99.9172 80.7405 99.8417 80.2192 98.7734 80.2192C98.367 80.5062 98.0651 80.4769 97.8909 81.0334C97.7458 81.4903 98.0186 82.0408 98.1347 82.4099C98.4018 83.3002 98.4076 84.2842 98.6166 85.2507V85.9418C98.7095 86.9727 98.4541 87.5526 99.2205 88.0505C99.3772 88.15 99.6965 88.3023 100.027 88.2145C100.869 87.986 100.869 87.3242 100.869 86.305V85.3737C100.788 84.9988 100.84 84.5595 100.747 84.1553C100.544 83.2826 100.434 82.3454 100.184 81.5605H100.178ZM89.6465 87.5233C89.4026 88.6011 89.4433 89.7491 89.002 90.6043C88.0615 92.42 85.4372 91.9749 84.0148 90.9264C83.6025 90.6218 83.44 89.7257 82.4878 89.9951C81.9188 90.1532 81.3963 90.8327 81.7214 91.6176C82.0059 92.297 82.7316 92.789 83.3297 93.1581C83.8928 93.5036 84.5837 93.7204 85.2572 93.9312C88.2821 94.8625 90.4303 93.0175 91.2489 91.0084C91.6263 90.083 91.6089 88.9701 91.8527 87.8865C91.8644 87.5057 91.8818 87.1309 91.8934 86.7501C91.9631 86.4514 91.934 85.9828 91.934 85.6138C91.934 84.3896 91.8586 83.3587 91.6147 82.4099C91.4696 81.8534 91.4928 81.3438 91.2141 80.9514C90.9644 80.6058 90.5406 80.5824 90.169 80.4652C90.0761 80.5238 89.9194 80.5004 89.8091 80.5472C89.4781 80.6878 89.1878 81.0334 89.0833 81.3965C88.9556 81.8651 89.2691 82.1287 89.362 82.3689C89.542 82.8316 89.5362 83.4407 89.6407 83.9093C89.7626 84.4365 89.7974 85.5669 89.6813 86.1C89.6697 86.5744 89.6523 87.0489 89.6407 87.5174L89.6465 87.5233ZM110.112 81.2384C109.886 81.0802 109.613 81.0334 109.23 81.0334C108.835 81.3087 108.527 81.2794 108.347 81.8065C108.237 82.1111 108.469 83.4876 108.551 83.8742C108.829 85.2155 107.854 86.6213 108.992 87.2831C109.154 87.3769 109.462 87.535 109.799 87.4472C110.147 87.3534 110.472 87.0723 110.606 86.756C110.751 86.4104 110.6 86.1351 110.687 85.7427C110.867 84.9461 110.856 83.8215 110.687 83.0249C110.536 82.2927 110.629 81.5898 110.124 81.2384H110.112ZM57.5572 94.0191C58.1784 94.1714 58.6719 93.6208 58.8055 93.2459C58.8693 93.0643 58.8345 92.83 58.8055 92.6777C58.7242 92.2736 58.8055 91.4419 58.8868 91.0963C59.0551 90.3817 59.1074 89.6319 59.328 88.9466C59.4848 88.4546 59.7286 87.945 59.8505 87.4472C60.0421 86.6564 59.2525 86.1293 58.5616 86.1468C58.3178 86.3167 58.0101 86.3167 57.8359 86.551C57.6559 86.797 57.6385 87.0957 57.5166 87.4003C57.0347 88.5835 56.9127 89.9775 56.5934 91.3774V91.8226C56.3496 92.9238 56.7444 93.8141 57.5572 94.0132V94.0191ZM67.7698 90.8093C67.7059 90.8503 67.6305 90.821 67.526 90.8503C67.2647 90.9323 66.9396 91.1314 66.8002 91.3364C66.5215 91.7523 66.8002 92.2384 66.6783 92.7949C66.597 93.5095 66.5157 94.2299 66.4344 94.9445C65.9409 96.9888 65.5752 98.2891 64.5069 99.73C64.3037 99.9994 63.9147 100.327 63.6244 100.503C63.0844 100.825 62.26 100.667 61.7723 100.421C60.6866 99.8706 59.8505 99.1677 59.2409 98.1485C59.0958 97.9025 59.1422 97.7033 59.0377 97.3753C58.8926 96.9185 58.2829 96.362 57.592 96.6022C56.8837 96.8482 56.6573 97.7619 56.9882 98.5878C57.4933 99.8354 58.4629 100.972 59.479 101.71C59.9783 102.067 60.5763 102.401 61.1685 102.641C62.4864 103.186 63.9495 102.881 64.9075 102.278C66.8118 101.077 67.7234 98.9158 68.4085 96.4792C68.6871 95.4893 68.8497 94.1597 68.8904 93.0292C68.9194 92.3029 69.0355 91.682 68.6871 91.2017C68.5072 90.9557 68.1298 90.862 67.764 90.7975L67.7698 90.8093ZM72.5945 101.604C73.0068 101.692 73.4944 101.335 73.6396 101.118C73.9531 100.638 73.837 99.6773 73.8834 98.8045C73.9589 97.4163 74.2202 95.8759 72.7571 95.8407C72.4029 96.0633 72.101 95.993 71.8746 96.3679C71.5959 96.8247 71.6714 97.8263 71.6714 98.5175C71.6714 100.005 71.1431 101.282 72.5945 101.598V101.604ZM85.983 108.744C86.4591 108.387 86.9584 107.924 87.3125 107.444C87.6841 106.94 88.0324 106.396 88.3576 105.863C88.526 105.581 88.5898 105.289 88.7582 105.013C88.8743 104.826 89.0543 104.592 89.1182 104.363C89.3794 103.444 88.5492 102.928 87.7886 102.946C87.539 103.139 87.2429 103.168 87.0629 103.432C86.9758 103.561 86.9816 103.707 86.9003 103.836C86.5578 104.404 86.2733 105.037 85.8959 105.581C84.9205 106.981 83.5213 108.018 81.675 108.545C79.492 109.16 76.2 108.106 74.8821 107.286C74.4408 107.011 73.866 106.343 73.4364 106.191C72.6816 105.921 71.6714 106.724 72.0314 107.69C72.3391 108.534 73.8834 109.301 74.7253 109.676C75.6601 110.092 76.6819 110.431 77.7792 110.73C78.2495 110.8 78.7198 110.865 79.1842 110.935C79.7126 111.058 80.8912 110.947 81.315 110.853C81.7563 110.753 82.122 110.783 82.5226 110.648C83.4458 110.343 84.3515 109.969 85.0947 109.471C85.4082 109.26 85.6869 108.961 85.9772 108.739L85.983 108.744ZM67.526 108.944C67.2763 108.891 67.0209 109.031 66.8815 109.108C65.79 109.682 66.5854 110.531 66.3183 111.579C66.2022 112.042 65.9642 112.388 65.6739 112.675C65.4416 112.909 65.0933 113.161 64.5882 112.997C64.3617 112.903 64.1353 112.809 63.9031 112.716C62.3935 111.79 61.3311 110.25 60.4021 108.739C59.8854 107.901 59.7402 106.636 58.3933 106.63C58.1088 106.835 57.8185 106.864 57.6269 107.157C57.4701 107.397 57.4237 107.866 57.5456 108.17C57.8069 108.815 58.341 109.676 58.7126 110.279C59.7925 112.036 61.3891 114.092 63.3341 114.941C65.0701 115.703 66.7712 115.07 67.6363 113.887C67.944 113.471 68.2285 112.956 68.4027 112.429C68.6117 111.784 68.6755 109.957 68.3214 109.424C68.1646 109.195 67.8279 109.008 67.5144 108.938L67.526 108.944ZM81.5995 114.18C81.4543 114.285 81.2279 114.28 81.077 114.385C80.6415 114.684 80.3338 115.199 79.91 115.521C79.1204 116.119 78.4411 116.541 77.338 116.863C76.8967 116.992 76.1942 117.109 75.6484 116.986C75.3523 116.915 75.004 116.863 74.7253 116.74C74.1853 116.511 73.6686 116.119 73.2796 115.726C73.0126 115.457 72.7977 115.076 72.3971 114.953C71.6888 114.742 70.7657 115.439 70.9515 116.213C71.1082 116.886 71.7585 117.39 72.2404 117.753C72.9255 118.274 73.5989 118.749 74.5337 119.053C74.9227 119.124 75.3117 119.188 75.7007 119.258C76.3451 119.405 77.1986 119.217 77.6689 119.094C78.8417 118.784 79.7126 118.479 80.566 117.876C80.9086 117.63 81.1989 117.279 81.5298 117.027C81.8027 116.822 82.0233 116.523 82.2962 116.336C82.4588 116.224 82.6272 116.207 82.7375 116.054C83.3877 115.146 82.7026 114.18 81.6111 114.186L81.5995 114.18ZM89.5652 119.575C89.0659 119.797 87.2719 120.582 86.6681 119.979C86.3255 119.809 86.1978 119.042 86.3487 118.52C86.3952 118.356 86.4881 118.052 86.5926 117.911C86.7377 117.706 87.0396 117.642 87.1558 117.384C87.5041 116.611 86.9409 115.914 86.3894 115.761C85.861 115.615 85.4953 115.955 85.263 116.125C84.5721 116.646 83.7883 118.292 84.096 119.657C84.456 121.238 85.2224 122.052 86.79 122.415C87.7596 122.638 89.1356 122.21 89.8033 121.929C91.8469 121.062 93.6758 119.821 95.3944 118.602C95.9691 118.198 97.0316 117.536 97.4032 116.98C97.978 116.119 97.2929 115.217 96.3988 115.152C96.2536 115.246 96.0214 115.223 95.8762 115.316C95.7079 115.428 95.6266 115.644 95.4756 115.761C95.1621 116.002 94.8602 116.265 94.5525 116.494C93.5307 117.232 92.4682 117.841 91.3767 118.52C90.8135 118.872 90.1864 119.299 89.5652 119.575Z" fill="#010101"/>
<rect x="1.9184" y="0.891626" width="21.985" height="39.3424" rx="3.5" transform="matrix(0.938314 -0.345783 0.340622 0.9402 5.36053 21.6473)" fill="#363434" stroke="black" stroke-width="3"/>
</g>
<defs>
<clipPath id="clip0_1829_13397">
<rect width="147" height="179" fill="white" transform="translate(0.507812 0.665039)"/>
</clipPath>
</defs>
</svg>
