<?xml version="1.0" encoding="UTF-8"?>
<svg xmlns="http://www.w3.org/2000/svg" version="1.1" viewBox="0 0 114.1 150">
  <defs>
    <style>
      .cls-1 {
        fill: #ffc900;
      }

      .cls-2 {
        fill: #fff;
      }
    </style>
  </defs>
  <!-- Generator: Adobe Illustrator 28.7.2, SVG Export Plug-In . SVG Version: 1.2.0 Build 154)  -->
  <g>
    <g id="Layer_1">
      <g>
        <path class="cls-1" d="M97.8,147.7c.3-.2.6-.3.8-.5.2-.1.4-.3.6-.5,0,0,.1-.1.2-.2,3.6-3,7.6-9.1,10.4-16.6,0,0,0,0,0-.1.2-.5.4-1.1.6-1.6,4.2-12.2,5.5-27.7-1.6-40.5-4.5-8-10.9-14.7-18.3-19.4-6.3-4.1-10.2-11-10.4-18.6-.1-8.8-2.5-17.7-7-25.7C66.3,11.5,52.2,4.5,39.5,1.7,35.1.7,30.4,0,25.9.2c-3.2.1-6.7.4-9.5,1.9C6.7,7.6-7.5,39.4,5.2,62.1c4.5,8,10.9,14.7,18.3,19.4,6.3,4.1,10.2,11,10.4,18.6.1,8.8,2.5,17.7,7,25.7,12.7,22.7,47.3,27.3,56.9,21.9h0Z"/>
        <path d="M109.1,87.7c-4.4-8-10.8-14.7-18.3-19.5-6.3-4-10.1-10.9-10.3-18.4-.1-8.9-2.5-17.9-7-25.8C64.8,8.5,46.9,3.1,39.5,1.5,34.5.4,30.1-.1,25.9,0c-3.1.1-6.7.4-9.6,2C11.1,4.9,5.2,14.8,2.2,25.6,0,33.5-2.5,48.7,5.1,62.2c4.4,8,10.8,14.7,18.3,19.5,6.3,4.1,10.1,10.9,10.3,18.4.1,8.9,2.5,17.9,7,25.8,7.5,13.5,21.9,19.3,29.7,21.6,5.6,1.6,11.5,2.4,16.5,2.4s8.4-.7,10.9-2h0s.1,0,.1,0c.3-.2.6-.3.9-.5.2-.1.3-.2.5-.4l.3-.2c3.7-3.1,7.7-9.5,10.5-16.7h0c.2-.6.4-1.2.6-1.7,2.4-7,7.1-25-1.6-40.6ZM106.3,122.7c-2.9,10.6-8.1,18.4-11.5,20.3-7.1,4-38,0-49.1-19.8h0c-4-7.1-6.1-15.1-6.2-23-.3-9.6-5.2-18.3-13.2-23.2-6.6-4.2-12.4-10.3-16.3-17.3-6.5-11.6-4.3-25.1-2.4-32.1,2.9-10.6,8-18.3,11.4-20.2,4.6-2.6,15.5-1.5,23.4.8,6.9,2.1,19.5,7.3,26,18.8,4,7.1,6.1,15,6.2,23,0,9.5,4.9,18.2,13,23.3,6.7,4.2,12.4,10.2,16.3,17.3,6.5,11.6,4.3,25.1,2.4,32.1Z"/>
        <path class="cls-2" d="M29.1,52c6.3,0,11.4-5.1,11.4-11.4,0-6.3-5.1-11.4-11.4-11.4-6.3,0-11.4,5.1-11.4,11.4,0,6.3,5.1,11.4,11.4,11.4Z"/>
        <path class="cls-2" d="M49.1,41.1c6.3,0,11.4-5.1,11.4-11.4,0-6.3-5.1-11.4-11.4-11.4-6.3,0-11.4,5.1-11.4,11.4,0,6.3,5.1,11.4,11.4,11.4Z"/>
        <path d="M58.7,20.1c-2.6-2.6-6-4-9.6-4h0c-7.1,0-12.9,5.5-13.5,12.4-2-1.1-4.2-1.6-6.5-1.6-3.6,0-7,1.4-9.6,4-2.6,2.6-4,6-4,9.6s1.4,7,4,9.6c2.6,2.6,6,4,9.6,4h0c7.1,0,12.9-5.5,13.5-12.4,1.9,1,4.1,1.6,6.4,1.6h0c3.6,0,7-1.4,9.6-4,2.6-2.6,4-6,4-9.6,0-3.6-1.4-7-4-9.6ZM29.1,49.8c-2.5,0-4.8-.9-6.5-2.7-1.7-1.7-2.7-4-2.7-6.5,0-2.5.9-4.8,2.7-6.5,1.7-1.7,4-2.7,6.5-2.7h0c2.4,0,4.7.9,6.5,2.7.4.4.8.9,1.2,1.4.2.5.5,1,.8,1.5.5,1.1.7,2.3.7,3.6,0,5.1-4.1,9.2-9.2,9.2ZM55.6,36.2c-1.7,1.7-4,2.7-6.5,2.7h0c-3.2,0-6-1.6-7.6-4.1-.2-.5-.5-1-.8-1.5-.5-1.1-.7-2.3-.7-3.6,0-5.1,4.1-9.2,9.2-9.2h0c2.4,0,4.7.9,6.5,2.7,1.7,1.7,2.7,4,2.7,6.5,0,2.5-.9,4.8-2.7,6.5Z"/>
        <path d="M48,18.8c-2.8,3.7-2.9,8.8,0,12.7,2.4,3.3,6.4,4.8,10.2,4.2,2.8-3.7,2.9-8.8,0-12.7-2.4-3.3-6.4-4.8-10.2-4.2Z"/>
        <path d="M28.6,29.6c-2.6,3.6-2.8,8.7,0,12.5,2.3,3.1,6,4.6,9.6,4.2,2.6-3.6,2.8-8.7,0-12.5-2.3-3.1-6-4.6-9.6-4.2Z"/>
        <path d="M59.1,50.2c-1.2-.7-2.7-.3-3.4.9-1.1,1.8-3.7,3.9-5.7,4.7-1.7.6-3.7.8-5.5.5.3-1.1-.1-2.2-1.1-2.8-1.2-.7-2.7-.3-3.5.9l-2.8,4.6c-.7,1.2-.3,2.7.9,3.5.4.2.9.4,1.3.4.9,0,1.7-.4,2.2-1.2l.4-.7c0,0,.1,0,.2,0,1.3.4,2.7.5,4.1.5s3.8-.3,5.5-.9c3.1-1.1,6.7-4.1,8.4-6.9.7-1.2.3-2.7-.9-3.4Z"/>
        <g>
          <path d="M81.7,132.6c-3.9-2.2-7.7-5-10.9-8-1.1-1-2.9-.9-3.9.3-1,1.1-1,3,0,4,3.7,3.4,7.9,6.4,12,8.6.4.2.7.4,1.2.4s1-.1,1.5-.4c.4-.2.7-.6,1-1h0c.8-1.7,0-3.2-1-3.9Z"/>
          <path d="M59.2,112.6c-1.5-2.7-2.9-5.6-4-7.9-.6-1.5-2.1-2.1-3.7-1.4-1.5.6-2.1,2.1-1.4,3.8,1.1,2.8,2.7,5.7,4.3,8.5.9,1.5,1.7,3,2.8,4.5.6.7,1.3,1.1,2.2,1.1s.9-.1,1.3-.3l.3-.2c1.3-1,1.6-2.5.7-3.9-.9-1.3-1.7-2.7-2.5-4.1Z"/>
          <path d="M50.6,92c-.9-3.2-2.2-6.4-3.9-9.5-.7-1.3-1.6-2.8-2.6-4.2-.5-.6-1.2-1-1.9-1.1-.7,0-1.4.1-2,.6-.6.5-1,1.2-1.1,1.9,0,.7.1,1.4.6,2,.9,1.1,1.6,2.4,2.2,3.6,1.4,2.4,2.5,5.2,3.4,8.1,0,.9.5,1.6,1.2,2,.4.2.8.4,1.3.4s.5,0,.7-.1l.7-.3c1-.6,1.6-1.9,1.4-3.2Z"/>
          <path d="M97.5,112.9c-.1-.7-.6-1.4-1.2-1.8-.6-.4-1.4-.5-2.1-.4-.7.1-1.4.6-1.8,1.2-.4.6-.5,1.4-.4,2.1.9,4.3,1.2,8.9,1.1,13.4,0,.7.3,1.5.8,2,.5.5,1.1.7,1.8.7.1,0,.3,0,.4,0,.4,0,.8-.2,1.1-.3.8-.5,1.4-1.3,1.5-2.2.3-4.7-.1-9.9-1-14.8Z"/>
          <path d="M68.7,70.3c1.7,3.1,3.8,5.9,6,8.3.5.6,1.2.9,2,.9s1-.1,1.5-.4l.5-.3h.1c1-1.2,1.1-2.9.2-4-1.8-1.8-3.4-4-5.2-7.2-.7-1.2-1.4-2.4-1.9-3.8h0c-1.1-1.5-2.6-2.1-4-1.5l-.6.2h0c-1.2.8-1.4,2.2-1,3.4.6,1.5,1.4,2.9,2.2,4.4Z"/>
          <path d="M94.8,102.5h.2c1.2-.8,1.7-2.3,1.2-3.7-.6-1.5-1.5-3.1-2.4-4.6h0c-1.5-2.9-3.2-5.4-5-8.3-.5-.6-1.2-1-2-1.1-.7,0-1.3,0-1.8.4h-.1c-1.4,1.1-1.4,2.8-.7,4,1.7,2.2,3.2,4.9,4.6,7.4v.2c.9,1.4,1.6,2.7,2.2,4.2.4,1.1,1.3,1.7,2.5,1.7s.9,0,1.3-.3Z"/>
          <path d="M67.3,97.9c.2,0,.5.1.7.1.5,0,1-.1,1.4-.4.7-.4,1.2-1,1.4-1.7.2-.7,0-1.5-.3-2.2l-7.5-13.4c-.4-.7-1-1.2-1.7-1.4-.7-.2-1.5,0-2.2.3-.7.4-1.2,1-1.4,1.7-.2.7,0,1.5.3,2.2l7.5,13.4c.4.7,1,1.2,1.7,1.4Z"/>
          <path d="M78.1,107.1c-.4-.7-1-1.2-1.7-1.4-.7-.2-1.5,0-2.2.3-.7.4-1.2,1-1.4,1.7-.2.7,0,1.5.3,2.2l7.5,13.4c.4.7,1,1.2,1.7,1.4.2,0,.5.1.7.1.5,0,1-.1,1.4-.4h0c.7-.4,1.2-1,1.4-1.7.2-.7,0-1.5-.3-2.2l-7.5-13.4Z"/>
        </g>
      </g>
    </g>
  </g>
</svg>