<svg width="78" height="61" viewBox="0 0 78 61" fill="none" xmlns="http://www.w3.org/2000/svg">
<g clip-path="url(#clip0_7489_54511)">
<path d="M39.5955 95.6016C60.5338 95.6016 77.5076 93.7094 77.5076 91.3752C77.5076 89.0411 60.5338 87.1489 39.5955 87.1489C18.6573 87.1489 1.68344 89.0411 1.68344 91.3752C1.68344 93.7094 18.6573 95.6016 39.5955 95.6016Z" fill="black"/>
<path d="M13.3486 35.4554H13.6469C14.5541 35.4885 15.4183 36.0633 15.7905 36.8975C15.9656 37.2418 15.9791 37.6382 16.1279 37.9922C16.3696 38.6402 16.7825 39.2676 17.4124 39.5869C18.1131 39.9265 18.925 39.8833 19.6703 39.745C20.4105 39.6044 21.1248 39.3509 21.8159 39.0538C22.6382 38.6678 23.664 38.7929 24.3717 39.363C24.9899 39.8416 25.3524 40.6306 25.318 41.4141C25.2963 42.3437 24.7021 43.2261 23.8549 43.5976C22.3911 44.2367 20.8374 44.7169 19.2368 44.8146C17.8826 44.8987 16.492 44.6853 15.2691 44.0782C14.4975 43.7086 13.803 43.1852 13.2142 42.5637C12.3275 41.6236 11.6899 40.46 11.3099 39.2259C11.1999 38.8723 11.1155 38.5101 11.0636 38.1429V37.8434C11.0899 37.234 11.3456 36.6393 11.7705 36.2039C12.1842 35.7717 12.7586 35.5174 13.3486 35.4554ZM13.2905 36.6483C12.6262 36.762 12.1323 37.4509 12.2365 38.1207C12.3601 38.8189 12.6033 39.493 12.921 40.1251C13.5241 41.3347 14.4851 42.3826 15.6972 42.989C16.8422 43.577 18.1631 43.7472 19.4336 43.6288C20.8103 43.5007 22.142 43.0735 23.4044 42.5209C23.6554 42.4029 23.8658 42.2015 23.9979 41.9566C24.2605 41.4858 24.1919 40.8576 23.8359 40.4538C23.5474 40.1169 23.0825 39.9432 22.6452 40.0137C22.4143 40.0464 22.2075 40.1605 21.9937 40.2462C21.181 40.5772 20.3365 40.8448 19.465 40.9608C18.9115 41.0329 18.3451 41.0422 17.7955 40.9347C17.1129 40.807 16.4692 40.4682 15.9904 39.9611C15.3702 39.3085 14.9829 38.4564 14.807 37.5774C14.6369 36.9368 13.9354 36.505 13.2905 36.6483Z" fill="black"/>
<path d="M13.2905 36.6483C13.9354 36.505 14.6369 36.9368 14.807 37.5774C14.9829 38.4564 15.3702 39.3085 15.9904 39.9611C16.4692 40.4682 17.1129 40.807 17.7955 40.9347C18.3451 41.0422 18.9115 41.0329 19.465 40.9608C20.3365 40.8448 21.181 40.5772 21.9937 40.2462C22.2075 40.1605 22.4143 40.0464 22.6452 40.0137C23.0825 39.9432 23.5474 40.1169 23.8359 40.4538C24.1919 40.8576 24.2605 41.4858 23.9979 41.9566C23.8658 42.2015 23.6554 42.4029 23.4044 42.5209C22.142 43.0735 20.8103 43.5007 19.4336 43.6288C18.1631 43.7472 16.8422 43.577 15.6972 42.989C14.4851 42.3826 13.5241 41.3347 12.921 40.1251C12.6033 39.493 12.3601 38.8189 12.2365 38.1207C12.1323 37.4509 12.6262 36.762 13.2905 36.6483Z" fill="#FFCA05"/>
<path d="M26.2395 76.1169C27.2632 75.8539 28.3522 75.8811 29.3722 76.148C30.3863 76.4155 31.3547 76.9319 32.0649 77.7172C32.5055 78.2028 32.8249 78.8034 32.9506 79.4503V80.9194C32.8435 81.6671 32.4887 82.4044 31.8647 82.8493C32.1013 83.5883 32.3063 84.3388 32.4447 85.103C32.543 85.6411 32.6079 86.1872 32.6024 86.735C32.5945 87.2151 32.5272 87.7043 32.3177 88.1409C32.4293 88.8271 32.5237 89.5209 32.511 90.2179C32.4966 90.5886 32.4585 90.9859 32.2356 91.2955C32.0491 91.5537 31.7349 91.658 31.4454 91.7518C30.8791 91.9224 30.2987 92.0418 29.7194 92.1578C28.9577 92.3076 28.1925 92.4387 27.4263 92.5606C27.1643 92.6117 26.88 92.4608 26.7838 92.2092C26.7199 92.0183 26.7134 91.814 26.6749 91.6176C24.7789 92.3155 22.7713 92.6565 20.7633 92.8098H17.1004C15.9506 92.7194 14.8043 92.5416 13.6964 92.2154C12.9079 91.9803 12.1345 91.6738 11.4339 91.2375C11.2399 91.1063 11.0225 90.9845 10.9054 90.7719C10.5881 90.2351 10.3676 89.6079 10.439 88.9759C10.493 88.4692 10.7866 88.0039 11.2025 87.717C11.0215 86.0636 11.0541 84.3605 11.5177 82.754C11.8591 81.5752 12.4913 80.4455 13.4687 79.685C14.4018 78.9415 15.5941 78.5929 16.7717 78.5411C18.1636 78.4686 19.538 78.772 20.8728 79.1355C21.6359 79.3443 22.3935 79.5787 23.1247 79.8835C23.0597 79.4234 23.101 78.947 23.2624 78.5104C23.4746 77.9229 23.886 77.4262 24.3706 77.0427C24.9183 76.6043 25.5623 76.2923 26.2395 76.1169ZM25.2439 77.8449C24.8273 78.1383 24.453 78.5373 24.3139 79.0406C24.1772 79.5273 24.3046 80.0502 24.5457 80.4817C24.851 81.0181 25.3143 81.4741 25.8789 81.7278C26.1213 81.8521 26.2512 82.1582 26.1632 82.4189C26.0777 82.7302 25.7051 82.9156 25.407 82.7923C24.8785 82.5697 24.4218 82.1993 24.0399 81.7744C23.9722 81.7278 23.8877 81.7078 23.8263 81.6508C23.5371 81.3522 23.1525 81.1776 22.7812 81.0067C22.0329 80.685 21.2513 80.4486 20.4662 80.2363C19.6712 80.0281 18.87 79.8266 18.0503 79.7461C17.0152 79.6419 15.93 79.693 14.9691 80.1286C14.1761 80.4814 13.5319 81.1248 13.1215 81.8873C12.5648 82.9138 12.3491 84.0902 12.2829 85.2469C12.2362 86.1247 12.2746 87.0073 12.3972 87.8779C12.8928 88.1723 13.4258 88.3988 13.9746 88.5717C15.1168 88.9303 16.3078 89.1019 17.4974 89.1996C19.4535 89.3494 21.4196 89.2893 23.3729 89.1312C25.1223 88.9856 26.8645 88.7567 28.5919 88.4436C29.3059 88.3087 30.0202 88.1692 30.7215 87.9762C30.8763 87.9245 31.0549 87.901 31.1717 87.7754C31.3238 87.6038 31.3726 87.3698 31.408 87.1499C31.4784 86.6269 31.4217 86.0971 31.3461 85.5779C31.2222 84.8034 31.0244 84.0422 30.7847 83.2963C30.4783 83.3519 30.1651 83.3609 29.855 83.3477C29.5075 83.3143 29.2623 82.9228 29.378 82.5925C29.4439 82.3823 29.6359 82.2176 29.854 82.19C30.1201 82.1655 30.3877 82.1544 30.6535 82.1272C30.9584 82.0699 31.2421 81.9025 31.4372 81.6595C31.6614 81.3747 31.7655 81.0154 31.8139 80.6605C31.8661 80.2449 31.8733 79.8121 31.7373 79.411C31.501 78.6947 30.9316 78.1379 30.2908 77.772C29.4955 77.3174 28.5758 77.0934 27.6626 77.1017C26.8099 77.1121 25.941 77.3375 25.2439 77.8449ZM11.7107 88.8188C11.6403 88.9155 11.5953 89.0301 11.5905 89.1506C11.5737 89.4232 11.6644 89.6883 11.7743 89.9334C11.8199 90.0297 11.8635 90.1381 11.9631 90.1902C12.6356 90.6293 13.3952 90.9127 14.1627 91.1336C15.9255 91.6255 17.7697 91.7404 19.5915 91.6921C21.333 91.6421 23.0752 91.4318 24.7635 90.9931C25.4517 90.8098 26.1354 90.5986 26.7862 90.3059C26.9256 90.2282 27.0888 90.1775 27.2481 90.2147C27.4789 90.2565 27.6695 90.4546 27.7069 90.687C27.7423 90.8958 27.7711 91.106 27.8048 91.3152C28.3316 91.2282 28.8574 91.1347 29.3814 91.0332C30.0288 90.8996 30.6833 90.7836 31.3087 90.5644C31.3959 90.057 31.3279 89.5392 31.2737 89.0322C30.4491 89.2765 29.604 89.4422 28.7598 89.6007C26.3216 90.039 23.8548 90.3228 21.3797 90.4243C19.3711 90.4957 17.3469 90.4571 15.3627 90.1071C14.091 89.8747 12.8138 89.5161 11.7107 88.8188Z" fill="black"/>
<path d="M25.2439 77.8449C25.941 77.3375 26.8099 77.1121 27.6626 77.1017C28.5758 77.0934 29.4955 77.3174 30.2908 77.772C30.9316 78.1379 31.501 78.6947 31.7373 79.411C31.8733 79.8121 31.8661 80.2449 31.8139 80.6605C31.7655 81.0154 31.6614 81.3747 31.4372 81.6595C31.2421 81.9025 30.9584 82.0699 30.6535 82.1272C30.3877 82.1544 30.1201 82.1655 29.854 82.19C29.6359 82.2176 29.4439 82.3823 29.378 82.5925C29.2623 82.9228 29.5075 83.3143 29.855 83.3477C30.1651 83.3609 30.4783 83.3519 30.7847 83.2963C31.0244 84.0422 31.2222 84.8034 31.3461 85.5779C31.4217 86.0971 31.4784 86.6269 31.408 87.1499C31.3726 87.3698 31.3238 87.6038 31.1717 87.7754C31.0549 87.901 30.8763 87.9245 30.7215 87.9762C30.0202 88.1692 29.3059 88.3087 28.5919 88.4436C26.8645 88.7567 25.1223 88.9856 23.3729 89.1312C21.4196 89.2893 19.4535 89.3494 17.4974 89.1996C16.3078 89.1019 15.1168 88.9303 13.9746 88.5717C13.4258 88.3988 12.8928 88.1723 12.3972 87.8779C12.2746 87.0073 12.2362 86.1247 12.2829 85.2469C12.3491 84.0902 12.5648 82.9138 13.1215 81.8873C13.5319 81.1248 14.1761 80.4814 14.9691 80.1286C15.93 79.693 17.0152 79.6419 18.0503 79.7461C18.87 79.8266 19.6712 80.0281 20.4662 80.2363C21.2513 80.4486 22.0329 80.685 22.7812 81.0067C23.1525 81.1776 23.5371 81.3522 23.8263 81.6508C23.8877 81.7078 23.9722 81.7278 24.0399 81.7744C24.4218 82.1993 24.8785 82.5697 25.407 82.7923C25.7051 82.9156 26.0777 82.7302 26.1632 82.4189C26.2512 82.1582 26.1213 81.8521 25.8789 81.7278C25.3143 81.4741 24.851 81.0181 24.5457 80.4817C24.3046 80.0502 24.1772 79.5273 24.3139 79.0406C24.453 78.5373 24.8273 78.1383 25.2439 77.8449Z" fill="white"/>
<path d="M11.7107 88.8188C12.8138 89.5161 14.091 89.8747 15.3627 90.1071C17.3469 90.4571 19.3711 90.4957 21.3797 90.4243C23.8548 90.3228 26.3216 90.039 28.7598 89.6007C29.604 89.4422 30.4491 89.2765 31.2737 89.0322C31.3279 89.5392 31.3959 90.057 31.3087 90.5644C30.6833 90.7836 30.0288 90.8996 29.3814 91.0332C28.8574 91.1347 28.3316 91.2282 27.8048 91.3152C27.7711 91.106 27.7423 90.8958 27.7069 90.687C27.6695 90.4546 27.4789 90.2565 27.2481 90.2147C27.0888 90.1775 26.9256 90.2282 26.7862 90.3059C26.1354 90.5986 25.4517 90.8098 24.7635 90.9931C23.0752 91.4318 21.333 91.6421 19.5915 91.6921C17.7697 91.7404 15.9255 91.6255 14.1627 91.1336C13.3952 90.9127 12.6356 90.6293 11.9631 90.1902C11.8635 90.1381 11.8199 90.0297 11.7743 89.9334C11.6644 89.6883 11.5737 89.4232 11.5905 89.1506C11.5953 89.0301 11.6403 88.9155 11.7107 88.8188Z" fill="#D684B7"/>
<path d="M50.1881 76.1307C51.3496 75.8418 52.601 75.8577 53.7348 76.2577C54.5879 76.5681 55.3865 77.0941 55.9174 77.8394C56.3374 78.4248 56.5141 79.1697 56.41 79.8818C57.4827 79.4434 58.6037 79.1369 59.7299 78.8718C60.4248 78.7065 61.1324 78.5891 61.8458 78.5477C62.8445 78.489 63.8674 78.5815 64.8069 78.9408C65.4509 79.1845 66.0431 79.5615 66.5367 80.0409C67.4051 80.8876 67.9315 82.0257 68.2098 83.1927C68.5593 84.6722 68.5766 86.2138 68.4093 87.7191C68.7588 87.9583 69.0239 88.3194 69.1311 88.7305V89.7311C69.0484 90.114 68.8894 90.4788 68.6827 90.8109C68.5904 90.97 68.4262 91.0639 68.2814 91.1688C67.7843 91.494 67.2423 91.7456 66.6864 91.9531C65.3545 92.4491 63.9417 92.6849 62.5306 92.8098H58.8122C56.7813 92.6617 54.7501 92.319 52.8336 91.6162C52.7838 91.8412 52.7984 92.0884 52.6805 92.2934C52.5619 92.4943 52.3134 92.6037 52.0842 92.5613C51.0603 92.3997 50.0378 92.2244 49.0246 92.0035C48.6111 91.9106 48.1967 91.8157 47.7978 91.6714C47.5803 91.5896 47.3574 91.4788 47.225 91.28C47.0089 90.9731 46.9754 90.5831 46.9591 90.2196C46.9467 89.5354 47.0373 88.854 47.1475 88.1803C47.1586 88.1306 47.1268 88.086 47.1119 88.0412C46.8637 87.4688 46.8468 86.8285 46.8834 86.2152C46.9671 85.0647 47.2637 83.9421 47.61 82.8458C47.253 82.5935 46.9733 82.239 46.7901 81.8441C46.5091 81.2266 46.432 80.5356 46.4655 79.8638C46.516 79.0389 46.8973 78.2553 47.4628 77.6592C48.1891 76.8887 49.1677 76.3879 50.1881 76.1307ZM51.0478 77.1525C50.1252 77.2847 49.2126 77.6367 48.5126 78.2636C48.0079 78.7141 47.6443 79.3533 47.6284 80.0399C47.6235 80.5238 47.6719 81.0292 47.9091 81.461C48.121 81.8624 48.5603 82.1324 49.0142 82.1434C49.2233 82.1607 49.4335 82.1714 49.6423 82.1917C49.9078 82.2259 50.1269 82.4648 50.1397 82.7316C50.1653 83.0257 49.9341 83.3146 49.6392 83.3481C49.325 83.3612 49.0083 83.3519 48.6982 83.2956C48.3975 84.2335 48.151 85.1951 48.0601 86.1779C48.0304 86.5696 48.02 86.9694 48.1102 87.3546C48.1521 87.5227 48.2146 87.6973 48.3488 87.8144C48.4418 87.8862 48.5579 87.9159 48.6682 87.9497C49.111 88.0767 49.5607 88.1754 50.0115 88.27C51.5034 88.5748 53.011 88.7992 54.5237 88.9721C56.503 89.1923 58.4955 89.3194 60.4877 89.2769C62.0429 89.2382 63.6074 89.1081 65.1174 88.7163C65.8454 88.5244 66.5602 88.2624 67.2077 87.8744C67.3135 87.1213 67.356 86.3587 67.3363 85.5983C67.3135 84.7623 67.2115 83.9249 66.9806 83.1196C66.788 82.4637 66.5035 81.8269 66.0818 81.2853C65.7455 80.8486 65.3144 80.4834 64.8242 80.2301C64.0582 79.8273 63.1788 79.6906 62.3205 79.7016C61.1286 79.7057 59.965 79.9995 58.8215 80.307C58.0562 80.5221 57.2929 80.7579 56.569 81.0903C56.2776 81.2328 55.9765 81.3771 55.7467 81.6122C55.6768 81.6891 55.5773 81.723 55.4891 81.7717C55.1154 82.1914 54.6626 82.549 54.1469 82.7785C53.8959 82.8976 53.5748 82.802 53.423 82.5714C53.2315 82.3046 53.3276 81.8907 53.6194 81.7378C54.2049 81.4786 54.6847 81.0081 54.9948 80.452C55.2423 80.0012 55.3578 79.4493 55.1846 78.9522C55.0021 78.4162 54.5589 78.0195 54.0933 77.723C53.1959 77.1587 52.0859 77.0089 51.0478 77.1525ZM66.5063 89.5013C65.2297 89.9783 63.8743 90.204 62.522 90.3338C60.6391 90.5057 58.7434 90.4774 56.8584 90.3552C54.6325 90.204 52.4153 89.9217 50.2237 89.5047C49.5455 89.3701 48.8666 89.2303 48.2039 89.0301C48.1535 89.4812 48.102 89.9372 48.1421 90.3915C48.1521 90.4484 48.1479 90.5137 48.1783 90.5644C48.3954 90.6497 48.6236 90.7052 48.8497 90.7629C49.7896 90.9897 50.7426 91.1557 51.696 91.3148C51.7306 91.1008 51.7617 90.8865 51.798 90.6728C51.8446 90.4081 52.0966 90.1999 52.3656 90.2027C52.5591 90.1978 52.7206 90.318 52.8951 90.3822C54.0532 90.8568 55.2765 91.1523 56.5075 91.3649C58.3241 91.6638 60.1738 91.7612 62.0125 91.6676C63.5656 91.5748 65.1295 91.3297 66.5768 90.7405C66.9761 90.5703 67.3767 90.3867 67.7248 90.125C67.8797 89.8727 67.9903 89.5865 68.0176 89.2904C68.0346 89.1257 67.9972 88.9548 67.8973 88.8213C67.4597 89.0974 66.9899 89.3183 66.5063 89.5013Z" fill="black"/>
<path d="M51.0478 77.1525C52.0859 77.0089 53.1959 77.1587 54.0933 77.723C54.5589 78.0195 55.0021 78.4162 55.1846 78.9522C55.3578 79.4493 55.2423 80.0012 54.9948 80.452C54.6847 81.0081 54.2049 81.4786 53.6194 81.7378C53.3276 81.8907 53.2315 82.3046 53.423 82.5714C53.5748 82.802 53.8959 82.8976 54.1469 82.7785C54.6626 82.549 55.1154 82.1914 55.4891 81.7717C55.5773 81.723 55.6768 81.6891 55.7467 81.6122C55.9765 81.3771 56.2776 81.2328 56.569 81.0903C57.2929 80.7579 58.0562 80.5221 58.8215 80.307C59.965 79.9995 61.1286 79.7057 62.3205 79.7016C63.1788 79.6906 64.0582 79.8273 64.8242 80.2301C65.3144 80.4834 65.7455 80.8486 66.0818 81.2853C66.5035 81.8269 66.788 82.4637 66.9806 83.1196C67.2115 83.9249 67.3135 84.7623 67.3363 85.5983C67.356 86.3587 67.3135 87.1213 67.2077 87.8744C66.5602 88.2624 65.8454 88.5244 65.1174 88.7163C63.6074 89.1081 62.0429 89.2382 60.4877 89.2769C58.4955 89.3194 56.503 89.1923 54.5237 88.9721C53.011 88.7992 51.5034 88.5748 50.0115 88.27C49.5607 88.1754 49.111 88.0767 48.6682 87.9497C48.5579 87.9159 48.4418 87.8862 48.3488 87.8144C48.2146 87.6973 48.1521 87.5227 48.1102 87.3546C48.02 86.9694 48.0304 86.5696 48.0601 86.1779C48.151 85.1951 48.3975 84.2335 48.6982 83.2956C49.0083 83.3519 49.325 83.3612 49.6392 83.3481C49.9341 83.3146 50.1653 83.0257 50.1397 82.7316C50.1269 82.4648 49.9078 82.2259 49.6423 82.1917C49.4335 82.1714 49.2233 82.1607 49.0142 82.1434C48.5603 82.1324 48.121 81.8624 47.9091 81.461C47.6719 81.0292 47.6235 80.5238 47.6284 80.0399C47.6443 79.3533 48.0079 78.7141 48.5126 78.2636C49.2126 77.6367 50.1252 77.2847 51.0478 77.1525Z" fill="white"/>
<path d="M66.5063 89.5013C66.9899 89.3183 67.4597 89.0974 67.8973 88.8213C67.9972 88.9548 68.0346 89.1257 68.0176 89.2904C67.9903 89.5865 67.8797 89.8727 67.7248 90.125C67.3767 90.3867 66.9761 90.5703 66.5768 90.7405C65.1295 91.3297 63.5656 91.5748 62.0125 91.6676C60.1738 91.7612 58.3241 91.6638 56.5075 91.3649C55.2765 91.1523 54.0532 90.8568 52.8951 90.3822C52.7206 90.318 52.5591 90.1978 52.3656 90.2027C52.0966 90.1999 51.8446 90.4081 51.798 90.6728C51.7617 90.8865 51.7306 91.1008 51.696 91.3148C50.7426 91.1557 49.7896 90.9897 48.8497 90.7629C48.6236 90.7052 48.3954 90.6497 48.1783 90.5644C48.1479 90.5137 48.1521 90.4484 48.1421 90.3915C48.102 89.9372 48.1535 89.4812 48.2039 89.0301C48.8666 89.2303 49.5455 89.3701 50.2237 89.5047C52.4153 89.9217 54.6325 90.204 56.8584 90.3552C58.7434 90.4774 60.6391 90.5057 62.522 90.3338C63.8743 90.204 65.2297 89.9783 66.5063 89.5013Z" fill="#D684B7"/>
<path d="M46.1823 59.7719C46.8379 59.5653 47.5672 59.6109 48.1942 59.8927C48.6164 60.0814 48.9884 60.378 49.2769 60.7402C50.0493 61.6831 50.691 62.7274 51.2582 63.8058C52.9897 67.1308 53.8982 70.8563 54.0931 74.5962V77.755C54.0706 78.1897 54.0553 78.6337 53.8971 79.0447C53.5619 79.9951 52.6929 80.7231 51.7064 80.892H50.7238C49.6272 80.7141 48.688 79.829 48.4376 78.7402C48.2911 78.2001 48.392 77.6403 48.4016 77.0912C48.5106 74.1145 48.1051 71.0969 47.0345 68.311C46.5586 67.0809 45.9636 65.8902 45.1947 64.8179C44.9856 64.5163 44.7152 64.2595 44.541 63.9335C44.0379 63.0581 44.0522 61.914 44.5723 61.0497C44.9279 60.4432 45.5133 59.9785 46.1823 59.7719ZM46.7353 60.7606C46.3993 60.8169 46.0808 60.974 45.83 61.2061C45.4121 61.5905 45.1926 62.1837 45.2728 62.7496C45.3173 63.1355 45.5022 63.4942 45.7651 63.7757C46.4902 64.6798 47.0616 65.6984 47.5536 66.7467C48.1896 68.1256 48.6609 69.5792 48.9795 71.065C49.4651 73.3226 49.5958 75.6506 49.4455 77.9534C49.3892 78.6828 49.8399 79.4105 50.5075 79.6935C51.0359 79.9291 51.6793 79.8782 52.1638 79.5604C52.6045 79.2828 52.9088 78.7987 52.9701 78.279C53.1447 75.8485 53.0235 73.3926 52.5739 70.9965C52.0705 68.3308 51.1588 65.7314 49.7861 63.3913C49.3635 62.6837 48.9093 61.9911 48.3766 61.3621C47.9833 60.8908 47.3374 60.6541 46.7353 60.7606Z" fill="black"/>
<path d="M46.7353 60.7606C47.3374 60.6541 47.9833 60.8908 48.3766 61.3621C48.9093 61.9911 49.3635 62.6837 49.7861 63.3913C51.1588 65.7314 52.0705 68.3308 52.5739 70.9965C53.0235 73.3926 53.1447 75.8485 52.9701 78.279C52.9088 78.7987 52.6045 79.2828 52.1638 79.5604C51.6793 79.8782 51.0359 79.9291 50.5075 79.6935C49.8399 79.4105 49.3892 78.6828 49.4455 77.9534C49.5958 75.6506 49.4651 73.3226 48.9795 71.065C48.6609 69.5792 48.1896 68.1256 47.5536 66.7467C47.0616 65.6984 46.4902 64.6798 45.7651 63.7757C45.5022 63.4942 45.3173 63.1355 45.2728 62.7496C45.1926 62.1837 45.4121 61.5905 45.83 61.2061C46.0808 60.974 46.3993 60.8169 46.7353 60.7606Z" fill="#FFCA05"/>
<path d="M13.3534 16.1674C13.8332 15.8358 14.4492 15.7148 15.0181 15.8386C15.6534 15.9688 16.2134 16.3884 16.5522 16.9421C16.865 17.4539 16.9898 18.0682 16.9501 18.6648C16.9163 19.2263 16.752 19.7732 16.5156 20.2808C16.3109 20.7235 16.1733 21.1949 16.0741 21.6719C15.8624 22.7293 15.8444 23.8178 15.9317 24.8901C16.4966 24.3531 17.0957 23.8427 17.7768 23.4607C18.2823 23.1783 18.8403 22.9641 19.4228 22.94C19.953 22.9169 20.5021 23.0879 20.8905 23.461C21.2549 23.7951 21.4762 24.2644 21.5652 24.7486V25.7385C21.4713 26.3185 21.186 26.8551 20.7814 27.2747C19.8552 28.2434 18.6243 28.8372 17.6614 29.7633C17.196 30.2034 16.79 30.7504 16.6729 31.3963C16.6602 31.4977 16.6096 31.6166 16.6841 31.7063C17.019 32.2486 17.2065 32.886 17.1995 33.5259C17.1995 34.1704 17.0053 34.8028 16.7059 35.3678C16.3988 35.9399 15.9996 36.4677 15.5007 36.8834C14.7412 37.5279 13.7903 37.9213 12.812 38.0656H11.3099C10.9394 38.0007 10.5718 37.9096 10.2253 37.7602C9.6072 37.5031 9.05384 37.0714 8.68622 36.505C8.3587 36.0073 8.19794 35.4111 8.17999 34.8173C7.64633 34.5985 7.13975 34.3091 6.69263 33.9416C6.06011 33.4241 5.5458 32.7675 5.16727 32.0415C4.61356 30.9707 4.32368 29.7714 4.25825 28.5683C3.12936 27.7794 2.05253 26.8675 1.28352 25.7073C0.825495 25.0079 0.490592 24.1938 0.492351 23.3443C0.488481 22.6179 0.756896 21.8798 1.27367 21.3655C1.61808 21.0129 2.07716 20.7614 2.57002 20.715C2.94924 20.6759 3.34923 20.7714 3.65106 21.0118C3.88676 21.191 4.03381 21.4552 4.22237 21.679C5.14054 22.8258 6.13856 23.9058 7.15981 24.9589C6.22757 23.5635 5.52715 21.977 5.33086 20.295C5.27176 19.7644 5.25909 19.226 5.3203 18.695C5.40579 18.0097 5.69249 17.3358 6.18957 16.852C7.08874 15.9418 8.60144 15.7276 9.71063 16.3621C10.2534 16.6689 10.6668 17.2155 10.7716 17.8387C10.8381 18.1576 10.7906 18.4829 10.7955 18.8049C10.7966 19.6608 10.8779 20.5142 10.9672 21.3648C11.059 22.1891 11.167 23.0116 11.2926 23.8313C11.3208 23.8331 11.3767 23.837 11.4048 23.8388C11.3004 23.1361 11.2923 22.4218 11.3324 21.7134C11.4143 20.4333 11.6374 19.1511 12.1017 17.9529C12.3782 17.2776 12.7381 16.5881 13.3534 16.1674ZM14.153 16.8608C13.8185 16.9775 13.5778 17.2606 13.3942 17.5539C13.0646 18.0927 12.8595 18.6975 12.6963 19.3058C12.4771 20.151 12.3519 21.0207 12.3079 21.8933C12.2801 22.5069 12.2899 23.1248 12.3821 23.7331C12.4486 24.2247 12.0838 24.7145 11.6047 24.8078C11.3352 24.8521 11.0404 24.8326 10.8015 24.6879C10.5387 24.5354 10.3569 24.2545 10.3157 23.9523C10.1834 23.0673 10.0638 22.1802 9.9706 21.2903C9.86788 20.2773 9.77888 19.2586 9.82461 18.2395C9.83551 17.8306 9.60087 17.4408 9.25154 17.2404C8.46072 16.7757 7.35259 16.9722 6.76545 17.6805C6.43794 18.07 6.29476 18.585 6.27189 19.0873C6.20681 20.3198 6.51427 21.546 7.00994 22.6658C7.2956 23.3152 7.65126 23.9328 8.05546 24.5141C8.31473 24.9171 8.21975 25.4995 7.84755 25.7978C7.56472 26.0421 7.1394 26.0879 6.80661 25.9247C6.58498 25.8272 6.4404 25.624 6.26908 25.4615C5.16552 24.3024 4.07462 23.1251 3.10544 21.8475C2.96226 21.6978 2.7336 21.6656 2.54117 21.7223C2.12149 21.8344 1.79503 22.182 1.62757 22.5764C1.41122 23.0776 1.45238 23.654 1.61632 24.1644C1.8777 24.961 2.39905 25.6389 2.97387 26.233C3.65493 26.92 4.42887 27.5078 5.23763 28.0327C5.21547 29.1511 5.44132 30.2765 5.89829 31.2963C6.25043 32.0709 6.7746 32.7746 7.45637 33.284C8.12793 33.7923 8.9374 34.092 9.76234 34.2257C9.8925 34.242 10.01 34.3172 10.0881 34.4222C10.2545 34.6389 10.1954 34.984 9.96392 35.128C9.73174 35.2919 9.44432 35.1628 9.1942 35.1259C9.24205 35.4153 9.33844 35.6998 9.4992 35.9463C9.78978 36.4053 10.2577 36.7274 10.7611 36.9079C11.4154 37.1431 12.1306 37.175 12.8124 37.0608C13.5662 36.9299 14.2937 36.6124 14.8802 36.1134C15.3164 35.7495 15.6523 35.2756 15.906 34.768C16.1909 34.1927 16.3074 33.5177 16.1382 32.8896C15.9704 33.1701 15.7839 33.4408 15.564 33.683C15.3952 33.8682 15.0831 33.8816 14.896 33.7171C14.6927 33.5518 14.6589 33.2162 14.8351 33.0194C15.232 32.5668 15.5338 32.0206 15.6706 31.4303C15.7311 30.9625 15.8849 30.5074 16.1262 30.1031C16.4048 29.6203 16.79 29.2106 17.202 28.8414C17.8528 28.2664 18.587 27.8007 19.2793 27.2804C19.6863 26.9651 20.1032 26.6359 20.3755 26.189C20.659 25.6892 20.7128 25.0465 20.4676 24.5201C20.3195 24.2048 20.0114 23.9668 19.662 23.9388C19.1083 23.8888 18.5806 24.1328 18.1149 24.4091C17.0025 25.088 16.1371 26.084 15.278 27.0495C15.1774 26.515 15.0585 25.9826 14.9987 25.4413C14.8777 24.3815 14.8584 23.3067 14.9861 22.2462C15.0895 21.4098 15.2882 20.5788 15.646 19.8137C15.8778 19.3011 16.0291 18.7308 15.9549 18.1643C15.9014 17.7366 15.6953 17.3198 15.3512 17.0559C15.0177 16.7956 14.5502 16.7026 14.153 16.8608Z" fill="black"/>
<path d="M14.0936 26.7068C14.331 26.6852 14.6118 26.6082 14.8109 26.7867C15.0335 26.9615 15.0501 27.3354 14.8365 27.5244C14.6747 27.7021 14.42 27.6528 14.2083 27.6911C13.5451 27.7901 12.8729 28.0423 12.4053 28.5442C12.044 28.9319 11.8569 29.4565 11.8178 29.9814C11.7869 30.3584 11.8224 30.7369 11.8826 31.1093C11.9255 31.3683 11.7239 31.6325 11.4664 31.6623C11.217 31.707 10.9602 31.5229 10.9148 31.2732C10.786 30.5383 10.7737 29.7654 11.0038 29.0489C11.2092 28.3913 11.6377 27.8075 12.2031 27.4191C12.7596 27.0236 13.4231 26.8016 14.0936 26.7068Z" fill="black"/>
<path d="M14.153 16.8608C14.5502 16.7026 15.0177 16.7956 15.3512 17.0559C15.6953 17.3198 15.9014 17.7366 15.9549 18.1643C16.0291 18.7308 15.8778 19.3011 15.646 19.8137C15.2882 20.5788 15.0895 21.4098 14.9861 22.2462C14.8584 23.3067 14.8777 24.3815 14.9987 25.4413C15.0585 25.9826 15.1774 26.515 15.278 27.0495C16.1371 26.084 17.0025 25.088 18.1149 24.4091C18.5806 24.1328 19.1083 23.8888 19.662 23.9388C20.0114 23.9668 20.3195 24.2048 20.4676 24.5201C20.7128 25.0465 20.659 25.6892 20.3755 26.189C20.1032 26.6359 19.6863 26.9651 19.2793 27.2804C18.587 27.8007 17.8528 28.2664 17.202 28.8414C16.79 29.2106 16.4048 29.6203 16.1262 30.1031C15.8849 30.5074 15.7311 30.9625 15.6706 31.4303C15.5338 32.0206 15.232 32.5668 14.8351 33.0194C14.6589 33.2162 14.6927 33.5518 14.896 33.7171C15.0831 33.8816 15.3952 33.8682 15.564 33.683C15.7839 33.4408 15.9704 33.1701 16.1382 32.8896C16.3074 33.5177 16.1909 34.1927 15.906 34.768C15.6523 35.2756 15.3164 35.7495 14.8802 36.1134C14.2937 36.6124 13.5662 36.9299 12.8124 37.0608C12.1306 37.175 11.4154 37.1431 10.7611 36.9079C10.2577 36.7274 9.78978 36.4053 9.4992 35.9463C9.33844 35.6998 9.24205 35.4153 9.1942 35.1259C9.44432 35.1628 9.73174 35.2919 9.96392 35.128C10.1954 34.984 10.2545 34.6389 10.0881 34.4222C10.01 34.3172 9.8925 34.242 9.76234 34.2257C8.9374 34.092 8.12793 33.7923 7.45637 33.284C6.7746 32.7746 6.25043 32.0709 5.89829 31.2963C5.44132 30.2765 5.21547 29.1511 5.23763 28.0327C4.42887 27.5078 3.65493 26.92 2.97387 26.233C2.39905 25.6389 1.8777 24.961 1.61632 24.1644C1.45238 23.654 1.41122 23.0776 1.62757 22.5764C1.79503 22.182 2.12149 21.8344 2.54117 21.7223C2.7336 21.6656 2.96226 21.6978 3.10544 21.8475C4.07462 23.1251 5.16552 24.3024 6.26908 25.4615C6.4404 25.624 6.58498 25.8272 6.80661 25.9247C7.1394 26.0879 7.56472 26.0421 7.84755 25.7978C8.21975 25.4995 8.31473 24.9171 8.05546 24.5141C7.65126 23.9328 7.2956 23.3152 7.00994 22.6658C6.51427 21.546 6.20681 20.3198 6.27189 19.0873C6.29476 18.585 6.43794 18.07 6.76545 17.6805C7.35259 16.9722 8.46072 16.7757 9.25154 17.2404C9.60087 17.4408 9.83551 17.8306 9.82461 18.2395C9.77888 19.2586 9.86788 20.2773 9.9706 21.2903C10.0638 22.1802 10.1834 23.0673 10.3157 23.9523C10.3569 24.2545 10.5387 24.5354 10.8015 24.6879C11.0404 24.8326 11.3352 24.8521 11.6047 24.8078C12.0838 24.7145 12.4486 24.2247 12.3821 23.7331C12.2899 23.1248 12.2801 22.5069 12.3079 21.8933C12.3519 21.0207 12.4771 20.151 12.6963 19.3058C12.8595 18.6975 13.0646 18.0927 13.3942 17.5539C13.5778 17.2606 13.8185 16.9775 14.153 16.8608ZM14.0936 26.7068C13.4231 26.8016 12.7596 27.0236 12.2031 27.4191C11.6377 27.8075 11.2092 28.3913 11.0038 29.0489C10.7737 29.7654 10.786 30.5383 10.9148 31.2732C10.9602 31.5229 11.217 31.707 11.4664 31.6623C11.7239 31.6325 11.9255 31.3683 11.8826 31.1093C11.8224 30.7369 11.7869 30.3584 11.8178 29.9814C11.8569 29.4565 12.044 28.9319 12.4053 28.5442C12.8729 28.0423 13.5451 27.7901 14.2083 27.6911C14.42 27.6528 14.6747 27.7021 14.8365 27.5244C15.0501 27.3354 15.0335 26.9615 14.8109 26.7867C14.6118 26.6082 14.331 26.6852 14.0936 26.7068Z" fill="white"/>
<path d="M32.1456 58.9039C32.8024 58.8105 33.4927 58.9623 34.0472 59.3286C34.5886 59.6781 35.0036 60.221 35.193 60.8383C35.4686 61.6964 35.2953 62.6825 34.7397 63.3917C34.0017 64.2527 33.4377 65.2469 32.9452 66.2644C31.7725 68.7434 31.1652 71.4683 31.0181 74.2013C30.9624 75.2345 30.9722 76.271 31.0399 77.3034C31.0825 77.9273 30.9089 78.565 30.551 79.0776C30.1629 79.6456 29.5574 80.0597 28.8882 80.2144C28.3137 80.3494 27.697 80.2965 27.1545 80.0637C26.339 79.7212 25.7095 78.9678 25.522 78.1006C25.4401 77.7281 25.4452 77.3447 25.4215 76.966C25.2752 73.7102 25.6312 70.4209 26.5807 67.2994C27.0023 65.9098 27.5423 64.5552 28.2005 63.2607C28.8063 62.0885 29.4948 60.9521 30.3362 59.9335C30.78 59.3764 31.439 58.9959 32.1456 58.9039ZM31.5467 60.1539C31.3185 60.2972 31.1386 60.5034 30.9726 60.7131C30.3558 61.4851 29.829 62.3253 29.3528 63.1907C30.4308 63.7299 31.4699 64.3479 32.4587 65.0371C32.8924 64.2476 33.3689 63.4753 33.9562 62.7901C34.3698 62.271 34.4528 61.5161 34.1681 60.9174C33.9475 60.4329 33.5026 60.0568 32.987 59.9251C32.5032 59.7967 31.9662 59.878 31.5467 60.1539ZM27.0744 69.2757C26.4438 72.0079 26.2582 74.8354 26.446 77.6311C26.4864 78.1922 26.8079 78.7244 27.2863 79.0192C27.9533 79.4585 28.9112 79.3713 29.4832 78.8109C29.876 78.4512 30.0919 77.9098 30.0562 77.3779C29.8589 74.4052 30.1327 71.3855 31.0119 68.5333C31.0436 68.4187 31.1004 68.306 31.0869 68.1838C31.0603 67.8167 31.0083 67.4505 30.9136 67.0947C30.7705 66.5493 30.4938 66.0276 30.0642 65.6555C29.627 65.2615 29.035 65.009 28.4401 65.0751C27.8586 66.4297 27.4061 67.839 27.0744 69.2757Z" fill="black"/>
<path d="M31.5467 60.1539C31.9662 59.878 32.5032 59.7967 32.987 59.9251C33.5026 60.0568 33.9475 60.4329 34.1681 60.9174C34.4528 61.5161 34.3698 62.271 33.9562 62.7901C33.3689 63.4753 32.8924 64.2476 32.4587 65.0371C31.4699 64.3479 30.4308 63.7299 29.3528 63.1907C29.829 62.3253 30.3558 61.4851 30.9726 60.7131C31.1386 60.5034 31.3185 60.2972 31.5467 60.1539Z" fill="#FFCA05"/>
<path d="M27.0744 69.2757C27.4061 67.839 27.8586 66.4297 28.4401 65.0751C29.035 65.009 29.627 65.2615 30.0642 65.6555C30.4938 66.0276 30.7705 66.5493 30.9136 67.0947C31.0083 67.4505 31.0603 67.8167 31.0869 68.1838C31.1004 68.306 31.0436 68.4187 31.0119 68.5333C30.1327 71.3855 29.8589 74.4052 30.0562 77.3779C30.0919 77.9098 29.876 78.4512 29.4832 78.8109C28.9112 79.3713 27.9533 79.4585 27.2863 79.0192C26.8079 78.7244 26.4864 78.1922 26.446 77.6311C26.2582 74.8354 26.4438 72.0079 27.0744 69.2757Z" fill="#FFCA05"/>
<path d="M41.8889 0H42.8442C43.808 0.0638198 44.7625 0.224148 45.71 0.404711C46.6598 0.672443 47.6151 0.93784 48.5285 1.31375C48.898 1.55503 49.2947 1.74648 49.679 1.96129C50.0547 2.23058 50.4584 2.45629 50.838 2.71935C51.9366 3.58092 52.9399 4.57946 53.7317 5.73523C54.0183 6.15395 54.2941 6.58045 54.5715 7.0054C54.8465 7.42023 55.0232 7.89031 55.2633 8.3246C55.5182 8.79157 55.6801 9.30058 55.9095 9.78C56.2658 10.4937 56.4169 11.286 56.702 12.0285C56.8206 12.3375 56.8546 12.6682 56.9259 12.9897C57.2947 14.3385 57.4938 15.7293 57.6278 17.1201C57.6619 18.2097 57.7936 19.2962 57.7781 20.3881C57.7146 22.0334 57.6735 23.6881 57.3652 25.3108C57.1638 26.3413 57.0956 27.3982 56.8043 28.41C56.4262 29.7548 56.145 31.134 55.605 32.4275C55.2672 33.2735 54.8992 34.1063 54.5707 34.9554C54.3708 35.4815 54.1694 36.0131 54.0927 36.5742C53.9896 36.6863 53.9478 36.8832 54.1074 36.9688C54.0849 38.1121 54.3398 39.2368 54.5932 40.3443C54.845 41.1412 55.1231 41.9304 55.3199 42.7437C55.4764 43.2582 55.5453 43.8053 55.7987 44.2855C57.0538 46.7932 57.6596 49.6542 57.352 52.456C57.0429 55.338 55.8692 58.1126 54.0733 60.3751C53.4636 61.0328 52.8856 61.7208 52.2356 62.3403C51.2068 63.3249 50.0896 64.2246 48.8593 64.9421C47.0084 65.8068 45.0964 66.5322 43.1657 67.1945C42.604 67.2856 42.0485 67.4296 41.4775 67.456C40.9042 67.4887 40.3402 67.6568 39.7646 67.6094C38.367 67.4887 36.9345 67.5284 35.581 67.1089C34.3855 66.8754 33.2707 66.3579 32.1744 65.8442C31.4965 65.5251 30.8426 65.1601 30.181 64.8114C29.8006 64.6145 29.4938 64.3078 29.1382 64.0736C28.5688 63.6961 28.09 63.205 27.5879 62.7458C26.5606 61.7901 25.6836 60.6833 24.9104 59.5136C24.4177 58.7508 23.8955 57.9967 23.5608 57.146C23.0526 56.1156 22.6962 55.0189 22.3391 53.9293C22.2012 53.1962 21.9842 52.4794 21.8936 51.7377C21.7417 50.9368 21.6805 50.1258 21.6348 49.3141V48.8331C21.7193 47.587 21.8456 46.3441 22.0028 45.1059C22.0881 44.2995 22.3065 43.5166 22.4886 42.729C22.6939 41.9444 23.0317 41.2043 23.3021 40.4423C23.6654 39.4586 23.9079 38.4375 24.207 37.4335C24.4262 36.6972 24.637 35.9578 24.8454 35.2184C25.0538 34.4822 25.0832 33.7125 25.1739 32.9567C25.2846 32.0134 25.2149 31.0631 25.1847 30.1183C25.1793 29.3104 25.005 28.5181 24.9135 27.7188C24.8492 27.0869 24.678 26.4697 24.6416 25.8346C24.6222 25.4415 24.4789 25.068 24.4626 24.6749C24.4278 23.8935 24.2666 23.1222 24.2682 22.3385C24.2728 21.0901 24.2395 19.8371 24.3883 18.5949C24.654 16.3402 25.1909 14.1174 25.9866 11.9927C26.3019 11.2626 26.6187 10.5311 26.9945 9.82981C27.1587 9.44145 27.378 9.0811 27.6127 8.7332C28.0055 8.02963 28.5138 7.4031 28.9623 6.73689C29.9935 5.39433 31.2331 4.22378 32.5835 3.20967C33.2885 2.61272 34.1082 2.18233 34.9108 1.73792C35.7266 1.37368 36.5417 1.00244 37.3885 0.716028C37.6139 0.684118 37.8355 0.631194 38.0454 0.54169C39.3005 0.213252 40.5912 0.0147875 41.8889 0ZM35.6592 2.66176C34.9449 3.07581 34.1756 3.40424 33.5256 3.92181C32.3015 4.883 31.0828 5.88232 30.1214 7.11903C29.4458 8.01484 28.7656 8.91377 28.2325 9.90453C28.0481 10.3513 27.7537 10.742 27.5879 11.1965C27.0743 12.3896 26.5436 13.5835 26.236 14.8506C25.8928 15.969 25.7138 17.1286 25.5783 18.2883C25.5085 18.9117 25.414 19.5328 25.3993 20.1608C25.366 21.3003 25.4512 22.4381 25.4892 23.576C25.5635 24.2523 25.6255 24.9318 25.7549 25.6003C25.8688 26.4736 25.9997 27.3453 26.1493 28.213C26.1911 28.9267 26.2616 29.6397 26.3677 30.3479C26.4212 31.2126 26.322 32.0757 26.291 32.9404C26.1934 33.7872 26.1338 34.6425 25.9563 35.4784C25.4845 37.1688 25.053 38.8725 24.4812 40.5334C24.0172 41.8985 23.3842 43.2302 23.2308 44.6809C22.9689 45.6717 22.9155 46.7006 22.7869 47.7139C22.7133 48.156 22.8357 48.5988 22.7838 49.0409C22.7241 49.5623 22.8767 50.0737 22.8891 50.5936C22.9627 51.2723 23.0557 51.9517 23.2277 52.614C23.3191 53.1495 23.4206 53.6881 23.6143 54.1978C23.8088 54.6874 23.904 55.2151 24.1574 55.6805C24.4758 56.3078 24.6912 56.9833 25.0367 57.5974C25.7549 58.817 26.5847 59.9689 27.488 61.0569C28.1055 61.6593 28.7299 62.2563 29.383 62.8198C30.0113 63.3723 30.7288 63.809 31.44 64.2432C32.0148 64.6534 32.6834 64.8947 33.3311 65.1609C34.3933 65.6543 35.5322 66.0193 36.6966 66.1469C36.7268 66.2925 37.0065 66.2878 37.1173 66.217L37.1692 66.2536C38.7466 66.5361 40.3596 66.4162 41.9439 66.2668C42.5885 66.1314 43.23 65.9843 43.8754 65.8535C44.6889 65.6076 45.4977 65.3375 46.2763 64.9935C46.8628 64.6705 47.4919 64.4277 48.0512 64.0557C48.8887 63.6066 49.6457 63.0237 50.3902 62.4361C51.1285 61.857 51.7475 61.1488 52.4076 60.4857C52.5618 60.3028 52.6827 60.095 52.8392 59.9136C54.3143 58.0916 55.409 55.9397 55.8971 53.6367C56.5579 50.5663 56.107 47.2921 54.7551 44.4708C54.6141 44.1501 54.377 43.8668 54.3329 43.5104C54.0137 42.3227 53.6147 41.1576 53.2978 39.9691C53.1521 39.1045 53.0111 38.2343 52.9747 37.3572C52.9817 35.9586 53.3048 34.5585 53.9308 33.3077C54.0663 33.0252 54.2786 32.7816 54.3615 32.4742C54.8457 31.2227 55.1843 29.9222 55.5492 28.6325C55.7297 27.9118 55.832 27.174 55.9908 26.4487C56.334 24.6555 56.4843 22.8327 56.5804 21.0115C56.6633 19.739 56.4913 18.4696 56.4642 17.1979C56.3534 16.1589 56.1946 15.123 55.9854 14.0987C55.9064 13.4263 55.6685 12.7889 55.4903 12.139C55.0882 10.7015 54.5513 9.29202 53.7758 8.01328C53.2467 6.94313 52.458 6.03565 51.7212 5.10792C50.6327 4.03622 49.4504 3.00576 48.0148 2.43994C47.7258 2.33954 47.4841 2.14264 47.1975 2.03912C45.6085 1.48187 43.9304 1.16277 42.2445 1.16666C39.9776 1.17989 37.6968 1.64998 35.6592 2.66176Z" fill="black"/>
<path d="M41.5697 2.89602C41.9075 2.73336 42.4382 2.92404 42.4421 3.34743C42.4715 3.6136 42.2414 3.78794 42.1004 3.98018C41.9199 4.20121 41.765 4.49541 41.4652 4.5639C41.0112 4.66974 40.5757 4.0728 40.8671 3.68521C41.0708 3.40035 41.2637 3.0797 41.5697 2.89602Z" fill="black"/>
<path d="M43.5996 3.09137C43.7615 3.02911 43.9521 3.03845 44.1163 3.09059C44.4208 3.27427 44.4464 3.66497 44.5889 3.95917C44.9693 4.72578 45.0011 5.61537 44.9205 6.45281C44.874 7.14315 44.5866 7.82416 44.1062 8.32304C43.4322 8.93789 42.4506 9.23209 41.5573 9.0165C40.5355 8.7729 39.5941 8.20396 38.8791 7.43423C38.68 7.22643 38.4855 6.92368 38.6265 6.62948C38.7737 6.23878 39.3462 6.12437 39.6166 6.45203C40.1744 7.16028 40.9608 7.72687 41.8587 7.88097C42.4049 7.97437 43.0433 7.84751 43.3935 7.38209C43.8204 6.83651 43.7948 6.09947 43.7816 5.44337C43.7871 4.80672 43.3826 4.27126 43.2796 3.65874C43.2308 3.41903 43.4012 3.20111 43.5996 3.09137Z" fill="black"/>
<path d="M37.3118 4.00275C37.624 3.88912 38.0788 4.00041 38.164 4.36232C38.2205 4.69621 38.0315 5.00441 37.8882 5.2916C37.4256 6.11737 36.9484 6.95247 36.2682 7.62025C35.763 8.12691 35.1587 8.60634 34.4282 8.70051C33.8711 8.78613 33.2358 8.62346 32.8864 8.15415C32.6253 7.79847 32.4169 7.37275 32.4231 6.92212C32.4208 6.67851 32.5602 6.43102 32.7896 6.33684C33.06 6.27069 33.3939 6.39055 33.5093 6.65828C33.5891 6.95948 33.6255 7.3245 33.9075 7.5144C34.1523 7.66072 34.4468 7.53386 34.6738 7.41089C35.2362 7.08634 35.6368 6.55554 36.0528 6.06911C36.3999 5.59513 36.7129 5.09002 36.9306 4.5421C37.0142 4.33897 37.108 4.11171 37.3118 4.00275Z" fill="black"/>
<path d="M48.3147 3.98096C48.5145 3.86188 48.7795 3.9257 48.9569 4.06346C49.3993 4.39112 49.8084 4.79661 50.0377 5.30639C50.1547 5.65895 50.3569 5.99673 50.3491 6.37965C50.3631 6.89721 50.3305 7.45369 50.033 7.89576C49.7867 8.24833 49.4287 8.52462 49.0266 8.67094C48.3619 8.82815 47.6399 8.79313 47.01 8.51995C46.6544 8.37986 46.5436 7.88097 46.7574 7.579C46.948 7.36575 47.2811 7.30504 47.5353 7.43735C47.9784 7.65293 48.5626 7.70664 48.9631 7.37431C49.2691 7.11358 49.2521 6.66373 49.1669 6.30571C49.0522 5.85742 48.8492 5.39122 48.4518 5.12738C48.2403 4.9795 47.9745 4.80595 47.9745 4.51486C47.9513 4.27749 48.1458 4.11015 48.3147 3.98096Z" fill="black"/>
<path d="M50.1872 9.63213C50.3329 9.59788 50.4971 9.54263 50.6397 9.61812C51.0263 9.81114 51.278 10.1785 51.5833 10.4719C52.1922 11.0533 52.6331 11.7833 53.0212 12.5243C53.2862 13.2403 53.4404 14.0404 53.235 14.793C53.0909 15.3354 52.7299 15.8483 52.2062 16.0725C51.7863 16.1939 51.3501 15.6981 51.5159 15.2934C51.6546 15.0093 52.004 14.8825 52.0931 14.5657C52.262 14.024 52.1969 13.41 51.9118 12.9189C51.5283 12.2254 51.1208 11.5133 50.4932 11.0105C50.2693 10.8214 50.0144 10.6494 49.8703 10.3863C49.7138 10.1046 49.9447 9.77066 50.1872 9.63213Z" fill="black"/>
<path d="M39.113 10.2594C40.2054 10.0501 41.2994 10.4011 42.2872 10.8455C42.5482 10.9638 42.8163 11.2113 42.759 11.5288C42.7009 11.9623 42.1229 12.1662 41.7812 11.9187C41.1212 11.4782 40.3007 11.3771 39.526 11.3926C38.9503 11.4004 38.3863 11.6604 38.0113 12.0993C37.8502 12.2923 37.827 12.5678 37.6519 12.7507C37.3544 13.0294 36.7888 12.848 36.7005 12.4503C36.6486 12.2013 36.771 11.9631 36.8887 11.753C37.1498 11.3008 37.5132 10.8906 37.978 10.6462C38.3491 10.4976 38.7117 10.3108 39.113 10.2594Z" fill="black"/>
<path d="M52.8051 18.3303C53.1095 18.1622 53.5542 18.3272 53.6247 18.686C53.8053 19.4479 53.8889 20.2379 53.8463 21.0209C53.8068 22.0918 53.7317 23.1775 53.397 24.2025C53.1661 24.91 52.8911 25.6136 52.4843 26.2385C52.2782 26.4432 52.1829 26.8051 51.8583 26.8495C51.44 26.9437 51.0255 26.4782 51.1704 26.0712C51.2695 25.8735 51.44 25.7256 51.5577 25.5404C51.8273 25.1621 51.9707 24.7162 52.1241 24.2819C52.4704 23.2802 52.6765 22.228 52.7105 21.168C52.7245 20.6722 52.6726 20.1787 52.6493 19.6845C52.6377 19.3919 52.506 19.121 52.4851 18.8307C52.4696 18.6105 52.6517 18.4548 52.8051 18.3303Z" fill="black"/>
<path d="M29.0166 22.6763C29.4388 22.4879 29.9827 22.8732 29.8742 23.3448C29.7967 23.8017 29.1839 23.9215 28.8756 23.6165C28.5564 23.3658 28.7106 22.8631 29.0166 22.6763Z" fill="black"/>
<path d="M27.2285 23.5192C27.5198 23.3651 27.9257 23.5565 28.0133 23.8749C28.1357 24.2142 27.8754 24.6018 27.5306 24.6563C27.1502 24.6913 26.7799 24.3037 26.8659 23.9208C26.9093 23.734 27.0844 23.625 27.2285 23.5192Z" fill="black"/>
<path d="M45.1382 23.7005C45.3706 23.6437 45.6604 23.692 45.7944 23.9114C46.0292 24.2772 45.7565 24.8096 45.3474 24.8882C45.0328 24.9209 44.7353 24.6586 44.6819 24.3543C44.6385 24.0609 44.8988 23.8149 45.1382 23.7005Z" fill="black"/>
<path d="M29.2428 24.9185C29.5535 24.7932 29.9997 24.9294 30.0733 25.2906C30.1694 25.6509 29.8672 25.9794 29.5442 26.0782C29.2219 26.1272 28.9112 25.8478 28.8554 25.5381C28.8229 25.2657 29.0452 25.0641 29.2428 24.9185Z" fill="black"/>
<path d="M47.058 25.3917C47.4926 25.1684 48.0908 25.5793 47.9745 26.0751C47.8715 26.5592 47.1921 26.6713 46.8899 26.3078C46.6025 26.0463 46.7249 25.5482 47.058 25.3917Z" fill="black"/>
<path d="M45.1173 25.8494C45.5597 25.7069 46.0199 26.2393 45.8331 26.6604C45.6666 27.0184 45.0925 27.1336 44.8322 26.8176C44.5773 26.5125 44.6695 25.9109 45.1173 25.8494Z" fill="black"/>
<path d="M50.7024 29.6708C51.1316 29.435 51.6933 29.8856 51.5438 30.3526C51.4283 30.8468 51.3966 31.3581 51.244 31.843C50.8426 33.1918 50.3096 34.5297 49.4404 35.6473C48.9042 36.3322 48.2108 36.9494 47.3462 37.1541C46.6923 37.3307 45.9191 37.2311 45.4388 36.7151C44.5757 35.8177 44.2163 34.5297 44.2232 33.3046C44.224 32.9933 44.1667 32.6571 44.3147 32.3691C44.5657 31.9543 45.2994 32.145 45.3644 32.6104C45.4008 33.0758 45.3311 33.5467 45.4132 34.0098C45.5163 34.6238 45.7045 35.2511 46.1043 35.7391C46.3088 35.9936 46.642 36.1516 46.9705 36.0823C47.471 35.9796 47.8638 35.6154 48.2062 35.2558C49.3179 34.0541 49.9246 32.4765 50.2871 30.8997C50.4119 30.4841 50.2569 29.9222 50.7024 29.6708Z" fill="black"/>
<path d="M28.7795 30.3713C29.0855 30.2592 29.5419 30.3697 29.6147 30.7316C29.6503 31.1239 29.5604 31.5138 29.5519 31.906C29.531 32.5582 29.5511 33.212 29.5728 33.8642C29.6457 34.5382 29.6565 35.2332 29.9075 35.8722C30.0392 36.3182 30.2717 36.7431 30.6164 37.0583C30.8287 37.242 31.1781 37.3385 31.2223 37.6576C31.2966 38.116 30.7319 38.5044 30.3367 38.26C29.7301 37.8701 29.2072 37.312 28.9492 36.6287C28.8012 36.2894 28.6571 35.9415 28.6238 35.5695C28.585 35.1227 28.4324 34.6923 28.4324 34.2417C28.42 33.4899 28.3852 32.7373 28.4185 31.9854C28.4378 31.5706 28.372 31.1488 28.4681 30.7409C28.5068 30.5759 28.6447 30.4592 28.7795 30.3713Z" fill="black"/>
<path d="M28.4882 40.6665C28.8314 40.3287 29.2382 40.0438 29.6945 39.8866C29.9509 39.8057 30.1841 39.9598 30.3925 40.0882C30.4359 40.2991 30.5358 40.5334 30.4266 40.742C30.3243 40.9412 30.0857 40.9856 29.8998 41.0728C29.5465 41.2004 29.311 41.5133 29.077 41.7927C28.6036 42.3632 28.2775 43.0737 28.2217 43.8193C28.1442 44.2762 27.4229 44.4054 27.1866 44.0108C27.0224 43.7415 27.082 43.4068 27.158 43.1189C27.4144 42.2192 27.8173 41.3319 28.4882 40.6665Z" fill="black"/>
<path d="M50.4847 40.1053C50.738 39.9808 51.0983 40.0501 51.2192 40.3271C51.4105 40.7459 51.6282 41.1576 51.7437 41.6067C51.8289 41.9226 51.8359 42.2542 51.9203 42.571C52.0086 42.8348 51.8266 43.122 51.5895 43.2325C51.3036 43.3282 50.9271 43.206 50.8209 42.9033C50.6815 42.5297 50.7295 42.1125 50.5823 41.7405C50.4344 41.3716 50.2043 41.0276 50.1407 40.6291C50.1221 40.3964 50.315 40.2283 50.4847 40.1053Z" fill="black"/>
<path d="M45.1537 41.1451C45.3435 41.0696 45.5938 41.0751 45.7425 41.2339C46.0865 41.616 46.2926 42.0946 46.5227 42.5499C46.7969 43.0636 46.9643 43.6279 47.1006 44.1921C47.1525 44.4085 47.1812 44.6863 46.9922 44.8475C46.7272 45.13 46.2019 45.0101 46.0578 44.6599C45.8974 44.2575 45.8293 43.8225 45.6395 43.431C45.4512 43.0294 45.3164 42.5982 45.0569 42.234C44.9383 42.0511 44.7779 41.8604 44.8089 41.6269C44.826 41.416 45.0003 41.2681 45.1537 41.1451Z" fill="black"/>
<path d="M34.7597 41.3599C35.0844 41.1996 35.588 41.4012 35.6081 41.7981C35.5949 42.0612 35.4632 42.3025 35.4346 42.5647C35.2254 43.9018 35.1688 45.2841 35.4578 46.615C35.5732 47.1419 35.7607 47.6532 36.028 48.1225C36.2534 48.4813 35.9304 49.023 35.5081 48.9903C35.2471 48.9919 35.0433 48.7903 34.9426 48.5654C34.6939 48.0252 34.47 47.4711 34.3096 46.8983C34.243 46.3924 34.1152 45.8904 34.1415 45.3767C34.109 44.2466 34.1833 43.115 34.3701 42.0005C34.401 41.739 34.5304 41.4961 34.7597 41.3599Z" fill="black"/>
<path d="M31.6383 41.9748C31.8808 41.8892 32.2062 41.9226 32.3433 42.1686C32.5448 42.5266 32.4967 42.9562 32.5293 43.3516C32.6277 44.1727 32.4107 45.0023 32.0629 45.7409C31.7537 46.3511 31.3083 46.952 30.6521 47.2072C29.8889 47.4999 29.0166 47.3668 28.3023 47.0002C27.8746 46.7784 27.495 46.4375 27.2796 46.0009C27.0828 45.5705 27.5748 45.0148 28.0241 45.1852C28.2953 45.2919 28.3673 45.6133 28.5765 45.7931C29.0522 46.1993 29.782 46.3348 30.3437 46.0297C30.735 45.8195 30.9658 45.4125 31.1231 45.0117C31.45 44.2381 31.4307 43.3835 31.3114 42.5678C31.2517 42.3289 31.4338 42.0775 31.6383 41.9748Z" fill="black"/>
<path d="M40.7811 42.5126C41.0282 42.42 41.3784 42.4192 41.5535 42.6496C42.3902 44.003 42.752 45.5954 42.869 47.1691C42.9046 48.1264 42.4072 49.1257 41.5426 49.5701C40.8794 49.9211 40.0946 49.8768 39.3764 49.7702C38.9232 49.6589 38.4049 49.5172 38.133 49.1039C37.8796 48.7195 38.2337 48.1443 38.6846 48.1887C38.9217 48.2455 39.0727 48.4681 39.3005 48.5475C39.7963 48.7101 40.348 48.7265 40.8446 48.5599C41.2257 48.4362 41.5651 48.1357 41.6681 47.738C41.782 47.289 41.6581 46.8305 41.6147 46.3807C41.5845 45.9534 41.4388 45.5487 41.373 45.1276C41.2901 44.6334 41.0507 44.1898 40.8562 43.7345C40.7741 43.5236 40.561 43.3998 40.4758 43.1936C40.4347 42.9399 40.5401 42.6317 40.7811 42.5126Z" fill="black"/>
<path d="M45.7425 46.9512C46.1113 46.7761 46.6234 47.0508 46.6242 47.4703C46.3112 48.5552 46.1934 49.7048 46.3383 50.8278C46.4258 51.3431 46.5459 51.891 46.9062 52.2895C47.1781 52.5798 47.6251 52.6008 47.9893 52.5136C48.4967 52.4023 48.9817 52.172 49.3737 51.8264C49.5744 51.6575 49.6077 51.3485 49.8479 51.2178C50.0935 51.0528 50.4646 51.1065 50.6257 51.3641C50.8171 51.6692 50.6985 52.0684 50.4816 52.3268C49.813 53.1464 48.7919 53.66 47.7421 53.734C47.0061 53.7783 46.2848 53.3869 45.8618 52.7907C45.2777 52.007 45.139 50.9967 45.1057 50.0441C45.0561 49.1537 45.2188 48.2696 45.4349 47.4104C45.4853 47.2314 45.5697 47.0407 45.7425 46.9512Z" fill="black"/>
<path d="M25.9052 49.6768C26.2012 49.5919 26.6002 49.718 26.6846 50.0449C26.7334 50.4566 26.6009 50.8668 26.6459 51.28C26.7071 51.8435 26.6838 52.4319 26.917 52.9604C27.0968 53.3129 26.7597 53.7994 26.3654 53.7394C26.054 53.7137 25.8262 53.4413 25.7402 53.1573C25.5837 52.6008 25.5829 52.0179 25.5256 51.4466C25.483 51.0037 25.5062 50.5578 25.5434 50.1157C25.5465 49.904 25.7464 49.7771 25.9052 49.6768Z" fill="black"/>
<path d="M53.1258 50.0745C53.1971 49.8098 53.5031 49.7655 53.7224 49.6876C53.8967 49.7686 54.1221 49.813 54.205 50.0114C54.3863 50.3873 54.4041 50.8138 54.4924 51.217C54.6699 52.0334 54.6404 52.8794 54.5521 53.7052C54.3871 54.4197 54.0911 55.1357 53.5519 55.6486C53.1243 56.0541 52.52 56.3078 51.9281 56.2082C51.5058 56.0836 51.4066 55.419 51.77 55.1723C52.035 55.0119 52.3913 55.096 52.6393 54.8952C53.0933 54.5372 53.3799 53.9737 53.4117 53.3954C53.476 52.6016 53.5248 51.7789 53.2753 51.0107C53.1886 50.7088 53.053 50.3936 53.1258 50.0745Z" fill="black"/>
<path d="M31.0201 50.764C31.3036 50.6216 31.7111 50.7204 31.8142 51.0465C32.2333 52.4039 32.3333 53.871 32.0327 55.2649C31.8428 56.1015 31.3757 56.9444 30.5769 57.325C30.1035 57.5694 29.5488 57.5834 29.0383 57.4612C28.1613 57.2721 27.3346 56.788 26.783 56.072C26.5637 55.7902 26.4762 55.3124 26.7768 55.0563C27.0503 54.8049 27.5229 54.9341 27.6794 55.2571C27.8824 55.7132 28.3534 55.9599 28.7873 56.1506C29.2459 56.3241 29.7983 56.4837 30.2523 56.2167C30.7063 55.8727 30.8434 55.2781 30.9496 54.7473C31.1231 53.5931 31.0092 52.4039 30.6838 51.2878C30.6567 51.0621 30.8442 50.873 31.0201 50.764Z" fill="black"/>
<path d="M34.281 52.5541C34.4948 52.4374 34.7869 52.5253 34.9178 52.73C35.1378 53.0647 35.1688 53.4787 35.2641 53.8593C35.3369 54.2235 35.4989 54.5769 35.4764 54.9543C35.4183 55.2851 35.0495 55.5202 34.728 55.3941C34.3592 55.2984 34.2988 54.8656 34.2352 54.5489C34.1709 54.05 33.9447 53.5869 33.906 53.0857C33.8727 52.8312 34.095 52.6724 34.281 52.5541Z" fill="black"/>
<path d="M42.8117 53.969C43.1626 53.8391 43.66 54.0655 43.6321 54.4858C43.4624 55.282 43.3168 56.114 42.876 56.8137C42.6451 57.1312 42.4452 57.4752 42.1702 57.7578C41.727 58.1889 41.2312 58.5827 40.647 58.8007C40.0381 59.1159 39.3486 59.2054 38.6738 59.2388C37.8634 59.2373 37.0437 59.1758 36.2643 58.9423C35.9621 58.8419 35.612 58.7096 35.481 58.3905C35.3276 58.0224 35.653 57.5647 36.0481 57.585C36.2449 57.6099 36.4192 57.7118 36.5967 57.7943C37.0235 58.0177 37.5147 58.0527 37.9873 58.0831C38.7636 58.1103 39.5678 58.0473 40.2837 57.7212C41.1769 57.2635 41.8944 56.4518 42.2081 55.4914C42.3305 55.0905 42.4088 54.6781 42.5018 54.2702C42.5769 54.1457 42.6908 54.0469 42.8117 53.969Z" fill="black"/>
<path d="M48.7617 58.8536C49.1018 58.7555 49.524 59.0077 49.5364 59.3805C49.5434 59.712 49.3055 59.9735 49.1188 60.2234C48.2349 61.2748 47.3857 62.3816 46.2825 63.2151C45.7867 63.57 45.194 63.8852 44.5641 63.7887C43.7979 63.7428 43.2137 63.0579 43.0642 62.3395C42.9743 61.7574 43.0611 61.0764 43.5136 60.6592C43.8514 60.3642 44.4278 60.6763 44.444 61.1044C44.4874 61.3449 44.2178 61.4811 44.2008 61.7076C44.1667 61.9994 44.2124 62.3364 44.4394 62.545C44.6462 62.7069 44.9267 62.6415 45.1429 62.5341C45.71 62.2532 46.1849 61.8181 46.5955 61.341C47.2517 60.5954 48.0179 59.9261 48.4944 59.0404C48.5525 58.9431 48.6641 58.8979 48.7617 58.8536Z" fill="black"/>
<path d="M33.3621 59.807C33.6062 59.7183 33.9362 59.8054 34.0571 60.0522C34.2624 60.446 34.3639 60.8919 34.3925 61.3332C34.3763 61.9465 34.1508 62.5933 33.6519 62.9754C33.1738 63.3576 32.5138 63.4455 31.9327 63.2891C30.8915 63.0221 30.0113 62.3497 29.2312 61.6336C28.919 61.3301 28.5634 61.0561 28.3325 60.6818C28.0985 60.2747 28.5564 59.7268 28.9957 59.877C29.4032 59.9821 29.6046 60.3915 29.8944 60.66C30.5475 61.2717 31.2618 61.8718 32.131 62.1356C32.3836 62.1784 32.6989 62.2773 32.9143 62.0827C33.2017 61.7932 33.3195 61.3285 33.1777 60.941C33.1157 60.7557 33.0235 60.5814 32.9871 60.3899C32.9515 60.1339 33.1591 59.9245 33.3621 59.807Z" fill="black"/>
<path d="M41.2498 60.425C41.5558 60.3144 41.9649 60.453 42.0733 60.7799C42.1144 60.9293 42.1198 61.1184 42.0121 61.2437C41.5914 61.6951 41.3853 62.3131 40.9135 62.7225C40.4626 63.1194 39.9459 63.4471 39.3919 63.6774C38.7628 63.8603 38.0702 63.8891 37.4497 63.6533C37.0104 63.4844 36.4975 63.3591 36.2093 62.9536C35.9497 62.5653 36.3867 62.0049 36.8229 62.1014C37.0801 62.1831 37.2823 62.3792 37.5333 62.4773C38.0935 62.7341 38.7745 62.7334 39.3191 62.4353C39.8397 62.1566 40.2821 61.7395 40.6153 61.2523C40.8027 60.9612 40.8949 60.5619 41.2498 60.425Z" fill="black"/>
<path d="M37.3885 0.716028C37.5969 0.623411 37.8177 0.561926 38.0454 0.54169C37.8355 0.631194 37.6139 0.684118 37.3885 0.716028Z" fill="#403201"/>
<path d="M35.6592 2.66176C37.6968 1.64998 39.9776 1.17989 42.2445 1.16666C43.9304 1.16277 45.6085 1.48187 47.1975 2.03912C47.4841 2.14264 47.7258 2.33954 48.0148 2.43994C49.4504 3.00576 50.6327 4.03622 51.7212 5.10792C52.458 6.03565 53.2467 6.94313 53.7758 8.01328C54.5513 9.29202 55.0882 10.7015 55.4903 12.139C55.6685 12.7889 55.9064 13.4263 55.9854 14.0987C56.1946 15.123 56.3534 16.1589 56.4642 17.1979C56.4913 18.4696 56.6633 19.739 56.5804 21.0115C56.4843 22.8327 56.334 24.6555 55.9908 26.4487C55.832 27.174 55.7297 27.9118 55.5492 28.6325C55.1843 29.9222 54.8457 31.2227 54.3615 32.4742C54.2786 32.7816 54.0663 33.0252 53.9308 33.3077C53.3048 34.5585 52.9817 35.9586 52.9747 37.3572C53.0111 38.2343 53.1521 39.1045 53.2978 39.9691C53.6147 41.1576 54.0137 42.3227 54.3329 43.5104C54.377 43.8668 54.6141 44.1501 54.7551 44.4708C56.107 47.2921 56.5579 50.5663 55.8971 53.6367C55.409 55.9397 54.3143 58.0916 52.8392 59.9136C52.6827 60.095 52.5618 60.3028 52.4076 60.4857C51.7475 61.1488 51.1285 61.857 50.3902 62.4361C49.6457 63.0237 48.8887 63.6066 48.0512 64.0557C47.4919 64.4277 46.8628 64.6705 46.2763 64.9935C45.4977 65.3375 44.6889 65.6076 43.8754 65.8535C43.23 65.9843 42.5885 66.1314 41.9439 66.2668C40.3596 66.4162 38.7466 66.5361 37.1692 66.2536L37.1173 66.217C36.9995 66.1189 36.8376 66.1501 36.6966 66.1469C35.5322 66.0193 34.3933 65.6543 33.3311 65.1609C32.6834 64.8947 32.0148 64.6534 31.44 64.2432C30.7288 63.809 30.0113 63.3723 29.383 62.8198C28.7299 62.2563 28.1055 61.6593 27.488 61.0569C26.5847 59.9689 25.7549 58.817 25.0367 57.5974C24.6912 56.9833 24.4758 56.3078 24.1574 55.6805C23.904 55.2151 23.8088 54.6874 23.6143 54.1978C23.4206 53.6881 23.3191 53.1495 23.2277 52.614C23.0557 51.9517 22.9627 51.2723 22.8891 50.5936C22.8767 50.0737 22.7241 49.5623 22.7838 49.0409C22.8357 48.5988 22.7133 48.156 22.7869 47.7139C22.9155 46.7006 22.9689 45.6717 23.2308 44.6809C23.3842 43.2302 24.0172 41.8985 24.4812 40.5334C25.053 38.8725 25.4845 37.1688 25.9563 35.4784C26.1338 34.6425 26.1934 33.7872 26.291 32.9404C26.4158 32.0835 26.4661 31.2079 26.3677 30.3479C26.2616 29.6397 26.1911 28.9267 26.1493 28.213C25.9997 27.3453 25.8688 26.4736 25.7549 25.6003C25.6255 24.9318 25.5635 24.2523 25.4892 23.576C25.4512 22.4381 25.366 21.3003 25.3993 20.1608C25.414 19.5328 25.5085 18.9117 25.5783 18.2883C25.7138 17.1286 25.8928 15.969 26.236 14.8506C26.5436 13.5835 27.0743 12.3896 27.5879 11.1965C27.7537 10.742 28.0481 10.3513 28.2325 9.90453C28.7656 8.91377 29.4458 8.01484 30.1214 7.11903C31.0828 5.88232 32.3015 4.883 33.5256 3.92181C34.1756 3.40424 34.9449 3.07581 35.6592 2.66176ZM41.5697 2.89602C41.2637 3.0797 41.0708 3.40035 40.8671 3.68521C40.5757 4.0728 41.0112 4.66974 41.4652 4.5639C41.765 4.49541 41.9199 4.20121 42.1004 3.98018C42.2414 3.78794 42.4715 3.6136 42.4421 3.34743C42.4382 2.92404 41.9075 2.73336 41.5697 2.89602ZM43.5996 3.09137C43.4012 3.20111 43.2308 3.41903 43.2796 3.65874C43.3826 4.27126 43.7871 4.80672 43.7816 5.44337C43.7948 6.09947 43.8204 6.83651 43.3935 7.38209C43.0433 7.84751 42.4049 7.97437 41.8587 7.88097C40.9608 7.72687 40.1744 7.16028 39.6166 6.45203C39.3462 6.12437 38.7737 6.23878 38.6265 6.62948C38.4855 6.92368 38.68 7.22643 38.8791 7.43423C39.5941 8.20396 40.5355 8.7729 41.5573 9.0165C42.4506 9.23209 43.4322 8.93789 44.1062 8.32304C44.5866 7.82416 44.874 7.14315 44.9205 6.45281C45.0011 5.61537 44.9693 4.72578 44.5889 3.95917C44.4464 3.66497 44.4208 3.27427 44.1163 3.09059C43.9521 3.03845 43.7615 3.02911 43.5996 3.09137ZM37.3118 4.00275C37.108 4.11171 37.0142 4.33897 36.9306 4.5421C36.7129 5.09002 36.3999 5.59513 36.0528 6.06911C35.6368 6.55554 35.2362 7.08634 34.6738 7.41089C34.4468 7.53386 34.1523 7.66072 33.9075 7.5144C33.6255 7.3245 33.5891 6.95948 33.5093 6.65828C33.3939 6.39055 33.06 6.27069 32.7896 6.33684C32.5602 6.43102 32.4208 6.67851 32.4231 6.92212C32.4169 7.37275 32.6253 7.79847 32.8864 8.15415C33.2358 8.62346 33.8711 8.78613 34.4282 8.70051C35.1587 8.60634 35.763 8.12691 36.2682 7.62025C36.9484 6.95247 37.4256 6.11737 37.8882 5.2916C38.0315 5.00441 38.2205 4.69621 38.164 4.36232C38.0788 4.00041 37.624 3.88912 37.3118 4.00275ZM48.3147 3.98096C48.1458 4.11015 47.9513 4.27749 47.9745 4.51486C47.9745 4.80595 48.2403 4.9795 48.4518 5.12738C48.8492 5.39122 49.0522 5.85742 49.1669 6.30571C49.2521 6.66373 49.2691 7.11358 48.9631 7.37431C48.5626 7.70664 47.9784 7.65293 47.5353 7.43735C47.2811 7.30504 46.948 7.36575 46.7574 7.579C46.5436 7.88097 46.6544 8.37986 47.01 8.51995C47.6399 8.79313 48.3619 8.82815 49.0266 8.67094C49.4287 8.52462 49.7867 8.24833 50.033 7.89576C50.3305 7.45369 50.3631 6.89721 50.3491 6.37965C50.3569 5.99673 50.1547 5.65895 50.0377 5.30639C49.8084 4.79661 49.3993 4.39112 48.9569 4.06346C48.7795 3.9257 48.5145 3.86188 48.3147 3.98096ZM50.1872 9.63213C49.9447 9.77066 49.7138 10.1046 49.8703 10.3863C50.0144 10.6494 50.2693 10.8214 50.4932 11.0105C51.1208 11.5133 51.5283 12.2254 51.9118 12.9189C52.1969 13.41 52.262 14.024 52.0931 14.5657C52.004 14.8825 51.6546 15.0093 51.5159 15.2934C51.3501 15.6981 51.7863 16.1939 52.2062 16.0725C52.7299 15.8483 53.0909 15.3354 53.235 14.793C53.4404 14.0404 53.2862 13.2403 53.0212 12.5243C52.6331 11.7833 52.1922 11.0533 51.5833 10.4719C51.278 10.1785 51.0263 9.81114 50.6397 9.61812C50.4971 9.54263 50.3329 9.59788 50.1872 9.63213ZM39.113 10.2594C38.7117 10.3108 38.3491 10.4976 37.978 10.6462C37.5132 10.8906 37.1498 11.3008 36.8887 11.753C36.771 11.9631 36.6486 12.2013 36.7005 12.4503C36.7888 12.848 37.3544 13.0294 37.6519 12.7507C37.827 12.5678 37.8502 12.2923 38.0113 12.0993C38.3863 11.6604 38.9503 11.4004 39.526 11.3926C40.3007 11.3771 41.1212 11.4782 41.7812 11.9187C42.1229 12.1662 42.7009 11.9623 42.759 11.5288C42.8163 11.2113 42.5482 10.9638 42.2872 10.8455C41.2994 10.4011 40.2054 10.0501 39.113 10.2594ZM52.8051 18.3303C52.6517 18.4548 52.4696 18.6105 52.4851 18.8307C52.506 19.121 52.6377 19.3919 52.6493 19.6845C52.6726 20.1787 52.7245 20.6722 52.7105 21.168C52.6765 22.228 52.4704 23.2802 52.1241 24.2819C51.9707 24.7162 51.8273 25.1621 51.5577 25.5404C51.44 25.7256 51.2695 25.8735 51.1704 26.0712C51.0255 26.4782 51.44 26.9437 51.8583 26.8495C52.1829 26.8051 52.2782 26.4432 52.4843 26.2385C52.8911 25.6136 53.1661 24.91 53.397 24.2025C53.7317 23.1775 53.8068 22.0918 53.8463 21.0209C53.8889 20.2379 53.8053 19.4479 53.6247 18.686C53.5542 18.3272 53.1095 18.1622 52.8051 18.3303ZM29.0166 22.6763C28.7106 22.8631 28.5564 23.3658 28.8756 23.6165C29.1839 23.9215 29.7967 23.8017 29.8742 23.3448C29.9827 22.8732 29.4388 22.4879 29.0166 22.6763ZM27.2285 23.5192C27.0844 23.625 26.9093 23.734 26.8659 23.9208C26.7799 24.3037 27.1502 24.6913 27.5306 24.6563C27.8754 24.6018 28.1357 24.2142 28.0133 23.8749C27.9257 23.5565 27.5198 23.3651 27.2285 23.5192ZM45.1382 23.7005C44.8988 23.8149 44.6385 24.0609 44.6819 24.3543C44.7353 24.6586 45.0328 24.9209 45.3474 24.8882C45.7565 24.8096 46.0292 24.2772 45.7944 23.9114C45.6604 23.692 45.3706 23.6437 45.1382 23.7005ZM29.2428 24.9185C29.0452 25.0641 28.8229 25.2657 28.8554 25.5381C28.9112 25.8478 29.2219 26.1272 29.5442 26.0782C29.8672 25.9794 30.1694 25.6509 30.0733 25.2906C29.9997 24.9294 29.5535 24.7932 29.2428 24.9185ZM47.058 25.3917C46.7249 25.5482 46.6025 26.0463 46.8899 26.3078C47.1921 26.6713 47.8715 26.5592 47.9745 26.0751C48.0908 25.5793 47.4926 25.1684 47.058 25.3917ZM45.1173 25.8494C44.6695 25.9109 44.5773 26.5125 44.8322 26.8176C45.0925 27.1336 45.6666 27.0184 45.8331 26.6604C46.0199 26.2393 45.5597 25.7069 45.1173 25.8494ZM50.7024 29.6708C50.2569 29.9222 50.4119 30.4841 50.2871 30.8997C49.9246 32.4765 49.3179 34.0541 48.2062 35.2558C47.8638 35.6154 47.471 35.9796 46.9705 36.0823C46.642 36.1516 46.3088 35.9936 46.1043 35.7391C45.7045 35.2511 45.5163 34.6238 45.4132 34.0098C45.3311 33.5467 45.4008 33.0758 45.3644 32.6104C45.2994 32.145 44.5657 31.9543 44.3147 32.3691C44.1667 32.6571 44.224 32.9933 44.2232 33.3046C44.2163 34.5297 44.5757 35.8177 45.4388 36.7151C45.9191 37.2311 46.6923 37.3307 47.3462 37.1541C48.2108 36.9494 48.9042 36.3322 49.4404 35.6473C50.3096 34.5297 50.8426 33.1918 51.244 31.843C51.3966 31.3581 51.4283 30.8468 51.5438 30.3526C51.6933 29.8856 51.1316 29.435 50.7024 29.6708ZM28.7795 30.3713C28.6447 30.4592 28.5068 30.5759 28.4681 30.7409C28.372 31.1488 28.4378 31.5706 28.4185 31.9854C28.3852 32.7373 28.42 33.4899 28.4324 34.2417C28.4324 34.6923 28.585 35.1227 28.6238 35.5695C28.6571 35.9415 28.8012 36.2894 28.9492 36.6287C29.2072 37.312 29.7301 37.8701 30.3367 38.26C30.7319 38.5044 31.2966 38.116 31.2223 37.6576C31.1781 37.3385 30.8287 37.242 30.6164 37.0583C30.2717 36.7431 30.0392 36.3182 29.9075 35.8722C29.6565 35.2332 29.6457 34.5382 29.5728 33.8642C29.5511 33.212 29.531 32.5582 29.5519 31.906C29.5604 31.5138 29.6503 31.1239 29.6147 30.7316C29.5419 30.3697 29.0855 30.2592 28.7795 30.3713ZM28.4882 40.6665C27.8173 41.3319 27.4144 42.2192 27.158 43.1189C27.082 43.4068 27.0224 43.7415 27.1866 44.0108C27.4229 44.4054 28.1442 44.2762 28.2217 43.8193C28.2775 43.0737 28.6036 42.3632 29.077 41.7927C29.311 41.5133 29.5465 41.2004 29.8998 41.0728C30.0857 40.9856 30.3243 40.9412 30.4266 40.742C30.5358 40.5334 30.4359 40.2991 30.3925 40.0882C30.1841 39.9598 29.9509 39.8057 29.6945 39.8866C29.2382 40.0438 28.8314 40.3287 28.4882 40.6665ZM50.4847 40.1053C50.315 40.2283 50.1221 40.3964 50.1407 40.6291C50.2043 41.0276 50.4344 41.3716 50.5823 41.7405C50.7295 42.1125 50.6815 42.5297 50.8209 42.9033C50.9271 43.206 51.3036 43.3282 51.5895 43.2325C51.8266 43.122 52.0086 42.8348 51.9203 42.571C51.8359 42.2542 51.8289 41.9226 51.7437 41.6067C51.6282 41.1576 51.4105 40.7459 51.2192 40.3271C51.0983 40.0501 50.738 39.9808 50.4847 40.1053ZM45.1537 41.1451C45.0003 41.2681 44.826 41.416 44.8089 41.6269C44.7779 41.8604 44.9383 42.0511 45.0569 42.234C45.3164 42.5982 45.4512 43.0294 45.6395 43.431C45.8293 43.8225 45.8974 44.2575 46.0578 44.6599C46.2019 45.0101 46.7272 45.13 46.9922 44.8475C47.1812 44.6863 47.1525 44.4085 47.1006 44.1921C46.9643 43.6279 46.7969 43.0636 46.5227 42.5499C46.2926 42.0946 46.0865 41.616 45.7425 41.2339C45.5938 41.0751 45.3435 41.0696 45.1537 41.1451ZM34.7597 41.3599C34.5304 41.4961 34.401 41.739 34.3701 42.0005C34.1833 43.115 34.109 44.2466 34.1415 45.3767C34.1152 45.8904 34.243 46.3924 34.3096 46.8983C34.47 47.4711 34.6939 48.0252 34.9426 48.5654C35.0433 48.7903 35.2471 48.9919 35.5081 48.9903C35.9304 49.023 36.2534 48.4813 36.028 48.1225C35.7607 47.6532 35.5732 47.1419 35.4578 46.615C35.1688 45.2841 35.2254 43.9018 35.4346 42.5647C35.4632 42.3025 35.5949 42.0612 35.6081 41.7981C35.588 41.4012 35.0844 41.1996 34.7597 41.3599ZM31.6383 41.9748C31.4338 42.0775 31.2517 42.3289 31.3114 42.5678C31.4307 43.3835 31.45 44.2381 31.1231 45.0117C30.9658 45.4125 30.735 45.8195 30.3437 46.0297C29.782 46.3348 29.0522 46.1993 28.5765 45.7931C28.3673 45.6133 28.2953 45.2919 28.0241 45.1852C27.5748 45.0148 27.0828 45.5705 27.2796 46.0009C27.495 46.4375 27.8746 46.7784 28.3023 47.0002C29.0166 47.3668 29.8889 47.4999 30.6521 47.2072C31.3083 46.952 31.7537 46.3511 32.0629 45.7409C32.4107 45.0023 32.6277 44.1727 32.5293 43.3516C32.4967 42.9562 32.5448 42.5266 32.3433 42.1686C32.2062 41.9226 31.8808 41.8892 31.6383 41.9748ZM40.7811 42.5126C40.5401 42.6317 40.4347 42.9399 40.4758 43.1936C40.561 43.3998 40.7741 43.5236 40.8562 43.7345C41.0507 44.1898 41.2901 44.6334 41.373 45.1276C41.4388 45.5487 41.5845 45.9534 41.6147 46.3807C41.6581 46.8305 41.782 47.289 41.6681 47.738C41.5651 48.1357 41.2257 48.4362 40.8446 48.5599C40.348 48.7265 39.7963 48.7101 39.3005 48.5475C39.0727 48.4681 38.9217 48.2455 38.6846 48.1887C38.2337 48.1443 37.8796 48.7195 38.133 49.1039C38.4049 49.5172 38.9232 49.6589 39.3764 49.7702C40.0946 49.8768 40.8794 49.9211 41.5426 49.5701C42.4072 49.1257 42.9046 48.1264 42.869 47.1691C42.752 45.5954 42.3902 44.003 41.5535 42.6496C41.3784 42.4192 41.0282 42.42 40.7811 42.5126ZM45.7425 46.9512C45.5697 47.0407 45.4853 47.2314 45.4349 47.4104C45.2188 48.2696 45.0561 49.1537 45.1057 50.0441C45.139 50.9967 45.2777 52.007 45.8618 52.7907C46.2848 53.3869 47.0061 53.7783 47.7421 53.734C48.7919 53.66 49.813 53.1464 50.4816 52.3268C50.6985 52.0684 50.8171 51.6692 50.6257 51.3641C50.4646 51.1065 50.0935 51.0528 49.8479 51.2178C49.6077 51.3485 49.5744 51.6575 49.3737 51.8264C48.9817 52.172 48.4967 52.4023 47.9893 52.5136C47.6251 52.6008 47.1781 52.5798 46.9062 52.2895C46.5459 51.891 46.4258 51.3431 46.3383 50.8278C46.1934 49.7048 46.3112 48.5552 46.6242 47.4703C46.6234 47.0508 46.1113 46.7761 45.7425 46.9512ZM25.9052 49.6768C25.7464 49.7771 25.5465 49.904 25.5434 50.1157C25.5062 50.5578 25.483 51.0037 25.5256 51.4466C25.5829 52.0179 25.5837 52.6008 25.7402 53.1573C25.8262 53.4413 26.054 53.7137 26.3654 53.7394C26.7597 53.7994 27.0968 53.3129 26.917 52.9604C26.6838 52.4319 26.7071 51.8435 26.6459 51.28C26.6009 50.8668 26.7334 50.4566 26.6846 50.0449C26.6002 49.718 26.2012 49.5919 25.9052 49.6768ZM53.1258 50.0745C53.053 50.3936 53.1886 50.7088 53.2753 51.0107C53.5248 51.7789 53.476 52.6016 53.4117 53.3954C53.3799 53.9737 53.0933 54.5372 52.6393 54.8952C52.3913 55.096 52.035 55.0119 51.77 55.1723C51.4066 55.419 51.5058 56.0836 51.9281 56.2082C52.52 56.3078 53.1243 56.0541 53.5519 55.6486C54.0911 55.1357 54.3871 54.4197 54.5521 53.7052C54.6404 52.8794 54.6699 52.0334 54.4924 51.217C54.4041 50.8138 54.3863 50.3873 54.205 50.0114C54.1221 49.813 53.8967 49.7686 53.7224 49.6876C53.5031 49.7655 53.1971 49.8098 53.1258 50.0745ZM31.0201 50.764C30.8442 50.873 30.6567 51.0621 30.6838 51.2878C31.0092 52.4039 31.1231 53.5931 30.9496 54.7473C30.8434 55.2781 30.7063 55.8727 30.2523 56.2167C29.7983 56.4837 29.2459 56.3241 28.7873 56.1506C28.3534 55.9599 27.8824 55.7132 27.6794 55.2571C27.5229 54.9341 27.0503 54.8049 26.7768 55.0563C26.4762 55.3124 26.5637 55.7902 26.783 56.072C27.3346 56.788 28.1613 57.2721 29.0383 57.4612C29.5488 57.5834 30.1035 57.5694 30.5769 57.325C31.3757 56.9444 31.8428 56.1015 32.0327 55.2649C32.3333 53.871 32.2333 52.4039 31.8142 51.0465C31.7111 50.7204 31.3036 50.6216 31.0201 50.764ZM34.281 52.5541C34.095 52.6724 33.8727 52.8312 33.906 53.0857C33.9447 53.5869 34.1709 54.05 34.2352 54.5489C34.2988 54.8656 34.3592 55.2984 34.728 55.3941C35.0495 55.5202 35.4183 55.2851 35.4764 54.9543C35.4989 54.5769 35.3369 54.2235 35.2641 53.8593C35.1688 53.4787 35.1378 53.0647 34.9178 52.73C34.7869 52.5253 34.4948 52.4374 34.281 52.5541ZM42.8117 53.969C42.6908 54.0469 42.5769 54.1457 42.5018 54.2702C42.4088 54.6781 42.3305 55.0905 42.2081 55.4914C41.8944 56.4518 41.1769 57.2635 40.2837 57.7212C39.5678 58.0473 38.7636 58.1103 37.9873 58.0831C37.5147 58.0527 37.0235 58.0177 36.5967 57.7943C36.4192 57.7118 36.2449 57.6099 36.0481 57.585C35.653 57.5647 35.3276 58.0224 35.481 58.3905C35.612 58.7096 35.9621 58.8419 36.2643 58.9423C37.0437 59.1758 37.8634 59.2373 38.6738 59.2388C39.3486 59.2054 40.0381 59.1159 40.647 58.8007C41.2312 58.5827 41.727 58.1889 42.1702 57.7578C42.4452 57.4752 42.6451 57.1312 42.876 56.8137C43.3168 56.114 43.4624 55.282 43.6321 54.4858C43.66 54.0655 43.1626 53.8391 42.8117 53.969ZM48.7617 58.8536C48.6641 58.8979 48.5525 58.9431 48.4944 59.0404C48.0179 59.9261 47.2517 60.5954 46.5955 61.341C46.1849 61.8181 45.71 62.2532 45.1429 62.5341C44.9267 62.6415 44.6462 62.7069 44.4394 62.545C44.2124 62.3364 44.1667 61.9994 44.2008 61.7076C44.2178 61.4811 44.4874 61.3449 44.444 61.1044C44.4278 60.6763 43.8514 60.3642 43.5136 60.6592C43.0611 61.0764 42.9743 61.7574 43.0642 62.3395C43.2137 63.0579 43.7979 63.7428 44.5641 63.7887C45.194 63.8852 45.7867 63.57 46.2825 63.2151C47.3857 62.3816 48.2349 61.2748 49.1188 60.2234C49.3055 59.9735 49.5434 59.712 49.5364 59.3805C49.524 59.0077 49.1018 58.7555 48.7617 58.8536ZM33.3621 59.807C33.1591 59.9245 32.9515 60.1339 32.9871 60.3899C33.0235 60.5814 33.1157 60.7557 33.1777 60.941C33.3195 61.3285 33.2017 61.7932 32.9143 62.0827C32.6989 62.2773 32.3836 62.1784 32.131 62.1356C31.2618 61.8718 30.5475 61.2717 29.8944 60.66C29.6046 60.3915 29.4032 59.9821 28.9957 59.877C28.5564 59.7268 28.0985 60.2747 28.3325 60.6818C28.5634 61.0561 28.919 61.3301 29.2312 61.6336C30.0113 62.3497 30.8915 63.0221 31.9327 63.2891C32.5138 63.4455 33.1738 63.3576 33.6519 62.9754C34.1508 62.5933 34.3763 61.9465 34.3925 61.3332C34.3639 60.8919 34.2624 60.446 34.0571 60.0522C33.9362 59.8054 33.6062 59.7183 33.3621 59.807ZM41.2498 60.425C40.8949 60.5619 40.8027 60.9612 40.6153 61.2523C40.2821 61.7395 39.8397 62.1566 39.3191 62.4353C38.7745 62.7334 38.0935 62.7341 37.5333 62.4773C37.2823 62.3792 37.0801 62.1831 36.8229 62.1014C36.3867 62.0049 35.9497 62.5653 36.2093 62.9536C36.4975 63.3591 37.0104 63.4844 37.4497 63.6533C38.0702 63.8891 38.7628 63.8603 39.3919 63.6774C39.9459 63.4471 40.4626 63.1194 40.9135 62.7225C41.3853 62.3131 41.5914 61.6951 42.0121 61.2437C42.1198 61.1184 42.1144 60.9293 42.0733 60.7799C41.9649 60.453 41.5558 60.3144 41.2498 60.425Z" fill="#FFCA05"/>
<path d="M54.0927 36.5742C53.9896 36.6863 53.9478 36.8832 54.1074 36.9688C54.1221 36.8365 54.1167 36.7042 54.0927 36.5742Z" fill="#3F3201"/>
<path d="M37.1173 66.217C36.9995 66.1189 36.8376 66.1501 36.6966 66.1469C36.7268 66.2925 37.0065 66.2878 37.1173 66.217Z" fill="#4F3E01"/>
<path d="M63.9833 30.2414H64.2625C65.5747 30.2647 66.9186 30.5283 68.0451 31.2326C68.9798 31.8095 69.7409 32.676 70.1632 33.6955C70.5476 34.6109 70.666 35.6246 70.5797 36.6099C70.4591 37.9874 69.9459 39.3116 69.1983 40.4666C68.8023 41.0746 68.3355 41.6356 67.8073 42.1325C67.5729 42.3527 67.3316 42.5736 67.0458 42.7254C66.5604 42.9909 65.985 43.0825 65.4413 42.9851C64.8871 42.8873 64.3665 42.5957 64.0003 42.1651C63.6008 41.7082 63.3808 41.0975 63.3974 40.4899C63.4043 39.7997 63.7203 39.1203 64.2408 38.6695C64.954 38.0608 65.4873 37.2125 65.64 36.2784C65.6659 36.033 65.6961 35.7473 65.5399 35.5377C65.3651 35.3839 65.1288 35.3276 64.9072 35.2779C64.3178 35.1669 63.7126 35.2061 63.1213 35.2803C61.6683 35.4771 60.2656 35.9368 58.9017 36.462C57.0105 37.2032 55.1879 38.1085 53.4078 39.0849C52.9603 39.3237 52.4386 39.4219 51.9359 39.3528C51.3674 39.281 50.826 39.0057 50.4388 38.5814C50.0544 38.1761 49.8305 37.6341 49.7752 37.0801V36.778C49.8123 35.9189 50.3197 35.0955 51.0824 34.6979C53.5953 33.3286 56.1845 32.0723 58.9102 31.1871C60.5518 30.6626 62.2534 30.2701 63.9833 30.2414ZM63.3297 31.436C61.7217 31.5594 60.1531 31.9834 58.6333 32.5083C56.3342 33.3127 54.1333 34.3741 51.9904 35.5283C51.8094 35.6312 51.6184 35.7182 51.4501 35.842C51.0874 36.115 50.8882 36.5878 50.9435 37.0393C50.9911 37.4901 51.29 37.9031 51.7019 38.0883C52.0534 38.2541 52.4788 38.2487 52.8265 38.0755C54.9419 36.9194 57.1126 35.8494 59.3855 35.0399C60.7556 34.5644 62.1672 34.1621 63.6194 34.0616C64.2876 34.022 64.9752 34.0441 65.6141 34.265C66.0179 34.4079 66.4108 34.6587 66.6076 35.0535C66.8741 35.5582 66.8548 36.1592 66.7414 36.7039C66.4947 37.8201 65.8485 38.8318 64.9818 39.5671C64.5692 39.9332 64.4412 40.5691 64.6662 41.0715C64.9083 41.6422 65.5805 41.9804 66.1803 41.8216C66.5786 41.7346 66.8605 41.4236 67.1471 41.1577C68.2133 40.092 68.9972 38.7277 69.3151 37.247C69.5317 36.2116 69.5 35.0993 69.0808 34.1179C68.6859 33.1846 67.9256 32.4283 67.018 31.9935C65.8763 31.4461 64.5761 31.3459 63.3297 31.436Z" fill="black"/>
<path d="M63.3297 31.436C64.5761 31.3459 65.8763 31.4461 67.018 31.9935C67.9256 32.4283 68.6859 33.1846 69.0808 34.1179C69.5 35.0993 69.5317 36.2116 69.3151 37.247C68.9972 38.7277 68.2133 40.092 67.1471 41.1577C66.8605 41.4236 66.5786 41.7346 66.1803 41.8216C65.5805 41.9804 64.9083 41.6422 64.6662 41.0715C64.4412 40.5691 64.5692 39.9332 64.9818 39.5671C65.8485 38.8318 66.4947 37.8201 66.7414 36.7039C66.8548 36.1592 66.8741 35.5582 66.6076 35.0535C66.4108 34.6587 66.0179 34.4079 65.6141 34.265C64.9752 34.0441 64.2876 34.022 63.6194 34.0616C62.1672 34.1621 60.7556 34.5644 59.3855 35.0399C57.1126 35.8494 54.9419 36.9194 52.8265 38.0755C52.4788 38.2487 52.0534 38.2541 51.7019 38.0883C51.29 37.9031 50.9911 37.4901 50.9435 37.0393C50.8882 36.5878 51.0874 36.115 51.4501 35.842C51.6184 35.7182 51.8094 35.6312 51.9904 35.5283C54.1333 34.3741 56.3342 33.3127 58.6333 32.5083C60.1531 31.9834 61.7217 31.5594 63.3297 31.436Z" fill="#FFCA05"/>
<path d="M60.0058 37.3605C60.6474 37.1126 61.3451 37.0356 62.0289 37.0747C63.0664 37.1374 64.077 37.4548 65.0033 37.9208C65.8457 38.3551 66.6284 38.9228 67.2526 39.6428C68.2059 40.7175 68.9074 42.0446 69.131 43.4755V45.0014C69.0287 45.6221 68.775 46.2203 68.3733 46.7056C67.883 47.3178 67.2723 47.8932 66.4968 48.097C66.3741 48.6751 66.0958 49.2064 65.758 49.6852C65.4101 50.1802 64.9991 50.626 64.5727 51.0529C64.976 51.7328 65.2481 52.4946 65.3312 53.2835C65.4728 54.5464 65.1099 55.8473 64.3718 56.8752C63.5213 58.0817 62.1713 58.9069 60.7213 59.1421H59.5063C58.5789 59.0415 57.6399 58.8149 56.8594 58.2801C56.0043 58.572 55.0503 58.5241 54.2106 58.2004C53.4537 57.9092 52.784 57.4204 52.2164 56.8442C51.7019 56.3319 51.267 55.7445 50.8807 55.13C50.0856 54.8156 49.3725 54.292 48.8399 53.6199C48.049 52.6323 47.6488 51.355 47.6615 50.0928C47.6688 48.9381 48.031 47.81 48.5782 46.8031C49.2424 45.583 50.1579 44.5157 51.1793 43.5837C51.9397 42.8985 52.7567 42.2701 53.6495 41.7685C54.7236 41.2028 55.8654 40.7542 57.0557 40.5098C57.3028 39.5357 57.9578 38.714 58.7386 38.108C59.1296 37.8102 59.5444 37.5353 60.0058 37.3605ZM60.3734 38.6211C59.9173 38.8296 59.5117 39.1362 59.1461 39.4773C58.8656 39.7561 58.6247 40.0767 58.455 40.4352C58.981 40.5098 59.5021 40.6656 59.9573 40.946C60.2294 41.1332 60.3164 41.5442 60.1317 41.8223C59.9677 42.11 59.5644 42.2198 59.2785 42.0551C58.9691 41.8849 58.6285 41.7689 58.2768 41.7372C58.0613 41.7117 57.8442 41.7245 57.6283 41.7248C57.1958 41.813 56.7636 41.9105 56.3422 42.0439C55.7311 42.2318 55.1423 42.4859 54.567 42.7639C53.9886 43.0454 53.4571 43.4144 52.9461 43.8042C52.3095 44.2929 51.7181 44.8394 51.172 45.4283C50.4793 46.1905 49.8643 47.0374 49.4475 47.9852C49.0881 48.8019 48.8918 49.7076 48.985 50.6021C49.0819 51.5874 49.5099 52.5576 50.2518 53.2228C50.0436 52.0425 50.1772 50.8217 50.5247 49.6817C50.6386 49.3781 51.003 49.201 51.3109 49.3C51.6399 49.3851 51.8531 49.7621 51.7573 50.09C51.638 50.5104 51.5422 50.9385 51.4925 51.3731C51.3709 52.3728 51.5306 53.4014 51.9212 54.3268C52.4223 55.1636 53.0427 55.9494 53.8377 56.5221C54.3749 56.9123 55.0219 57.1745 55.6918 57.1675C55.1354 56.4773 54.7344 55.6493 54.6035 54.7665C54.4735 53.937 54.5793 53.0905 54.7663 52.2788C54.8175 52.0769 54.9699 51.9052 55.1654 51.8349C55.4917 51.7015 55.8943 51.8902 56.0066 52.2243C56.1025 52.4671 55.9855 52.7169 55.9532 52.9598C55.8123 53.6996 55.7838 54.4857 56.0501 55.2015C56.3084 55.9131 56.789 56.5213 57.3351 57.0333C57.5248 57.135 57.6911 57.275 57.8831 57.3725C58.4415 57.6714 59.0761 57.7754 59.698 57.845C59.9166 57.8613 60.1363 57.9123 60.3557 57.8729C61.4709 57.7387 62.5338 57.1552 63.2165 56.2537C63.7287 55.5909 64.0304 54.763 64.0462 53.9223C64.0647 53.2452 63.8954 52.5692 63.589 51.9675C62.8355 52.5665 61.9604 53.0097 61.028 53.2448C60.8078 53.8395 60.8582 54.5016 61.0403 55.0998C61.1465 55.4405 60.9125 55.8307 60.5681 55.9073C60.2552 55.9896 59.9035 55.8005 59.8019 55.4919C59.5975 54.8334 59.5175 54.1269 59.6372 53.4439C59.2893 53.4339 58.9864 53.1118 59.0095 52.7603C59.0145 52.4161 59.3266 52.1241 59.6672 52.1319C60.9371 52.0626 62.1944 51.5491 63.1011 50.6446C63.7726 50.0305 64.4372 49.3859 64.9098 48.5989C65.0726 48.3097 65.2215 47.9972 65.2373 47.6596C65.233 47.1515 65.1111 46.6252 64.7886 46.2222C64.6227 45.9747 64.3306 45.7806 64.321 45.4554C64.2848 45.0598 64.6689 44.7021 65.0591 44.7709C65.3435 44.7968 65.5132 45.0474 65.681 45.2485C66.0416 45.675 66.314 46.1808 66.433 46.7304C66.8528 46.496 67.1791 46.129 67.4651 45.7481C67.7783 45.3061 67.8946 44.752 67.8876 44.2164C67.8742 43.431 67.6332 42.6649 67.2823 41.9685C66.879 41.1908 66.3352 40.4839 65.6718 39.9127C64.8213 39.2089 63.7988 38.7163 62.722 38.4827C61.9473 38.3226 61.1134 38.3087 60.3734 38.6211Z" fill="black"/>
<path d="M60.3734 38.6211C61.1134 38.3087 61.9473 38.3226 62.722 38.4827C63.7988 38.7163 64.8213 39.2089 65.6718 39.9127C66.3352 40.4839 66.879 41.1908 67.2823 41.9685C67.6332 42.6649 67.8742 43.431 67.8876 44.2164C67.8946 44.752 67.7783 45.3061 67.4651 45.7481C67.1791 46.129 66.8528 46.496 66.433 46.7304C66.314 46.1808 66.0416 45.675 65.681 45.2485C65.5132 45.0474 65.3435 44.7968 65.0591 44.7709C64.6689 44.7021 64.2848 45.0598 64.321 45.4554C64.3306 45.7806 64.6227 45.9747 64.7886 46.2222C65.1111 46.6252 65.233 47.1515 65.2373 47.6596C65.2215 47.9972 65.0726 48.3097 64.9098 48.5989C64.4372 49.3859 63.7726 50.0305 63.1011 50.6446C62.1944 51.5491 60.9371 52.0626 59.6672 52.1319C59.3266 52.1241 59.0145 52.4161 59.0095 52.7603C58.9864 53.1118 59.2893 53.4339 59.6372 53.4439C59.5175 54.1269 59.5975 54.8334 59.8019 55.4919C59.9035 55.8005 60.2552 55.9896 60.5681 55.9073C60.9125 55.8307 61.1465 55.4405 61.0403 55.0998C60.8582 54.5016 60.8078 53.8395 61.028 53.2448C61.9604 53.0097 62.8355 52.5665 63.589 51.9675C63.8954 52.5692 64.0647 53.2452 64.0462 53.9223C64.0304 54.763 63.7287 55.5909 63.2165 56.2537C62.5338 57.1552 61.4709 57.7387 60.3557 57.8729C60.1363 57.9123 59.9166 57.8613 59.698 57.845C59.0761 57.7754 58.4415 57.6714 57.8831 57.3725C57.6911 57.275 57.5248 57.135 57.3351 57.0333C56.789 56.5213 56.3084 55.9131 56.0501 55.2015C55.7838 54.4857 55.8123 53.6996 55.9532 52.9598C55.9855 52.7169 56.1025 52.4671 56.0066 52.2243C55.8943 51.8902 55.4917 51.7015 55.1654 51.8349C54.9699 51.9052 54.8175 52.0769 54.7663 52.2788C54.5793 53.0905 54.4735 53.937 54.6035 54.7665C54.7344 55.6493 55.1354 56.4773 55.6918 57.1675C55.0219 57.1745 54.3749 56.9123 53.8377 56.5221C53.0427 55.9494 52.4223 55.1636 51.9212 54.3268C51.5306 53.4014 51.3709 52.3728 51.4925 51.3731C51.5422 50.9385 51.638 50.5104 51.7573 50.09C51.8531 49.7621 51.6399 49.3851 51.3109 49.3C51.003 49.201 50.6386 49.3781 50.5247 49.6817C50.1772 50.8217 50.0436 52.0425 50.2518 53.2228C49.5099 52.5576 49.0819 51.5874 48.985 50.6021C48.8918 49.7076 49.0881 48.8019 49.4475 47.9852C49.8643 47.0374 50.4793 46.1905 51.172 45.4283C51.7181 44.8394 52.3095 44.2929 52.9461 43.8042C53.4571 43.4144 53.9886 43.0454 54.567 42.7639C55.1423 42.4859 55.7311 42.2318 56.3422 42.0439C56.7636 41.9105 57.1958 41.813 57.6283 41.7248C57.8442 41.7245 58.0613 41.7117 58.2768 41.7372C58.6285 41.7689 58.9691 41.8849 59.2785 42.0551C59.5644 42.2198 59.9677 42.11 60.1317 41.8223C60.3164 41.5442 60.2294 41.1332 59.9573 40.946C59.5021 40.6656 58.981 40.5098 58.455 40.4352C58.6247 40.0767 58.8656 39.7561 59.1461 39.4773C59.5117 39.1362 59.9173 38.8296 60.3734 38.6211Z" fill="white"/>
<path d="M43.4161 10.9651C44.0927 10.4765 44.9653 10.3027 45.7839 10.43C46.4121 10.5198 47.0044 10.8117 47.4732 11.2377C47.998 11.7077 48.3731 12.321 48.6567 12.9604C48.9171 13.5592 49.0958 14.1913 49.2229 14.8311C49.5366 16.4728 49.5381 18.1628 49.346 19.8194C49.2501 20.6805 49.0504 21.525 48.8688 22.3705C49.1176 22.5974 49.3649 22.826 49.6009 23.066C49.6685 23.1328 49.7255 23.2092 49.7752 23.2903V23.7977C49.7022 23.962 49.5584 24.0929 49.3852 24.142C49.1771 24.2038 48.9378 24.1463 48.7846 23.9918C48.5216 23.7327 48.2704 23.4564 47.9617 23.2495C46.971 22.5309 45.8935 21.8627 44.6748 21.6297C43.772 21.4512 42.8271 21.5992 41.9897 21.9663C41.6142 22.1117 41.2801 22.3396 40.9449 22.5588C40.6112 22.7762 40.1126 22.5632 40.0356 22.1732C39.9768 21.9358 40.0741 21.6657 40.2774 21.5283C40.5313 21.3545 40.7917 21.1902 41.0611 21.0411C40.9249 19.6994 40.8741 18.346 40.9809 17.0002C41.0829 15.7319 41.2932 14.4592 41.7598 13.2702C42.1128 12.3853 42.6288 11.5267 43.4161 10.9651ZM44.1301 11.9738C43.5796 12.3588 43.2262 12.9575 42.9666 13.5642C42.5057 14.6766 42.3064 15.8784 42.2087 17.0726C42.1175 18.2348 42.144 19.4038 42.2523 20.5642C42.7222 20.4224 43.2102 20.3435 43.7001 20.3243C43.5926 19.7452 43.5353 19.1574 43.5189 18.5688C43.5225 18.4547 43.6511 18.4154 43.7433 18.3933C44.3215 18.2871 44.9257 18.3471 45.4919 18.1653C45.7675 18.0799 46.0482 17.9112 46.1459 17.6233C46.2647 17.3103 46.1096 16.9762 45.8954 16.7469C45.3681 16.1718 44.632 15.8606 44.032 15.3753C43.9082 15.2673 43.7546 15.1179 43.808 14.9369C44.0506 13.7794 44.4261 12.6329 45.0568 11.6259C44.7264 11.6685 44.4017 11.7775 44.1301 11.9738Z" fill="black"/>
<path d="M32.8093 10.5118C33.6946 10.3565 34.6501 10.5568 35.3706 11.1036C36.0602 11.6183 36.5141 12.3875 36.809 13.184C37.1061 13.9903 37.2517 14.8449 37.32 15.6992C37.3864 16.5746 37.3679 17.455 37.2876 18.3289C38.3321 18.6594 39.2236 19.5009 39.5283 20.5646C39.5678 20.73 39.4934 20.8921 39.3979 21.0226C39.3739 21.0361 39.3507 21.0502 39.3278 21.0651C39.1495 21.2098 38.8659 21.1989 38.6981 21.043C38.5957 20.9623 38.5514 20.8361 38.5086 20.718C38.2856 20.1193 37.795 19.6405 37.2139 19.3868C36.5555 19.0985 35.7886 19.0629 35.1088 19.2984C34.6025 19.4736 34.1519 19.8263 33.8926 20.2996C33.597 20.8299 33.5396 21.461 33.6071 22.0557C33.6798 22.7021 33.9539 23.3357 34.4202 23.7952C34.8211 24.2056 35.3651 24.4888 35.9407 24.5328C36.4608 24.5564 37.0033 24.4444 37.4311 24.1362C37.7946 23.8868 38.0503 23.5127 38.2373 23.1194C38.388 22.8053 38.8695 22.7682 39.0743 23.0467C39.1905 23.191 39.2221 23.3971 39.1459 23.5676C38.9897 23.9104 38.7842 24.2318 38.5318 24.5117C38.0953 25.0013 37.4983 25.3343 36.8595 25.4743H35.3775C34.5593 25.274 33.8268 24.7669 33.3319 24.0871C32.8311 23.4113 32.5874 22.5727 32.562 21.7377C32.2686 21.637 31.9657 21.5646 31.6585 21.5232C30.8142 21.4079 29.9546 21.5813 29.1724 21.9005C28.9305 22.019 28.6886 22.1375 28.457 22.2753C28.1784 22.4334 27.7909 22.3215 27.6359 22.0423C27.471 21.7718 27.5607 21.3778 27.8349 21.2153C28.1047 21.055 28.3814 20.9056 28.6687 20.779C28.6364 19.566 28.673 18.3489 28.8335 17.1449C28.9821 16.0213 29.2207 14.9042 29.6194 13.8412C29.9608 12.9495 30.422 12.08 31.1145 11.4111C31.58 10.9603 32.1672 10.6244 32.8093 10.5118ZM32.1219 12.1632C31.628 12.5613 31.2921 13.1171 31.0208 13.682C30.6507 14.4716 30.4143 15.3164 30.2393 16.1685C29.9648 17.5568 29.862 18.9763 29.8936 20.3904C30.3726 20.2872 30.865 20.2392 31.3552 20.2636C31.2906 19.6769 31.2764 19.0847 31.3051 18.4954C31.3069 18.434 31.3581 18.3889 31.4126 18.3704C31.559 18.3162 31.7177 18.3209 31.8713 18.3147C32.331 18.3126 32.7966 18.3445 33.2505 18.2529C33.4346 18.2126 33.6198 18.1519 33.7705 18.0348C33.9921 17.868 34.1072 17.5652 34.0346 17.2947C33.9554 16.9864 33.7342 16.7411 33.5098 16.5266C33.0602 16.0976 32.5202 15.7784 32.0645 15.3571C31.9635 15.251 31.84 15.1263 31.848 14.9689C31.9185 14.6861 32.0115 14.4087 32.1066 14.1332C32.4171 13.272 32.8042 12.4271 33.3555 11.6917C32.9055 11.7008 32.4679 11.879 32.1219 12.1632Z" fill="black"/>
<path d="M44.1301 11.9738C44.4017 11.7775 44.7264 11.6685 45.0568 11.6259C44.4261 12.6329 44.0506 13.7794 43.808 14.9369C43.7546 15.1179 43.9082 15.2673 44.032 15.3753C44.632 15.8606 45.3681 16.1718 45.8954 16.7469C46.1096 16.9762 46.2647 17.3103 46.1459 17.6233C46.0482 17.9112 45.7675 18.0799 45.4919 18.1653C44.9257 18.3471 44.3215 18.2871 43.7433 18.3933C43.6511 18.4154 43.5225 18.4547 43.5189 18.5688C43.5353 19.1574 43.5926 19.7452 43.7001 20.3243C43.2102 20.3435 42.7222 20.4224 42.2523 20.5642C42.144 19.4038 42.1175 18.2348 42.2087 17.0726C42.3064 15.8784 42.5057 14.6766 42.9666 13.5642C43.2262 12.9575 43.5796 12.3588 44.1301 11.9738Z" fill="white"/>
<path d="M32.1219 12.1632C32.4679 11.879 32.9055 11.7008 33.3555 11.6917C32.8042 12.4271 32.4171 13.272 32.1066 14.1332C32.0115 14.4087 31.9185 14.6861 31.848 14.9689C31.84 15.1263 31.9635 15.251 32.0645 15.3571C32.5202 15.7784 33.0602 16.0976 33.5098 16.5266C33.7342 16.7411 33.9554 16.9864 34.0346 17.2947C34.1072 17.5652 33.9921 17.868 33.7705 18.0348C33.6198 18.1519 33.4346 18.2126 33.2505 18.2529C32.7966 18.3445 32.331 18.3126 31.8713 18.3147C31.7177 18.3209 31.559 18.3162 31.4126 18.3704C31.3581 18.3889 31.3069 18.434 31.3051 18.4954C31.2764 19.0847 31.2906 19.6769 31.3552 20.2636C30.865 20.2392 30.3726 20.2872 29.8936 20.3904C29.862 18.9763 29.9648 17.5568 30.2393 16.1685C30.4143 15.3164 30.6507 14.4716 31.0208 13.682C31.2921 13.1171 31.628 12.5613 32.1219 12.1632Z" fill="white"/>
<path d="M35.1088 19.2984C35.7886 19.0629 36.5555 19.0985 37.2139 19.3868C37.795 19.6405 38.2856 20.1193 38.5086 20.718C38.5514 20.8361 38.5957 20.9623 38.6981 21.043C38.8659 21.1989 39.1495 21.2098 39.3278 21.0651C39.3405 21.0691 39.3659 21.0775 39.3787 21.0815C39.4974 21.7562 39.4102 22.468 39.111 23.0856L39.0743 23.0467C38.8695 22.7682 38.388 22.8053 38.2373 23.1194C38.0503 23.5127 37.7946 23.8868 37.4311 24.1362C37.0033 24.4444 36.4608 24.5564 35.9407 24.5328C35.3651 24.4888 34.8211 24.2056 34.4202 23.7952C33.9539 23.3357 33.6798 22.7021 33.6071 22.0557C33.5396 21.461 33.597 20.8299 33.8926 20.2996C34.1519 19.8263 34.6025 19.4736 35.1088 19.2984Z" fill="#FFCA05"/>
<path d="M32.8209 27.1809C32.9782 26.9874 33.2708 26.9255 33.4906 27.0433C33.7071 27.1496 33.8345 27.4112 33.7813 27.6494C33.6754 28.1474 33.3835 28.5885 33.006 28.9207C33.5487 29.3812 34.1339 29.7956 34.7714 30.1113C35.8061 30.6338 36.9817 30.8716 38.1356 30.7664C39.4414 30.6687 40.6866 30.161 41.7823 29.4529C41.2828 29.0014 40.9464 28.3315 40.9981 27.644C41.0145 27.3586 41.2814 27.1222 41.5633 27.1384C41.8605 27.1391 42.1199 27.4199 42.0967 27.7204C42.0806 28.1056 42.3036 28.4674 42.6058 28.6876C43.0425 29.0144 43.6787 28.9953 44.1179 28.6829C44.2981 28.5668 44.409 28.3477 44.6306 28.2995C44.921 28.2115 45.2425 28.4198 45.3085 28.7131V28.9675C45.2832 29.0479 45.2489 29.1268 45.1943 29.1913C44.6998 29.7762 43.922 30.0893 43.1645 30.0363C43.1474 30.7203 43.0621 31.4006 42.9483 32.0748C42.7168 33.3984 42.3489 34.7082 41.7474 35.9114C41.2475 36.8948 40.5714 37.8194 39.6487 38.4356C39.0126 38.8666 38.2655 39.1142 37.5037 39.1798H36.7948C35.9142 39.1271 35.054 38.7938 34.3718 38.2277C33.4342 37.4616 32.8255 36.3655 32.4123 35.2376C31.9895 34.0729 31.7519 32.847 31.6206 31.6161C31.5482 30.9217 31.5086 30.223 31.5193 29.5246C31.1211 29.5643 30.7194 29.5427 30.3237 29.4897C30.034 29.4616 29.8042 29.1654 29.8474 28.8742C29.8727 28.5895 30.1446 28.3564 30.4279 28.3849C30.8778 28.4321 31.3452 28.4789 31.7844 28.338C32.1433 28.2299 32.4694 27.9809 32.6286 27.6328C32.7006 27.4854 32.7099 27.3081 32.8209 27.1809ZM32.6086 30.0533C32.6011 30.1516 32.605 30.2507 32.6132 30.3491C32.6421 30.2947 32.6575 30.2349 32.6632 30.174C32.6717 30.1297 32.6899 30.0122 32.6086 30.0533ZM40.2749 31.4366C39.0372 31.8737 37.6917 32.0186 36.3948 31.806C35.4483 31.6507 34.5434 31.2911 33.7153 30.8085C33.7021 31.0428 33.6896 31.277 33.6754 31.5112C34.6548 31.8489 35.6698 32.0744 36.692 32.2334C38.3725 32.491 40.0854 32.5133 41.7738 32.3209C41.8904 31.7555 41.9754 31.1833 42.0264 30.6078C41.4698 30.9383 40.8857 31.224 40.2749 31.4366ZM32.8005 32.1865C32.9407 33.1238 33.147 34.0546 33.4791 34.9424C34.0382 34.5536 34.7097 34.3255 35.3908 34.3277C36.1294 34.3172 36.8519 34.5497 37.4984 34.8978C38.0382 34.4203 38.6776 34.0481 39.374 33.8632C40.0291 33.6924 40.7259 33.7238 41.3752 33.9061C41.4156 33.7594 41.4612 33.6146 41.5037 33.4686C38.7914 33.7288 36.0227 33.4477 33.4274 32.6038C33.1809 32.5342 32.9686 32.3786 32.8005 32.1865ZM38.3589 35.6213C38.2055 35.7532 38.0446 35.8833 37.9333 36.0559C37.6033 36.5669 37.3264 37.1103 37.0499 37.6519C36.9197 37.8868 36.606 37.9859 36.3641 37.8753C36.0869 37.765 35.9474 37.409 36.0762 37.1373C36.2992 36.6775 36.5432 36.2282 36.7983 35.786C36.3698 35.5817 35.9035 35.4394 35.4261 35.4404C34.8942 35.4372 34.3601 35.63 33.9576 35.9831C34.2298 36.4671 34.5581 36.9279 34.9802 37.2897C35.4668 37.7167 36.0837 37.9913 36.7259 38.0548C37.5901 38.1528 38.4888 37.9211 39.1881 37.3957C40.0105 36.786 40.5646 35.8833 40.9714 34.9536C40.7102 34.8844 40.4383 34.8552 40.1686 34.8668C39.4996 34.8895 38.8749 35.2077 38.3589 35.6213Z" fill="black"/>
<path d="M32.6086 30.0533C32.6899 30.0122 32.6717 30.1297 32.6632 30.174C32.6575 30.2349 32.6421 30.2947 32.6132 30.3491C32.605 30.2507 32.6011 30.1516 32.6086 30.0533Z" fill="#43161D"/>
<path d="M40.2749 31.4366C40.8857 31.224 41.4698 30.9383 42.0264 30.6078C41.9754 31.1833 41.8904 31.7555 41.7738 32.3209C40.0854 32.5133 38.3725 32.491 36.692 32.2334C35.6698 32.0744 34.6548 31.8489 33.6754 31.5112C33.6896 31.277 33.7021 31.0428 33.7153 30.8085C34.5434 31.2911 35.4483 31.6507 36.3948 31.806C37.6917 32.0186 39.0372 31.8737 40.2749 31.4366Z" fill="#FFF8F5"/>
<path d="M32.8005 32.1865C32.9686 32.3786 33.1809 32.5342 33.4274 32.6038C36.0227 33.4477 38.7914 33.7288 41.5037 33.4686C41.4612 33.6146 41.4156 33.7594 41.3752 33.9061C40.7259 33.7238 40.0291 33.6924 39.374 33.8632C38.6776 34.0481 38.0382 34.4203 37.4984 34.8978C36.8519 34.5497 36.1294 34.3172 35.3908 34.3277C34.7097 34.3255 34.0382 34.5536 33.4791 34.9424C33.147 34.0546 32.9407 33.1238 32.8005 32.1865Z" fill="#C34155"/>
<path d="M38.3589 35.6213C38.8749 35.2077 39.4996 34.8895 40.1686 34.8668C40.4383 34.8552 40.7102 34.8844 40.9714 34.9536C40.5646 35.8833 40.0105 36.786 39.1881 37.3957C38.4888 37.9211 37.5901 38.1528 36.7259 38.0548C36.0837 37.9913 35.4668 37.7167 34.9802 37.2897C34.5581 36.9279 34.2298 36.4671 33.9576 35.9831C34.3601 35.63 34.8942 35.4372 35.4261 35.4404C35.9035 35.4394 36.3698 35.5817 36.7983 35.786C36.5432 36.2282 36.2992 36.6775 36.0762 37.1373C35.9474 37.409 36.0869 37.765 36.3641 37.8753C36.606 37.9859 36.9197 37.8868 37.0499 37.6519C37.3264 37.1103 37.6033 36.5669 37.9333 36.0559C38.0446 35.8833 38.2055 35.7532 38.3589 35.6213Z" fill="#F7B5C4"/>
</g>
<defs>
<clipPath id="clip0_7489_54511">
<rect width="77.0153" height="60.6016" fill="white" transform="translate(0.49231)"/>
</clipPath>
</defs>
</svg>
