<svg width="110" height="20" viewBox="0 0 110 20" fill="none" xmlns="http://www.w3.org/2000/svg">
<g clip-path="url(#clip0_105_491)">
<path d="M22.2009 5.58362C18.2049 5.58362 15.0825 8.67117 15.0825 12.8045C15.0825 16.9379 18.126 19.999 22.2009 19.999C26.2758 19.999 29.3722 16.885 29.3722 12.7781C29.3722 8.6976 26.3287 5.58362 22.2009 5.58362ZM22.2279 17.0202C19.9523 17.0202 18.2847 15.2213 18.2847 12.8055C18.2847 10.3623 19.9253 8.56446 22.2009 8.56446C24.5035 8.56446 26.17 10.3898 26.17 12.8055C26.17 15.2213 24.5035 17.0202 22.2279 17.0202ZM30.2449 8.72504H32.2299V19.7317H35.4052V5.85192H30.2449V8.72504ZM7.09143 8.56344C8.75894 8.56344 10.082 9.61024 10.5842 11.1672H13.9452C13.3361 7.83881 10.6371 5.58362 7.11839 5.58362C3.12234 5.58362 0 8.67117 0 12.8055C0 16.9399 3.04346 20 7.11839 20C10.5583 20 13.3102 17.7448 13.9192 14.3889H10.5842C10.1079 15.9459 8.7849 17.0202 7.11739 17.0202C4.81482 17.0202 3.20123 15.2213 3.20123 12.8055C3.20223 10.3623 4.78986 8.56344 7.09143 8.56344ZM90.577 11.463L88.2484 11.1144C87.1371 10.9538 86.3433 10.5778 86.3433 9.69155C86.3433 8.72504 87.3757 8.24229 88.7776 8.24229C90.3124 8.24229 91.2919 8.91305 91.5036 10.0137H94.573C94.2285 7.22191 92.1117 5.58463 88.8575 5.58463C85.4965 5.58463 83.2738 7.32964 83.2738 9.79928C83.2738 12.1612 84.7297 13.5312 87.6663 13.9601L89.9948 14.3087C91.1331 14.4692 91.7682 14.9266 91.7682 15.7854C91.7682 16.886 90.6568 17.3423 89.1221 17.3423C87.2429 17.3423 86.1845 16.5639 86.0257 15.3829H82.9034C83.195 18.0944 85.2849 20 89.0952 20C92.562 20 94.8636 18.3891 94.8636 15.6238C94.8636 13.1541 93.1971 11.8654 90.577 11.463ZM33.8176 0.134153C32.6533 0.134153 31.7796 0.992937 31.7796 2.17389C31.7796 3.35485 32.6523 4.21363 33.8176 4.21363C34.9818 4.21363 35.8555 3.35485 35.8555 2.17389C35.8555 0.992937 34.9818 0.134153 33.8176 0.134153ZM80.4161 10.6042C80.4161 7.59795 78.6168 5.58463 74.8065 5.58463C71.2078 5.58463 69.1968 7.43737 68.7994 10.283H71.9487C72.1075 9.18238 72.9542 8.26973 74.7536 8.26973C76.3681 8.26973 77.162 8.99436 77.162 9.88058C77.162 11.0351 75.7061 11.3298 73.9068 11.5179C71.4724 11.7862 68.4559 12.645 68.4559 15.8667C68.4559 18.3637 70.2822 19.9736 73.1929 19.9736C75.4685 19.9736 76.8974 19.0071 77.6123 17.4765C77.7181 18.8455 78.7236 19.7317 80.1265 19.7317H81.9788V16.8596H80.4171V10.6042H80.4161ZM77.2938 14.0942C77.2938 15.9469 75.7061 17.3159 73.774 17.3159C72.5828 17.3159 71.5773 16.8057 71.5773 15.7325C71.5773 14.3635 73.1919 13.9875 74.6737 13.8269C76.1025 13.6928 76.8964 13.3706 77.2938 12.7527V14.0942ZM60.4379 5.58362C58.6645 5.58362 57.1827 6.33569 56.1243 7.59693V0H52.9491V19.7317H56.0714V17.9064C57.1298 19.2215 58.6386 20 60.4379 20C64.2482 20 67.1329 16.9399 67.1329 12.8055C67.1329 8.67117 64.1953 5.58362 60.4379 5.58362ZM59.9616 17.0202C57.686 17.0202 56.0185 15.2213 56.0185 12.8055C56.0185 10.3898 57.712 8.56446 59.9876 8.56446C62.2901 8.56446 63.9037 10.3633 63.9037 12.8055C63.9037 15.2213 62.2372 17.0202 59.9616 17.0202ZM45.3544 5.58362C43.2905 5.58362 41.9405 6.4424 41.1467 7.6508V5.85192H37.9974V19.7307H41.1726V12.1876C41.1726 10.0666 42.4956 8.56344 44.4537 8.56344C46.28 8.56344 47.4173 9.87855 47.4173 11.7852V19.7317H50.5926V11.5443C50.5936 8.05326 48.8212 5.58362 45.3544 5.58362ZM110 12.3492C110 8.37644 107.142 5.58463 103.305 5.58463C99.2301 5.58463 96.2395 8.69861 96.2395 12.8055C96.2395 17.1279 99.4417 20 103.358 20C106.666 20 109.259 18.0131 109.92 15.1949H106.612C106.136 16.4297 104.971 17.1279 103.41 17.1279C101.372 17.1279 99.8372 15.8392 99.4937 13.584H109.999V12.3492H110ZM99.6794 11.275C100.183 9.34194 101.612 8.40287 103.252 8.40287C105.051 8.40287 106.427 9.44967 106.745 11.275H99.6794Z" fill="#0052FF"/>
</g>
<defs>
<clipPath id="clip0_105_491">
<rect width="110" height="20" fill="white"/>
</clipPath>
</defs>
</svg>
