<svg width="110" height="110" viewBox="0 0 110 110" fill="none" xmlns="http://www.w3.org/2000/svg">
<mask id="mask0_105_490" style="mask-type:luminance" maskUnits="userSpaceOnUse" x="0" y="0" width="110" height="110">
<path d="M110 0H0V110H110V0Z" fill="white"/>
</mask>
<g mask="url(#mask0_105_490)">
<path d="M92.4923 93.5694L73.92 88.0392L59.9139 96.4118L50.1421 96.4077L36.1278 88.0392L17.5637 93.5694L11.9167 74.5064L17.5637 53.3492L11.9167 35.4614L17.5637 13.2916L46.5717 30.6224H63.4843L92.4923 13.2916L98.1392 35.4614L92.4923 53.3492L98.1392 74.5064L92.4923 93.5694Z" fill="#FF5C16"/>
<path d="M17.5679 13.2916L46.576 30.6346L45.4223 42.5368L17.5679 13.2916Z" fill="#FF5C16"/>
<path d="M36.1317 74.5146L48.895 84.2372L36.1317 88.0392V74.5146Z" fill="#FF5C16"/>
<path d="M47.875 58.4402L45.4219 42.5449L29.7197 53.3531L29.7115 53.3491V53.3572L29.7601 64.4828L36.1276 58.4402H36.1317H47.875Z" fill="#FF5C16"/>
<path d="M92.4922 13.2916L63.4843 30.6346L64.6339 42.5368L92.4922 13.2916Z" fill="#FF5C16"/>
<path d="M73.9281 74.5146L61.1648 84.2372L73.9281 88.0392V74.5146Z" fill="#FF5C16"/>
<path d="M80.3446 53.3572V53.3491L80.3406 53.3531L64.6384 42.5449L62.1853 58.4402H73.9286L80.3002 64.4828L80.3446 53.3572Z" fill="#FF5C16"/>
<path d="M36.1278 88.0389L17.5637 93.5692L11.9167 74.5143H36.1278V88.0389Z" fill="#E34807"/>
<path d="M47.8712 58.4361L51.4173 81.4151L46.5029 68.6386L29.7523 64.4828L36.1239 58.4361H47.8672H47.8712Z" fill="#E34807"/>
<path d="M73.9279 88.0389L92.492 93.5692L98.1389 74.5143H73.9279V88.0389Z" fill="#E34807"/>
<path d="M62.1848 58.4361L58.6387 81.4151L63.553 68.6386L80.3036 64.4828L73.928 58.4361H62.1848Z" fill="#E34807"/>
<path d="M11.9167 74.5062L17.5637 53.349H29.7077L29.7522 64.4786L46.5029 68.6344L51.4172 81.4109L48.8912 84.2248L36.1279 74.5021H11.9167V74.5062Z" fill="#FF8D5D"/>
<path d="M98.1392 74.5062L92.4921 53.349H80.3482L80.3036 64.4786L63.553 68.6344L58.6387 81.4109L61.1647 84.2248L73.928 74.5021H98.1392V74.5062Z" fill="#FF8D5D"/>
<path d="M63.4845 30.6224H55.0282H46.5719L45.4222 42.5247L51.4174 81.3989H58.639L64.6382 42.5247L63.4845 30.6224Z" fill="#FF8D5D"/>
<path d="M17.5637 13.2916L11.9167 35.4614L17.5637 53.3492H29.7077L45.4181 42.5368L17.5637 13.2916Z" fill="#661800"/>
<path d="M44.3615 63.0514H38.8602L35.8647 65.9872L46.5069 68.6264L44.3615 63.0473V63.0514Z" fill="#661800"/>
<path d="M92.4923 13.2916L98.1393 35.4614L92.4923 53.3493H80.3483L64.6379 42.5368L92.4923 13.2916Z" fill="#661800"/>
<path d="M65.7025 63.0514H71.2118L74.2074 65.9913L63.553 68.6344L65.7025 63.0473V63.0514Z" fill="#661800"/>
<path d="M59.9097 88.8282L61.1645 84.2333L58.6386 81.4193H51.4129L48.887 84.2333L50.1419 88.8282" fill="#661800"/>
<path d="M59.9095 88.8279V96.4158H50.1417V88.8279H59.9095Z" fill="#C0C4CD"/>
<path d="M36.1317 88.0312L50.1499 96.4119V88.8241L48.895 84.2292L36.1317 88.0312Z" fill="#E7EBF6"/>
<path d="M73.9281 88.0312L59.9099 96.4119V88.8241L61.1648 84.2292L73.9281 88.0312Z" fill="#E7EBF6"/>
</g>
</svg>
