<?xml version="1.0" encoding="utf-8"?>
<!-- Generator: Adobe Illustrator 26.5.0, SVG Export Plug-In . SVG Version: 6.00 Build 0)  -->
<svg version="1.1" id="Layer_1" xmlns="http://www.w3.org/2000/svg" xmlns:xlink="http://www.w3.org/1999/xlink" x="0px" y="0px"
	 viewBox="0 0 400 400" style="enable-background:new 0 0 400 400;" xml:space="preserve">
<style type="text/css">
	.st0{fill-opacity:0;stroke:#000000;stroke-width:26;stroke-linecap:round;stroke-linejoin:round;}
	.st1{fill-opacity:0;stroke:#90A8ED;stroke-width:20;stroke-linecap:round;stroke-linejoin:round;}
	.st2{fill:#F1F333;stroke:#000000;stroke-width:2;stroke-miterlimit:10;}
	.st3{fill:#FFC900;stroke:#000000;stroke-miterlimit:10;}
	.st4{fill-opacity:0;stroke:#000000;stroke-width:3;stroke-linecap:round;stroke-linejoin:round;}
</style>
<g>
	<g transform="matrix(1,0,0,1,0,0)">
		<g transform="matrix(1,0,0,1,329.2156066894531,273.2033996582031)">
			
				<g transform="matrix(-0.17166933417320251,-0.7292032241821289,1.234702467918396,-0.5804815292358398,-12.354924201965332,-52.480255126953125)">
			</g>
			<g transform="matrix(1,0,0,1,0,0)">
				<g transform="matrix(1,0,0,1,0,0)">
				</g>
			</g>
			<g transform="matrix(1,0,0,1,0,0)">
				<g transform="matrix(1,0,0,1,-200,-200)">
				</g>
			</g>
			<g transform="matrix(1,0,0,1,-135,0)">
				<g transform="matrix(1,0,0,1,0,0)">
				</g>
			</g>
		</g>
		<g transform="matrix(1,0,0,1,0,0)">
			<g transform="matrix(1,0,0,1,329.2156066894531,273.2033996582031)">
				<path class="st0" d="M-164.6-62.6c-15.4,5.4-38.1,15.1-51.6,29.1c-21.3,22.1-17.2,52.6-17,53.9"/>
				<path class="st1" d="M-164.6-62.6c-15.4,5.4-38.1,15.1-51.6,29.1c-21.3,22.1-17.2,52.6-17,53.9"/>
				
					<g transform="matrix(-0.17166933417320251,-0.7292032241821289,1.234702467918396,-0.5804815292358398,-12.354924201965332,-52.480255126953125)">
				</g>
			</g>
		</g>
	</g>
	<g transform="matrix(1,0,0,1,0,0)">
		<g transform="matrix(1,0,0,1,329.2156066894531,273.2033996582031)">
			
				<g transform="matrix(-0.17166933417320251,-0.7292032241821289,1.234702467918396,-0.5804815292358398,-12.354924201965332,-52.480255126953125)">
			</g>
			<g transform="matrix(1,0,0,1,0,0)">
				<g transform="matrix(1,0,0,1,0,0)">
				</g>
			</g>
			<g transform="matrix(1,0,0,1,0,0)">
				<g transform="matrix(1,0,0,1,-200,-200)">
				</g>
			</g>
			<g transform="matrix(1,0,0,1,-135,0)">
				<g transform="matrix(1,0,0,1,0,0)">
				</g>
			</g>
		</g>
		<g transform="matrix(1,0,0,1,0,0)">
			<g transform="matrix(1,0,0,1,329.2156066894531,273.2033996582031)">
				<path class="st0" d="M16.2,8.6C12.8-7.4,6.1-31.2-6-46.4c-19.2-24-49.9-23.9-51.2-23.9"/>
				<path class="st1" d="M16.2,8.6C12.8-7.4,6.1-31.2-6-46.4c-19.2-24-49.9-23.9-51.2-23.9"/>
				
					<g transform="matrix(-0.17166933417320251,-0.7292032241821289,1.234702467918396,-0.5804815292358398,-12.354924201965332,-52.480255126953125)">
				</g>
			</g>
		</g>
	</g>
	
		<g transform="matrix(0.9945219159126282,-0.10452846437692642,0.10452846437692642,0.9945219159126282,43.65632629394531,26.1407470703125)">
		<g transform="matrix(1,0,0,1,130,148.05499267578125)">
			<path class="st2" d="M84.6,57.9c-11.1-14.6-9.7-46.8,2.7-63C102-24.6,114.5-47.8,115.7-75c2.4-57.1-40.2-75.2-91.1-76.1
				c-46.8-0.9-78.6,29-81,86.1C-57.6-37.9-50-13.8-36.8,3.7c11.1,14.6,9.7,46.8-2.7,63c-14.8,19.4-24.4,44.7-25.6,71.9
				c-2.4,57.1,33.5,100.6,80.2,97.3c46.7-3.3,86.6-52.2,89-109.3C105.3,99.4,97.8,75.3,84.6,57.9z"/>
		</g>
		<g>
			<path class="st3" d="M158.4,376.4l-2.2,0.2c-5.3,0.6-10.2-3.2-10.9-8.5l-3.5-29.1c-0.7-5.3,3.2-10.2,8.5-10.8l2.2-0.3
				c5.3-0.6,10.2,3.2,10.9,8.5l3.5,29.1C167.6,370.9,163.7,375.8,158.4,376.4z"/>
			<path class="st3" d="M189.5,344.4l-2.1,0.2c-5.1,0.6-9.9-3.1-10.5-8.2l-3.4-28.1c-0.6-5.1,3.1-9.8,8.2-10.5l2.1-0.3
				c5.1-0.6,9.9,3.1,10.5,8.2l3.4,28.1C198.3,339,194.6,343.7,189.5,344.4z"/>
			<path class="st3" d="M215.3,304.8l-2.1,0.2c-5.1,0.6-9.9-3.1-10.5-8.2l-3.4-28.1c-0.6-5.1,3.1-9.8,8.2-10.5l2.1-0.3
				c5.1-0.6,9.9,3.1,10.5,8.2l3.4,28.1C224.1,299.4,220.4,304.2,215.3,304.8z"/>
			<path class="st3" d="M123.3,343l-2.2,0.2c-5.3,0.6-10.2-3.2-10.9-8.5l-3.5-29.1c-0.7-5.3,3.2-10.2,8.5-10.8l2.2-0.3
				c5.3-0.6,10.2,3.2,10.9,8.5l3.5,29.1C132.4,337.4,128.5,342.3,123.3,343z"/>
			<path class="st3" d="M153.3,310.8l-2.2,0.2c-5.3,0.6-10.2-3.2-10.9-8.5l-3.5-29.1c-0.7-5.3,3.2-10.2,8.5-10.8l2.2-0.3
				c5.3-0.6,10.2,3.2,10.9,8.5l3.5,29.1C162.5,305.2,158.6,310.1,153.3,310.8z"/>
			<path class="st3" d="M180,269.9l-2.2,0.2c-5.3,0.6-10.2-3.2-10.9-8.5l-3.5-29.1c-0.7-5.3,3.2-10.2,8.5-10.8l2.2-0.3
				c5.3-0.6,10.2,3.2,10.9,8.5l3.5,29.1C189.1,264.3,185.3,269.2,180,269.9z"/>
		</g>
	</g>
	<g>
		
			<g transform="matrix(0.9945219159126282,-0.10452846437692642,0.10452846437692642,0.9945219159126282,72.7201919555664,15.6641845703125)">
			<g transform="matrix(1,0,0,1,130,229.57699584960938)">
				<path class="st4" d="M-19.2-94.2c5.6,7.3,13.8,11.9,23,11.9s17.4-4.6,23-11.9"/>
			</g>
		</g>
		
			<g transform="matrix(0.9945219159126282,-0.10452846437692642,0.10452846437692642,0.9945219159126282,72.720458984375,15.664337158203125)">
			<g transform="matrix(1,0,0,1,0,0)">
				<g transform="matrix(1,0,0,1,100.62699890136719,212.38099670410156)">
					<path d="M-6.5-90.9c0,2.1-1.7,3.7-3.8,3.7c-2.1,0-3.8-1.7-3.8-3.7c0-2.1,1.7-3.7,3.8-3.7S-6.5-92.9-6.5-90.9z"/>
				</g>
				<g transform="matrix(1,0,0,1,159.3730010986328,212.38099670410156)">
					<path d="M20.5-90.8c0,2.1-1.7,3.7-3.8,3.7c-2.1,0-3.8-1.7-3.8-3.7c0-2.1,1.7-3.7,3.8-3.7S20.5-92.9,20.5-90.8z"/>
				</g>
			</g>
		</g>
	</g>
</g>
</svg>
