<svg width="150" height="75" viewBox="0 0 150 75" fill="none" xmlns="http://www.w3.org/2000/svg">
<path d="M1 1H149V74H1V1Z" fill="#E2442F" stroke="black" stroke-width="2"/>
<path d="M75 16.2806L2.85078 74H147.149L75 16.2806Z" stroke="black" stroke-width="2"/>
<path d="M75 50.7832L3.19737 1H146.803L75 50.7832Z" fill="#E2442F" stroke="black" stroke-width="2"/>
<circle cx="75" cy="48" r="13" fill="#F1F333" stroke="black" stroke-width="2"/>
<path d="M67.0996 45.0749H81.5956V46.8669H67.0996V45.0749ZM71.7396 41.4909L73.7556 41.5709C73.4516 48.7389 72.3956 53.5389 68.2356 56.3709C67.9796 55.9709 67.2116 55.1069 66.7636 54.7229C70.7156 52.4029 71.5476 48.0029 71.7396 41.4909ZM74.6356 46.4669H76.5876V53.6349C76.5876 54.3229 76.6836 54.4189 77.3556 54.4189C77.6756 54.4189 79.0196 54.4189 79.3876 54.4189C79.9796 54.4189 80.0916 54.1149 80.1716 52.5789C80.5876 52.8829 81.3876 53.2029 81.9156 53.3149C81.7076 55.5069 81.1636 56.1789 79.5476 56.1789C79.1316 56.1789 77.4996 56.1789 77.0996 56.1789C75.1316 56.1789 74.6356 55.6029 74.6356 53.6509V46.4669ZM75.5796 42.7229L76.8596 41.6829C77.8036 42.3229 79.1156 43.2989 79.7716 43.9229L78.4276 45.0749C77.8196 44.4349 76.5396 43.4269 75.5796 42.7229ZM79.2596 47.4589L81.0516 48.2109C79.1156 51.6829 76.1716 54.3549 72.7156 56.0989C72.4436 55.6349 71.8836 54.9949 71.4036 54.5629C74.7156 53.1229 77.6276 50.6269 79.2596 47.4589Z" fill="black"/>
</svg>
