<svg width="646" height="233" viewBox="0 0 646 233" fill="none" xmlns="http://www.w3.org/2000/svg">
<path d="M497.429 26.2792C432.158 11.5172 365.718 2.59614 298.806 0.723971C242.348 -0.849401 184.575 1.20053 130.006 17.0722C104.391 24.5253 79.6045 35.2535 57.4133 50.1761C34.464 65.6021 11.0401 86.032 2.84938 113.385C-1.07065 126.465 -1.15847 140.978 4.40216 153.6C9.28562 164.667 17.8543 173.523 27.8848 180.112C50.097 194.719 77.5536 200.479 103.034 206.63C163.879 221.311 226.213 229.776 288.768 232.037C351.217 234.293 413.866 230.463 475.545 220.401C506.218 215.396 536.642 208.855 566.66 200.82C590.353 194.465 616.903 187.05 633.698 167.874C641.443 159.035 645.891 147.753 645.518 135.946C645.102 122.895 638.791 110.495 630.137 100.952C620.473 90.309 607.654 83.1916 594.384 78.0152C580.064 72.445 565.058 68.5338 550.212 64.6362C488.1 48.2998 424.284 38.5068 360.15 35.3315C296.51 32.1731 232.574 35.4211 169.612 45.2781C154.328 47.6686 139.097 50.4583 123.952 53.6124C120.256 54.3827 120.794 60.3122 124.547 59.5246C185.532 46.816 247.774 40.3206 310.07 40.0756C372.081 39.8363 434.133 45.8453 494.957 57.9676C510.127 60.992 525.233 64.3956 540.232 68.1847C555.09 71.9363 570.039 75.7841 584.558 80.7423C609.424 89.2364 637.612 105.801 639.545 135.159C641.219 160.826 617.599 176.636 596.604 185.158C584.294 190.152 571.363 193.495 558.524 196.853C543.774 200.693 528.911 204.164 513.978 207.26C454.719 219.549 394.282 226.029 333.768 226.711C272.958 227.397 212.081 222.153 152.279 211.065C123.225 205.679 93.991 199.375 65.7444 190.588C44.04 183.829 18.9936 173.152 9.6027 150.705C-1.97915 123.028 15.0168 94.4431 34.7615 75.7144C54.012 57.4398 77.2291 43.4449 101.676 33.2911C150.96 12.8214 205.221 7.14723 258.167 6.34779C322.294 5.37867 386.451 11.0328 449.533 22.5304C465.242 25.391 480.876 28.6154 496.446 32.1383C500.175 32.9879 501.16 27.1158 497.442 26.2815" fill="#241F21"/>
</svg>
