<svg class="svg-icon"
    style="width: 1em; height: 1em;vertical-align: middle;fill: currentColor;overflow: hidden;"
    viewBox="0 0 1024 1024" version="1.1" xmlns="http://www.w3.org/2000/svg">
    <path
        d="M512 16C238 16 16 238 16 512s222 496 496 496 496-222 496-496S786 16 512 16z m160 336c35.4 0 64 28.6 64 64s-28.6 64-64 64-64-28.6-64-64 28.6-64 64-64z m-320 0c35.4 0 64 28.6 64 64s-28.6 64-64 64-64-28.6-64-64 28.6-64 64-64z m389.6 340.4C684.6 760.8 601 800 512 800s-172.6-39.2-229.6-107.6c-27.2-32.6 22-73.4 49.2-41 44.8 53.8 110.4 84.4 180.4 84.4s135.6-30.8 180.4-84.4c26.8-32.4 76.2 8.4 49.2 41z"
        fill="white" />
</svg>