<svg xmlns="http://www.w3.org/2000/svg" xmlns:xlink="http://www.w3.org/1999/xlink" viewBox="0 0 157.29 134"><defs><linearGradient id="a" x1="944.83" y1="793.56" x2="1094.66" y2="848.09" gradientTransform="translate(161.74 192.7) scale(0.39)" gradientUnits="userSpaceOnUse"><stop offset="0" stop-color="#d93025"/><stop offset="0.2" stop-color="#d93025"/><stop offset="0.6" stop-color="#ea4335"/><stop offset="1" stop-color="#ea4335"/></linearGradient><linearGradient id="b" x1="717.37" y1="811.09" x2="884.32" y2="871.86" gradientTransform="translate(161.74 192.7) scale(0.39)" gradientUnits="userSpaceOnUse"><stop offset="0" stop-color="#4285f4"/><stop offset="0.2" stop-color="#4285f4"/><stop offset="0.8" stop-color="#1b74e8"/><stop offset="1" stop-color="#1b74e8"/></linearGradient></defs><title>Google Pay logo symbol</title><path d="M516.21,525.89l38.91-67.42,21.21,12.25A28.59,28.59,0,0,1,586.8,509.8l-21.93,38a17.92,17.92,0,0,1-24.44,6.57L520.78,543A12.55,12.55,0,0,1,516.21,525.89Z" transform="translate(-433.35 -445)" style="fill:url(#a)"/><path d="M512.09,479.07l-48.38,83.84,21.21,12.25A28.59,28.59,0,0,0,524,564.69l31.4-54.39a17.87,17.87,0,0,0-6.57-24.44L529.13,474.5A12.47,12.47,0,0,0,512.09,479.07Z" transform="translate(-433.35 -445)" style="fill:#fdbd00"/><path d="M555.13,458.47l-15-8.68a35.83,35.83,0,0,0-48.88,13.08l-27.84,48.21A17.87,17.87,0,0,0,470,535.52l15,8.68a17.87,17.87,0,0,0,24.44-6.57l33.24-57.56a25,25,0,0,1,34.13-9.13" transform="translate(-433.35 -445)" style="fill:#2da94f"/><path d="M495.61,477l-16.53-9.52a15.42,15.42,0,0,0-21,5.62l-19.93,34.29a35.31,35.31,0,0,0,13,48.27l12.58,7.24L479,571.7l6.62,3.84a27.12,27.12,0,0,1-8.29-36.07l5.12-8.85,18.82-32.51A15.43,15.43,0,0,0,495.61,477Z" transform="translate(-433.35 -445)" style="fill:url(#b)"/></svg>