<svg width="32" height="33" viewBox="0 0 32 33" fill="none" xmlns="http://www.w3.org/2000/svg"><circle cx="16" cy="16.5" r="16" fill="#00BCFF"/><path d="M16.004 9.84c-5.42 0-9.813 2.81-9.813 6.278s4.394 6.55 9.813 6.55 9.812-3.084 9.812-6.55-4.393-6.278-9.812-6.278" fill="#00BCFF"/><path d="M12.81 14.176c-.005.01-.101.108-.039.188.152.194.62.305 1.095.199.282-.064.644-.351.994-.629.38-.301.757-.604 1.135-.723.401-.128.658-.074.828-.022.186.056.406.178.755.44.658.494 3.303 2.804 3.76 3.203.368-.167 2.122-.875 4.345-1.365-.194-1.186-.906-2.316-2-3.203-1.524.64-3.511 1.024-5.333.135-.009-.004-.995-.47-1.967-.447-1.445.033-2.07.658-2.733 1.32l-.84.905z" fill="#fff"/><path d="M21.232 17.084c-.032-.028-3.11-2.722-3.809-3.247-.403-.303-.628-.38-.864-.41a1.2 1.2 0 0 0-.41.04c-.325.088-.75.371-1.126.67-.39.31-.758.603-1.1.68-.435.097-.968-.018-1.211-.182a.54.54 0 0 1-.201-.22c-.09-.208.075-.375.103-.402l.85-.92q.147-.148.3-.294c-.275.035-.528.106-.775.174-.308.086-.605.168-.904.168-.125 0-.795-.11-.923-.144-.769-.21-1.64-.415-2.649-.886-1.208.899-1.995 2.003-2.228 3.242.174.046.628.15.746.175 2.734.609 3.586 1.234 3.74 1.365a.9.9 0 0 1 .678-.303c.303 0 .575.152.74.387.157-.124.373-.23.652-.23q.192 0 .392.07a.9.9 0 0 1 .55.496.9.9 0 0 1 .38-.08q.222 0 .455.1c.504.216.582.712.537 1.085a1.085 1.085 0 0 1 1.063 1.59c.162.091.576.298.94.252.291-.037.402-.136.44-.192.028-.038.056-.084.03-.116l-.771-.856s-.127-.12-.085-.166c.043-.048.121.02.177.066.393.328.872.823.872.823.008.005.04.068.217.1.153.026.423.011.61-.143a1 1 0 0 0 .135-.137l-.01.007c.198-.253-.022-.508-.022-.508l-.9-1.01s-.129-.12-.085-.168c.039-.042.122.021.178.069.285.238.688.642 1.074 1.02.076.055.415.265.864-.03.273-.179.327-.399.32-.564a.65.65 0 0 0-.19-.376l-1.23-1.236s-.13-.111-.084-.168c.037-.047.122.021.177.067.392.328 1.453 1.301 1.453 1.301.015.01.381.272.835-.017a.56.56 0 0 0 .274-.441c.015-.315-.206-.502-.206-.502" fill="#fff"/><path d="M15.264 18.65c-.19-.002-.4.112-.427.095-.015-.01.012-.086.03-.13s.269-.8-.343-1.063c-.469-.2-.756.026-.854.128q-.038.04-.04-.01c-.01-.136-.07-.503-.475-.627-.578-.177-.95.226-1.044.372a.67.67 0 1 0-.662.757c.18 0 .343-.072.463-.188q.007.005.004.022c-.029.167-.08.77.551 1.015.254.098.469.025.647-.1.053-.037.062-.021.055.029-.023.155.006.487.471.675.354.145.563-.002.701-.13.06-.054.076-.045.08.04a.84.84 0 0 0 .842.805.843.843 0 1 0 0-1.687z" fill="#fff"/><path d="M16.001 9.58c-5.523 0-10 2.937-10 6.54L6 16.503c0 3.823 3.913 6.918 10 6.918s10-3.095 10-6.918v-.383c0-3.603-4.477-6.54-9.999-6.54m9.548 5.815a23 23 0 0 0-4.2 1.365c-.948-.828-3.14-2.734-3.735-3.18-.339-.255-.57-.39-.774-.45a1.3 1.3 0 0 0-.38-.059q-.227 0-.482.082c-.384.121-.766.425-1.136.719l-.019.015c-.344.274-.7.557-.97.617q-.177.04-.359.04c-.302 0-.573-.087-.675-.217q-.024-.031.034-.105l.005-.008.835-.899c.654-.653 1.27-1.27 2.692-1.303l.07-.001c.885 0 1.77.396 1.87.442.828.405 1.685.61 2.545.611.895 0 1.818-.22 2.789-.667 1.014.852 1.686 1.88 1.89 2.999zm-9.547-5.43c2.932 0 5.555.84 7.318 2.164-.852.369-1.665.555-2.449.555a5.4 5.4 0 0 1-2.382-.573c-.041-.02-1.017-.48-2.033-.48h-.08c-1.194.028-1.867.452-2.319.823-.439.011-.818.117-1.156.211-.302.084-.561.156-.815.156-.104 0-.292-.01-.309-.01-.291-.01-1.753-.368-2.921-.809 1.76-1.25 4.31-2.037 7.147-2.037M8.51 12.264c1.22.499 2.699.884 3.167.914.13.009.27.024.409.024.31 0 .62-.087.92-.17.176-.05.372-.104.578-.143l-.165.163-.848.917c-.067.068-.212.248-.116.47a.6.6 0 0 0 .223.246c.202.136.564.229.9.229q.192 0 .358-.038c.356-.08.728-.377 1.123-.69.315-.25.762-.568 1.105-.662a1.3 1.3 0 0 1 .307-.042l.08.005c.225.028.444.105.835.398.696.523 3.775 3.217 3.805 3.244a.6.6 0 0 1 .185.452.5.5 0 0 1-.247.394.75.75 0 0 1-.404.126c-.206 0-.347-.097-.357-.103-.011-.01-1.066-.977-1.454-1.302-.062-.052-.122-.098-.183-.098a.1.1 0 0 0-.08.038c-.062.076.006.18.087.248l1.233 1.24s.154.143.17.333q.015.31-.292.511a.8.8 0 0 1-.437.145.64.64 0 0 1-.352-.107l-.176-.174c-.323-.318-.657-.647-.901-.85-.06-.05-.124-.096-.184-.096a.1.1 0 0 0-.078.034c-.028.03-.048.086.022.179.028.038.062.07.062.07l.899 1.01c.007.009.185.22.02.43l-.032.041a1 1 0 0 1-.083.081.7.7 0 0 1-.44.14 1 1 0 0 1-.122-.011q-.133-.023-.177-.075l-.011-.01a14 14 0 0 0-.878-.827c-.05-.042-.111-.094-.175-.094a.11.11 0 0 0-.081.037c-.074.081.038.202.085.247l.767.846a.2.2 0 0 1-.03.051c-.027.039-.12.131-.398.166a1 1 0 0 1-.102.006c-.287 0-.593-.139-.751-.223a1.142 1.142 0 0 0-1.076-1.63c.02-.289-.02-.835-.58-1.075a1.2 1.2 0 0 0-.48-.106q-.184 0-.35.064a.97.97 0 0 0-.56-.476 1.3 1.3 0 0 0-.41-.072q-.353 0-.64.204a.97.97 0 0 0-.754-.363.97.97 0 0 0-.683.283c-.239-.183-1.186-.784-3.721-1.36a13 13 0 0 1-.569-.157c.238-1.138.961-2.177 2.033-3.03zm4.703 6.6-.027-.024h-.028q-.032-.001-.077.031a.65.65 0 0 1-.379.135.6.6 0 0 1-.212-.04c-.587-.23-.541-.784-.512-.951q.006-.051-.026-.079l-.042-.034-.039.037a.61.61 0 1 1-.42-1.05.61.61 0 0 1 .601.534l.021.163.09-.138c.01-.016.257-.39.71-.389q.13 0 .266.042c.361.11.422.438.431.574.007.08.064.084.074.084.031 0 .054-.02.07-.037a.62.62 0 0 1 .45-.19q.16 0 .336.077c.574.246.314.976.311.983-.05.122-.051.175-.005.206l.023.01h.016c.026 0 .058-.01.112-.029a1 1 0 0 1 .306-.067.79.79 0 0 1 .784.784.785.785 0 0 1-1.566.035c-.002-.037-.005-.131-.086-.131-.033 0-.062.02-.095.05a.55.55 0 0 1-.384.173.7.7 0 0 1-.254-.055c-.446-.181-.452-.487-.434-.61.005-.033.006-.067-.016-.095zm2.79 3.404c-5.31 0-9.615-2.754-9.615-6.151q.002-.205.023-.407l.552.131c2.59.575 3.445 1.174 3.59 1.287a.972.972 0 0 0 1.074 1.327c.08.394.338.693.732.846a.9.9 0 0 0 .567.04c.073.185.236.415.602.563q.193.079.38.08a.9.9 0 0 0 .297-.054 1.146 1.146 0 0 0 1.878.363c.184.103.574.289.968.29q.076 0 .147-.01c.392-.049.573-.202.657-.321l.04-.066c.092.026.194.048.311.049.214 0 .419-.074.626-.224.204-.147.349-.358.37-.538v-.007q.105.02.21.02c.22 0 .437-.068.643-.203.4-.262.469-.603.462-.827q.106.022.213.022.31 0 .602-.185a.88.88 0 0 0 .42-.682.93.93 0 0 0-.134-.55c.667-.288 2.192-.844 3.988-1.249q.012.153.012.307c0 3.397-4.305 6.151-9.615 6.151z" fill="#0A0080"/></svg>
