<svg width="33" height="33" viewBox="0 0 33 33" fill="none" xmlns="http://www.w3.org/2000/svg">
<rect x="0.691406" y="0.0214844" width="32" height="32" rx="16" fill="white"/>
<path d="M12.4713 27.2082L12.8873 24.5662L11.9607 24.5447H7.53642L10.6111 5.04935C10.6206 4.9905 10.6516 4.93562 10.697 4.89665C10.7423 4.85768 10.8004 4.83621 10.8608 4.83621H18.3208C20.7974 4.83621 22.5065 5.35157 23.3988 6.36877C23.8172 6.84595 24.0836 7.34461 24.2124 7.89337C24.3476 8.46918 24.35 9.15712 24.218 9.99617L24.2085 10.0574V10.595L24.6268 10.832C24.9791 11.0189 25.2591 11.2329 25.4738 11.4778C25.8317 11.8858 26.0631 12.4044 26.1609 13.0191C26.2619 13.6514 26.2285 14.4038 26.0631 15.2555C25.8722 16.2354 25.5637 17.0887 25.1469 17.787C24.7636 18.4304 24.2753 18.9641 23.6955 19.3776C23.142 19.7705 22.4842 20.0687 21.7406 20.2596C21.0201 20.4473 20.1985 20.5419 19.2974 20.5419H18.7169C18.3017 20.5419 17.8985 20.6915 17.582 20.9595C17.2646 21.2331 17.0547 21.6069 16.9902 22.0157L16.9465 22.2535L16.2116 26.91L16.1782 27.081C16.1695 27.135 16.1544 27.1621 16.1321 27.1804C16.1122 27.1971 16.0836 27.2082 16.0558 27.2082H12.4713Z" fill="#253B80"/>
<path d="M25.021 10.1191C24.9987 10.2615 24.9733 10.407 24.9446 10.5565C23.9609 15.6075 20.5951 17.3524 16.2965 17.3524H14.1078C13.5821 17.3524 13.1391 17.7342 13.0572 18.2527L11.9366 25.3596L11.6193 27.3741C11.566 27.7145 11.8284 28.0215 12.172 28.0215H16.0539C16.5136 28.0215 16.9041 27.6875 16.9765 27.2341L17.0146 27.0369L17.7455 22.3987L17.7924 22.1442C17.864 21.6892 18.2553 21.3552 18.715 21.3552H19.2956C23.0566 21.3552 26.0008 19.8282 26.8613 15.4095C27.2208 13.5636 27.0347 12.0223 26.0835 10.9383C25.7956 10.6114 25.4385 10.3402 25.021 10.1191Z" fill="#179BD7"/>
<path d="M23.9917 9.70876C23.8414 9.66501 23.6863 9.62525 23.5272 9.58946C23.3673 9.55447 23.2035 9.52345 23.0349 9.49641C22.4448 9.40097 21.7982 9.35564 21.1055 9.35564H15.2584C15.1144 9.35564 14.9776 9.38825 14.8552 9.4471C14.5856 9.57674 14.3851 9.83203 14.3366 10.1446L13.0928 18.0229L13.0572 18.2527C13.1391 17.7342 13.5821 17.3524 14.1078 17.3524H16.2965C20.5951 17.3524 23.9609 15.6075 24.9446 10.5565C24.9741 10.407 24.9987 10.2615 25.021 10.1191C24.7721 9.98708 24.5023 9.87418 24.212 9.77795C24.1404 9.75409 24.0664 9.73102 23.9917 9.70876Z" fill="#222D65"/>
<path d="M14.3375 10.1446C14.386 9.832 14.5864 9.57671 14.856 9.44787C14.9793 9.38902 15.1153 9.35641 15.2592 9.35641H21.1064C21.7991 9.35641 22.4457 9.40174 23.0358 9.49718C23.2044 9.52422 23.3682 9.55524 23.5281 9.59023C23.6871 9.62602 23.8422 9.66578 23.9925 9.70953C24.0673 9.73179 24.1412 9.75486 24.2136 9.77792C24.5039 9.87416 24.7735 9.98788 25.0224 10.1191C25.3151 8.25252 25.0201 6.98162 24.0108 5.83081C22.8982 4.56388 20.89 4.02148 18.3204 4.02148H10.8604C10.3355 4.02148 9.88774 4.40323 9.80662 4.92257L6.69935 24.6184C6.63811 25.0081 6.93874 25.3596 7.33162 25.3596L11.9366 25.3596L14.3375 10.1446Z" fill="#253B80"/>
</svg>
