<svg width="32" height="33" viewBox="0 0 32 33" fill="none" xmlns="http://www.w3.org/2000/svg"><circle cx="16" cy="16.5" r="16" fill="#000"/><path d="M21.038 21.27a2.63 2.63 0 0 1-1.87-.774l-2.7-2.7a.513.513 0 0 0-.709 0l-2.71 2.71c-.5.499-1.163.774-1.87.774h-.531l3.419 3.42a2.735 2.735 0 0 0 3.867 0l3.43-3.43zm-9.858-9.55c.706 0 1.37.275 1.87.774l2.709 2.71a.5.5 0 0 0 .71 0l2.699-2.7a2.63 2.63 0 0 1 1.87-.774h.325l-3.429-3.429a2.735 2.735 0 0 0-3.867 0l-3.42 3.42z" fill="#32BCAD"/><path d="m24.2 14.566-2.073-2.072a.4.4 0 0 1-.147.03h-.942c-.488 0-.964.197-1.309.542l-2.7 2.7c-.252.252-.584.378-.916.378s-.663-.126-.916-.378l-2.71-2.71a1.86 1.86 0 0 0-1.308-.542h-1.158a.4.4 0 0 1-.14-.028l-2.08 2.08a2.734 2.734 0 0 0 0 3.867l2.08 2.08a.4.4 0 0 1 .14-.027h1.158c.487 0 .964-.198 1.308-.542l2.71-2.71c.49-.49 1.343-.49 1.833 0l2.7 2.7c.344.344.82.542 1.308.542h.942q.078 0 .147.03l2.072-2.073a2.734 2.734 0 0 0 0-3.867" fill="#32BCAD"/></svg>
