<svg data-v-6805eed4="" version="1.0" xmlns="http://www.w3.org/2000/svg" xmlns:xlink="http://www.w3.org/1999/xlink" width="500" height="500" viewBox="0 0 222.71200000000007 222.71200000000007" preserveAspectRatio="xMidYMid meet" color-interpolation-filters="sRGB" style="margin: auto;"> <rect data-v-6805eed4="" x="0" y="0" width="100%" height="100%" fill="#FFFFFF" fill-opacity="0" class="background"></rect> <!----> <g data-v-6805eed4="" fill="#333333" class="icon-text-wrapper icon-svg-group iconsvg" transform="translate(31.815999084472693, 31.815999084472693)"><g fill="#333333" class="iconsvg-imagesvg icon_container" mask="url(#9d72d2da-261b-4bc1-9742-c9cf130f6a6e)"><rect fill="#333333" fill-opacity="0" stroke-width="2px" x="0" y="0" width="159.08000000000007" height="159.08000000000007" class="image-rect"></rect> <svg viewBox="0 0 60 60" x="0" y="0" width="159.08000000000007" height="159.08000000000007" class="image-svg-svg bn" style="overflow: visible;" fill="#333333"><g hollow-target="iconBnFill" mask="url(#ba274195-7833-426b-b44c-61d43dfea875)" fill="#333333"><g fill="#333333"><svg xmlns="http://www.w3.org/2000/svg" xmlns:xlink="http://www.w3.org/1999/xlink" xml:space="preserve" version="1.1" style="shape-rendering: geometricprecision; text-rendering: geometricprecision; overflow: visible;" viewBox="0 0 249 249" x="0" y="0" fill-rule="evenodd" clip-rule="evenodd" width="60" height="60" filtersec="colorsf7315442822" filter="url(#1Yhek4zcOJZmEwrTqyR-Z)" fill="#333333"><g transform="scale(1, 1) skewX(0)" fill="#333333"><defs><filter id="1Yhek4zcOJZmEwrTqyR-Z"><feColorMatrix type="matrix" values="0 0 0 0 0.19921875  0 0 0 0 0.19921875  0 0 0 0 0.19921875  0 0 0 1 0"></feColorMatrix></filter><linearGradient x1="0" y1="1" x2="0" y2="0" id="Fz_BmD70MPQsQj_Q9tWLO"><stop offset="0%" stop-color="#9546fd"></stop><stop offset="100%" stop-color="#ddc3ff"></stop></linearGradient></defs><g fill="#333333"><path class="fil0" d="M125 0c68,0 124,56 124,125 0,68 -56,124 -124,124 -69,0 -125,-56 -125,-124 0,-69 56,-125 125,-125z" fill="#333333"></path></g></g></svg></g> <g filter="url(#colors1950108387)" fill="#333333"><svg xmlns="http://www.w3.org/2000/svg" viewBox="0 0 115.47000122070312 100" width="40" height="40" x="10" y="10" class="image-svg-icon" fill="#333333"><title>资源 359</title><path d="M45.33 14.3L37.07 0H86.6l8.26 14.3zm24.82 71.4L78.4 100H28.87l-8.26-14.3zm-33-42.8l8.26-14.3h57.73L115.47 50Q103.1 71.45 90.7 92.9l-8.25-14.3Q90.7 64.29 99 50l-4.1-7.1zM16.51 50l4.1 7.1h57.74l-8.26 14.3H12.36L0 50 24.77 7.1 33 21.4Q24.77 35.71 16.51 50z" fill="#333333"></path></svg></g></g><mask id="ba274195-7833-426b-b44c-61d43dfea875" fill="#333333"><g fill="#FFFFFF"><svg xmlns="http://www.w3.org/2000/svg" xmlns:xlink="http://www.w3.org/1999/xlink" xml:space="preserve" version="1.1" style="shape-rendering: geometricprecision; text-rendering: geometricprecision; overflow: visible;" viewBox="0 0 249 249" x="0" y="0" fill-rule="evenodd" clip-rule="evenodd" width="60" height="60" filtersec="colorsf7315442822" fill="#FFFFFF"><g transform="scale(1, 1) skewX(0)" fill="#FFFFFF"><defs></defs><g fill="#FFFFFF"><path d="M125 0c68,0 124,56 124,125 0,68 -56,124 -124,124 -69,0 -125,-56 -125,-124 0,-69 56,-125 125,-125z" fill="#FFFFFF"></path></g></g></svg></g> <g fill="black"><svg xmlns="http://www.w3.org/2000/svg" viewBox="0 0 115.47000122070312 100" width="40" height="40" x="10" y="10" class="image-svg-icon"><title>资源 359</title><path d="M45.33 14.3L37.07 0H86.6l8.26 14.3zm24.82 71.4L78.4 100H28.87l-8.26-14.3zm-33-42.8l8.26-14.3h57.73L115.47 50Q103.1 71.45 90.7 92.9l-8.25-14.3Q90.7 64.29 99 50l-4.1-7.1zM16.51 50l4.1 7.1h57.74l-8.26 14.3H12.36L0 50 24.77 7.1 33 21.4Q24.77 35.71 16.51 50z"></path></svg></g></mask></svg> <defs><filter id="colors1950108387"><feColorMatrix type="matrix" values="0 0 0 0 0.19921875  0 0 0 0 0.19921875  0 0 0 0 0.19921875  0 0 0 1 0" class="icon-fecolormatrix"></feColorMatrix></filter> <filter id="colorsf7315442822"><feColorMatrix type="matrix" values="0 0 0 0 0.99609375  0 0 0 0 0.99609375  0 0 0 0 0.99609375  0 0 0 1 0" class="icon-fecolormatrix"></feColorMatrix></filter> <filter id="colorsb9061081918"><feColorMatrix type="matrix" values="0 0 0 0 0  0 0 0 0 0  0 0 0 0 0  0 0 0 1 0" class="icon-fecolormatrix"></feColorMatrix></filter></defs><rect v-gra="id" width="171.0800018310547" height="171.0800018310547" transform="translate(-6, -6)" style="pointer-events:none;" fill="url(&quot;#Fz_BmD70MPQsQj_Q9tWLO&quot;)"></rect></g> <g transform="translate(79.54000091552734,166.0800018310547)" fill="#333333"><g data-gra="path-name" fill-rule="" class="tp-name iconsvg-namesvg" fill="#333333"><g transform="scale(1)" fill="#333333"><g fill="#333333"><path d="" transform="translate(0, 0)" fill="#333333"></path></g> <!----> <!----> <!----> <!----> <!----> <!----> <!----></g></g> <!----></g></g><defs v-gra="od"></defs><defs v-gra="id"><filter id="d7266b12-fb6b-4d96-a199-c874e5cc75e3" filterUnits="userSpaceOnUse"><feColorMatrix type="matrix" values="0 0 0 0 0.99609375  0 0 0 0 0.99609375  0 0 0 0 0.99609375  0 0 0 1 0"></feColorMatrix></filter><linearGradient x1="0" y1="1" x2="0" y2="0" id="Fz_BmD70MPQsQj_Q9tWLO"><stop offset="0%" stop-color="#9546fd"></stop><stop offset="100%" stop-color="#ddc3ff"></stop></linearGradient><filter id="42443b3f1de60f6b6fd3b6a9844b4764" filterUnits="objectBoundingBox"><feColorMatrix type="matrix" values="0 0 0 0 0.99609375  0 0 0 0 0.99609375  0 0 0 0 0.99609375  0 0 0 1 0"></feColorMatrix></filter></defs><mask v-gra="im" id="9d72d2da-261b-4bc1-9742-c9cf130f6a6e"><g fill="#333333" class="iconsvg-imagesvg icon_container" filter="url(#d7266b12-fb6b-4d96-a199-c874e5cc75e3)"><rect fill="#333333" fill-opacity="0" stroke-width="2px" x="0" y="0" width="159.08000000000007" height="159.08000000000007" class="image-rect"></rect> <svg viewBox="0 0 60 60" x="0" y="0" width="159.08000000000007" height="159.08000000000007" class="image-svg-svg bn" style="overflow: visible;" fill="#333333"><g hollow-target="iconBnFill" mask="url(#ba274195-7833-426b-b44c-61d43dfea875)" fill="#333333"><g fill="#333333"><svg xmlns="http://www.w3.org/2000/svg" xmlns:xlink="http://www.w3.org/1999/xlink" xml:space="preserve" version="1.1" style="shape-rendering: geometricprecision; text-rendering: geometricprecision; overflow: visible;" viewBox="0 0 249 249" x="0" y="0" fill-rule="evenodd" clip-rule="evenodd" width="60" height="60" filtersec="colorsf7315442822" fill="#333333"><g transform="scale(1, 1) skewX(0)" fill="#333333"><defs><filter id="1Yhek4zcOJZmEwrTqyR-Z"><feColorMatrix type="matrix" values="0 0 0 0 0.19921875  0 0 0 0 0.19921875  0 0 0 0 0.19921875  0 0 0 1 0"></feColorMatrix></filter></defs><g fill="#333333"><path class="fil0" d="M125 0c68,0 124,56 124,125 0,68 -56,124 -124,124 -69,0 -125,-56 -125,-124 0,-69 56,-125 125,-125z" fill="#333333"></path></g></g></svg></g> <g fill="#333333"><svg xmlns="http://www.w3.org/2000/svg" viewBox="0 0 115.47000122070312 100" width="40" height="40" x="10" y="10" class="image-svg-icon" fill="#333333"><title>资源 359</title><path d="M45.33 14.3L37.07 0H86.6l8.26 14.3zm24.82 71.4L78.4 100H28.87l-8.26-14.3zm-33-42.8l8.26-14.3h57.73L115.47 50Q103.1 71.45 90.7 92.9l-8.25-14.3Q90.7 64.29 99 50l-4.1-7.1zM16.51 50l4.1 7.1h57.74l-8.26 14.3H12.36L0 50 24.77 7.1 33 21.4Q24.77 35.71 16.51 50z" fill="#333333"></path></svg></g></g><mask id="ba274195-7833-426b-b44c-61d43dfea875" fill="#333333"><g fill="#FFFFFF"><svg xmlns="http://www.w3.org/2000/svg" xmlns:xlink="http://www.w3.org/1999/xlink" xml:space="preserve" version="1.1" style="shape-rendering: geometricprecision; text-rendering: geometricprecision; overflow: visible;" viewBox="0 0 249 249" x="0" y="0" fill-rule="evenodd" clip-rule="evenodd" width="60" height="60" filtersec="colorsf7315442822" fill="#FFFFFF"><g transform="scale(1, 1) skewX(0)" fill="#FFFFFF"><defs></defs><g fill="#FFFFFF"><path d="M125 0c68,0 124,56 124,125 0,68 -56,124 -124,124 -69,0 -125,-56 -125,-124 0,-69 56,-125 125,-125z" fill="#FFFFFF"></path></g></g></svg></g> <g fill="black"><svg xmlns="http://www.w3.org/2000/svg" viewBox="0 0 115.47000122070312 100" width="40" height="40" x="10" y="10" class="image-svg-icon"><title>资源 359</title><path d="M45.33 14.3L37.07 0H86.6l8.26 14.3zm24.82 71.4L78.4 100H28.87l-8.26-14.3zm-33-42.8l8.26-14.3h57.73L115.47 50Q103.1 71.45 90.7 92.9l-8.25-14.3Q90.7 64.29 99 50l-4.1-7.1zM16.51 50l4.1 7.1h57.74l-8.26 14.3H12.36L0 50 24.77 7.1 33 21.4Q24.77 35.71 16.51 50z"></path></svg></g></mask></svg> <defs><filter id="colors1950108387"><feColorMatrix type="matrix" values="0 0 0 0 0.19921875  0 0 0 0 0.19921875  0 0 0 0 0.19921875  0 0 0 1 0" class="icon-fecolormatrix"></feColorMatrix></filter> <filter id="colorsf7315442822"><feColorMatrix type="matrix" values="0 0 0 0 0.99609375  0 0 0 0 0.99609375  0 0 0 0 0.99609375  0 0 0 1 0" class="icon-fecolormatrix"></feColorMatrix></filter> <filter id="colorsb9061081918"><feColorMatrix type="matrix" values="0 0 0 0 0  0 0 0 0 0  0 0 0 0 0  0 0 0 1 0" class="icon-fecolormatrix"></feColorMatrix></filter></defs></g></mask></svg>